<?xml version="1.0" encoding="utf-8" standalone="no"?>
<!DOCTYPE svg PUBLIC "-//W3C//DTD SVG 1.1//EN"
  "http://www.w3.org/Graphics/SVG/1.1/DTD/svg11.dtd">
<svg xmlns:xlink="http://www.w3.org/1999/xlink" width="1008pt" height="432pt" viewBox="0 0 1008 432" xmlns="http://www.w3.org/2000/svg" version="1.1">
 <metadata>
  <rdf:RDF xmlns:dc="http://purl.org/dc/elements/1.1/" xmlns:cc="http://creativecommons.org/ns#" xmlns:rdf="http://www.w3.org/1999/02/22-rdf-syntax-ns#">
   <cc:Work>
    <dc:type rdf:resource="http://purl.org/dc/dcmitype/StillImage"/>
    <dc:date>2023-12-22T17:08:57.611099</dc:date>
    <dc:format>image/svg+xml</dc:format>
    <dc:creator>
     <cc:Agent>
      <dc:title>Matplotlib v3.5.2, https://matplotlib.org/</dc:title>
     </cc:Agent>
    </dc:creator>
   </cc:Work>
  </rdf:RDF>
 </metadata>
 <defs>
  <style type="text/css">*{stroke-linejoin: round; stroke-linecap: butt}</style>
 </defs>
 <g id="figure_1">
  <g id="patch_1">
   <path d="M 0 432 
L 1008 432 
L 1008 0 
L 0 0 
z
" style="fill: #ffffff"/>
  </g>
  <g id="axes_1">
   <g id="patch_2">
    <path d="M 126 384.48 
L 907.2 384.48 
L 907.2 51.84 
L 126 51.84 
z
" style="fill: #ffffff"/>
   </g>
   <g id="matplotlib.axis_1">
    <g id="xtick_1">
     <g id="line2d_1">
      <defs>
       <path id="m1e4f06d9a6" d="M 0 0 
L 0 3.5 
" style="stroke: #000000; stroke-width: 0.8"/>
      </defs>
      <g>
       <use xlink:href="#m1e4f06d9a6" x="161.509091" y="384.48" style="stroke: #000000; stroke-width: 0.8"/>
      </g>
     </g>
     <g id="text_1">
      <!-- 0.0 -->
      <g transform="translate(153.557528 399.078438)scale(0.1 -0.1)">
       <defs>
        <path id="DejaVuSans-30" d="M 2034 4250 
Q 1547 4250 1301 3770 
Q 1056 3291 1056 2328 
Q 1056 1369 1301 889 
Q 1547 409 2034 409 
Q 2525 409 2770 889 
Q 3016 1369 3016 2328 
Q 3016 3291 2770 3770 
Q 2525 4250 2034 4250 
z
M 2034 4750 
Q 2819 4750 3233 4129 
Q 3647 3509 3647 2328 
Q 3647 1150 3233 529 
Q 2819 -91 2034 -91 
Q 1250 -91 836 529 
Q 422 1150 422 2328 
Q 422 3509 836 4129 
Q 1250 4750 2034 4750 
z
" transform="scale(0.015625)"/>
        <path id="DejaVuSans-2e" d="M 684 794 
L 1344 794 
L 1344 0 
L 684 0 
L 684 794 
z
" transform="scale(0.015625)"/>
       </defs>
       <use xlink:href="#DejaVuSans-30"/>
       <use xlink:href="#DejaVuSans-2e" x="63.623047"/>
       <use xlink:href="#DejaVuSans-30" x="95.410156"/>
      </g>
     </g>
    </g>
    <g id="xtick_2">
     <g id="line2d_2">
      <g>
       <use xlink:href="#m1e4f06d9a6" x="303.545455" y="384.48" style="stroke: #000000; stroke-width: 0.8"/>
      </g>
     </g>
     <g id="text_2">
      <!-- 0.2 -->
      <g transform="translate(295.593892 399.078438)scale(0.1 -0.1)">
       <defs>
        <path id="DejaVuSans-32" d="M 1228 531 
L 3431 531 
L 3431 0 
L 469 0 
L 469 531 
Q 828 903 1448 1529 
Q 2069 2156 2228 2338 
Q 2531 2678 2651 2914 
Q 2772 3150 2772 3378 
Q 2772 3750 2511 3984 
Q 2250 4219 1831 4219 
Q 1534 4219 1204 4116 
Q 875 4013 500 3803 
L 500 4441 
Q 881 4594 1212 4672 
Q 1544 4750 1819 4750 
Q 2544 4750 2975 4387 
Q 3406 4025 3406 3419 
Q 3406 3131 3298 2873 
Q 3191 2616 2906 2266 
Q 2828 2175 2409 1742 
Q 1991 1309 1228 531 
z
" transform="scale(0.015625)"/>
       </defs>
       <use xlink:href="#DejaVuSans-30"/>
       <use xlink:href="#DejaVuSans-2e" x="63.623047"/>
       <use xlink:href="#DejaVuSans-32" x="95.410156"/>
      </g>
     </g>
    </g>
    <g id="xtick_3">
     <g id="line2d_3">
      <g>
       <use xlink:href="#m1e4f06d9a6" x="445.581818" y="384.48" style="stroke: #000000; stroke-width: 0.8"/>
      </g>
     </g>
     <g id="text_3">
      <!-- 0.4 -->
      <g transform="translate(437.630256 399.078438)scale(0.1 -0.1)">
       <defs>
        <path id="DejaVuSans-34" d="M 2419 4116 
L 825 1625 
L 2419 1625 
L 2419 4116 
z
M 2253 4666 
L 3047 4666 
L 3047 1625 
L 3713 1625 
L 3713 1100 
L 3047 1100 
L 3047 0 
L 2419 0 
L 2419 1100 
L 313 1100 
L 313 1709 
L 2253 4666 
z
" transform="scale(0.015625)"/>
       </defs>
       <use xlink:href="#DejaVuSans-30"/>
       <use xlink:href="#DejaVuSans-2e" x="63.623047"/>
       <use xlink:href="#DejaVuSans-34" x="95.410156"/>
      </g>
     </g>
    </g>
    <g id="xtick_4">
     <g id="line2d_4">
      <g>
       <use xlink:href="#m1e4f06d9a6" x="587.618182" y="384.48" style="stroke: #000000; stroke-width: 0.8"/>
      </g>
     </g>
     <g id="text_4">
      <!-- 0.6 -->
      <g transform="translate(579.666619 399.078438)scale(0.1 -0.1)">
       <defs>
        <path id="DejaVuSans-36" d="M 2113 2584 
Q 1688 2584 1439 2293 
Q 1191 2003 1191 1497 
Q 1191 994 1439 701 
Q 1688 409 2113 409 
Q 2538 409 2786 701 
Q 3034 994 3034 1497 
Q 3034 2003 2786 2293 
Q 2538 2584 2113 2584 
z
M 3366 4563 
L 3366 3988 
Q 3128 4100 2886 4159 
Q 2644 4219 2406 4219 
Q 1781 4219 1451 3797 
Q 1122 3375 1075 2522 
Q 1259 2794 1537 2939 
Q 1816 3084 2150 3084 
Q 2853 3084 3261 2657 
Q 3669 2231 3669 1497 
Q 3669 778 3244 343 
Q 2819 -91 2113 -91 
Q 1303 -91 875 529 
Q 447 1150 447 2328 
Q 447 3434 972 4092 
Q 1497 4750 2381 4750 
Q 2619 4750 2861 4703 
Q 3103 4656 3366 4563 
z
" transform="scale(0.015625)"/>
       </defs>
       <use xlink:href="#DejaVuSans-30"/>
       <use xlink:href="#DejaVuSans-2e" x="63.623047"/>
       <use xlink:href="#DejaVuSans-36" x="95.410156"/>
      </g>
     </g>
    </g>
    <g id="xtick_5">
     <g id="line2d_5">
      <g>
       <use xlink:href="#m1e4f06d9a6" x="729.654545" y="384.48" style="stroke: #000000; stroke-width: 0.8"/>
      </g>
     </g>
     <g id="text_5">
      <!-- 0.8 -->
      <g transform="translate(721.702983 399.078438)scale(0.1 -0.1)">
       <defs>
        <path id="DejaVuSans-38" d="M 2034 2216 
Q 1584 2216 1326 1975 
Q 1069 1734 1069 1313 
Q 1069 891 1326 650 
Q 1584 409 2034 409 
Q 2484 409 2743 651 
Q 3003 894 3003 1313 
Q 3003 1734 2745 1975 
Q 2488 2216 2034 2216 
z
M 1403 2484 
Q 997 2584 770 2862 
Q 544 3141 544 3541 
Q 544 4100 942 4425 
Q 1341 4750 2034 4750 
Q 2731 4750 3128 4425 
Q 3525 4100 3525 3541 
Q 3525 3141 3298 2862 
Q 3072 2584 2669 2484 
Q 3125 2378 3379 2068 
Q 3634 1759 3634 1313 
Q 3634 634 3220 271 
Q 2806 -91 2034 -91 
Q 1263 -91 848 271 
Q 434 634 434 1313 
Q 434 1759 690 2068 
Q 947 2378 1403 2484 
z
M 1172 3481 
Q 1172 3119 1398 2916 
Q 1625 2713 2034 2713 
Q 2441 2713 2670 2916 
Q 2900 3119 2900 3481 
Q 2900 3844 2670 4047 
Q 2441 4250 2034 4250 
Q 1625 4250 1398 4047 
Q 1172 3844 1172 3481 
z
" transform="scale(0.015625)"/>
       </defs>
       <use xlink:href="#DejaVuSans-30"/>
       <use xlink:href="#DejaVuSans-2e" x="63.623047"/>
       <use xlink:href="#DejaVuSans-38" x="95.410156"/>
      </g>
     </g>
    </g>
    <g id="xtick_6">
     <g id="line2d_6">
      <g>
       <use xlink:href="#m1e4f06d9a6" x="871.690909" y="384.48" style="stroke: #000000; stroke-width: 0.8"/>
      </g>
     </g>
     <g id="text_6">
      <!-- 1.0 -->
      <g transform="translate(863.739347 399.078438)scale(0.1 -0.1)">
       <defs>
        <path id="DejaVuSans-31" d="M 794 531 
L 1825 531 
L 1825 4091 
L 703 3866 
L 703 4441 
L 1819 4666 
L 2450 4666 
L 2450 531 
L 3481 531 
L 3481 0 
L 794 0 
L 794 531 
z
" transform="scale(0.015625)"/>
       </defs>
       <use xlink:href="#DejaVuSans-31"/>
       <use xlink:href="#DejaVuSans-2e" x="63.623047"/>
       <use xlink:href="#DejaVuSans-30" x="95.410156"/>
      </g>
     </g>
    </g>
    <g id="text_7">
     <!-- Time -->
     <g transform="translate(504.366406 412.756563)scale(0.1 -0.1)">
      <defs>
       <path id="DejaVuSans-54" d="M -19 4666 
L 3928 4666 
L 3928 4134 
L 2272 4134 
L 2272 0 
L 1638 0 
L 1638 4134 
L -19 4134 
L -19 4666 
z
" transform="scale(0.015625)"/>
       <path id="DejaVuSans-69" d="M 603 3500 
L 1178 3500 
L 1178 0 
L 603 0 
L 603 3500 
z
M 603 4863 
L 1178 4863 
L 1178 4134 
L 603 4134 
L 603 4863 
z
" transform="scale(0.015625)"/>
       <path id="DejaVuSans-6d" d="M 3328 2828 
Q 3544 3216 3844 3400 
Q 4144 3584 4550 3584 
Q 5097 3584 5394 3201 
Q 5691 2819 5691 2113 
L 5691 0 
L 5113 0 
L 5113 2094 
Q 5113 2597 4934 2840 
Q 4756 3084 4391 3084 
Q 3944 3084 3684 2787 
Q 3425 2491 3425 1978 
L 3425 0 
L 2847 0 
L 2847 2094 
Q 2847 2600 2669 2842 
Q 2491 3084 2119 3084 
Q 1678 3084 1418 2786 
Q 1159 2488 1159 1978 
L 1159 0 
L 581 0 
L 581 3500 
L 1159 3500 
L 1159 2956 
Q 1356 3278 1631 3431 
Q 1906 3584 2284 3584 
Q 2666 3584 2933 3390 
Q 3200 3197 3328 2828 
z
" transform="scale(0.015625)"/>
       <path id="DejaVuSans-65" d="M 3597 1894 
L 3597 1613 
L 953 1613 
Q 991 1019 1311 708 
Q 1631 397 2203 397 
Q 2534 397 2845 478 
Q 3156 559 3463 722 
L 3463 178 
Q 3153 47 2828 -22 
Q 2503 -91 2169 -91 
Q 1331 -91 842 396 
Q 353 884 353 1716 
Q 353 2575 817 3079 
Q 1281 3584 2069 3584 
Q 2775 3584 3186 3129 
Q 3597 2675 3597 1894 
z
M 3022 2063 
Q 3016 2534 2758 2815 
Q 2500 3097 2075 3097 
Q 1594 3097 1305 2825 
Q 1016 2553 972 2059 
L 3022 2063 
z
" transform="scale(0.015625)"/>
      </defs>
      <use xlink:href="#DejaVuSans-54"/>
      <use xlink:href="#DejaVuSans-69" x="57.958984"/>
      <use xlink:href="#DejaVuSans-6d" x="85.742188"/>
      <use xlink:href="#DejaVuSans-65" x="183.154297"/>
     </g>
    </g>
   </g>
   <g id="matplotlib.axis_2">
    <g id="ytick_1">
     <g id="line2d_7">
      <defs>
       <path id="m1aeefecc86" d="M 0 0 
L -3.5 0 
" style="stroke: #000000; stroke-width: 0.8"/>
      </defs>
      <g>
       <use xlink:href="#m1aeefecc86" x="126" y="369.528178" style="stroke: #000000; stroke-width: 0.8"/>
      </g>
     </g>
     <g id="text_8">
      <!-- 0.0 -->
      <g transform="translate(103.096875 373.327396)scale(0.1 -0.1)">
       <use xlink:href="#DejaVuSans-30"/>
       <use xlink:href="#DejaVuSans-2e" x="63.623047"/>
       <use xlink:href="#DejaVuSans-30" x="95.410156"/>
      </g>
     </g>
    </g>
    <g id="ytick_2">
     <g id="line2d_8">
      <g>
       <use xlink:href="#m1aeefecc86" x="126" y="313.004355" style="stroke: #000000; stroke-width: 0.8"/>
      </g>
     </g>
     <g id="text_9">
      <!-- 0.5 -->
      <g transform="translate(103.096875 316.803574)scale(0.1 -0.1)">
       <defs>
        <path id="DejaVuSans-35" d="M 691 4666 
L 3169 4666 
L 3169 4134 
L 1269 4134 
L 1269 2991 
Q 1406 3038 1543 3061 
Q 1681 3084 1819 3084 
Q 2600 3084 3056 2656 
Q 3513 2228 3513 1497 
Q 3513 744 3044 326 
Q 2575 -91 1722 -91 
Q 1428 -91 1123 -41 
Q 819 9 494 109 
L 494 744 
Q 775 591 1075 516 
Q 1375 441 1709 441 
Q 2250 441 2565 725 
Q 2881 1009 2881 1497 
Q 2881 1984 2565 2268 
Q 2250 2553 1709 2553 
Q 1456 2553 1204 2497 
Q 953 2441 691 2322 
L 691 4666 
z
" transform="scale(0.015625)"/>
       </defs>
       <use xlink:href="#DejaVuSans-30"/>
       <use xlink:href="#DejaVuSans-2e" x="63.623047"/>
       <use xlink:href="#DejaVuSans-35" x="95.410156"/>
      </g>
     </g>
    </g>
    <g id="ytick_3">
     <g id="line2d_9">
      <g>
       <use xlink:href="#m1aeefecc86" x="126" y="256.480533" style="stroke: #000000; stroke-width: 0.8"/>
      </g>
     </g>
     <g id="text_10">
      <!-- 1.0 -->
      <g transform="translate(103.096875 260.279752)scale(0.1 -0.1)">
       <use xlink:href="#DejaVuSans-31"/>
       <use xlink:href="#DejaVuSans-2e" x="63.623047"/>
       <use xlink:href="#DejaVuSans-30" x="95.410156"/>
      </g>
     </g>
    </g>
    <g id="ytick_4">
     <g id="line2d_10">
      <g>
       <use xlink:href="#m1aeefecc86" x="126" y="199.956711" style="stroke: #000000; stroke-width: 0.8"/>
      </g>
     </g>
     <g id="text_11">
      <!-- 1.5 -->
      <g transform="translate(103.096875 203.75593)scale(0.1 -0.1)">
       <use xlink:href="#DejaVuSans-31"/>
       <use xlink:href="#DejaVuSans-2e" x="63.623047"/>
       <use xlink:href="#DejaVuSans-35" x="95.410156"/>
      </g>
     </g>
    </g>
    <g id="ytick_5">
     <g id="line2d_11">
      <g>
       <use xlink:href="#m1aeefecc86" x="126" y="143.432889" style="stroke: #000000; stroke-width: 0.8"/>
      </g>
     </g>
     <g id="text_12">
      <!-- 2.0 -->
      <g transform="translate(103.096875 147.232108)scale(0.1 -0.1)">
       <use xlink:href="#DejaVuSans-32"/>
       <use xlink:href="#DejaVuSans-2e" x="63.623047"/>
       <use xlink:href="#DejaVuSans-30" x="95.410156"/>
      </g>
     </g>
    </g>
    <g id="ytick_6">
     <g id="line2d_12">
      <g>
       <use xlink:href="#m1aeefecc86" x="126" y="86.909067" style="stroke: #000000; stroke-width: 0.8"/>
      </g>
     </g>
     <g id="text_13">
      <!-- 2.5 -->
      <g transform="translate(103.096875 90.708285)scale(0.1 -0.1)">
       <use xlink:href="#DejaVuSans-32"/>
       <use xlink:href="#DejaVuSans-2e" x="63.623047"/>
       <use xlink:href="#DejaVuSans-35" x="95.410156"/>
      </g>
     </g>
    </g>
    <g id="text_14">
     <!-- Quadratic Covariation -->
     <g transform="translate(97.017187 272.970156)rotate(-90)scale(0.1 -0.1)">
      <defs>
       <path id="DejaVuSans-51" d="M 2522 4238 
Q 1834 4238 1429 3725 
Q 1025 3213 1025 2328 
Q 1025 1447 1429 934 
Q 1834 422 2522 422 
Q 3209 422 3611 934 
Q 4013 1447 4013 2328 
Q 4013 3213 3611 3725 
Q 3209 4238 2522 4238 
z
M 3406 84 
L 4238 -825 
L 3475 -825 
L 2784 -78 
Q 2681 -84 2626 -87 
Q 2572 -91 2522 -91 
Q 1538 -91 948 567 
Q 359 1225 359 2328 
Q 359 3434 948 4092 
Q 1538 4750 2522 4750 
Q 3503 4750 4090 4092 
Q 4678 3434 4678 2328 
Q 4678 1516 4351 937 
Q 4025 359 3406 84 
z
" transform="scale(0.015625)"/>
       <path id="DejaVuSans-75" d="M 544 1381 
L 544 3500 
L 1119 3500 
L 1119 1403 
Q 1119 906 1312 657 
Q 1506 409 1894 409 
Q 2359 409 2629 706 
Q 2900 1003 2900 1516 
L 2900 3500 
L 3475 3500 
L 3475 0 
L 2900 0 
L 2900 538 
Q 2691 219 2414 64 
Q 2138 -91 1772 -91 
Q 1169 -91 856 284 
Q 544 659 544 1381 
z
M 1991 3584 
L 1991 3584 
z
" transform="scale(0.015625)"/>
       <path id="DejaVuSans-61" d="M 2194 1759 
Q 1497 1759 1228 1600 
Q 959 1441 959 1056 
Q 959 750 1161 570 
Q 1363 391 1709 391 
Q 2188 391 2477 730 
Q 2766 1069 2766 1631 
L 2766 1759 
L 2194 1759 
z
M 3341 1997 
L 3341 0 
L 2766 0 
L 2766 531 
Q 2569 213 2275 61 
Q 1981 -91 1556 -91 
Q 1019 -91 701 211 
Q 384 513 384 1019 
Q 384 1609 779 1909 
Q 1175 2209 1959 2209 
L 2766 2209 
L 2766 2266 
Q 2766 2663 2505 2880 
Q 2244 3097 1772 3097 
Q 1472 3097 1187 3025 
Q 903 2953 641 2809 
L 641 3341 
Q 956 3463 1253 3523 
Q 1550 3584 1831 3584 
Q 2591 3584 2966 3190 
Q 3341 2797 3341 1997 
z
" transform="scale(0.015625)"/>
       <path id="DejaVuSans-64" d="M 2906 2969 
L 2906 4863 
L 3481 4863 
L 3481 0 
L 2906 0 
L 2906 525 
Q 2725 213 2448 61 
Q 2172 -91 1784 -91 
Q 1150 -91 751 415 
Q 353 922 353 1747 
Q 353 2572 751 3078 
Q 1150 3584 1784 3584 
Q 2172 3584 2448 3432 
Q 2725 3281 2906 2969 
z
M 947 1747 
Q 947 1113 1208 752 
Q 1469 391 1925 391 
Q 2381 391 2643 752 
Q 2906 1113 2906 1747 
Q 2906 2381 2643 2742 
Q 2381 3103 1925 3103 
Q 1469 3103 1208 2742 
Q 947 2381 947 1747 
z
" transform="scale(0.015625)"/>
       <path id="DejaVuSans-72" d="M 2631 2963 
Q 2534 3019 2420 3045 
Q 2306 3072 2169 3072 
Q 1681 3072 1420 2755 
Q 1159 2438 1159 1844 
L 1159 0 
L 581 0 
L 581 3500 
L 1159 3500 
L 1159 2956 
Q 1341 3275 1631 3429 
Q 1922 3584 2338 3584 
Q 2397 3584 2469 3576 
Q 2541 3569 2628 3553 
L 2631 2963 
z
" transform="scale(0.015625)"/>
       <path id="DejaVuSans-74" d="M 1172 4494 
L 1172 3500 
L 2356 3500 
L 2356 3053 
L 1172 3053 
L 1172 1153 
Q 1172 725 1289 603 
Q 1406 481 1766 481 
L 2356 481 
L 2356 0 
L 1766 0 
Q 1100 0 847 248 
Q 594 497 594 1153 
L 594 3053 
L 172 3053 
L 172 3500 
L 594 3500 
L 594 4494 
L 1172 4494 
z
" transform="scale(0.015625)"/>
       <path id="DejaVuSans-63" d="M 3122 3366 
L 3122 2828 
Q 2878 2963 2633 3030 
Q 2388 3097 2138 3097 
Q 1578 3097 1268 2742 
Q 959 2388 959 1747 
Q 959 1106 1268 751 
Q 1578 397 2138 397 
Q 2388 397 2633 464 
Q 2878 531 3122 666 
L 3122 134 
Q 2881 22 2623 -34 
Q 2366 -91 2075 -91 
Q 1284 -91 818 406 
Q 353 903 353 1747 
Q 353 2603 823 3093 
Q 1294 3584 2113 3584 
Q 2378 3584 2631 3529 
Q 2884 3475 3122 3366 
z
" transform="scale(0.015625)"/>
       <path id="DejaVuSans-20" transform="scale(0.015625)"/>
       <path id="DejaVuSans-43" d="M 4122 4306 
L 4122 3641 
Q 3803 3938 3442 4084 
Q 3081 4231 2675 4231 
Q 1875 4231 1450 3742 
Q 1025 3253 1025 2328 
Q 1025 1406 1450 917 
Q 1875 428 2675 428 
Q 3081 428 3442 575 
Q 3803 722 4122 1019 
L 4122 359 
Q 3791 134 3420 21 
Q 3050 -91 2638 -91 
Q 1578 -91 968 557 
Q 359 1206 359 2328 
Q 359 3453 968 4101 
Q 1578 4750 2638 4750 
Q 3056 4750 3426 4639 
Q 3797 4528 4122 4306 
z
" transform="scale(0.015625)"/>
       <path id="DejaVuSans-6f" d="M 1959 3097 
Q 1497 3097 1228 2736 
Q 959 2375 959 1747 
Q 959 1119 1226 758 
Q 1494 397 1959 397 
Q 2419 397 2687 759 
Q 2956 1122 2956 1747 
Q 2956 2369 2687 2733 
Q 2419 3097 1959 3097 
z
M 1959 3584 
Q 2709 3584 3137 3096 
Q 3566 2609 3566 1747 
Q 3566 888 3137 398 
Q 2709 -91 1959 -91 
Q 1206 -91 779 398 
Q 353 888 353 1747 
Q 353 2609 779 3096 
Q 1206 3584 1959 3584 
z
" transform="scale(0.015625)"/>
       <path id="DejaVuSans-76" d="M 191 3500 
L 800 3500 
L 1894 563 
L 2988 3500 
L 3597 3500 
L 2284 0 
L 1503 0 
L 191 3500 
z
" transform="scale(0.015625)"/>
       <path id="DejaVuSans-6e" d="M 3513 2113 
L 3513 0 
L 2938 0 
L 2938 2094 
Q 2938 2591 2744 2837 
Q 2550 3084 2163 3084 
Q 1697 3084 1428 2787 
Q 1159 2491 1159 1978 
L 1159 0 
L 581 0 
L 581 3500 
L 1159 3500 
L 1159 2956 
Q 1366 3272 1645 3428 
Q 1925 3584 2291 3584 
Q 2894 3584 3203 3211 
Q 3513 2838 3513 2113 
z
" transform="scale(0.015625)"/>
      </defs>
      <use xlink:href="#DejaVuSans-51"/>
      <use xlink:href="#DejaVuSans-75" x="78.710938"/>
      <use xlink:href="#DejaVuSans-61" x="142.089844"/>
      <use xlink:href="#DejaVuSans-64" x="203.369141"/>
      <use xlink:href="#DejaVuSans-72" x="266.845703"/>
      <use xlink:href="#DejaVuSans-61" x="307.958984"/>
      <use xlink:href="#DejaVuSans-74" x="369.238281"/>
      <use xlink:href="#DejaVuSans-69" x="408.447266"/>
      <use xlink:href="#DejaVuSans-63" x="436.230469"/>
      <use xlink:href="#DejaVuSans-20" x="491.210938"/>
      <use xlink:href="#DejaVuSans-43" x="522.998047"/>
      <use xlink:href="#DejaVuSans-6f" x="592.822266"/>
      <use xlink:href="#DejaVuSans-76" x="654.003906"/>
      <use xlink:href="#DejaVuSans-61" x="713.183594"/>
      <use xlink:href="#DejaVuSans-72" x="774.462891"/>
      <use xlink:href="#DejaVuSans-69" x="815.576172"/>
      <use xlink:href="#DejaVuSans-61" x="843.359375"/>
      <use xlink:href="#DejaVuSans-74" x="904.638672"/>
      <use xlink:href="#DejaVuSans-69" x="943.847656"/>
      <use xlink:href="#DejaVuSans-6f" x="971.630859"/>
      <use xlink:href="#DejaVuSans-6e" x="1032.8125"/>
     </g>
    </g>
   </g>
   <g id="line2d_13">
    <path d="M 161.509091 256.480533 
L 162.219273 253.772766 
L 162.929455 249.740534 
L 163.639636 248.62781 
L 164.349818 251.770228 
L 165.06 252.202711 
L 165.770182 254.980874 
L 166.480364 256.053805 
L 167.900727 265.434303 
L 168.610909 271.460638 
L 169.321091 267.866208 
L 170.031273 266.76654 
L 170.741455 264.129794 
L 171.451636 258.163464 
L 172.161818 258.484385 
L 172.872 252.518696 
L 173.582182 257.45951 
L 174.292364 253.893823 
L 175.002545 256.138597 
L 175.712727 252.727749 
L 176.422909 251.061202 
L 177.133091 249.707207 
L 177.843273 245.622475 
L 178.553455 246.950106 
L 179.263636 249.132365 
L 179.973818 249.258132 
L 180.684 252.003541 
L 181.394182 253.94201 
L 182.814545 243.547659 
L 183.524727 244.040247 
L 184.234909 243.701605 
L 185.655273 254.532613 
L 186.365455 251.915066 
L 187.075636 245.422044 
L 187.785818 250.398926 
L 188.496 247.334385 
L 189.206182 251.348294 
L 189.916364 253.544886 
L 190.626545 251.517047 
L 191.336727 246.999396 
L 192.046909 244.389729 
L 192.757091 239.892518 
L 193.467273 244.202455 
L 194.177455 243.528485 
L 194.887636 244.030515 
L 195.597818 252.295134 
L 196.308 255.648102 
L 197.018182 254.851563 
L 197.728364 254.447514 
L 198.438545 251.511214 
L 199.148727 250.130228 
L 199.858909 247.098864 
L 200.569091 245.138302 
L 201.279273 246.965567 
L 203.409818 241.540837 
L 204.12 245.13752 
L 204.830182 245.06728 
L 205.540364 248.885079 
L 206.250545 247.719973 
L 206.960727 247.75563 
L 207.670909 245.346703 
L 208.381091 243.538748 
L 209.091273 243.995606 
L 209.801455 238.758492 
L 210.511636 237.021589 
L 211.221818 236.789811 
L 211.932 236.706422 
L 212.642182 234.219003 
L 213.352364 233.493529 
L 214.062545 234.990193 
L 214.772727 230.069111 
L 215.482909 226.664328 
L 216.193091 226.283027 
L 216.903273 232.239038 
L 217.613455 232.277597 
L 218.323636 234.504282 
L 219.033818 231.708903 
L 219.744 235.283484 
L 220.454182 234.716155 
L 221.164364 233.869567 
L 221.874545 229.655324 
L 222.584727 231.157711 
L 223.294909 234.857661 
L 224.715273 238.17006 
L 225.425455 235.709852 
L 226.135636 230.515187 
L 226.845818 231.492898 
L 227.556 231.925371 
L 228.266182 227.849844 
L 228.976364 228.095977 
L 229.686545 228.105369 
L 230.396727 232.830501 
L 231.106909 232.633194 
L 231.817091 231.329129 
L 232.527273 221.377225 
L 233.237455 224.546568 
L 233.947636 222.418844 
L 234.657818 220.966355 
L 235.368 221.67263 
L 236.078182 223.382898 
L 236.788364 222.547312 
L 237.498545 221.269762 
L 238.208727 221.237083 
L 238.918909 220.42102 
L 239.629091 224.092845 
L 240.339273 219.668854 
L 241.049455 218.576319 
L 241.759636 212.970675 
L 242.469818 210.804627 
L 243.18 210.528777 
L 243.890182 208.03989 
L 244.600364 207.277622 
L 245.310545 204.238143 
L 246.020727 198.607787 
L 246.730909 201.150816 
L 247.441091 204.341756 
L 248.151273 206.642292 
L 249.571636 215.551781 
L 250.281818 210.137164 
L 250.992 211.924041 
L 251.702182 208.417828 
L 252.412364 208.994716 
L 253.122545 205.958772 
L 253.832727 201.255384 
L 255.253091 207.687448 
L 255.963273 208.102466 
L 256.673455 207.165401 
L 257.383636 207.440411 
L 258.093818 207.838486 
L 258.804 210.889093 
L 260.224364 210.78446 
L 260.934545 212.148297 
L 261.644727 204.99366 
L 262.354909 206.452965 
L 263.065091 203.668117 
L 263.775273 207.709697 
L 264.485455 208.58118 
L 265.195636 204.502078 
L 266.616 205.253276 
L 267.326182 204.849251 
L 268.036364 202.656151 
L 268.746545 199.801656 
L 269.456727 203.771017 
L 270.166909 202.756631 
L 270.877091 205.257415 
L 271.587273 204.38386 
L 272.297455 207.928737 
L 273.007636 204.569697 
L 273.717818 205.12223 
L 274.428 208.838846 
L 275.138182 206.616863 
L 275.848364 208.336518 
L 276.558545 205.944746 
L 277.268727 208.710753 
L 277.978909 205.538872 
L 278.689091 205.988847 
L 279.399273 204.139907 
L 280.109455 198.816271 
L 280.819636 201.524455 
L 281.529818 197.214266 
L 282.24 197.140026 
L 282.950182 201.995579 
L 283.660364 203.500799 
L 284.370545 201.098571 
L 285.080727 198.253413 
L 285.790909 196.881586 
L 286.501091 194.923188 
L 287.211273 196.492808 
L 287.921455 197.543341 
L 288.631636 195.661951 
L 289.341818 190.910445 
L 290.052 191.561609 
L 290.762182 189.424393 
L 291.472364 184.809464 
L 292.182545 186.811477 
L 294.313091 176.338597 
L 295.023273 172.320866 
L 295.733455 175.001359 
L 296.443636 174.245995 
L 297.153818 176.970018 
L 297.864 180.706517 
L 298.574182 176.296709 
L 299.284364 174.117033 
L 299.994545 171.30355 
L 300.704727 174.368431 
L 301.414909 176.605089 
L 302.125091 171.471741 
L 302.835273 172.275207 
L 303.545455 175.287025 
L 304.255636 180.173727 
L 304.965818 182.878524 
L 305.676 176.996757 
L 307.096364 172.291474 
L 307.806545 170.784443 
L 308.516727 174.170934 
L 309.226909 178.439025 
L 309.937091 179.299052 
L 310.647273 183.109678 
L 312.067636 185.143747 
L 312.777818 191.978363 
L 313.488 193.821303 
L 314.198182 192.568845 
L 314.908364 196.548779 
L 315.618545 193.487377 
L 316.328727 195.838053 
L 317.038909 196.861839 
L 317.749091 188.89586 
L 318.459273 191.001447 
L 319.169455 188.280506 
L 319.879636 183.067277 
L 321.3 174.579337 
L 322.010182 179.067068 
L 322.720364 184.709006 
L 323.430545 185.9362 
L 324.140727 184.461766 
L 324.850909 191.422557 
L 325.561091 193.330991 
L 326.271273 194.369122 
L 326.981455 199.859193 
L 327.691636 201.064602 
L 328.401818 205.192145 
L 329.112 211.900206 
L 329.822182 207.290144 
L 330.532364 209.459464 
L 331.242545 213.418843 
L 331.952727 211.627718 
L 333.373091 204.452303 
L 334.083273 203.712727 
L 334.793455 204.794353 
L 335.503636 204.512415 
L 336.213818 201.302535 
L 336.924 204.949989 
L 337.634182 204.034352 
L 338.344364 202.153247 
L 339.054545 197.884815 
L 339.764727 195.271599 
L 340.474909 198.038458 
L 341.185091 195.064814 
L 342.605455 185.270973 
L 343.315636 194.120006 
L 344.025818 193.486974 
L 345.446182 189.419096 
L 346.156364 189.13116 
L 347.576727 198.978227 
L 348.286909 198.019805 
L 349.707273 196.736029 
L 350.417455 190.706121 
L 351.127636 187.263799 
L 351.837818 186.442729 
L 352.548 185.855586 
L 353.258182 182.105763 
L 353.968364 184.394809 
L 354.678545 183.64159 
L 356.098909 172.29798 
L 356.809091 165.522299 
L 358.229455 171.106571 
L 358.939636 167.707999 
L 359.649818 167.697987 
L 360.36 174.160702 
L 361.070182 171.848537 
L 361.780364 171.964023 
L 362.490545 172.384115 
L 363.200727 166.864202 
L 363.910909 171.853691 
L 364.621091 169.109196 
L 365.331273 169.10627 
L 366.041455 167.562136 
L 366.751636 163.157207 
L 367.461818 161.524778 
L 368.172 158.275472 
L 368.882182 149.885092 
L 370.302545 144.549141 
L 371.012727 144.426791 
L 371.722909 146.485143 
L 372.433091 145.827541 
L 373.143273 143.664538 
L 373.853455 143.169318 
L 374.563636 146.397619 
L 375.273818 147.694053 
L 375.984 148.138908 
L 376.694182 150.199777 
L 377.404364 149.58095 
L 378.114545 149.233787 
L 378.824727 146.148958 
L 379.534909 146.968461 
L 380.245091 150.806847 
L 380.955273 152.189899 
L 381.665455 150.569283 
L 382.375636 160.600329 
L 383.085818 161.798891 
L 383.796 159.110028 
L 384.506182 154.430552 
L 385.216364 156.485394 
L 385.926545 158.904336 
L 386.636727 162.945154 
L 387.346909 154.794287 
L 388.057091 158.204762 
L 388.767273 164.593663 
L 389.477455 168.967211 
L 390.187636 168.766031 
L 390.897818 168.394091 
L 391.608 171.920825 
L 392.318182 171.19659 
L 393.028364 167.437427 
L 393.738545 164.280451 
L 394.448727 165.003628 
L 395.158909 166.511154 
L 395.869091 164.839643 
L 396.579273 162.107794 
L 397.289455 164.076726 
L 397.999636 167.517754 
L 399.42 169.404782 
L 400.130182 173.732645 
L 400.840364 179.153151 
L 401.550545 176.951924 
L 402.260727 179.421015 
L 402.970909 182.79841 
L 403.681091 181.156392 
L 405.101455 178.90719 
L 405.811636 179.852956 
L 407.232 183.531425 
L 407.942182 184.015515 
L 408.652364 183.15676 
L 409.362545 185.563793 
L 410.072727 184.166969 
L 410.782909 186.703109 
L 411.493091 194.132397 
L 412.203273 198.131741 
L 412.913455 204.013747 
L 413.623636 197.668162 
L 414.333818 199.164862 
L 415.044 196.869948 
L 415.754182 197.423742 
L 416.464364 196.157824 
L 417.174545 195.433572 
L 417.884727 195.310012 
L 418.594909 198.501881 
L 419.305091 192.491887 
L 420.015273 196.127332 
L 420.725455 196.531198 
L 421.435636 195.078033 
L 422.145818 192.495599 
L 423.566182 190.599145 
L 424.276364 186.181148 
L 424.986545 176.361368 
L 425.696727 175.3919 
L 426.406909 168.947983 
L 427.117091 167.276285 
L 427.827273 165.038336 
L 428.537455 173.215072 
L 429.247636 173.861676 
L 429.957818 176.157953 
L 431.378182 173.014795 
L 432.088364 173.495309 
L 432.798545 175.349404 
L 433.508727 177.891954 
L 434.218909 179.106838 
L 434.929091 180.688917 
L 435.639273 175.248589 
L 436.349455 174.746983 
L 437.059636 176.227781 
L 437.769818 167.399359 
L 438.48 165.824259 
L 439.190182 163.33701 
L 439.900364 161.80275 
L 441.320727 160.356607 
L 442.030909 164.656168 
L 442.741091 167.466744 
L 443.451273 167.451207 
L 444.161455 167.22735 
L 444.871636 163.751781 
L 445.581818 167.534611 
L 446.292 169.507368 
L 447.002182 169.658899 
L 447.712364 170.73612 
L 448.422545 176.314301 
L 449.132727 172.05712 
L 449.842909 172.346072 
L 450.553091 173.171697 
L 451.263273 172.115498 
L 451.973455 174.251915 
L 452.683636 174.764777 
L 453.393818 178.081123 
L 454.104 178.11379 
L 454.814182 181.582059 
L 455.524364 177.875692 
L 456.234545 178.824334 
L 456.944727 176.044446 
L 457.654909 175.342559 
L 458.365091 179.964067 
L 459.075273 179.295984 
L 459.785455 176.530028 
L 460.495636 175.061455 
L 461.916 184.752492 
L 462.626182 182.840783 
L 463.336364 178.501133 
L 464.046545 170.923174 
L 464.756727 173.685011 
L 465.466909 171.923365 
L 466.177091 165.285083 
L 466.887273 160.027283 
L 467.597455 163.024807 
L 468.307636 168.199787 
L 469.017818 174.551685 
L 469.728 172.715625 
L 470.438182 179.012755 
L 471.148364 178.957675 
L 471.858545 177.686406 
L 472.568727 168.898845 
L 473.278909 167.740836 
L 474.699273 166.075014 
L 475.409455 167.444651 
L 476.119636 165.855677 
L 476.829818 163.165693 
L 477.54 163.158878 
L 478.250182 158.398208 
L 478.960364 150.926042 
L 479.670545 156.766577 
L 480.380727 160.96762 
L 481.090909 164.13158 
L 481.801091 156.0135 
L 482.511273 155.425665 
L 483.221455 158.050944 
L 483.931636 158.549153 
L 484.641818 154.588508 
L 485.352 156.449869 
L 486.062182 156.095126 
L 486.772364 151.896377 
L 487.482545 153.606998 
L 488.192727 152.503788 
L 488.902909 151.682432 
L 489.613091 154.435149 
L 490.323273 153.045469 
L 491.033455 152.622984 
L 491.743636 150.836011 
L 492.453818 150.600769 
L 493.164 148.515527 
L 493.874182 154.940501 
L 494.584364 151.34372 
L 495.294545 153.064182 
L 496.004727 156.811493 
L 496.714909 158.407004 
L 497.425091 158.187014 
L 498.135273 158.876705 
L 498.845455 163.973669 
L 499.555636 162.342154 
L 500.265818 163.429966 
L 500.976 163.556612 
L 501.686182 167.859811 
L 502.396364 165.634775 
L 503.106545 162.652187 
L 503.816727 162.852185 
L 504.526909 158.84545 
L 505.237091 160.386942 
L 505.947273 166.751938 
L 506.657455 170.257912 
L 508.077818 173.634035 
L 508.788 171.724292 
L 509.498182 165.404582 
L 510.208364 171.816176 
L 510.918545 176.255999 
L 511.628727 175.776901 
L 512.338909 177.383561 
L 513.759273 182.397758 
L 514.469455 183.179766 
L 515.179636 179.774838 
L 515.889818 175.692566 
L 516.6 177.961709 
L 517.310182 173.130346 
L 518.020364 170.682641 
L 518.730545 171.399421 
L 519.440727 172.658495 
L 520.150909 175.768219 
L 520.861091 177.287125 
L 521.571273 175.54841 
L 522.281455 170.605033 
L 522.991636 169.567357 
L 523.701818 169.676225 
L 524.412 167.781768 
L 525.122182 162.226777 
L 525.832364 166.520031 
L 526.542545 167.342048 
L 527.252727 170.051166 
L 527.962909 170.498575 
L 528.673091 168.557904 
L 529.383273 168.950616 
L 530.093455 174.490514 
L 530.803636 172.263239 
L 531.513818 167.89522 
L 532.224 165.291234 
L 532.934182 172.349279 
L 533.644364 170.128036 
L 534.354545 170.922497 
L 535.064727 171.33538 
L 535.774909 165.326668 
L 536.485091 164.619329 
L 537.195273 163.424584 
L 537.905455 159.882176 
L 538.615636 161.241473 
L 539.325818 165.359289 
L 540.036 163.397496 
L 540.746182 165.19498 
L 541.456364 166.112193 
L 542.166545 161.730447 
L 542.876727 164.771207 
L 543.586909 161.956812 
L 544.297091 161.308356 
L 545.007273 158.095878 
L 545.717455 165.534051 
L 546.427636 162.935271 
L 547.848 167.040041 
L 548.558182 170.693038 
L 549.268364 166.765845 
L 549.978545 169.915745 
L 550.688727 171.351276 
L 551.398909 171.41621 
L 552.109091 175.527676 
L 552.819273 172.542885 
L 553.529455 171.166293 
L 554.239636 171.594531 
L 554.949818 170.57506 
L 555.66 169.238659 
L 556.370182 168.732409 
L 557.080364 177.123716 
L 557.790545 176.986884 
L 558.500727 170.87846 
L 559.210909 180.705549 
L 559.921091 175.098976 
L 560.631273 174.4462 
L 561.341455 182.597733 
L 562.051636 180.66323 
L 562.761818 174.835556 
L 563.472 176.883834 
L 564.182182 182.903607 
L 564.892364 181.850142 
L 565.602545 178.310108 
L 566.312727 179.714414 
L 567.022909 185.359474 
L 567.733091 181.480277 
L 568.443273 183.348879 
L 569.153455 180.242695 
L 569.863636 183.329203 
L 570.573818 177.561828 
L 571.284 182.635542 
L 571.994182 184.96728 
L 572.704364 185.719846 
L 573.414545 185.367132 
L 574.124727 178.701862 
L 574.834909 176.553546 
L 575.545091 183.073508 
L 576.255273 176.790242 
L 576.965455 177.561928 
L 577.675636 177.739232 
L 578.385818 173.962657 
L 579.096 173.91247 
L 580.516364 164.681822 
L 581.936727 171.992144 
L 582.646909 169.758632 
L 583.357091 177.233863 
L 584.067273 177.634418 
L 584.777455 178.32331 
L 585.487636 176.608825 
L 586.197818 180.578743 
L 586.908 182.982259 
L 587.618182 183.606241 
L 588.328364 180.694109 
L 589.038545 183.264585 
L 589.748727 183.838423 
L 590.458909 183.006096 
L 591.169091 181.84631 
L 591.879273 182.721181 
L 592.589455 180.94402 
L 593.299636 177.924349 
L 594.009818 179.935232 
L 594.72 178.410265 
L 595.430182 173.601413 
L 596.140364 174.912624 
L 596.850545 173.156161 
L 597.560727 178.635964 
L 598.270909 178.614443 
L 598.981091 179.396409 
L 599.691273 182.8022 
L 600.401455 185.562088 
L 601.111636 185.338819 
L 601.821818 179.521488 
L 602.532 183.60269 
L 603.242182 182.370803 
L 603.952364 184.588957 
L 604.662545 182.997444 
L 605.372727 180.182685 
L 606.082909 187.642442 
L 606.793091 186.476172 
L 608.213455 193.155998 
L 608.923636 192.247537 
L 609.633818 183.238057 
L 610.344 186.504474 
L 611.054182 188.524371 
L 611.764364 194.214884 
L 612.474545 190.969041 
L 613.184727 193.325389 
L 613.894909 192.212457 
L 614.605091 190.255877 
L 615.315273 182.327036 
L 616.735636 176.701566 
L 617.445818 183.472101 
L 618.156 185.62842 
L 618.866182 189.306869 
L 619.576364 191.312714 
L 620.286545 191.335515 
L 620.996727 192.30525 
L 621.706909 190.507031 
L 622.417091 191.222084 
L 623.127273 184.7229 
L 624.547636 191.485742 
L 625.257818 189.283054 
L 625.968 188.214988 
L 626.678182 191.486522 
L 627.388364 190.482118 
L 628.098545 192.211168 
L 628.808727 190.679733 
L 629.518909 195.75462 
L 630.229091 196.250088 
L 630.939273 197.582399 
L 631.649455 197.101678 
L 632.359636 193.247734 
L 633.069818 191.281877 
L 633.78 186.735087 
L 634.490182 193.201347 
L 635.910545 190.359337 
L 636.620727 197.738686 
L 637.330909 197.047567 
L 638.041091 208.225171 
L 638.751273 204.897749 
L 639.461455 210.940458 
L 640.171636 213.488421 
L 640.881818 217.223423 
L 641.592 217.821311 
L 642.302182 218.666766 
L 643.012364 218.512119 
L 643.722545 217.258452 
L 644.432727 209.10308 
L 645.142909 205.080911 
L 645.853091 207.29241 
L 646.563273 214.024171 
L 647.273455 215.214072 
L 647.983636 213.685129 
L 648.693818 211.475555 
L 650.114182 213.432448 
L 650.824364 208.844753 
L 651.534545 211.40222 
L 652.244727 202.836419 
L 652.954909 205.021976 
L 653.665091 207.626738 
L 654.375273 205.274605 
L 655.085455 205.201204 
L 655.795636 201.929724 
L 656.505818 199.762131 
L 657.216 202.171216 
L 657.926182 208.349473 
L 658.636364 204.814728 
L 659.346545 199.010644 
L 660.056727 202.761286 
L 660.766909 203.011328 
L 661.477091 209.162391 
L 662.187273 206.862062 
L 662.897455 212.686308 
L 663.607636 217.127615 
L 664.317818 219.505275 
L 665.028 219.004756 
L 665.738182 219.950685 
L 666.448364 220.611648 
L 667.158545 222.040306 
L 667.868727 220.311194 
L 668.578909 222.135558 
L 669.289091 215.601417 
L 669.999273 217.703984 
L 670.709455 220.832196 
L 671.419636 216.186646 
L 672.129818 216.556074 
L 672.84 215.143122 
L 673.550182 216.629689 
L 674.260364 213.971333 
L 674.970545 207.322775 
L 675.680727 207.783896 
L 676.390909 204.711462 
L 677.101091 208.653637 
L 677.811273 207.792093 
L 678.521455 207.708762 
L 679.231636 208.345411 
L 679.941818 207.790178 
L 680.652 204.519013 
L 681.362182 203.966082 
L 682.072364 198.337508 
L 682.782545 198.580978 
L 683.492727 205.655946 
L 684.202909 210.722841 
L 684.913091 211.080731 
L 685.623273 206.066378 
L 686.333455 199.944729 
L 687.043636 200.768862 
L 687.753818 198.572806 
L 688.464 193.293867 
L 689.174182 193.776549 
L 689.884364 190.52173 
L 690.594545 188.246896 
L 691.304727 190.528178 
L 692.014909 193.53781 
L 692.725091 194.858633 
L 693.435273 195.595539 
L 694.145455 198.180203 
L 694.855636 198.366378 
L 695.565818 193.91003 
L 696.276 196.510703 
L 696.986182 202.649675 
L 697.696364 201.570189 
L 698.406545 205.441001 
L 699.826909 202.782917 
L 700.537091 208.291062 
L 701.247273 208.61106 
L 701.957455 210.375026 
L 702.667636 211.804508 
L 703.377818 209.405746 
L 704.088 205.529798 
L 704.798182 208.727404 
L 705.508364 204.587977 
L 706.218545 209.537603 
L 706.928727 204.444521 
L 707.638909 206.516039 
L 708.349091 211.523209 
L 709.059273 214.088986 
L 709.769455 214.236621 
L 710.479636 214.05399 
L 711.189818 215.524784 
L 711.9 212.612038 
L 712.610182 208.100108 
L 713.320364 206.759723 
L 714.740727 202.344545 
L 715.450909 202.815113 
L 716.161091 202.434438 
L 716.871273 204.247708 
L 717.581455 205.699604 
L 718.291636 211.958502 
L 719.001818 214.757653 
L 719.712 208.497713 
L 720.422182 203.772152 
L 721.132364 203.823225 
L 721.842545 212.521273 
L 722.552727 215.62182 
L 723.262909 216.649383 
L 723.973091 216.614067 
L 724.683273 221.133016 
L 725.393455 218.034901 
L 726.103636 226.209065 
L 727.524 239.678072 
L 728.234182 240.373492 
L 728.944364 237.972615 
L 729.654545 237.918377 
L 730.364727 242.814979 
L 731.074909 245.805072 
L 731.785091 236.343396 
L 732.495273 233.924936 
L 733.205455 234.107889 
L 733.915636 239.62561 
L 734.625818 242.162271 
L 735.336 244.252594 
L 736.046182 245.059976 
L 736.756364 248.708182 
L 737.466545 248.845719 
L 738.176727 249.493489 
L 738.886909 252.846396 
L 739.597091 251.731973 
L 741.017455 247.143239 
L 741.727636 249.464694 
L 742.437818 244.610785 
L 743.148 236.532823 
L 743.858182 237.759537 
L 744.568364 239.38031 
L 745.278545 236.523719 
L 745.988727 242.125979 
L 747.409091 245.564237 
L 748.119273 243.246573 
L 748.829455 247.474239 
L 749.539636 246.549334 
L 750.249818 242.731865 
L 750.96 246.337641 
L 751.670182 253.597509 
L 752.380364 250.465069 
L 753.090545 251.988486 
L 753.800727 253.024663 
L 754.510909 252.116251 
L 755.221091 253.115381 
L 756.641455 249.805378 
L 757.351636 253.290964 
L 758.061818 253.589146 
L 758.772 256.189437 
L 759.482182 266.235718 
L 760.192364 266.943398 
L 760.902545 265.178828 
L 761.612727 268.260264 
L 762.322909 267.933894 
L 763.033091 265.002306 
L 764.453455 261.618549 
L 765.163636 262.584445 
L 765.873818 269.925605 
L 766.584 268.756252 
L 767.294182 267.193732 
L 768.004364 264.772862 
L 768.714545 266.383404 
L 769.424727 262.08441 
L 770.134909 271.051211 
L 770.845091 270.053365 
L 771.555273 271.72181 
L 772.265455 271.574613 
L 772.975636 273.558793 
L 773.685818 277.881497 
L 774.396 277.294943 
L 775.106182 281.439772 
L 775.816364 287.280039 
L 776.526545 291.02381 
L 777.236727 283.7791 
L 777.946909 286.049265 
L 778.657091 288.865085 
L 779.367273 288.369216 
L 780.787636 283.699913 
L 781.497818 281.384457 
L 782.208 282.520341 
L 783.628364 289.597289 
L 784.338545 285.327268 
L 785.048727 282.823505 
L 785.758909 284.754997 
L 786.469091 281.773834 
L 787.179273 288.127212 
L 787.889455 282.814913 
L 788.599636 278.74008 
L 789.309818 282.780972 
L 790.02 279.447454 
L 790.730182 283.115521 
L 791.440364 283.587055 
L 792.150545 277.106353 
L 792.860727 278.859705 
L 793.570909 282.642153 
L 794.281091 281.632414 
L 794.991273 285.221548 
L 795.701455 287.982181 
L 796.411636 286.1125 
L 797.121818 285.31632 
L 797.832 283.129159 
L 798.542182 284.3231 
L 799.252364 286.749493 
L 799.962545 283.679716 
L 800.672727 283.310188 
L 801.382909 283.159907 
L 802.093091 286.161539 
L 802.803273 284.828078 
L 803.513455 286.097675 
L 804.223636 286.641183 
L 804.933818 290.365502 
L 805.644 291.424074 
L 806.354182 294.981233 
L 807.064364 303.465998 
L 807.774545 303.514293 
L 808.484727 300.985275 
L 809.194909 302.325275 
L 809.905091 299.327252 
L 810.615273 300.251783 
L 811.325455 298.544029 
L 812.035636 302.25085 
L 812.745818 299.543735 
L 814.166182 286.938061 
L 814.876364 284.793858 
L 815.586545 286.698752 
L 816.296727 283.928156 
L 817.006909 288.994269 
L 817.717091 286.085643 
L 818.427273 284.219141 
L 819.137455 284.443448 
L 819.847636 279.984672 
L 820.557818 283.418451 
L 821.268 287.903996 
L 821.978182 287.566996 
L 822.688364 293.352829 
L 823.398545 293.520963 
L 824.108727 289.301388 
L 824.818909 289.634732 
L 825.529091 291.979411 
L 826.239273 291.351699 
L 826.949455 295.74797 
L 827.659636 291.130315 
L 828.369818 292.203168 
L 829.08 292.419498 
L 829.790182 283.33277 
L 830.500364 279.923116 
L 831.210545 279.463337 
L 831.920727 283.472855 
L 832.630909 290.424281 
L 833.341091 285.629211 
L 834.051273 286.124021 
L 834.761455 285.257538 
L 835.471636 283.39694 
L 836.181818 285.938986 
L 836.892 277.397596 
L 838.312364 282.753635 
L 839.022545 287.018451 
L 839.732727 289.691667 
L 840.442909 287.309372 
L 841.153091 287.357067 
L 841.863273 288.008821 
L 842.573455 280.739252 
L 843.993818 271.541327 
L 844.704 263.706291 
L 845.414182 260.587395 
L 846.124364 256.360889 
L 846.834545 259.131982 
L 847.544727 256.601463 
L 848.254909 256.208766 
L 848.965091 252.732999 
L 850.385455 261.194351 
L 851.095636 260.12135 
L 851.805818 264.858048 
L 852.516 262.236548 
L 853.226182 262.117863 
L 853.936364 258.175391 
L 854.646545 258.961257 
L 855.356727 262.394317 
L 856.066909 262.834317 
L 856.777091 262.503257 
L 857.487273 257.949544 
L 858.197455 256.945466 
L 858.907636 255.336511 
L 859.617818 251.351509 
L 861.038182 244.347087 
L 861.748364 245.661925 
L 862.458545 244.448266 
L 863.168727 236.991705 
L 863.878909 239.260159 
L 864.589091 236.413745 
L 865.299273 234.205302 
L 866.009455 233.642955 
L 867.429818 230.9627 
L 868.14 229.837784 
L 868.850182 223.808865 
L 869.560364 224.103245 
L 870.270545 226.157318 
L 870.980727 217.586916 
L 871.690909 212.561045 
L 871.690909 212.561045 
" clip-path="url(#p17f184e1a0)" style="fill: none; stroke: #1f77b4; stroke-width: 1.5; stroke-linecap: square"/>
   </g>
   <g id="line2d_14">
    <path d="M 161.509091 256.480533 
L 162.219273 249.459221 
L 162.929455 244.257588 
L 163.639636 240.527506 
L 164.349818 242.451542 
L 165.06 243.663121 
L 165.770182 237.549356 
L 166.480364 244.587072 
L 167.900727 253.316556 
L 168.610909 257.037268 
L 169.321091 252.341027 
L 170.031273 253.65541 
L 170.741455 255.729007 
L 171.451636 247.993775 
L 172.161818 253.178411 
L 172.872 246.735894 
L 173.582182 251.299769 
L 174.292364 244.972212 
L 175.002545 250.37439 
L 175.712727 244.530117 
L 176.422909 245.400751 
L 177.133091 237.423553 
L 177.843273 234.227676 
L 178.553455 238.436679 
L 179.263636 238.104818 
L 179.973818 245.484048 
L 180.684 245.027356 
L 181.394182 243.714479 
L 182.104364 241.911727 
L 182.814545 234.293092 
L 183.524727 237.347248 
L 184.234909 234.798412 
L 185.655273 248.255219 
L 186.365455 246.712939 
L 187.075636 242.43398 
L 188.496 244.534217 
L 190.626545 248.654395 
L 191.336727 246.800253 
L 192.046909 246.737123 
L 192.757091 242.490647 
L 193.467273 248.561135 
L 194.177455 251.886786 
L 194.887636 249.826794 
L 195.597818 264.233197 
L 196.308 266.784028 
L 197.018182 265.009972 
L 197.728364 258.583622 
L 198.438545 263.701648 
L 199.148727 267.570151 
L 199.858909 265.934394 
L 200.569091 268.610586 
L 201.279273 269.82149 
L 201.989455 262.466517 
L 202.699636 261.044239 
L 203.409818 256.020813 
L 204.12 249.855909 
L 204.830182 248.464228 
L 205.540364 248.417341 
L 206.250545 245.332435 
L 206.960727 244.942682 
L 207.670909 247.784989 
L 208.381091 246.450448 
L 209.091273 239.824188 
L 209.801455 226.446481 
L 210.511636 228.811348 
L 211.221818 227.885117 
L 211.932 235.299653 
L 213.352364 228.419516 
L 214.062545 229.979998 
L 214.772727 227.864512 
L 215.482909 226.318162 
L 216.193091 226.953399 
L 216.903273 233.180497 
L 217.613455 234.958622 
L 218.323636 239.43076 
L 219.033818 234.506128 
L 219.744 241.529603 
L 220.454182 240.491431 
L 221.164364 233.377032 
L 221.874545 228.311463 
L 222.584727 228.069525 
L 223.294909 230.898375 
L 224.005091 230.444112 
L 224.715273 229.574215 
L 225.425455 235.689486 
L 226.135636 226.641805 
L 226.845818 228.391417 
L 227.556 228.880296 
L 228.266182 225.590076 
L 228.976364 225.807188 
L 229.686545 231.415768 
L 230.396727 236.137235 
L 231.106909 234.528546 
L 231.817091 240.573248 
L 232.527273 237.533365 
L 233.237455 241.171883 
L 233.947636 238.097328 
L 234.657818 241.376076 
L 235.368 243.011322 
L 236.078182 242.778492 
L 236.788364 245.22422 
L 237.498545 240.35585 
L 238.208727 241.42902 
L 238.918909 239.339463 
L 239.629091 240.302442 
L 240.339273 233.922177 
L 241.049455 238.012098 
L 241.759636 227.138478 
L 242.469818 218.920674 
L 243.18 224.296201 
L 243.890182 222.244558 
L 244.600364 220.78832 
L 245.310545 222.747683 
L 246.020727 217.095965 
L 246.730909 220.510456 
L 247.441091 225.97451 
L 248.151273 229.297637 
L 248.861455 225.871471 
L 249.571636 236.709104 
L 250.281818 239.561617 
L 250.992 238.218759 
L 251.702182 238.132406 
L 252.412364 237.461411 
L 253.122545 237.64955 
L 253.832727 229.211219 
L 254.542909 236.558881 
L 255.253091 232.388832 
L 255.963273 230.692145 
L 257.383636 223.522388 
L 258.093818 222.274872 
L 259.514182 216.659511 
L 260.224364 219.564524 
L 260.934545 220.562649 
L 261.644727 214.816527 
L 262.354909 214.220241 
L 263.065091 210.951037 
L 263.775273 208.675163 
L 264.485455 219.072214 
L 265.195636 214.107973 
L 265.905818 216.413645 
L 266.616 213.943871 
L 267.326182 210.426508 
L 268.036364 215.070819 
L 268.746545 212.446933 
L 269.456727 213.411368 
L 270.166909 211.240759 
L 271.587273 219.76298 
L 272.297455 232.091231 
L 273.007636 228.688292 
L 273.717818 232.887739 
L 274.428 236.288543 
L 275.138182 239.005513 
L 275.848364 236.983316 
L 276.558545 233.33037 
L 277.268727 235.304456 
L 277.978909 227.778316 
L 278.689091 228.23455 
L 279.399273 226.439941 
L 280.109455 216.622059 
L 280.819636 218.855326 
L 281.529818 209.016259 
L 282.24 210.467589 
L 282.950182 210.81564 
L 283.660364 215.668519 
L 284.370545 214.393498 
L 285.080727 210.89985 
L 285.790909 209.92641 
L 286.501091 212.408688 
L 287.211273 212.513174 
L 287.921455 209.351477 
L 288.631636 211.693935 
L 289.341818 203.945821 
L 290.052 206.598229 
L 290.762182 205.591821 
L 291.472364 196.67311 
L 292.182545 195.821145 
L 292.892727 194.407223 
L 293.602909 187.108297 
L 294.313091 186.152579 
L 295.023273 184.858195 
L 295.733455 183.274403 
L 296.443636 182.146826 
L 297.153818 180.192063 
L 297.864 186.97196 
L 298.574182 185.961425 
L 299.284364 183.500017 
L 299.994545 174.497478 
L 300.704727 176.563276 
L 301.414909 179.750584 
L 302.125091 174.529726 
L 302.835273 173.810157 
L 303.545455 176.42848 
L 304.255636 188.068595 
L 304.965818 194.336882 
L 305.676 185.38613 
L 306.386182 180.948276 
L 307.096364 178.347214 
L 307.806545 179.269744 
L 308.516727 183.628463 
L 309.226909 182.445585 
L 309.937091 178.291316 
L 310.647273 177.896928 
L 311.357455 178.800692 
L 312.067636 170.56993 
L 312.777818 177.34856 
L 313.488 187.458118 
L 314.198182 186.253003 
L 314.908364 189.550841 
L 315.618545 182.992155 
L 316.328727 185.470622 
L 317.038909 191.455751 
L 317.749091 191.048468 
L 318.459273 191.794863 
L 319.169455 190.907111 
L 319.879636 190.328912 
L 320.589818 175.603457 
L 321.3 175.448136 
L 322.010182 179.412657 
L 322.720364 182.419484 
L 323.430545 186.924094 
L 324.140727 181.218109 
L 324.850909 187.906988 
L 325.561091 187.990781 
L 326.271273 182.463502 
L 326.981455 179.065382 
L 327.691636 179.385655 
L 328.401818 187.139575 
L 329.112 200.600095 
L 329.822182 193.978782 
L 330.532364 196.883103 
L 331.242545 197.771101 
L 331.952727 198.145938 
L 332.662909 189.946143 
L 333.373091 179.672538 
L 334.083273 183.376664 
L 334.793455 184.599588 
L 335.503636 179.817151 
L 336.213818 177.228698 
L 336.924 177.274269 
L 337.634182 173.487285 
L 338.344364 178.972339 
L 339.054545 176.721829 
L 339.764727 171.677363 
L 340.474909 174.735221 
L 341.185091 173.831944 
L 341.895273 172.480035 
L 342.605455 161.740253 
L 343.315636 164.729903 
L 344.025818 171.872059 
L 344.736 165.474572 
L 345.446182 162.483606 
L 346.156364 156.641314 
L 346.866545 164.383989 
L 347.576727 167.246163 
L 348.286909 165.989596 
L 348.997091 171.310983 
L 349.707273 172.97313 
L 350.417455 160.602668 
L 351.127636 156.158263 
L 351.837818 157.463339 
L 352.548 151.304737 
L 353.968364 144.581546 
L 354.678545 144.616332 
L 355.388727 137.390661 
L 356.809091 118.540761 
L 357.519273 121.702883 
L 358.229455 122.369037 
L 358.939636 115.590289 
L 359.649818 115.146912 
L 360.36 118.729703 
L 361.070182 116.736994 
L 361.780364 115.13334 
L 362.490545 115.452939 
L 363.200727 107.770851 
L 363.910909 116.490277 
L 364.621091 108.367595 
L 366.041455 101.59442 
L 366.751636 100.998491 
L 367.461818 99.89632 
L 368.172 101.089898 
L 369.592364 80.478409 
L 370.302545 76.368895 
L 371.012727 78.834351 
L 371.722909 77.833155 
L 373.143273 72.903477 
L 373.853455 72.788156 
L 374.563636 81.384252 
L 375.273818 80.11503 
L 375.984 77.968932 
L 376.694182 77.802486 
L 377.404364 82.463834 
L 378.114545 82.311676 
L 378.824727 79.986594 
L 379.534909 81.817208 
L 380.245091 85.407712 
L 380.955273 86.689815 
L 381.665455 88.525023 
L 382.375636 98.06013 
L 383.085818 97.821111 
L 383.796 95.637798 
L 384.506182 84.114021 
L 385.216364 83.423219 
L 385.926545 87.780194 
L 386.636727 89.4932 
L 387.346909 84.46992 
L 388.057091 90.108669 
L 388.767273 101.191906 
L 390.187636 109.169296 
L 390.897818 111.786932 
L 391.608 115.154541 
L 392.318182 116.705267 
L 393.028364 110.580985 
L 393.738545 102.20185 
L 394.448727 107.94921 
L 395.158909 108.171905 
L 395.869091 107.762193 
L 396.579273 104.55246 
L 397.289455 109.791986 
L 397.999636 107.099764 
L 398.709818 105.188652 
L 399.42 104.950122 
L 400.130182 107.433822 
L 400.840364 110.577779 
L 401.550545 109.419887 
L 402.260727 106.567532 
L 402.970909 108.570068 
L 403.681091 107.198688 
L 404.391273 110.235951 
L 405.101455 104.109769 
L 405.811636 103.247925 
L 406.521818 103.327415 
L 407.232 107.987285 
L 407.942182 103.048807 
L 408.652364 103.177393 
L 409.362545 95.650863 
L 410.072727 95.07973 
L 410.782909 92.728525 
L 411.493091 93.59654 
L 412.203273 98.938483 
L 412.913455 101.66598 
L 413.623636 95.448371 
L 414.333818 94.748126 
L 415.044 91.290586 
L 415.754182 89.167682 
L 416.464364 82.819939 
L 417.174545 83.266504 
L 417.884727 83.512285 
L 418.594909 82.464931 
L 419.305091 76.353844 
L 420.725455 84.827166 
L 421.435636 88.279003 
L 422.145818 80.951648 
L 422.856 83.823197 
L 423.566182 80.26629 
L 424.276364 74.537661 
L 424.986545 67.86206 
L 425.696727 73.277429 
L 426.406909 66.96 
L 427.117091 67.207185 
L 427.827273 68.697686 
L 428.537455 74.117593 
L 429.247636 76.655641 
L 429.957818 78.37461 
L 430.668 69.32425 
L 431.378182 69.754374 
L 432.088364 71.166645 
L 432.798545 78.517466 
L 433.508727 87.481321 
L 434.218909 92.032315 
L 434.929091 95.113946 
L 435.639273 91.63344 
L 436.349455 91.626515 
L 437.059636 95.438431 
L 437.769818 87.980064 
L 438.48 87.218636 
L 439.190182 84.412574 
L 439.900364 84.691556 
L 440.610545 78.927984 
L 441.320727 84.101077 
L 442.030909 81.21974 
L 442.741091 92.06259 
L 443.451273 90.547559 
L 444.161455 89.609479 
L 444.871636 87.878827 
L 445.581818 89.429572 
L 446.292 88.355638 
L 447.002182 85.926213 
L 447.712364 90.362962 
L 448.422545 93.357028 
L 449.132727 90.183461 
L 449.842909 90.48009 
L 450.553091 88.878035 
L 451.263273 88.052864 
L 451.973455 89.498584 
L 452.683636 91.869549 
L 453.393818 99.194467 
L 454.104 99.268328 
L 454.814182 104.699523 
L 455.524364 98.888841 
L 456.234545 94.920583 
L 456.944727 95.760266 
L 457.654909 92.468267 
L 458.365091 94.942326 
L 459.075273 92.262867 
L 459.785455 90.512435 
L 460.495636 86.752146 
L 461.205818 90.210148 
L 461.916 94.97121 
L 462.626182 95.801166 
L 463.336364 95.11275 
L 464.046545 90.575762 
L 464.756727 91.680622 
L 465.466909 87.659545 
L 466.177091 77.555374 
L 466.887273 72.407134 
L 467.597455 75.031689 
L 468.307636 80.912369 
L 469.017818 99.66922 
L 469.728 95.534698 
L 470.438182 101.76064 
L 471.148364 98.918237 
L 471.858545 101.389725 
L 472.568727 96.834285 
L 473.278909 95.924046 
L 473.989091 100.252166 
L 474.699273 101.781722 
L 475.409455 104.280163 
L 476.119636 98.906006 
L 476.829818 91.435815 
L 477.54 94.414463 
L 478.250182 82.284612 
L 478.960364 78.637674 
L 479.670545 84.107535 
L 480.380727 83.294314 
L 481.090909 91.314948 
L 481.801091 84.79404 
L 482.511273 86.525215 
L 483.221455 87.566357 
L 483.931636 86.39836 
L 484.641818 80.964065 
L 485.352 82.100868 
L 486.062182 90.186921 
L 486.772364 85.696693 
L 488.192727 83.862255 
L 488.902909 78.631079 
L 489.613091 80.099011 
L 490.323273 79.281674 
L 491.033455 79.190753 
L 491.743636 77.633018 
L 492.453818 78.837644 
L 493.164 77.429904 
L 493.874182 87.14914 
L 494.584364 81.104397 
L 495.294545 84.738982 
L 496.004727 84.065052 
L 496.714909 86.244159 
L 497.425091 90.227209 
L 498.135273 85.928999 
L 498.845455 96.812111 
L 499.555636 90.22802 
L 500.265818 87.69132 
L 500.976 91.675836 
L 501.686182 97.463558 
L 503.106545 92.58788 
L 503.816727 95.387137 
L 504.526909 97.621397 
L 505.237091 102.703733 
L 505.947273 110.604913 
L 506.657455 111.561945 
L 507.367636 118.959489 
L 508.077818 122.314745 
L 508.788 119.24537 
L 509.498182 111.418001 
L 510.208364 120.047805 
L 510.918545 117.979789 
L 511.628727 118.152292 
L 512.338909 116.24771 
L 513.049091 128.537176 
L 513.759273 126.395716 
L 514.469455 127.735086 
L 515.179636 126.212627 
L 515.889818 126.85805 
L 516.6 127.822599 
L 517.310182 128.576756 
L 518.020364 128.036452 
L 518.730545 123.255204 
L 519.440727 123.408811 
L 520.861091 118.873292 
L 521.571273 122.878166 
L 522.281455 116.573942 
L 522.991636 115.662613 
L 523.701818 120.793432 
L 524.412 118.352326 
L 525.122182 107.95973 
L 525.832364 112.537377 
L 526.542545 121.585714 
L 527.252727 128.239923 
L 527.962909 125.16494 
L 528.673091 124.914476 
L 529.383273 126.186118 
L 530.093455 136.600518 
L 530.803636 136.965792 
L 531.513818 136.897595 
L 532.224 132.009024 
L 532.934182 136.977689 
L 533.644364 137.586153 
L 534.354545 139.783592 
L 535.064727 149.238593 
L 535.774909 148.226406 
L 536.485091 150.508556 
L 537.195273 154.807025 
L 537.905455 147.34054 
L 538.615636 148.97502 
L 539.325818 147.213255 
L 540.036 143.163969 
L 540.746182 146.470921 
L 541.456364 146.006636 
L 542.166545 141.160517 
L 542.876727 144.126526 
L 543.586909 141.070256 
L 544.297091 139.566519 
L 545.007273 135.536546 
L 545.717455 143.558369 
L 546.427636 137.210363 
L 547.137818 140.860711 
L 547.848 141.043643 
L 548.558182 142.965829 
L 549.268364 142.196975 
L 549.978545 150.660802 
L 551.398909 155.218167 
L 552.109091 159.186563 
L 552.819273 156.47953 
L 553.529455 160.050063 
L 554.949818 162.098129 
L 555.66 161.684397 
L 556.370182 165.430823 
L 557.080364 173.852091 
L 557.790545 164.443478 
L 558.500727 153.546874 
L 559.210909 164.389789 
L 559.921091 160.635196 
L 560.631273 163.74794 
L 561.341455 168.454724 
L 562.051636 163.554115 
L 562.761818 160.00586 
L 563.472 160.710615 
L 564.892364 176.479312 
L 565.602545 179.460637 
L 566.312727 179.868513 
L 567.022909 184.626578 
L 567.733091 183.076908 
L 568.443273 184.336501 
L 569.153455 180.416576 
L 569.863636 183.207267 
L 570.573818 175.77721 
L 571.284 184.862972 
L 571.994182 183.619463 
L 572.704364 186.524254 
L 573.414545 193.036361 
L 574.124727 189.266319 
L 574.834909 178.088539 
L 575.545091 183.838565 
L 576.255273 178.003444 
L 576.965455 175.274586 
L 578.385818 178.460349 
L 579.096 180.615366 
L 580.516364 169.895036 
L 581.226545 178.185236 
L 581.936727 180.979928 
L 582.646909 176.806298 
L 583.357091 181.355671 
L 584.067273 184.05166 
L 584.777455 185.563314 
L 585.487636 181.753437 
L 586.197818 182.153233 
L 586.908 177.24761 
L 587.618182 182.146953 
L 588.328364 177.226294 
L 589.038545 181.680484 
L 589.748727 185.248364 
L 590.458909 179.995523 
L 591.169091 178.101606 
L 591.879273 172.669504 
L 592.589455 171.051291 
L 593.299636 166.548659 
L 594.009818 169.315124 
L 594.72 170.735758 
L 595.430182 163.516848 
L 596.140364 167.782568 
L 596.850545 165.36164 
L 597.560727 174.5031 
L 598.270909 175.918109 
L 598.981091 175.827253 
L 599.691273 184.709954 
L 600.401455 186.503467 
L 601.111636 187.805832 
L 601.821818 181.961436 
L 602.532 186.0184 
L 603.242182 184.065264 
L 603.952364 198.348466 
L 604.662545 196.043637 
L 605.372727 191.704981 
L 606.082909 195.546284 
L 606.793091 195.560292 
L 607.503273 194.273007 
L 608.213455 203.638718 
L 608.923636 201.779196 
L 609.633818 192.673684 
L 610.344 191.92023 
L 611.054182 193.162048 
L 611.764364 199.126893 
L 612.474545 203.94685 
L 613.184727 203.951124 
L 613.894909 203.454044 
L 614.605091 204.064823 
L 615.315273 193.742274 
L 616.025455 187.777849 
L 616.735636 190.561422 
L 617.445818 202.080156 
L 618.156 199.635417 
L 618.866182 207.218657 
L 619.576364 212.539972 
L 620.286545 214.146711 
L 620.996727 214.85652 
L 621.706909 214.720928 
L 622.417091 219.372339 
L 623.127273 210.245518 
L 623.837455 210.288239 
L 624.547636 211.004566 
L 625.257818 208.180437 
L 625.968 207.052794 
L 626.678182 213.753752 
L 627.388364 212.988676 
L 628.098545 210.72661 
L 628.808727 205.171597 
L 629.518909 214.227704 
L 630.939273 207.275333 
L 631.649455 206.419224 
L 632.359636 204.870659 
L 633.069818 203.028751 
L 633.78 198.312276 
L 634.490182 200.910461 
L 635.200364 200.625583 
L 635.910545 194.120719 
L 636.620727 202.377378 
L 637.330909 203.032989 
L 638.041091 216.911507 
L 638.751273 216.488844 
L 639.461455 220.546012 
L 640.171636 217.281819 
L 640.881818 213.17554 
L 641.592 212.470153 
L 642.302182 212.240109 
L 643.012364 210.234391 
L 643.722545 212.372428 
L 644.432727 204.831488 
L 645.142909 195.90263 
L 645.853091 198.455843 
L 646.563273 206.328111 
L 647.273455 205.521673 
L 647.983636 203.578722 
L 648.693818 195.341254 
L 649.404 193.78831 
L 650.114182 199.138525 
L 650.824364 189.960488 
L 651.534545 198.609617 
L 652.244727 191.559993 
L 652.954909 197.48496 
L 653.665091 206.860932 
L 654.375273 201.787794 
L 655.085455 206.171454 
L 655.795636 200.368289 
L 656.505818 196.525451 
L 657.216 200.116972 
L 657.926182 210.271838 
L 658.636364 210.019678 
L 659.346545 209.436355 
L 660.056727 214.632873 
L 660.766909 222.555192 
L 661.477091 221.617744 
L 662.187273 222.436124 
L 662.897455 228.410351 
L 663.607636 228.395645 
L 664.317818 227.608711 
L 665.028 220.351417 
L 665.738182 216.716994 
L 666.448364 211.881606 
L 667.158545 213.780491 
L 667.868727 208.144123 
L 668.578909 214.293403 
L 669.289091 214.762554 
L 669.999273 219.864462 
L 670.709455 231.681343 
L 671.419636 226.894314 
L 672.129818 228.649799 
L 672.84 227.457188 
L 673.550182 228.423914 
L 674.970545 220.28746 
L 675.680727 220.593774 
L 677.101091 229.175545 
L 677.811273 226.171994 
L 678.521455 230.084962 
L 679.231636 232.642042 
L 679.941818 233.37792 
L 680.652 230.923339 
L 681.362182 231.29743 
L 682.072364 229.075968 
L 682.782545 229.564095 
L 684.202909 243.132953 
L 684.913091 240.123857 
L 686.333455 225.62326 
L 687.043636 227.967219 
L 687.753818 226.596841 
L 688.464 214.702718 
L 689.174182 219.97866 
L 689.884364 223.120116 
L 690.594545 219.16899 
L 692.014909 220.702092 
L 692.725091 219.96956 
L 693.435273 223.633222 
L 694.145455 227.948416 
L 694.855636 226.915049 
L 695.565818 224.730793 
L 696.276 223.29682 
L 696.986182 231.223758 
L 697.696364 229.181048 
L 698.406545 233.364961 
L 699.116727 234.181785 
L 699.826909 230.646086 
L 700.537091 228.819577 
L 701.247273 228.213208 
L 701.957455 232.172456 
L 702.667636 242.496992 
L 703.377818 242.377674 
L 704.088 236.899984 
L 704.798182 233.773397 
L 705.508364 232.771532 
L 706.218545 244.538913 
L 706.928727 234.399177 
L 707.638909 237.800361 
L 708.349091 239.132999 
L 709.059273 238.018195 
L 710.479636 231.635917 
L 711.189818 235.657403 
L 712.610182 226.845232 
L 713.320364 225.701063 
L 714.030545 227.000714 
L 714.740727 219.96794 
L 715.450909 219.87816 
L 716.161091 220.215531 
L 716.871273 218.998421 
L 717.581455 220.752142 
L 718.291636 223.891394 
L 719.001818 228.459399 
L 719.712 222.245013 
L 720.422182 218.014962 
L 721.132364 218.530706 
L 721.842545 227.08203 
L 722.552727 227.325404 
L 723.262909 226.572181 
L 723.973091 224.318452 
L 724.683273 236.54208 
L 725.393455 234.741717 
L 726.103636 247.591747 
L 726.813818 250.677767 
L 727.524 255.056632 
L 728.234182 256.166965 
L 728.944364 251.587167 
L 729.654545 250.39755 
L 730.364727 258.07857 
L 731.074909 260.656297 
L 731.785091 255.300288 
L 732.495273 255.066206 
L 733.205455 256.584898 
L 733.915636 258.566064 
L 734.625818 270.857911 
L 735.336 270.703671 
L 736.046182 271.949608 
L 736.756364 277.257103 
L 737.466545 275.913771 
L 738.176727 275.232941 
L 738.886909 283.730494 
L 739.597091 276.810255 
L 740.307273 281.232298 
L 741.017455 284.083009 
L 741.727636 284.814947 
L 743.148 270.453242 
L 743.858182 274.473591 
L 744.568364 271.375503 
L 745.278545 269.939619 
L 745.988727 273.445924 
L 747.409091 272.200198 
L 748.119273 273.362621 
L 748.829455 282.627795 
L 749.539636 280.308649 
L 750.249818 274.28108 
L 750.96 289.682156 
L 751.670182 307.645944 
L 752.380364 302.657795 
L 753.090545 300.350721 
L 753.800727 295.269561 
L 754.510909 298.777914 
L 755.221091 298.746539 
L 755.931273 296.082674 
L 756.641455 291.489899 
L 757.351636 296.162108 
L 758.772 301.774389 
L 759.482182 313.215356 
L 760.192364 313.682563 
L 760.902545 306.710015 
L 761.612727 312.115356 
L 762.322909 307.057003 
L 763.033091 300.641298 
L 763.743273 291.065803 
L 764.453455 285.691977 
L 765.163636 281.739723 
L 765.873818 289.775494 
L 766.584 290.051425 
L 767.294182 287.602564 
L 768.004364 289.34039 
L 768.714545 290.336749 
L 769.424727 282.834755 
L 770.134909 295.176286 
L 770.845091 287.777084 
L 771.555273 289.710856 
L 772.265455 285.652469 
L 772.975636 286.578866 
L 773.685818 291.738487 
L 774.396 293.155746 
L 775.106182 300.85913 
L 775.816364 302.065558 
L 776.526545 312.925969 
L 777.236727 305.660176 
L 777.946909 313.405629 
L 778.657091 315.057094 
L 779.367273 321.576363 
L 780.077455 324.153559 
L 780.787636 325.564845 
L 781.497818 319.224338 
L 782.918182 319.695856 
L 783.628364 322.472734 
L 784.338545 326.04515 
L 785.048727 317.634969 
L 785.758909 315.900654 
L 786.469091 313.206211 
L 787.179273 317.151514 
L 788.599636 307.437723 
L 789.309818 312.786635 
L 790.02 307.667755 
L 790.730182 310.057974 
L 791.440364 307.361133 
L 792.150545 306.699329 
L 792.860727 309.706048 
L 793.570909 311.166795 
L 794.281091 313.992409 
L 794.991273 321.137361 
L 795.701455 325.410882 
L 796.411636 319.552417 
L 797.121818 317.253705 
L 797.832 313.355189 
L 798.542182 310.433743 
L 799.252364 311.52353 
L 799.962545 310.200243 
L 800.672727 303.992111 
L 801.382909 300.952818 
L 802.093091 300.35784 
L 802.803273 295.576809 
L 803.513455 298.929529 
L 804.223636 298.700621 
L 804.933818 305.10587 
L 805.644 307.284143 
L 806.354182 310.571333 
L 807.064364 324.916718 
L 807.774545 320.148949 
L 808.484727 313.575362 
L 809.194909 313.55664 
L 809.905091 305.361399 
L 810.615273 304.281253 
L 811.325455 305.301361 
L 812.035636 309.02453 
L 812.745818 310.052748 
L 813.456 304.206059 
L 814.166182 294.050758 
L 815.586545 287.388594 
L 816.296727 277.123703 
L 817.006909 284.020918 
L 817.717091 285.129912 
L 818.427273 281.572468 
L 819.137455 279.347565 
L 819.847636 270.772633 
L 821.268 278.828779 
L 821.978182 286.684405 
L 822.688364 292.432775 
L 823.398545 295.609167 
L 824.108727 289.384263 
L 824.818909 291.674396 
L 825.529091 298.162734 
L 826.239273 296.77167 
L 826.949455 294.785141 
L 827.659636 293.504241 
L 828.369818 305.045324 
L 829.790182 291.697208 
L 830.500364 288.452942 
L 831.210545 292.07658 
L 831.920727 292.547519 
L 832.630909 287.862126 
L 833.341091 281.427321 
L 834.051273 282.260015 
L 834.761455 278.687176 
L 835.471636 272.388199 
L 836.181818 270.51129 
L 836.892 262.380219 
L 837.602182 264.206658 
L 838.312364 264.029348 
L 839.022545 264.669975 
L 839.732727 266.650613 
L 840.442909 258.998771 
L 841.153091 261.469395 
L 841.863273 258.585022 
L 842.573455 252.808821 
L 843.283636 248.258838 
L 843.993818 247.771269 
L 844.704 242.649451 
L 845.414182 236.220115 
L 846.124364 231.360402 
L 846.834545 230.001208 
L 847.544727 224.433777 
L 848.254909 229.451973 
L 848.965091 227.240653 
L 849.675273 230.863238 
L 850.385455 239.822552 
L 851.095636 238.088177 
L 851.805818 243.404938 
L 852.516 236.922049 
L 853.226182 236.254522 
L 853.936364 227.401235 
L 854.646545 223.595872 
L 855.356727 229.230158 
L 856.066909 232.995322 
L 856.777091 223.191648 
L 857.487273 222.597969 
L 858.197455 227.366253 
L 859.617818 223.341943 
L 860.328 217.598715 
L 861.038182 210.657608 
L 861.748364 209.359461 
L 862.458545 213.66847 
L 863.168727 207.948668 
L 863.878909 211.965802 
L 864.589091 200.220878 
L 865.299273 195.607313 
L 866.009455 192.297583 
L 866.719636 195.481843 
L 867.429818 187.688736 
L 868.14 186.923733 
L 868.850182 181.017585 
L 869.560364 183.169444 
L 870.270545 182.656991 
L 870.980727 176.45549 
L 871.690909 174.775458 
L 871.690909 174.775458 
" clip-path="url(#p17f184e1a0)" style="fill: none; stroke: #ff7f0e; stroke-width: 1.5; stroke-linecap: square"/>
   </g>
   <g id="line2d_15">
    <path d="M 162.219273 369.36 
L 162.929455 369.174466 
L 165.06 369.079633 
L 165.770182 369.229879 
L 166.480364 369.163085 
L 169.321091 368.454983 
L 170.741455 368.516133 
L 171.451636 368.10789 
L 172.161818 368.093172 
L 172.872 367.753191 
L 175.712727 367.070541 
L 177.133091 366.987832 
L 178.553455 366.822925 
L 182.104364 366.776609 
L 182.814545 366.406229 
L 184.234909 366.385286 
L 185.655273 365.737882 
L 186.365455 365.702171 
L 187.075636 365.456404 
L 189.916364 365.369838 
L 191.336727 365.322826 
L 192.046909 365.321369 
L 193.467273 364.921 
L 194.887636 364.949975 
L 195.597818 363.896761 
L 197.018182 363.808603 
L 197.728364 363.785635 
L 199.148727 363.965828 
L 200.569091 363.968378 
L 202.699636 363.818403 
L 203.409818 363.718884 
L 204.12 363.915024 
L 209.091273 363.950074 
L 209.801455 363.33033 
L 211.932 363.370235 
L 213.352364 363.268377 
L 216.193091 363.111198 
L 216.903273 362.783118 
L 218.323636 362.694424 
L 221.874545 362.103243 
L 225.425455 362.166274 
L 226.135636 361.750523 
L 229.686545 361.613965 
L 230.396727 361.416619 
L 231.817091 361.48354 
L 232.527273 361.21593 
L 233.947636 361.056055 
L 236.078182 361.091488 
L 238.208727 361.054858 
L 239.629091 361.008496 
L 240.339273 360.758812 
L 241.049455 360.798338 
L 241.759636 360.259153 
L 242.469818 360.101696 
L 245.310545 360.112505 
L 246.020727 359.83102 
L 248.151273 359.532353 
L 248.861455 359.67786 
L 249.571636 359.283994 
L 250.281818 359.42062 
L 253.122545 359.447644 
L 253.832727 359.096565 
L 254.542909 358.881312 
L 255.963273 359.00264 
L 258.093818 358.986225 
L 259.514182 359.061929 
L 260.934545 359.050218 
L 261.644727 358.686554 
L 264.485455 358.614931 
L 265.195636 358.435806 
L 267.326182 358.421169 
L 268.036364 358.511267 
L 270.877091 358.297629 
L 271.587273 358.330633 
L 272.297455 357.944051 
L 274.428 357.710606 
L 275.848364 357.79477 
L 279.399273 357.426847 
L 280.109455 356.964504 
L 280.819636 356.911003 
L 281.529818 356.535867 
L 284.370545 356.430162 
L 285.790909 356.330422 
L 288.631636 356.440339 
L 289.341818 356.114678 
L 290.762182 356.080373 
L 291.472364 355.716286 
L 292.892727 355.687923 
L 293.602909 355.444881 
L 296.443636 355.401552 
L 297.153818 355.448655 
L 297.864 355.224562 
L 299.284364 355.137685 
L 299.994545 354.913633 
L 301.414909 354.794565 
L 302.125091 354.557493 
L 303.545455 354.49285 
L 304.255636 353.989683 
L 304.965818 353.839707 
L 305.676 353.374008 
L 307.096364 353.22843 
L 307.806545 353.240728 
L 308.516727 353.110157 
L 312.067636 353.269357 
L 312.777818 352.859535 
L 313.488 352.694726 
L 314.908364 352.565271 
L 315.618545 352.387658 
L 319.169455 352.21795 
L 319.879636 352.191286 
L 320.589818 351.672942 
L 321.3 351.666747 
L 322.720364 351.359301 
L 324.140727 351.23598 
L 324.850909 350.824119 
L 326.271273 350.873463 
L 326.981455 351.03849 
L 327.691636 351.035075 
L 328.401818 350.751967 
L 329.112 349.953242 
L 329.822182 349.683226 
L 331.952727 349.602332 
L 333.373091 349.016595 
L 335.503636 349.0172 
L 336.924 348.942233 
L 337.634182 348.91156 
L 338.344364 349.002831 
L 341.895273 348.641368 
L 342.605455 348.197735 
L 343.315636 347.963714 
L 344.025818 348.003708 
L 345.446182 347.834102 
L 346.156364 347.819222 
L 346.866545 347.499222 
L 347.576727 347.368203 
L 349.707273 347.395784 
L 350.417455 346.73595 
L 351.127636 346.600617 
L 352.548 346.578109 
L 353.258182 346.458837 
L 354.678545 346.522395 
L 355.388727 346.171666 
L 356.809091 345.119748 
L 362.490545 344.57365 
L 363.910909 343.813706 
L 364.621091 343.616509 
L 368.172 343.568103 
L 368.882182 342.855072 
L 369.592364 342.572973 
L 371.012727 342.487016 
L 373.143273 342.445498 
L 373.853455 342.444993 
L 374.563636 342.199514 
L 378.824727 342.187152 
L 381.665455 342.062594 
L 382.375636 341.216516 
L 383.796 341.16712 
L 384.506182 340.690106 
L 385.926545 340.609434 
L 386.636727 340.548204 
L 387.346909 340.186019 
L 388.057091 340.015907 
L 388.767273 339.389536 
L 389.477455 339.240785 
L 390.897818 339.256751 
L 391.608 339.151692 
L 392.318182 339.161627 
L 393.738545 338.72398 
L 397.999636 338.591313 
L 399.42 338.609022 
L 401.550545 338.340642 
L 402.260727 338.402941 
L 403.681091 338.323194 
L 405.101455 338.298687 
L 411.493091 338.397438 
L 414.333818 337.726803 
L 416.464364 337.59593 
L 418.594909 337.628631 
L 419.305091 337.303745 
L 420.015273 337.158908 
L 423.566182 337.011151 
L 424.276364 336.787271 
L 424.986545 336.207402 
L 425.696727 336.253842 
L 426.406909 335.893738 
L 427.827273 335.9269 
L 428.537455 335.534878 
L 429.957818 335.485444 
L 430.668 335.351232 
L 432.088364 335.35081 
L 435.639273 334.769112 
L 437.059636 334.719149 
L 437.769818 334.13669 
L 442.030909 334.166159 
L 442.741091 333.896585 
L 447.002182 333.811418 
L 448.422545 333.621402 
L 449.132727 333.501891 
L 452.683636 333.467046 
L 453.393818 333.252163 
L 454.104 333.252142 
L 455.524364 332.895006 
L 457.654909 332.928514 
L 459.075273 332.811537 
L 460.495636 332.71986 
L 461.916 332.372039 
L 463.336364 332.359647 
L 464.046545 332.055518 
L 465.466909 331.965864 
L 466.177091 331.372536 
L 466.887273 331.133093 
L 467.597455 331.063502 
L 468.307636 330.794302 
L 469.017818 329.740396 
L 469.728 329.673245 
L 470.438182 329.326439 
L 471.858545 329.352847 
L 472.568727 328.998738 
L 476.119636 328.927356 
L 476.829818 328.749602 
L 477.54 328.749782 
L 478.250182 328.238968 
L 479.670545 327.715318 
L 480.380727 327.745539 
L 481.090909 327.521058 
L 481.801091 327.052785 
L 483.931636 327.042756 
L 484.641818 326.852364 
L 493.164 326.563666 
L 493.874182 326.011281 
L 494.584364 325.818959 
L 496.714909 325.755229 
L 498.135273 325.789202 
L 498.845455 325.298517 
L 499.555636 325.203495 
L 500.976 325.223441 
L 501.686182 325.003129 
L 503.816727 324.887036 
L 504.526909 324.966224 
L 505.237091 324.896923 
L 505.947273 324.452057 
L 508.077818 324.256394 
L 508.788 324.204542 
L 510.208364 323.277521 
L 511.628727 323.359471 
L 512.338909 323.38654 
L 513.049091 323.096679 
L 514.469455 323.131889 
L 516.6 323.08998 
L 521.571273 323.294466 
L 522.281455 323.018793 
L 524.412 322.964579 
L 525.122182 322.453902 
L 526.542545 322.214261 
L 527.252727 322.054797 
L 529.383273 322.058249 
L 530.093455 321.547892 
L 531.513818 321.552453 
L 532.224 321.439848 
L 532.934182 321.129633 
L 535.064727 321.091614 
L 536.485091 321.052093 
L 537.195273 321.097522 
L 537.905455 320.863555 
L 541.456364 320.788991 
L 542.876727 320.521375 
L 545.007273 320.322141 
L 545.717455 319.794331 
L 547.137818 319.587102 
L 549.268364 319.494709 
L 549.978545 319.258878 
L 552.109091 319.085464 
L 552.819273 319.01399 
L 554.949818 319.062367 
L 556.370182 319.074253 
L 557.080364 318.449159 
L 557.790545 318.437771 
L 558.500727 317.848983 
L 559.210909 316.906422 
L 559.921091 316.720214 
L 560.631273 316.738188 
L 561.341455 316.398796 
L 563.472 316.119251 
L 564.182182 315.694155 
L 566.312727 315.855 
L 567.022909 315.617405 
L 569.863636 315.359508 
L 571.284 314.572667 
L 573.414545 314.599297 
L 575.545091 313.832968 
L 576.255273 313.508648 
L 579.096 313.576791 
L 581.936727 312.775388 
L 582.646909 312.692928 
L 583.357091 312.392103 
L 588.328364 312.252017 
L 589.748727 312.132627 
L 591.879273 312.116561 
L 593.299636 311.97085 
L 594.72 311.940804 
L 595.430182 311.633724 
L 596.850545 311.546632 
L 597.560727 311.103515 
L 598.981091 311.104412 
L 599.691273 310.836803 
L 601.111636 310.795589 
L 601.821818 310.494842 
L 602.532 310.348379 
L 603.242182 310.327095 
L 603.952364 310.046839 
L 605.372727 309.906363 
L 606.082909 309.652884 
L 607.503273 309.693068 
L 608.213455 309.430966 
L 608.923636 309.416023 
L 609.633818 308.690347 
L 611.054182 308.689929 
L 611.764364 308.389675 
L 612.474545 308.528067 
L 614.605091 308.533655 
L 615.315273 307.809661 
L 616.025455 307.658472 
L 616.735636 307.726428 
L 617.445818 307.03656 
L 618.156 307.083192 
L 618.866182 306.836442 
L 620.286545 306.7417 
L 622.417091 306.704033 
L 623.127273 306.179326 
L 625.968 306.09076 
L 626.678182 305.896838 
L 628.808727 305.849386 
L 629.518909 305.442843 
L 633.069818 305.411113 
L 634.490182 305.072801 
L 635.910545 304.992046 
L 636.620727 304.453081 
L 637.330909 304.457089 
L 638.041091 303.084848 
L 638.751273 303.072408 
L 639.461455 302.855541 
L 642.302182 303.070231 
L 643.722545 303.091198 
L 644.432727 302.547187 
L 645.142909 302.229503 
L 645.853091 302.179556 
L 646.563273 301.710778 
L 647.983636 301.692988 
L 648.693818 301.531983 
L 650.114182 301.503007 
L 650.824364 301.130544 
L 651.534545 300.934876 
L 652.244727 300.400715 
L 657.216 299.649267 
L 657.926182 299.094286 
L 659.346545 299.056452 
L 660.056727 298.884044 
L 662.187273 298.934182 
L 662.897455 298.626388 
L 667.868727 298.55986 
L 668.578909 298.460622 
L 669.289091 298.487739 
L 669.999273 298.392849 
L 670.709455 298.065857 
L 671.419636 297.86914 
L 674.260364 297.74257 
L 674.970545 297.497179 
L 679.941818 297.415489 
L 682.782545 297.234636 
L 684.202909 296.511528 
L 684.913091 296.521054 
L 686.333455 295.808121 
L 687.753818 295.764412 
L 688.464 295.208998 
L 689.174182 295.186471 
L 689.884364 295.276918 
L 691.304727 295.182636 
L 696.276 294.995916 
L 696.986182 294.565449 
L 697.696364 294.545943 
L 698.406545 294.402684 
L 701.957455 294.398929 
L 702.667636 294.268375 
L 703.377818 294.265844 
L 704.088 294.078036 
L 704.798182 294.166473 
L 705.508364 294.129788 
L 706.928727 293.157749 
L 709.059273 293.061701 
L 711.189818 293.008935 
L 713.320364 292.709712 
L 714.030545 292.737303 
L 714.740727 292.611933 
L 717.581455 292.610442 
L 721.132364 291.802356 
L 721.842545 291.144405 
L 723.973091 291.143872 
L 724.683273 290.655247 
L 725.393455 290.605907 
L 726.103636 289.676757 
L 728.234182 289.223025 
L 729.654545 289.125189 
L 730.364727 288.79249 
L 731.074909 288.724309 
L 731.785091 288.276031 
L 733.915636 288.171867 
L 734.625818 287.896052 
L 736.046182 287.890005 
L 736.756364 287.718725 
L 738.176727 287.72426 
L 738.886909 287.472229 
L 739.597091 287.40401 
L 741.017455 287.552325 
L 741.727636 287.537294 
L 742.437818 287.216561 
L 743.148 286.724097 
L 747.409091 286.533779 
L 748.119273 286.55761 
L 748.829455 286.211119 
L 749.539636 286.192144 
L 750.249818 285.988601 
L 750.96 285.497368 
L 751.670182 284.343741 
L 752.380364 284.205525 
L 755.931273 284.269246 
L 758.772 283.991945 
L 759.482182 282.975213 
L 760.902545 282.863453 
L 761.612727 282.716115 
L 762.322909 282.701512 
L 764.453455 282.312477 
L 765.163636 282.346246 
L 765.873818 281.824414 
L 768.714545 281.81644 
L 769.424727 281.531153 
L 770.134909 280.552238 
L 772.265455 280.453103 
L 772.975636 280.436843 
L 773.685818 280.23955 
L 774.396 280.246903 
L 775.106182 279.964463 
L 775.816364 279.902136 
L 777.946909 278.921303 
L 779.367273 278.908764 
L 780.787636 278.993169 
L 781.497818 278.863302 
L 784.338545 278.895506 
L 785.048727 278.709239 
L 786.469091 278.667816 
L 789.309818 277.853044 
L 790.730182 277.624544 
L 792.860727 277.55122 
L 794.991273 277.300739 
L 797.121818 277.083297 
L 798.542182 277.038727 
L 804.223636 276.877919 
L 804.933818 276.6669 
L 806.354182 276.543068 
L 807.064364 275.466379 
L 807.774545 275.468416 
L 808.484727 275.321356 
L 809.194909 275.321578 
L 809.905091 275.10424 
L 811.325455 275.128484 
L 812.035636 275.006402 
L 812.745818 275.031024 
L 813.456 274.708437 
L 814.166182 274.136356 
L 814.876364 274.075249 
L 815.586545 274.133222 
L 817.006909 273.572556 
L 818.427273 273.542354 
L 819.137455 273.546768 
L 819.847636 273.20856 
L 825.529091 272.276123 
L 829.08 272.196451 
L 829.790182 271.654787 
L 830.500364 271.556936 
L 831.920727 271.55497 
L 832.630909 271.84308 
L 833.341091 271.570139 
L 834.761455 271.53911 
L 835.471636 271.435438 
L 836.181818 271.477643 
L 836.892 270.863294 
L 841.863273 270.60842 
L 842.573455 270.236979 
L 843.283636 270.064698 
L 843.993818 270.043489 
L 844.704 269.688509 
L 846.124364 269.329439 
L 846.834545 269.362756 
L 847.544727 269.238132 
L 848.965091 269.187575 
L 849.675273 269.045588 
L 850.385455 268.726163 
L 851.095636 268.709701 
L 852.516 268.336595 
L 853.226182 268.335894 
L 853.936364 268.027141 
L 854.646545 268.053594 
L 855.356727 267.882491 
L 859.617818 267.758962 
L 861.038182 267.364014 
L 862.458545 267.425373 
L 863.168727 267.048098 
L 863.878909 266.967489 
L 864.589091 266.671764 
L 866.009455 266.565172 
L 866.719636 266.606044 
L 868.14 266.513695 
L 868.850182 266.198715 
L 870.270545 266.202423 
L 870.980727 265.732273 
L 871.690909 265.657582 
L 871.690909 265.657582 
" clip-path="url(#p17f184e1a0)" style="fill: none; stroke: #2ca02c; stroke-width: 1.5; stroke-linecap: square"/>
   </g>
   <g id="patch_3">
    <path d="M 126 384.48 
L 126 51.84 
" style="fill: none; stroke: #000000; stroke-width: 0.8; stroke-linejoin: miter; stroke-linecap: square"/>
   </g>
   <g id="patch_4">
    <path d="M 907.2 384.48 
L 907.2 51.84 
" style="fill: none; stroke: #000000; stroke-width: 0.8; stroke-linejoin: miter; stroke-linecap: square"/>
   </g>
   <g id="patch_5">
    <path d="M 126 384.48 
L 907.2 384.48 
" style="fill: none; stroke: #000000; stroke-width: 0.8; stroke-linejoin: miter; stroke-linecap: square"/>
   </g>
   <g id="patch_6">
    <path d="M 126 51.84 
L 907.2 51.84 
" style="fill: none; stroke: #000000; stroke-width: 0.8; stroke-linejoin: miter; stroke-linecap: square"/>
   </g>
   <g id="text_15">
    <!-- Quadratic Covariation of $X_t$ and $S_t$ -->
    <g transform="translate(414.54 45.84)scale(0.12 -0.12)">
     <defs>
      <path id="DejaVuSans-66" d="M 2375 4863 
L 2375 4384 
L 1825 4384 
Q 1516 4384 1395 4259 
Q 1275 4134 1275 3809 
L 1275 3500 
L 2222 3500 
L 2222 3053 
L 1275 3053 
L 1275 0 
L 697 0 
L 697 3053 
L 147 3053 
L 147 3500 
L 697 3500 
L 697 3744 
Q 697 4328 969 4595 
Q 1241 4863 1831 4863 
L 2375 4863 
z
" transform="scale(0.015625)"/>
      <path id="DejaVuSans-Oblique-58" d="M 878 4666 
L 1516 4666 
L 2316 2981 
L 3763 4666 
L 4500 4666 
L 2578 2438 
L 3738 0 
L 3103 0 
L 2163 1966 
L 459 0 
L -275 0 
L 1906 2509 
L 878 4666 
z
" transform="scale(0.015625)"/>
      <path id="DejaVuSans-Oblique-74" d="M 2706 3500 
L 2619 3053 
L 1472 3053 
L 1100 1153 
Q 1081 1047 1072 975 
Q 1063 903 1063 863 
Q 1063 663 1183 572 
Q 1303 481 1569 481 
L 2150 481 
L 2053 0 
L 1503 0 
Q 991 0 739 200 
Q 488 400 488 806 
Q 488 878 497 964 
Q 506 1050 525 1153 
L 897 3053 
L 409 3053 
L 500 3500 
L 978 3500 
L 1172 4494 
L 1747 4494 
L 1556 3500 
L 2706 3500 
z
" transform="scale(0.015625)"/>
      <path id="DejaVuSans-Oblique-53" d="M 3859 4513 
L 3738 3897 
Q 3422 4066 3111 4152 
Q 2800 4238 2509 4238 
Q 1944 4238 1609 3991 
Q 1275 3744 1275 3334 
Q 1275 3109 1398 2989 
Q 1522 2869 2034 2731 
L 2413 2638 
Q 3053 2472 3303 2217 
Q 3553 1963 3553 1503 
Q 3553 797 2998 353 
Q 2444 -91 1538 -91 
Q 1166 -91 791 -17 
Q 416 56 38 206 
L 166 856 
Q 513 641 861 531 
Q 1209 422 1556 422 
Q 2147 422 2503 684 
Q 2859 947 2859 1369 
Q 2859 1650 2717 1795 
Q 2575 1941 2106 2059 
L 1728 2156 
Q 1081 2325 845 2545 
Q 609 2766 609 3163 
Q 609 3859 1145 4304 
Q 1681 4750 2541 4750 
Q 2875 4750 3203 4690 
Q 3531 4631 3859 4513 
z
" transform="scale(0.015625)"/>
     </defs>
     <use xlink:href="#DejaVuSans-51" transform="translate(0 0.015625)"/>
     <use xlink:href="#DejaVuSans-75" transform="translate(78.710938 0.015625)"/>
     <use xlink:href="#DejaVuSans-61" transform="translate(142.089844 0.015625)"/>
     <use xlink:href="#DejaVuSans-64" transform="translate(203.369141 0.015625)"/>
     <use xlink:href="#DejaVuSans-72" transform="translate(266.845703 0.015625)"/>
     <use xlink:href="#DejaVuSans-61" transform="translate(307.958984 0.015625)"/>
     <use xlink:href="#DejaVuSans-74" transform="translate(369.238281 0.015625)"/>
     <use xlink:href="#DejaVuSans-69" transform="translate(408.447266 0.015625)"/>
     <use xlink:href="#DejaVuSans-63" transform="translate(436.230469 0.015625)"/>
     <use xlink:href="#DejaVuSans-20" transform="translate(491.210938 0.015625)"/>
     <use xlink:href="#DejaVuSans-43" transform="translate(522.998047 0.015625)"/>
     <use xlink:href="#DejaVuSans-6f" transform="translate(592.822266 0.015625)"/>
     <use xlink:href="#DejaVuSans-76" transform="translate(654.003906 0.015625)"/>
     <use xlink:href="#DejaVuSans-61" transform="translate(713.183594 0.015625)"/>
     <use xlink:href="#DejaVuSans-72" transform="translate(774.462891 0.015625)"/>
     <use xlink:href="#DejaVuSans-69" transform="translate(815.576172 0.015625)"/>
     <use xlink:href="#DejaVuSans-61" transform="translate(843.359375 0.015625)"/>
     <use xlink:href="#DejaVuSans-74" transform="translate(904.638672 0.015625)"/>
     <use xlink:href="#DejaVuSans-69" transform="translate(943.847656 0.015625)"/>
     <use xlink:href="#DejaVuSans-6f" transform="translate(971.630859 0.015625)"/>
     <use xlink:href="#DejaVuSans-6e" transform="translate(1032.8125 0.015625)"/>
     <use xlink:href="#DejaVuSans-20" transform="translate(1096.191406 0.015625)"/>
     <use xlink:href="#DejaVuSans-6f" transform="translate(1127.978516 0.015625)"/>
     <use xlink:href="#DejaVuSans-66" transform="translate(1189.160156 0.015625)"/>
     <use xlink:href="#DejaVuSans-20" transform="translate(1224.365234 0.015625)"/>
     <use xlink:href="#DejaVuSans-Oblique-58" transform="translate(1256.152344 0.015625)"/>
     <use xlink:href="#DejaVuSans-Oblique-74" transform="translate(1324.658203 -16.390625)scale(0.7)"/>
     <use xlink:href="#DejaVuSans-20" transform="translate(1354.838867 0.015625)"/>
     <use xlink:href="#DejaVuSans-61" transform="translate(1386.625977 0.015625)"/>
     <use xlink:href="#DejaVuSans-6e" transform="translate(1447.905273 0.015625)"/>
     <use xlink:href="#DejaVuSans-64" transform="translate(1511.28418 0.015625)"/>
     <use xlink:href="#DejaVuSans-20" transform="translate(1574.760742 0.015625)"/>
     <use xlink:href="#DejaVuSans-Oblique-53" transform="translate(1606.547852 0.015625)"/>
     <use xlink:href="#DejaVuSans-Oblique-74" transform="translate(1670.024414 -16.390625)scale(0.7)"/>
    </g>
   </g>
   <g id="legend_1">
    <g id="patch_7">
     <path d="M 698.1 103.874375 
L 900.2 103.874375 
Q 902.2 103.874375 902.2 101.874375 
L 902.2 58.84 
Q 902.2 56.84 900.2 56.84 
L 698.1 56.84 
Q 696.1 56.84 696.1 58.84 
L 696.1 101.874375 
Q 696.1 103.874375 698.1 103.874375 
z
" style="fill: #ffffff; opacity: 0.8; stroke: #cccccc; stroke-linejoin: miter"/>
    </g>
    <g id="line2d_16">
     <path d="M 700.1 64.938437 
L 710.1 64.938437 
L 720.1 64.938437 
" style="fill: none; stroke: #1f77b4; stroke-width: 1.5; stroke-linecap: square"/>
    </g>
    <g id="text_16">
     <!-- $X_t$ -->
     <g transform="translate(728.1 68.438437)scale(0.1 -0.1)">
      <use xlink:href="#DejaVuSans-Oblique-58" transform="translate(0 0.09375)"/>
      <use xlink:href="#DejaVuSans-Oblique-74" transform="translate(68.505859 -16.3125)scale(0.7)"/>
     </g>
    </g>
    <g id="line2d_17">
     <path d="M 700.1 79.616562 
L 710.1 79.616562 
L 720.1 79.616562 
" style="fill: none; stroke: #ff7f0e; stroke-width: 1.5; stroke-linecap: square"/>
    </g>
    <g id="text_17">
     <!-- $S_t$ -->
     <g transform="translate(728.1 83.116562)scale(0.1 -0.1)">
      <use xlink:href="#DejaVuSans-Oblique-53" transform="translate(0 0.78125)"/>
      <use xlink:href="#DejaVuSans-Oblique-74" transform="translate(63.476562 -15.625)scale(0.7)"/>
     </g>
    </g>
    <g id="line2d_18">
     <path d="M 700.1 94.294687 
L 710.1 94.294687 
L 720.1 94.294687 
" style="fill: none; stroke: #2ca02c; stroke-width: 1.5; stroke-linecap: square"/>
    </g>
    <g id="text_18">
     <!-- Quadratic Covariation of $X_t$ and $S_t$ -->
     <g transform="translate(728.1 97.794687)scale(0.1 -0.1)">
      <use xlink:href="#DejaVuSans-51" transform="translate(0 0.015625)"/>
      <use xlink:href="#DejaVuSans-75" transform="translate(78.710938 0.015625)"/>
      <use xlink:href="#DejaVuSans-61" transform="translate(142.089844 0.015625)"/>
      <use xlink:href="#DejaVuSans-64" transform="translate(203.369141 0.015625)"/>
      <use xlink:href="#DejaVuSans-72" transform="translate(266.845703 0.015625)"/>
      <use xlink:href="#DejaVuSans-61" transform="translate(307.958984 0.015625)"/>
      <use xlink:href="#DejaVuSans-74" transform="translate(369.238281 0.015625)"/>
      <use xlink:href="#DejaVuSans-69" transform="translate(408.447266 0.015625)"/>
      <use xlink:href="#DejaVuSans-63" transform="translate(436.230469 0.015625)"/>
      <use xlink:href="#DejaVuSans-20" transform="translate(491.210938 0.015625)"/>
      <use xlink:href="#DejaVuSans-43" transform="translate(522.998047 0.015625)"/>
      <use xlink:href="#DejaVuSans-6f" transform="translate(592.822266 0.015625)"/>
      <use xlink:href="#DejaVuSans-76" transform="translate(654.003906 0.015625)"/>
      <use xlink:href="#DejaVuSans-61" transform="translate(713.183594 0.015625)"/>
      <use xlink:href="#DejaVuSans-72" transform="translate(774.462891 0.015625)"/>
      <use xlink:href="#DejaVuSans-69" transform="translate(815.576172 0.015625)"/>
      <use xlink:href="#DejaVuSans-61" transform="translate(843.359375 0.015625)"/>
      <use xlink:href="#DejaVuSans-74" transform="translate(904.638672 0.015625)"/>
      <use xlink:href="#DejaVuSans-69" transform="translate(943.847656 0.015625)"/>
      <use xlink:href="#DejaVuSans-6f" transform="translate(971.630859 0.015625)"/>
      <use xlink:href="#DejaVuSans-6e" transform="translate(1032.8125 0.015625)"/>
      <use xlink:href="#DejaVuSans-20" transform="translate(1096.191406 0.015625)"/>
      <use xlink:href="#DejaVuSans-6f" transform="translate(1127.978516 0.015625)"/>
      <use xlink:href="#DejaVuSans-66" transform="translate(1189.160156 0.015625)"/>
      <use xlink:href="#DejaVuSans-20" transform="translate(1224.365234 0.015625)"/>
      <use xlink:href="#DejaVuSans-Oblique-58" transform="translate(1256.152344 0.015625)"/>
      <use xlink:href="#DejaVuSans-Oblique-74" transform="translate(1324.658203 -16.390625)scale(0.7)"/>
      <use xlink:href="#DejaVuSans-20" transform="translate(1354.838867 0.015625)"/>
      <use xlink:href="#DejaVuSans-61" transform="translate(1386.625977 0.015625)"/>
      <use xlink:href="#DejaVuSans-6e" transform="translate(1447.905273 0.015625)"/>
      <use xlink:href="#DejaVuSans-64" transform="translate(1511.28418 0.015625)"/>
      <use xlink:href="#DejaVuSans-20" transform="translate(1574.760742 0.015625)"/>
      <use xlink:href="#DejaVuSans-Oblique-53" transform="translate(1606.547852 0.015625)"/>
      <use xlink:href="#DejaVuSans-Oblique-74" transform="translate(1670.024414 -16.390625)scale(0.7)"/>
     </g>
    </g>
   </g>
  </g>
 </g>
 <defs>
  <clipPath id="p17f184e1a0">
   <rect x="126" y="51.84" width="781.2" height="332.64"/>
  </clipPath>
 </defs>
</svg>
