<?xml version="1.0" encoding="utf-8" standalone="no"?>
<!DOCTYPE svg PUBLIC "-//W3C//DTD SVG 1.1//EN"
  "http://www.w3.org/Graphics/SVG/1.1/DTD/svg11.dtd">
<svg xmlns:xlink="http://www.w3.org/1999/xlink" width="1008pt" height="432pt" viewBox="0 0 1008 432" xmlns="http://www.w3.org/2000/svg" version="1.1">
 <metadata>
  <rdf:RDF xmlns:dc="http://purl.org/dc/elements/1.1/" xmlns:cc="http://creativecommons.org/ns#" xmlns:rdf="http://www.w3.org/1999/02/22-rdf-syntax-ns#">
   <cc:Work>
    <dc:type rdf:resource="http://purl.org/dc/dcmitype/StillImage"/>
    <dc:date>2023-12-22T17:09:06.881891</dc:date>
    <dc:format>image/svg+xml</dc:format>
    <dc:creator>
     <cc:Agent>
      <dc:title>Matplotlib v3.5.2, https://matplotlib.org/</dc:title>
     </cc:Agent>
    </dc:creator>
   </cc:Work>
  </rdf:RDF>
 </metadata>
 <defs>
  <style type="text/css">*{stroke-linejoin: round; stroke-linecap: butt}</style>
 </defs>
 <g id="figure_1">
  <g id="patch_1">
   <path d="M 0 432 
L 1008 432 
L 1008 0 
L 0 0 
z
" style="fill: #ffffff"/>
  </g>
  <g id="axes_1">
   <g id="patch_2">
    <path d="M 126 384.48 
L 907.2 384.48 
L 907.2 51.84 
L 126 51.84 
z
" style="fill: #ffffff"/>
   </g>
   <g id="matplotlib.axis_1">
    <g id="xtick_1">
     <g id="line2d_1">
      <defs>
       <path id="m89488291cd" d="M 0 0 
L 0 3.5 
" style="stroke: #000000; stroke-width: 0.8"/>
      </defs>
      <g>
       <use xlink:href="#m89488291cd" x="161.509091" y="384.48" style="stroke: #000000; stroke-width: 0.8"/>
      </g>
     </g>
     <g id="text_1">
      <!-- 0.0 -->
      <g transform="translate(153.557528 399.078438)scale(0.1 -0.1)">
       <defs>
        <path id="DejaVuSans-30" d="M 2034 4250 
Q 1547 4250 1301 3770 
Q 1056 3291 1056 2328 
Q 1056 1369 1301 889 
Q 1547 409 2034 409 
Q 2525 409 2770 889 
Q 3016 1369 3016 2328 
Q 3016 3291 2770 3770 
Q 2525 4250 2034 4250 
z
M 2034 4750 
Q 2819 4750 3233 4129 
Q 3647 3509 3647 2328 
Q 3647 1150 3233 529 
Q 2819 -91 2034 -91 
Q 1250 -91 836 529 
Q 422 1150 422 2328 
Q 422 3509 836 4129 
Q 1250 4750 2034 4750 
z
" transform="scale(0.015625)"/>
        <path id="DejaVuSans-2e" d="M 684 794 
L 1344 794 
L 1344 0 
L 684 0 
L 684 794 
z
" transform="scale(0.015625)"/>
       </defs>
       <use xlink:href="#DejaVuSans-30"/>
       <use xlink:href="#DejaVuSans-2e" x="63.623047"/>
       <use xlink:href="#DejaVuSans-30" x="95.410156"/>
      </g>
     </g>
    </g>
    <g id="xtick_2">
     <g id="line2d_2">
      <g>
       <use xlink:href="#m89488291cd" x="303.545455" y="384.48" style="stroke: #000000; stroke-width: 0.8"/>
      </g>
     </g>
     <g id="text_2">
      <!-- 0.2 -->
      <g transform="translate(295.593892 399.078438)scale(0.1 -0.1)">
       <defs>
        <path id="DejaVuSans-32" d="M 1228 531 
L 3431 531 
L 3431 0 
L 469 0 
L 469 531 
Q 828 903 1448 1529 
Q 2069 2156 2228 2338 
Q 2531 2678 2651 2914 
Q 2772 3150 2772 3378 
Q 2772 3750 2511 3984 
Q 2250 4219 1831 4219 
Q 1534 4219 1204 4116 
Q 875 4013 500 3803 
L 500 4441 
Q 881 4594 1212 4672 
Q 1544 4750 1819 4750 
Q 2544 4750 2975 4387 
Q 3406 4025 3406 3419 
Q 3406 3131 3298 2873 
Q 3191 2616 2906 2266 
Q 2828 2175 2409 1742 
Q 1991 1309 1228 531 
z
" transform="scale(0.015625)"/>
       </defs>
       <use xlink:href="#DejaVuSans-30"/>
       <use xlink:href="#DejaVuSans-2e" x="63.623047"/>
       <use xlink:href="#DejaVuSans-32" x="95.410156"/>
      </g>
     </g>
    </g>
    <g id="xtick_3">
     <g id="line2d_3">
      <g>
       <use xlink:href="#m89488291cd" x="445.581818" y="384.48" style="stroke: #000000; stroke-width: 0.8"/>
      </g>
     </g>
     <g id="text_3">
      <!-- 0.4 -->
      <g transform="translate(437.630256 399.078438)scale(0.1 -0.1)">
       <defs>
        <path id="DejaVuSans-34" d="M 2419 4116 
L 825 1625 
L 2419 1625 
L 2419 4116 
z
M 2253 4666 
L 3047 4666 
L 3047 1625 
L 3713 1625 
L 3713 1100 
L 3047 1100 
L 3047 0 
L 2419 0 
L 2419 1100 
L 313 1100 
L 313 1709 
L 2253 4666 
z
" transform="scale(0.015625)"/>
       </defs>
       <use xlink:href="#DejaVuSans-30"/>
       <use xlink:href="#DejaVuSans-2e" x="63.623047"/>
       <use xlink:href="#DejaVuSans-34" x="95.410156"/>
      </g>
     </g>
    </g>
    <g id="xtick_4">
     <g id="line2d_4">
      <g>
       <use xlink:href="#m89488291cd" x="587.618182" y="384.48" style="stroke: #000000; stroke-width: 0.8"/>
      </g>
     </g>
     <g id="text_4">
      <!-- 0.6 -->
      <g transform="translate(579.666619 399.078438)scale(0.1 -0.1)">
       <defs>
        <path id="DejaVuSans-36" d="M 2113 2584 
Q 1688 2584 1439 2293 
Q 1191 2003 1191 1497 
Q 1191 994 1439 701 
Q 1688 409 2113 409 
Q 2538 409 2786 701 
Q 3034 994 3034 1497 
Q 3034 2003 2786 2293 
Q 2538 2584 2113 2584 
z
M 3366 4563 
L 3366 3988 
Q 3128 4100 2886 4159 
Q 2644 4219 2406 4219 
Q 1781 4219 1451 3797 
Q 1122 3375 1075 2522 
Q 1259 2794 1537 2939 
Q 1816 3084 2150 3084 
Q 2853 3084 3261 2657 
Q 3669 2231 3669 1497 
Q 3669 778 3244 343 
Q 2819 -91 2113 -91 
Q 1303 -91 875 529 
Q 447 1150 447 2328 
Q 447 3434 972 4092 
Q 1497 4750 2381 4750 
Q 2619 4750 2861 4703 
Q 3103 4656 3366 4563 
z
" transform="scale(0.015625)"/>
       </defs>
       <use xlink:href="#DejaVuSans-30"/>
       <use xlink:href="#DejaVuSans-2e" x="63.623047"/>
       <use xlink:href="#DejaVuSans-36" x="95.410156"/>
      </g>
     </g>
    </g>
    <g id="xtick_5">
     <g id="line2d_5">
      <g>
       <use xlink:href="#m89488291cd" x="729.654545" y="384.48" style="stroke: #000000; stroke-width: 0.8"/>
      </g>
     </g>
     <g id="text_5">
      <!-- 0.8 -->
      <g transform="translate(721.702983 399.078438)scale(0.1 -0.1)">
       <defs>
        <path id="DejaVuSans-38" d="M 2034 2216 
Q 1584 2216 1326 1975 
Q 1069 1734 1069 1313 
Q 1069 891 1326 650 
Q 1584 409 2034 409 
Q 2484 409 2743 651 
Q 3003 894 3003 1313 
Q 3003 1734 2745 1975 
Q 2488 2216 2034 2216 
z
M 1403 2484 
Q 997 2584 770 2862 
Q 544 3141 544 3541 
Q 544 4100 942 4425 
Q 1341 4750 2034 4750 
Q 2731 4750 3128 4425 
Q 3525 4100 3525 3541 
Q 3525 3141 3298 2862 
Q 3072 2584 2669 2484 
Q 3125 2378 3379 2068 
Q 3634 1759 3634 1313 
Q 3634 634 3220 271 
Q 2806 -91 2034 -91 
Q 1263 -91 848 271 
Q 434 634 434 1313 
Q 434 1759 690 2068 
Q 947 2378 1403 2484 
z
M 1172 3481 
Q 1172 3119 1398 2916 
Q 1625 2713 2034 2713 
Q 2441 2713 2670 2916 
Q 2900 3119 2900 3481 
Q 2900 3844 2670 4047 
Q 2441 4250 2034 4250 
Q 1625 4250 1398 4047 
Q 1172 3844 1172 3481 
z
" transform="scale(0.015625)"/>
       </defs>
       <use xlink:href="#DejaVuSans-30"/>
       <use xlink:href="#DejaVuSans-2e" x="63.623047"/>
       <use xlink:href="#DejaVuSans-38" x="95.410156"/>
      </g>
     </g>
    </g>
    <g id="xtick_6">
     <g id="line2d_6">
      <g>
       <use xlink:href="#m89488291cd" x="871.690909" y="384.48" style="stroke: #000000; stroke-width: 0.8"/>
      </g>
     </g>
     <g id="text_6">
      <!-- 1.0 -->
      <g transform="translate(863.739347 399.078438)scale(0.1 -0.1)">
       <defs>
        <path id="DejaVuSans-31" d="M 794 531 
L 1825 531 
L 1825 4091 
L 703 3866 
L 703 4441 
L 1819 4666 
L 2450 4666 
L 2450 531 
L 3481 531 
L 3481 0 
L 794 0 
L 794 531 
z
" transform="scale(0.015625)"/>
       </defs>
       <use xlink:href="#DejaVuSans-31"/>
       <use xlink:href="#DejaVuSans-2e" x="63.623047"/>
       <use xlink:href="#DejaVuSans-30" x="95.410156"/>
      </g>
     </g>
    </g>
    <g id="text_7">
     <!-- Time -->
     <g transform="translate(504.366406 412.756563)scale(0.1 -0.1)">
      <defs>
       <path id="DejaVuSans-54" d="M -19 4666 
L 3928 4666 
L 3928 4134 
L 2272 4134 
L 2272 0 
L 1638 0 
L 1638 4134 
L -19 4134 
L -19 4666 
z
" transform="scale(0.015625)"/>
       <path id="DejaVuSans-69" d="M 603 3500 
L 1178 3500 
L 1178 0 
L 603 0 
L 603 3500 
z
M 603 4863 
L 1178 4863 
L 1178 4134 
L 603 4134 
L 603 4863 
z
" transform="scale(0.015625)"/>
       <path id="DejaVuSans-6d" d="M 3328 2828 
Q 3544 3216 3844 3400 
Q 4144 3584 4550 3584 
Q 5097 3584 5394 3201 
Q 5691 2819 5691 2113 
L 5691 0 
L 5113 0 
L 5113 2094 
Q 5113 2597 4934 2840 
Q 4756 3084 4391 3084 
Q 3944 3084 3684 2787 
Q 3425 2491 3425 1978 
L 3425 0 
L 2847 0 
L 2847 2094 
Q 2847 2600 2669 2842 
Q 2491 3084 2119 3084 
Q 1678 3084 1418 2786 
Q 1159 2488 1159 1978 
L 1159 0 
L 581 0 
L 581 3500 
L 1159 3500 
L 1159 2956 
Q 1356 3278 1631 3431 
Q 1906 3584 2284 3584 
Q 2666 3584 2933 3390 
Q 3200 3197 3328 2828 
z
" transform="scale(0.015625)"/>
       <path id="DejaVuSans-65" d="M 3597 1894 
L 3597 1613 
L 953 1613 
Q 991 1019 1311 708 
Q 1631 397 2203 397 
Q 2534 397 2845 478 
Q 3156 559 3463 722 
L 3463 178 
Q 3153 47 2828 -22 
Q 2503 -91 2169 -91 
Q 1331 -91 842 396 
Q 353 884 353 1716 
Q 353 2575 817 3079 
Q 1281 3584 2069 3584 
Q 2775 3584 3186 3129 
Q 3597 2675 3597 1894 
z
M 3022 2063 
Q 3016 2534 2758 2815 
Q 2500 3097 2075 3097 
Q 1594 3097 1305 2825 
Q 1016 2553 972 2059 
L 3022 2063 
z
" transform="scale(0.015625)"/>
      </defs>
      <use xlink:href="#DejaVuSans-54"/>
      <use xlink:href="#DejaVuSans-69" x="57.958984"/>
      <use xlink:href="#DejaVuSans-6d" x="85.742188"/>
      <use xlink:href="#DejaVuSans-65" x="183.154297"/>
     </g>
    </g>
   </g>
   <g id="matplotlib.axis_2">
    <g id="ytick_1">
     <g id="line2d_7">
      <defs>
       <path id="mb0a5e8d0bd" d="M 0 0 
L -3.5 0 
" style="stroke: #000000; stroke-width: 0.8"/>
      </defs>
      <g>
       <use xlink:href="#mb0a5e8d0bd" x="126" y="369.6451" style="stroke: #000000; stroke-width: 0.8"/>
      </g>
     </g>
     <g id="text_8">
      <!-- 0.0 -->
      <g transform="translate(103.096875 373.444319)scale(0.1 -0.1)">
       <use xlink:href="#DejaVuSans-30"/>
       <use xlink:href="#DejaVuSans-2e" x="63.623047"/>
       <use xlink:href="#DejaVuSans-30" x="95.410156"/>
      </g>
     </g>
    </g>
    <g id="ytick_2">
     <g id="line2d_8">
      <g>
       <use xlink:href="#mb0a5e8d0bd" x="126" y="315.6547" style="stroke: #000000; stroke-width: 0.8"/>
      </g>
     </g>
     <g id="text_9">
      <!-- 0.5 -->
      <g transform="translate(103.096875 319.453918)scale(0.1 -0.1)">
       <defs>
        <path id="DejaVuSans-35" d="M 691 4666 
L 3169 4666 
L 3169 4134 
L 1269 4134 
L 1269 2991 
Q 1406 3038 1543 3061 
Q 1681 3084 1819 3084 
Q 2600 3084 3056 2656 
Q 3513 2228 3513 1497 
Q 3513 744 3044 326 
Q 2575 -91 1722 -91 
Q 1428 -91 1123 -41 
Q 819 9 494 109 
L 494 744 
Q 775 591 1075 516 
Q 1375 441 1709 441 
Q 2250 441 2565 725 
Q 2881 1009 2881 1497 
Q 2881 1984 2565 2268 
Q 2250 2553 1709 2553 
Q 1456 2553 1204 2497 
Q 953 2441 691 2322 
L 691 4666 
z
" transform="scale(0.015625)"/>
       </defs>
       <use xlink:href="#DejaVuSans-30"/>
       <use xlink:href="#DejaVuSans-2e" x="63.623047"/>
       <use xlink:href="#DejaVuSans-35" x="95.410156"/>
      </g>
     </g>
    </g>
    <g id="ytick_3">
     <g id="line2d_9">
      <g>
       <use xlink:href="#mb0a5e8d0bd" x="126" y="261.664299" style="stroke: #000000; stroke-width: 0.8"/>
      </g>
     </g>
     <g id="text_10">
      <!-- 1.0 -->
      <g transform="translate(103.096875 265.463518)scale(0.1 -0.1)">
       <use xlink:href="#DejaVuSans-31"/>
       <use xlink:href="#DejaVuSans-2e" x="63.623047"/>
       <use xlink:href="#DejaVuSans-30" x="95.410156"/>
      </g>
     </g>
    </g>
    <g id="ytick_4">
     <g id="line2d_10">
      <g>
       <use xlink:href="#mb0a5e8d0bd" x="126" y="207.673899" style="stroke: #000000; stroke-width: 0.8"/>
      </g>
     </g>
     <g id="text_11">
      <!-- 1.5 -->
      <g transform="translate(103.096875 211.473118)scale(0.1 -0.1)">
       <use xlink:href="#DejaVuSans-31"/>
       <use xlink:href="#DejaVuSans-2e" x="63.623047"/>
       <use xlink:href="#DejaVuSans-35" x="95.410156"/>
      </g>
     </g>
    </g>
    <g id="ytick_5">
     <g id="line2d_11">
      <g>
       <use xlink:href="#mb0a5e8d0bd" x="126" y="153.683499" style="stroke: #000000; stroke-width: 0.8"/>
      </g>
     </g>
     <g id="text_12">
      <!-- 2.0 -->
      <g transform="translate(103.096875 157.482718)scale(0.1 -0.1)">
       <use xlink:href="#DejaVuSans-32"/>
       <use xlink:href="#DejaVuSans-2e" x="63.623047"/>
       <use xlink:href="#DejaVuSans-30" x="95.410156"/>
      </g>
     </g>
    </g>
    <g id="ytick_6">
     <g id="line2d_12">
      <g>
       <use xlink:href="#mb0a5e8d0bd" x="126" y="99.693099" style="stroke: #000000; stroke-width: 0.8"/>
      </g>
     </g>
     <g id="text_13">
      <!-- 2.5 -->
      <g transform="translate(103.096875 103.492317)scale(0.1 -0.1)">
       <use xlink:href="#DejaVuSans-32"/>
       <use xlink:href="#DejaVuSans-2e" x="63.623047"/>
       <use xlink:href="#DejaVuSans-35" x="95.410156"/>
      </g>
     </g>
    </g>
    <g id="text_14">
     <!-- Quadratic Covariation -->
     <g transform="translate(97.017187 272.970156)rotate(-90)scale(0.1 -0.1)">
      <defs>
       <path id="DejaVuSans-51" d="M 2522 4238 
Q 1834 4238 1429 3725 
Q 1025 3213 1025 2328 
Q 1025 1447 1429 934 
Q 1834 422 2522 422 
Q 3209 422 3611 934 
Q 4013 1447 4013 2328 
Q 4013 3213 3611 3725 
Q 3209 4238 2522 4238 
z
M 3406 84 
L 4238 -825 
L 3475 -825 
L 2784 -78 
Q 2681 -84 2626 -87 
Q 2572 -91 2522 -91 
Q 1538 -91 948 567 
Q 359 1225 359 2328 
Q 359 3434 948 4092 
Q 1538 4750 2522 4750 
Q 3503 4750 4090 4092 
Q 4678 3434 4678 2328 
Q 4678 1516 4351 937 
Q 4025 359 3406 84 
z
" transform="scale(0.015625)"/>
       <path id="DejaVuSans-75" d="M 544 1381 
L 544 3500 
L 1119 3500 
L 1119 1403 
Q 1119 906 1312 657 
Q 1506 409 1894 409 
Q 2359 409 2629 706 
Q 2900 1003 2900 1516 
L 2900 3500 
L 3475 3500 
L 3475 0 
L 2900 0 
L 2900 538 
Q 2691 219 2414 64 
Q 2138 -91 1772 -91 
Q 1169 -91 856 284 
Q 544 659 544 1381 
z
M 1991 3584 
L 1991 3584 
z
" transform="scale(0.015625)"/>
       <path id="DejaVuSans-61" d="M 2194 1759 
Q 1497 1759 1228 1600 
Q 959 1441 959 1056 
Q 959 750 1161 570 
Q 1363 391 1709 391 
Q 2188 391 2477 730 
Q 2766 1069 2766 1631 
L 2766 1759 
L 2194 1759 
z
M 3341 1997 
L 3341 0 
L 2766 0 
L 2766 531 
Q 2569 213 2275 61 
Q 1981 -91 1556 -91 
Q 1019 -91 701 211 
Q 384 513 384 1019 
Q 384 1609 779 1909 
Q 1175 2209 1959 2209 
L 2766 2209 
L 2766 2266 
Q 2766 2663 2505 2880 
Q 2244 3097 1772 3097 
Q 1472 3097 1187 3025 
Q 903 2953 641 2809 
L 641 3341 
Q 956 3463 1253 3523 
Q 1550 3584 1831 3584 
Q 2591 3584 2966 3190 
Q 3341 2797 3341 1997 
z
" transform="scale(0.015625)"/>
       <path id="DejaVuSans-64" d="M 2906 2969 
L 2906 4863 
L 3481 4863 
L 3481 0 
L 2906 0 
L 2906 525 
Q 2725 213 2448 61 
Q 2172 -91 1784 -91 
Q 1150 -91 751 415 
Q 353 922 353 1747 
Q 353 2572 751 3078 
Q 1150 3584 1784 3584 
Q 2172 3584 2448 3432 
Q 2725 3281 2906 2969 
z
M 947 1747 
Q 947 1113 1208 752 
Q 1469 391 1925 391 
Q 2381 391 2643 752 
Q 2906 1113 2906 1747 
Q 2906 2381 2643 2742 
Q 2381 3103 1925 3103 
Q 1469 3103 1208 2742 
Q 947 2381 947 1747 
z
" transform="scale(0.015625)"/>
       <path id="DejaVuSans-72" d="M 2631 2963 
Q 2534 3019 2420 3045 
Q 2306 3072 2169 3072 
Q 1681 3072 1420 2755 
Q 1159 2438 1159 1844 
L 1159 0 
L 581 0 
L 581 3500 
L 1159 3500 
L 1159 2956 
Q 1341 3275 1631 3429 
Q 1922 3584 2338 3584 
Q 2397 3584 2469 3576 
Q 2541 3569 2628 3553 
L 2631 2963 
z
" transform="scale(0.015625)"/>
       <path id="DejaVuSans-74" d="M 1172 4494 
L 1172 3500 
L 2356 3500 
L 2356 3053 
L 1172 3053 
L 1172 1153 
Q 1172 725 1289 603 
Q 1406 481 1766 481 
L 2356 481 
L 2356 0 
L 1766 0 
Q 1100 0 847 248 
Q 594 497 594 1153 
L 594 3053 
L 172 3053 
L 172 3500 
L 594 3500 
L 594 4494 
L 1172 4494 
z
" transform="scale(0.015625)"/>
       <path id="DejaVuSans-63" d="M 3122 3366 
L 3122 2828 
Q 2878 2963 2633 3030 
Q 2388 3097 2138 3097 
Q 1578 3097 1268 2742 
Q 959 2388 959 1747 
Q 959 1106 1268 751 
Q 1578 397 2138 397 
Q 2388 397 2633 464 
Q 2878 531 3122 666 
L 3122 134 
Q 2881 22 2623 -34 
Q 2366 -91 2075 -91 
Q 1284 -91 818 406 
Q 353 903 353 1747 
Q 353 2603 823 3093 
Q 1294 3584 2113 3584 
Q 2378 3584 2631 3529 
Q 2884 3475 3122 3366 
z
" transform="scale(0.015625)"/>
       <path id="DejaVuSans-20" transform="scale(0.015625)"/>
       <path id="DejaVuSans-43" d="M 4122 4306 
L 4122 3641 
Q 3803 3938 3442 4084 
Q 3081 4231 2675 4231 
Q 1875 4231 1450 3742 
Q 1025 3253 1025 2328 
Q 1025 1406 1450 917 
Q 1875 428 2675 428 
Q 3081 428 3442 575 
Q 3803 722 4122 1019 
L 4122 359 
Q 3791 134 3420 21 
Q 3050 -91 2638 -91 
Q 1578 -91 968 557 
Q 359 1206 359 2328 
Q 359 3453 968 4101 
Q 1578 4750 2638 4750 
Q 3056 4750 3426 4639 
Q 3797 4528 4122 4306 
z
" transform="scale(0.015625)"/>
       <path id="DejaVuSans-6f" d="M 1959 3097 
Q 1497 3097 1228 2736 
Q 959 2375 959 1747 
Q 959 1119 1226 758 
Q 1494 397 1959 397 
Q 2419 397 2687 759 
Q 2956 1122 2956 1747 
Q 2956 2369 2687 2733 
Q 2419 3097 1959 3097 
z
M 1959 3584 
Q 2709 3584 3137 3096 
Q 3566 2609 3566 1747 
Q 3566 888 3137 398 
Q 2709 -91 1959 -91 
Q 1206 -91 779 398 
Q 353 888 353 1747 
Q 353 2609 779 3096 
Q 1206 3584 1959 3584 
z
" transform="scale(0.015625)"/>
       <path id="DejaVuSans-76" d="M 191 3500 
L 800 3500 
L 1894 563 
L 2988 3500 
L 3597 3500 
L 2284 0 
L 1503 0 
L 191 3500 
z
" transform="scale(0.015625)"/>
       <path id="DejaVuSans-6e" d="M 3513 2113 
L 3513 0 
L 2938 0 
L 2938 2094 
Q 2938 2591 2744 2837 
Q 2550 3084 2163 3084 
Q 1697 3084 1428 2787 
Q 1159 2491 1159 1978 
L 1159 0 
L 581 0 
L 581 3500 
L 1159 3500 
L 1159 2956 
Q 1366 3272 1645 3428 
Q 1925 3584 2291 3584 
Q 2894 3584 3203 3211 
Q 3513 2838 3513 2113 
z
" transform="scale(0.015625)"/>
      </defs>
      <use xlink:href="#DejaVuSans-51"/>
      <use xlink:href="#DejaVuSans-75" x="78.710938"/>
      <use xlink:href="#DejaVuSans-61" x="142.089844"/>
      <use xlink:href="#DejaVuSans-64" x="203.369141"/>
      <use xlink:href="#DejaVuSans-72" x="266.845703"/>
      <use xlink:href="#DejaVuSans-61" x="307.958984"/>
      <use xlink:href="#DejaVuSans-74" x="369.238281"/>
      <use xlink:href="#DejaVuSans-69" x="408.447266"/>
      <use xlink:href="#DejaVuSans-63" x="436.230469"/>
      <use xlink:href="#DejaVuSans-20" x="491.210938"/>
      <use xlink:href="#DejaVuSans-43" x="522.998047"/>
      <use xlink:href="#DejaVuSans-6f" x="592.822266"/>
      <use xlink:href="#DejaVuSans-76" x="654.003906"/>
      <use xlink:href="#DejaVuSans-61" x="713.183594"/>
      <use xlink:href="#DejaVuSans-72" x="774.462891"/>
      <use xlink:href="#DejaVuSans-69" x="815.576172"/>
      <use xlink:href="#DejaVuSans-61" x="843.359375"/>
      <use xlink:href="#DejaVuSans-74" x="904.638672"/>
      <use xlink:href="#DejaVuSans-69" x="943.847656"/>
      <use xlink:href="#DejaVuSans-6f" x="971.630859"/>
      <use xlink:href="#DejaVuSans-6e" x="1032.8125"/>
     </g>
    </g>
   </g>
   <g id="line2d_13">
    <path d="M 161.509091 261.664299 
L 162.219273 257.45899 
L 162.929455 263.689118 
L 163.639636 261.718428 
L 164.349818 261.633479 
L 165.06 262.973876 
L 165.770182 268.314967 
L 166.480364 267.482643 
L 167.190545 264.072338 
L 168.610909 272.459094 
L 170.031273 279.596952 
L 170.741455 273.714734 
L 171.451636 275.146017 
L 172.161818 278.476787 
L 172.872 271.723907 
L 173.582182 267.12264 
L 174.292364 265.978546 
L 175.002545 268.026175 
L 175.712727 268.184402 
L 176.422909 271.24094 
L 177.133091 268.377712 
L 177.843273 270.256285 
L 178.553455 271.188601 
L 179.263636 266.368563 
L 179.973818 264.394846 
L 180.684 255.951635 
L 181.394182 258.20306 
L 182.104364 251.279971 
L 183.524727 242.843474 
L 184.234909 241.887977 
L 184.945091 238.203764 
L 185.655273 239.549648 
L 186.365455 238.21472 
L 187.075636 238.826404 
L 187.785818 237.701886 
L 188.496 235.11221 
L 189.206182 234.338894 
L 190.626545 230.688446 
L 191.336727 234.078261 
L 192.046909 230.688879 
L 192.757091 232.198061 
L 193.467273 230.623004 
L 194.177455 224.101633 
L 194.887636 227.479807 
L 195.597818 234.585336 
L 196.308 227.790199 
L 197.728364 224.315974 
L 198.438545 229.597921 
L 199.148727 232.678871 
L 199.858909 231.570558 
L 200.569091 227.378912 
L 201.279273 233.123764 
L 201.989455 229.947295 
L 202.699636 231.757502 
L 203.409818 224.433282 
L 204.12 223.368314 
L 204.830182 220.20373 
L 205.540364 225.403061 
L 206.250545 226.09421 
L 206.960727 219.314194 
L 207.670909 216.146048 
L 208.381091 214.24629 
L 209.091273 216.292515 
L 209.801455 212.327867 
L 210.511636 209.387133 
L 211.221818 203.929651 
L 211.932 204.409754 
L 212.642182 207.227317 
L 213.352364 209.137695 
L 214.062545 210.338349 
L 214.772727 215.18452 
L 215.482909 215.782734 
L 216.193091 210.081106 
L 216.903273 209.471913 
L 217.613455 209.78959 
L 218.323636 207.592928 
L 219.033818 208.215029 
L 219.744 211.602836 
L 220.454182 205.743384 
L 221.164364 207.460483 
L 221.874545 206.618381 
L 222.584727 207.235294 
L 223.294909 208.002038 
L 224.005091 211.095341 
L 224.715273 210.730112 
L 225.425455 214.275465 
L 226.135636 210.308104 
L 226.845818 207.761651 
L 227.556 211.212837 
L 228.266182 209.530661 
L 228.976364 212.703074 
L 229.686545 213.287791 
L 230.396727 216.092764 
L 231.106909 209.725889 
L 231.817091 211.362773 
L 232.527273 208.964435 
L 233.237455 215.316614 
L 233.947636 213.836537 
L 234.657818 214.721698 
L 235.368 212.956054 
L 236.078182 216.079948 
L 236.788364 221.597253 
L 237.498545 219.515027 
L 238.208727 218.235107 
L 238.918909 213.570091 
L 239.629091 204.504347 
L 240.339273 200.244589 
L 241.049455 205.88607 
L 241.759636 208.146825 
L 243.18 218.023884 
L 244.600364 211.969323 
L 245.310545 217.724962 
L 246.020727 216.996686 
L 247.441091 216.484701 
L 248.151273 221.648688 
L 248.861455 216.015263 
L 249.571636 219.231915 
L 250.281818 220.713279 
L 250.992 222.589747 
L 251.702182 215.471014 
L 252.412364 216.85173 
L 253.122545 218.566703 
L 253.832727 219.390387 
L 254.542909 218.522824 
L 255.253091 218.546558 
L 255.963273 215.921862 
L 256.673455 219.540013 
L 257.383636 219.555731 
L 258.093818 219.322304 
L 258.804 222.413311 
L 259.514182 223.901402 
L 260.224364 224.229329 
L 260.934545 223.967081 
L 262.354909 221.95286 
L 263.775273 224.204071 
L 264.485455 221.579417 
L 265.195636 221.939463 
L 265.905818 221.753495 
L 267.326182 214.272167 
L 268.746545 225.401413 
L 269.456727 223.693979 
L 270.166909 216.364453 
L 270.877091 220.398369 
L 272.297455 217.837075 
L 273.007636 219.286526 
L 274.428 223.103697 
L 275.138182 219.990019 
L 275.848364 217.800853 
L 276.558545 217.567511 
L 277.268727 211.913748 
L 277.978909 218.768241 
L 278.689091 217.699293 
L 279.399273 214.140884 
L 280.109455 216.942022 
L 280.819636 212.559671 
L 281.529818 215.18868 
L 282.24 211.457096 
L 282.950182 209.562719 
L 283.660364 212.498289 
L 284.370545 212.469792 
L 285.080727 215.659145 
L 285.790909 219.766854 
L 286.501091 214.670883 
L 287.211273 212.769197 
L 287.921455 209.071095 
L 289.341818 208.137752 
L 290.052 210.750068 
L 290.762182 204.722445 
L 291.472364 203.9961 
L 292.182545 206.298718 
L 292.892727 204.91925 
L 293.602909 206.454563 
L 294.313091 209.042948 
L 295.023273 214.639248 
L 295.733455 215.22945 
L 296.443636 212.047864 
L 297.153818 208.241983 
L 297.864 211.532362 
L 298.574182 213.740568 
L 299.284364 211.588239 
L 299.994545 215.248166 
L 300.704727 210.782205 
L 301.414909 211.059489 
L 302.125091 207.176881 
L 302.835273 207.80788 
L 303.545455 210.710961 
L 304.255636 208.765446 
L 304.965818 212.457469 
L 305.676 211.203479 
L 306.386182 214.285054 
L 307.096364 212.856969 
L 307.806545 205.843135 
L 308.516727 205.416847 
L 309.226909 206.326731 
L 309.937091 205.652337 
L 310.647273 200.95687 
L 311.357455 205.967172 
L 312.067636 207.703024 
L 312.777818 208.450701 
L 313.488 208.6754 
L 314.198182 215.093377 
L 314.908364 214.076034 
L 315.618545 215.682231 
L 316.328727 214.156524 
L 317.038909 210.279232 
L 317.749091 216.080121 
L 318.459273 213.975702 
L 319.169455 214.593566 
L 319.879636 220.046679 
L 320.589818 219.818984 
L 321.3 229.48811 
L 322.010182 228.298516 
L 322.720364 228.683139 
L 323.430545 233.594803 
L 324.140727 234.05693 
L 324.850909 232.80939 
L 325.561091 233.398581 
L 326.271273 230.130729 
L 326.981455 228.074326 
L 327.691636 232.188813 
L 328.401818 232.874362 
L 329.112 235.059444 
L 329.822182 235.662889 
L 330.532364 232.641893 
L 331.242545 233.308194 
L 331.952727 228.90222 
L 332.662909 226.091062 
L 333.373091 229.002453 
L 334.083273 228.445173 
L 335.503636 222.193284 
L 336.213818 221.557573 
L 336.924 228.440378 
L 337.634182 229.816974 
L 338.344364 230.872639 
L 339.054545 238.480763 
L 339.764727 236.244009 
L 340.474909 236.39536 
L 341.895273 241.325141 
L 343.315636 228.351905 
L 344.025818 221.561757 
L 344.736 222.424489 
L 345.446182 221.93752 
L 346.156364 228.891503 
L 346.866545 228.232277 
L 347.576727 227.813775 
L 348.286909 228.950243 
L 348.997091 232.234654 
L 349.707273 237.365336 
L 350.417455 238.534629 
L 351.127636 238.040574 
L 352.548 246.89743 
L 353.258182 248.171368 
L 353.968364 247.748562 
L 354.678545 249.808147 
L 355.388727 248.076805 
L 356.098909 242.141805 
L 356.809091 241.920821 
L 357.519273 244.219795 
L 358.229455 238.417789 
L 358.939636 235.762504 
L 359.649818 235.614052 
L 360.36 238.373835 
L 361.070182 237.038927 
L 362.490545 231.153163 
L 363.200727 233.281814 
L 363.910909 233.287699 
L 364.621091 235.716655 
L 365.331273 237.691917 
L 366.041455 237.319899 
L 366.751636 237.819102 
L 367.461818 234.643192 
L 368.172 233.146067 
L 368.882182 231.252327 
L 369.592364 230.19645 
L 370.302545 231.614262 
L 371.012727 235.231062 
L 371.722909 237.814659 
L 372.433091 232.603077 
L 373.143273 233.257725 
L 373.853455 229.460777 
L 374.563636 234.018903 
L 375.273818 228.030508 
L 375.984 232.501741 
L 376.694182 230.676246 
L 377.404364 233.798018 
L 378.114545 234.971636 
L 378.824727 234.231286 
L 379.534909 234.971772 
L 380.245091 237.293159 
L 380.955273 233.15723 
L 381.665455 236.10408 
L 382.375636 237.279773 
L 383.085818 242.454854 
L 383.796 242.954718 
L 384.506182 244.052928 
L 385.216364 246.154181 
L 385.926545 246.998125 
L 386.636727 248.904633 
L 387.346909 252.735056 
L 388.057091 252.925624 
L 388.767273 250.111118 
L 389.477455 250.202527 
L 390.187636 248.082309 
L 390.897818 249.114504 
L 391.608 248.709031 
L 392.318182 251.428965 
L 393.738545 258.146805 
L 394.448727 256.493319 
L 395.158909 259.640933 
L 395.869091 267.050368 
L 396.579273 271.309979 
L 397.289455 272.294548 
L 397.999636 268.630078 
L 398.709818 267.737749 
L 399.42 262.956834 
L 400.840364 269.062037 
L 402.260727 271.172406 
L 402.970909 272.816488 
L 403.681091 279.09476 
L 404.391273 278.587215 
L 405.101455 278.572864 
L 405.811636 277.982845 
L 406.521818 274.584926 
L 407.232 274.181585 
L 407.942182 282.760526 
L 408.652364 279.728687 
L 409.362545 280.226726 
L 410.072727 278.392749 
L 410.782909 278.516927 
L 412.203273 279.310979 
L 412.913455 279.421328 
L 413.623636 285.531056 
L 414.333818 288.95964 
L 415.044 290.52871 
L 416.464364 286.955252 
L 417.174545 286.977039 
L 417.884727 289.404237 
L 418.594909 289.310126 
L 419.305091 285.721398 
L 420.725455 289.86718 
L 421.435636 283.733742 
L 422.145818 280.980718 
L 422.856 279.02808 
L 423.566182 283.827163 
L 424.276364 283.402692 
L 424.986545 282.743041 
L 425.696727 283.104913 
L 426.406909 293.601788 
L 427.117091 292.355469 
L 427.827273 290.248234 
L 428.537455 289.67077 
L 429.957818 301.524036 
L 430.668 301.905003 
L 431.378182 301.642587 
L 432.088364 302.194579 
L 432.798545 300.128649 
L 433.508727 299.125442 
L 434.218909 297.901029 
L 434.929091 300.254534 
L 435.639273 303.142698 
L 436.349455 302.343 
L 437.059636 302.818937 
L 437.769818 299.342064 
L 438.48 302.882792 
L 439.190182 304.553553 
L 439.900364 301.756499 
L 440.610545 296.654766 
L 441.320727 293.887838 
L 442.741091 298.43662 
L 444.161455 292.089832 
L 444.871636 296.806568 
L 445.581818 292.889086 
L 446.292 290.203534 
L 447.002182 290.503781 
L 447.712364 288.989001 
L 448.422545 289.278613 
L 449.132727 289.726095 
L 449.842909 283.730509 
L 451.263273 293.600258 
L 451.973455 287.463124 
L 452.683636 288.196069 
L 453.393818 286.098086 
L 454.104 287.383489 
L 454.814182 290.790001 
L 456.234545 287.803275 
L 456.944727 289.628363 
L 457.654909 287.777823 
L 458.365091 290.161451 
L 459.075273 290.438358 
L 459.785455 297.151673 
L 460.495636 296.766889 
L 461.205818 293.547064 
L 461.916 294.67188 
L 462.626182 295.532632 
L 463.336364 294.519123 
L 464.046545 293.066293 
L 464.756727 293.650225 
L 465.466909 290.542242 
L 466.177091 293.261792 
L 466.887273 298.541558 
L 467.597455 292.527309 
L 468.307636 291.869528 
L 469.017818 286.272045 
L 469.728 284.986556 
L 470.438182 280.317122 
L 471.148364 281.994129 
L 472.568727 274.353846 
L 473.278909 273.905472 
L 473.989091 262.987479 
L 474.699273 263.584788 
L 475.409455 261.188081 
L 476.119636 263.06845 
L 476.829818 268.956207 
L 477.54 269.664256 
L 478.250182 262.290282 
L 478.960364 263.215812 
L 479.670545 264.914271 
L 480.380727 257.917933 
L 481.090909 257.404293 
L 481.801091 256.036191 
L 482.511273 254.198997 
L 483.221455 253.188721 
L 483.931636 252.610069 
L 484.641818 254.87867 
L 485.352 255.60666 
L 486.062182 252.161128 
L 486.772364 255.373501 
L 487.482545 251.358287 
L 488.192727 248.377275 
L 488.902909 251.632059 
L 489.613091 251.91435 
L 490.323273 252.908887 
L 491.033455 250.803287 
L 491.743636 250.065071 
L 493.164 253.659965 
L 493.874182 255.897269 
L 494.584364 251.355453 
L 495.294545 253.766288 
L 496.004727 251.218118 
L 496.714909 256.079285 
L 497.425091 263.982076 
L 498.135273 264.54988 
L 498.845455 264.348963 
L 499.555636 271.548417 
L 500.265818 270.159888 
L 500.976 269.362798 
L 501.686182 267.036603 
L 503.106545 274.05095 
L 503.816727 266.462737 
L 504.526909 264.157885 
L 505.237091 259.071714 
L 505.947273 252.765855 
L 506.657455 255.288125 
L 507.367636 249.562598 
L 508.077818 256.261653 
L 508.788 254.344133 
L 509.498182 248.025527 
L 510.208364 252.258467 
L 510.918545 249.451503 
L 511.628727 250.608858 
L 512.338909 249.695676 
L 513.049091 251.763216 
L 513.759273 255.85265 
L 514.469455 255.512294 
L 515.179636 254.60127 
L 515.889818 252.494386 
L 516.6 250.892155 
L 517.310182 248.638699 
L 518.020364 249.553561 
L 518.730545 254.772119 
L 519.440727 253.758916 
L 520.150909 250.272173 
L 520.861091 248.348017 
L 521.571273 240.295324 
L 522.281455 240.787029 
L 523.701818 234.084069 
L 524.412 234.17538 
L 525.122182 235.461335 
L 526.542545 240.98209 
L 527.252727 247.839263 
L 527.962909 246.148765 
L 528.673091 249.46844 
L 529.383273 251.945782 
L 530.093455 249.796713 
L 530.803636 253.10477 
L 531.513818 254.812428 
L 532.224 258.22077 
L 532.934182 259.317308 
L 533.644364 252.933057 
L 534.354545 249.867451 
L 535.064727 245.745548 
L 535.774909 247.547449 
L 536.485091 244.782876 
L 537.195273 245.722232 
L 537.905455 242.863771 
L 538.615636 246.008424 
L 539.325818 241.380261 
L 540.036 240.420287 
L 540.746182 241.695725 
L 541.456364 238.80248 
L 542.166545 238.289897 
L 542.876727 235.759604 
L 543.586909 232.585952 
L 544.297091 224.71688 
L 545.007273 220.469259 
L 545.717455 213.140547 
L 546.427636 212.720674 
L 547.137818 209.457623 
L 547.848 213.284673 
L 548.558182 214.481243 
L 549.268364 216.22734 
L 549.978545 218.270818 
L 550.688727 211.112013 
L 551.398909 208.432044 
L 552.109091 211.762032 
L 553.529455 203.309514 
L 554.239636 210.794741 
L 554.949818 216.966763 
L 555.66 217.201526 
L 556.370182 223.09508 
L 557.080364 224.310903 
L 557.790545 223.819026 
L 558.500727 228.786011 
L 559.210909 225.100091 
L 559.921091 228.025158 
L 560.631273 231.550084 
L 561.341455 227.804901 
L 562.051636 226.640587 
L 562.761818 228.260579 
L 564.182182 215.779507 
L 564.892364 215.005291 
L 565.602545 214.416488 
L 567.733091 219.221184 
L 568.443273 224.406484 
L 569.863636 218.723394 
L 570.573818 214.035846 
L 571.284 214.478163 
L 571.994182 209.31299 
L 572.704364 208.463775 
L 573.414545 205.090755 
L 574.124727 210.799037 
L 574.834909 207.104685 
L 575.545091 211.161139 
L 576.255273 209.852523 
L 576.965455 203.953646 
L 577.675636 207.370632 
L 578.385818 204.327338 
L 579.096 198.218447 
L 579.806182 195.496335 
L 581.226545 186.212994 
L 581.936727 186.176372 
L 582.646909 197.390613 
L 583.357091 195.471914 
L 584.067273 196.036188 
L 584.777455 192.852897 
L 585.487636 198.487773 
L 586.197818 198.444774 
L 586.908 200.496891 
L 587.618182 201.746066 
L 588.328364 206.508824 
L 589.038545 203.395722 
L 589.748727 198.406075 
L 590.458909 201.726504 
L 591.169091 200.422411 
L 591.879273 198.851348 
L 592.589455 191.467148 
L 593.299636 190.018823 
L 594.009818 190.959177 
L 594.72 188.020365 
L 595.430182 190.313424 
L 596.140364 193.68235 
L 596.850545 193.379369 
L 597.560727 192.335677 
L 598.270909 192.079155 
L 598.981091 192.640217 
L 599.691273 190.367671 
L 600.401455 195.9895 
L 601.111636 192.050051 
L 601.821818 197.666758 
L 602.532 195.372155 
L 603.242182 199.838906 
L 603.952364 200.878501 
L 604.662545 202.490625 
L 605.372727 199.804148 
L 606.082909 202.094569 
L 606.793091 203.143415 
L 607.503273 204.872601 
L 608.213455 206.00434 
L 608.923636 211.832126 
L 609.633818 209.352305 
L 610.344 212.034991 
L 611.054182 216.274131 
L 611.764364 214.991135 
L 612.474545 212.333126 
L 613.894909 212.582757 
L 614.605091 214.97182 
L 615.315273 215.551992 
L 616.025455 212.563377 
L 616.735636 208.277258 
L 617.445818 205.705667 
L 618.156 202.535209 
L 618.866182 201.909369 
L 619.576364 202.141827 
L 620.286545 205.169885 
L 620.996727 195.233893 
L 621.706909 193.106315 
L 622.417091 195.200924 
L 623.127273 200.06173 
L 624.547636 205.179323 
L 625.257818 208.451629 
L 625.968 207.741359 
L 626.678182 208.609771 
L 627.388364 209.672006 
L 628.098545 213.338164 
L 628.808727 218.071402 
L 629.518909 219.637213 
L 630.229091 219.47708 
L 630.939273 214.754514 
L 631.649455 205.730573 
L 633.069818 195.614331 
L 633.78 197.305409 
L 634.490182 193.516116 
L 635.200364 198.940643 
L 635.910545 200.484713 
L 636.620727 203.785095 
L 637.330909 200.190786 
L 638.041091 201.448075 
L 638.751273 199.144443 
L 639.461455 196.329111 
L 640.881818 206.317952 
L 641.592 205.793086 
L 642.302182 206.049362 
L 643.012364 207.202473 
L 643.722545 207.507463 
L 644.432727 208.03729 
L 645.142909 204.477843 
L 645.853091 202.649047 
L 646.563273 206.396322 
L 647.273455 204.446284 
L 647.983636 196.016497 
L 648.693818 195.972571 
L 649.404 198.643442 
L 650.114182 197.587684 
L 650.824364 200.032414 
L 651.534545 199.497164 
L 652.244727 198.201101 
L 652.954909 201.234233 
L 653.665091 196.332675 
L 654.375273 199.577039 
L 655.085455 199.947662 
L 655.795636 196.175094 
L 656.505818 194.83882 
L 657.216 187.186949 
L 658.636364 182.783141 
L 659.346545 183.519494 
L 660.056727 183.203798 
L 660.766909 179.463859 
L 661.477091 178.048901 
L 662.187273 174.882992 
L 662.897455 174.400255 
L 663.607636 168.055658 
L 664.317818 166.678424 
L 665.028 164.329564 
L 665.738182 166.876408 
L 666.448364 167.364092 
L 667.158545 166.048954 
L 667.868727 162.91459 
L 668.578909 160.872217 
L 669.289091 166.333095 
L 669.999273 164.33173 
L 670.709455 167.19571 
L 671.419636 166.586597 
L 672.129818 168.230314 
L 672.84 167.888509 
L 673.550182 168.028296 
L 674.260364 161.886842 
L 674.970545 162.565353 
L 675.680727 167.620924 
L 676.390909 160.28363 
L 677.101091 161.068452 
L 677.811273 164.393549 
L 678.521455 163.623902 
L 679.231636 169.14344 
L 679.941818 167.437424 
L 680.652 168.659416 
L 682.782545 183.275097 
L 683.492727 184.059763 
L 684.202909 184.096205 
L 684.913091 186.588303 
L 685.623273 184.237386 
L 687.043636 187.161668 
L 687.753818 192.552254 
L 688.464 194.396813 
L 689.174182 189.726265 
L 689.884364 196.292253 
L 690.594545 200.87855 
L 692.014909 194.864021 
L 692.725091 196.428661 
L 693.435273 194.620436 
L 694.145455 193.677319 
L 694.855636 193.622474 
L 695.565818 191.495221 
L 696.276 190.088434 
L 696.986182 189.536169 
L 697.696364 189.491772 
L 698.406545 192.009035 
L 699.116727 190.059757 
L 699.826909 193.431233 
L 700.537091 197.386775 
L 701.247273 195.055903 
L 701.957455 194.426367 
L 702.667636 198.324575 
L 703.377818 197.695311 
L 704.088 199.151773 
L 704.798182 202.896475 
L 705.508364 201.263723 
L 706.218545 194.021845 
L 707.638909 188.109976 
L 708.349091 190.399751 
L 709.059273 184.646922 
L 709.769455 186.311833 
L 710.479636 185.03135 
L 711.189818 178.831259 
L 711.9 183.7309 
L 712.610182 185.08812 
L 713.320364 183.449794 
L 714.030545 180.767272 
L 714.740727 184.202423 
L 715.450909 186.148332 
L 716.161091 185.605624 
L 716.871273 180.77383 
L 717.581455 179.074597 
L 718.291636 179.346758 
L 719.001818 181.544389 
L 719.712 179.960522 
L 720.422182 183.276548 
L 721.132364 182.610875 
L 721.842545 184.767338 
L 722.552727 192.848712 
L 723.262909 191.874463 
L 723.973091 191.536761 
L 724.683273 195.327203 
L 725.393455 202.464074 
L 726.103636 203.074316 
L 726.813818 200.470247 
L 727.524 201.588104 
L 728.234182 202.223793 
L 728.944364 196.873932 
L 729.654545 196.121548 
L 730.364727 194.076749 
L 731.785091 202.197226 
L 732.495273 200.806573 
L 733.205455 193.878824 
L 733.915636 191.401537 
L 734.625818 194.833042 
L 735.336 195.336907 
L 736.046182 193.709694 
L 736.756364 194.459043 
L 737.466545 187.058238 
L 738.176727 187.716043 
L 738.886909 191.106123 
L 739.597091 193.547629 
L 740.307273 189.573761 
L 741.017455 184.059966 
L 741.727636 184.778942 
L 742.437818 186.336445 
L 743.148 188.834834 
L 743.858182 187.963227 
L 744.568364 186.465322 
L 745.278545 186.380265 
L 745.988727 184.653788 
L 746.698909 184.210917 
L 747.409091 184.403496 
L 748.119273 189.760204 
L 748.829455 193.817131 
L 749.539636 195.109399 
L 750.249818 202.559368 
L 750.96 201.647673 
L 751.670182 195.40323 
L 752.380364 193.057232 
L 753.090545 195.038074 
L 753.800727 196.36338 
L 755.221091 190.860923 
L 755.931273 191.466809 
L 756.641455 191.454418 
L 757.351636 193.20996 
L 758.061818 190.429367 
L 758.772 188.872086 
L 759.482182 185.611379 
L 760.192364 185.392299 
L 760.902545 184.907918 
L 761.612727 187.504137 
L 762.322909 187.705075 
L 763.033091 192.608565 
L 763.743273 190.775331 
L 764.453455 187.355537 
L 765.163636 189.118379 
L 766.584 183.839411 
L 767.294182 186.139367 
L 768.714545 180.030929 
L 769.424727 178.466076 
L 770.134909 178.574355 
L 770.845091 180.747682 
L 771.555273 183.727766 
L 772.265455 188.094214 
L 772.975636 191.223124 
L 773.685818 196.317551 
L 774.396 197.320988 
L 775.106182 194.549596 
L 775.816364 193.288751 
L 776.526545 188.011926 
L 777.946909 189.846033 
L 778.657091 188.985922 
L 779.367273 194.114531 
L 780.077455 197.98222 
L 780.787636 198.634196 
L 781.497818 204.654727 
L 782.208 203.355702 
L 782.918182 200.352609 
L 783.628364 203.536401 
L 784.338545 203.992283 
L 785.048727 203.576611 
L 785.758909 204.243446 
L 786.469091 197.214076 
L 787.179273 199.033156 
L 787.889455 198.093262 
L 788.599636 194.157758 
L 789.309818 192.457357 
L 790.02 194.605868 
L 790.730182 192.826916 
L 791.440364 195.276506 
L 792.150545 199.387761 
L 792.860727 195.26811 
L 793.570909 198.256923 
L 794.281091 202.7518 
L 794.991273 198.802792 
L 795.701455 197.092842 
L 796.411636 196.279096 
L 797.121818 192.605748 
L 797.832 199.592498 
L 798.542182 201.4311 
L 799.252364 202.511123 
L 799.962545 204.558761 
L 800.672727 200.566864 
L 801.382909 200.690395 
L 802.093091 206.734727 
L 802.803273 209.998928 
L 803.513455 207.473476 
L 804.223636 210.97478 
L 804.933818 208.876238 
L 805.644 212.706384 
L 806.354182 212.26528 
L 807.774545 215.707419 
L 808.484727 213.49287 
L 809.194909 207.962173 
L 809.905091 208.230368 
L 810.615273 204.778216 
L 811.325455 215.723242 
L 812.035636 211.209965 
L 812.745818 212.509948 
L 813.456 219.423133 
L 814.166182 218.277139 
L 814.876364 211.420116 
L 815.586545 216.404116 
L 816.296727 222.386395 
L 817.006909 217.753922 
L 817.717091 218.076805 
L 818.427273 217.870408 
L 819.137455 219.609438 
L 819.847636 216.865001 
L 820.557818 223.451005 
L 821.268 222.234068 
L 821.978182 225.000458 
L 822.688364 226.568508 
L 823.398545 227.418629 
L 824.108727 232.283291 
L 824.818909 233.701151 
L 825.529091 234.24338 
L 826.239273 233.401523 
L 826.949455 232.912744 
L 827.659636 238.330612 
L 828.369818 238.1415 
L 829.08 234.51229 
L 829.790182 241.567962 
L 830.500364 245.327772 
L 831.210545 250.392455 
L 831.920727 251.071358 
L 832.630909 253.682323 
L 833.341091 255.728772 
L 834.761455 257.411076 
L 835.471636 255.499558 
L 836.181818 257.407569 
L 836.892 260.880692 
L 837.602182 265.936459 
L 838.312364 263.922959 
L 839.022545 266.214257 
L 839.732727 268.09887 
L 840.442909 268.832975 
L 841.153091 265.488977 
L 841.863273 265.805183 
L 842.573455 267.567747 
L 843.283636 266.715242 
L 843.993818 261.721924 
L 844.704 262.465782 
L 845.414182 260.587891 
L 846.124364 262.290652 
L 846.834545 264.977508 
L 847.544727 259.584143 
L 848.254909 260.017271 
L 848.965091 258.509295 
L 849.675273 259.58806 
L 850.385455 259.481394 
L 851.095636 259.748088 
L 851.805818 261.26691 
L 852.516 259.760917 
L 853.226182 260.081833 
L 853.936364 262.172527 
L 854.646545 263.562701 
L 855.356727 261.925754 
L 856.066909 258.239429 
L 856.777091 261.625707 
L 857.487273 260.640114 
L 858.197455 263.934732 
L 858.907636 262.469991 
L 859.617818 263.208523 
L 860.328 262.897305 
L 861.038182 260.93788 
L 861.748364 268.772117 
L 862.458545 265.152748 
L 863.168727 271.291409 
L 863.878909 269.383408 
L 864.589091 277.161425 
L 865.299273 278.422562 
L 866.009455 277.477813 
L 866.719636 278.668019 
L 867.429818 278.625748 
L 868.14 280.959755 
L 868.850182 274.391884 
L 869.560364 268.990807 
L 870.270545 262.442546 
L 870.980727 265.38275 
L 871.690909 266.157178 
L 871.690909 266.157178 
" clip-path="url(#ped4e5d6e6b)" style="fill: none; stroke: #1f77b4; stroke-width: 1.5; stroke-linecap: square"/>
   </g>
   <g id="line2d_14">
    <path d="M 161.509091 261.664299 
L 162.219273 254.343717 
L 162.929455 257.781421 
L 163.639636 255.72183 
L 164.349818 250.933235 
L 165.06 253.711649 
L 165.770182 264.213442 
L 166.480364 262.792508 
L 167.190545 257.347584 
L 167.900727 258.520203 
L 168.610909 259.300212 
L 169.321091 254.861351 
L 170.031273 257.872448 
L 170.741455 243.776163 
L 171.451636 239.145496 
L 172.161818 246.04196 
L 172.872 248.365568 
L 173.582182 249.043347 
L 174.292364 244.006008 
L 175.712727 247.263616 
L 176.422909 250.18864 
L 177.133091 252.286121 
L 177.843273 259.230585 
L 178.553455 254.173903 
L 179.263636 250.243259 
L 179.973818 247.34233 
L 180.684 236.814967 
L 181.394182 238.725613 
L 182.104364 236.256598 
L 182.814545 229.666659 
L 183.524727 227.226058 
L 184.234909 226.955754 
L 184.945091 221.548543 
L 185.655273 221.903449 
L 186.365455 220.862627 
L 187.075636 221.771327 
L 187.785818 219.665115 
L 188.496 216.633593 
L 189.206182 218.136584 
L 189.916364 216.570181 
L 190.626545 213.245281 
L 191.336727 217.207066 
L 192.046909 216.261262 
L 192.757091 223.040575 
L 193.467273 223.283131 
L 194.177455 209.944371 
L 194.887636 212.173938 
L 195.597818 222.866233 
L 196.308 220.979685 
L 197.018182 213.386582 
L 197.728364 208.89815 
L 198.438545 214.941666 
L 199.148727 217.190108 
L 199.858909 208.08281 
L 200.569091 202.270648 
L 201.279273 201.028937 
L 201.989455 198.016781 
L 202.699636 197.352374 
L 203.409818 195.911494 
L 204.12 188.309465 
L 204.830182 185.667259 
L 205.540364 195.35413 
L 206.250545 192.497345 
L 206.960727 179.969936 
L 207.670909 171.823334 
L 208.381091 168.985164 
L 209.091273 171.564386 
L 209.801455 168.494664 
L 210.511636 160.285483 
L 211.221818 155.885948 
L 211.932 150.282823 
L 212.642182 150.847041 
L 213.352364 148.551036 
L 214.062545 149.789829 
L 214.772727 150.060224 
L 215.482909 148.750466 
L 216.193091 148.813354 
L 216.903273 152.184035 
L 217.613455 151.362571 
L 218.323636 149.093944 
L 219.033818 150.669787 
L 219.744 149.814994 
L 220.454182 147.19651 
L 221.164364 150.166521 
L 221.874545 149.072152 
L 222.584727 145.721827 
L 223.294909 145.982649 
L 224.005091 148.563472 
L 224.715273 148.087162 
L 225.425455 149.868815 
L 226.135636 144.033966 
L 226.845818 142.330373 
L 227.556 143.081977 
L 228.266182 139.703898 
L 228.976364 138.498057 
L 229.686545 139.139643 
L 230.396727 136.991727 
L 231.106909 126.256278 
L 231.817091 126.809346 
L 232.527273 123.800136 
L 233.237455 126.601285 
L 233.947636 124.305551 
L 234.657818 124.265662 
L 235.368 127.598512 
L 236.078182 133.580331 
L 236.788364 136.075997 
L 237.498545 140.776499 
L 238.208727 141.795784 
L 239.629091 122.814367 
L 240.339273 118.480527 
L 241.049455 124.633951 
L 241.759636 126.097549 
L 243.18 140.776588 
L 243.890182 144.424108 
L 244.600364 145.749009 
L 245.310545 149.594192 
L 246.020727 151.622199 
L 246.730909 146.748228 
L 247.441091 147.344528 
L 248.151273 148.909977 
L 248.861455 140.33649 
L 250.281818 155.184136 
L 250.992 156.11641 
L 251.702182 147.882124 
L 252.412364 147.698249 
L 253.122545 155.96271 
L 254.542909 158.384549 
L 255.253091 156.402494 
L 255.963273 147.377637 
L 256.673455 149.849002 
L 257.383636 149.205119 
L 258.093818 145.897124 
L 259.514182 142.050448 
L 260.224364 141.727546 
L 260.934545 136.638581 
L 261.644727 139.721522 
L 262.354909 128.226252 
L 263.065091 127.554714 
L 263.775273 129.08457 
L 264.485455 122.316949 
L 265.195636 120.90474 
L 265.905818 123.648496 
L 266.616 120.825192 
L 267.326182 121.259747 
L 268.036364 123.900402 
L 268.746545 130.732019 
L 269.456727 126.873577 
L 270.166909 119.065318 
L 270.877091 119.765704 
L 271.587273 124.52791 
L 272.297455 125.955108 
L 273.007636 123.955316 
L 273.717818 126.429634 
L 274.428 124.682954 
L 275.138182 121.48806 
L 275.848364 119.93389 
L 276.558545 113.807153 
L 277.268727 108.855684 
L 277.978909 112.610845 
L 278.689091 108.923114 
L 279.399273 106.460749 
L 280.109455 109.521598 
L 280.819636 107.749166 
L 281.529818 108.581439 
L 282.24 107.722825 
L 282.950182 104.567194 
L 283.660364 107.328796 
L 284.370545 107.922976 
L 285.080727 117.755048 
L 285.790909 120.240945 
L 287.211273 104.166501 
L 287.921455 100.345172 
L 288.631636 97.98672 
L 289.341818 96.987475 
L 290.052 101.535757 
L 290.762182 99.297724 
L 291.472364 99.412978 
L 292.182545 95.037043 
L 292.892727 89.135498 
L 293.602909 90.87189 
L 295.733455 108.235614 
L 296.443636 101.72167 
L 297.153818 96.883879 
L 297.864 95.804643 
L 298.574182 95.323647 
L 299.994545 93.639172 
L 300.704727 94.775399 
L 301.414909 97.983264 
L 302.125091 96.325424 
L 302.835273 94.34885 
L 303.545455 99.153936 
L 304.255636 100.513175 
L 304.965818 98.431837 
L 305.676 103.950623 
L 306.386182 107.55483 
L 307.096364 106.934349 
L 307.806545 104.836472 
L 308.516727 104.947283 
L 309.226909 105.386167 
L 309.937091 108.107969 
L 310.647273 101.303359 
L 311.357455 103.689069 
L 312.067636 107.419453 
L 312.777818 102.997158 
L 313.488 102.931508 
L 314.198182 104.007628 
L 314.908364 101.580147 
L 315.618545 102.155509 
L 316.328727 101.765342 
L 317.038909 94.953827 
L 317.749091 95.526578 
L 318.459273 95.630954 
L 319.169455 93.626447 
L 319.879636 96.580002 
L 320.589818 95.786965 
L 321.3 105.209676 
L 322.010182 105.952034 
L 323.430545 110.151595 
L 324.140727 103.71942 
L 324.850909 98.643533 
L 325.561091 99.932458 
L 326.271273 93.098883 
L 326.981455 95.080431 
L 327.691636 98.328108 
L 328.401818 99.217192 
L 329.112 101.90567 
L 329.822182 99.066397 
L 330.532364 97.318592 
L 331.242545 97.349397 
L 331.952727 83.718925 
L 332.662909 80.783862 
L 333.373091 83.252211 
L 334.083273 87.331034 
L 334.793455 82.460816 
L 335.503636 83.341833 
L 336.213818 83.962343 
L 336.924 90.780342 
L 338.344364 86.366824 
L 339.054545 91.047937 
L 339.764727 93.06727 
L 340.474909 96.876239 
L 341.185091 99.459704 
L 341.895273 100.349816 
L 342.605455 93.875489 
L 343.315636 92.101632 
L 344.025818 84.843166 
L 344.736 83.550094 
L 345.446182 76.776128 
L 346.156364 85.662017 
L 346.866545 85.939329 
L 347.576727 81.352685 
L 348.286909 82.146621 
L 348.997091 87.359434 
L 349.707273 95.581277 
L 350.417455 96.891796 
L 351.127636 100.353849 
L 351.837818 99.755586 
L 352.548 104.106254 
L 353.258182 103.920814 
L 353.968364 104.802849 
L 354.678545 108.037631 
L 355.388727 107.35488 
L 356.098909 109.067005 
L 356.809091 113.208679 
L 357.519273 114.502352 
L 358.229455 107.43887 
L 358.939636 103.472023 
L 359.649818 103.327277 
L 360.36 109.890696 
L 361.070182 111.348633 
L 361.780364 101.433012 
L 362.490545 97.863875 
L 363.200727 99.040037 
L 363.910909 102.908749 
L 364.621091 104.27639 
L 365.331273 108.838177 
L 366.041455 109.610084 
L 366.751636 116.632626 
L 367.461818 117.940815 
L 368.172 119.993812 
L 368.882182 118.032877 
L 369.592364 114.74777 
L 370.302545 118.704592 
L 371.012727 118.649553 
L 371.722909 117.356817 
L 372.433091 112.873925 
L 373.143273 117.960707 
L 373.853455 113.347098 
L 374.563636 119.692202 
L 375.273818 120.653768 
L 375.984 124.571488 
L 376.694182 119.922275 
L 377.404364 123.083948 
L 378.824727 127.242019 
L 379.534909 131.165395 
L 380.245091 129.036443 
L 380.955273 125.287126 
L 381.665455 126.750186 
L 382.375636 127.541691 
L 383.085818 129.98217 
L 383.796 128.980599 
L 385.216364 143.88143 
L 385.926545 141.2945 
L 386.636727 146.940506 
L 388.057091 153.16822 
L 388.767273 146.887534 
L 389.477455 155.682809 
L 390.187636 152.662368 
L 390.897818 153.719739 
L 391.608 152.075914 
L 392.318182 153.205498 
L 393.028364 153.392148 
L 393.738545 160.335784 
L 394.448727 157.734814 
L 395.158909 164.246864 
L 396.579273 174.016162 
L 397.289455 174.636034 
L 397.999636 175.777239 
L 398.709818 171.288699 
L 399.42 156.349136 
L 400.840364 162.714869 
L 401.550545 159.518103 
L 402.260727 166.271297 
L 402.970909 170.324182 
L 403.681091 173.395722 
L 404.391273 173.339771 
L 405.101455 173.724822 
L 406.521818 159.968127 
L 407.232 162.015982 
L 407.942182 164.810271 
L 408.652364 157.447024 
L 409.362545 162.171242 
L 410.072727 160.947847 
L 410.782909 161.330227 
L 412.203273 155.351784 
L 412.913455 155.922332 
L 414.333818 170.575965 
L 415.044 174.493467 
L 415.754182 175.687617 
L 416.464364 177.183986 
L 417.174545 171.650882 
L 417.884727 177.617588 
L 418.594909 179.990694 
L 419.305091 178.945397 
L 420.015273 176.298156 
L 420.725455 172.177561 
L 421.435636 169.228555 
L 422.145818 165.62572 
L 422.856 163.039729 
L 423.566182 164.779762 
L 424.276364 165.740079 
L 424.986545 160.177253 
L 425.696727 161.981428 
L 426.406909 176.965645 
L 427.117091 176.499246 
L 427.827273 178.594589 
L 428.537455 179.231784 
L 429.957818 200.677239 
L 430.668 197.857128 
L 431.378182 194.000207 
L 432.798545 198.033768 
L 433.508727 202.191334 
L 434.218909 203.616869 
L 434.929091 216.342991 
L 435.639273 225.725664 
L 436.349455 221.77621 
L 437.059636 221.942639 
L 437.769818 219.51418 
L 438.48 227.207481 
L 439.190182 231.218366 
L 439.900364 233.893647 
L 440.610545 226.667298 
L 441.320727 226.397709 
L 442.030909 231.242611 
L 442.741091 234.919275 
L 443.451273 232.749751 
L 444.161455 228.403892 
L 444.871636 231.383006 
L 445.581818 230.590135 
L 446.292 221.881195 
L 447.002182 224.057541 
L 447.712364 223.294085 
L 448.422545 225.743767 
L 449.132727 225.752453 
L 449.842909 220.434947 
L 451.263273 227.968707 
L 451.973455 217.610717 
L 453.393818 214.896932 
L 454.104 215.950705 
L 454.814182 218.455008 
L 455.524364 216.187095 
L 456.944727 207.646877 
L 457.654909 208.364655 
L 458.365091 207.637965 
L 459.075273 215.154532 
L 459.785455 223.915372 
L 460.495636 229.461242 
L 461.205818 226.173383 
L 461.916 229.271212 
L 462.626182 235.671028 
L 463.336364 236.202834 
L 464.046545 235.674218 
L 464.756727 231.698072 
L 465.466909 230.178938 
L 466.177091 234.716791 
L 466.887273 234.748202 
L 467.597455 232.401909 
L 468.307636 226.783332 
L 469.017818 223.831373 
L 469.728 220.337239 
L 470.438182 210.507655 
L 471.148364 208.202531 
L 471.858545 204.59753 
L 472.568727 203.965518 
L 473.278909 202.45596 
L 473.989091 185.180384 
L 474.699273 184.963755 
L 475.409455 182.764301 
L 476.119636 182.996765 
L 476.829818 187.245871 
L 477.54 192.506985 
L 478.250182 181.190385 
L 478.960364 182.011681 
L 479.670545 179.553132 
L 480.380727 176.223919 
L 481.090909 169.309452 
L 481.801091 169.64299 
L 482.511273 170.307156 
L 483.221455 169.149708 
L 483.931636 168.207995 
L 484.641818 171.853642 
L 485.352 173.235921 
L 486.062182 166.914629 
L 486.772364 170.765331 
L 488.192727 165.012435 
L 488.902909 170.852224 
L 489.613091 172.561246 
L 490.323273 171.844045 
L 491.033455 167.144811 
L 491.743636 165.577593 
L 492.453818 168.603025 
L 493.164 168.751717 
L 493.874182 176.191809 
L 494.584364 170.040765 
L 495.294545 168.188718 
L 496.004727 164.167768 
L 496.714909 168.276357 
L 497.425091 176.603764 
L 498.135273 175.61925 
L 498.845455 175.848104 
L 499.555636 187.851374 
L 500.265818 184.994918 
L 500.976 184.593862 
L 501.686182 188.662523 
L 503.106545 199.071112 
L 503.816727 196.579884 
L 504.526909 201.054764 
L 505.237091 195.515187 
L 505.947273 196.225495 
L 506.657455 200.778129 
L 507.367636 189.306482 
L 508.077818 198.580801 
L 508.788 204.822798 
L 509.498182 201.070551 
L 510.208364 208.052495 
L 510.918545 199.751584 
L 511.628727 202.353666 
L 512.338909 200.604411 
L 513.049091 202.120942 
L 513.759273 205.049023 
L 514.469455 203.970855 
L 515.179636 201.47299 
L 515.889818 201.794016 
L 516.6 205.044768 
L 517.310182 198.784761 
L 518.020364 199.337152 
L 518.730545 204.247309 
L 519.440727 203.396566 
L 520.861091 188.566674 
L 521.571273 178.97501 
L 522.281455 180.916237 
L 523.701818 173.680813 
L 524.412 166.161906 
L 525.122182 163.942868 
L 525.832364 169.178617 
L 526.542545 169.121573 
L 527.252727 174.669411 
L 527.962909 171.875102 
L 528.673091 180.976851 
L 529.383273 191.788269 
L 530.093455 187.518531 
L 530.803636 195.061187 
L 531.513818 197.098281 
L 532.934182 211.018696 
L 533.644364 204.114195 
L 534.354545 202.071242 
L 535.064727 196.24389 
L 535.774909 197.238748 
L 536.485091 195.662522 
L 537.195273 195.207848 
L 537.905455 192.302181 
L 538.615636 195.356868 
L 539.325818 194.438431 
L 540.036 191.959857 
L 540.746182 191.712234 
L 541.456364 188.775381 
L 542.166545 190.040253 
L 542.876727 179.901621 
L 543.586909 177.641932 
L 544.297091 174.100996 
L 545.007273 172.220575 
L 545.717455 169.128182 
L 546.427636 173.918081 
L 548.558182 174.648297 
L 549.268364 173.924226 
L 549.978545 173.884313 
L 550.688727 163.27014 
L 551.398909 165.457049 
L 552.109091 169.952159 
L 552.819273 167.376919 
L 553.529455 165.99176 
L 554.239636 172.029552 
L 554.949818 180.016835 
L 555.66 179.302506 
L 556.370182 179.428334 
L 557.080364 185.100214 
L 558.500727 188.500763 
L 559.210909 182.669691 
L 559.921091 183.075988 
L 560.631273 188.015701 
L 561.341455 182.690547 
L 562.051636 181.389981 
L 562.761818 181.591109 
L 563.472 169.594535 
L 564.182182 161.081919 
L 564.892364 166.017155 
L 565.602545 157.97434 
L 567.022909 149.33798 
L 568.443273 156.795764 
L 569.153455 155.919428 
L 569.863636 150.616052 
L 570.573818 144.038661 
L 571.284 147.562958 
L 571.994182 142.892036 
L 572.704364 143.737994 
L 573.414545 149.897848 
L 574.124727 152.242158 
L 574.834909 149.137935 
L 575.545091 148.176776 
L 576.965455 139.244625 
L 577.675636 144.474881 
L 578.385818 141.560272 
L 579.096 131.377118 
L 579.806182 129.125126 
L 581.226545 116.883688 
L 581.936727 116.128422 
L 582.646909 122.389718 
L 583.357091 121.883135 
L 584.067273 128.913363 
L 584.777455 124.544292 
L 585.487636 126.39598 
L 586.197818 127.033508 
L 586.908 129.893355 
L 587.618182 132.193714 
L 588.328364 135.713563 
L 589.038545 130.814394 
L 589.748727 124.920967 
L 590.458909 130.559762 
L 591.169091 127.209099 
L 591.879273 124.467835 
L 592.589455 111.621114 
L 593.299636 114.491695 
L 594.009818 118.782659 
L 594.72 111.227999 
L 595.430182 109.627045 
L 596.140364 109.205716 
L 596.850545 105.310232 
L 597.560727 111.034948 
L 598.270909 109.875021 
L 598.981091 109.737879 
L 599.691273 105.040373 
L 600.401455 114.197383 
L 601.111636 112.354366 
L 601.821818 121.390482 
L 602.532 114.313903 
L 603.242182 120.623517 
L 603.952364 121.034574 
L 604.662545 119.478682 
L 605.372727 106.497136 
L 606.082909 107.708213 
L 607.503273 116.181248 
L 608.213455 107.918391 
L 608.923636 113.605835 
L 609.633818 109.482415 
L 610.344 109.038484 
L 611.054182 120.397955 
L 611.764364 116.853639 
L 612.474545 114.361823 
L 613.894909 121.613541 
L 614.605091 123.905293 
L 615.315273 120.195463 
L 616.025455 114.668078 
L 616.735636 112.010374 
L 617.445818 113.959826 
L 618.156 109.964054 
L 618.866182 104.757036 
L 619.576364 102.811445 
L 620.286545 109.894032 
L 620.996727 103.630292 
L 622.417091 94.772732 
L 623.127273 103.314503 
L 623.837455 105.39902 
L 624.547636 106.497867 
L 625.257818 108.835374 
L 625.968 104.070997 
L 626.678182 104.000766 
L 627.388364 106.899747 
L 628.098545 116.943573 
L 628.808727 118.264065 
L 630.229091 130.238734 
L 630.939273 126.917675 
L 632.359636 110.241124 
L 633.069818 103.631016 
L 633.78 107.547126 
L 634.490182 97.596729 
L 635.200364 107.129611 
L 635.910545 112.558286 
L 636.620727 119.791394 
L 637.330909 113.569587 
L 638.041091 121.363514 
L 638.751273 124.876189 
L 639.461455 114.787932 
L 640.171636 120.921259 
L 640.881818 123.115535 
L 641.592 120.606278 
L 642.302182 115.84769 
L 643.722545 107.989215 
L 645.142909 103.10987 
L 645.853091 98.22243 
L 646.563273 97.537569 
L 647.273455 98.916982 
L 647.983636 84.15534 
L 649.404 88.630088 
L 650.114182 87.172181 
L 652.244727 96.64268 
L 652.954909 101.421251 
L 653.665091 93.677105 
L 654.375273 100.551216 
L 655.085455 108.694742 
L 655.795636 108.246591 
L 656.505818 109.646354 
L 657.216 102.446969 
L 657.926182 98.362669 
L 658.636364 98.180392 
L 659.346545 103.482432 
L 660.056727 106.581004 
L 660.766909 104.788754 
L 661.477091 105.334657 
L 662.187273 101.717418 
L 662.897455 103.76099 
L 663.607636 98.586462 
L 664.317818 105.206993 
L 665.028 104.618946 
L 665.738182 106.413231 
L 666.448364 105.412344 
L 667.158545 102.476433 
L 667.868727 101.174302 
L 668.578909 102.143319 
L 669.289091 105.464628 
L 669.999273 98.958043 
L 670.709455 100.70955 
L 671.419636 96.452004 
L 672.129818 97.385943 
L 672.84 95.187081 
L 673.550182 94.060617 
L 674.260364 89.035104 
L 674.970545 90.084604 
L 675.680727 95.308325 
L 676.390909 89.912145 
L 677.101091 91.233073 
L 677.811273 93.761197 
L 678.521455 90.183667 
L 679.231636 102.339591 
L 679.941818 94.575543 
L 680.652 92.953114 
L 682.072364 106.563836 
L 682.782545 109.214081 
L 683.492727 107.292967 
L 684.202909 108.086713 
L 684.913091 111.21729 
L 686.333455 104.960041 
L 687.043636 107.997141 
L 687.753818 119.272505 
L 688.464 122.480211 
L 689.174182 123.024285 
L 689.884364 128.900786 
L 691.304727 132.527849 
L 692.014909 135.152445 
L 692.725091 137.11488 
L 693.435273 138.051635 
L 694.145455 139.859179 
L 694.855636 141.299294 
L 695.565818 139.456656 
L 696.276 137.037058 
L 696.986182 133.59554 
L 697.696364 133.607947 
L 698.406545 130.411382 
L 699.116727 125.720248 
L 699.826909 126.922692 
L 700.537091 130.213178 
L 701.247273 129.704131 
L 702.667636 134.68106 
L 703.377818 135.798363 
L 704.088 135.880607 
L 705.508364 127.284744 
L 706.218545 121.882641 
L 706.928727 118.510597 
L 707.638909 113.582665 
L 708.349091 117.550967 
L 709.059273 109.701425 
L 709.769455 108.504121 
L 710.479636 106.680075 
L 711.189818 103.428796 
L 712.610182 108.589512 
L 713.320364 107.661445 
L 714.030545 106.054448 
L 714.740727 109.962074 
L 715.450909 115.213998 
L 716.161091 118.553607 
L 716.871273 121.097205 
L 717.581455 114.646252 
L 718.291636 106.30431 
L 719.001818 109.454402 
L 719.712 108.828641 
L 720.422182 107.406253 
L 721.132364 107.899882 
L 721.842545 111.960876 
L 722.552727 116.963888 
L 723.262909 116.20694 
L 723.973091 112.377971 
L 725.393455 127.964798 
L 726.103636 128.942476 
L 726.813818 119.285153 
L 727.524 116.034783 
L 728.234182 120.13163 
L 728.944364 118.376561 
L 729.654545 117.84082 
L 730.364727 116.97111 
L 731.074909 121.497824 
L 731.785091 123.262782 
L 732.495273 122.774888 
L 733.205455 122.069295 
L 733.915636 117.548195 
L 734.625818 125.657065 
L 735.336 123.479509 
L 736.756364 127.458413 
L 737.466545 117.962558 
L 738.176727 116.708693 
L 738.886909 118.087558 
L 739.597091 122.712525 
L 740.307273 124.060004 
L 741.017455 113.858566 
L 741.727636 114.215626 
L 742.437818 115.261436 
L 743.148 122.073833 
L 743.858182 121.571793 
L 744.568364 117.77111 
L 745.278545 117.346288 
L 745.988727 114.432372 
L 746.698909 113.083471 
L 747.409091 108.946225 
L 748.119273 115.294052 
L 748.829455 120.033086 
L 749.539636 116.468941 
L 750.249818 121.384821 
L 750.96 123.511306 
L 751.670182 116.760147 
L 752.380364 108.602584 
L 753.090545 108.403796 
L 753.800727 107.060512 
L 754.510909 104.589418 
L 755.221091 97.140231 
L 755.931273 98.260112 
L 756.641455 100.075287 
L 757.351636 98.1664 
L 758.061818 96.995395 
L 758.772 98.440977 
L 759.482182 87.592943 
L 760.192364 80.315883 
L 760.902545 79.692994 
L 761.612727 80.302236 
L 762.322909 87.919249 
L 763.033091 101.061234 
L 763.743273 99.62577 
L 764.453455 96.0632 
L 765.163636 99.462063 
L 765.873818 95.852688 
L 766.584 95.856124 
L 767.294182 94.634408 
L 768.004364 92.475851 
L 768.714545 89.798402 
L 769.424727 90.177977 
L 770.134909 86.709576 
L 770.845091 88.140581 
L 771.555273 90.662692 
L 772.265455 89.299463 
L 772.975636 86.549461 
L 773.685818 90.800923 
L 774.396 88.987491 
L 775.106182 80.376622 
L 775.816364 82.981508 
L 776.526545 78.581074 
L 777.236727 77.685741 
L 777.946909 73.106766 
L 778.657091 70.208393 
L 779.367273 74.515857 
L 780.077455 76.76898 
L 780.787636 75.381317 
L 781.497818 82.992558 
L 782.208 82.588745 
L 782.918182 86.32085 
L 783.628364 80.765472 
L 784.338545 76.647327 
L 785.048727 81.133478 
L 785.758909 92.125247 
L 786.469091 88.557046 
L 787.179273 85.842856 
L 787.889455 86.457352 
L 789.309818 76.730145 
L 790.02 79.305578 
L 790.730182 80.23669 
L 791.440364 80.169288 
L 792.150545 84.945195 
L 792.860727 77.571592 
L 793.570909 72.288124 
L 794.281091 76.512939 
L 794.991273 67.678433 
L 795.701455 67.241091 
L 796.411636 70.446678 
L 797.121818 68.283189 
L 797.832 78.334723 
L 798.542182 81.940802 
L 799.252364 82.148868 
L 799.962545 85.999892 
L 800.672727 74.383232 
L 801.382909 72.020215 
L 802.093091 77.47109 
L 802.803273 75.847062 
L 804.223636 69.716743 
L 804.933818 70.187838 
L 805.644 79.251629 
L 806.354182 78.467737 
L 807.774545 78.849424 
L 808.484727 79.812453 
L 809.194909 71.722101 
L 809.905091 68.423116 
L 810.615273 68.45316 
L 811.325455 82.502638 
L 812.035636 82.192836 
L 812.745818 84.494548 
L 813.456 91.130519 
L 814.166182 90.344048 
L 814.876364 79.850411 
L 815.586545 86.042353 
L 816.296727 88.982469 
L 817.006909 79.15939 
L 817.717091 80.409994 
L 818.427273 79.933621 
L 819.137455 74.818625 
L 819.847636 72.595654 
L 820.557818 71.830314 
L 821.268 66.96 
L 821.978182 71.053425 
L 822.688364 73.024409 
L 823.398545 73.683938 
L 824.108727 81.820986 
L 824.818909 81.120835 
L 825.529091 82.370727 
L 826.239273 73.993184 
L 827.659636 87.97717 
L 828.369818 88.953427 
L 829.08 90.93992 
L 829.790182 93.713396 
L 830.500364 97.319273 
L 831.210545 96.957313 
L 831.920727 100.763669 
L 832.630909 110.115054 
L 833.341091 112.513158 
L 834.051273 118.972044 
L 834.761455 120.118981 
L 835.471636 115.601888 
L 836.181818 112.752926 
L 836.892 115.320186 
L 837.602182 112.779217 
L 838.312364 109.415359 
L 839.022545 111.110553 
L 840.442909 118.249876 
L 841.153091 112.787986 
L 841.863273 108.933451 
L 842.573455 111.65438 
L 843.283636 110.68857 
L 843.993818 106.168021 
L 844.704 107.40927 
L 846.124364 104.328331 
L 846.834545 107.053395 
L 847.544727 100.266851 
L 848.254909 95.512337 
L 848.965091 93.68237 
L 849.675273 88.749075 
L 850.385455 84.818651 
L 851.095636 86.413037 
L 851.805818 86.456078 
L 852.516 89.738644 
L 853.226182 88.156135 
L 853.936364 90.488967 
L 854.646545 94.119409 
L 855.356727 89.601637 
L 856.066909 80.946774 
L 856.777091 87.018066 
L 857.487273 84.978595 
L 858.197455 89.14287 
L 858.907636 91.236994 
L 859.617818 90.807393 
L 860.328 87.132022 
L 861.038182 87.140599 
L 861.748364 94.244729 
L 862.458545 90.063519 
L 863.168727 97.489176 
L 863.878909 95.489888 
L 864.589091 104.222609 
L 865.299273 104.621047 
L 866.009455 106.037185 
L 866.719636 101.599127 
L 867.429818 95.028235 
L 868.14 97.145548 
L 868.850182 93.801929 
L 869.560364 88.908403 
L 870.270545 84.82854 
L 870.980727 84.150083 
L 871.690909 80.965076 
L 871.690909 80.965076 
" clip-path="url(#ped4e5d6e6b)" style="fill: none; stroke: #ff7f0e; stroke-width: 1.5; stroke-linecap: square"/>
   </g>
   <g id="line2d_15">
    <path d="M 162.219273 369.36 
L 162.929455 369.161656 
L 165.06 369.085811 
L 165.770182 368.566358 
L 166.480364 368.555405 
L 167.190545 368.38344 
L 168.610909 368.306596 
L 169.321091 368.447967 
L 170.031273 368.344823 
L 170.741455 367.576933 
L 171.451636 367.638312 
L 172.161818 367.425584 
L 172.872 367.570897 
L 174.292364 367.546406 
L 179.263636 367.234389 
L 179.973818 367.181365 
L 180.684 366.358212 
L 181.394182 366.318374 
L 182.104364 366.160076 
L 182.814545 365.885734 
L 185.655273 365.605349 
L 190.626545 365.419902 
L 192.046909 365.265843 
L 193.467273 365.174631 
L 194.177455 364.369053 
L 194.887636 364.299301 
L 195.597818 363.595709 
L 197.728364 363.285863 
L 198.438545 362.990241 
L 199.858909 362.83261 
L 200.569091 362.606991 
L 201.279273 362.673053 
L 204.12 362.422874 
L 204.830182 362.345439 
L 205.540364 361.879011 
L 206.250545 361.897296 
L 206.960727 361.110712 
L 207.670909 360.871691 
L 209.801455 360.660173 
L 211.221818 360.214248 
L 214.772727 360.239149 
L 219.744 360.242747 
L 221.164364 360.05343 
L 225.425455 359.928143 
L 226.135636 359.713763 
L 228.976364 359.632368 
L 230.396727 359.684689 
L 231.106909 359.051695 
L 232.527273 358.976474 
L 233.237455 358.811691 
L 234.657818 358.78055 
L 235.368 358.835047 
L 236.788364 358.534476 
L 238.208727 358.637199 
L 238.918909 358.208311 
L 239.629091 357.448167 
L 240.339273 357.2772 
L 241.049455 356.955713 
L 241.759636 356.92507 
L 243.18 356.253348 
L 244.600364 356.396236 
L 245.310545 356.191278 
L 247.441091 356.194843 
L 248.151273 356.119979 
L 248.861455 355.672694 
L 249.571636 355.443853 
L 250.992 355.329349 
L 251.702182 354.786496 
L 252.412364 354.788847 
L 253.122545 354.657589 
L 255.253091 354.659327 
L 255.963273 354.439959 
L 257.383636 354.357244 
L 260.934545 354.41932 
L 261.644727 354.450372 
L 263.065091 354.35896 
L 263.775273 354.343548 
L 264.485455 354.17905 
L 267.326182 354.111046 
L 268.036364 353.970794 
L 268.746545 353.629526 
L 269.456727 353.568514 
L 270.166909 353.038505 
L 271.587273 353.064727 
L 274.428 353.092485 
L 275.848364 352.96885 
L 276.558545 352.95561 
L 277.978909 352.457983 
L 280.109455 352.26093 
L 283.660364 352.008623 
L 284.370545 352.00878 
L 285.080727 351.718377 
L 285.790909 351.623811 
L 286.501091 351.224164 
L 287.921455 350.959337 
L 290.052 350.834666 
L 290.762182 350.709736 
L 293.602909 350.703744 
L 294.313091 350.56319 
L 295.023273 350.269 
L 295.733455 350.237169 
L 297.153818 349.874727 
L 301.414909 349.968066 
L 304.255636 349.81531 
L 305.676 349.950565 
L 307.806545 349.703235 
L 309.937091 349.716973 
L 310.647273 349.421079 
L 312.067636 349.250414 
L 313.488 349.281172 
L 315.618545 349.185782 
L 316.328727 349.180269 
L 317.038909 348.935687 
L 320.589818 348.767593 
L 321.3 347.923837 
L 322.720364 347.924469 
L 323.430545 347.829817 
L 324.850909 347.798702 
L 325.561091 347.791669 
L 326.271273 347.584862 
L 326.981455 347.622599 
L 327.691636 347.49885 
L 331.242545 347.40558 
L 331.952727 346.849412 
L 334.793455 346.577186 
L 336.213818 346.604657 
L 336.924 346.170071 
L 338.344364 346.220272 
L 339.054545 345.890449 
L 340.474909 345.92694 
L 341.895273 345.8464 
L 342.605455 345.482722 
L 343.315636 345.369246 
L 344.025818 344.912812 
L 345.446182 344.892594 
L 346.156364 344.320341 
L 348.286909 344.295902 
L 348.997091 344.137346 
L 349.707273 343.746687 
L 357.519273 343.611333 
L 358.229455 343.231799 
L 360.36 342.966305 
L 361.070182 342.984329 
L 361.780364 342.728476 
L 363.200727 342.60284 
L 364.621091 342.571865 
L 366.041455 342.491076 
L 367.461818 342.497087 
L 368.882182 342.491161 
L 373.143273 342.192656 
L 375.984 341.653688 
L 378.114545 341.461931 
L 380.245091 341.495581 
L 381.665455 341.312045 
L 383.796 341.191102 
L 390.187636 340.542688 
L 393.028364 340.492292 
L 393.738545 340.27099 
L 394.448727 340.231162 
L 395.158909 340.041337 
L 396.579273 339.523406 
L 398.709818 339.51939 
L 399.42 338.857932 
L 400.840364 338.67795 
L 402.260727 338.637064 
L 402.970909 338.575356 
L 403.681091 338.396769 
L 405.811636 338.357646 
L 406.521818 338.148842 
L 407.232 338.156491 
L 408.652364 337.727746 
L 412.913455 337.706166 
L 413.623636 337.296749 
L 414.333818 337.061222 
L 415.754182 337.025403 
L 417.174545 337.049591 
L 417.884727 336.915471 
L 421.435636 336.842823 
L 423.566182 336.62687 
L 425.696727 336.590616 
L 426.406909 335.133991 
L 428.537455 335.172906 
L 429.957818 333.998803 
L 434.218909 334.080892 
L 435.639273 333.55256 
L 437.769818 333.444383 
L 438.48 333.192117 
L 439.190182 333.130058 
L 439.900364 333.199356 
L 440.610545 332.857935 
L 442.030909 332.756224 
L 445.581818 332.321067 
L 446.292 332.10447 
L 449.132727 332.081103 
L 450.553091 331.608406 
L 451.263273 331.443051 
L 451.973455 330.85435 
L 454.104 330.827072 
L 456.234545 330.660981 
L 457.654909 330.748665 
L 459.075273 330.74543 
L 459.785455 330.200757 
L 460.495636 330.220519 
L 461.916 330.090211 
L 464.046545 330.037075 
L 465.466909 330.014852 
L 466.177091 329.900564 
L 466.887273 329.899028 
L 469.017818 329.581096 
L 469.728 329.539499 
L 470.438182 329.114437 
L 471.148364 329.150237 
L 472.568727 329.007579 
L 473.278909 329.00131 
L 473.989091 327.254568 
L 476.119636 327.2029 
L 476.829818 326.971214 
L 477.54 326.936716 
L 478.250182 326.163909 
L 479.670545 326.19554 
L 480.380727 325.979832 
L 483.221455 325.951639 
L 485.352 325.860681 
L 486.772364 325.54442 
L 489.613091 325.17771 
L 491.033455 325.092682 
L 493.164 325.03144 
L 495.294545 324.659914 
L 496.714909 324.380062 
L 497.425091 323.770604 
L 498.845455 323.776207 
L 499.555636 322.975907 
L 500.976 322.936216 
L 501.686182 323.023865 
L 503.816727 322.510108 
L 504.526909 322.605624 
L 505.237091 322.344696 
L 505.947273 322.386176 
L 506.657455 322.279834 
L 508.077818 321.096194 
L 508.788 321.207039 
L 510.918545 320.497992 
L 518.020364 320.210085 
L 518.730545 319.972784 
L 519.440727 319.964802 
L 520.861091 319.593513 
L 521.571273 318.878212 
L 522.991636 318.751353 
L 523.701818 318.64466 
L 525.122182 318.677445 
L 525.832364 318.546412 
L 526.542545 318.547901 
L 527.252727 318.195593 
L 527.962909 318.151847 
L 529.383273 317.62399 
L 530.093455 317.539012 
L 530.803636 317.307938 
L 531.513818 317.275723 
L 532.224 317.037687 
L 532.934182 316.972907 
L 533.644364 316.564686 
L 534.354545 316.506686 
L 535.064727 316.284241 
L 537.905455 316.154321 
L 539.325818 316.025996 
L 542.166545 315.9342 
L 542.876727 315.696623 
L 543.586909 315.630209 
L 544.297091 315.372164 
L 545.007273 315.298195 
L 545.717455 315.088312 
L 549.978545 315.118504 
L 550.688727 314.414816 
L 551.398909 314.469093 
L 552.819273 314.223864 
L 553.529455 314.172777 
L 554.949818 313.297696 
L 557.790545 313.236492 
L 558.500727 313.160589 
L 559.210909 312.961546 
L 559.921091 312.95054 
L 561.341455 312.604591 
L 562.761818 312.58755 
L 563.472 311.860177 
L 564.182182 311.392372 
L 567.022909 311.509484 
L 567.733091 311.451677 
L 568.443273 311.273775 
L 569.153455 311.25059 
L 569.863636 311.11178 
L 570.573818 310.826249 
L 571.284 310.811813 
L 571.994182 310.588383 
L 572.704364 310.595036 
L 573.414545 310.787453 
L 574.834909 310.557318 
L 576.255273 310.535842 
L 577.675636 310.141952 
L 578.385818 310.059807 
L 579.096 309.483707 
L 579.806182 309.426936 
L 581.226545 308.900554 
L 581.936727 308.900298 
L 582.646909 308.250037 
L 584.067273 308.204298 
L 585.487636 307.978868 
L 587.618182 307.898161 
L 589.748727 307.329338 
L 590.458909 307.155944 
L 591.879273 307.075594 
L 592.589455 306.197079 
L 594.009818 306.198213 
L 594.72 305.992605 
L 598.270909 306.081395 
L 599.691273 305.983244 
L 600.401455 305.506501 
L 601.111636 305.439262 
L 601.821818 304.969241 
L 603.952364 304.553901 
L 604.662545 304.57713 
L 605.372727 304.25416 
L 608.213455 304.208139 
L 608.923636 303.901185 
L 610.344 303.817518 
L 611.054182 303.371564 
L 619.576364 302.873581 
L 620.286545 302.674967 
L 620.996727 302.098601 
L 621.706909 302.01661 
L 622.417091 302.107708 
L 623.127273 301.723196 
L 627.388364 301.517583 
L 628.098545 301.176576 
L 630.939273 300.892486 
L 631.649455 300.174217 
L 633.069818 299.489162 
L 633.78 299.427832 
L 634.490182 299.07865 
L 635.200364 298.599756 
L 635.910545 298.522129 
L 637.330909 298.09395 
L 638.041091 298.0032 
L 638.751273 298.078138 
L 640.171636 297.546588 
L 641.592 297.427476 
L 645.142909 297.429884 
L 646.563273 297.370876 
L 647.273455 297.395787 
L 647.983636 296.243383 
L 650.114182 296.177672 
L 651.534545 296.125818 
L 652.244727 296.163598 
L 652.954909 296.02937 
L 653.665091 295.677841 
L 654.375273 295.471303 
L 656.505818 295.445017 
L 657.216 294.934845 
L 658.636364 294.847832 
L 662.897455 294.668895 
L 663.607636 294.364857 
L 665.028 294.436506 
L 667.868727 294.325152 
L 668.578909 294.34348 
L 669.999273 294.054917 
L 672.84 293.963268 
L 673.550182 293.964726 
L 674.260364 293.678898 
L 674.970545 293.672303 
L 675.680727 293.427733 
L 676.390909 293.061063 
L 678.521455 292.948113 
L 679.231636 292.326752 
L 679.941818 292.204086 
L 680.652 292.222446 
L 682.072364 291.621639 
L 682.782545 291.497657 
L 684.913091 291.439099 
L 685.623273 291.365452 
L 687.043636 291.363428 
L 687.753818 290.800543 
L 689.174182 290.769281 
L 689.884364 290.411949 
L 690.594545 290.33998 
L 693.435273 290.454551 
L 695.565818 290.43477 
L 697.696364 290.38565 
L 698.406545 290.460169 
L 701.247273 290.206415 
L 702.667636 290.13219 
L 704.088 290.137592 
L 704.798182 290.276361 
L 705.508364 290.206891 
L 706.218545 289.844591 
L 708.349091 289.530751 
L 709.059273 289.112556 
L 710.479636 289.109386 
L 711.9 288.808935 
L 714.740727 288.597269 
L 716.161091 288.519409 
L 716.871273 288.633227 
L 717.581455 288.531712 
L 719.001818 288.488627 
L 721.842545 288.445071 
L 722.552727 288.070641 
L 723.973091 288.051837 
L 724.683273 287.755652 
L 725.393455 287.283132 
L 726.103636 287.277606 
L 726.813818 287.04471 
L 728.234182 287.054241 
L 729.654545 286.963554 
L 730.364727 286.947084 
L 731.785091 286.708088 
L 733.205455 286.656535 
L 733.915636 286.552812 
L 734.625818 286.295122 
L 736.756364 286.322695 
L 737.466545 285.671867 
L 738.886909 285.636215 
L 739.597091 285.531642 
L 740.307273 285.581232 
L 741.017455 285.060318 
L 742.437818 285.042856 
L 743.148 284.885235 
L 747.409091 284.783382 
L 748.119273 284.468479 
L 748.829455 284.29043 
L 749.539636 284.333084 
L 750.249818 283.99392 
L 750.96 284.011874 
L 751.670182 283.62146 
L 752.380364 283.444228 
L 754.510909 283.399677 
L 755.221091 283.215079 
L 758.772 283.230731 
L 759.482182 282.903152 
L 762.322909 282.856771 
L 763.033091 282.259984 
L 764.453455 282.122785 
L 768.714545 281.872905 
L 770.845091 281.853082 
L 771.555273 281.783476 
L 772.975636 281.918287 
L 773.685818 281.717707 
L 774.396 281.734559 
L 775.106182 281.513556 
L 775.816364 281.543972 
L 776.526545 281.328931 
L 778.657091 281.350799 
L 779.367273 281.146213 
L 780.787636 281.073889 
L 781.497818 280.64952 
L 782.918182 280.748457 
L 783.628364 280.912256 
L 785.758909 280.879032 
L 786.469091 280.646748 
L 787.889455 280.697821 
L 789.309818 280.444576 
L 790.730182 280.408672 
L 791.440364 280.410201 
L 792.860727 279.947048 
L 793.570909 280.09329 
L 794.281091 279.917425 
L 794.991273 279.594335 
L 797.121818 279.537968 
L 797.832 278.887597 
L 799.962545 278.751088 
L 800.672727 278.321637 
L 801.382909 278.32434 
L 802.093091 278.019222 
L 802.803273 278.068315 
L 803.513455 277.995552 
L 804.933818 278.102604 
L 805.644 277.781106 
L 808.484727 277.791572 
L 809.194909 277.37719 
L 810.615273 277.386345 
L 811.325455 275.962278 
L 812.745818 275.921619 
L 813.456 275.496768 
L 814.166182 275.488421 
L 814.876364 274.822052 
L 815.586545 274.536254 
L 816.296727 274.373368 
L 817.006909 273.951949 
L 823.398545 273.826284 
L 824.108727 273.459701 
L 826.949455 273.430711 
L 827.659636 273.099383 
L 829.08 273.167858 
L 830.500364 272.86108 
L 831.920727 272.854125 
L 832.630909 272.62801 
L 836.892 272.408679 
L 837.602182 272.52765 
L 845.414182 271.883263 
L 846.834545 271.838242 
L 847.544727 271.499272 
L 853.226182 271.584131 
L 855.356727 271.423737 
L 856.777091 270.937875 
L 861.038182 270.81311 
L 861.748364 270.297691 
L 862.458545 270.157542 
L 863.168727 269.735397 
L 863.878909 269.70007 
L 864.589091 269.071039 
L 868.14 269.079355 
L 870.270545 268.383799 
L 871.690909 268.425115 
L 871.690909 268.425115 
" clip-path="url(#ped4e5d6e6b)" style="fill: none; stroke: #2ca02c; stroke-width: 1.5; stroke-linecap: square"/>
   </g>
   <g id="patch_3">
    <path d="M 126 384.48 
L 126 51.84 
" style="fill: none; stroke: #000000; stroke-width: 0.8; stroke-linejoin: miter; stroke-linecap: square"/>
   </g>
   <g id="patch_4">
    <path d="M 907.2 384.48 
L 907.2 51.84 
" style="fill: none; stroke: #000000; stroke-width: 0.8; stroke-linejoin: miter; stroke-linecap: square"/>
   </g>
   <g id="patch_5">
    <path d="M 126 384.48 
L 907.2 384.48 
" style="fill: none; stroke: #000000; stroke-width: 0.8; stroke-linejoin: miter; stroke-linecap: square"/>
   </g>
   <g id="patch_6">
    <path d="M 126 51.84 
L 907.2 51.84 
" style="fill: none; stroke: #000000; stroke-width: 0.8; stroke-linejoin: miter; stroke-linecap: square"/>
   </g>
   <g id="text_15">
    <!-- Quadratic Covariation of $X_t$ and $S_t$ -->
    <g transform="translate(414.54 45.84)scale(0.12 -0.12)">
     <defs>
      <path id="DejaVuSans-66" d="M 2375 4863 
L 2375 4384 
L 1825 4384 
Q 1516 4384 1395 4259 
Q 1275 4134 1275 3809 
L 1275 3500 
L 2222 3500 
L 2222 3053 
L 1275 3053 
L 1275 0 
L 697 0 
L 697 3053 
L 147 3053 
L 147 3500 
L 697 3500 
L 697 3744 
Q 697 4328 969 4595 
Q 1241 4863 1831 4863 
L 2375 4863 
z
" transform="scale(0.015625)"/>
      <path id="DejaVuSans-Oblique-58" d="M 878 4666 
L 1516 4666 
L 2316 2981 
L 3763 4666 
L 4500 4666 
L 2578 2438 
L 3738 0 
L 3103 0 
L 2163 1966 
L 459 0 
L -275 0 
L 1906 2509 
L 878 4666 
z
" transform="scale(0.015625)"/>
      <path id="DejaVuSans-Oblique-74" d="M 2706 3500 
L 2619 3053 
L 1472 3053 
L 1100 1153 
Q 1081 1047 1072 975 
Q 1063 903 1063 863 
Q 1063 663 1183 572 
Q 1303 481 1569 481 
L 2150 481 
L 2053 0 
L 1503 0 
Q 991 0 739 200 
Q 488 400 488 806 
Q 488 878 497 964 
Q 506 1050 525 1153 
L 897 3053 
L 409 3053 
L 500 3500 
L 978 3500 
L 1172 4494 
L 1747 4494 
L 1556 3500 
L 2706 3500 
z
" transform="scale(0.015625)"/>
      <path id="DejaVuSans-Oblique-53" d="M 3859 4513 
L 3738 3897 
Q 3422 4066 3111 4152 
Q 2800 4238 2509 4238 
Q 1944 4238 1609 3991 
Q 1275 3744 1275 3334 
Q 1275 3109 1398 2989 
Q 1522 2869 2034 2731 
L 2413 2638 
Q 3053 2472 3303 2217 
Q 3553 1963 3553 1503 
Q 3553 797 2998 353 
Q 2444 -91 1538 -91 
Q 1166 -91 791 -17 
Q 416 56 38 206 
L 166 856 
Q 513 641 861 531 
Q 1209 422 1556 422 
Q 2147 422 2503 684 
Q 2859 947 2859 1369 
Q 2859 1650 2717 1795 
Q 2575 1941 2106 2059 
L 1728 2156 
Q 1081 2325 845 2545 
Q 609 2766 609 3163 
Q 609 3859 1145 4304 
Q 1681 4750 2541 4750 
Q 2875 4750 3203 4690 
Q 3531 4631 3859 4513 
z
" transform="scale(0.015625)"/>
     </defs>
     <use xlink:href="#DejaVuSans-51" transform="translate(0 0.015625)"/>
     <use xlink:href="#DejaVuSans-75" transform="translate(78.710938 0.015625)"/>
     <use xlink:href="#DejaVuSans-61" transform="translate(142.089844 0.015625)"/>
     <use xlink:href="#DejaVuSans-64" transform="translate(203.369141 0.015625)"/>
     <use xlink:href="#DejaVuSans-72" transform="translate(266.845703 0.015625)"/>
     <use xlink:href="#DejaVuSans-61" transform="translate(307.958984 0.015625)"/>
     <use xlink:href="#DejaVuSans-74" transform="translate(369.238281 0.015625)"/>
     <use xlink:href="#DejaVuSans-69" transform="translate(408.447266 0.015625)"/>
     <use xlink:href="#DejaVuSans-63" transform="translate(436.230469 0.015625)"/>
     <use xlink:href="#DejaVuSans-20" transform="translate(491.210938 0.015625)"/>
     <use xlink:href="#DejaVuSans-43" transform="translate(522.998047 0.015625)"/>
     <use xlink:href="#DejaVuSans-6f" transform="translate(592.822266 0.015625)"/>
     <use xlink:href="#DejaVuSans-76" transform="translate(654.003906 0.015625)"/>
     <use xlink:href="#DejaVuSans-61" transform="translate(713.183594 0.015625)"/>
     <use xlink:href="#DejaVuSans-72" transform="translate(774.462891 0.015625)"/>
     <use xlink:href="#DejaVuSans-69" transform="translate(815.576172 0.015625)"/>
     <use xlink:href="#DejaVuSans-61" transform="translate(843.359375 0.015625)"/>
     <use xlink:href="#DejaVuSans-74" transform="translate(904.638672 0.015625)"/>
     <use xlink:href="#DejaVuSans-69" transform="translate(943.847656 0.015625)"/>
     <use xlink:href="#DejaVuSans-6f" transform="translate(971.630859 0.015625)"/>
     <use xlink:href="#DejaVuSans-6e" transform="translate(1032.8125 0.015625)"/>
     <use xlink:href="#DejaVuSans-20" transform="translate(1096.191406 0.015625)"/>
     <use xlink:href="#DejaVuSans-6f" transform="translate(1127.978516 0.015625)"/>
     <use xlink:href="#DejaVuSans-66" transform="translate(1189.160156 0.015625)"/>
     <use xlink:href="#DejaVuSans-20" transform="translate(1224.365234 0.015625)"/>
     <use xlink:href="#DejaVuSans-Oblique-58" transform="translate(1256.152344 0.015625)"/>
     <use xlink:href="#DejaVuSans-Oblique-74" transform="translate(1324.658203 -16.390625)scale(0.7)"/>
     <use xlink:href="#DejaVuSans-20" transform="translate(1354.838867 0.015625)"/>
     <use xlink:href="#DejaVuSans-61" transform="translate(1386.625977 0.015625)"/>
     <use xlink:href="#DejaVuSans-6e" transform="translate(1447.905273 0.015625)"/>
     <use xlink:href="#DejaVuSans-64" transform="translate(1511.28418 0.015625)"/>
     <use xlink:href="#DejaVuSans-20" transform="translate(1574.760742 0.015625)"/>
     <use xlink:href="#DejaVuSans-Oblique-53" transform="translate(1606.547852 0.015625)"/>
     <use xlink:href="#DejaVuSans-Oblique-74" transform="translate(1670.024414 -16.390625)scale(0.7)"/>
    </g>
   </g>
   <g id="legend_1">
    <g id="patch_7">
     <path d="M 698.1 379.48 
L 900.2 379.48 
Q 902.2 379.48 902.2 377.48 
L 902.2 334.445625 
Q 902.2 332.445625 900.2 332.445625 
L 698.1 332.445625 
Q 696.1 332.445625 696.1 334.445625 
L 696.1 377.48 
Q 696.1 379.48 698.1 379.48 
z
" style="fill: #ffffff; opacity: 0.8; stroke: #cccccc; stroke-linejoin: miter"/>
    </g>
    <g id="line2d_16">
     <path d="M 700.1 340.544062 
L 710.1 340.544062 
L 720.1 340.544062 
" style="fill: none; stroke: #1f77b4; stroke-width: 1.5; stroke-linecap: square"/>
    </g>
    <g id="text_16">
     <!-- $X_t$ -->
     <g transform="translate(728.1 344.044062)scale(0.1 -0.1)">
      <use xlink:href="#DejaVuSans-Oblique-58" transform="translate(0 0.09375)"/>
      <use xlink:href="#DejaVuSans-Oblique-74" transform="translate(68.505859 -16.3125)scale(0.7)"/>
     </g>
    </g>
    <g id="line2d_17">
     <path d="M 700.1 355.222188 
L 710.1 355.222188 
L 720.1 355.222188 
" style="fill: none; stroke: #ff7f0e; stroke-width: 1.5; stroke-linecap: square"/>
    </g>
    <g id="text_17">
     <!-- $S_t$ -->
     <g transform="translate(728.1 358.722188)scale(0.1 -0.1)">
      <use xlink:href="#DejaVuSans-Oblique-53" transform="translate(0 0.78125)"/>
      <use xlink:href="#DejaVuSans-Oblique-74" transform="translate(63.476562 -15.625)scale(0.7)"/>
     </g>
    </g>
    <g id="line2d_18">
     <path d="M 700.1 369.900312 
L 710.1 369.900312 
L 720.1 369.900312 
" style="fill: none; stroke: #2ca02c; stroke-width: 1.5; stroke-linecap: square"/>
    </g>
    <g id="text_18">
     <!-- Quadratic Covariation of $X_t$ and $S_t$ -->
     <g transform="translate(728.1 373.400312)scale(0.1 -0.1)">
      <use xlink:href="#DejaVuSans-51" transform="translate(0 0.015625)"/>
      <use xlink:href="#DejaVuSans-75" transform="translate(78.710938 0.015625)"/>
      <use xlink:href="#DejaVuSans-61" transform="translate(142.089844 0.015625)"/>
      <use xlink:href="#DejaVuSans-64" transform="translate(203.369141 0.015625)"/>
      <use xlink:href="#DejaVuSans-72" transform="translate(266.845703 0.015625)"/>
      <use xlink:href="#DejaVuSans-61" transform="translate(307.958984 0.015625)"/>
      <use xlink:href="#DejaVuSans-74" transform="translate(369.238281 0.015625)"/>
      <use xlink:href="#DejaVuSans-69" transform="translate(408.447266 0.015625)"/>
      <use xlink:href="#DejaVuSans-63" transform="translate(436.230469 0.015625)"/>
      <use xlink:href="#DejaVuSans-20" transform="translate(491.210938 0.015625)"/>
      <use xlink:href="#DejaVuSans-43" transform="translate(522.998047 0.015625)"/>
      <use xlink:href="#DejaVuSans-6f" transform="translate(592.822266 0.015625)"/>
      <use xlink:href="#DejaVuSans-76" transform="translate(654.003906 0.015625)"/>
      <use xlink:href="#DejaVuSans-61" transform="translate(713.183594 0.015625)"/>
      <use xlink:href="#DejaVuSans-72" transform="translate(774.462891 0.015625)"/>
      <use xlink:href="#DejaVuSans-69" transform="translate(815.576172 0.015625)"/>
      <use xlink:href="#DejaVuSans-61" transform="translate(843.359375 0.015625)"/>
      <use xlink:href="#DejaVuSans-74" transform="translate(904.638672 0.015625)"/>
      <use xlink:href="#DejaVuSans-69" transform="translate(943.847656 0.015625)"/>
      <use xlink:href="#DejaVuSans-6f" transform="translate(971.630859 0.015625)"/>
      <use xlink:href="#DejaVuSans-6e" transform="translate(1032.8125 0.015625)"/>
      <use xlink:href="#DejaVuSans-20" transform="translate(1096.191406 0.015625)"/>
      <use xlink:href="#DejaVuSans-6f" transform="translate(1127.978516 0.015625)"/>
      <use xlink:href="#DejaVuSans-66" transform="translate(1189.160156 0.015625)"/>
      <use xlink:href="#DejaVuSans-20" transform="translate(1224.365234 0.015625)"/>
      <use xlink:href="#DejaVuSans-Oblique-58" transform="translate(1256.152344 0.015625)"/>
      <use xlink:href="#DejaVuSans-Oblique-74" transform="translate(1324.658203 -16.390625)scale(0.7)"/>
      <use xlink:href="#DejaVuSans-20" transform="translate(1354.838867 0.015625)"/>
      <use xlink:href="#DejaVuSans-61" transform="translate(1386.625977 0.015625)"/>
      <use xlink:href="#DejaVuSans-6e" transform="translate(1447.905273 0.015625)"/>
      <use xlink:href="#DejaVuSans-64" transform="translate(1511.28418 0.015625)"/>
      <use xlink:href="#DejaVuSans-20" transform="translate(1574.760742 0.015625)"/>
      <use xlink:href="#DejaVuSans-Oblique-53" transform="translate(1606.547852 0.015625)"/>
      <use xlink:href="#DejaVuSans-Oblique-74" transform="translate(1670.024414 -16.390625)scale(0.7)"/>
     </g>
    </g>
   </g>
  </g>
 </g>
 <defs>
  <clipPath id="ped4e5d6e6b">
   <rect x="126" y="51.84" width="781.2" height="332.64"/>
  </clipPath>
 </defs>
</svg>
