<?xml version="1.0" encoding="utf-8" standalone="no"?>
<!DOCTYPE svg PUBLIC "-//W3C//DTD SVG 1.1//EN"
  "http://www.w3.org/Graphics/SVG/1.1/DTD/svg11.dtd">
<svg xmlns:xlink="http://www.w3.org/1999/xlink" width="1008pt" height="432pt" viewBox="0 0 1008 432" xmlns="http://www.w3.org/2000/svg" version="1.1">
 <metadata>
  <rdf:RDF xmlns:dc="http://purl.org/dc/elements/1.1/" xmlns:cc="http://creativecommons.org/ns#" xmlns:rdf="http://www.w3.org/1999/02/22-rdf-syntax-ns#">
   <cc:Work>
    <dc:type rdf:resource="http://purl.org/dc/dcmitype/StillImage"/>
    <dc:date>2023-12-22T17:09:11.604540</dc:date>
    <dc:format>image/svg+xml</dc:format>
    <dc:creator>
     <cc:Agent>
      <dc:title>Matplotlib v3.5.2, https://matplotlib.org/</dc:title>
     </cc:Agent>
    </dc:creator>
   </cc:Work>
  </rdf:RDF>
 </metadata>
 <defs>
  <style type="text/css">*{stroke-linejoin: round; stroke-linecap: butt}</style>
 </defs>
 <g id="figure_1">
  <g id="patch_1">
   <path d="M 0 432 
L 1008 432 
L 1008 0 
L 0 0 
z
" style="fill: #ffffff"/>
  </g>
  <g id="axes_1">
   <g id="patch_2">
    <path d="M 126 384.48 
L 907.2 384.48 
L 907.2 51.84 
L 126 51.84 
z
" style="fill: #ffffff"/>
   </g>
   <g id="matplotlib.axis_1">
    <g id="xtick_1">
     <g id="line2d_1">
      <defs>
       <path id="mcb001d68f4" d="M 0 0 
L 0 3.5 
" style="stroke: #000000; stroke-width: 0.8"/>
      </defs>
      <g>
       <use xlink:href="#mcb001d68f4" x="161.509091" y="384.48" style="stroke: #000000; stroke-width: 0.8"/>
      </g>
     </g>
     <g id="text_1">
      <!-- 0.0 -->
      <g transform="translate(153.557528 399.078438)scale(0.1 -0.1)">
       <defs>
        <path id="DejaVuSans-30" d="M 2034 4250 
Q 1547 4250 1301 3770 
Q 1056 3291 1056 2328 
Q 1056 1369 1301 889 
Q 1547 409 2034 409 
Q 2525 409 2770 889 
Q 3016 1369 3016 2328 
Q 3016 3291 2770 3770 
Q 2525 4250 2034 4250 
z
M 2034 4750 
Q 2819 4750 3233 4129 
Q 3647 3509 3647 2328 
Q 3647 1150 3233 529 
Q 2819 -91 2034 -91 
Q 1250 -91 836 529 
Q 422 1150 422 2328 
Q 422 3509 836 4129 
Q 1250 4750 2034 4750 
z
" transform="scale(0.015625)"/>
        <path id="DejaVuSans-2e" d="M 684 794 
L 1344 794 
L 1344 0 
L 684 0 
L 684 794 
z
" transform="scale(0.015625)"/>
       </defs>
       <use xlink:href="#DejaVuSans-30"/>
       <use xlink:href="#DejaVuSans-2e" x="63.623047"/>
       <use xlink:href="#DejaVuSans-30" x="95.410156"/>
      </g>
     </g>
    </g>
    <g id="xtick_2">
     <g id="line2d_2">
      <g>
       <use xlink:href="#mcb001d68f4" x="303.545455" y="384.48" style="stroke: #000000; stroke-width: 0.8"/>
      </g>
     </g>
     <g id="text_2">
      <!-- 0.2 -->
      <g transform="translate(295.593892 399.078438)scale(0.1 -0.1)">
       <defs>
        <path id="DejaVuSans-32" d="M 1228 531 
L 3431 531 
L 3431 0 
L 469 0 
L 469 531 
Q 828 903 1448 1529 
Q 2069 2156 2228 2338 
Q 2531 2678 2651 2914 
Q 2772 3150 2772 3378 
Q 2772 3750 2511 3984 
Q 2250 4219 1831 4219 
Q 1534 4219 1204 4116 
Q 875 4013 500 3803 
L 500 4441 
Q 881 4594 1212 4672 
Q 1544 4750 1819 4750 
Q 2544 4750 2975 4387 
Q 3406 4025 3406 3419 
Q 3406 3131 3298 2873 
Q 3191 2616 2906 2266 
Q 2828 2175 2409 1742 
Q 1991 1309 1228 531 
z
" transform="scale(0.015625)"/>
       </defs>
       <use xlink:href="#DejaVuSans-30"/>
       <use xlink:href="#DejaVuSans-2e" x="63.623047"/>
       <use xlink:href="#DejaVuSans-32" x="95.410156"/>
      </g>
     </g>
    </g>
    <g id="xtick_3">
     <g id="line2d_3">
      <g>
       <use xlink:href="#mcb001d68f4" x="445.581818" y="384.48" style="stroke: #000000; stroke-width: 0.8"/>
      </g>
     </g>
     <g id="text_3">
      <!-- 0.4 -->
      <g transform="translate(437.630256 399.078438)scale(0.1 -0.1)">
       <defs>
        <path id="DejaVuSans-34" d="M 2419 4116 
L 825 1625 
L 2419 1625 
L 2419 4116 
z
M 2253 4666 
L 3047 4666 
L 3047 1625 
L 3713 1625 
L 3713 1100 
L 3047 1100 
L 3047 0 
L 2419 0 
L 2419 1100 
L 313 1100 
L 313 1709 
L 2253 4666 
z
" transform="scale(0.015625)"/>
       </defs>
       <use xlink:href="#DejaVuSans-30"/>
       <use xlink:href="#DejaVuSans-2e" x="63.623047"/>
       <use xlink:href="#DejaVuSans-34" x="95.410156"/>
      </g>
     </g>
    </g>
    <g id="xtick_4">
     <g id="line2d_4">
      <g>
       <use xlink:href="#mcb001d68f4" x="587.618182" y="384.48" style="stroke: #000000; stroke-width: 0.8"/>
      </g>
     </g>
     <g id="text_4">
      <!-- 0.6 -->
      <g transform="translate(579.666619 399.078438)scale(0.1 -0.1)">
       <defs>
        <path id="DejaVuSans-36" d="M 2113 2584 
Q 1688 2584 1439 2293 
Q 1191 2003 1191 1497 
Q 1191 994 1439 701 
Q 1688 409 2113 409 
Q 2538 409 2786 701 
Q 3034 994 3034 1497 
Q 3034 2003 2786 2293 
Q 2538 2584 2113 2584 
z
M 3366 4563 
L 3366 3988 
Q 3128 4100 2886 4159 
Q 2644 4219 2406 4219 
Q 1781 4219 1451 3797 
Q 1122 3375 1075 2522 
Q 1259 2794 1537 2939 
Q 1816 3084 2150 3084 
Q 2853 3084 3261 2657 
Q 3669 2231 3669 1497 
Q 3669 778 3244 343 
Q 2819 -91 2113 -91 
Q 1303 -91 875 529 
Q 447 1150 447 2328 
Q 447 3434 972 4092 
Q 1497 4750 2381 4750 
Q 2619 4750 2861 4703 
Q 3103 4656 3366 4563 
z
" transform="scale(0.015625)"/>
       </defs>
       <use xlink:href="#DejaVuSans-30"/>
       <use xlink:href="#DejaVuSans-2e" x="63.623047"/>
       <use xlink:href="#DejaVuSans-36" x="95.410156"/>
      </g>
     </g>
    </g>
    <g id="xtick_5">
     <g id="line2d_5">
      <g>
       <use xlink:href="#mcb001d68f4" x="729.654545" y="384.48" style="stroke: #000000; stroke-width: 0.8"/>
      </g>
     </g>
     <g id="text_5">
      <!-- 0.8 -->
      <g transform="translate(721.702983 399.078438)scale(0.1 -0.1)">
       <defs>
        <path id="DejaVuSans-38" d="M 2034 2216 
Q 1584 2216 1326 1975 
Q 1069 1734 1069 1313 
Q 1069 891 1326 650 
Q 1584 409 2034 409 
Q 2484 409 2743 651 
Q 3003 894 3003 1313 
Q 3003 1734 2745 1975 
Q 2488 2216 2034 2216 
z
M 1403 2484 
Q 997 2584 770 2862 
Q 544 3141 544 3541 
Q 544 4100 942 4425 
Q 1341 4750 2034 4750 
Q 2731 4750 3128 4425 
Q 3525 4100 3525 3541 
Q 3525 3141 3298 2862 
Q 3072 2584 2669 2484 
Q 3125 2378 3379 2068 
Q 3634 1759 3634 1313 
Q 3634 634 3220 271 
Q 2806 -91 2034 -91 
Q 1263 -91 848 271 
Q 434 634 434 1313 
Q 434 1759 690 2068 
Q 947 2378 1403 2484 
z
M 1172 3481 
Q 1172 3119 1398 2916 
Q 1625 2713 2034 2713 
Q 2441 2713 2670 2916 
Q 2900 3119 2900 3481 
Q 2900 3844 2670 4047 
Q 2441 4250 2034 4250 
Q 1625 4250 1398 4047 
Q 1172 3844 1172 3481 
z
" transform="scale(0.015625)"/>
       </defs>
       <use xlink:href="#DejaVuSans-30"/>
       <use xlink:href="#DejaVuSans-2e" x="63.623047"/>
       <use xlink:href="#DejaVuSans-38" x="95.410156"/>
      </g>
     </g>
    </g>
    <g id="xtick_6">
     <g id="line2d_6">
      <g>
       <use xlink:href="#mcb001d68f4" x="871.690909" y="384.48" style="stroke: #000000; stroke-width: 0.8"/>
      </g>
     </g>
     <g id="text_6">
      <!-- 1.0 -->
      <g transform="translate(863.739347 399.078438)scale(0.1 -0.1)">
       <defs>
        <path id="DejaVuSans-31" d="M 794 531 
L 1825 531 
L 1825 4091 
L 703 3866 
L 703 4441 
L 1819 4666 
L 2450 4666 
L 2450 531 
L 3481 531 
L 3481 0 
L 794 0 
L 794 531 
z
" transform="scale(0.015625)"/>
       </defs>
       <use xlink:href="#DejaVuSans-31"/>
       <use xlink:href="#DejaVuSans-2e" x="63.623047"/>
       <use xlink:href="#DejaVuSans-30" x="95.410156"/>
      </g>
     </g>
    </g>
    <g id="text_7">
     <!-- Time -->
     <g transform="translate(504.366406 412.756563)scale(0.1 -0.1)">
      <defs>
       <path id="DejaVuSans-54" d="M -19 4666 
L 3928 4666 
L 3928 4134 
L 2272 4134 
L 2272 0 
L 1638 0 
L 1638 4134 
L -19 4134 
L -19 4666 
z
" transform="scale(0.015625)"/>
       <path id="DejaVuSans-69" d="M 603 3500 
L 1178 3500 
L 1178 0 
L 603 0 
L 603 3500 
z
M 603 4863 
L 1178 4863 
L 1178 4134 
L 603 4134 
L 603 4863 
z
" transform="scale(0.015625)"/>
       <path id="DejaVuSans-6d" d="M 3328 2828 
Q 3544 3216 3844 3400 
Q 4144 3584 4550 3584 
Q 5097 3584 5394 3201 
Q 5691 2819 5691 2113 
L 5691 0 
L 5113 0 
L 5113 2094 
Q 5113 2597 4934 2840 
Q 4756 3084 4391 3084 
Q 3944 3084 3684 2787 
Q 3425 2491 3425 1978 
L 3425 0 
L 2847 0 
L 2847 2094 
Q 2847 2600 2669 2842 
Q 2491 3084 2119 3084 
Q 1678 3084 1418 2786 
Q 1159 2488 1159 1978 
L 1159 0 
L 581 0 
L 581 3500 
L 1159 3500 
L 1159 2956 
Q 1356 3278 1631 3431 
Q 1906 3584 2284 3584 
Q 2666 3584 2933 3390 
Q 3200 3197 3328 2828 
z
" transform="scale(0.015625)"/>
       <path id="DejaVuSans-65" d="M 3597 1894 
L 3597 1613 
L 953 1613 
Q 991 1019 1311 708 
Q 1631 397 2203 397 
Q 2534 397 2845 478 
Q 3156 559 3463 722 
L 3463 178 
Q 3153 47 2828 -22 
Q 2503 -91 2169 -91 
Q 1331 -91 842 396 
Q 353 884 353 1716 
Q 353 2575 817 3079 
Q 1281 3584 2069 3584 
Q 2775 3584 3186 3129 
Q 3597 2675 3597 1894 
z
M 3022 2063 
Q 3016 2534 2758 2815 
Q 2500 3097 2075 3097 
Q 1594 3097 1305 2825 
Q 1016 2553 972 2059 
L 3022 2063 
z
" transform="scale(0.015625)"/>
      </defs>
      <use xlink:href="#DejaVuSans-54"/>
      <use xlink:href="#DejaVuSans-69" x="57.958984"/>
      <use xlink:href="#DejaVuSans-6d" x="85.742188"/>
      <use xlink:href="#DejaVuSans-65" x="183.154297"/>
     </g>
    </g>
   </g>
   <g id="matplotlib.axis_2">
    <g id="ytick_1">
     <g id="line2d_7">
      <defs>
       <path id="m9eb81b6aaa" d="M 0 0 
L -3.5 0 
" style="stroke: #000000; stroke-width: 0.8"/>
      </defs>
      <g>
       <use xlink:href="#m9eb81b6aaa" x="126" y="364.535031" style="stroke: #000000; stroke-width: 0.8"/>
      </g>
     </g>
     <g id="text_8">
      <!-- −0.5 -->
      <g transform="translate(94.717187 368.33425)scale(0.1 -0.1)">
       <defs>
        <path id="DejaVuSans-2212" d="M 678 2272 
L 4684 2272 
L 4684 1741 
L 678 1741 
L 678 2272 
z
" transform="scale(0.015625)"/>
        <path id="DejaVuSans-35" d="M 691 4666 
L 3169 4666 
L 3169 4134 
L 1269 4134 
L 1269 2991 
Q 1406 3038 1543 3061 
Q 1681 3084 1819 3084 
Q 2600 3084 3056 2656 
Q 3513 2228 3513 1497 
Q 3513 744 3044 326 
Q 2575 -91 1722 -91 
Q 1428 -91 1123 -41 
Q 819 9 494 109 
L 494 744 
Q 775 591 1075 516 
Q 1375 441 1709 441 
Q 2250 441 2565 725 
Q 2881 1009 2881 1497 
Q 2881 1984 2565 2268 
Q 2250 2553 1709 2553 
Q 1456 2553 1204 2497 
Q 953 2441 691 2322 
L 691 4666 
z
" transform="scale(0.015625)"/>
       </defs>
       <use xlink:href="#DejaVuSans-2212"/>
       <use xlink:href="#DejaVuSans-30" x="83.789062"/>
       <use xlink:href="#DejaVuSans-2e" x="147.412109"/>
       <use xlink:href="#DejaVuSans-35" x="179.199219"/>
      </g>
     </g>
    </g>
    <g id="ytick_2">
     <g id="line2d_8">
      <g>
       <use xlink:href="#m9eb81b6aaa" x="126" y="294.501336" style="stroke: #000000; stroke-width: 0.8"/>
      </g>
     </g>
     <g id="text_9">
      <!-- 0.0 -->
      <g transform="translate(103.096875 298.300555)scale(0.1 -0.1)">
       <use xlink:href="#DejaVuSans-30"/>
       <use xlink:href="#DejaVuSans-2e" x="63.623047"/>
       <use xlink:href="#DejaVuSans-30" x="95.410156"/>
      </g>
     </g>
    </g>
    <g id="ytick_3">
     <g id="line2d_9">
      <g>
       <use xlink:href="#m9eb81b6aaa" x="126" y="224.467641" style="stroke: #000000; stroke-width: 0.8"/>
      </g>
     </g>
     <g id="text_10">
      <!-- 0.5 -->
      <g transform="translate(103.096875 228.26686)scale(0.1 -0.1)">
       <use xlink:href="#DejaVuSans-30"/>
       <use xlink:href="#DejaVuSans-2e" x="63.623047"/>
       <use xlink:href="#DejaVuSans-35" x="95.410156"/>
      </g>
     </g>
    </g>
    <g id="ytick_4">
     <g id="line2d_10">
      <g>
       <use xlink:href="#m9eb81b6aaa" x="126" y="154.433946" style="stroke: #000000; stroke-width: 0.8"/>
      </g>
     </g>
     <g id="text_11">
      <!-- 1.0 -->
      <g transform="translate(103.096875 158.233165)scale(0.1 -0.1)">
       <use xlink:href="#DejaVuSans-31"/>
       <use xlink:href="#DejaVuSans-2e" x="63.623047"/>
       <use xlink:href="#DejaVuSans-30" x="95.410156"/>
      </g>
     </g>
    </g>
    <g id="ytick_5">
     <g id="line2d_11">
      <g>
       <use xlink:href="#m9eb81b6aaa" x="126" y="84.400251" style="stroke: #000000; stroke-width: 0.8"/>
      </g>
     </g>
     <g id="text_12">
      <!-- 1.5 -->
      <g transform="translate(103.096875 88.19947)scale(0.1 -0.1)">
       <use xlink:href="#DejaVuSans-31"/>
       <use xlink:href="#DejaVuSans-2e" x="63.623047"/>
       <use xlink:href="#DejaVuSans-35" x="95.410156"/>
      </g>
     </g>
    </g>
    <g id="text_13">
     <!-- Quadratic Covariation -->
     <g transform="translate(88.6375 272.970156)rotate(-90)scale(0.1 -0.1)">
      <defs>
       <path id="DejaVuSans-51" d="M 2522 4238 
Q 1834 4238 1429 3725 
Q 1025 3213 1025 2328 
Q 1025 1447 1429 934 
Q 1834 422 2522 422 
Q 3209 422 3611 934 
Q 4013 1447 4013 2328 
Q 4013 3213 3611 3725 
Q 3209 4238 2522 4238 
z
M 3406 84 
L 4238 -825 
L 3475 -825 
L 2784 -78 
Q 2681 -84 2626 -87 
Q 2572 -91 2522 -91 
Q 1538 -91 948 567 
Q 359 1225 359 2328 
Q 359 3434 948 4092 
Q 1538 4750 2522 4750 
Q 3503 4750 4090 4092 
Q 4678 3434 4678 2328 
Q 4678 1516 4351 937 
Q 4025 359 3406 84 
z
" transform="scale(0.015625)"/>
       <path id="DejaVuSans-75" d="M 544 1381 
L 544 3500 
L 1119 3500 
L 1119 1403 
Q 1119 906 1312 657 
Q 1506 409 1894 409 
Q 2359 409 2629 706 
Q 2900 1003 2900 1516 
L 2900 3500 
L 3475 3500 
L 3475 0 
L 2900 0 
L 2900 538 
Q 2691 219 2414 64 
Q 2138 -91 1772 -91 
Q 1169 -91 856 284 
Q 544 659 544 1381 
z
M 1991 3584 
L 1991 3584 
z
" transform="scale(0.015625)"/>
       <path id="DejaVuSans-61" d="M 2194 1759 
Q 1497 1759 1228 1600 
Q 959 1441 959 1056 
Q 959 750 1161 570 
Q 1363 391 1709 391 
Q 2188 391 2477 730 
Q 2766 1069 2766 1631 
L 2766 1759 
L 2194 1759 
z
M 3341 1997 
L 3341 0 
L 2766 0 
L 2766 531 
Q 2569 213 2275 61 
Q 1981 -91 1556 -91 
Q 1019 -91 701 211 
Q 384 513 384 1019 
Q 384 1609 779 1909 
Q 1175 2209 1959 2209 
L 2766 2209 
L 2766 2266 
Q 2766 2663 2505 2880 
Q 2244 3097 1772 3097 
Q 1472 3097 1187 3025 
Q 903 2953 641 2809 
L 641 3341 
Q 956 3463 1253 3523 
Q 1550 3584 1831 3584 
Q 2591 3584 2966 3190 
Q 3341 2797 3341 1997 
z
" transform="scale(0.015625)"/>
       <path id="DejaVuSans-64" d="M 2906 2969 
L 2906 4863 
L 3481 4863 
L 3481 0 
L 2906 0 
L 2906 525 
Q 2725 213 2448 61 
Q 2172 -91 1784 -91 
Q 1150 -91 751 415 
Q 353 922 353 1747 
Q 353 2572 751 3078 
Q 1150 3584 1784 3584 
Q 2172 3584 2448 3432 
Q 2725 3281 2906 2969 
z
M 947 1747 
Q 947 1113 1208 752 
Q 1469 391 1925 391 
Q 2381 391 2643 752 
Q 2906 1113 2906 1747 
Q 2906 2381 2643 2742 
Q 2381 3103 1925 3103 
Q 1469 3103 1208 2742 
Q 947 2381 947 1747 
z
" transform="scale(0.015625)"/>
       <path id="DejaVuSans-72" d="M 2631 2963 
Q 2534 3019 2420 3045 
Q 2306 3072 2169 3072 
Q 1681 3072 1420 2755 
Q 1159 2438 1159 1844 
L 1159 0 
L 581 0 
L 581 3500 
L 1159 3500 
L 1159 2956 
Q 1341 3275 1631 3429 
Q 1922 3584 2338 3584 
Q 2397 3584 2469 3576 
Q 2541 3569 2628 3553 
L 2631 2963 
z
" transform="scale(0.015625)"/>
       <path id="DejaVuSans-74" d="M 1172 4494 
L 1172 3500 
L 2356 3500 
L 2356 3053 
L 1172 3053 
L 1172 1153 
Q 1172 725 1289 603 
Q 1406 481 1766 481 
L 2356 481 
L 2356 0 
L 1766 0 
Q 1100 0 847 248 
Q 594 497 594 1153 
L 594 3053 
L 172 3053 
L 172 3500 
L 594 3500 
L 594 4494 
L 1172 4494 
z
" transform="scale(0.015625)"/>
       <path id="DejaVuSans-63" d="M 3122 3366 
L 3122 2828 
Q 2878 2963 2633 3030 
Q 2388 3097 2138 3097 
Q 1578 3097 1268 2742 
Q 959 2388 959 1747 
Q 959 1106 1268 751 
Q 1578 397 2138 397 
Q 2388 397 2633 464 
Q 2878 531 3122 666 
L 3122 134 
Q 2881 22 2623 -34 
Q 2366 -91 2075 -91 
Q 1284 -91 818 406 
Q 353 903 353 1747 
Q 353 2603 823 3093 
Q 1294 3584 2113 3584 
Q 2378 3584 2631 3529 
Q 2884 3475 3122 3366 
z
" transform="scale(0.015625)"/>
       <path id="DejaVuSans-20" transform="scale(0.015625)"/>
       <path id="DejaVuSans-43" d="M 4122 4306 
L 4122 3641 
Q 3803 3938 3442 4084 
Q 3081 4231 2675 4231 
Q 1875 4231 1450 3742 
Q 1025 3253 1025 2328 
Q 1025 1406 1450 917 
Q 1875 428 2675 428 
Q 3081 428 3442 575 
Q 3803 722 4122 1019 
L 4122 359 
Q 3791 134 3420 21 
Q 3050 -91 2638 -91 
Q 1578 -91 968 557 
Q 359 1206 359 2328 
Q 359 3453 968 4101 
Q 1578 4750 2638 4750 
Q 3056 4750 3426 4639 
Q 3797 4528 4122 4306 
z
" transform="scale(0.015625)"/>
       <path id="DejaVuSans-6f" d="M 1959 3097 
Q 1497 3097 1228 2736 
Q 959 2375 959 1747 
Q 959 1119 1226 758 
Q 1494 397 1959 397 
Q 2419 397 2687 759 
Q 2956 1122 2956 1747 
Q 2956 2369 2687 2733 
Q 2419 3097 1959 3097 
z
M 1959 3584 
Q 2709 3584 3137 3096 
Q 3566 2609 3566 1747 
Q 3566 888 3137 398 
Q 2709 -91 1959 -91 
Q 1206 -91 779 398 
Q 353 888 353 1747 
Q 353 2609 779 3096 
Q 1206 3584 1959 3584 
z
" transform="scale(0.015625)"/>
       <path id="DejaVuSans-76" d="M 191 3500 
L 800 3500 
L 1894 563 
L 2988 3500 
L 3597 3500 
L 2284 0 
L 1503 0 
L 191 3500 
z
" transform="scale(0.015625)"/>
       <path id="DejaVuSans-6e" d="M 3513 2113 
L 3513 0 
L 2938 0 
L 2938 2094 
Q 2938 2591 2744 2837 
Q 2550 3084 2163 3084 
Q 1697 3084 1428 2787 
Q 1159 2491 1159 1978 
L 1159 0 
L 581 0 
L 581 3500 
L 1159 3500 
L 1159 2956 
Q 1366 3272 1645 3428 
Q 1925 3584 2291 3584 
Q 2894 3584 3203 3211 
Q 3513 2838 3513 2113 
z
" transform="scale(0.015625)"/>
      </defs>
      <use xlink:href="#DejaVuSans-51"/>
      <use xlink:href="#DejaVuSans-75" x="78.710938"/>
      <use xlink:href="#DejaVuSans-61" x="142.089844"/>
      <use xlink:href="#DejaVuSans-64" x="203.369141"/>
      <use xlink:href="#DejaVuSans-72" x="266.845703"/>
      <use xlink:href="#DejaVuSans-61" x="307.958984"/>
      <use xlink:href="#DejaVuSans-74" x="369.238281"/>
      <use xlink:href="#DejaVuSans-69" x="408.447266"/>
      <use xlink:href="#DejaVuSans-63" x="436.230469"/>
      <use xlink:href="#DejaVuSans-20" x="491.210938"/>
      <use xlink:href="#DejaVuSans-43" x="522.998047"/>
      <use xlink:href="#DejaVuSans-6f" x="592.822266"/>
      <use xlink:href="#DejaVuSans-76" x="654.003906"/>
      <use xlink:href="#DejaVuSans-61" x="713.183594"/>
      <use xlink:href="#DejaVuSans-72" x="774.462891"/>
      <use xlink:href="#DejaVuSans-69" x="815.576172"/>
      <use xlink:href="#DejaVuSans-61" x="843.359375"/>
      <use xlink:href="#DejaVuSans-74" x="904.638672"/>
      <use xlink:href="#DejaVuSans-69" x="943.847656"/>
      <use xlink:href="#DejaVuSans-6f" x="971.630859"/>
      <use xlink:href="#DejaVuSans-6e" x="1032.8125"/>
     </g>
    </g>
   </g>
   <g id="line2d_12">
    <path d="M 161.509091 154.433946 
L 162.219273 152.188665 
L 162.929455 156.301598 
L 163.639636 156.993616 
L 164.349818 154.922243 
L 165.06 155.180131 
L 165.770182 156.293351 
L 166.480364 152.769794 
L 167.190545 155.390708 
L 167.900727 153.124602 
L 168.610909 147.576025 
L 169.321091 144.711601 
L 170.031273 145.513434 
L 170.741455 145.217514 
L 171.451636 144.555404 
L 172.161818 151.142095 
L 172.872 149.444941 
L 173.582182 146.446409 
L 174.292364 144.214492 
L 175.002545 149.353886 
L 175.712727 140.890944 
L 176.422909 145.897149 
L 177.133091 148.34897 
L 177.843273 158.504018 
L 178.553455 164.068394 
L 179.263636 150.027747 
L 179.973818 148.880829 
L 180.684 148.746493 
L 181.394182 149.230009 
L 182.104364 151.27789 
L 182.814545 147.542142 
L 183.524727 151.877196 
L 184.234909 157.620926 
L 184.945091 154.313831 
L 185.655273 156.390154 
L 186.365455 156.803687 
L 187.075636 159.355239 
L 187.785818 157.804868 
L 188.496 150.947896 
L 189.206182 148.349902 
L 189.916364 146.964834 
L 190.626545 146.126952 
L 191.336727 145.736654 
L 192.046909 145.936022 
L 192.757091 144.11612 
L 193.467273 148.493007 
L 194.177455 147.056761 
L 194.887636 140.479137 
L 195.597818 140.008961 
L 196.308 137.545031 
L 197.018182 137.533987 
L 198.438545 143.162942 
L 199.148727 143.262169 
L 199.858909 142.021778 
L 200.569091 139.691609 
L 201.279273 141.376225 
L 201.989455 144.849217 
L 202.699636 150.532375 
L 203.409818 157.516098 
L 204.12 160.723852 
L 204.830182 168.465302 
L 205.540364 171.755833 
L 206.250545 172.598465 
L 206.960727 175.093493 
L 207.670909 180.667177 
L 208.381091 181.317001 
L 209.091273 185.684291 
L 209.801455 176.340825 
L 210.511636 173.6651 
L 211.221818 182.140645 
L 211.932 182.685521 
L 212.642182 178.587451 
L 213.352364 180.373158 
L 214.062545 175.4733 
L 215.482909 180.466159 
L 216.193091 173.93789 
L 216.903273 171.018398 
L 217.613455 170.664231 
L 218.323636 172.962879 
L 219.033818 180.745844 
L 219.744 177.030136 
L 220.454182 176.08665 
L 221.164364 182.151932 
L 222.584727 175.981029 
L 223.294909 173.886696 
L 224.005091 172.540054 
L 224.715273 172.975775 
L 225.425455 172.294787 
L 226.135636 175.829158 
L 226.845818 176.596561 
L 227.556 173.916559 
L 228.266182 174.98911 
L 228.976364 173.839123 
L 229.686545 176.274011 
L 230.396727 179.563779 
L 231.106909 173.590269 
L 231.817091 170.926332 
L 232.527273 175.60664 
L 234.657818 147.951929 
L 235.368 154.263996 
L 236.078182 156.864465 
L 237.498545 148.06634 
L 238.208727 154.204787 
L 238.918909 150.758872 
L 239.629091 148.858167 
L 240.339273 147.562417 
L 241.049455 148.929623 
L 242.469818 157.758937 
L 243.18 152.437339 
L 243.890182 153.917041 
L 244.600364 159.123684 
L 246.020727 152.155986 
L 246.730909 162.00795 
L 247.441091 166.778894 
L 248.151273 168.427104 
L 248.861455 168.180451 
L 249.571636 169.577834 
L 250.281818 176.680081 
L 250.992 173.485352 
L 251.702182 173.981218 
L 252.412364 171.618342 
L 253.122545 172.667781 
L 253.832727 175.38166 
L 254.542909 184.20868 
L 255.253091 184.001072 
L 256.673455 185.705992 
L 257.383636 187.279938 
L 258.093818 180.531444 
L 258.804 181.623268 
L 259.514182 187.673976 
L 260.224364 190.117848 
L 260.934545 189.941626 
L 261.644727 195.194637 
L 262.354909 195.811097 
L 263.065091 195.992647 
L 263.775273 194.7121 
L 264.485455 191.541492 
L 265.905818 201.846865 
L 266.616 198.810248 
L 267.326182 199.997275 
L 268.036364 204.461795 
L 268.746545 200.273777 
L 269.456727 202.868615 
L 270.166909 203.131516 
L 270.877091 199.210422 
L 271.587273 199.480476 
L 272.297455 197.355358 
L 273.007636 199.350738 
L 274.428 188.075165 
L 275.138182 180.113623 
L 275.848364 180.985038 
L 276.558545 183.569071 
L 277.268727 184.497436 
L 277.978909 182.961396 
L 278.689091 175.951542 
L 279.399273 177.796986 
L 280.109455 171.032924 
L 280.819636 169.582979 
L 282.950182 151.921325 
L 283.660364 150.932411 
L 284.370545 151.268107 
L 285.080727 150.929505 
L 285.790909 152.022665 
L 286.501091 147.304351 
L 287.211273 150.991284 
L 287.921455 146.24387 
L 288.631636 143.942153 
L 289.341818 140.048738 
L 290.052 140.803195 
L 290.762182 141.720253 
L 291.472364 145.696771 
L 292.182545 141.497749 
L 292.892727 144.542904 
L 293.602909 137.388369 
L 294.313091 134.265567 
L 295.023273 132.203537 
L 295.733455 141.478486 
L 296.443636 146.181156 
L 297.153818 144.148712 
L 297.864 146.113381 
L 298.574182 150.151239 
L 299.284364 143.233971 
L 300.704727 144.241715 
L 302.125091 138.834825 
L 302.835273 136.72101 
L 303.545455 142.036368 
L 304.255636 144.567649 
L 304.965818 152.186982 
L 305.676 149.158729 
L 306.386182 144.881679 
L 307.096364 149.057603 
L 307.806545 151.529626 
L 308.516727 153.355194 
L 309.226909 151.549179 
L 309.937091 149.145004 
L 310.647273 144.664608 
L 311.357455 149.913102 
L 312.067636 145.414045 
L 312.777818 140.167124 
L 313.488 137.973065 
L 314.198182 140.385785 
L 314.908364 140.524347 
L 315.618545 139.474132 
L 316.328727 141.438807 
L 317.038909 150.912501 
L 317.749091 153.615373 
L 318.459273 150.226108 
L 319.169455 144.981318 
L 319.879636 144.282614 
L 320.589818 136.565764 
L 321.3 134.938674 
L 322.010182 130.906733 
L 322.720364 131.066569 
L 323.430545 130.168376 
L 324.140727 135.050546 
L 324.850909 128.753772 
L 325.561091 131.597908 
L 326.271273 131.535794 
L 326.981455 127.344111 
L 327.691636 130.449457 
L 328.401818 130.390036 
L 329.112 128.655449 
L 329.822182 125.409384 
L 331.242545 134.81355 
L 331.952727 144.479499 
L 332.662909 150.248226 
L 333.373091 153.791818 
L 334.083273 155.947525 
L 334.793455 148.600585 
L 335.503636 153.246718 
L 336.213818 152.178095 
L 336.924 157.303569 
L 337.634182 158.179892 
L 338.344364 160.26117 
L 339.054545 156.995025 
L 339.764727 150.300185 
L 340.474909 151.349484 
L 341.185091 159.440945 
L 341.895273 158.476867 
L 342.605455 155.019783 
L 343.315636 157.974151 
L 344.025818 161.868461 
L 344.736 167.365518 
L 345.446182 169.812572 
L 346.156364 166.378455 
L 346.866545 159.994116 
L 347.576727 158.084537 
L 348.286909 155.206305 
L 348.997091 148.7149 
L 349.707273 154.094604 
L 350.417455 148.482398 
L 351.127636 148.438811 
L 351.837818 153.936649 
L 352.548 154.894208 
L 353.258182 147.087687 
L 353.968364 152.380323 
L 354.678545 147.493757 
L 355.388727 155.010776 
L 356.098909 156.924832 
L 356.809091 154.763249 
L 357.519273 155.775248 
L 358.229455 159.369455 
L 358.939636 158.808601 
L 359.649818 158.939227 
L 360.36 152.764873 
L 361.070182 150.51146 
L 361.780364 149.912837 
L 362.490545 152.493606 
L 363.200727 156.04273 
L 363.910909 157.116138 
L 364.621091 157.89316 
L 365.331273 156.527021 
L 366.041455 159.510146 
L 366.751636 157.198217 
L 368.172 156.123499 
L 368.882182 163.408704 
L 369.592364 156.229483 
L 370.302545 153.844128 
L 371.012727 156.316961 
L 371.722909 157.743914 
L 372.433091 153.642612 
L 373.143273 156.086864 
L 373.853455 148.107714 
L 374.563636 149.039279 
L 375.984 140.037646 
L 376.694182 146.722128 
L 377.404364 145.652219 
L 378.114545 148.957434 
L 378.824727 155.475426 
L 379.534909 150.18981 
L 380.245091 152.983031 
L 380.955273 149.814654 
L 381.665455 148.258377 
L 382.375636 150.541941 
L 383.085818 149.819631 
L 383.796 147.09217 
L 385.216364 138.645176 
L 385.926545 141.660432 
L 386.636727 148.714126 
L 387.346909 144.819767 
L 388.057091 141.792929 
L 388.767273 141.675609 
L 389.477455 141.330607 
L 390.187636 137.152943 
L 390.897818 137.417535 
L 392.318182 132.063255 
L 393.028364 131.045877 
L 393.738545 131.41416 
L 394.448727 136.937788 
L 395.158909 129.838399 
L 395.869091 136.872221 
L 397.289455 154.634017 
L 398.709818 153.056218 
L 399.42 149.58116 
L 400.130182 152.728105 
L 400.840364 142.683031 
L 401.550545 147.83046 
L 402.260727 140.294487 
L 402.970909 142.664644 
L 403.681091 136.966842 
L 404.391273 134.52644 
L 405.101455 133.255815 
L 405.811636 130.956645 
L 406.521818 142.751915 
L 407.232 141.0192 
L 407.942182 145.251324 
L 408.652364 142.605028 
L 409.362545 144.331402 
L 410.072727 140.775619 
L 410.782909 144.412191 
L 411.493091 143.137717 
L 412.203273 139.033382 
L 412.913455 148.425858 
L 413.623636 143.315946 
L 414.333818 141.440445 
L 415.044 136.740095 
L 415.754182 133.267827 
L 416.464364 130.90496 
L 417.174545 138.007801 
L 417.884727 135.652297 
L 418.594909 137.692923 
L 419.305091 142.878385 
L 420.015273 154.405857 
L 420.725455 150.80521 
L 421.435636 150.478541 
L 422.145818 148.468418 
L 422.856 152.674021 
L 423.566182 167.369307 
L 424.276364 168.214099 
L 424.986545 163.86094 
L 425.696727 167.636265 
L 426.406909 168.479915 
L 427.117091 167.735498 
L 427.827273 166.344721 
L 428.537455 169.421692 
L 429.247636 173.660315 
L 429.957818 177.087279 
L 430.668 175.308304 
L 431.378182 172.809553 
L 432.088364 177.082109 
L 432.798545 178.296719 
L 433.508727 180.719911 
L 434.218909 179.146389 
L 434.929091 182.62986 
L 435.639273 179.544483 
L 436.349455 175.568571 
L 437.059636 176.75755 
L 437.769818 177.4587 
L 438.48 172.24254 
L 439.190182 180.552129 
L 439.900364 177.577971 
L 440.610545 178.686723 
L 441.320727 175.909432 
L 442.030909 174.749514 
L 442.741091 167.616827 
L 443.451273 165.237489 
L 444.161455 164.202117 
L 444.871636 169.39629 
L 445.581818 173.750803 
L 446.292 172.715326 
L 447.002182 168.800552 
L 447.712364 165.805232 
L 448.422545 165.548929 
L 449.132727 165.629559 
L 450.553091 172.612076 
L 451.263273 179.456452 
L 451.973455 176.622148 
L 452.683636 174.93707 
L 453.393818 179.165655 
L 454.104 180.205122 
L 454.814182 182.931568 
L 455.524364 179.921358 
L 456.234545 180.876896 
L 456.944727 177.470591 
L 457.654909 170.261116 
L 458.365091 174.772694 
L 459.075273 174.494423 
L 459.785455 176.533021 
L 460.495636 185.154388 
L 461.916 177.364493 
L 462.626182 176.91545 
L 463.336364 176.665694 
L 464.046545 173.961682 
L 464.756727 176.220126 
L 465.466909 174.482374 
L 466.177091 177.75909 
L 467.597455 175.134376 
L 468.307636 180.063949 
L 469.017818 186.049166 
L 470.438182 190.172225 
L 471.858545 207.523798 
L 472.568727 206.877448 
L 473.278909 205.017499 
L 473.989091 208.378593 
L 474.699273 207.162501 
L 475.409455 204.48479 
L 476.119636 210.037268 
L 476.829818 207.504702 
L 477.54 205.877863 
L 478.250182 198.239803 
L 478.960364 186.64059 
L 479.670545 181.458256 
L 480.380727 179.109896 
L 481.090909 179.183409 
L 481.801091 177.183192 
L 482.511273 176.06548 
L 483.221455 174.252116 
L 483.931636 170.229321 
L 484.641818 175.199716 
L 485.352 178.951932 
L 486.062182 178.107898 
L 486.772364 180.928069 
L 487.482545 173.672519 
L 488.192727 172.893567 
L 488.902909 168.781802 
L 489.613091 179.885614 
L 490.323273 188.458381 
L 491.033455 185.392796 
L 491.743636 187.486332 
L 492.453818 186.519872 
L 493.164 186.179682 
L 493.874182 186.469369 
L 494.584364 185.049309 
L 495.294545 186.715602 
L 496.004727 197.854244 
L 496.714909 199.192825 
L 497.425091 203.558212 
L 498.135273 200.14624 
L 498.845455 201.079623 
L 499.555636 207.268432 
L 500.265818 205.151865 
L 501.686182 213.239278 
L 502.396364 216.232045 
L 503.106545 216.494061 
L 503.816727 212.876738 
L 504.526909 215.577242 
L 505.237091 219.293982 
L 505.947273 227.52054 
L 506.657455 223.725238 
L 507.367636 219.092777 
L 508.077818 215.575519 
L 508.788 206.509073 
L 509.498182 207.19286 
L 510.208364 210.990387 
L 510.918545 210.602036 
L 511.628727 205.194032 
L 512.338909 208.770598 
L 513.049091 201.772731 
L 513.759273 192.801776 
L 514.469455 187.795291 
L 515.179636 191.806915 
L 515.889818 200.833167 
L 516.6 203.697534 
L 517.310182 196.504958 
L 518.020364 190.889198 
L 518.730545 196.573689 
L 519.440727 198.590954 
L 520.150909 202.940807 
L 520.861091 211.32049 
L 521.571273 204.642925 
L 522.281455 201.598164 
L 522.991636 203.589341 
L 523.701818 200.780213 
L 524.412 202.370985 
L 525.832364 195.026591 
L 526.542545 190.881282 
L 527.252727 190.053729 
L 527.962909 187.260122 
L 528.673091 180.176789 
L 529.383273 184.101809 
L 530.093455 176.336483 
L 530.803636 179.886837 
L 531.513818 179.637732 
L 532.224 177.206101 
L 534.354545 164.103774 
L 535.064727 154.880011 
L 535.774909 159.163201 
L 536.485091 160.094462 
L 537.195273 163.87904 
L 537.905455 162.73921 
L 538.615636 166.75871 
L 539.325818 163.199936 
L 540.036 166.217823 
L 540.746182 163.008615 
L 541.456364 164.181683 
L 542.166545 166.877786 
L 544.297091 159.238676 
L 545.007273 158.471987 
L 545.717455 157.498462 
L 546.427636 153.377273 
L 547.137818 160.059891 
L 547.848 160.111895 
L 548.558182 157.483664 
L 549.268364 163.945812 
L 549.978545 163.337151 
L 550.688727 161.993645 
L 551.398909 158.702173 
L 552.109091 151.56489 
L 552.819273 159.194042 
L 553.529455 168.585567 
L 554.239636 172.880325 
L 555.66 179.981608 
L 556.370182 177.850319 
L 557.080364 185.658583 
L 557.790545 177.857392 
L 558.500727 173.223331 
L 559.210909 178.712508 
L 559.921091 176.211764 
L 560.631273 169.96097 
L 561.341455 170.209453 
L 562.051636 174.886817 
L 562.761818 174.133678 
L 563.472 181.330748 
L 564.182182 186.664335 
L 564.892364 184.38902 
L 565.602545 176.187744 
L 566.312727 173.067819 
L 567.022909 181.424027 
L 567.733091 186.519887 
L 568.443273 190.524272 
L 569.153455 191.689248 
L 569.863636 190.612634 
L 570.573818 180.752562 
L 571.284 180.865867 
L 571.994182 177.953702 
L 572.704364 180.801427 
L 573.414545 179.907744 
L 574.124727 177.728917 
L 575.545091 168.273413 
L 576.255273 170.750056 
L 576.965455 165.677457 
L 577.675636 168.019968 
L 578.385818 165.057971 
L 579.096 167.576372 
L 579.806182 164.742983 
L 580.516364 158.854436 
L 581.226545 156.387693 
L 581.936727 158.876917 
L 582.646909 157.77303 
L 583.357091 151.3394 
L 584.067273 154.548331 
L 584.777455 149.610736 
L 585.487636 153.446558 
L 586.197818 154.093538 
L 586.908 157.859242 
L 587.618182 158.783587 
L 588.328364 160.888624 
L 589.038545 165.801202 
L 589.748727 167.8694 
L 590.458909 167.47469 
L 591.169091 170.310125 
L 591.879273 170.530618 
L 592.589455 170.601348 
L 593.299636 174.539762 
L 594.009818 169.91424 
L 594.72 167.036995 
L 595.430182 166.33332 
L 596.140364 165.327786 
L 596.850545 167.566961 
L 597.560727 164.919684 
L 598.270909 166.411115 
L 598.981091 172.303701 
L 599.691273 175.096608 
L 600.401455 164.658089 
L 601.111636 166.56357 
L 601.821818 171.058859 
L 602.532 172.073158 
L 603.242182 168.250804 
L 603.952364 166.92981 
L 604.662545 166.840724 
L 605.372727 159.547216 
L 606.082909 158.253395 
L 606.793091 150.535611 
L 607.503273 145.416401 
L 608.213455 148.438641 
L 608.923636 148.356148 
L 609.633818 157.741329 
L 610.344 153.401641 
L 611.054182 152.290464 
L 611.764364 150.960425 
L 612.474545 158.701366 
L 613.184727 158.571597 
L 613.894909 157.297923 
L 614.605091 155.531068 
L 615.315273 149.879212 
L 616.025455 148.094272 
L 616.735636 154.819052 
L 617.445818 156.942584 
L 618.156 158.55297 
L 618.866182 163.281172 
L 619.576364 162.791645 
L 620.286545 155.565175 
L 620.996727 154.087791 
L 621.706909 155.498589 
L 622.417091 152.748212 
L 623.127273 151.268552 
L 623.837455 153.105667 
L 624.547636 155.471407 
L 625.257818 156.18881 
L 625.968 152.519729 
L 626.678182 147.471226 
L 627.388364 147.502934 
L 628.098545 146.369729 
L 628.808727 145.734108 
L 629.518909 149.814851 
L 630.229091 154.839772 
L 630.939273 156.764729 
L 631.649455 164.753852 
L 632.359636 166.749323 
L 633.069818 170.507221 
L 633.78 168.678814 
L 634.490182 170.916353 
L 635.200364 174.124427 
L 635.910545 175.472279 
L 636.620727 177.309156 
L 637.330909 173.902671 
L 638.041091 172.429282 
L 638.751273 164.434368 
L 640.171636 156.141884 
L 640.881818 158.697744 
L 641.592 151.636325 
L 642.302182 142.879803 
L 643.012364 141.510724 
L 643.722545 137.08102 
L 644.432727 141.114683 
L 645.142909 146.941254 
L 645.853091 146.626485 
L 646.563273 148.69787 
L 647.273455 154.364613 
L 647.983636 147.754597 
L 648.693818 145.072357 
L 649.404 147.179431 
L 650.114182 150.281139 
L 650.824364 151.918886 
L 651.534545 151.669905 
L 652.244727 146.376322 
L 652.954909 139.324885 
L 653.665091 135.979719 
L 654.375273 139.387024 
L 655.085455 134.95043 
L 655.795636 133.156058 
L 656.505818 128.173009 
L 657.216 118.663751 
L 658.636364 119.106122 
L 659.346545 117.019987 
L 660.056727 118.118951 
L 660.766909 123.925199 
L 661.477091 123.483206 
L 662.187273 126.449933 
L 662.897455 126.730771 
L 663.607636 128.525222 
L 665.028 125.875945 
L 665.738182 119.19141 
L 666.448364 120.524311 
L 667.158545 133.141142 
L 667.868727 130.575453 
L 668.578909 140.33964 
L 669.289091 141.684959 
L 669.999273 146.611851 
L 670.709455 150.019087 
L 671.419636 149.278695 
L 672.129818 154.91122 
L 672.84 150.496424 
L 673.550182 144.570963 
L 674.260364 142.211773 
L 674.970545 137.371457 
L 675.680727 140.450996 
L 676.390909 141.205156 
L 677.101091 141.516321 
L 677.811273 145.235981 
L 678.521455 143.269764 
L 679.231636 147.178018 
L 679.941818 146.516418 
L 680.652 147.163402 
L 681.362182 146.906557 
L 682.782545 141.463932 
L 683.492727 145.472876 
L 684.202909 140.209169 
L 684.913091 147.554365 
L 685.623273 147.302921 
L 686.333455 142.511198 
L 687.043636 139.837383 
L 687.753818 149.738235 
L 688.464 145.0166 
L 689.174182 154.586836 
L 689.884364 145.679198 
L 690.594545 150.334429 
L 692.014909 163.054903 
L 692.725091 160.01738 
L 693.435273 160.570307 
L 694.145455 162.232061 
L 694.855636 169.408476 
L 695.565818 161.864784 
L 696.276 161.081224 
L 696.986182 159.698532 
L 697.696364 159.531041 
L 698.406545 165.29841 
L 699.116727 158.398089 
L 699.826909 157.355528 
L 700.537091 151.833241 
L 701.247273 155.80483 
L 701.957455 146.715426 
L 703.377818 156.83771 
L 704.088 159.102401 
L 704.798182 158.67405 
L 705.508364 166.676241 
L 706.218545 166.99847 
L 706.928727 170.11657 
L 707.638909 170.734805 
L 708.349091 176.559313 
L 709.059273 172.178347 
L 709.769455 169.211927 
L 710.479636 167.962101 
L 711.189818 162.008976 
L 711.9 158.882233 
L 712.610182 158.048028 
L 713.320364 162.526304 
L 714.030545 159.809696 
L 714.740727 160.934012 
L 715.450909 166.385718 
L 716.161091 157.446225 
L 716.871273 161.095613 
L 717.581455 176.091299 
L 718.291636 173.341157 
L 719.001818 171.622851 
L 719.712 166.920602 
L 720.422182 165.132682 
L 721.132364 164.961457 
L 721.842545 166.792699 
L 722.552727 176.941824 
L 723.262909 181.508598 
L 723.973091 178.779817 
L 724.683273 184.169457 
L 725.393455 185.285996 
L 726.103636 172.49236 
L 726.813818 169.793158 
L 727.524 165.44538 
L 728.234182 168.287916 
L 729.654545 156.313888 
L 730.364727 154.163942 
L 731.074909 149.920531 
L 731.785091 147.391841 
L 732.495273 154.829833 
L 733.205455 157.462742 
L 733.915636 157.000151 
L 734.625818 153.296836 
L 736.046182 158.774971 
L 736.756364 166.845608 
L 737.466545 169.424608 
L 738.176727 170.911753 
L 738.886909 178.40108 
L 739.597091 176.188782 
L 740.307273 176.667035 
L 741.017455 178.035011 
L 741.727636 169.663465 
L 742.437818 171.441737 
L 743.148 172.453107 
L 743.858182 166.879843 
L 744.568364 163.978829 
L 745.278545 166.291655 
L 745.988727 170.339558 
L 746.698909 169.525124 
L 747.409091 167.129152 
L 748.119273 160.972455 
L 748.829455 163.147374 
L 749.539636 161.912293 
L 750.249818 158.078129 
L 750.96 155.652236 
L 751.670182 148.223136 
L 752.380364 151.866101 
L 753.090545 148.738702 
L 753.800727 150.227974 
L 754.510909 148.602018 
L 755.221091 144.426313 
L 755.931273 146.200778 
L 756.641455 144.229742 
L 757.351636 146.211424 
L 758.061818 156.76627 
L 758.772 158.240543 
L 759.482182 158.986502 
L 760.192364 162.892218 
L 760.902545 174.731742 
L 761.612727 168.276087 
L 762.322909 169.738891 
L 763.033091 173.107506 
L 763.743273 172.902398 
L 764.453455 179.894723 
L 765.163636 176.905305 
L 765.873818 180.320544 
L 766.584 177.368984 
L 767.294182 181.200193 
L 768.004364 181.247995 
L 768.714545 186.615115 
L 769.424727 190.783922 
L 770.134909 190.905792 
L 770.845091 195.020872 
L 771.555273 195.375522 
L 772.265455 202.302629 
L 772.975636 201.956582 
L 775.106182 209.252583 
L 775.816364 208.761005 
L 776.526545 216.39884 
L 777.236727 214.40881 
L 777.946909 209.579241 
L 778.657091 212.534437 
L 779.367273 207.43758 
L 780.077455 216.206042 
L 780.787636 213.704071 
L 781.497818 217.764101 
L 782.208 216.106396 
L 782.918182 220.187596 
L 783.628364 219.511188 
L 784.338545 222.723199 
L 785.048727 226.81325 
L 785.758909 228.441963 
L 787.179273 224.931904 
L 787.889455 225.78175 
L 788.599636 217.936054 
L 789.309818 212.681173 
L 790.02 211.256511 
L 790.730182 217.344002 
L 791.440364 208.427293 
L 792.150545 208.723203 
L 792.860727 207.118979 
L 793.570909 206.633585 
L 794.281091 208.850624 
L 794.991273 207.240759 
L 795.701455 209.753654 
L 796.411636 209.550433 
L 797.121818 203.893076 
L 797.832 207.028281 
L 798.542182 215.334109 
L 799.252364 214.395886 
L 799.962545 212.7041 
L 800.672727 214.40328 
L 801.382909 212.303073 
L 802.093091 210.550636 
L 802.803273 205.402005 
L 803.513455 206.853068 
L 804.223636 209.966554 
L 804.933818 201.953972 
L 805.644 208.440407 
L 806.354182 207.658137 
L 807.064364 215.321896 
L 807.774545 228.406353 
L 808.484727 226.296312 
L 809.194909 233.506571 
L 809.905091 227.988125 
L 810.615273 228.764991 
L 812.035636 238.342985 
L 812.745818 244.880988 
L 813.456 248.704395 
L 814.166182 246.941828 
L 814.876364 251.125434 
L 815.586545 247.246075 
L 816.296727 247.378652 
L 817.006909 250.02658 
L 817.717091 248.500769 
L 818.427273 246.411574 
L 819.137455 253.217282 
L 819.847636 255.453573 
L 820.557818 262.169244 
L 821.268 263.728177 
L 821.978182 265.684254 
L 822.688364 270.02774 
L 823.398545 272.796349 
L 824.108727 273.455036 
L 824.818909 279.596902 
L 825.529091 278.803131 
L 826.239273 274.212366 
L 826.949455 275.482979 
L 827.659636 274.662378 
L 828.369818 276.402982 
L 829.08 276.78141 
L 829.790182 271.401004 
L 831.210545 265.792019 
L 831.920727 266.353858 
L 832.630909 269.549244 
L 833.341091 269.239537 
L 834.051273 260.769533 
L 834.761455 261.911672 
L 835.471636 257.696742 
L 836.181818 258.946369 
L 836.892 261.997255 
L 837.602182 261.332008 
L 838.312364 259.359083 
L 839.022545 246.836791 
L 840.442909 235.978538 
L 841.153091 226.584932 
L 841.863273 231.810606 
L 842.573455 231.558781 
L 843.283636 225.022552 
L 843.993818 232.36192 
L 844.704 236.262377 
L 845.414182 239.541086 
L 846.124364 244.812259 
L 846.834545 247.377831 
L 847.544727 247.77957 
L 848.254909 242.827128 
L 848.965091 241.363002 
L 849.675273 236.390856 
L 850.385455 230.060762 
L 851.095636 230.979096 
L 851.805818 237.15991 
L 852.516 239.170965 
L 853.226182 234.933354 
L 853.936364 233.530344 
L 854.646545 232.460351 
L 855.356727 235.627199 
L 856.066909 226.948457 
L 856.777091 227.358627 
L 857.487273 222.421392 
L 858.197455 224.989486 
L 858.907636 226.394149 
L 859.617818 230.251251 
L 860.328 236.766241 
L 861.038182 239.609665 
L 861.748364 230.831405 
L 862.458545 224.957629 
L 863.168727 225.622449 
L 863.878909 220.314132 
L 864.589091 225.17062 
L 865.299273 223.343551 
L 866.009455 226.523854 
L 867.429818 242.736397 
L 868.14 236.409407 
L 869.560364 231.737492 
L 870.270545 232.958861 
L 870.980727 231.866338 
L 871.690909 235.235945 
L 871.690909 235.235945 
" clip-path="url(#p9584a0244b)" style="fill: none; stroke: #1f77b4; stroke-width: 1.5; stroke-linecap: square"/>
   </g>
   <g id="line2d_13">
    <path d="M 161.509091 154.433946 
L 162.219273 151.389573 
L 162.929455 154.591883 
L 163.639636 164.648914 
L 164.349818 160.972258 
L 165.06 163.141347 
L 165.770182 164.738313 
L 166.480364 159.667523 
L 167.190545 166.282459 
L 169.321091 155.013884 
L 170.031273 152.279428 
L 170.741455 155.744102 
L 171.451636 146.76506 
L 172.161818 160.274604 
L 172.872 158.306096 
L 173.582182 159.67327 
L 174.292364 161.877291 
L 175.002545 169.022217 
L 175.712727 155.51696 
L 176.422909 163.008759 
L 177.133091 154.412855 
L 177.843273 165.24965 
L 178.553455 183.424725 
L 179.263636 167.613631 
L 179.973818 158.774882 
L 180.684 163.121856 
L 181.394182 159.11365 
L 182.104364 168.310158 
L 182.814545 163.246529 
L 183.524727 174.804037 
L 184.234909 173.859436 
L 184.945091 169.396627 
L 185.655273 168.235326 
L 186.365455 170.611372 
L 187.785818 162.466016 
L 188.496 155.079068 
L 189.206182 150.546897 
L 189.916364 151.628933 
L 190.626545 163.164374 
L 191.336727 158.682571 
L 192.046909 156.08482 
L 192.757091 159.239814 
L 193.467273 170.709644 
L 194.177455 166.484301 
L 194.887636 166.137815 
L 195.597818 160.117364 
L 196.308 148.793461 
L 197.018182 148.435729 
L 197.728364 144.19176 
L 198.438545 148.437381 
L 199.858909 142.944668 
L 200.569091 131.397137 
L 201.279273 132.534931 
L 201.989455 137.210187 
L 202.699636 138.977297 
L 203.409818 148.5838 
L 204.12 154.47819 
L 204.830182 162.695259 
L 205.540364 153.548273 
L 206.250545 153.854976 
L 207.670909 165.123031 
L 208.381091 154.675843 
L 209.091273 158.007259 
L 209.801455 145.985345 
L 210.511636 140.168255 
L 211.221818 151.866076 
L 211.932 151.790559 
L 212.642182 150.406465 
L 213.352364 149.986654 
L 214.062545 146.023987 
L 214.772727 144.26076 
L 216.193091 135.135218 
L 216.903273 129.123766 
L 217.613455 131.276454 
L 218.323636 124.545442 
L 219.033818 133.074942 
L 219.744 136.330273 
L 220.454182 132.979971 
L 221.164364 131.06294 
L 221.874545 134.376396 
L 222.584727 139.734535 
L 223.294909 131.588077 
L 224.005091 130.656647 
L 224.715273 140.065301 
L 225.425455 135.964785 
L 226.135636 143.775273 
L 226.845818 144.181863 
L 227.556 144.244561 
L 228.266182 140.610595 
L 228.976364 141.644265 
L 229.686545 144.881124 
L 230.396727 140.64412 
L 231.106909 137.486651 
L 231.817091 141.05701 
L 232.527273 147.769496 
L 233.237455 136.18267 
L 233.947636 129.225948 
L 234.657818 120.796614 
L 235.368 123.97309 
L 236.078182 116.226344 
L 236.788364 111.735089 
L 237.498545 112.743803 
L 238.208727 117.44551 
L 238.918909 113.750905 
L 239.629091 111.555618 
L 240.339273 117.238046 
L 241.759636 121.801129 
L 242.469818 127.996885 
L 243.18 121.26253 
L 243.890182 124.135289 
L 244.600364 128.870462 
L 245.310545 131.714264 
L 246.020727 124.415577 
L 246.730909 127.256861 
L 247.441091 134.566959 
L 248.151273 138.340965 
L 248.861455 140.510509 
L 249.571636 134.889722 
L 250.992 146.158918 
L 251.702182 135.563176 
L 252.412364 134.536093 
L 253.122545 136.112967 
L 253.832727 138.10168 
L 254.542909 143.370476 
L 255.253091 147.554286 
L 255.963273 153.710398 
L 256.673455 152.330892 
L 257.383636 152.293 
L 258.093818 146.188984 
L 258.804 143.267467 
L 259.514182 150.761342 
L 260.224364 155.918581 
L 260.934545 157.334756 
L 261.644727 165.5206 
L 262.354909 166.651225 
L 263.065091 166.589805 
L 263.775273 165.873956 
L 264.485455 157.605535 
L 265.195636 167.231417 
L 265.905818 170.893301 
L 266.616 168.144645 
L 267.326182 179.951933 
L 268.036364 182.2338 
L 269.456727 175.05251 
L 270.166909 174.206488 
L 270.877091 169.398868 
L 271.587273 171.453455 
L 272.297455 171.057054 
L 273.717818 172.828361 
L 274.428 162.658172 
L 275.138182 155.857368 
L 275.848364 156.702848 
L 276.558545 160.643867 
L 277.268727 158.360478 
L 277.978909 173.955367 
L 278.689091 159.205331 
L 279.399273 164.721554 
L 280.109455 159.957728 
L 280.819636 159.468736 
L 281.529818 153.409703 
L 282.24 150.852869 
L 282.950182 146.518153 
L 283.660364 154.82805 
L 284.370545 151.16389 
L 285.080727 149.127616 
L 285.790909 146.252161 
L 286.501091 139.70903 
L 287.211273 136.610925 
L 287.921455 129.750388 
L 288.631636 125.628896 
L 289.341818 118.715305 
L 290.052 115.023686 
L 290.762182 119.356351 
L 291.472364 124.387802 
L 292.182545 114.865409 
L 292.892727 117.473089 
L 293.602909 114.904295 
L 295.023273 105.408125 
L 295.733455 110.871216 
L 296.443636 114.908921 
L 297.864 108.314576 
L 298.574182 116.883434 
L 299.284364 104.017113 
L 299.994545 110.194468 
L 300.704727 111.160224 
L 301.414909 113.606713 
L 302.125091 104.139818 
L 302.835273 105.434862 
L 303.545455 113.416608 
L 304.255636 110.535387 
L 304.965818 118.019544 
L 305.676 115.169594 
L 306.386182 110.704666 
L 307.096364 117.396373 
L 309.226909 122.650235 
L 309.937091 118.898066 
L 310.647273 114.407929 
L 311.357455 117.395156 
L 312.067636 114.228039 
L 312.777818 109.059053 
L 313.488 107.387131 
L 314.908364 98.476214 
L 315.618545 89.083694 
L 316.328727 90.179041 
L 317.038909 102.638049 
L 317.749091 112.940815 
L 318.459273 107.488833 
L 319.169455 95.482473 
L 319.879636 95.75272 
L 320.589818 89.43211 
L 321.3 89.159141 
L 322.010182 88.149943 
L 322.720364 96.523406 
L 323.430545 93.372322 
L 324.140727 98.695026 
L 324.850909 87.034505 
L 325.561091 84.195361 
L 326.271273 86.733636 
L 326.981455 89.949803 
L 327.691636 99.714887 
L 329.112 93.700391 
L 329.822182 89.833722 
L 330.532364 97.067203 
L 331.242545 100.219655 
L 331.952727 112.1802 
L 332.662909 113.589635 
L 333.373091 112.710031 
L 334.083273 113.534209 
L 334.793455 107.612496 
L 335.503636 114.348716 
L 336.213818 107.250887 
L 336.924 102.198265 
L 337.634182 109.349678 
L 338.344364 114.708246 
L 339.054545 107.334858 
L 339.764727 106.324516 
L 340.474909 107.733573 
L 341.185091 106.195349 
L 341.895273 109.683194 
L 342.605455 103.32828 
L 343.315636 110.485963 
L 344.025818 111.808709 
L 344.736 111.698917 
L 345.446182 108.273613 
L 346.866545 94.97257 
L 347.576727 83.847614 
L 348.286909 84.487392 
L 348.997091 83.989033 
L 349.707273 85.905624 
L 350.417455 81.774955 
L 351.127636 72.449188 
L 351.837818 83.854257 
L 352.548 91.093684 
L 353.258182 88.629452 
L 353.968364 89.52832 
L 354.678545 76.243608 
L 355.388727 85.515764 
L 356.098909 87.564125 
L 356.809091 88.921567 
L 357.519273 89.473002 
L 358.229455 86.098475 
L 358.939636 78.910397 
L 359.649818 74.706864 
L 360.36 66.96 
L 361.070182 73.545604 
L 361.780364 77.682862 
L 362.490545 81.020974 
L 363.200727 81.111458 
L 363.910909 84.720499 
L 364.621091 80.447275 
L 365.331273 79.328729 
L 366.041455 79.814872 
L 366.751636 80.088482 
L 368.172 86.153804 
L 368.882182 93.890907 
L 369.592364 90.63502 
L 370.302545 89.15638 
L 371.012727 92.244098 
L 371.722909 101.180861 
L 372.433091 99.637894 
L 373.143273 105.833139 
L 373.853455 89.633815 
L 374.563636 92.263324 
L 375.984 85.14176 
L 376.694182 95.900443 
L 377.404364 90.268796 
L 378.114545 94.202821 
L 378.824727 100.745838 
L 379.534909 98.591466 
L 380.245091 98.62874 
L 380.955273 98.029428 
L 381.665455 98.522121 
L 383.085818 94.982381 
L 383.796 91.68652 
L 384.506182 82.882144 
L 385.216364 86.711501 
L 385.926545 89.195858 
L 386.636727 95.230241 
L 387.346909 89.73976 
L 388.057091 90.81882 
L 389.477455 97.213577 
L 390.187636 95.638961 
L 390.897818 95.569306 
L 391.608 87.485585 
L 392.318182 87.449287 
L 393.028364 92.187693 
L 393.738545 95.58157 
L 394.448727 109.339895 
L 395.158909 109.085855 
L 395.869091 117.117072 
L 396.579273 127.672221 
L 397.289455 145.126068 
L 397.999636 141.527022 
L 398.709818 139.703536 
L 399.42 138.374814 
L 400.130182 138.464645 
L 400.840364 130.597 
L 401.550545 131.810448 
L 402.260727 125.905916 
L 402.970909 123.546948 
L 403.681091 115.426872 
L 404.391273 112.774755 
L 405.101455 110.999443 
L 405.811636 111.888259 
L 406.521818 128.417909 
L 407.232 129.692433 
L 407.942182 130.111195 
L 409.362545 131.539129 
L 410.072727 128.863438 
L 410.782909 129.684232 
L 411.493091 128.550717 
L 412.203273 126.432021 
L 412.913455 135.104878 
L 413.623636 126.563229 
L 414.333818 126.10004 
L 415.044 118.934676 
L 415.754182 115.16634 
L 416.464364 117.581178 
L 417.174545 124.246851 
L 417.884727 122.680943 
L 418.594909 117.997479 
L 419.305091 120.415192 
L 420.015273 124.688067 
L 420.725455 127.184802 
L 421.435636 126.989092 
L 422.145818 121.616127 
L 422.856 124.835393 
L 423.566182 137.183283 
L 424.276364 136.605727 
L 424.986545 134.914117 
L 425.696727 140.065223 
L 426.406909 134.917818 
L 427.117091 126.005747 
L 427.827273 126.378454 
L 428.537455 126.130877 
L 429.247636 131.757969 
L 429.957818 131.246883 
L 430.668 139.586354 
L 431.378182 132.941573 
L 432.088364 133.149595 
L 432.798545 142.570458 
L 433.508727 143.656609 
L 434.218909 142.419978 
L 434.929091 145.144356 
L 435.639273 146.324162 
L 436.349455 147.856033 
L 437.059636 134.917799 
L 437.769818 140.131745 
L 438.48 134.040191 
L 439.190182 140.366793 
L 439.900364 139.37928 
L 440.610545 139.882722 
L 441.320727 138.749021 
L 442.030909 139.190552 
L 442.741091 134.360116 
L 443.451273 131.839606 
L 444.161455 128.672259 
L 444.871636 134.690533 
L 445.581818 133.796537 
L 447.002182 128.386279 
L 447.712364 117.82744 
L 448.422545 118.597003 
L 449.842909 131.202014 
L 450.553091 133.558751 
L 451.263273 137.438537 
L 451.973455 143.105364 
L 452.683636 138.758758 
L 453.393818 152.383287 
L 454.104 155.571665 
L 454.814182 159.736232 
L 455.524364 159.328346 
L 456.234545 158.112876 
L 456.944727 149.400748 
L 457.654909 143.433064 
L 458.365091 149.013707 
L 459.075273 149.653068 
L 459.785455 151.454994 
L 460.495636 163.111547 
L 461.205818 166.737833 
L 461.916 162.005341 
L 462.626182 163.401454 
L 463.336364 169.323691 
L 464.046545 166.715036 
L 464.756727 173.109606 
L 465.466909 170.928523 
L 466.177091 167.553289 
L 466.887273 162.650603 
L 467.597455 151.891575 
L 468.307636 158.525634 
L 469.017818 163.131289 
L 469.728 171.242081 
L 470.438182 173.857928 
L 471.148364 174.911777 
L 471.858545 183.738937 
L 472.568727 189.892918 
L 473.278909 187.308063 
L 473.989091 179.161194 
L 474.699273 186.368345 
L 475.409455 180.990704 
L 476.119636 182.910089 
L 476.829818 180.021395 
L 477.54 174.550795 
L 478.250182 165.537906 
L 478.960364 154.172917 
L 479.670545 151.518425 
L 480.380727 148.238296 
L 481.090909 147.19324 
L 481.801091 142.250812 
L 482.511273 139.834037 
L 484.641818 153.761178 
L 486.062182 155.004663 
L 486.772364 156.911906 
L 487.482545 151.017258 
L 488.192727 155.344962 
L 488.902909 157.097326 
L 489.613091 156.980729 
L 490.323273 161.556354 
L 491.033455 161.09264 
L 491.743636 161.449755 
L 492.453818 152.112978 
L 493.164 150.565232 
L 493.874182 151.828978 
L 494.584364 151.888554 
L 496.004727 176.967717 
L 496.714909 179.205076 
L 497.425091 182.993604 
L 498.135273 178.377005 
L 498.845455 180.180975 
L 499.555636 184.638107 
L 500.265818 180.989889 
L 500.976 190.445864 
L 501.686182 192.084605 
L 502.396364 193.124629 
L 503.106545 189.347883 
L 503.816727 184.830172 
L 504.526909 186.672379 
L 505.237091 184.396356 
L 505.947273 189.288314 
L 506.657455 179.576042 
L 507.367636 175.049792 
L 508.077818 167.358774 
L 508.788 154.833406 
L 509.498182 157.741623 
L 510.208364 154.576314 
L 510.918545 159.38936 
L 511.628727 152.071741 
L 512.338909 154.546977 
L 513.049091 144.062167 
L 514.469455 137.613093 
L 515.889818 152.151834 
L 516.6 150.345167 
L 517.310182 133.420568 
L 518.020364 126.471066 
L 518.730545 140.822342 
L 520.150909 162.822625 
L 520.861091 168.879653 
L 521.571273 165.784188 
L 522.991636 164.143379 
L 523.701818 159.7859 
L 524.412 161.017187 
L 525.122182 154.670462 
L 525.832364 142.675388 
L 526.542545 142.418938 
L 527.252727 143.772141 
L 527.962909 133.018698 
L 528.673091 118.440869 
L 529.383273 121.60132 
L 530.093455 110.644449 
L 530.803636 111.991057 
L 531.513818 117.859606 
L 532.224 113.601581 
L 532.934182 106.654248 
L 533.644364 102.290841 
L 534.354545 104.315437 
L 535.064727 93.200734 
L 535.774909 98.360957 
L 536.485091 102.316577 
L 537.195273 109.046543 
L 537.905455 118.559266 
L 538.615636 124.425894 
L 539.325818 127.010419 
L 540.036 119.203037 
L 540.746182 122.532076 
L 541.456364 118.261876 
L 542.166545 117.671823 
L 542.876727 112.742716 
L 543.586909 116.024264 
L 544.297091 115.032247 
L 545.007273 117.294193 
L 545.717455 115.60438 
L 546.427636 117.778204 
L 547.137818 125.988909 
L 547.848 124.270089 
L 548.558182 126.970368 
L 549.268364 136.741026 
L 549.978545 141.279101 
L 550.688727 149.217844 
L 551.398909 145.690992 
L 552.109091 132.304514 
L 552.819273 136.968531 
L 553.529455 138.243076 
L 554.239636 144.824283 
L 554.949818 145.373743 
L 555.66 151.614186 
L 556.370182 151.842814 
L 557.080364 169.347189 
L 557.790545 160.980088 
L 558.500727 161.231515 
L 559.210909 170.510331 
L 559.921091 166.992621 
L 560.631273 160.463832 
L 561.341455 160.964278 
L 562.051636 170.535181 
L 562.761818 176.636156 
L 563.472 179.049249 
L 564.182182 195.463006 
L 564.892364 186.474686 
L 565.602545 175.832783 
L 566.312727 171.51104 
L 567.022909 181.861609 
L 567.733091 182.148624 
L 568.443273 187.02694 
L 569.153455 185.608809 
L 569.863636 177.859494 
L 570.573818 164.457594 
L 571.284 160.068308 
L 571.994182 161.547787 
L 572.704364 166.700056 
L 574.124727 178.993084 
L 574.834909 177.216607 
L 575.545091 177.308886 
L 576.255273 175.135146 
L 576.965455 169.385011 
L 577.675636 176.055292 
L 578.385818 178.92557 
L 579.096 177.483702 
L 579.806182 181.470796 
L 580.516364 179.54978 
L 581.226545 176.518195 
L 581.936727 179.508395 
L 583.357091 169.116811 
L 584.067273 173.454011 
L 584.777455 171.189393 
L 585.487636 173.541849 
L 586.197818 176.997432 
L 586.908 189.942105 
L 587.618182 194.277393 
L 588.328364 190.320277 
L 589.038545 194.38336 
L 589.748727 188.222371 
L 590.458909 186.534049 
L 591.169091 192.947352 
L 591.879273 196.897843 
L 592.589455 201.484104 
L 593.299636 213.957736 
L 594.009818 203.445467 
L 594.72 202.293571 
L 595.430182 190.577973 
L 596.140364 190.54465 
L 596.850545 191.137547 
L 597.560727 191.566492 
L 598.270909 194.253868 
L 598.981091 203.285125 
L 599.691273 208.548746 
L 600.401455 194.819699 
L 601.111636 205.257727 
L 601.821818 203.067085 
L 602.532 203.908688 
L 603.242182 197.157834 
L 603.952364 203.680237 
L 604.662545 204.851441 
L 605.372727 200.26043 
L 606.082909 204.247102 
L 606.793091 182.463514 
L 607.503273 172.218161 
L 608.213455 175.440858 
L 608.923636 175.428957 
L 609.633818 184.536701 
L 610.344 183.80809 
L 611.054182 182.438041 
L 611.764364 183.87934 
L 612.474545 194.690651 
L 613.184727 197.567932 
L 613.894909 195.92263 
L 614.605091 194.987561 
L 615.315273 186.832623 
L 616.025455 191.991476 
L 616.735636 192.236303 
L 617.445818 193.308679 
L 618.156 193.669586 
L 618.866182 197.85471 
L 619.576364 206.246953 
L 620.996727 194.105289 
L 621.706909 200.400292 
L 622.417091 201.468134 
L 623.127273 196.700717 
L 623.837455 200.120921 
L 625.257818 203.16378 
L 625.968 203.517267 
L 626.678182 190.28326 
L 627.388364 193.389517 
L 628.098545 197.221753 
L 628.808727 190.087776 
L 630.229091 197.771241 
L 630.939273 195.863741 
L 631.649455 211.361264 
L 633.069818 218.297435 
L 633.78 216.789826 
L 634.490182 223.032231 
L 635.200364 224.766378 
L 635.910545 222.057 
L 636.620727 233.701706 
L 637.330909 221.821849 
L 638.041091 217.597732 
L 638.751273 205.106093 
L 639.461455 201.731264 
L 640.171636 192.647337 
L 640.881818 194.277672 
L 641.592 187.45613 
L 642.302182 174.445129 
L 643.012364 177.035005 
L 643.722545 177.764814 
L 644.432727 184.6779 
L 645.142909 182.267974 
L 645.853091 175.455066 
L 646.563273 183.595262 
L 647.273455 187.678616 
L 648.693818 175.026867 
L 649.404 192.14009 
L 650.114182 199.194275 
L 650.824364 194.318771 
L 651.534545 182.329681 
L 652.244727 182.786951 
L 652.954909 182.916954 
L 653.665091 172.885544 
L 654.375273 175.596191 
L 655.085455 177.670658 
L 655.795636 170.228735 
L 656.505818 169.760575 
L 657.216 158.320186 
L 657.926182 156.616702 
L 658.636364 154.473474 
L 659.346545 143.436718 
L 660.056727 149.476115 
L 660.766909 153.881455 
L 661.477091 151.848586 
L 662.187273 153.933144 
L 662.897455 149.463312 
L 663.607636 152.2994 
L 664.317818 155.616729 
L 665.028 151.286064 
L 665.738182 138.740221 
L 666.448364 138.776104 
L 667.158545 146.390331 
L 667.868727 142.720323 
L 668.578909 156.567211 
L 669.289091 157.952797 
L 669.999273 163.688845 
L 671.419636 169.546204 
L 672.129818 181.255492 
L 672.84 174.124446 
L 673.550182 168.533408 
L 674.260364 172.652086 
L 674.970545 166.832157 
L 675.680727 174.183396 
L 676.390909 184.330012 
L 677.101091 176.517199 
L 678.521455 184.183854 
L 679.231636 185.38947 
L 679.941818 183.988373 
L 680.652 195.870633 
L 681.362182 192.635385 
L 682.072364 190.49389 
L 682.782545 186.331629 
L 683.492727 196.931281 
L 684.202909 190.943875 
L 684.913091 200.207516 
L 685.623273 203.080693 
L 686.333455 195.375547 
L 687.043636 196.564314 
L 687.753818 201.985149 
L 688.464 199.147799 
L 689.174182 210.122324 
L 689.884364 195.374088 
L 690.594545 199.777302 
L 691.304727 201.694233 
L 692.014909 211.965825 
L 692.725091 205.958553 
L 693.435273 203.420799 
L 694.145455 205.714218 
L 694.855636 215.813712 
L 695.565818 207.768906 
L 696.276 207.817199 
L 696.986182 208.269347 
L 697.696364 207.120901 
L 698.406545 218.234205 
L 699.116727 208.355495 
L 699.826909 201.99565 
L 700.537091 190.713668 
L 701.247273 194.13199 
L 701.957455 179.063795 
L 702.667636 183.868618 
L 703.377818 194.469669 
L 704.088 197.432926 
L 704.798182 202.036691 
L 706.218545 221.007182 
L 706.928727 221.434749 
L 707.638909 216.137017 
L 708.349091 221.767307 
L 709.059273 216.456881 
L 709.769455 217.002136 
L 710.479636 212.625374 
L 711.189818 213.564879 
L 711.9 213.048268 
L 712.610182 212.336154 
L 713.320364 219.372961 
L 714.030545 218.700823 
L 714.740727 222.392377 
L 715.450909 225.156216 
L 716.161091 220.547626 
L 716.871273 220.661233 
L 717.581455 235.361875 
L 718.291636 239.136601 
L 719.001818 247.168251 
L 719.712 245.885538 
L 720.422182 243.177564 
L 721.132364 244.205247 
L 721.842545 247.98461 
L 722.552727 259.275151 
L 723.262909 258.584995 
L 723.973091 258.216504 
L 725.393455 268.735043 
L 726.103636 261.917244 
L 726.813818 262.152415 
L 727.524 260.899032 
L 728.234182 266.884545 
L 728.944364 258.449462 
L 729.654545 255.213604 
L 730.364727 256.804916 
L 731.074909 250.328594 
L 731.785091 230.718169 
L 732.495273 241.186023 
L 733.205455 241.757962 
L 733.915636 241.505734 
L 734.625818 234.528189 
L 735.336 235.439829 
L 736.046182 232.955944 
L 736.756364 247.763747 
L 737.466545 241.078317 
L 738.176727 244.33699 
L 738.886909 254.319963 
L 740.307273 256.993781 
L 741.017455 257.487153 
L 741.727636 251.283796 
L 742.437818 259.443139 
L 743.148 258.620841 
L 743.858182 245.082822 
L 744.568364 243.872473 
L 745.278545 253.026099 
L 745.988727 264.270485 
L 746.698909 267.255444 
L 747.409091 268.476055 
L 748.119273 271.416733 
L 748.829455 271.241132 
L 749.539636 272.289611 
L 750.249818 265.591955 
L 750.96 271.797539 
L 751.670182 263.025902 
L 752.380364 273.2156 
L 753.090545 277.928833 
L 753.800727 291.862359 
L 754.510909 292.257097 
L 755.931273 284.485716 
L 756.641455 277.331611 
L 757.351636 281.285968 
L 758.061818 299.043358 
L 758.772 299.228529 
L 759.482182 302.96832 
L 760.192364 309.737766 
L 760.902545 322.607561 
L 761.612727 313.159347 
L 763.743273 327.627872 
L 764.453455 330.171211 
L 765.163636 327.255033 
L 765.873818 330.975644 
L 766.584 325.36963 
L 767.294182 334.367135 
L 768.004364 331.620994 
L 768.714545 334.62802 
L 769.424727 333.093644 
L 770.134909 322.8558 
L 770.845091 325.251081 
L 771.555273 335.043085 
L 772.265455 335.744239 
L 772.975636 335.216841 
L 773.685818 343.167735 
L 774.396 349.857705 
L 775.106182 346.144587 
L 775.816364 346.421151 
L 776.526545 358.896719 
L 777.236727 357.002511 
L 777.946909 348.440842 
L 778.657091 350.249699 
L 779.367273 351.745615 
L 780.077455 360.551203 
L 780.787636 356.018258 
L 781.497818 367.983233 
L 782.208 358.605911 
L 782.918182 362.667643 
L 783.628364 361.70507 
L 784.338545 358.511663 
L 785.048727 364.804726 
L 785.758909 369.36 
L 786.469091 364.45871 
L 787.179273 361.716168 
L 787.889455 366.386631 
L 788.599636 351.036924 
L 789.309818 352.261396 
L 790.02 345.159962 
L 790.730182 347.5513 
L 791.440364 334.199523 
L 792.150545 330.733726 
L 792.860727 326.174961 
L 793.570909 331.340969 
L 794.281091 332.603849 
L 794.991273 328.538746 
L 795.701455 329.117031 
L 796.411636 328.365322 
L 797.121818 322.939425 
L 797.832 314.198791 
L 798.542182 322.872891 
L 799.962545 319.810422 
L 800.672727 331.801425 
L 801.382909 329.000591 
L 802.093091 327.421129 
L 802.803273 316.16456 
L 803.513455 308.04508 
L 804.223636 311.926654 
L 804.933818 304.31808 
L 805.644 307.650445 
L 806.354182 309.647277 
L 807.064364 318.367162 
L 807.774545 331.418246 
L 808.484727 325.139363 
L 809.194909 330.577452 
L 810.615273 323.342506 
L 811.325455 325.688782 
L 812.035636 331.620919 
L 813.456 349.104374 
L 814.166182 342.679539 
L 814.876364 349.011549 
L 815.586545 346.246114 
L 816.296727 344.854858 
L 817.006909 346.645755 
L 817.717091 341.352528 
L 818.427273 343.795611 
L 819.137455 344.799911 
L 819.847636 349.23799 
L 820.557818 350.368484 
L 821.268 350.425348 
L 821.978182 349.943774 
L 823.398545 360.380728 
L 824.108727 356.267157 
L 824.818909 360.852239 
L 825.529091 357.555801 
L 826.239273 355.315821 
L 826.949455 356.459633 
L 827.659636 351.332032 
L 828.369818 349.054495 
L 829.08 346.323465 
L 829.790182 344.864851 
L 830.500364 344.864082 
L 831.210545 337.96029 
L 831.920727 339.895956 
L 832.630909 350.80876 
L 833.341091 349.832831 
L 834.051273 342.649027 
L 834.761455 346.540453 
L 835.471636 342.288055 
L 836.181818 344.064704 
L 836.892 347.100986 
L 837.602182 347.725199 
L 838.312364 346.951342 
L 839.022545 325.672044 
L 839.732727 318.875114 
L 840.442909 315.002348 
L 841.153091 307.739642 
L 841.863273 314.885911 
L 842.573455 315.948068 
L 843.283636 307.345993 
L 843.993818 310.583426 
L 844.704 323.385404 
L 845.414182 325.172259 
L 846.124364 326.496746 
L 846.834545 325.50607 
L 847.544727 325.395095 
L 848.965091 311.230795 
L 849.675273 303.785714 
L 850.385455 300.098989 
L 851.095636 300.416588 
L 851.805818 303.72834 
L 852.516 308.236731 
L 853.226182 301.012024 
L 853.936364 302.061352 
L 854.646545 304.256813 
L 855.356727 305.530147 
L 856.066909 299.415522 
L 856.777091 306.320592 
L 857.487273 293.659009 
L 858.197455 293.256533 
L 858.907636 292.458996 
L 859.617818 304.663787 
L 860.328 311.765317 
L 861.038182 320.026919 
L 861.748364 301.230548 
L 862.458545 296.961652 
L 863.168727 302.058797 
L 863.878909 283.881901 
L 864.589091 292.254395 
L 865.299273 296.418309 
L 866.009455 304.679753 
L 866.719636 316.342598 
L 867.429818 323.864958 
L 868.14 320.968971 
L 868.850182 319.617731 
L 869.560364 312.492567 
L 870.270545 308.336709 
L 870.980727 307.576573 
L 871.690909 315.037693 
L 871.690909 315.037693 
" clip-path="url(#p9584a0244b)" style="fill: none; stroke: #ff7f0e; stroke-width: 1.5; stroke-linecap: square"/>
   </g>
   <g id="line2d_14">
    <path d="M 162.219273 294.452535 
L 164.349818 294.254443 
L 165.770182 294.237757 
L 169.321091 293.691233 
L 171.451636 293.671762 
L 172.161818 293.036474 
L 173.582182 293.04189 
L 174.292364 293.07701 
L 175.002545 292.814846 
L 175.712727 291.998852 
L 176.422909 291.731084 
L 177.133091 291.881552 
L 178.553455 290.373841 
L 179.263636 288.788904 
L 180.684 288.720699 
L 181.394182 288.734535 
L 182.814545 288.465024 
L 183.524727 288.107321 
L 184.234909 288.146057 
L 184.945091 288.040686 
L 187.785818 288.079113 
L 188.496 287.717486 
L 189.916364 287.644122 
L 191.336727 287.700639 
L 192.757091 287.745329 
L 193.467273 287.386915 
L 201.989455 286.771783 
L 202.699636 286.700083 
L 203.409818 286.221106 
L 204.12 286.086115 
L 204.830182 285.631962 
L 205.540364 285.846847 
L 206.960727 285.745127 
L 207.670909 285.519852 
L 208.381091 285.56832 
L 209.091273 285.464447 
L 209.801455 284.662502 
L 210.511636 284.551377 
L 211.221818 283.843536 
L 213.352364 283.808687 
L 214.062545 283.670064 
L 215.482909 283.778923 
L 216.903273 283.430914 
L 218.323636 283.54682 
L 219.033818 283.072871 
L 220.454182 283.136661 
L 222.584727 283.410596 
L 223.294909 283.288787 
L 225.425455 283.230628 
L 226.135636 283.033543 
L 231.817091 283.045321 
L 232.527273 282.821025 
L 233.237455 282.046911 
L 233.947636 281.610162 
L 234.657818 281.03825 
L 235.368 280.895103 
L 236.078182 281.038928 
L 236.788364 280.901617 
L 237.498545 280.934138 
L 238.918909 280.637192 
L 241.759636 280.563439 
L 243.890182 280.07853 
L 244.600364 279.902512 
L 245.310545 279.968586 
L 248.151273 279.281837 
L 249.571636 279.341733 
L 250.281818 279.042717 
L 251.702182 279.202759 
L 253.832727 279.135085 
L 254.542909 278.803047 
L 257.383636 278.784417 
L 258.093818 278.490323 
L 258.804 278.513096 
L 259.514182 278.189372 
L 260.934545 278.101171 
L 261.644727 277.794173 
L 263.775273 277.782732 
L 264.485455 277.595566 
L 265.195636 277.219794 
L 267.326182 276.933671 
L 269.456727 276.822167 
L 270.166909 276.823754 
L 270.877091 276.689168 
L 273.717818 276.698424 
L 275.138182 275.88225 
L 277.268727 275.819419 
L 277.978909 275.990439 
L 278.689091 275.252254 
L 279.399273 275.179576 
L 280.109455 274.949524 
L 280.819636 274.944462 
L 281.529818 274.695122 
L 283.660364 274.4647 
L 285.790909 274.491001 
L 286.501091 274.270589 
L 287.211273 274.352139 
L 287.921455 274.11961 
L 288.631636 274.051882 
L 289.341818 273.859706 
L 290.762182 273.851224 
L 291.472364 273.708381 
L 292.182545 273.422913 
L 293.602909 273.235008 
L 295.023273 273.057727 
L 295.733455 272.695973 
L 297.153818 272.508887 
L 297.864 272.551579 
L 298.574182 272.304556 
L 299.284364 271.669149 
L 302.835273 271.537822 
L 303.545455 271.234926 
L 304.255636 271.286996 
L 304.965818 270.879875 
L 306.386182 270.68192 
L 307.096364 270.482415 
L 310.647273 270.254025 
L 313.488 269.820541 
L 314.908364 269.907789 
L 316.328727 269.822001 
L 317.038909 268.979315 
L 318.459273 268.648579 
L 319.169455 268.199004 
L 319.879636 268.200352 
L 320.589818 267.852126 
L 323.430545 267.790142 
L 324.140727 267.604615 
L 324.850909 267.080413 
L 326.981455 267.235436 
L 327.691636 267.01894 
L 329.112 266.980612 
L 329.822182 266.891002 
L 330.532364 266.645661 
L 331.242545 266.540927 
L 331.952727 265.715539 
L 333.373091 265.679744 
L 334.083273 265.667059 
L 335.503636 265.133003 
L 336.213818 265.078851 
L 336.924 265.263742 
L 338.344364 265.139376 
L 339.054545 264.96744 
L 340.474909 264.908593 
L 341.895273 265.02146 
L 343.315636 264.713638 
L 344.736 264.68117 
L 345.446182 264.741012 
L 348.286909 264.145194 
L 349.707273 264.048486 
L 350.417455 263.882979 
L 351.127636 263.880076 
L 351.837818 263.432412 
L 353.968364 263.211613 
L 355.388727 262.250536 
L 357.519273 262.239509 
L 358.229455 262.326102 
L 359.649818 262.301239 
L 360.36 261.959748 
L 361.780364 262.083379 
L 363.910909 261.991923 
L 367.461818 262.010641 
L 368.172 262.021997 
L 368.882182 261.619573 
L 369.592364 261.452691 
L 371.722909 261.281953 
L 373.143273 261.128663 
L 373.853455 260.205845 
L 375.273818 260.076836 
L 375.984 259.959695 
L 376.694182 259.446255 
L 378.114545 259.310405 
L 378.824727 259.005927 
L 380.245091 258.923886 
L 383.796 258.870716 
L 384.506182 258.586343 
L 385.216364 258.693595 
L 385.926545 258.640113 
L 386.636727 258.336226 
L 387.346909 258.183572 
L 390.187636 258.170862 
L 390.897818 258.170994 
L 391.608 258.016384 
L 393.738545 258.041184 
L 394.448727 257.498618 
L 395.158909 257.485742 
L 395.869091 257.082435 
L 396.579273 256.410367 
L 397.289455 255.308385 
L 400.130182 255.242639 
L 400.840364 254.678403 
L 401.550545 254.633809 
L 402.260727 254.316131 
L 402.970909 254.356048 
L 403.681091 254.025731 
L 405.811636 253.978008 
L 406.521818 252.586024 
L 409.362545 252.593019 
L 412.203273 252.431386 
L 412.913455 251.849812 
L 413.623636 251.538197 
L 414.333818 251.531995 
L 415.044 251.291541 
L 415.754182 251.198124 
L 416.464364 251.238861 
L 417.174545 250.900844 
L 419.305091 250.853236 
L 420.015273 250.501581 
L 421.435636 250.565307 
L 422.856 250.391539 
L 423.566182 249.09605 
L 424.986545 249.046959 
L 425.696727 248.908118 
L 427.827273 248.895458 
L 428.537455 248.900896 
L 429.247636 248.730613 
L 432.088364 248.72415 
L 433.508727 248.623666 
L 436.349455 248.61149 
L 437.059636 248.721318 
L 437.769818 248.695218 
L 438.48 248.468366 
L 439.190182 248.093036 
L 442.030909 248.049259 
L 442.741091 247.803278 
L 444.161455 247.737049 
L 444.871636 247.513871 
L 446.292 247.520467 
L 447.002182 247.449393 
L 447.712364 247.223594 
L 449.132727 247.221145 
L 451.263273 246.825117 
L 451.973455 246.939787 
L 452.683636 246.887495 
L 453.393818 246.476175 
L 456.234545 246.370975 
L 458.365091 245.672186 
L 459.785455 245.647231 
L 460.495636 244.929752 
L 461.205818 245.031956 
L 461.916 244.90214 
L 464.046545 244.866815 
L 465.466909 244.73665 
L 466.177091 244.815609 
L 467.597455 244.667536 
L 469.017818 244.237251 
L 470.438182 244.075544 
L 471.148364 244.00733 
L 471.858545 243.485191 
L 473.989091 243.674759 
L 474.699273 243.737333 
L 476.829818 243.506209 
L 477.54 243.442669 
L 478.250182 242.951185 
L 478.960364 242.010031 
L 480.380727 241.856823 
L 486.062182 241.766132 
L 486.772364 241.727731 
L 487.482545 241.422386 
L 489.613091 241.507139 
L 490.323273 241.227089 
L 494.584364 241.14141 
L 495.294545 240.985361 
L 496.004727 240.034118 
L 497.425091 239.894662 
L 502.396364 239.176711 
L 503.106545 239.183776 
L 504.526909 239.031586 
L 505.237091 239.091981 
L 506.657455 238.541496 
L 508.077818 238.198669 
L 508.788 237.387912 
L 510.208364 237.459533 
L 510.918545 237.472877 
L 511.628727 237.190344 
L 512.338909 237.12714 
L 513.049091 236.603311 
L 515.179636 236.06969 
L 515.889818 235.6161 
L 516.6 235.653047 
L 517.310182 234.783955 
L 518.020364 234.505326 
L 518.730545 233.922894 
L 519.440727 233.758353 
L 520.861091 233.067559 
L 521.571273 232.919986 
L 524.412 232.813906 
L 525.122182 232.65825 
L 525.832364 232.323475 
L 527.252727 232.323881 
L 527.962909 232.109406 
L 528.673091 231.372192 
L 529.383273 231.283629 
L 530.093455 230.676181 
L 532.224 230.578563 
L 533.644364 230.212307 
L 534.354545 230.270893 
L 535.064727 229.538963 
L 535.774909 229.381166 
L 536.485091 229.354867 
L 537.195273 229.173025 
L 537.905455 229.250437 
L 538.615636 229.082083 
L 540.036 229.315967 
L 542.166545 229.439363 
L 542.876727 229.346108 
L 544.297091 229.387228 
L 546.427636 229.451825 
L 547.137818 229.060092 
L 548.558182 229.111398 
L 549.268364 228.660619 
L 551.398909 228.673609 
L 552.109091 227.991486 
L 552.819273 227.737448 
L 553.529455 227.65199 
L 554.239636 227.450196 
L 554.949818 227.436929 
L 555.66 227.271221 
L 556.370182 227.2747 
L 557.080364 226.298893 
L 557.790545 225.832879 
L 558.500727 225.841197 
L 559.210909 225.477565 
L 559.921091 225.41476 
L 560.631273 225.1234 
L 561.341455 225.122512 
L 562.051636 224.802904 
L 562.761818 224.835709 
L 563.472 224.711717 
L 564.182182 224.086702 
L 564.892364 223.940692 
L 565.602545 223.317584 
L 566.312727 223.221319 
L 567.022909 222.60382 
L 567.733091 222.593378 
L 568.443273 222.453912 
L 569.863636 222.406142 
L 570.573818 221.462713 
L 576.255273 221.501709 
L 577.675636 221.181911 
L 579.806182 221.349187 
L 586.197818 220.612507 
L 586.908 220.26449 
L 589.748727 220.243818 
L 590.458909 220.23906 
L 591.169091 220.109233 
L 592.589455 220.100698 
L 594.009818 219.402813 
L 598.270909 219.290068 
L 598.981091 218.910126 
L 599.691273 218.805171 
L 600.401455 217.782014 
L 601.111636 217.640015 
L 602.532 217.704226 
L 603.242182 217.519999 
L 604.662545 217.582258 
L 605.372727 217.343198 
L 606.082909 217.380023 
L 606.793091 216.179736 
L 607.503273 215.805287 
L 608.923636 215.735744 
L 609.633818 215.125482 
L 611.764364 215.105724 
L 612.474545 214.508228 
L 614.605091 214.484138 
L 615.315273 214.155078 
L 616.735636 214.209065 
L 618.156 214.188657 
L 618.866182 214.047382 
L 619.576364 214.076712 
L 620.286545 213.781823 
L 623.127273 213.621244 
L 625.968 213.550955 
L 626.678182 213.073956 
L 628.808727 213.071884 
L 630.229091 212.822894 
L 630.939273 212.849109 
L 631.649455 211.965166 
L 636.620727 211.535147 
L 637.330909 211.246225 
L 638.041091 211.201791 
L 638.751273 210.48878 
L 639.461455 210.390191 
L 640.171636 210.117759 
L 640.881818 210.08801 
L 641.592 209.744106 
L 642.302182 208.930704 
L 643.722545 208.979099 
L 644.432727 208.780016 
L 645.142909 208.880265 
L 646.563273 208.744573 
L 648.693818 208.171203 
L 650.114182 207.757553 
L 651.534545 207.793249 
L 652.954909 207.817075 
L 653.665091 207.577499 
L 654.375273 207.51156 
L 655.085455 207.577268 
L 656.505818 207.465276 
L 657.216 206.688581 
L 658.636364 206.694833 
L 659.346545 206.530454 
L 660.056727 206.483069 
L 660.766909 206.300453 
L 665.028 206.212637 
L 665.738182 205.613903 
L 666.448364 205.613562 
L 667.158545 204.927696 
L 667.868727 204.86047 
L 668.578909 203.895195 
L 669.289091 203.881887 
L 669.999273 203.68012 
L 671.419636 203.625301 
L 672.129818 203.154436 
L 673.550182 202.693147 
L 674.260364 202.762519 
L 675.680727 202.399774 
L 677.811273 202.2618 
L 679.231636 202.282553 
L 682.072364 202.170513 
L 682.782545 202.095473 
L 684.913091 201.0813 
L 685.623273 201.086458 
L 686.333455 200.822864 
L 687.043636 200.845557 
L 687.753818 200.462378 
L 688.464 200.366731 
L 689.174182 199.616887 
L 689.884364 198.678967 
L 691.304727 198.449461 
L 692.014909 197.96224 
L 692.725091 197.831965 
L 694.145455 197.814774 
L 695.565818 196.864049 
L 697.696364 196.867409 
L 699.116727 195.923143 
L 699.826909 195.875805 
L 700.537091 195.431003 
L 701.247273 195.334077 
L 701.957455 194.356255 
L 702.667636 194.187875 
L 703.377818 193.793269 
L 704.798182 193.759437 
L 705.508364 193.225085 
L 707.638909 193.216825 
L 709.059273 192.8166 
L 712.610182 192.813251 
L 713.320364 192.588268 
L 714.740727 192.5456 
L 715.450909 192.438026 
L 716.161091 192.143893 
L 716.871273 192.140933 
L 717.581455 190.567074 
L 719.712 190.696656 
L 721.842545 190.613935 
L 722.552727 189.795835 
L 723.973091 189.811158 
L 724.683273 189.599641 
L 725.393455 189.559612 
L 726.103636 188.93688 
L 727.524 188.902506 
L 728.234182 188.781036 
L 728.944364 188.425657 
L 729.654545 188.285361 
L 730.364727 188.309787 
L 731.074909 188.113583 
L 731.785091 187.759549 
L 732.495273 187.203675 
L 733.915636 187.192091 
L 734.625818 187.007608 
L 736.046182 187.042928 
L 736.756364 186.189707 
L 737.466545 186.312803 
L 738.176727 186.278205 
L 738.886909 185.744421 
L 741.017455 185.757638 
L 741.727636 185.386876 
L 743.148 185.289224 
L 743.858182 184.750548 
L 744.568364 184.725479 
L 745.278545 184.574332 
L 745.988727 184.249373 
L 747.409091 184.287609 
L 748.119273 184.416867 
L 749.539636 184.428839 
L 750.249818 184.2455 
L 750.96 184.352977 
L 751.670182 183.887734 
L 752.380364 183.622714 
L 753.090545 183.72795 
L 753.800727 183.579801 
L 754.510909 183.584383 
L 755.221091 183.459222 
L 755.931273 183.504488 
L 757.351636 183.347868 
L 758.061818 182.009752 
L 759.482182 181.987886 
L 760.192364 181.799123 
L 760.902545 180.711273 
L 761.612727 180.275808 
L 765.163636 179.927993 
L 766.584 179.719142 
L 767.294182 179.473036 
L 768.004364 179.473974 
L 768.714545 179.35875 
L 770.134909 179.413325 
L 772.265455 179.283484 
L 772.975636 179.282181 
L 774.396 179.008273 
L 775.816364 179.063273 
L 776.526545 178.382984 
L 777.236727 178.356072 
L 777.946909 178.060863 
L 779.367273 178.077133 
L 780.077455 177.525888 
L 780.787636 177.444917 
L 781.497818 177.098098 
L 783.628364 176.86412 
L 784.338545 176.937351 
L 785.048727 176.753589 
L 787.889455 176.576609 
L 788.599636 175.716814 
L 789.309818 175.762753 
L 790.730182 175.586592 
L 791.440364 174.736616 
L 794.281091 174.689638 
L 797.121818 174.412297 
L 797.832 174.607944 
L 798.542182 174.09358 
L 799.962545 174.06501 
L 801.382909 173.877548 
L 802.093091 173.857787 
L 802.803273 173.444015 
L 803.513455 173.528131 
L 804.223636 173.44185 
L 804.933818 173.0066 
L 805.644 172.85228 
L 806.354182 172.863432 
L 807.064364 172.386325 
L 807.774545 171.167153 
L 808.484727 171.072565 
L 809.194909 170.792628 
L 809.905091 170.647291 
L 811.325455 170.590031 
L 812.035636 170.378881 
L 812.745818 169.955891 
L 813.456 169.72601 
L 817.717091 169.289241 
L 819.137455 169.276883 
L 821.268 169.15119 
L 821.978182 169.157915 
L 823.398545 168.895762 
L 824.108727 168.915107 
L 824.818909 168.714054 
L 830.500364 168.561177 
L 831.210545 168.414651 
L 831.920727 168.406886 
L 832.630909 168.15793 
L 833.341091 168.155772 
L 834.051273 167.721361 
L 836.181818 167.545815 
L 837.602182 167.482645 
L 838.312364 167.471745 
L 839.022545 165.569335 
L 841.153091 164.669548 
L 841.863273 164.402933 
L 842.573455 164.404843 
L 843.283636 164.003428 
L 843.993818 163.83379 
L 844.704 163.477294 
L 848.254909 163.164682 
L 848.965091 163.0874 
L 850.385455 162.656497 
L 851.095636 162.654415 
L 853.226182 162.224969 
L 855.356727 162.223461 
L 856.066909 161.844592 
L 856.777091 161.824371 
L 857.487273 161.378063 
L 858.907636 161.393441 
L 860.328 160.727036 
L 861.038182 160.559322 
L 861.748364 159.381322 
L 862.458545 159.202305 
L 863.168727 159.178111 
L 863.878909 158.489238 
L 864.589091 158.198942 
L 865.299273 158.253257 
L 866.009455 158.065677 
L 866.719636 157.346584 
L 867.429818 156.939689 
L 868.850182 156.78662 
L 869.560364 156.666306 
L 870.980727 156.696615 
L 871.690909 156.517123 
L 871.690909 156.517123 
" clip-path="url(#p9584a0244b)" style="fill: none; stroke: #2ca02c; stroke-width: 1.5; stroke-linecap: square"/>
   </g>
   <g id="patch_3">
    <path d="M 126 384.48 
L 126 51.84 
" style="fill: none; stroke: #000000; stroke-width: 0.8; stroke-linejoin: miter; stroke-linecap: square"/>
   </g>
   <g id="patch_4">
    <path d="M 907.2 384.48 
L 907.2 51.84 
" style="fill: none; stroke: #000000; stroke-width: 0.8; stroke-linejoin: miter; stroke-linecap: square"/>
   </g>
   <g id="patch_5">
    <path d="M 126 384.48 
L 907.2 384.48 
" style="fill: none; stroke: #000000; stroke-width: 0.8; stroke-linejoin: miter; stroke-linecap: square"/>
   </g>
   <g id="patch_6">
    <path d="M 126 51.84 
L 907.2 51.84 
" style="fill: none; stroke: #000000; stroke-width: 0.8; stroke-linejoin: miter; stroke-linecap: square"/>
   </g>
   <g id="text_14">
    <!-- Quadratic Covariation of $X_t$ and $S_t$ -->
    <g transform="translate(414.54 45.84)scale(0.12 -0.12)">
     <defs>
      <path id="DejaVuSans-66" d="M 2375 4863 
L 2375 4384 
L 1825 4384 
Q 1516 4384 1395 4259 
Q 1275 4134 1275 3809 
L 1275 3500 
L 2222 3500 
L 2222 3053 
L 1275 3053 
L 1275 0 
L 697 0 
L 697 3053 
L 147 3053 
L 147 3500 
L 697 3500 
L 697 3744 
Q 697 4328 969 4595 
Q 1241 4863 1831 4863 
L 2375 4863 
z
" transform="scale(0.015625)"/>
      <path id="DejaVuSans-Oblique-58" d="M 878 4666 
L 1516 4666 
L 2316 2981 
L 3763 4666 
L 4500 4666 
L 2578 2438 
L 3738 0 
L 3103 0 
L 2163 1966 
L 459 0 
L -275 0 
L 1906 2509 
L 878 4666 
z
" transform="scale(0.015625)"/>
      <path id="DejaVuSans-Oblique-74" d="M 2706 3500 
L 2619 3053 
L 1472 3053 
L 1100 1153 
Q 1081 1047 1072 975 
Q 1063 903 1063 863 
Q 1063 663 1183 572 
Q 1303 481 1569 481 
L 2150 481 
L 2053 0 
L 1503 0 
Q 991 0 739 200 
Q 488 400 488 806 
Q 488 878 497 964 
Q 506 1050 525 1153 
L 897 3053 
L 409 3053 
L 500 3500 
L 978 3500 
L 1172 4494 
L 1747 4494 
L 1556 3500 
L 2706 3500 
z
" transform="scale(0.015625)"/>
      <path id="DejaVuSans-Oblique-53" d="M 3859 4513 
L 3738 3897 
Q 3422 4066 3111 4152 
Q 2800 4238 2509 4238 
Q 1944 4238 1609 3991 
Q 1275 3744 1275 3334 
Q 1275 3109 1398 2989 
Q 1522 2869 2034 2731 
L 2413 2638 
Q 3053 2472 3303 2217 
Q 3553 1963 3553 1503 
Q 3553 797 2998 353 
Q 2444 -91 1538 -91 
Q 1166 -91 791 -17 
Q 416 56 38 206 
L 166 856 
Q 513 641 861 531 
Q 1209 422 1556 422 
Q 2147 422 2503 684 
Q 2859 947 2859 1369 
Q 2859 1650 2717 1795 
Q 2575 1941 2106 2059 
L 1728 2156 
Q 1081 2325 845 2545 
Q 609 2766 609 3163 
Q 609 3859 1145 4304 
Q 1681 4750 2541 4750 
Q 2875 4750 3203 4690 
Q 3531 4631 3859 4513 
z
" transform="scale(0.015625)"/>
     </defs>
     <use xlink:href="#DejaVuSans-51" transform="translate(0 0.015625)"/>
     <use xlink:href="#DejaVuSans-75" transform="translate(78.710938 0.015625)"/>
     <use xlink:href="#DejaVuSans-61" transform="translate(142.089844 0.015625)"/>
     <use xlink:href="#DejaVuSans-64" transform="translate(203.369141 0.015625)"/>
     <use xlink:href="#DejaVuSans-72" transform="translate(266.845703 0.015625)"/>
     <use xlink:href="#DejaVuSans-61" transform="translate(307.958984 0.015625)"/>
     <use xlink:href="#DejaVuSans-74" transform="translate(369.238281 0.015625)"/>
     <use xlink:href="#DejaVuSans-69" transform="translate(408.447266 0.015625)"/>
     <use xlink:href="#DejaVuSans-63" transform="translate(436.230469 0.015625)"/>
     <use xlink:href="#DejaVuSans-20" transform="translate(491.210938 0.015625)"/>
     <use xlink:href="#DejaVuSans-43" transform="translate(522.998047 0.015625)"/>
     <use xlink:href="#DejaVuSans-6f" transform="translate(592.822266 0.015625)"/>
     <use xlink:href="#DejaVuSans-76" transform="translate(654.003906 0.015625)"/>
     <use xlink:href="#DejaVuSans-61" transform="translate(713.183594 0.015625)"/>
     <use xlink:href="#DejaVuSans-72" transform="translate(774.462891 0.015625)"/>
     <use xlink:href="#DejaVuSans-69" transform="translate(815.576172 0.015625)"/>
     <use xlink:href="#DejaVuSans-61" transform="translate(843.359375 0.015625)"/>
     <use xlink:href="#DejaVuSans-74" transform="translate(904.638672 0.015625)"/>
     <use xlink:href="#DejaVuSans-69" transform="translate(943.847656 0.015625)"/>
     <use xlink:href="#DejaVuSans-6f" transform="translate(971.630859 0.015625)"/>
     <use xlink:href="#DejaVuSans-6e" transform="translate(1032.8125 0.015625)"/>
     <use xlink:href="#DejaVuSans-20" transform="translate(1096.191406 0.015625)"/>
     <use xlink:href="#DejaVuSans-6f" transform="translate(1127.978516 0.015625)"/>
     <use xlink:href="#DejaVuSans-66" transform="translate(1189.160156 0.015625)"/>
     <use xlink:href="#DejaVuSans-20" transform="translate(1224.365234 0.015625)"/>
     <use xlink:href="#DejaVuSans-Oblique-58" transform="translate(1256.152344 0.015625)"/>
     <use xlink:href="#DejaVuSans-Oblique-74" transform="translate(1324.658203 -16.390625)scale(0.7)"/>
     <use xlink:href="#DejaVuSans-20" transform="translate(1354.838867 0.015625)"/>
     <use xlink:href="#DejaVuSans-61" transform="translate(1386.625977 0.015625)"/>
     <use xlink:href="#DejaVuSans-6e" transform="translate(1447.905273 0.015625)"/>
     <use xlink:href="#DejaVuSans-64" transform="translate(1511.28418 0.015625)"/>
     <use xlink:href="#DejaVuSans-20" transform="translate(1574.760742 0.015625)"/>
     <use xlink:href="#DejaVuSans-Oblique-53" transform="translate(1606.547852 0.015625)"/>
     <use xlink:href="#DejaVuSans-Oblique-74" transform="translate(1670.024414 -16.390625)scale(0.7)"/>
    </g>
   </g>
   <g id="legend_1">
    <g id="patch_7">
     <path d="M 698.1 103.874375 
L 900.2 103.874375 
Q 902.2 103.874375 902.2 101.874375 
L 902.2 58.84 
Q 902.2 56.84 900.2 56.84 
L 698.1 56.84 
Q 696.1 56.84 696.1 58.84 
L 696.1 101.874375 
Q 696.1 103.874375 698.1 103.874375 
z
" style="fill: #ffffff; opacity: 0.8; stroke: #cccccc; stroke-linejoin: miter"/>
    </g>
    <g id="line2d_15">
     <path d="M 700.1 64.938437 
L 710.1 64.938437 
L 720.1 64.938437 
" style="fill: none; stroke: #1f77b4; stroke-width: 1.5; stroke-linecap: square"/>
    </g>
    <g id="text_15">
     <!-- $X_t$ -->
     <g transform="translate(728.1 68.438437)scale(0.1 -0.1)">
      <use xlink:href="#DejaVuSans-Oblique-58" transform="translate(0 0.09375)"/>
      <use xlink:href="#DejaVuSans-Oblique-74" transform="translate(68.505859 -16.3125)scale(0.7)"/>
     </g>
    </g>
    <g id="line2d_16">
     <path d="M 700.1 79.616562 
L 710.1 79.616562 
L 720.1 79.616562 
" style="fill: none; stroke: #ff7f0e; stroke-width: 1.5; stroke-linecap: square"/>
    </g>
    <g id="text_16">
     <!-- $S_t$ -->
     <g transform="translate(728.1 83.116562)scale(0.1 -0.1)">
      <use xlink:href="#DejaVuSans-Oblique-53" transform="translate(0 0.78125)"/>
      <use xlink:href="#DejaVuSans-Oblique-74" transform="translate(63.476562 -15.625)scale(0.7)"/>
     </g>
    </g>
    <g id="line2d_17">
     <path d="M 700.1 94.294687 
L 710.1 94.294687 
L 720.1 94.294687 
" style="fill: none; stroke: #2ca02c; stroke-width: 1.5; stroke-linecap: square"/>
    </g>
    <g id="text_17">
     <!-- Quadratic Covariation of $X_t$ and $S_t$ -->
     <g transform="translate(728.1 97.794687)scale(0.1 -0.1)">
      <use xlink:href="#DejaVuSans-51" transform="translate(0 0.015625)"/>
      <use xlink:href="#DejaVuSans-75" transform="translate(78.710938 0.015625)"/>
      <use xlink:href="#DejaVuSans-61" transform="translate(142.089844 0.015625)"/>
      <use xlink:href="#DejaVuSans-64" transform="translate(203.369141 0.015625)"/>
      <use xlink:href="#DejaVuSans-72" transform="translate(266.845703 0.015625)"/>
      <use xlink:href="#DejaVuSans-61" transform="translate(307.958984 0.015625)"/>
      <use xlink:href="#DejaVuSans-74" transform="translate(369.238281 0.015625)"/>
      <use xlink:href="#DejaVuSans-69" transform="translate(408.447266 0.015625)"/>
      <use xlink:href="#DejaVuSans-63" transform="translate(436.230469 0.015625)"/>
      <use xlink:href="#DejaVuSans-20" transform="translate(491.210938 0.015625)"/>
      <use xlink:href="#DejaVuSans-43" transform="translate(522.998047 0.015625)"/>
      <use xlink:href="#DejaVuSans-6f" transform="translate(592.822266 0.015625)"/>
      <use xlink:href="#DejaVuSans-76" transform="translate(654.003906 0.015625)"/>
      <use xlink:href="#DejaVuSans-61" transform="translate(713.183594 0.015625)"/>
      <use xlink:href="#DejaVuSans-72" transform="translate(774.462891 0.015625)"/>
      <use xlink:href="#DejaVuSans-69" transform="translate(815.576172 0.015625)"/>
      <use xlink:href="#DejaVuSans-61" transform="translate(843.359375 0.015625)"/>
      <use xlink:href="#DejaVuSans-74" transform="translate(904.638672 0.015625)"/>
      <use xlink:href="#DejaVuSans-69" transform="translate(943.847656 0.015625)"/>
      <use xlink:href="#DejaVuSans-6f" transform="translate(971.630859 0.015625)"/>
      <use xlink:href="#DejaVuSans-6e" transform="translate(1032.8125 0.015625)"/>
      <use xlink:href="#DejaVuSans-20" transform="translate(1096.191406 0.015625)"/>
      <use xlink:href="#DejaVuSans-6f" transform="translate(1127.978516 0.015625)"/>
      <use xlink:href="#DejaVuSans-66" transform="translate(1189.160156 0.015625)"/>
      <use xlink:href="#DejaVuSans-20" transform="translate(1224.365234 0.015625)"/>
      <use xlink:href="#DejaVuSans-Oblique-58" transform="translate(1256.152344 0.015625)"/>
      <use xlink:href="#DejaVuSans-Oblique-74" transform="translate(1324.658203 -16.390625)scale(0.7)"/>
      <use xlink:href="#DejaVuSans-20" transform="translate(1354.838867 0.015625)"/>
      <use xlink:href="#DejaVuSans-61" transform="translate(1386.625977 0.015625)"/>
      <use xlink:href="#DejaVuSans-6e" transform="translate(1447.905273 0.015625)"/>
      <use xlink:href="#DejaVuSans-64" transform="translate(1511.28418 0.015625)"/>
      <use xlink:href="#DejaVuSans-20" transform="translate(1574.760742 0.015625)"/>
      <use xlink:href="#DejaVuSans-Oblique-53" transform="translate(1606.547852 0.015625)"/>
      <use xlink:href="#DejaVuSans-Oblique-74" transform="translate(1670.024414 -16.390625)scale(0.7)"/>
     </g>
    </g>
   </g>
  </g>
 </g>
 <defs>
  <clipPath id="p9584a0244b">
   <rect x="126" y="51.84" width="781.2" height="332.64"/>
  </clipPath>
 </defs>
</svg>
