<?xml version="1.0" encoding="utf-8" standalone="no"?>
<!DOCTYPE svg PUBLIC "-//W3C//DTD SVG 1.1//EN"
  "http://www.w3.org/Graphics/SVG/1.1/DTD/svg11.dtd">
<svg xmlns:xlink="http://www.w3.org/1999/xlink" width="1008pt" height="432pt" viewBox="0 0 1008 432" xmlns="http://www.w3.org/2000/svg" version="1.1">
 <metadata>
  <rdf:RDF xmlns:dc="http://purl.org/dc/elements/1.1/" xmlns:cc="http://creativecommons.org/ns#" xmlns:rdf="http://www.w3.org/1999/02/22-rdf-syntax-ns#">
   <cc:Work>
    <dc:type rdf:resource="http://purl.org/dc/dcmitype/StillImage"/>
    <dc:date>2023-12-22T17:09:16.293671</dc:date>
    <dc:format>image/svg+xml</dc:format>
    <dc:creator>
     <cc:Agent>
      <dc:title>Matplotlib v3.5.2, https://matplotlib.org/</dc:title>
     </cc:Agent>
    </dc:creator>
   </cc:Work>
  </rdf:RDF>
 </metadata>
 <defs>
  <style type="text/css">*{stroke-linejoin: round; stroke-linecap: butt}</style>
 </defs>
 <g id="figure_1">
  <g id="patch_1">
   <path d="M 0 432 
L 1008 432 
L 1008 0 
L 0 0 
z
" style="fill: #ffffff"/>
  </g>
  <g id="axes_1">
   <g id="patch_2">
    <path d="M 126 384.48 
L 907.2 384.48 
L 907.2 51.84 
L 126 51.84 
z
" style="fill: #ffffff"/>
   </g>
   <g id="matplotlib.axis_1">
    <g id="xtick_1">
     <g id="line2d_1">
      <defs>
       <path id="m055a1b93d2" d="M 0 0 
L 0 3.5 
" style="stroke: #000000; stroke-width: 0.8"/>
      </defs>
      <g>
       <use xlink:href="#m055a1b93d2" x="161.509091" y="384.48" style="stroke: #000000; stroke-width: 0.8"/>
      </g>
     </g>
     <g id="text_1">
      <!-- 0.0 -->
      <g transform="translate(153.557528 399.078438)scale(0.1 -0.1)">
       <defs>
        <path id="DejaVuSans-30" d="M 2034 4250 
Q 1547 4250 1301 3770 
Q 1056 3291 1056 2328 
Q 1056 1369 1301 889 
Q 1547 409 2034 409 
Q 2525 409 2770 889 
Q 3016 1369 3016 2328 
Q 3016 3291 2770 3770 
Q 2525 4250 2034 4250 
z
M 2034 4750 
Q 2819 4750 3233 4129 
Q 3647 3509 3647 2328 
Q 3647 1150 3233 529 
Q 2819 -91 2034 -91 
Q 1250 -91 836 529 
Q 422 1150 422 2328 
Q 422 3509 836 4129 
Q 1250 4750 2034 4750 
z
" transform="scale(0.015625)"/>
        <path id="DejaVuSans-2e" d="M 684 794 
L 1344 794 
L 1344 0 
L 684 0 
L 684 794 
z
" transform="scale(0.015625)"/>
       </defs>
       <use xlink:href="#DejaVuSans-30"/>
       <use xlink:href="#DejaVuSans-2e" x="63.623047"/>
       <use xlink:href="#DejaVuSans-30" x="95.410156"/>
      </g>
     </g>
    </g>
    <g id="xtick_2">
     <g id="line2d_2">
      <g>
       <use xlink:href="#m055a1b93d2" x="303.545455" y="384.48" style="stroke: #000000; stroke-width: 0.8"/>
      </g>
     </g>
     <g id="text_2">
      <!-- 0.2 -->
      <g transform="translate(295.593892 399.078438)scale(0.1 -0.1)">
       <defs>
        <path id="DejaVuSans-32" d="M 1228 531 
L 3431 531 
L 3431 0 
L 469 0 
L 469 531 
Q 828 903 1448 1529 
Q 2069 2156 2228 2338 
Q 2531 2678 2651 2914 
Q 2772 3150 2772 3378 
Q 2772 3750 2511 3984 
Q 2250 4219 1831 4219 
Q 1534 4219 1204 4116 
Q 875 4013 500 3803 
L 500 4441 
Q 881 4594 1212 4672 
Q 1544 4750 1819 4750 
Q 2544 4750 2975 4387 
Q 3406 4025 3406 3419 
Q 3406 3131 3298 2873 
Q 3191 2616 2906 2266 
Q 2828 2175 2409 1742 
Q 1991 1309 1228 531 
z
" transform="scale(0.015625)"/>
       </defs>
       <use xlink:href="#DejaVuSans-30"/>
       <use xlink:href="#DejaVuSans-2e" x="63.623047"/>
       <use xlink:href="#DejaVuSans-32" x="95.410156"/>
      </g>
     </g>
    </g>
    <g id="xtick_3">
     <g id="line2d_3">
      <g>
       <use xlink:href="#m055a1b93d2" x="445.581818" y="384.48" style="stroke: #000000; stroke-width: 0.8"/>
      </g>
     </g>
     <g id="text_3">
      <!-- 0.4 -->
      <g transform="translate(437.630256 399.078438)scale(0.1 -0.1)">
       <defs>
        <path id="DejaVuSans-34" d="M 2419 4116 
L 825 1625 
L 2419 1625 
L 2419 4116 
z
M 2253 4666 
L 3047 4666 
L 3047 1625 
L 3713 1625 
L 3713 1100 
L 3047 1100 
L 3047 0 
L 2419 0 
L 2419 1100 
L 313 1100 
L 313 1709 
L 2253 4666 
z
" transform="scale(0.015625)"/>
       </defs>
       <use xlink:href="#DejaVuSans-30"/>
       <use xlink:href="#DejaVuSans-2e" x="63.623047"/>
       <use xlink:href="#DejaVuSans-34" x="95.410156"/>
      </g>
     </g>
    </g>
    <g id="xtick_4">
     <g id="line2d_4">
      <g>
       <use xlink:href="#m055a1b93d2" x="587.618182" y="384.48" style="stroke: #000000; stroke-width: 0.8"/>
      </g>
     </g>
     <g id="text_4">
      <!-- 0.6 -->
      <g transform="translate(579.666619 399.078438)scale(0.1 -0.1)">
       <defs>
        <path id="DejaVuSans-36" d="M 2113 2584 
Q 1688 2584 1439 2293 
Q 1191 2003 1191 1497 
Q 1191 994 1439 701 
Q 1688 409 2113 409 
Q 2538 409 2786 701 
Q 3034 994 3034 1497 
Q 3034 2003 2786 2293 
Q 2538 2584 2113 2584 
z
M 3366 4563 
L 3366 3988 
Q 3128 4100 2886 4159 
Q 2644 4219 2406 4219 
Q 1781 4219 1451 3797 
Q 1122 3375 1075 2522 
Q 1259 2794 1537 2939 
Q 1816 3084 2150 3084 
Q 2853 3084 3261 2657 
Q 3669 2231 3669 1497 
Q 3669 778 3244 343 
Q 2819 -91 2113 -91 
Q 1303 -91 875 529 
Q 447 1150 447 2328 
Q 447 3434 972 4092 
Q 1497 4750 2381 4750 
Q 2619 4750 2861 4703 
Q 3103 4656 3366 4563 
z
" transform="scale(0.015625)"/>
       </defs>
       <use xlink:href="#DejaVuSans-30"/>
       <use xlink:href="#DejaVuSans-2e" x="63.623047"/>
       <use xlink:href="#DejaVuSans-36" x="95.410156"/>
      </g>
     </g>
    </g>
    <g id="xtick_5">
     <g id="line2d_5">
      <g>
       <use xlink:href="#m055a1b93d2" x="729.654545" y="384.48" style="stroke: #000000; stroke-width: 0.8"/>
      </g>
     </g>
     <g id="text_5">
      <!-- 0.8 -->
      <g transform="translate(721.702983 399.078438)scale(0.1 -0.1)">
       <defs>
        <path id="DejaVuSans-38" d="M 2034 2216 
Q 1584 2216 1326 1975 
Q 1069 1734 1069 1313 
Q 1069 891 1326 650 
Q 1584 409 2034 409 
Q 2484 409 2743 651 
Q 3003 894 3003 1313 
Q 3003 1734 2745 1975 
Q 2488 2216 2034 2216 
z
M 1403 2484 
Q 997 2584 770 2862 
Q 544 3141 544 3541 
Q 544 4100 942 4425 
Q 1341 4750 2034 4750 
Q 2731 4750 3128 4425 
Q 3525 4100 3525 3541 
Q 3525 3141 3298 2862 
Q 3072 2584 2669 2484 
Q 3125 2378 3379 2068 
Q 3634 1759 3634 1313 
Q 3634 634 3220 271 
Q 2806 -91 2034 -91 
Q 1263 -91 848 271 
Q 434 634 434 1313 
Q 434 1759 690 2068 
Q 947 2378 1403 2484 
z
M 1172 3481 
Q 1172 3119 1398 2916 
Q 1625 2713 2034 2713 
Q 2441 2713 2670 2916 
Q 2900 3119 2900 3481 
Q 2900 3844 2670 4047 
Q 2441 4250 2034 4250 
Q 1625 4250 1398 4047 
Q 1172 3844 1172 3481 
z
" transform="scale(0.015625)"/>
       </defs>
       <use xlink:href="#DejaVuSans-30"/>
       <use xlink:href="#DejaVuSans-2e" x="63.623047"/>
       <use xlink:href="#DejaVuSans-38" x="95.410156"/>
      </g>
     </g>
    </g>
    <g id="xtick_6">
     <g id="line2d_6">
      <g>
       <use xlink:href="#m055a1b93d2" x="871.690909" y="384.48" style="stroke: #000000; stroke-width: 0.8"/>
      </g>
     </g>
     <g id="text_6">
      <!-- 1.0 -->
      <g transform="translate(863.739347 399.078438)scale(0.1 -0.1)">
       <defs>
        <path id="DejaVuSans-31" d="M 794 531 
L 1825 531 
L 1825 4091 
L 703 3866 
L 703 4441 
L 1819 4666 
L 2450 4666 
L 2450 531 
L 3481 531 
L 3481 0 
L 794 0 
L 794 531 
z
" transform="scale(0.015625)"/>
       </defs>
       <use xlink:href="#DejaVuSans-31"/>
       <use xlink:href="#DejaVuSans-2e" x="63.623047"/>
       <use xlink:href="#DejaVuSans-30" x="95.410156"/>
      </g>
     </g>
    </g>
    <g id="text_7">
     <!-- Time -->
     <g transform="translate(504.366406 412.756563)scale(0.1 -0.1)">
      <defs>
       <path id="DejaVuSans-54" d="M -19 4666 
L 3928 4666 
L 3928 4134 
L 2272 4134 
L 2272 0 
L 1638 0 
L 1638 4134 
L -19 4134 
L -19 4666 
z
" transform="scale(0.015625)"/>
       <path id="DejaVuSans-69" d="M 603 3500 
L 1178 3500 
L 1178 0 
L 603 0 
L 603 3500 
z
M 603 4863 
L 1178 4863 
L 1178 4134 
L 603 4134 
L 603 4863 
z
" transform="scale(0.015625)"/>
       <path id="DejaVuSans-6d" d="M 3328 2828 
Q 3544 3216 3844 3400 
Q 4144 3584 4550 3584 
Q 5097 3584 5394 3201 
Q 5691 2819 5691 2113 
L 5691 0 
L 5113 0 
L 5113 2094 
Q 5113 2597 4934 2840 
Q 4756 3084 4391 3084 
Q 3944 3084 3684 2787 
Q 3425 2491 3425 1978 
L 3425 0 
L 2847 0 
L 2847 2094 
Q 2847 2600 2669 2842 
Q 2491 3084 2119 3084 
Q 1678 3084 1418 2786 
Q 1159 2488 1159 1978 
L 1159 0 
L 581 0 
L 581 3500 
L 1159 3500 
L 1159 2956 
Q 1356 3278 1631 3431 
Q 1906 3584 2284 3584 
Q 2666 3584 2933 3390 
Q 3200 3197 3328 2828 
z
" transform="scale(0.015625)"/>
       <path id="DejaVuSans-65" d="M 3597 1894 
L 3597 1613 
L 953 1613 
Q 991 1019 1311 708 
Q 1631 397 2203 397 
Q 2534 397 2845 478 
Q 3156 559 3463 722 
L 3463 178 
Q 3153 47 2828 -22 
Q 2503 -91 2169 -91 
Q 1331 -91 842 396 
Q 353 884 353 1716 
Q 353 2575 817 3079 
Q 1281 3584 2069 3584 
Q 2775 3584 3186 3129 
Q 3597 2675 3597 1894 
z
M 3022 2063 
Q 3016 2534 2758 2815 
Q 2500 3097 2075 3097 
Q 1594 3097 1305 2825 
Q 1016 2553 972 2059 
L 3022 2063 
z
" transform="scale(0.015625)"/>
      </defs>
      <use xlink:href="#DejaVuSans-54"/>
      <use xlink:href="#DejaVuSans-69" x="57.958984"/>
      <use xlink:href="#DejaVuSans-6d" x="85.742188"/>
      <use xlink:href="#DejaVuSans-65" x="183.154297"/>
     </g>
    </g>
   </g>
   <g id="matplotlib.axis_2">
    <g id="ytick_1">
     <g id="line2d_7">
      <defs>
       <path id="med65529af9" d="M 0 0 
L -3.5 0 
" style="stroke: #000000; stroke-width: 0.8"/>
      </defs>
      <g>
       <use xlink:href="#med65529af9" x="126" y="369.732674" style="stroke: #000000; stroke-width: 0.8"/>
      </g>
     </g>
     <g id="text_8">
      <!-- 0.0 -->
      <g transform="translate(103.096875 373.531892)scale(0.1 -0.1)">
       <use xlink:href="#DejaVuSans-30"/>
       <use xlink:href="#DejaVuSans-2e" x="63.623047"/>
       <use xlink:href="#DejaVuSans-30" x="95.410156"/>
      </g>
     </g>
    </g>
    <g id="ytick_2">
     <g id="line2d_8">
      <g>
       <use xlink:href="#med65529af9" x="126" y="330.62237" style="stroke: #000000; stroke-width: 0.8"/>
      </g>
     </g>
     <g id="text_9">
      <!-- 0.2 -->
      <g transform="translate(103.096875 334.421589)scale(0.1 -0.1)">
       <use xlink:href="#DejaVuSans-30"/>
       <use xlink:href="#DejaVuSans-2e" x="63.623047"/>
       <use xlink:href="#DejaVuSans-32" x="95.410156"/>
      </g>
     </g>
    </g>
    <g id="ytick_3">
     <g id="line2d_9">
      <g>
       <use xlink:href="#med65529af9" x="126" y="291.512066" style="stroke: #000000; stroke-width: 0.8"/>
      </g>
     </g>
     <g id="text_10">
      <!-- 0.4 -->
      <g transform="translate(103.096875 295.311285)scale(0.1 -0.1)">
       <use xlink:href="#DejaVuSans-30"/>
       <use xlink:href="#DejaVuSans-2e" x="63.623047"/>
       <use xlink:href="#DejaVuSans-34" x="95.410156"/>
      </g>
     </g>
    </g>
    <g id="ytick_4">
     <g id="line2d_10">
      <g>
       <use xlink:href="#med65529af9" x="126" y="252.401762" style="stroke: #000000; stroke-width: 0.8"/>
      </g>
     </g>
     <g id="text_11">
      <!-- 0.6 -->
      <g transform="translate(103.096875 256.200981)scale(0.1 -0.1)">
       <use xlink:href="#DejaVuSans-30"/>
       <use xlink:href="#DejaVuSans-2e" x="63.623047"/>
       <use xlink:href="#DejaVuSans-36" x="95.410156"/>
      </g>
     </g>
    </g>
    <g id="ytick_5">
     <g id="line2d_11">
      <g>
       <use xlink:href="#med65529af9" x="126" y="213.291458" style="stroke: #000000; stroke-width: 0.8"/>
      </g>
     </g>
     <g id="text_12">
      <!-- 0.8 -->
      <g transform="translate(103.096875 217.090677)scale(0.1 -0.1)">
       <use xlink:href="#DejaVuSans-30"/>
       <use xlink:href="#DejaVuSans-2e" x="63.623047"/>
       <use xlink:href="#DejaVuSans-38" x="95.410156"/>
      </g>
     </g>
    </g>
    <g id="ytick_6">
     <g id="line2d_12">
      <g>
       <use xlink:href="#med65529af9" x="126" y="174.181154" style="stroke: #000000; stroke-width: 0.8"/>
      </g>
     </g>
     <g id="text_13">
      <!-- 1.0 -->
      <g transform="translate(103.096875 177.980373)scale(0.1 -0.1)">
       <use xlink:href="#DejaVuSans-31"/>
       <use xlink:href="#DejaVuSans-2e" x="63.623047"/>
       <use xlink:href="#DejaVuSans-30" x="95.410156"/>
      </g>
     </g>
    </g>
    <g id="ytick_7">
     <g id="line2d_13">
      <g>
       <use xlink:href="#med65529af9" x="126" y="135.07085" style="stroke: #000000; stroke-width: 0.8"/>
      </g>
     </g>
     <g id="text_14">
      <!-- 1.2 -->
      <g transform="translate(103.096875 138.870069)scale(0.1 -0.1)">
       <use xlink:href="#DejaVuSans-31"/>
       <use xlink:href="#DejaVuSans-2e" x="63.623047"/>
       <use xlink:href="#DejaVuSans-32" x="95.410156"/>
      </g>
     </g>
    </g>
    <g id="ytick_8">
     <g id="line2d_14">
      <g>
       <use xlink:href="#med65529af9" x="126" y="95.960546" style="stroke: #000000; stroke-width: 0.8"/>
      </g>
     </g>
     <g id="text_15">
      <!-- 1.4 -->
      <g transform="translate(103.096875 99.759765)scale(0.1 -0.1)">
       <use xlink:href="#DejaVuSans-31"/>
       <use xlink:href="#DejaVuSans-2e" x="63.623047"/>
       <use xlink:href="#DejaVuSans-34" x="95.410156"/>
      </g>
     </g>
    </g>
    <g id="ytick_9">
     <g id="line2d_15">
      <g>
       <use xlink:href="#med65529af9" x="126" y="56.850242" style="stroke: #000000; stroke-width: 0.8"/>
      </g>
     </g>
     <g id="text_16">
      <!-- 1.6 -->
      <g transform="translate(103.096875 60.649461)scale(0.1 -0.1)">
       <use xlink:href="#DejaVuSans-31"/>
       <use xlink:href="#DejaVuSans-2e" x="63.623047"/>
       <use xlink:href="#DejaVuSans-36" x="95.410156"/>
      </g>
     </g>
    </g>
    <g id="text_17">
     <!-- Quadratic Covariation -->
     <g transform="translate(97.017187 272.970156)rotate(-90)scale(0.1 -0.1)">
      <defs>
       <path id="DejaVuSans-51" d="M 2522 4238 
Q 1834 4238 1429 3725 
Q 1025 3213 1025 2328 
Q 1025 1447 1429 934 
Q 1834 422 2522 422 
Q 3209 422 3611 934 
Q 4013 1447 4013 2328 
Q 4013 3213 3611 3725 
Q 3209 4238 2522 4238 
z
M 3406 84 
L 4238 -825 
L 3475 -825 
L 2784 -78 
Q 2681 -84 2626 -87 
Q 2572 -91 2522 -91 
Q 1538 -91 948 567 
Q 359 1225 359 2328 
Q 359 3434 948 4092 
Q 1538 4750 2522 4750 
Q 3503 4750 4090 4092 
Q 4678 3434 4678 2328 
Q 4678 1516 4351 937 
Q 4025 359 3406 84 
z
" transform="scale(0.015625)"/>
       <path id="DejaVuSans-75" d="M 544 1381 
L 544 3500 
L 1119 3500 
L 1119 1403 
Q 1119 906 1312 657 
Q 1506 409 1894 409 
Q 2359 409 2629 706 
Q 2900 1003 2900 1516 
L 2900 3500 
L 3475 3500 
L 3475 0 
L 2900 0 
L 2900 538 
Q 2691 219 2414 64 
Q 2138 -91 1772 -91 
Q 1169 -91 856 284 
Q 544 659 544 1381 
z
M 1991 3584 
L 1991 3584 
z
" transform="scale(0.015625)"/>
       <path id="DejaVuSans-61" d="M 2194 1759 
Q 1497 1759 1228 1600 
Q 959 1441 959 1056 
Q 959 750 1161 570 
Q 1363 391 1709 391 
Q 2188 391 2477 730 
Q 2766 1069 2766 1631 
L 2766 1759 
L 2194 1759 
z
M 3341 1997 
L 3341 0 
L 2766 0 
L 2766 531 
Q 2569 213 2275 61 
Q 1981 -91 1556 -91 
Q 1019 -91 701 211 
Q 384 513 384 1019 
Q 384 1609 779 1909 
Q 1175 2209 1959 2209 
L 2766 2209 
L 2766 2266 
Q 2766 2663 2505 2880 
Q 2244 3097 1772 3097 
Q 1472 3097 1187 3025 
Q 903 2953 641 2809 
L 641 3341 
Q 956 3463 1253 3523 
Q 1550 3584 1831 3584 
Q 2591 3584 2966 3190 
Q 3341 2797 3341 1997 
z
" transform="scale(0.015625)"/>
       <path id="DejaVuSans-64" d="M 2906 2969 
L 2906 4863 
L 3481 4863 
L 3481 0 
L 2906 0 
L 2906 525 
Q 2725 213 2448 61 
Q 2172 -91 1784 -91 
Q 1150 -91 751 415 
Q 353 922 353 1747 
Q 353 2572 751 3078 
Q 1150 3584 1784 3584 
Q 2172 3584 2448 3432 
Q 2725 3281 2906 2969 
z
M 947 1747 
Q 947 1113 1208 752 
Q 1469 391 1925 391 
Q 2381 391 2643 752 
Q 2906 1113 2906 1747 
Q 2906 2381 2643 2742 
Q 2381 3103 1925 3103 
Q 1469 3103 1208 2742 
Q 947 2381 947 1747 
z
" transform="scale(0.015625)"/>
       <path id="DejaVuSans-72" d="M 2631 2963 
Q 2534 3019 2420 3045 
Q 2306 3072 2169 3072 
Q 1681 3072 1420 2755 
Q 1159 2438 1159 1844 
L 1159 0 
L 581 0 
L 581 3500 
L 1159 3500 
L 1159 2956 
Q 1341 3275 1631 3429 
Q 1922 3584 2338 3584 
Q 2397 3584 2469 3576 
Q 2541 3569 2628 3553 
L 2631 2963 
z
" transform="scale(0.015625)"/>
       <path id="DejaVuSans-74" d="M 1172 4494 
L 1172 3500 
L 2356 3500 
L 2356 3053 
L 1172 3053 
L 1172 1153 
Q 1172 725 1289 603 
Q 1406 481 1766 481 
L 2356 481 
L 2356 0 
L 1766 0 
Q 1100 0 847 248 
Q 594 497 594 1153 
L 594 3053 
L 172 3053 
L 172 3500 
L 594 3500 
L 594 4494 
L 1172 4494 
z
" transform="scale(0.015625)"/>
       <path id="DejaVuSans-63" d="M 3122 3366 
L 3122 2828 
Q 2878 2963 2633 3030 
Q 2388 3097 2138 3097 
Q 1578 3097 1268 2742 
Q 959 2388 959 1747 
Q 959 1106 1268 751 
Q 1578 397 2138 397 
Q 2388 397 2633 464 
Q 2878 531 3122 666 
L 3122 134 
Q 2881 22 2623 -34 
Q 2366 -91 2075 -91 
Q 1284 -91 818 406 
Q 353 903 353 1747 
Q 353 2603 823 3093 
Q 1294 3584 2113 3584 
Q 2378 3584 2631 3529 
Q 2884 3475 3122 3366 
z
" transform="scale(0.015625)"/>
       <path id="DejaVuSans-20" transform="scale(0.015625)"/>
       <path id="DejaVuSans-43" d="M 4122 4306 
L 4122 3641 
Q 3803 3938 3442 4084 
Q 3081 4231 2675 4231 
Q 1875 4231 1450 3742 
Q 1025 3253 1025 2328 
Q 1025 1406 1450 917 
Q 1875 428 2675 428 
Q 3081 428 3442 575 
Q 3803 722 4122 1019 
L 4122 359 
Q 3791 134 3420 21 
Q 3050 -91 2638 -91 
Q 1578 -91 968 557 
Q 359 1206 359 2328 
Q 359 3453 968 4101 
Q 1578 4750 2638 4750 
Q 3056 4750 3426 4639 
Q 3797 4528 4122 4306 
z
" transform="scale(0.015625)"/>
       <path id="DejaVuSans-6f" d="M 1959 3097 
Q 1497 3097 1228 2736 
Q 959 2375 959 1747 
Q 959 1119 1226 758 
Q 1494 397 1959 397 
Q 2419 397 2687 759 
Q 2956 1122 2956 1747 
Q 2956 2369 2687 2733 
Q 2419 3097 1959 3097 
z
M 1959 3584 
Q 2709 3584 3137 3096 
Q 3566 2609 3566 1747 
Q 3566 888 3137 398 
Q 2709 -91 1959 -91 
Q 1206 -91 779 398 
Q 353 888 353 1747 
Q 353 2609 779 3096 
Q 1206 3584 1959 3584 
z
" transform="scale(0.015625)"/>
       <path id="DejaVuSans-76" d="M 191 3500 
L 800 3500 
L 1894 563 
L 2988 3500 
L 3597 3500 
L 2284 0 
L 1503 0 
L 191 3500 
z
" transform="scale(0.015625)"/>
       <path id="DejaVuSans-6e" d="M 3513 2113 
L 3513 0 
L 2938 0 
L 2938 2094 
Q 2938 2591 2744 2837 
Q 2550 3084 2163 3084 
Q 1697 3084 1428 2787 
Q 1159 2491 1159 1978 
L 1159 0 
L 581 0 
L 581 3500 
L 1159 3500 
L 1159 2956 
Q 1366 3272 1645 3428 
Q 1925 3584 2291 3584 
Q 2894 3584 3203 3211 
Q 3513 2838 3513 2113 
z
" transform="scale(0.015625)"/>
      </defs>
      <use xlink:href="#DejaVuSans-51"/>
      <use xlink:href="#DejaVuSans-75" x="78.710938"/>
      <use xlink:href="#DejaVuSans-61" x="142.089844"/>
      <use xlink:href="#DejaVuSans-64" x="203.369141"/>
      <use xlink:href="#DejaVuSans-72" x="266.845703"/>
      <use xlink:href="#DejaVuSans-61" x="307.958984"/>
      <use xlink:href="#DejaVuSans-74" x="369.238281"/>
      <use xlink:href="#DejaVuSans-69" x="408.447266"/>
      <use xlink:href="#DejaVuSans-63" x="436.230469"/>
      <use xlink:href="#DejaVuSans-20" x="491.210938"/>
      <use xlink:href="#DejaVuSans-43" x="522.998047"/>
      <use xlink:href="#DejaVuSans-6f" x="592.822266"/>
      <use xlink:href="#DejaVuSans-76" x="654.003906"/>
      <use xlink:href="#DejaVuSans-61" x="713.183594"/>
      <use xlink:href="#DejaVuSans-72" x="774.462891"/>
      <use xlink:href="#DejaVuSans-69" x="815.576172"/>
      <use xlink:href="#DejaVuSans-61" x="843.359375"/>
      <use xlink:href="#DejaVuSans-74" x="904.638672"/>
      <use xlink:href="#DejaVuSans-69" x="943.847656"/>
      <use xlink:href="#DejaVuSans-6f" x="971.630859"/>
      <use xlink:href="#DejaVuSans-6e" x="1032.8125"/>
     </g>
    </g>
   </g>
   <g id="line2d_16">
    <path d="M 161.509091 174.181154 
L 162.929455 189.783447 
L 163.639636 187.583083 
L 164.349818 191.494626 
L 165.06 183.654353 
L 165.770182 184.62257 
L 166.480364 188.424988 
L 167.190545 199.783131 
L 167.900727 197.572989 
L 168.610909 205.187351 
L 169.321091 205.427397 
L 170.031273 204.293999 
L 170.741455 216.33227 
L 171.451636 213.096302 
L 172.161818 203.390522 
L 172.872 189.064317 
L 173.582182 188.280637 
L 174.292364 197.923356 
L 175.002545 192.329194 
L 175.712727 182.211024 
L 176.422909 179.619776 
L 177.843273 187.755586 
L 178.553455 183.622773 
L 179.263636 175.377674 
L 179.973818 178.507403 
L 180.684 188.358916 
L 181.394182 182.278106 
L 182.104364 180.673882 
L 183.524727 166.615135 
L 184.945091 175.376807 
L 185.655273 172.189687 
L 186.365455 179.512558 
L 187.075636 178.754906 
L 187.785818 169.799423 
L 188.496 178.457513 
L 189.206182 189.297345 
L 189.916364 187.821785 
L 190.626545 195.737959 
L 191.336727 187.56853 
L 192.046909 176.915777 
L 192.757091 196.460805 
L 193.467273 202.213655 
L 194.177455 206.74722 
L 194.887636 197.017726 
L 195.597818 195.265101 
L 196.308 200.167573 
L 197.018182 200.423616 
L 197.728364 208.407223 
L 198.438545 209.977884 
L 199.148727 203.765004 
L 199.858909 199.377131 
L 200.569091 187.856592 
L 201.279273 186.530781 
L 201.989455 188.834676 
L 202.699636 184.12713 
L 203.409818 191.395677 
L 204.12 206.037123 
L 204.830182 196.014752 
L 205.540364 193.93733 
L 206.250545 196.813937 
L 206.960727 203.965486 
L 207.670909 203.472229 
L 208.381091 213.753388 
L 209.091273 206.093889 
L 209.801455 202.046724 
L 210.511636 196.623965 
L 211.221818 193.79637 
L 211.932 184.531739 
L 213.352364 173.268881 
L 214.062545 172.318922 
L 214.772727 168.66054 
L 215.482909 179.2699 
L 216.193091 173.944936 
L 216.903273 177.511994 
L 217.613455 171.579674 
L 218.323636 170.208878 
L 219.033818 172.847531 
L 219.744 177.597021 
L 220.454182 176.637548 
L 221.164364 175.93552 
L 221.874545 180.855838 
L 222.584727 189.061461 
L 223.294909 206.940898 
L 224.005091 209.455003 
L 224.715273 208.512811 
L 225.425455 211.379239 
L 226.135636 203.120672 
L 226.845818 212.25126 
L 227.556 223.449512 
L 228.976364 235.003627 
L 229.686545 233.122884 
L 230.396727 228.888485 
L 231.106909 229.958427 
L 231.817091 230.679105 
L 232.527273 229.649562 
L 233.237455 225.274935 
L 233.947636 228.375771 
L 234.657818 225.755292 
L 235.368 223.683357 
L 236.078182 219.052116 
L 236.788364 218.339072 
L 237.498545 226.905747 
L 238.208727 222.755348 
L 238.918909 215.070871 
L 239.629091 214.956912 
L 240.339273 215.668247 
L 241.049455 209.231727 
L 241.759636 207.31409 
L 242.469818 204.289019 
L 243.18 202.044208 
L 243.890182 198.100314 
L 244.600364 201.007894 
L 245.310545 192.345386 
L 246.020727 197.542783 
L 246.730909 194.780012 
L 247.441091 194.847233 
L 248.151273 188.717286 
L 248.861455 204.462091 
L 249.571636 205.47349 
L 250.281818 209.96435 
L 250.992 210.095561 
L 251.702182 208.601307 
L 252.412364 208.569508 
L 253.122545 208.670691 
L 253.832727 203.272897 
L 254.542909 207.277208 
L 255.253091 210.141193 
L 255.963273 222.442434 
L 256.673455 231.723535 
L 257.383636 225.419475 
L 258.093818 222.582978 
L 258.804 214.688377 
L 260.224364 215.999455 
L 260.934545 213.845554 
L 261.644727 213.894416 
L 262.354909 216.482961 
L 263.065091 216.848907 
L 263.775273 216.921651 
L 264.485455 222.863462 
L 265.195636 217.856744 
L 265.905818 209.715444 
L 266.616 208.339953 
L 267.326182 211.671747 
L 268.036364 201.257132 
L 268.746545 209.223698 
L 269.456727 206.525691 
L 270.166909 210.268787 
L 270.877091 208.277224 
L 271.587273 214.492408 
L 272.297455 212.101498 
L 273.007636 224.618521 
L 273.717818 226.597482 
L 274.428 234.916801 
L 275.138182 224.012333 
L 275.848364 216.031727 
L 276.558545 204.304191 
L 277.268727 206.314397 
L 277.978909 201.358238 
L 278.689091 204.814365 
L 279.399273 203.997296 
L 280.109455 195.900956 
L 280.819636 194.868208 
L 281.529818 189.160296 
L 282.24 182.240424 
L 282.950182 169.434481 
L 283.660364 176.487622 
L 284.370545 172.605538 
L 285.080727 172.585628 
L 285.790909 177.880861 
L 286.501091 174.161181 
L 287.211273 174.966413 
L 287.921455 187.267571 
L 288.631636 190.653035 
L 289.341818 195.22639 
L 290.052 192.907435 
L 290.762182 182.821723 
L 291.472364 188.795173 
L 292.182545 178.381261 
L 292.892727 185.321407 
L 293.602909 188.028887 
L 294.313091 175.108071 
L 295.023273 169.992139 
L 295.733455 169.094596 
L 296.443636 167.463795 
L 297.153818 172.873262 
L 297.864 171.840598 
L 298.574182 169.36974 
L 299.284364 177.606263 
L 299.994545 174.034076 
L 300.704727 171.998208 
L 301.414909 181.770609 
L 302.125091 186.559154 
L 302.835273 177.602288 
L 303.545455 182.456838 
L 304.255636 173.782837 
L 304.965818 160.495383 
L 306.386182 167.780431 
L 307.096364 176.122226 
L 307.806545 168.718051 
L 308.516727 165.467505 
L 309.226909 175.977502 
L 309.937091 177.308955 
L 310.647273 162.171755 
L 311.357455 156.848484 
L 312.067636 146.669738 
L 312.777818 151.727675 
L 313.488 144.045653 
L 314.198182 141.299821 
L 314.908364 142.860023 
L 316.328727 160.379663 
L 317.038909 167.213137 
L 317.749091 153.171755 
L 318.459273 156.733243 
L 319.169455 163.27734 
L 319.879636 163.847569 
L 320.589818 159.315796 
L 321.3 159.874981 
L 322.010182 160.704682 
L 322.720364 164.334052 
L 323.430545 157.137882 
L 324.140727 157.923511 
L 324.850909 157.437942 
L 325.561091 161.88401 
L 326.271273 168.32826 
L 326.981455 171.087745 
L 327.691636 173.256051 
L 328.401818 167.435526 
L 329.112 171.672992 
L 329.822182 164.913488 
L 330.532364 167.408975 
L 331.242545 163.399326 
L 331.952727 167.141092 
L 332.662909 163.385625 
L 333.373091 155.215763 
L 334.083273 159.705408 
L 334.793455 156.834614 
L 335.503636 170.387786 
L 336.213818 169.095005 
L 336.924 163.238221 
L 337.634182 170.094015 
L 338.344364 171.525397 
L 339.054545 166.008149 
L 339.764727 163.435022 
L 340.474909 157.452134 
L 341.895273 155.65651 
L 342.605455 156.667051 
L 343.315636 161.01265 
L 344.025818 162.594053 
L 344.736 155.841961 
L 345.446182 170.032387 
L 346.156364 169.918578 
L 347.576727 159.142473 
L 348.286909 161.569636 
L 348.997091 155.091561 
L 349.707273 145.514146 
L 351.127636 156.681585 
L 351.837818 159.026462 
L 352.548 167.778657 
L 353.258182 157.001211 
L 353.968364 155.023606 
L 354.678545 153.643271 
L 355.388727 149.233144 
L 356.098909 156.077056 
L 356.809091 164.592731 
L 357.519273 171.466752 
L 358.229455 171.591118 
L 358.939636 170.892814 
L 359.649818 177.984267 
L 360.36 175.03832 
L 361.070182 173.157463 
L 361.780364 173.430258 
L 362.490545 162.936546 
L 363.200727 164.260315 
L 363.910909 165.115855 
L 364.621091 161.69603 
L 365.331273 168.030276 
L 366.041455 157.729301 
L 366.751636 164.098609 
L 367.461818 157.12912 
L 368.172 163.520458 
L 368.882182 165.16935 
L 369.592364 163.130808 
L 370.302545 157.007645 
L 371.012727 154.6793 
L 371.722909 161.081304 
L 372.433091 149.924446 
L 373.143273 140.963378 
L 373.853455 142.322772 
L 374.563636 135.529729 
L 375.273818 136.233098 
L 375.984 142.484348 
L 376.694182 146.627802 
L 377.404364 149.887547 
L 378.114545 148.995872 
L 378.824727 154.100286 
L 379.534909 149.935715 
L 380.245091 144.668017 
L 380.955273 145.752804 
L 381.665455 144.400075 
L 382.375636 152.003863 
L 383.085818 141.937341 
L 383.796 138.824084 
L 384.506182 146.01761 
L 385.216364 145.060965 
L 385.926545 140.190673 
L 386.636727 137.412383 
L 388.057091 130.240445 
L 388.767273 120.418231 
L 389.477455 130.887238 
L 390.187636 130.164965 
L 390.897818 124.15914 
L 391.608 122.594608 
L 392.318182 115.684555 
L 393.028364 124.217075 
L 393.738545 122.632338 
L 394.448727 124.659376 
L 395.158909 118.774346 
L 395.869091 119.35821 
L 396.579273 129.383615 
L 397.999636 119.478805 
L 398.709818 122.116939 
L 399.42 122.080895 
L 400.130182 121.114595 
L 400.840364 122.543643 
L 401.550545 126.231722 
L 402.260727 120.383481 
L 402.970909 133.753241 
L 403.681091 136.392264 
L 404.391273 141.900153 
L 405.101455 136.768934 
L 405.811636 133.325772 
L 407.232 123.29891 
L 407.942182 122.543254 
L 408.652364 128.787111 
L 409.362545 137.510616 
L 410.072727 137.329963 
L 410.782909 124.044776 
L 411.493091 123.420076 
L 412.203273 126.575644 
L 412.913455 123.393172 
L 413.623636 128.932486 
L 414.333818 132.399835 
L 415.044 132.623277 
L 416.464364 140.156565 
L 417.174545 143.265665 
L 417.884727 145.11237 
L 418.594909 139.256438 
L 419.305091 125.310823 
L 420.015273 136.186242 
L 420.725455 138.838391 
L 421.435636 136.508751 
L 422.145818 131.967615 
L 422.856 146.057206 
L 423.566182 145.197969 
L 424.276364 157.474037 
L 424.986545 158.825079 
L 426.406909 143.240355 
L 427.117091 143.1817 
L 427.827273 133.393338 
L 428.537455 136.555824 
L 429.247636 138.312054 
L 429.957818 134.887519 
L 430.668 133.559374 
L 431.378182 135.387752 
L 432.088364 128.599263 
L 432.798545 127.010912 
L 433.508727 127.987444 
L 434.218909 125.509946 
L 434.929091 125.453035 
L 435.639273 128.843397 
L 436.349455 127.887634 
L 437.059636 132.583178 
L 437.769818 152.410717 
L 438.48 142.057403 
L 439.190182 141.917269 
L 439.900364 146.387172 
L 440.610545 147.27276 
L 441.320727 143.511444 
L 442.030909 140.677372 
L 442.741091 140.983699 
L 443.451273 150.960754 
L 444.161455 165.743535 
L 444.871636 160.419869 
L 445.581818 153.578235 
L 446.292 149.343205 
L 447.002182 160.810586 
L 447.712364 156.289011 
L 448.422545 158.407586 
L 449.132727 162.753202 
L 449.842909 165.890805 
L 450.553091 171.477441 
L 451.263273 162.035013 
L 451.973455 164.195626 
L 452.683636 156.395833 
L 453.393818 145.344188 
L 454.104 140.382201 
L 454.814182 141.004109 
L 455.524364 144.165882 
L 456.234545 143.094668 
L 456.944727 148.894251 
L 457.654909 151.984352 
L 458.365091 143.966744 
L 459.075273 140.597639 
L 459.785455 139.202551 
L 460.495636 136.19388 
L 461.205818 128.546639 
L 461.916 140.448324 
L 462.626182 147.838589 
L 463.336364 142.741073 
L 464.046545 149.41762 
L 464.756727 149.581619 
L 465.466909 152.435291 
L 466.177091 148.705688 
L 466.887273 132.54846 
L 467.597455 133.059387 
L 468.307636 126.454876 
L 469.017818 130.063557 
L 469.728 137.914693 
L 470.438182 133.162595 
L 471.148364 138.876148 
L 471.858545 137.942683 
L 472.568727 135.485045 
L 473.278909 131.523171 
L 473.989091 131.480005 
L 474.699273 140.274308 
L 475.409455 143.267465 
L 476.119636 145.355271 
L 476.829818 150.038499 
L 477.54 141.988567 
L 478.250182 142.376954 
L 478.960364 140.834538 
L 480.380727 140.536012 
L 481.090909 149.137345 
L 481.801091 149.477962 
L 482.511273 149.164986 
L 483.931636 140.394282 
L 484.641818 145.963459 
L 485.352 142.556161 
L 486.062182 144.853977 
L 487.482545 135.429044 
L 488.192727 141.099821 
L 488.902909 140.725186 
L 489.613091 128.922142 
L 490.323273 128.064547 
L 491.033455 123.019189 
L 491.743636 125.411554 
L 492.453818 125.291424 
L 493.874182 118.868873 
L 494.584364 120.016836 
L 495.294545 128.357828 
L 496.004727 119.029157 
L 497.425091 112.034151 
L 498.135273 104.610704 
L 498.845455 104.663883 
L 499.555636 111.951464 
L 500.265818 120.608076 
L 500.976 125.478487 
L 501.686182 133.336089 
L 502.396364 127.980323 
L 503.106545 124.228018 
L 503.816727 122.513151 
L 504.526909 125.62997 
L 505.237091 126.200558 
L 505.947273 119.822147 
L 506.657455 117.575328 
L 507.367636 123.973297 
L 508.077818 119.383588 
L 508.788 123.206883 
L 509.498182 116.026844 
L 510.208364 118.330492 
L 510.918545 123.230933 
L 511.628727 122.092951 
L 512.338909 129.143311 
L 513.049091 119.762897 
L 513.759273 126.443605 
L 514.469455 117.738996 
L 515.179636 126.952387 
L 515.889818 119.747722 
L 516.6 125.593249 
L 517.310182 135.98149 
L 518.020364 134.004028 
L 518.730545 137.634036 
L 519.440727 142.106356 
L 520.861091 126.173449 
L 521.571273 114.283226 
L 522.281455 112.79638 
L 522.991636 119.307154 
L 523.701818 121.748769 
L 524.412 120.686604 
L 525.122182 118.597658 
L 525.832364 129.167157 
L 526.542545 119.187273 
L 527.252727 118.855516 
L 527.962909 117.834676 
L 528.673091 115.866877 
L 529.383273 118.761196 
L 530.093455 118.547389 
L 530.803636 110.402628 
L 531.513818 124.823966 
L 532.224 135.26959 
L 532.934182 141.021059 
L 533.644364 134.870432 
L 534.354545 138.270583 
L 535.064727 140.865347 
L 535.774909 142.810841 
L 536.485091 144.292436 
L 537.195273 147.813332 
L 537.905455 143.012524 
L 538.615636 132.335474 
L 539.325818 131.2329 
L 540.036 138.632865 
L 540.746182 155.799404 
L 541.456364 162.448034 
L 542.166545 163.864 
L 542.876727 171.867491 
L 543.586909 166.298262 
L 544.297091 162.046945 
L 545.007273 151.291157 
L 545.717455 155.035348 
L 546.427636 154.473826 
L 547.137818 156.769058 
L 547.848 160.275126 
L 548.558182 158.912464 
L 549.268364 151.456012 
L 549.978545 149.989507 
L 550.688727 146.366261 
L 551.398909 155.410741 
L 552.109091 159.661166 
L 552.819273 172.273898 
L 553.529455 172.266259 
L 554.949818 165.309683 
L 555.66 166.809527 
L 556.370182 164.656043 
L 557.080364 165.329339 
L 557.790545 163.439892 
L 558.500727 160.895294 
L 559.210909 165.495182 
L 559.921091 163.139229 
L 560.631273 161.200409 
L 561.341455 157.20644 
L 562.051636 154.908794 
L 562.761818 157.922787 
L 564.182182 175.873496 
L 564.892364 181.275329 
L 565.602545 190.419265 
L 566.312727 187.715469 
L 567.022909 189.695337 
L 567.733091 177.786324 
L 568.443273 190.388271 
L 569.153455 197.078152 
L 569.863636 201.971692 
L 570.573818 203.937444 
L 571.284 196.926496 
L 571.994182 201.062832 
L 573.414545 189.480222 
L 574.124727 192.056561 
L 574.834909 192.169095 
L 575.545091 191.091275 
L 576.255273 194.331298 
L 576.965455 182.105881 
L 577.675636 188.605227 
L 578.385818 188.710168 
L 579.096 191.753924 
L 579.806182 190.254013 
L 580.516364 187.897661 
L 581.226545 195.127131 
L 581.936727 191.564564 
L 582.646909 185.662881 
L 583.357091 190.43252 
L 584.067273 192.269264 
L 584.777455 202.096294 
L 585.487636 209.616482 
L 586.197818 207.622771 
L 586.908 217.445262 
L 587.618182 215.451526 
L 588.328364 211.335221 
L 589.038545 209.576707 
L 589.748727 201.454615 
L 590.458909 204.854809 
L 591.169091 202.409366 
L 591.879273 204.406038 
L 592.589455 199.055147 
L 593.299636 191.041182 
L 594.009818 191.039199 
L 594.72 181.986372 
L 595.430182 165.394435 
L 596.850545 166.547867 
L 597.560727 167.755781 
L 598.270909 171.692068 
L 598.981091 170.430044 
L 599.691273 171.902456 
L 600.401455 170.037403 
L 601.111636 169.288264 
L 601.821818 179.556975 
L 602.532 173.754117 
L 603.242182 166.044038 
L 603.952364 165.54578 
L 604.662545 166.419788 
L 605.372727 158.956532 
L 606.082909 152.930912 
L 606.793091 149.834595 
L 607.503273 143.681881 
L 608.213455 138.914762 
L 608.923636 135.442478 
L 609.633818 141.59114 
L 610.344 133.329934 
L 611.054182 123.631526 
L 611.764364 119.828122 
L 612.474545 113.237848 
L 613.184727 123.727834 
L 613.894909 125.150845 
L 614.605091 130.431427 
L 615.315273 122.360958 
L 616.735636 103.801964 
L 617.445818 87.67952 
L 618.156 92.803845 
L 618.866182 94.800296 
L 619.576364 91.371571 
L 620.286545 78.719597 
L 620.996727 77.866371 
L 621.706909 85.057236 
L 622.417091 84.362534 
L 623.127273 88.371734 
L 623.837455 85.4627 
L 624.547636 95.822802 
L 625.257818 87.38108 
L 625.968 92.071359 
L 626.678182 99.534943 
L 628.098545 100.629466 
L 628.808727 102.949941 
L 629.518909 103.085549 
L 630.229091 106.399173 
L 630.939273 107.37969 
L 631.649455 107.904172 
L 632.359636 115.327503 
L 633.069818 119.067889 
L 633.78 118.670827 
L 634.490182 115.262706 
L 635.200364 119.536569 
L 635.910545 133.037062 
L 636.620727 124.748791 
L 637.330909 135.192591 
L 638.041091 132.832175 
L 638.751273 136.073369 
L 639.461455 140.192521 
L 640.171636 145.592179 
L 640.881818 138.724073 
L 641.592 134.338527 
L 642.302182 135.011936 
L 643.012364 138.297342 
L 643.722545 148.157528 
L 644.432727 141.387081 
L 645.142909 132.233314 
L 645.853091 130.25644 
L 646.563273 127.742491 
L 647.273455 127.097015 
L 647.983636 124.04573 
L 648.693818 135.968235 
L 649.404 129.898826 
L 650.114182 131.376862 
L 650.824364 120.507286 
L 652.244727 108.512337 
L 653.665091 120.352482 
L 654.375273 120.749925 
L 655.085455 131.082191 
L 655.795636 130.849747 
L 656.505818 137.521486 
L 657.926182 143.647641 
L 658.636364 137.619809 
L 659.346545 142.837027 
L 660.056727 140.643119 
L 660.766909 145.065602 
L 661.477091 152.894882 
L 662.187273 151.206467 
L 662.897455 151.154951 
L 663.607636 147.564786 
L 664.317818 137.048903 
L 665.028 131.400339 
L 665.738182 138.24448 
L 666.448364 135.275011 
L 667.158545 133.451784 
L 667.868727 136.84103 
L 668.578909 138.7466 
L 669.289091 140.24439 
L 669.999273 130.056359 
L 670.709455 140.654958 
L 671.419636 142.162637 
L 672.129818 133.967376 
L 672.84 138.360295 
L 673.550182 146.945178 
L 674.970545 158.023032 
L 675.680727 159.345554 
L 676.390909 167.208574 
L 677.101091 168.34216 
L 677.811273 161.536383 
L 678.521455 170.367829 
L 679.231636 162.117998 
L 679.941818 162.935125 
L 680.652 155.718416 
L 681.362182 159.61813 
L 682.072364 160.106996 
L 682.782545 159.991224 
L 683.492727 145.4216 
L 684.202909 146.510519 
L 684.913091 152.830762 
L 685.623273 146.121265 
L 686.333455 143.918537 
L 687.043636 150.526498 
L 687.753818 148.818734 
L 688.464 157.688324 
L 689.884364 152.062904 
L 690.594545 151.769573 
L 691.304727 164.698956 
L 692.014909 167.980942 
L 692.725091 169.470793 
L 693.435273 172.064256 
L 694.145455 173.981839 
L 694.855636 180.485646 
L 695.565818 177.677675 
L 696.276 191.510391 
L 696.986182 182.672872 
L 697.696364 175.756521 
L 698.406545 166.826639 
L 699.116727 155.28589 
L 700.537091 139.901941 
L 701.247273 147.480955 
L 701.957455 148.174923 
L 702.667636 151.906471 
L 703.377818 163.093485 
L 704.088 162.097408 
L 704.798182 164.955197 
L 705.508364 164.303515 
L 706.218545 164.152234 
L 706.928727 163.23713 
L 707.638909 161.082834 
L 708.349091 163.2237 
L 709.059273 159.559314 
L 709.769455 166.95933 
L 710.479636 168.095118 
L 711.189818 168.35292 
L 711.9 166.794833 
L 712.610182 165.600878 
L 713.320364 170.887041 
L 714.030545 162.685689 
L 714.740727 163.260908 
L 716.161091 153.599925 
L 716.871273 160.25749 
L 717.581455 152.492483 
L 718.291636 165.479655 
L 719.001818 160.508207 
L 719.712 162.25719 
L 720.422182 168.241788 
L 721.132364 162.535375 
L 721.842545 161.136914 
L 722.552727 164.224765 
L 723.262909 166.26425 
L 723.973091 166.872655 
L 724.683273 166.898497 
L 725.393455 158.897411 
L 726.103636 146.583336 
L 726.813818 141.701488 
L 727.524 146.183518 
L 728.234182 144.267017 
L 728.944364 148.987154 
L 729.654545 156.646644 
L 730.364727 165.977903 
L 732.495273 148.084848 
L 733.915636 151.187364 
L 734.625818 146.043561 
L 735.336 154.612025 
L 736.046182 146.405826 
L 736.756364 155.792414 
L 737.466545 157.79477 
L 738.176727 158.559951 
L 738.886909 153.845851 
L 739.597091 150.358101 
L 740.307273 148.060593 
L 741.017455 137.812346 
L 741.727636 133.705624 
L 742.437818 136.498718 
L 743.148 129.095776 
L 743.858182 132.217815 
L 744.568364 138.527226 
L 745.278545 133.766839 
L 745.988727 134.367942 
L 747.409091 154.111254 
L 748.119273 156.06763 
L 748.829455 162.070973 
L 749.539636 153.429414 
L 750.249818 150.059402 
L 750.96 151.083078 
L 751.670182 145.433086 
L 752.380364 144.539916 
L 753.090545 140.745572 
L 753.800727 132.340243 
L 754.510909 132.046438 
L 755.221091 139.708064 
L 755.931273 140.985858 
L 756.641455 149.647125 
L 757.351636 144.339143 
L 758.061818 153.22821 
L 758.772 143.795061 
L 759.482182 145.418595 
L 760.192364 150.645572 
L 760.902545 150.536546 
L 761.612727 144.596463 
L 762.322909 147.200892 
L 763.033091 147.113638 
L 763.743273 158.551965 
L 764.453455 167.456944 
L 765.163636 172.07278 
L 765.873818 171.48345 
L 766.584 173.082824 
L 767.294182 175.366925 
L 768.004364 177.181318 
L 768.714545 172.916008 
L 769.424727 165.44836 
L 770.134909 172.621694 
L 770.845091 174.756679 
L 771.555273 171.050167 
L 772.265455 179.354977 
L 772.975636 183.339586 
L 773.685818 185.173998 
L 774.396 183.615438 
L 775.106182 166.290924 
L 775.816364 162.695581 
L 776.526545 161.656601 
L 777.236727 157.111245 
L 777.946909 165.185637 
L 778.657091 175.440485 
L 779.367273 177.604118 
L 780.077455 178.957678 
L 780.787636 183.472875 
L 781.497818 176.942531 
L 782.208 174.910404 
L 782.918182 181.267731 
L 783.628364 175.513422 
L 784.338545 173.860721 
L 785.048727 168.363127 
L 785.758909 167.148825 
L 786.469091 171.968556 
L 787.179273 168.442739 
L 787.889455 167.828851 
L 789.309818 179.097224 
L 790.02 178.976298 
L 791.440364 184.628103 
L 792.150545 179.075725 
L 792.860727 179.797212 
L 793.570909 191.296799 
L 794.281091 185.666892 
L 794.991273 186.19751 
L 795.701455 189.289412 
L 796.411636 194.448055 
L 797.121818 193.283683 
L 797.832 195.950214 
L 798.542182 190.895551 
L 799.252364 191.504031 
L 800.672727 198.534492 
L 801.382909 195.207887 
L 802.093091 188.171775 
L 802.803273 191.830973 
L 803.513455 187.010637 
L 804.223636 178.405177 
L 804.933818 189.031712 
L 805.644 196.306991 
L 806.354182 195.845067 
L 807.064364 205.24281 
L 807.774545 194.196967 
L 808.484727 192.225231 
L 809.194909 186.110629 
L 809.905091 181.774914 
L 810.615273 168.035928 
L 811.325455 173.86523 
L 812.035636 167.794339 
L 812.745818 164.24851 
L 813.456 151.841372 
L 814.166182 164.167148 
L 814.876364 154.154639 
L 815.586545 163.375028 
L 816.296727 158.23067 
L 817.006909 151.220714 
L 817.717091 163.471995 
L 818.427273 159.999551 
L 819.137455 169.211117 
L 819.847636 176.221317 
L 820.557818 185.350157 
L 821.268 185.660788 
L 821.978182 174.808673 
L 822.688364 177.192325 
L 823.398545 176.476312 
L 824.108727 174.146138 
L 824.818909 173.034823 
L 825.529091 173.980675 
L 826.239273 173.3756 
L 826.949455 174.011401 
L 827.659636 173.548114 
L 828.369818 179.496768 
L 829.08 178.596703 
L 829.790182 175.853584 
L 830.500364 177.844637 
L 831.210545 176.678084 
L 831.920727 183.576247 
L 832.630909 174.575443 
L 833.341091 173.457593 
L 834.051273 173.869696 
L 835.471636 162.339008 
L 836.181818 164.877966 
L 836.892 176.390468 
L 837.602182 183.75891 
L 838.312364 180.428085 
L 839.022545 176.27449 
L 839.732727 164.876908 
L 840.442909 157.854193 
L 841.153091 158.279666 
L 841.863273 144.605893 
L 842.573455 149.958197 
L 843.283636 137.776843 
L 843.993818 141.070295 
L 844.704 134.119277 
L 845.414182 131.851546 
L 846.124364 131.826493 
L 846.834545 130.893577 
L 847.544727 126.783791 
L 848.254909 125.350574 
L 848.965091 128.919293 
L 849.675273 124.322638 
L 850.385455 127.789884 
L 851.095636 129.868021 
L 851.805818 140.625476 
L 852.516 138.649652 
L 853.226182 128.964017 
L 853.936364 129.300472 
L 854.646545 130.265589 
L 855.356727 138.270097 
L 856.066909 134.018966 
L 856.777091 142.335157 
L 858.197455 119.8522 
L 858.907636 116.671087 
L 859.617818 116.544012 
L 860.328 122.643738 
L 861.038182 135.471439 
L 861.748364 123.387534 
L 862.458545 119.15484 
L 863.168727 120.982178 
L 863.878909 124.491279 
L 864.589091 122.961281 
L 865.299273 129.466084 
L 866.009455 121.249707 
L 866.719636 120.618661 
L 867.429818 116.567507 
L 868.14 115.432139 
L 868.850182 115.145327 
L 869.560364 114.049195 
L 870.270545 110.91659 
L 870.980727 101.594289 
L 871.690909 93.966778 
L 871.690909 93.966778 
" clip-path="url(#pc6d2ed996b)" style="fill: none; stroke: #1f77b4; stroke-width: 1.5; stroke-linecap: square"/>
   </g>
   <g id="line2d_17">
    <path d="M 161.509091 174.181154 
L 162.219273 183.611832 
L 162.929455 191.099692 
L 163.639636 190.400806 
L 164.349818 196.971631 
L 165.06 189.28958 
L 165.770182 193.574021 
L 166.480364 200.705443 
L 167.190545 220.99277 
L 167.900727 221.049024 
L 168.610909 223.354962 
L 169.321091 224.969067 
L 170.031273 228.155685 
L 170.741455 250.592009 
L 171.451636 250.302247 
L 172.161818 242.98344 
L 172.872 231.655094 
L 173.582182 231.24173 
L 174.292364 236.237077 
L 175.002545 234.559284 
L 175.712727 218.779673 
L 176.422909 218.200887 
L 177.133091 227.059439 
L 178.553455 201.424124 
L 179.263636 196.57788 
L 179.973818 209.131719 
L 180.684 219.576362 
L 181.394182 205.856898 
L 182.104364 208.444237 
L 182.814545 210.539845 
L 183.524727 201.459207 
L 184.234909 206.705797 
L 184.945091 215.928992 
L 186.365455 228.082878 
L 187.075636 224.148476 
L 187.785818 210.777245 
L 188.496 224.450966 
L 189.206182 224.893569 
L 189.916364 224.028024 
L 190.626545 239.992637 
L 191.336727 223.5189 
L 192.046909 221.653956 
L 192.757091 242.561317 
L 194.177455 253.743819 
L 194.887636 237.594782 
L 195.597818 235.627088 
L 196.308 230.318642 
L 197.018182 222.957267 
L 197.728364 242.142885 
L 198.438545 240.206213 
L 199.148727 241.471488 
L 199.858909 232.695076 
L 200.569091 214.901924 
L 201.279273 212.372689 
L 201.989455 212.442689 
L 202.699636 203.634558 
L 203.409818 213.117357 
L 204.12 230.745256 
L 204.830182 224.701955 
L 205.540364 220.378652 
L 206.250545 218.823503 
L 207.670909 209.148458 
L 208.381091 222.084992 
L 209.091273 219.016875 
L 209.801455 214.942464 
L 210.511636 217.507559 
L 211.221818 214.773595 
L 212.642182 208.101961 
L 213.352364 197.285207 
L 214.062545 182.382241 
L 214.772727 181.057109 
L 215.482909 186.90957 
L 216.193091 186.915009 
L 216.903273 187.159608 
L 217.613455 175.802482 
L 218.323636 177.553842 
L 219.744 178.31489 
L 220.454182 184.118336 
L 221.164364 179.753489 
L 221.874545 179.576973 
L 222.584727 197.072681 
L 223.294909 204.950417 
L 224.005091 216.584214 
L 224.715273 220.735306 
L 225.425455 217.079314 
L 226.135636 218.875987 
L 226.845818 230.815256 
L 227.556 250.819484 
L 228.266182 255.625853 
L 228.976364 257.661599 
L 229.686545 250.748282 
L 230.396727 247.643204 
L 231.106909 251.693944 
L 231.817091 254.229898 
L 232.527273 256.100347 
L 233.237455 260.548029 
L 233.947636 267.349619 
L 234.657818 267.477496 
L 235.368 261.784844 
L 236.078182 245.368529 
L 236.788364 240.404659 
L 237.498545 255.279097 
L 238.208727 246.411027 
L 238.918909 239.831061 
L 239.629091 244.272734 
L 240.339273 240.076709 
L 241.049455 237.788084 
L 241.759636 251.002822 
L 242.469818 254.911087 
L 243.18 250.515287 
L 243.890182 236.718264 
L 244.600364 242.94229 
L 245.310545 232.123095 
L 246.020727 236.449966 
L 246.730909 234.361649 
L 247.441091 239.654967 
L 248.151273 237.994135 
L 248.861455 255.187038 
L 249.571636 258.437212 
L 250.281818 258.0329 
L 250.992 273.721509 
L 251.702182 271.966542 
L 252.412364 270.965908 
L 253.122545 272.187318 
L 253.832727 256.647548 
L 254.542909 257.285336 
L 255.253091 262.728794 
L 256.673455 278.651409 
L 257.383636 267.056911 
L 258.093818 260.430797 
L 258.804 268.503751 
L 259.514182 262.523918 
L 260.224364 262.611987 
L 260.934545 253.491006 
L 262.354909 266.525912 
L 263.065091 253.859415 
L 263.775273 255.514168 
L 264.485455 263.008087 
L 265.195636 258.428933 
L 265.905818 244.827989 
L 266.616 245.510863 
L 267.326182 257.236609 
L 268.036364 246.398402 
L 268.746545 254.419704 
L 269.456727 254.590707 
L 270.166909 250.537182 
L 270.877091 255.902635 
L 271.587273 255.568068 
L 272.297455 253.380955 
L 273.007636 274.083537 
L 273.717818 275.375245 
L 274.428 286.10645 
L 275.138182 262.336546 
L 275.848364 256.345058 
L 276.558545 251.429155 
L 277.268727 248.236018 
L 277.978909 246.83891 
L 278.689091 248.733021 
L 279.399273 244.468382 
L 280.109455 234.282163 
L 280.819636 233.264504 
L 281.529818 218.989344 
L 282.950182 203.771693 
L 283.660364 219.515097 
L 284.370545 218.616194 
L 285.790909 241.044046 
L 286.501091 225.890858 
L 287.211273 225.996169 
L 287.921455 257.79866 
L 288.631636 267.034112 
L 289.341818 272.016903 
L 290.052 272.742818 
L 290.762182 264.406044 
L 291.472364 266.606157 
L 292.182545 261.719034 
L 292.892727 260.333618 
L 293.602909 270.551349 
L 294.313091 254.165849 
L 295.023273 249.42976 
L 295.733455 240.151079 
L 296.443636 232.641686 
L 297.153818 242.292485 
L 297.864 243.465291 
L 298.574182 237.212956 
L 299.284364 251.180364 
L 299.994545 248.307406 
L 300.704727 254.237405 
L 301.414909 263.787294 
L 302.125091 277.777579 
L 302.835273 267.068608 
L 303.545455 274.945713 
L 304.255636 268.519026 
L 304.965818 253.834579 
L 306.386182 267.232038 
L 307.096364 286.604561 
L 307.806545 276.600949 
L 308.516727 271.753482 
L 309.226909 278.99495 
L 309.937091 277.995426 
L 311.357455 251.892755 
L 312.067636 243.103578 
L 312.777818 258.224787 
L 313.488 258.930741 
L 314.198182 273.398791 
L 314.908364 279.520685 
L 315.618545 289.838069 
L 316.328727 288.91995 
L 317.038909 296.192541 
L 318.459273 283.373855 
L 319.169455 285.392986 
L 319.879636 286.980354 
L 320.589818 274.63488 
L 321.3 267.900019 
L 322.010182 268.901113 
L 322.720364 267.852336 
L 323.430545 259.08823 
L 324.140727 268.564879 
L 324.850909 257.543918 
L 325.561091 268.484793 
L 326.271273 276.9025 
L 326.981455 273.673693 
L 327.691636 276.708632 
L 328.401818 270.744937 
L 329.112 270.460536 
L 329.822182 265.964841 
L 330.532364 270.455948 
L 331.242545 259.805358 
L 332.662909 277.313329 
L 333.373091 273.190965 
L 334.083273 278.103492 
L 334.793455 280.702814 
L 335.503636 292.420224 
L 336.924 267.154233 
L 337.634182 271.096893 
L 338.344364 262.668156 
L 339.054545 250.482859 
L 339.764727 243.388845 
L 340.474909 248.038275 
L 341.185091 239.069312 
L 341.895273 239.619608 
L 342.605455 231.296245 
L 343.315636 231.677274 
L 344.025818 239.304393 
L 344.736 237.285332 
L 345.446182 249.362978 
L 346.156364 256.840775 
L 346.866545 240.906653 
L 347.576727 235.813357 
L 348.286909 232.747157 
L 348.997091 237.911849 
L 349.707273 231.122461 
L 350.417455 236.53681 
L 351.127636 240.663841 
L 352.548 259.722347 
L 353.258182 254.529023 
L 353.968364 256.294911 
L 354.678545 254.223969 
L 355.388727 240.62767 
L 356.098909 248.415528 
L 357.519273 256.593974 
L 358.229455 258.465922 
L 359.649818 272.738805 
L 360.36 269.654244 
L 361.780364 279.673179 
L 362.490545 267.541494 
L 363.200727 265.234808 
L 363.910909 265.481176 
L 364.621091 249.76654 
L 366.041455 241.280558 
L 366.751636 239.761795 
L 367.461818 230.530295 
L 368.172 224.573687 
L 368.882182 222.299108 
L 370.302545 201.737454 
L 371.012727 202.133333 
L 371.722909 216.890619 
L 372.433091 211.119379 
L 373.853455 206.327662 
L 374.563636 206.905549 
L 375.273818 210.806616 
L 375.984 216.912134 
L 376.694182 215.998042 
L 377.404364 218.916909 
L 378.114545 223.55307 
L 378.824727 230.36628 
L 379.534909 214.8038 
L 380.245091 212.388964 
L 380.955273 213.33466 
L 381.665455 212.664697 
L 382.375636 205.425254 
L 383.085818 189.600343 
L 383.796 179.69608 
L 384.506182 182.938043 
L 385.216364 185.576789 
L 385.926545 185.00704 
L 386.636727 170.842573 
L 387.346909 169.571958 
L 388.767273 151.020319 
L 389.477455 159.6622 
L 390.187636 157.446829 
L 390.897818 145.168937 
L 391.608 149.950018 
L 392.318182 160.079634 
L 393.028364 161.851467 
L 393.738545 160.832502 
L 394.448727 167.805907 
L 395.158909 165.562157 
L 395.869091 165.939673 
L 396.579273 169.915729 
L 397.289455 170.547453 
L 397.999636 167.037257 
L 398.709818 172.04006 
L 399.42 182.470104 
L 400.130182 180.285352 
L 400.840364 186.620435 
L 401.550545 180.770021 
L 402.260727 171.11265 
L 402.970909 192.062282 
L 403.681091 193.71466 
L 404.391273 197.050116 
L 405.101455 195.955005 
L 405.811636 192.52884 
L 406.521818 183.951409 
L 407.232 168.865124 
L 407.942182 167.038448 
L 408.652364 172.61818 
L 409.362545 182.726506 
L 410.072727 174.642657 
L 410.782909 157.48047 
L 411.493091 162.720118 
L 412.203273 158.691996 
L 412.913455 160.664017 
L 413.623636 168.417902 
L 414.333818 161.274693 
L 415.044 160.149018 
L 415.754182 164.829365 
L 416.464364 173.151466 
L 417.174545 171.152181 
L 417.884727 168.372983 
L 419.305091 152.623662 
L 420.015273 156.485279 
L 420.725455 149.325565 
L 421.435636 153.342393 
L 422.145818 156.46793 
L 422.856 157.36917 
L 423.566182 156.786759 
L 424.276364 161.114555 
L 424.986545 162.418679 
L 425.696727 147.237484 
L 426.406909 129.166316 
L 427.117091 132.232413 
L 427.827273 124.663695 
L 428.537455 139.971087 
L 429.247636 141.399907 
L 429.957818 146.040866 
L 431.378182 159.314017 
L 432.088364 144.049754 
L 434.929091 164.957451 
L 435.639273 166.158092 
L 436.349455 171.678546 
L 437.059636 173.990511 
L 437.769818 195.388148 
L 438.48 185.654463 
L 439.190182 182.846797 
L 439.900364 182.383528 
L 440.610545 193.990095 
L 441.320727 192.129912 
L 442.741091 181.954712 
L 444.161455 224.790313 
L 444.871636 226.614111 
L 445.581818 217.925392 
L 446.292 215.35846 
L 447.002182 228.81852 
L 447.712364 224.388584 
L 448.422545 220.963473 
L 449.132727 220.776937 
L 449.842909 226.365791 
L 450.553091 239.96667 
L 451.263273 223.158997 
L 452.683636 207.87502 
L 453.393818 189.403959 
L 454.104 188.794649 
L 454.814182 196.287096 
L 455.524364 196.467315 
L 456.234545 191.185446 
L 456.944727 202.453782 
L 457.654909 204.57605 
L 458.365091 196.923994 
L 459.785455 186.949723 
L 461.205818 174.013717 
L 462.626182 196.148122 
L 463.336364 194.376834 
L 464.046545 200.668749 
L 464.756727 189.855402 
L 465.466909 196.501952 
L 466.177091 195.076387 
L 466.887273 172.723916 
L 467.597455 173.043216 
L 468.307636 169.69066 
L 469.017818 177.251413 
L 469.728 183.37648 
L 470.438182 171.794089 
L 471.148364 178.507386 
L 471.858545 180.370926 
L 472.568727 183.393713 
L 473.278909 182.27731 
L 473.989091 186.650104 
L 474.699273 189.562041 
L 475.409455 210.656024 
L 476.119636 211.423553 
L 476.829818 230.201616 
L 477.54 220.216385 
L 478.250182 225.341258 
L 478.960364 222.089997 
L 479.670545 217.758238 
L 480.380727 207.351106 
L 481.090909 214.620874 
L 481.801091 212.387663 
L 482.511273 222.974029 
L 483.221455 222.329695 
L 483.931636 231.17651 
L 484.641818 245.220021 
L 485.352 250.068463 
L 486.062182 256.551305 
L 486.772364 255.352291 
L 487.482545 243.01105 
L 488.192727 251.873966 
L 488.902909 242.16238 
L 489.613091 235.243562 
L 490.323273 239.749311 
L 491.033455 233.493069 
L 492.453818 237.386108 
L 493.164 231.847481 
L 493.874182 234.442451 
L 494.584364 228.268085 
L 495.294545 242.07693 
L 496.004727 236.20008 
L 496.714909 237.385152 
L 497.425091 227.793709 
L 498.135273 221.347562 
L 498.845455 210.044835 
L 499.555636 217.581508 
L 500.265818 233.187547 
L 500.976 232.272393 
L 502.396364 215.645342 
L 503.106545 217.164222 
L 503.816727 208.743975 
L 504.526909 215.554389 
L 505.237091 214.329123 
L 505.947273 211.6458 
L 506.657455 206.235782 
L 507.367636 213.150182 
L 508.077818 196.825063 
L 508.788 197.969972 
L 509.498182 193.217705 
L 510.208364 200.867745 
L 510.918545 205.711176 
L 512.338909 223.179959 
L 513.049091 216.881939 
L 513.759273 223.914269 
L 514.469455 211.853662 
L 515.179636 206.806838 
L 515.889818 198.969886 
L 516.6 203.777177 
L 517.310182 213.017841 
L 518.020364 211.158745 
L 518.730545 218.431487 
L 519.440727 223.746954 
L 520.150909 210.864266 
L 520.861091 201.698494 
L 521.571273 179.393153 
L 522.281455 175.759905 
L 522.991636 170.221882 
L 523.701818 184.255108 
L 524.412 176.544753 
L 525.122182 172.716517 
L 525.832364 194.289112 
L 526.542545 178.419139 
L 527.252727 177.047462 
L 527.962909 176.668775 
L 528.673091 174.205315 
L 529.383273 173.926647 
L 530.093455 164.311929 
L 530.803636 159.595667 
L 531.513818 183.832925 
L 532.224 188.567085 
L 532.934182 197.464874 
L 533.644364 186.191568 
L 534.354545 188.555236 
L 535.064727 194.826349 
L 535.774909 197.236328 
L 536.485091 194.116991 
L 537.195273 195.482776 
L 537.905455 190.377479 
L 538.615636 177.858326 
L 539.325818 176.726505 
L 540.036 189.27862 
L 540.746182 204.321742 
L 541.456364 212.807814 
L 542.166545 215.964674 
L 542.876727 226.622547 
L 543.586909 218.600068 
L 544.297091 219.578055 
L 545.007273 198.968708 
L 545.717455 204.31825 
L 546.427636 210.883669 
L 547.137818 213.193856 
L 547.848 214.529393 
L 549.268364 204.316804 
L 549.978545 214.29566 
L 550.688727 201.980014 
L 552.109091 215.663306 
L 552.819273 228.299718 
L 554.239636 235.112837 
L 554.949818 235.723157 
L 555.66 234.402001 
L 556.370182 234.564867 
L 557.080364 219.388032 
L 557.790545 217.471376 
L 558.500727 211.701719 
L 559.210909 210.684184 
L 559.921091 211.749065 
L 560.631273 202.840219 
L 561.341455 203.217618 
L 562.761818 191.667864 
L 563.472 211.749399 
L 564.892364 232.437646 
L 565.602545 240.700692 
L 566.312727 239.597832 
L 567.022909 243.937568 
L 567.733091 227.791737 
L 568.443273 237.432903 
L 569.153455 250.174461 
L 569.863636 251.636536 
L 570.573818 259.560455 
L 571.284 256.222462 
L 571.994182 266.133919 
L 572.704364 260.052838 
L 573.414545 261.141914 
L 574.124727 280.615111 
L 574.834909 282.267172 
L 575.545091 271.957152 
L 576.255273 282.096391 
L 576.965455 268.54434 
L 577.675636 274.297602 
L 578.385818 268.702694 
L 579.096 276.837652 
L 579.806182 276.491717 
L 580.516364 276.822466 
L 581.226545 292.172158 
L 581.936727 282.26216 
L 582.646909 276.60803 
L 583.357091 282.978942 
L 584.067273 284.95299 
L 584.777455 291.952214 
L 585.487636 308.066912 
L 586.197818 315.604018 
L 586.908 339.099439 
L 587.618182 329.804251 
L 588.328364 341.268218 
L 589.038545 338.890452 
L 589.748727 333.645482 
L 590.458909 326.661837 
L 591.169091 321.694943 
L 591.879273 322.394877 
L 592.589455 320.306234 
L 593.299636 310.919776 
L 594.009818 315.34392 
L 594.72 295.011369 
L 595.430182 287.475503 
L 596.140364 298.195856 
L 596.850545 294.83005 
L 597.560727 290.118161 
L 598.270909 291.302278 
L 598.981091 289.80651 
L 599.691273 289.749969 
L 600.401455 284.836922 
L 601.111636 291.6057 
L 601.821818 296.177017 
L 602.532 294.197216 
L 603.242182 288.558944 
L 603.952364 291.704983 
L 604.662545 299.615108 
L 605.372727 295.351524 
L 606.082909 284.964316 
L 606.793091 271.046021 
L 607.503273 262.728896 
L 608.213455 265.793483 
L 608.923636 269.742546 
L 609.633818 270.889994 
L 610.344 261.237577 
L 611.054182 255.264596 
L 612.474545 238.746702 
L 613.184727 252.418299 
L 613.894909 254.890263 
L 614.605091 268.799527 
L 615.315273 256.173337 
L 616.025455 252.44591 
L 616.735636 241.577289 
L 617.445818 227.215709 
L 618.156 231.950471 
L 618.866182 227.454842 
L 619.576364 229.834429 
L 620.286545 217.818378 
L 620.996727 214.48956 
L 623.127273 208.219221 
L 623.837455 202.675101 
L 624.547636 203.411351 
L 625.257818 191.340826 
L 625.968 202.266715 
L 626.678182 215.328367 
L 627.388364 213.612105 
L 628.098545 205.97896 
L 628.808727 219.885391 
L 629.518909 211.67184 
L 630.229091 214.656436 
L 630.939273 223.990177 
L 631.649455 222.306721 
L 632.359636 223.745305 
L 633.069818 239.690839 
L 633.78 240.32435 
L 634.490182 238.785898 
L 635.200364 227.921486 
L 635.910545 249.66606 
L 636.620727 235.714611 
L 637.330909 232.554831 
L 638.041091 225.893994 
L 638.751273 233.80576 
L 639.461455 235.64764 
L 640.171636 239.839289 
L 640.881818 237.923736 
L 641.592 230.751056 
L 642.302182 225.443906 
L 643.012364 225.234331 
L 643.722545 233.711557 
L 644.432727 217.692016 
L 645.142909 210.896095 
L 646.563273 184.477072 
L 647.273455 178.706045 
L 647.983636 169.695651 
L 648.693818 171.017792 
L 649.404 173.657204 
L 650.114182 181.510434 
L 650.824364 179.313934 
L 651.534545 171.46377 
L 652.954909 176.910953 
L 653.665091 187.989786 
L 654.375273 178.095931 
L 655.085455 189.183528 
L 655.795636 189.063443 
L 656.505818 189.60329 
L 657.216 188.334563 
L 657.926182 194.472574 
L 658.636364 192.792217 
L 659.346545 199.988168 
L 660.056727 202.784331 
L 660.766909 207.591548 
L 661.477091 218.57283 
L 662.187273 208.327937 
L 662.897455 209.276828 
L 664.317818 198.276542 
L 665.028 188.948412 
L 665.738182 195.473966 
L 666.448364 181.934869 
L 667.158545 183.443816 
L 667.868727 187.888525 
L 668.578909 185.284361 
L 669.289091 183.45199 
L 669.999273 174.954485 
L 670.709455 189.783691 
L 671.419636 182.09139 
L 672.129818 170.930694 
L 672.84 173.687134 
L 674.260364 190.133614 
L 674.970545 201.918184 
L 675.680727 194.755686 
L 676.390909 205.703614 
L 677.101091 210.177538 
L 677.811273 192.799427 
L 678.521455 203.137949 
L 679.231636 194.372679 
L 679.941818 194.058103 
L 680.652 195.211425 
L 681.362182 188.665642 
L 682.072364 191.784926 
L 682.782545 192.880099 
L 683.492727 174.058269 
L 684.202909 172.950241 
L 684.913091 184.768263 
L 685.623273 185.408612 
L 686.333455 177.012453 
L 687.043636 189.625135 
L 687.753818 180.682387 
L 688.464 190.341422 
L 689.174182 186.217705 
L 689.884364 176.363345 
L 690.594545 172.471975 
L 691.304727 180.220156 
L 692.014909 184.14601 
L 692.725091 175.156846 
L 693.435273 179.079742 
L 694.145455 173.574399 
L 694.855636 177.616381 
L 695.565818 180.786074 
L 696.276 198.386121 
L 697.696364 165.909906 
L 698.406545 163.84791 
L 699.116727 153.528206 
L 699.826909 148.540563 
L 700.537091 134.476992 
L 701.247273 147.60062 
L 701.957455 150.406425 
L 702.667636 164.603451 
L 703.377818 169.508303 
L 704.088 161.550751 
L 704.798182 170.0817 
L 705.508364 166.214284 
L 706.218545 149.972597 
L 706.928727 154.663853 
L 707.638909 152.451832 
L 708.349091 157.138863 
L 709.059273 144.776686 
L 709.769455 151.06346 
L 710.479636 165.245342 
L 711.189818 159.105393 
L 711.9 161.668142 
L 712.610182 165.158306 
L 713.320364 167.926634 
L 714.030545 162.150755 
L 714.740727 157.295336 
L 715.450909 147.245249 
L 716.161091 133.216943 
L 716.871273 140.387897 
L 717.581455 143.161829 
L 718.291636 140.247115 
L 719.001818 134.548199 
L 719.712 140.274236 
L 720.422182 148.873684 
L 721.132364 147.842212 
L 721.842545 145.251793 
L 722.552727 139.707388 
L 723.262909 148.054539 
L 723.973091 142.229933 
L 724.683273 141.664735 
L 725.393455 127.530744 
L 726.103636 115.955543 
L 726.813818 115.454435 
L 727.524 117.370681 
L 728.234182 111.542118 
L 728.944364 119.244793 
L 729.654545 116.215453 
L 731.074909 126.568645 
L 731.785091 118.611776 
L 732.495273 114.240679 
L 733.205455 102.49634 
L 733.915636 99.296285 
L 734.625818 88.521903 
L 735.336 103.905619 
L 736.046182 84.302143 
L 736.756364 93.81718 
L 737.466545 89.780348 
L 738.176727 94.496023 
L 738.886909 92.099224 
L 739.597091 87.200709 
L 740.307273 77.938486 
L 741.017455 70.493384 
L 741.727636 68.214642 
L 742.437818 81.131162 
L 743.148 66.96 
L 743.858182 80.086964 
L 744.568364 74.592721 
L 745.278545 75.779555 
L 745.988727 71.208831 
L 746.698909 90.604636 
L 748.119273 109.448066 
L 748.829455 122.82313 
L 749.539636 105.530188 
L 750.249818 93.740752 
L 750.96 92.732893 
L 751.670182 83.675742 
L 752.380364 96.979621 
L 753.090545 86.060743 
L 753.800727 77.609843 
L 754.510909 72.274488 
L 755.221091 82.850783 
L 755.931273 78.090137 
L 756.641455 97.302727 
L 757.351636 102.479117 
L 758.061818 99.83042 
L 758.772 92.111928 
L 759.482182 99.504945 
L 760.192364 105.354278 
L 760.902545 99.74685 
L 761.612727 86.731561 
L 762.322909 90.526723 
L 763.033091 80.576158 
L 763.743273 102.372321 
L 764.453455 116.21521 
L 765.163636 121.439617 
L 765.873818 109.966403 
L 766.584 111.799476 
L 767.294182 118.823378 
L 768.004364 111.400376 
L 768.714545 106.309808 
L 769.424727 109.943585 
L 770.134909 119.238419 
L 770.845091 124.406463 
L 771.555273 124.691555 
L 772.265455 131.965266 
L 772.975636 146.102308 
L 773.685818 147.256051 
L 774.396 153.038529 
L 775.106182 129.399538 
L 775.816364 134.22477 
L 776.526545 129.645636 
L 777.236727 118.657232 
L 777.946909 127.076238 
L 778.657091 139.139757 
L 779.367273 144.961219 
L 780.077455 147.355589 
L 780.787636 152.078896 
L 781.497818 150.370111 
L 782.208 159.527212 
L 782.918182 165.668016 
L 783.628364 165.596522 
L 784.338545 167.172248 
L 785.048727 160.460489 
L 785.758909 147.270365 
L 787.179273 157.773525 
L 787.889455 168.717679 
L 788.599636 176.012141 
L 789.309818 188.092639 
L 790.02 186.777151 
L 790.730182 200.626398 
L 791.440364 206.279814 
L 792.150545 194.94325 
L 792.860727 188.594879 
L 793.570909 200.377692 
L 794.281091 194.690923 
L 794.991273 195.516744 
L 795.701455 209.139169 
L 796.411636 208.994633 
L 797.121818 215.614572 
L 797.832 219.940507 
L 798.542182 220.375612 
L 799.252364 228.965053 
L 799.962545 234.983994 
L 800.672727 239.634692 
L 801.382909 238.791261 
L 802.093091 234.071201 
L 802.803273 241.23918 
L 803.513455 249.948665 
L 804.223636 238.428735 
L 804.933818 248.615508 
L 805.644 263.676621 
L 806.354182 265.150687 
L 807.064364 268.868114 
L 807.774545 255.178729 
L 808.484727 250.506908 
L 809.194909 240.225971 
L 809.905091 244.464036 
L 810.615273 233.346397 
L 811.325455 237.311603 
L 812.035636 232.564881 
L 812.745818 237.680134 
L 813.456 217.259241 
L 814.166182 223.796096 
L 814.876364 211.448001 
L 815.586545 213.20716 
L 816.296727 198.612699 
L 817.006909 190.703613 
L 817.717091 196.416692 
L 818.427273 191.351851 
L 819.137455 199.293758 
L 819.847636 215.510138 
L 820.557818 219.380555 
L 821.268 229.403209 
L 821.978182 216.643034 
L 822.688364 218.57183 
L 823.398545 216.98285 
L 824.108727 216.689719 
L 824.818909 219.589812 
L 825.529091 221.70544 
L 826.239273 216.196462 
L 826.949455 215.968628 
L 827.659636 216.153866 
L 828.369818 219.884218 
L 829.08 228.748548 
L 829.790182 220.675471 
L 830.500364 228.525572 
L 831.210545 231.457655 
L 831.920727 235.178473 
L 832.630909 226.825229 
L 833.341091 213.871304 
L 834.051273 224.871018 
L 835.471636 201.763607 
L 836.181818 201.272885 
L 836.892 213.654091 
L 837.602182 231.46214 
L 838.312364 230.820239 
L 839.022545 224.862024 
L 839.732727 212.895038 
L 840.442909 210.923057 
L 841.153091 204.372409 
L 841.863273 186.652944 
L 842.573455 175.012999 
L 843.283636 159.922877 
L 843.993818 168.609526 
L 844.704 164.716975 
L 845.414182 162.99438 
L 846.124364 174.11103 
L 846.834545 163.487223 
L 847.544727 159.385683 
L 848.254909 162.556515 
L 848.965091 164.918229 
L 849.675273 165.916044 
L 850.385455 170.768353 
L 851.095636 170.277927 
L 851.805818 178.01606 
L 853.226182 152.175059 
L 853.936364 158.445055 
L 854.646545 157.535644 
L 855.356727 161.585666 
L 856.066909 156.871946 
L 856.777091 158.917643 
L 857.487273 144.463309 
L 858.197455 121.989821 
L 858.907636 116.782601 
L 859.617818 125.520099 
L 860.328 130.317488 
L 861.038182 133.668678 
L 862.458545 106.671985 
L 863.168727 112.163646 
L 863.878909 114.069878 
L 864.589091 101.633972 
L 865.299273 112.998495 
L 866.009455 99.816009 
L 866.719636 106.932765 
L 867.429818 106.391604 
L 868.14 97.392593 
L 868.850182 99.22133 
L 869.560364 91.745515 
L 870.270545 86.41192 
L 870.980727 82.135734 
L 871.690909 74.290752 
L 871.690909 74.290752 
" clip-path="url(#pc6d2ed996b)" style="fill: none; stroke: #ff7f0e; stroke-width: 1.5; stroke-linecap: square"/>
   </g>
   <g id="line2d_18">
    <path d="M 162.219273 369.36 
L 162.929455 369.058472 
L 163.639636 369.050608 
L 164.349818 368.919174 
L 165.06 368.611177 
L 165.770182 368.589964 
L 166.480364 368.451296 
L 167.190545 367.272955 
L 170.031273 367.200291 
L 170.741455 365.819097 
L 171.451636 365.814302 
L 172.161818 365.451049 
L 172.872 364.621128 
L 173.582182 364.619472 
L 174.292364 364.373149 
L 175.002545 364.325152 
L 175.712727 363.508688 
L 176.422909 363.501019 
L 177.133091 363.303229 
L 177.843273 363.538039 
L 179.263636 363.049358 
L 179.973818 362.848439 
L 181.394182 361.895641 
L 182.814545 361.994485 
L 183.524727 361.677987 
L 184.945091 361.353717 
L 185.655273 361.458692 
L 186.365455 361.244759 
L 187.075636 361.229516 
L 188.496 360.011759 
L 189.916364 359.980693 
L 191.336727 358.646213 
L 192.046909 358.544619 
L 192.757091 356.454966 
L 194.177455 356.159633 
L 194.887636 355.356152 
L 195.597818 355.338516 
L 196.308 355.471599 
L 197.018182 355.481237 
L 197.728364 354.697963 
L 199.148727 354.753718 
L 199.858909 354.556789 
L 200.569091 353.50854 
L 201.989455 353.490567 
L 202.699636 353.278527 
L 203.409818 352.926057 
L 204.12 351.60621 
L 204.830182 351.29648 
L 206.250545 351.273429 
L 206.960727 351.445182 
L 207.670909 351.432624 
L 208.381091 350.752483 
L 209.801455 350.547984 
L 211.221818 350.579584 
L 214.062545 349.947523 
L 214.772727 349.922732 
L 215.482909 349.605216 
L 216.903273 349.600902 
L 217.613455 349.256368 
L 221.874545 349.271961 
L 223.294909 347.817548 
L 224.005091 347.667978 
L 226.135636 347.817446 
L 226.845818 347.259984 
L 227.556 346.114443 
L 228.976364 345.915242 
L 231.817091 345.750006 
L 235.368 345.692898 
L 236.078182 345.304111 
L 236.788364 345.286011 
L 237.498545 344.634395 
L 238.918909 344.187609 
L 241.759636 344.259719 
L 243.18 344.269717 
L 243.890182 343.991458 
L 244.600364 343.898915 
L 245.310545 343.419648 
L 246.730909 343.275144 
L 248.151273 343.221262 
L 248.861455 341.836978 
L 253.122545 341.804722 
L 253.832727 341.375778 
L 255.253091 341.282995 
L 255.963273 340.742898 
L 257.383636 340.020912 
L 258.093818 339.924799 
L 258.804 340.250712 
L 260.224364 340.270734 
L 261.644727 340.168549 
L 263.065091 340.110916 
L 263.775273 340.110301 
L 265.195636 339.765359 
L 265.905818 339.199117 
L 266.616 339.20392 
L 267.326182 339.004138 
L 268.036364 338.42692 
L 268.746545 338.100141 
L 270.166909 338.18009 
L 271.587273 338.245367 
L 272.297455 338.218626 
L 273.007636 336.893478 
L 273.717818 336.880406 
L 274.428 336.42387 
L 275.138182 335.098398 
L 276.558545 334.559066 
L 277.978909 334.556481 
L 279.399273 334.505186 
L 280.109455 334.083451 
L 280.819636 334.078076 
L 281.529818 333.661402 
L 282.24 333.380265 
L 283.660364 332.336158 
L 285.080727 332.319409 
L 286.501091 331.715379 
L 287.211273 331.714945 
L 287.921455 329.714411 
L 289.341818 329.437991 
L 290.052 329.4466 
L 290.762182 329.016624 
L 291.472364 328.949418 
L 292.182545 328.689159 
L 292.892727 328.738328 
L 293.602909 328.59686 
L 294.313091 327.514209 
L 295.733455 327.347718 
L 296.443636 327.285093 
L 297.153818 327.018127 
L 298.574182 326.94532 
L 299.284364 326.35702 
L 299.994545 326.304539 
L 300.704727 326.366276 
L 301.414909 325.889034 
L 302.125091 325.546449 
L 302.835273 325.055945 
L 304.255636 324.57533 
L 304.965818 323.577542 
L 306.386182 323.328454 
L 307.096364 322.502065 
L 307.806545 322.123297 
L 308.516727 322.042721 
L 309.226909 321.653525 
L 309.937091 321.66033 
L 310.647273 320.575383 
L 311.357455 320.246362 
L 312.777818 319.397762 
L 313.488 319.425495 
L 314.198182 319.628648 
L 314.908364 319.579804 
L 315.618545 319.108376 
L 316.328727 319.14868 
L 317.038909 318.894542 
L 317.749091 318.442046 
L 318.459273 318.560735 
L 319.879636 318.488536 
L 320.589818 318.202438 
L 322.720364 318.236914 
L 323.430545 317.914401 
L 324.850909 317.848963 
L 326.271273 317.322811 
L 327.691636 317.334722 
L 328.401818 317.157215 
L 329.112 317.163377 
L 331.952727 316.562091 
L 332.662909 316.727509 
L 334.083273 316.442496 
L 334.793455 316.480655 
L 335.503636 315.668552 
L 336.213818 315.584965 
L 336.924 315.206928 
L 337.634182 315.068703 
L 338.344364 315.130399 
L 339.054545 314.786605 
L 339.764727 314.69326 
L 340.474909 314.835509 
L 341.895273 314.798679 
L 343.315636 314.833224 
L 344.736 314.701829 
L 345.446182 313.8254 
L 346.156364 313.829752 
L 346.866545 313.391504 
L 347.576727 313.250917 
L 348.286909 313.288974 
L 348.997091 313.460066 
L 349.707273 313.127546 
L 351.837818 312.746015 
L 352.548 312.296307 
L 353.258182 312.010087 
L 354.678545 312.013327 
L 356.098909 311.43414 
L 357.519273 311.111679 
L 358.939636 311.13589 
L 359.649818 310.876252 
L 361.070182 310.878252 
L 361.780364 310.871305 
L 362.490545 310.220293 
L 363.910909 310.23483 
L 364.621091 309.960011 
L 365.331273 310.095341 
L 366.041455 309.868407 
L 366.751636 309.917875 
L 367.461818 309.588863 
L 368.172 309.783546 
L 368.882182 309.802726 
L 369.592364 309.701233 
L 370.302545 309.362254 
L 371.012727 309.366968 
L 371.722909 308.883841 
L 372.433091 308.554572 
L 373.143273 308.441432 
L 375.273818 308.463622 
L 375.984 308.268445 
L 378.114545 308.260297 
L 378.824727 308.082455 
L 379.534909 307.751028 
L 380.955273 307.680732 
L 381.665455 307.676097 
L 382.375636 307.957594 
L 383.085818 307.142966 
L 384.506182 306.866028 
L 385.926545 306.864747 
L 386.636727 306.663506 
L 387.346909 306.639662 
L 388.057091 306.482581 
L 389.477455 305.528641 
L 390.187636 305.520458 
L 390.897818 305.143377 
L 391.608 305.181628 
L 392.318182 305.53957 
L 395.158909 305.314193 
L 395.869091 305.313066 
L 396.579273 305.109224 
L 397.999636 305.032255 
L 399.42 304.966686 
L 401.550545 305.019933 
L 402.260727 304.731116 
L 402.970909 303.2988 
L 405.101455 303.153819 
L 405.811636 303.093493 
L 406.521818 302.883721 
L 407.232 302.479129 
L 407.942182 302.472071 
L 408.652364 302.293913 
L 409.362545 301.842983 
L 410.072727 301.835515 
L 410.782909 300.669567 
L 412.913455 300.7834 
L 413.623636 300.563758 
L 414.333818 300.690415 
L 415.754182 300.594349 
L 416.464364 300.446856 
L 417.884727 300.504889 
L 418.594909 300.265609 
L 419.305091 299.71229 
L 420.015273 299.49753 
L 422.145818 299.715068 
L 423.566182 299.647574 
L 424.276364 299.37589 
L 424.986545 299.36688 
L 425.696727 298.799955 
L 426.406909 298.034598 
L 427.117091 298.035518 
L 427.827273 297.656664 
L 428.537455 297.409111 
L 429.957818 297.477552 
L 431.378182 297.454472 
L 432.088364 296.92458 
L 434.929091 296.999383 
L 437.059636 296.950034 
L 437.769818 294.780465 
L 438.48 294.265123 
L 441.320727 294.185359 
L 442.741091 294.124153 
L 443.451273 293.014534 
L 444.161455 291.42046 
L 444.871636 291.470111 
L 445.581818 291.166124 
L 446.292 291.110533 
L 447.002182 290.321218 
L 447.712364 290.218788 
L 449.132727 290.260041 
L 449.842909 290.170368 
L 450.553091 289.78181 
L 451.263273 288.970232 
L 451.973455 289.059842 
L 452.683636 288.773715 
L 453.393818 287.729818 
L 456.234545 287.658682 
L 456.944727 287.32449 
L 457.654909 287.290954 
L 458.365091 286.97722 
L 460.495636 286.764644 
L 461.205818 286.49392 
L 461.916 285.782063 
L 462.626182 285.387584 
L 463.336364 285.341412 
L 464.046545 285.126592 
L 465.466909 285.038668 
L 466.177091 285.011479 
L 466.887273 283.164631 
L 467.597455 283.163797 
L 469.017818 282.911043 
L 471.148364 282.18752 
L 473.989091 282.212752 
L 474.699273 282.081797 
L 475.409455 281.758927 
L 476.119636 281.750733 
L 477.54 280.889975 
L 480.380727 280.844302 
L 481.090909 280.524541 
L 483.221455 280.530421 
L 483.931636 280.721897 
L 484.641818 280.321947 
L 485.352 280.406426 
L 486.772364 280.301041 
L 488.192727 279.749864 
L 488.902909 279.731259 
L 489.613091 279.313655 
L 490.323273 279.333415 
L 491.033455 279.172 
L 494.584364 279.142434 
L 495.294545 278.553436 
L 496.004727 278.273084 
L 496.714909 278.292756 
L 498.135273 277.864175 
L 498.845455 277.867249 
L 499.555636 277.586381 
L 500.265818 276.895538 
L 500.976 276.918331 
L 501.686182 277.275556 
L 502.396364 277.06366 
L 503.816727 277.018964 
L 505.237091 276.913991 
L 506.657455 276.764308 
L 507.367636 276.538086 
L 508.077818 276.154926 
L 508.788 276.132541 
L 510.208364 275.867933 
L 510.918545 275.746559 
L 511.628727 275.799543 
L 513.759273 274.955633 
L 514.469455 274.418778 
L 515.179636 274.656558 
L 515.889818 274.367823 
L 516.6 274.224121 
L 517.310182 273.733231 
L 518.020364 273.714432 
L 519.440727 273.457862 
L 520.150909 272.899688 
L 520.861091 272.55002 
L 521.571273 271.193777 
L 522.281455 271.166152 
L 522.991636 271.350537 
L 523.701818 271.175321 
L 525.122182 271.092547 
L 525.832364 269.926555 
L 526.542545 269.116638 
L 530.093455 269.081157 
L 530.803636 268.884723 
L 531.513818 267.097298 
L 534.354545 266.187046 
L 535.774909 266.079858 
L 537.195273 266.078901 
L 537.905455 265.953565 
L 538.615636 265.270024 
L 539.325818 265.263642 
L 540.036 264.788651 
L 540.746182 263.468087 
L 541.456364 263.179566 
L 542.166545 263.156707 
L 542.876727 262.720504 
L 543.586909 262.492027 
L 544.297091 262.513289 
L 545.007273 261.379727 
L 545.717455 261.2773 
L 547.848 261.245092 
L 548.558182 261.208151 
L 549.268364 261.020882 
L 549.978545 261.095717 
L 552.109091 260.388997 
L 552.819273 259.573971 
L 556.370182 259.663536 
L 557.790545 259.697272 
L 559.210909 259.646129 
L 561.341455 259.578339 
L 562.051636 259.508065 
L 562.761818 259.593896 
L 563.472 258.671663 
L 564.182182 258.17638 
L 565.602545 257.51678 
L 567.022909 257.457593 
L 567.733091 256.474318 
L 568.443273 255.853012 
L 569.153455 255.417119 
L 570.573818 255.300877 
L 571.994182 254.971554 
L 572.704364 254.782281 
L 573.414545 254.81289 
L 574.124727 254.556336 
L 575.545091 254.49856 
L 576.255273 254.330566 
L 576.965455 253.483324 
L 577.675636 253.292109 
L 578.385818 253.295112 
L 579.096 253.168491 
L 580.516364 253.169823 
L 581.226545 252.60235 
L 583.357091 252.095779 
L 584.067273 252.077237 
L 584.777455 251.725506 
L 585.487636 251.105794 
L 586.197818 251.182637 
L 586.908 250.00247 
L 587.618182 249.907701 
L 588.328364 250.149015 
L 589.038545 250.127632 
L 589.748727 249.909786 
L 590.458909 250.031216 
L 592.589455 249.904805 
L 593.299636 249.520135 
L 594.009818 249.52018 
L 594.72 248.578908 
L 595.430182 247.939514 
L 597.560727 247.944972 
L 601.111636 247.890982 
L 601.821818 247.650935 
L 602.532 247.592186 
L 603.242182 247.369883 
L 604.662545 247.342546 
L 605.372727 247.179825 
L 606.793091 246.63938 
L 607.503273 246.377695 
L 608.923636 246.522524 
L 609.633818 246.486445 
L 611.054182 245.782442 
L 612.474545 245.352012 
L 613.184727 244.618625 
L 613.894909 244.600637 
L 614.605091 244.225038 
L 615.315273 243.703951 
L 616.025455 243.523991 
L 616.735636 243.017232 
L 617.445818 241.833177 
L 618.156 241.709105 
L 619.576364 241.796725 
L 620.286545 241.019299 
L 622.417091 241.075652 
L 623.127273 241.124852 
L 624.547636 241.003372 
L 625.257818 240.482302 
L 625.968 240.220246 
L 626.678182 239.721724 
L 628.098545 239.747632 
L 628.808727 239.582614 
L 631.649455 239.49545 
L 632.359636 239.44084 
L 633.069818 239.135844 
L 634.490182 239.110318 
L 635.200364 239.347764 
L 635.910545 237.846562 
L 636.620727 237.255242 
L 637.330909 237.423996 
L 643.012364 236.851583 
L 645.142909 235.55139 
L 648.693818 235.005806 
L 649.404 235.087727 
L 650.824364 234.906279 
L 651.534545 234.663176 
L 652.244727 234.747461 
L 652.954909 234.664694 
L 653.665091 234.337068 
L 654.375273 234.357176 
L 655.085455 233.771346 
L 657.926182 233.677833 
L 658.636364 233.626036 
L 659.346545 233.434052 
L 660.056727 233.465422 
L 660.766909 233.356705 
L 661.477091 232.917048 
L 663.607636 232.723038 
L 665.738182 231.943568 
L 666.448364 231.737976 
L 669.289091 231.714421 
L 669.999273 231.27171 
L 670.709455 230.467989 
L 671.419636 230.527296 
L 672.129818 230.059569 
L 672.84 229.997647 
L 673.550182 229.618567 
L 674.970545 229.065935 
L 675.680727 229.114375 
L 676.390909 228.674165 
L 677.101091 228.64823 
L 678.521455 227.576514 
L 679.231636 227.206729 
L 680.652 227.250607 
L 681.362182 227.381143 
L 682.782545 227.373994 
L 683.492727 225.971668 
L 684.202909 225.977838 
L 684.913091 225.595878 
L 685.623273 225.617849 
L 686.333455 225.523273 
L 687.043636 225.097073 
L 687.753818 225.018975 
L 688.464 224.580873 
L 690.594545 224.378756 
L 691.304727 223.866465 
L 692.014909 223.800577 
L 692.725091 223.869062 
L 694.855636 223.73659 
L 695.565818 223.782104 
L 696.276 222.537131 
L 697.696364 221.230718 
L 698.406545 221.136556 
L 699.116727 220.527524 
L 699.826909 220.335563 
L 701.247273 219.261824 
L 701.957455 219.251867 
L 703.377818 218.700362 
L 708.349091 218.455976 
L 709.769455 217.986422 
L 711.189818 217.912147 
L 713.320364 217.879042 
L 714.030545 217.636804 
L 714.740727 217.651086 
L 716.871273 216.811079 
L 718.291636 217.114802 
L 721.132364 216.625433 
L 724.683273 216.625597 
L 725.393455 216.047298 
L 726.103636 215.318396 
L 728.234182 215.204843 
L 728.944364 215.018919 
L 729.654545 215.137574 
L 730.364727 214.899275 
L 731.074909 215.06357 
L 731.785091 214.790093 
L 732.495273 214.674371 
L 733.915636 214.793697 
L 734.625818 214.510287 
L 736.756364 212.556845 
L 738.176727 212.579728 
L 740.307273 212.325761 
L 741.017455 211.935586 
L 741.727636 211.887731 
L 742.437818 211.703242 
L 743.148 211.166768 
L 743.858182 210.957193 
L 744.568364 211.134463 
L 745.988727 211.177404 
L 746.698909 210.21836 
L 747.409091 209.74984 
L 748.119273 209.652309 
L 748.829455 209.241701 
L 749.539636 208.477513 
L 750.249818 208.274342 
L 750.96 208.279618 
L 751.670182 208.017933 
L 752.380364 208.078698 
L 753.090545 207.866835 
L 753.800727 207.503593 
L 754.510909 207.495577 
L 755.221091 207.081202 
L 755.931273 207.11231 
L 756.641455 206.261355 
L 758.061818 206.522262 
L 758.772 206.149932 
L 760.902545 205.929077 
L 761.612727 205.533724 
L 763.033091 205.478739 
L 763.743273 204.203823 
L 764.453455 203.573449 
L 765.873818 203.415554 
L 769.424727 203.415125 
L 770.134909 203.074167 
L 771.555273 203.023147 
L 772.975636 202.426182 
L 774.396 202.461446 
L 775.106182 200.367195 
L 775.816364 200.45591 
L 776.526545 200.431581 
L 777.946909 199.828545 
L 778.657091 199.195926 
L 781.497818 198.94882 
L 782.208 199.043978 
L 782.918182 198.844342 
L 784.338545 198.855556 
L 785.758909 198.58496 
L 786.469091 198.450709 
L 787.889455 198.576229 
L 788.599636 198.374954 
L 789.309818 198.012168 
L 790.02 198.011354 
L 792.150545 197.414852 
L 792.860727 197.438274 
L 793.570909 196.745375 
L 794.281091 196.581653 
L 794.991273 196.579412 
L 795.701455 196.364026 
L 799.252364 196.332787 
L 800.672727 196.140822 
L 801.382909 196.126475 
L 802.803273 195.822514 
L 803.513455 196.037202 
L 805.644 194.41636 
L 806.354182 194.419842 
L 807.064364 194.241191 
L 807.774545 193.467938 
L 808.484727 193.420832 
L 809.194909 193.099363 
L 809.905091 193.193328 
L 810.615273 192.412229 
L 812.035636 192.146666 
L 812.745818 192.239419 
L 813.456 190.943776 
L 814.166182 190.531753 
L 814.876364 189.899513 
L 815.586545 189.816568 
L 817.006909 189.149115 
L 817.717091 188.791191 
L 818.427273 188.701253 
L 819.137455 188.327145 
L 819.847636 187.745815 
L 820.557818 187.565134 
L 821.268 187.549213 
L 821.978182 186.841088 
L 826.239273 186.797469 
L 827.659636 186.798649 
L 828.369818 186.685172 
L 829.08 186.725971 
L 830.500364 186.532798 
L 831.210545 186.550289 
L 831.920727 186.419036 
L 832.630909 186.034554 
L 834.051273 185.937324 
L 835.471636 185.255224 
L 836.181818 185.261595 
L 837.602182 183.861676 
L 838.312364 183.850743 
L 839.022545 183.724188 
L 839.732727 183.026701 
L 841.153091 182.970135 
L 841.863273 181.731116 
L 842.573455 182.049705 
L 843.283636 181.109707 
L 844.704 180.825044 
L 851.095636 180.592381 
L 851.805818 180.1667 
L 852.516 180.037893 
L 853.226182 179.389414 
L 854.646545 179.383115 
L 856.066909 179.114863 
L 856.777091 179.027866 
L 857.487273 178.188762 
L 858.197455 176.909571 
L 861.038182 176.461069 
L 861.748364 175.589165 
L 862.458545 175.310231 
L 864.589091 175.127408 
L 865.299273 174.74938 
L 866.009455 174.195499 
L 868.14 174.155006 
L 869.560364 174.115783 
L 870.270545 174.030343 
L 871.690909 173.520495 
L 871.690909 173.520495 
" clip-path="url(#pc6d2ed996b)" style="fill: none; stroke: #2ca02c; stroke-width: 1.5; stroke-linecap: square"/>
   </g>
   <g id="patch_3">
    <path d="M 126 384.48 
L 126 51.84 
" style="fill: none; stroke: #000000; stroke-width: 0.8; stroke-linejoin: miter; stroke-linecap: square"/>
   </g>
   <g id="patch_4">
    <path d="M 907.2 384.48 
L 907.2 51.84 
" style="fill: none; stroke: #000000; stroke-width: 0.8; stroke-linejoin: miter; stroke-linecap: square"/>
   </g>
   <g id="patch_5">
    <path d="M 126 384.48 
L 907.2 384.48 
" style="fill: none; stroke: #000000; stroke-width: 0.8; stroke-linejoin: miter; stroke-linecap: square"/>
   </g>
   <g id="patch_6">
    <path d="M 126 51.84 
L 907.2 51.84 
" style="fill: none; stroke: #000000; stroke-width: 0.8; stroke-linejoin: miter; stroke-linecap: square"/>
   </g>
   <g id="text_18">
    <!-- Quadratic Covariation of $X_t$ and $S_t$ -->
    <g transform="translate(414.54 45.84)scale(0.12 -0.12)">
     <defs>
      <path id="DejaVuSans-66" d="M 2375 4863 
L 2375 4384 
L 1825 4384 
Q 1516 4384 1395 4259 
Q 1275 4134 1275 3809 
L 1275 3500 
L 2222 3500 
L 2222 3053 
L 1275 3053 
L 1275 0 
L 697 0 
L 697 3053 
L 147 3053 
L 147 3500 
L 697 3500 
L 697 3744 
Q 697 4328 969 4595 
Q 1241 4863 1831 4863 
L 2375 4863 
z
" transform="scale(0.015625)"/>
      <path id="DejaVuSans-Oblique-58" d="M 878 4666 
L 1516 4666 
L 2316 2981 
L 3763 4666 
L 4500 4666 
L 2578 2438 
L 3738 0 
L 3103 0 
L 2163 1966 
L 459 0 
L -275 0 
L 1906 2509 
L 878 4666 
z
" transform="scale(0.015625)"/>
      <path id="DejaVuSans-Oblique-74" d="M 2706 3500 
L 2619 3053 
L 1472 3053 
L 1100 1153 
Q 1081 1047 1072 975 
Q 1063 903 1063 863 
Q 1063 663 1183 572 
Q 1303 481 1569 481 
L 2150 481 
L 2053 0 
L 1503 0 
Q 991 0 739 200 
Q 488 400 488 806 
Q 488 878 497 964 
Q 506 1050 525 1153 
L 897 3053 
L 409 3053 
L 500 3500 
L 978 3500 
L 1172 4494 
L 1747 4494 
L 1556 3500 
L 2706 3500 
z
" transform="scale(0.015625)"/>
      <path id="DejaVuSans-Oblique-53" d="M 3859 4513 
L 3738 3897 
Q 3422 4066 3111 4152 
Q 2800 4238 2509 4238 
Q 1944 4238 1609 3991 
Q 1275 3744 1275 3334 
Q 1275 3109 1398 2989 
Q 1522 2869 2034 2731 
L 2413 2638 
Q 3053 2472 3303 2217 
Q 3553 1963 3553 1503 
Q 3553 797 2998 353 
Q 2444 -91 1538 -91 
Q 1166 -91 791 -17 
Q 416 56 38 206 
L 166 856 
Q 513 641 861 531 
Q 1209 422 1556 422 
Q 2147 422 2503 684 
Q 2859 947 2859 1369 
Q 2859 1650 2717 1795 
Q 2575 1941 2106 2059 
L 1728 2156 
Q 1081 2325 845 2545 
Q 609 2766 609 3163 
Q 609 3859 1145 4304 
Q 1681 4750 2541 4750 
Q 2875 4750 3203 4690 
Q 3531 4631 3859 4513 
z
" transform="scale(0.015625)"/>
     </defs>
     <use xlink:href="#DejaVuSans-51" transform="translate(0 0.015625)"/>
     <use xlink:href="#DejaVuSans-75" transform="translate(78.710938 0.015625)"/>
     <use xlink:href="#DejaVuSans-61" transform="translate(142.089844 0.015625)"/>
     <use xlink:href="#DejaVuSans-64" transform="translate(203.369141 0.015625)"/>
     <use xlink:href="#DejaVuSans-72" transform="translate(266.845703 0.015625)"/>
     <use xlink:href="#DejaVuSans-61" transform="translate(307.958984 0.015625)"/>
     <use xlink:href="#DejaVuSans-74" transform="translate(369.238281 0.015625)"/>
     <use xlink:href="#DejaVuSans-69" transform="translate(408.447266 0.015625)"/>
     <use xlink:href="#DejaVuSans-63" transform="translate(436.230469 0.015625)"/>
     <use xlink:href="#DejaVuSans-20" transform="translate(491.210938 0.015625)"/>
     <use xlink:href="#DejaVuSans-43" transform="translate(522.998047 0.015625)"/>
     <use xlink:href="#DejaVuSans-6f" transform="translate(592.822266 0.015625)"/>
     <use xlink:href="#DejaVuSans-76" transform="translate(654.003906 0.015625)"/>
     <use xlink:href="#DejaVuSans-61" transform="translate(713.183594 0.015625)"/>
     <use xlink:href="#DejaVuSans-72" transform="translate(774.462891 0.015625)"/>
     <use xlink:href="#DejaVuSans-69" transform="translate(815.576172 0.015625)"/>
     <use xlink:href="#DejaVuSans-61" transform="translate(843.359375 0.015625)"/>
     <use xlink:href="#DejaVuSans-74" transform="translate(904.638672 0.015625)"/>
     <use xlink:href="#DejaVuSans-69" transform="translate(943.847656 0.015625)"/>
     <use xlink:href="#DejaVuSans-6f" transform="translate(971.630859 0.015625)"/>
     <use xlink:href="#DejaVuSans-6e" transform="translate(1032.8125 0.015625)"/>
     <use xlink:href="#DejaVuSans-20" transform="translate(1096.191406 0.015625)"/>
     <use xlink:href="#DejaVuSans-6f" transform="translate(1127.978516 0.015625)"/>
     <use xlink:href="#DejaVuSans-66" transform="translate(1189.160156 0.015625)"/>
     <use xlink:href="#DejaVuSans-20" transform="translate(1224.365234 0.015625)"/>
     <use xlink:href="#DejaVuSans-Oblique-58" transform="translate(1256.152344 0.015625)"/>
     <use xlink:href="#DejaVuSans-Oblique-74" transform="translate(1324.658203 -16.390625)scale(0.7)"/>
     <use xlink:href="#DejaVuSans-20" transform="translate(1354.838867 0.015625)"/>
     <use xlink:href="#DejaVuSans-61" transform="translate(1386.625977 0.015625)"/>
     <use xlink:href="#DejaVuSans-6e" transform="translate(1447.905273 0.015625)"/>
     <use xlink:href="#DejaVuSans-64" transform="translate(1511.28418 0.015625)"/>
     <use xlink:href="#DejaVuSans-20" transform="translate(1574.760742 0.015625)"/>
     <use xlink:href="#DejaVuSans-Oblique-53" transform="translate(1606.547852 0.015625)"/>
     <use xlink:href="#DejaVuSans-Oblique-74" transform="translate(1670.024414 -16.390625)scale(0.7)"/>
    </g>
   </g>
   <g id="legend_1">
    <g id="patch_7">
     <path d="M 133 103.874375 
L 335.1 103.874375 
Q 337.1 103.874375 337.1 101.874375 
L 337.1 58.84 
Q 337.1 56.84 335.1 56.84 
L 133 56.84 
Q 131 56.84 131 58.84 
L 131 101.874375 
Q 131 103.874375 133 103.874375 
z
" style="fill: #ffffff; opacity: 0.8; stroke: #cccccc; stroke-linejoin: miter"/>
    </g>
    <g id="line2d_19">
     <path d="M 135 64.938437 
L 145 64.938437 
L 155 64.938437 
" style="fill: none; stroke: #1f77b4; stroke-width: 1.5; stroke-linecap: square"/>
    </g>
    <g id="text_19">
     <!-- $X_t$ -->
     <g transform="translate(163 68.438437)scale(0.1 -0.1)">
      <use xlink:href="#DejaVuSans-Oblique-58" transform="translate(0 0.09375)"/>
      <use xlink:href="#DejaVuSans-Oblique-74" transform="translate(68.505859 -16.3125)scale(0.7)"/>
     </g>
    </g>
    <g id="line2d_20">
     <path d="M 135 79.616562 
L 145 79.616562 
L 155 79.616562 
" style="fill: none; stroke: #ff7f0e; stroke-width: 1.5; stroke-linecap: square"/>
    </g>
    <g id="text_20">
     <!-- $S_t$ -->
     <g transform="translate(163 83.116562)scale(0.1 -0.1)">
      <use xlink:href="#DejaVuSans-Oblique-53" transform="translate(0 0.78125)"/>
      <use xlink:href="#DejaVuSans-Oblique-74" transform="translate(63.476562 -15.625)scale(0.7)"/>
     </g>
    </g>
    <g id="line2d_21">
     <path d="M 135 94.294687 
L 145 94.294687 
L 155 94.294687 
" style="fill: none; stroke: #2ca02c; stroke-width: 1.5; stroke-linecap: square"/>
    </g>
    <g id="text_21">
     <!-- Quadratic Covariation of $X_t$ and $S_t$ -->
     <g transform="translate(163 97.794687)scale(0.1 -0.1)">
      <use xlink:href="#DejaVuSans-51" transform="translate(0 0.015625)"/>
      <use xlink:href="#DejaVuSans-75" transform="translate(78.710938 0.015625)"/>
      <use xlink:href="#DejaVuSans-61" transform="translate(142.089844 0.015625)"/>
      <use xlink:href="#DejaVuSans-64" transform="translate(203.369141 0.015625)"/>
      <use xlink:href="#DejaVuSans-72" transform="translate(266.845703 0.015625)"/>
      <use xlink:href="#DejaVuSans-61" transform="translate(307.958984 0.015625)"/>
      <use xlink:href="#DejaVuSans-74" transform="translate(369.238281 0.015625)"/>
      <use xlink:href="#DejaVuSans-69" transform="translate(408.447266 0.015625)"/>
      <use xlink:href="#DejaVuSans-63" transform="translate(436.230469 0.015625)"/>
      <use xlink:href="#DejaVuSans-20" transform="translate(491.210938 0.015625)"/>
      <use xlink:href="#DejaVuSans-43" transform="translate(522.998047 0.015625)"/>
      <use xlink:href="#DejaVuSans-6f" transform="translate(592.822266 0.015625)"/>
      <use xlink:href="#DejaVuSans-76" transform="translate(654.003906 0.015625)"/>
      <use xlink:href="#DejaVuSans-61" transform="translate(713.183594 0.015625)"/>
      <use xlink:href="#DejaVuSans-72" transform="translate(774.462891 0.015625)"/>
      <use xlink:href="#DejaVuSans-69" transform="translate(815.576172 0.015625)"/>
      <use xlink:href="#DejaVuSans-61" transform="translate(843.359375 0.015625)"/>
      <use xlink:href="#DejaVuSans-74" transform="translate(904.638672 0.015625)"/>
      <use xlink:href="#DejaVuSans-69" transform="translate(943.847656 0.015625)"/>
      <use xlink:href="#DejaVuSans-6f" transform="translate(971.630859 0.015625)"/>
      <use xlink:href="#DejaVuSans-6e" transform="translate(1032.8125 0.015625)"/>
      <use xlink:href="#DejaVuSans-20" transform="translate(1096.191406 0.015625)"/>
      <use xlink:href="#DejaVuSans-6f" transform="translate(1127.978516 0.015625)"/>
      <use xlink:href="#DejaVuSans-66" transform="translate(1189.160156 0.015625)"/>
      <use xlink:href="#DejaVuSans-20" transform="translate(1224.365234 0.015625)"/>
      <use xlink:href="#DejaVuSans-Oblique-58" transform="translate(1256.152344 0.015625)"/>
      <use xlink:href="#DejaVuSans-Oblique-74" transform="translate(1324.658203 -16.390625)scale(0.7)"/>
      <use xlink:href="#DejaVuSans-20" transform="translate(1354.838867 0.015625)"/>
      <use xlink:href="#DejaVuSans-61" transform="translate(1386.625977 0.015625)"/>
      <use xlink:href="#DejaVuSans-6e" transform="translate(1447.905273 0.015625)"/>
      <use xlink:href="#DejaVuSans-64" transform="translate(1511.28418 0.015625)"/>
      <use xlink:href="#DejaVuSans-20" transform="translate(1574.760742 0.015625)"/>
      <use xlink:href="#DejaVuSans-Oblique-53" transform="translate(1606.547852 0.015625)"/>
      <use xlink:href="#DejaVuSans-Oblique-74" transform="translate(1670.024414 -16.390625)scale(0.7)"/>
     </g>
    </g>
   </g>
  </g>
 </g>
 <defs>
  <clipPath id="pc6d2ed996b">
   <rect x="126" y="51.84" width="781.2" height="332.64"/>
  </clipPath>
 </defs>
</svg>
