<?xml version="1.0" encoding="utf-8" standalone="no"?>
<!DOCTYPE svg PUBLIC "-//W3C//DTD SVG 1.1//EN"
  "http://www.w3.org/Graphics/SVG/1.1/DTD/svg11.dtd">
<svg xmlns:xlink="http://www.w3.org/1999/xlink" width="1008pt" height="432pt" viewBox="0 0 1008 432" xmlns="http://www.w3.org/2000/svg" version="1.1">
 <metadata>
  <rdf:RDF xmlns:dc="http://purl.org/dc/elements/1.1/" xmlns:cc="http://creativecommons.org/ns#" xmlns:rdf="http://www.w3.org/1999/02/22-rdf-syntax-ns#">
   <cc:Work>
    <dc:type rdf:resource="http://purl.org/dc/dcmitype/StillImage"/>
    <dc:date>2023-12-22T17:08:52.381691</dc:date>
    <dc:format>image/svg+xml</dc:format>
    <dc:creator>
     <cc:Agent>
      <dc:title>Matplotlib v3.5.2, https://matplotlib.org/</dc:title>
     </cc:Agent>
    </dc:creator>
   </cc:Work>
  </rdf:RDF>
 </metadata>
 <defs>
  <style type="text/css">*{stroke-linejoin: round; stroke-linecap: butt}</style>
 </defs>
 <g id="figure_1">
  <g id="patch_1">
   <path d="M 0 432 
L 1008 432 
L 1008 0 
L 0 0 
z
" style="fill: #ffffff"/>
  </g>
  <g id="axes_1">
   <g id="patch_2">
    <path d="M 126 384.48 
L 907.2 384.48 
L 907.2 51.84 
L 126 51.84 
z
" style="fill: #ffffff"/>
   </g>
   <g id="matplotlib.axis_1">
    <g id="xtick_1">
     <g id="line2d_1">
      <defs>
       <path id="me6a752fdf3" d="M 0 0 
L 0 3.5 
" style="stroke: #000000; stroke-width: 0.8"/>
      </defs>
      <g>
       <use xlink:href="#me6a752fdf3" x="161.509091" y="384.48" style="stroke: #000000; stroke-width: 0.8"/>
      </g>
     </g>
     <g id="text_1">
      <!-- 0.0 -->
      <g transform="translate(153.557528 399.078438)scale(0.1 -0.1)">
       <defs>
        <path id="DejaVuSans-30" d="M 2034 4250 
Q 1547 4250 1301 3770 
Q 1056 3291 1056 2328 
Q 1056 1369 1301 889 
Q 1547 409 2034 409 
Q 2525 409 2770 889 
Q 3016 1369 3016 2328 
Q 3016 3291 2770 3770 
Q 2525 4250 2034 4250 
z
M 2034 4750 
Q 2819 4750 3233 4129 
Q 3647 3509 3647 2328 
Q 3647 1150 3233 529 
Q 2819 -91 2034 -91 
Q 1250 -91 836 529 
Q 422 1150 422 2328 
Q 422 3509 836 4129 
Q 1250 4750 2034 4750 
z
" transform="scale(0.015625)"/>
        <path id="DejaVuSans-2e" d="M 684 794 
L 1344 794 
L 1344 0 
L 684 0 
L 684 794 
z
" transform="scale(0.015625)"/>
       </defs>
       <use xlink:href="#DejaVuSans-30"/>
       <use xlink:href="#DejaVuSans-2e" x="63.623047"/>
       <use xlink:href="#DejaVuSans-30" x="95.410156"/>
      </g>
     </g>
    </g>
    <g id="xtick_2">
     <g id="line2d_2">
      <g>
       <use xlink:href="#me6a752fdf3" x="303.545455" y="384.48" style="stroke: #000000; stroke-width: 0.8"/>
      </g>
     </g>
     <g id="text_2">
      <!-- 0.2 -->
      <g transform="translate(295.593892 399.078438)scale(0.1 -0.1)">
       <defs>
        <path id="DejaVuSans-32" d="M 1228 531 
L 3431 531 
L 3431 0 
L 469 0 
L 469 531 
Q 828 903 1448 1529 
Q 2069 2156 2228 2338 
Q 2531 2678 2651 2914 
Q 2772 3150 2772 3378 
Q 2772 3750 2511 3984 
Q 2250 4219 1831 4219 
Q 1534 4219 1204 4116 
Q 875 4013 500 3803 
L 500 4441 
Q 881 4594 1212 4672 
Q 1544 4750 1819 4750 
Q 2544 4750 2975 4387 
Q 3406 4025 3406 3419 
Q 3406 3131 3298 2873 
Q 3191 2616 2906 2266 
Q 2828 2175 2409 1742 
Q 1991 1309 1228 531 
z
" transform="scale(0.015625)"/>
       </defs>
       <use xlink:href="#DejaVuSans-30"/>
       <use xlink:href="#DejaVuSans-2e" x="63.623047"/>
       <use xlink:href="#DejaVuSans-32" x="95.410156"/>
      </g>
     </g>
    </g>
    <g id="xtick_3">
     <g id="line2d_3">
      <g>
       <use xlink:href="#me6a752fdf3" x="445.581818" y="384.48" style="stroke: #000000; stroke-width: 0.8"/>
      </g>
     </g>
     <g id="text_3">
      <!-- 0.4 -->
      <g transform="translate(437.630256 399.078438)scale(0.1 -0.1)">
       <defs>
        <path id="DejaVuSans-34" d="M 2419 4116 
L 825 1625 
L 2419 1625 
L 2419 4116 
z
M 2253 4666 
L 3047 4666 
L 3047 1625 
L 3713 1625 
L 3713 1100 
L 3047 1100 
L 3047 0 
L 2419 0 
L 2419 1100 
L 313 1100 
L 313 1709 
L 2253 4666 
z
" transform="scale(0.015625)"/>
       </defs>
       <use xlink:href="#DejaVuSans-30"/>
       <use xlink:href="#DejaVuSans-2e" x="63.623047"/>
       <use xlink:href="#DejaVuSans-34" x="95.410156"/>
      </g>
     </g>
    </g>
    <g id="xtick_4">
     <g id="line2d_4">
      <g>
       <use xlink:href="#me6a752fdf3" x="587.618182" y="384.48" style="stroke: #000000; stroke-width: 0.8"/>
      </g>
     </g>
     <g id="text_4">
      <!-- 0.6 -->
      <g transform="translate(579.666619 399.078438)scale(0.1 -0.1)">
       <defs>
        <path id="DejaVuSans-36" d="M 2113 2584 
Q 1688 2584 1439 2293 
Q 1191 2003 1191 1497 
Q 1191 994 1439 701 
Q 1688 409 2113 409 
Q 2538 409 2786 701 
Q 3034 994 3034 1497 
Q 3034 2003 2786 2293 
Q 2538 2584 2113 2584 
z
M 3366 4563 
L 3366 3988 
Q 3128 4100 2886 4159 
Q 2644 4219 2406 4219 
Q 1781 4219 1451 3797 
Q 1122 3375 1075 2522 
Q 1259 2794 1537 2939 
Q 1816 3084 2150 3084 
Q 2853 3084 3261 2657 
Q 3669 2231 3669 1497 
Q 3669 778 3244 343 
Q 2819 -91 2113 -91 
Q 1303 -91 875 529 
Q 447 1150 447 2328 
Q 447 3434 972 4092 
Q 1497 4750 2381 4750 
Q 2619 4750 2861 4703 
Q 3103 4656 3366 4563 
z
" transform="scale(0.015625)"/>
       </defs>
       <use xlink:href="#DejaVuSans-30"/>
       <use xlink:href="#DejaVuSans-2e" x="63.623047"/>
       <use xlink:href="#DejaVuSans-36" x="95.410156"/>
      </g>
     </g>
    </g>
    <g id="xtick_5">
     <g id="line2d_5">
      <g>
       <use xlink:href="#me6a752fdf3" x="729.654545" y="384.48" style="stroke: #000000; stroke-width: 0.8"/>
      </g>
     </g>
     <g id="text_5">
      <!-- 0.8 -->
      <g transform="translate(721.702983 399.078438)scale(0.1 -0.1)">
       <defs>
        <path id="DejaVuSans-38" d="M 2034 2216 
Q 1584 2216 1326 1975 
Q 1069 1734 1069 1313 
Q 1069 891 1326 650 
Q 1584 409 2034 409 
Q 2484 409 2743 651 
Q 3003 894 3003 1313 
Q 3003 1734 2745 1975 
Q 2488 2216 2034 2216 
z
M 1403 2484 
Q 997 2584 770 2862 
Q 544 3141 544 3541 
Q 544 4100 942 4425 
Q 1341 4750 2034 4750 
Q 2731 4750 3128 4425 
Q 3525 4100 3525 3541 
Q 3525 3141 3298 2862 
Q 3072 2584 2669 2484 
Q 3125 2378 3379 2068 
Q 3634 1759 3634 1313 
Q 3634 634 3220 271 
Q 2806 -91 2034 -91 
Q 1263 -91 848 271 
Q 434 634 434 1313 
Q 434 1759 690 2068 
Q 947 2378 1403 2484 
z
M 1172 3481 
Q 1172 3119 1398 2916 
Q 1625 2713 2034 2713 
Q 2441 2713 2670 2916 
Q 2900 3119 2900 3481 
Q 2900 3844 2670 4047 
Q 2441 4250 2034 4250 
Q 1625 4250 1398 4047 
Q 1172 3844 1172 3481 
z
" transform="scale(0.015625)"/>
       </defs>
       <use xlink:href="#DejaVuSans-30"/>
       <use xlink:href="#DejaVuSans-2e" x="63.623047"/>
       <use xlink:href="#DejaVuSans-38" x="95.410156"/>
      </g>
     </g>
    </g>
    <g id="xtick_6">
     <g id="line2d_6">
      <g>
       <use xlink:href="#me6a752fdf3" x="871.690909" y="384.48" style="stroke: #000000; stroke-width: 0.8"/>
      </g>
     </g>
     <g id="text_6">
      <!-- 1.0 -->
      <g transform="translate(863.739347 399.078438)scale(0.1 -0.1)">
       <defs>
        <path id="DejaVuSans-31" d="M 794 531 
L 1825 531 
L 1825 4091 
L 703 3866 
L 703 4441 
L 1819 4666 
L 2450 4666 
L 2450 531 
L 3481 531 
L 3481 0 
L 794 0 
L 794 531 
z
" transform="scale(0.015625)"/>
       </defs>
       <use xlink:href="#DejaVuSans-31"/>
       <use xlink:href="#DejaVuSans-2e" x="63.623047"/>
       <use xlink:href="#DejaVuSans-30" x="95.410156"/>
      </g>
     </g>
    </g>
    <g id="text_7">
     <!-- Time -->
     <g transform="translate(504.366406 412.756563)scale(0.1 -0.1)">
      <defs>
       <path id="DejaVuSans-54" d="M -19 4666 
L 3928 4666 
L 3928 4134 
L 2272 4134 
L 2272 0 
L 1638 0 
L 1638 4134 
L -19 4134 
L -19 4666 
z
" transform="scale(0.015625)"/>
       <path id="DejaVuSans-69" d="M 603 3500 
L 1178 3500 
L 1178 0 
L 603 0 
L 603 3500 
z
M 603 4863 
L 1178 4863 
L 1178 4134 
L 603 4134 
L 603 4863 
z
" transform="scale(0.015625)"/>
       <path id="DejaVuSans-6d" d="M 3328 2828 
Q 3544 3216 3844 3400 
Q 4144 3584 4550 3584 
Q 5097 3584 5394 3201 
Q 5691 2819 5691 2113 
L 5691 0 
L 5113 0 
L 5113 2094 
Q 5113 2597 4934 2840 
Q 4756 3084 4391 3084 
Q 3944 3084 3684 2787 
Q 3425 2491 3425 1978 
L 3425 0 
L 2847 0 
L 2847 2094 
Q 2847 2600 2669 2842 
Q 2491 3084 2119 3084 
Q 1678 3084 1418 2786 
Q 1159 2488 1159 1978 
L 1159 0 
L 581 0 
L 581 3500 
L 1159 3500 
L 1159 2956 
Q 1356 3278 1631 3431 
Q 1906 3584 2284 3584 
Q 2666 3584 2933 3390 
Q 3200 3197 3328 2828 
z
" transform="scale(0.015625)"/>
       <path id="DejaVuSans-65" d="M 3597 1894 
L 3597 1613 
L 953 1613 
Q 991 1019 1311 708 
Q 1631 397 2203 397 
Q 2534 397 2845 478 
Q 3156 559 3463 722 
L 3463 178 
Q 3153 47 2828 -22 
Q 2503 -91 2169 -91 
Q 1331 -91 842 396 
Q 353 884 353 1716 
Q 353 2575 817 3079 
Q 1281 3584 2069 3584 
Q 2775 3584 3186 3129 
Q 3597 2675 3597 1894 
z
M 3022 2063 
Q 3016 2534 2758 2815 
Q 2500 3097 2075 3097 
Q 1594 3097 1305 2825 
Q 1016 2553 972 2059 
L 3022 2063 
z
" transform="scale(0.015625)"/>
      </defs>
      <use xlink:href="#DejaVuSans-54"/>
      <use xlink:href="#DejaVuSans-69" x="57.958984"/>
      <use xlink:href="#DejaVuSans-6d" x="85.742188"/>
      <use xlink:href="#DejaVuSans-65" x="183.154297"/>
     </g>
    </g>
   </g>
   <g id="matplotlib.axis_2">
    <g id="ytick_1">
     <g id="line2d_7">
      <defs>
       <path id="mdb8e4b71ed" d="M 0 0 
L -3.5 0 
" style="stroke: #000000; stroke-width: 0.8"/>
      </defs>
      <g>
       <use xlink:href="#mdb8e4b71ed" x="126" y="369.441447" style="stroke: #000000; stroke-width: 0.8"/>
      </g>
     </g>
     <g id="text_8">
      <!-- 0.0 -->
      <g transform="translate(103.096875 373.240666)scale(0.1 -0.1)">
       <use xlink:href="#DejaVuSans-30"/>
       <use xlink:href="#DejaVuSans-2e" x="63.623047"/>
       <use xlink:href="#DejaVuSans-30" x="95.410156"/>
      </g>
     </g>
    </g>
    <g id="ytick_2">
     <g id="line2d_8">
      <g>
       <use xlink:href="#mdb8e4b71ed" x="126" y="315.334255" style="stroke: #000000; stroke-width: 0.8"/>
      </g>
     </g>
     <g id="text_9">
      <!-- 0.5 -->
      <g transform="translate(103.096875 319.133473)scale(0.1 -0.1)">
       <defs>
        <path id="DejaVuSans-35" d="M 691 4666 
L 3169 4666 
L 3169 4134 
L 1269 4134 
L 1269 2991 
Q 1406 3038 1543 3061 
Q 1681 3084 1819 3084 
Q 2600 3084 3056 2656 
Q 3513 2228 3513 1497 
Q 3513 744 3044 326 
Q 2575 -91 1722 -91 
Q 1428 -91 1123 -41 
Q 819 9 494 109 
L 494 744 
Q 775 591 1075 516 
Q 1375 441 1709 441 
Q 2250 441 2565 725 
Q 2881 1009 2881 1497 
Q 2881 1984 2565 2268 
Q 2250 2553 1709 2553 
Q 1456 2553 1204 2497 
Q 953 2441 691 2322 
L 691 4666 
z
" transform="scale(0.015625)"/>
       </defs>
       <use xlink:href="#DejaVuSans-30"/>
       <use xlink:href="#DejaVuSans-2e" x="63.623047"/>
       <use xlink:href="#DejaVuSans-35" x="95.410156"/>
      </g>
     </g>
    </g>
    <g id="ytick_3">
     <g id="line2d_9">
      <g>
       <use xlink:href="#mdb8e4b71ed" x="126" y="261.227062" style="stroke: #000000; stroke-width: 0.8"/>
      </g>
     </g>
     <g id="text_10">
      <!-- 1.0 -->
      <g transform="translate(103.096875 265.026281)scale(0.1 -0.1)">
       <use xlink:href="#DejaVuSans-31"/>
       <use xlink:href="#DejaVuSans-2e" x="63.623047"/>
       <use xlink:href="#DejaVuSans-30" x="95.410156"/>
      </g>
     </g>
    </g>
    <g id="ytick_4">
     <g id="line2d_10">
      <g>
       <use xlink:href="#mdb8e4b71ed" x="126" y="207.119869" style="stroke: #000000; stroke-width: 0.8"/>
      </g>
     </g>
     <g id="text_11">
      <!-- 1.5 -->
      <g transform="translate(103.096875 210.919088)scale(0.1 -0.1)">
       <use xlink:href="#DejaVuSans-31"/>
       <use xlink:href="#DejaVuSans-2e" x="63.623047"/>
       <use xlink:href="#DejaVuSans-35" x="95.410156"/>
      </g>
     </g>
    </g>
    <g id="ytick_5">
     <g id="line2d_11">
      <g>
       <use xlink:href="#mdb8e4b71ed" x="126" y="153.012676" style="stroke: #000000; stroke-width: 0.8"/>
      </g>
     </g>
     <g id="text_12">
      <!-- 2.0 -->
      <g transform="translate(103.096875 156.811895)scale(0.1 -0.1)">
       <use xlink:href="#DejaVuSans-32"/>
       <use xlink:href="#DejaVuSans-2e" x="63.623047"/>
       <use xlink:href="#DejaVuSans-30" x="95.410156"/>
      </g>
     </g>
    </g>
    <g id="ytick_6">
     <g id="line2d_12">
      <g>
       <use xlink:href="#mdb8e4b71ed" x="126" y="98.905484" style="stroke: #000000; stroke-width: 0.8"/>
      </g>
     </g>
     <g id="text_13">
      <!-- 2.5 -->
      <g transform="translate(103.096875 102.704702)scale(0.1 -0.1)">
       <use xlink:href="#DejaVuSans-32"/>
       <use xlink:href="#DejaVuSans-2e" x="63.623047"/>
       <use xlink:href="#DejaVuSans-35" x="95.410156"/>
      </g>
     </g>
    </g>
    <g id="text_14">
     <!-- Quadratic Covariation -->
     <g transform="translate(97.017187 272.970156)rotate(-90)scale(0.1 -0.1)">
      <defs>
       <path id="DejaVuSans-51" d="M 2522 4238 
Q 1834 4238 1429 3725 
Q 1025 3213 1025 2328 
Q 1025 1447 1429 934 
Q 1834 422 2522 422 
Q 3209 422 3611 934 
Q 4013 1447 4013 2328 
Q 4013 3213 3611 3725 
Q 3209 4238 2522 4238 
z
M 3406 84 
L 4238 -825 
L 3475 -825 
L 2784 -78 
Q 2681 -84 2626 -87 
Q 2572 -91 2522 -91 
Q 1538 -91 948 567 
Q 359 1225 359 2328 
Q 359 3434 948 4092 
Q 1538 4750 2522 4750 
Q 3503 4750 4090 4092 
Q 4678 3434 4678 2328 
Q 4678 1516 4351 937 
Q 4025 359 3406 84 
z
" transform="scale(0.015625)"/>
       <path id="DejaVuSans-75" d="M 544 1381 
L 544 3500 
L 1119 3500 
L 1119 1403 
Q 1119 906 1312 657 
Q 1506 409 1894 409 
Q 2359 409 2629 706 
Q 2900 1003 2900 1516 
L 2900 3500 
L 3475 3500 
L 3475 0 
L 2900 0 
L 2900 538 
Q 2691 219 2414 64 
Q 2138 -91 1772 -91 
Q 1169 -91 856 284 
Q 544 659 544 1381 
z
M 1991 3584 
L 1991 3584 
z
" transform="scale(0.015625)"/>
       <path id="DejaVuSans-61" d="M 2194 1759 
Q 1497 1759 1228 1600 
Q 959 1441 959 1056 
Q 959 750 1161 570 
Q 1363 391 1709 391 
Q 2188 391 2477 730 
Q 2766 1069 2766 1631 
L 2766 1759 
L 2194 1759 
z
M 3341 1997 
L 3341 0 
L 2766 0 
L 2766 531 
Q 2569 213 2275 61 
Q 1981 -91 1556 -91 
Q 1019 -91 701 211 
Q 384 513 384 1019 
Q 384 1609 779 1909 
Q 1175 2209 1959 2209 
L 2766 2209 
L 2766 2266 
Q 2766 2663 2505 2880 
Q 2244 3097 1772 3097 
Q 1472 3097 1187 3025 
Q 903 2953 641 2809 
L 641 3341 
Q 956 3463 1253 3523 
Q 1550 3584 1831 3584 
Q 2591 3584 2966 3190 
Q 3341 2797 3341 1997 
z
" transform="scale(0.015625)"/>
       <path id="DejaVuSans-64" d="M 2906 2969 
L 2906 4863 
L 3481 4863 
L 3481 0 
L 2906 0 
L 2906 525 
Q 2725 213 2448 61 
Q 2172 -91 1784 -91 
Q 1150 -91 751 415 
Q 353 922 353 1747 
Q 353 2572 751 3078 
Q 1150 3584 1784 3584 
Q 2172 3584 2448 3432 
Q 2725 3281 2906 2969 
z
M 947 1747 
Q 947 1113 1208 752 
Q 1469 391 1925 391 
Q 2381 391 2643 752 
Q 2906 1113 2906 1747 
Q 2906 2381 2643 2742 
Q 2381 3103 1925 3103 
Q 1469 3103 1208 2742 
Q 947 2381 947 1747 
z
" transform="scale(0.015625)"/>
       <path id="DejaVuSans-72" d="M 2631 2963 
Q 2534 3019 2420 3045 
Q 2306 3072 2169 3072 
Q 1681 3072 1420 2755 
Q 1159 2438 1159 1844 
L 1159 0 
L 581 0 
L 581 3500 
L 1159 3500 
L 1159 2956 
Q 1341 3275 1631 3429 
Q 1922 3584 2338 3584 
Q 2397 3584 2469 3576 
Q 2541 3569 2628 3553 
L 2631 2963 
z
" transform="scale(0.015625)"/>
       <path id="DejaVuSans-74" d="M 1172 4494 
L 1172 3500 
L 2356 3500 
L 2356 3053 
L 1172 3053 
L 1172 1153 
Q 1172 725 1289 603 
Q 1406 481 1766 481 
L 2356 481 
L 2356 0 
L 1766 0 
Q 1100 0 847 248 
Q 594 497 594 1153 
L 594 3053 
L 172 3053 
L 172 3500 
L 594 3500 
L 594 4494 
L 1172 4494 
z
" transform="scale(0.015625)"/>
       <path id="DejaVuSans-63" d="M 3122 3366 
L 3122 2828 
Q 2878 2963 2633 3030 
Q 2388 3097 2138 3097 
Q 1578 3097 1268 2742 
Q 959 2388 959 1747 
Q 959 1106 1268 751 
Q 1578 397 2138 397 
Q 2388 397 2633 464 
Q 2878 531 3122 666 
L 3122 134 
Q 2881 22 2623 -34 
Q 2366 -91 2075 -91 
Q 1284 -91 818 406 
Q 353 903 353 1747 
Q 353 2603 823 3093 
Q 1294 3584 2113 3584 
Q 2378 3584 2631 3529 
Q 2884 3475 3122 3366 
z
" transform="scale(0.015625)"/>
       <path id="DejaVuSans-20" transform="scale(0.015625)"/>
       <path id="DejaVuSans-43" d="M 4122 4306 
L 4122 3641 
Q 3803 3938 3442 4084 
Q 3081 4231 2675 4231 
Q 1875 4231 1450 3742 
Q 1025 3253 1025 2328 
Q 1025 1406 1450 917 
Q 1875 428 2675 428 
Q 3081 428 3442 575 
Q 3803 722 4122 1019 
L 4122 359 
Q 3791 134 3420 21 
Q 3050 -91 2638 -91 
Q 1578 -91 968 557 
Q 359 1206 359 2328 
Q 359 3453 968 4101 
Q 1578 4750 2638 4750 
Q 3056 4750 3426 4639 
Q 3797 4528 4122 4306 
z
" transform="scale(0.015625)"/>
       <path id="DejaVuSans-6f" d="M 1959 3097 
Q 1497 3097 1228 2736 
Q 959 2375 959 1747 
Q 959 1119 1226 758 
Q 1494 397 1959 397 
Q 2419 397 2687 759 
Q 2956 1122 2956 1747 
Q 2956 2369 2687 2733 
Q 2419 3097 1959 3097 
z
M 1959 3584 
Q 2709 3584 3137 3096 
Q 3566 2609 3566 1747 
Q 3566 888 3137 398 
Q 2709 -91 1959 -91 
Q 1206 -91 779 398 
Q 353 888 353 1747 
Q 353 2609 779 3096 
Q 1206 3584 1959 3584 
z
" transform="scale(0.015625)"/>
       <path id="DejaVuSans-76" d="M 191 3500 
L 800 3500 
L 1894 563 
L 2988 3500 
L 3597 3500 
L 2284 0 
L 1503 0 
L 191 3500 
z
" transform="scale(0.015625)"/>
       <path id="DejaVuSans-6e" d="M 3513 2113 
L 3513 0 
L 2938 0 
L 2938 2094 
Q 2938 2591 2744 2837 
Q 2550 3084 2163 3084 
Q 1697 3084 1428 2787 
Q 1159 2491 1159 1978 
L 1159 0 
L 581 0 
L 581 3500 
L 1159 3500 
L 1159 2956 
Q 1366 3272 1645 3428 
Q 1925 3584 2291 3584 
Q 2894 3584 3203 3211 
Q 3513 2838 3513 2113 
z
" transform="scale(0.015625)"/>
      </defs>
      <use xlink:href="#DejaVuSans-51"/>
      <use xlink:href="#DejaVuSans-75" x="78.710938"/>
      <use xlink:href="#DejaVuSans-61" x="142.089844"/>
      <use xlink:href="#DejaVuSans-64" x="203.369141"/>
      <use xlink:href="#DejaVuSans-72" x="266.845703"/>
      <use xlink:href="#DejaVuSans-61" x="307.958984"/>
      <use xlink:href="#DejaVuSans-74" x="369.238281"/>
      <use xlink:href="#DejaVuSans-69" x="408.447266"/>
      <use xlink:href="#DejaVuSans-63" x="436.230469"/>
      <use xlink:href="#DejaVuSans-20" x="491.210938"/>
      <use xlink:href="#DejaVuSans-43" x="522.998047"/>
      <use xlink:href="#DejaVuSans-6f" x="592.822266"/>
      <use xlink:href="#DejaVuSans-76" x="654.003906"/>
      <use xlink:href="#DejaVuSans-61" x="713.183594"/>
      <use xlink:href="#DejaVuSans-72" x="774.462891"/>
      <use xlink:href="#DejaVuSans-69" x="815.576172"/>
      <use xlink:href="#DejaVuSans-61" x="843.359375"/>
      <use xlink:href="#DejaVuSans-74" x="904.638672"/>
      <use xlink:href="#DejaVuSans-69" x="943.847656"/>
      <use xlink:href="#DejaVuSans-6f" x="971.630859"/>
      <use xlink:href="#DejaVuSans-6e" x="1032.8125"/>
     </g>
    </g>
   </g>
   <g id="line2d_13">
    <path d="M 161.509091 261.227062 
L 162.219273 265.020307 
L 162.929455 271.110933 
L 163.639636 271.675747 
L 164.349818 274.925133 
L 165.06 273.639486 
L 166.480364 265.071683 
L 167.190545 262.505293 
L 167.900727 262.02849 
L 168.610909 263.432976 
L 169.321091 264.044597 
L 170.031273 261.759197 
L 170.741455 266.32096 
L 171.451636 264.702962 
L 172.161818 261.880092 
L 172.872 260.217673 
L 173.582182 263.22794 
L 174.292364 266.722833 
L 175.002545 261.025414 
L 176.422909 266.46873 
L 177.133091 263.052039 
L 177.843273 266.510915 
L 178.553455 266.843873 
L 179.263636 264.651577 
L 179.973818 263.981174 
L 180.684 268.407249 
L 182.104364 260.193255 
L 182.814545 263.807828 
L 183.524727 257.02481 
L 184.234909 257.269148 
L 184.945091 258.464932 
L 185.655273 260.113626 
L 186.365455 260.87949 
L 187.075636 255.092612 
L 187.785818 252.930896 
L 188.496 253.352744 
L 189.206182 254.587796 
L 189.916364 254.79633 
L 190.626545 256.162795 
L 191.336727 261.19589 
L 192.046909 258.578856 
L 192.757091 255.193578 
L 193.467273 249.29699 
L 194.177455 252.380287 
L 194.887636 259.589349 
L 195.597818 258.179698 
L 196.308 253.58462 
L 197.018182 253.847908 
L 197.728364 255.14436 
L 199.148727 244.568128 
L 199.858909 246.197373 
L 200.569091 240.043007 
L 201.989455 236.378013 
L 202.699636 238.485783 
L 203.409818 238.330249 
L 204.12 238.647173 
L 204.830182 236.34001 
L 205.540364 235.356291 
L 206.250545 236.903244 
L 206.960727 244.364934 
L 207.670909 244.805352 
L 208.381091 243.721771 
L 209.091273 243.26539 
L 209.801455 244.65281 
L 210.511636 242.600498 
L 211.221818 241.588735 
L 211.932 240.995094 
L 212.642182 242.157039 
L 213.352364 243.922987 
L 214.062545 242.252493 
L 214.772727 238.168889 
L 216.193091 249.817411 
L 216.903273 248.747567 
L 217.613455 246.995217 
L 218.323636 246.066445 
L 219.033818 247.10645 
L 219.744 249.799117 
L 220.454182 253.194738 
L 221.164364 257.224355 
L 221.874545 255.292242 
L 222.584727 257.279965 
L 223.294909 259.921272 
L 224.005091 259.075446 
L 224.715273 264.637469 
L 225.425455 266.815919 
L 226.135636 262.554051 
L 228.266182 275.681866 
L 228.976364 275.816913 
L 229.686545 274.918911 
L 230.396727 277.734695 
L 231.817091 280.070081 
L 232.527273 287.824496 
L 233.237455 288.166515 
L 234.657818 291.938549 
L 235.368 290.190021 
L 236.078182 292.264181 
L 236.788364 288.485741 
L 237.498545 288.773064 
L 238.208727 286.510584 
L 238.918909 287.945698 
L 239.629091 286.365839 
L 240.339273 283.560526 
L 241.049455 286.911934 
L 241.759636 291.649305 
L 242.469818 293.63266 
L 243.18 294.108886 
L 243.890182 296.542654 
L 244.600364 298.123264 
L 245.310545 297.278161 
L 246.020727 299.28455 
L 246.730909 294.662663 
L 247.441091 292.75716 
L 248.151273 287.789034 
L 248.861455 280.704457 
L 249.571636 282.808481 
L 250.281818 272.491083 
L 250.992 271.980127 
L 251.702182 271.225955 
L 252.412364 273.924079 
L 253.122545 273.761501 
L 253.832727 265.577113 
L 255.253091 258.296445 
L 255.963273 257.406516 
L 257.383636 269.56972 
L 258.093818 269.206394 
L 258.804 269.529406 
L 260.224364 280.870528 
L 260.934545 283.063117 
L 261.644727 281.498283 
L 262.354909 277.839443 
L 263.065091 278.690491 
L 263.775273 275.596137 
L 264.485455 271.681741 
L 265.195636 266.369939 
L 265.905818 266.955078 
L 266.616 269.673049 
L 267.326182 267.474379 
L 268.036364 270.454901 
L 268.746545 275.702547 
L 269.456727 277.033372 
L 270.166909 282.531368 
L 270.877091 280.669773 
L 271.587273 283.662282 
L 272.297455 283.619783 
L 273.007636 282.523605 
L 273.717818 280.027719 
L 274.428 282.52886 
L 275.138182 282.957591 
L 275.848364 278.852767 
L 276.558545 280.096802 
L 277.268727 283.878526 
L 277.978909 289.115862 
L 278.689091 290.80025 
L 279.399273 293.630413 
L 280.819636 284.588432 
L 281.529818 289.006972 
L 282.24 289.119667 
L 282.950182 291.317404 
L 283.660364 291.089311 
L 284.370545 294.260045 
L 285.080727 295.206635 
L 285.790909 297.811719 
L 286.501091 303.378187 
L 287.211273 304.629917 
L 287.921455 307.21091 
L 288.631636 303.544244 
L 289.341818 308.579595 
L 290.052 304.293336 
L 290.762182 301.88012 
L 291.472364 300.559701 
L 292.182545 297.002203 
L 292.892727 294.136907 
L 293.602909 293.888514 
L 294.313091 292.887548 
L 295.023273 283.521365 
L 295.733455 287.266657 
L 296.443636 288.424034 
L 297.153818 286.038729 
L 297.864 288.255952 
L 298.574182 291.908387 
L 299.284364 298.095868 
L 299.994545 294.273352 
L 300.704727 301.372229 
L 301.414909 299.147625 
L 302.125091 298.736648 
L 302.835273 291.148943 
L 303.545455 286.42894 
L 304.255636 288.152274 
L 304.965818 286.829454 
L 305.676 287.784831 
L 306.386182 286.53996 
L 307.096364 288.293923 
L 307.806545 283.97823 
L 308.516727 288.677646 
L 309.226909 286.379438 
L 309.937091 289.480632 
L 310.647273 287.927567 
L 311.357455 291.812251 
L 312.067636 292.558681 
L 312.777818 295.406051 
L 313.488 295.073302 
L 314.198182 298.576545 
L 314.908364 301.366168 
L 315.618545 310.518052 
L 316.328727 311.231853 
L 317.038909 305.73049 
L 317.749091 305.816829 
L 318.459273 309.064768 
L 319.169455 310.538107 
L 319.879636 312.519915 
L 320.589818 314.100194 
L 321.3 316.77722 
L 322.010182 316.469835 
L 322.720364 320.829938 
L 323.430545 319.77708 
L 324.140727 316.958508 
L 324.850909 319.640463 
L 325.561091 316.72436 
L 326.271273 317.214232 
L 326.981455 310.384569 
L 327.691636 307.669957 
L 328.401818 310.594766 
L 329.112 312.041652 
L 329.822182 314.567179 
L 330.532364 315.52315 
L 331.242545 313.576345 
L 331.952727 314.328683 
L 332.662909 316.569872 
L 333.373091 315.403722 
L 334.083273 314.836402 
L 334.793455 310.360706 
L 335.503636 307.72409 
L 336.213818 312.31609 
L 336.924 316.10785 
L 337.634182 313.702103 
L 338.344364 313.077032 
L 339.054545 314.368496 
L 339.764727 313.500376 
L 340.474909 310.540711 
L 341.185091 312.945794 
L 341.895273 312.704666 
L 342.605455 313.850693 
L 343.315636 317.828572 
L 344.736 322.457655 
L 345.446182 324.129185 
L 346.156364 328.521359 
L 346.866545 328.671429 
L 347.576727 327.628276 
L 348.286909 326.793874 
L 348.997091 331.734495 
L 349.707273 329.952381 
L 350.417455 331.119911 
L 351.127636 328.481458 
L 351.837818 335.692218 
L 352.548 331.492851 
L 353.258182 328.218383 
L 353.968364 328.208586 
L 354.678545 333.460199 
L 356.098909 340.27083 
L 356.809091 336.870858 
L 357.519273 337.228711 
L 358.229455 338.425758 
L 358.939636 331.678623 
L 359.649818 332.606537 
L 360.36 337.673223 
L 361.070182 345.168811 
L 361.780364 343.077114 
L 362.490545 339.474258 
L 363.200727 336.66348 
L 363.910909 343.275439 
L 364.621091 341.680256 
L 365.331273 338.914924 
L 366.041455 334.573402 
L 366.751636 334.864018 
L 367.461818 332.816449 
L 368.882182 322.445976 
L 369.592364 320.15097 
L 371.012727 311.976542 
L 371.722909 303.701883 
L 372.433091 302.246328 
L 373.853455 306.74123 
L 375.273818 309.27241 
L 375.984 309.771337 
L 376.694182 315.110189 
L 377.404364 310.004543 
L 378.114545 309.131906 
L 378.824727 310.610581 
L 379.534909 317.431168 
L 380.245091 310.395842 
L 380.955273 312.442008 
L 381.665455 313.187895 
L 382.375636 312.464886 
L 383.085818 316.467776 
L 383.796 315.921485 
L 384.506182 313.747987 
L 385.216364 312.259876 
L 385.926545 311.602457 
L 387.346909 309.592591 
L 388.057091 311.494342 
L 389.477455 301.98445 
L 390.187636 301.123605 
L 390.897818 292.588937 
L 391.608 296.425057 
L 392.318182 295.077058 
L 393.028364 294.820874 
L 393.738545 292.691232 
L 394.448727 289.695137 
L 395.158909 290.784419 
L 395.869091 291.055132 
L 396.579273 290.720886 
L 397.289455 293.949401 
L 397.999636 292.168149 
L 398.709818 295.002955 
L 399.42 295.077282 
L 400.130182 293.202564 
L 400.840364 292.175568 
L 401.550545 292.502784 
L 402.260727 295.170358 
L 402.970909 296.931718 
L 403.681091 296.768067 
L 404.391273 298.700201 
L 405.101455 294.70318 
L 405.811636 288.974293 
L 406.521818 288.553605 
L 407.232 286.04558 
L 407.942182 282.473233 
L 408.652364 287.391404 
L 409.362545 278.464141 
L 410.072727 286.797009 
L 410.782909 290.442608 
L 411.493091 288.575496 
L 412.203273 285.54841 
L 412.913455 284.659833 
L 413.623636 281.005267 
L 414.333818 284.869648 
L 415.044 284.805295 
L 415.754182 286.687946 
L 416.464364 288.05385 
L 417.174545 281.083002 
L 417.884727 279.977508 
L 418.594909 279.592248 
L 419.305091 283.748999 
L 420.015273 280.663333 
L 420.725455 280.716182 
L 421.435636 278.75668 
L 422.145818 277.658163 
L 422.856 278.227949 
L 423.566182 276.392044 
L 424.276364 273.270945 
L 424.986545 274.383882 
L 425.696727 273.47288 
L 427.117091 277.712666 
L 427.827273 274.436291 
L 428.537455 268.983472 
L 429.247636 264.475354 
L 429.957818 260.857322 
L 430.668 255.671434 
L 431.378182 255.955075 
L 432.088364 260.87498 
L 432.798545 267.72204 
L 433.508727 266.252503 
L 434.218909 263.908789 
L 434.929091 260.484062 
L 435.639273 260.767678 
L 436.349455 260.430641 
L 437.059636 255.507605 
L 437.769818 259.588153 
L 438.48 260.90171 
L 439.190182 256.707311 
L 439.900364 253.243444 
L 440.610545 258.721804 
L 441.320727 253.184994 
L 442.030909 257.675066 
L 442.741091 260.988769 
L 443.451273 268.060553 
L 444.161455 268.17993 
L 444.871636 270.373002 
L 445.581818 270.631112 
L 446.292 276.122586 
L 447.002182 273.829993 
L 447.712364 274.204138 
L 448.422545 272.732147 
L 449.132727 272.857956 
L 449.842909 277.106048 
L 450.553091 269.086019 
L 451.263273 263.582907 
L 451.973455 263.281081 
L 452.683636 258.778251 
L 453.393818 257.168827 
L 454.104 257.977683 
L 454.814182 257.10743 
L 455.524364 259.711176 
L 456.234545 259.313695 
L 456.944727 259.171094 
L 457.654909 268.641271 
L 458.365091 265.590537 
L 459.075273 267.980597 
L 459.785455 276.14828 
L 461.205818 282.927596 
L 461.916 286.438768 
L 462.626182 287.185414 
L 463.336364 283.936096 
L 464.046545 276.548115 
L 464.756727 275.216034 
L 465.466909 276.86279 
L 466.177091 272.740171 
L 466.887273 270.773519 
L 467.597455 271.612687 
L 468.307636 274.895595 
L 469.017818 269.072783 
L 469.728 273.559846 
L 470.438182 273.578176 
L 471.148364 272.139541 
L 471.858545 271.92893 
L 473.278909 265.846841 
L 473.989091 269.044399 
L 474.699273 274.278237 
L 475.409455 268.607669 
L 476.119636 266.574206 
L 476.829818 265.600784 
L 477.54 266.021865 
L 478.250182 264.724589 
L 478.960364 266.032842 
L 480.380727 258.382755 
L 481.090909 258.610105 
L 481.801091 260.398525 
L 482.511273 257.310751 
L 483.221455 262.098302 
L 483.931636 259.35644 
L 484.641818 258.966213 
L 485.352 257.029637 
L 486.062182 257.065407 
L 487.482545 263.932886 
L 488.192727 264.473024 
L 488.902909 265.635958 
L 489.613091 264.034843 
L 490.323273 263.620202 
L 491.033455 265.846119 
L 491.743636 269.009896 
L 492.453818 266.329047 
L 493.164 262.487951 
L 493.874182 268.316985 
L 494.584364 268.858245 
L 495.294545 261.359556 
L 496.004727 258.183659 
L 496.714909 262.65658 
L 498.135273 274.607934 
L 498.845455 273.070563 
L 499.555636 269.871198 
L 500.265818 273.317236 
L 500.976 271.938768 
L 501.686182 265.163336 
L 502.396364 266.416184 
L 503.106545 266.41074 
L 503.816727 266.198803 
L 504.526909 269.973454 
L 505.237091 274.470502 
L 505.947273 267.492246 
L 506.657455 266.165562 
L 507.367636 271.887119 
L 508.077818 274.555344 
L 509.498182 266.740526 
L 510.208364 268.798942 
L 510.918545 264.664193 
L 511.628727 263.06692 
L 512.338909 267.108936 
L 513.049091 269.088267 
L 513.759273 269.627137 
L 514.469455 268.32138 
L 515.179636 262.650141 
L 515.889818 262.947645 
L 516.6 267.639234 
L 517.310182 270.333287 
L 518.020364 271.125234 
L 518.730545 273.081374 
L 519.440727 276.708306 
L 520.150909 279.721327 
L 520.861091 275.732314 
L 521.571273 273.550191 
L 522.281455 270.972499 
L 522.991636 271.583478 
L 523.701818 267.079683 
L 524.412 270.076363 
L 525.122182 271.057036 
L 525.832364 269.015804 
L 526.542545 263.088318 
L 527.252727 264.752941 
L 527.962909 264.772403 
L 528.673091 276.172146 
L 529.383273 273.991585 
L 530.093455 274.689589 
L 530.803636 278.169909 
L 531.513818 276.291339 
L 532.224 273.048031 
L 532.934182 280.27692 
L 533.644364 277.026373 
L 534.354545 278.319703 
L 535.064727 275.422684 
L 535.774909 278.121642 
L 537.195273 276.492285 
L 537.905455 274.425959 
L 538.615636 275.854692 
L 539.325818 278.534245 
L 540.036 284.74714 
L 540.746182 286.929951 
L 541.456364 283.441661 
L 542.166545 283.35274 
L 542.876727 284.043579 
L 543.586909 284.05045 
L 544.297091 280.753867 
L 545.007273 283.951138 
L 545.717455 283.428926 
L 546.427636 283.158759 
L 547.848 296.440121 
L 548.558182 299.024335 
L 549.268364 291.451746 
L 549.978545 293.65073 
L 550.688727 294.949705 
L 551.398909 292.074784 
L 552.109091 292.334989 
L 552.819273 289.183147 
L 553.529455 289.189968 
L 554.949818 297.181842 
L 555.66 295.998547 
L 556.370182 298.971825 
L 557.080364 299.515926 
L 557.790545 298.954526 
L 558.500727 299.636037 
L 559.210909 297.29265 
L 559.921091 296.704351 
L 561.341455 297.405298 
L 562.051636 290.407238 
L 562.761818 291.212715 
L 563.472 293.147204 
L 564.182182 286.895981 
L 564.892364 287.546812 
L 565.602545 285.464902 
L 566.312727 285.478882 
L 567.022909 293.610319 
L 567.733091 298.241912 
L 568.443273 298.600642 
L 569.153455 302.360892 
L 569.863636 299.994249 
L 570.573818 301.446124 
L 571.284 301.03725 
L 571.994182 299.441514 
L 572.704364 300.838472 
L 573.414545 298.17388 
L 574.124727 294.853912 
L 574.834909 297.884434 
L 576.255273 292.782407 
L 576.965455 291.217568 
L 577.675636 295.351208 
L 578.385818 291.237678 
L 579.096 293.918588 
L 579.806182 291.080632 
L 580.516364 285.954629 
L 581.226545 285.458086 
L 581.936727 286.124374 
L 582.646909 291.789067 
L 583.357091 290.565714 
L 584.067273 293.006626 
L 584.777455 298.464771 
L 585.487636 293.091369 
L 586.197818 289.709553 
L 586.908 291.095059 
L 587.618182 287.470357 
L 588.328364 288.840304 
L 589.038545 289.763791 
L 589.748727 292.357886 
L 590.458909 291.762963 
L 591.169091 292.551373 
L 591.879273 287.370189 
L 592.589455 293.281004 
L 593.299636 290.928382 
L 594.009818 291.171738 
L 594.72 293.250823 
L 595.430182 296.245331 
L 596.140364 297.767223 
L 597.560727 294.702979 
L 598.270909 288.995459 
L 598.981091 287.346203 
L 599.691273 289.040094 
L 600.401455 290.229133 
L 601.111636 296.723388 
L 601.821818 295.415548 
L 602.532 294.951493 
L 603.242182 294.778826 
L 603.952364 296.735298 
L 604.662545 291.998863 
L 605.372727 295.606083 
L 606.082909 291.2871 
L 606.793091 286.224156 
L 607.503273 287.984673 
L 608.213455 291.901335 
L 608.923636 292.247765 
L 609.633818 294.231428 
L 610.344 292.003931 
L 611.054182 292.615023 
L 612.474545 290.184962 
L 613.184727 292.088522 
L 613.894909 295.346918 
L 614.605091 295.770375 
L 615.315273 298.344083 
L 616.025455 295.179592 
L 616.735636 290.509053 
L 617.445818 288.565462 
L 618.156 291.935701 
L 618.866182 288.447647 
L 619.576364 285.659196 
L 620.286545 291.52944 
L 620.996727 284.994912 
L 621.706909 282.582233 
L 622.417091 282.754412 
L 623.127273 287.04395 
L 623.837455 283.876423 
L 624.547636 284.549861 
L 625.257818 286.750626 
L 625.968 283.466561 
L 626.678182 287.370504 
L 627.388364 283.898181 
L 628.098545 289.802004 
L 628.808727 289.335302 
L 629.518909 290.305989 
L 630.229091 287.331983 
L 630.939273 288.690328 
L 631.649455 282.759619 
L 632.359636 287.808531 
L 633.069818 280.49778 
L 633.78 285.880454 
L 634.490182 283.526348 
L 635.200364 278.562516 
L 635.910545 279.441095 
L 636.620727 279.634486 
L 637.330909 278.538111 
L 638.041091 278.556931 
L 638.751273 276.393708 
L 639.461455 275.987526 
L 640.171636 276.185215 
L 640.881818 272.824727 
L 641.592 272.130719 
L 642.302182 268.548421 
L 643.012364 272.156218 
L 643.722545 269.082904 
L 644.432727 271.071209 
L 645.142909 273.474 
L 645.853091 270.968747 
L 646.563273 269.212042 
L 647.273455 268.353671 
L 647.983636 271.582503 
L 648.693818 272.865762 
L 649.404 271.191197 
L 650.114182 268.71181 
L 650.824364 271.482725 
L 652.244727 263.908653 
L 652.954909 263.845047 
L 653.665091 263.550876 
L 654.375273 263.484046 
L 655.085455 261.568769 
L 655.795636 268.58109 
L 656.505818 271.828437 
L 657.216 266.590274 
L 657.926182 262.570358 
L 659.346545 265.66874 
L 660.056727 267.337955 
L 660.766909 264.171714 
L 661.477091 259.716515 
L 662.187273 267.352222 
L 662.897455 267.844062 
L 663.607636 269.449858 
L 664.317818 271.515398 
L 665.028 269.561306 
L 665.738182 272.3616 
L 666.448364 271.6417 
L 667.868727 267.58484 
L 668.578909 270.95029 
L 669.289091 266.980035 
L 669.999273 268.358717 
L 670.709455 268.906737 
L 672.84 277.738246 
L 673.550182 278.525468 
L 674.260364 269.966487 
L 675.680727 271.927766 
L 676.390909 273.89967 
L 677.101091 271.293381 
L 677.811273 272.03571 
L 678.521455 273.153103 
L 679.231636 273.241062 
L 679.941818 271.833404 
L 680.652 264.710068 
L 682.072364 265.02462 
L 682.782545 261.976541 
L 684.202909 270.319768 
L 684.913091 275.282723 
L 685.623273 270.773016 
L 687.043636 266.206116 
L 687.753818 275.535425 
L 688.464 270.79228 
L 689.174182 268.382895 
L 689.884364 265.344157 
L 690.594545 268.040759 
L 691.304727 265.819417 
L 692.014909 270.663926 
L 692.725091 270.827595 
L 693.435273 267.685964 
L 694.145455 265.772058 
L 694.855636 267.245473 
L 695.565818 268.979571 
L 696.276 266.262863 
L 696.986182 264.672462 
L 697.696364 271.028479 
L 698.406545 271.703251 
L 699.116727 265.540157 
L 699.826909 266.432573 
L 700.537091 263.379456 
L 701.247273 259.288863 
L 701.957455 261.202933 
L 702.667636 256.313736 
L 703.377818 246.925059 
L 704.088 247.536513 
L 704.798182 247.056999 
L 705.508364 248.40667 
L 706.218545 245.491927 
L 706.928727 246.650616 
L 707.638909 248.129852 
L 708.349091 244.23115 
L 709.059273 242.133015 
L 709.769455 250.602556 
L 710.479636 243.362121 
L 711.189818 244.640875 
L 711.9 249.043975 
L 712.610182 245.644367 
L 713.320364 248.449607 
L 714.030545 244.407189 
L 714.740727 244.079886 
L 715.450909 246.664789 
L 716.161091 248.078073 
L 716.871273 247.750617 
L 717.581455 250.484408 
L 718.291636 249.384909 
L 719.001818 247.979398 
L 719.712 247.522241 
L 720.422182 244.912903 
L 721.132364 248.679583 
L 721.842545 248.847244 
L 722.552727 249.932355 
L 723.262909 250.510977 
L 723.973091 249.065741 
L 724.683273 255.325665 
L 725.393455 252.82756 
L 726.813818 239.350442 
L 728.234182 239.256095 
L 728.944364 240.25097 
L 729.654545 240.964165 
L 730.364727 235.324908 
L 731.074909 236.328966 
L 731.785091 229.515906 
L 732.495273 231.562339 
L 733.205455 231.640444 
L 733.915636 229.618046 
L 734.625818 229.372162 
L 735.336 229.669033 
L 736.756364 238.312125 
L 738.176727 235.320165 
L 738.886909 240.073821 
L 739.597091 238.884003 
L 740.307273 241.498761 
L 741.017455 241.365032 
L 741.727636 245.062351 
L 742.437818 242.950154 
L 743.148 243.576658 
L 743.858182 247.565122 
L 744.568364 243.303325 
L 745.278545 244.470465 
L 745.988727 244.803391 
L 746.698909 246.121804 
L 747.409091 247.873718 
L 748.119273 250.715115 
L 748.829455 250.515826 
L 749.539636 250.087604 
L 750.249818 250.946181 
L 750.96 248.368995 
L 751.670182 250.227372 
L 752.380364 246.45821 
L 753.090545 241.830571 
L 753.800727 243.803849 
L 754.510909 244.39948 
L 755.221091 248.653645 
L 755.931273 250.065556 
L 756.641455 249.400858 
L 757.351636 250.635797 
L 758.061818 250.51875 
L 758.772 253.691311 
L 759.482182 254.981058 
L 760.192364 249.575232 
L 760.902545 242.779849 
L 761.612727 237.418773 
L 762.322909 232.904273 
L 763.033091 232.597448 
L 763.743273 235.096086 
L 764.453455 236.566215 
L 765.163636 237.076249 
L 765.873818 239.822384 
L 766.584 238.733048 
L 767.294182 236.723644 
L 768.004364 236.63735 
L 768.714545 236.822696 
L 769.424727 242.6203 
L 770.134909 235.258872 
L 770.845091 238.654364 
L 771.555273 235.749384 
L 772.975636 238.549058 
L 774.396 233.571735 
L 775.816364 241.329557 
L 776.526545 237.090819 
L 777.236727 231.428466 
L 777.946909 228.911384 
L 779.367273 219.208262 
L 780.077455 214.167538 
L 780.787636 220.113322 
L 781.497818 223.397428 
L 782.208 220.315085 
L 782.918182 221.630872 
L 783.628364 225.756252 
L 784.338545 225.226628 
L 785.758909 215.644281 
L 786.469091 214.616923 
L 787.179273 206.450555 
L 787.889455 204.584378 
L 788.599636 204.479735 
L 789.309818 205.038703 
L 790.02 205.124262 
L 790.730182 200.92478 
L 791.440364 201.459266 
L 792.150545 197.907023 
L 792.860727 199.108058 
L 793.570909 197.810457 
L 794.281091 200.507741 
L 794.991273 193.374275 
L 795.701455 192.928463 
L 796.411636 198.906563 
L 797.121818 199.975821 
L 797.832 199.771485 
L 798.542182 198.496191 
L 799.252364 196.815126 
L 799.962545 193.543034 
L 801.382909 203.012461 
L 802.093091 204.500936 
L 802.803273 203.530463 
L 803.513455 203.659606 
L 804.223636 212.731348 
L 804.933818 214.929196 
L 805.644 213.554835 
L 806.354182 213.65904 
L 807.064364 208.686613 
L 807.774545 208.179522 
L 809.194909 203.210478 
L 809.905091 205.489623 
L 810.615273 204.285799 
L 811.325455 214.687814 
L 812.035636 212.960247 
L 812.745818 212.998785 
L 813.456 210.583203 
L 814.166182 211.689169 
L 814.876364 210.798667 
L 815.586545 218.543016 
L 816.296727 222.836155 
L 817.006909 220.054564 
L 817.717091 222.35749 
L 818.427273 227.683907 
L 819.137455 225.858712 
L 819.847636 232.552809 
L 820.557818 230.611183 
L 821.268 232.310846 
L 821.978182 227.271283 
L 822.688364 225.341494 
L 823.398545 225.461955 
L 824.108727 225.218092 
L 825.529091 217.36295 
L 826.239273 219.409857 
L 826.949455 216.874857 
L 827.659636 215.174187 
L 828.369818 214.184436 
L 829.08 216.02554 
L 829.790182 215.195758 
L 830.500364 211.022316 
L 831.210545 214.307991 
L 831.920727 211.303171 
L 832.630909 210.184703 
L 833.341091 208.201456 
L 834.051273 207.765169 
L 834.761455 207.550862 
L 835.471636 206.906893 
L 836.181818 205.990733 
L 836.892 194.266684 
L 837.602182 186.897753 
L 838.312364 190.957361 
L 839.022545 194.031777 
L 839.732727 191.98168 
L 840.442909 196.848414 
L 841.153091 194.998547 
L 841.863273 197.468544 
L 842.573455 194.04971 
L 843.283636 193.230544 
L 843.993818 190.374037 
L 844.704 194.792895 
L 845.414182 190.089406 
L 846.124364 190.610322 
L 846.834545 192.453029 
L 847.544727 199.769566 
L 848.254909 197.121766 
L 848.965091 190.98086 
L 849.675273 191.918252 
L 850.385455 195.703072 
L 851.095636 191.382771 
L 852.516 188.290104 
L 853.226182 185.712141 
L 853.936364 187.194042 
L 854.646545 186.484629 
L 855.356727 189.673784 
L 856.066909 188.465012 
L 856.777091 188.115232 
L 857.487273 188.112907 
L 858.197455 188.674367 
L 858.907636 186.818443 
L 859.617818 189.517601 
L 860.328 186.567156 
L 861.038182 180.501622 
L 861.748364 179.409124 
L 862.458545 175.786859 
L 863.168727 174.518338 
L 863.878909 174.559705 
L 864.589091 172.026601 
L 865.299273 167.738852 
L 866.009455 166.993468 
L 866.719636 168.781265 
L 867.429818 167.776582 
L 868.14 168.30389 
L 868.850182 163.959302 
L 869.560364 163.944621 
L 870.270545 160.093525 
L 870.980727 161.442867 
L 871.690909 165.664026 
L 871.690909 165.664026 
" clip-path="url(#p34f113ef90)" style="fill: none; stroke: #1f77b4; stroke-width: 1.5; stroke-linecap: square"/>
   </g>
   <g id="line2d_14">
    <path d="M 161.509091 261.227062 
L 162.219273 263.550608 
L 162.929455 267.359734 
L 164.349818 270.457263 
L 165.06 263.319487 
L 165.770182 257.423508 
L 166.480364 248.880388 
L 167.190545 242.074458 
L 167.900727 240.128542 
L 168.610909 243.302021 
L 169.321091 239.29558 
L 170.031273 238.173276 
L 170.741455 246.921533 
L 172.161818 236.882788 
L 172.872 229.513494 
L 173.582182 230.610931 
L 174.292364 237.716848 
L 175.002545 230.688607 
L 175.712727 232.002458 
L 176.422909 232.426179 
L 177.133091 228.659615 
L 177.843273 234.01696 
L 178.553455 235.099613 
L 179.263636 232.734295 
L 179.973818 227.899815 
L 180.684 235.646434 
L 181.394182 231.354644 
L 182.104364 232.338935 
L 182.814545 233.569123 
L 183.524727 225.369872 
L 184.945091 228.624507 
L 186.365455 235.945566 
L 187.075636 225.609246 
L 187.785818 218.570704 
L 188.496 216.442841 
L 189.206182 215.075391 
L 189.916364 216.457561 
L 190.626545 212.981507 
L 191.336727 218.588885 
L 192.046909 216.309126 
L 192.757091 216.200376 
L 193.467273 212.234122 
L 194.177455 218.342704 
L 194.887636 222.10265 
L 195.597818 223.498413 
L 196.308 216.113473 
L 197.018182 215.261242 
L 197.728364 209.790998 
L 198.438545 205.674193 
L 199.148727 198.871602 
L 199.858909 203.253605 
L 200.569091 197.858742 
L 201.279273 195.752155 
L 201.989455 194.676047 
L 202.699636 199.186325 
L 204.12 184.549075 
L 204.830182 180.975417 
L 205.540364 171.323566 
L 206.250545 173.691952 
L 206.960727 184.426646 
L 207.670909 181.194568 
L 208.381091 176.677979 
L 209.091273 174.998981 
L 209.801455 169.486372 
L 210.511636 172.700207 
L 211.221818 171.964076 
L 211.932 170.014034 
L 212.642182 171.760485 
L 213.352364 173.064645 
L 214.062545 177.626361 
L 214.772727 170.030782 
L 216.193091 177.443148 
L 216.903273 175.16892 
L 217.613455 172.435716 
L 218.323636 167.352634 
L 219.033818 168.817408 
L 219.744 166.846878 
L 220.454182 172.168217 
L 221.164364 172.524559 
L 221.874545 174.993341 
L 222.584727 175.358106 
L 223.294909 173.124359 
L 224.005091 173.832284 
L 224.715273 185.784963 
L 225.425455 185.785945 
L 226.135636 180.819275 
L 226.845818 184.333543 
L 227.556 186.228706 
L 228.266182 192.186762 
L 228.976364 194.525792 
L 229.686545 191.286776 
L 230.396727 194.33878 
L 231.106909 198.590135 
L 231.817091 194.563209 
L 232.527273 205.142398 
L 233.237455 202.666285 
L 233.947636 204.24408 
L 234.657818 208.051639 
L 235.368 204.010598 
L 236.078182 207.33803 
L 236.788364 200.025392 
L 237.498545 200.887702 
L 238.208727 197.978782 
L 238.918909 203.108495 
L 239.629091 197.445898 
L 240.339273 196.752047 
L 241.759636 201.155747 
L 242.469818 202.394077 
L 243.18 201.021788 
L 243.890182 206.002372 
L 244.600364 204.630873 
L 245.310545 195.926029 
L 246.020727 196.676858 
L 246.730909 191.374315 
L 247.441091 186.916142 
L 248.861455 171.30579 
L 249.571636 178.029354 
L 250.281818 170.213316 
L 250.992 164.386015 
L 251.702182 161.684399 
L 252.412364 163.728696 
L 253.122545 162.911529 
L 253.832727 153.912588 
L 254.542909 154.262286 
L 255.253091 145.742696 
L 255.963273 142.461235 
L 256.673455 150.201574 
L 257.383636 151.34879 
L 258.093818 151.834498 
L 258.804 154.847914 
L 260.224364 166.253959 
L 260.934545 168.746542 
L 261.644727 167.974704 
L 262.354909 164.407645 
L 263.065091 169.146812 
L 263.775273 172.504822 
L 265.195636 154.531501 
L 265.905818 155.305609 
L 266.616 158.262871 
L 267.326182 158.748204 
L 268.036364 161.437549 
L 268.746545 158.992542 
L 269.456727 161.567349 
L 270.166909 167.160204 
L 270.877091 163.08148 
L 271.587273 161.799898 
L 272.297455 162.736253 
L 273.007636 163.937462 
L 273.717818 155.965423 
L 274.428 157.618701 
L 275.138182 157.886942 
L 275.848364 154.200905 
L 276.558545 153.699953 
L 277.268727 161.883073 
L 277.978909 161.725711 
L 278.689091 166.509399 
L 279.399273 165.968749 
L 280.109455 167.08233 
L 280.819636 157.228595 
L 281.529818 160.019913 
L 282.24 164.24555 
L 282.950182 171.66343 
L 283.660364 168.554253 
L 284.370545 172.402704 
L 285.080727 178.546693 
L 285.790909 181.842876 
L 286.501091 188.741751 
L 288.631636 191.633736 
L 289.341818 192.54561 
L 290.052 188.606562 
L 290.762182 190.541254 
L 291.472364 185.215801 
L 292.892727 190.676275 
L 293.602909 186.424003 
L 294.313091 188.853574 
L 295.023273 179.786537 
L 295.733455 188.976399 
L 296.443636 184.402135 
L 297.153818 185.070396 
L 297.864 186.032816 
L 298.574182 185.027308 
L 299.284364 197.084507 
L 299.994545 188.316506 
L 300.704727 199.327963 
L 301.414909 193.010188 
L 302.835273 184.108609 
L 303.545455 182.485636 
L 304.255636 187.131161 
L 304.965818 180.548178 
L 305.676 182.81249 
L 306.386182 185.672961 
L 307.096364 189.368014 
L 307.806545 182.605753 
L 308.516727 186.815029 
L 309.226909 182.849172 
L 309.937091 187.350867 
L 310.647273 180.817539 
L 311.357455 184.062226 
L 312.067636 182.50879 
L 312.777818 184.074618 
L 313.488 194.656857 
L 314.198182 197.091872 
L 314.908364 196.704233 
L 315.618545 205.447646 
L 316.328727 203.811691 
L 317.038909 198.700186 
L 317.749091 199.618257 
L 318.459273 198.156045 
L 319.169455 202.683271 
L 319.879636 211.576294 
L 320.589818 205.709854 
L 322.010182 214.874071 
L 322.720364 214.243561 
L 323.430545 216.408683 
L 324.140727 213.466728 
L 324.850909 213.5654 
L 325.561091 212.819984 
L 326.271273 212.896661 
L 326.981455 206.334037 
L 327.691636 206.44605 
L 328.401818 205.190816 
L 329.112 207.436935 
L 329.822182 204.423693 
L 330.532364 208.927568 
L 331.242545 204.620208 
L 331.952727 198.659982 
L 333.373091 201.431404 
L 334.083273 197.607467 
L 334.793455 192.653897 
L 335.503636 192.465815 
L 336.213818 200.405494 
L 336.924 200.661107 
L 337.634182 190.512787 
L 338.344364 192.738617 
L 339.054545 191.9014 
L 339.764727 192.80142 
L 340.474909 191.421114 
L 341.185091 197.188016 
L 341.895273 207.297987 
L 342.605455 210.682004 
L 344.025818 221.888773 
L 344.736 224.930004 
L 345.446182 224.177441 
L 346.156364 225.135398 
L 346.866545 224.631146 
L 347.576727 222.036887 
L 348.286909 222.27799 
L 348.997091 218.763922 
L 349.707273 219.536713 
L 350.417455 220.654688 
L 351.127636 211.115623 
L 351.837818 214.469833 
L 352.548 205.447119 
L 353.258182 207.819265 
L 353.968364 206.282702 
L 354.678545 208.498454 
L 355.388727 208.142203 
L 356.098909 212.377494 
L 356.809091 209.378275 
L 357.519273 216.503666 
L 358.229455 216.85349 
L 358.939636 206.802469 
L 359.649818 210.669047 
L 360.36 219.307635 
L 361.070182 223.749888 
L 361.780364 221.452305 
L 362.490545 225.685117 
L 363.200727 221.734134 
L 363.910909 229.291013 
L 364.621091 228.02077 
L 365.331273 224.503041 
L 366.041455 215.727072 
L 366.751636 218.669081 
L 367.461818 216.194114 
L 368.172 207.181701 
L 368.882182 201.026706 
L 369.592364 197.468945 
L 370.302545 195.835791 
L 371.012727 192.441637 
L 371.722909 179.468538 
L 373.143273 191.861106 
L 373.853455 188.39658 
L 374.563636 193.140293 
L 375.273818 205.124136 
L 375.984 210.892587 
L 376.694182 215.059857 
L 377.404364 212.725851 
L 378.114545 214.585975 
L 378.824727 212.878628 
L 379.534909 224.230564 
L 380.245091 212.771678 
L 380.955273 210.492797 
L 381.665455 215.215692 
L 382.375636 211.052343 
L 383.085818 216.355592 
L 383.796 218.604447 
L 384.506182 218.534453 
L 385.216364 220.545761 
L 385.926545 224.295831 
L 386.636727 221.044224 
L 387.346909 214.05146 
L 388.057091 215.264321 
L 388.767273 211.719779 
L 389.477455 202.868879 
L 390.187636 202.575554 
L 390.897818 199.539602 
L 391.608 199.626992 
L 392.318182 195.836128 
L 393.028364 196.163189 
L 393.738545 193.21164 
L 394.448727 184.905013 
L 395.158909 184.767955 
L 395.869091 177.729585 
L 396.579273 178.08534 
L 397.289455 184.173467 
L 397.999636 179.843968 
L 398.709818 183.347603 
L 399.42 190.408896 
L 400.130182 190.75212 
L 400.840364 189.584858 
L 401.550545 184.787453 
L 402.260727 191.74477 
L 402.970909 190.599058 
L 403.681091 186.167311 
L 404.391273 187.270489 
L 405.101455 181.47492 
L 405.811636 185.07664 
L 406.521818 187.256334 
L 407.232 180.602604 
L 407.942182 176.959054 
L 408.652364 182.989246 
L 409.362545 173.072205 
L 410.072727 180.775774 
L 410.782909 193.279636 
L 411.493091 190.661402 
L 412.203273 182.712971 
L 412.913455 183.71974 
L 413.623636 185.332363 
L 414.333818 190.546529 
L 415.044 197.742383 
L 415.754182 201.717645 
L 416.464364 198.198831 
L 417.174545 193.317982 
L 417.884727 191.823222 
L 418.594909 198.184401 
L 419.305091 203.254219 
L 420.015273 198.01429 
L 420.725455 198.32883 
L 421.435636 199.118601 
L 422.145818 196.003361 
L 422.856 195.247086 
L 423.566182 194.881572 
L 424.276364 190.092836 
L 424.986545 194.140543 
L 425.696727 194.233194 
L 426.406909 194.99009 
L 427.117091 198.344102 
L 427.827273 194.058508 
L 428.537455 185.954133 
L 430.668 168.83092 
L 431.378182 166.024812 
L 432.088364 178.417338 
L 432.798545 184.704897 
L 433.508727 177.46567 
L 434.218909 171.770037 
L 434.929091 171.775714 
L 435.639273 172.304761 
L 436.349455 171.458517 
L 437.059636 170.238731 
L 437.769818 178.053052 
L 438.48 178.294074 
L 439.190182 179.541218 
L 439.900364 182.256493 
L 440.610545 183.499839 
L 441.320727 179.387447 
L 442.030909 182.330093 
L 442.741091 193.417715 
L 443.451273 200.147109 
L 444.161455 200.045815 
L 444.871636 204.578981 
L 445.581818 202.700678 
L 447.712364 215.452846 
L 448.422545 214.151342 
L 449.132727 213.145798 
L 449.842909 216.577748 
L 450.553091 203.179751 
L 451.263273 197.95762 
L 451.973455 199.252884 
L 452.683636 187.488194 
L 453.393818 184.563433 
L 454.104 190.215206 
L 454.814182 193.275677 
L 455.524364 192.00965 
L 456.234545 185.669381 
L 456.944727 187.178857 
L 457.654909 198.602085 
L 458.365091 199.534771 
L 459.075273 204.641 
L 459.785455 207.028603 
L 460.495636 213.042457 
L 461.205818 217.438428 
L 461.916 223.100832 
L 462.626182 221.731991 
L 463.336364 222.338096 
L 464.046545 215.644993 
L 464.756727 214.309895 
L 465.466909 219.996765 
L 466.177091 218.687344 
L 466.887273 214.155926 
L 467.597455 215.118429 
L 468.307636 217.598139 
L 469.017818 216.122329 
L 469.728 228.454644 
L 470.438182 228.285738 
L 471.148364 234.480296 
L 471.858545 235.484406 
L 472.568727 227.641008 
L 473.278909 226.859219 
L 473.989091 225.793457 
L 474.699273 232.591545 
L 475.409455 221.255418 
L 476.119636 219.396986 
L 476.829818 211.415863 
L 477.54 206.288674 
L 478.250182 206.651393 
L 478.960364 208.533509 
L 479.670545 201.541403 
L 480.380727 196.362457 
L 481.090909 194.462467 
L 481.801091 195.033531 
L 482.511273 191.521146 
L 483.221455 189.567021 
L 483.931636 187.059919 
L 484.641818 181.140274 
L 485.352 182.543897 
L 486.062182 180.766272 
L 486.772364 175.450817 
L 487.482545 178.798601 
L 488.192727 179.963292 
L 488.902909 180.647899 
L 489.613091 176.654263 
L 490.323273 181.589389 
L 491.033455 182.964251 
L 491.743636 186.565073 
L 492.453818 181.721348 
L 493.164 175.816694 
L 493.874182 183.176078 
L 494.584364 179.588233 
L 495.294545 175.290017 
L 496.004727 170.086749 
L 496.714909 173.888324 
L 497.425091 179.644087 
L 498.135273 186.435794 
L 498.845455 186.452333 
L 499.555636 185.505303 
L 500.265818 189.347719 
L 500.976 188.333483 
L 501.686182 173.417499 
L 502.396364 172.866473 
L 503.106545 174.164058 
L 503.816727 173.56091 
L 504.526909 182.038607 
L 505.237091 185.918487 
L 505.947273 173.183006 
L 506.657455 173.266793 
L 507.367636 186.811838 
L 508.077818 190.799112 
L 508.788 190.228851 
L 509.498182 180.116064 
L 510.208364 180.417678 
L 511.628727 176.864407 
L 512.338909 184.18432 
L 513.049091 187.880082 
L 513.759273 188.417108 
L 514.469455 190.110083 
L 515.179636 181.324023 
L 515.889818 178.04998 
L 516.6 184.352981 
L 517.310182 184.839728 
L 518.020364 194.311334 
L 518.730545 201.602231 
L 519.440727 206.346307 
L 520.150909 209.714053 
L 520.861091 204.959107 
L 521.571273 203.256173 
L 522.281455 209.985177 
L 522.991636 201.529294 
L 523.701818 200.832186 
L 524.412 201.55623 
L 525.122182 198.304795 
L 525.832364 194.360725 
L 526.542545 185.081025 
L 527.252727 184.242436 
L 527.962909 185.211002 
L 528.673091 197.494482 
L 529.383273 199.806955 
L 530.093455 198.496619 
L 530.803636 195.060742 
L 531.513818 194.982132 
L 532.224 191.115197 
L 532.934182 195.164174 
L 533.644364 195.20058 
L 534.354545 191.949204 
L 535.064727 184.856381 
L 535.774909 188.172241 
L 536.485091 188.742145 
L 537.195273 192.027931 
L 537.905455 188.785189 
L 538.615636 198.553964 
L 539.325818 203.996459 
L 540.036 207.590355 
L 540.746182 217.928374 
L 541.456364 215.163405 
L 542.166545 215.448947 
L 542.876727 217.303785 
L 543.586909 215.203965 
L 544.297091 211.448838 
L 545.007273 217.81785 
L 546.427636 224.824478 
L 547.137818 238.09131 
L 547.848 243.211613 
L 548.558182 244.527771 
L 549.268364 236.59988 
L 549.978545 241.994766 
L 550.688727 242.781266 
L 551.398909 238.955602 
L 552.109091 238.234315 
L 552.819273 233.562828 
L 553.529455 233.811866 
L 554.239636 235.059676 
L 554.949818 238.125097 
L 555.66 234.311801 
L 556.370182 239.962136 
L 557.080364 240.984782 
L 557.790545 239.394669 
L 558.500727 233.149524 
L 559.210909 230.405714 
L 559.921091 229.843305 
L 560.631273 230.976215 
L 561.341455 232.982143 
L 562.051636 222.245637 
L 562.761818 224.698076 
L 563.472 224.235885 
L 564.182182 224.188412 
L 564.892364 223.379416 
L 565.602545 223.898823 
L 566.312727 226.037807 
L 567.022909 233.126122 
L 567.733091 241.497591 
L 568.443273 241.333568 
L 569.153455 248.354219 
L 569.863636 245.517997 
L 570.573818 252.593131 
L 571.284 250.702683 
L 571.994182 247.061489 
L 572.704364 250.688478 
L 573.414545 252.376602 
L 574.124727 243.674055 
L 574.834909 252.560079 
L 575.545091 240.185536 
L 576.255273 230.538033 
L 576.965455 229.510393 
L 577.675636 229.068386 
L 578.385818 228.061915 
L 579.096 234.051705 
L 579.806182 229.92524 
L 580.516364 228.140426 
L 581.226545 224.628965 
L 581.936727 223.707164 
L 582.646909 234.406843 
L 583.357091 229.451604 
L 584.067273 226.71025 
L 584.777455 234.011797 
L 586.197818 230.127441 
L 587.618182 220.203052 
L 588.328364 222.326327 
L 589.038545 221.50396 
L 589.748727 223.98448 
L 590.458909 219.358134 
L 591.169091 225.827832 
L 591.879273 221.601696 
L 592.589455 225.387464 
L 593.299636 221.818982 
L 594.009818 226.068411 
L 594.72 222.685868 
L 596.140364 232.318806 
L 596.850545 231.683806 
L 597.560727 226.763343 
L 598.270909 229.339787 
L 598.981091 225.887235 
L 599.691273 236.4083 
L 600.401455 242.80114 
L 601.111636 251.005133 
L 601.821818 251.651431 
L 602.532 248.339645 
L 603.242182 244.115364 
L 603.952364 246.070767 
L 604.662545 244.062648 
L 605.372727 244.755759 
L 606.082909 239.107081 
L 606.793091 238.273636 
L 607.503273 237.947407 
L 608.213455 247.85807 
L 608.923636 252.232871 
L 609.633818 254.586362 
L 610.344 249.170696 
L 611.054182 246.109179 
L 611.764364 245.183911 
L 612.474545 243.54741 
L 613.184727 245.484355 
L 613.894909 251.564087 
L 615.315273 258.308235 
L 616.025455 253.730729 
L 616.735636 253.199848 
L 617.445818 248.932083 
L 618.866182 251.429001 
L 619.576364 249.450882 
L 620.286545 256.949825 
L 620.996727 245.922075 
L 621.706909 245.11521 
L 622.417091 245.902927 
L 623.127273 250.259712 
L 623.837455 241.822705 
L 624.547636 241.767487 
L 625.257818 249.604451 
L 625.968 246.802929 
L 626.678182 251.089181 
L 627.388364 252.665399 
L 628.098545 250.823495 
L 628.808727 249.666378 
L 629.518909 254.81779 
L 630.229091 254.014927 
L 630.939273 252.500982 
L 631.649455 251.709748 
L 632.359636 259.312871 
L 633.069818 247.877459 
L 633.78 247.500071 
L 635.200364 235.290042 
L 635.910545 235.589262 
L 636.620727 233.249667 
L 637.330909 228.281476 
L 639.461455 219.909882 
L 640.171636 221.534637 
L 640.881818 214.235018 
L 641.592 215.64066 
L 642.302182 210.612035 
L 643.012364 212.573172 
L 643.722545 212.255521 
L 644.432727 216.903972 
L 645.142909 216.478091 
L 645.853091 212.031452 
L 646.563273 205.88375 
L 647.273455 205.930181 
L 647.983636 209.882062 
L 648.693818 211.387296 
L 649.404 208.51459 
L 650.114182 208.789639 
L 650.824364 207.114304 
L 651.534545 204.996979 
L 652.244727 199.003082 
L 652.954909 196.060845 
L 653.665091 192.071279 
L 654.375273 192.118304 
L 655.085455 193.412264 
L 656.505818 205.691187 
L 657.216 195.35501 
L 657.926182 188.929326 
L 658.636364 190.667165 
L 659.346545 194.000789 
L 660.056727 194.0848 
L 661.477091 181.461536 
L 662.187273 186.44225 
L 662.897455 185.647025 
L 663.607636 185.944205 
L 664.317818 184.231859 
L 665.028 184.692082 
L 665.738182 186.592729 
L 666.448364 187.56909 
L 667.868727 182.014499 
L 668.578909 186.809569 
L 669.289091 181.856381 
L 669.999273 182.430328 
L 670.709455 181.131594 
L 671.419636 186.9462 
L 672.129818 184.578476 
L 672.84 189.689701 
L 673.550182 191.233098 
L 674.260364 176.80599 
L 674.970545 180.13224 
L 675.680727 178.720921 
L 676.390909 183.597311 
L 677.101091 179.453103 
L 677.811273 178.448076 
L 679.231636 168.284708 
L 679.941818 173.626092 
L 680.652 165.872173 
L 681.362182 166.949374 
L 682.072364 168.603775 
L 682.782545 172.535043 
L 683.492727 172.386041 
L 684.202909 174.519522 
L 684.913091 173.952972 
L 685.623273 166.029845 
L 686.333455 167.394453 
L 687.043636 167.531068 
L 687.753818 169.251295 
L 688.464 168.404377 
L 689.174182 164.751273 
L 689.884364 159.075419 
L 690.594545 160.466007 
L 691.304727 156.710226 
L 692.014909 162.506855 
L 692.725091 161.730977 
L 693.435273 159.575749 
L 694.145455 159.349297 
L 694.855636 162.231754 
L 695.565818 166.100576 
L 696.276 162.309565 
L 696.986182 159.648625 
L 697.696364 161.062368 
L 698.406545 164.399241 
L 699.116727 156.869286 
L 699.826909 155.035557 
L 700.537091 146.674354 
L 701.247273 141.179251 
L 701.957455 144.400935 
L 702.667636 142.513072 
L 703.377818 134.784523 
L 704.088 135.304606 
L 704.798182 139.507458 
L 705.508364 138.307361 
L 706.218545 129.850696 
L 706.928727 130.881584 
L 707.638909 134.962814 
L 708.349091 137.593235 
L 709.059273 137.700544 
L 709.769455 147.453909 
L 710.479636 136.635351 
L 711.189818 137.544943 
L 711.9 140.956889 
L 712.610182 140.371594 
L 713.320364 146.470088 
L 714.030545 147.10155 
L 714.740727 145.362187 
L 715.450909 147.077786 
L 716.161091 147.382075 
L 716.871273 147.226947 
L 717.581455 145.004205 
L 718.291636 144.13638 
L 719.001818 139.77784 
L 719.712 146.36112 
L 720.422182 141.124266 
L 721.132364 146.376988 
L 721.842545 144.042086 
L 722.552727 143.492419 
L 723.262909 143.168275 
L 723.973091 143.008918 
L 724.683273 150.051417 
L 725.393455 145.625083 
L 726.103636 136.730336 
L 726.813818 134.944232 
L 727.524 135.969344 
L 728.234182 134.700714 
L 728.944364 135.240858 
L 729.654545 133.164966 
L 730.364727 125.460035 
L 731.074909 123.819706 
L 731.785091 112.847481 
L 732.495273 105.775002 
L 733.205455 108.133216 
L 733.915636 107.897168 
L 734.625818 102.002826 
L 735.336 102.397019 
L 736.046182 108.797453 
L 736.756364 110.250565 
L 737.466545 113.056672 
L 738.176727 113.877067 
L 738.886909 129.772738 
L 739.597091 131.79802 
L 740.307273 137.432901 
L 741.017455 135.574918 
L 741.727636 140.518658 
L 742.437818 137.841581 
L 743.148 141.766566 
L 743.858182 149.092346 
L 744.568364 144.135726 
L 745.278545 145.461927 
L 745.988727 144.033647 
L 746.698909 140.976155 
L 747.409091 146.444035 
L 748.119273 148.973037 
L 748.829455 148.330542 
L 749.539636 152.518177 
L 750.249818 155.18639 
L 750.96 160.640489 
L 751.670182 154.77768 
L 752.380364 153.765083 
L 753.090545 148.896516 
L 753.800727 148.471639 
L 754.510909 148.51901 
L 755.221091 154.271097 
L 755.931273 152.162541 
L 756.641455 149.561476 
L 758.061818 156.292676 
L 758.772 163.042408 
L 759.482182 166.174705 
L 760.192364 158.272221 
L 760.902545 155.388881 
L 762.322909 151.164082 
L 763.033091 160.144143 
L 763.743273 159.987217 
L 764.453455 163.771582 
L 765.163636 161.331193 
L 765.873818 164.483569 
L 766.584 159.529081 
L 767.294182 150.868657 
L 768.004364 152.055092 
L 769.424727 158.633767 
L 770.134909 151.595868 
L 770.845091 157.640528 
L 772.265455 151.400617 
L 772.975636 152.375059 
L 773.685818 159.656045 
L 774.396 155.324241 
L 775.106182 156.162951 
L 775.816364 161.833962 
L 776.526545 159.249698 
L 777.236727 148.803548 
L 777.946909 146.037672 
L 779.367273 132.132734 
L 780.077455 134.120433 
L 780.787636 136.715557 
L 781.497818 145.843552 
L 782.208 144.653769 
L 782.918182 147.452613 
L 783.628364 149.172913 
L 784.338545 150.379903 
L 785.048727 147.988916 
L 785.758909 138.797098 
L 786.469091 136.381228 
L 787.179273 129.92047 
L 787.889455 127.493181 
L 788.599636 129.745567 
L 789.309818 129.808196 
L 790.02 126.345086 
L 790.730182 125.583054 
L 791.440364 125.128134 
L 792.150545 122.126072 
L 792.860727 120.197363 
L 793.570909 121.21792 
L 794.281091 123.287036 
L 794.991273 115.784217 
L 795.701455 112.815125 
L 797.121818 124.219585 
L 797.832 122.889114 
L 798.542182 119.262041 
L 799.252364 118.950331 
L 799.962545 108.722678 
L 800.672727 112.05214 
L 801.382909 116.110191 
L 802.093091 120.990211 
L 802.803273 125.061939 
L 803.513455 128.153111 
L 804.223636 134.388258 
L 804.933818 136.567066 
L 806.354182 127.639715 
L 807.064364 119.486322 
L 807.774545 117.128161 
L 808.484727 115.515327 
L 809.194909 108.696686 
L 809.905091 116.083811 
L 810.615273 116.600977 
L 811.325455 126.767979 
L 812.035636 124.407186 
L 812.745818 117.569024 
L 813.456 106.761222 
L 814.166182 105.881055 
L 814.876364 102.417535 
L 815.586545 113.153986 
L 816.296727 122.024772 
L 817.006909 116.37757 
L 817.717091 124.168328 
L 818.427273 125.751048 
L 819.137455 125.088561 
L 819.847636 131.032816 
L 820.557818 133.679458 
L 821.268 136.976457 
L 821.978182 125.345692 
L 822.688364 122.808548 
L 823.398545 123.018811 
L 824.108727 125.360959 
L 824.818909 123.805449 
L 825.529091 125.136625 
L 826.239273 129.330306 
L 826.949455 123.429532 
L 827.659636 121.402369 
L 828.369818 114.841697 
L 829.08 112.390956 
L 829.790182 106.945828 
L 830.500364 102.849496 
L 831.210545 113.74671 
L 831.920727 108.41767 
L 832.630909 107.68823 
L 833.341091 108.176424 
L 834.051273 108.27941 
L 834.761455 107.249502 
L 835.471636 102.126614 
L 836.181818 101.878981 
L 837.602182 77.143418 
L 838.312364 81.394167 
L 839.022545 83.037087 
L 839.732727 82.499182 
L 840.442909 89.541837 
L 841.153091 84.263752 
L 841.863273 84.421995 
L 843.283636 79.004062 
L 843.993818 72.59296 
L 844.704 77.628946 
L 845.414182 75.702688 
L 846.124364 77.633457 
L 846.834545 76.189606 
L 847.544727 92.119643 
L 848.254909 94.158482 
L 848.965091 96.688288 
L 849.675273 103.001675 
L 850.385455 102.830698 
L 851.095636 102.405087 
L 851.805818 101.537542 
L 852.516 95.050037 
L 853.226182 94.652826 
L 853.936364 90.989937 
L 854.646545 95.300643 
L 855.356727 96.408616 
L 856.066909 94.630759 
L 856.777091 100.013196 
L 857.487273 100.871149 
L 858.197455 100.830842 
L 858.907636 100.136952 
L 859.617818 105.984379 
L 860.328 98.348614 
L 861.038182 94.124412 
L 861.748364 92.398095 
L 862.458545 86.50739 
L 863.168727 84.635404 
L 863.878909 85.754796 
L 864.589091 86.396675 
L 865.299273 81.341838 
L 866.009455 73.034791 
L 866.719636 77.411171 
L 868.14 80.116638 
L 868.850182 73.541582 
L 869.560364 76.671666 
L 870.270545 66.96 
L 870.980727 69.127074 
L 871.690909 69.438625 
L 871.690909 69.438625 
" clip-path="url(#p34f113ef90)" style="fill: none; stroke: #ff7f0e; stroke-width: 1.5; stroke-linecap: square"/>
   </g>
   <g id="line2d_15">
    <path d="M 162.219273 369.36 
L 162.929455 369.145611 
L 164.349818 369.089448 
L 165.06 369.004648 
L 167.190545 368.269605 
L 170.031273 368.218786 
L 170.741455 367.850004 
L 173.582182 367.500501 
L 174.292364 367.271008 
L 175.002545 366.900975 
L 177.133091 366.739708 
L 177.843273 366.56847 
L 179.973818 366.48727 
L 180.684 366.170426 
L 181.394182 365.993987 
L 182.814545 365.987143 
L 183.524727 365.473204 
L 186.365455 365.36899 
L 187.075636 364.816244 
L 187.785818 364.675641 
L 190.626545 364.740772 
L 191.336727 364.479971 
L 193.467273 364.205315 
L 194.887636 363.780785 
L 195.597818 363.798967 
L 196.308 363.485382 
L 197.728364 363.552991 
L 200.569091 362.655855 
L 206.250545 362.329878 
L 206.960727 361.58969 
L 214.062545 361.694969 
L 215.482909 361.208609 
L 216.193091 361.010891 
L 224.005091 360.852663 
L 224.715273 360.238317 
L 225.425455 360.238298 
L 226.845818 359.893864 
L 227.556 359.825408 
L 228.266182 359.570154 
L 230.396727 359.460942 
L 231.817091 359.449889 
L 232.527273 358.691806 
L 233.947636 358.673558 
L 236.078182 358.474688 
L 236.788364 358.219358 
L 238.208727 358.15625 
L 242.469818 357.802781 
L 243.18 357.80882 
L 243.890182 357.696806 
L 245.310545 357.648858 
L 246.020727 357.634936 
L 246.730909 357.408462 
L 247.441091 357.32996 
L 248.151273 356.991177 
L 248.861455 356.452306 
L 249.571636 356.321579 
L 250.281818 355.57638 
L 253.122545 355.477839 
L 253.832727 354.797238 
L 254.542909 354.808591 
L 255.253091 354.511992 
L 255.963273 354.485006 
L 256.673455 354.060057 
L 258.093818 353.995725 
L 258.804 353.98673 
L 260.224364 353.391329 
L 263.065091 353.171787 
L 263.775273 353.267808 
L 264.485455 352.955845 
L 265.195636 352.496939 
L 267.326182 352.428338 
L 268.036364 352.354266 
L 268.746545 352.472832 
L 269.456727 352.441167 
L 270.166909 352.157014 
L 271.587273 352.122288 
L 273.007636 352.134824 
L 273.717818 351.950955 
L 276.558545 351.777619 
L 277.268727 351.491647 
L 280.109455 351.483107 
L 280.819636 351.050555 
L 282.950182 350.781531 
L 284.370545 350.662216 
L 285.790909 350.529122 
L 286.501091 350.174249 
L 289.341818 350.119712 
L 290.052 349.96369 
L 294.313091 350.116076 
L 295.023273 349.331305 
L 295.733455 349.013244 
L 297.864 349.057178 
L 298.574182 349.091116 
L 299.284364 348.401709 
L 299.994545 348.091993 
L 300.704727 347.36964 
L 304.965818 346.700161 
L 307.096364 346.653186 
L 308.516727 346.200705 
L 312.777818 345.746743 
L 313.488 345.779282 
L 314.908364 345.710446 
L 315.618545 344.971 
L 316.328727 344.981791 
L 317.038909 344.721934 
L 319.169455 344.70345 
L 319.879636 344.540586 
L 320.589818 344.626255 
L 321.3 344.509893 
L 324.850909 344.48996 
L 326.271273 344.469526 
L 326.981455 344.055343 
L 334.083273 344.021129 
L 334.793455 343.816252 
L 335.503636 343.811669 
L 336.213818 343.474754 
L 336.924 343.465798 
L 337.634182 343.240188 
L 340.474909 343.232505 
L 341.185091 343.104335 
L 342.605455 343.091024 
L 344.025818 342.768209 
L 346.156364 342.676466 
L 348.286909 342.654017 
L 348.997091 342.814455 
L 350.417455 342.815119 
L 352.548 342.008901 
L 353.968364 342.08054 
L 354.678545 341.973011 
L 355.388727 341.984934 
L 356.809091 341.765898 
L 358.229455 341.738465 
L 358.939636 341.111787 
L 359.649818 341.078632 
L 361.070182 340.366469 
L 361.780364 340.322058 
L 362.490545 340.462984 
L 363.200727 340.360361 
L 363.910909 339.898631 
L 365.331273 339.790014 
L 366.041455 339.437925 
L 367.461818 339.383194 
L 368.882182 338.664429 
L 371.012727 338.395473 
L 371.722909 337.40348 
L 372.433091 337.49315 
L 373.143273 337.379981 
L 373.853455 337.455415 
L 375.984 337.231094 
L 377.404364 336.915378 
L 378.824727 336.953707 
L 380.245091 335.493237 
L 381.665455 335.503774 
L 382.375636 335.475958 
L 383.085818 335.279788 
L 387.346909 335.244832 
L 388.057091 335.223518 
L 388.767273 335.060274 
L 389.477455 334.690083 
L 390.187636 334.68775 
L 390.897818 334.44831 
L 393.738545 334.340679 
L 394.448727 334.110696 
L 396.579273 334.130782 
L 397.999636 333.877881 
L 399.42 333.781249 
L 401.550545 333.790623 
L 402.260727 333.61912 
L 404.391273 333.611369 
L 405.101455 333.397303 
L 405.811636 333.587979 
L 406.521818 333.596452 
L 408.652364 333.0479 
L 409.362545 332.229783 
L 410.072727 331.636582 
L 410.782909 331.215344 
L 411.493091 331.170169 
L 412.203273 330.947827 
L 413.623636 331.010555 
L 414.333818 330.824355 
L 416.464364 330.80389 
L 417.174545 330.48948 
L 418.594909 330.496857 
L 420.015273 330.152701 
L 423.566182 330.133005 
L 424.986545 329.953261 
L 427.117091 329.872736 
L 427.827273 329.742982 
L 428.537455 329.33461 
L 430.668 328.630956 
L 431.378182 328.638311 
L 432.088364 328.074892 
L 432.798545 327.677059 
L 434.929091 327.455574 
L 437.059636 327.39606 
L 437.769818 327.101397 
L 439.190182 327.146811 
L 439.900364 327.233725 
L 440.610545 327.170781 
L 442.741091 326.498751 
L 443.451273 326.058987 
L 445.581818 325.971709 
L 446.292 325.745105 
L 447.712364 325.813381 
L 449.842909 325.66212 
L 450.553091 324.669162 
L 451.263273 324.403597 
L 451.973455 324.40721 
L 452.683636 323.917678 
L 454.814182 323.856547 
L 456.944727 323.86571 
L 457.654909 322.866028 
L 458.365091 322.892321 
L 459.785455 322.599335 
L 461.916 322.092088 
L 463.336364 322.119732 
L 464.046545 321.662782 
L 466.177091 321.509923 
L 469.017818 321.265469 
L 469.728 320.754115 
L 471.858545 320.83845 
L 472.568727 320.608201 
L 473.989091 320.618703 
L 474.699273 320.28991 
L 475.409455 319.695883 
L 478.960364 319.590714 
L 480.380727 319.164059 
L 481.801091 319.158613 
L 482.511273 319.058391 
L 483.221455 319.144844 
L 484.641818 319.059974 
L 486.062182 319.085681 
L 486.772364 319.253982 
L 488.192727 319.141712 
L 491.033455 319.065895 
L 492.453818 318.840625 
L 493.164 318.631038 
L 493.874182 318.23462 
L 494.584364 318.252566 
L 495.294545 317.954722 
L 496.714909 317.644881 
L 498.135273 316.95608 
L 499.555636 316.928316 
L 500.976 316.793037 
L 501.686182 315.859129 
L 503.816727 315.864393 
L 504.526909 315.56868 
L 505.237091 315.407445 
L 505.947273 314.586191 
L 506.657455 314.587218 
L 507.367636 313.871059 
L 508.788 313.751021 
L 509.498182 313.405973 
L 511.628727 313.306326 
L 512.338909 313.032914 
L 513.759273 312.962641 
L 514.469455 312.983069 
L 515.179636 312.522614 
L 515.889818 312.531615 
L 516.6 312.258351 
L 518.020364 312.176917 
L 521.571273 311.582734 
L 522.991636 311.790763 
L 525.832364 311.696769 
L 526.542545 311.188469 
L 527.962909 311.201195 
L 528.673091 309.907203 
L 531.513818 310.07139 
L 532.224 309.955494 
L 532.934182 309.685016 
L 534.354545 309.724968 
L 535.774909 309.452385 
L 537.905455 309.41783 
L 540.036 308.947755 
L 540.746182 308.739225 
L 542.166545 308.65033 
L 544.297091 308.524228 
L 545.007273 308.336051 
L 546.427636 308.361382 
L 547.137818 307.591731 
L 547.848 307.260352 
L 548.558182 307.228921 
L 549.268364 306.674146 
L 551.398909 306.453441 
L 552.109091 306.455176 
L 552.819273 306.319114 
L 554.239636 306.271254 
L 556.370182 305.965458 
L 561.341455 305.918377 
L 562.051636 305.224064 
L 565.602545 305.226188 
L 566.312727 305.225911 
L 567.022909 304.693282 
L 567.733091 304.334982 
L 568.443273 304.335525 
L 569.153455 304.091571 
L 572.704364 303.826961 
L 573.414545 303.868528 
L 576.255273 302.837559 
L 578.385818 302.801324 
L 580.516364 302.46017 
L 581.936727 302.449733 
L 582.646909 301.889637 
L 583.357091 301.833619 
L 584.067273 301.895454 
L 584.777455 301.527176 
L 586.197818 301.368675 
L 586.908 301.4326 
L 587.618182 301.267417 
L 591.169091 301.115523 
L 592.589455 300.706396 
L 594.009818 300.61926 
L 594.72 300.684247 
L 596.140364 300.48181 
L 599.691273 300.324257 
L 600.401455 300.254014 
L 601.111636 299.761669 
L 603.952364 299.713185 
L 607.503273 299.343054 
L 608.213455 298.984352 
L 609.633818 298.927205 
L 610.344 298.815729 
L 612.474545 298.803749 
L 613.184727 298.769677 
L 613.894909 298.586613 
L 615.315273 298.491504 
L 616.735636 298.334732 
L 618.156 298.215949 
L 619.576364 298.201855 
L 620.286545 297.795064 
L 620.996727 297.129153 
L 622.417091 297.10991 
L 625.257818 296.531215 
L 627.388364 296.342141 
L 628.808727 296.437639 
L 631.649455 296.345006 
L 632.359636 295.99027 
L 633.069818 295.217716 
L 633.78 295.236488 
L 634.490182 295.108685 
L 635.200364 294.81809 
L 640.171636 294.703811 
L 640.881818 294.477129 
L 641.592 294.486144 
L 643.012364 294.254294 
L 645.142909 294.16932 
L 647.983636 293.849032 
L 651.534545 293.76684 
L 652.244727 293.5429 
L 655.085455 293.553256 
L 655.795636 293.160582 
L 656.505818 292.973955 
L 657.216 292.473628 
L 657.926182 292.234928 
L 660.056727 292.159494 
L 661.477091 291.715436 
L 662.187273 291.363992 
L 667.158545 291.30923 
L 668.578909 291.108662 
L 669.289091 290.926935 
L 670.709455 290.9262 
L 671.419636 290.766643 
L 672.129818 290.828497 
L 672.84 290.685147 
L 673.550182 290.673919 
L 674.260364 289.532838 
L 679.231636 289.391297 
L 679.941818 289.460778 
L 680.652 288.950368 
L 682.072364 288.946552 
L 683.492727 289.062665 
L 684.202909 288.97522 
L 684.913091 289.001203 
L 685.623273 288.671016 
L 687.043636 288.701165 
L 688.464 288.51574 
L 691.304727 288.163274 
L 692.014909 287.903772 
L 694.855636 287.799124 
L 698.406545 287.499004 
L 699.116727 287.070153 
L 699.826909 287.085276 
L 701.247273 286.641657 
L 702.667636 286.499377 
L 703.377818 285.828849 
L 705.508364 285.859501 
L 706.218545 285.631722 
L 709.059273 285.661744 
L 710.479636 284.174533 
L 711.189818 284.163785 
L 711.9 284.024957 
L 712.610182 284.00657 
L 713.320364 283.848478 
L 715.450909 283.825826 
L 720.422182 283.713645 
L 721.132364 283.53081 
L 723.973091 283.539545 
L 724.683273 283.132154 
L 725.393455 283.029973 
L 726.103636 282.445915 
L 727.524 282.340746 
L 729.654545 282.348346 
L 730.364727 281.946827 
L 731.074909 281.962047 
L 731.785091 281.271247 
L 732.495273 281.404994 
L 735.336 281.384406 
L 736.046182 281.126213 
L 737.466545 281.109166 
L 738.176727 281.120039 
L 738.886909 280.421772 
L 739.597091 280.44404 
L 740.307273 280.307886 
L 741.017455 280.305589 
L 741.727636 280.136679 
L 743.148 280.061702 
L 744.568364 279.596489 
L 750.249818 279.463123 
L 751.670182 279.693698 
L 752.380364 279.658429 
L 753.090545 279.450231 
L 754.510909 279.457718 
L 755.221091 279.23159 
L 757.351636 279.206095 
L 758.061818 279.209866 
L 758.772 279.011982 
L 759.482182 278.97465 
L 760.192364 278.579883 
L 761.612727 278.285585 
L 763.033091 278.230151 
L 765.163636 278.193865 
L 769.424727 277.727272 
L 770.134909 277.24851 
L 771.555273 276.972867 
L 774.396 277.059316 
L 775.106182 277.029564 
L 776.526545 276.72296 
L 777.236727 276.176362 
L 777.946909 276.112028 
L 779.367273 275.486524 
L 780.077455 275.579113 
L 780.787636 275.436525 
L 781.497818 275.159507 
L 785.048727 274.929541 
L 785.758909 274.509159 
L 786.469091 274.486223 
L 787.179273 273.998664 
L 789.309818 273.958659 
L 791.440364 273.934072 
L 792.150545 273.835527 
L 794.281091 273.817597 
L 794.991273 273.323013 
L 795.701455 273.310781 
L 796.411636 272.989668 
L 798.542182 272.88916 
L 799.252364 272.884317 
L 799.962545 272.575062 
L 802.093091 272.186527 
L 803.513455 272.219353 
L 804.223636 271.696653 
L 806.354182 271.60393 
L 807.064364 271.229284 
L 808.484727 271.183223 
L 809.905091 270.862551 
L 810.615273 270.868305 
L 811.325455 269.89101 
L 812.745818 269.855757 
L 813.456 269.614503 
L 814.876364 269.594997 
L 815.586545 268.826644 
L 816.296727 268.474718 
L 818.427273 268.08586 
L 819.137455 268.074687 
L 819.847636 267.706977 
L 821.268 267.70268 
L 821.978182 267.161034 
L 824.818909 267.063249 
L 825.529091 267.110599 
L 828.369818 266.801181 
L 829.790182 266.801123 
L 830.500364 266.643143 
L 831.210545 266.312274 
L 831.920727 266.164301 
L 836.181818 266.131503 
L 836.892 264.688419 
L 837.602182 263.911058 
L 839.022545 263.704917 
L 839.732727 263.694726 
L 840.442909 263.377997 
L 842.573455 263.203707 
L 843.283636 263.18197 
L 845.414182 262.723373 
L 846.834545 262.738665 
L 847.544727 261.661612 
L 850.385455 261.80635 
L 859.617818 261.565432 
L 861.038182 261.120473 
L 861.748364 261.103045 
L 862.458545 260.905865 
L 864.589091 260.898518 
L 865.299273 260.698232 
L 869.560364 260.309807 
L 870.270545 259.964192 
L 871.690909 259.925018 
L 871.690909 259.925018 
" clip-path="url(#p34f113ef90)" style="fill: none; stroke: #2ca02c; stroke-width: 1.5; stroke-linecap: square"/>
   </g>
   <g id="patch_3">
    <path d="M 126 384.48 
L 126 51.84 
" style="fill: none; stroke: #000000; stroke-width: 0.8; stroke-linejoin: miter; stroke-linecap: square"/>
   </g>
   <g id="patch_4">
    <path d="M 907.2 384.48 
L 907.2 51.84 
" style="fill: none; stroke: #000000; stroke-width: 0.8; stroke-linejoin: miter; stroke-linecap: square"/>
   </g>
   <g id="patch_5">
    <path d="M 126 384.48 
L 907.2 384.48 
" style="fill: none; stroke: #000000; stroke-width: 0.8; stroke-linejoin: miter; stroke-linecap: square"/>
   </g>
   <g id="patch_6">
    <path d="M 126 51.84 
L 907.2 51.84 
" style="fill: none; stroke: #000000; stroke-width: 0.8; stroke-linejoin: miter; stroke-linecap: square"/>
   </g>
   <g id="text_15">
    <!-- Quadratic Covariation of $X_t$ and $S_t$ -->
    <g transform="translate(414.54 45.84)scale(0.12 -0.12)">
     <defs>
      <path id="DejaVuSans-66" d="M 2375 4863 
L 2375 4384 
L 1825 4384 
Q 1516 4384 1395 4259 
Q 1275 4134 1275 3809 
L 1275 3500 
L 2222 3500 
L 2222 3053 
L 1275 3053 
L 1275 0 
L 697 0 
L 697 3053 
L 147 3053 
L 147 3500 
L 697 3500 
L 697 3744 
Q 697 4328 969 4595 
Q 1241 4863 1831 4863 
L 2375 4863 
z
" transform="scale(0.015625)"/>
      <path id="DejaVuSans-Oblique-58" d="M 878 4666 
L 1516 4666 
L 2316 2981 
L 3763 4666 
L 4500 4666 
L 2578 2438 
L 3738 0 
L 3103 0 
L 2163 1966 
L 459 0 
L -275 0 
L 1906 2509 
L 878 4666 
z
" transform="scale(0.015625)"/>
      <path id="DejaVuSans-Oblique-74" d="M 2706 3500 
L 2619 3053 
L 1472 3053 
L 1100 1153 
Q 1081 1047 1072 975 
Q 1063 903 1063 863 
Q 1063 663 1183 572 
Q 1303 481 1569 481 
L 2150 481 
L 2053 0 
L 1503 0 
Q 991 0 739 200 
Q 488 400 488 806 
Q 488 878 497 964 
Q 506 1050 525 1153 
L 897 3053 
L 409 3053 
L 500 3500 
L 978 3500 
L 1172 4494 
L 1747 4494 
L 1556 3500 
L 2706 3500 
z
" transform="scale(0.015625)"/>
      <path id="DejaVuSans-Oblique-53" d="M 3859 4513 
L 3738 3897 
Q 3422 4066 3111 4152 
Q 2800 4238 2509 4238 
Q 1944 4238 1609 3991 
Q 1275 3744 1275 3334 
Q 1275 3109 1398 2989 
Q 1522 2869 2034 2731 
L 2413 2638 
Q 3053 2472 3303 2217 
Q 3553 1963 3553 1503 
Q 3553 797 2998 353 
Q 2444 -91 1538 -91 
Q 1166 -91 791 -17 
Q 416 56 38 206 
L 166 856 
Q 513 641 861 531 
Q 1209 422 1556 422 
Q 2147 422 2503 684 
Q 2859 947 2859 1369 
Q 2859 1650 2717 1795 
Q 2575 1941 2106 2059 
L 1728 2156 
Q 1081 2325 845 2545 
Q 609 2766 609 3163 
Q 609 3859 1145 4304 
Q 1681 4750 2541 4750 
Q 2875 4750 3203 4690 
Q 3531 4631 3859 4513 
z
" transform="scale(0.015625)"/>
     </defs>
     <use xlink:href="#DejaVuSans-51" transform="translate(0 0.015625)"/>
     <use xlink:href="#DejaVuSans-75" transform="translate(78.710938 0.015625)"/>
     <use xlink:href="#DejaVuSans-61" transform="translate(142.089844 0.015625)"/>
     <use xlink:href="#DejaVuSans-64" transform="translate(203.369141 0.015625)"/>
     <use xlink:href="#DejaVuSans-72" transform="translate(266.845703 0.015625)"/>
     <use xlink:href="#DejaVuSans-61" transform="translate(307.958984 0.015625)"/>
     <use xlink:href="#DejaVuSans-74" transform="translate(369.238281 0.015625)"/>
     <use xlink:href="#DejaVuSans-69" transform="translate(408.447266 0.015625)"/>
     <use xlink:href="#DejaVuSans-63" transform="translate(436.230469 0.015625)"/>
     <use xlink:href="#DejaVuSans-20" transform="translate(491.210938 0.015625)"/>
     <use xlink:href="#DejaVuSans-43" transform="translate(522.998047 0.015625)"/>
     <use xlink:href="#DejaVuSans-6f" transform="translate(592.822266 0.015625)"/>
     <use xlink:href="#DejaVuSans-76" transform="translate(654.003906 0.015625)"/>
     <use xlink:href="#DejaVuSans-61" transform="translate(713.183594 0.015625)"/>
     <use xlink:href="#DejaVuSans-72" transform="translate(774.462891 0.015625)"/>
     <use xlink:href="#DejaVuSans-69" transform="translate(815.576172 0.015625)"/>
     <use xlink:href="#DejaVuSans-61" transform="translate(843.359375 0.015625)"/>
     <use xlink:href="#DejaVuSans-74" transform="translate(904.638672 0.015625)"/>
     <use xlink:href="#DejaVuSans-69" transform="translate(943.847656 0.015625)"/>
     <use xlink:href="#DejaVuSans-6f" transform="translate(971.630859 0.015625)"/>
     <use xlink:href="#DejaVuSans-6e" transform="translate(1032.8125 0.015625)"/>
     <use xlink:href="#DejaVuSans-20" transform="translate(1096.191406 0.015625)"/>
     <use xlink:href="#DejaVuSans-6f" transform="translate(1127.978516 0.015625)"/>
     <use xlink:href="#DejaVuSans-66" transform="translate(1189.160156 0.015625)"/>
     <use xlink:href="#DejaVuSans-20" transform="translate(1224.365234 0.015625)"/>
     <use xlink:href="#DejaVuSans-Oblique-58" transform="translate(1256.152344 0.015625)"/>
     <use xlink:href="#DejaVuSans-Oblique-74" transform="translate(1324.658203 -16.390625)scale(0.7)"/>
     <use xlink:href="#DejaVuSans-20" transform="translate(1354.838867 0.015625)"/>
     <use xlink:href="#DejaVuSans-61" transform="translate(1386.625977 0.015625)"/>
     <use xlink:href="#DejaVuSans-6e" transform="translate(1447.905273 0.015625)"/>
     <use xlink:href="#DejaVuSans-64" transform="translate(1511.28418 0.015625)"/>
     <use xlink:href="#DejaVuSans-20" transform="translate(1574.760742 0.015625)"/>
     <use xlink:href="#DejaVuSans-Oblique-53" transform="translate(1606.547852 0.015625)"/>
     <use xlink:href="#DejaVuSans-Oblique-74" transform="translate(1670.024414 -16.390625)scale(0.7)"/>
    </g>
   </g>
   <g id="legend_1">
    <g id="patch_7">
     <path d="M 133 103.874375 
L 335.1 103.874375 
Q 337.1 103.874375 337.1 101.874375 
L 337.1 58.84 
Q 337.1 56.84 335.1 56.84 
L 133 56.84 
Q 131 56.84 131 58.84 
L 131 101.874375 
Q 131 103.874375 133 103.874375 
z
" style="fill: #ffffff; opacity: 0.8; stroke: #cccccc; stroke-linejoin: miter"/>
    </g>
    <g id="line2d_16">
     <path d="M 135 64.938437 
L 145 64.938437 
L 155 64.938437 
" style="fill: none; stroke: #1f77b4; stroke-width: 1.5; stroke-linecap: square"/>
    </g>
    <g id="text_16">
     <!-- $X_t$ -->
     <g transform="translate(163 68.438437)scale(0.1 -0.1)">
      <use xlink:href="#DejaVuSans-Oblique-58" transform="translate(0 0.09375)"/>
      <use xlink:href="#DejaVuSans-Oblique-74" transform="translate(68.505859 -16.3125)scale(0.7)"/>
     </g>
    </g>
    <g id="line2d_17">
     <path d="M 135 79.616562 
L 145 79.616562 
L 155 79.616562 
" style="fill: none; stroke: #ff7f0e; stroke-width: 1.5; stroke-linecap: square"/>
    </g>
    <g id="text_17">
     <!-- $S_t$ -->
     <g transform="translate(163 83.116562)scale(0.1 -0.1)">
      <use xlink:href="#DejaVuSans-Oblique-53" transform="translate(0 0.78125)"/>
      <use xlink:href="#DejaVuSans-Oblique-74" transform="translate(63.476562 -15.625)scale(0.7)"/>
     </g>
    </g>
    <g id="line2d_18">
     <path d="M 135 94.294687 
L 145 94.294687 
L 155 94.294687 
" style="fill: none; stroke: #2ca02c; stroke-width: 1.5; stroke-linecap: square"/>
    </g>
    <g id="text_18">
     <!-- Quadratic Covariation of $X_t$ and $S_t$ -->
     <g transform="translate(163 97.794687)scale(0.1 -0.1)">
      <use xlink:href="#DejaVuSans-51" transform="translate(0 0.015625)"/>
      <use xlink:href="#DejaVuSans-75" transform="translate(78.710938 0.015625)"/>
      <use xlink:href="#DejaVuSans-61" transform="translate(142.089844 0.015625)"/>
      <use xlink:href="#DejaVuSans-64" transform="translate(203.369141 0.015625)"/>
      <use xlink:href="#DejaVuSans-72" transform="translate(266.845703 0.015625)"/>
      <use xlink:href="#DejaVuSans-61" transform="translate(307.958984 0.015625)"/>
      <use xlink:href="#DejaVuSans-74" transform="translate(369.238281 0.015625)"/>
      <use xlink:href="#DejaVuSans-69" transform="translate(408.447266 0.015625)"/>
      <use xlink:href="#DejaVuSans-63" transform="translate(436.230469 0.015625)"/>
      <use xlink:href="#DejaVuSans-20" transform="translate(491.210938 0.015625)"/>
      <use xlink:href="#DejaVuSans-43" transform="translate(522.998047 0.015625)"/>
      <use xlink:href="#DejaVuSans-6f" transform="translate(592.822266 0.015625)"/>
      <use xlink:href="#DejaVuSans-76" transform="translate(654.003906 0.015625)"/>
      <use xlink:href="#DejaVuSans-61" transform="translate(713.183594 0.015625)"/>
      <use xlink:href="#DejaVuSans-72" transform="translate(774.462891 0.015625)"/>
      <use xlink:href="#DejaVuSans-69" transform="translate(815.576172 0.015625)"/>
      <use xlink:href="#DejaVuSans-61" transform="translate(843.359375 0.015625)"/>
      <use xlink:href="#DejaVuSans-74" transform="translate(904.638672 0.015625)"/>
      <use xlink:href="#DejaVuSans-69" transform="translate(943.847656 0.015625)"/>
      <use xlink:href="#DejaVuSans-6f" transform="translate(971.630859 0.015625)"/>
      <use xlink:href="#DejaVuSans-6e" transform="translate(1032.8125 0.015625)"/>
      <use xlink:href="#DejaVuSans-20" transform="translate(1096.191406 0.015625)"/>
      <use xlink:href="#DejaVuSans-6f" transform="translate(1127.978516 0.015625)"/>
      <use xlink:href="#DejaVuSans-66" transform="translate(1189.160156 0.015625)"/>
      <use xlink:href="#DejaVuSans-20" transform="translate(1224.365234 0.015625)"/>
      <use xlink:href="#DejaVuSans-Oblique-58" transform="translate(1256.152344 0.015625)"/>
      <use xlink:href="#DejaVuSans-Oblique-74" transform="translate(1324.658203 -16.390625)scale(0.7)"/>
      <use xlink:href="#DejaVuSans-20" transform="translate(1354.838867 0.015625)"/>
      <use xlink:href="#DejaVuSans-61" transform="translate(1386.625977 0.015625)"/>
      <use xlink:href="#DejaVuSans-6e" transform="translate(1447.905273 0.015625)"/>
      <use xlink:href="#DejaVuSans-64" transform="translate(1511.28418 0.015625)"/>
      <use xlink:href="#DejaVuSans-20" transform="translate(1574.760742 0.015625)"/>
      <use xlink:href="#DejaVuSans-Oblique-53" transform="translate(1606.547852 0.015625)"/>
      <use xlink:href="#DejaVuSans-Oblique-74" transform="translate(1670.024414 -16.390625)scale(0.7)"/>
     </g>
    </g>
   </g>
  </g>
 </g>
 <defs>
  <clipPath id="p34f113ef90">
   <rect x="126" y="51.84" width="781.2" height="332.64"/>
  </clipPath>
 </defs>
</svg>
