<?xml version="1.0" encoding="utf-8" standalone="no"?>
<!DOCTYPE svg PUBLIC "-//W3C//DTD SVG 1.1//EN"
  "http://www.w3.org/Graphics/SVG/1.1/DTD/svg11.dtd">
<svg xmlns:xlink="http://www.w3.org/1999/xlink" width="1008pt" height="432pt" viewBox="0 0 1008 432" xmlns="http://www.w3.org/2000/svg" version="1.1">
 <metadata>
  <rdf:RDF xmlns:dc="http://purl.org/dc/elements/1.1/" xmlns:cc="http://creativecommons.org/ns#" xmlns:rdf="http://www.w3.org/1999/02/22-rdf-syntax-ns#">
   <cc:Work>
    <dc:type rdf:resource="http://purl.org/dc/dcmitype/StillImage"/>
    <dc:date>2023-12-22T17:08:44.719393</dc:date>
    <dc:format>image/svg+xml</dc:format>
    <dc:creator>
     <cc:Agent>
      <dc:title>Matplotlib v3.5.2, https://matplotlib.org/</dc:title>
     </cc:Agent>
    </dc:creator>
   </cc:Work>
  </rdf:RDF>
 </metadata>
 <defs>
  <style type="text/css">*{stroke-linejoin: round; stroke-linecap: butt}</style>
 </defs>
 <g id="figure_1">
  <g id="patch_1">
   <path d="M 0 432 
L 1008 432 
L 1008 0 
L 0 0 
z
" style="fill: #ffffff"/>
  </g>
  <g id="axes_1">
   <g id="patch_2">
    <path d="M 126 384.48 
L 907.2 384.48 
L 907.2 51.84 
L 126 51.84 
z
" style="fill: #ffffff"/>
   </g>
   <g id="matplotlib.axis_1">
    <g id="xtick_1">
     <g id="line2d_1">
      <defs>
       <path id="m885d52ff3c" d="M 0 0 
L 0 3.5 
" style="stroke: #000000; stroke-width: 0.8"/>
      </defs>
      <g>
       <use xlink:href="#m885d52ff3c" x="161.509091" y="384.48" style="stroke: #000000; stroke-width: 0.8"/>
      </g>
     </g>
     <g id="text_1">
      <!-- 0.0 -->
      <g transform="translate(153.557528 399.078438)scale(0.1 -0.1)">
       <defs>
        <path id="DejaVuSans-30" d="M 2034 4250 
Q 1547 4250 1301 3770 
Q 1056 3291 1056 2328 
Q 1056 1369 1301 889 
Q 1547 409 2034 409 
Q 2525 409 2770 889 
Q 3016 1369 3016 2328 
Q 3016 3291 2770 3770 
Q 2525 4250 2034 4250 
z
M 2034 4750 
Q 2819 4750 3233 4129 
Q 3647 3509 3647 2328 
Q 3647 1150 3233 529 
Q 2819 -91 2034 -91 
Q 1250 -91 836 529 
Q 422 1150 422 2328 
Q 422 3509 836 4129 
Q 1250 4750 2034 4750 
z
" transform="scale(0.015625)"/>
        <path id="DejaVuSans-2e" d="M 684 794 
L 1344 794 
L 1344 0 
L 684 0 
L 684 794 
z
" transform="scale(0.015625)"/>
       </defs>
       <use xlink:href="#DejaVuSans-30"/>
       <use xlink:href="#DejaVuSans-2e" x="63.623047"/>
       <use xlink:href="#DejaVuSans-30" x="95.410156"/>
      </g>
     </g>
    </g>
    <g id="xtick_2">
     <g id="line2d_2">
      <g>
       <use xlink:href="#m885d52ff3c" x="303.545455" y="384.48" style="stroke: #000000; stroke-width: 0.8"/>
      </g>
     </g>
     <g id="text_2">
      <!-- 0.2 -->
      <g transform="translate(295.593892 399.078438)scale(0.1 -0.1)">
       <defs>
        <path id="DejaVuSans-32" d="M 1228 531 
L 3431 531 
L 3431 0 
L 469 0 
L 469 531 
Q 828 903 1448 1529 
Q 2069 2156 2228 2338 
Q 2531 2678 2651 2914 
Q 2772 3150 2772 3378 
Q 2772 3750 2511 3984 
Q 2250 4219 1831 4219 
Q 1534 4219 1204 4116 
Q 875 4013 500 3803 
L 500 4441 
Q 881 4594 1212 4672 
Q 1544 4750 1819 4750 
Q 2544 4750 2975 4387 
Q 3406 4025 3406 3419 
Q 3406 3131 3298 2873 
Q 3191 2616 2906 2266 
Q 2828 2175 2409 1742 
Q 1991 1309 1228 531 
z
" transform="scale(0.015625)"/>
       </defs>
       <use xlink:href="#DejaVuSans-30"/>
       <use xlink:href="#DejaVuSans-2e" x="63.623047"/>
       <use xlink:href="#DejaVuSans-32" x="95.410156"/>
      </g>
     </g>
    </g>
    <g id="xtick_3">
     <g id="line2d_3">
      <g>
       <use xlink:href="#m885d52ff3c" x="445.581818" y="384.48" style="stroke: #000000; stroke-width: 0.8"/>
      </g>
     </g>
     <g id="text_3">
      <!-- 0.4 -->
      <g transform="translate(437.630256 399.078438)scale(0.1 -0.1)">
       <defs>
        <path id="DejaVuSans-34" d="M 2419 4116 
L 825 1625 
L 2419 1625 
L 2419 4116 
z
M 2253 4666 
L 3047 4666 
L 3047 1625 
L 3713 1625 
L 3713 1100 
L 3047 1100 
L 3047 0 
L 2419 0 
L 2419 1100 
L 313 1100 
L 313 1709 
L 2253 4666 
z
" transform="scale(0.015625)"/>
       </defs>
       <use xlink:href="#DejaVuSans-30"/>
       <use xlink:href="#DejaVuSans-2e" x="63.623047"/>
       <use xlink:href="#DejaVuSans-34" x="95.410156"/>
      </g>
     </g>
    </g>
    <g id="xtick_4">
     <g id="line2d_4">
      <g>
       <use xlink:href="#m885d52ff3c" x="587.618182" y="384.48" style="stroke: #000000; stroke-width: 0.8"/>
      </g>
     </g>
     <g id="text_4">
      <!-- 0.6 -->
      <g transform="translate(579.666619 399.078438)scale(0.1 -0.1)">
       <defs>
        <path id="DejaVuSans-36" d="M 2113 2584 
Q 1688 2584 1439 2293 
Q 1191 2003 1191 1497 
Q 1191 994 1439 701 
Q 1688 409 2113 409 
Q 2538 409 2786 701 
Q 3034 994 3034 1497 
Q 3034 2003 2786 2293 
Q 2538 2584 2113 2584 
z
M 3366 4563 
L 3366 3988 
Q 3128 4100 2886 4159 
Q 2644 4219 2406 4219 
Q 1781 4219 1451 3797 
Q 1122 3375 1075 2522 
Q 1259 2794 1537 2939 
Q 1816 3084 2150 3084 
Q 2853 3084 3261 2657 
Q 3669 2231 3669 1497 
Q 3669 778 3244 343 
Q 2819 -91 2113 -91 
Q 1303 -91 875 529 
Q 447 1150 447 2328 
Q 447 3434 972 4092 
Q 1497 4750 2381 4750 
Q 2619 4750 2861 4703 
Q 3103 4656 3366 4563 
z
" transform="scale(0.015625)"/>
       </defs>
       <use xlink:href="#DejaVuSans-30"/>
       <use xlink:href="#DejaVuSans-2e" x="63.623047"/>
       <use xlink:href="#DejaVuSans-36" x="95.410156"/>
      </g>
     </g>
    </g>
    <g id="xtick_5">
     <g id="line2d_5">
      <g>
       <use xlink:href="#m885d52ff3c" x="729.654545" y="384.48" style="stroke: #000000; stroke-width: 0.8"/>
      </g>
     </g>
     <g id="text_5">
      <!-- 0.8 -->
      <g transform="translate(721.702983 399.078438)scale(0.1 -0.1)">
       <defs>
        <path id="DejaVuSans-38" d="M 2034 2216 
Q 1584 2216 1326 1975 
Q 1069 1734 1069 1313 
Q 1069 891 1326 650 
Q 1584 409 2034 409 
Q 2484 409 2743 651 
Q 3003 894 3003 1313 
Q 3003 1734 2745 1975 
Q 2488 2216 2034 2216 
z
M 1403 2484 
Q 997 2584 770 2862 
Q 544 3141 544 3541 
Q 544 4100 942 4425 
Q 1341 4750 2034 4750 
Q 2731 4750 3128 4425 
Q 3525 4100 3525 3541 
Q 3525 3141 3298 2862 
Q 3072 2584 2669 2484 
Q 3125 2378 3379 2068 
Q 3634 1759 3634 1313 
Q 3634 634 3220 271 
Q 2806 -91 2034 -91 
Q 1263 -91 848 271 
Q 434 634 434 1313 
Q 434 1759 690 2068 
Q 947 2378 1403 2484 
z
M 1172 3481 
Q 1172 3119 1398 2916 
Q 1625 2713 2034 2713 
Q 2441 2713 2670 2916 
Q 2900 3119 2900 3481 
Q 2900 3844 2670 4047 
Q 2441 4250 2034 4250 
Q 1625 4250 1398 4047 
Q 1172 3844 1172 3481 
z
" transform="scale(0.015625)"/>
       </defs>
       <use xlink:href="#DejaVuSans-30"/>
       <use xlink:href="#DejaVuSans-2e" x="63.623047"/>
       <use xlink:href="#DejaVuSans-38" x="95.410156"/>
      </g>
     </g>
    </g>
    <g id="xtick_6">
     <g id="line2d_6">
      <g>
       <use xlink:href="#m885d52ff3c" x="871.690909" y="384.48" style="stroke: #000000; stroke-width: 0.8"/>
      </g>
     </g>
     <g id="text_6">
      <!-- 1.0 -->
      <g transform="translate(863.739347 399.078438)scale(0.1 -0.1)">
       <defs>
        <path id="DejaVuSans-31" d="M 794 531 
L 1825 531 
L 1825 4091 
L 703 3866 
L 703 4441 
L 1819 4666 
L 2450 4666 
L 2450 531 
L 3481 531 
L 3481 0 
L 794 0 
L 794 531 
z
" transform="scale(0.015625)"/>
       </defs>
       <use xlink:href="#DejaVuSans-31"/>
       <use xlink:href="#DejaVuSans-2e" x="63.623047"/>
       <use xlink:href="#DejaVuSans-30" x="95.410156"/>
      </g>
     </g>
    </g>
    <g id="text_7">
     <!-- Time -->
     <g transform="translate(504.366406 412.756563)scale(0.1 -0.1)">
      <defs>
       <path id="DejaVuSans-54" d="M -19 4666 
L 3928 4666 
L 3928 4134 
L 2272 4134 
L 2272 0 
L 1638 0 
L 1638 4134 
L -19 4134 
L -19 4666 
z
" transform="scale(0.015625)"/>
       <path id="DejaVuSans-69" d="M 603 3500 
L 1178 3500 
L 1178 0 
L 603 0 
L 603 3500 
z
M 603 4863 
L 1178 4863 
L 1178 4134 
L 603 4134 
L 603 4863 
z
" transform="scale(0.015625)"/>
       <path id="DejaVuSans-6d" d="M 3328 2828 
Q 3544 3216 3844 3400 
Q 4144 3584 4550 3584 
Q 5097 3584 5394 3201 
Q 5691 2819 5691 2113 
L 5691 0 
L 5113 0 
L 5113 2094 
Q 5113 2597 4934 2840 
Q 4756 3084 4391 3084 
Q 3944 3084 3684 2787 
Q 3425 2491 3425 1978 
L 3425 0 
L 2847 0 
L 2847 2094 
Q 2847 2600 2669 2842 
Q 2491 3084 2119 3084 
Q 1678 3084 1418 2786 
Q 1159 2488 1159 1978 
L 1159 0 
L 581 0 
L 581 3500 
L 1159 3500 
L 1159 2956 
Q 1356 3278 1631 3431 
Q 1906 3584 2284 3584 
Q 2666 3584 2933 3390 
Q 3200 3197 3328 2828 
z
" transform="scale(0.015625)"/>
       <path id="DejaVuSans-65" d="M 3597 1894 
L 3597 1613 
L 953 1613 
Q 991 1019 1311 708 
Q 1631 397 2203 397 
Q 2534 397 2845 478 
Q 3156 559 3463 722 
L 3463 178 
Q 3153 47 2828 -22 
Q 2503 -91 2169 -91 
Q 1331 -91 842 396 
Q 353 884 353 1716 
Q 353 2575 817 3079 
Q 1281 3584 2069 3584 
Q 2775 3584 3186 3129 
Q 3597 2675 3597 1894 
z
M 3022 2063 
Q 3016 2534 2758 2815 
Q 2500 3097 2075 3097 
Q 1594 3097 1305 2825 
Q 1016 2553 972 2059 
L 3022 2063 
z
" transform="scale(0.015625)"/>
      </defs>
      <use xlink:href="#DejaVuSans-54"/>
      <use xlink:href="#DejaVuSans-69" x="57.958984"/>
      <use xlink:href="#DejaVuSans-6d" x="85.742188"/>
      <use xlink:href="#DejaVuSans-65" x="183.154297"/>
     </g>
    </g>
   </g>
   <g id="matplotlib.axis_2">
    <g id="ytick_1">
     <g id="line2d_7">
      <defs>
       <path id="m3e9430c80f" d="M 0 0 
L -3.5 0 
" style="stroke: #000000; stroke-width: 0.8"/>
      </defs>
      <g>
       <use xlink:href="#m3e9430c80f" x="126" y="369.352438" style="stroke: #000000; stroke-width: 0.8"/>
      </g>
     </g>
     <g id="text_8">
      <!-- 0.0 -->
      <g transform="translate(103.096875 373.151657)scale(0.1 -0.1)">
       <use xlink:href="#DejaVuSans-30"/>
       <use xlink:href="#DejaVuSans-2e" x="63.623047"/>
       <use xlink:href="#DejaVuSans-30" x="95.410156"/>
      </g>
     </g>
    </g>
    <g id="ytick_2">
     <g id="line2d_8">
      <g>
       <use xlink:href="#m3e9430c80f" x="126" y="296.570842" style="stroke: #000000; stroke-width: 0.8"/>
      </g>
     </g>
     <g id="text_9">
      <!-- 0.5 -->
      <g transform="translate(103.096875 300.370061)scale(0.1 -0.1)">
       <defs>
        <path id="DejaVuSans-35" d="M 691 4666 
L 3169 4666 
L 3169 4134 
L 1269 4134 
L 1269 2991 
Q 1406 3038 1543 3061 
Q 1681 3084 1819 3084 
Q 2600 3084 3056 2656 
Q 3513 2228 3513 1497 
Q 3513 744 3044 326 
Q 2575 -91 1722 -91 
Q 1428 -91 1123 -41 
Q 819 9 494 109 
L 494 744 
Q 775 591 1075 516 
Q 1375 441 1709 441 
Q 2250 441 2565 725 
Q 2881 1009 2881 1497 
Q 2881 1984 2565 2268 
Q 2250 2553 1709 2553 
Q 1456 2553 1204 2497 
Q 953 2441 691 2322 
L 691 4666 
z
" transform="scale(0.015625)"/>
       </defs>
       <use xlink:href="#DejaVuSans-30"/>
       <use xlink:href="#DejaVuSans-2e" x="63.623047"/>
       <use xlink:href="#DejaVuSans-35" x="95.410156"/>
      </g>
     </g>
    </g>
    <g id="ytick_3">
     <g id="line2d_9">
      <g>
       <use xlink:href="#m3e9430c80f" x="126" y="223.789247" style="stroke: #000000; stroke-width: 0.8"/>
      </g>
     </g>
     <g id="text_10">
      <!-- 1.0 -->
      <g transform="translate(103.096875 227.588466)scale(0.1 -0.1)">
       <use xlink:href="#DejaVuSans-31"/>
       <use xlink:href="#DejaVuSans-2e" x="63.623047"/>
       <use xlink:href="#DejaVuSans-30" x="95.410156"/>
      </g>
     </g>
    </g>
    <g id="ytick_4">
     <g id="line2d_10">
      <g>
       <use xlink:href="#m3e9430c80f" x="126" y="151.007651" style="stroke: #000000; stroke-width: 0.8"/>
      </g>
     </g>
     <g id="text_11">
      <!-- 1.5 -->
      <g transform="translate(103.096875 154.80687)scale(0.1 -0.1)">
       <use xlink:href="#DejaVuSans-31"/>
       <use xlink:href="#DejaVuSans-2e" x="63.623047"/>
       <use xlink:href="#DejaVuSans-35" x="95.410156"/>
      </g>
     </g>
    </g>
    <g id="ytick_5">
     <g id="line2d_11">
      <g>
       <use xlink:href="#m3e9430c80f" x="126" y="78.226056" style="stroke: #000000; stroke-width: 0.8"/>
      </g>
     </g>
     <g id="text_12">
      <!-- 2.0 -->
      <g transform="translate(103.096875 82.025275)scale(0.1 -0.1)">
       <use xlink:href="#DejaVuSans-32"/>
       <use xlink:href="#DejaVuSans-2e" x="63.623047"/>
       <use xlink:href="#DejaVuSans-30" x="95.410156"/>
      </g>
     </g>
    </g>
    <g id="text_13">
     <!-- Quadratic Covariation -->
     <g transform="translate(97.017187 272.970156)rotate(-90)scale(0.1 -0.1)">
      <defs>
       <path id="DejaVuSans-51" d="M 2522 4238 
Q 1834 4238 1429 3725 
Q 1025 3213 1025 2328 
Q 1025 1447 1429 934 
Q 1834 422 2522 422 
Q 3209 422 3611 934 
Q 4013 1447 4013 2328 
Q 4013 3213 3611 3725 
Q 3209 4238 2522 4238 
z
M 3406 84 
L 4238 -825 
L 3475 -825 
L 2784 -78 
Q 2681 -84 2626 -87 
Q 2572 -91 2522 -91 
Q 1538 -91 948 567 
Q 359 1225 359 2328 
Q 359 3434 948 4092 
Q 1538 4750 2522 4750 
Q 3503 4750 4090 4092 
Q 4678 3434 4678 2328 
Q 4678 1516 4351 937 
Q 4025 359 3406 84 
z
" transform="scale(0.015625)"/>
       <path id="DejaVuSans-75" d="M 544 1381 
L 544 3500 
L 1119 3500 
L 1119 1403 
Q 1119 906 1312 657 
Q 1506 409 1894 409 
Q 2359 409 2629 706 
Q 2900 1003 2900 1516 
L 2900 3500 
L 3475 3500 
L 3475 0 
L 2900 0 
L 2900 538 
Q 2691 219 2414 64 
Q 2138 -91 1772 -91 
Q 1169 -91 856 284 
Q 544 659 544 1381 
z
M 1991 3584 
L 1991 3584 
z
" transform="scale(0.015625)"/>
       <path id="DejaVuSans-61" d="M 2194 1759 
Q 1497 1759 1228 1600 
Q 959 1441 959 1056 
Q 959 750 1161 570 
Q 1363 391 1709 391 
Q 2188 391 2477 730 
Q 2766 1069 2766 1631 
L 2766 1759 
L 2194 1759 
z
M 3341 1997 
L 3341 0 
L 2766 0 
L 2766 531 
Q 2569 213 2275 61 
Q 1981 -91 1556 -91 
Q 1019 -91 701 211 
Q 384 513 384 1019 
Q 384 1609 779 1909 
Q 1175 2209 1959 2209 
L 2766 2209 
L 2766 2266 
Q 2766 2663 2505 2880 
Q 2244 3097 1772 3097 
Q 1472 3097 1187 3025 
Q 903 2953 641 2809 
L 641 3341 
Q 956 3463 1253 3523 
Q 1550 3584 1831 3584 
Q 2591 3584 2966 3190 
Q 3341 2797 3341 1997 
z
" transform="scale(0.015625)"/>
       <path id="DejaVuSans-64" d="M 2906 2969 
L 2906 4863 
L 3481 4863 
L 3481 0 
L 2906 0 
L 2906 525 
Q 2725 213 2448 61 
Q 2172 -91 1784 -91 
Q 1150 -91 751 415 
Q 353 922 353 1747 
Q 353 2572 751 3078 
Q 1150 3584 1784 3584 
Q 2172 3584 2448 3432 
Q 2725 3281 2906 2969 
z
M 947 1747 
Q 947 1113 1208 752 
Q 1469 391 1925 391 
Q 2381 391 2643 752 
Q 2906 1113 2906 1747 
Q 2906 2381 2643 2742 
Q 2381 3103 1925 3103 
Q 1469 3103 1208 2742 
Q 947 2381 947 1747 
z
" transform="scale(0.015625)"/>
       <path id="DejaVuSans-72" d="M 2631 2963 
Q 2534 3019 2420 3045 
Q 2306 3072 2169 3072 
Q 1681 3072 1420 2755 
Q 1159 2438 1159 1844 
L 1159 0 
L 581 0 
L 581 3500 
L 1159 3500 
L 1159 2956 
Q 1341 3275 1631 3429 
Q 1922 3584 2338 3584 
Q 2397 3584 2469 3576 
Q 2541 3569 2628 3553 
L 2631 2963 
z
" transform="scale(0.015625)"/>
       <path id="DejaVuSans-74" d="M 1172 4494 
L 1172 3500 
L 2356 3500 
L 2356 3053 
L 1172 3053 
L 1172 1153 
Q 1172 725 1289 603 
Q 1406 481 1766 481 
L 2356 481 
L 2356 0 
L 1766 0 
Q 1100 0 847 248 
Q 594 497 594 1153 
L 594 3053 
L 172 3053 
L 172 3500 
L 594 3500 
L 594 4494 
L 1172 4494 
z
" transform="scale(0.015625)"/>
       <path id="DejaVuSans-63" d="M 3122 3366 
L 3122 2828 
Q 2878 2963 2633 3030 
Q 2388 3097 2138 3097 
Q 1578 3097 1268 2742 
Q 959 2388 959 1747 
Q 959 1106 1268 751 
Q 1578 397 2138 397 
Q 2388 397 2633 464 
Q 2878 531 3122 666 
L 3122 134 
Q 2881 22 2623 -34 
Q 2366 -91 2075 -91 
Q 1284 -91 818 406 
Q 353 903 353 1747 
Q 353 2603 823 3093 
Q 1294 3584 2113 3584 
Q 2378 3584 2631 3529 
Q 2884 3475 3122 3366 
z
" transform="scale(0.015625)"/>
       <path id="DejaVuSans-20" transform="scale(0.015625)"/>
       <path id="DejaVuSans-43" d="M 4122 4306 
L 4122 3641 
Q 3803 3938 3442 4084 
Q 3081 4231 2675 4231 
Q 1875 4231 1450 3742 
Q 1025 3253 1025 2328 
Q 1025 1406 1450 917 
Q 1875 428 2675 428 
Q 3081 428 3442 575 
Q 3803 722 4122 1019 
L 4122 359 
Q 3791 134 3420 21 
Q 3050 -91 2638 -91 
Q 1578 -91 968 557 
Q 359 1206 359 2328 
Q 359 3453 968 4101 
Q 1578 4750 2638 4750 
Q 3056 4750 3426 4639 
Q 3797 4528 4122 4306 
z
" transform="scale(0.015625)"/>
       <path id="DejaVuSans-6f" d="M 1959 3097 
Q 1497 3097 1228 2736 
Q 959 2375 959 1747 
Q 959 1119 1226 758 
Q 1494 397 1959 397 
Q 2419 397 2687 759 
Q 2956 1122 2956 1747 
Q 2956 2369 2687 2733 
Q 2419 3097 1959 3097 
z
M 1959 3584 
Q 2709 3584 3137 3096 
Q 3566 2609 3566 1747 
Q 3566 888 3137 398 
Q 2709 -91 1959 -91 
Q 1206 -91 779 398 
Q 353 888 353 1747 
Q 353 2609 779 3096 
Q 1206 3584 1959 3584 
z
" transform="scale(0.015625)"/>
       <path id="DejaVuSans-76" d="M 191 3500 
L 800 3500 
L 1894 563 
L 2988 3500 
L 3597 3500 
L 2284 0 
L 1503 0 
L 191 3500 
z
" transform="scale(0.015625)"/>
       <path id="DejaVuSans-6e" d="M 3513 2113 
L 3513 0 
L 2938 0 
L 2938 2094 
Q 2938 2591 2744 2837 
Q 2550 3084 2163 3084 
Q 1697 3084 1428 2787 
Q 1159 2491 1159 1978 
L 1159 0 
L 581 0 
L 581 3500 
L 1159 3500 
L 1159 2956 
Q 1366 3272 1645 3428 
Q 1925 3584 2291 3584 
Q 2894 3584 3203 3211 
Q 3513 2838 3513 2113 
z
" transform="scale(0.015625)"/>
      </defs>
      <use xlink:href="#DejaVuSans-51"/>
      <use xlink:href="#DejaVuSans-75" x="78.710938"/>
      <use xlink:href="#DejaVuSans-61" x="142.089844"/>
      <use xlink:href="#DejaVuSans-64" x="203.369141"/>
      <use xlink:href="#DejaVuSans-72" x="266.845703"/>
      <use xlink:href="#DejaVuSans-61" x="307.958984"/>
      <use xlink:href="#DejaVuSans-74" x="369.238281"/>
      <use xlink:href="#DejaVuSans-69" x="408.447266"/>
      <use xlink:href="#DejaVuSans-63" x="436.230469"/>
      <use xlink:href="#DejaVuSans-20" x="491.210938"/>
      <use xlink:href="#DejaVuSans-43" x="522.998047"/>
      <use xlink:href="#DejaVuSans-6f" x="592.822266"/>
      <use xlink:href="#DejaVuSans-76" x="654.003906"/>
      <use xlink:href="#DejaVuSans-61" x="713.183594"/>
      <use xlink:href="#DejaVuSans-72" x="774.462891"/>
      <use xlink:href="#DejaVuSans-69" x="815.576172"/>
      <use xlink:href="#DejaVuSans-61" x="843.359375"/>
      <use xlink:href="#DejaVuSans-74" x="904.638672"/>
      <use xlink:href="#DejaVuSans-69" x="943.847656"/>
      <use xlink:href="#DejaVuSans-6f" x="971.630859"/>
      <use xlink:href="#DejaVuSans-6e" x="1032.8125"/>
     </g>
    </g>
   </g>
   <g id="line2d_12">
    <path d="M 161.509091 223.789247 
L 162.219273 223.21834 
L 162.929455 218.307558 
L 163.639636 217.211663 
L 164.349818 216.800707 
L 166.480364 211.545065 
L 167.190545 207.114808 
L 167.900727 199.540525 
L 168.610909 201.206038 
L 169.321091 198.835302 
L 170.031273 199.568061 
L 170.741455 197.576714 
L 171.451636 201.254793 
L 172.161818 199.012343 
L 173.582182 182.403815 
L 174.292364 176.764808 
L 175.002545 174.467279 
L 175.712727 171.206702 
L 176.422909 163.21498 
L 177.133091 160.410784 
L 177.843273 158.201456 
L 178.553455 150.202836 
L 179.263636 151.806037 
L 179.973818 155.387347 
L 180.684 154.790663 
L 181.394182 154.501509 
L 182.104364 153.857616 
L 182.814545 151.407535 
L 183.524727 159.718009 
L 184.234909 162.708807 
L 184.945091 158.506143 
L 185.655273 152.399688 
L 186.365455 157.193339 
L 187.075636 150.72672 
L 187.785818 152.427736 
L 188.496 161.615377 
L 189.206182 160.661524 
L 189.916364 164.135313 
L 190.626545 169.399342 
L 191.336727 170.423589 
L 192.046909 166.625918 
L 192.757091 172.03878 
L 193.467273 173.906921 
L 194.887636 167.319487 
L 195.597818 171.34765 
L 196.308 170.440635 
L 197.018182 167.873961 
L 197.728364 174.34972 
L 198.438545 174.866633 
L 199.148727 182.228183 
L 199.858909 175.93416 
L 200.569091 178.185615 
L 201.279273 176.232662 
L 201.989455 175.663998 
L 202.699636 182.57577 
L 203.409818 183.21885 
L 204.12 183.00053 
L 204.830182 177.887115 
L 205.540364 182.358541 
L 206.250545 184.727073 
L 206.960727 182.860906 
L 207.670909 189.781025 
L 208.381091 190.290536 
L 209.091273 191.139763 
L 209.801455 191.472927 
L 210.511636 193.186594 
L 211.221818 197.965414 
L 211.932 198.435518 
L 212.642182 191.739967 
L 213.352364 192.030938 
L 214.062545 201.921755 
L 214.772727 214.966784 
L 215.482909 212.072557 
L 216.193091 217.157867 
L 216.903273 216.285775 
L 217.613455 219.351305 
L 219.033818 203.854448 
L 219.744 205.897591 
L 220.454182 210.244437 
L 221.164364 208.826862 
L 221.874545 210.119981 
L 222.584727 214.384874 
L 223.294909 208.590728 
L 224.005091 205.052999 
L 224.715273 206.407862 
L 225.425455 197.058769 
L 226.135636 191.439538 
L 226.845818 192.808325 
L 227.556 191.297605 
L 228.266182 187.971424 
L 228.976364 192.486906 
L 229.686545 202.778535 
L 230.396727 198.088768 
L 231.106909 202.137272 
L 231.817091 200.851847 
L 232.527273 196.027676 
L 233.237455 195.895884 
L 233.947636 193.132946 
L 234.657818 197.512646 
L 235.368 193.349 
L 236.078182 202.765123 
L 236.788364 203.483806 
L 237.498545 196.554098 
L 238.208727 195.583042 
L 238.918909 180.324704 
L 239.629091 186.107503 
L 240.339273 195.056314 
L 241.049455 194.074471 
L 241.759636 192.088228 
L 242.469818 195.033225 
L 243.18 198.63478 
L 243.890182 203.388684 
L 244.600364 200.855812 
L 245.310545 194.973811 
L 246.020727 194.351089 
L 246.730909 196.256178 
L 247.441091 194.092496 
L 248.151273 196.600329 
L 248.861455 193.973326 
L 249.571636 198.226341 
L 250.281818 191.23028 
L 250.992 181.433861 
L 251.702182 179.653075 
L 252.412364 180.876719 
L 253.122545 178.328843 
L 253.832727 173.550084 
L 254.542909 174.048838 
L 255.253091 177.468047 
L 256.673455 185.282914 
L 257.383636 185.585724 
L 258.093818 191.250312 
L 258.804 189.826284 
L 260.224364 195.409224 
L 260.934545 192.649556 
L 261.644727 197.003378 
L 262.354909 198.803547 
L 263.775273 204.766828 
L 264.485455 212.313297 
L 265.195636 212.629259 
L 265.905818 219.669284 
L 266.616 217.709815 
L 267.326182 206.316302 
L 268.036364 201.339681 
L 269.456727 211.911009 
L 270.166909 210.704015 
L 270.877091 213.17978 
L 271.587273 219.01553 
L 272.297455 218.452912 
L 273.007636 218.409393 
L 273.717818 217.891494 
L 274.428 219.027094 
L 275.138182 219.251616 
L 275.848364 225.696122 
L 276.558545 222.34873 
L 277.268727 217.368019 
L 277.978909 219.673791 
L 278.689091 227.000382 
L 280.109455 237.337624 
L 280.819636 239.100467 
L 281.529818 239.067971 
L 282.24 237.519282 
L 282.950182 240.74741 
L 283.660364 252.893501 
L 284.370545 246.580449 
L 285.080727 250.746545 
L 285.790909 246.995066 
L 286.501091 246.712505 
L 287.211273 241.409965 
L 287.921455 243.296411 
L 288.631636 254.463604 
L 289.341818 252.247399 
L 290.052 252.084033 
L 290.762182 255.392481 
L 291.472364 256.551076 
L 292.182545 257.345459 
L 292.892727 252.79745 
L 293.602909 244.414793 
L 294.313091 243.259054 
L 295.023273 240.62371 
L 295.733455 242.753 
L 296.443636 245.234261 
L 297.153818 243.676998 
L 297.864 233.63914 
L 298.574182 233.23795 
L 299.284364 229.328199 
L 299.994545 232.779458 
L 300.704727 234.886765 
L 301.414909 234.863739 
L 302.125091 238.313359 
L 302.835273 240.953444 
L 303.545455 240.446595 
L 304.255636 242.909987 
L 304.965818 234.387263 
L 305.676 240.854424 
L 306.386182 242.812244 
L 307.096364 249.182967 
L 307.806545 250.844272 
L 308.516727 251.529859 
L 309.226909 251.69483 
L 309.937091 255.313183 
L 310.647273 251.817025 
L 311.357455 254.423885 
L 312.777818 250.869263 
L 313.488 261.937569 
L 314.198182 267.615464 
L 314.908364 275.123133 
L 315.618545 279.693802 
L 316.328727 275.90405 
L 317.038909 275.196975 
L 317.749091 277.508495 
L 318.459273 279.032277 
L 319.169455 276.257763 
L 319.879636 276.567417 
L 320.589818 281.700239 
L 322.010182 278.62509 
L 322.720364 281.742999 
L 323.430545 283.418361 
L 324.140727 283.73243 
L 324.850909 283.601798 
L 325.561091 280.366339 
L 326.271273 287.436896 
L 326.981455 286.217504 
L 327.691636 289.133522 
L 328.401818 288.359535 
L 329.112 282.398223 
L 329.822182 280.749383 
L 330.532364 277.307984 
L 331.242545 272.211286 
L 331.952727 273.926341 
L 332.662909 271.84508 
L 333.373091 264.407374 
L 334.083273 264.205553 
L 334.793455 262.170823 
L 335.503636 262.244847 
L 336.213818 259.263777 
L 336.924 257.486217 
L 337.634182 258.318238 
L 338.344364 248.604971 
L 339.764727 267.918712 
L 341.185091 277.134216 
L 341.895273 273.021328 
L 342.605455 278.427301 
L 343.315636 278.867772 
L 344.025818 270.828927 
L 344.736 277.548471 
L 346.156364 288.270805 
L 346.866545 280.375086 
L 347.576727 284.701482 
L 348.997091 296.606886 
L 349.707273 298.6258 
L 350.417455 304.287083 
L 351.127636 299.218696 
L 351.837818 300.670539 
L 352.548 297.676237 
L 353.258182 297.633333 
L 353.968364 300.812786 
L 354.678545 299.681568 
L 355.388727 293.805371 
L 356.098909 296.796729 
L 356.809091 305.75845 
L 357.519273 301.25258 
L 358.229455 305.138128 
L 358.939636 296.849078 
L 359.649818 293.530484 
L 360.36 290.826258 
L 361.070182 292.608922 
L 361.780364 286.754408 
L 362.490545 290.179411 
L 363.200727 291.091176 
L 363.910909 295.003407 
L 364.621091 294.124239 
L 365.331273 292.137467 
L 366.041455 297.181446 
L 366.751636 299.419358 
L 367.461818 305.577345 
L 368.172 308.001293 
L 368.882182 307.60849 
L 369.592364 303.774096 
L 370.302545 301.31191 
L 371.012727 303.943326 
L 371.722909 317.677685 
L 372.433091 319.479831 
L 373.853455 312.60212 
L 374.563636 312.73543 
L 375.273818 309.938012 
L 375.984 308.324425 
L 376.694182 303.328742 
L 377.404364 290.381641 
L 378.114545 287.808355 
L 378.824727 283.969509 
L 379.534909 287.075166 
L 380.245091 287.264395 
L 380.955273 289.81348 
L 381.665455 285.709278 
L 382.375636 291.545494 
L 383.085818 281.486705 
L 383.796 273.859984 
L 384.506182 277.228879 
L 385.216364 278.719302 
L 385.926545 280.828061 
L 386.636727 280.955296 
L 387.346909 285.570708 
L 388.057091 280.794947 
L 388.767273 277.284011 
L 389.477455 274.694521 
L 390.897818 265.872361 
L 391.608 264.94018 
L 392.318182 258.790969 
L 393.028364 259.09864 
L 393.738545 255.356292 
L 394.448727 254.463224 
L 395.158909 260.584204 
L 395.869091 257.680041 
L 396.579273 254.287038 
L 397.289455 254.639461 
L 397.999636 251.655363 
L 398.709818 251.408453 
L 399.42 256.144649 
L 400.130182 259.463747 
L 400.840364 260.366906 
L 401.550545 249.765711 
L 402.260727 251.835085 
L 402.970909 253.445488 
L 403.681091 251.85816 
L 404.391273 242.597019 
L 405.101455 249.442888 
L 405.811636 254.454352 
L 406.521818 250.421653 
L 407.232 247.681825 
L 407.942182 248.235938 
L 408.652364 252.18691 
L 409.362545 253.000135 
L 410.072727 245.976057 
L 410.782909 243.992691 
L 411.493091 245.602744 
L 412.203273 245.71958 
L 412.913455 245.512159 
L 413.623636 240.280182 
L 414.333818 241.157919 
L 415.044 239.534211 
L 415.754182 242.987131 
L 416.464364 244.417626 
L 417.174545 240.553793 
L 417.884727 238.171391 
L 418.594909 243.073236 
L 419.305091 238.133844 
L 420.725455 237.0079 
L 421.435636 239.15647 
L 422.145818 236.804391 
L 422.856 242.04507 
L 423.566182 242.195016 
L 424.276364 246.07279 
L 425.696727 237.679392 
L 426.406909 238.784767 
L 427.117091 240.788159 
L 428.537455 247.504858 
L 429.247636 242.051942 
L 429.957818 241.173759 
L 430.668 240.59667 
L 431.378182 237.494982 
L 432.088364 238.29733 
L 432.798545 234.533686 
L 433.508727 237.81621 
L 434.218909 236.159269 
L 434.929091 238.490522 
L 435.639273 238.115292 
L 436.349455 238.107455 
L 437.059636 236.800207 
L 437.769818 225.698429 
L 438.48 227.478758 
L 439.190182 238.304951 
L 439.900364 236.232373 
L 440.610545 238.649681 
L 441.320727 245.891132 
L 442.030909 240.469148 
L 442.741091 242.195822 
L 443.451273 244.640701 
L 444.161455 242.699918 
L 444.871636 241.809999 
L 445.581818 240.199441 
L 446.292 240.050635 
L 447.712364 229.787418 
L 448.422545 232.80436 
L 449.132727 229.073584 
L 449.842909 227.990802 
L 450.553091 233.87084 
L 451.973455 242.429518 
L 452.683636 243.614258 
L 453.393818 242.552978 
L 454.104 241.730539 
L 454.814182 236.911117 
L 455.524364 235.469475 
L 456.234545 235.54857 
L 456.944727 234.329402 
L 457.654909 233.624132 
L 458.365091 235.233074 
L 459.075273 245.687182 
L 459.785455 245.201818 
L 460.495636 242.361966 
L 461.205818 236.457094 
L 461.916 233.520223 
L 462.626182 235.795633 
L 463.336364 230.551045 
L 464.046545 230.166009 
L 464.756727 239.429607 
L 465.466909 236.977568 
L 466.177091 237.178756 
L 466.887273 237.031371 
L 468.307636 227.482171 
L 469.017818 224.785127 
L 469.728 216.356919 
L 470.438182 216.332223 
L 471.148364 215.618975 
L 471.858545 222.072374 
L 472.568727 219.495403 
L 473.278909 219.141531 
L 473.989091 209.996024 
L 474.699273 204.058811 
L 476.119636 210.73424 
L 476.829818 211.465862 
L 477.54 202.133301 
L 478.250182 205.697655 
L 478.960364 193.129412 
L 480.380727 199.940503 
L 481.090909 202.860599 
L 481.801091 191.615697 
L 482.511273 190.005311 
L 483.221455 191.307135 
L 483.931636 186.188916 
L 484.641818 192.597356 
L 485.352 189.356261 
L 486.062182 189.764354 
L 486.772364 190.532613 
L 487.482545 190.444381 
L 488.192727 193.036869 
L 488.902909 193.183871 
L 489.613091 195.16902 
L 490.323273 194.489303 
L 491.033455 196.511127 
L 491.743636 192.05754 
L 492.453818 188.512798 
L 493.164 190.534009 
L 493.874182 199.32984 
L 494.584364 198.406808 
L 495.294545 191.815659 
L 496.004727 188.659615 
L 496.714909 192.340817 
L 497.425091 193.159407 
L 498.135273 196.648584 
L 498.845455 192.980302 
L 499.555636 196.3628 
L 500.265818 188.692679 
L 500.976 193.574232 
L 501.686182 194.155876 
L 502.396364 193.021416 
L 503.106545 196.164335 
L 503.816727 193.372949 
L 504.526909 184.049578 
L 505.237091 181.831207 
L 506.657455 183.127031 
L 507.367636 183.076036 
L 508.077818 187.700308 
L 509.498182 177.570529 
L 510.918545 185.155779 
L 511.628727 181.780577 
L 512.338909 181.853542 
L 513.049091 184.618221 
L 513.759273 178.280198 
L 515.179636 182.298878 
L 515.889818 189.423493 
L 516.6 188.747795 
L 517.310182 187.832375 
L 518.020364 184.17824 
L 518.730545 182.669017 
L 519.440727 182.348028 
L 520.150909 187.63425 
L 520.861091 186.505656 
L 521.571273 184.962241 
L 522.281455 191.889351 
L 522.991636 192.25927 
L 523.701818 200.39952 
L 524.412 199.495017 
L 525.122182 200.544887 
L 525.832364 199.335637 
L 526.542545 198.487358 
L 527.252727 196.105476 
L 527.962909 191.136326 
L 528.673091 189.819683 
L 529.383273 189.315583 
L 530.093455 184.684593 
L 530.803636 190.979583 
L 531.513818 183.350556 
L 532.224 184.607872 
L 532.934182 192.563359 
L 533.644364 193.484551 
L 534.354545 200.360782 
L 535.064727 201.298033 
L 535.774909 200.231755 
L 538.615636 180.355575 
L 539.325818 177.036936 
L 540.036 178.098151 
L 540.746182 180.542692 
L 541.456364 179.94574 
L 542.166545 173.013718 
L 542.876727 172.271964 
L 543.586909 171.253336 
L 544.297091 179.195575 
L 545.007273 179.129302 
L 545.717455 174.271127 
L 546.427636 181.404796 
L 547.137818 185.398249 
L 548.558182 176.137304 
L 549.268364 179.812154 
L 549.978545 182.190786 
L 550.688727 186.046097 
L 551.398909 181.490537 
L 552.109091 185.527225 
L 552.819273 183.993448 
L 553.529455 178.499768 
L 554.239636 175.404298 
L 554.949818 185.310808 
L 555.66 182.759214 
L 556.370182 173.868332 
L 557.080364 171.475286 
L 557.790545 167.77789 
L 558.500727 165.88859 
L 559.210909 164.387527 
L 559.921091 167.150925 
L 560.631273 166.071307 
L 562.051636 171.931821 
L 562.761818 180.284716 
L 563.472 173.76388 
L 564.182182 174.669896 
L 564.892364 179.969436 
L 565.602545 177.159992 
L 566.312727 173.231909 
L 567.022909 175.805092 
L 567.733091 182.37678 
L 568.443273 180.097398 
L 569.153455 178.859594 
L 569.863636 184.28636 
L 570.573818 184.359369 
L 571.284 179.424369 
L 571.994182 181.706038 
L 572.704364 177.702899 
L 573.414545 178.374447 
L 574.124727 176.836552 
L 574.834909 180.599609 
L 575.545091 181.750376 
L 576.255273 178.196267 
L 576.965455 179.420404 
L 577.675636 175.543583 
L 578.385818 177.54891 
L 579.096 181.871383 
L 579.806182 180.033448 
L 580.516364 188.377076 
L 581.226545 187.683111 
L 581.936727 189.496282 
L 582.646909 184.375339 
L 583.357091 184.02703 
L 584.777455 173.227043 
L 585.487636 173.215 
L 586.197818 180.531106 
L 586.908 184.944746 
L 587.618182 184.380323 
L 589.038545 181.954205 
L 590.458909 173.418724 
L 591.169091 173.032204 
L 591.879273 170.028325 
L 592.589455 173.277057 
L 593.299636 175.337379 
L 594.009818 176.7844 
L 594.72 176.275926 
L 595.430182 163.233252 
L 596.140364 171.630407 
L 596.850545 171.995468 
L 597.560727 178.989404 
L 598.270909 181.562389 
L 598.981091 176.494425 
L 599.691273 172.288116 
L 600.401455 176.007412 
L 601.111636 183.760915 
L 601.821818 186.739877 
L 602.532 191.155763 
L 603.242182 182.339555 
L 603.952364 178.784244 
L 605.372727 187.239533 
L 606.082909 190.520862 
L 606.793091 182.483247 
L 607.503273 185.58562 
L 608.213455 181.678444 
L 608.923636 185.136183 
L 610.344 196.27733 
L 611.054182 191.822896 
L 611.764364 198.364203 
L 613.184727 201.587544 
L 613.894909 209.017402 
L 614.605091 207.200323 
L 615.315273 199.873862 
L 616.025455 190.345708 
L 616.735636 187.999647 
L 617.445818 177.854761 
L 618.156 175.224849 
L 618.866182 165.00404 
L 619.576364 168.469925 
L 620.286545 166.736027 
L 620.996727 166.418277 
L 622.417091 154.537395 
L 623.127273 149.764912 
L 623.837455 147.394682 
L 624.547636 154.745316 
L 625.257818 152.562876 
L 625.968 148.484687 
L 626.678182 148.16471 
L 627.388364 145.062308 
L 628.098545 146.622683 
L 628.808727 146.451738 
L 629.518909 145.831432 
L 630.229091 148.052164 
L 630.939273 148.726713 
L 631.649455 155.771209 
L 632.359636 149.079197 
L 633.069818 150.177737 
L 633.78 154.930541 
L 634.490182 153.512714 
L 635.200364 142.467381 
L 635.910545 145.60764 
L 636.620727 154.510825 
L 637.330909 150.212426 
L 638.041091 148.086727 
L 638.751273 153.230752 
L 640.171636 143.990238 
L 640.881818 145.440312 
L 641.592 143.993076 
L 642.302182 139.774969 
L 643.012364 136.699859 
L 643.722545 137.728712 
L 644.432727 133.678992 
L 645.142909 135.824303 
L 645.853091 139.668657 
L 646.563273 138.254833 
L 647.273455 137.373075 
L 647.983636 144.934423 
L 648.693818 147.155139 
L 650.114182 155.640348 
L 650.824364 153.780229 
L 651.534545 156.743822 
L 652.244727 155.459311 
L 652.954909 151.401715 
L 653.665091 161.536734 
L 654.375273 159.206508 
L 655.085455 153.261374 
L 655.795636 151.154563 
L 656.505818 153.070236 
L 657.216 141.974897 
L 657.926182 145.047547 
L 658.636364 142.965471 
L 659.346545 133.195538 
L 660.056727 134.679025 
L 660.766909 135.887255 
L 661.477091 146.073728 
L 662.187273 140.007857 
L 662.897455 141.688087 
L 663.607636 147.915332 
L 664.317818 148.901427 
L 665.028 142.372026 
L 665.738182 148.2979 
L 666.448364 145.215331 
L 667.158545 148.295125 
L 667.868727 148.669609 
L 668.578909 152.915758 
L 669.289091 152.299247 
L 669.999273 150.904153 
L 670.709455 149.097924 
L 671.419636 149.581117 
L 672.129818 149.071696 
L 672.84 150.107236 
L 674.260364 147.946379 
L 674.970545 146.04811 
L 675.680727 140.64916 
L 676.390909 143.007716 
L 677.101091 146.895525 
L 677.811273 144.69552 
L 678.521455 143.704952 
L 679.231636 146.414604 
L 679.941818 147.302616 
L 680.652 150.079135 
L 681.362182 143.217844 
L 683.492727 161.478625 
L 684.202909 159.416325 
L 684.913091 159.851985 
L 685.623273 159.393256 
L 686.333455 152.717325 
L 687.043636 153.612631 
L 687.753818 146.292982 
L 688.464 141.362841 
L 689.174182 132.794033 
L 689.884364 132.467748 
L 690.594545 142.219706 
L 691.304727 144.02942 
L 692.014909 138.884483 
L 692.725091 146.531073 
L 693.435273 146.291394 
L 694.145455 142.819972 
L 694.855636 148.218881 
L 695.565818 147.19336 
L 696.276 150.243491 
L 696.986182 150.705702 
L 697.696364 147.776924 
L 698.406545 135.548966 
L 699.116727 126.814271 
L 699.826909 129.301169 
L 700.537091 135.23886 
L 701.247273 144.922816 
L 701.957455 146.524552 
L 702.667636 149.441791 
L 703.377818 150.60538 
L 704.088 149.520137 
L 704.798182 146.930715 
L 705.508364 146.423522 
L 706.218545 142.6058 
L 707.638909 147.318866 
L 708.349091 144.813308 
L 709.769455 142.087969 
L 710.479636 138.924813 
L 711.189818 134.826184 
L 711.9 128.54693 
L 712.610182 120.708324 
L 713.320364 122.319831 
L 714.030545 119.387528 
L 714.740727 122.20258 
L 715.450909 117.250184 
L 716.161091 116.729501 
L 716.871273 120.74592 
L 717.581455 115.075668 
L 718.291636 112.509763 
L 719.712 125.456519 
L 720.422182 131.35287 
L 721.132364 134.579578 
L 721.842545 128.574472 
L 722.552727 130.133417 
L 723.262909 124.966096 
L 723.973091 125.756329 
L 724.683273 122.460553 
L 725.393455 123.507048 
L 726.103636 122.418876 
L 726.813818 120.926995 
L 727.524 125.014419 
L 728.234182 123.789632 
L 728.944364 130.785274 
L 729.654545 139.999519 
L 730.364727 136.227353 
L 731.074909 130.49014 
L 731.785091 126.327806 
L 732.495273 129.240327 
L 733.205455 136.743897 
L 733.915636 132.50675 
L 734.625818 134.902077 
L 735.336 138.720487 
L 736.046182 141.138944 
L 736.756364 141.75506 
L 738.886909 122.860933 
L 739.597091 125.604173 
L 740.307273 124.124663 
L 741.017455 124.689708 
L 741.727636 126.532967 
L 742.437818 130.979943 
L 743.148 133.371872 
L 743.858182 127.833891 
L 744.568364 127.486749 
L 745.278545 122.383364 
L 745.988727 122.922999 
L 746.698909 131.623425 
L 747.409091 133.305588 
L 748.119273 136.070033 
L 748.829455 132.387375 
L 749.539636 137.078457 
L 750.249818 135.756384 
L 750.96 138.776144 
L 751.670182 145.148887 
L 752.380364 130.632106 
L 753.090545 129.706868 
L 753.800727 129.047084 
L 754.510909 125.412393 
L 755.221091 119.206188 
L 755.931273 118.425928 
L 756.641455 118.288177 
L 757.351636 115.697334 
L 758.061818 107.579129 
L 758.772 110.241994 
L 759.482182 110.031907 
L 760.192364 95.946917 
L 760.902545 97.346056 
L 761.612727 94.418888 
L 762.322909 97.444671 
L 763.033091 92.876791 
L 764.453455 103.732266 
L 765.163636 96.373257 
L 765.873818 97.601339 
L 766.584 91.747531 
L 767.294182 82.802404 
L 768.004364 93.369216 
L 768.714545 92.612915 
L 769.424727 93.35431 
L 770.134909 85.918096 
L 770.845091 88.558251 
L 771.555273 87.432956 
L 772.265455 96.855216 
L 772.975636 86.517642 
L 773.685818 85.224529 
L 774.396 83.1729 
L 775.106182 82.034672 
L 775.816364 83.058206 
L 776.526545 78.930292 
L 777.236727 72.873955 
L 777.946909 71.561972 
L 778.657091 72.517981 
L 780.077455 80.397311 
L 780.787636 83.448293 
L 781.497818 90.377629 
L 782.208 88.916241 
L 782.918182 88.304572 
L 783.628364 86.253446 
L 784.338545 78.600913 
L 785.048727 75.351432 
L 785.758909 66.96 
L 787.179273 78.152915 
L 787.889455 77.196724 
L 788.599636 77.217333 
L 789.309818 77.823709 
L 790.02 79.484716 
L 790.730182 90.768505 
L 791.440364 88.073771 
L 792.150545 91.228702 
L 792.860727 97.471598 
L 793.570909 96.589319 
L 794.281091 92.653261 
L 794.991273 97.610981 
L 795.701455 94.243558 
L 796.411636 97.669647 
L 797.121818 93.053025 
L 797.832 90.070663 
L 799.962545 106.450257 
L 800.672727 113.605269 
L 801.382909 116.425708 
L 802.093091 112.705481 
L 802.803273 118.106852 
L 803.513455 116.169966 
L 804.223636 118.855839 
L 804.933818 115.190044 
L 805.644 117.207201 
L 806.354182 118.551774 
L 807.064364 118.547041 
L 808.484727 110.700991 
L 809.194909 109.647912 
L 809.905091 105.122668 
L 810.615273 112.249082 
L 811.325455 114.158248 
L 812.035636 105.466293 
L 812.745818 108.761288 
L 813.456 113.524116 
L 814.166182 109.549271 
L 814.876364 116.310256 
L 815.586545 116.788495 
L 816.296727 124.927292 
L 817.006909 130.863919 
L 818.427273 152.718318 
L 819.137455 154.132 
L 819.847636 157.754794 
L 821.978182 132.470043 
L 822.688364 136.359325 
L 823.398545 133.176094 
L 824.108727 128.386272 
L 824.818909 128.426442 
L 825.529091 129.576907 
L 826.949455 115.749639 
L 827.659636 118.770762 
L 828.369818 122.339976 
L 829.08 128.464401 
L 829.790182 128.372889 
L 830.500364 128.812056 
L 831.210545 125.913194 
L 831.920727 131.781891 
L 832.630909 131.664729 
L 833.341091 131.248781 
L 834.051273 142.100425 
L 834.761455 141.523923 
L 835.471636 133.832316 
L 836.181818 129.1448 
L 836.892 134.119442 
L 837.602182 131.354076 
L 838.312364 128.019272 
L 839.022545 120.301092 
L 839.732727 119.711472 
L 840.442909 125.151976 
L 841.153091 122.610358 
L 841.863273 131.461361 
L 842.573455 128.352793 
L 843.283636 134.500927 
L 843.993818 132.898737 
L 845.414182 136.830653 
L 846.124364 137.645199 
L 846.834545 152.7082 
L 847.544727 149.589866 
L 848.254909 160.11786 
L 848.965091 161.572643 
L 849.675273 168.330904 
L 850.385455 165.884724 
L 851.095636 156.195741 
L 851.805818 148.413657 
L 852.516 143.265398 
L 853.226182 144.995529 
L 853.936364 147.70974 
L 854.646545 151.892947 
L 855.356727 149.190049 
L 856.066909 147.771308 
L 856.777091 146.779059 
L 857.487273 155.94275 
L 858.197455 148.385733 
L 858.907636 137.060534 
L 859.617818 141.900083 
L 860.328 145.073958 
L 861.038182 145.373794 
L 861.748364 143.274049 
L 862.458545 140.281252 
L 863.168727 142.993934 
L 863.878909 139.082032 
L 864.589091 143.178029 
L 866.009455 153.774361 
L 866.719636 154.085574 
L 867.429818 156.93891 
L 868.14 155.637129 
L 868.850182 151.871858 
L 869.560364 152.956761 
L 870.270545 150.823946 
L 870.980727 149.747105 
L 871.690909 152.188305 
L 871.690909 152.188305 
" clip-path="url(#pd8ec21a74d)" style="fill: none; stroke: #1f77b4; stroke-width: 1.5; stroke-linecap: square"/>
   </g>
   <g id="line2d_13">
    <path d="M 161.509091 223.789247 
L 162.219273 225.717358 
L 162.929455 224.690596 
L 163.639636 221.563981 
L 164.349818 224.277069 
L 165.06 224.934989 
L 166.480364 211.412847 
L 167.900727 191.040795 
L 168.610909 188.176963 
L 169.321091 184.67954 
L 170.031273 184.153858 
L 170.741455 172.653395 
L 171.451636 177.835066 
L 172.161818 173.940152 
L 172.872 158.420926 
L 173.582182 153.37557 
L 174.292364 152.905347 
L 175.002545 155.308948 
L 175.712727 158.843862 
L 176.422909 147.71342 
L 177.133091 145.912668 
L 177.843273 142.438885 
L 178.553455 134.15793 
L 179.263636 142.362546 
L 179.973818 145.356208 
L 180.684 146.931839 
L 181.394182 147.266 
L 182.104364 145.01624 
L 182.814545 147.674913 
L 183.524727 157.774618 
L 184.234909 153.910336 
L 184.945091 142.028423 
L 185.655273 128.21318 
L 186.365455 138.263003 
L 187.075636 135.107279 
L 187.785818 128.256196 
L 188.496 138.721886 
L 189.206182 138.973423 
L 189.916364 132.470126 
L 190.626545 135.953505 
L 191.336727 137.427769 
L 192.046909 137.423546 
L 192.757091 139.894342 
L 193.467273 138.221169 
L 194.177455 135.076243 
L 194.887636 131.155768 
L 195.597818 138.590255 
L 196.308 140.411189 
L 197.018182 137.927331 
L 197.728364 155.718647 
L 198.438545 155.208994 
L 199.148727 164.464105 
L 200.569091 154.349896 
L 201.279273 143.641079 
L 201.989455 142.224397 
L 202.699636 156.149476 
L 203.409818 158.796722 
L 204.12 167.068554 
L 204.830182 155.088669 
L 205.540364 162.090732 
L 206.250545 163.127633 
L 206.960727 159.705377 
L 207.670909 167.501254 
L 208.381091 162.402087 
L 209.091273 170.414623 
L 209.801455 172.822247 
L 210.511636 170.554015 
L 211.932 178.890221 
L 212.642182 177.43697 
L 213.352364 171.253639 
L 214.062545 178.920888 
L 214.772727 194.633802 
L 215.482909 197.400814 
L 216.193091 207.448272 
L 216.903273 201.206679 
L 217.613455 203.028466 
L 218.323636 188.414811 
L 219.033818 179.40593 
L 219.744 191.589063 
L 220.454182 201.600515 
L 221.164364 195.526037 
L 221.874545 191.889092 
L 222.584727 196.372966 
L 223.294909 193.657438 
L 224.005091 200.037275 
L 224.715273 202.633939 
L 225.425455 195.984572 
L 226.135636 185.985434 
L 226.845818 188.676855 
L 227.556 186.049913 
L 228.266182 178.048838 
L 228.976364 178.138696 
L 229.686545 189.261775 
L 230.396727 185.535819 
L 231.106909 190.755818 
L 231.817091 190.684687 
L 232.527273 188.283868 
L 233.237455 187.471633 
L 233.947636 196.97402 
L 234.657818 203.585722 
L 235.368 197.376567 
L 236.788364 215.735555 
L 237.498545 209.877588 
L 238.208727 212.310995 
L 238.918909 193.223493 
L 239.629091 193.424021 
L 240.339273 197.929585 
L 241.049455 197.284179 
L 241.759636 194.441914 
L 242.469818 189.946882 
L 243.18 195.271998 
L 243.890182 198.853593 
L 244.600364 203.378708 
L 245.310545 195.152821 
L 246.020727 192.194588 
L 246.730909 190.216825 
L 247.441091 194.206473 
L 248.151273 205.511402 
L 248.861455 198.427827 
L 249.571636 200.223393 
L 250.281818 192.250311 
L 250.992 189.185308 
L 251.702182 177.336292 
L 252.412364 171.91618 
L 253.122545 168.551671 
L 253.832727 160.629786 
L 254.542909 171.742485 
L 255.253091 170.97478 
L 255.963273 169.93029 
L 256.673455 178.891038 
L 257.383636 178.29906 
L 258.093818 189.690559 
L 258.804 194.466561 
L 259.514182 204.600719 
L 260.224364 208.093934 
L 260.934545 204.393088 
L 261.644727 212.921601 
L 262.354909 216.70719 
L 263.065091 210.808506 
L 263.775273 213.003455 
L 264.485455 221.954176 
L 265.195636 225.845489 
L 265.905818 234.470554 
L 266.616 239.125797 
L 267.326182 218.808345 
L 268.036364 219.881067 
L 268.746545 219.239044 
L 269.456727 225.632012 
L 270.166909 224.576872 
L 270.877091 227.099987 
L 271.587273 234.021731 
L 272.297455 233.644322 
L 273.007636 229.423051 
L 273.717818 227.291599 
L 274.428 230.121232 
L 275.138182 230.561638 
L 275.848364 238.571509 
L 276.558545 227.24534 
L 277.268727 219.461201 
L 277.978909 213.689243 
L 278.689091 222.17649 
L 279.399273 225.922867 
L 280.109455 228.791743 
L 280.819636 227.798096 
L 281.529818 222.886445 
L 282.24 219.367749 
L 283.660364 237.497497 
L 284.370545 229.304265 
L 285.080727 233.103029 
L 285.790909 223.468156 
L 286.501091 226.473893 
L 287.211273 220.302688 
L 287.921455 222.02181 
L 288.631636 235.531046 
L 289.341818 229.421482 
L 290.052 226.53339 
L 290.762182 228.428851 
L 291.472364 231.637141 
L 292.182545 227.444869 
L 292.892727 228.586932 
L 293.602909 219.114028 
L 295.023273 210.89215 
L 295.733455 213.900112 
L 296.443636 219.822347 
L 297.153818 218.368461 
L 297.864 211.985244 
L 298.574182 204.493891 
L 299.284364 203.272521 
L 299.994545 210.539424 
L 300.704727 210.002118 
L 301.414909 223.182319 
L 302.125091 226.952646 
L 302.835273 224.788034 
L 303.545455 214.276226 
L 304.255636 225.146384 
L 304.965818 218.483111 
L 305.676 218.461268 
L 306.386182 213.214749 
L 307.096364 220.111573 
L 309.226909 237.354939 
L 309.937091 246.20411 
L 310.647273 239.168839 
L 311.357455 238.781778 
L 312.067636 240.272766 
L 312.777818 236.355899 
L 313.488 248.937089 
L 314.198182 253.411805 
L 314.908364 253.244394 
L 315.618545 259.169639 
L 316.328727 256.731255 
L 317.038909 248.514652 
L 317.749091 256.274468 
L 318.459273 257.395286 
L 319.169455 249.052552 
L 319.879636 244.024609 
L 320.589818 250.312095 
L 321.3 244.447341 
L 322.010182 248.664829 
L 322.720364 249.392848 
L 323.430545 263.276464 
L 324.140727 264.75585 
L 324.850909 265.870249 
L 325.561091 263.061962 
L 326.271273 266.638703 
L 326.981455 263.732717 
L 327.691636 263.016722 
L 328.401818 261.373339 
L 329.112 267.442833 
L 329.822182 258.167097 
L 330.532364 264.51749 
L 331.242545 257.321653 
L 331.952727 260.880355 
L 333.373091 257.890444 
L 334.083273 249.24865 
L 334.793455 251.272733 
L 335.503636 240.843038 
L 336.213818 240.847105 
L 336.924 237.561912 
L 337.634182 236.870522 
L 338.344364 223.958861 
L 339.054545 238.403323 
L 339.764727 242.384564 
L 340.474909 247.688544 
L 341.185091 255.195402 
L 341.895273 254.791066 
L 342.605455 268.158731 
L 343.315636 260.514925 
L 344.025818 248.899156 
L 344.736 262.984282 
L 345.446182 268.854188 
L 346.156364 275.79505 
L 346.866545 261.034965 
L 347.576727 266.682399 
L 348.286909 286.27516 
L 348.997091 295.376701 
L 350.417455 303.677399 
L 351.127636 296.432749 
L 351.837818 300.282594 
L 352.548 296.654638 
L 353.258182 295.32401 
L 353.968364 299.615858 
L 355.388727 287.010246 
L 356.098909 293.766463 
L 356.809091 308.697134 
L 357.519273 307.092895 
L 358.229455 314.37063 
L 359.649818 298.048648 
L 360.36 291.979292 
L 361.070182 289.945848 
L 361.780364 282.500033 
L 362.490545 293.6538 
L 363.200727 291.606403 
L 363.910909 294.847935 
L 364.621091 300.006601 
L 365.331273 302.265747 
L 366.041455 305.199325 
L 366.751636 309.085251 
L 367.461818 325.402117 
L 368.172 329.976592 
L 368.882182 330.132481 
L 369.592364 325.600722 
L 370.302545 326.323857 
L 371.012727 328.281679 
L 371.722909 345.919211 
L 372.433091 353.991223 
L 373.143273 355.916376 
L 373.853455 351.198085 
L 374.563636 355.74819 
L 375.273818 357.094662 
L 375.984 352.826528 
L 376.694182 349.372866 
L 377.404364 333.360604 
L 378.114545 327.827835 
L 378.824727 330.591013 
L 379.534909 330.46813 
L 380.245091 336.334556 
L 380.955273 334.831505 
L 381.665455 327.653561 
L 382.375636 343.058559 
L 383.085818 334.524969 
L 383.796 328.416194 
L 384.506182 336.075213 
L 385.216364 338.485658 
L 385.926545 343.387148 
L 386.636727 344.218788 
L 387.346909 353.6295 
L 388.057091 349.651151 
L 388.767273 344.723679 
L 389.477455 342.601701 
L 390.187636 330.885726 
L 391.608 333.97961 
L 392.318182 330.75627 
L 393.028364 328.796462 
L 393.738545 320.230385 
L 394.448727 318.061795 
L 395.158909 324.191859 
L 395.869091 314.475767 
L 396.579273 315.221404 
L 397.289455 313.592889 
L 397.999636 303.198435 
L 398.709818 297.192369 
L 399.42 306.725881 
L 400.130182 308.935271 
L 400.840364 311.707687 
L 401.550545 300.107597 
L 402.260727 306.259178 
L 402.970909 305.077396 
L 403.681091 302.749867 
L 404.391273 298.267318 
L 405.101455 306.618211 
L 405.811636 306.15882 
L 407.232 287.774692 
L 407.942182 296.814591 
L 408.652364 297.647863 
L 409.362545 291.835065 
L 410.072727 289.994466 
L 410.782909 278.649027 
L 411.493091 279.562922 
L 412.203273 281.024787 
L 412.913455 285.850777 
L 413.623636 287.206408 
L 414.333818 293.044854 
L 415.044 289.530209 
L 415.754182 295.409487 
L 416.464364 291.740281 
L 417.174545 288.743205 
L 417.884727 290.361461 
L 418.594909 296.664532 
L 419.305091 290.857077 
L 420.015273 299.580991 
L 420.725455 300.696807 
L 421.435636 302.043267 
L 422.145818 298.451003 
L 422.856 299.507322 
L 423.566182 303.665083 
L 424.276364 310.793346 
L 424.986545 311.011534 
L 425.696727 310.164419 
L 426.406909 316.644902 
L 427.117091 324.552313 
L 427.827273 324.167918 
L 428.537455 325.204573 
L 429.247636 318.246509 
L 429.957818 317.511188 
L 430.668 325.022292 
L 431.378182 313.787972 
L 432.088364 314.789797 
L 433.508727 303.387977 
L 434.218909 304.256786 
L 434.929091 313.943857 
L 435.639273 311.88702 
L 436.349455 305.628804 
L 437.059636 310.081314 
L 437.769818 294.310506 
L 438.48 299.046498 
L 439.190182 314.865471 
L 439.900364 308.949412 
L 440.610545 310.926411 
L 441.320727 319.53805 
L 442.030909 311.690363 
L 442.741091 310.301114 
L 443.451273 316.4788 
L 444.161455 309.527043 
L 444.871636 310.509726 
L 445.581818 308.63337 
L 446.292 315.712658 
L 447.002182 319.44789 
L 447.712364 311.589836 
L 448.422545 318.105551 
L 449.132727 311.626167 
L 449.842909 314.339266 
L 450.553091 323.44527 
L 451.263273 326.010153 
L 451.973455 327.793533 
L 452.683636 330.884954 
L 453.393818 327.587544 
L 454.104 319.811396 
L 454.814182 315.838151 
L 455.524364 310.169851 
L 456.234545 307.820932 
L 456.944727 303.634349 
L 457.654909 300.926569 
L 459.075273 323.000232 
L 459.785455 317.191835 
L 460.495636 305.54564 
L 461.205818 299.603188 
L 461.916 297.557358 
L 462.626182 301.598149 
L 463.336364 293.76002 
L 464.046545 292.487042 
L 464.756727 298.7455 
L 465.466909 293.101783 
L 466.177091 300.080354 
L 466.887273 301.731052 
L 467.597455 299.906292 
L 468.307636 302.213583 
L 469.017818 298.05242 
L 469.728 289.589607 
L 470.438182 292.605493 
L 471.148364 283.611472 
L 471.858545 283.83468 
L 472.568727 277.909067 
L 473.278909 278.592186 
L 473.989091 269.728218 
L 474.699273 263.77283 
L 475.409455 273.211989 
L 476.119636 278.172719 
L 476.829818 284.086088 
L 477.54 271.091216 
L 478.250182 276.277056 
L 478.960364 263.474033 
L 479.670545 261.99001 
L 480.380727 266.917759 
L 481.090909 268.851042 
L 481.801091 258.468478 
L 482.511273 254.092373 
L 483.221455 246.646892 
L 483.931636 231.242789 
L 484.641818 235.230098 
L 485.352 228.881975 
L 486.062182 226.782429 
L 486.772364 229.071821 
L 487.482545 230.919411 
L 488.192727 236.183381 
L 488.902909 236.484709 
L 489.613091 231.997994 
L 490.323273 234.652773 
L 491.033455 230.648472 
L 491.743636 228.299441 
L 492.453818 219.736655 
L 493.164 227.857495 
L 493.874182 231.765475 
L 494.584364 229.745612 
L 495.294545 220.10813 
L 496.004727 206.513631 
L 496.714909 202.688378 
L 497.425091 211.009852 
L 498.135273 214.374721 
L 498.845455 211.455759 
L 499.555636 213.787168 
L 500.265818 206.396969 
L 500.976 209.541302 
L 501.686182 218.21664 
L 502.396364 223.18894 
L 503.106545 231.589309 
L 503.816727 229.557285 
L 504.526909 219.095403 
L 505.237091 212.036972 
L 505.947273 215.000921 
L 506.657455 215.630074 
L 507.367636 210.782377 
L 508.077818 219.679886 
L 508.788 210.15417 
L 509.498182 208.706712 
L 510.208364 215.961056 
L 510.918545 225.69929 
L 511.628727 221.019195 
L 512.338909 222.512089 
L 513.049091 225.437454 
L 513.759273 215.686276 
L 514.469455 219.158256 
L 515.179636 216.737262 
L 515.889818 221.959317 
L 516.6 226.23734 
L 517.310182 233.968646 
L 518.020364 232.088312 
L 518.730545 229.419383 
L 519.440727 224.899666 
L 520.150909 230.974685 
L 520.861091 231.726126 
L 521.571273 226.931428 
L 522.281455 242.661125 
L 523.701818 245.709678 
L 524.412 237.561335 
L 525.122182 240.205666 
L 525.832364 232.782266 
L 526.542545 231.656402 
L 527.252727 228.436282 
L 527.962909 228.743532 
L 528.673091 231.508327 
L 530.093455 221.707783 
L 530.803636 233.702036 
L 531.513818 223.541827 
L 532.224 220.914951 
L 532.934182 221.524894 
L 533.644364 216.873933 
L 534.354545 222.62622 
L 535.064727 229.553396 
L 535.774909 224.924941 
L 536.485091 221.170312 
L 537.905455 209.656296 
L 538.615636 206.083072 
L 539.325818 211.292654 
L 540.036 209.751601 
L 540.746182 208.812491 
L 541.456364 208.312828 
L 542.166545 199.457903 
L 542.876727 196.162587 
L 543.586909 188.139937 
L 544.297091 199.976085 
L 545.007273 205.839518 
L 545.717455 192.422952 
L 546.427636 201.697348 
L 547.137818 202.93463 
L 547.848 206.70135 
L 548.558182 205.011178 
L 549.268364 208.12411 
L 549.978545 216.041938 
L 550.688727 212.66594 
L 551.398909 213.283344 
L 552.109091 213.22701 
L 552.819273 215.608113 
L 554.239636 204.493795 
L 554.949818 212.730672 
L 555.66 204.631195 
L 556.370182 201.914126 
L 557.080364 208.128994 
L 557.790545 202.705927 
L 558.500727 206.905494 
L 559.210909 198.972956 
L 559.921091 203.993491 
L 560.631273 201.594388 
L 561.341455 203.486393 
L 562.051636 203.833825 
L 562.761818 208.72185 
L 563.472 198.593606 
L 564.182182 200.788582 
L 564.892364 204.743576 
L 565.602545 199.379971 
L 566.312727 199.469302 
L 567.022909 193.299095 
L 567.733091 206.176032 
L 568.443273 213.793161 
L 569.153455 212.20961 
L 569.863636 212.914987 
L 570.573818 219.384445 
L 571.284 215.004474 
L 571.994182 213.3103 
L 572.704364 210.222932 
L 573.414545 204.017948 
L 574.124727 192.537834 
L 574.834909 204.519134 
L 575.545091 207.407815 
L 576.255273 206.002659 
L 576.965455 211.171799 
L 577.675636 211.323294 
L 578.385818 214.28551 
L 579.096 224.466846 
L 579.806182 217.920677 
L 580.516364 219.690093 
L 581.226545 212.202143 
L 581.936727 217.963077 
L 582.646909 208.532421 
L 583.357091 214.764955 
L 584.067273 211.229173 
L 584.777455 203.472767 
L 585.487636 202.567007 
L 586.197818 203.397752 
L 586.908 216.22089 
L 587.618182 217.540676 
L 588.328364 219.596618 
L 589.038545 223.52071 
L 589.748727 224.442158 
L 590.458909 220.048792 
L 591.169091 222.509781 
L 591.879273 215.481903 
L 592.589455 215.053186 
L 593.299636 214.820117 
L 594.009818 223.619579 
L 594.72 220.096595 
L 595.430182 206.713235 
L 596.140364 220.163158 
L 596.850545 222.514604 
L 597.560727 233.862556 
L 598.270909 233.423782 
L 598.981091 229.627802 
L 599.691273 221.840017 
L 600.401455 226.299811 
L 601.111636 221.946611 
L 601.821818 222.627729 
L 602.532 227.89915 
L 603.242182 216.730595 
L 603.952364 213.572076 
L 604.662545 222.863823 
L 605.372727 227.637126 
L 606.082909 238.539503 
L 606.793091 230.13603 
L 607.503273 230.930882 
L 608.213455 226.381279 
L 608.923636 229.406328 
L 609.633818 234.065838 
L 610.344 242.479371 
L 611.054182 237.174895 
L 611.764364 248.066276 
L 612.474545 248.83703 
L 613.184727 248.399507 
L 613.894909 245.399478 
L 615.315273 232.510997 
L 616.025455 227.583141 
L 616.735636 224.709892 
L 617.445818 212.70895 
L 618.156 221.782373 
L 618.866182 213.686514 
L 619.576364 213.229252 
L 620.286545 220.749788 
L 620.996727 216.545848 
L 622.417091 198.8486 
L 623.127273 199.967789 
L 623.837455 202.986414 
L 624.547636 204.168799 
L 625.257818 202.050027 
L 625.968 199.376964 
L 626.678182 197.267751 
L 627.388364 196.935957 
L 628.098545 203.904045 
L 628.808727 202.74698 
L 629.518909 205.049758 
L 630.939273 214.821274 
L 631.649455 224.349661 
L 632.359636 218.314138 
L 633.069818 228.514454 
L 633.78 232.943916 
L 634.490182 232.968646 
L 635.200364 218.3804 
L 635.910545 223.627863 
L 636.620727 239.969635 
L 637.330909 238.142431 
L 638.041091 231.709711 
L 638.751273 237.830509 
L 639.461455 229.917536 
L 640.171636 229.664742 
L 640.881818 227.162067 
L 641.592 217.40729 
L 642.302182 213.838407 
L 643.012364 216.477335 
L 643.722545 213.896864 
L 644.432727 208.744439 
L 645.142909 220.799227 
L 646.563273 233.044263 
L 647.273455 231.811929 
L 647.983636 237.942979 
L 648.693818 239.409032 
L 649.404 243.948803 
L 650.114182 251.252026 
L 650.824364 240.483442 
L 651.534545 248.751039 
L 652.244727 248.952687 
L 652.954909 249.876327 
L 653.665091 266.189332 
L 654.375273 260.849175 
L 655.085455 252.603121 
L 655.795636 247.429329 
L 656.505818 250.814418 
L 657.216 238.173734 
L 657.926182 236.882456 
L 658.636364 226.391989 
L 659.346545 218.611827 
L 660.056727 216.059002 
L 660.766909 220.413062 
L 661.477091 231.660567 
L 662.187273 221.002398 
L 662.897455 232.46664 
L 663.607636 237.504905 
L 664.317818 245.174565 
L 665.028 243.283182 
L 665.738182 246.377047 
L 666.448364 246.541019 
L 667.158545 239.1945 
L 667.868727 239.799777 
L 668.578909 241.761498 
L 669.289091 240.084003 
L 669.999273 232.695643 
L 670.709455 230.201013 
L 671.419636 228.181051 
L 672.129818 225.360617 
L 672.84 227.826531 
L 673.550182 220.279215 
L 674.260364 210.871686 
L 674.970545 208.243717 
L 675.680727 203.084121 
L 676.390909 204.130261 
L 677.101091 214.107029 
L 677.811273 210.063772 
L 678.521455 208.699457 
L 679.231636 197.775129 
L 679.941818 201.293503 
L 680.652 211.653489 
L 681.362182 203.864582 
L 682.072364 204.396074 
L 682.782545 207.997145 
L 683.492727 216.328804 
L 684.202909 210.872594 
L 684.913091 207.857472 
L 686.333455 189.754797 
L 687.043636 193.258288 
L 687.753818 188.216934 
L 688.464 174.64794 
L 689.174182 168.979585 
L 689.884364 168.176566 
L 690.594545 178.079459 
L 691.304727 176.336329 
L 692.014909 170.582429 
L 692.725091 179.773803 
L 693.435273 177.615072 
L 694.145455 172.502897 
L 694.855636 184.750945 
L 695.565818 187.401944 
L 696.276 192.801299 
L 696.986182 191.759804 
L 697.696364 195.868935 
L 698.406545 180.458492 
L 699.116727 154.10298 
L 699.826909 154.219461 
L 700.537091 156.117171 
L 701.247273 155.190849 
L 701.957455 158.658516 
L 702.667636 166.009372 
L 703.377818 167.009371 
L 704.088 168.625337 
L 704.798182 171.468525 
L 705.508364 178.491483 
L 706.218545 170.306418 
L 706.928727 168.127092 
L 707.638909 166.407945 
L 708.349091 162.94806 
L 709.769455 166.99053 
L 710.479636 157.036575 
L 711.189818 150.209747 
L 711.9 150.675128 
L 712.610182 151.004144 
L 713.320364 160.072558 
L 714.030545 151.598619 
L 714.740727 155.606577 
L 715.450909 156.158634 
L 716.161091 156.265544 
L 716.871273 163.196775 
L 717.581455 150.231716 
L 718.291636 157.433938 
L 719.001818 162.28814 
L 719.712 175.951041 
L 720.422182 182.818451 
L 721.132364 181.207033 
L 721.842545 181.149839 
L 722.552727 182.654495 
L 723.262909 178.485108 
L 723.973091 177.118043 
L 724.683273 173.312036 
L 725.393455 174.329484 
L 726.103636 168.613676 
L 726.813818 179.760909 
L 727.524 187.332326 
L 728.234182 182.633812 
L 728.944364 187.764765 
L 729.654545 195.579555 
L 731.074909 185.929541 
L 731.785091 178.565459 
L 732.495273 186.339002 
L 733.205455 200.187067 
L 733.915636 195.390085 
L 734.625818 197.042964 
L 735.336 204.986176 
L 736.046182 204.182314 
L 736.756364 208.363537 
L 737.466545 199.302049 
L 738.886909 190.502475 
L 739.597091 198.222605 
L 740.307273 193.589652 
L 741.017455 202.08992 
L 741.727636 201.418486 
L 742.437818 215.610352 
L 743.148 215.154022 
L 743.858182 208.120507 
L 744.568364 209.706421 
L 745.278545 204.418783 
L 745.988727 204.418465 
L 746.698909 215.410566 
L 747.409091 218.925522 
L 748.119273 225.209582 
L 748.829455 225.964188 
L 749.539636 231.188983 
L 750.249818 231.367034 
L 750.96 220.740347 
L 751.670182 226.374605 
L 752.380364 212.685351 
L 753.090545 209.349951 
L 753.800727 201.779722 
L 754.510909 196.584936 
L 755.221091 187.435059 
L 755.931273 189.334802 
L 756.641455 191.627946 
L 757.351636 196.831653 
L 758.061818 185.299655 
L 758.772 185.801426 
L 759.482182 191.627269 
L 760.192364 175.923897 
L 760.902545 180.615559 
L 761.612727 170.116117 
L 762.322909 174.558284 
L 763.033091 162.787216 
L 763.743273 172.545213 
L 764.453455 173.236251 
L 765.163636 159.006911 
L 765.873818 161.905423 
L 767.294182 154.91902 
L 768.004364 163.610349 
L 768.714545 154.659414 
L 769.424727 148.509456 
L 770.134909 139.704793 
L 770.845091 145.000882 
L 771.555273 136.554688 
L 772.265455 148.033733 
L 772.975636 138.187833 
L 773.685818 145.981396 
L 774.396 143.251478 
L 775.106182 144.432785 
L 775.816364 139.64194 
L 776.526545 127.693685 
L 777.236727 111.049755 
L 777.946909 112.331904 
L 778.657091 113.261422 
L 780.077455 129.338089 
L 780.787636 129.247781 
L 781.497818 125.911275 
L 782.208 126.540559 
L 782.918182 127.690094 
L 783.628364 122.237953 
L 784.338545 111.294113 
L 785.048727 103.182922 
L 785.758909 92.397049 
L 786.469091 105.977101 
L 787.179273 113.147618 
L 787.889455 112.684504 
L 788.599636 111.387602 
L 789.309818 112.228453 
L 790.02 106.557881 
L 790.730182 121.657372 
L 791.440364 115.839551 
L 792.150545 114.560853 
L 792.860727 117.956275 
L 794.281091 123.770732 
L 794.991273 121.609245 
L 796.411636 135.585445 
L 797.121818 133.548936 
L 797.832 129.264547 
L 798.542182 135.73078 
L 799.252364 135.599776 
L 800.672727 143.668147 
L 801.382909 145.619604 
L 802.093091 137.274943 
L 802.803273 143.589972 
L 803.513455 139.039766 
L 804.223636 143.27654 
L 804.933818 139.207373 
L 805.644 138.148582 
L 806.354182 133.605626 
L 807.064364 135.783665 
L 807.774545 133.096451 
L 808.484727 127.120838 
L 809.194909 135.299931 
L 809.905091 123.715962 
L 810.615273 122.354735 
L 811.325455 117.535178 
L 812.035636 106.165502 
L 812.745818 106.509364 
L 813.456 120.555866 
L 814.166182 113.132578 
L 814.876364 116.105019 
L 815.586545 117.359677 
L 816.296727 128.479294 
L 817.006909 134.589862 
L 817.717091 144.93246 
L 819.137455 161.100448 
L 819.847636 164.374401 
L 820.557818 155.981557 
L 821.268 156.679673 
L 821.978182 146.48584 
L 822.688364 142.471588 
L 823.398545 143.808903 
L 824.108727 143.174682 
L 824.818909 141.53823 
L 825.529091 145.333827 
L 826.239273 130.850471 
L 826.949455 110.875903 
L 827.659636 115.338455 
L 828.369818 110.795104 
L 829.08 111.297039 
L 829.790182 109.549498 
L 830.500364 103.781843 
L 831.210545 96.17772 
L 831.920727 100.361933 
L 832.630909 105.818478 
L 833.341091 106.956546 
L 834.051273 116.296357 
L 834.761455 118.892801 
L 835.471636 115.462073 
L 836.181818 105.929975 
L 836.892 116.423399 
L 837.602182 114.313823 
L 838.312364 115.813894 
L 839.022545 107.726337 
L 839.732727 112.25327 
L 840.442909 118.536325 
L 841.153091 120.602709 
L 841.863273 135.329285 
L 842.573455 138.920358 
L 843.283636 150.582292 
L 843.993818 154.531788 
L 844.704 153.927504 
L 845.414182 152.63164 
L 846.124364 159.956847 
L 846.834545 179.584314 
L 847.544727 176.911917 
L 848.254909 190.062317 
L 848.965091 195.443959 
L 849.675273 212.263571 
L 850.385455 206.080836 
L 851.095636 194.223213 
L 851.805818 178.853363 
L 852.516 174.543084 
L 853.226182 176.925863 
L 853.936364 177.661215 
L 854.646545 184.510959 
L 855.356727 172.95579 
L 856.066909 171.107389 
L 856.777091 172.099726 
L 857.487273 180.75683 
L 858.197455 171.139767 
L 858.907636 169.980693 
L 860.328 180.436943 
L 861.038182 177.274383 
L 861.748364 170.488146 
L 862.458545 173.806206 
L 863.168727 173.033113 
L 863.878909 168.59894 
L 864.589091 172.855547 
L 865.299273 173.066695 
L 866.009455 185.499563 
L 866.719636 191.406852 
L 867.429818 191.88776 
L 868.14 187.401607 
L 868.850182 179.308823 
L 869.560364 173.990849 
L 870.270545 179.075114 
L 871.690909 186.157851 
L 871.690909 186.157851 
" clip-path="url(#pd8ec21a74d)" style="fill: none; stroke: #ff7f0e; stroke-width: 1.5; stroke-linecap: square"/>
   </g>
   <g id="line2d_14">
    <path d="M 162.219273 369.36 
L 166.480364 369.155153 
L 167.190545 368.863126 
L 167.900727 368.302351 
L 169.321091 368.278157 
L 170.031273 368.280803 
L 171.451636 367.992544 
L 172.161818 367.932541 
L 172.872 367.044757 
L 173.582182 366.757712 
L 175.002545 366.777434 
L 175.712727 366.856615 
L 176.422909 366.24553 
L 177.843273 366.158115 
L 178.553455 365.703081 
L 179.973818 365.539064 
L 182.814545 365.580985 
L 183.524727 365.004374 
L 184.234909 365.083771 
L 184.945091 364.740719 
L 185.655273 364.161162 
L 186.365455 363.830204 
L 187.075636 363.690012 
L 187.785818 363.770072 
L 188.496 363.109499 
L 189.206182 363.111148 
L 189.916364 363.266345 
L 190.626545 363.140375 
L 194.177455 362.992374 
L 197.018182 362.660432 
L 197.728364 361.868938 
L 198.438545 361.870748 
L 199.148727 361.402691 
L 199.858909 361.17811 
L 200.569091 361.254213 
L 201.279273 361.110538 
L 201.989455 361.105004 
L 202.699636 360.4438 
L 204.12 360.444511 
L 204.830182 360.023676 
L 205.540364 359.808585 
L 206.960727 359.747839 
L 207.670909 359.377221 
L 210.511636 359.369516 
L 211.221818 359.235234 
L 213.352364 359.167036 
L 214.062545 358.646057 
L 214.772727 357.237902 
L 215.482909 357.292919 
L 216.193091 356.941907 
L 217.613455 356.866146 
L 218.323636 356.07281 
L 219.033818 355.60278 
L 219.744 355.431776 
L 220.454182 355.132811 
L 223.294909 354.866498 
L 224.005091 355.021552 
L 224.715273 354.997383 
L 226.135636 354.184313 
L 227.556 354.131741 
L 228.266182 353.948913 
L 228.976364 353.946125 
L 229.686545 353.1597 
L 231.817091 352.893847 
L 233.237455 352.813545 
L 233.947636 352.99391 
L 235.368 352.617372 
L 236.078182 351.984908 
L 236.788364 351.942537 
L 237.498545 351.663662 
L 238.208727 351.679895 
L 238.918909 349.67909 
L 239.629091 349.671124 
L 240.339273 349.394135 
L 243.18 349.310185 
L 243.890182 349.193215 
L 244.600364 349.271954 
L 245.310545 348.939558 
L 248.151273 348.817323 
L 249.571636 348.637022 
L 250.281818 348.25382 
L 251.702182 347.902587 
L 253.122545 347.889259 
L 253.832727 347.629188 
L 255.253091 347.609144 
L 255.963273 347.639182 
L 256.673455 347.415798 
L 257.383636 347.41703 
L 258.093818 346.97373 
L 258.804 347.020453 
L 260.224364 346.766603 
L 260.934545 346.69644 
L 261.644727 346.441351 
L 262.354909 346.394535 
L 263.065091 346.512797 
L 263.775273 346.466884 
L 264.485455 346.002849 
L 265.195636 345.994402 
L 265.905818 345.577259 
L 266.616 345.639925 
L 267.326182 344.049639 
L 268.746545 344.107968 
L 269.456727 343.859314 
L 270.877091 343.807651 
L 271.587273 343.530152 
L 275.138182 343.497094 
L 276.558545 342.882015 
L 277.268727 342.615667 
L 277.978909 342.707097 
L 278.689091 342.27991 
L 280.109455 342.043574 
L 282.24 342.017075 
L 282.950182 341.80324 
L 283.660364 341.095028 
L 284.370545 340.739689 
L 285.080727 340.630966 
L 285.790909 340.382655 
L 286.501091 340.388489 
L 287.211273 340.163686 
L 287.921455 340.141407 
L 288.631636 339.105017 
L 290.052 339.008757 
L 292.182545 338.963018 
L 292.892727 338.998701 
L 293.602909 338.453178 
L 297.153818 338.188524 
L 297.864 337.748345 
L 299.284364 337.694893 
L 299.994545 337.522597 
L 302.835273 337.482369 
L 303.545455 337.445767 
L 304.255636 337.261809 
L 304.965818 336.871675 
L 306.386182 336.943211 
L 307.096364 336.641364 
L 309.937091 336.32688 
L 310.647273 336.157906 
L 312.777818 336.137258 
L 313.488 335.180612 
L 314.198182 335.006069 
L 314.908364 335.014704 
L 315.618545 334.828652 
L 319.879636 334.441977 
L 320.589818 334.220269 
L 322.010182 334.208281 
L 322.720364 334.192687 
L 323.430545 334.032894 
L 325.561091 333.968281 
L 326.271273 333.794546 
L 328.401818 333.775807 
L 329.112 334.024374 
L 329.822182 333.919304 
L 330.532364 334.06944 
L 331.242545 333.817488 
L 334.793455 333.693574 
L 337.634182 333.662796 
L 339.054545 331.877258 
L 340.474909 331.444329 
L 341.185091 331.194609 
L 341.895273 331.183185 
L 342.605455 330.686732 
L 343.315636 330.709862 
L 344.736 329.418169 
L 346.156364 328.94426 
L 346.866545 328.143636 
L 347.576727 327.975784 
L 348.286909 327.145928 
L 348.997091 326.787024 
L 349.707273 326.733012 
L 351.837818 326.270983 
L 355.388727 325.801631 
L 356.098909 325.662789 
L 356.809091 324.74357 
L 357.519273 324.693911 
L 358.229455 324.499645 
L 358.939636 324.020956 
L 360.36 323.727735 
L 361.070182 323.752638 
L 362.490545 323.190729 
L 365.331273 323.178424 
L 366.751636 323.017029 
L 367.461818 322.326751 
L 369.592364 322.131622 
L 371.012727 322.108461 
L 371.722909 320.444302 
L 372.433091 320.344367 
L 373.143273 320.39216 
L 374.563636 320.282191 
L 375.984 320.260755 
L 376.694182 320.142226 
L 377.404364 318.718018 
L 378.114545 318.620208 
L 379.534909 318.695702 
L 380.955273 318.714397 
L 381.665455 318.512012 
L 383.085818 317.304671 
L 383.796 316.984604 
L 384.506182 316.807345 
L 386.636727 316.71093 
L 387.346909 316.412542 
L 389.477455 316.125419 
L 390.187636 315.766328 
L 391.608 315.823215 
L 392.318182 315.687047 
L 393.028364 315.69119 
L 393.738545 315.470961 
L 394.448727 315.457656 
L 395.869091 315.006037 
L 397.289455 315.02736 
L 397.999636 314.81427 
L 398.709818 314.804082 
L 399.42 314.49389 
L 400.840364 314.42631 
L 401.550545 313.581489 
L 402.970909 313.507111 
L 403.681091 313.48173 
L 405.101455 312.803793 
L 405.811636 312.819609 
L 407.232 312.388161 
L 417.884727 311.933639 
L 419.305091 311.524319 
L 421.435636 311.542053 
L 430.668 310.827998 
L 431.378182 310.588615 
L 432.088364 310.583093 
L 432.798545 310.439125 
L 433.508727 310.570677 
L 434.218909 310.580567 
L 434.929091 310.425424 
L 437.059636 310.459772 
L 437.769818 309.256968 
L 438.48 309.199043 
L 439.190182 308.022515 
L 440.610545 307.905449 
L 441.320727 307.477039 
L 442.030909 307.184725 
L 442.741091 307.201205 
L 444.161455 307.004757 
L 447.002182 307.129189 
L 447.712364 306.852729 
L 449.132727 306.551619 
L 449.842909 306.5718 
L 450.553091 306.203962 
L 452.683636 306.04948 
L 454.104 305.981503 
L 455.524364 305.793816 
L 457.654909 305.746908 
L 458.365091 305.629596 
L 459.075273 304.806538 
L 459.785455 304.787171 
L 461.205818 304.318901 
L 462.626182 304.21446 
L 463.336364 303.932055 
L 464.046545 303.928688 
L 464.756727 303.530401 
L 466.177091 303.425686 
L 469.017818 303.36675 
L 469.728 302.876747 
L 471.858545 302.823293 
L 473.278909 302.72005 
L 473.989091 302.163141 
L 475.409455 301.714471 
L 476.829818 301.565392 
L 477.54 300.732245 
L 478.250182 300.605262 
L 478.960364 299.499821 
L 479.670545 299.535575 
L 481.090909 299.384939 
L 481.801091 298.582875 
L 482.511273 298.534462 
L 483.221455 298.601049 
L 483.931636 298.059418 
L 485.352 297.742529 
L 487.482545 297.737452 
L 488.902909 297.643397 
L 491.033455 297.7726 
L 491.743636 297.70073 
L 493.874182 297.143304 
L 494.584364 297.130496 
L 495.294545 296.694108 
L 496.004727 296.399357 
L 496.714909 296.496095 
L 499.555636 296.240907 
L 500.265818 295.851497 
L 501.686182 295.711385 
L 502.396364 295.750137 
L 503.106545 295.568761 
L 503.816727 295.529794 
L 504.526909 294.859707 
L 505.947273 294.738556 
L 507.367636 294.73414 
L 508.788 294.101542 
L 509.498182 294.053987 
L 511.628727 293.498256 
L 513.049091 293.441946 
L 513.759273 293.017366 
L 515.179636 293.008044 
L 515.889818 292.75245 
L 518.730545 292.746054 
L 519.440727 292.736087 
L 520.150909 292.515469 
L 521.571273 292.470457 
L 522.281455 291.721907 
L 523.701818 291.626241 
L 527.252727 291.435615 
L 529.383273 291.455181 
L 530.093455 291.289737 
L 531.513818 290.238535 
L 533.644364 290.257323 
L 534.354545 289.985592 
L 536.485091 289.778911 
L 538.615636 289.263183 
L 540.036 289.393189 
L 541.456364 289.406911 
L 542.166545 288.985221 
L 543.586909 288.912287 
L 544.297091 288.266482 
L 545.007273 288.269151 
L 546.427636 287.366859 
L 547.137818 287.332915 
L 547.848 287.457681 
L 551.398909 287.306898 
L 552.819273 287.33355 
L 554.239636 287.003174 
L 554.949818 286.442601 
L 556.370182 286.134668 
L 557.080364 286.23684 
L 557.790545 286.099091 
L 558.500727 286.153598 
L 561.341455 285.918311 
L 562.051636 285.911738 
L 562.761818 285.631247 
L 563.472 285.177529 
L 564.182182 285.163867 
L 565.602545 284.916357 
L 567.022909 285.027841 
L 567.733091 284.446491 
L 568.443273 284.565768 
L 570.573818 284.52276 
L 571.284 284.374267 
L 571.994182 284.400822 
L 572.704364 284.315916 
L 573.414545 284.344543 
L 574.124727 284.223254 
L 574.834909 283.913517 
L 578.385818 283.776127 
L 579.096 283.473794 
L 581.936727 283.182259 
L 582.646909 282.850487 
L 583.357091 282.8654 
L 584.067273 282.723131 
L 584.777455 282.459743 
L 586.197818 282.417914 
L 586.908 282.029102 
L 591.169091 282.000602 
L 591.879273 281.855573 
L 594.009818 281.780966 
L 594.72 281.76866 
L 595.430182 280.569491 
L 596.140364 279.793601 
L 596.850545 279.787703 
L 597.560727 279.242464 
L 598.270909 279.250219 
L 600.401455 278.779063 
L 601.111636 279.010939 
L 601.821818 278.997 
L 602.532 278.837083 
L 603.242182 278.160646 
L 603.952364 278.083501 
L 604.662545 277.819021 
L 606.082909 277.431858 
L 606.793091 276.96784 
L 608.213455 276.82878 
L 609.633818 276.577946 
L 610.344 276.257161 
L 611.054182 276.094837 
L 611.764364 275.605401 
L 613.184727 275.600866 
L 613.894909 275.753994 
L 614.605091 275.67389 
L 616.025455 275.025607 
L 616.735636 274.979298 
L 617.445818 274.142904 
L 618.156 274.306835 
L 618.866182 273.738379 
L 620.996727 273.829672 
L 622.417091 273.108164 
L 624.547636 273.134303 
L 630.939273 272.848663 
L 631.649455 272.387539 
L 632.359636 272.110066 
L 634.490182 271.8887 
L 635.200364 270.781744 
L 635.910545 270.66854 
L 636.620727 269.669016 
L 638.041091 269.521121 
L 639.461455 269.055365 
L 641.592 268.975233 
L 642.302182 268.871814 
L 643.722545 268.945802 
L 645.853091 268.457128 
L 647.273455 268.506936 
L 647.983636 268.188455 
L 648.693818 268.166089 
L 652.244727 267.522785 
L 652.954909 267.548531 
L 653.665091 266.412718 
L 654.375273 266.327231 
L 655.085455 265.990443 
L 656.505818 265.871011 
L 657.216 264.907494 
L 657.926182 264.934751 
L 658.636364 264.7847 
L 659.346545 264.262509 
L 660.766909 264.252386 
L 661.477091 263.465288 
L 662.187273 263.021144 
L 665.738182 262.410526 
L 666.448364 262.413998 
L 667.158545 262.569434 
L 669.289091 262.503548 
L 670.709455 262.401782 
L 673.550182 262.328951 
L 676.390909 262.011677 
L 677.101091 261.74521 
L 678.521455 261.674817 
L 679.231636 261.878173 
L 679.941818 261.856709 
L 680.652 261.659099 
L 681.362182 261.29196 
L 682.072364 261.269814 
L 682.782545 261.119223 
L 683.492727 260.769606 
L 684.913091 260.701328 
L 685.623273 260.672731 
L 686.333455 260.258668 
L 687.043636 260.237119 
L 687.753818 259.983615 
L 689.174182 259.190364 
L 689.884364 259.188564 
L 690.594545 258.525123 
L 691.304727 258.546794 
L 692.014909 258.343422 
L 692.725091 257.86059 
L 693.435273 257.857035 
L 694.145455 257.735119 
L 694.855636 257.280841 
L 695.565818 257.299518 
L 696.276 257.18638 
L 697.696364 257.272364 
L 698.406545 255.977818 
L 699.116727 254.396324 
L 701.957455 254.340393 
L 702.667636 254.193074 
L 709.769455 254.098804 
L 711.189818 253.690277 
L 712.610182 253.72807 
L 715.450909 253.398244 
L 716.161091 253.398626 
L 716.871273 253.207378 
L 717.581455 252.702338 
L 718.291636 252.829295 
L 719.001818 252.603886 
L 719.712 252.023123 
L 720.422182 251.744943 
L 722.552727 251.76219 
L 723.262909 251.614181 
L 725.393455 251.528114 
L 726.103636 251.485385 
L 726.813818 251.599634 
L 727.524 251.387028 
L 728.234182 251.347494 
L 728.944364 251.100905 
L 729.654545 250.606223 
L 731.074909 250.294585 
L 732.495273 249.928473 
L 733.205455 249.214626 
L 735.336 248.839427 
L 736.756364 248.835085 
L 737.466545 248.432187 
L 739.597091 247.910148 
L 741.727636 247.838565 
L 742.437818 247.405001 
L 743.148 247.4125 
L 743.858182 247.144908 
L 744.568364 247.14869 
L 745.278545 246.963308 
L 745.988727 246.963309 
L 746.698909 246.306302 
L 748.829455 246.165431 
L 749.539636 245.997051 
L 750.249818 245.998668 
L 750.96 246.219122 
L 751.670182 245.972455 
L 752.380364 244.607248 
L 753.800727 244.551734 
L 754.510909 244.422021 
L 755.221091 244.031909 
L 757.351636 244.136881 
L 758.061818 243.49373 
L 759.482182 243.492959 
L 760.192364 241.973469 
L 760.902545 241.928373 
L 761.612727 241.717237 
L 762.322909 241.624899 
L 763.743273 240.869323 
L 764.453455 240.845137 
L 765.163636 240.125767 
L 765.873818 240.101313 
L 767.294182 239.744572 
L 768.004364 239.113646 
L 769.424727 239.098463 
L 770.134909 238.648669 
L 771.555273 238.487317 
L 772.975636 237.045048 
L 774.396 237.075806 
L 775.816364 237.11873 
L 776.526545 236.779899 
L 777.236727 236.087407 
L 778.657091 236.092859 
L 780.077455 235.659224 
L 780.787636 235.661116 
L 781.497818 235.819946 
L 783.628364 235.754268 
L 784.338545 235.17893 
L 785.048727 234.99786 
L 786.469091 233.814386 
L 787.179273 233.5596 
L 790.02 233.617945 
L 790.730182 232.44746 
L 791.440364 232.339758 
L 792.150545 232.367472 
L 792.860727 232.22185 
L 794.281091 232.319729 
L 795.701455 232.560974 
L 797.121818 232.337978 
L 797.832 232.250197 
L 798.542182 232.002448 
L 799.252364 232.00777 
L 802.093091 231.422614 
L 802.803273 231.188284 
L 805.644 230.961759 
L 807.064364 231.003793 
L 809.194909 230.83493 
L 809.905091 230.474809 
L 811.325455 230.604664 
L 812.035636 229.925751 
L 812.745818 229.917967 
L 813.456 229.458366 
L 814.876364 229.117599 
L 815.586545 229.113477 
L 816.296727 228.491752 
L 817.006909 228.242539 
L 818.427273 226.834162 
L 819.847636 226.678637 
L 820.557818 226.16962 
L 821.268 226.207574 
L 821.978182 225.609327 
L 823.398545 225.745828 
L 825.529091 225.695412 
L 826.239273 225.036363 
L 826.949455 224.047869 
L 827.659636 223.95525 
L 828.369818 224.066653 
L 831.210545 223.910403 
L 831.920727 223.741707 
L 833.341091 223.749351 
L 834.051273 223.053074 
L 834.761455 223.063357 
L 835.471636 222.882076 
L 836.892 222.216504 
L 838.312364 222.210793 
L 839.022545 221.781967 
L 839.732727 221.800304 
L 840.442909 221.565471 
L 841.153091 221.601551 
L 841.863273 220.706099 
L 842.573455 220.782788 
L 843.283636 220.290224 
L 845.414182 220.359208 
L 846.124364 220.318218 
L 846.834545 218.287151 
L 847.544727 218.229902 
L 848.254909 217.278787 
L 848.965091 217.225002 
L 849.675273 216.444094 
L 850.385455 216.340194 
L 851.805818 214.729225 
L 852.516 214.57678 
L 853.936364 214.534747 
L 855.356727 214.123336 
L 856.777091 214.112085 
L 858.197455 213.067814 
L 861.748364 212.600328 
L 863.168727 212.682955 
L 865.299273 212.436541 
L 866.009455 211.971487 
L 868.14 211.909311 
L 868.850182 211.699975 
L 871.690909 211.774665 
L 871.690909 211.774665 
" clip-path="url(#pd8ec21a74d)" style="fill: none; stroke: #2ca02c; stroke-width: 1.5; stroke-linecap: square"/>
   </g>
   <g id="patch_3">
    <path d="M 126 384.48 
L 126 51.84 
" style="fill: none; stroke: #000000; stroke-width: 0.8; stroke-linejoin: miter; stroke-linecap: square"/>
   </g>
   <g id="patch_4">
    <path d="M 907.2 384.48 
L 907.2 51.84 
" style="fill: none; stroke: #000000; stroke-width: 0.8; stroke-linejoin: miter; stroke-linecap: square"/>
   </g>
   <g id="patch_5">
    <path d="M 126 384.48 
L 907.2 384.48 
" style="fill: none; stroke: #000000; stroke-width: 0.8; stroke-linejoin: miter; stroke-linecap: square"/>
   </g>
   <g id="patch_6">
    <path d="M 126 51.84 
L 907.2 51.84 
" style="fill: none; stroke: #000000; stroke-width: 0.8; stroke-linejoin: miter; stroke-linecap: square"/>
   </g>
   <g id="text_14">
    <!-- Quadratic Covariation of $X_t$ and $S_t$ -->
    <g transform="translate(414.54 45.84)scale(0.12 -0.12)">
     <defs>
      <path id="DejaVuSans-66" d="M 2375 4863 
L 2375 4384 
L 1825 4384 
Q 1516 4384 1395 4259 
Q 1275 4134 1275 3809 
L 1275 3500 
L 2222 3500 
L 2222 3053 
L 1275 3053 
L 1275 0 
L 697 0 
L 697 3053 
L 147 3053 
L 147 3500 
L 697 3500 
L 697 3744 
Q 697 4328 969 4595 
Q 1241 4863 1831 4863 
L 2375 4863 
z
" transform="scale(0.015625)"/>
      <path id="DejaVuSans-Oblique-58" d="M 878 4666 
L 1516 4666 
L 2316 2981 
L 3763 4666 
L 4500 4666 
L 2578 2438 
L 3738 0 
L 3103 0 
L 2163 1966 
L 459 0 
L -275 0 
L 1906 2509 
L 878 4666 
z
" transform="scale(0.015625)"/>
      <path id="DejaVuSans-Oblique-74" d="M 2706 3500 
L 2619 3053 
L 1472 3053 
L 1100 1153 
Q 1081 1047 1072 975 
Q 1063 903 1063 863 
Q 1063 663 1183 572 
Q 1303 481 1569 481 
L 2150 481 
L 2053 0 
L 1503 0 
Q 991 0 739 200 
Q 488 400 488 806 
Q 488 878 497 964 
Q 506 1050 525 1153 
L 897 3053 
L 409 3053 
L 500 3500 
L 978 3500 
L 1172 4494 
L 1747 4494 
L 1556 3500 
L 2706 3500 
z
" transform="scale(0.015625)"/>
      <path id="DejaVuSans-Oblique-53" d="M 3859 4513 
L 3738 3897 
Q 3422 4066 3111 4152 
Q 2800 4238 2509 4238 
Q 1944 4238 1609 3991 
Q 1275 3744 1275 3334 
Q 1275 3109 1398 2989 
Q 1522 2869 2034 2731 
L 2413 2638 
Q 3053 2472 3303 2217 
Q 3553 1963 3553 1503 
Q 3553 797 2998 353 
Q 2444 -91 1538 -91 
Q 1166 -91 791 -17 
Q 416 56 38 206 
L 166 856 
Q 513 641 861 531 
Q 1209 422 1556 422 
Q 2147 422 2503 684 
Q 2859 947 2859 1369 
Q 2859 1650 2717 1795 
Q 2575 1941 2106 2059 
L 1728 2156 
Q 1081 2325 845 2545 
Q 609 2766 609 3163 
Q 609 3859 1145 4304 
Q 1681 4750 2541 4750 
Q 2875 4750 3203 4690 
Q 3531 4631 3859 4513 
z
" transform="scale(0.015625)"/>
     </defs>
     <use xlink:href="#DejaVuSans-51" transform="translate(0 0.015625)"/>
     <use xlink:href="#DejaVuSans-75" transform="translate(78.710938 0.015625)"/>
     <use xlink:href="#DejaVuSans-61" transform="translate(142.089844 0.015625)"/>
     <use xlink:href="#DejaVuSans-64" transform="translate(203.369141 0.015625)"/>
     <use xlink:href="#DejaVuSans-72" transform="translate(266.845703 0.015625)"/>
     <use xlink:href="#DejaVuSans-61" transform="translate(307.958984 0.015625)"/>
     <use xlink:href="#DejaVuSans-74" transform="translate(369.238281 0.015625)"/>
     <use xlink:href="#DejaVuSans-69" transform="translate(408.447266 0.015625)"/>
     <use xlink:href="#DejaVuSans-63" transform="translate(436.230469 0.015625)"/>
     <use xlink:href="#DejaVuSans-20" transform="translate(491.210938 0.015625)"/>
     <use xlink:href="#DejaVuSans-43" transform="translate(522.998047 0.015625)"/>
     <use xlink:href="#DejaVuSans-6f" transform="translate(592.822266 0.015625)"/>
     <use xlink:href="#DejaVuSans-76" transform="translate(654.003906 0.015625)"/>
     <use xlink:href="#DejaVuSans-61" transform="translate(713.183594 0.015625)"/>
     <use xlink:href="#DejaVuSans-72" transform="translate(774.462891 0.015625)"/>
     <use xlink:href="#DejaVuSans-69" transform="translate(815.576172 0.015625)"/>
     <use xlink:href="#DejaVuSans-61" transform="translate(843.359375 0.015625)"/>
     <use xlink:href="#DejaVuSans-74" transform="translate(904.638672 0.015625)"/>
     <use xlink:href="#DejaVuSans-69" transform="translate(943.847656 0.015625)"/>
     <use xlink:href="#DejaVuSans-6f" transform="translate(971.630859 0.015625)"/>
     <use xlink:href="#DejaVuSans-6e" transform="translate(1032.8125 0.015625)"/>
     <use xlink:href="#DejaVuSans-20" transform="translate(1096.191406 0.015625)"/>
     <use xlink:href="#DejaVuSans-6f" transform="translate(1127.978516 0.015625)"/>
     <use xlink:href="#DejaVuSans-66" transform="translate(1189.160156 0.015625)"/>
     <use xlink:href="#DejaVuSans-20" transform="translate(1224.365234 0.015625)"/>
     <use xlink:href="#DejaVuSans-Oblique-58" transform="translate(1256.152344 0.015625)"/>
     <use xlink:href="#DejaVuSans-Oblique-74" transform="translate(1324.658203 -16.390625)scale(0.7)"/>
     <use xlink:href="#DejaVuSans-20" transform="translate(1354.838867 0.015625)"/>
     <use xlink:href="#DejaVuSans-61" transform="translate(1386.625977 0.015625)"/>
     <use xlink:href="#DejaVuSans-6e" transform="translate(1447.905273 0.015625)"/>
     <use xlink:href="#DejaVuSans-64" transform="translate(1511.28418 0.015625)"/>
     <use xlink:href="#DejaVuSans-20" transform="translate(1574.760742 0.015625)"/>
     <use xlink:href="#DejaVuSans-Oblique-53" transform="translate(1606.547852 0.015625)"/>
     <use xlink:href="#DejaVuSans-Oblique-74" transform="translate(1670.024414 -16.390625)scale(0.7)"/>
    </g>
   </g>
   <g id="legend_1">
    <g id="patch_7">
     <path d="M 133 103.874375 
L 335.1 103.874375 
Q 337.1 103.874375 337.1 101.874375 
L 337.1 58.84 
Q 337.1 56.84 335.1 56.84 
L 133 56.84 
Q 131 56.84 131 58.84 
L 131 101.874375 
Q 131 103.874375 133 103.874375 
z
" style="fill: #ffffff; opacity: 0.8; stroke: #cccccc; stroke-linejoin: miter"/>
    </g>
    <g id="line2d_15">
     <path d="M 135 64.938437 
L 145 64.938437 
L 155 64.938437 
" style="fill: none; stroke: #1f77b4; stroke-width: 1.5; stroke-linecap: square"/>
    </g>
    <g id="text_15">
     <!-- $X_t$ -->
     <g transform="translate(163 68.438437)scale(0.1 -0.1)">
      <use xlink:href="#DejaVuSans-Oblique-58" transform="translate(0 0.09375)"/>
      <use xlink:href="#DejaVuSans-Oblique-74" transform="translate(68.505859 -16.3125)scale(0.7)"/>
     </g>
    </g>
    <g id="line2d_16">
     <path d="M 135 79.616562 
L 145 79.616562 
L 155 79.616562 
" style="fill: none; stroke: #ff7f0e; stroke-width: 1.5; stroke-linecap: square"/>
    </g>
    <g id="text_16">
     <!-- $S_t$ -->
     <g transform="translate(163 83.116562)scale(0.1 -0.1)">
      <use xlink:href="#DejaVuSans-Oblique-53" transform="translate(0 0.78125)"/>
      <use xlink:href="#DejaVuSans-Oblique-74" transform="translate(63.476562 -15.625)scale(0.7)"/>
     </g>
    </g>
    <g id="line2d_17">
     <path d="M 135 94.294687 
L 145 94.294687 
L 155 94.294687 
" style="fill: none; stroke: #2ca02c; stroke-width: 1.5; stroke-linecap: square"/>
    </g>
    <g id="text_17">
     <!-- Quadratic Covariation of $X_t$ and $S_t$ -->
     <g transform="translate(163 97.794687)scale(0.1 -0.1)">
      <use xlink:href="#DejaVuSans-51" transform="translate(0 0.015625)"/>
      <use xlink:href="#DejaVuSans-75" transform="translate(78.710938 0.015625)"/>
      <use xlink:href="#DejaVuSans-61" transform="translate(142.089844 0.015625)"/>
      <use xlink:href="#DejaVuSans-64" transform="translate(203.369141 0.015625)"/>
      <use xlink:href="#DejaVuSans-72" transform="translate(266.845703 0.015625)"/>
      <use xlink:href="#DejaVuSans-61" transform="translate(307.958984 0.015625)"/>
      <use xlink:href="#DejaVuSans-74" transform="translate(369.238281 0.015625)"/>
      <use xlink:href="#DejaVuSans-69" transform="translate(408.447266 0.015625)"/>
      <use xlink:href="#DejaVuSans-63" transform="translate(436.230469 0.015625)"/>
      <use xlink:href="#DejaVuSans-20" transform="translate(491.210938 0.015625)"/>
      <use xlink:href="#DejaVuSans-43" transform="translate(522.998047 0.015625)"/>
      <use xlink:href="#DejaVuSans-6f" transform="translate(592.822266 0.015625)"/>
      <use xlink:href="#DejaVuSans-76" transform="translate(654.003906 0.015625)"/>
      <use xlink:href="#DejaVuSans-61" transform="translate(713.183594 0.015625)"/>
      <use xlink:href="#DejaVuSans-72" transform="translate(774.462891 0.015625)"/>
      <use xlink:href="#DejaVuSans-69" transform="translate(815.576172 0.015625)"/>
      <use xlink:href="#DejaVuSans-61" transform="translate(843.359375 0.015625)"/>
      <use xlink:href="#DejaVuSans-74" transform="translate(904.638672 0.015625)"/>
      <use xlink:href="#DejaVuSans-69" transform="translate(943.847656 0.015625)"/>
      <use xlink:href="#DejaVuSans-6f" transform="translate(971.630859 0.015625)"/>
      <use xlink:href="#DejaVuSans-6e" transform="translate(1032.8125 0.015625)"/>
      <use xlink:href="#DejaVuSans-20" transform="translate(1096.191406 0.015625)"/>
      <use xlink:href="#DejaVuSans-6f" transform="translate(1127.978516 0.015625)"/>
      <use xlink:href="#DejaVuSans-66" transform="translate(1189.160156 0.015625)"/>
      <use xlink:href="#DejaVuSans-20" transform="translate(1224.365234 0.015625)"/>
      <use xlink:href="#DejaVuSans-Oblique-58" transform="translate(1256.152344 0.015625)"/>
      <use xlink:href="#DejaVuSans-Oblique-74" transform="translate(1324.658203 -16.390625)scale(0.7)"/>
      <use xlink:href="#DejaVuSans-20" transform="translate(1354.838867 0.015625)"/>
      <use xlink:href="#DejaVuSans-61" transform="translate(1386.625977 0.015625)"/>
      <use xlink:href="#DejaVuSans-6e" transform="translate(1447.905273 0.015625)"/>
      <use xlink:href="#DejaVuSans-64" transform="translate(1511.28418 0.015625)"/>
      <use xlink:href="#DejaVuSans-20" transform="translate(1574.760742 0.015625)"/>
      <use xlink:href="#DejaVuSans-Oblique-53" transform="translate(1606.547852 0.015625)"/>
      <use xlink:href="#DejaVuSans-Oblique-74" transform="translate(1670.024414 -16.390625)scale(0.7)"/>
     </g>
    </g>
   </g>
  </g>
 </g>
 <defs>
  <clipPath id="pd8ec21a74d">
   <rect x="126" y="51.84" width="781.2" height="332.64"/>
  </clipPath>
 </defs>
</svg>
