<?xml version="1.0" encoding="utf-8" standalone="no"?>
<!DOCTYPE svg PUBLIC "-//W3C//DTD SVG 1.1//EN"
  "http://www.w3.org/Graphics/SVG/1.1/DTD/svg11.dtd">
<svg xmlns:xlink="http://www.w3.org/1999/xlink" width="1008pt" height="432pt" viewBox="0 0 1008 432" xmlns="http://www.w3.org/2000/svg" version="1.1">
 <metadata>
  <rdf:RDF xmlns:dc="http://purl.org/dc/elements/1.1/" xmlns:cc="http://creativecommons.org/ns#" xmlns:rdf="http://www.w3.org/1999/02/22-rdf-syntax-ns#">
   <cc:Work>
    <dc:type rdf:resource="http://purl.org/dc/dcmitype/StillImage"/>
    <dc:date>2023-12-22T17:09:02.661194</dc:date>
    <dc:format>image/svg+xml</dc:format>
    <dc:creator>
     <cc:Agent>
      <dc:title>Matplotlib v3.5.2, https://matplotlib.org/</dc:title>
     </cc:Agent>
    </dc:creator>
   </cc:Work>
  </rdf:RDF>
 </metadata>
 <defs>
  <style type="text/css">*{stroke-linejoin: round; stroke-linecap: butt}</style>
 </defs>
 <g id="figure_1">
  <g id="patch_1">
   <path d="M 0 432 
L 1008 432 
L 1008 0 
L 0 0 
z
" style="fill: #ffffff"/>
  </g>
  <g id="axes_1">
   <g id="patch_2">
    <path d="M 126 384.48 
L 907.2 384.48 
L 907.2 51.84 
L 126 51.84 
z
" style="fill: #ffffff"/>
   </g>
   <g id="matplotlib.axis_1">
    <g id="xtick_1">
     <g id="line2d_1">
      <defs>
       <path id="m9fa8388fde" d="M 0 0 
L 0 3.5 
" style="stroke: #000000; stroke-width: 0.8"/>
      </defs>
      <g>
       <use xlink:href="#m9fa8388fde" x="161.509091" y="384.48" style="stroke: #000000; stroke-width: 0.8"/>
      </g>
     </g>
     <g id="text_1">
      <!-- 0.0 -->
      <g transform="translate(153.557528 399.078438)scale(0.1 -0.1)">
       <defs>
        <path id="DejaVuSans-30" d="M 2034 4250 
Q 1547 4250 1301 3770 
Q 1056 3291 1056 2328 
Q 1056 1369 1301 889 
Q 1547 409 2034 409 
Q 2525 409 2770 889 
Q 3016 1369 3016 2328 
Q 3016 3291 2770 3770 
Q 2525 4250 2034 4250 
z
M 2034 4750 
Q 2819 4750 3233 4129 
Q 3647 3509 3647 2328 
Q 3647 1150 3233 529 
Q 2819 -91 2034 -91 
Q 1250 -91 836 529 
Q 422 1150 422 2328 
Q 422 3509 836 4129 
Q 1250 4750 2034 4750 
z
" transform="scale(0.015625)"/>
        <path id="DejaVuSans-2e" d="M 684 794 
L 1344 794 
L 1344 0 
L 684 0 
L 684 794 
z
" transform="scale(0.015625)"/>
       </defs>
       <use xlink:href="#DejaVuSans-30"/>
       <use xlink:href="#DejaVuSans-2e" x="63.623047"/>
       <use xlink:href="#DejaVuSans-30" x="95.410156"/>
      </g>
     </g>
    </g>
    <g id="xtick_2">
     <g id="line2d_2">
      <g>
       <use xlink:href="#m9fa8388fde" x="303.545455" y="384.48" style="stroke: #000000; stroke-width: 0.8"/>
      </g>
     </g>
     <g id="text_2">
      <!-- 0.2 -->
      <g transform="translate(295.593892 399.078438)scale(0.1 -0.1)">
       <defs>
        <path id="DejaVuSans-32" d="M 1228 531 
L 3431 531 
L 3431 0 
L 469 0 
L 469 531 
Q 828 903 1448 1529 
Q 2069 2156 2228 2338 
Q 2531 2678 2651 2914 
Q 2772 3150 2772 3378 
Q 2772 3750 2511 3984 
Q 2250 4219 1831 4219 
Q 1534 4219 1204 4116 
Q 875 4013 500 3803 
L 500 4441 
Q 881 4594 1212 4672 
Q 1544 4750 1819 4750 
Q 2544 4750 2975 4387 
Q 3406 4025 3406 3419 
Q 3406 3131 3298 2873 
Q 3191 2616 2906 2266 
Q 2828 2175 2409 1742 
Q 1991 1309 1228 531 
z
" transform="scale(0.015625)"/>
       </defs>
       <use xlink:href="#DejaVuSans-30"/>
       <use xlink:href="#DejaVuSans-2e" x="63.623047"/>
       <use xlink:href="#DejaVuSans-32" x="95.410156"/>
      </g>
     </g>
    </g>
    <g id="xtick_3">
     <g id="line2d_3">
      <g>
       <use xlink:href="#m9fa8388fde" x="445.581818" y="384.48" style="stroke: #000000; stroke-width: 0.8"/>
      </g>
     </g>
     <g id="text_3">
      <!-- 0.4 -->
      <g transform="translate(437.630256 399.078438)scale(0.1 -0.1)">
       <defs>
        <path id="DejaVuSans-34" d="M 2419 4116 
L 825 1625 
L 2419 1625 
L 2419 4116 
z
M 2253 4666 
L 3047 4666 
L 3047 1625 
L 3713 1625 
L 3713 1100 
L 3047 1100 
L 3047 0 
L 2419 0 
L 2419 1100 
L 313 1100 
L 313 1709 
L 2253 4666 
z
" transform="scale(0.015625)"/>
       </defs>
       <use xlink:href="#DejaVuSans-30"/>
       <use xlink:href="#DejaVuSans-2e" x="63.623047"/>
       <use xlink:href="#DejaVuSans-34" x="95.410156"/>
      </g>
     </g>
    </g>
    <g id="xtick_4">
     <g id="line2d_4">
      <g>
       <use xlink:href="#m9fa8388fde" x="587.618182" y="384.48" style="stroke: #000000; stroke-width: 0.8"/>
      </g>
     </g>
     <g id="text_4">
      <!-- 0.6 -->
      <g transform="translate(579.666619 399.078438)scale(0.1 -0.1)">
       <defs>
        <path id="DejaVuSans-36" d="M 2113 2584 
Q 1688 2584 1439 2293 
Q 1191 2003 1191 1497 
Q 1191 994 1439 701 
Q 1688 409 2113 409 
Q 2538 409 2786 701 
Q 3034 994 3034 1497 
Q 3034 2003 2786 2293 
Q 2538 2584 2113 2584 
z
M 3366 4563 
L 3366 3988 
Q 3128 4100 2886 4159 
Q 2644 4219 2406 4219 
Q 1781 4219 1451 3797 
Q 1122 3375 1075 2522 
Q 1259 2794 1537 2939 
Q 1816 3084 2150 3084 
Q 2853 3084 3261 2657 
Q 3669 2231 3669 1497 
Q 3669 778 3244 343 
Q 2819 -91 2113 -91 
Q 1303 -91 875 529 
Q 447 1150 447 2328 
Q 447 3434 972 4092 
Q 1497 4750 2381 4750 
Q 2619 4750 2861 4703 
Q 3103 4656 3366 4563 
z
" transform="scale(0.015625)"/>
       </defs>
       <use xlink:href="#DejaVuSans-30"/>
       <use xlink:href="#DejaVuSans-2e" x="63.623047"/>
       <use xlink:href="#DejaVuSans-36" x="95.410156"/>
      </g>
     </g>
    </g>
    <g id="xtick_5">
     <g id="line2d_5">
      <g>
       <use xlink:href="#m9fa8388fde" x="729.654545" y="384.48" style="stroke: #000000; stroke-width: 0.8"/>
      </g>
     </g>
     <g id="text_5">
      <!-- 0.8 -->
      <g transform="translate(721.702983 399.078438)scale(0.1 -0.1)">
       <defs>
        <path id="DejaVuSans-38" d="M 2034 2216 
Q 1584 2216 1326 1975 
Q 1069 1734 1069 1313 
Q 1069 891 1326 650 
Q 1584 409 2034 409 
Q 2484 409 2743 651 
Q 3003 894 3003 1313 
Q 3003 1734 2745 1975 
Q 2488 2216 2034 2216 
z
M 1403 2484 
Q 997 2584 770 2862 
Q 544 3141 544 3541 
Q 544 4100 942 4425 
Q 1341 4750 2034 4750 
Q 2731 4750 3128 4425 
Q 3525 4100 3525 3541 
Q 3525 3141 3298 2862 
Q 3072 2584 2669 2484 
Q 3125 2378 3379 2068 
Q 3634 1759 3634 1313 
Q 3634 634 3220 271 
Q 2806 -91 2034 -91 
Q 1263 -91 848 271 
Q 434 634 434 1313 
Q 434 1759 690 2068 
Q 947 2378 1403 2484 
z
M 1172 3481 
Q 1172 3119 1398 2916 
Q 1625 2713 2034 2713 
Q 2441 2713 2670 2916 
Q 2900 3119 2900 3481 
Q 2900 3844 2670 4047 
Q 2441 4250 2034 4250 
Q 1625 4250 1398 4047 
Q 1172 3844 1172 3481 
z
" transform="scale(0.015625)"/>
       </defs>
       <use xlink:href="#DejaVuSans-30"/>
       <use xlink:href="#DejaVuSans-2e" x="63.623047"/>
       <use xlink:href="#DejaVuSans-38" x="95.410156"/>
      </g>
     </g>
    </g>
    <g id="xtick_6">
     <g id="line2d_6">
      <g>
       <use xlink:href="#m9fa8388fde" x="871.690909" y="384.48" style="stroke: #000000; stroke-width: 0.8"/>
      </g>
     </g>
     <g id="text_6">
      <!-- 1.0 -->
      <g transform="translate(863.739347 399.078438)scale(0.1 -0.1)">
       <defs>
        <path id="DejaVuSans-31" d="M 794 531 
L 1825 531 
L 1825 4091 
L 703 3866 
L 703 4441 
L 1819 4666 
L 2450 4666 
L 2450 531 
L 3481 531 
L 3481 0 
L 794 0 
L 794 531 
z
" transform="scale(0.015625)"/>
       </defs>
       <use xlink:href="#DejaVuSans-31"/>
       <use xlink:href="#DejaVuSans-2e" x="63.623047"/>
       <use xlink:href="#DejaVuSans-30" x="95.410156"/>
      </g>
     </g>
    </g>
    <g id="text_7">
     <!-- Time -->
     <g transform="translate(504.366406 412.756563)scale(0.1 -0.1)">
      <defs>
       <path id="DejaVuSans-54" d="M -19 4666 
L 3928 4666 
L 3928 4134 
L 2272 4134 
L 2272 0 
L 1638 0 
L 1638 4134 
L -19 4134 
L -19 4666 
z
" transform="scale(0.015625)"/>
       <path id="DejaVuSans-69" d="M 603 3500 
L 1178 3500 
L 1178 0 
L 603 0 
L 603 3500 
z
M 603 4863 
L 1178 4863 
L 1178 4134 
L 603 4134 
L 603 4863 
z
" transform="scale(0.015625)"/>
       <path id="DejaVuSans-6d" d="M 3328 2828 
Q 3544 3216 3844 3400 
Q 4144 3584 4550 3584 
Q 5097 3584 5394 3201 
Q 5691 2819 5691 2113 
L 5691 0 
L 5113 0 
L 5113 2094 
Q 5113 2597 4934 2840 
Q 4756 3084 4391 3084 
Q 3944 3084 3684 2787 
Q 3425 2491 3425 1978 
L 3425 0 
L 2847 0 
L 2847 2094 
Q 2847 2600 2669 2842 
Q 2491 3084 2119 3084 
Q 1678 3084 1418 2786 
Q 1159 2488 1159 1978 
L 1159 0 
L 581 0 
L 581 3500 
L 1159 3500 
L 1159 2956 
Q 1356 3278 1631 3431 
Q 1906 3584 2284 3584 
Q 2666 3584 2933 3390 
Q 3200 3197 3328 2828 
z
" transform="scale(0.015625)"/>
       <path id="DejaVuSans-65" d="M 3597 1894 
L 3597 1613 
L 953 1613 
Q 991 1019 1311 708 
Q 1631 397 2203 397 
Q 2534 397 2845 478 
Q 3156 559 3463 722 
L 3463 178 
Q 3153 47 2828 -22 
Q 2503 -91 2169 -91 
Q 1331 -91 842 396 
Q 353 884 353 1716 
Q 353 2575 817 3079 
Q 1281 3584 2069 3584 
Q 2775 3584 3186 3129 
Q 3597 2675 3597 1894 
z
M 3022 2063 
Q 3016 2534 2758 2815 
Q 2500 3097 2075 3097 
Q 1594 3097 1305 2825 
Q 1016 2553 972 2059 
L 3022 2063 
z
" transform="scale(0.015625)"/>
      </defs>
      <use xlink:href="#DejaVuSans-54"/>
      <use xlink:href="#DejaVuSans-69" x="57.958984"/>
      <use xlink:href="#DejaVuSans-6d" x="85.742188"/>
      <use xlink:href="#DejaVuSans-65" x="183.154297"/>
     </g>
    </g>
   </g>
   <g id="matplotlib.axis_2">
    <g id="ytick_1">
     <g id="line2d_7">
      <defs>
       <path id="m5ae3e21897" d="M 0 0 
L -3.5 0 
" style="stroke: #000000; stroke-width: 0.8"/>
      </defs>
      <g>
       <use xlink:href="#m5ae3e21897" x="126" y="369.488303" style="stroke: #000000; stroke-width: 0.8"/>
      </g>
     </g>
     <g id="text_8">
      <!-- 0.0 -->
      <g transform="translate(103.096875 373.287521)scale(0.1 -0.1)">
       <use xlink:href="#DejaVuSans-30"/>
       <use xlink:href="#DejaVuSans-2e" x="63.623047"/>
       <use xlink:href="#DejaVuSans-30" x="95.410156"/>
      </g>
     </g>
    </g>
    <g id="ytick_2">
     <g id="line2d_8">
      <g>
       <use xlink:href="#m5ae3e21897" x="126" y="296.214753" style="stroke: #000000; stroke-width: 0.8"/>
      </g>
     </g>
     <g id="text_9">
      <!-- 0.5 -->
      <g transform="translate(103.096875 300.013972)scale(0.1 -0.1)">
       <defs>
        <path id="DejaVuSans-35" d="M 691 4666 
L 3169 4666 
L 3169 4134 
L 1269 4134 
L 1269 2991 
Q 1406 3038 1543 3061 
Q 1681 3084 1819 3084 
Q 2600 3084 3056 2656 
Q 3513 2228 3513 1497 
Q 3513 744 3044 326 
Q 2575 -91 1722 -91 
Q 1428 -91 1123 -41 
Q 819 9 494 109 
L 494 744 
Q 775 591 1075 516 
Q 1375 441 1709 441 
Q 2250 441 2565 725 
Q 2881 1009 2881 1497 
Q 2881 1984 2565 2268 
Q 2250 2553 1709 2553 
Q 1456 2553 1204 2497 
Q 953 2441 691 2322 
L 691 4666 
z
" transform="scale(0.015625)"/>
       </defs>
       <use xlink:href="#DejaVuSans-30"/>
       <use xlink:href="#DejaVuSans-2e" x="63.623047"/>
       <use xlink:href="#DejaVuSans-35" x="95.410156"/>
      </g>
     </g>
    </g>
    <g id="ytick_3">
     <g id="line2d_9">
      <g>
       <use xlink:href="#m5ae3e21897" x="126" y="222.941203" style="stroke: #000000; stroke-width: 0.8"/>
      </g>
     </g>
     <g id="text_10">
      <!-- 1.0 -->
      <g transform="translate(103.096875 226.740422)scale(0.1 -0.1)">
       <use xlink:href="#DejaVuSans-31"/>
       <use xlink:href="#DejaVuSans-2e" x="63.623047"/>
       <use xlink:href="#DejaVuSans-30" x="95.410156"/>
      </g>
     </g>
    </g>
    <g id="ytick_4">
     <g id="line2d_10">
      <g>
       <use xlink:href="#m5ae3e21897" x="126" y="149.667654" style="stroke: #000000; stroke-width: 0.8"/>
      </g>
     </g>
     <g id="text_11">
      <!-- 1.5 -->
      <g transform="translate(103.096875 153.466872)scale(0.1 -0.1)">
       <use xlink:href="#DejaVuSans-31"/>
       <use xlink:href="#DejaVuSans-2e" x="63.623047"/>
       <use xlink:href="#DejaVuSans-35" x="95.410156"/>
      </g>
     </g>
    </g>
    <g id="ytick_5">
     <g id="line2d_11">
      <g>
       <use xlink:href="#m5ae3e21897" x="126" y="76.394104" style="stroke: #000000; stroke-width: 0.8"/>
      </g>
     </g>
     <g id="text_12">
      <!-- 2.0 -->
      <g transform="translate(103.096875 80.193323)scale(0.1 -0.1)">
       <use xlink:href="#DejaVuSans-32"/>
       <use xlink:href="#DejaVuSans-2e" x="63.623047"/>
       <use xlink:href="#DejaVuSans-30" x="95.410156"/>
      </g>
     </g>
    </g>
    <g id="text_13">
     <!-- Quadratic Covariation -->
     <g transform="translate(97.017187 272.970156)rotate(-90)scale(0.1 -0.1)">
      <defs>
       <path id="DejaVuSans-51" d="M 2522 4238 
Q 1834 4238 1429 3725 
Q 1025 3213 1025 2328 
Q 1025 1447 1429 934 
Q 1834 422 2522 422 
Q 3209 422 3611 934 
Q 4013 1447 4013 2328 
Q 4013 3213 3611 3725 
Q 3209 4238 2522 4238 
z
M 3406 84 
L 4238 -825 
L 3475 -825 
L 2784 -78 
Q 2681 -84 2626 -87 
Q 2572 -91 2522 -91 
Q 1538 -91 948 567 
Q 359 1225 359 2328 
Q 359 3434 948 4092 
Q 1538 4750 2522 4750 
Q 3503 4750 4090 4092 
Q 4678 3434 4678 2328 
Q 4678 1516 4351 937 
Q 4025 359 3406 84 
z
" transform="scale(0.015625)"/>
       <path id="DejaVuSans-75" d="M 544 1381 
L 544 3500 
L 1119 3500 
L 1119 1403 
Q 1119 906 1312 657 
Q 1506 409 1894 409 
Q 2359 409 2629 706 
Q 2900 1003 2900 1516 
L 2900 3500 
L 3475 3500 
L 3475 0 
L 2900 0 
L 2900 538 
Q 2691 219 2414 64 
Q 2138 -91 1772 -91 
Q 1169 -91 856 284 
Q 544 659 544 1381 
z
M 1991 3584 
L 1991 3584 
z
" transform="scale(0.015625)"/>
       <path id="DejaVuSans-61" d="M 2194 1759 
Q 1497 1759 1228 1600 
Q 959 1441 959 1056 
Q 959 750 1161 570 
Q 1363 391 1709 391 
Q 2188 391 2477 730 
Q 2766 1069 2766 1631 
L 2766 1759 
L 2194 1759 
z
M 3341 1997 
L 3341 0 
L 2766 0 
L 2766 531 
Q 2569 213 2275 61 
Q 1981 -91 1556 -91 
Q 1019 -91 701 211 
Q 384 513 384 1019 
Q 384 1609 779 1909 
Q 1175 2209 1959 2209 
L 2766 2209 
L 2766 2266 
Q 2766 2663 2505 2880 
Q 2244 3097 1772 3097 
Q 1472 3097 1187 3025 
Q 903 2953 641 2809 
L 641 3341 
Q 956 3463 1253 3523 
Q 1550 3584 1831 3584 
Q 2591 3584 2966 3190 
Q 3341 2797 3341 1997 
z
" transform="scale(0.015625)"/>
       <path id="DejaVuSans-64" d="M 2906 2969 
L 2906 4863 
L 3481 4863 
L 3481 0 
L 2906 0 
L 2906 525 
Q 2725 213 2448 61 
Q 2172 -91 1784 -91 
Q 1150 -91 751 415 
Q 353 922 353 1747 
Q 353 2572 751 3078 
Q 1150 3584 1784 3584 
Q 2172 3584 2448 3432 
Q 2725 3281 2906 2969 
z
M 947 1747 
Q 947 1113 1208 752 
Q 1469 391 1925 391 
Q 2381 391 2643 752 
Q 2906 1113 2906 1747 
Q 2906 2381 2643 2742 
Q 2381 3103 1925 3103 
Q 1469 3103 1208 2742 
Q 947 2381 947 1747 
z
" transform="scale(0.015625)"/>
       <path id="DejaVuSans-72" d="M 2631 2963 
Q 2534 3019 2420 3045 
Q 2306 3072 2169 3072 
Q 1681 3072 1420 2755 
Q 1159 2438 1159 1844 
L 1159 0 
L 581 0 
L 581 3500 
L 1159 3500 
L 1159 2956 
Q 1341 3275 1631 3429 
Q 1922 3584 2338 3584 
Q 2397 3584 2469 3576 
Q 2541 3569 2628 3553 
L 2631 2963 
z
" transform="scale(0.015625)"/>
       <path id="DejaVuSans-74" d="M 1172 4494 
L 1172 3500 
L 2356 3500 
L 2356 3053 
L 1172 3053 
L 1172 1153 
Q 1172 725 1289 603 
Q 1406 481 1766 481 
L 2356 481 
L 2356 0 
L 1766 0 
Q 1100 0 847 248 
Q 594 497 594 1153 
L 594 3053 
L 172 3053 
L 172 3500 
L 594 3500 
L 594 4494 
L 1172 4494 
z
" transform="scale(0.015625)"/>
       <path id="DejaVuSans-63" d="M 3122 3366 
L 3122 2828 
Q 2878 2963 2633 3030 
Q 2388 3097 2138 3097 
Q 1578 3097 1268 2742 
Q 959 2388 959 1747 
Q 959 1106 1268 751 
Q 1578 397 2138 397 
Q 2388 397 2633 464 
Q 2878 531 3122 666 
L 3122 134 
Q 2881 22 2623 -34 
Q 2366 -91 2075 -91 
Q 1284 -91 818 406 
Q 353 903 353 1747 
Q 353 2603 823 3093 
Q 1294 3584 2113 3584 
Q 2378 3584 2631 3529 
Q 2884 3475 3122 3366 
z
" transform="scale(0.015625)"/>
       <path id="DejaVuSans-20" transform="scale(0.015625)"/>
       <path id="DejaVuSans-43" d="M 4122 4306 
L 4122 3641 
Q 3803 3938 3442 4084 
Q 3081 4231 2675 4231 
Q 1875 4231 1450 3742 
Q 1025 3253 1025 2328 
Q 1025 1406 1450 917 
Q 1875 428 2675 428 
Q 3081 428 3442 575 
Q 3803 722 4122 1019 
L 4122 359 
Q 3791 134 3420 21 
Q 3050 -91 2638 -91 
Q 1578 -91 968 557 
Q 359 1206 359 2328 
Q 359 3453 968 4101 
Q 1578 4750 2638 4750 
Q 3056 4750 3426 4639 
Q 3797 4528 4122 4306 
z
" transform="scale(0.015625)"/>
       <path id="DejaVuSans-6f" d="M 1959 3097 
Q 1497 3097 1228 2736 
Q 959 2375 959 1747 
Q 959 1119 1226 758 
Q 1494 397 1959 397 
Q 2419 397 2687 759 
Q 2956 1122 2956 1747 
Q 2956 2369 2687 2733 
Q 2419 3097 1959 3097 
z
M 1959 3584 
Q 2709 3584 3137 3096 
Q 3566 2609 3566 1747 
Q 3566 888 3137 398 
Q 2709 -91 1959 -91 
Q 1206 -91 779 398 
Q 353 888 353 1747 
Q 353 2609 779 3096 
Q 1206 3584 1959 3584 
z
" transform="scale(0.015625)"/>
       <path id="DejaVuSans-76" d="M 191 3500 
L 800 3500 
L 1894 563 
L 2988 3500 
L 3597 3500 
L 2284 0 
L 1503 0 
L 191 3500 
z
" transform="scale(0.015625)"/>
       <path id="DejaVuSans-6e" d="M 3513 2113 
L 3513 0 
L 2938 0 
L 2938 2094 
Q 2938 2591 2744 2837 
Q 2550 3084 2163 3084 
Q 1697 3084 1428 2787 
Q 1159 2491 1159 1978 
L 1159 0 
L 581 0 
L 581 3500 
L 1159 3500 
L 1159 2956 
Q 1366 3272 1645 3428 
Q 1925 3584 2291 3584 
Q 2894 3584 3203 3211 
Q 3513 2838 3513 2113 
z
" transform="scale(0.015625)"/>
      </defs>
      <use xlink:href="#DejaVuSans-51"/>
      <use xlink:href="#DejaVuSans-75" x="78.710938"/>
      <use xlink:href="#DejaVuSans-61" x="142.089844"/>
      <use xlink:href="#DejaVuSans-64" x="203.369141"/>
      <use xlink:href="#DejaVuSans-72" x="266.845703"/>
      <use xlink:href="#DejaVuSans-61" x="307.958984"/>
      <use xlink:href="#DejaVuSans-74" x="369.238281"/>
      <use xlink:href="#DejaVuSans-69" x="408.447266"/>
      <use xlink:href="#DejaVuSans-63" x="436.230469"/>
      <use xlink:href="#DejaVuSans-20" x="491.210938"/>
      <use xlink:href="#DejaVuSans-43" x="522.998047"/>
      <use xlink:href="#DejaVuSans-6f" x="592.822266"/>
      <use xlink:href="#DejaVuSans-76" x="654.003906"/>
      <use xlink:href="#DejaVuSans-61" x="713.183594"/>
      <use xlink:href="#DejaVuSans-72" x="774.462891"/>
      <use xlink:href="#DejaVuSans-69" x="815.576172"/>
      <use xlink:href="#DejaVuSans-61" x="843.359375"/>
      <use xlink:href="#DejaVuSans-74" x="904.638672"/>
      <use xlink:href="#DejaVuSans-69" x="943.847656"/>
      <use xlink:href="#DejaVuSans-6f" x="971.630859"/>
      <use xlink:href="#DejaVuSans-6e" x="1032.8125"/>
     </g>
    </g>
   </g>
   <g id="line2d_12">
    <path d="M 161.509091 222.941203 
L 162.219273 219.274175 
L 162.929455 217.398432 
L 163.639636 222.617457 
L 164.349818 226.025313 
L 165.06 224.567818 
L 165.770182 229.427148 
L 166.480364 225.827287 
L 167.900727 233.163109 
L 168.610909 227.600483 
L 169.321091 235.327727 
L 170.031273 236.862532 
L 170.741455 239.248581 
L 171.451636 237.381473 
L 172.161818 240.974186 
L 172.872 237.235704 
L 173.582182 237.270902 
L 174.292364 240.358845 
L 175.002545 241.728988 
L 175.712727 242.654509 
L 176.422909 249.604003 
L 177.133091 250.983349 
L 177.843273 252.914252 
L 178.553455 253.215588 
L 179.263636 261.505235 
L 179.973818 261.856002 
L 180.684 259.872263 
L 181.394182 264.026173 
L 182.104364 265.519254 
L 182.814545 266.611967 
L 183.524727 267.198349 
L 184.234909 275.545333 
L 184.945091 270.037061 
L 185.655273 269.472425 
L 186.365455 268.526286 
L 187.075636 270.911606 
L 187.785818 267.867141 
L 188.496 275.566424 
L 189.206182 276.347632 
L 189.916364 279.79684 
L 190.626545 281.010794 
L 191.336727 274.926801 
L 192.046909 275.515715 
L 192.757091 276.877514 
L 193.467273 276.711181 
L 194.177455 279.2365 
L 194.887636 275.797375 
L 195.597818 277.421983 
L 196.308 276.975871 
L 197.018182 281.250742 
L 197.728364 279.997021 
L 198.438545 280.013951 
L 199.148727 287.336547 
L 199.858909 288.675938 
L 200.569091 286.064798 
L 201.279273 281.999659 
L 201.989455 286.908918 
L 202.699636 284.470676 
L 203.409818 280.159292 
L 204.12 286.049106 
L 204.830182 281.487819 
L 205.540364 284.490661 
L 206.250545 282.252619 
L 206.960727 272.057078 
L 207.670909 271.655664 
L 208.381091 275.11841 
L 209.091273 279.736377 
L 209.801455 280.980099 
L 210.511636 279.911799 
L 211.221818 277.372257 
L 211.932 279.076643 
L 212.642182 276.007307 
L 213.352364 280.631098 
L 214.062545 275.393047 
L 214.772727 273.317151 
L 215.482909 278.177872 
L 216.193091 278.954573 
L 216.903273 271.424562 
L 217.613455 276.832992 
L 218.323636 275.166183 
L 219.033818 276.353969 
L 219.744 268.391902 
L 221.164364 270.415819 
L 221.874545 271.470826 
L 222.584727 271.879 
L 223.294909 277.607647 
L 224.005091 276.943106 
L 224.715273 271.36487 
L 225.425455 272.14745 
L 226.845818 266.181279 
L 227.556 266.663563 
L 228.266182 264.170328 
L 229.686545 250.550801 
L 230.396727 242.60954 
L 231.106909 236.034503 
L 231.817091 231.67733 
L 232.527273 237.923777 
L 233.237455 240.671784 
L 233.947636 245.456998 
L 234.657818 252.268481 
L 235.368 257.500079 
L 236.078182 260.431611 
L 236.788364 265.046662 
L 237.498545 262.917819 
L 238.208727 263.487272 
L 238.918909 265.957509 
L 239.629091 265.284995 
L 240.339273 265.454238 
L 241.049455 267.545899 
L 241.759636 272.440281 
L 243.18 264.205205 
L 243.890182 258.066665 
L 245.310545 271.209001 
L 246.020727 267.437708 
L 246.730909 266.428617 
L 247.441091 264.238259 
L 248.151273 257.573888 
L 248.861455 265.360647 
L 249.571636 266.359558 
L 250.281818 267.687164 
L 250.992 271.765477 
L 251.702182 279.624872 
L 252.412364 278.748155 
L 253.122545 279.89936 
L 253.832727 281.575917 
L 254.542909 288.376411 
L 255.253091 299.317294 
L 256.673455 296.713672 
L 257.383636 287.155655 
L 258.093818 281.188821 
L 260.224364 271.716558 
L 260.934545 273.186165 
L 261.644727 273.683382 
L 262.354909 269.949923 
L 263.065091 259.673539 
L 263.775273 260.549056 
L 264.485455 259.394004 
L 265.195636 256.484649 
L 265.905818 259.094643 
L 267.326182 249.349551 
L 268.036364 254.522395 
L 268.746545 242.89904 
L 269.456727 248.501592 
L 270.166909 250.06898 
L 270.877091 257.792549 
L 271.587273 255.085329 
L 272.297455 257.987914 
L 273.717818 251.40225 
L 274.428 248.711243 
L 275.138182 248.401388 
L 275.848364 250.681022 
L 276.558545 254.956826 
L 277.268727 250.491727 
L 277.978909 247.201001 
L 279.399273 260.271524 
L 280.109455 261.559013 
L 281.529818 253.091612 
L 282.24 256.971671 
L 282.950182 251.000305 
L 283.660364 239.721338 
L 284.370545 235.07748 
L 285.080727 236.533339 
L 285.790909 232.859473 
L 286.501091 234.807179 
L 287.211273 238.821228 
L 287.921455 241.816946 
L 288.631636 240.371371 
L 289.341818 233.141949 
L 290.762182 241.384512 
L 291.472364 234.399404 
L 292.182545 231.634659 
L 292.892727 231.037208 
L 293.602909 227.312856 
L 294.313091 218.707484 
L 295.023273 214.06399 
L 295.733455 205.190395 
L 296.443636 200.122381 
L 297.153818 200.910799 
L 297.864 192.957306 
L 298.574182 190.020496 
L 299.284364 195.097101 
L 299.994545 203.406563 
L 300.704727 202.515316 
L 301.414909 197.876775 
L 302.125091 194.518574 
L 302.835273 191.902007 
L 303.545455 193.995115 
L 304.255636 193.945099 
L 304.965818 199.244339 
L 305.676 191.425839 
L 306.386182 195.820379 
L 307.096364 197.163217 
L 307.806545 204.969853 
L 308.516727 201.013297 
L 309.226909 199.452066 
L 309.937091 202.393865 
L 310.647273 201.050844 
L 311.357455 200.650448 
L 312.067636 198.397205 
L 312.777818 201.128386 
L 313.488 197.913232 
L 314.198182 196.604696 
L 314.908364 200.246835 
L 315.618545 198.269613 
L 316.328727 206.563976 
L 317.038909 211.492218 
L 317.749091 212.408191 
L 318.459273 216.319302 
L 319.169455 211.609756 
L 319.879636 208.303608 
L 321.3 196.679334 
L 322.010182 200.838493 
L 322.720364 200.720407 
L 323.430545 193.500846 
L 324.850909 193.521286 
L 325.561091 195.593163 
L 326.271273 196.588401 
L 326.981455 194.761443 
L 327.691636 194.268292 
L 328.401818 191.842876 
L 329.112 186.828742 
L 329.822182 184.947562 
L 330.532364 183.987441 
L 331.242545 187.996542 
L 331.952727 194.680581 
L 332.662909 196.494205 
L 333.373091 193.452756 
L 334.083273 201.060249 
L 334.793455 202.456135 
L 335.503636 204.467129 
L 336.213818 211.504271 
L 337.634182 213.723526 
L 338.344364 213.970956 
L 341.185091 229.96534 
L 341.895273 237.002265 
L 342.605455 241.312346 
L 343.315636 250.551394 
L 344.025818 245.290747 
L 344.736 246.546538 
L 345.446182 252.640589 
L 346.156364 257.20151 
L 346.866545 255.942247 
L 347.576727 249.861623 
L 348.286909 253.010682 
L 348.997091 252.008547 
L 349.707273 249.101348 
L 350.417455 247.746129 
L 351.127636 250.625054 
L 351.837818 257.486332 
L 353.258182 243.329102 
L 353.968364 243.726137 
L 354.678545 252.303398 
L 355.388727 249.029393 
L 356.098909 253.22081 
L 356.809091 251.50207 
L 357.519273 250.137917 
L 358.229455 247.407698 
L 358.939636 254.269061 
L 359.649818 253.454095 
L 360.36 253.476188 
L 361.070182 256.52207 
L 361.780364 252.265899 
L 362.490545 254.490158 
L 363.200727 253.16126 
L 363.910909 250.741406 
L 364.621091 255.060216 
L 365.331273 253.249378 
L 366.041455 260.060814 
L 366.751636 268.117301 
L 367.461818 264.902399 
L 368.172 269.728322 
L 368.882182 261.562636 
L 369.592364 263.740378 
L 370.302545 266.694288 
L 371.012727 264.986404 
L 371.722909 269.195185 
L 372.433091 270.751534 
L 373.853455 267.67 
L 374.563636 269.68291 
L 375.273818 266.704662 
L 375.984 266.231974 
L 376.694182 265.45237 
L 377.404364 267.26976 
L 378.114545 271.189942 
L 378.824727 275.784312 
L 379.534909 268.693515 
L 380.245091 266.999962 
L 380.955273 267.435063 
L 381.665455 265.906339 
L 382.375636 267.284874 
L 383.085818 257.558912 
L 383.796 251.534003 
L 384.506182 258.969576 
L 385.216364 263.241898 
L 385.926545 264.928133 
L 386.636727 270.08413 
L 387.346909 264.262529 
L 388.057091 261.137173 
L 388.767273 252.791563 
L 389.477455 253.337254 
L 390.187636 257.617932 
L 390.897818 257.696589 
L 391.608 264.878301 
L 392.318182 267.208688 
L 393.028364 256.670038 
L 393.738545 252.22155 
L 394.448727 259.846017 
L 395.158909 260.805264 
L 395.869091 258.643102 
L 396.579273 258.639174 
L 397.289455 254.345432 
L 397.999636 255.938723 
L 398.709818 259.290232 
L 399.42 256.7163 
L 400.130182 260.208106 
L 400.840364 261.054887 
L 401.550545 259.845415 
L 402.260727 266.840518 
L 402.970909 272.121276 
L 403.681091 273.372157 
L 404.391273 277.3572 
L 405.101455 280.694014 
L 405.811636 276.955438 
L 406.521818 282.737719 
L 407.942182 279.025654 
L 408.652364 281.053229 
L 409.362545 275.697836 
L 410.072727 275.836488 
L 410.782909 276.813972 
L 411.493091 277.503749 
L 412.203273 277.437565 
L 412.913455 278.238223 
L 413.623636 275.400637 
L 414.333818 274.436401 
L 415.044 263.229089 
L 415.754182 269.405098 
L 416.464364 272.233817 
L 417.174545 269.846524 
L 417.884727 271.422648 
L 418.594909 268.90761 
L 419.305091 258.824605 
L 420.015273 262.032259 
L 420.725455 263.650999 
L 422.145818 270.788158 
L 422.856 277.963392 
L 423.566182 290.266775 
L 424.276364 291.393604 
L 424.986545 289.483407 
L 425.696727 285.952696 
L 426.406909 286.686674 
L 427.117091 281.989545 
L 427.827273 281.531628 
L 428.537455 290.514015 
L 429.957818 285.859405 
L 430.668 286.223441 
L 431.378182 295.582793 
L 432.088364 284.05812 
L 432.798545 280.954862 
L 433.508727 284.56128 
L 434.218909 283.609514 
L 434.929091 278.445362 
L 435.639273 276.46522 
L 436.349455 276.679476 
L 437.059636 277.231889 
L 437.769818 272.005931 
L 438.48 270.33196 
L 439.190182 271.182829 
L 439.900364 279.112795 
L 440.610545 278.694843 
L 442.741091 257.227592 
L 443.451273 257.657548 
L 444.161455 257.102444 
L 444.871636 260.298587 
L 445.581818 260.128093 
L 446.292 259.585874 
L 447.002182 259.550175 
L 447.712364 260.035357 
L 448.422545 258.248817 
L 449.132727 248.22916 
L 449.842909 252.020555 
L 450.553091 249.542123 
L 451.263273 256.583361 
L 451.973455 255.335364 
L 452.683636 246.606742 
L 453.393818 249.893596 
L 454.104 259.247451 
L 454.814182 259.945901 
L 455.524364 252.897326 
L 456.234545 254.878503 
L 456.944727 250.020478 
L 457.654909 249.098293 
L 458.365091 247.098159 
L 459.075273 236.503593 
L 459.785455 237.096297 
L 460.495636 233.857152 
L 461.916 240.199033 
L 462.626182 245.852178 
L 463.336364 250.038842 
L 464.046545 264.126073 
L 464.756727 272.05824 
L 466.177091 267.489116 
L 466.887273 266.682724 
L 467.597455 265.537873 
L 468.307636 261.522739 
L 469.017818 263.812082 
L 469.728 258.960697 
L 471.148364 265.967558 
L 471.858545 263.347813 
L 472.568727 266.625698 
L 473.278909 273.906059 
L 473.989091 277.831358 
L 474.699273 280.356865 
L 475.409455 278.521495 
L 476.119636 283.137513 
L 476.829818 281.932728 
L 477.54 284.568432 
L 478.250182 274.394287 
L 478.960364 277.223226 
L 479.670545 276.421709 
L 480.380727 277.433479 
L 481.090909 273.235269 
L 481.801091 272.417714 
L 482.511273 269.832694 
L 483.221455 265.817152 
L 483.931636 267.922897 
L 484.641818 267.63913 
L 485.352 266.765858 
L 486.062182 271.093386 
L 486.772364 280.429137 
L 487.482545 279.267574 
L 488.192727 280.04527 
L 488.902909 286.490523 
L 489.613091 286.862148 
L 490.323273 286.743732 
L 491.033455 284.85956 
L 491.743636 282.008888 
L 492.453818 279.885694 
L 493.164 274.72224 
L 493.874182 276.650443 
L 494.584364 277.935793 
L 495.294545 280.173302 
L 496.004727 282.02982 
L 496.714909 280.221361 
L 497.425091 278.916273 
L 498.135273 275.559032 
L 498.845455 273.063569 
L 499.555636 274.946481 
L 500.265818 271.378013 
L 500.976 270.581533 
L 501.686182 267.920376 
L 502.396364 268.756275 
L 503.106545 267.559336 
L 503.816727 265.011951 
L 504.526909 269.553993 
L 505.237091 260.902026 
L 505.947273 260.651205 
L 506.657455 259.199065 
L 507.367636 257.23086 
L 508.077818 257.761169 
L 508.788 260.921819 
L 509.498182 262.411294 
L 510.208364 261.400824 
L 510.918545 258.686613 
L 511.628727 254.033454 
L 512.338909 253.436347 
L 513.049091 261.360665 
L 513.759273 260.591883 
L 514.469455 269.989697 
L 515.179636 270.677007 
L 515.889818 266.709013 
L 516.6 253.714458 
L 517.310182 250.286325 
L 518.020364 253.145752 
L 518.730545 255.107618 
L 519.440727 254.621061 
L 520.861091 248.157544 
L 521.571273 253.149582 
L 522.281455 251.139654 
L 522.991636 247.002642 
L 523.701818 249.093403 
L 524.412 242.024065 
L 525.122182 248.172658 
L 525.832364 242.226572 
L 526.542545 245.690421 
L 527.252727 243.33583 
L 527.962909 238.750045 
L 528.673091 241.528297 
L 529.383273 236.997946 
L 530.093455 235.487511 
L 530.803636 238.556752 
L 531.513818 245.297687 
L 532.224 243.095563 
L 532.934182 243.762522 
L 533.644364 238.875581 
L 534.354545 237.887481 
L 535.064727 241.823032 
L 535.774909 236.143809 
L 536.485091 236.578151 
L 537.195273 239.357325 
L 537.905455 230.315321 
L 538.615636 227.897991 
L 539.325818 227.846487 
L 540.036 222.408108 
L 540.746182 219.81295 
L 541.456364 215.20024 
L 542.166545 214.929263 
L 542.876727 212.551842 
L 543.586909 216.424276 
L 544.297091 215.52805 
L 545.007273 208.085421 
L 545.717455 203.104637 
L 546.427636 202.269524 
L 547.137818 204.232016 
L 547.848 204.34571 
L 548.558182 203.901596 
L 550.688727 187.793142 
L 551.398909 180.25396 
L 552.109091 178.879806 
L 552.819273 182.102773 
L 553.529455 182.491886 
L 554.239636 185.632769 
L 555.66 196.102655 
L 556.370182 195.852082 
L 557.080364 198.419199 
L 557.790545 196.306915 
L 558.500727 204.135411 
L 559.210909 209.746717 
L 559.921091 209.660969 
L 560.631273 210.45128 
L 561.341455 219.102049 
L 562.051636 217.653642 
L 562.761818 211.063548 
L 563.472 211.545638 
L 564.182182 212.369114 
L 564.892364 215.671463 
L 565.602545 217.936824 
L 566.312727 223.916011 
L 567.022909 227.321891 
L 567.733091 225.776465 
L 568.443273 228.787657 
L 569.153455 229.66615 
L 569.863636 228.851764 
L 570.573818 222.676564 
L 571.284 221.998896 
L 571.994182 217.516063 
L 572.704364 223.021598 
L 573.414545 220.271562 
L 574.124727 216.100456 
L 574.834909 212.731497 
L 575.545091 215.787796 
L 576.255273 217.165085 
L 576.965455 214.971626 
L 577.675636 215.05194 
L 578.385818 215.296765 
L 579.096 213.989867 
L 579.806182 212.951065 
L 580.516364 219.192906 
L 581.226545 221.3849 
L 581.936727 219.33517 
L 582.646909 220.093265 
L 583.357091 215.180701 
L 585.487636 236.76375 
L 586.197818 234.018505 
L 586.908 232.495806 
L 587.618182 231.395475 
L 588.328364 228.094959 
L 589.038545 240.223545 
L 589.748727 238.279578 
L 590.458909 239.242645 
L 591.169091 233.03833 
L 591.879273 227.846373 
L 592.589455 221.779026 
L 593.299636 221.186499 
L 594.009818 217.490778 
L 594.72 219.30228 
L 595.430182 214.313387 
L 596.140364 213.220273 
L 596.850545 205.933744 
L 597.560727 201.840065 
L 598.270909 192.978707 
L 598.981091 190.774223 
L 599.691273 194.466541 
L 600.401455 192.752294 
L 601.111636 198.457717 
L 601.821818 208.307017 
L 602.532 209.286903 
L 603.242182 212.594904 
L 603.952364 203.63834 
L 604.662545 205.91081 
L 605.372727 209.306932 
L 606.082909 204.812786 
L 606.793091 198.615303 
L 607.503273 188.030944 
L 608.213455 182.236671 
L 608.923636 185.413667 
L 609.633818 183.306579 
L 610.344 177.434363 
L 611.054182 167.933848 
L 611.764364 170.514163 
L 612.474545 172.446813 
L 613.184727 180.591922 
L 613.894909 185.573018 
L 614.605091 187.673318 
L 615.315273 178.583825 
L 616.025455 186.497892 
L 616.735636 183.094548 
L 617.445818 182.837615 
L 618.156 181.709744 
L 618.866182 178.431559 
L 619.576364 174.39539 
L 620.286545 174.49806 
L 620.996727 181.672955 
L 621.706909 186.023692 
L 622.417091 180.384011 
L 623.127273 179.639628 
L 623.837455 174.742536 
L 624.547636 183.617693 
L 625.257818 185.187345 
L 625.968 182.832197 
L 626.678182 186.938733 
L 627.388364 182.740936 
L 628.098545 183.176162 
L 628.808727 176.044791 
L 629.518909 179.760651 
L 630.229091 177.981402 
L 630.939273 176.580565 
L 631.649455 178.400988 
L 632.359636 168.581831 
L 633.069818 171.343135 
L 633.78 169.161863 
L 634.490182 162.167734 
L 635.200364 160.752021 
L 635.910545 160.423689 
L 636.620727 166.090196 
L 637.330909 165.937706 
L 638.041091 162.054782 
L 638.751273 163.877835 
L 639.461455 163.723928 
L 640.171636 164.887283 
L 640.881818 167.850679 
L 641.592 165.275317 
L 642.302182 167.423593 
L 643.012364 165.400522 
L 643.722545 167.820966 
L 644.432727 168.093757 
L 645.142909 174.343155 
L 645.853091 173.543226 
L 646.563273 172.367523 
L 647.273455 164.32004 
L 647.983636 161.030161 
L 648.693818 162.446869 
L 649.404 163.027106 
L 650.114182 163.204196 
L 650.824364 157.800547 
L 651.534545 153.800012 
L 652.244727 158.064932 
L 652.954909 157.430818 
L 653.665091 151.730695 
L 654.375273 159.108765 
L 655.085455 157.801625 
L 655.795636 156.25071 
L 656.505818 158.407953 
L 657.216 157.993276 
L 657.926182 159.99015 
L 658.636364 157.49261 
L 659.346545 163.058509 
L 660.056727 166.347044 
L 660.766909 173.634428 
L 661.477091 175.346152 
L 662.187273 180.711215 
L 662.897455 178.688933 
L 663.607636 178.114829 
L 664.317818 182.345912 
L 665.028 184.287758 
L 665.738182 177.700644 
L 667.868727 167.949254 
L 668.578909 170.101831 
L 669.289091 171.560101 
L 669.999273 174.165752 
L 670.709455 170.0116 
L 671.419636 169.838373 
L 672.129818 173.366931 
L 672.84 162.344047 
L 673.550182 159.867297 
L 674.260364 164.982638 
L 674.970545 165.934616 
L 675.680727 162.753719 
L 676.390909 161.623446 
L 677.101091 172.704013 
L 677.811273 167.011731 
L 678.521455 167.000754 
L 679.231636 160.738375 
L 679.941818 155.483893 
L 680.652 148.517126 
L 681.362182 148.506208 
L 682.072364 150.190581 
L 682.782545 149.511719 
L 683.492727 141.766228 
L 684.202909 142.136751 
L 684.913091 144.695918 
L 685.623273 149.689355 
L 686.333455 153.710913 
L 687.043636 144.648424 
L 687.753818 154.094358 
L 688.464 153.085931 
L 689.174182 151.188708 
L 689.884364 153.574884 
L 690.594545 155.42727 
L 691.304727 153.917611 
L 692.014909 153.853014 
L 692.725091 157.5026 
L 693.435273 158.73674 
L 694.145455 162.88428 
L 694.855636 172.377133 
L 695.565818 174.33307 
L 696.276 175.327323 
L 696.986182 177.323904 
L 697.696364 178.073727 
L 698.406545 170.790165 
L 699.116727 181.483999 
L 699.826909 184.534307 
L 700.537091 178.03297 
L 701.247273 178.362758 
L 702.667636 178.376032 
L 703.377818 181.961177 
L 704.088 178.015924 
L 704.798182 175.037331 
L 705.508364 181.521884 
L 706.218545 190.840247 
L 706.928727 189.126552 
L 707.638909 195.468052 
L 708.349091 192.553655 
L 709.059273 191.884107 
L 709.769455 202.246929 
L 710.479636 202.865493 
L 711.189818 208.256398 
L 711.9 208.16159 
L 712.610182 201.55174 
L 713.320364 206.939296 
L 714.030545 202.503388 
L 714.740727 203.084792 
L 715.450909 199.630413 
L 716.161091 201.830021 
L 716.871273 203.33151 
L 717.581455 202.382896 
L 718.291636 206.574101 
L 719.001818 202.699353 
L 719.712 201.906346 
L 720.422182 200.088319 
L 721.132364 195.559746 
L 721.842545 197.523098 
L 722.552727 200.118583 
L 723.973091 191.790237 
L 724.683273 195.053931 
L 725.393455 194.988846 
L 726.103636 203.446329 
L 726.813818 202.420427 
L 728.234182 191.591393 
L 728.944364 188.773453 
L 729.654545 175.506349 
L 730.364727 177.488886 
L 731.074909 177.633562 
L 731.785091 183.529591 
L 732.495273 188.185623 
L 733.205455 184.164495 
L 733.915636 185.823352 
L 734.625818 183.06139 
L 735.336 173.62273 
L 736.046182 172.144467 
L 736.756364 174.491856 
L 738.176727 177.462852 
L 738.886909 174.458847 
L 740.307273 171.305351 
L 741.017455 171.096046 
L 742.437818 177.895298 
L 743.858182 170.261708 
L 744.568364 172.031571 
L 745.278545 172.803276 
L 745.988727 178.095239 
L 746.698909 168.883388 
L 748.119273 172.526685 
L 748.829455 171.633614 
L 750.249818 163.938624 
L 750.96 163.332824 
L 751.670182 165.120731 
L 752.380364 165.566572 
L 753.090545 162.148587 
L 753.800727 161.473556 
L 754.510909 155.403278 
L 755.221091 159.211137 
L 755.931273 163.948295 
L 756.641455 165.583636 
L 757.351636 166.617641 
L 758.061818 173.717027 
L 758.772 170.169461 
L 760.192364 183.014373 
L 760.902545 185.478687 
L 761.612727 180.615674 
L 762.322909 179.910646 
L 763.033091 185.284835 
L 763.743273 188.497431 
L 764.453455 192.444047 
L 765.163636 188.744726 
L 765.873818 189.742958 
L 766.584 192.242125 
L 767.294182 188.9119 
L 768.004364 192.238841 
L 768.714545 203.489544 
L 769.424727 202.456973 
L 770.134909 198.933772 
L 770.845091 202.510097 
L 771.555273 195.499764 
L 772.265455 193.580867 
L 772.975636 191.289349 
L 773.685818 191.378101 
L 774.396 188.562615 
L 775.106182 189.266864 
L 775.816364 191.149307 
L 776.526545 191.015442 
L 777.236727 194.547586 
L 777.946909 196.031572 
L 778.657091 193.239672 
L 779.367273 188.411596 
L 780.077455 190.776257 
L 780.787636 194.590645 
L 781.497818 194.53331 
L 782.208 192.738684 
L 782.918182 193.368579 
L 783.628364 197.451432 
L 784.338545 188.335233 
L 785.048727 192.166588 
L 785.758909 189.181459 
L 786.469091 193.722833 
L 787.179273 185.501753 
L 787.889455 191.476801 
L 788.599636 190.425153 
L 789.309818 191.962252 
L 790.730182 213.436694 
L 791.440364 217.213082 
L 792.150545 225.387158 
L 792.860727 224.121124 
L 793.570909 219.267475 
L 794.281091 226.629078 
L 794.991273 218.925811 
L 795.701455 214.911683 
L 796.411636 217.057071 
L 797.121818 214.023278 
L 797.832 208.302488 
L 798.542182 205.533586 
L 799.252364 205.896744 
L 799.962545 204.886428 
L 800.672727 208.433877 
L 801.382909 203.537031 
L 802.803273 212.267031 
L 803.513455 224.004176 
L 804.223636 225.503011 
L 804.933818 221.279154 
L 805.644 220.021096 
L 807.064364 211.37811 
L 807.774545 212.025375 
L 808.484727 211.390244 
L 809.194909 213.037859 
L 809.905091 219.926026 
L 810.615273 215.034521 
L 811.325455 214.32576 
L 812.035636 206.030082 
L 813.456 192.058288 
L 814.166182 195.840359 
L 814.876364 198.944834 
L 815.586545 200.853081 
L 816.296727 203.298966 
L 817.006909 202.18611 
L 817.717091 197.404992 
L 818.427273 200.771681 
L 819.137455 205.411138 
L 819.847636 204.472435 
L 820.557818 208.820213 
L 821.268 207.664117 
L 821.978182 202.344745 
L 822.688364 199.318715 
L 823.398545 189.770015 
L 824.108727 182.894997 
L 824.818909 186.209652 
L 825.529091 183.47393 
L 826.239273 184.726203 
L 827.659636 167.751073 
L 828.369818 166.909799 
L 829.08 162.614159 
L 829.790182 163.258615 
L 830.500364 159.410585 
L 831.210545 158.684937 
L 831.920727 158.868511 
L 832.630909 161.003798 
L 833.341091 160.111174 
L 834.051273 164.01396 
L 834.761455 161.941605 
L 835.471636 162.648742 
L 836.181818 159.23065 
L 836.892 159.98671 
L 837.602182 156.200515 
L 838.312364 159.317616 
L 839.022545 158.228785 
L 839.732727 153.11326 
L 840.442909 154.613009 
L 841.153091 155.278975 
L 842.573455 154.697303 
L 843.993818 161.748125 
L 844.704 158.605702 
L 845.414182 156.504071 
L 846.124364 160.319463 
L 848.254909 150.755403 
L 848.965091 154.643632 
L 849.675273 166.557469 
L 850.385455 158.287332 
L 851.095636 163.253159 
L 851.805818 162.795386 
L 852.516 164.629747 
L 853.226182 168.65946 
L 853.936364 166.283535 
L 854.646545 177.191876 
L 855.356727 180.761817 
L 856.066909 186.253044 
L 856.777091 178.857508 
L 857.487273 186.876656 
L 858.907636 172.363499 
L 859.617818 174.255792 
L 860.328 174.765184 
L 861.038182 168.904259 
L 861.748364 170.830078 
L 862.458545 170.213904 
L 863.168727 161.10273 
L 863.878909 157.86433 
L 864.589091 161.420679 
L 865.299273 160.290965 
L 866.009455 160.941073 
L 866.719636 160.877758 
L 867.429818 155.832118 
L 868.14 153.108806 
L 868.850182 160.13861 
L 869.560364 160.227174 
L 870.270545 159.554766 
L 870.980727 152.849654 
L 871.690909 152.955149 
L 871.690909 152.955149 
" clip-path="url(#p26bccf2eb9)" style="fill: none; stroke: #1f77b4; stroke-width: 1.5; stroke-linecap: square"/>
   </g>
   <g id="line2d_13">
    <path d="M 161.509091 222.941203 
L 162.219273 217.813789 
L 162.929455 216.330416 
L 163.639636 221.282129 
L 164.349818 219.818612 
L 165.06 216.929445 
L 165.770182 227.287894 
L 166.480364 222.16849 
L 167.190545 218.800228 
L 167.900727 214.530479 
L 168.610909 211.413411 
L 169.321091 217.445691 
L 170.031273 209.354462 
L 170.741455 212.397102 
L 171.451636 205.42498 
L 172.872 204.088972 
L 173.582182 209.558542 
L 174.292364 211.714394 
L 175.002545 214.79456 
L 175.712727 211.419534 
L 176.422909 217.76855 
L 177.133091 214.679048 
L 177.843273 212.886731 
L 178.553455 215.531546 
L 179.263636 220.311222 
L 179.973818 221.059563 
L 180.684 220.109432 
L 181.394182 224.100775 
L 182.104364 223.3196 
L 182.814545 221.12115 
L 183.524727 215.692005 
L 184.234909 224.942549 
L 184.945091 226.464491 
L 185.655273 222.859227 
L 186.365455 225.491809 
L 187.075636 226.806158 
L 187.785818 220.468119 
L 188.496 229.212355 
L 189.206182 222.675747 
L 189.916364 227.847582 
L 190.626545 223.61847 
L 191.336727 211.737688 
L 192.046909 218.791708 
L 192.757091 219.841422 
L 193.467273 222.767755 
L 194.177455 229.627811 
L 194.887636 221.964043 
L 195.597818 223.75025 
L 196.308 212.473 
L 197.018182 211.154433 
L 197.728364 210.935547 
L 198.438545 209.411801 
L 199.148727 209.195209 
L 199.858909 213.138758 
L 200.569091 213.580188 
L 201.279273 218.553162 
L 201.989455 219.911913 
L 202.699636 214.800603 
L 203.409818 205.95776 
L 204.12 209.297642 
L 204.830182 201.883464 
L 205.540364 208.916824 
L 206.250545 198.12885 
L 206.960727 196.703817 
L 207.670909 194.068503 
L 209.091273 211.713134 
L 209.801455 211.767388 
L 211.221818 197.492087 
L 211.932 196.430633 
L 212.642182 189.689592 
L 213.352364 195.873034 
L 214.062545 187.12316 
L 214.772727 186.65611 
L 215.482909 191.985438 
L 216.193091 200.124505 
L 216.903273 186.622033 
L 217.613455 186.630465 
L 218.323636 195.349594 
L 219.033818 198.817923 
L 219.744 190.549585 
L 220.454182 197.958665 
L 221.164364 194.065602 
L 221.874545 193.049515 
L 222.584727 188.610163 
L 223.294909 194.16569 
L 224.005091 195.254763 
L 224.715273 189.561781 
L 226.135636 213.274271 
L 226.845818 215.987747 
L 227.556 213.02393 
L 228.266182 207.635976 
L 228.976364 195.318849 
L 229.686545 194.522524 
L 231.817091 166.561108 
L 232.527273 176.0278 
L 233.947636 182.94806 
L 234.657818 192.944723 
L 235.368 197.902672 
L 236.078182 195.208224 
L 236.788364 208.539154 
L 237.498545 202.850187 
L 238.208727 205.435172 
L 238.918909 196.191485 
L 239.629091 192.347449 
L 240.339273 198.919667 
L 241.049455 197.350556 
L 241.759636 206.8068 
L 242.469818 199.166227 
L 243.18 186.786088 
L 243.890182 180.999376 
L 244.600364 194.150241 
L 245.310545 199.725608 
L 246.020727 196.382987 
L 246.730909 187.517331 
L 247.441091 190.438783 
L 248.151273 184.862846 
L 248.861455 195.88548 
L 249.571636 204.753021 
L 250.281818 204.945836 
L 250.992 213.058252 
L 251.702182 225.650022 
L 252.412364 220.250108 
L 253.122545 221.173991 
L 253.832727 215.380387 
L 254.542909 226.318703 
L 255.253091 239.989189 
L 255.963273 237.378972 
L 256.673455 234.006853 
L 257.383636 220.060182 
L 258.804 200.24609 
L 259.514182 195.371437 
L 260.224364 197.263659 
L 260.934545 208.000364 
L 261.644727 208.231837 
L 262.354909 208.654519 
L 263.065091 195.714004 
L 263.775273 188.817433 
L 264.485455 185.347766 
L 265.195636 183.696918 
L 266.616 194.875465 
L 267.326182 181.499301 
L 268.036364 178.406812 
L 268.746545 163.24184 
L 269.456727 170.733653 
L 270.166909 171.759816 
L 270.877091 181.829185 
L 271.587273 183.643288 
L 272.297455 186.641575 
L 273.007636 184.577456 
L 273.717818 188.063104 
L 274.428 177.208884 
L 275.138182 179.467268 
L 275.848364 179.272511 
L 276.558545 183.16255 
L 277.268727 173.670679 
L 277.978909 168.523996 
L 278.689091 172.008112 
L 279.399273 168.946655 
L 280.109455 166.653163 
L 280.819636 156.751135 
L 281.529818 151.142605 
L 282.24 153.682496 
L 283.660364 127.810778 
L 284.370545 124.847667 
L 285.080727 123.030109 
L 285.790909 122.72488 
L 286.501091 126.959457 
L 287.211273 134.452294 
L 288.631636 125.538412 
L 290.052 119.442638 
L 290.762182 123.634227 
L 291.472364 113.819248 
L 292.182545 112.05274 
L 293.602909 107.351296 
L 294.313091 97.552964 
L 295.023273 94.875759 
L 295.733455 94.375819 
L 296.443636 93.650981 
L 297.153818 93.444747 
L 297.864 88.027336 
L 298.574182 81.240685 
L 299.284364 82.099196 
L 299.994545 81.518224 
L 300.704727 87.579433 
L 301.414909 83.479934 
L 302.125091 85.162563 
L 302.835273 75.652637 
L 303.545455 76.54928 
L 304.255636 71.670998 
L 304.965818 91.175079 
L 305.676 83.663279 
L 307.096364 105.327178 
L 307.806545 108.177388 
L 309.226909 92.466109 
L 309.937091 95.486003 
L 310.647273 100.026431 
L 311.357455 101.451076 
L 312.067636 94.037624 
L 312.777818 93.728743 
L 313.488 83.402849 
L 314.908364 91.072689 
L 315.618545 92.93065 
L 316.328727 104.078624 
L 317.038909 103.252187 
L 317.749091 103.783266 
L 318.459273 108.170779 
L 319.169455 101.7265 
L 319.879636 103.918974 
L 320.589818 102.210755 
L 321.3 93.935736 
L 322.010182 97.680283 
L 322.720364 97.490199 
L 323.430545 85.522051 
L 324.140727 82.169626 
L 324.850909 82.995802 
L 325.561091 81.926226 
L 326.271273 79.159063 
L 326.981455 80.08653 
L 327.691636 81.383774 
L 328.401818 82.01459 
L 329.112 79.114536 
L 329.822182 69.497368 
L 330.532364 66.96 
L 331.242545 72.595437 
L 331.952727 82.392934 
L 332.662909 84.048991 
L 333.373091 81.490821 
L 334.083273 87.018563 
L 334.793455 84.93601 
L 336.213818 92.048263 
L 336.924 94.506256 
L 338.344364 96.762049 
L 339.054545 101.307041 
L 339.764727 115.583925 
L 340.474909 115.680886 
L 341.185091 112.15103 
L 341.895273 111.834833 
L 342.605455 109.271781 
L 343.315636 118.393029 
L 344.025818 116.578458 
L 345.446182 132.712442 
L 346.156364 141.192929 
L 346.866545 138.895084 
L 347.576727 135.146915 
L 348.997091 147.996707 
L 349.707273 141.025908 
L 350.417455 144.526291 
L 351.127636 149.061489 
L 351.837818 157.678311 
L 352.548 149.82072 
L 353.258182 144.286743 
L 353.968364 140.605487 
L 354.678545 159.026995 
L 355.388727 146.958803 
L 356.098909 148.195489 
L 356.809091 138.190203 
L 358.229455 146.711446 
L 358.939636 154.167487 
L 359.649818 158.051074 
L 360.36 166.386519 
L 361.070182 169.643687 
L 361.780364 166.888295 
L 362.490545 174.91623 
L 363.200727 162.656865 
L 363.910909 163.916772 
L 364.621091 165.780957 
L 366.041455 173.088555 
L 366.751636 190.39905 
L 367.461818 183.04616 
L 368.172 190.970345 
L 368.882182 183.093246 
L 369.592364 181.927546 
L 371.012727 192.969916 
L 371.722909 190.73864 
L 372.433091 193.587592 
L 373.143273 191.670959 
L 373.853455 190.90921 
L 374.563636 188.218723 
L 375.273818 191.564424 
L 375.984 185.248438 
L 376.694182 180.293932 
L 377.404364 182.456265 
L 378.114545 183.534169 
L 378.824727 190.453638 
L 379.534909 188.238117 
L 380.245091 182.889594 
L 380.955273 184.356273 
L 381.665455 187.994871 
L 382.375636 183.074094 
L 383.085818 170.120675 
L 383.796 167.542886 
L 384.506182 175.055148 
L 385.926545 182.463631 
L 386.636727 192.480425 
L 387.346909 187.466327 
L 388.057091 183.662773 
L 388.767273 172.74067 
L 389.477455 168.905882 
L 390.187636 173.643306 
L 390.897818 166.9518 
L 391.608 174.602519 
L 392.318182 174.109364 
L 393.028364 167.784262 
L 393.738545 158.281851 
L 394.448727 168.976756 
L 395.158909 171.031229 
L 396.579273 177.093662 
L 397.289455 168.915053 
L 397.999636 171.229275 
L 398.709818 176.078325 
L 399.42 174.164343 
L 400.130182 171.789235 
L 400.840364 175.978677 
L 401.550545 178.209996 
L 402.260727 179.298004 
L 402.970909 186.627377 
L 403.681091 188.609176 
L 404.391273 191.452357 
L 405.101455 193.797924 
L 405.811636 187.231435 
L 406.521818 189.107265 
L 407.232 186.537928 
L 407.942182 198.150897 
L 408.652364 198.890868 
L 409.362545 186.787321 
L 410.072727 182.770518 
L 410.782909 187.210006 
L 411.493091 193.298271 
L 412.203273 191.280939 
L 412.913455 196.640885 
L 413.623636 187.502296 
L 414.333818 188.981755 
L 415.044 179.867294 
L 416.464364 200.659639 
L 417.174545 197.324119 
L 417.884727 200.097613 
L 418.594909 198.567323 
L 419.305091 196.136393 
L 420.015273 203.227822 
L 420.725455 211.899802 
L 421.435636 215.128897 
L 422.145818 226.765922 
L 422.856 231.60349 
L 423.566182 245.491747 
L 424.276364 239.347515 
L 424.986545 242.968165 
L 425.696727 238.721549 
L 426.406909 252.524053 
L 427.117091 253.219607 
L 427.827273 249.482369 
L 428.537455 257.290746 
L 429.247636 253.032325 
L 429.957818 251.350444 
L 430.668 256.767527 
L 431.378182 263.073744 
L 432.088364 250.084235 
L 432.798545 250.571636 
L 433.508727 253.482549 
L 434.218909 254.024696 
L 434.929091 250.049196 
L 436.349455 228.624519 
L 437.059636 234.378512 
L 437.769818 235.848224 
L 438.48 232.639101 
L 439.190182 237.062716 
L 439.900364 242.668625 
L 440.610545 242.118112 
L 442.741091 222.349714 
L 443.451273 227.226624 
L 444.161455 224.439166 
L 444.871636 225.141933 
L 445.581818 231.140385 
L 447.002182 221.722959 
L 447.712364 224.60483 
L 448.422545 223.505711 
L 449.132727 218.211107 
L 449.842909 224.189671 
L 450.553091 210.597998 
L 451.263273 217.14245 
L 451.973455 214.250523 
L 452.683636 201.032439 
L 453.393818 201.052875 
L 454.104 203.04133 
L 454.814182 207.489783 
L 455.524364 194.113306 
L 456.234545 186.765946 
L 456.944727 188.131197 
L 457.654909 185.263321 
L 458.365091 186.734497 
L 459.075273 178.434691 
L 459.785455 178.548462 
L 460.495636 165.023386 
L 461.205818 168.757237 
L 461.916 175.407155 
L 462.626182 188.243827 
L 463.336364 191.029384 
L 464.046545 202.866302 
L 464.756727 212.305266 
L 465.466909 208.612555 
L 466.177091 212.630064 
L 466.887273 208.34373 
L 468.307636 205.504662 
L 469.728 211.101728 
L 470.438182 207.471548 
L 471.148364 217.678709 
L 471.858545 219.615141 
L 472.568727 225.327354 
L 473.278909 232.934922 
L 473.989091 229.540602 
L 474.699273 231.965038 
L 475.409455 234.817948 
L 476.119636 233.428161 
L 476.829818 233.13855 
L 477.54 235.888462 
L 478.250182 226.607599 
L 478.960364 231.681465 
L 479.670545 227.56774 
L 480.380727 219.997207 
L 481.090909 214.089276 
L 481.801091 216.079862 
L 482.511273 213.005454 
L 483.221455 206.000892 
L 483.931636 206.184209 
L 485.352 215.276237 
L 486.062182 225.938204 
L 486.772364 238.488288 
L 487.482545 233.297161 
L 488.192727 231.637424 
L 488.902909 237.588461 
L 489.613091 237.302743 
L 490.323273 238.64446 
L 491.033455 240.793493 
L 491.743636 241.699692 
L 492.453818 240.698399 
L 493.164 235.419263 
L 493.874182 228.88987 
L 494.584364 234.623917 
L 495.294545 235.601582 
L 496.004727 232.233081 
L 496.714909 231.385891 
L 497.425091 234.252147 
L 498.135273 235.005525 
L 498.845455 241.156716 
L 499.555636 251.760106 
L 500.265818 244.493832 
L 500.976 250.872614 
L 501.686182 246.548408 
L 502.396364 259.644875 
L 503.106545 254.030121 
L 503.816727 260.10377 
L 504.526909 269.019817 
L 505.237091 259.223154 
L 505.947273 257.590109 
L 506.657455 254.123128 
L 507.367636 257.725256 
L 508.077818 267.557729 
L 508.788 272.026095 
L 509.498182 273.998445 
L 510.208364 271.69933 
L 510.918545 266.500462 
L 511.628727 262.809603 
L 512.338909 264.193944 
L 513.049091 269.275868 
L 513.759273 275.594815 
L 514.469455 280.474375 
L 515.179636 280.913998 
L 515.889818 279.712778 
L 516.6 262.690552 
L 517.310182 258.736125 
L 518.020364 257.686985 
L 518.730545 260.333732 
L 519.440727 263.424583 
L 520.150909 255.716316 
L 520.861091 255.384247 
L 521.571273 257.711934 
L 522.281455 251.478681 
L 522.991636 247.018428 
L 523.701818 248.533628 
L 524.412 239.839225 
L 525.122182 242.25489 
L 525.832364 236.353206 
L 526.542545 238.081942 
L 527.252727 235.973794 
L 527.962909 226.043568 
L 528.673091 232.610717 
L 529.383273 227.66996 
L 530.093455 231.834637 
L 530.803636 230.900112 
L 531.513818 231.326209 
L 532.224 223.498376 
L 532.934182 226.564391 
L 533.644364 218.881218 
L 534.354545 214.144728 
L 535.064727 214.30729 
L 535.774909 207.82726 
L 536.485091 208.83193 
L 537.195273 211.892334 
L 537.905455 199.316547 
L 538.615636 190.338822 
L 539.325818 190.715697 
L 540.036 178.899803 
L 540.746182 185.480121 
L 541.456364 182.802043 
L 542.166545 187.816685 
L 542.876727 191.132558 
L 543.586909 196.060202 
L 544.297091 198.072423 
L 545.717455 183.650126 
L 546.427636 187.996378 
L 547.137818 187.50784 
L 547.848 185.804518 
L 548.558182 192.995083 
L 549.268364 186.720984 
L 549.978545 181.670011 
L 550.688727 173.142657 
L 551.398909 168.516576 
L 552.109091 167.89232 
L 552.819273 162.530572 
L 553.529455 161.487921 
L 554.239636 171.841872 
L 554.949818 177.993563 
L 555.66 187.212898 
L 556.370182 179.595388 
L 557.080364 186.507309 
L 557.790545 186.727717 
L 558.500727 190.129153 
L 559.210909 188.570689 
L 559.921091 196.594656 
L 560.631273 201.291263 
L 561.341455 215.762051 
L 562.051636 210.751997 
L 562.761818 203.211318 
L 563.472 202.770428 
L 564.182182 198.975511 
L 564.892364 196.454799 
L 565.602545 204.153905 
L 566.312727 208.585341 
L 567.022909 208.996943 
L 567.733091 210.570967 
L 568.443273 208.598415 
L 569.153455 204.345015 
L 569.863636 202.121629 
L 570.573818 194.866349 
L 571.284 196.377151 
L 571.994182 191.164182 
L 572.704364 204.68953 
L 573.414545 202.495743 
L 574.124727 194.011595 
L 574.834909 195.605418 
L 575.545091 192.866203 
L 576.255273 188.949208 
L 576.965455 186.057735 
L 577.675636 183.813161 
L 578.385818 187.221219 
L 579.096 186.322894 
L 579.806182 188.789343 
L 580.516364 202.759333 
L 581.226545 208.337717 
L 581.936727 210.880446 
L 582.646909 212.541037 
L 583.357091 212.399803 
L 584.067273 214.56869 
L 585.487636 232.866381 
L 586.197818 223.643346 
L 586.908 223.439775 
L 587.618182 221.115688 
L 588.328364 215.025557 
L 589.038545 234.088358 
L 589.748727 231.704925 
L 590.458909 234.858753 
L 591.169091 232.024223 
L 592.589455 213.913203 
L 593.299636 225.619651 
L 594.009818 221.903782 
L 594.72 224.87058 
L 595.430182 225.836408 
L 596.140364 228.367228 
L 596.850545 225.409459 
L 597.560727 230.676873 
L 598.270909 221.58537 
L 598.981091 216.510973 
L 599.691273 219.406112 
L 600.401455 217.320684 
L 601.111636 219.48899 
L 601.821818 228.10776 
L 602.532 229.77714 
L 603.242182 228.989742 
L 603.952364 221.089727 
L 604.662545 222.648675 
L 605.372727 239.750721 
L 606.082909 233.567503 
L 606.793091 221.187046 
L 607.503273 206.403025 
L 608.213455 196.705621 
L 608.923636 202.467392 
L 609.633818 196.720845 
L 610.344 193.902269 
L 611.054182 182.449339 
L 611.764364 182.756384 
L 612.474545 185.196489 
L 613.184727 191.181606 
L 613.894909 202.305357 
L 614.605091 209.800089 
L 615.315273 205.114565 
L 616.025455 206.701945 
L 616.735636 204.593419 
L 617.445818 203.785362 
L 618.156 210.435194 
L 618.866182 207.956097 
L 619.576364 207.120953 
L 620.286545 211.171288 
L 620.996727 222.15535 
L 621.706909 223.81204 
L 622.417091 222.295796 
L 623.837455 216.964312 
L 625.257818 225.279978 
L 626.678182 226.338292 
L 627.388364 225.190399 
L 628.098545 227.912302 
L 628.808727 220.294004 
L 629.518909 218.30157 
L 630.229091 215.406604 
L 630.939273 219.691444 
L 631.649455 227.0709 
L 632.359636 216.53887 
L 633.069818 215.901961 
L 633.78 213.764943 
L 634.490182 206.104777 
L 635.200364 205.753686 
L 635.910545 196.140159 
L 636.620727 200.388444 
L 637.330909 197.979462 
L 638.041091 200.524339 
L 638.751273 197.57564 
L 639.461455 196.784056 
L 640.171636 190.817481 
L 640.881818 188.73454 
L 641.592 193.775184 
L 642.302182 193.909996 
L 643.012364 192.351357 
L 643.722545 199.012803 
L 644.432727 196.871684 
L 645.142909 207.603704 
L 645.853091 209.192571 
L 646.563273 210.326002 
L 647.273455 204.890452 
L 647.983636 206.918201 
L 648.693818 209.959937 
L 649.404 214.111548 
L 650.114182 221.319838 
L 650.824364 216.447869 
L 651.534545 216.703429 
L 652.244727 226.2767 
L 652.954909 227.51712 
L 653.665091 229.572195 
L 654.375273 237.357637 
L 655.085455 229.358351 
L 655.795636 230.653374 
L 656.505818 233.90607 
L 657.216 227.465773 
L 657.926182 229.044796 
L 658.636364 237.789323 
L 659.346545 235.020235 
L 660.056727 237.651598 
L 660.766909 248.840603 
L 661.477091 248.874745 
L 662.187273 258.908106 
L 662.897455 254.363271 
L 664.317818 260.386883 
L 665.028 259.059881 
L 665.738182 239.235194 
L 666.448364 235.598861 
L 667.158545 230.805915 
L 667.868727 234.401433 
L 668.578909 235.733566 
L 669.289091 234.378913 
L 669.999273 234.947007 
L 670.709455 240.488269 
L 671.419636 229.091767 
L 672.129818 226.738715 
L 672.84 219.374095 
L 673.550182 214.602292 
L 674.260364 219.503391 
L 674.970545 226.55114 
L 675.680727 224.894697 
L 676.390909 227.276428 
L 677.101091 239.123198 
L 677.811273 236.878968 
L 678.521455 243.714445 
L 679.231636 235.117852 
L 679.941818 240.795081 
L 680.652 236.006398 
L 681.362182 232.616287 
L 682.072364 232.539801 
L 682.782545 235.175956 
L 683.492727 231.450411 
L 684.202909 231.224905 
L 684.913091 232.331415 
L 685.623273 239.440535 
L 686.333455 239.411174 
L 687.043636 238.918674 
L 687.753818 246.074904 
L 688.464 249.221142 
L 689.174182 245.708062 
L 689.884364 244.519731 
L 690.594545 240.899881 
L 691.304727 238.24293 
L 692.014909 242.53952 
L 692.725091 241.765017 
L 693.435273 242.394258 
L 694.145455 242.408032 
L 694.855636 255.675666 
L 695.565818 259.301603 
L 696.276 253.524175 
L 696.986182 258.065515 
L 697.696364 260.233443 
L 698.406545 249.255034 
L 699.116727 249.416552 
L 699.826909 245.782411 
L 700.537091 239.32998 
L 701.247273 236.87523 
L 701.957455 232.932372 
L 702.667636 223.655342 
L 703.377818 225.316084 
L 704.088 227.718764 
L 704.798182 216.508008 
L 705.508364 225.7449 
L 706.218545 229.327552 
L 707.638909 243.779706 
L 708.349091 241.539553 
L 709.059273 241.352025 
L 709.769455 251.393779 
L 710.479636 249.965977 
L 711.189818 251.252973 
L 711.9 244.581421 
L 712.610182 235.08032 
L 713.320364 245.148741 
L 714.030545 236.548645 
L 714.740727 237.009541 
L 715.450909 231.559689 
L 716.161091 230.420239 
L 716.871273 235.422528 
L 717.581455 230.859069 
L 718.291636 238.144822 
L 719.001818 232.625066 
L 720.422182 236.338774 
L 721.132364 229.384829 
L 721.842545 226.707592 
L 722.552727 230.016836 
L 723.973091 219.845817 
L 724.683273 221.500511 
L 725.393455 230.154113 
L 726.103636 233.751983 
L 726.813818 230.308058 
L 727.524 216.819287 
L 728.234182 210.054537 
L 728.944364 212.437 
L 729.654545 202.521984 
L 730.364727 199.743302 
L 731.074909 199.128137 
L 731.785091 206.864232 
L 732.495273 200.595673 
L 733.205455 190.787787 
L 733.915636 199.324669 
L 734.625818 193.328408 
L 735.336 176.99489 
L 736.046182 183.465602 
L 736.756364 176.391599 
L 737.466545 184.438251 
L 738.176727 184.817974 
L 739.597091 175.320583 
L 740.307273 177.053979 
L 741.017455 180.490284 
L 741.727636 191.760955 
L 742.437818 194.88519 
L 743.148 197.044767 
L 743.858182 188.640245 
L 745.278545 191.921798 
L 745.988727 201.565764 
L 747.409091 192.412907 
L 748.119273 195.976305 
L 748.829455 191.139935 
L 749.539636 192.665562 
L 750.249818 184.49297 
L 750.96 186.40514 
L 751.670182 178.975356 
L 752.380364 174.539476 
L 753.090545 171.853034 
L 753.800727 181.540287 
L 754.510909 175.475049 
L 755.221091 180.388241 
L 755.931273 187.063924 
L 756.641455 190.926369 
L 757.351636 188.286982 
L 758.061818 199.455828 
L 758.772 196.016321 
L 759.482182 201.262393 
L 760.192364 207.819482 
L 760.902545 206.838769 
L 761.612727 208.761134 
L 762.322909 220.0131 
L 763.033091 223.696052 
L 763.743273 222.007811 
L 764.453455 230.53258 
L 765.163636 222.03219 
L 765.873818 223.43064 
L 766.584 226.513268 
L 767.294182 224.112013 
L 768.004364 228.114759 
L 768.714545 241.454213 
L 769.424727 241.89973 
L 770.134909 232.3973 
L 770.845091 234.73796 
L 772.265455 227.925976 
L 772.975636 221.401368 
L 773.685818 217.679598 
L 774.396 215.515076 
L 775.106182 206.288759 
L 775.816364 206.920091 
L 776.526545 202.045632 
L 777.236727 212.341877 
L 777.946909 213.013809 
L 778.657091 206.205485 
L 779.367273 203.337794 
L 780.077455 208.565202 
L 780.787636 215.009179 
L 781.497818 212.474946 
L 782.208 217.893751 
L 782.918182 214.275169 
L 783.628364 218.853937 
L 784.338545 210.49693 
L 785.048727 214.341665 
L 785.758909 208.122567 
L 786.469091 211.960365 
L 787.179273 202.305625 
L 787.889455 206.81833 
L 788.599636 198.046248 
L 789.309818 200.212313 
L 790.730182 221.25794 
L 791.440364 225.506774 
L 792.150545 233.549248 
L 792.860727 234.250553 
L 793.570909 226.246148 
L 794.281091 231.181781 
L 794.991273 220.543422 
L 795.701455 220.934819 
L 796.411636 224.777665 
L 797.121818 218.133852 
L 797.832 208.868793 
L 798.542182 205.275562 
L 799.252364 207.950142 
L 799.962545 205.623998 
L 800.672727 206.010055 
L 801.382909 201.07672 
L 802.093091 202.882092 
L 803.513455 216.423207 
L 804.223636 224.841355 
L 805.644 225.95425 
L 806.354182 223.065071 
L 807.064364 214.485628 
L 807.774545 215.918665 
L 808.484727 210.656772 
L 809.194909 207.1288 
L 809.905091 210.038443 
L 810.615273 215.814173 
L 811.325455 217.339875 
L 812.035636 213.072974 
L 812.745818 201.422059 
L 813.456 200.354801 
L 814.166182 200.287485 
L 814.876364 206.842106 
L 815.586545 218.342202 
L 816.296727 224.870781 
L 817.006909 225.585307 
L 817.717091 222.744061 
L 818.427273 235.330395 
L 819.137455 236.511201 
L 819.847636 233.469994 
L 820.557818 230.976118 
L 821.268 230.0093 
L 821.978182 223.257987 
L 822.688364 219.432076 
L 823.398545 204.380559 
L 824.818909 208.716278 
L 825.529091 201.541489 
L 826.239273 200.831862 
L 826.949455 203.390825 
L 827.659636 193.386452 
L 828.369818 186.001291 
L 829.790182 174.014504 
L 830.500364 172.042877 
L 831.210545 172.836909 
L 831.920727 176.113045 
L 832.630909 182.001267 
L 833.341091 181.283508 
L 834.051273 187.618132 
L 834.761455 189.110908 
L 835.471636 185.20979 
L 836.181818 176.853053 
L 836.892 178.257529 
L 837.602182 174.674775 
L 838.312364 186.187496 
L 839.022545 189.478821 
L 839.732727 184.4639 
L 840.442909 184.934451 
L 841.153091 187.083211 
L 841.863273 182.332811 
L 842.573455 181.634603 
L 843.283636 187.533158 
L 843.993818 182.898224 
L 844.704 175.337257 
L 845.414182 171.213228 
L 846.124364 179.541968 
L 846.834545 177.228937 
L 847.544727 181.331205 
L 848.254909 180.63843 
L 848.965091 180.829766 
L 849.675273 186.567874 
L 850.385455 178.677652 
L 851.805818 194.801295 
L 852.516 194.399823 
L 853.226182 195.023976 
L 853.936364 192.899867 
L 854.646545 206.759843 
L 855.356727 210.006617 
L 856.066909 216.260806 
L 856.777091 206.50826 
L 857.487273 217.908659 
L 858.197455 210.441823 
L 858.907636 208.299524 
L 859.617818 216.427172 
L 860.328 221.634251 
L 861.038182 212.698481 
L 861.748364 217.423927 
L 862.458545 218.430106 
L 863.168727 209.588348 
L 863.878909 202.857191 
L 864.589091 210.471329 
L 865.299273 209.610817 
L 866.009455 212.394804 
L 866.719636 209.089547 
L 867.429818 200.783514 
L 868.14 195.615538 
L 868.850182 205.931631 
L 869.560364 200.911112 
L 870.270545 202.834798 
L 870.980727 192.207421 
L 871.690909 188.798451 
L 871.690909 188.798451 
" clip-path="url(#p26bccf2eb9)" style="fill: none; stroke: #ff7f0e; stroke-width: 1.5; stroke-linecap: square"/>
   </g>
   <g id="line2d_14">
    <path d="M 162.219273 369.36 
L 162.929455 369.341013 
L 163.639636 369.164667 
L 165.06 369.169965 
L 165.770182 368.826491 
L 166.480364 368.700736 
L 167.900727 368.893513 
L 168.610909 368.775195 
L 169.321091 368.457121 
L 170.031273 368.541861 
L 174.292364 368.353651 
L 175.712727 368.346168 
L 176.422909 368.045088 
L 178.553455 368.092344 
L 179.263636 367.821975 
L 180.684 367.807322 
L 181.394182 367.694187 
L 183.524727 367.740262 
L 184.234909 367.213372 
L 186.365455 367.273683 
L 187.785818 367.120619 
L 188.496 366.661215 
L 189.206182 366.69606 
L 189.916364 366.574333 
L 190.626545 366.609366 
L 191.336727 366.116128 
L 194.177455 365.963134 
L 194.887636 365.783283 
L 198.438545 365.765919 
L 202.699636 365.755952 
L 203.409818 365.495798 
L 205.540364 364.986681 
L 206.960727 364.722787 
L 207.670909 364.715569 
L 209.091273 364.229217 
L 210.511636 364.174946 
L 211.221818 364.055484 
L 211.932 364.067829 
L 213.352364 363.731545 
L 214.062545 363.418797 
L 214.772727 363.412181 
L 215.482909 363.235416 
L 216.193091 363.192279 
L 216.903273 362.498483 
L 219.033818 362.569231 
L 219.744 362.120003 
L 221.164364 362.101565 
L 222.584727 362.121245 
L 223.294909 361.904075 
L 224.005091 361.909013 
L 224.715273 361.692313 
L 225.425455 361.629355 
L 226.135636 361.858887 
L 227.556 361.926872 
L 228.266182 361.835206 
L 228.976364 361.281816 
L 229.686545 361.243586 
L 231.106909 360.269029 
L 231.817091 360.025859 
L 232.527273 359.622349 
L 233.947636 359.441077 
L 234.657818 358.976434 
L 235.368 358.79944 
L 236.078182 358.85334 
L 236.788364 358.433523 
L 238.208727 358.340836 
L 238.918909 358.49665 
L 241.049455 358.493816 
L 243.18 357.607741 
L 243.890182 357.365348 
L 244.600364 356.736544 
L 245.310545 356.503129 
L 246.730909 356.356062 
L 247.441091 356.399728 
L 248.151273 356.146156 
L 248.861455 355.56047 
L 250.992 355.272516 
L 251.702182 354.597213 
L 253.122545 354.557651 
L 253.832727 354.623932 
L 254.542909 354.116341 
L 255.253091 353.095733 
L 256.673455 353.042885 
L 257.383636 352.133263 
L 258.093818 351.69847 
L 259.514182 351.401122 
L 260.224364 351.442953 
L 261.644727 351.334497 
L 262.354909 351.345265 
L 263.065091 350.437832 
L 264.485455 350.451687 
L 265.905818 350.31394 
L 266.616 350.504094 
L 267.326182 350.095933 
L 268.036364 350.205092 
L 268.746545 349.002285 
L 269.456727 348.71587 
L 270.166909 348.704895 
L 270.877091 348.174203 
L 272.297455 348.14833 
L 273.007636 348.099659 
L 273.717818 348.17411 
L 274.428 347.974797 
L 275.848364 347.982601 
L 276.558545 347.869102 
L 277.268727 347.579897 
L 278.689091 347.316343 
L 279.399273 347.459361 
L 280.109455 347.47951 
L 280.819636 347.178743 
L 282.24 346.957793 
L 282.950182 346.395717 
L 283.660364 345.466179 
L 285.080727 345.390339 
L 286.501091 345.326406 
L 287.211273 345.121171 
L 287.921455 345.217625 
L 288.631636 345.176239 
L 289.341818 345.022348 
L 290.052 345.109222 
L 290.762182 344.995812 
L 291.472364 344.527986 
L 293.602909 344.421945 
L 294.313091 343.846579 
L 295.733455 343.731477 
L 297.153818 343.70752 
L 297.864 343.413503 
L 299.284364 343.247758 
L 300.704727 343.317562 
L 301.414909 343.187804 
L 302.125091 343.226362 
L 302.835273 343.056564 
L 304.255636 343.042093 
L 304.965818 342.336812 
L 306.386182 341.593023 
L 307.806545 341.347498 
L 308.516727 341.119829 
L 309.937091 340.981665 
L 311.357455 341.027168 
L 312.067636 340.913182 
L 312.777818 340.918939 
L 313.488 340.692395 
L 314.198182 340.728268 
L 314.908364 340.637497 
L 315.618545 340.662565 
L 316.328727 340.031605 
L 317.749091 340.056078 
L 319.879636 339.781347 
L 320.589818 339.714325 
L 321.3 339.382611 
L 322.720364 339.276183 
L 323.430545 338.686579 
L 329.112 338.646549 
L 331.242545 338.352303 
L 331.952727 337.905437 
L 333.373091 337.83185 
L 334.083273 337.544896 
L 335.503636 337.512848 
L 336.213818 337.352882 
L 339.054545 337.199876 
L 339.764727 336.77568 
L 340.474909 336.773633 
L 341.895273 336.898399 
L 342.605455 336.973781 
L 343.315636 336.398733 
L 344.736 336.267398 
L 346.156364 335.653779 
L 346.866545 335.634034 
L 348.286909 335.33167 
L 348.997091 335.37281 
L 349.707273 335.234524 
L 350.417455 335.266894 
L 351.127636 335.1778 
L 352.548 334.388919 
L 353.258182 334.12577 
L 353.968364 334.135743 
L 354.678545 333.05755 
L 355.388727 332.787935 
L 358.229455 332.754017 
L 358.939636 332.404924 
L 360.36 332.425265 
L 366.041455 331.8892 
L 366.751636 330.937548 
L 368.172 330.515293 
L 368.882182 330.076376 
L 369.592364 330.093699 
L 370.302545 329.984535 
L 372.433091 330.083933 
L 374.563636 330.092442 
L 375.984 330.140063 
L 378.114545 330.058056 
L 379.534909 329.733925 
L 380.955273 329.667761 
L 382.375636 329.752006 
L 383.085818 328.89232 
L 383.796 328.786341 
L 384.506182 328.405181 
L 385.926545 328.25195 
L 386.636727 327.899527 
L 387.346909 327.700342 
L 388.057091 327.619225 
L 388.767273 326.997229 
L 389.477455 327.011509 
L 390.187636 326.873127 
L 390.897818 326.876719 
L 391.608 326.501786 
L 392.318182 326.509629 
L 393.028364 326.054771 
L 393.738545 325.766322 
L 394.448727 325.209894 
L 396.579273 325.243209 
L 397.289455 325.00358 
L 402.260727 324.832772 
L 402.970909 324.568662 
L 405.101455 324.421024 
L 406.521818 324.179491 
L 407.232 324.146833 
L 407.942182 324.293385 
L 408.652364 324.283147 
L 409.362545 323.840837 
L 412.913455 323.756174 
L 413.623636 323.579224 
L 414.333818 323.588958 
L 415.044 322.891922 
L 415.754182 322.4387 
L 416.464364 322.244941 
L 419.305091 321.967255 
L 420.725455 321.716246 
L 421.435636 321.632142 
L 422.856 321.131633 
L 423.566182 319.965643 
L 424.986545 320.060081 
L 426.406909 319.888639 
L 427.827273 319.899255 
L 428.537455 319.420652 
L 430.668 319.313998 
L 431.378182 318.911246 
L 432.088364 317.889732 
L 434.218909 317.831939 
L 435.639273 317.537659 
L 439.190182 317.520679 
L 439.900364 317.217332 
L 440.610545 317.215762 
L 442.741091 316.247969 
L 448.422545 316.173146 
L 449.132727 315.811145 
L 450.553091 315.426606 
L 451.263273 315.11216 
L 451.973455 315.087533 
L 452.683636 314.300239 
L 453.393818 314.29978 
L 454.814182 314.151659 
L 455.524364 313.508281 
L 456.944727 313.652869 
L 458.365091 313.654901 
L 459.075273 313.05487 
L 459.785455 313.05441 
L 460.495636 312.755464 
L 461.916 312.527016 
L 462.626182 312.031834 
L 463.336364 311.952254 
L 464.046545 310.814399 
L 464.756727 310.303495 
L 465.466909 310.244109 
L 466.887273 310.281173 
L 469.728 310.289242 
L 470.438182 310.369756 
L 471.148364 310.108108 
L 471.858545 310.142725 
L 472.568727 310.014957 
L 473.278909 309.637018 
L 473.989091 309.727936 
L 475.409455 309.721885 
L 476.829818 309.76328 
L 477.54 309.713822 
L 478.250182 309.069491 
L 479.670545 308.949046 
L 480.380727 309.001313 
L 481.090909 308.832066 
L 482.511273 308.78894 
L 483.221455 308.597008 
L 485.352 308.629721 
L 486.062182 308.314874 
L 486.772364 307.515373 
L 488.192727 307.483035 
L 488.902909 307.221304 
L 492.453818 307.253864 
L 493.164 307.067858 
L 493.874182 307.153769 
L 495.294545 307.088549 
L 498.845455 307.268298 
L 500.265818 306.955124 
L 500.976 306.989793 
L 503.106545 306.790708 
L 503.816727 306.896285 
L 504.526909 306.619943 
L 505.237091 306.04156 
L 508.788 305.920837 
L 510.918545 305.788649 
L 511.628727 305.671457 
L 512.338909 305.677097 
L 513.049091 305.4023 
L 513.759273 305.435449 
L 514.469455 305.122531 
L 515.889818 305.087944 
L 516.6 303.578557 
L 517.310182 303.486053 
L 519.440727 303.481353 
L 520.150909 303.310305 
L 521.571273 303.223737 
L 523.701818 302.990717 
L 524.412 302.571304 
L 525.122182 302.469952 
L 525.832364 302.230493 
L 527.252727 302.15576 
L 527.962909 301.845021 
L 529.383273 301.567782 
L 531.513818 301.61068 
L 534.354545 301.19095 
L 535.064727 301.186585 
L 535.774909 300.93546 
L 537.195273 300.874444 
L 537.905455 300.098514 
L 538.615636 299.950424 
L 539.325818 299.950557 
L 540.036 299.512068 
L 540.746182 299.628596 
L 542.166545 299.553574 
L 542.876727 299.607367 
L 543.586909 299.477156 
L 544.297091 299.489462 
L 545.007273 299.111428 
L 545.717455 298.874239 
L 548.558182 298.928661 
L 551.398909 297.972556 
L 552.109091 297.966702 
L 552.819273 298.084622 
L 553.529455 298.08739 
L 556.370182 297.30838 
L 557.080364 297.187301 
L 557.790545 297.190478 
L 558.500727 297.008774 
L 559.921091 297.073143 
L 560.631273 297.047815 
L 561.341455 296.193595 
L 562.051636 296.144078 
L 562.761818 295.80498 
L 565.602545 295.765543 
L 566.312727 295.584738 
L 568.443273 295.632303 
L 569.863636 295.645445 
L 570.573818 295.339722 
L 571.284 295.346708 
L 571.994182 295.187245 
L 572.704364 294.67912 
L 573.414545 294.637952 
L 574.124727 294.396471 
L 577.675636 294.485004 
L 579.806182 294.488782 
L 580.516364 293.893762 
L 581.226545 293.810323 
L 583.357091 293.832563 
L 584.067273 293.731008 
L 586.197818 292.636437 
L 587.618182 292.616872 
L 588.328364 292.479711 
L 589.038545 290.902028 
L 591.169091 290.729681 
L 592.589455 290.032082 
L 593.299636 290.079414 
L 594.72 289.949031 
L 596.140364 290.000789 
L 596.850545 289.853724 
L 597.560727 290.000865 
L 598.270909 289.451124 
L 601.111636 289.193034 
L 601.821818 288.613774 
L 603.242182 288.620386 
L 603.952364 288.137558 
L 604.662545 288.113384 
L 605.372727 287.717057 
L 606.082909 287.527436 
L 606.793091 287.003866 
L 607.503273 285.936091 
L 608.213455 285.552669 
L 610.344 285.232192 
L 611.054182 284.489709 
L 612.474545 284.452123 
L 613.894909 283.741376 
L 614.605091 283.633963 
L 615.315273 283.343346 
L 616.735636 283.208654 
L 620.286545 283.177121 
L 620.996727 282.639346 
L 623.837455 282.429782 
L 624.547636 282.191927 
L 627.388364 282.104217 
L 628.098545 282.096133 
L 628.808727 281.725407 
L 630.939273 281.781738 
L 631.649455 281.690069 
L 632.359636 280.984387 
L 633.78 280.96458 
L 634.490182 280.59899 
L 635.910545 280.574059 
L 636.620727 280.409792 
L 639.461455 280.510565 
L 643.012364 280.665139 
L 643.722545 280.555116 
L 644.432727 280.559101 
L 645.142909 280.101442 
L 646.563273 280.119208 
L 647.273455 279.82072 
L 648.693818 279.836837 
L 650.114182 279.811688 
L 650.824364 279.632043 
L 651.534545 279.63902 
L 652.244727 279.360412 
L 653.665091 279.445713 
L 654.375273 279.053747 
L 656.505818 278.948221 
L 657.926182 278.908481 
L 659.346545 279.162681 
L 660.056727 279.103633 
L 660.766909 278.547234 
L 661.477091 278.546836 
L 662.187273 278.179516 
L 664.317818 278.047383 
L 665.028 278.064967 
L 665.738182 277.173872 
L 667.158545 276.974621 
L 668.578909 277.024614 
L 669.999273 277.027994 
L 670.709455 277.185071 
L 672.129818 277.228256 
L 672.84 276.674309 
L 676.390909 276.359218 
L 677.101091 275.463473 
L 678.521455 275.376813 
L 679.231636 275.009456 
L 679.941818 275.213014 
L 680.652 274.985363 
L 682.782545 274.998201 
L 683.492727 274.801294 
L 684.913091 274.782541 
L 685.623273 274.540305 
L 687.043636 274.510655 
L 687.753818 274.049388 
L 691.304727 274.063292 
L 694.145455 274.078785 
L 694.855636 273.21935 
L 696.986182 273.14828 
L 697.696364 273.137188 
L 698.406545 272.591548 
L 699.826909 272.655404 
L 700.537091 272.369152 
L 704.088 272.397954 
L 704.798182 272.170093 
L 705.508364 271.761371 
L 706.218545 271.533564 
L 706.928727 271.623849 
L 707.638909 271.332562 
L 709.059273 271.287155 
L 709.769455 270.57707 
L 711.9 270.531437 
L 713.320364 269.732752 
L 714.030545 269.472431 
L 714.740727 269.470602 
L 715.450909 269.34214 
L 716.871273 269.30799 
L 717.581455 269.27845 
L 719.001818 268.924136 
L 720.422182 268.9582 
L 721.132364 268.743311 
L 722.552727 268.720569 
L 723.973091 268.43133 
L 725.393455 268.398322 
L 726.103636 268.190683 
L 726.813818 268.166574 
L 727.524 267.654328 
L 728.234182 267.411346 
L 728.944364 267.457158 
L 729.654545 266.559539 
L 731.074909 266.597737 
L 731.785091 266.286491 
L 732.495273 266.485653 
L 733.205455 266.216533 
L 734.625818 266.006887 
L 735.336 264.954894 
L 737.466545 265.045053 
L 738.886909 264.942244 
L 740.307273 264.9123 
L 741.017455 264.917207 
L 741.727636 264.641341 
L 742.437818 264.572858 
L 743.148 264.628047 
L 743.858182 264.405041 
L 745.278545 264.377259 
L 746.698909 263.724188 
L 748.119273 263.732893 
L 749.539636 263.743825 
L 750.249818 263.531141 
L 753.800727 263.62515 
L 754.510909 263.373916 
L 756.641455 262.987358 
L 757.351636 263.005981 
L 758.061818 262.464913 
L 758.772 262.38165 
L 760.192364 261.868429 
L 763.743273 261.904792 
L 765.163636 261.460637 
L 767.294182 261.343974 
L 768.004364 261.253103 
L 768.714545 260.229007 
L 769.424727 260.232146 
L 770.134909 260.003694 
L 772.265455 259.73639 
L 773.685818 259.636621 
L 775.106182 259.639374 
L 776.526545 259.626812 
L 777.236727 259.378647 
L 777.946909 259.371843 
L 780.787636 258.895583 
L 783.628364 258.848938 
L 784.338545 258.329077 
L 786.469091 257.982948 
L 787.179273 257.441331 
L 787.889455 257.257338 
L 789.309818 257.171669 
L 790.730182 255.628455 
L 791.440364 255.518967 
L 792.150545 255.070375 
L 792.860727 255.076434 
L 794.281091 254.563392 
L 794.991273 254.004185 
L 796.411636 253.958649 
L 797.121818 253.82111 
L 797.832 253.459428 
L 799.252364 253.384908 
L 800.672727 253.359526 
L 802.803273 252.949253 
L 803.513455 252.376427 
L 804.933818 252.307729 
L 806.354182 252.226101 
L 807.064364 251.975484 
L 810.615273 252.042036 
L 811.325455 252.049415 
L 812.035636 251.807876 
L 812.745818 251.259002 
L 814.876364 251.070411 
L 816.296727 250.811702 
L 817.717091 250.724432 
L 818.427273 250.43528 
L 819.847636 250.378417 
L 821.268 250.444779 
L 821.978182 250.199719 
L 822.688364 250.120719 
L 823.398545 249.139994 
L 824.108727 249.234305 
L 826.239273 249.053834 
L 826.949455 249.198551 
L 827.659636 248.605484 
L 828.369818 248.563089 
L 829.08 248.387924 
L 831.210545 248.366519 
L 833.341091 248.272248 
L 834.051273 248.103547 
L 835.471636 248.143481 
L 836.181818 247.948567 
L 837.602182 247.848757 
L 838.312364 247.603878 
L 839.022545 247.628332 
L 839.732727 247.453276 
L 842.573455 247.429324 
L 843.283636 247.28287 
L 843.993818 247.390791 
L 846.124364 246.952677 
L 846.834545 246.901159 
L 848.254909 246.968436 
L 848.965091 246.963359 
L 850.385455 246.051597 
L 851.095636 245.770629 
L 853.226182 245.782956 
L 853.936364 245.748519 
L 854.646545 244.716841 
L 855.356727 244.637749 
L 856.066909 244.4034 
L 858.197455 242.914642 
L 860.328 242.68638 
L 861.038182 242.329008 
L 862.458545 242.27114 
L 863.168727 241.721427 
L 865.299273 241.381271 
L 866.719636 241.367493 
L 867.429818 241.081515 
L 868.14 240.985478 
L 868.850182 240.490619 
L 870.270545 240.502479 
L 870.980727 240.016235 
L 871.690909 240.018689 
L 871.690909 240.018689 
" clip-path="url(#p26bccf2eb9)" style="fill: none; stroke: #2ca02c; stroke-width: 1.5; stroke-linecap: square"/>
   </g>
   <g id="patch_3">
    <path d="M 126 384.48 
L 126 51.84 
" style="fill: none; stroke: #000000; stroke-width: 0.8; stroke-linejoin: miter; stroke-linecap: square"/>
   </g>
   <g id="patch_4">
    <path d="M 907.2 384.48 
L 907.2 51.84 
" style="fill: none; stroke: #000000; stroke-width: 0.8; stroke-linejoin: miter; stroke-linecap: square"/>
   </g>
   <g id="patch_5">
    <path d="M 126 384.48 
L 907.2 384.48 
" style="fill: none; stroke: #000000; stroke-width: 0.8; stroke-linejoin: miter; stroke-linecap: square"/>
   </g>
   <g id="patch_6">
    <path d="M 126 51.84 
L 907.2 51.84 
" style="fill: none; stroke: #000000; stroke-width: 0.8; stroke-linejoin: miter; stroke-linecap: square"/>
   </g>
   <g id="text_14">
    <!-- Quadratic Covariation of $X_t$ and $S_t$ -->
    <g transform="translate(414.54 45.84)scale(0.12 -0.12)">
     <defs>
      <path id="DejaVuSans-66" d="M 2375 4863 
L 2375 4384 
L 1825 4384 
Q 1516 4384 1395 4259 
Q 1275 4134 1275 3809 
L 1275 3500 
L 2222 3500 
L 2222 3053 
L 1275 3053 
L 1275 0 
L 697 0 
L 697 3053 
L 147 3053 
L 147 3500 
L 697 3500 
L 697 3744 
Q 697 4328 969 4595 
Q 1241 4863 1831 4863 
L 2375 4863 
z
" transform="scale(0.015625)"/>
      <path id="DejaVuSans-Oblique-58" d="M 878 4666 
L 1516 4666 
L 2316 2981 
L 3763 4666 
L 4500 4666 
L 2578 2438 
L 3738 0 
L 3103 0 
L 2163 1966 
L 459 0 
L -275 0 
L 1906 2509 
L 878 4666 
z
" transform="scale(0.015625)"/>
      <path id="DejaVuSans-Oblique-74" d="M 2706 3500 
L 2619 3053 
L 1472 3053 
L 1100 1153 
Q 1081 1047 1072 975 
Q 1063 903 1063 863 
Q 1063 663 1183 572 
Q 1303 481 1569 481 
L 2150 481 
L 2053 0 
L 1503 0 
Q 991 0 739 200 
Q 488 400 488 806 
Q 488 878 497 964 
Q 506 1050 525 1153 
L 897 3053 
L 409 3053 
L 500 3500 
L 978 3500 
L 1172 4494 
L 1747 4494 
L 1556 3500 
L 2706 3500 
z
" transform="scale(0.015625)"/>
      <path id="DejaVuSans-Oblique-53" d="M 3859 4513 
L 3738 3897 
Q 3422 4066 3111 4152 
Q 2800 4238 2509 4238 
Q 1944 4238 1609 3991 
Q 1275 3744 1275 3334 
Q 1275 3109 1398 2989 
Q 1522 2869 2034 2731 
L 2413 2638 
Q 3053 2472 3303 2217 
Q 3553 1963 3553 1503 
Q 3553 797 2998 353 
Q 2444 -91 1538 -91 
Q 1166 -91 791 -17 
Q 416 56 38 206 
L 166 856 
Q 513 641 861 531 
Q 1209 422 1556 422 
Q 2147 422 2503 684 
Q 2859 947 2859 1369 
Q 2859 1650 2717 1795 
Q 2575 1941 2106 2059 
L 1728 2156 
Q 1081 2325 845 2545 
Q 609 2766 609 3163 
Q 609 3859 1145 4304 
Q 1681 4750 2541 4750 
Q 2875 4750 3203 4690 
Q 3531 4631 3859 4513 
z
" transform="scale(0.015625)"/>
     </defs>
     <use xlink:href="#DejaVuSans-51" transform="translate(0 0.015625)"/>
     <use xlink:href="#DejaVuSans-75" transform="translate(78.710938 0.015625)"/>
     <use xlink:href="#DejaVuSans-61" transform="translate(142.089844 0.015625)"/>
     <use xlink:href="#DejaVuSans-64" transform="translate(203.369141 0.015625)"/>
     <use xlink:href="#DejaVuSans-72" transform="translate(266.845703 0.015625)"/>
     <use xlink:href="#DejaVuSans-61" transform="translate(307.958984 0.015625)"/>
     <use xlink:href="#DejaVuSans-74" transform="translate(369.238281 0.015625)"/>
     <use xlink:href="#DejaVuSans-69" transform="translate(408.447266 0.015625)"/>
     <use xlink:href="#DejaVuSans-63" transform="translate(436.230469 0.015625)"/>
     <use xlink:href="#DejaVuSans-20" transform="translate(491.210938 0.015625)"/>
     <use xlink:href="#DejaVuSans-43" transform="translate(522.998047 0.015625)"/>
     <use xlink:href="#DejaVuSans-6f" transform="translate(592.822266 0.015625)"/>
     <use xlink:href="#DejaVuSans-76" transform="translate(654.003906 0.015625)"/>
     <use xlink:href="#DejaVuSans-61" transform="translate(713.183594 0.015625)"/>
     <use xlink:href="#DejaVuSans-72" transform="translate(774.462891 0.015625)"/>
     <use xlink:href="#DejaVuSans-69" transform="translate(815.576172 0.015625)"/>
     <use xlink:href="#DejaVuSans-61" transform="translate(843.359375 0.015625)"/>
     <use xlink:href="#DejaVuSans-74" transform="translate(904.638672 0.015625)"/>
     <use xlink:href="#DejaVuSans-69" transform="translate(943.847656 0.015625)"/>
     <use xlink:href="#DejaVuSans-6f" transform="translate(971.630859 0.015625)"/>
     <use xlink:href="#DejaVuSans-6e" transform="translate(1032.8125 0.015625)"/>
     <use xlink:href="#DejaVuSans-20" transform="translate(1096.191406 0.015625)"/>
     <use xlink:href="#DejaVuSans-6f" transform="translate(1127.978516 0.015625)"/>
     <use xlink:href="#DejaVuSans-66" transform="translate(1189.160156 0.015625)"/>
     <use xlink:href="#DejaVuSans-20" transform="translate(1224.365234 0.015625)"/>
     <use xlink:href="#DejaVuSans-Oblique-58" transform="translate(1256.152344 0.015625)"/>
     <use xlink:href="#DejaVuSans-Oblique-74" transform="translate(1324.658203 -16.390625)scale(0.7)"/>
     <use xlink:href="#DejaVuSans-20" transform="translate(1354.838867 0.015625)"/>
     <use xlink:href="#DejaVuSans-61" transform="translate(1386.625977 0.015625)"/>
     <use xlink:href="#DejaVuSans-6e" transform="translate(1447.905273 0.015625)"/>
     <use xlink:href="#DejaVuSans-64" transform="translate(1511.28418 0.015625)"/>
     <use xlink:href="#DejaVuSans-20" transform="translate(1574.760742 0.015625)"/>
     <use xlink:href="#DejaVuSans-Oblique-53" transform="translate(1606.547852 0.015625)"/>
     <use xlink:href="#DejaVuSans-Oblique-74" transform="translate(1670.024414 -16.390625)scale(0.7)"/>
    </g>
   </g>
   <g id="legend_1">
    <g id="patch_7">
     <path d="M 698.1 103.874375 
L 900.2 103.874375 
Q 902.2 103.874375 902.2 101.874375 
L 902.2 58.84 
Q 902.2 56.84 900.2 56.84 
L 698.1 56.84 
Q 696.1 56.84 696.1 58.84 
L 696.1 101.874375 
Q 696.1 103.874375 698.1 103.874375 
z
" style="fill: #ffffff; opacity: 0.8; stroke: #cccccc; stroke-linejoin: miter"/>
    </g>
    <g id="line2d_15">
     <path d="M 700.1 64.938437 
L 710.1 64.938437 
L 720.1 64.938437 
" style="fill: none; stroke: #1f77b4; stroke-width: 1.5; stroke-linecap: square"/>
    </g>
    <g id="text_15">
     <!-- $X_t$ -->
     <g transform="translate(728.1 68.438437)scale(0.1 -0.1)">
      <use xlink:href="#DejaVuSans-Oblique-58" transform="translate(0 0.09375)"/>
      <use xlink:href="#DejaVuSans-Oblique-74" transform="translate(68.505859 -16.3125)scale(0.7)"/>
     </g>
    </g>
    <g id="line2d_16">
     <path d="M 700.1 79.616562 
L 710.1 79.616562 
L 720.1 79.616562 
" style="fill: none; stroke: #ff7f0e; stroke-width: 1.5; stroke-linecap: square"/>
    </g>
    <g id="text_16">
     <!-- $S_t$ -->
     <g transform="translate(728.1 83.116562)scale(0.1 -0.1)">
      <use xlink:href="#DejaVuSans-Oblique-53" transform="translate(0 0.78125)"/>
      <use xlink:href="#DejaVuSans-Oblique-74" transform="translate(63.476562 -15.625)scale(0.7)"/>
     </g>
    </g>
    <g id="line2d_17">
     <path d="M 700.1 94.294687 
L 710.1 94.294687 
L 720.1 94.294687 
" style="fill: none; stroke: #2ca02c; stroke-width: 1.5; stroke-linecap: square"/>
    </g>
    <g id="text_17">
     <!-- Quadratic Covariation of $X_t$ and $S_t$ -->
     <g transform="translate(728.1 97.794687)scale(0.1 -0.1)">
      <use xlink:href="#DejaVuSans-51" transform="translate(0 0.015625)"/>
      <use xlink:href="#DejaVuSans-75" transform="translate(78.710938 0.015625)"/>
      <use xlink:href="#DejaVuSans-61" transform="translate(142.089844 0.015625)"/>
      <use xlink:href="#DejaVuSans-64" transform="translate(203.369141 0.015625)"/>
      <use xlink:href="#DejaVuSans-72" transform="translate(266.845703 0.015625)"/>
      <use xlink:href="#DejaVuSans-61" transform="translate(307.958984 0.015625)"/>
      <use xlink:href="#DejaVuSans-74" transform="translate(369.238281 0.015625)"/>
      <use xlink:href="#DejaVuSans-69" transform="translate(408.447266 0.015625)"/>
      <use xlink:href="#DejaVuSans-63" transform="translate(436.230469 0.015625)"/>
      <use xlink:href="#DejaVuSans-20" transform="translate(491.210938 0.015625)"/>
      <use xlink:href="#DejaVuSans-43" transform="translate(522.998047 0.015625)"/>
      <use xlink:href="#DejaVuSans-6f" transform="translate(592.822266 0.015625)"/>
      <use xlink:href="#DejaVuSans-76" transform="translate(654.003906 0.015625)"/>
      <use xlink:href="#DejaVuSans-61" transform="translate(713.183594 0.015625)"/>
      <use xlink:href="#DejaVuSans-72" transform="translate(774.462891 0.015625)"/>
      <use xlink:href="#DejaVuSans-69" transform="translate(815.576172 0.015625)"/>
      <use xlink:href="#DejaVuSans-61" transform="translate(843.359375 0.015625)"/>
      <use xlink:href="#DejaVuSans-74" transform="translate(904.638672 0.015625)"/>
      <use xlink:href="#DejaVuSans-69" transform="translate(943.847656 0.015625)"/>
      <use xlink:href="#DejaVuSans-6f" transform="translate(971.630859 0.015625)"/>
      <use xlink:href="#DejaVuSans-6e" transform="translate(1032.8125 0.015625)"/>
      <use xlink:href="#DejaVuSans-20" transform="translate(1096.191406 0.015625)"/>
      <use xlink:href="#DejaVuSans-6f" transform="translate(1127.978516 0.015625)"/>
      <use xlink:href="#DejaVuSans-66" transform="translate(1189.160156 0.015625)"/>
      <use xlink:href="#DejaVuSans-20" transform="translate(1224.365234 0.015625)"/>
      <use xlink:href="#DejaVuSans-Oblique-58" transform="translate(1256.152344 0.015625)"/>
      <use xlink:href="#DejaVuSans-Oblique-74" transform="translate(1324.658203 -16.390625)scale(0.7)"/>
      <use xlink:href="#DejaVuSans-20" transform="translate(1354.838867 0.015625)"/>
      <use xlink:href="#DejaVuSans-61" transform="translate(1386.625977 0.015625)"/>
      <use xlink:href="#DejaVuSans-6e" transform="translate(1447.905273 0.015625)"/>
      <use xlink:href="#DejaVuSans-64" transform="translate(1511.28418 0.015625)"/>
      <use xlink:href="#DejaVuSans-20" transform="translate(1574.760742 0.015625)"/>
      <use xlink:href="#DejaVuSans-Oblique-53" transform="translate(1606.547852 0.015625)"/>
      <use xlink:href="#DejaVuSans-Oblique-74" transform="translate(1670.024414 -16.390625)scale(0.7)"/>
     </g>
    </g>
   </g>
  </g>
 </g>
 <defs>
  <clipPath id="p26bccf2eb9">
   <rect x="126" y="51.84" width="781.2" height="332.64"/>
  </clipPath>
 </defs>
</svg>
