<?xml version="1.0" encoding="utf-8" standalone="no"?>
<!DOCTYPE svg PUBLIC "-//W3C//DTD SVG 1.1//EN"
  "http://www.w3.org/Graphics/SVG/1.1/DTD/svg11.dtd">
<svg xmlns:xlink="http://www.w3.org/1999/xlink" width="1008pt" height="432pt" viewBox="0 0 1008 432" xmlns="http://www.w3.org/2000/svg" version="1.1">
 <metadata>
  <rdf:RDF xmlns:dc="http://purl.org/dc/elements/1.1/" xmlns:cc="http://creativecommons.org/ns#" xmlns:rdf="http://www.w3.org/1999/02/22-rdf-syntax-ns#">
   <cc:Work>
    <dc:type rdf:resource="http://purl.org/dc/dcmitype/StillImage"/>
    <dc:date>2023-12-22T17:10:00.681497</dc:date>
    <dc:format>image/svg+xml</dc:format>
    <dc:creator>
     <cc:Agent>
      <dc:title>Matplotlib v3.5.2, https://matplotlib.org/</dc:title>
     </cc:Agent>
    </dc:creator>
   </cc:Work>
  </rdf:RDF>
 </metadata>
 <defs>
  <style type="text/css">*{stroke-linejoin: round; stroke-linecap: butt}</style>
 </defs>
 <g id="figure_1">
  <g id="patch_1">
   <path d="M 0 432 
L 1008 432 
L 1008 0 
L 0 0 
z
" style="fill: #ffffff"/>
  </g>
  <g id="axes_1">
   <g id="patch_2">
    <path d="M 126 384.48 
L 907.2 384.48 
L 907.2 51.84 
L 126 51.84 
z
" style="fill: #ffffff"/>
   </g>
   <g id="matplotlib.axis_1">
    <g id="xtick_1">
     <g id="line2d_1">
      <defs>
       <path id="m6ffe42dae0" d="M 0 0 
L 0 3.5 
" style="stroke: #000000; stroke-width: 0.8"/>
      </defs>
      <g>
       <use xlink:href="#m6ffe42dae0" x="161.509091" y="384.48" style="stroke: #000000; stroke-width: 0.8"/>
      </g>
     </g>
     <g id="text_1">
      <!-- 0.0 -->
      <g transform="translate(153.557528 399.078438)scale(0.1 -0.1)">
       <defs>
        <path id="DejaVuSans-30" d="M 2034 4250 
Q 1547 4250 1301 3770 
Q 1056 3291 1056 2328 
Q 1056 1369 1301 889 
Q 1547 409 2034 409 
Q 2525 409 2770 889 
Q 3016 1369 3016 2328 
Q 3016 3291 2770 3770 
Q 2525 4250 2034 4250 
z
M 2034 4750 
Q 2819 4750 3233 4129 
Q 3647 3509 3647 2328 
Q 3647 1150 3233 529 
Q 2819 -91 2034 -91 
Q 1250 -91 836 529 
Q 422 1150 422 2328 
Q 422 3509 836 4129 
Q 1250 4750 2034 4750 
z
" transform="scale(0.015625)"/>
        <path id="DejaVuSans-2e" d="M 684 794 
L 1344 794 
L 1344 0 
L 684 0 
L 684 794 
z
" transform="scale(0.015625)"/>
       </defs>
       <use xlink:href="#DejaVuSans-30"/>
       <use xlink:href="#DejaVuSans-2e" x="63.623047"/>
       <use xlink:href="#DejaVuSans-30" x="95.410156"/>
      </g>
     </g>
    </g>
    <g id="xtick_2">
     <g id="line2d_2">
      <g>
       <use xlink:href="#m6ffe42dae0" x="303.545455" y="384.48" style="stroke: #000000; stroke-width: 0.8"/>
      </g>
     </g>
     <g id="text_2">
      <!-- 0.2 -->
      <g transform="translate(295.593892 399.078438)scale(0.1 -0.1)">
       <defs>
        <path id="DejaVuSans-32" d="M 1228 531 
L 3431 531 
L 3431 0 
L 469 0 
L 469 531 
Q 828 903 1448 1529 
Q 2069 2156 2228 2338 
Q 2531 2678 2651 2914 
Q 2772 3150 2772 3378 
Q 2772 3750 2511 3984 
Q 2250 4219 1831 4219 
Q 1534 4219 1204 4116 
Q 875 4013 500 3803 
L 500 4441 
Q 881 4594 1212 4672 
Q 1544 4750 1819 4750 
Q 2544 4750 2975 4387 
Q 3406 4025 3406 3419 
Q 3406 3131 3298 2873 
Q 3191 2616 2906 2266 
Q 2828 2175 2409 1742 
Q 1991 1309 1228 531 
z
" transform="scale(0.015625)"/>
       </defs>
       <use xlink:href="#DejaVuSans-30"/>
       <use xlink:href="#DejaVuSans-2e" x="63.623047"/>
       <use xlink:href="#DejaVuSans-32" x="95.410156"/>
      </g>
     </g>
    </g>
    <g id="xtick_3">
     <g id="line2d_3">
      <g>
       <use xlink:href="#m6ffe42dae0" x="445.581818" y="384.48" style="stroke: #000000; stroke-width: 0.8"/>
      </g>
     </g>
     <g id="text_3">
      <!-- 0.4 -->
      <g transform="translate(437.630256 399.078438)scale(0.1 -0.1)">
       <defs>
        <path id="DejaVuSans-34" d="M 2419 4116 
L 825 1625 
L 2419 1625 
L 2419 4116 
z
M 2253 4666 
L 3047 4666 
L 3047 1625 
L 3713 1625 
L 3713 1100 
L 3047 1100 
L 3047 0 
L 2419 0 
L 2419 1100 
L 313 1100 
L 313 1709 
L 2253 4666 
z
" transform="scale(0.015625)"/>
       </defs>
       <use xlink:href="#DejaVuSans-30"/>
       <use xlink:href="#DejaVuSans-2e" x="63.623047"/>
       <use xlink:href="#DejaVuSans-34" x="95.410156"/>
      </g>
     </g>
    </g>
    <g id="xtick_4">
     <g id="line2d_4">
      <g>
       <use xlink:href="#m6ffe42dae0" x="587.618182" y="384.48" style="stroke: #000000; stroke-width: 0.8"/>
      </g>
     </g>
     <g id="text_4">
      <!-- 0.6 -->
      <g transform="translate(579.666619 399.078438)scale(0.1 -0.1)">
       <defs>
        <path id="DejaVuSans-36" d="M 2113 2584 
Q 1688 2584 1439 2293 
Q 1191 2003 1191 1497 
Q 1191 994 1439 701 
Q 1688 409 2113 409 
Q 2538 409 2786 701 
Q 3034 994 3034 1497 
Q 3034 2003 2786 2293 
Q 2538 2584 2113 2584 
z
M 3366 4563 
L 3366 3988 
Q 3128 4100 2886 4159 
Q 2644 4219 2406 4219 
Q 1781 4219 1451 3797 
Q 1122 3375 1075 2522 
Q 1259 2794 1537 2939 
Q 1816 3084 2150 3084 
Q 2853 3084 3261 2657 
Q 3669 2231 3669 1497 
Q 3669 778 3244 343 
Q 2819 -91 2113 -91 
Q 1303 -91 875 529 
Q 447 1150 447 2328 
Q 447 3434 972 4092 
Q 1497 4750 2381 4750 
Q 2619 4750 2861 4703 
Q 3103 4656 3366 4563 
z
" transform="scale(0.015625)"/>
       </defs>
       <use xlink:href="#DejaVuSans-30"/>
       <use xlink:href="#DejaVuSans-2e" x="63.623047"/>
       <use xlink:href="#DejaVuSans-36" x="95.410156"/>
      </g>
     </g>
    </g>
    <g id="xtick_5">
     <g id="line2d_5">
      <g>
       <use xlink:href="#m6ffe42dae0" x="729.654545" y="384.48" style="stroke: #000000; stroke-width: 0.8"/>
      </g>
     </g>
     <g id="text_5">
      <!-- 0.8 -->
      <g transform="translate(721.702983 399.078438)scale(0.1 -0.1)">
       <defs>
        <path id="DejaVuSans-38" d="M 2034 2216 
Q 1584 2216 1326 1975 
Q 1069 1734 1069 1313 
Q 1069 891 1326 650 
Q 1584 409 2034 409 
Q 2484 409 2743 651 
Q 3003 894 3003 1313 
Q 3003 1734 2745 1975 
Q 2488 2216 2034 2216 
z
M 1403 2484 
Q 997 2584 770 2862 
Q 544 3141 544 3541 
Q 544 4100 942 4425 
Q 1341 4750 2034 4750 
Q 2731 4750 3128 4425 
Q 3525 4100 3525 3541 
Q 3525 3141 3298 2862 
Q 3072 2584 2669 2484 
Q 3125 2378 3379 2068 
Q 3634 1759 3634 1313 
Q 3634 634 3220 271 
Q 2806 -91 2034 -91 
Q 1263 -91 848 271 
Q 434 634 434 1313 
Q 434 1759 690 2068 
Q 947 2378 1403 2484 
z
M 1172 3481 
Q 1172 3119 1398 2916 
Q 1625 2713 2034 2713 
Q 2441 2713 2670 2916 
Q 2900 3119 2900 3481 
Q 2900 3844 2670 4047 
Q 2441 4250 2034 4250 
Q 1625 4250 1398 4047 
Q 1172 3844 1172 3481 
z
" transform="scale(0.015625)"/>
       </defs>
       <use xlink:href="#DejaVuSans-30"/>
       <use xlink:href="#DejaVuSans-2e" x="63.623047"/>
       <use xlink:href="#DejaVuSans-38" x="95.410156"/>
      </g>
     </g>
    </g>
    <g id="xtick_6">
     <g id="line2d_6">
      <g>
       <use xlink:href="#m6ffe42dae0" x="871.690909" y="384.48" style="stroke: #000000; stroke-width: 0.8"/>
      </g>
     </g>
     <g id="text_6">
      <!-- 1.0 -->
      <g transform="translate(863.739347 399.078438)scale(0.1 -0.1)">
       <defs>
        <path id="DejaVuSans-31" d="M 794 531 
L 1825 531 
L 1825 4091 
L 703 3866 
L 703 4441 
L 1819 4666 
L 2450 4666 
L 2450 531 
L 3481 531 
L 3481 0 
L 794 0 
L 794 531 
z
" transform="scale(0.015625)"/>
       </defs>
       <use xlink:href="#DejaVuSans-31"/>
       <use xlink:href="#DejaVuSans-2e" x="63.623047"/>
       <use xlink:href="#DejaVuSans-30" x="95.410156"/>
      </g>
     </g>
    </g>
    <g id="text_7">
     <!-- Time -->
     <g transform="translate(504.366406 412.756563)scale(0.1 -0.1)">
      <defs>
       <path id="DejaVuSans-54" d="M -19 4666 
L 3928 4666 
L 3928 4134 
L 2272 4134 
L 2272 0 
L 1638 0 
L 1638 4134 
L -19 4134 
L -19 4666 
z
" transform="scale(0.015625)"/>
       <path id="DejaVuSans-69" d="M 603 3500 
L 1178 3500 
L 1178 0 
L 603 0 
L 603 3500 
z
M 603 4863 
L 1178 4863 
L 1178 4134 
L 603 4134 
L 603 4863 
z
" transform="scale(0.015625)"/>
       <path id="DejaVuSans-6d" d="M 3328 2828 
Q 3544 3216 3844 3400 
Q 4144 3584 4550 3584 
Q 5097 3584 5394 3201 
Q 5691 2819 5691 2113 
L 5691 0 
L 5113 0 
L 5113 2094 
Q 5113 2597 4934 2840 
Q 4756 3084 4391 3084 
Q 3944 3084 3684 2787 
Q 3425 2491 3425 1978 
L 3425 0 
L 2847 0 
L 2847 2094 
Q 2847 2600 2669 2842 
Q 2491 3084 2119 3084 
Q 1678 3084 1418 2786 
Q 1159 2488 1159 1978 
L 1159 0 
L 581 0 
L 581 3500 
L 1159 3500 
L 1159 2956 
Q 1356 3278 1631 3431 
Q 1906 3584 2284 3584 
Q 2666 3584 2933 3390 
Q 3200 3197 3328 2828 
z
" transform="scale(0.015625)"/>
       <path id="DejaVuSans-65" d="M 3597 1894 
L 3597 1613 
L 953 1613 
Q 991 1019 1311 708 
Q 1631 397 2203 397 
Q 2534 397 2845 478 
Q 3156 559 3463 722 
L 3463 178 
Q 3153 47 2828 -22 
Q 2503 -91 2169 -91 
Q 1331 -91 842 396 
Q 353 884 353 1716 
Q 353 2575 817 3079 
Q 1281 3584 2069 3584 
Q 2775 3584 3186 3129 
Q 3597 2675 3597 1894 
z
M 3022 2063 
Q 3016 2534 2758 2815 
Q 2500 3097 2075 3097 
Q 1594 3097 1305 2825 
Q 1016 2553 972 2059 
L 3022 2063 
z
" transform="scale(0.015625)"/>
      </defs>
      <use xlink:href="#DejaVuSans-54"/>
      <use xlink:href="#DejaVuSans-69" x="57.958984"/>
      <use xlink:href="#DejaVuSans-6d" x="85.742188"/>
      <use xlink:href="#DejaVuSans-65" x="183.154297"/>
     </g>
    </g>
   </g>
   <g id="matplotlib.axis_2">
    <g id="ytick_1">
     <g id="line2d_7">
      <defs>
       <path id="m0ccd7b11ce" d="M 0 0 
L -3.5 0 
" style="stroke: #000000; stroke-width: 0.8"/>
      </defs>
      <g>
       <use xlink:href="#m0ccd7b11ce" x="126" y="369.3656" style="stroke: #000000; stroke-width: 0.8"/>
      </g>
     </g>
     <g id="text_8">
      <!-- 0 -->
      <g transform="translate(112.6375 373.164818)scale(0.1 -0.1)">
       <use xlink:href="#DejaVuSans-30"/>
      </g>
     </g>
    </g>
    <g id="ytick_2">
     <g id="line2d_8">
      <g>
       <use xlink:href="#m0ccd7b11ce" x="126" y="324.831468" style="stroke: #000000; stroke-width: 0.8"/>
      </g>
     </g>
     <g id="text_9">
      <!-- 1 -->
      <g transform="translate(112.6375 328.630687)scale(0.1 -0.1)">
       <use xlink:href="#DejaVuSans-31"/>
      </g>
     </g>
    </g>
    <g id="ytick_3">
     <g id="line2d_9">
      <g>
       <use xlink:href="#m0ccd7b11ce" x="126" y="280.297337" style="stroke: #000000; stroke-width: 0.8"/>
      </g>
     </g>
     <g id="text_10">
      <!-- 2 -->
      <g transform="translate(112.6375 284.096556)scale(0.1 -0.1)">
       <use xlink:href="#DejaVuSans-32"/>
      </g>
     </g>
    </g>
    <g id="ytick_4">
     <g id="line2d_10">
      <g>
       <use xlink:href="#m0ccd7b11ce" x="126" y="235.763205" style="stroke: #000000; stroke-width: 0.8"/>
      </g>
     </g>
     <g id="text_11">
      <!-- 3 -->
      <g transform="translate(112.6375 239.562424)scale(0.1 -0.1)">
       <defs>
        <path id="DejaVuSans-33" d="M 2597 2516 
Q 3050 2419 3304 2112 
Q 3559 1806 3559 1356 
Q 3559 666 3084 287 
Q 2609 -91 1734 -91 
Q 1441 -91 1130 -33 
Q 819 25 488 141 
L 488 750 
Q 750 597 1062 519 
Q 1375 441 1716 441 
Q 2309 441 2620 675 
Q 2931 909 2931 1356 
Q 2931 1769 2642 2001 
Q 2353 2234 1838 2234 
L 1294 2234 
L 1294 2753 
L 1863 2753 
Q 2328 2753 2575 2939 
Q 2822 3125 2822 3475 
Q 2822 3834 2567 4026 
Q 2313 4219 1838 4219 
Q 1578 4219 1281 4162 
Q 984 4106 628 3988 
L 628 4550 
Q 988 4650 1302 4700 
Q 1616 4750 1894 4750 
Q 2613 4750 3031 4423 
Q 3450 4097 3450 3541 
Q 3450 3153 3228 2886 
Q 3006 2619 2597 2516 
z
" transform="scale(0.015625)"/>
       </defs>
       <use xlink:href="#DejaVuSans-33"/>
      </g>
     </g>
    </g>
    <g id="ytick_5">
     <g id="line2d_11">
      <g>
       <use xlink:href="#m0ccd7b11ce" x="126" y="191.229074" style="stroke: #000000; stroke-width: 0.8"/>
      </g>
     </g>
     <g id="text_12">
      <!-- 4 -->
      <g transform="translate(112.6375 195.028293)scale(0.1 -0.1)">
       <use xlink:href="#DejaVuSans-34"/>
      </g>
     </g>
    </g>
    <g id="ytick_6">
     <g id="line2d_12">
      <g>
       <use xlink:href="#m0ccd7b11ce" x="126" y="146.694942" style="stroke: #000000; stroke-width: 0.8"/>
      </g>
     </g>
     <g id="text_13">
      <!-- 5 -->
      <g transform="translate(112.6375 150.494161)scale(0.1 -0.1)">
       <defs>
        <path id="DejaVuSans-35" d="M 691 4666 
L 3169 4666 
L 3169 4134 
L 1269 4134 
L 1269 2991 
Q 1406 3038 1543 3061 
Q 1681 3084 1819 3084 
Q 2600 3084 3056 2656 
Q 3513 2228 3513 1497 
Q 3513 744 3044 326 
Q 2575 -91 1722 -91 
Q 1428 -91 1123 -41 
Q 819 9 494 109 
L 494 744 
Q 775 591 1075 516 
Q 1375 441 1709 441 
Q 2250 441 2565 725 
Q 2881 1009 2881 1497 
Q 2881 1984 2565 2268 
Q 2250 2553 1709 2553 
Q 1456 2553 1204 2497 
Q 953 2441 691 2322 
L 691 4666 
z
" transform="scale(0.015625)"/>
       </defs>
       <use xlink:href="#DejaVuSans-35"/>
      </g>
     </g>
    </g>
    <g id="ytick_7">
     <g id="line2d_13">
      <g>
       <use xlink:href="#m0ccd7b11ce" x="126" y="102.160811" style="stroke: #000000; stroke-width: 0.8"/>
      </g>
     </g>
     <g id="text_14">
      <!-- 6 -->
      <g transform="translate(112.6375 105.96003)scale(0.1 -0.1)">
       <use xlink:href="#DejaVuSans-36"/>
      </g>
     </g>
    </g>
    <g id="ytick_8">
     <g id="line2d_14">
      <g>
       <use xlink:href="#m0ccd7b11ce" x="126" y="57.626679" style="stroke: #000000; stroke-width: 0.8"/>
      </g>
     </g>
     <g id="text_15">
      <!-- 7 -->
      <g transform="translate(112.6375 61.425898)scale(0.1 -0.1)">
       <defs>
        <path id="DejaVuSans-37" d="M 525 4666 
L 3525 4666 
L 3525 4397 
L 1831 0 
L 1172 0 
L 2766 4134 
L 525 4134 
L 525 4666 
z
" transform="scale(0.015625)"/>
       </defs>
       <use xlink:href="#DejaVuSans-37"/>
      </g>
     </g>
    </g>
    <g id="text_16">
     <!-- Quadratic Covariation -->
     <g transform="translate(106.557812 272.970156)rotate(-90)scale(0.1 -0.1)">
      <defs>
       <path id="DejaVuSans-51" d="M 2522 4238 
Q 1834 4238 1429 3725 
Q 1025 3213 1025 2328 
Q 1025 1447 1429 934 
Q 1834 422 2522 422 
Q 3209 422 3611 934 
Q 4013 1447 4013 2328 
Q 4013 3213 3611 3725 
Q 3209 4238 2522 4238 
z
M 3406 84 
L 4238 -825 
L 3475 -825 
L 2784 -78 
Q 2681 -84 2626 -87 
Q 2572 -91 2522 -91 
Q 1538 -91 948 567 
Q 359 1225 359 2328 
Q 359 3434 948 4092 
Q 1538 4750 2522 4750 
Q 3503 4750 4090 4092 
Q 4678 3434 4678 2328 
Q 4678 1516 4351 937 
Q 4025 359 3406 84 
z
" transform="scale(0.015625)"/>
       <path id="DejaVuSans-75" d="M 544 1381 
L 544 3500 
L 1119 3500 
L 1119 1403 
Q 1119 906 1312 657 
Q 1506 409 1894 409 
Q 2359 409 2629 706 
Q 2900 1003 2900 1516 
L 2900 3500 
L 3475 3500 
L 3475 0 
L 2900 0 
L 2900 538 
Q 2691 219 2414 64 
Q 2138 -91 1772 -91 
Q 1169 -91 856 284 
Q 544 659 544 1381 
z
M 1991 3584 
L 1991 3584 
z
" transform="scale(0.015625)"/>
       <path id="DejaVuSans-61" d="M 2194 1759 
Q 1497 1759 1228 1600 
Q 959 1441 959 1056 
Q 959 750 1161 570 
Q 1363 391 1709 391 
Q 2188 391 2477 730 
Q 2766 1069 2766 1631 
L 2766 1759 
L 2194 1759 
z
M 3341 1997 
L 3341 0 
L 2766 0 
L 2766 531 
Q 2569 213 2275 61 
Q 1981 -91 1556 -91 
Q 1019 -91 701 211 
Q 384 513 384 1019 
Q 384 1609 779 1909 
Q 1175 2209 1959 2209 
L 2766 2209 
L 2766 2266 
Q 2766 2663 2505 2880 
Q 2244 3097 1772 3097 
Q 1472 3097 1187 3025 
Q 903 2953 641 2809 
L 641 3341 
Q 956 3463 1253 3523 
Q 1550 3584 1831 3584 
Q 2591 3584 2966 3190 
Q 3341 2797 3341 1997 
z
" transform="scale(0.015625)"/>
       <path id="DejaVuSans-64" d="M 2906 2969 
L 2906 4863 
L 3481 4863 
L 3481 0 
L 2906 0 
L 2906 525 
Q 2725 213 2448 61 
Q 2172 -91 1784 -91 
Q 1150 -91 751 415 
Q 353 922 353 1747 
Q 353 2572 751 3078 
Q 1150 3584 1784 3584 
Q 2172 3584 2448 3432 
Q 2725 3281 2906 2969 
z
M 947 1747 
Q 947 1113 1208 752 
Q 1469 391 1925 391 
Q 2381 391 2643 752 
Q 2906 1113 2906 1747 
Q 2906 2381 2643 2742 
Q 2381 3103 1925 3103 
Q 1469 3103 1208 2742 
Q 947 2381 947 1747 
z
" transform="scale(0.015625)"/>
       <path id="DejaVuSans-72" d="M 2631 2963 
Q 2534 3019 2420 3045 
Q 2306 3072 2169 3072 
Q 1681 3072 1420 2755 
Q 1159 2438 1159 1844 
L 1159 0 
L 581 0 
L 581 3500 
L 1159 3500 
L 1159 2956 
Q 1341 3275 1631 3429 
Q 1922 3584 2338 3584 
Q 2397 3584 2469 3576 
Q 2541 3569 2628 3553 
L 2631 2963 
z
" transform="scale(0.015625)"/>
       <path id="DejaVuSans-74" d="M 1172 4494 
L 1172 3500 
L 2356 3500 
L 2356 3053 
L 1172 3053 
L 1172 1153 
Q 1172 725 1289 603 
Q 1406 481 1766 481 
L 2356 481 
L 2356 0 
L 1766 0 
Q 1100 0 847 248 
Q 594 497 594 1153 
L 594 3053 
L 172 3053 
L 172 3500 
L 594 3500 
L 594 4494 
L 1172 4494 
z
" transform="scale(0.015625)"/>
       <path id="DejaVuSans-63" d="M 3122 3366 
L 3122 2828 
Q 2878 2963 2633 3030 
Q 2388 3097 2138 3097 
Q 1578 3097 1268 2742 
Q 959 2388 959 1747 
Q 959 1106 1268 751 
Q 1578 397 2138 397 
Q 2388 397 2633 464 
Q 2878 531 3122 666 
L 3122 134 
Q 2881 22 2623 -34 
Q 2366 -91 2075 -91 
Q 1284 -91 818 406 
Q 353 903 353 1747 
Q 353 2603 823 3093 
Q 1294 3584 2113 3584 
Q 2378 3584 2631 3529 
Q 2884 3475 3122 3366 
z
" transform="scale(0.015625)"/>
       <path id="DejaVuSans-20" transform="scale(0.015625)"/>
       <path id="DejaVuSans-43" d="M 4122 4306 
L 4122 3641 
Q 3803 3938 3442 4084 
Q 3081 4231 2675 4231 
Q 1875 4231 1450 3742 
Q 1025 3253 1025 2328 
Q 1025 1406 1450 917 
Q 1875 428 2675 428 
Q 3081 428 3442 575 
Q 3803 722 4122 1019 
L 4122 359 
Q 3791 134 3420 21 
Q 3050 -91 2638 -91 
Q 1578 -91 968 557 
Q 359 1206 359 2328 
Q 359 3453 968 4101 
Q 1578 4750 2638 4750 
Q 3056 4750 3426 4639 
Q 3797 4528 4122 4306 
z
" transform="scale(0.015625)"/>
       <path id="DejaVuSans-6f" d="M 1959 3097 
Q 1497 3097 1228 2736 
Q 959 2375 959 1747 
Q 959 1119 1226 758 
Q 1494 397 1959 397 
Q 2419 397 2687 759 
Q 2956 1122 2956 1747 
Q 2956 2369 2687 2733 
Q 2419 3097 1959 3097 
z
M 1959 3584 
Q 2709 3584 3137 3096 
Q 3566 2609 3566 1747 
Q 3566 888 3137 398 
Q 2709 -91 1959 -91 
Q 1206 -91 779 398 
Q 353 888 353 1747 
Q 353 2609 779 3096 
Q 1206 3584 1959 3584 
z
" transform="scale(0.015625)"/>
       <path id="DejaVuSans-76" d="M 191 3500 
L 800 3500 
L 1894 563 
L 2988 3500 
L 3597 3500 
L 2284 0 
L 1503 0 
L 191 3500 
z
" transform="scale(0.015625)"/>
       <path id="DejaVuSans-6e" d="M 3513 2113 
L 3513 0 
L 2938 0 
L 2938 2094 
Q 2938 2591 2744 2837 
Q 2550 3084 2163 3084 
Q 1697 3084 1428 2787 
Q 1159 2491 1159 1978 
L 1159 0 
L 581 0 
L 581 3500 
L 1159 3500 
L 1159 2956 
Q 1366 3272 1645 3428 
Q 1925 3584 2291 3584 
Q 2894 3584 3203 3211 
Q 3513 2838 3513 2113 
z
" transform="scale(0.015625)"/>
      </defs>
      <use xlink:href="#DejaVuSans-51"/>
      <use xlink:href="#DejaVuSans-75" x="78.710938"/>
      <use xlink:href="#DejaVuSans-61" x="142.089844"/>
      <use xlink:href="#DejaVuSans-64" x="203.369141"/>
      <use xlink:href="#DejaVuSans-72" x="266.845703"/>
      <use xlink:href="#DejaVuSans-61" x="307.958984"/>
      <use xlink:href="#DejaVuSans-74" x="369.238281"/>
      <use xlink:href="#DejaVuSans-69" x="408.447266"/>
      <use xlink:href="#DejaVuSans-63" x="436.230469"/>
      <use xlink:href="#DejaVuSans-20" x="491.210938"/>
      <use xlink:href="#DejaVuSans-43" x="522.998047"/>
      <use xlink:href="#DejaVuSans-6f" x="592.822266"/>
      <use xlink:href="#DejaVuSans-76" x="654.003906"/>
      <use xlink:href="#DejaVuSans-61" x="713.183594"/>
      <use xlink:href="#DejaVuSans-72" x="774.462891"/>
      <use xlink:href="#DejaVuSans-69" x="815.576172"/>
      <use xlink:href="#DejaVuSans-61" x="843.359375"/>
      <use xlink:href="#DejaVuSans-74" x="904.638672"/>
      <use xlink:href="#DejaVuSans-69" x="943.847656"/>
      <use xlink:href="#DejaVuSans-6f" x="971.630859"/>
      <use xlink:href="#DejaVuSans-6e" x="1032.8125"/>
     </g>
    </g>
   </g>
   <g id="line2d_15">
    <path d="M 161.509091 324.831468 
L 162.219273 324.277083 
L 162.929455 324.156075 
L 163.639636 325.382976 
L 164.349818 322.616518 
L 165.770182 319.008769 
L 166.480364 316.137538 
L 167.900727 315.562179 
L 168.610909 312.249708 
L 169.321091 311.505804 
L 170.031273 310.401468 
L 170.741455 309.547908 
L 171.451636 307.712419 
L 172.161818 309.469251 
L 172.872 311.983797 
L 173.582182 310.515207 
L 174.292364 310.69606 
L 175.002545 309.001138 
L 175.712727 309.934134 
L 176.422909 311.070877 
L 177.133091 310.561064 
L 177.843273 310.477679 
L 178.553455 309.457784 
L 179.263636 309.865493 
L 179.973818 309.991989 
L 180.684 310.924809 
L 182.104364 308.435037 
L 182.814545 307.915854 
L 183.524727 306.59675 
L 184.234909 304.310069 
L 184.945091 300.679449 
L 186.365455 297.78355 
L 187.075636 299.819158 
L 187.785818 299.541607 
L 188.496 298.69886 
L 189.206182 297.095062 
L 189.916364 298.482812 
L 190.626545 300.85386 
L 192.046909 301.751255 
L 192.757091 299.98782 
L 193.467273 300.768739 
L 194.177455 298.90538 
L 194.887636 297.817868 
L 195.597818 297.726786 
L 197.018182 296.121116 
L 197.728364 297.137286 
L 198.438545 295.28718 
L 199.148727 293.882413 
L 199.858909 293.970849 
L 200.569091 292.666281 
L 201.279273 292.790209 
L 202.699636 295.077543 
L 203.409818 294.530837 
L 204.12 294.620056 
L 204.830182 295.00464 
L 205.540364 294.552788 
L 206.960727 293.140518 
L 207.670909 293.631779 
L 208.381091 293.14454 
L 209.091273 295.103511 
L 209.801455 296.500225 
L 210.511636 294.826818 
L 211.221818 293.616428 
L 211.932 293.517243 
L 212.642182 292.952102 
L 214.062545 293.858236 
L 214.772727 294.135578 
L 215.482909 295.600978 
L 216.193091 295.327655 
L 216.903273 294.686327 
L 217.613455 294.581528 
L 218.323636 293.78539 
L 219.033818 292.657896 
L 219.744 293.781449 
L 221.164364 297.333698 
L 222.584727 293.291612 
L 223.294909 293.341299 
L 224.005091 291.272466 
L 224.715273 288.830928 
L 225.425455 289.042699 
L 226.135636 286.682857 
L 226.845818 284.988678 
L 227.556 287.330986 
L 228.266182 284.575042 
L 228.976364 284.038977 
L 229.686545 281.810416 
L 230.396727 283.290483 
L 231.106909 285.840546 
L 231.817091 286.082842 
L 232.527273 284.212024 
L 233.237455 282.732258 
L 233.947636 283.216883 
L 234.657818 283.423792 
L 235.368 282.9608 
L 236.788364 280.535541 
L 237.498545 279.952826 
L 238.208727 280.356906 
L 238.918909 279.897521 
L 239.629091 278.276076 
L 240.339273 277.433806 
L 241.049455 278.454189 
L 243.18 279.959023 
L 243.890182 280.069321 
L 246.020727 276.43899 
L 246.730909 275.755855 
L 247.441091 279.691683 
L 248.151273 279.090643 
L 248.861455 279.276516 
L 249.571636 278.859798 
L 250.281818 279.33187 
L 250.992 278.300275 
L 251.702182 277.479756 
L 252.412364 277.014985 
L 253.122545 275.382249 
L 254.542909 277.771553 
L 255.253091 279.367113 
L 255.963273 281.501306 
L 256.673455 279.592868 
L 258.093818 281.898591 
L 258.804 281.825663 
L 259.514182 280.874401 
L 260.224364 281.556256 
L 260.934545 280.489421 
L 261.644727 280.669877 
L 262.354909 281.431617 
L 263.065091 281.296137 
L 263.775273 283.097522 
L 264.485455 283.829003 
L 265.195636 283.18229 
L 265.905818 282.305452 
L 266.616 281.839085 
L 267.326182 277.855187 
L 268.036364 277.431536 
L 268.746545 276.426761 
L 270.166909 277.205151 
L 270.877091 278.365552 
L 271.587273 278.628661 
L 272.297455 278.456313 
L 273.007636 278.6965 
L 273.717818 281.620862 
L 274.428 281.186722 
L 275.848364 279.188367 
L 276.558545 277.675317 
L 277.268727 277.245937 
L 277.978909 279.157307 
L 278.689091 279.864057 
L 279.399273 281.599319 
L 280.109455 280.50566 
L 280.819636 280.278342 
L 281.529818 281.68661 
L 282.24 280.020421 
L 282.950182 280.844785 
L 283.660364 277.82258 
L 284.370545 276.133829 
L 285.790909 278.234713 
L 286.501091 278.405289 
L 287.211273 276.262373 
L 287.921455 275.817695 
L 288.631636 274.172868 
L 289.341818 276.016083 
L 290.052 274.814952 
L 290.762182 274.148041 
L 291.472364 276.226948 
L 292.182545 273.303731 
L 292.892727 273.810808 
L 293.602909 273.785968 
L 294.313091 273.593619 
L 295.023273 272.395656 
L 295.733455 272.3018 
L 296.443636 274.247821 
L 297.153818 272.84756 
L 297.864 274.625128 
L 298.574182 274.588551 
L 299.284364 274.00984 
L 299.994545 274.072922 
L 300.704727 273.90517 
L 301.414909 272.743169 
L 302.125091 272.887355 
L 302.835273 273.259321 
L 304.255636 272.444971 
L 304.965818 272.820083 
L 305.676 272.95396 
L 306.386182 271.755007 
L 307.096364 271.250794 
L 307.806545 270.892618 
L 308.516727 269.938898 
L 309.226909 269.37044 
L 309.937091 268.503047 
L 310.647273 266.36258 
L 311.357455 265.981184 
L 312.777818 265.905219 
L 313.488 264.202494 
L 314.198182 263.375978 
L 314.908364 265.260856 
L 315.618545 263.283844 
L 317.038909 262.026073 
L 317.749091 262.896535 
L 318.459273 261.845834 
L 319.169455 259.556619 
L 319.879636 259.780196 
L 320.589818 260.999383 
L 321.3 262.69238 
L 322.010182 263.117407 
L 322.720364 260.667205 
L 323.430545 262.751161 
L 324.140727 261.268056 
L 324.850909 258.855481 
L 325.561091 258.579647 
L 326.271273 258.153279 
L 326.981455 258.9711 
L 327.691636 258.327374 
L 328.401818 258.471126 
L 329.112 256.184792 
L 329.822182 255.815048 
L 330.532364 257.775385 
L 331.242545 258.438398 
L 331.952727 258.716369 
L 332.662909 256.912699 
L 333.373091 256.225449 
L 334.083273 256.070083 
L 334.793455 256.243108 
L 335.503636 254.056373 
L 336.213818 255.563219 
L 336.924 256.570128 
L 337.634182 256.110573 
L 338.344364 257.782617 
L 339.054545 256.291017 
L 340.474909 253.79852 
L 341.185091 252.541707 
L 341.895273 251.882225 
L 342.605455 252.454572 
L 343.315636 253.997184 
L 344.025818 252.530573 
L 344.736 253.642953 
L 346.156364 251.507487 
L 346.866545 250.36854 
L 347.576727 248.993293 
L 348.286909 248.714168 
L 348.997091 246.544241 
L 349.707273 245.938829 
L 350.417455 246.396271 
L 351.127636 246.995824 
L 351.837818 246.38057 
L 352.548 243.76037 
L 353.258182 243.90406 
L 353.968364 241.950328 
L 354.678545 243.374082 
L 355.388727 242.509082 
L 356.098909 243.180833 
L 356.809091 243.660033 
L 357.519273 243.772412 
L 358.229455 243.650871 
L 358.939636 241.474511 
L 359.649818 242.762761 
L 360.36 242.588557 
L 361.070182 241.376848 
L 361.780364 238.052018 
L 362.490545 236.504728 
L 363.200727 232.981262 
L 363.910909 231.366166 
L 364.621091 228.821394 
L 365.331273 224.070436 
L 366.041455 223.671599 
L 366.751636 221.628356 
L 367.461818 223.102756 
L 368.172 225.756149 
L 368.882182 225.013464 
L 369.592364 225.648246 
L 370.302545 227.383101 
L 371.012727 225.27545 
L 371.722909 225.768655 
L 372.433091 226.969461 
L 373.143273 224.896561 
L 373.853455 222.023921 
L 374.563636 222.254378 
L 375.273818 221.199065 
L 375.984 220.878761 
L 376.694182 218.582977 
L 377.404364 218.088877 
L 378.114545 218.071316 
L 378.824727 218.371852 
L 379.534909 220.37088 
L 380.245091 220.254643 
L 380.955273 215.33065 
L 381.665455 215.733792 
L 382.375636 214.071399 
L 383.085818 214.874335 
L 383.796 215.983308 
L 384.506182 214.208738 
L 385.216364 213.116447 
L 385.926545 211.744691 
L 386.636727 211.689232 
L 387.346909 209.622287 
L 388.057091 210.608774 
L 388.767273 208.856515 
L 389.477455 209.321058 
L 390.187636 208.921139 
L 391.608 205.192006 
L 392.318182 205.231626 
L 393.028364 204.375098 
L 393.738545 205.339028 
L 394.448727 207.020238 
L 395.158909 207.132699 
L 396.579273 209.789782 
L 397.289455 208.923519 
L 397.999636 209.47158 
L 398.709818 207.404748 
L 399.42 205.953753 
L 400.130182 205.949255 
L 400.840364 204.1959 
L 401.550545 204.283774 
L 402.260727 202.582859 
L 402.970909 202.051692 
L 403.681091 202.085469 
L 404.391273 200.720272 
L 405.101455 202.997702 
L 405.811636 202.459022 
L 406.521818 202.201623 
L 407.232 202.951663 
L 407.942182 203.497107 
L 408.652364 203.676721 
L 409.362545 204.104682 
L 410.072727 199.067922 
L 410.782909 199.09041 
L 411.493091 198.90591 
L 412.203273 200.073597 
L 412.913455 198.657831 
L 413.623636 199.905194 
L 414.333818 198.671479 
L 415.044 199.24054 
L 415.754182 197.549366 
L 416.464364 197.372047 
L 417.174545 197.481122 
L 417.884727 199.544108 
L 418.594909 196.591246 
L 419.305091 198.256213 
L 420.015273 193.791637 
L 420.725455 192.436874 
L 421.435636 193.616288 
L 422.856 193.514814 
L 423.566182 196.884258 
L 424.276364 195.153322 
L 424.986545 196.416912 
L 425.696727 195.246975 
L 426.406909 193.74622 
L 427.117091 191.099067 
L 427.827273 190.526412 
L 428.537455 190.201452 
L 429.247636 190.826796 
L 429.957818 188.760918 
L 430.668 187.42181 
L 431.378182 186.628337 
L 432.088364 184.965767 
L 432.798545 184.516733 
L 433.508727 185.727221 
L 434.218909 184.164632 
L 434.929091 185.247317 
L 435.639273 183.252236 
L 436.349455 182.617529 
L 437.059636 182.993542 
L 437.769818 182.674695 
L 438.48 182.183806 
L 439.190182 183.085796 
L 439.900364 184.913115 
L 440.610545 183.583758 
L 441.320727 184.036915 
L 442.030909 181.278716 
L 443.451273 183.313343 
L 444.871636 184.315751 
L 446.292 181.764192 
L 447.002182 180.117306 
L 447.712364 182.613239 
L 448.422545 183.378717 
L 449.132727 180.996287 
L 449.842909 179.383712 
L 450.553091 180.19513 
L 451.973455 177.191627 
L 452.683636 175.861618 
L 453.393818 176.234335 
L 454.104 174.552032 
L 454.814182 175.053582 
L 455.524364 175.735386 
L 456.234545 175.335163 
L 457.654909 170.297714 
L 458.365091 170.869386 
L 459.075273 168.705405 
L 459.785455 169.946902 
L 460.495636 166.664733 
L 461.205818 165.896945 
L 461.916 166.021826 
L 462.626182 166.004863 
L 463.336364 167.360692 
L 464.046545 164.636071 
L 464.756727 166.660439 
L 465.466909 167.530065 
L 466.177091 167.306589 
L 466.887273 166.897934 
L 467.597455 165.714229 
L 468.307636 167.890259 
L 469.017818 168.338393 
L 469.728 169.271154 
L 470.438182 169.460452 
L 471.148364 168.787426 
L 471.858545 169.824501 
L 472.568727 168.205611 
L 473.278909 168.290405 
L 473.989091 169.17878 
L 475.409455 166.733994 
L 476.119636 169.312457 
L 476.829818 168.025405 
L 477.54 167.281655 
L 478.250182 167.532409 
L 478.960364 170.015829 
L 479.670545 169.326274 
L 480.380727 171.602251 
L 481.090909 174.282774 
L 481.801091 172.461628 
L 482.511273 174.271978 
L 483.221455 178.192897 
L 483.931636 176.591213 
L 484.641818 174.586687 
L 485.352 173.642138 
L 486.062182 174.878959 
L 486.772364 173.645676 
L 487.482545 174.108349 
L 488.192727 174.065811 
L 488.902909 173.704877 
L 489.613091 175.927483 
L 490.323273 175.73799 
L 491.033455 175.421235 
L 491.743636 175.700413 
L 492.453818 176.247178 
L 493.874182 171.386655 
L 494.584364 170.808848 
L 495.294545 169.798839 
L 496.004727 168.422196 
L 496.714909 168.173453 
L 497.425091 166.878895 
L 498.135273 164.324312 
L 498.845455 166.421253 
L 499.555636 165.747219 
L 500.265818 166.181038 
L 500.976 165.210418 
L 501.686182 164.632112 
L 502.396364 164.77484 
L 503.106545 165.192669 
L 503.816727 163.582006 
L 504.526909 163.373298 
L 505.237091 164.218723 
L 505.947273 164.827434 
L 506.657455 165.650279 
L 507.367636 164.23232 
L 508.077818 164.390857 
L 508.788 162.191737 
L 509.498182 163.870523 
L 510.208364 164.104876 
L 510.918545 163.624416 
L 511.628727 162.001698 
L 512.338909 161.28904 
L 513.049091 157.427371 
L 513.759273 156.171917 
L 514.469455 155.876783 
L 515.179636 153.725735 
L 515.889818 153.751874 
L 516.6 155.56904 
L 517.310182 155.797717 
L 518.730545 153.40961 
L 519.440727 152.975113 
L 520.150909 151.234454 
L 520.861091 151.429539 
L 521.571273 152.070801 
L 522.281455 150.904678 
L 522.991636 147.917265 
L 523.701818 146.728396 
L 524.412 148.244783 
L 525.122182 148.87485 
L 525.832364 150.331248 
L 526.542545 150.339159 
L 527.252727 150.579344 
L 527.962909 148.949528 
L 528.673091 148.965122 
L 529.383273 145.64102 
L 530.803636 143.377971 
L 531.513818 142.563138 
L 532.224 141.252728 
L 532.934182 140.541252 
L 533.644364 139.553708 
L 534.354545 142.455333 
L 535.064727 139.735958 
L 535.774909 139.130799 
L 536.485091 137.724273 
L 537.195273 137.564062 
L 537.905455 135.193974 
L 538.615636 134.575699 
L 539.325818 134.351742 
L 540.036 135.797754 
L 540.746182 135.981454 
L 541.456364 134.617409 
L 542.876727 132.417215 
L 543.586909 132.529247 
L 544.297091 132.073321 
L 545.007273 130.656864 
L 545.717455 131.288469 
L 546.427636 129.643103 
L 547.848 127.948307 
L 548.558182 129.51939 
L 549.268364 130.460197 
L 549.978545 132.2416 
L 550.688727 131.969741 
L 551.398909 128.666697 
L 552.109091 130.450406 
L 552.819273 128.827189 
L 553.529455 129.167919 
L 554.239636 128.864396 
L 555.66 127.948798 
L 556.370182 125.475902 
L 557.080364 124.652306 
L 557.790545 126.797258 
L 558.500727 129.718263 
L 559.210909 130.133073 
L 559.921091 131.684371 
L 560.631273 132.646161 
L 561.341455 132.694981 
L 562.051636 134.675923 
L 562.761818 135.711084 
L 563.472 136.445509 
L 564.182182 135.27277 
L 564.892364 136.98022 
L 565.602545 136.735814 
L 566.312727 137.07134 
L 567.022909 138.954046 
L 568.443273 138.818121 
L 569.153455 139.429798 
L 569.863636 142.699726 
L 571.284 141.415838 
L 571.994182 140.408439 
L 572.704364 140.063069 
L 573.414545 141.343125 
L 574.124727 141.14533 
L 574.834909 139.353879 
L 575.545091 140.016448 
L 576.255273 140.206671 
L 576.965455 140.001477 
L 577.675636 139.436998 
L 578.385818 139.265417 
L 579.096 135.433202 
L 579.806182 135.606086 
L 580.516364 136.149985 
L 581.226545 137.827066 
L 581.936727 138.260557 
L 582.646909 137.656995 
L 583.357091 136.297713 
L 584.067273 134.435235 
L 584.777455 135.536636 
L 585.487636 137.310228 
L 586.197818 138.572946 
L 587.618182 133.759869 
L 588.328364 133.934097 
L 589.038545 134.596842 
L 589.748727 135.490644 
L 590.458909 135.924119 
L 591.169091 136.184675 
L 591.879273 135.35384 
L 592.589455 135.671386 
L 593.299636 134.665502 
L 594.009818 132.003604 
L 594.72 131.929409 
L 595.430182 131.239859 
L 596.140364 130.844456 
L 596.850545 134.622823 
L 597.560727 134.422985 
L 598.270909 132.903723 
L 598.981091 133.284724 
L 599.691273 133.536554 
L 600.401455 132.357329 
L 601.111636 130.1443 
L 601.821818 126.34763 
L 602.532 126.111761 
L 603.242182 126.699488 
L 603.952364 128.649666 
L 604.662545 127.541918 
L 605.372727 129.522003 
L 606.082909 129.15552 
L 606.793091 127.093442 
L 607.503273 127.363408 
L 608.213455 126.385993 
L 608.923636 127.329108 
L 609.633818 130.100531 
L 610.344 127.834837 
L 611.054182 129.228362 
L 611.764364 128.678759 
L 612.474545 128.871003 
L 613.184727 128.826428 
L 613.894909 127.659091 
L 614.605091 126.833907 
L 615.315273 127.388409 
L 616.025455 126.23871 
L 616.735636 124.20129 
L 617.445818 125.981457 
L 618.156 124.510433 
L 618.866182 123.342969 
L 619.576364 123.277126 
L 620.286545 124.226815 
L 620.996727 122.786929 
L 621.706909 124.94421 
L 622.417091 124.571595 
L 623.127273 123.931172 
L 623.837455 123.968033 
L 624.547636 120.789913 
L 625.257818 120.772598 
L 625.968 119.179164 
L 626.678182 121.412191 
L 627.388364 121.290238 
L 628.098545 122.492067 
L 628.808727 122.229439 
L 629.518909 120.428106 
L 630.229091 119.677876 
L 630.939273 118.266258 
L 631.649455 117.645791 
L 632.359636 116.641052 
L 633.069818 116.638761 
L 633.78 115.292033 
L 634.490182 113.49178 
L 635.200364 112.677065 
L 635.910545 113.860097 
L 636.620727 113.148442 
L 637.330909 113.772507 
L 638.041091 112.64629 
L 638.751273 110.140492 
L 639.461455 109.649892 
L 640.171636 110.459175 
L 640.881818 110.665883 
L 642.302182 106.112982 
L 643.012364 104.819608 
L 644.432727 100.948226 
L 645.142909 101.32452 
L 645.853091 101.244768 
L 646.563273 103.006204 
L 647.273455 105.782675 
L 647.983636 106.330995 
L 648.693818 106.012129 
L 649.404 103.469598 
L 650.114182 101.853582 
L 650.824364 100.62691 
L 651.534545 102.847209 
L 652.244727 103.070948 
L 652.954909 102.965623 
L 653.665091 104.127376 
L 654.375273 98.744805 
L 655.085455 98.912288 
L 655.795636 98.096067 
L 656.505818 95.78539 
L 657.216 95.946934 
L 660.056727 97.768954 
L 660.766909 95.363438 
L 661.477091 94.183617 
L 662.187273 96.311986 
L 662.897455 95.999212 
L 663.607636 95.814363 
L 664.317818 96.507443 
L 665.028 97.484358 
L 665.738182 97.283696 
L 666.448364 98.617223 
L 667.158545 98.57303 
L 667.868727 94.519762 
L 668.578909 94.588663 
L 669.289091 93.057636 
L 669.999273 91.232986 
L 670.709455 90.427649 
L 671.419636 88.827712 
L 672.129818 89.594991 
L 672.84 92.103998 
L 673.550182 92.389357 
L 674.260364 91.750869 
L 674.970545 92.447996 
L 675.680727 92.094271 
L 676.390909 92.23243 
L 677.101091 91.191038 
L 677.811273 91.478467 
L 678.521455 93.041267 
L 679.231636 93.429092 
L 679.941818 93.467224 
L 680.652 92.205083 
L 681.362182 92.962264 
L 682.072364 93.040751 
L 682.782545 90.938423 
L 683.492727 90.861205 
L 684.202909 90.282355 
L 684.913091 90.975941 
L 685.623273 92.109501 
L 686.333455 90.107394 
L 687.753818 90.309115 
L 689.174182 88.060029 
L 689.884364 89.539143 
L 690.594545 91.865542 
L 691.304727 91.873833 
L 692.014909 90.107213 
L 692.725091 91.174386 
L 693.435273 92.870898 
L 694.855636 97.322029 
L 696.276 94.037548 
L 696.986182 87.859882 
L 697.696364 85.804505 
L 698.406545 84.613138 
L 699.116727 85.136079 
L 699.826909 86.592954 
L 700.537091 85.168267 
L 701.247273 84.733881 
L 701.957455 85.119641 
L 702.667636 84.712424 
L 703.377818 83.748571 
L 704.088 82.1565 
L 704.798182 83.077845 
L 705.508364 81.273927 
L 706.218545 82.630673 
L 706.928727 81.969177 
L 707.638909 80.481613 
L 709.059273 82.566112 
L 709.769455 81.370932 
L 710.479636 80.745457 
L 711.189818 79.816125 
L 711.9 82.060098 
L 712.610182 82.82378 
L 713.320364 81.883923 
L 714.030545 79.574819 
L 714.740727 79.419804 
L 715.450909 82.419357 
L 716.161091 82.622299 
L 716.871273 84.394277 
L 717.581455 87.3169 
L 718.291636 86.895508 
L 719.001818 87.25031 
L 719.712 85.375874 
L 720.422182 85.23879 
L 721.132364 83.080319 
L 721.842545 85.351651 
L 722.552727 83.058379 
L 723.262909 80.330635 
L 723.973091 79.860129 
L 724.683273 78.299482 
L 725.393455 77.758277 
L 726.103636 76.36819 
L 726.813818 74.196083 
L 727.524 74.276721 
L 728.944364 76.292354 
L 729.654545 75.473708 
L 730.364727 72.436936 
L 731.074909 71.062704 
L 731.785091 69.175496 
L 735.336 66.96 
L 736.046182 67.392447 
L 736.756364 70.39324 
L 737.466545 68.936732 
L 738.176727 72.075392 
L 738.886909 73.942862 
L 739.597091 74.771341 
L 740.307273 75.956991 
L 741.017455 76.568487 
L 741.727636 77.373425 
L 742.437818 78.815155 
L 743.148 78.733806 
L 743.858182 78.995378 
L 744.568364 78.836429 
L 745.278545 80.580057 
L 745.988727 80.852044 
L 746.698909 82.308076 
L 747.409091 80.939413 
L 748.119273 82.870937 
L 748.829455 83.980391 
L 749.539636 85.864239 
L 750.96 84.053388 
L 751.670182 82.249402 
L 752.380364 82.122483 
L 753.090545 82.326299 
L 753.800727 80.128526 
L 754.510909 78.621866 
L 755.221091 80.268703 
L 755.931273 80.080766 
L 756.641455 80.48271 
L 757.351636 79.361368 
L 758.061818 78.587896 
L 758.772 78.840131 
L 759.482182 78.356179 
L 760.192364 73.802184 
L 761.612727 76.295988 
L 762.322909 75.736685 
L 763.033091 74.893018 
L 763.743273 76.365311 
L 764.453455 75.26986 
L 765.163636 73.956622 
L 765.873818 75.472572 
L 766.584 76.363249 
L 767.294182 77.52041 
L 768.004364 75.818663 
L 768.714545 75.702686 
L 769.424727 74.964881 
L 770.134909 76.50546 
L 770.845091 77.214604 
L 771.555273 77.054651 
L 772.265455 78.783337 
L 772.975636 78.099084 
L 773.685818 79.328204 
L 774.396 79.193077 
L 775.106182 75.120241 
L 775.816364 75.173236 
L 776.526545 77.560329 
L 777.236727 77.426386 
L 777.946909 77.021421 
L 778.657091 76.008976 
L 779.367273 75.35851 
L 780.077455 75.393173 
L 780.787636 74.463544 
L 782.208 75.220088 
L 782.918182 75.874712 
L 783.628364 75.924757 
L 784.338545 74.701188 
L 785.048727 74.219395 
L 786.469091 69.884283 
L 787.179273 72.611768 
L 787.889455 74.771554 
L 788.599636 72.966778 
L 789.309818 72.65547 
L 790.02 72.589728 
L 790.730182 73.040407 
L 791.440364 73.064568 
L 792.150545 72.59157 
L 792.860727 72.488385 
L 793.570909 73.710704 
L 794.281091 74.333638 
L 794.991273 74.214709 
L 795.701455 76.002509 
L 796.411636 75.11273 
L 797.121818 73.920389 
L 797.832 73.358005 
L 798.542182 74.797992 
L 799.252364 79.029703 
L 799.962545 82.219985 
L 800.672727 82.074617 
L 801.382909 82.378333 
L 802.803273 84.554567 
L 803.513455 87.082168 
L 804.223636 85.989617 
L 804.933818 83.56569 
L 805.644 82.196452 
L 806.354182 84.357759 
L 807.064364 83.407686 
L 807.774545 85.230516 
L 808.484727 87.372434 
L 809.194909 85.216775 
L 809.905091 87.033823 
L 810.615273 86.112477 
L 811.325455 89.529353 
L 812.035636 91.871767 
L 812.745818 89.470619 
L 813.456 89.464993 
L 814.166182 89.985914 
L 814.876364 92.951983 
L 815.586545 94.260058 
L 816.296727 94.639572 
L 817.006909 97.512554 
L 817.717091 96.820407 
L 818.427273 97.979742 
L 819.137455 95.878047 
L 819.847636 97.601172 
L 820.557818 96.400881 
L 821.268 96.157133 
L 821.978182 96.760994 
L 822.688364 98.566341 
L 823.398545 99.45574 
L 824.108727 99.06495 
L 824.818909 100.388716 
L 825.529091 100.740705 
L 826.239273 101.419744 
L 826.949455 99.137258 
L 827.659636 100.925567 
L 829.08 103.134975 
L 829.790182 100.627257 
L 831.210545 98.657564 
L 831.920727 99.061284 
L 833.341091 100.833702 
L 834.761455 103.693257 
L 835.471636 103.314832 
L 836.181818 102.43786 
L 836.892 99.305911 
L 837.602182 99.901551 
L 838.312364 99.92792 
L 839.022545 100.201176 
L 839.732727 98.61876 
L 840.442909 98.746608 
L 841.153091 101.35967 
L 841.863273 99.915041 
L 843.283636 98.278348 
L 843.993818 98.639266 
L 844.704 98.343738 
L 845.414182 99.500101 
L 846.124364 97.479182 
L 846.834545 99.527094 
L 847.544727 99.818379 
L 848.254909 100.925519 
L 848.965091 101.036314 
L 849.675273 100.927167 
L 850.385455 98.246565 
L 851.095636 99.029686 
L 851.805818 97.219862 
L 852.516 96.023652 
L 853.936364 94.385237 
L 854.646545 95.036509 
L 855.356727 95.128237 
L 856.066909 95.596365 
L 856.777091 94.376068 
L 857.487273 94.777097 
L 858.907636 92.428656 
L 859.617818 90.281499 
L 860.328 89.957238 
L 861.038182 91.438339 
L 861.748364 90.068184 
L 862.458545 93.267945 
L 863.168727 94.761431 
L 863.878909 94.025354 
L 864.589091 94.652768 
L 865.299273 93.424578 
L 866.009455 93.956146 
L 866.719636 93.473985 
L 867.429818 91.275568 
L 868.14 91.511854 
L 868.850182 94.060398 
L 869.560364 94.395643 
L 870.270545 94.863275 
L 870.980727 97.574069 
L 871.690909 95.987039 
L 871.690909 95.987039 
" clip-path="url(#pd0296e77b1)" style="fill: none; stroke: #1f77b4; stroke-width: 1.5; stroke-linecap: square"/>
   </g>
   <g id="line2d_16">
    <path d="M 161.509091 324.831468 
L 162.219273 324.253921 
L 162.929455 324.839057 
L 163.639636 326.339652 
L 164.349818 325.076518 
L 165.06 323.177058 
L 165.770182 325.073985 
L 166.480364 318.963085 
L 167.190545 317.754649 
L 167.900727 316.968252 
L 168.610909 314.329838 
L 170.031273 308.278633 
L 170.741455 306.878636 
L 171.451636 306.079544 
L 172.161818 309.427111 
L 172.872 312.104061 
L 173.582182 312.11534 
L 174.292364 313.385233 
L 175.002545 314.011655 
L 175.712727 313.284493 
L 176.422909 314.595933 
L 177.133091 314.425973 
L 177.843273 315.357325 
L 178.553455 313.762358 
L 179.263636 314.406525 
L 179.973818 314.509886 
L 180.684 315.907986 
L 181.394182 315.251478 
L 182.104364 316.306906 
L 182.814545 314.338523 
L 183.524727 313.107442 
L 184.234909 311.135913 
L 184.945091 308.709338 
L 185.655273 307.406997 
L 186.365455 306.805799 
L 187.075636 310.050344 
L 188.496 312.883747 
L 189.206182 311.780524 
L 189.916364 313.53527 
L 190.626545 316.045003 
L 191.336727 317.504135 
L 192.046909 318.113068 
L 192.757091 316.744729 
L 193.467273 315.758979 
L 194.177455 316.164235 
L 194.887636 316.793067 
L 195.597818 317.746474 
L 196.308 315.346907 
L 197.018182 316.619782 
L 197.728364 318.8493 
L 198.438545 318.154581 
L 199.148727 320.022987 
L 199.858909 320.366406 
L 200.569091 319.759677 
L 201.279273 319.522185 
L 201.989455 320.538182 
L 202.699636 321.254997 
L 203.409818 320.434225 
L 204.12 319.29104 
L 204.830182 319.970896 
L 205.540364 321.785204 
L 206.960727 321.222343 
L 207.670909 321.074861 
L 208.381091 321.874398 
L 209.091273 324.526705 
L 209.801455 328.52435 
L 210.511636 325.597773 
L 211.221818 326.171746 
L 211.932 327.155743 
L 212.642182 328.968151 
L 213.352364 329.584616 
L 214.062545 331.782637 
L 214.772727 331.345573 
L 215.482909 331.632008 
L 216.193091 332.924815 
L 216.903273 332.605885 
L 217.613455 331.076587 
L 218.323636 334.117229 
L 219.033818 332.821807 
L 221.164364 340.656283 
L 221.874545 341.980541 
L 222.584727 339.325717 
L 223.294909 339.50395 
L 224.005091 338.726201 
L 224.715273 337.483803 
L 225.425455 338.240411 
L 226.135636 334.856453 
L 226.845818 334.866016 
L 227.556 337.209062 
L 228.266182 336.381301 
L 228.976364 333.54979 
L 229.686545 332.913715 
L 231.106909 335.330602 
L 231.817091 334.242399 
L 232.527273 334.199757 
L 233.947636 333.414372 
L 234.657818 335.045703 
L 235.368 335.616767 
L 236.078182 334.869345 
L 236.788364 333.655877 
L 237.498545 331.694011 
L 238.208727 332.59963 
L 238.918909 334.146697 
L 239.629091 331.025894 
L 240.339273 329.602089 
L 241.049455 331.706538 
L 241.759636 332.148495 
L 242.469818 332.456251 
L 243.18 332.387038 
L 243.890182 332.737237 
L 244.600364 332.272376 
L 245.310545 330.752626 
L 246.020727 327.931313 
L 246.730909 327.640873 
L 247.441091 334.920317 
L 248.151273 333.587816 
L 248.861455 333.01059 
L 249.571636 334.241916 
L 250.281818 334.247049 
L 250.992 332.559122 
L 251.702182 331.327871 
L 252.412364 331.849773 
L 253.122545 330.844093 
L 253.832727 331.219542 
L 254.542909 336.425742 
L 255.253091 336.962441 
L 255.963273 341.57075 
L 256.673455 338.104011 
L 257.383636 340.677261 
L 258.093818 342.035753 
L 258.804 341.59128 
L 259.514182 340.568389 
L 260.224364 341.312392 
L 261.644727 339.855943 
L 262.354909 343.130606 
L 263.065091 343.756377 
L 263.775273 346.606529 
L 264.485455 348.361238 
L 265.195636 348.004643 
L 265.905818 346.668567 
L 266.616 347.304124 
L 267.326182 343.727963 
L 268.036364 343.975088 
L 268.746545 343.576625 
L 269.456727 345.637454 
L 270.166909 345.425541 
L 270.877091 345.67606 
L 271.587273 346.613342 
L 272.297455 345.558999 
L 273.007636 344.242938 
L 273.717818 346.629111 
L 275.138182 345.497658 
L 275.848364 343.9358 
L 276.558545 338.064768 
L 277.268727 337.281044 
L 277.978909 338.846285 
L 278.689091 340.092016 
L 279.399273 341.075144 
L 280.109455 343.200618 
L 280.819636 344.753581 
L 281.529818 346.875148 
L 282.24 345.126067 
L 282.950182 345.680405 
L 284.370545 339.647245 
L 285.790909 338.822324 
L 286.501091 339.137205 
L 287.211273 338.048223 
L 287.921455 337.754177 
L 288.631636 335.040573 
L 289.341818 339.920629 
L 290.052 339.131557 
L 290.762182 338.085043 
L 291.472364 339.405939 
L 292.182545 337.972311 
L 292.892727 337.925646 
L 293.602909 337.546935 
L 294.313091 336.685488 
L 295.023273 334.649274 
L 295.733455 335.733794 
L 296.443636 335.075656 
L 297.153818 331.627048 
L 297.864 333.741438 
L 298.574182 332.55974 
L 299.284364 332.127943 
L 299.994545 330.990137 
L 301.414909 326.852763 
L 302.125091 326.036346 
L 302.835273 326.785914 
L 303.545455 324.995882 
L 304.255636 325.869088 
L 304.965818 327.365734 
L 305.676 326.899052 
L 307.096364 323.984299 
L 307.806545 324.813896 
L 309.937091 320.456007 
L 310.647273 318.583981 
L 311.357455 317.981981 
L 312.067636 318.535058 
L 312.777818 316.837414 
L 313.488 315.612372 
L 314.198182 314.90454 
L 314.908364 315.682406 
L 316.328727 312.028496 
L 317.038909 313.16317 
L 317.749091 313.301371 
L 318.459273 312.948551 
L 319.169455 310.268646 
L 319.879636 310.254287 
L 320.589818 312.713402 
L 321.3 314.149624 
L 322.010182 314.055576 
L 322.720364 311.41859 
L 323.430545 314.25238 
L 324.140727 311.979934 
L 324.850909 308.256983 
L 325.561091 308.33241 
L 326.271273 307.307205 
L 326.981455 308.59829 
L 327.691636 307.519954 
L 328.401818 308.42233 
L 329.822182 305.624064 
L 330.532364 305.803343 
L 331.242545 305.627573 
L 331.952727 305.952347 
L 333.373091 302.495977 
L 334.083273 303.041284 
L 334.793455 300.572645 
L 335.503636 299.014781 
L 336.213818 300.651825 
L 336.924 302.845231 
L 337.634182 302.170888 
L 338.344364 303.586012 
L 339.054545 303.092774 
L 339.764727 297.588407 
L 340.474909 296.805251 
L 341.185091 294.827781 
L 341.895273 294.987511 
L 342.605455 294.828718 
L 343.315636 295.978175 
L 344.025818 294.409571 
L 344.736 296.396644 
L 345.446182 294.201574 
L 346.156364 296.011696 
L 346.866545 294.41091 
L 347.576727 295.323793 
L 348.286909 294.63852 
L 348.997091 291.261388 
L 349.707273 293.960064 
L 350.417455 296.017984 
L 351.127636 294.507296 
L 351.837818 294.617402 
L 352.548 291.968448 
L 353.258182 293.033532 
L 353.968364 292.546879 
L 354.678545 294.672667 
L 355.388727 293.498315 
L 356.098909 294.80491 
L 356.809091 297.688008 
L 357.519273 298.814837 
L 358.229455 300.364301 
L 358.939636 297.668485 
L 359.649818 298.949668 
L 360.36 299.656844 
L 361.070182 299.166536 
L 361.780364 296.617758 
L 362.490545 295.843497 
L 363.200727 291.660365 
L 363.910909 289.781734 
L 364.621091 288.775491 
L 365.331273 283.489743 
L 366.041455 281.58821 
L 366.751636 277.176382 
L 367.461818 279.005384 
L 368.172 279.885985 
L 368.882182 278.358197 
L 369.592364 280.0811 
L 370.302545 281.354632 
L 371.012727 280.111099 
L 371.722909 280.706331 
L 372.433091 282.301988 
L 373.143273 278.951399 
L 373.853455 278.372943 
L 375.273818 273.643143 
L 375.984 273.659014 
L 376.694182 272.449808 
L 377.404364 273.600548 
L 378.114545 277.161754 
L 378.824727 277.218623 
L 379.534909 280.701605 
L 380.245091 279.226232 
L 380.955273 275.714873 
L 381.665455 276.796836 
L 382.375636 273.998773 
L 383.796 276.276085 
L 384.506182 273.896649 
L 385.216364 275.71207 
L 385.926545 276.109721 
L 386.636727 278.877972 
L 387.346909 278.094147 
L 388.057091 276.318274 
L 388.767273 277.439462 
L 389.477455 279.619279 
L 390.187636 278.8319 
L 390.897818 276.189472 
L 391.608 274.057186 
L 392.318182 276.03859 
L 393.028364 274.988779 
L 393.738545 275.777188 
L 394.448727 275.964814 
L 395.158909 276.869362 
L 395.869091 279.310486 
L 396.579273 283.041956 
L 397.289455 283.584074 
L 397.999636 285.485708 
L 398.709818 283.907004 
L 399.42 283.102065 
L 400.130182 282.861816 
L 401.550545 279.083463 
L 402.260727 276.096858 
L 402.970909 275.62849 
L 403.681091 277.692079 
L 404.391273 276.362449 
L 405.101455 279.923556 
L 405.811636 278.743709 
L 406.521818 278.280921 
L 407.232 279.015044 
L 407.942182 279.288497 
L 408.652364 282.157173 
L 409.362545 282.585208 
L 410.072727 276.665338 
L 410.782909 280.270079 
L 411.493091 279.992762 
L 412.203273 283.820977 
L 412.913455 285.176732 
L 413.623636 286.194486 
L 414.333818 283.698759 
L 415.044 285.059763 
L 415.754182 280.159043 
L 416.464364 280.5334 
L 417.174545 279.860835 
L 417.884727 284.668086 
L 418.594909 282.042219 
L 419.305091 283.179219 
L 420.015273 281.034159 
L 420.725455 282.167007 
L 421.435636 280.857257 
L 422.145818 280.357556 
L 422.856 281.553563 
L 423.566182 283.401202 
L 424.276364 282.416424 
L 424.986545 284.725067 
L 425.696727 281.157975 
L 426.406909 280.122043 
L 427.117091 275.100374 
L 428.537455 275.487543 
L 429.247636 279.324241 
L 429.957818 276.979962 
L 430.668 278.245401 
L 431.378182 276.527183 
L 432.088364 276.476266 
L 432.798545 278.155413 
L 433.508727 278.272438 
L 434.218909 278.24443 
L 434.929091 276.764375 
L 435.639273 275.882962 
L 436.349455 274.408798 
L 437.059636 274.964128 
L 437.769818 272.034666 
L 438.48 272.760723 
L 439.190182 275.210552 
L 439.900364 276.805669 
L 440.610545 274.078379 
L 442.030909 271.438122 
L 442.741091 270.980505 
L 443.451273 272.958462 
L 444.161455 277.640435 
L 444.871636 278.175426 
L 445.581818 275.907835 
L 446.292 273.185735 
L 447.002182 271.88409 
L 447.712364 275.418064 
L 448.422545 276.165929 
L 449.842909 272.923304 
L 451.263273 273.018877 
L 451.973455 270.526038 
L 452.683636 267.504075 
L 453.393818 265.591918 
L 454.104 260.824567 
L 454.814182 262.708703 
L 455.524364 261.077839 
L 456.234545 260.827362 
L 456.944727 255.600025 
L 457.654909 252.702822 
L 458.365091 252.818067 
L 459.075273 250.205702 
L 459.785455 251.648332 
L 460.495636 248.496547 
L 461.205818 249.658189 
L 461.916 248.88533 
L 462.626182 249.242694 
L 463.336364 252.536137 
L 464.046545 250.65196 
L 464.756727 253.779901 
L 465.466909 255.665434 
L 466.177091 253.285039 
L 466.887273 252.834684 
L 468.307636 254.894742 
L 469.728 253.748229 
L 471.148364 254.987743 
L 471.858545 253.972442 
L 472.568727 253.271738 
L 473.278909 253.621863 
L 473.989091 250.81764 
L 474.699273 248.821307 
L 475.409455 247.785136 
L 476.119636 250.865999 
L 476.829818 249.651631 
L 477.54 246.431117 
L 478.250182 245.945186 
L 478.960364 247.928904 
L 479.670545 248.218735 
L 480.380727 250.837363 
L 481.090909 255.42638 
L 481.801091 253.032229 
L 482.511273 254.063597 
L 483.221455 258.408738 
L 483.931636 256.112542 
L 484.641818 256.358635 
L 485.352 256.430569 
L 486.062182 255.393985 
L 487.482545 256.721815 
L 488.192727 256.831669 
L 488.902909 255.450616 
L 489.613091 256.700765 
L 490.323273 254.710199 
L 491.033455 253.646804 
L 491.743636 253.602474 
L 493.164 249.653358 
L 493.874182 244.187026 
L 494.584364 243.867479 
L 495.294545 242.65347 
L 496.004727 241.896627 
L 496.714909 240.924636 
L 497.425091 241.808368 
L 498.135273 242.204361 
L 498.845455 246.867074 
L 499.555636 247.859199 
L 500.265818 247.351247 
L 500.976 247.096403 
L 501.686182 244.157362 
L 502.396364 246.369061 
L 503.106545 247.347271 
L 503.816727 244.36824 
L 504.526909 243.663549 
L 505.237091 242.541554 
L 505.947273 245.107363 
L 506.657455 245.04272 
L 507.367636 242.596063 
L 508.077818 242.374487 
L 508.788 238.779906 
L 509.498182 238.780528 
L 510.208364 238.081592 
L 510.918545 239.361465 
L 511.628727 240.21946 
L 512.338909 238.599976 
L 513.049091 234.176692 
L 513.759273 232.817423 
L 514.469455 233.009546 
L 515.179636 229.330921 
L 516.6 236.403786 
L 517.310182 237.752318 
L 518.020364 236.172283 
L 518.730545 235.773118 
L 519.440727 233.984613 
L 520.150909 234.408596 
L 521.571273 236.762085 
L 522.281455 236.066246 
L 522.991636 234.6244 
L 523.701818 230.661266 
L 524.412 233.523692 
L 525.122182 232.581296 
L 525.832364 233.738188 
L 526.542545 235.412456 
L 527.252727 237.697859 
L 527.962909 238.108168 
L 529.383273 232.655906 
L 530.093455 231.470728 
L 530.803636 231.810105 
L 531.513818 231.076637 
L 532.934182 231.401346 
L 533.644364 229.972773 
L 534.354545 233.228847 
L 535.064727 229.429714 
L 536.485091 227.861874 
L 537.195273 227.426221 
L 537.905455 228.272569 
L 538.615636 226.250879 
L 539.325818 228.002972 
L 540.036 231.029032 
L 540.746182 231.767138 
L 541.456364 232.774139 
L 542.166545 231.576008 
L 542.876727 229.697047 
L 543.586909 228.422965 
L 544.297091 226.1361 
L 545.007273 226.058348 
L 545.717455 228.90938 
L 546.427636 227.895996 
L 547.137818 224.817399 
L 547.848 223.347912 
L 548.558182 227.844931 
L 549.268364 227.584659 
L 549.978545 228.604267 
L 550.688727 227.365972 
L 551.398909 225.040852 
L 552.109091 226.276326 
L 552.819273 222.085274 
L 553.529455 219.591291 
L 554.239636 219.783164 
L 554.949818 219.690553 
L 555.66 220.473976 
L 556.370182 219.005635 
L 557.080364 218.613801 
L 557.790545 218.961701 
L 558.500727 223.848588 
L 559.210909 224.392493 
L 560.631273 228.852363 
L 561.341455 228.331565 
L 562.051636 230.314254 
L 562.761818 231.30868 
L 563.472 232.665114 
L 564.182182 233.428231 
L 564.892364 235.810717 
L 565.602545 235.959988 
L 566.312727 234.613243 
L 567.022909 236.750996 
L 567.733091 234.309921 
L 568.443273 232.326348 
L 569.153455 234.634236 
L 569.863636 237.438075 
L 570.573818 238.252744 
L 571.284 237.554654 
L 571.994182 236.53591 
L 572.704364 238.781788 
L 573.414545 240.54273 
L 574.124727 237.171103 
L 574.834909 234.833325 
L 575.545091 235.98321 
L 576.255273 234.239236 
L 577.675636 230.136194 
L 578.385818 229.964252 
L 579.096 226.349299 
L 579.806182 227.671182 
L 580.516364 225.357784 
L 581.226545 226.780627 
L 581.936727 226.18946 
L 582.646909 225.412728 
L 583.357091 222.98926 
L 584.067273 222.595213 
L 584.777455 224.36719 
L 585.487636 225.342046 
L 586.197818 228.051756 
L 586.908 223.956019 
L 587.618182 222.718977 
L 588.328364 220.586741 
L 589.038545 222.824343 
L 589.748727 223.636492 
L 590.458909 223.413963 
L 591.169091 223.377275 
L 591.879273 221.023312 
L 592.589455 220.947412 
L 593.299636 218.814904 
L 594.72 214.088918 
L 595.430182 213.33486 
L 596.140364 211.112547 
L 596.850545 215.769016 
L 597.560727 215.256892 
L 598.270909 211.983623 
L 598.981091 212.332732 
L 600.401455 210.581361 
L 601.111636 208.494606 
L 601.821818 203.666791 
L 602.532 204.188654 
L 603.242182 204.985285 
L 603.952364 207.995186 
L 604.662545 204.019739 
L 605.372727 205.806394 
L 606.082909 206.192536 
L 606.793091 201.934723 
L 607.503273 200.810822 
L 608.213455 198.305761 
L 608.923636 198.448012 
L 609.633818 202.521101 
L 610.344 201.399822 
L 611.054182 203.275525 
L 611.764364 202.493891 
L 612.474545 204.364671 
L 613.184727 204.91351 
L 613.894909 203.878085 
L 614.605091 201.804884 
L 615.315273 203.491802 
L 616.025455 203.358707 
L 616.735636 201.661395 
L 617.445818 204.188664 
L 618.156 203.60738 
L 618.866182 204.091948 
L 619.576364 204.075157 
L 620.286545 207.779809 
L 620.996727 205.980362 
L 621.706909 205.828947 
L 622.417091 209.067092 
L 623.127273 207.168365 
L 623.837455 210.522301 
L 624.547636 206.468207 
L 625.257818 204.919708 
L 625.968 201.309499 
L 626.678182 205.709375 
L 627.388364 204.984461 
L 628.098545 205.703647 
L 628.808727 204.000718 
L 629.518909 203.444248 
L 630.229091 200.813761 
L 630.939273 199.712867 
L 632.359636 199.915065 
L 633.069818 202.512715 
L 634.490182 196.166852 
L 635.200364 194.056331 
L 635.910545 196.197274 
L 636.620727 194.613634 
L 637.330909 193.400267 
L 638.041091 194.800863 
L 638.751273 191.837892 
L 640.171636 193.469242 
L 640.881818 193.767873 
L 641.592 192.898998 
L 642.302182 193.23951 
L 643.012364 191.239205 
L 643.722545 189.742596 
L 644.432727 186.690012 
L 645.142909 186.178335 
L 645.853091 186.698048 
L 646.563273 191.767383 
L 647.273455 193.666149 
L 647.983636 193.511118 
L 648.693818 191.155505 
L 649.404 187.023303 
L 650.114182 184.196823 
L 650.824364 182.273693 
L 651.534545 185.756902 
L 652.244727 186.195531 
L 653.665091 182.75095 
L 654.375273 177.088304 
L 655.085455 177.528212 
L 655.795636 177.395503 
L 656.505818 175.716603 
L 657.216 175.210566 
L 657.926182 171.946716 
L 658.636364 172.214371 
L 659.346545 174.697393 
L 660.056727 174.5673 
L 660.766909 172.35839 
L 661.477091 173.10173 
L 662.187273 173.397671 
L 662.897455 175.589643 
L 663.607636 175.719176 
L 664.317818 176.62875 
L 665.738182 180.361621 
L 666.448364 180.620921 
L 667.158545 182.219144 
L 667.868727 176.763539 
L 668.578909 177.314822 
L 669.289091 176.489728 
L 669.999273 177.077878 
L 670.709455 176.181885 
L 671.419636 174.110704 
L 672.129818 172.940803 
L 672.84 175.984548 
L 673.550182 175.145982 
L 674.260364 176.166082 
L 674.970545 175.79734 
L 675.680727 175.656684 
L 676.390909 176.887 
L 677.811273 174.365106 
L 678.521455 177.177991 
L 679.941818 179.214713 
L 680.652 179.514674 
L 681.362182 181.567251 
L 682.072364 181.432437 
L 682.782545 178.156965 
L 683.492727 178.340158 
L 684.202909 176.463119 
L 684.913091 177.767392 
L 685.623273 178.695516 
L 686.333455 177.735 
L 687.043636 175.927829 
L 687.753818 177.617395 
L 688.464 176.151966 
L 689.174182 175.765903 
L 689.884364 176.127304 
L 690.594545 178.694814 
L 691.304727 178.527259 
L 692.014909 176.931441 
L 692.725091 176.383461 
L 693.435273 177.045774 
L 694.145455 175.366451 
L 694.855636 175.866008 
L 695.565818 174.722081 
L 696.276 173.937956 
L 696.986182 169.217093 
L 699.826909 165.717568 
L 700.537091 162.464769 
L 701.247273 160.477576 
L 701.957455 163.927007 
L 703.377818 160.243521 
L 704.088 156.964587 
L 704.798182 156.72569 
L 705.508364 154.46096 
L 706.218545 155.781867 
L 706.928727 155.350202 
L 707.638909 153.526261 
L 708.349091 155.111032 
L 709.059273 158.39051 
L 709.769455 156.701061 
L 710.479636 155.687872 
L 711.9 159.07028 
L 712.610182 159.699176 
L 713.320364 156.121314 
L 714.030545 154.518392 
L 714.740727 153.397881 
L 715.450909 157.042795 
L 716.161091 157.429512 
L 716.871273 161.637457 
L 717.581455 162.604862 
L 718.291636 162.823885 
L 719.001818 162.231846 
L 719.712 162.967837 
L 720.422182 161.188121 
L 721.132364 160.47393 
L 721.842545 161.94837 
L 722.552727 157.621766 
L 723.262909 155.126997 
L 723.973091 156.103204 
L 724.683273 152.261633 
L 725.393455 152.185895 
L 726.103636 151.620359 
L 726.813818 149.440489 
L 727.524 151.656864 
L 728.234182 150.873074 
L 728.944364 151.181773 
L 729.654545 150.418488 
L 730.364727 149.895041 
L 731.074909 150.673288 
L 732.495273 147.633964 
L 733.205455 145.196174 
L 733.915636 144.537629 
L 734.625818 145.590542 
L 735.336 145.809724 
L 736.046182 147.094293 
L 736.756364 151.958681 
L 737.466545 152.213914 
L 738.176727 156.845017 
L 738.886909 159.917596 
L 739.597091 158.50589 
L 740.307273 156.486488 
L 741.017455 158.283086 
L 741.727636 158.418107 
L 742.437818 161.526258 
L 743.148 158.993128 
L 743.858182 157.844018 
L 744.568364 158.565966 
L 745.278545 160.647629 
L 745.988727 160.740036 
L 746.698909 163.562794 
L 747.409091 163.994598 
L 748.119273 166.341714 
L 748.829455 169.364237 
L 749.539636 174.068729 
L 750.249818 172.893617 
L 750.96 170.030389 
L 751.670182 166.356832 
L 752.380364 168.218003 
L 753.090545 171.941847 
L 753.800727 169.793827 
L 754.510909 169.825889 
L 755.221091 170.366904 
L 755.931273 170.431164 
L 756.641455 172.011395 
L 757.351636 173.078108 
L 758.061818 172.33065 
L 758.772 174.298575 
L 759.482182 173.670289 
L 760.192364 167.625256 
L 761.612727 171.292083 
L 762.322909 169.383292 
L 763.033091 170.198044 
L 763.743273 171.791792 
L 765.163636 172.497567 
L 765.873818 176.316441 
L 766.584 176.962401 
L 767.294182 177.863766 
L 768.004364 178.197867 
L 768.714545 181.748125 
L 769.424727 179.112849 
L 770.134909 181.082004 
L 770.845091 180.806001 
L 771.555273 179.061225 
L 772.265455 180.501407 
L 772.975636 179.155045 
L 773.685818 179.856728 
L 775.106182 175.598695 
L 776.526545 177.124232 
L 777.236727 178.914163 
L 777.946909 179.145194 
L 778.657091 177.803333 
L 779.367273 178.761568 
L 780.077455 178.173036 
L 780.787636 178.460168 
L 781.497818 177.478238 
L 782.208 175.401341 
L 782.918182 176.597113 
L 783.628364 176.10857 
L 784.338545 174.897828 
L 785.048727 174.39216 
L 785.758909 172.896882 
L 786.469091 168.016224 
L 787.179273 172.169251 
L 787.889455 172.28997 
L 788.599636 169.303447 
L 789.309818 169.62192 
L 790.02 169.251693 
L 790.730182 167.719591 
L 791.440364 167.886691 
L 792.150545 169.905256 
L 792.860727 170.592445 
L 793.570909 172.535786 
L 794.281091 173.616617 
L 794.991273 169.781614 
L 795.701455 171.37894 
L 796.411636 170.560466 
L 797.121818 169.960899 
L 798.542182 173.30166 
L 799.962545 180.769862 
L 800.672727 180.454078 
L 801.382909 181.552842 
L 802.093091 185.136823 
L 802.803273 184.851994 
L 803.513455 187.65072 
L 804.223636 187.051954 
L 805.644 180.781892 
L 806.354182 183.775897 
L 807.064364 183.807023 
L 807.774545 186.226753 
L 808.484727 187.653857 
L 809.194909 183.943896 
L 809.905091 186.804465 
L 810.615273 184.765718 
L 812.035636 187.027723 
L 812.745818 183.008421 
L 813.456 185.801717 
L 814.166182 187.19356 
L 814.876364 192.18203 
L 815.586545 191.567308 
L 816.296727 194.631914 
L 817.006909 199.951282 
L 817.717091 197.192234 
L 818.427273 197.712465 
L 819.137455 196.203009 
L 819.847636 198.873242 
L 820.557818 196.786987 
L 821.268 195.900104 
L 822.688364 197.083295 
L 823.398545 198.147734 
L 824.108727 196.783312 
L 824.818909 198.229908 
L 825.529091 198.46265 
L 826.239273 197.368305 
L 826.949455 192.357485 
L 827.659636 194.905338 
L 828.369818 195.799854 
L 829.08 198.146621 
L 829.790182 193.647444 
L 830.500364 194.105241 
L 831.210545 193.942528 
L 831.920727 192.287986 
L 832.630909 192.901027 
L 833.341091 194.511324 
L 834.051273 194.974633 
L 834.761455 193.76913 
L 835.471636 193.997903 
L 836.181818 193.037663 
L 836.892 187.740659 
L 837.602182 188.696305 
L 838.312364 188.234677 
L 839.022545 187.229915 
L 839.732727 185.97339 
L 840.442909 185.104279 
L 841.153091 187.132499 
L 841.863273 184.124955 
L 842.573455 183.56683 
L 843.283636 182.660158 
L 843.993818 181.248853 
L 845.414182 183.058488 
L 846.124364 180.210937 
L 846.834545 184.223453 
L 847.544727 187.278418 
L 849.675273 190.504522 
L 850.385455 188.00347 
L 851.095636 190.491325 
L 851.805818 188.754234 
L 852.516 189.824018 
L 853.226182 187.826236 
L 853.936364 186.961585 
L 854.646545 190.228491 
L 855.356727 190.135468 
L 856.066909 191.699147 
L 856.777091 189.846303 
L 857.487273 189.039872 
L 858.197455 187.475954 
L 859.617818 181.873728 
L 860.328 181.168863 
L 861.038182 182.164565 
L 861.748364 179.008604 
L 862.458545 182.332823 
L 863.168727 182.903383 
L 863.878909 180.952906 
L 864.589091 182.363512 
L 865.299273 182.278692 
L 866.009455 179.996174 
L 866.719636 182.274308 
L 867.429818 182.406128 
L 868.14 184.01159 
L 868.850182 187.325199 
L 869.560364 187.895149 
L 870.270545 189.467727 
L 870.980727 194.362496 
L 871.690909 191.46118 
L 871.690909 191.46118 
" clip-path="url(#pd0296e77b1)" style="fill: none; stroke: #ff7f0e; stroke-width: 1.5; stroke-linecap: square"/>
   </g>
   <g id="line2d_17">
    <path d="M 162.219273 369.35841 
L 163.639636 369.318659 
L 165.06 369.161961 
L 165.770182 369.237505 
L 166.480364 368.843519 
L 167.900727 368.830357 
L 168.610909 368.634111 
L 172.161818 368.317173 
L 172.872 368.166024 
L 182.814545 368.080575 
L 184.234909 367.942879 
L 184.945091 367.745053 
L 194.177455 367.304156 
L 197.018182 367.29889 
L 198.438545 367.219156 
L 199.858909 367.27741 
L 206.250545 367.215606 
L 209.091273 367.104687 
L 210.511636 366.869341 
L 215.482909 366.874612 
L 219.744 366.830667 
L 221.164364 366.62148 
L 221.874545 366.686113 
L 223.294909 366.574526 
L 225.425455 366.466684 
L 226.135636 366.28737 
L 226.845818 366.287734 
L 228.266182 366.113274 
L 233.947636 365.932352 
L 238.918909 365.858902 
L 240.339273 365.718348 
L 242.469818 365.661169 
L 245.310545 365.61323 
L 246.730909 365.518717 
L 247.441091 364.875375 
L 255.253091 364.610944 
L 256.673455 364.24154 
L 258.804 364.138729 
L 266.616 363.865819 
L 267.326182 363.545906 
L 273.007636 363.514555 
L 273.717818 363.357865 
L 275.848364 363.306615 
L 276.558545 363.107147 
L 281.529818 362.96737 
L 283.660364 362.673153 
L 284.370545 362.566476 
L 287.921455 362.529382 
L 292.182545 362.03446 
L 296.443636 362.00733 
L 297.864 361.814502 
L 305.676 361.724835 
L 311.357455 361.501799 
L 314.908364 361.407426 
L 316.328727 361.299075 
L 318.459273 361.302668 
L 319.169455 361.164911 
L 320.589818 361.097661 
L 322.720364 360.898877 
L 324.850909 360.488907 
L 328.401818 360.43735 
L 329.822182 360.349645 
L 335.503636 360.180678 
L 341.895273 359.779071 
L 344.025818 359.689638 
L 346.866545 359.593676 
L 348.286909 359.617572 
L 348.997091 359.453021 
L 351.837818 359.490429 
L 352.548 359.334575 
L 355.388727 359.219018 
L 361.070182 358.990293 
L 361.780364 358.800006 
L 362.490545 358.773106 
L 363.200727 358.442143 
L 364.621091 358.316513 
L 365.331273 357.752623 
L 366.041455 357.735593 
L 366.751636 357.533177 
L 371.012727 357.261656 
L 372.433091 357.21204 
L 373.143273 357.056082 
L 377.404364 356.92048 
L 378.824727 356.921501 
L 379.534909 356.765158 
L 380.245091 356.761307 
L 380.955273 356.373068 
L 383.085818 356.237297 
L 387.346909 356.139352 
L 390.187636 356.192996 
L 391.608 355.994157 
L 395.158909 355.945771 
L 398.709818 355.676749 
L 404.391273 355.421845 
L 405.101455 355.239734 
L 409.362545 355.191391 
L 410.072727 354.521861 
L 413.623636 354.433109 
L 417.884727 353.940924 
L 418.594909 353.766815 
L 419.305091 353.724306 
L 420.015273 353.509263 
L 422.856 353.577802 
L 424.276364 353.399734 
L 426.406909 353.20561 
L 427.117091 352.907117 
L 429.247636 352.857444 
L 429.957818 352.748696 
L 432.088364 352.754232 
L 435.639273 352.763495 
L 441.320727 352.541029 
L 442.741091 352.46522 
L 447.002182 352.175199 
L 447.712364 351.977136 
L 449.132727 351.878088 
L 450.553091 351.817377 
L 451.973455 351.736623 
L 454.814182 351.461067 
L 456.234545 351.483784 
L 456.944727 351.16787 
L 457.654909 351.015247 
L 458.365091 351.013768 
L 460.495636 350.614326 
L 462.626182 350.636656 
L 466.177091 350.230164 
L 475.409455 350.194397 
L 476.119636 350.01602 
L 479.670545 349.823742 
L 480.380727 349.689914 
L 481.090909 349.413699 
L 482.511273 349.273869 
L 483.221455 348.89131 
L 484.641818 348.819803 
L 492.453818 348.795795 
L 493.164 348.691044 
L 493.874182 348.382804 
L 498.135273 348.370705 
L 498.845455 348.151155 
L 502.396364 348.120312 
L 506.657455 347.987512 
L 509.498182 347.732874 
L 512.338909 347.755708 
L 513.049091 347.372153 
L 515.889818 347.155378 
L 516.6 347.009158 
L 522.281455 346.90439 
L 525.122182 346.617738 
L 527.252727 346.567281 
L 528.673091 346.583215 
L 529.383273 346.371895 
L 532.224 346.339268 
L 533.644364 346.310005 
L 535.064727 345.86587 
L 546.427636 345.607337 
L 552.109091 345.098525 
L 552.819273 344.945766 
L 555.66 344.973099 
L 557.080364 344.884319 
L 557.790545 344.867563 
L 558.500727 344.54703 
L 559.921091 344.464665 
L 563.472 344.283165 
L 564.182182 344.303261 
L 565.602545 344.212735 
L 567.022909 344.132507 
L 569.153455 344.09409 
L 569.863636 343.888217 
L 572.704364 343.883554 
L 576.255273 343.714265 
L 578.385818 343.67883 
L 579.096 343.367759 
L 584.067273 343.242078 
L 586.197818 343.082599 
L 586.908 342.853314 
L 589.038545 342.763913 
L 593.299636 342.658453 
L 594.009818 342.507601 
L 596.140364 342.472525 
L 596.850545 342.077461 
L 599.691273 341.965258 
L 601.111636 341.837419 
L 601.821818 341.425833 
L 603.242182 341.418084 
L 605.372727 341.107954 
L 606.082909 341.111131 
L 606.793091 340.91398 
L 608.923636 340.862801 
L 609.633818 340.609327 
L 612.474545 340.475866 
L 616.025455 340.38642 
L 618.156 340.188545 
L 620.286545 340.122222 
L 621.706909 340.071376 
L 623.837455 340.068389 
L 624.547636 339.779074 
L 625.257818 339.778472 
L 627.388364 339.426695 
L 633.78 339.195006 
L 635.200364 339.039068 
L 637.330909 338.973891 
L 638.041091 339.009311 
L 638.751273 338.842594 
L 642.302182 338.805519 
L 646.563273 338.358379 
L 647.273455 338.240001 
L 648.693818 338.225044 
L 649.404 337.989129 
L 652.244727 337.65773 
L 653.665091 337.700925 
L 654.375273 337.016516 
L 660.056727 336.93221 
L 660.766909 336.812896 
L 664.317818 336.820222 
L 666.448364 336.776799 
L 667.158545 336.778385 
L 667.868727 336.281843 
L 672.129818 336.206267 
L 672.84 336.034785 
L 677.811273 336.034085 
L 679.231636 335.926531 
L 682.072364 335.899497 
L 682.782545 335.744872 
L 685.623273 335.676854 
L 688.464 335.597871 
L 689.884364 335.576382 
L 690.594545 335.442258 
L 696.276 335.361064 
L 696.986182 334.706198 
L 699.116727 334.653752 
L 699.826909 334.678906 
L 701.247273 334.555463 
L 705.508364 334.266771 
L 714.740727 333.762157 
L 715.450909 333.516658 
L 716.161091 333.514895 
L 717.581455 333.283977 
L 721.842545 333.206451 
L 723.262909 332.830848 
L 723.973091 332.841161 
L 724.683273 332.706538 
L 726.103636 332.687965 
L 727.524 332.577631 
L 731.074909 332.56243 
L 733.205455 332.457527 
L 736.046182 332.449111 
L 736.756364 332.121339 
L 737.466545 332.129687 
L 738.176727 331.803298 
L 738.886909 331.674454 
L 741.727636 331.72737 
L 743.148 331.622121 
L 745.988727 331.54938 
L 748.119273 331.368563 
L 748.829455 331.293264 
L 749.539636 331.094258 
L 750.96 331.010233 
L 751.670182 330.861425 
L 753.090545 330.849686 
L 754.510909 330.744765 
L 759.482182 330.706672 
L 760.192364 330.088515 
L 763.743273 329.924676 
L 765.163636 329.94357 
L 765.873818 329.813575 
L 774.396 329.583591 
L 775.106182 329.37651 
L 785.048727 329.298691 
L 785.758909 329.221898 
L 787.179273 328.743102 
L 787.889455 328.737247 
L 788.599636 328.616216 
L 794.991273 328.577643 
L 797.121818 328.481114 
L 798.542182 328.444665 
L 799.962545 327.82111 
L 802.803273 327.728128 
L 803.513455 327.569283 
L 804.223636 327.554593 
L 805.644 327.283653 
L 806.354182 327.13835 
L 807.774545 327.039971 
L 809.194909 326.791754 
L 811.325455 326.538292 
L 812.035636 326.484145 
L 812.745818 326.267437 
L 814.166182 326.251509 
L 814.876364 325.919266 
L 816.296727 325.911206 
L 817.006909 325.568043 
L 824.818909 325.168815 
L 826.239273 325.183662 
L 826.949455 324.926845 
L 828.369818 324.803721 
L 829.08 324.741895 
L 829.790182 324.488547 
L 836.181818 324.468906 
L 836.892 324.096384 
L 841.153091 323.928881 
L 842.573455 323.820665 
L 846.124364 323.672401 
L 846.834545 323.487884 
L 850.385455 323.290308 
L 854.646545 323.10295 
L 858.197455 323.005273 
L 861.748364 322.65488 
L 862.458545 322.416036 
L 866.719636 322.394361 
L 868.14 322.39235 
L 868.850182 322.202723 
L 870.270545 322.181919 
L 870.980727 321.883975 
L 871.690909 321.780583 
L 871.690909 321.780583 
" clip-path="url(#pd0296e77b1)" style="fill: none; stroke: #2ca02c; stroke-width: 1.5; stroke-linecap: square"/>
   </g>
   <g id="patch_3">
    <path d="M 126 384.48 
L 126 51.84 
" style="fill: none; stroke: #000000; stroke-width: 0.8; stroke-linejoin: miter; stroke-linecap: square"/>
   </g>
   <g id="patch_4">
    <path d="M 907.2 384.48 
L 907.2 51.84 
" style="fill: none; stroke: #000000; stroke-width: 0.8; stroke-linejoin: miter; stroke-linecap: square"/>
   </g>
   <g id="patch_5">
    <path d="M 126 384.48 
L 907.2 384.48 
" style="fill: none; stroke: #000000; stroke-width: 0.8; stroke-linejoin: miter; stroke-linecap: square"/>
   </g>
   <g id="patch_6">
    <path d="M 126 51.84 
L 907.2 51.84 
" style="fill: none; stroke: #000000; stroke-width: 0.8; stroke-linejoin: miter; stroke-linecap: square"/>
   </g>
   <g id="text_17">
    <!-- Quadratic Covariation of $X_t$ and $S_t$ -->
    <g transform="translate(414.54 45.84)scale(0.12 -0.12)">
     <defs>
      <path id="DejaVuSans-66" d="M 2375 4863 
L 2375 4384 
L 1825 4384 
Q 1516 4384 1395 4259 
Q 1275 4134 1275 3809 
L 1275 3500 
L 2222 3500 
L 2222 3053 
L 1275 3053 
L 1275 0 
L 697 0 
L 697 3053 
L 147 3053 
L 147 3500 
L 697 3500 
L 697 3744 
Q 697 4328 969 4595 
Q 1241 4863 1831 4863 
L 2375 4863 
z
" transform="scale(0.015625)"/>
      <path id="DejaVuSans-Oblique-58" d="M 878 4666 
L 1516 4666 
L 2316 2981 
L 3763 4666 
L 4500 4666 
L 2578 2438 
L 3738 0 
L 3103 0 
L 2163 1966 
L 459 0 
L -275 0 
L 1906 2509 
L 878 4666 
z
" transform="scale(0.015625)"/>
      <path id="DejaVuSans-Oblique-74" d="M 2706 3500 
L 2619 3053 
L 1472 3053 
L 1100 1153 
Q 1081 1047 1072 975 
Q 1063 903 1063 863 
Q 1063 663 1183 572 
Q 1303 481 1569 481 
L 2150 481 
L 2053 0 
L 1503 0 
Q 991 0 739 200 
Q 488 400 488 806 
Q 488 878 497 964 
Q 506 1050 525 1153 
L 897 3053 
L 409 3053 
L 500 3500 
L 978 3500 
L 1172 4494 
L 1747 4494 
L 1556 3500 
L 2706 3500 
z
" transform="scale(0.015625)"/>
      <path id="DejaVuSans-Oblique-53" d="M 3859 4513 
L 3738 3897 
Q 3422 4066 3111 4152 
Q 2800 4238 2509 4238 
Q 1944 4238 1609 3991 
Q 1275 3744 1275 3334 
Q 1275 3109 1398 2989 
Q 1522 2869 2034 2731 
L 2413 2638 
Q 3053 2472 3303 2217 
Q 3553 1963 3553 1503 
Q 3553 797 2998 353 
Q 2444 -91 1538 -91 
Q 1166 -91 791 -17 
Q 416 56 38 206 
L 166 856 
Q 513 641 861 531 
Q 1209 422 1556 422 
Q 2147 422 2503 684 
Q 2859 947 2859 1369 
Q 2859 1650 2717 1795 
Q 2575 1941 2106 2059 
L 1728 2156 
Q 1081 2325 845 2545 
Q 609 2766 609 3163 
Q 609 3859 1145 4304 
Q 1681 4750 2541 4750 
Q 2875 4750 3203 4690 
Q 3531 4631 3859 4513 
z
" transform="scale(0.015625)"/>
     </defs>
     <use xlink:href="#DejaVuSans-51" transform="translate(0 0.015625)"/>
     <use xlink:href="#DejaVuSans-75" transform="translate(78.710938 0.015625)"/>
     <use xlink:href="#DejaVuSans-61" transform="translate(142.089844 0.015625)"/>
     <use xlink:href="#DejaVuSans-64" transform="translate(203.369141 0.015625)"/>
     <use xlink:href="#DejaVuSans-72" transform="translate(266.845703 0.015625)"/>
     <use xlink:href="#DejaVuSans-61" transform="translate(307.958984 0.015625)"/>
     <use xlink:href="#DejaVuSans-74" transform="translate(369.238281 0.015625)"/>
     <use xlink:href="#DejaVuSans-69" transform="translate(408.447266 0.015625)"/>
     <use xlink:href="#DejaVuSans-63" transform="translate(436.230469 0.015625)"/>
     <use xlink:href="#DejaVuSans-20" transform="translate(491.210938 0.015625)"/>
     <use xlink:href="#DejaVuSans-43" transform="translate(522.998047 0.015625)"/>
     <use xlink:href="#DejaVuSans-6f" transform="translate(592.822266 0.015625)"/>
     <use xlink:href="#DejaVuSans-76" transform="translate(654.003906 0.015625)"/>
     <use xlink:href="#DejaVuSans-61" transform="translate(713.183594 0.015625)"/>
     <use xlink:href="#DejaVuSans-72" transform="translate(774.462891 0.015625)"/>
     <use xlink:href="#DejaVuSans-69" transform="translate(815.576172 0.015625)"/>
     <use xlink:href="#DejaVuSans-61" transform="translate(843.359375 0.015625)"/>
     <use xlink:href="#DejaVuSans-74" transform="translate(904.638672 0.015625)"/>
     <use xlink:href="#DejaVuSans-69" transform="translate(943.847656 0.015625)"/>
     <use xlink:href="#DejaVuSans-6f" transform="translate(971.630859 0.015625)"/>
     <use xlink:href="#DejaVuSans-6e" transform="translate(1032.8125 0.015625)"/>
     <use xlink:href="#DejaVuSans-20" transform="translate(1096.191406 0.015625)"/>
     <use xlink:href="#DejaVuSans-6f" transform="translate(1127.978516 0.015625)"/>
     <use xlink:href="#DejaVuSans-66" transform="translate(1189.160156 0.015625)"/>
     <use xlink:href="#DejaVuSans-20" transform="translate(1224.365234 0.015625)"/>
     <use xlink:href="#DejaVuSans-Oblique-58" transform="translate(1256.152344 0.015625)"/>
     <use xlink:href="#DejaVuSans-Oblique-74" transform="translate(1324.658203 -16.390625)scale(0.7)"/>
     <use xlink:href="#DejaVuSans-20" transform="translate(1354.838867 0.015625)"/>
     <use xlink:href="#DejaVuSans-61" transform="translate(1386.625977 0.015625)"/>
     <use xlink:href="#DejaVuSans-6e" transform="translate(1447.905273 0.015625)"/>
     <use xlink:href="#DejaVuSans-64" transform="translate(1511.28418 0.015625)"/>
     <use xlink:href="#DejaVuSans-20" transform="translate(1574.760742 0.015625)"/>
     <use xlink:href="#DejaVuSans-Oblique-53" transform="translate(1606.547852 0.015625)"/>
     <use xlink:href="#DejaVuSans-Oblique-74" transform="translate(1670.024414 -16.390625)scale(0.7)"/>
    </g>
   </g>
   <g id="legend_1">
    <g id="patch_7">
     <path d="M 133 103.874375 
L 335.1 103.874375 
Q 337.1 103.874375 337.1 101.874375 
L 337.1 58.84 
Q 337.1 56.84 335.1 56.84 
L 133 56.84 
Q 131 56.84 131 58.84 
L 131 101.874375 
Q 131 103.874375 133 103.874375 
z
" style="fill: #ffffff; opacity: 0.8; stroke: #cccccc; stroke-linejoin: miter"/>
    </g>
    <g id="line2d_18">
     <path d="M 135 64.938437 
L 145 64.938437 
L 155 64.938437 
" style="fill: none; stroke: #1f77b4; stroke-width: 1.5; stroke-linecap: square"/>
    </g>
    <g id="text_18">
     <!-- $X_t$ -->
     <g transform="translate(163 68.438437)scale(0.1 -0.1)">
      <use xlink:href="#DejaVuSans-Oblique-58" transform="translate(0 0.09375)"/>
      <use xlink:href="#DejaVuSans-Oblique-74" transform="translate(68.505859 -16.3125)scale(0.7)"/>
     </g>
    </g>
    <g id="line2d_19">
     <path d="M 135 79.616562 
L 145 79.616562 
L 155 79.616562 
" style="fill: none; stroke: #ff7f0e; stroke-width: 1.5; stroke-linecap: square"/>
    </g>
    <g id="text_19">
     <!-- $S_t$ -->
     <g transform="translate(163 83.116562)scale(0.1 -0.1)">
      <use xlink:href="#DejaVuSans-Oblique-53" transform="translate(0 0.78125)"/>
      <use xlink:href="#DejaVuSans-Oblique-74" transform="translate(63.476562 -15.625)scale(0.7)"/>
     </g>
    </g>
    <g id="line2d_20">
     <path d="M 135 94.294687 
L 145 94.294687 
L 155 94.294687 
" style="fill: none; stroke: #2ca02c; stroke-width: 1.5; stroke-linecap: square"/>
    </g>
    <g id="text_20">
     <!-- Quadratic Covariation of $X_t$ and $S_t$ -->
     <g transform="translate(163 97.794687)scale(0.1 -0.1)">
      <use xlink:href="#DejaVuSans-51" transform="translate(0 0.015625)"/>
      <use xlink:href="#DejaVuSans-75" transform="translate(78.710938 0.015625)"/>
      <use xlink:href="#DejaVuSans-61" transform="translate(142.089844 0.015625)"/>
      <use xlink:href="#DejaVuSans-64" transform="translate(203.369141 0.015625)"/>
      <use xlink:href="#DejaVuSans-72" transform="translate(266.845703 0.015625)"/>
      <use xlink:href="#DejaVuSans-61" transform="translate(307.958984 0.015625)"/>
      <use xlink:href="#DejaVuSans-74" transform="translate(369.238281 0.015625)"/>
      <use xlink:href="#DejaVuSans-69" transform="translate(408.447266 0.015625)"/>
      <use xlink:href="#DejaVuSans-63" transform="translate(436.230469 0.015625)"/>
      <use xlink:href="#DejaVuSans-20" transform="translate(491.210938 0.015625)"/>
      <use xlink:href="#DejaVuSans-43" transform="translate(522.998047 0.015625)"/>
      <use xlink:href="#DejaVuSans-6f" transform="translate(592.822266 0.015625)"/>
      <use xlink:href="#DejaVuSans-76" transform="translate(654.003906 0.015625)"/>
      <use xlink:href="#DejaVuSans-61" transform="translate(713.183594 0.015625)"/>
      <use xlink:href="#DejaVuSans-72" transform="translate(774.462891 0.015625)"/>
      <use xlink:href="#DejaVuSans-69" transform="translate(815.576172 0.015625)"/>
      <use xlink:href="#DejaVuSans-61" transform="translate(843.359375 0.015625)"/>
      <use xlink:href="#DejaVuSans-74" transform="translate(904.638672 0.015625)"/>
      <use xlink:href="#DejaVuSans-69" transform="translate(943.847656 0.015625)"/>
      <use xlink:href="#DejaVuSans-6f" transform="translate(971.630859 0.015625)"/>
      <use xlink:href="#DejaVuSans-6e" transform="translate(1032.8125 0.015625)"/>
      <use xlink:href="#DejaVuSans-20" transform="translate(1096.191406 0.015625)"/>
      <use xlink:href="#DejaVuSans-6f" transform="translate(1127.978516 0.015625)"/>
      <use xlink:href="#DejaVuSans-66" transform="translate(1189.160156 0.015625)"/>
      <use xlink:href="#DejaVuSans-20" transform="translate(1224.365234 0.015625)"/>
      <use xlink:href="#DejaVuSans-Oblique-58" transform="translate(1256.152344 0.015625)"/>
      <use xlink:href="#DejaVuSans-Oblique-74" transform="translate(1324.658203 -16.390625)scale(0.7)"/>
      <use xlink:href="#DejaVuSans-20" transform="translate(1354.838867 0.015625)"/>
      <use xlink:href="#DejaVuSans-61" transform="translate(1386.625977 0.015625)"/>
      <use xlink:href="#DejaVuSans-6e" transform="translate(1447.905273 0.015625)"/>
      <use xlink:href="#DejaVuSans-64" transform="translate(1511.28418 0.015625)"/>
      <use xlink:href="#DejaVuSans-20" transform="translate(1574.760742 0.015625)"/>
      <use xlink:href="#DejaVuSans-Oblique-53" transform="translate(1606.547852 0.015625)"/>
      <use xlink:href="#DejaVuSans-Oblique-74" transform="translate(1670.024414 -16.390625)scale(0.7)"/>
     </g>
    </g>
   </g>
  </g>
 </g>
 <defs>
  <clipPath id="pd0296e77b1">
   <rect x="126" y="51.84" width="781.2" height="332.64"/>
  </clipPath>
 </defs>
</svg>
