<?xml version="1.0" encoding="utf-8" standalone="no"?>
<!DOCTYPE svg PUBLIC "-//W3C//DTD SVG 1.1//EN"
  "http://www.w3.org/Graphics/SVG/1.1/DTD/svg11.dtd">
<svg xmlns:xlink="http://www.w3.org/1999/xlink" width="1008pt" height="432pt" viewBox="0 0 1008 432" xmlns="http://www.w3.org/2000/svg" version="1.1">
 <metadata>
  <rdf:RDF xmlns:dc="http://purl.org/dc/elements/1.1/" xmlns:cc="http://creativecommons.org/ns#" xmlns:rdf="http://www.w3.org/1999/02/22-rdf-syntax-ns#">
   <cc:Work>
    <dc:type rdf:resource="http://purl.org/dc/dcmitype/StillImage"/>
    <dc:date>2023-12-22T17:09:46.223765</dc:date>
    <dc:format>image/svg+xml</dc:format>
    <dc:creator>
     <cc:Agent>
      <dc:title>Matplotlib v3.5.2, https://matplotlib.org/</dc:title>
     </cc:Agent>
    </dc:creator>
   </cc:Work>
  </rdf:RDF>
 </metadata>
 <defs>
  <style type="text/css">*{stroke-linejoin: round; stroke-linecap: butt}</style>
 </defs>
 <g id="figure_1">
  <g id="patch_1">
   <path d="M 0 432 
L 1008 432 
L 1008 0 
L 0 0 
z
" style="fill: #ffffff"/>
  </g>
  <g id="axes_1">
   <g id="patch_2">
    <path d="M 126 384.48 
L 907.2 384.48 
L 907.2 51.84 
L 126 51.84 
z
" style="fill: #ffffff"/>
   </g>
   <g id="matplotlib.axis_1">
    <g id="xtick_1">
     <g id="line2d_1">
      <defs>
       <path id="mc6487a5434" d="M 0 0 
L 0 3.5 
" style="stroke: #000000; stroke-width: 0.8"/>
      </defs>
      <g>
       <use xlink:href="#mc6487a5434" x="161.509091" y="384.48" style="stroke: #000000; stroke-width: 0.8"/>
      </g>
     </g>
     <g id="text_1">
      <!-- 0.0 -->
      <g transform="translate(153.557528 399.078438)scale(0.1 -0.1)">
       <defs>
        <path id="DejaVuSans-30" d="M 2034 4250 
Q 1547 4250 1301 3770 
Q 1056 3291 1056 2328 
Q 1056 1369 1301 889 
Q 1547 409 2034 409 
Q 2525 409 2770 889 
Q 3016 1369 3016 2328 
Q 3016 3291 2770 3770 
Q 2525 4250 2034 4250 
z
M 2034 4750 
Q 2819 4750 3233 4129 
Q 3647 3509 3647 2328 
Q 3647 1150 3233 529 
Q 2819 -91 2034 -91 
Q 1250 -91 836 529 
Q 422 1150 422 2328 
Q 422 3509 836 4129 
Q 1250 4750 2034 4750 
z
" transform="scale(0.015625)"/>
        <path id="DejaVuSans-2e" d="M 684 794 
L 1344 794 
L 1344 0 
L 684 0 
L 684 794 
z
" transform="scale(0.015625)"/>
       </defs>
       <use xlink:href="#DejaVuSans-30"/>
       <use xlink:href="#DejaVuSans-2e" x="63.623047"/>
       <use xlink:href="#DejaVuSans-30" x="95.410156"/>
      </g>
     </g>
    </g>
    <g id="xtick_2">
     <g id="line2d_2">
      <g>
       <use xlink:href="#mc6487a5434" x="303.545455" y="384.48" style="stroke: #000000; stroke-width: 0.8"/>
      </g>
     </g>
     <g id="text_2">
      <!-- 0.2 -->
      <g transform="translate(295.593892 399.078438)scale(0.1 -0.1)">
       <defs>
        <path id="DejaVuSans-32" d="M 1228 531 
L 3431 531 
L 3431 0 
L 469 0 
L 469 531 
Q 828 903 1448 1529 
Q 2069 2156 2228 2338 
Q 2531 2678 2651 2914 
Q 2772 3150 2772 3378 
Q 2772 3750 2511 3984 
Q 2250 4219 1831 4219 
Q 1534 4219 1204 4116 
Q 875 4013 500 3803 
L 500 4441 
Q 881 4594 1212 4672 
Q 1544 4750 1819 4750 
Q 2544 4750 2975 4387 
Q 3406 4025 3406 3419 
Q 3406 3131 3298 2873 
Q 3191 2616 2906 2266 
Q 2828 2175 2409 1742 
Q 1991 1309 1228 531 
z
" transform="scale(0.015625)"/>
       </defs>
       <use xlink:href="#DejaVuSans-30"/>
       <use xlink:href="#DejaVuSans-2e" x="63.623047"/>
       <use xlink:href="#DejaVuSans-32" x="95.410156"/>
      </g>
     </g>
    </g>
    <g id="xtick_3">
     <g id="line2d_3">
      <g>
       <use xlink:href="#mc6487a5434" x="445.581818" y="384.48" style="stroke: #000000; stroke-width: 0.8"/>
      </g>
     </g>
     <g id="text_3">
      <!-- 0.4 -->
      <g transform="translate(437.630256 399.078438)scale(0.1 -0.1)">
       <defs>
        <path id="DejaVuSans-34" d="M 2419 4116 
L 825 1625 
L 2419 1625 
L 2419 4116 
z
M 2253 4666 
L 3047 4666 
L 3047 1625 
L 3713 1625 
L 3713 1100 
L 3047 1100 
L 3047 0 
L 2419 0 
L 2419 1100 
L 313 1100 
L 313 1709 
L 2253 4666 
z
" transform="scale(0.015625)"/>
       </defs>
       <use xlink:href="#DejaVuSans-30"/>
       <use xlink:href="#DejaVuSans-2e" x="63.623047"/>
       <use xlink:href="#DejaVuSans-34" x="95.410156"/>
      </g>
     </g>
    </g>
    <g id="xtick_4">
     <g id="line2d_4">
      <g>
       <use xlink:href="#mc6487a5434" x="587.618182" y="384.48" style="stroke: #000000; stroke-width: 0.8"/>
      </g>
     </g>
     <g id="text_4">
      <!-- 0.6 -->
      <g transform="translate(579.666619 399.078438)scale(0.1 -0.1)">
       <defs>
        <path id="DejaVuSans-36" d="M 2113 2584 
Q 1688 2584 1439 2293 
Q 1191 2003 1191 1497 
Q 1191 994 1439 701 
Q 1688 409 2113 409 
Q 2538 409 2786 701 
Q 3034 994 3034 1497 
Q 3034 2003 2786 2293 
Q 2538 2584 2113 2584 
z
M 3366 4563 
L 3366 3988 
Q 3128 4100 2886 4159 
Q 2644 4219 2406 4219 
Q 1781 4219 1451 3797 
Q 1122 3375 1075 2522 
Q 1259 2794 1537 2939 
Q 1816 3084 2150 3084 
Q 2853 3084 3261 2657 
Q 3669 2231 3669 1497 
Q 3669 778 3244 343 
Q 2819 -91 2113 -91 
Q 1303 -91 875 529 
Q 447 1150 447 2328 
Q 447 3434 972 4092 
Q 1497 4750 2381 4750 
Q 2619 4750 2861 4703 
Q 3103 4656 3366 4563 
z
" transform="scale(0.015625)"/>
       </defs>
       <use xlink:href="#DejaVuSans-30"/>
       <use xlink:href="#DejaVuSans-2e" x="63.623047"/>
       <use xlink:href="#DejaVuSans-36" x="95.410156"/>
      </g>
     </g>
    </g>
    <g id="xtick_5">
     <g id="line2d_5">
      <g>
       <use xlink:href="#mc6487a5434" x="729.654545" y="384.48" style="stroke: #000000; stroke-width: 0.8"/>
      </g>
     </g>
     <g id="text_5">
      <!-- 0.8 -->
      <g transform="translate(721.702983 399.078438)scale(0.1 -0.1)">
       <defs>
        <path id="DejaVuSans-38" d="M 2034 2216 
Q 1584 2216 1326 1975 
Q 1069 1734 1069 1313 
Q 1069 891 1326 650 
Q 1584 409 2034 409 
Q 2484 409 2743 651 
Q 3003 894 3003 1313 
Q 3003 1734 2745 1975 
Q 2488 2216 2034 2216 
z
M 1403 2484 
Q 997 2584 770 2862 
Q 544 3141 544 3541 
Q 544 4100 942 4425 
Q 1341 4750 2034 4750 
Q 2731 4750 3128 4425 
Q 3525 4100 3525 3541 
Q 3525 3141 3298 2862 
Q 3072 2584 2669 2484 
Q 3125 2378 3379 2068 
Q 3634 1759 3634 1313 
Q 3634 634 3220 271 
Q 2806 -91 2034 -91 
Q 1263 -91 848 271 
Q 434 634 434 1313 
Q 434 1759 690 2068 
Q 947 2378 1403 2484 
z
M 1172 3481 
Q 1172 3119 1398 2916 
Q 1625 2713 2034 2713 
Q 2441 2713 2670 2916 
Q 2900 3119 2900 3481 
Q 2900 3844 2670 4047 
Q 2441 4250 2034 4250 
Q 1625 4250 1398 4047 
Q 1172 3844 1172 3481 
z
" transform="scale(0.015625)"/>
       </defs>
       <use xlink:href="#DejaVuSans-30"/>
       <use xlink:href="#DejaVuSans-2e" x="63.623047"/>
       <use xlink:href="#DejaVuSans-38" x="95.410156"/>
      </g>
     </g>
    </g>
    <g id="xtick_6">
     <g id="line2d_6">
      <g>
       <use xlink:href="#mc6487a5434" x="871.690909" y="384.48" style="stroke: #000000; stroke-width: 0.8"/>
      </g>
     </g>
     <g id="text_6">
      <!-- 1.0 -->
      <g transform="translate(863.739347 399.078438)scale(0.1 -0.1)">
       <defs>
        <path id="DejaVuSans-31" d="M 794 531 
L 1825 531 
L 1825 4091 
L 703 3866 
L 703 4441 
L 1819 4666 
L 2450 4666 
L 2450 531 
L 3481 531 
L 3481 0 
L 794 0 
L 794 531 
z
" transform="scale(0.015625)"/>
       </defs>
       <use xlink:href="#DejaVuSans-31"/>
       <use xlink:href="#DejaVuSans-2e" x="63.623047"/>
       <use xlink:href="#DejaVuSans-30" x="95.410156"/>
      </g>
     </g>
    </g>
    <g id="text_7">
     <!-- Time -->
     <g transform="translate(504.366406 412.756563)scale(0.1 -0.1)">
      <defs>
       <path id="DejaVuSans-54" d="M -19 4666 
L 3928 4666 
L 3928 4134 
L 2272 4134 
L 2272 0 
L 1638 0 
L 1638 4134 
L -19 4134 
L -19 4666 
z
" transform="scale(0.015625)"/>
       <path id="DejaVuSans-69" d="M 603 3500 
L 1178 3500 
L 1178 0 
L 603 0 
L 603 3500 
z
M 603 4863 
L 1178 4863 
L 1178 4134 
L 603 4134 
L 603 4863 
z
" transform="scale(0.015625)"/>
       <path id="DejaVuSans-6d" d="M 3328 2828 
Q 3544 3216 3844 3400 
Q 4144 3584 4550 3584 
Q 5097 3584 5394 3201 
Q 5691 2819 5691 2113 
L 5691 0 
L 5113 0 
L 5113 2094 
Q 5113 2597 4934 2840 
Q 4756 3084 4391 3084 
Q 3944 3084 3684 2787 
Q 3425 2491 3425 1978 
L 3425 0 
L 2847 0 
L 2847 2094 
Q 2847 2600 2669 2842 
Q 2491 3084 2119 3084 
Q 1678 3084 1418 2786 
Q 1159 2488 1159 1978 
L 1159 0 
L 581 0 
L 581 3500 
L 1159 3500 
L 1159 2956 
Q 1356 3278 1631 3431 
Q 1906 3584 2284 3584 
Q 2666 3584 2933 3390 
Q 3200 3197 3328 2828 
z
" transform="scale(0.015625)"/>
       <path id="DejaVuSans-65" d="M 3597 1894 
L 3597 1613 
L 953 1613 
Q 991 1019 1311 708 
Q 1631 397 2203 397 
Q 2534 397 2845 478 
Q 3156 559 3463 722 
L 3463 178 
Q 3153 47 2828 -22 
Q 2503 -91 2169 -91 
Q 1331 -91 842 396 
Q 353 884 353 1716 
Q 353 2575 817 3079 
Q 1281 3584 2069 3584 
Q 2775 3584 3186 3129 
Q 3597 2675 3597 1894 
z
M 3022 2063 
Q 3016 2534 2758 2815 
Q 2500 3097 2075 3097 
Q 1594 3097 1305 2825 
Q 1016 2553 972 2059 
L 3022 2063 
z
" transform="scale(0.015625)"/>
      </defs>
      <use xlink:href="#DejaVuSans-54"/>
      <use xlink:href="#DejaVuSans-69" x="57.958984"/>
      <use xlink:href="#DejaVuSans-6d" x="85.742188"/>
      <use xlink:href="#DejaVuSans-65" x="183.154297"/>
     </g>
    </g>
   </g>
   <g id="matplotlib.axis_2">
    <g id="ytick_1">
     <g id="line2d_7">
      <defs>
       <path id="m00218652c0" d="M 0 0 
L -3.5 0 
" style="stroke: #000000; stroke-width: 0.8"/>
      </defs>
      <g>
       <use xlink:href="#m00218652c0" x="126" y="358.898108" style="stroke: #000000; stroke-width: 0.8"/>
      </g>
     </g>
     <g id="text_8">
      <!-- 0.0 -->
      <g transform="translate(103.096875 362.697327)scale(0.1 -0.1)">
       <use xlink:href="#DejaVuSans-30"/>
       <use xlink:href="#DejaVuSans-2e" x="63.623047"/>
       <use xlink:href="#DejaVuSans-30" x="95.410156"/>
      </g>
     </g>
    </g>
    <g id="ytick_2">
     <g id="line2d_8">
      <g>
       <use xlink:href="#m00218652c0" x="126" y="296.827859" style="stroke: #000000; stroke-width: 0.8"/>
      </g>
     </g>
     <g id="text_9">
      <!-- 0.5 -->
      <g transform="translate(103.096875 300.627078)scale(0.1 -0.1)">
       <defs>
        <path id="DejaVuSans-35" d="M 691 4666 
L 3169 4666 
L 3169 4134 
L 1269 4134 
L 1269 2991 
Q 1406 3038 1543 3061 
Q 1681 3084 1819 3084 
Q 2600 3084 3056 2656 
Q 3513 2228 3513 1497 
Q 3513 744 3044 326 
Q 2575 -91 1722 -91 
Q 1428 -91 1123 -41 
Q 819 9 494 109 
L 494 744 
Q 775 591 1075 516 
Q 1375 441 1709 441 
Q 2250 441 2565 725 
Q 2881 1009 2881 1497 
Q 2881 1984 2565 2268 
Q 2250 2553 1709 2553 
Q 1456 2553 1204 2497 
Q 953 2441 691 2322 
L 691 4666 
z
" transform="scale(0.015625)"/>
       </defs>
       <use xlink:href="#DejaVuSans-30"/>
       <use xlink:href="#DejaVuSans-2e" x="63.623047"/>
       <use xlink:href="#DejaVuSans-35" x="95.410156"/>
      </g>
     </g>
    </g>
    <g id="ytick_3">
     <g id="line2d_9">
      <g>
       <use xlink:href="#m00218652c0" x="126" y="234.757611" style="stroke: #000000; stroke-width: 0.8"/>
      </g>
     </g>
     <g id="text_10">
      <!-- 1.0 -->
      <g transform="translate(103.096875 238.556829)scale(0.1 -0.1)">
       <use xlink:href="#DejaVuSans-31"/>
       <use xlink:href="#DejaVuSans-2e" x="63.623047"/>
       <use xlink:href="#DejaVuSans-30" x="95.410156"/>
      </g>
     </g>
    </g>
    <g id="ytick_4">
     <g id="line2d_10">
      <g>
       <use xlink:href="#m00218652c0" x="126" y="172.687362" style="stroke: #000000; stroke-width: 0.8"/>
      </g>
     </g>
     <g id="text_11">
      <!-- 1.5 -->
      <g transform="translate(103.096875 176.48658)scale(0.1 -0.1)">
       <use xlink:href="#DejaVuSans-31"/>
       <use xlink:href="#DejaVuSans-2e" x="63.623047"/>
       <use xlink:href="#DejaVuSans-35" x="95.410156"/>
      </g>
     </g>
    </g>
    <g id="ytick_5">
     <g id="line2d_11">
      <g>
       <use xlink:href="#m00218652c0" x="126" y="110.617113" style="stroke: #000000; stroke-width: 0.8"/>
      </g>
     </g>
     <g id="text_12">
      <!-- 2.0 -->
      <g transform="translate(103.096875 114.416331)scale(0.1 -0.1)">
       <use xlink:href="#DejaVuSans-32"/>
       <use xlink:href="#DejaVuSans-2e" x="63.623047"/>
       <use xlink:href="#DejaVuSans-30" x="95.410156"/>
      </g>
     </g>
    </g>
    <g id="text_13">
     <!-- Quadratic Covariation -->
     <g transform="translate(97.017187 272.970156)rotate(-90)scale(0.1 -0.1)">
      <defs>
       <path id="DejaVuSans-51" d="M 2522 4238 
Q 1834 4238 1429 3725 
Q 1025 3213 1025 2328 
Q 1025 1447 1429 934 
Q 1834 422 2522 422 
Q 3209 422 3611 934 
Q 4013 1447 4013 2328 
Q 4013 3213 3611 3725 
Q 3209 4238 2522 4238 
z
M 3406 84 
L 4238 -825 
L 3475 -825 
L 2784 -78 
Q 2681 -84 2626 -87 
Q 2572 -91 2522 -91 
Q 1538 -91 948 567 
Q 359 1225 359 2328 
Q 359 3434 948 4092 
Q 1538 4750 2522 4750 
Q 3503 4750 4090 4092 
Q 4678 3434 4678 2328 
Q 4678 1516 4351 937 
Q 4025 359 3406 84 
z
" transform="scale(0.015625)"/>
       <path id="DejaVuSans-75" d="M 544 1381 
L 544 3500 
L 1119 3500 
L 1119 1403 
Q 1119 906 1312 657 
Q 1506 409 1894 409 
Q 2359 409 2629 706 
Q 2900 1003 2900 1516 
L 2900 3500 
L 3475 3500 
L 3475 0 
L 2900 0 
L 2900 538 
Q 2691 219 2414 64 
Q 2138 -91 1772 -91 
Q 1169 -91 856 284 
Q 544 659 544 1381 
z
M 1991 3584 
L 1991 3584 
z
" transform="scale(0.015625)"/>
       <path id="DejaVuSans-61" d="M 2194 1759 
Q 1497 1759 1228 1600 
Q 959 1441 959 1056 
Q 959 750 1161 570 
Q 1363 391 1709 391 
Q 2188 391 2477 730 
Q 2766 1069 2766 1631 
L 2766 1759 
L 2194 1759 
z
M 3341 1997 
L 3341 0 
L 2766 0 
L 2766 531 
Q 2569 213 2275 61 
Q 1981 -91 1556 -91 
Q 1019 -91 701 211 
Q 384 513 384 1019 
Q 384 1609 779 1909 
Q 1175 2209 1959 2209 
L 2766 2209 
L 2766 2266 
Q 2766 2663 2505 2880 
Q 2244 3097 1772 3097 
Q 1472 3097 1187 3025 
Q 903 2953 641 2809 
L 641 3341 
Q 956 3463 1253 3523 
Q 1550 3584 1831 3584 
Q 2591 3584 2966 3190 
Q 3341 2797 3341 1997 
z
" transform="scale(0.015625)"/>
       <path id="DejaVuSans-64" d="M 2906 2969 
L 2906 4863 
L 3481 4863 
L 3481 0 
L 2906 0 
L 2906 525 
Q 2725 213 2448 61 
Q 2172 -91 1784 -91 
Q 1150 -91 751 415 
Q 353 922 353 1747 
Q 353 2572 751 3078 
Q 1150 3584 1784 3584 
Q 2172 3584 2448 3432 
Q 2725 3281 2906 2969 
z
M 947 1747 
Q 947 1113 1208 752 
Q 1469 391 1925 391 
Q 2381 391 2643 752 
Q 2906 1113 2906 1747 
Q 2906 2381 2643 2742 
Q 2381 3103 1925 3103 
Q 1469 3103 1208 2742 
Q 947 2381 947 1747 
z
" transform="scale(0.015625)"/>
       <path id="DejaVuSans-72" d="M 2631 2963 
Q 2534 3019 2420 3045 
Q 2306 3072 2169 3072 
Q 1681 3072 1420 2755 
Q 1159 2438 1159 1844 
L 1159 0 
L 581 0 
L 581 3500 
L 1159 3500 
L 1159 2956 
Q 1341 3275 1631 3429 
Q 1922 3584 2338 3584 
Q 2397 3584 2469 3576 
Q 2541 3569 2628 3553 
L 2631 2963 
z
" transform="scale(0.015625)"/>
       <path id="DejaVuSans-74" d="M 1172 4494 
L 1172 3500 
L 2356 3500 
L 2356 3053 
L 1172 3053 
L 1172 1153 
Q 1172 725 1289 603 
Q 1406 481 1766 481 
L 2356 481 
L 2356 0 
L 1766 0 
Q 1100 0 847 248 
Q 594 497 594 1153 
L 594 3053 
L 172 3053 
L 172 3500 
L 594 3500 
L 594 4494 
L 1172 4494 
z
" transform="scale(0.015625)"/>
       <path id="DejaVuSans-63" d="M 3122 3366 
L 3122 2828 
Q 2878 2963 2633 3030 
Q 2388 3097 2138 3097 
Q 1578 3097 1268 2742 
Q 959 2388 959 1747 
Q 959 1106 1268 751 
Q 1578 397 2138 397 
Q 2388 397 2633 464 
Q 2878 531 3122 666 
L 3122 134 
Q 2881 22 2623 -34 
Q 2366 -91 2075 -91 
Q 1284 -91 818 406 
Q 353 903 353 1747 
Q 353 2603 823 3093 
Q 1294 3584 2113 3584 
Q 2378 3584 2631 3529 
Q 2884 3475 3122 3366 
z
" transform="scale(0.015625)"/>
       <path id="DejaVuSans-20" transform="scale(0.015625)"/>
       <path id="DejaVuSans-43" d="M 4122 4306 
L 4122 3641 
Q 3803 3938 3442 4084 
Q 3081 4231 2675 4231 
Q 1875 4231 1450 3742 
Q 1025 3253 1025 2328 
Q 1025 1406 1450 917 
Q 1875 428 2675 428 
Q 3081 428 3442 575 
Q 3803 722 4122 1019 
L 4122 359 
Q 3791 134 3420 21 
Q 3050 -91 2638 -91 
Q 1578 -91 968 557 
Q 359 1206 359 2328 
Q 359 3453 968 4101 
Q 1578 4750 2638 4750 
Q 3056 4750 3426 4639 
Q 3797 4528 4122 4306 
z
" transform="scale(0.015625)"/>
       <path id="DejaVuSans-6f" d="M 1959 3097 
Q 1497 3097 1228 2736 
Q 959 2375 959 1747 
Q 959 1119 1226 758 
Q 1494 397 1959 397 
Q 2419 397 2687 759 
Q 2956 1122 2956 1747 
Q 2956 2369 2687 2733 
Q 2419 3097 1959 3097 
z
M 1959 3584 
Q 2709 3584 3137 3096 
Q 3566 2609 3566 1747 
Q 3566 888 3137 398 
Q 2709 -91 1959 -91 
Q 1206 -91 779 398 
Q 353 888 353 1747 
Q 353 2609 779 3096 
Q 1206 3584 1959 3584 
z
" transform="scale(0.015625)"/>
       <path id="DejaVuSans-76" d="M 191 3500 
L 800 3500 
L 1894 563 
L 2988 3500 
L 3597 3500 
L 2284 0 
L 1503 0 
L 191 3500 
z
" transform="scale(0.015625)"/>
       <path id="DejaVuSans-6e" d="M 3513 2113 
L 3513 0 
L 2938 0 
L 2938 2094 
Q 2938 2591 2744 2837 
Q 2550 3084 2163 3084 
Q 1697 3084 1428 2787 
Q 1159 2491 1159 1978 
L 1159 0 
L 581 0 
L 581 3500 
L 1159 3500 
L 1159 2956 
Q 1366 3272 1645 3428 
Q 1925 3584 2291 3584 
Q 2894 3584 3203 3211 
Q 3513 2838 3513 2113 
z
" transform="scale(0.015625)"/>
      </defs>
      <use xlink:href="#DejaVuSans-51"/>
      <use xlink:href="#DejaVuSans-75" x="78.710938"/>
      <use xlink:href="#DejaVuSans-61" x="142.089844"/>
      <use xlink:href="#DejaVuSans-64" x="203.369141"/>
      <use xlink:href="#DejaVuSans-72" x="266.845703"/>
      <use xlink:href="#DejaVuSans-61" x="307.958984"/>
      <use xlink:href="#DejaVuSans-74" x="369.238281"/>
      <use xlink:href="#DejaVuSans-69" x="408.447266"/>
      <use xlink:href="#DejaVuSans-63" x="436.230469"/>
      <use xlink:href="#DejaVuSans-20" x="491.210938"/>
      <use xlink:href="#DejaVuSans-43" x="522.998047"/>
      <use xlink:href="#DejaVuSans-6f" x="592.822266"/>
      <use xlink:href="#DejaVuSans-76" x="654.003906"/>
      <use xlink:href="#DejaVuSans-61" x="713.183594"/>
      <use xlink:href="#DejaVuSans-72" x="774.462891"/>
      <use xlink:href="#DejaVuSans-69" x="815.576172"/>
      <use xlink:href="#DejaVuSans-61" x="843.359375"/>
      <use xlink:href="#DejaVuSans-74" x="904.638672"/>
      <use xlink:href="#DejaVuSans-69" x="943.847656"/>
      <use xlink:href="#DejaVuSans-6f" x="971.630859"/>
      <use xlink:href="#DejaVuSans-6e" x="1032.8125"/>
     </g>
    </g>
   </g>
   <g id="line2d_12">
    <path d="M 161.509091 234.757611 
L 162.219273 237.794194 
L 162.929455 234.505611 
L 163.639636 232.619069 
L 164.349818 226.550412 
L 165.06 226.003105 
L 165.770182 228.912751 
L 166.480364 227.246586 
L 167.190545 221.140618 
L 167.900727 216.407806 
L 168.610909 219.274732 
L 169.321091 217.941706 
L 170.031273 216.110891 
L 170.741455 208.163828 
L 171.451636 203.467611 
L 172.161818 202.343603 
L 172.872 203.352864 
L 173.582182 205.9461 
L 174.292364 204.53101 
L 175.002545 208.741453 
L 175.712727 206.72898 
L 176.422909 207.164234 
L 177.133091 208.339089 
L 177.843273 203.14133 
L 178.553455 210.541837 
L 179.263636 203.966029 
L 180.684 199.599711 
L 181.394182 204.563025 
L 182.104364 206.072961 
L 182.814545 201.496271 
L 183.524727 207.442314 
L 184.234909 203.924605 
L 184.945091 196.217705 
L 185.655273 200.871461 
L 186.365455 207.877927 
L 187.075636 202.694947 
L 187.785818 205.51318 
L 188.496 203.005327 
L 189.206182 199.041483 
L 189.916364 197.475016 
L 190.626545 192.862417 
L 191.336727 194.256548 
L 192.046909 189.002063 
L 192.757091 188.280077 
L 193.467273 185.159682 
L 194.177455 184.22463 
L 194.887636 184.095765 
L 195.597818 185.698071 
L 196.308 184.794984 
L 197.018182 188.568529 
L 197.728364 188.862611 
L 198.438545 189.364339 
L 199.148727 199.395135 
L 199.858909 200.927582 
L 200.569091 200.90281 
L 201.279273 200.700229 
L 201.989455 196.572058 
L 202.699636 196.697515 
L 203.409818 201.730905 
L 204.12 202.806294 
L 204.830182 201.492107 
L 205.540364 197.85593 
L 206.250545 196.968426 
L 206.960727 193.280103 
L 207.670909 194.412444 
L 208.381091 190.473188 
L 209.091273 190.552675 
L 210.511636 183.268158 
L 211.221818 183.680358 
L 211.932 178.3097 
L 212.642182 180.278228 
L 213.352364 184.499411 
L 214.062545 177.852483 
L 214.772727 182.703892 
L 215.482909 177.376088 
L 216.193091 179.77893 
L 216.903273 180.883221 
L 217.613455 180.366319 
L 219.033818 175.046455 
L 219.744 169.311091 
L 220.454182 169.073068 
L 221.164364 173.332567 
L 221.874545 174.380643 
L 222.584727 176.991058 
L 223.294909 180.3017 
L 224.005091 173.764468 
L 224.715273 169.819328 
L 225.425455 169.41752 
L 226.135636 172.358167 
L 226.845818 166.818305 
L 227.556 163.901153 
L 228.266182 159.785409 
L 228.976364 152.494995 
L 229.686545 157.772882 
L 230.396727 159.782436 
L 231.106909 164.647547 
L 231.817091 159.062428 
L 232.527273 152.187036 
L 233.237455 153.967599 
L 233.947636 151.247766 
L 234.657818 153.962153 
L 235.368 155.831878 
L 236.078182 155.6453 
L 236.788364 163.411725 
L 237.498545 168.493133 
L 238.208727 169.166668 
L 238.918909 170.303281 
L 239.629091 172.387272 
L 240.339273 171.623454 
L 241.049455 172.789685 
L 241.759636 172.008365 
L 242.469818 177.870305 
L 243.18 181.793072 
L 243.890182 179.322155 
L 244.600364 183.379784 
L 245.310545 190.101382 
L 246.020727 188.478872 
L 246.730909 191.939145 
L 247.441091 199.166221 
L 248.151273 199.95627 
L 248.861455 200.422953 
L 249.571636 203.82862 
L 250.281818 199.431523 
L 250.992 204.983945 
L 251.702182 205.356526 
L 252.412364 204.381282 
L 253.122545 198.998877 
L 253.832727 204.774678 
L 254.542909 205.861073 
L 255.253091 201.510025 
L 255.963273 205.117487 
L 256.673455 203.12269 
L 257.383636 208.247927 
L 258.093818 210.582711 
L 258.804 214.177346 
L 259.514182 218.96722 
L 260.224364 221.624998 
L 260.934545 220.495412 
L 261.644727 219.042893 
L 262.354909 226.834839 
L 263.065091 229.926164 
L 263.775273 232.444734 
L 264.485455 230.72016 
L 265.195636 236.115185 
L 265.905818 238.12511 
L 266.616 239.08928 
L 267.326182 234.866633 
L 268.036364 242.832792 
L 268.746545 243.963871 
L 270.166909 235.797244 
L 270.877091 230.450213 
L 271.587273 226.138595 
L 272.297455 219.598148 
L 273.007636 225.733858 
L 273.717818 227.818324 
L 274.428 226.474792 
L 275.138182 227.869443 
L 275.848364 222.132122 
L 276.558545 226.725813 
L 277.268727 222.541315 
L 277.978909 224.859841 
L 278.689091 224.225485 
L 279.399273 229.52992 
L 280.109455 230.448635 
L 280.819636 232.8863 
L 281.529818 231.686835 
L 282.24 231.385653 
L 282.950182 231.647548 
L 283.660364 233.270515 
L 284.370545 231.793033 
L 285.080727 237.046707 
L 285.790909 236.205829 
L 286.501091 238.282319 
L 287.211273 237.718641 
L 287.921455 231.051288 
L 288.631636 230.559391 
L 289.341818 224.742677 
L 290.052 217.846346 
L 290.762182 218.249871 
L 291.472364 217.46429 
L 292.182545 219.851024 
L 292.892727 222.633943 
L 293.602909 220.171024 
L 294.313091 216.521979 
L 295.023273 214.481937 
L 295.733455 216.1462 
L 296.443636 220.39528 
L 297.153818 217.838666 
L 297.864 216.281599 
L 298.574182 219.488775 
L 299.284364 223.918484 
L 299.994545 226.709531 
L 300.704727 226.292577 
L 301.414909 213.237821 
L 302.125091 216.918637 
L 302.835273 217.775536 
L 303.545455 211.727559 
L 304.255636 212.698522 
L 304.965818 212.579264 
L 305.676 210.098008 
L 306.386182 214.727418 
L 307.096364 214.975838 
L 307.806545 220.986544 
L 308.516727 219.060228 
L 309.226909 224.387211 
L 309.937091 221.05416 
L 311.357455 204.845881 
L 312.067636 207.472129 
L 312.777818 214.569418 
L 313.488 209.811139 
L 314.908364 207.216548 
L 315.618545 207.081561 
L 316.328727 206.024139 
L 317.038909 206.61476 
L 317.749091 196.830564 
L 318.459273 199.378289 
L 319.169455 200.008574 
L 319.879636 198.914032 
L 320.589818 196.292981 
L 321.3 193.186962 
L 323.430545 218.276094 
L 324.140727 214.473887 
L 324.850909 215.016162 
L 325.561091 210.829638 
L 326.271273 209.913763 
L 326.981455 205.081067 
L 327.691636 212.519584 
L 328.401818 214.192254 
L 329.112 209.887937 
L 329.822182 214.248271 
L 330.532364 216.159466 
L 331.242545 213.757109 
L 331.952727 213.940025 
L 332.662909 212.530076 
L 333.373091 216.36177 
L 334.083273 221.942906 
L 334.793455 217.747891 
L 335.503636 210.783736 
L 336.213818 208.220013 
L 336.924 212.699805 
L 337.634182 218.02892 
L 338.344364 218.18801 
L 339.054545 224.230205 
L 339.764727 222.03106 
L 341.185091 226.931266 
L 341.895273 225.364702 
L 342.605455 228.36436 
L 343.315636 234.411042 
L 344.025818 231.413284 
L 344.736 237.076695 
L 345.446182 237.461579 
L 346.156364 239.600621 
L 346.866545 237.916203 
L 347.576727 236.830915 
L 348.286909 242.505108 
L 348.997091 238.553187 
L 349.707273 238.706929 
L 351.127636 232.838588 
L 351.837818 234.838958 
L 352.548 234.165145 
L 353.258182 234.294485 
L 353.968364 234.60472 
L 354.678545 236.251709 
L 355.388727 238.214838 
L 356.098909 231.909202 
L 356.809091 232.814301 
L 358.229455 231.350989 
L 358.939636 225.733017 
L 359.649818 230.12692 
L 360.36 226.947327 
L 361.070182 229.782695 
L 362.490545 233.562955 
L 363.200727 229.774783 
L 363.910909 232.732273 
L 364.621091 231.600147 
L 365.331273 230.791447 
L 366.041455 229.049274 
L 366.751636 228.442516 
L 367.461818 235.403715 
L 368.172 236.528048 
L 368.882182 238.636583 
L 369.592364 232.021109 
L 370.302545 227.667429 
L 371.012727 229.659804 
L 372.433091 221.068389 
L 373.143273 220.90936 
L 373.853455 220.537582 
L 374.563636 224.042712 
L 375.273818 223.865096 
L 375.984 226.656914 
L 376.694182 227.995381 
L 377.404364 219.000703 
L 378.114545 220.203673 
L 378.824727 225.598659 
L 379.534909 221.031937 
L 380.245091 224.32963 
L 380.955273 229.648319 
L 381.665455 237.526099 
L 382.375636 238.040903 
L 383.085818 246.273602 
L 383.796 241.027908 
L 384.506182 244.995896 
L 385.216364 247.615831 
L 385.926545 243.482343 
L 386.636727 238.030343 
L 387.346909 236.709847 
L 388.057091 232.564725 
L 388.767273 230.641181 
L 389.477455 237.093016 
L 390.187636 229.696429 
L 390.897818 226.576474 
L 391.608 222.3379 
L 392.318182 222.031388 
L 393.028364 226.152429 
L 393.738545 237.051037 
L 394.448727 230.257851 
L 395.158909 237.787682 
L 395.869091 237.140389 
L 396.579273 236.198782 
L 397.999636 244.764154 
L 398.709818 238.812965 
L 399.42 238.090256 
L 400.130182 237.601511 
L 400.840364 236.312995 
L 401.550545 236.397875 
L 402.260727 239.024075 
L 402.970909 237.756104 
L 404.391273 233.690875 
L 405.101455 230.867504 
L 405.811636 229.853904 
L 406.521818 232.507526 
L 407.232 227.296839 
L 407.942182 226.234803 
L 408.652364 226.07769 
L 409.362545 226.946742 
L 410.072727 229.866022 
L 410.782909 232.058751 
L 411.493091 230.379868 
L 412.203273 234.185619 
L 412.913455 235.437152 
L 413.623636 235.178225 
L 414.333818 235.056374 
L 415.044 241.757084 
L 415.754182 244.33202 
L 416.464364 245.450269 
L 417.174545 253.544362 
L 417.884727 249.9553 
L 418.594909 255.653238 
L 419.305091 254.252157 
L 420.015273 254.796248 
L 420.725455 253.42743 
L 421.435636 256.139088 
L 422.145818 258.107902 
L 422.856 260.853021 
L 423.566182 265.644968 
L 424.276364 265.497923 
L 424.986545 267.867229 
L 425.696727 274.67255 
L 426.406909 271.635832 
L 427.117091 274.144458 
L 427.827273 279.521515 
L 428.537455 278.426872 
L 429.247636 273.17544 
L 429.957818 274.928033 
L 431.378182 263.949091 
L 432.798545 265.588562 
L 433.508727 269.12231 
L 434.218909 265.753829 
L 434.929091 268.344577 
L 435.639273 266.760502 
L 436.349455 270.95968 
L 437.059636 273.502264 
L 437.769818 277.470038 
L 438.48 270.304943 
L 439.190182 270.938488 
L 439.900364 269.089633 
L 440.610545 266.62731 
L 441.320727 260.605793 
L 442.030909 263.519649 
L 442.741091 260.757527 
L 443.451273 258.619013 
L 444.161455 259.766036 
L 445.581818 263.519725 
L 446.292 265.402355 
L 447.002182 266.198981 
L 447.712364 263.028173 
L 448.422545 256.15696 
L 449.132727 259.216004 
L 449.842909 267.958604 
L 450.553091 274.675344 
L 451.263273 276.846959 
L 451.973455 274.834214 
L 452.683636 276.130938 
L 453.393818 276.77222 
L 454.104 274.752945 
L 454.814182 271.190514 
L 455.524364 266.492625 
L 456.234545 264.319851 
L 456.944727 268.256321 
L 457.654909 267.295064 
L 458.365091 269.188726 
L 459.075273 272.194749 
L 459.785455 266.027703 
L 460.495636 267.389418 
L 461.205818 268.133754 
L 461.916 265.666976 
L 462.626182 267.4184 
L 463.336364 264.223789 
L 464.046545 259.918403 
L 464.756727 258.690902 
L 465.466909 260.865854 
L 466.177091 263.418281 
L 467.597455 275.669184 
L 468.307636 268.291838 
L 469.017818 270.843714 
L 469.728 275.428848 
L 470.438182 270.927667 
L 471.148364 264.850135 
L 471.858545 269.540098 
L 472.568727 268.258837 
L 473.278909 265.888601 
L 473.989091 269.875045 
L 474.699273 270.48316 
L 475.409455 276.199591 
L 476.829818 269.383801 
L 477.54 267.036643 
L 478.250182 266.866141 
L 478.960364 271.885429 
L 479.670545 273.394083 
L 480.380727 268.628621 
L 481.090909 266.795219 
L 481.801091 273.047879 
L 482.511273 273.650855 
L 483.221455 279.475345 
L 483.931636 277.195647 
L 484.641818 276.348562 
L 485.352 276.723178 
L 486.062182 280.228404 
L 486.772364 280.349801 
L 487.482545 280.119967 
L 488.192727 280.214181 
L 488.902909 283.443841 
L 489.613091 284.31844 
L 490.323273 283.473048 
L 491.033455 284.297984 
L 491.743636 288.218377 
L 492.453818 273.859858 
L 493.164 280.903132 
L 494.584364 282.473195 
L 495.294545 281.039697 
L 496.004727 278.968681 
L 496.714909 277.300869 
L 497.425091 274.909918 
L 498.135273 278.686304 
L 498.845455 281.313948 
L 499.555636 278.638852 
L 500.265818 280.809273 
L 500.976 274.183087 
L 501.686182 284.179071 
L 503.106545 287.069796 
L 503.816727 281.020598 
L 504.526909 286.807679 
L 505.237091 277.498077 
L 505.947273 280.953147 
L 506.657455 280.10665 
L 508.077818 268.269203 
L 508.788 265.410831 
L 509.498182 263.648915 
L 510.208364 264.745829 
L 510.918545 266.617014 
L 512.338909 274.117755 
L 513.049091 269.737576 
L 513.759273 269.653387 
L 514.469455 264.232893 
L 515.179636 263.965691 
L 515.889818 260.123235 
L 516.6 264.518164 
L 517.310182 265.046103 
L 518.020364 267.541247 
L 518.730545 267.877432 
L 519.440727 267.122565 
L 520.861091 274.610341 
L 521.571273 275.853516 
L 522.281455 275.018403 
L 522.991636 279.709775 
L 523.701818 277.244399 
L 524.412 272.028646 
L 525.122182 269.682663 
L 525.832364 272.04866 
L 526.542545 272.072681 
L 527.252727 275.270923 
L 528.673091 275.046885 
L 529.383273 278.519915 
L 530.093455 275.770241 
L 530.803636 283.370182 
L 532.224 283.666247 
L 533.644364 280.615904 
L 534.354545 280.56008 
L 535.064727 279.773823 
L 536.485091 271.502189 
L 537.195273 268.97659 
L 537.905455 270.098809 
L 538.615636 262.037503 
L 539.325818 263.605855 
L 540.036 267.420062 
L 540.746182 269.629669 
L 541.456364 259.226711 
L 542.166545 262.80498 
L 542.876727 264.223216 
L 543.586909 263.222747 
L 544.297091 256.170577 
L 545.007273 256.213582 
L 545.717455 251.233797 
L 546.427636 244.510142 
L 547.137818 239.027073 
L 547.848 240.25805 
L 548.558182 242.096044 
L 549.268364 243.56363 
L 549.978545 247.108214 
L 550.688727 252.295468 
L 551.398909 247.861632 
L 552.109091 248.757321 
L 552.819273 247.544789 
L 553.529455 242.376634 
L 554.239636 238.627459 
L 554.949818 241.681485 
L 555.66 235.822309 
L 556.370182 235.198998 
L 557.080364 240.39341 
L 557.790545 234.813636 
L 558.500727 233.992331 
L 559.210909 226.238722 
L 559.921091 231.364391 
L 560.631273 232.177536 
L 561.341455 228.805067 
L 562.051636 234.474222 
L 562.761818 237.658833 
L 563.472 245.036916 
L 564.182182 247.956063 
L 564.892364 245.582874 
L 565.602545 247.70763 
L 566.312727 251.337841 
L 567.022909 248.124183 
L 567.733091 251.868703 
L 568.443273 246.981508 
L 569.153455 248.868194 
L 569.863636 250.392654 
L 570.573818 246.13645 
L 571.284 240.684193 
L 571.994182 243.667199 
L 572.704364 241.292226 
L 573.414545 242.849704 
L 574.124727 233.817298 
L 574.834909 234.352132 
L 575.545091 235.571637 
L 576.255273 238.100951 
L 576.965455 246.101809 
L 578.385818 256.014856 
L 579.096 245.848545 
L 579.806182 242.800403 
L 580.516364 245.91157 
L 581.226545 244.189833 
L 581.936727 251.65675 
L 582.646909 250.932135 
L 583.357091 249.459037 
L 584.067273 249.924605 
L 584.777455 250.99746 
L 585.487636 245.838248 
L 586.197818 246.668972 
L 586.908 244.334431 
L 587.618182 250.537153 
L 588.328364 243.252373 
L 589.038545 239.542629 
L 589.748727 241.432707 
L 590.458909 242.564882 
L 591.879273 253.682039 
L 593.299636 248.932182 
L 594.72 241.024647 
L 595.430182 239.789432 
L 596.140364 235.969034 
L 596.850545 238.058144 
L 597.560727 242.283634 
L 598.270909 237.499244 
L 598.981091 230.548059 
L 599.691273 236.715869 
L 600.401455 238.318634 
L 601.111636 233.245088 
L 601.821818 236.315712 
L 602.532 232.75526 
L 603.242182 235.961367 
L 603.952364 241.831793 
L 604.662545 240.883462 
L 605.372727 239.482788 
L 606.082909 241.475159 
L 606.793091 243.86803 
L 607.503273 241.638968 
L 608.213455 240.108384 
L 608.923636 245.302575 
L 610.344 246.495274 
L 611.054182 248.489832 
L 611.764364 245.972922 
L 612.474545 250.849725 
L 613.184727 253.56581 
L 613.894909 251.48663 
L 614.605091 252.578533 
L 615.315273 250.244054 
L 616.025455 257.101165 
L 616.735636 256.310001 
L 618.156 267.271778 
L 618.866182 262.867578 
L 619.576364 261.143768 
L 620.996727 267.557241 
L 621.706909 269.340607 
L 622.417091 264.9821 
L 623.127273 268.952212 
L 623.837455 270.096501 
L 624.547636 269.46992 
L 625.257818 265.658203 
L 625.968 266.920169 
L 626.678182 268.548342 
L 627.388364 265.257126 
L 628.098545 268.331624 
L 628.808727 269.456321 
L 629.518909 268.717122 
L 630.229091 276.15514 
L 630.939273 280.182464 
L 631.649455 275.925243 
L 632.359636 270.199392 
L 633.069818 269.871714 
L 633.78 264.20756 
L 634.490182 263.397359 
L 635.200364 268.060972 
L 635.910545 266.919488 
L 636.620727 268.92259 
L 637.330909 273.368482 
L 638.041091 279.140484 
L 638.751273 279.554901 
L 639.461455 280.727277 
L 640.171636 284.928927 
L 640.881818 286.283006 
L 641.592 291.306649 
L 642.302182 299.463495 
L 643.722545 304.785331 
L 644.432727 302.762986 
L 645.142909 306.076183 
L 645.853091 305.461931 
L 646.563273 303.69031 
L 647.983636 313.423306 
L 648.693818 315.330658 
L 649.404 314.003294 
L 650.114182 315.274482 
L 650.824364 311.482909 
L 651.534545 315.282916 
L 652.244727 313.878732 
L 652.954909 302.708089 
L 653.665091 308.026892 
L 654.375273 307.706583 
L 655.085455 309.715396 
L 655.795636 311.02119 
L 656.505818 311.810877 
L 657.216 310.711336 
L 657.926182 310.470678 
L 658.636364 315.59646 
L 659.346545 319.378213 
L 660.056727 323.838055 
L 660.766909 325.502368 
L 661.477091 322.766693 
L 662.187273 330.719596 
L 662.897455 331.504912 
L 663.607636 331.856236 
L 664.317818 332.50996 
L 665.028 330.680886 
L 665.738182 331.554674 
L 666.448364 336.861343 
L 667.158545 333.413717 
L 668.578909 323.237287 
L 669.289091 324.661248 
L 670.709455 318.514162 
L 671.419636 313.06126 
L 672.129818 322.431381 
L 672.84 329.276165 
L 673.550182 327.400221 
L 674.260364 324.548915 
L 674.970545 316.408459 
L 675.680727 311.617128 
L 677.101091 300.528759 
L 677.811273 302.224073 
L 678.521455 297.300131 
L 679.231636 296.173515 
L 679.941818 301.783361 
L 680.652 312.132268 
L 681.362182 312.209663 
L 682.072364 315.89685 
L 682.782545 315.130453 
L 683.492727 315.39426 
L 684.202909 315.178901 
L 684.913091 319.219261 
L 685.623273 317.814364 
L 686.333455 318.680488 
L 687.043636 320.104541 
L 687.753818 322.006869 
L 688.464 317.870468 
L 689.174182 316.597153 
L 689.884364 314.114712 
L 690.594545 312.22652 
L 691.304727 315.25649 
L 692.014909 317.676144 
L 692.725091 321.580388 
L 693.435273 320.312962 
L 694.145455 315.469678 
L 694.855636 318.553218 
L 695.565818 325.8503 
L 696.276 318.946553 
L 696.986182 316.647841 
L 697.696364 316.06333 
L 698.406545 320.523748 
L 699.826909 318.067782 
L 700.537091 322.803554 
L 701.247273 325.843007 
L 701.957455 332.263997 
L 702.667636 329.379023 
L 703.377818 327.044963 
L 704.088 323.595271 
L 704.798182 324.0841 
L 705.508364 327.296133 
L 706.218545 326.353344 
L 706.928727 331.525905 
L 707.638909 330.325829 
L 708.349091 333.360069 
L 709.059273 331.626653 
L 710.479636 315.302654 
L 711.189818 313.648352 
L 711.9 310.011278 
L 712.610182 311.697641 
L 713.320364 310.945078 
L 714.030545 301.947493 
L 714.740727 314.402358 
L 715.450909 318.902494 
L 716.161091 317.715282 
L 716.871273 320.201719 
L 717.581455 326.592411 
L 718.291636 327.620873 
L 719.712 332.289517 
L 720.422182 326.061302 
L 721.132364 326.699356 
L 721.842545 329.795397 
L 722.552727 323.524267 
L 723.262909 324.51803 
L 723.973091 324.104369 
L 725.393455 331.97052 
L 726.103636 329.650745 
L 726.813818 325.414072 
L 727.524 324.082877 
L 728.234182 326.596145 
L 728.944364 320.144629 
L 729.654545 325.767868 
L 730.364727 320.303951 
L 731.074909 315.972662 
L 731.785091 324.157822 
L 732.495273 320.598693 
L 733.915636 319.010897 
L 734.625818 324.170363 
L 735.336 324.925684 
L 736.046182 326.333796 
L 736.756364 317.081283 
L 737.466545 315.436939 
L 738.176727 315.492917 
L 738.886909 317.72838 
L 739.597091 313.243806 
L 740.307273 314.222177 
L 741.017455 309.950785 
L 741.727636 308.249933 
L 742.437818 308.148083 
L 743.148 302.374695 
L 743.858182 304.187631 
L 744.568364 307.011369 
L 745.278545 312.515953 
L 746.698909 307.254497 
L 748.119273 293.365246 
L 748.829455 295.151533 
L 749.539636 295.749647 
L 750.249818 292.322525 
L 750.96 293.719797 
L 751.670182 290.82693 
L 753.090545 290.791621 
L 753.800727 292.677971 
L 754.510909 292.892988 
L 755.221091 298.503907 
L 755.931273 300.874008 
L 756.641455 302.14135 
L 757.351636 297.944956 
L 758.061818 302.015365 
L 758.772 301.527403 
L 759.482182 300.241879 
L 760.192364 306.197035 
L 760.902545 305.239522 
L 761.612727 308.849746 
L 762.322909 309.336807 
L 763.033091 305.418991 
L 764.453455 312.436092 
L 765.163636 310.038543 
L 765.873818 312.770734 
L 766.584 312.98087 
L 767.294182 310.029278 
L 768.004364 312.708212 
L 768.714545 310.977285 
L 769.424727 305.925859 
L 770.134909 303.836062 
L 770.845091 309.702937 
L 771.555273 312.009499 
L 772.975636 309.230742 
L 773.685818 309.664138 
L 774.396 312.831536 
L 775.106182 310.989685 
L 775.816364 306.303854 
L 776.526545 298.905668 
L 777.236727 293.830249 
L 777.946909 295.397131 
L 778.657091 298.727622 
L 779.367273 296.548859 
L 780.787636 280.599115 
L 781.497818 279.126515 
L 782.208 279.590404 
L 782.918182 285.767511 
L 784.338545 288.668417 
L 785.048727 294.031761 
L 785.758909 295.018769 
L 786.469091 292.21301 
L 787.179273 284.144348 
L 787.889455 288.41244 
L 788.599636 287.598717 
L 789.309818 284.412992 
L 790.02 280.594732 
L 790.730182 284.880574 
L 791.440364 290.102783 
L 792.150545 288.49035 
L 792.860727 288.281938 
L 793.570909 286.792909 
L 794.281091 287.484461 
L 794.991273 289.289023 
L 795.701455 281.370059 
L 796.411636 279.948415 
L 797.832 287.372053 
L 798.542182 297.306343 
L 799.252364 289.546499 
L 799.962545 284.185699 
L 800.672727 286.15075 
L 801.382909 287.540001 
L 802.093091 285.580228 
L 802.803273 284.183352 
L 803.513455 285.059403 
L 804.223636 273.415952 
L 804.933818 266.691389 
L 805.644 269.716057 
L 806.354182 270.731273 
L 807.064364 273.157853 
L 807.774545 278.289853 
L 808.484727 279.0403 
L 809.194909 275.591188 
L 809.905091 279.198431 
L 810.615273 277.902847 
L 811.325455 278.369334 
L 812.035636 281.562924 
L 812.745818 278.471816 
L 813.456 271.715509 
L 814.166182 274.147325 
L 814.876364 280.264346 
L 815.586545 278.327474 
L 817.006909 276.931137 
L 817.717091 278.338933 
L 818.427273 281.042427 
L 819.137455 278.804204 
L 819.847636 280.65282 
L 820.557818 284.55747 
L 821.268 279.212822 
L 821.978182 277.574043 
L 822.688364 279.28675 
L 823.398545 281.537535 
L 824.108727 288.139352 
L 824.818909 285.681705 
L 825.529091 290.966393 
L 826.239273 290.964593 
L 826.949455 285.448853 
L 827.659636 282.948886 
L 828.369818 281.923046 
L 829.08 284.016476 
L 829.790182 285.71146 
L 830.500364 290.545418 
L 831.210545 286.574715 
L 831.920727 284.225522 
L 832.630909 283.825824 
L 833.341091 281.254845 
L 834.051273 276.254506 
L 834.761455 283.14031 
L 835.471636 284.754878 
L 836.181818 280.045086 
L 836.892 273.300353 
L 837.602182 282.900357 
L 838.312364 280.822011 
L 839.022545 274.801736 
L 839.732727 279.722291 
L 840.442909 273.321545 
L 841.153091 264.487661 
L 841.863273 269.643904 
L 842.573455 267.3367 
L 843.283636 266.191476 
L 843.993818 263.450335 
L 844.704 261.676166 
L 845.414182 260.60995 
L 846.124364 260.230294 
L 846.834545 261.143305 
L 847.544727 256.116547 
L 848.254909 252.834091 
L 848.965091 256.924473 
L 849.675273 260.10755 
L 850.385455 264.824132 
L 851.095636 263.866305 
L 851.805818 262.457248 
L 852.516 260.490237 
L 853.226182 257.351293 
L 853.936364 253.666933 
L 854.646545 246.70928 
L 856.066909 241.747356 
L 856.777091 237.261408 
L 857.487273 237.880983 
L 858.197455 238.316278 
L 858.907636 236.504598 
L 859.617818 233.827517 
L 860.328 236.942013 
L 861.038182 238.236035 
L 861.748364 235.586688 
L 862.458545 230.202674 
L 863.168727 233.486917 
L 863.878909 243.119433 
L 864.589091 244.287506 
L 866.009455 240.602041 
L 866.719636 235.948323 
L 867.429818 233.906128 
L 868.14 237.719289 
L 868.850182 240.097263 
L 869.560364 240.77079 
L 870.980727 248.472882 
L 871.690909 250.405459 
L 871.690909 250.405459 
" clip-path="url(#pb78491bc44)" style="fill: none; stroke: #1f77b4; stroke-width: 1.5; stroke-linecap: square"/>
   </g>
   <g id="line2d_13">
    <path d="M 161.509091 234.757611 
L 162.219273 229.852177 
L 162.929455 231.526932 
L 163.639636 223.662556 
L 164.349818 221.233761 
L 165.06 215.487407 
L 165.770182 214.781341 
L 167.190545 192.66289 
L 167.900727 190.163834 
L 168.610909 195.259195 
L 169.321091 192.400881 
L 170.031273 186.775784 
L 170.741455 183.324036 
L 171.451636 175.138356 
L 172.161818 174.001027 
L 172.872 171.800116 
L 173.582182 181.335932 
L 174.292364 184.19195 
L 175.002545 189.855381 
L 175.712727 186.760256 
L 176.422909 181.627169 
L 177.133091 186.083814 
L 177.843273 182.298082 
L 178.553455 180.59509 
L 179.263636 167.355843 
L 179.973818 165.196579 
L 180.684 164.556104 
L 181.394182 169.587144 
L 182.104364 170.762323 
L 182.814545 162.643422 
L 183.524727 168.995504 
L 184.234909 164.15295 
L 184.945091 151.989043 
L 185.655273 158.906662 
L 186.365455 162.373467 
L 187.075636 159.801666 
L 187.785818 163.093039 
L 188.496 164.152401 
L 189.206182 160.607227 
L 189.916364 160.864751 
L 190.626545 154.149566 
L 191.336727 153.693629 
L 192.046909 142.867794 
L 193.467273 145.161437 
L 194.177455 147.485688 
L 194.887636 142.013361 
L 195.597818 146.24139 
L 196.308 145.491444 
L 197.018182 147.178997 
L 197.728364 152.49973 
L 198.438545 153.54514 
L 199.148727 157.411511 
L 199.858909 157.223203 
L 200.569091 159.994406 
L 201.279273 161.917703 
L 201.989455 157.172619 
L 202.699636 154.783511 
L 203.409818 151.413715 
L 204.12 150.41947 
L 204.830182 150.252167 
L 205.540364 138.980948 
L 206.250545 139.334357 
L 206.960727 134.755213 
L 207.670909 139.964784 
L 209.091273 132.639651 
L 209.801455 120.488781 
L 210.511636 119.547332 
L 211.221818 114.738947 
L 211.932 112.911955 
L 212.642182 110.560197 
L 213.352364 118.949066 
L 214.062545 108.817356 
L 214.772727 115.873062 
L 215.482909 107.59739 
L 216.193091 110.1395 
L 216.903273 119.87471 
L 218.323636 113.326995 
L 219.033818 111.964697 
L 220.454182 97.377328 
L 221.164364 105.713219 
L 221.874545 105.079064 
L 222.584727 116.663338 
L 223.294909 119.836987 
L 224.005091 111.283554 
L 224.715273 109.076675 
L 225.425455 107.706792 
L 226.135636 108.368223 
L 226.845818 99.787946 
L 227.556 93.885447 
L 228.266182 86.761961 
L 228.976364 81.360722 
L 229.686545 81.596439 
L 230.396727 75.613924 
L 231.106909 72.702487 
L 231.817091 74.452755 
L 232.527273 68.755785 
L 233.237455 66.96 
L 233.947636 69.928748 
L 234.657818 75.242246 
L 235.368 84.56259 
L 236.078182 83.244157 
L 237.498545 101.483599 
L 238.208727 108.798967 
L 238.918909 108.970365 
L 239.629091 110.601724 
L 240.339273 106.241637 
L 241.049455 107.622948 
L 241.759636 111.592378 
L 242.469818 121.373616 
L 243.18 128.297439 
L 243.890182 120.939255 
L 244.600364 123.161541 
L 245.310545 128.128186 
L 246.020727 128.029794 
L 246.730909 126.51217 
L 247.441091 129.635057 
L 248.151273 134.38042 
L 248.861455 135.601468 
L 249.571636 137.597571 
L 250.281818 132.312807 
L 250.992 137.414629 
L 251.702182 138.989331 
L 252.412364 136.323964 
L 253.122545 131.723619 
L 253.832727 133.518174 
L 254.542909 135.633243 
L 255.253091 130.786777 
L 255.963273 131.35834 
L 256.673455 128.904392 
L 257.383636 130.715871 
L 258.093818 137.386369 
L 258.804 141.314074 
L 259.514182 142.125518 
L 260.224364 141.578578 
L 260.934545 132.791164 
L 261.644727 133.080342 
L 262.354909 135.741731 
L 263.065091 136.625318 
L 263.775273 140.477519 
L 264.485455 135.94116 
L 265.195636 141.061592 
L 265.905818 150.447032 
L 266.616 153.374105 
L 267.326182 150.140226 
L 268.036364 159.935209 
L 268.746545 165.223205 
L 269.456727 160.857302 
L 270.166909 157.805938 
L 270.877091 158.602913 
L 271.587273 149.172267 
L 272.297455 141.452769 
L 273.007636 149.284314 
L 273.717818 151.267042 
L 274.428 148.702959 
L 275.138182 152.904674 
L 275.848364 143.326574 
L 276.558545 155.487607 
L 277.268727 159.181766 
L 277.978909 160.508289 
L 278.689091 156.884554 
L 279.399273 163.920398 
L 280.109455 164.675573 
L 280.819636 163.711544 
L 281.529818 168.701996 
L 282.24 168.262869 
L 282.950182 171.20423 
L 283.660364 175.179841 
L 284.370545 172.334044 
L 285.080727 176.402376 
L 285.790909 174.543726 
L 286.501091 176.114533 
L 287.211273 177.110428 
L 287.921455 169.846783 
L 288.631636 177.585687 
L 289.341818 171.429065 
L 290.052 169.756678 
L 290.762182 172.887381 
L 291.472364 170.555556 
L 292.182545 180.970759 
L 292.892727 185.006919 
L 293.602909 187.534577 
L 294.313091 188.868921 
L 295.023273 187.410764 
L 295.733455 183.95851 
L 296.443636 190.611007 
L 297.153818 186.268191 
L 297.864 182.930733 
L 298.574182 183.343184 
L 299.994545 182.425764 
L 300.704727 186.728907 
L 301.414909 175.175684 
L 302.125091 182.205458 
L 302.835273 184.280688 
L 303.545455 179.759236 
L 304.255636 178.486038 
L 304.965818 172.725594 
L 305.676 170.397951 
L 306.386182 178.292453 
L 307.096364 178.357812 
L 307.806545 183.283385 
L 308.516727 175.478011 
L 309.226909 186.384853 
L 309.937091 185.876123 
L 310.647273 174.397101 
L 311.357455 171.036546 
L 312.067636 173.331878 
L 312.777818 181.127605 
L 313.488 177.047411 
L 314.198182 176.589965 
L 314.908364 173.437582 
L 315.618545 171.330368 
L 316.328727 173.626894 
L 317.038909 167.888182 
L 317.749091 159.687499 
L 318.459273 157.947409 
L 319.169455 156.845933 
L 319.879636 153.699893 
L 320.589818 161.172913 
L 321.3 157.103072 
L 322.010182 168.204199 
L 322.720364 171.536749 
L 323.430545 181.957891 
L 324.140727 180.171521 
L 324.850909 183.218971 
L 325.561091 178.829078 
L 326.271273 171.736117 
L 326.981455 161.270298 
L 327.691636 166.403903 
L 328.401818 173.71496 
L 329.112 170.959418 
L 329.822182 180.146446 
L 330.532364 176.763029 
L 331.242545 174.292207 
L 332.662909 182.293549 
L 333.373091 178.599084 
L 334.083273 187.538666 
L 334.793455 185.763589 
L 335.503636 181.806102 
L 336.213818 179.102693 
L 336.924 182.449108 
L 337.634182 190.233095 
L 338.344364 190.44109 
L 339.054545 192.390263 
L 339.764727 191.079915 
L 340.474909 193.498495 
L 341.185091 189.616622 
L 341.895273 189.172389 
L 343.315636 193.052029 
L 344.025818 192.376534 
L 345.446182 207.427232 
L 346.156364 206.701867 
L 346.866545 209.252054 
L 347.576727 201.705828 
L 348.286909 206.75759 
L 348.997091 193.24791 
L 349.707273 193.973383 
L 350.417455 193.647663 
L 351.127636 194.516128 
L 351.837818 200.921892 
L 352.548 196.917214 
L 353.258182 198.919609 
L 353.968364 200.15953 
L 354.678545 205.273454 
L 355.388727 214.503699 
L 356.098909 206.043765 
L 356.809091 212.593261 
L 358.229455 217.912278 
L 359.649818 220.776263 
L 360.36 218.237056 
L 361.070182 220.049956 
L 361.780364 220.291348 
L 362.490545 225.095425 
L 363.200727 223.387273 
L 363.910909 220.674324 
L 364.621091 216.043751 
L 365.331273 215.151816 
L 366.041455 213.505798 
L 366.751636 210.109134 
L 368.172 225.992043 
L 368.882182 228.732429 
L 369.592364 219.737975 
L 370.302545 217.730254 
L 371.012727 216.511411 
L 371.722909 209.582242 
L 372.433091 205.585032 
L 373.143273 211.789959 
L 373.853455 209.612533 
L 374.563636 219.494159 
L 375.984 221.249813 
L 376.694182 225.037072 
L 377.404364 217.115702 
L 378.114545 215.216163 
L 378.824727 218.558837 
L 379.534909 212.061404 
L 380.245091 210.271817 
L 380.955273 211.705899 
L 381.665455 226.935178 
L 382.375636 232.305139 
L 383.085818 239.428144 
L 383.796 232.471378 
L 384.506182 233.690053 
L 385.216364 239.713787 
L 385.926545 238.685975 
L 386.636727 240.157164 
L 387.346909 240.28014 
L 388.057091 230.379284 
L 388.767273 232.683331 
L 389.477455 241.659383 
L 390.187636 236.308579 
L 391.608 228.747727 
L 392.318182 227.819833 
L 393.028364 231.799505 
L 393.738545 247.444007 
L 394.448727 237.669068 
L 395.158909 246.840951 
L 395.869091 247.994595 
L 396.579273 255.140961 
L 397.289455 258.679459 
L 397.999636 265.970745 
L 398.709818 268.724762 
L 399.42 270.589082 
L 400.130182 271.176431 
L 400.840364 272.137316 
L 401.550545 276.496905 
L 402.260727 271.993922 
L 402.970909 274.132441 
L 403.681091 266.905068 
L 404.391273 268.473406 
L 405.101455 271.648337 
L 405.811636 271.9148 
L 406.521818 276.354375 
L 407.232 269.736372 
L 407.942182 273.997221 
L 408.652364 270.736447 
L 409.362545 269.631001 
L 410.072727 282.960472 
L 410.782909 284.897289 
L 411.493091 283.003392 
L 412.203273 290.052411 
L 413.623636 283.433633 
L 414.333818 282.382556 
L 415.044 286.484776 
L 415.754182 285.891341 
L 416.464364 284.516935 
L 417.174545 281.451993 
L 417.884727 283.918235 
L 418.594909 283.6164 
L 419.305091 276.963513 
L 420.015273 281.179359 
L 420.725455 279.842424 
L 421.435636 284.635832 
L 422.856 291.491753 
L 423.566182 289.855899 
L 424.276364 293.778856 
L 424.986545 300.117628 
L 425.696727 300.895766 
L 426.406909 295.05729 
L 427.117091 296.166334 
L 427.827273 303.196838 
L 428.537455 300.564456 
L 429.247636 302.762027 
L 429.957818 302.825961 
L 430.668 297.777622 
L 431.378182 288.413855 
L 432.088364 284.079597 
L 433.508727 289.364126 
L 434.218909 291.181629 
L 434.929091 299.297311 
L 435.639273 294.794761 
L 436.349455 297.435721 
L 437.059636 306.899081 
L 437.769818 303.280109 
L 438.48 293.918494 
L 439.190182 300.250086 
L 439.900364 296.332951 
L 440.610545 299.967383 
L 441.320727 287.886508 
L 442.030909 302.558487 
L 442.741091 296.435352 
L 443.451273 291.711016 
L 444.161455 292.546851 
L 444.871636 291.813817 
L 445.581818 300.783931 
L 446.292 301.740882 
L 447.712364 290.399638 
L 448.422545 288.040068 
L 449.132727 298.528664 
L 449.842909 303.649111 
L 450.553091 319.791598 
L 451.263273 322.049289 
L 451.973455 318.964754 
L 452.683636 318.187097 
L 453.393818 317.847483 
L 454.104 323.703804 
L 454.814182 315.662986 
L 455.524364 310.558841 
L 456.234545 309.071507 
L 456.944727 303.141653 
L 457.654909 302.752165 
L 458.365091 303.296853 
L 459.075273 300.88858 
L 459.785455 295.211466 
L 460.495636 299.163372 
L 461.205818 301.282394 
L 461.916 303.937076 
L 462.626182 302.013265 
L 463.336364 298.202461 
L 464.046545 288.573723 
L 465.466909 296.515797 
L 466.177091 301.650674 
L 466.887273 305.962057 
L 467.597455 313.666509 
L 468.307636 307.455537 
L 469.017818 312.797879 
L 469.728 316.013662 
L 470.438182 317.789642 
L 471.148364 310.207649 
L 471.858545 317.195241 
L 472.568727 315.487202 
L 473.278909 311.094319 
L 473.989091 311.007403 
L 474.699273 309.378915 
L 475.409455 308.971942 
L 476.119636 308.825566 
L 476.829818 306.836509 
L 477.54 302.684801 
L 478.250182 296.43825 
L 478.960364 299.253139 
L 479.670545 298.764213 
L 480.380727 290.577495 
L 481.090909 293.174854 
L 481.801091 294.074231 
L 482.511273 299.856133 
L 483.221455 298.42567 
L 483.931636 294.942451 
L 484.641818 297.594852 
L 485.352 294.690582 
L 486.062182 297.524069 
L 486.772364 302.258794 
L 487.482545 295.832153 
L 488.902909 305.832666 
L 489.613091 313.586477 
L 490.323273 309.666606 
L 491.033455 314.422112 
L 491.743636 321.639115 
L 492.453818 303.749536 
L 493.164 313.784858 
L 493.874182 316.248345 
L 494.584364 314.351789 
L 496.004727 307.666635 
L 496.714909 306.588329 
L 497.425091 305.897847 
L 498.845455 313.275054 
L 499.555636 313.723326 
L 500.265818 321.050764 
L 500.976 309.527724 
L 501.686182 318.278546 
L 502.396364 319.156043 
L 503.106545 318.505871 
L 503.816727 303.079694 
L 504.526909 306.571376 
L 505.237091 293.949788 
L 505.947273 294.626966 
L 506.657455 293.449062 
L 507.367636 282.55019 
L 508.077818 279.492279 
L 508.788 275.581139 
L 509.498182 277.316024 
L 510.208364 274.134328 
L 510.918545 275.784262 
L 511.628727 284.730771 
L 512.338909 283.033508 
L 513.049091 278.732753 
L 513.759273 276.075149 
L 514.469455 277.752088 
L 515.179636 267.84144 
L 515.889818 262.465179 
L 516.6 272.49148 
L 517.310182 266.044565 
L 518.020364 265.964723 
L 518.730545 268.419005 
L 519.440727 264.73747 
L 520.861091 272.047115 
L 521.571273 269.483291 
L 522.281455 276.45856 
L 522.991636 286.551613 
L 523.701818 283.046664 
L 524.412 275.795252 
L 525.122182 278.828164 
L 525.832364 280.236443 
L 526.542545 283.462572 
L 527.252727 279.25002 
L 527.962909 280.899446 
L 529.383273 282.81313 
L 530.093455 280.00934 
L 530.803636 285.733995 
L 531.513818 286.778096 
L 532.224 287.344703 
L 532.934182 283.222513 
L 533.644364 286.226845 
L 534.354545 295.758045 
L 535.064727 299.376477 
L 535.774909 295.642533 
L 536.485091 287.455604 
L 537.195273 281.904169 
L 537.905455 284.113084 
L 538.615636 275.097109 
L 539.325818 272.099529 
L 540.036 285.156647 
L 540.746182 286.684683 
L 542.166545 276.475284 
L 542.876727 274.482944 
L 543.586909 273.986291 
L 544.297091 272.551078 
L 545.007273 272.131955 
L 545.717455 268.452272 
L 546.427636 250.685198 
L 547.137818 244.17683 
L 547.848 245.614674 
L 548.558182 244.484613 
L 549.268364 247.302133 
L 549.978545 254.009433 
L 550.688727 255.636817 
L 551.398909 244.185362 
L 552.109091 240.519543 
L 552.819273 243.854364 
L 553.529455 236.399347 
L 554.239636 230.1305 
L 554.949818 232.577454 
L 555.66 222.999079 
L 556.370182 226.957141 
L 557.080364 235.653174 
L 557.790545 231.433172 
L 558.500727 229.699448 
L 559.210909 219.043188 
L 559.921091 230.350873 
L 560.631273 233.075716 
L 561.341455 232.231565 
L 562.051636 237.443971 
L 562.761818 238.384512 
L 563.472 251.325279 
L 564.182182 251.026573 
L 564.892364 248.800071 
L 565.602545 258.36977 
L 566.312727 263.741571 
L 567.022909 261.508064 
L 567.733091 262.241843 
L 568.443273 259.841527 
L 569.153455 261.897172 
L 569.863636 261.983456 
L 570.573818 252.952392 
L 571.284 245.402194 
L 571.994182 247.337937 
L 572.704364 244.70911 
L 573.414545 244.386206 
L 574.124727 241.456654 
L 574.834909 249.0824 
L 575.545091 239.922791 
L 576.255273 241.867657 
L 576.965455 252.001185 
L 577.675636 258.678065 
L 578.385818 255.961582 
L 579.096 244.443785 
L 579.806182 238.999609 
L 580.516364 241.334837 
L 581.226545 234.952243 
L 581.936727 237.616648 
L 582.646909 235.399234 
L 583.357091 242.978544 
L 584.067273 246.95996 
L 584.777455 251.751747 
L 585.487636 247.026759 
L 586.197818 249.498251 
L 586.908 243.628054 
L 587.618182 246.368707 
L 588.328364 238.578696 
L 589.038545 233.676955 
L 589.748727 238.19689 
L 590.458909 237.964841 
L 591.169091 249.024766 
L 591.879273 250.490276 
L 592.589455 244.782654 
L 593.299636 240.705367 
L 594.009818 238.360784 
L 594.72 235.093438 
L 595.430182 235.148877 
L 596.140364 226.606719 
L 596.850545 227.449845 
L 597.560727 234.287548 
L 598.270909 236.328353 
L 598.981091 227.903188 
L 599.691273 237.785923 
L 600.401455 237.43591 
L 601.111636 233.442648 
L 601.821818 233.222352 
L 602.532 233.375376 
L 603.952364 248.605881 
L 604.662545 247.969839 
L 605.372727 248.417809 
L 606.082909 248.545285 
L 606.793091 255.027675 
L 607.503273 257.695465 
L 608.213455 256.195001 
L 608.923636 262.028627 
L 609.633818 263.002643 
L 610.344 262.040918 
L 611.054182 268.732091 
L 611.764364 270.959153 
L 612.474545 271.7756 
L 613.184727 274.216586 
L 613.894909 275.195554 
L 614.605091 275.651436 
L 615.315273 279.227339 
L 616.025455 284.98435 
L 616.735636 277.689185 
L 617.445818 282.236089 
L 618.156 290.254867 
L 618.866182 285.99858 
L 619.576364 278.273635 
L 620.286545 280.132759 
L 620.996727 293.867681 
L 621.706909 294.234945 
L 622.417091 295.327872 
L 623.127273 302.569968 
L 623.837455 297.493593 
L 624.547636 298.054937 
L 625.257818 288.292653 
L 625.968 282.027381 
L 626.678182 288.565931 
L 627.388364 288.749393 
L 628.098545 286.847826 
L 628.808727 283.222777 
L 629.518909 285.756385 
L 630.229091 283.07681 
L 630.939273 290.503939 
L 631.649455 286.313054 
L 632.359636 280.924226 
L 633.069818 283.958696 
L 633.78 284.426418 
L 634.490182 275.306791 
L 635.910545 286.083095 
L 636.620727 290.580199 
L 637.330909 287.396936 
L 638.041091 286.473986 
L 638.751273 290.830034 
L 639.461455 293.264667 
L 640.171636 297.008543 
L 640.881818 299.522421 
L 641.592 300.88477 
L 642.302182 313.677804 
L 643.012364 321.03236 
L 643.722545 318.994044 
L 644.432727 317.504282 
L 645.142909 321.09481 
L 645.853091 320.202867 
L 646.563273 319.797206 
L 647.273455 321.704878 
L 647.983636 324.913298 
L 648.693818 326.675254 
L 649.404 321.995532 
L 650.114182 326.060644 
L 650.824364 320.209433 
L 651.534545 324.557822 
L 652.244727 322.659858 
L 652.954909 315.979643 
L 653.665091 321.16421 
L 654.375273 322.536651 
L 655.085455 331.618286 
L 655.795636 334.692804 
L 656.505818 334.479785 
L 657.216 340.631772 
L 658.636364 346.629383 
L 659.346545 349.085592 
L 660.056727 356.413178 
L 661.477091 347.110966 
L 662.187273 352.86712 
L 662.897455 357.48619 
L 663.607636 355.132999 
L 664.317818 357.682826 
L 665.028 356.680643 
L 665.738182 356.896055 
L 666.448364 354.450975 
L 667.158545 349.597605 
L 668.578909 328.530808 
L 669.289091 328.751932 
L 669.999273 325.430974 
L 670.709455 327.210096 
L 671.419636 319.528391 
L 672.129818 332.07841 
L 672.84 333.759154 
L 673.550182 333.658458 
L 674.260364 337.877652 
L 674.970545 329.201102 
L 675.680727 330.020728 
L 676.390909 321.472298 
L 677.101091 317.34117 
L 677.811273 318.851634 
L 678.521455 310.297452 
L 679.231636 308.641981 
L 679.941818 318.322244 
L 680.652 329.842236 
L 681.362182 324.759698 
L 682.072364 332.064068 
L 682.782545 330.326241 
L 684.202909 344.653413 
L 684.913091 345.678059 
L 685.623273 343.411538 
L 686.333455 342.087707 
L 687.043636 347.710841 
L 687.753818 349.094809 
L 688.464 345.314688 
L 689.174182 342.738534 
L 689.884364 340.993282 
L 690.594545 338.156163 
L 691.304727 344.582336 
L 692.014909 346.519486 
L 692.725091 349.952015 
L 693.435273 352.257544 
L 694.145455 352.419502 
L 694.855636 354.481009 
L 695.565818 363.172659 
L 696.276 353.681421 
L 696.986182 348.584158 
L 697.696364 355.771697 
L 698.406545 353.86058 
L 699.116727 350.748554 
L 699.826909 345.14751 
L 700.537091 351.890647 
L 701.247273 350.745129 
L 701.957455 356.059017 
L 702.667636 353.131752 
L 703.377818 353.057497 
L 704.088 343.118712 
L 704.798182 348.380542 
L 705.508364 350.714241 
L 707.638909 364.07531 
L 708.349091 369.36 
L 709.059273 361.527581 
L 709.769455 349.330209 
L 710.479636 345.570623 
L 711.189818 346.787997 
L 711.9 338.052995 
L 712.610182 338.518356 
L 713.320364 340.689629 
L 714.030545 331.260078 
L 714.740727 342.070934 
L 715.450909 347.018135 
L 716.161091 347.818418 
L 716.871273 342.224658 
L 717.581455 353.866441 
L 718.291636 358.519708 
L 719.001818 361.585247 
L 719.712 366.373103 
L 720.422182 354.604607 
L 721.132364 355.639837 
L 721.842545 354.809291 
L 722.552727 355.087373 
L 723.262909 349.178698 
L 724.683273 350.756987 
L 725.393455 358.464088 
L 726.103636 352.367132 
L 726.813818 343.957784 
L 727.524 347.013126 
L 728.234182 347.057299 
L 728.944364 340.383855 
L 729.654545 344.116873 
L 730.364727 346.429891 
L 731.074909 345.436058 
L 731.785091 353.189303 
L 732.495273 349.709987 
L 733.205455 348.090514 
L 733.915636 353.01181 
L 734.625818 354.454681 
L 735.336 354.309255 
L 736.046182 354.568612 
L 736.756364 342.443191 
L 737.466545 349.413617 
L 738.176727 350.641514 
L 738.886909 352.68849 
L 739.597091 351.288267 
L 740.307273 352.669803 
L 741.017455 352.490209 
L 741.727636 348.615557 
L 742.437818 351.116798 
L 743.148 343.503198 
L 743.858182 341.074263 
L 744.568364 340.559569 
L 745.278545 344.572062 
L 745.988727 340.973808 
L 747.409091 327.194905 
L 748.119273 315.361287 
L 748.829455 316.879834 
L 749.539636 315.405051 
L 750.249818 314.186702 
L 750.96 313.701818 
L 752.380364 309.374494 
L 753.090545 312.211965 
L 753.800727 311.372949 
L 754.510909 311.719998 
L 755.931273 321.248283 
L 756.641455 329.209311 
L 757.351636 329.501386 
L 758.061818 334.744029 
L 758.772 333.706068 
L 759.482182 328.870341 
L 760.192364 336.00411 
L 760.902545 344.569825 
L 761.612727 339.638187 
L 762.322909 341.118115 
L 763.033091 336.035056 
L 763.743273 334.275823 
L 764.453455 334.007711 
L 765.163636 332.27787 
L 765.873818 332.001826 
L 766.584 330.540067 
L 767.294182 325.362233 
L 768.004364 334.251384 
L 768.714545 328.617849 
L 770.134909 320.009458 
L 770.845091 327.996463 
L 771.555273 331.443359 
L 772.265455 335.751272 
L 772.975636 330.337155 
L 773.685818 332.295842 
L 774.396 336.483375 
L 775.816364 329.463464 
L 777.236727 301.272596 
L 777.946909 305.836497 
L 778.657091 307.092241 
L 780.077455 290.74774 
L 780.787636 280.96539 
L 782.208 275.015771 
L 782.918182 283.415455 
L 783.628364 281.570743 
L 784.338545 281.268835 
L 785.048727 279.157124 
L 785.758909 277.442173 
L 786.469091 274.843834 
L 787.179273 268.504558 
L 787.889455 273.30069 
L 788.599636 267.991076 
L 789.309818 266.219282 
L 790.02 267.291235 
L 790.730182 276.884903 
L 791.440364 284.221794 
L 792.150545 275.253637 
L 792.860727 270.891811 
L 793.570909 271.813334 
L 794.281091 275.465966 
L 794.991273 271.690619 
L 795.701455 266.713291 
L 796.411636 270.099177 
L 797.121818 275.715581 
L 797.832 288.478657 
L 798.542182 296.484418 
L 799.962545 283.344177 
L 800.672727 285.025027 
L 801.382909 283.373397 
L 802.093091 277.149735 
L 802.803273 280.221581 
L 803.513455 285.3511 
L 804.223636 279.145138 
L 804.933818 275.072918 
L 805.644 277.269542 
L 806.354182 270.499057 
L 807.064364 272.041574 
L 807.774545 286.808702 
L 808.484727 289.264182 
L 809.194909 288.754401 
L 809.905091 289.64562 
L 810.615273 285.572827 
L 811.325455 285.927472 
L 812.035636 288.914902 
L 812.745818 284.056366 
L 813.456 276.81302 
L 814.166182 282.961957 
L 814.876364 281.332134 
L 815.586545 281.707314 
L 816.296727 281.786145 
L 817.006909 286.262764 
L 817.717091 284.413947 
L 818.427273 286.107772 
L 819.137455 290.375265 
L 819.847636 287.62315 
L 821.268 281.029861 
L 821.978182 278.165615 
L 822.688364 284.255006 
L 823.398545 284.096482 
L 824.108727 290.013449 
L 824.818909 284.725029 
L 825.529091 290.83522 
L 826.239273 287.361983 
L 826.949455 276.661836 
L 827.659636 275.871905 
L 828.369818 278.47563 
L 829.08 283.694698 
L 829.790182 286.581507 
L 830.500364 295.663446 
L 831.210545 294.300437 
L 831.920727 293.331575 
L 832.630909 288.355805 
L 833.341091 285.03516 
L 834.051273 278.726684 
L 834.761455 286.666276 
L 835.471636 288.676543 
L 836.181818 284.552682 
L 836.892 267.409121 
L 837.602182 279.450304 
L 838.312364 274.050683 
L 839.022545 266.327392 
L 839.732727 272.388625 
L 840.442909 268.186359 
L 841.153091 251.465405 
L 841.863273 259.19618 
L 842.573455 252.0255 
L 843.283636 252.663607 
L 843.993818 244.86477 
L 844.704 247.277095 
L 845.414182 245.535703 
L 846.834545 258.937798 
L 847.544727 260.036733 
L 848.254909 260.431068 
L 848.965091 269.667637 
L 849.675273 274.529858 
L 850.385455 284.700455 
L 851.095636 282.180147 
L 851.805818 285.914953 
L 852.516 287.560161 
L 853.226182 282.708879 
L 853.936364 283.368405 
L 854.646545 280.593403 
L 855.356727 279.69978 
L 856.066909 275.467417 
L 856.777091 273.553384 
L 857.487273 277.438787 
L 860.328 261.531805 
L 861.038182 262.56619 
L 861.748364 255.642509 
L 862.458545 245.117365 
L 863.168727 249.881254 
L 864.589091 264.757358 
L 865.299273 262.24169 
L 866.009455 264.763509 
L 866.719636 255.816932 
L 867.429818 257.444307 
L 868.14 261.708378 
L 868.850182 268.779926 
L 869.560364 269.336692 
L 870.980727 280.973846 
L 871.690909 284.17226 
L 871.690909 284.17226 
" clip-path="url(#pb78491bc44)" style="fill: none; stroke: #ff7f0e; stroke-width: 1.5; stroke-linecap: square"/>
   </g>
   <g id="line2d_14">
    <path d="M 162.219273 359.0181 
L 162.929455 359.062465 
L 165.06 358.798885 
L 165.770182 358.815434 
L 166.480364 358.666639 
L 167.190545 358.124007 
L 170.741455 357.576438 
L 171.451636 357.266774 
L 172.872 357.27437 
L 173.582182 357.075171 
L 174.292364 357.107727 
L 175.002545 356.915642 
L 177.843273 356.682778 
L 178.553455 356.7843 
L 179.263636 356.083008 
L 180.684 356.034424 
L 181.394182 355.833276 
L 182.104364 355.818982 
L 183.524727 355.215412 
L 184.234909 355.078191 
L 184.945091 354.323031 
L 186.365455 353.868038 
L 187.785818 353.685943 
L 188.496 353.707344 
L 189.206182 353.594145 
L 189.916364 353.597395 
L 190.626545 353.347883 
L 191.336727 353.353004 
L 192.046909 352.894779 
L 197.018182 352.832071 
L 198.438545 352.815241 
L 199.148727 352.502831 
L 201.279273 352.508847 
L 201.989455 352.351054 
L 202.699636 352.353468 
L 203.409818 352.490099 
L 204.830182 352.496941 
L 205.540364 352.166798 
L 206.250545 352.169325 
L 208.381091 351.874175 
L 209.091273 351.876613 
L 209.801455 351.532462 
L 212.642182 351.478101 
L 213.352364 351.192852 
L 214.062545 350.650364 
L 215.482909 350.019455 
L 219.033818 349.772855 
L 219.744 349.440197 
L 220.454182 349.426033 
L 221.164364 349.140013 
L 221.874545 349.145367 
L 222.584727 348.901774 
L 223.294909 348.817137 
L 224.005091 348.366714 
L 225.425455 348.292146 
L 226.135636 348.276478 
L 226.845818 347.893577 
L 228.266182 347.518704 
L 228.976364 347.201504 
L 230.396727 347.288326 
L 231.817091 347.481172 
L 232.527273 347.165651 
L 234.657818 347.140269 
L 235.368 346.999892 
L 236.078182 346.997911 
L 236.788364 346.407365 
L 237.498545 346.047157 
L 241.049455 345.938707 
L 241.759636 345.96369 
L 242.469818 345.501818 
L 243.890182 345.136571 
L 244.600364 345.063934 
L 245.310545 344.795014 
L 246.730909 344.83603 
L 247.441091 344.654225 
L 249.571636 344.564674 
L 250.992 344.149297 
L 252.412364 344.123632 
L 253.122545 343.924173 
L 259.514182 343.250978 
L 261.644727 343.186112 
L 262.354909 343.019064 
L 264.485455 342.855888 
L 265.905818 342.481402 
L 267.326182 342.348667 
L 268.036364 341.720118 
L 269.456727 341.536492 
L 270.166909 341.430421 
L 270.877091 341.464749 
L 272.297455 340.730498 
L 273.007636 340.343419 
L 275.138182 340.235173 
L 276.558545 339.342501 
L 277.268727 339.467023 
L 278.689091 339.423731 
L 279.399273 339.123095 
L 284.370545 339.091538 
L 285.080727 338.919365 
L 287.211273 338.885022 
L 287.921455 338.494906 
L 288.631636 338.525571 
L 289.341818 338.237097 
L 290.762182 338.134015 
L 291.472364 338.119258 
L 292.892727 337.828534 
L 295.733455 337.940224 
L 296.443636 337.712523 
L 297.864 337.581224 
L 300.704727 337.612436 
L 301.414909 336.397486 
L 302.125091 336.189051 
L 302.835273 336.174726 
L 303.545455 335.954446 
L 305.676 335.912347 
L 306.386182 335.617948 
L 307.096364 335.617817 
L 307.806545 335.379328 
L 308.516727 335.25821 
L 309.226909 334.790187 
L 309.937091 334.776528 
L 310.647273 333.981051 
L 311.357455 333.775164 
L 312.067636 333.726605 
L 312.777818 333.280913 
L 313.488 333.12452 
L 317.038909 333.132828 
L 317.749091 332.486487 
L 321.3 332.556006 
L 322.010182 331.81357 
L 322.720364 331.566111 
L 323.430545 330.930752 
L 326.271273 330.662351 
L 327.691636 329.947318 
L 329.112 329.753266 
L 329.822182 329.43058 
L 331.242545 329.434854 
L 332.662909 329.477631 
L 333.373091 329.591664 
L 334.083273 329.189756 
L 334.793455 329.129772 
L 335.503636 328.907761 
L 336.924 328.731171 
L 337.634182 328.397019 
L 339.054545 328.301882 
L 344.025818 328.140328 
L 344.736 327.805899 
L 347.576727 327.763092 
L 348.286909 327.532187 
L 348.997091 327.102116 
L 353.258182 326.986793 
L 354.678545 326.915847 
L 355.388727 326.769882 
L 356.098909 326.340166 
L 357.519273 326.30842 
L 360.36 326.267783 
L 364.621091 326.120722 
L 366.751636 326.07521 
L 367.461818 325.631752 
L 368.882182 325.512981 
L 369.592364 325.033664 
L 371.722909 324.744756 
L 372.433091 324.605448 
L 373.853455 324.606876 
L 374.563636 324.327866 
L 376.694182 324.268907 
L 377.404364 323.694959 
L 378.114545 323.713366 
L 380.245091 323.376618 
L 380.955273 323.315176 
L 381.665455 322.348747 
L 382.375636 322.326478 
L 383.085818 321.854098 
L 383.796 321.560132 
L 387.346909 321.425747 
L 388.057091 321.095152 
L 388.767273 321.130853 
L 389.477455 320.664349 
L 390.187636 320.345535 
L 393.028364 319.985129 
L 393.738545 318.611659 
L 395.158909 317.52043 
L 397.289455 317.465413 
L 397.999636 317.199787 
L 398.709818 317.331812 
L 406.521818 317.355134 
L 407.232 317.07735 
L 409.362545 317.117413 
L 410.072727 316.803958 
L 411.493091 316.744135 
L 412.203273 316.528034 
L 414.333818 316.552251 
L 415.044 316.330826 
L 416.464364 316.355516 
L 417.174545 316.555354 
L 418.594909 316.64051 
L 420.015273 316.546946 
L 421.435636 316.4275 
L 423.566182 316.361786 
L 424.276364 316.366433 
L 426.406909 316.059975 
L 427.117091 316.037564 
L 427.827273 315.733043 
L 428.537455 315.709831 
L 429.957818 315.80189 
L 430.668 315.587424 
L 431.378182 315.157092 
L 432.798545 315.16986 
L 433.508727 315.097974 
L 434.218909 315.147291 
L 435.639273 314.920466 
L 437.769818 314.752979 
L 438.48 314.212649 
L 440.610545 314.194086 
L 441.320727 313.608095 
L 442.030909 313.26371 
L 443.451273 313.046087 
L 444.871636 313.048783 
L 445.581818 312.905044 
L 447.712364 312.774408 
L 448.422545 312.643805 
L 449.842909 312.02474 
L 450.553091 311.151335 
L 453.393818 311.071708 
L 454.104 311.166967 
L 455.524364 310.743064 
L 456.234545 310.717031 
L 456.944727 310.905066 
L 459.075273 310.952057 
L 459.785455 310.670029 
L 461.205818 310.613975 
L 462.626182 310.693868 
L 463.336364 310.595801 
L 464.046545 310.261861 
L 465.466909 310.228246 
L 466.177091 310.122669 
L 466.887273 309.901288 
L 468.307636 309.167475 
L 469.728 308.93888 
L 470.438182 309.003275 
L 471.858545 308.368097 
L 478.250182 308.152642 
L 478.960364 308.03883 
L 479.670545 308.044772 
L 480.380727 307.730503 
L 481.801091 307.723563 
L 484.641818 307.716728 
L 486.772364 307.640856 
L 488.902909 307.496441 
L 491.033455 307.383518 
L 491.743636 307.155603 
L 492.453818 305.086432 
L 493.164 304.517065 
L 497.425091 304.394096 
L 498.845455 304.204843 
L 499.555636 304.214503 
L 500.265818 304.086393 
L 501.686182 302.766704 
L 503.106545 302.763877 
L 503.816727 302.01218 
L 504.526909 301.849407 
L 505.237091 300.902884 
L 506.657455 300.876004 
L 507.367636 300.320452 
L 508.788 300.094681 
L 510.918545 300.122549 
L 511.628727 299.838197 
L 512.338909 299.886803 
L 513.049091 299.735055 
L 515.889818 299.618734 
L 516.6 299.263774 
L 519.440727 299.263763 
L 520.861091 299.043265 
L 522.281455 299.115864 
L 522.991636 298.734439 
L 523.701818 298.664832 
L 524.412 298.360165 
L 525.832364 298.390639 
L 527.252727 298.498544 
L 530.093455 298.412616 
L 530.803636 298.062149 
L 535.774909 297.951864 
L 536.485091 297.680239 
L 537.905455 297.547328 
L 538.615636 296.961858 
L 539.325818 296.999729 
L 540.036 296.59855 
L 540.746182 296.571352 
L 541.456364 296.121629 
L 542.166545 296.261218 
L 543.586909 296.279977 
L 545.717455 296.050984 
L 546.427636 295.088689 
L 547.137818 294.801226 
L 549.268364 294.770391 
L 549.978545 294.578878 
L 550.688727 294.510877 
L 551.398909 294.101874 
L 552.819273 294.160895 
L 554.239636 293.661206 
L 554.949818 293.601008 
L 555.66 293.148928 
L 556.370182 293.168802 
L 557.080364 292.804933 
L 557.790545 292.615256 
L 558.500727 292.603786 
L 559.210909 291.938213 
L 559.921091 291.471327 
L 561.341455 291.430547 
L 562.051636 291.19251 
L 562.761818 291.168382 
L 563.472 290.399269 
L 564.892364 290.36373 
L 567.022909 289.985031 
L 569.863636 289.836101 
L 571.284 289.194862 
L 573.414545 289.102106 
L 574.124727 288.888953 
L 574.834909 288.856099 
L 575.545091 288.946079 
L 576.255273 288.906453 
L 576.965455 288.253347 
L 577.675636 288.003897 
L 578.385818 288.119329 
L 579.096 287.176095 
L 580.516364 286.983894 
L 582.646909 286.722168 
L 584.067273 286.797176 
L 584.777455 286.755764 
L 585.487636 286.559396 
L 586.908 286.432464 
L 587.618182 286.295526 
L 588.328364 285.838395 
L 589.748727 285.623097 
L 590.458909 285.625213 
L 591.169091 285.110598 
L 594.009818 284.787421 
L 598.270909 284.249692 
L 599.691273 283.286914 
L 600.401455 283.291433 
L 601.111636 283.128231 
L 602.532 283.138069 
L 603.242182 282.947647 
L 603.952364 282.576083 
L 608.213455 282.478685 
L 608.923636 282.234599 
L 612.474545 282.139196 
L 613.894909 282.102185 
L 615.315273 282.165421 
L 616.025455 281.847423 
L 616.735636 281.80093 
L 617.445818 281.590607 
L 618.156 281.253456 
L 619.576364 280.995185 
L 620.286545 280.945069 
L 620.996727 280.605735 
L 622.417091 280.638831 
L 623.127273 280.407224 
L 624.547636 280.456849 
L 625.257818 280.1571 
L 625.968 280.22079 
L 627.388364 280.139897 
L 630.229091 280.395471 
L 632.359636 279.762248 
L 634.490182 279.732079 
L 635.200364 279.521253 
L 635.910545 279.56874 
L 636.620727 279.496176 
L 638.041091 279.653092 
L 639.461455 279.615558 
L 640.881818 279.461423 
L 641.592 279.406292 
L 642.302182 278.565705 
L 643.012364 278.396939 
L 644.432727 278.413277 
L 645.853091 278.313036 
L 647.273455 278.227025 
L 648.693818 278.083324 
L 650.114182 277.99166 
L 651.534545 277.679843 
L 652.244727 277.658374 
L 652.954909 277.057263 
L 653.665091 276.83513 
L 654.375273 276.838671 
L 655.085455 276.691714 
L 656.505818 276.660729 
L 657.926182 276.721035 
L 660.766909 276.325506 
L 661.477091 276.229506 
L 662.187273 275.860746 
L 665.738182 275.808475 
L 666.448364 275.912996 
L 667.158545 275.778208 
L 668.578909 274.91701 
L 670.709455 274.879116 
L 671.419636 274.541696 
L 672.129818 273.594421 
L 673.550182 273.500227 
L 674.260364 273.597135 
L 674.970545 273.028174 
L 675.680727 273.059809 
L 676.390909 272.651144 
L 677.101091 272.479639 
L 677.811273 272.459011 
L 678.521455 272.119716 
L 679.231636 272.104692 
L 679.941818 271.667246 
L 680.652 270.706888 
L 681.362182 270.710057 
L 682.072364 270.493104 
L 687.753818 270.342873 
L 689.174182 270.190495 
L 690.594545 270.112442 
L 691.304727 269.955595 
L 694.855636 269.788535 
L 696.276 268.749802 
L 696.986182 268.655416 
L 699.116727 268.727682 
L 699.826909 268.671304 
L 700.537091 268.414064 
L 701.247273 268.442111 
L 701.957455 268.167257 
L 703.377818 268.097833 
L 704.088 267.821648 
L 706.218545 267.773337 
L 706.928727 267.60848 
L 707.638909 267.657655 
L 709.059273 267.41912 
L 709.769455 266.625417 
L 710.479636 266.375688 
L 711.189818 266.391911 
L 711.9 266.135993 
L 713.320364 266.142834 
L 714.030545 265.459389 
L 714.740727 264.374749 
L 715.450909 264.195411 
L 716.871273 264.315103 
L 717.581455 263.71579 
L 719.712 263.527826 
L 720.422182 262.937393 
L 724.683273 262.991179 
L 725.393455 262.757559 
L 726.103636 262.643627 
L 726.813818 262.356632 
L 728.234182 262.388501 
L 728.944364 262.041686 
L 729.654545 261.87259 
L 730.364727 261.974395 
L 731.074909 261.93972 
L 731.785091 261.428513 
L 733.205455 261.317472 
L 734.625818 261.286146 
L 736.046182 261.284089 
L 736.756364 260.38035 
L 738.176727 260.472125 
L 742.437818 260.316579 
L 743.148 259.962494 
L 744.568364 260.009673 
L 745.988727 259.761206 
L 746.698909 259.604385 
L 747.409091 259.193993 
L 748.119273 258.574464 
L 753.800727 258.490474 
L 754.510909 258.489872 
L 755.221091 258.27031 
L 758.772 257.93376 
L 759.482182 257.883684 
L 760.192364 257.54147 
L 762.322909 257.745152 
L 763.033091 257.584733 
L 764.453455 257.642733 
L 767.294182 257.494764 
L 768.714545 257.224388 
L 771.555273 256.530821 
L 772.975636 256.527602 
L 774.396 256.413921 
L 775.816364 256.23583 
L 776.526545 255.343292 
L 777.236727 254.803036 
L 779.367273 254.570276 
L 780.787636 253.415022 
L 782.208 253.388295 
L 782.918182 252.970335 
L 786.469091 253.042716 
L 787.179273 252.630687 
L 787.889455 252.465791 
L 790.02 252.418489 
L 791.440364 251.778636 
L 792.860727 251.654828 
L 794.991273 251.700414 
L 795.701455 251.382908 
L 796.411636 251.421683 
L 797.121818 251.254566 
L 797.832 250.871097 
L 798.542182 250.230439 
L 799.962545 249.542683 
L 803.513455 249.434675 
L 804.223636 248.852602 
L 804.933818 248.632014 
L 806.354182 248.633862 
L 807.064364 248.603711 
L 807.774545 247.993234 
L 812.035636 247.817638 
L 812.745818 247.69666 
L 813.456 247.302443 
L 814.166182 247.18199 
L 815.586545 247.268153 
L 819.137455 247.352824 
L 820.557818 247.500586 
L 821.978182 247.325072 
L 823.398545 247.243934 
L 824.108727 246.929268 
L 824.818909 246.824572 
L 825.529091 246.564459 
L 826.239273 246.564409 
L 826.949455 246.088986 
L 829.790182 245.967167 
L 830.500364 245.613522 
L 833.341091 245.466799 
L 834.051273 245.212696 
L 834.761455 244.772304 
L 835.471636 244.746158 
L 836.181818 244.589702 
L 837.602182 242.727102 
L 838.312364 242.636702 
L 839.022545 242.262156 
L 840.442909 241.805236 
L 841.153091 240.615367 
L 841.863273 240.294265 
L 842.573455 240.160995 
L 843.283636 240.166881 
L 843.993818 239.994676 
L 846.124364 240.035433 
L 847.544727 240.032437 
L 848.254909 240.042864 
L 848.965091 239.738523 
L 849.675273 239.613851 
L 850.385455 239.22743 
L 855.356727 239.001029 
L 857.487273 238.82284 
L 858.907636 238.783662 
L 859.617818 238.687714 
L 861.038182 238.773556 
L 861.748364 238.625794 
L 862.458545 238.169315 
L 863.168727 238.043282 
L 863.878909 237.454513 
L 865.299273 237.351035 
L 866.009455 237.390916 
L 866.719636 237.055531 
L 867.429818 237.082302 
L 868.850182 236.815866 
L 869.560364 236.812845 
L 870.980727 236.451718 
L 871.690909 236.401926 
L 871.690909 236.401926 
" clip-path="url(#pb78491bc44)" style="fill: none; stroke: #2ca02c; stroke-width: 1.5; stroke-linecap: square"/>
   </g>
   <g id="patch_3">
    <path d="M 126 384.48 
L 126 51.84 
" style="fill: none; stroke: #000000; stroke-width: 0.8; stroke-linejoin: miter; stroke-linecap: square"/>
   </g>
   <g id="patch_4">
    <path d="M 907.2 384.48 
L 907.2 51.84 
" style="fill: none; stroke: #000000; stroke-width: 0.8; stroke-linejoin: miter; stroke-linecap: square"/>
   </g>
   <g id="patch_5">
    <path d="M 126 384.48 
L 907.2 384.48 
" style="fill: none; stroke: #000000; stroke-width: 0.8; stroke-linejoin: miter; stroke-linecap: square"/>
   </g>
   <g id="patch_6">
    <path d="M 126 51.84 
L 907.2 51.84 
" style="fill: none; stroke: #000000; stroke-width: 0.8; stroke-linejoin: miter; stroke-linecap: square"/>
   </g>
   <g id="text_14">
    <!-- Quadratic Covariation of $X_t$ and $S_t$ -->
    <g transform="translate(414.54 45.84)scale(0.12 -0.12)">
     <defs>
      <path id="DejaVuSans-66" d="M 2375 4863 
L 2375 4384 
L 1825 4384 
Q 1516 4384 1395 4259 
Q 1275 4134 1275 3809 
L 1275 3500 
L 2222 3500 
L 2222 3053 
L 1275 3053 
L 1275 0 
L 697 0 
L 697 3053 
L 147 3053 
L 147 3500 
L 697 3500 
L 697 3744 
Q 697 4328 969 4595 
Q 1241 4863 1831 4863 
L 2375 4863 
z
" transform="scale(0.015625)"/>
      <path id="DejaVuSans-Oblique-58" d="M 878 4666 
L 1516 4666 
L 2316 2981 
L 3763 4666 
L 4500 4666 
L 2578 2438 
L 3738 0 
L 3103 0 
L 2163 1966 
L 459 0 
L -275 0 
L 1906 2509 
L 878 4666 
z
" transform="scale(0.015625)"/>
      <path id="DejaVuSans-Oblique-74" d="M 2706 3500 
L 2619 3053 
L 1472 3053 
L 1100 1153 
Q 1081 1047 1072 975 
Q 1063 903 1063 863 
Q 1063 663 1183 572 
Q 1303 481 1569 481 
L 2150 481 
L 2053 0 
L 1503 0 
Q 991 0 739 200 
Q 488 400 488 806 
Q 488 878 497 964 
Q 506 1050 525 1153 
L 897 3053 
L 409 3053 
L 500 3500 
L 978 3500 
L 1172 4494 
L 1747 4494 
L 1556 3500 
L 2706 3500 
z
" transform="scale(0.015625)"/>
      <path id="DejaVuSans-Oblique-53" d="M 3859 4513 
L 3738 3897 
Q 3422 4066 3111 4152 
Q 2800 4238 2509 4238 
Q 1944 4238 1609 3991 
Q 1275 3744 1275 3334 
Q 1275 3109 1398 2989 
Q 1522 2869 2034 2731 
L 2413 2638 
Q 3053 2472 3303 2217 
Q 3553 1963 3553 1503 
Q 3553 797 2998 353 
Q 2444 -91 1538 -91 
Q 1166 -91 791 -17 
Q 416 56 38 206 
L 166 856 
Q 513 641 861 531 
Q 1209 422 1556 422 
Q 2147 422 2503 684 
Q 2859 947 2859 1369 
Q 2859 1650 2717 1795 
Q 2575 1941 2106 2059 
L 1728 2156 
Q 1081 2325 845 2545 
Q 609 2766 609 3163 
Q 609 3859 1145 4304 
Q 1681 4750 2541 4750 
Q 2875 4750 3203 4690 
Q 3531 4631 3859 4513 
z
" transform="scale(0.015625)"/>
     </defs>
     <use xlink:href="#DejaVuSans-51" transform="translate(0 0.015625)"/>
     <use xlink:href="#DejaVuSans-75" transform="translate(78.710938 0.015625)"/>
     <use xlink:href="#DejaVuSans-61" transform="translate(142.089844 0.015625)"/>
     <use xlink:href="#DejaVuSans-64" transform="translate(203.369141 0.015625)"/>
     <use xlink:href="#DejaVuSans-72" transform="translate(266.845703 0.015625)"/>
     <use xlink:href="#DejaVuSans-61" transform="translate(307.958984 0.015625)"/>
     <use xlink:href="#DejaVuSans-74" transform="translate(369.238281 0.015625)"/>
     <use xlink:href="#DejaVuSans-69" transform="translate(408.447266 0.015625)"/>
     <use xlink:href="#DejaVuSans-63" transform="translate(436.230469 0.015625)"/>
     <use xlink:href="#DejaVuSans-20" transform="translate(491.210938 0.015625)"/>
     <use xlink:href="#DejaVuSans-43" transform="translate(522.998047 0.015625)"/>
     <use xlink:href="#DejaVuSans-6f" transform="translate(592.822266 0.015625)"/>
     <use xlink:href="#DejaVuSans-76" transform="translate(654.003906 0.015625)"/>
     <use xlink:href="#DejaVuSans-61" transform="translate(713.183594 0.015625)"/>
     <use xlink:href="#DejaVuSans-72" transform="translate(774.462891 0.015625)"/>
     <use xlink:href="#DejaVuSans-69" transform="translate(815.576172 0.015625)"/>
     <use xlink:href="#DejaVuSans-61" transform="translate(843.359375 0.015625)"/>
     <use xlink:href="#DejaVuSans-74" transform="translate(904.638672 0.015625)"/>
     <use xlink:href="#DejaVuSans-69" transform="translate(943.847656 0.015625)"/>
     <use xlink:href="#DejaVuSans-6f" transform="translate(971.630859 0.015625)"/>
     <use xlink:href="#DejaVuSans-6e" transform="translate(1032.8125 0.015625)"/>
     <use xlink:href="#DejaVuSans-20" transform="translate(1096.191406 0.015625)"/>
     <use xlink:href="#DejaVuSans-6f" transform="translate(1127.978516 0.015625)"/>
     <use xlink:href="#DejaVuSans-66" transform="translate(1189.160156 0.015625)"/>
     <use xlink:href="#DejaVuSans-20" transform="translate(1224.365234 0.015625)"/>
     <use xlink:href="#DejaVuSans-Oblique-58" transform="translate(1256.152344 0.015625)"/>
     <use xlink:href="#DejaVuSans-Oblique-74" transform="translate(1324.658203 -16.390625)scale(0.7)"/>
     <use xlink:href="#DejaVuSans-20" transform="translate(1354.838867 0.015625)"/>
     <use xlink:href="#DejaVuSans-61" transform="translate(1386.625977 0.015625)"/>
     <use xlink:href="#DejaVuSans-6e" transform="translate(1447.905273 0.015625)"/>
     <use xlink:href="#DejaVuSans-64" transform="translate(1511.28418 0.015625)"/>
     <use xlink:href="#DejaVuSans-20" transform="translate(1574.760742 0.015625)"/>
     <use xlink:href="#DejaVuSans-Oblique-53" transform="translate(1606.547852 0.015625)"/>
     <use xlink:href="#DejaVuSans-Oblique-74" transform="translate(1670.024414 -16.390625)scale(0.7)"/>
    </g>
   </g>
   <g id="legend_1">
    <g id="patch_7">
     <path d="M 698.1 103.874375 
L 900.2 103.874375 
Q 902.2 103.874375 902.2 101.874375 
L 902.2 58.84 
Q 902.2 56.84 900.2 56.84 
L 698.1 56.84 
Q 696.1 56.84 696.1 58.84 
L 696.1 101.874375 
Q 696.1 103.874375 698.1 103.874375 
z
" style="fill: #ffffff; opacity: 0.8; stroke: #cccccc; stroke-linejoin: miter"/>
    </g>
    <g id="line2d_15">
     <path d="M 700.1 64.938437 
L 710.1 64.938437 
L 720.1 64.938437 
" style="fill: none; stroke: #1f77b4; stroke-width: 1.5; stroke-linecap: square"/>
    </g>
    <g id="text_15">
     <!-- $X_t$ -->
     <g transform="translate(728.1 68.438437)scale(0.1 -0.1)">
      <use xlink:href="#DejaVuSans-Oblique-58" transform="translate(0 0.09375)"/>
      <use xlink:href="#DejaVuSans-Oblique-74" transform="translate(68.505859 -16.3125)scale(0.7)"/>
     </g>
    </g>
    <g id="line2d_16">
     <path d="M 700.1 79.616562 
L 710.1 79.616562 
L 720.1 79.616562 
" style="fill: none; stroke: #ff7f0e; stroke-width: 1.5; stroke-linecap: square"/>
    </g>
    <g id="text_16">
     <!-- $S_t$ -->
     <g transform="translate(728.1 83.116562)scale(0.1 -0.1)">
      <use xlink:href="#DejaVuSans-Oblique-53" transform="translate(0 0.78125)"/>
      <use xlink:href="#DejaVuSans-Oblique-74" transform="translate(63.476562 -15.625)scale(0.7)"/>
     </g>
    </g>
    <g id="line2d_17">
     <path d="M 700.1 94.294687 
L 710.1 94.294687 
L 720.1 94.294687 
" style="fill: none; stroke: #2ca02c; stroke-width: 1.5; stroke-linecap: square"/>
    </g>
    <g id="text_17">
     <!-- Quadratic Covariation of $X_t$ and $S_t$ -->
     <g transform="translate(728.1 97.794687)scale(0.1 -0.1)">
      <use xlink:href="#DejaVuSans-51" transform="translate(0 0.015625)"/>
      <use xlink:href="#DejaVuSans-75" transform="translate(78.710938 0.015625)"/>
      <use xlink:href="#DejaVuSans-61" transform="translate(142.089844 0.015625)"/>
      <use xlink:href="#DejaVuSans-64" transform="translate(203.369141 0.015625)"/>
      <use xlink:href="#DejaVuSans-72" transform="translate(266.845703 0.015625)"/>
      <use xlink:href="#DejaVuSans-61" transform="translate(307.958984 0.015625)"/>
      <use xlink:href="#DejaVuSans-74" transform="translate(369.238281 0.015625)"/>
      <use xlink:href="#DejaVuSans-69" transform="translate(408.447266 0.015625)"/>
      <use xlink:href="#DejaVuSans-63" transform="translate(436.230469 0.015625)"/>
      <use xlink:href="#DejaVuSans-20" transform="translate(491.210938 0.015625)"/>
      <use xlink:href="#DejaVuSans-43" transform="translate(522.998047 0.015625)"/>
      <use xlink:href="#DejaVuSans-6f" transform="translate(592.822266 0.015625)"/>
      <use xlink:href="#DejaVuSans-76" transform="translate(654.003906 0.015625)"/>
      <use xlink:href="#DejaVuSans-61" transform="translate(713.183594 0.015625)"/>
      <use xlink:href="#DejaVuSans-72" transform="translate(774.462891 0.015625)"/>
      <use xlink:href="#DejaVuSans-69" transform="translate(815.576172 0.015625)"/>
      <use xlink:href="#DejaVuSans-61" transform="translate(843.359375 0.015625)"/>
      <use xlink:href="#DejaVuSans-74" transform="translate(904.638672 0.015625)"/>
      <use xlink:href="#DejaVuSans-69" transform="translate(943.847656 0.015625)"/>
      <use xlink:href="#DejaVuSans-6f" transform="translate(971.630859 0.015625)"/>
      <use xlink:href="#DejaVuSans-6e" transform="translate(1032.8125 0.015625)"/>
      <use xlink:href="#DejaVuSans-20" transform="translate(1096.191406 0.015625)"/>
      <use xlink:href="#DejaVuSans-6f" transform="translate(1127.978516 0.015625)"/>
      <use xlink:href="#DejaVuSans-66" transform="translate(1189.160156 0.015625)"/>
      <use xlink:href="#DejaVuSans-20" transform="translate(1224.365234 0.015625)"/>
      <use xlink:href="#DejaVuSans-Oblique-58" transform="translate(1256.152344 0.015625)"/>
      <use xlink:href="#DejaVuSans-Oblique-74" transform="translate(1324.658203 -16.390625)scale(0.7)"/>
      <use xlink:href="#DejaVuSans-20" transform="translate(1354.838867 0.015625)"/>
      <use xlink:href="#DejaVuSans-61" transform="translate(1386.625977 0.015625)"/>
      <use xlink:href="#DejaVuSans-6e" transform="translate(1447.905273 0.015625)"/>
      <use xlink:href="#DejaVuSans-64" transform="translate(1511.28418 0.015625)"/>
      <use xlink:href="#DejaVuSans-20" transform="translate(1574.760742 0.015625)"/>
      <use xlink:href="#DejaVuSans-Oblique-53" transform="translate(1606.547852 0.015625)"/>
      <use xlink:href="#DejaVuSans-Oblique-74" transform="translate(1670.024414 -16.390625)scale(0.7)"/>
     </g>
    </g>
   </g>
  </g>
 </g>
 <defs>
  <clipPath id="pb78491bc44">
   <rect x="126" y="51.84" width="781.2" height="332.64"/>
  </clipPath>
 </defs>
</svg>
