<?xml version="1.0" encoding="utf-8" standalone="no"?>
<!DOCTYPE svg PUBLIC "-//W3C//DTD SVG 1.1//EN"
  "http://www.w3.org/Graphics/SVG/1.1/DTD/svg11.dtd">
<svg xmlns:xlink="http://www.w3.org/1999/xlink" width="1008pt" height="432pt" viewBox="0 0 1008 432" xmlns="http://www.w3.org/2000/svg" version="1.1">
 <metadata>
  <rdf:RDF xmlns:dc="http://purl.org/dc/elements/1.1/" xmlns:cc="http://creativecommons.org/ns#" xmlns:rdf="http://www.w3.org/1999/02/22-rdf-syntax-ns#">
   <cc:Work>
    <dc:type rdf:resource="http://purl.org/dc/dcmitype/StillImage"/>
    <dc:date>2023-12-22T17:09:30.726400</dc:date>
    <dc:format>image/svg+xml</dc:format>
    <dc:creator>
     <cc:Agent>
      <dc:title>Matplotlib v3.5.2, https://matplotlib.org/</dc:title>
     </cc:Agent>
    </dc:creator>
   </cc:Work>
  </rdf:RDF>
 </metadata>
 <defs>
  <style type="text/css">*{stroke-linejoin: round; stroke-linecap: butt}</style>
 </defs>
 <g id="figure_1">
  <g id="patch_1">
   <path d="M 0 432 
L 1008 432 
L 1008 0 
L 0 0 
z
" style="fill: #ffffff"/>
  </g>
  <g id="axes_1">
   <g id="patch_2">
    <path d="M 126 384.48 
L 907.2 384.48 
L 907.2 51.84 
L 126 51.84 
z
" style="fill: #ffffff"/>
   </g>
   <g id="matplotlib.axis_1">
    <g id="xtick_1">
     <g id="line2d_1">
      <defs>
       <path id="mfa0596fc64" d="M 0 0 
L 0 3.5 
" style="stroke: #000000; stroke-width: 0.8"/>
      </defs>
      <g>
       <use xlink:href="#mfa0596fc64" x="161.509091" y="384.48" style="stroke: #000000; stroke-width: 0.8"/>
      </g>
     </g>
     <g id="text_1">
      <!-- 0.0 -->
      <g transform="translate(153.557528 399.078438)scale(0.1 -0.1)">
       <defs>
        <path id="DejaVuSans-30" d="M 2034 4250 
Q 1547 4250 1301 3770 
Q 1056 3291 1056 2328 
Q 1056 1369 1301 889 
Q 1547 409 2034 409 
Q 2525 409 2770 889 
Q 3016 1369 3016 2328 
Q 3016 3291 2770 3770 
Q 2525 4250 2034 4250 
z
M 2034 4750 
Q 2819 4750 3233 4129 
Q 3647 3509 3647 2328 
Q 3647 1150 3233 529 
Q 2819 -91 2034 -91 
Q 1250 -91 836 529 
Q 422 1150 422 2328 
Q 422 3509 836 4129 
Q 1250 4750 2034 4750 
z
" transform="scale(0.015625)"/>
        <path id="DejaVuSans-2e" d="M 684 794 
L 1344 794 
L 1344 0 
L 684 0 
L 684 794 
z
" transform="scale(0.015625)"/>
       </defs>
       <use xlink:href="#DejaVuSans-30"/>
       <use xlink:href="#DejaVuSans-2e" x="63.623047"/>
       <use xlink:href="#DejaVuSans-30" x="95.410156"/>
      </g>
     </g>
    </g>
    <g id="xtick_2">
     <g id="line2d_2">
      <g>
       <use xlink:href="#mfa0596fc64" x="303.545455" y="384.48" style="stroke: #000000; stroke-width: 0.8"/>
      </g>
     </g>
     <g id="text_2">
      <!-- 0.2 -->
      <g transform="translate(295.593892 399.078438)scale(0.1 -0.1)">
       <defs>
        <path id="DejaVuSans-32" d="M 1228 531 
L 3431 531 
L 3431 0 
L 469 0 
L 469 531 
Q 828 903 1448 1529 
Q 2069 2156 2228 2338 
Q 2531 2678 2651 2914 
Q 2772 3150 2772 3378 
Q 2772 3750 2511 3984 
Q 2250 4219 1831 4219 
Q 1534 4219 1204 4116 
Q 875 4013 500 3803 
L 500 4441 
Q 881 4594 1212 4672 
Q 1544 4750 1819 4750 
Q 2544 4750 2975 4387 
Q 3406 4025 3406 3419 
Q 3406 3131 3298 2873 
Q 3191 2616 2906 2266 
Q 2828 2175 2409 1742 
Q 1991 1309 1228 531 
z
" transform="scale(0.015625)"/>
       </defs>
       <use xlink:href="#DejaVuSans-30"/>
       <use xlink:href="#DejaVuSans-2e" x="63.623047"/>
       <use xlink:href="#DejaVuSans-32" x="95.410156"/>
      </g>
     </g>
    </g>
    <g id="xtick_3">
     <g id="line2d_3">
      <g>
       <use xlink:href="#mfa0596fc64" x="445.581818" y="384.48" style="stroke: #000000; stroke-width: 0.8"/>
      </g>
     </g>
     <g id="text_3">
      <!-- 0.4 -->
      <g transform="translate(437.630256 399.078438)scale(0.1 -0.1)">
       <defs>
        <path id="DejaVuSans-34" d="M 2419 4116 
L 825 1625 
L 2419 1625 
L 2419 4116 
z
M 2253 4666 
L 3047 4666 
L 3047 1625 
L 3713 1625 
L 3713 1100 
L 3047 1100 
L 3047 0 
L 2419 0 
L 2419 1100 
L 313 1100 
L 313 1709 
L 2253 4666 
z
" transform="scale(0.015625)"/>
       </defs>
       <use xlink:href="#DejaVuSans-30"/>
       <use xlink:href="#DejaVuSans-2e" x="63.623047"/>
       <use xlink:href="#DejaVuSans-34" x="95.410156"/>
      </g>
     </g>
    </g>
    <g id="xtick_4">
     <g id="line2d_4">
      <g>
       <use xlink:href="#mfa0596fc64" x="587.618182" y="384.48" style="stroke: #000000; stroke-width: 0.8"/>
      </g>
     </g>
     <g id="text_4">
      <!-- 0.6 -->
      <g transform="translate(579.666619 399.078438)scale(0.1 -0.1)">
       <defs>
        <path id="DejaVuSans-36" d="M 2113 2584 
Q 1688 2584 1439 2293 
Q 1191 2003 1191 1497 
Q 1191 994 1439 701 
Q 1688 409 2113 409 
Q 2538 409 2786 701 
Q 3034 994 3034 1497 
Q 3034 2003 2786 2293 
Q 2538 2584 2113 2584 
z
M 3366 4563 
L 3366 3988 
Q 3128 4100 2886 4159 
Q 2644 4219 2406 4219 
Q 1781 4219 1451 3797 
Q 1122 3375 1075 2522 
Q 1259 2794 1537 2939 
Q 1816 3084 2150 3084 
Q 2853 3084 3261 2657 
Q 3669 2231 3669 1497 
Q 3669 778 3244 343 
Q 2819 -91 2113 -91 
Q 1303 -91 875 529 
Q 447 1150 447 2328 
Q 447 3434 972 4092 
Q 1497 4750 2381 4750 
Q 2619 4750 2861 4703 
Q 3103 4656 3366 4563 
z
" transform="scale(0.015625)"/>
       </defs>
       <use xlink:href="#DejaVuSans-30"/>
       <use xlink:href="#DejaVuSans-2e" x="63.623047"/>
       <use xlink:href="#DejaVuSans-36" x="95.410156"/>
      </g>
     </g>
    </g>
    <g id="xtick_5">
     <g id="line2d_5">
      <g>
       <use xlink:href="#mfa0596fc64" x="729.654545" y="384.48" style="stroke: #000000; stroke-width: 0.8"/>
      </g>
     </g>
     <g id="text_5">
      <!-- 0.8 -->
      <g transform="translate(721.702983 399.078438)scale(0.1 -0.1)">
       <defs>
        <path id="DejaVuSans-38" d="M 2034 2216 
Q 1584 2216 1326 1975 
Q 1069 1734 1069 1313 
Q 1069 891 1326 650 
Q 1584 409 2034 409 
Q 2484 409 2743 651 
Q 3003 894 3003 1313 
Q 3003 1734 2745 1975 
Q 2488 2216 2034 2216 
z
M 1403 2484 
Q 997 2584 770 2862 
Q 544 3141 544 3541 
Q 544 4100 942 4425 
Q 1341 4750 2034 4750 
Q 2731 4750 3128 4425 
Q 3525 4100 3525 3541 
Q 3525 3141 3298 2862 
Q 3072 2584 2669 2484 
Q 3125 2378 3379 2068 
Q 3634 1759 3634 1313 
Q 3634 634 3220 271 
Q 2806 -91 2034 -91 
Q 1263 -91 848 271 
Q 434 634 434 1313 
Q 434 1759 690 2068 
Q 947 2378 1403 2484 
z
M 1172 3481 
Q 1172 3119 1398 2916 
Q 1625 2713 2034 2713 
Q 2441 2713 2670 2916 
Q 2900 3119 2900 3481 
Q 2900 3844 2670 4047 
Q 2441 4250 2034 4250 
Q 1625 4250 1398 4047 
Q 1172 3844 1172 3481 
z
" transform="scale(0.015625)"/>
       </defs>
       <use xlink:href="#DejaVuSans-30"/>
       <use xlink:href="#DejaVuSans-2e" x="63.623047"/>
       <use xlink:href="#DejaVuSans-38" x="95.410156"/>
      </g>
     </g>
    </g>
    <g id="xtick_6">
     <g id="line2d_6">
      <g>
       <use xlink:href="#mfa0596fc64" x="871.690909" y="384.48" style="stroke: #000000; stroke-width: 0.8"/>
      </g>
     </g>
     <g id="text_6">
      <!-- 1.0 -->
      <g transform="translate(863.739347 399.078438)scale(0.1 -0.1)">
       <defs>
        <path id="DejaVuSans-31" d="M 794 531 
L 1825 531 
L 1825 4091 
L 703 3866 
L 703 4441 
L 1819 4666 
L 2450 4666 
L 2450 531 
L 3481 531 
L 3481 0 
L 794 0 
L 794 531 
z
" transform="scale(0.015625)"/>
       </defs>
       <use xlink:href="#DejaVuSans-31"/>
       <use xlink:href="#DejaVuSans-2e" x="63.623047"/>
       <use xlink:href="#DejaVuSans-30" x="95.410156"/>
      </g>
     </g>
    </g>
    <g id="text_7">
     <!-- Time -->
     <g transform="translate(504.366406 412.756563)scale(0.1 -0.1)">
      <defs>
       <path id="DejaVuSans-54" d="M -19 4666 
L 3928 4666 
L 3928 4134 
L 2272 4134 
L 2272 0 
L 1638 0 
L 1638 4134 
L -19 4134 
L -19 4666 
z
" transform="scale(0.015625)"/>
       <path id="DejaVuSans-69" d="M 603 3500 
L 1178 3500 
L 1178 0 
L 603 0 
L 603 3500 
z
M 603 4863 
L 1178 4863 
L 1178 4134 
L 603 4134 
L 603 4863 
z
" transform="scale(0.015625)"/>
       <path id="DejaVuSans-6d" d="M 3328 2828 
Q 3544 3216 3844 3400 
Q 4144 3584 4550 3584 
Q 5097 3584 5394 3201 
Q 5691 2819 5691 2113 
L 5691 0 
L 5113 0 
L 5113 2094 
Q 5113 2597 4934 2840 
Q 4756 3084 4391 3084 
Q 3944 3084 3684 2787 
Q 3425 2491 3425 1978 
L 3425 0 
L 2847 0 
L 2847 2094 
Q 2847 2600 2669 2842 
Q 2491 3084 2119 3084 
Q 1678 3084 1418 2786 
Q 1159 2488 1159 1978 
L 1159 0 
L 581 0 
L 581 3500 
L 1159 3500 
L 1159 2956 
Q 1356 3278 1631 3431 
Q 1906 3584 2284 3584 
Q 2666 3584 2933 3390 
Q 3200 3197 3328 2828 
z
" transform="scale(0.015625)"/>
       <path id="DejaVuSans-65" d="M 3597 1894 
L 3597 1613 
L 953 1613 
Q 991 1019 1311 708 
Q 1631 397 2203 397 
Q 2534 397 2845 478 
Q 3156 559 3463 722 
L 3463 178 
Q 3153 47 2828 -22 
Q 2503 -91 2169 -91 
Q 1331 -91 842 396 
Q 353 884 353 1716 
Q 353 2575 817 3079 
Q 1281 3584 2069 3584 
Q 2775 3584 3186 3129 
Q 3597 2675 3597 1894 
z
M 3022 2063 
Q 3016 2534 2758 2815 
Q 2500 3097 2075 3097 
Q 1594 3097 1305 2825 
Q 1016 2553 972 2059 
L 3022 2063 
z
" transform="scale(0.015625)"/>
      </defs>
      <use xlink:href="#DejaVuSans-54"/>
      <use xlink:href="#DejaVuSans-69" x="57.958984"/>
      <use xlink:href="#DejaVuSans-6d" x="85.742188"/>
      <use xlink:href="#DejaVuSans-65" x="183.154297"/>
     </g>
    </g>
   </g>
   <g id="matplotlib.axis_2">
    <g id="ytick_1">
     <g id="line2d_7">
      <defs>
       <path id="mb9863be2bd" d="M 0 0 
L -3.5 0 
" style="stroke: #000000; stroke-width: 0.8"/>
      </defs>
      <g>
       <use xlink:href="#mb9863be2bd" x="126" y="369.387226" style="stroke: #000000; stroke-width: 0.8"/>
      </g>
     </g>
     <g id="text_8">
      <!-- 0.0 -->
      <g transform="translate(103.096875 373.186445)scale(0.1 -0.1)">
       <use xlink:href="#DejaVuSans-30"/>
       <use xlink:href="#DejaVuSans-2e" x="63.623047"/>
       <use xlink:href="#DejaVuSans-30" x="95.410156"/>
      </g>
     </g>
    </g>
    <g id="ytick_2">
     <g id="line2d_8">
      <g>
       <use xlink:href="#mb9863be2bd" x="126" y="317.663154" style="stroke: #000000; stroke-width: 0.8"/>
      </g>
     </g>
     <g id="text_9">
      <!-- 0.5 -->
      <g transform="translate(103.096875 321.462373)scale(0.1 -0.1)">
       <defs>
        <path id="DejaVuSans-35" d="M 691 4666 
L 3169 4666 
L 3169 4134 
L 1269 4134 
L 1269 2991 
Q 1406 3038 1543 3061 
Q 1681 3084 1819 3084 
Q 2600 3084 3056 2656 
Q 3513 2228 3513 1497 
Q 3513 744 3044 326 
Q 2575 -91 1722 -91 
Q 1428 -91 1123 -41 
Q 819 9 494 109 
L 494 744 
Q 775 591 1075 516 
Q 1375 441 1709 441 
Q 2250 441 2565 725 
Q 2881 1009 2881 1497 
Q 2881 1984 2565 2268 
Q 2250 2553 1709 2553 
Q 1456 2553 1204 2497 
Q 953 2441 691 2322 
L 691 4666 
z
" transform="scale(0.015625)"/>
       </defs>
       <use xlink:href="#DejaVuSans-30"/>
       <use xlink:href="#DejaVuSans-2e" x="63.623047"/>
       <use xlink:href="#DejaVuSans-35" x="95.410156"/>
      </g>
     </g>
    </g>
    <g id="ytick_3">
     <g id="line2d_9">
      <g>
       <use xlink:href="#mb9863be2bd" x="126" y="265.939082" style="stroke: #000000; stroke-width: 0.8"/>
      </g>
     </g>
     <g id="text_10">
      <!-- 1.0 -->
      <g transform="translate(103.096875 269.7383)scale(0.1 -0.1)">
       <use xlink:href="#DejaVuSans-31"/>
       <use xlink:href="#DejaVuSans-2e" x="63.623047"/>
       <use xlink:href="#DejaVuSans-30" x="95.410156"/>
      </g>
     </g>
    </g>
    <g id="ytick_4">
     <g id="line2d_10">
      <g>
       <use xlink:href="#mb9863be2bd" x="126" y="214.215009" style="stroke: #000000; stroke-width: 0.8"/>
      </g>
     </g>
     <g id="text_11">
      <!-- 1.5 -->
      <g transform="translate(103.096875 218.014228)scale(0.1 -0.1)">
       <use xlink:href="#DejaVuSans-31"/>
       <use xlink:href="#DejaVuSans-2e" x="63.623047"/>
       <use xlink:href="#DejaVuSans-35" x="95.410156"/>
      </g>
     </g>
    </g>
    <g id="ytick_5">
     <g id="line2d_11">
      <g>
       <use xlink:href="#mb9863be2bd" x="126" y="162.490937" style="stroke: #000000; stroke-width: 0.8"/>
      </g>
     </g>
     <g id="text_12">
      <!-- 2.0 -->
      <g transform="translate(103.096875 166.290156)scale(0.1 -0.1)">
       <use xlink:href="#DejaVuSans-32"/>
       <use xlink:href="#DejaVuSans-2e" x="63.623047"/>
       <use xlink:href="#DejaVuSans-30" x="95.410156"/>
      </g>
     </g>
    </g>
    <g id="ytick_6">
     <g id="line2d_12">
      <g>
       <use xlink:href="#mb9863be2bd" x="126" y="110.766864" style="stroke: #000000; stroke-width: 0.8"/>
      </g>
     </g>
     <g id="text_13">
      <!-- 2.5 -->
      <g transform="translate(103.096875 114.566083)scale(0.1 -0.1)">
       <use xlink:href="#DejaVuSans-32"/>
       <use xlink:href="#DejaVuSans-2e" x="63.623047"/>
       <use xlink:href="#DejaVuSans-35" x="95.410156"/>
      </g>
     </g>
    </g>
    <g id="ytick_7">
     <g id="line2d_13">
      <g>
       <use xlink:href="#mb9863be2bd" x="126" y="59.042792" style="stroke: #000000; stroke-width: 0.8"/>
      </g>
     </g>
     <g id="text_14">
      <!-- 3.0 -->
      <g transform="translate(103.096875 62.842011)scale(0.1 -0.1)">
       <defs>
        <path id="DejaVuSans-33" d="M 2597 2516 
Q 3050 2419 3304 2112 
Q 3559 1806 3559 1356 
Q 3559 666 3084 287 
Q 2609 -91 1734 -91 
Q 1441 -91 1130 -33 
Q 819 25 488 141 
L 488 750 
Q 750 597 1062 519 
Q 1375 441 1716 441 
Q 2309 441 2620 675 
Q 2931 909 2931 1356 
Q 2931 1769 2642 2001 
Q 2353 2234 1838 2234 
L 1294 2234 
L 1294 2753 
L 1863 2753 
Q 2328 2753 2575 2939 
Q 2822 3125 2822 3475 
Q 2822 3834 2567 4026 
Q 2313 4219 1838 4219 
Q 1578 4219 1281 4162 
Q 984 4106 628 3988 
L 628 4550 
Q 988 4650 1302 4700 
Q 1616 4750 1894 4750 
Q 2613 4750 3031 4423 
Q 3450 4097 3450 3541 
Q 3450 3153 3228 2886 
Q 3006 2619 2597 2516 
z
" transform="scale(0.015625)"/>
       </defs>
       <use xlink:href="#DejaVuSans-33"/>
       <use xlink:href="#DejaVuSans-2e" x="63.623047"/>
       <use xlink:href="#DejaVuSans-30" x="95.410156"/>
      </g>
     </g>
    </g>
    <g id="text_15">
     <!-- Quadratic Covariation -->
     <g transform="translate(97.017187 272.970156)rotate(-90)scale(0.1 -0.1)">
      <defs>
       <path id="DejaVuSans-51" d="M 2522 4238 
Q 1834 4238 1429 3725 
Q 1025 3213 1025 2328 
Q 1025 1447 1429 934 
Q 1834 422 2522 422 
Q 3209 422 3611 934 
Q 4013 1447 4013 2328 
Q 4013 3213 3611 3725 
Q 3209 4238 2522 4238 
z
M 3406 84 
L 4238 -825 
L 3475 -825 
L 2784 -78 
Q 2681 -84 2626 -87 
Q 2572 -91 2522 -91 
Q 1538 -91 948 567 
Q 359 1225 359 2328 
Q 359 3434 948 4092 
Q 1538 4750 2522 4750 
Q 3503 4750 4090 4092 
Q 4678 3434 4678 2328 
Q 4678 1516 4351 937 
Q 4025 359 3406 84 
z
" transform="scale(0.015625)"/>
       <path id="DejaVuSans-75" d="M 544 1381 
L 544 3500 
L 1119 3500 
L 1119 1403 
Q 1119 906 1312 657 
Q 1506 409 1894 409 
Q 2359 409 2629 706 
Q 2900 1003 2900 1516 
L 2900 3500 
L 3475 3500 
L 3475 0 
L 2900 0 
L 2900 538 
Q 2691 219 2414 64 
Q 2138 -91 1772 -91 
Q 1169 -91 856 284 
Q 544 659 544 1381 
z
M 1991 3584 
L 1991 3584 
z
" transform="scale(0.015625)"/>
       <path id="DejaVuSans-61" d="M 2194 1759 
Q 1497 1759 1228 1600 
Q 959 1441 959 1056 
Q 959 750 1161 570 
Q 1363 391 1709 391 
Q 2188 391 2477 730 
Q 2766 1069 2766 1631 
L 2766 1759 
L 2194 1759 
z
M 3341 1997 
L 3341 0 
L 2766 0 
L 2766 531 
Q 2569 213 2275 61 
Q 1981 -91 1556 -91 
Q 1019 -91 701 211 
Q 384 513 384 1019 
Q 384 1609 779 1909 
Q 1175 2209 1959 2209 
L 2766 2209 
L 2766 2266 
Q 2766 2663 2505 2880 
Q 2244 3097 1772 3097 
Q 1472 3097 1187 3025 
Q 903 2953 641 2809 
L 641 3341 
Q 956 3463 1253 3523 
Q 1550 3584 1831 3584 
Q 2591 3584 2966 3190 
Q 3341 2797 3341 1997 
z
" transform="scale(0.015625)"/>
       <path id="DejaVuSans-64" d="M 2906 2969 
L 2906 4863 
L 3481 4863 
L 3481 0 
L 2906 0 
L 2906 525 
Q 2725 213 2448 61 
Q 2172 -91 1784 -91 
Q 1150 -91 751 415 
Q 353 922 353 1747 
Q 353 2572 751 3078 
Q 1150 3584 1784 3584 
Q 2172 3584 2448 3432 
Q 2725 3281 2906 2969 
z
M 947 1747 
Q 947 1113 1208 752 
Q 1469 391 1925 391 
Q 2381 391 2643 752 
Q 2906 1113 2906 1747 
Q 2906 2381 2643 2742 
Q 2381 3103 1925 3103 
Q 1469 3103 1208 2742 
Q 947 2381 947 1747 
z
" transform="scale(0.015625)"/>
       <path id="DejaVuSans-72" d="M 2631 2963 
Q 2534 3019 2420 3045 
Q 2306 3072 2169 3072 
Q 1681 3072 1420 2755 
Q 1159 2438 1159 1844 
L 1159 0 
L 581 0 
L 581 3500 
L 1159 3500 
L 1159 2956 
Q 1341 3275 1631 3429 
Q 1922 3584 2338 3584 
Q 2397 3584 2469 3576 
Q 2541 3569 2628 3553 
L 2631 2963 
z
" transform="scale(0.015625)"/>
       <path id="DejaVuSans-74" d="M 1172 4494 
L 1172 3500 
L 2356 3500 
L 2356 3053 
L 1172 3053 
L 1172 1153 
Q 1172 725 1289 603 
Q 1406 481 1766 481 
L 2356 481 
L 2356 0 
L 1766 0 
Q 1100 0 847 248 
Q 594 497 594 1153 
L 594 3053 
L 172 3053 
L 172 3500 
L 594 3500 
L 594 4494 
L 1172 4494 
z
" transform="scale(0.015625)"/>
       <path id="DejaVuSans-63" d="M 3122 3366 
L 3122 2828 
Q 2878 2963 2633 3030 
Q 2388 3097 2138 3097 
Q 1578 3097 1268 2742 
Q 959 2388 959 1747 
Q 959 1106 1268 751 
Q 1578 397 2138 397 
Q 2388 397 2633 464 
Q 2878 531 3122 666 
L 3122 134 
Q 2881 22 2623 -34 
Q 2366 -91 2075 -91 
Q 1284 -91 818 406 
Q 353 903 353 1747 
Q 353 2603 823 3093 
Q 1294 3584 2113 3584 
Q 2378 3584 2631 3529 
Q 2884 3475 3122 3366 
z
" transform="scale(0.015625)"/>
       <path id="DejaVuSans-20" transform="scale(0.015625)"/>
       <path id="DejaVuSans-43" d="M 4122 4306 
L 4122 3641 
Q 3803 3938 3442 4084 
Q 3081 4231 2675 4231 
Q 1875 4231 1450 3742 
Q 1025 3253 1025 2328 
Q 1025 1406 1450 917 
Q 1875 428 2675 428 
Q 3081 428 3442 575 
Q 3803 722 4122 1019 
L 4122 359 
Q 3791 134 3420 21 
Q 3050 -91 2638 -91 
Q 1578 -91 968 557 
Q 359 1206 359 2328 
Q 359 3453 968 4101 
Q 1578 4750 2638 4750 
Q 3056 4750 3426 4639 
Q 3797 4528 4122 4306 
z
" transform="scale(0.015625)"/>
       <path id="DejaVuSans-6f" d="M 1959 3097 
Q 1497 3097 1228 2736 
Q 959 2375 959 1747 
Q 959 1119 1226 758 
Q 1494 397 1959 397 
Q 2419 397 2687 759 
Q 2956 1122 2956 1747 
Q 2956 2369 2687 2733 
Q 2419 3097 1959 3097 
z
M 1959 3584 
Q 2709 3584 3137 3096 
Q 3566 2609 3566 1747 
Q 3566 888 3137 398 
Q 2709 -91 1959 -91 
Q 1206 -91 779 398 
Q 353 888 353 1747 
Q 353 2609 779 3096 
Q 1206 3584 1959 3584 
z
" transform="scale(0.015625)"/>
       <path id="DejaVuSans-76" d="M 191 3500 
L 800 3500 
L 1894 563 
L 2988 3500 
L 3597 3500 
L 2284 0 
L 1503 0 
L 191 3500 
z
" transform="scale(0.015625)"/>
       <path id="DejaVuSans-6e" d="M 3513 2113 
L 3513 0 
L 2938 0 
L 2938 2094 
Q 2938 2591 2744 2837 
Q 2550 3084 2163 3084 
Q 1697 3084 1428 2787 
Q 1159 2491 1159 1978 
L 1159 0 
L 581 0 
L 581 3500 
L 1159 3500 
L 1159 2956 
Q 1366 3272 1645 3428 
Q 1925 3584 2291 3584 
Q 2894 3584 3203 3211 
Q 3513 2838 3513 2113 
z
" transform="scale(0.015625)"/>
      </defs>
      <use xlink:href="#DejaVuSans-51"/>
      <use xlink:href="#DejaVuSans-75" x="78.710938"/>
      <use xlink:href="#DejaVuSans-61" x="142.089844"/>
      <use xlink:href="#DejaVuSans-64" x="203.369141"/>
      <use xlink:href="#DejaVuSans-72" x="266.845703"/>
      <use xlink:href="#DejaVuSans-61" x="307.958984"/>
      <use xlink:href="#DejaVuSans-74" x="369.238281"/>
      <use xlink:href="#DejaVuSans-69" x="408.447266"/>
      <use xlink:href="#DejaVuSans-63" x="436.230469"/>
      <use xlink:href="#DejaVuSans-20" x="491.210938"/>
      <use xlink:href="#DejaVuSans-43" x="522.998047"/>
      <use xlink:href="#DejaVuSans-6f" x="592.822266"/>
      <use xlink:href="#DejaVuSans-76" x="654.003906"/>
      <use xlink:href="#DejaVuSans-61" x="713.183594"/>
      <use xlink:href="#DejaVuSans-72" x="774.462891"/>
      <use xlink:href="#DejaVuSans-69" x="815.576172"/>
      <use xlink:href="#DejaVuSans-61" x="843.359375"/>
      <use xlink:href="#DejaVuSans-74" x="904.638672"/>
      <use xlink:href="#DejaVuSans-69" x="943.847656"/>
      <use xlink:href="#DejaVuSans-6f" x="971.630859"/>
      <use xlink:href="#DejaVuSans-6e" x="1032.8125"/>
     </g>
    </g>
   </g>
   <g id="line2d_14">
    <path d="M 161.509091 265.939082 
L 162.929455 263.444784 
L 163.639636 260.396697 
L 164.349818 255.754665 
L 165.06 252.137701 
L 165.770182 257.090439 
L 166.480364 253.534538 
L 167.190545 251.316903 
L 167.900727 255.527531 
L 168.610909 254.650033 
L 169.321091 256.444962 
L 170.031273 259.017815 
L 170.741455 262.955718 
L 171.451636 263.771062 
L 172.161818 266.444942 
L 172.872 262.304534 
L 173.582182 263.806554 
L 174.292364 268.034298 
L 175.002545 267.9737 
L 175.712727 267.672847 
L 176.422909 262.553669 
L 177.133091 259.247953 
L 177.843273 263.562845 
L 178.553455 263.688974 
L 179.263636 270.381048 
L 179.973818 271.272944 
L 180.684 270.309393 
L 181.394182 266.888194 
L 182.104364 265.356064 
L 182.814545 257.719727 
L 183.524727 261.868203 
L 184.234909 263.862365 
L 184.945091 266.668357 
L 185.655273 273.920203 
L 186.365455 268.134513 
L 187.075636 274.521657 
L 187.785818 273.947786 
L 188.496 276.715068 
L 189.206182 278.173204 
L 189.916364 282.947916 
L 190.626545 286.857501 
L 191.336727 287.073272 
L 192.046909 283.998268 
L 192.757091 282.189377 
L 193.467273 284.193836 
L 194.177455 282.870724 
L 194.887636 284.149715 
L 195.597818 281.793975 
L 196.308 281.330563 
L 197.018182 281.688015 
L 197.728364 283.208185 
L 198.438545 283.077676 
L 199.858909 283.296344 
L 200.569091 280.672927 
L 201.279273 278.999673 
L 201.989455 277.784795 
L 202.699636 278.536084 
L 203.409818 287.872678 
L 204.12 287.669993 
L 205.540364 281.131724 
L 206.250545 282.296706 
L 206.960727 276.999833 
L 208.381091 280.050988 
L 209.091273 273.587298 
L 209.801455 275.417386 
L 210.511636 270.40362 
L 211.932 276.306667 
L 213.352364 274.884922 
L 214.062545 278.292798 
L 214.772727 274.590048 
L 215.482909 275.156145 
L 216.193091 271.714063 
L 216.903273 277.225797 
L 217.613455 271.988525 
L 218.323636 270.453602 
L 219.033818 266.648078 
L 219.744 269.543061 
L 220.454182 268.372394 
L 221.164364 264.699338 
L 221.874545 265.764621 
L 222.584727 263.182164 
L 223.294909 266.449852 
L 224.005091 262.780329 
L 224.715273 267.746336 
L 225.425455 271.520515 
L 226.135636 274.488922 
L 226.845818 267.162859 
L 227.556 267.2643 
L 228.266182 270.574772 
L 228.976364 260.833988 
L 229.686545 261.390305 
L 230.396727 256.296291 
L 231.106909 257.660384 
L 231.817091 255.797215 
L 232.527273 252.60454 
L 233.237455 253.471639 
L 233.947636 259.465061 
L 234.657818 261.005433 
L 235.368 263.935456 
L 236.078182 260.076758 
L 237.498545 264.956589 
L 238.208727 263.855958 
L 238.918909 260.614296 
L 239.629091 252.930566 
L 240.339273 257.613752 
L 241.049455 253.274292 
L 241.759636 244.749855 
L 242.469818 240.200888 
L 243.890182 245.160214 
L 244.600364 244.978903 
L 246.020727 241.712414 
L 246.730909 242.042935 
L 247.441091 236.733791 
L 248.151273 233.695538 
L 248.861455 234.312783 
L 249.571636 241.166029 
L 250.281818 236.24878 
L 250.992 240.224085 
L 251.702182 246.485395 
L 252.412364 250.231402 
L 253.122545 250.883414 
L 253.832727 254.691139 
L 254.542909 255.049722 
L 255.253091 254.161994 
L 256.673455 239.851223 
L 257.383636 239.078976 
L 258.093818 237.111695 
L 258.804 232.694937 
L 259.514182 235.504383 
L 260.224364 237.77161 
L 260.934545 244.571508 
L 261.644727 238.857366 
L 262.354909 246.115944 
L 263.065091 246.713675 
L 263.775273 241.998105 
L 264.485455 243.398052 
L 265.195636 243.669402 
L 266.616 245.304881 
L 267.326182 246.921718 
L 268.036364 243.957682 
L 268.746545 241.494875 
L 269.456727 240.953918 
L 270.166909 245.839863 
L 270.877091 253.926766 
L 271.587273 253.13954 
L 272.297455 251.355429 
L 273.717818 265.743471 
L 274.428 265.765305 
L 275.138182 260.92989 
L 275.848364 261.351215 
L 276.558545 263.236432 
L 277.268727 260.860932 
L 277.978909 264.40507 
L 278.689091 262.653982 
L 279.399273 263.627255 
L 280.109455 265.635136 
L 280.819636 258.585573 
L 281.529818 253.773185 
L 282.24 254.07876 
L 282.950182 255.140023 
L 283.660364 258.029017 
L 284.370545 247.307916 
L 285.080727 245.547654 
L 285.790909 245.398946 
L 286.501091 244.378659 
L 287.211273 242.308445 
L 287.921455 239.690831 
L 289.341818 238.336819 
L 290.762182 234.999441 
L 291.472364 239.532441 
L 292.182545 239.022236 
L 292.892727 235.474531 
L 293.602909 237.926198 
L 294.313091 235.462973 
L 295.023273 236.694123 
L 295.733455 239.960946 
L 296.443636 244.560052 
L 297.153818 242.091344 
L 297.864 240.602823 
L 298.574182 242.016134 
L 299.284364 238.558289 
L 300.704727 234.434719 
L 301.414909 233.61243 
L 302.125091 231.484011 
L 302.835273 233.646036 
L 303.545455 233.191874 
L 304.255636 233.051237 
L 304.965818 230.678164 
L 305.676 231.276153 
L 306.386182 233.914482 
L 307.096364 232.574342 
L 307.806545 230.796964 
L 309.226909 243.166181 
L 309.937091 245.875985 
L 310.647273 246.45308 
L 311.357455 237.972206 
L 312.067636 241.018085 
L 312.777818 239.481247 
L 313.488 242.841284 
L 314.198182 240.282653 
L 314.908364 233.287911 
L 315.618545 232.534003 
L 316.328727 233.142926 
L 317.038909 236.281477 
L 317.749091 229.047271 
L 318.459273 228.411691 
L 319.169455 229.317108 
L 319.879636 232.684213 
L 320.589818 233.138486 
L 321.3 236.63316 
L 322.010182 236.814608 
L 322.720364 234.974331 
L 323.430545 232.148617 
L 324.140727 230.952586 
L 324.850909 226.52785 
L 325.561091 223.004773 
L 326.271273 225.685634 
L 326.981455 223.039667 
L 327.691636 229.449166 
L 328.401818 226.560096 
L 329.112 225.726437 
L 329.822182 223.42684 
L 330.532364 215.890666 
L 331.242545 214.152303 
L 331.952727 213.309131 
L 332.662909 208.048584 
L 333.373091 208.51044 
L 334.083273 214.389248 
L 334.793455 209.705491 
L 335.503636 209.51511 
L 336.213818 211.006601 
L 336.924 214.656232 
L 337.634182 215.933106 
L 338.344364 220.698756 
L 339.764727 213.517481 
L 340.474909 216.326363 
L 341.185091 221.709006 
L 341.895273 217.344627 
L 342.605455 218.394971 
L 343.315636 209.058969 
L 344.025818 208.0896 
L 344.736 205.675247 
L 345.446182 199.080098 
L 346.156364 194.172711 
L 347.576727 198.824795 
L 348.286909 196.094805 
L 348.997091 199.242852 
L 349.707273 200.429268 
L 350.417455 195.188318 
L 351.127636 197.488765 
L 351.837818 197.684388 
L 352.548 202.749245 
L 353.258182 201.596862 
L 353.968364 200.747367 
L 354.678545 203.158711 
L 355.388727 202.89794 
L 356.098909 196.384166 
L 356.809091 195.552502 
L 358.229455 192.962145 
L 358.939636 195.329108 
L 359.649818 196.364578 
L 360.36 195.464587 
L 361.070182 197.927073 
L 361.780364 204.813728 
L 362.490545 203.374722 
L 363.200727 206.869556 
L 364.621091 207.752562 
L 365.331273 208.015963 
L 366.041455 211.03253 
L 366.751636 208.897797 
L 367.461818 205.149461 
L 368.172 202.779319 
L 368.882182 205.21759 
L 369.592364 203.042372 
L 370.302545 202.698925 
L 371.012727 202.069067 
L 371.722909 202.561938 
L 372.433091 202.122616 
L 373.143273 199.088888 
L 373.853455 201.647896 
L 374.563636 207.381835 
L 375.273818 204.394527 
L 375.984 202.354202 
L 376.694182 205.253042 
L 377.404364 207.063172 
L 378.114545 203.464026 
L 378.824727 203.419152 
L 379.534909 208.139119 
L 380.245091 202.941908 
L 380.955273 203.289956 
L 381.665455 205.961127 
L 382.375636 206.702041 
L 383.085818 204.595311 
L 383.796 204.706355 
L 384.506182 205.767928 
L 385.216364 202.854392 
L 385.926545 208.600999 
L 386.636727 211.870474 
L 387.346909 210.931194 
L 388.057091 214.683772 
L 388.767273 209.622141 
L 389.477455 208.772605 
L 390.187636 214.094971 
L 391.608 228.805481 
L 392.318182 223.35646 
L 393.028364 219.751541 
L 393.738545 218.725761 
L 394.448727 220.149541 
L 395.158909 219.315749 
L 395.869091 217.742274 
L 396.579273 220.521778 
L 397.289455 219.500812 
L 397.999636 221.534148 
L 398.709818 222.447709 
L 400.130182 212.566925 
L 400.840364 210.008219 
L 401.550545 213.23652 
L 402.260727 215.853811 
L 402.970909 221.318535 
L 403.681091 221.362696 
L 404.391273 221.236714 
L 405.101455 223.502009 
L 405.811636 216.156091 
L 406.521818 210.360157 
L 407.232 210.814885 
L 407.942182 211.535374 
L 408.652364 206.349415 
L 409.362545 208.168789 
L 410.072727 210.480617 
L 410.782909 215.065525 
L 411.493091 215.484772 
L 412.203273 214.382804 
L 412.913455 215.889979 
L 413.623636 212.52965 
L 414.333818 215.075351 
L 415.044 218.888608 
L 415.754182 213.056889 
L 416.464364 216.187928 
L 417.174545 212.352559 
L 417.884727 209.37567 
L 418.594909 211.20604 
L 419.305091 210.262362 
L 420.725455 215.534905 
L 421.435636 213.28612 
L 422.145818 217.157557 
L 422.856 216.778897 
L 423.566182 214.912261 
L 424.276364 212.021111 
L 424.986545 213.726928 
L 425.696727 210.558877 
L 426.406909 206.338699 
L 427.117091 207.961295 
L 427.827273 202.484667 
L 428.537455 205.034628 
L 429.247636 206.047931 
L 429.957818 196.887582 
L 430.668 189.52988 
L 431.378182 191.558818 
L 432.088364 192.412817 
L 432.798545 195.365135 
L 433.508727 195.519605 
L 434.218909 198.624328 
L 434.929091 193.784589 
L 435.639273 194.81662 
L 436.349455 194.794404 
L 437.769818 199.966188 
L 439.190182 203.169264 
L 439.900364 203.875756 
L 440.610545 197.12256 
L 441.320727 200.025788 
L 442.030909 197.986337 
L 442.741091 194.367667 
L 443.451273 186.289505 
L 444.161455 187.567245 
L 444.871636 192.870158 
L 446.292 194.869262 
L 447.002182 196.466864 
L 447.712364 197.12541 
L 448.422545 201.736865 
L 449.132727 203.217604 
L 449.842909 209.447048 
L 450.553091 205.390399 
L 451.263273 197.94865 
L 451.973455 196.223763 
L 452.683636 196.796877 
L 453.393818 203.387171 
L 454.104 202.944287 
L 454.814182 207.551833 
L 455.524364 204.153663 
L 456.234545 212.049976 
L 456.944727 208.209379 
L 457.654909 197.099641 
L 458.365091 197.137011 
L 459.075273 199.334604 
L 459.785455 198.801604 
L 461.205818 206.397913 
L 461.916 204.243062 
L 462.626182 206.953006 
L 463.336364 204.018871 
L 464.046545 204.060664 
L 464.756727 206.933352 
L 466.177091 198.134025 
L 466.887273 198.560768 
L 467.597455 196.866289 
L 468.307636 197.74646 
L 469.017818 203.338923 
L 469.728 207.425209 
L 470.438182 204.046649 
L 471.148364 209.46164 
L 471.858545 212.592263 
L 472.568727 212.343454 
L 473.278909 207.777209 
L 473.989091 214.031764 
L 474.699273 210.774581 
L 475.409455 212.979894 
L 476.119636 206.640108 
L 476.829818 211.17097 
L 477.54 206.752297 
L 478.250182 212.65791 
L 478.960364 215.896168 
L 479.670545 218.614664 
L 480.380727 219.459927 
L 481.090909 222.411746 
L 481.801091 221.977523 
L 482.511273 222.936393 
L 483.221455 226.495958 
L 486.062182 234.072745 
L 486.772364 233.339188 
L 487.482545 233.510272 
L 488.192727 241.41746 
L 488.902909 238.151378 
L 489.613091 236.528 
L 490.323273 238.224818 
L 491.033455 237.735793 
L 491.743636 236.214443 
L 492.453818 234.357133 
L 493.164 233.008079 
L 493.874182 234.123706 
L 494.584364 230.561091 
L 495.294545 229.258739 
L 496.004727 228.479027 
L 496.714909 226.76264 
L 497.425091 223.986377 
L 498.135273 227.012392 
L 498.845455 223.58509 
L 499.555636 229.402866 
L 500.265818 228.337705 
L 500.976 228.308162 
L 501.686182 238.352347 
L 503.816727 244.382913 
L 504.526909 237.967614 
L 505.237091 239.058778 
L 505.947273 243.268076 
L 506.657455 246.14393 
L 507.367636 246.230264 
L 508.077818 247.678695 
L 508.788 250.232928 
L 509.498182 249.134056 
L 510.208364 246.215451 
L 510.918545 250.878811 
L 511.628727 250.518297 
L 512.338909 244.222382 
L 513.049091 242.77696 
L 513.759273 237.925794 
L 514.469455 238.284763 
L 515.179636 238.388446 
L 515.889818 237.055963 
L 516.6 236.425883 
L 517.310182 236.691251 
L 518.020364 234.179342 
L 519.440727 246.469823 
L 520.150909 245.719779 
L 520.861091 239.949031 
L 521.571273 237.007843 
L 522.281455 237.843017 
L 522.991636 235.314676 
L 523.701818 233.648352 
L 524.412 228.662761 
L 525.122182 220.545019 
L 525.832364 218.539555 
L 526.542545 215.47285 
L 527.252727 213.329788 
L 527.962909 213.480865 
L 528.673091 208.888244 
L 529.383273 207.370428 
L 530.093455 214.341263 
L 530.803636 219.285455 
L 531.513818 218.86107 
L 532.224 217.60696 
L 532.934182 223.743589 
L 533.644364 223.340554 
L 534.354545 231.115897 
L 535.064727 225.780364 
L 535.774909 224.591772 
L 536.485091 230.40436 
L 537.195273 230.452723 
L 537.905455 227.801679 
L 538.615636 229.322874 
L 539.325818 228.170589 
L 540.746182 218.703561 
L 541.456364 220.020981 
L 542.166545 220.815449 
L 542.876727 219.836807 
L 543.586909 213.314838 
L 544.297091 212.620912 
L 545.007273 215.658751 
L 545.717455 217.679605 
L 547.137818 207.158153 
L 547.848 215.741946 
L 548.558182 205.130033 
L 549.268364 208.243322 
L 551.398909 200.765285 
L 552.109091 194.236201 
L 552.819273 196.565155 
L 553.529455 194.627594 
L 554.239636 196.000944 
L 554.949818 200.010506 
L 555.66 198.345727 
L 556.370182 192.854549 
L 557.080364 193.818701 
L 557.790545 195.248379 
L 558.500727 198.68094 
L 559.210909 199.520658 
L 559.921091 204.735932 
L 560.631273 205.453781 
L 561.341455 204.608743 
L 562.051636 192.244457 
L 562.761818 198.474891 
L 563.472 200.628325 
L 564.182182 203.298836 
L 564.892364 204.126192 
L 565.602545 201.33189 
L 566.312727 199.309788 
L 567.022909 204.349742 
L 567.733091 206.085831 
L 568.443273 205.296896 
L 569.153455 205.582102 
L 569.863636 201.952999 
L 570.573818 200.617663 
L 571.284 197.997144 
L 571.994182 193.799187 
L 572.704364 188.246111 
L 573.414545 179.159918 
L 574.124727 174.376301 
L 574.834909 177.141396 
L 575.545091 180.727639 
L 576.255273 179.481433 
L 576.965455 183.678115 
L 577.675636 182.113208 
L 578.385818 173.332497 
L 579.096 171.59069 
L 579.806182 168.280763 
L 580.516364 166.482854 
L 581.226545 158.85882 
L 581.936727 162.101028 
L 582.646909 162.53337 
L 584.067273 168.073323 
L 584.777455 168.810494 
L 585.487636 172.112625 
L 586.197818 167.023947 
L 586.908 167.14339 
L 587.618182 162.533832 
L 588.328364 162.703441 
L 589.038545 159.883422 
L 589.748727 159.917065 
L 590.458909 158.453235 
L 591.879273 152.441934 
L 592.589455 154.203464 
L 593.299636 161.11551 
L 594.009818 159.641812 
L 594.72 160.21937 
L 595.430182 158.203382 
L 596.140364 162.694958 
L 596.850545 160.857702 
L 597.560727 160.441344 
L 599.691273 154.484879 
L 600.401455 160.050739 
L 601.111636 159.222961 
L 601.821818 156.524863 
L 602.532 158.482079 
L 603.242182 154.515229 
L 603.952364 155.918027 
L 604.662545 153.451762 
L 605.372727 151.510991 
L 606.082909 158.087283 
L 606.793091 162.564345 
L 607.503273 159.415488 
L 608.213455 157.375478 
L 608.923636 165.174962 
L 609.633818 165.981657 
L 610.344 159.718316 
L 611.054182 159.007196 
L 611.764364 162.971543 
L 612.474545 161.135132 
L 613.184727 160.80102 
L 613.894909 155.234932 
L 614.605091 155.766716 
L 615.315273 152.946721 
L 616.025455 151.135613 
L 616.735636 147.148518 
L 617.445818 144.413275 
L 618.156 148.728441 
L 618.866182 150.013289 
L 619.576364 146.050367 
L 620.286545 148.561349 
L 620.996727 144.240054 
L 621.706909 143.53037 
L 622.417091 141.460228 
L 623.127273 134.759452 
L 623.837455 136.891976 
L 624.547636 143.156767 
L 625.257818 140.508664 
L 625.968 141.186305 
L 626.678182 141.605935 
L 627.388364 139.112305 
L 628.098545 140.584918 
L 628.808727 133.424689 
L 629.518909 133.239894 
L 630.229091 127.396186 
L 630.939273 127.597159 
L 631.649455 130.681665 
L 632.359636 130.269509 
L 633.069818 132.422363 
L 633.78 136.758911 
L 634.490182 139.119376 
L 635.200364 137.103364 
L 635.910545 133.806624 
L 636.620727 129.791788 
L 637.330909 127.192224 
L 638.041091 126.149878 
L 638.751273 128.997297 
L 639.461455 120.981423 
L 640.171636 124.036432 
L 640.881818 122.797276 
L 641.592 123.070248 
L 642.302182 129.227717 
L 643.012364 128.080841 
L 643.722545 128.21584 
L 644.432727 126.951412 
L 645.142909 130.890191 
L 645.853091 138.895155 
L 647.273455 143.651724 
L 647.983636 146.603889 
L 648.693818 148.950856 
L 649.404 159.551135 
L 650.114182 159.554867 
L 650.824364 157.661763 
L 652.244727 159.057251 
L 652.954909 155.954458 
L 653.665091 158.885848 
L 654.375273 157.007556 
L 655.085455 152.565694 
L 655.795636 154.885821 
L 656.505818 152.852256 
L 657.216 151.607012 
L 657.926182 151.603809 
L 658.636364 146.662589 
L 659.346545 152.323267 
L 660.056727 154.125359 
L 660.766909 152.435705 
L 661.477091 152.258962 
L 662.187273 152.299692 
L 662.897455 154.025079 
L 664.317818 145.34353 
L 665.028 145.236968 
L 665.738182 150.492524 
L 667.158545 155.686394 
L 667.868727 152.285194 
L 668.578909 146.667525 
L 669.289091 148.09005 
L 669.999273 149.946118 
L 670.709455 147.278307 
L 671.419636 146.369906 
L 672.84 141.413863 
L 674.260364 147.837471 
L 674.970545 147.434743 
L 675.680727 149.449877 
L 676.390909 146.867327 
L 677.101091 151.015805 
L 677.811273 158.197613 
L 678.521455 153.657533 
L 679.231636 154.926755 
L 679.941818 154.851323 
L 680.652 162.310857 
L 681.362182 162.516351 
L 682.072364 164.093046 
L 682.782545 166.515346 
L 683.492727 167.479147 
L 684.202909 165.089542 
L 685.623273 172.941801 
L 686.333455 171.180812 
L 687.043636 169.003204 
L 687.753818 166.060175 
L 688.464 171.933164 
L 689.174182 174.142425 
L 689.884364 173.162788 
L 690.594545 172.972089 
L 691.304727 177.150901 
L 692.014909 182.311764 
L 692.725091 181.214215 
L 693.435273 185.642057 
L 694.145455 182.259028 
L 694.855636 178.307451 
L 695.565818 185.595722 
L 696.986182 181.544944 
L 697.696364 177.340233 
L 699.826909 171.579428 
L 700.537091 168.528697 
L 701.247273 168.834508 
L 701.957455 165.167779 
L 702.667636 168.044381 
L 703.377818 168.316869 
L 704.088 165.556972 
L 704.798182 166.907372 
L 705.508364 166.377474 
L 706.218545 167.402251 
L 706.928727 163.95632 
L 707.638909 165.016755 
L 708.349091 163.846181 
L 709.059273 162.982763 
L 709.769455 166.315644 
L 710.479636 170.891906 
L 711.189818 168.854151 
L 711.9 172.550037 
L 712.610182 173.460035 
L 713.320364 170.477649 
L 714.030545 166.463071 
L 714.740727 167.144251 
L 715.450909 168.847068 
L 716.161091 168.714561 
L 717.581455 172.885938 
L 718.291636 175.947893 
L 719.001818 176.319708 
L 719.712 177.887199 
L 720.422182 177.068054 
L 721.132364 175.500544 
L 721.842545 172.842526 
L 722.552727 174.729931 
L 723.262909 174.34605 
L 723.973091 172.942203 
L 724.683273 172.957069 
L 725.393455 174.247431 
L 726.103636 175.275552 
L 726.813818 178.6106 
L 727.524 176.618073 
L 728.234182 183.132617 
L 728.944364 185.485475 
L 729.654545 191.211254 
L 730.364727 194.356967 
L 731.074909 196.528856 
L 731.785091 199.903692 
L 732.495273 196.897709 
L 733.205455 197.264718 
L 733.915636 192.539088 
L 734.625818 195.126048 
L 735.336 191.401274 
L 736.046182 189.252205 
L 736.756364 185.226935 
L 737.466545 185.643702 
L 738.176727 187.531382 
L 738.886909 190.322215 
L 739.597091 187.591324 
L 740.307273 194.733669 
L 741.727636 190.409815 
L 742.437818 190.37072 
L 743.148 188.973831 
L 744.568364 182.764051 
L 745.278545 186.306737 
L 745.988727 186.645038 
L 746.698909 185.51131 
L 747.409091 183.038089 
L 748.119273 188.143674 
L 748.829455 189.233743 
L 749.539636 189.790401 
L 750.249818 191.067643 
L 750.96 184.630791 
L 751.670182 185.335897 
L 753.090545 182.950243 
L 753.800727 182.624251 
L 754.510909 187.177016 
L 755.221091 187.754755 
L 755.931273 193.540106 
L 756.641455 191.740916 
L 757.351636 183.279667 
L 758.061818 182.73486 
L 758.772 185.664738 
L 759.482182 182.163711 
L 760.192364 185.638438 
L 760.902545 191.473544 
L 761.612727 196.251473 
L 762.322909 202.265251 
L 763.033091 204.660796 
L 763.743273 201.321441 
L 764.453455 205.462016 
L 765.163636 205.705582 
L 765.873818 209.914314 
L 767.294182 215.781634 
L 768.004364 216.36974 
L 768.714545 220.237638 
L 769.424727 217.312961 
L 770.134909 217.052407 
L 770.845091 219.121655 
L 771.555273 219.743699 
L 772.265455 223.303148 
L 772.975636 228.381858 
L 773.685818 227.713102 
L 774.396 227.677579 
L 775.106182 227.962546 
L 775.816364 225.643514 
L 776.526545 221.376477 
L 777.236727 228.898725 
L 777.946909 229.173941 
L 778.657091 231.778317 
L 779.367273 236.661221 
L 780.077455 233.831018 
L 780.787636 233.041307 
L 781.497818 239.803459 
L 782.208 235.854797 
L 783.628364 241.098121 
L 784.338545 240.665179 
L 785.048727 241.02784 
L 785.758909 239.64703 
L 786.469091 232.742483 
L 787.179273 233.396508 
L 787.889455 237.018283 
L 788.599636 237.90324 
L 789.309818 243.448646 
L 790.02 239.936983 
L 791.440364 228.704095 
L 792.150545 230.781462 
L 792.860727 234.755258 
L 793.570909 237.043914 
L 794.281091 234.182619 
L 794.991273 245.283293 
L 795.701455 242.685888 
L 796.411636 235.298856 
L 797.832 228.350207 
L 798.542182 229.183946 
L 799.252364 233.593364 
L 799.962545 234.242669 
L 800.672727 235.514056 
L 801.382909 235.072479 
L 802.093091 231.995439 
L 802.803273 231.829071 
L 803.513455 229.527635 
L 804.223636 233.050866 
L 804.933818 229.938711 
L 805.644 231.295753 
L 806.354182 233.014303 
L 807.064364 229.423487 
L 807.774545 230.853053 
L 808.484727 237.45652 
L 809.194909 234.668046 
L 810.615273 226.655549 
L 811.325455 223.844419 
L 812.035636 218.542803 
L 812.745818 220.805313 
L 813.456 219.86514 
L 814.166182 221.051342 
L 814.876364 220.083032 
L 817.006909 228.088786 
L 817.717091 228.736555 
L 818.427273 232.784655 
L 819.137455 231.530434 
L 819.847636 228.334681 
L 820.557818 229.171077 
L 821.268 232.100659 
L 821.978182 229.522866 
L 822.688364 228.450565 
L 823.398545 223.173902 
L 824.108727 221.725981 
L 824.818909 220.886877 
L 825.529091 221.444188 
L 826.239273 222.959623 
L 826.949455 225.039411 
L 827.659636 219.944518 
L 828.369818 218.07944 
L 829.08 221.220247 
L 829.790182 225.688015 
L 830.500364 223.908244 
L 831.210545 228.71476 
L 831.920727 229.146425 
L 832.630909 227.68006 
L 833.341091 228.555041 
L 834.051273 227.569637 
L 834.761455 232.308578 
L 835.471636 233.34574 
L 836.181818 231.426117 
L 836.892 230.722256 
L 837.602182 230.457368 
L 838.312364 229.17296 
L 839.022545 230.999154 
L 839.732727 235.26922 
L 840.442909 237.2345 
L 841.153091 235.37434 
L 841.863273 238.263629 
L 842.573455 239.229682 
L 843.993818 235.037527 
L 845.414182 238.303069 
L 846.124364 238.744938 
L 846.834545 240.813931 
L 847.544727 238.710989 
L 848.254909 234.870369 
L 848.965091 233.511348 
L 849.675273 236.549667 
L 850.385455 234.465155 
L 851.095636 235.092455 
L 851.805818 234.860915 
L 852.516 240.181795 
L 853.226182 241.755977 
L 854.646545 232.313744 
L 855.356727 230.324221 
L 856.066909 231.1249 
L 856.777091 232.439244 
L 857.487273 231.257171 
L 858.197455 228.105353 
L 858.907636 222.807491 
L 859.617818 219.442342 
L 860.328 224.184383 
L 861.038182 226.994179 
L 861.748364 228.434718 
L 862.458545 225.345133 
L 863.168727 224.735831 
L 863.878909 222.824592 
L 865.299273 223.719114 
L 866.009455 227.797927 
L 866.719636 224.64355 
L 867.429818 223.326194 
L 868.850182 225.817628 
L 869.560364 225.06893 
L 870.270545 224.032694 
L 870.980727 226.496667 
L 871.690909 223.770158 
L 871.690909 223.770158 
" clip-path="url(#p71d1dbca2d)" style="fill: none; stroke: #1f77b4; stroke-width: 1.5; stroke-linecap: square"/>
   </g>
   <g id="line2d_15">
    <path d="M 161.509091 265.939082 
L 162.219273 262.390195 
L 162.929455 261.260214 
L 163.639636 262.316736 
L 165.06 253.481385 
L 165.770182 261.716026 
L 166.480364 259.553302 
L 167.190545 253.908575 
L 167.900727 257.378058 
L 168.610909 251.981051 
L 169.321091 253.44709 
L 170.741455 266.267531 
L 171.451636 268.319763 
L 172.161818 269.356936 
L 172.872 263.716338 
L 173.582182 264.645269 
L 174.292364 270.2353 
L 175.002545 274.256293 
L 175.712727 271.432119 
L 176.422909 267.399492 
L 177.133091 269.592602 
L 177.843273 276.638306 
L 178.553455 279.336528 
L 179.263636 283.808983 
L 179.973818 280.41303 
L 180.684 282.559746 
L 181.394182 282.226757 
L 182.104364 277.242729 
L 182.814545 275.132446 
L 183.524727 286.264324 
L 184.234909 288.942852 
L 184.945091 290.022185 
L 185.655273 301.985919 
L 186.365455 295.809991 
L 187.075636 303.408683 
L 187.785818 305.516239 
L 188.496 306.788679 
L 189.206182 303.535315 
L 190.626545 312.842319 
L 191.336727 315.600478 
L 192.046909 310.860925 
L 192.757091 313.866518 
L 193.467273 319.809949 
L 194.177455 316.965454 
L 194.887636 313.263067 
L 195.597818 314.253577 
L 196.308 314.177604 
L 197.018182 318.303156 
L 197.728364 320.907193 
L 198.438545 321.401159 
L 199.148727 321.086169 
L 199.858909 322.871678 
L 200.569091 317.705417 
L 201.279273 311.615946 
L 201.989455 313.678501 
L 202.699636 312.37263 
L 203.409818 319.712706 
L 204.12 319.502538 
L 205.540364 317.071404 
L 206.250545 316.183816 
L 206.960727 310.668928 
L 208.381091 316.769309 
L 209.091273 313.540883 
L 209.801455 319.794209 
L 210.511636 314.138245 
L 211.221818 319.173036 
L 211.932 321.47952 
L 212.642182 324.769279 
L 213.352364 324.427033 
L 214.062545 321.764771 
L 214.772727 317.763789 
L 215.482909 320.484976 
L 216.193091 317.866031 
L 216.903273 320.640273 
L 217.613455 320.621663 
L 218.323636 315.872394 
L 219.033818 312.924011 
L 219.744 319.507782 
L 220.454182 320.402094 
L 221.164364 316.758327 
L 221.874545 313.852729 
L 222.584727 312.185443 
L 223.294909 321.261331 
L 224.005091 318.475133 
L 224.715273 325.672295 
L 225.425455 324.768384 
L 226.135636 328.28021 
L 226.845818 317.85543 
L 227.556 320.570682 
L 228.266182 324.836076 
L 228.976364 312.648094 
L 229.686545 312.991342 
L 230.396727 308.230548 
L 231.106909 311.783673 
L 231.817091 314.239137 
L 232.527273 306.949443 
L 233.237455 303.895103 
L 233.947636 312.073798 
L 234.657818 311.678271 
L 235.368 314.642954 
L 236.078182 313.460738 
L 236.788364 319.535413 
L 237.498545 321.494743 
L 238.208727 317.286928 
L 239.629091 304.621203 
L 240.339273 311.948795 
L 241.049455 306.207851 
L 241.759636 296.791247 
L 242.469818 292.486337 
L 243.18 294.57838 
L 243.890182 298.909346 
L 244.600364 295.446507 
L 245.310545 288.334036 
L 246.020727 286.87856 
L 246.730909 287.894528 
L 247.441091 285.863282 
L 248.151273 283.024601 
L 249.571636 302.921191 
L 250.281818 295.314194 
L 250.992 294.445179 
L 251.702182 300.753155 
L 253.122545 305.585843 
L 253.832727 311.940522 
L 254.542909 312.251952 
L 255.253091 309.294398 
L 255.963273 303.116944 
L 256.673455 303.736777 
L 257.383636 301.921559 
L 258.093818 299.517066 
L 258.804 293.821547 
L 259.514182 295.721991 
L 260.224364 293.59002 
L 260.934545 295.69103 
L 261.644727 290.003444 
L 262.354909 300.631491 
L 263.065091 299.354353 
L 263.775273 294.768406 
L 264.485455 301.184329 
L 265.195636 302.470807 
L 265.905818 304.991195 
L 266.616 303.074126 
L 267.326182 298.410571 
L 268.036364 296.978122 
L 268.746545 294.007441 
L 269.456727 293.881558 
L 270.877091 313.103887 
L 271.587273 310.749897 
L 272.297455 311.936564 
L 273.007636 316.342939 
L 273.717818 326.556605 
L 274.428 333.564026 
L 275.138182 332.10964 
L 275.848364 328.610005 
L 276.558545 334.701137 
L 277.268727 333.350428 
L 277.978909 328.279744 
L 278.689091 327.858675 
L 279.399273 318.440151 
L 280.109455 323.296647 
L 280.819636 315.484676 
L 281.529818 308.929478 
L 282.24 305.666202 
L 282.950182 309.003723 
L 283.660364 310.923107 
L 284.370545 298.615058 
L 285.080727 298.077391 
L 285.790909 298.405171 
L 286.501091 292.215331 
L 287.921455 288.667372 
L 288.631636 289.814344 
L 289.341818 283.441595 
L 290.052 278.615449 
L 290.762182 276.324082 
L 291.472364 283.483858 
L 292.182545 285.480386 
L 292.892727 279.316299 
L 293.602909 277.740077 
L 294.313091 272.576345 
L 295.023273 272.088044 
L 295.733455 267.351127 
L 296.443636 269.671761 
L 297.153818 269.039061 
L 297.864 269.566527 
L 298.574182 270.611079 
L 299.994545 266.648095 
L 300.704727 267.867158 
L 301.414909 269.91361 
L 302.125091 265.46186 
L 302.835273 267.825211 
L 303.545455 268.152272 
L 304.255636 264.035376 
L 304.965818 255.716138 
L 305.676 258.592325 
L 306.386182 260.229567 
L 307.096364 259.584681 
L 307.806545 254.390998 
L 308.516727 260.340518 
L 309.226909 271.358026 
L 309.937091 274.975552 
L 310.647273 275.180822 
L 311.357455 266.467599 
L 312.067636 271.282826 
L 312.777818 264.621423 
L 313.488 267.607129 
L 314.198182 264.411473 
L 314.908364 254.050907 
L 315.618545 256.949559 
L 316.328727 260.719786 
L 317.038909 263.25229 
L 317.749091 251.959028 
L 318.459273 248.897492 
L 319.169455 250.247321 
L 319.879636 253.684316 
L 320.589818 253.238196 
L 321.3 256.916759 
L 322.010182 255.546307 
L 322.720364 249.674125 
L 323.430545 248.96804 
L 324.140727 245.95281 
L 324.850909 236.622555 
L 325.561091 231.914095 
L 326.271273 229.556272 
L 326.981455 230.638091 
L 327.691636 239.394515 
L 329.112 241.120974 
L 329.822182 239.839299 
L 330.532364 231.434767 
L 331.952727 228.66938 
L 332.662909 222.862788 
L 333.373091 225.576784 
L 334.083273 233.814352 
L 334.793455 232.156634 
L 336.213818 241.319089 
L 336.924 239.867907 
L 337.634182 248.285556 
L 338.344364 255.221855 
L 339.054545 252.116945 
L 339.764727 245.476545 
L 340.474909 251.843366 
L 341.185091 256.267653 
L 341.895273 252.976959 
L 342.605455 251.698353 
L 343.315636 240.842131 
L 344.025818 242.963508 
L 344.736 240.637474 
L 345.446182 240.879658 
L 346.156364 231.13845 
L 346.866545 232.318259 
L 347.576727 229.841976 
L 348.286909 226.639736 
L 348.997091 227.138542 
L 349.707273 223.682537 
L 350.417455 215.753351 
L 351.127636 220.077805 
L 351.837818 220.565676 
L 352.548 224.360222 
L 353.258182 221.806581 
L 353.968364 222.527969 
L 354.678545 232.073313 
L 355.388727 233.705971 
L 356.098909 221.822149 
L 356.809091 218.289291 
L 357.519273 221.80389 
L 358.229455 214.559032 
L 358.939636 217.464793 
L 359.649818 221.476262 
L 360.36 218.038175 
L 361.070182 221.502976 
L 361.780364 236.295042 
L 362.490545 230.343913 
L 363.910909 241.389454 
L 364.621091 240.653167 
L 366.041455 245.347161 
L 366.751636 243.355487 
L 367.461818 238.208913 
L 368.172 237.688985 
L 368.882182 239.918527 
L 369.592364 235.114487 
L 370.302545 233.660119 
L 371.012727 224.803716 
L 371.722909 226.556866 
L 372.433091 228.677899 
L 373.143273 223.552582 
L 373.853455 223.317092 
L 374.563636 228.424638 
L 375.273818 228.808262 
L 375.984 222.656666 
L 376.694182 226.539871 
L 377.404364 226.234981 
L 378.114545 225.311483 
L 378.824727 225.907327 
L 379.534909 231.905151 
L 380.245091 222.742947 
L 380.955273 226.926038 
L 381.665455 229.60596 
L 382.375636 235.61917 
L 383.085818 236.600131 
L 383.796 237.362874 
L 384.506182 241.150066 
L 385.216364 242.176418 
L 386.636727 252.014557 
L 387.346909 250.455512 
L 388.057091 258.908932 
L 388.767273 252.442625 
L 389.477455 250.658333 
L 390.897818 267.59378 
L 391.608 273.858252 
L 392.318182 266.289883 
L 393.028364 256.747148 
L 393.738545 254.501279 
L 394.448727 249.606394 
L 395.158909 248.611766 
L 395.869091 240.585425 
L 396.579273 237.128739 
L 397.289455 232.787488 
L 397.999636 235.227854 
L 398.709818 238.899309 
L 400.130182 222.624436 
L 400.840364 219.724565 
L 401.550545 222.027699 
L 402.260727 221.012615 
L 402.970909 225.79793 
L 403.681091 226.540862 
L 404.391273 224.802118 
L 405.101455 230.851409 
L 405.811636 222.073679 
L 406.521818 216.66243 
L 407.232 220.168751 
L 407.942182 220.932854 
L 408.652364 216.174281 
L 409.362545 216.663531 
L 410.072727 216.840748 
L 410.782909 226.425758 
L 411.493091 227.010076 
L 412.203273 225.187391 
L 412.913455 227.910831 
L 413.623636 227.259924 
L 414.333818 231.018548 
L 415.044 239.496964 
L 415.754182 233.330539 
L 416.464364 243.864796 
L 417.884727 230.93137 
L 418.594909 232.685473 
L 419.305091 231.65595 
L 420.015273 235.378933 
L 420.725455 235.736236 
L 421.435636 237.73132 
L 422.145818 242.054954 
L 422.856 240.065657 
L 423.566182 236.365695 
L 424.276364 233.904436 
L 424.986545 237.146472 
L 425.696727 232.668009 
L 426.406909 229.241525 
L 427.117091 234.436323 
L 427.827273 228.014345 
L 428.537455 234.939468 
L 429.247636 231.40012 
L 429.957818 229.637325 
L 430.668 219.423025 
L 431.378182 223.971274 
L 432.088364 223.447378 
L 432.798545 233.586959 
L 433.508727 232.85078 
L 434.218909 236.528045 
L 434.929091 233.64355 
L 435.639273 236.178747 
L 436.349455 237.954962 
L 437.059636 237.874365 
L 437.769818 238.233458 
L 438.48 242.452088 
L 439.190182 240.016965 
L 439.900364 240.932584 
L 440.610545 232.497217 
L 441.320727 233.105184 
L 442.030909 230.420204 
L 442.741091 226.05989 
L 443.451273 214.074972 
L 444.161455 215.935704 
L 444.871636 218.415941 
L 445.581818 215.712808 
L 446.292 214.737165 
L 447.002182 210.169228 
L 447.712364 213.188309 
L 448.422545 218.874529 
L 449.132727 219.828478 
L 449.842909 232.796617 
L 450.553091 229.582467 
L 451.263273 225.380208 
L 451.973455 220.015046 
L 453.393818 223.463815 
L 454.104 226.130587 
L 454.814182 234.593353 
L 455.524364 230.877063 
L 456.234545 236.692847 
L 456.944727 233.879268 
L 457.654909 225.336514 
L 458.365091 222.481499 
L 459.075273 225.970098 
L 459.785455 222.825867 
L 460.495636 221.281055 
L 461.916 228.212413 
L 462.626182 231.056155 
L 463.336364 224.688622 
L 464.046545 223.298849 
L 464.756727 225.580163 
L 465.466909 224.571343 
L 466.177091 216.764049 
L 466.887273 219.205985 
L 467.597455 217.390875 
L 468.307636 218.130803 
L 469.017818 223.18942 
L 469.728 227.274829 
L 470.438182 227.99174 
L 471.148364 232.106067 
L 471.858545 226.668678 
L 472.568727 224.72605 
L 473.278909 224.270008 
L 473.989091 230.390463 
L 474.699273 231.087619 
L 475.409455 236.042346 
L 476.119636 224.226127 
L 476.829818 224.524034 
L 477.54 213.657428 
L 478.960364 226.246538 
L 479.670545 224.302922 
L 480.380727 223.87741 
L 481.801091 234.758927 
L 482.511273 228.818323 
L 483.221455 239.588194 
L 484.641818 248.255415 
L 485.352 250.916652 
L 486.062182 255.724488 
L 486.772364 256.431835 
L 487.482545 253.168481 
L 488.192727 266.347222 
L 488.902909 264.792259 
L 489.613091 268.100697 
L 490.323273 269.71231 
L 491.033455 273.52862 
L 491.743636 270.028305 
L 492.453818 265.865724 
L 493.164 263.137118 
L 493.874182 266.037558 
L 494.584364 259.207784 
L 495.294545 257.355187 
L 496.004727 259.09467 
L 496.714909 256.060128 
L 497.425091 258.647912 
L 498.135273 263.914724 
L 498.845455 260.409913 
L 499.555636 263.12039 
L 500.265818 263.882431 
L 500.976 269.322644 
L 501.686182 277.676225 
L 502.396364 279.848063 
L 503.106545 278.289504 
L 503.816727 280.463128 
L 504.526909 268.071677 
L 505.237091 274.296247 
L 505.947273 277.324123 
L 507.367636 277.372387 
L 508.077818 274.43832 
L 508.788 277.792762 
L 509.498182 279.808553 
L 510.208364 271.402006 
L 510.918545 273.909769 
L 511.628727 270.567946 
L 513.049091 265.766729 
L 513.759273 261.051461 
L 514.469455 262.979276 
L 515.179636 262.02287 
L 515.889818 261.600957 
L 516.6 265.868076 
L 517.310182 265.099742 
L 518.020364 257.484169 
L 518.730545 263.985394 
L 519.440727 273.711266 
L 520.150909 277.006773 
L 520.861091 264.805267 
L 521.571273 257.966458 
L 522.281455 261.320901 
L 522.991636 261.297457 
L 523.701818 258.656096 
L 525.122182 238.500924 
L 526.542545 230.103939 
L 527.252727 223.38202 
L 527.962909 221.38314 
L 528.673091 211.081941 
L 529.383273 207.050151 
L 530.093455 217.800505 
L 530.803636 225.281857 
L 531.513818 221.145782 
L 532.224 219.117052 
L 532.934182 220.646208 
L 533.644364 217.005132 
L 534.354545 219.514194 
L 535.064727 213.451881 
L 535.774909 214.66293 
L 536.485091 221.36398 
L 537.195273 217.761507 
L 537.905455 215.98735 
L 538.615636 215.269211 
L 539.325818 214.291202 
L 540.036 210.51976 
L 540.746182 199.581662 
L 541.456364 205.283903 
L 542.166545 206.162986 
L 542.876727 199.140035 
L 543.586909 194.110204 
L 544.297091 194.971507 
L 545.007273 198.154003 
L 545.717455 200.063121 
L 547.137818 191.798968 
L 547.848 203.242215 
L 548.558182 183.147736 
L 549.268364 182.613827 
L 549.978545 179.027215 
L 550.688727 176.835095 
L 551.398909 171.44181 
L 552.109091 163.588789 
L 552.819273 171.176937 
L 553.529455 170.370554 
L 554.239636 168.224631 
L 554.949818 170.674669 
L 555.66 168.462966 
L 556.370182 157.290302 
L 557.080364 157.36275 
L 557.790545 157.825881 
L 558.500727 154.375346 
L 559.210909 158.896291 
L 559.921091 156.037864 
L 560.631273 152.522314 
L 561.341455 151.249182 
L 562.051636 136.240611 
L 563.472 162.400103 
L 564.182182 165.244616 
L 564.892364 165.411152 
L 565.602545 162.787233 
L 566.312727 163.83844 
L 567.022909 159.416197 
L 567.733091 159.642207 
L 569.153455 153.593415 
L 569.863636 151.570138 
L 570.573818 150.227038 
L 571.284 145.512048 
L 572.704364 128.429609 
L 573.414545 120.037975 
L 574.124727 113.414267 
L 574.834909 115.159639 
L 575.545091 120.529346 
L 576.255273 119.78588 
L 576.965455 132.232156 
L 577.675636 132.394571 
L 578.385818 127.556129 
L 579.096 128.674912 
L 579.806182 128.797341 
L 580.516364 126.317896 
L 581.226545 117.902227 
L 581.936727 121.314282 
L 582.646909 119.928448 
L 583.357091 122.260503 
L 584.777455 129.320579 
L 585.487636 133.695102 
L 586.197818 127.712713 
L 586.908 123.793688 
L 587.618182 121.566467 
L 588.328364 118.553993 
L 589.038545 117.696971 
L 589.748727 115.592209 
L 590.458909 111.218929 
L 591.169091 104.690407 
L 591.879273 107.718568 
L 592.589455 114.610963 
L 593.299636 122.978929 
L 594.009818 118.203463 
L 594.72 114.804294 
L 595.430182 112.496268 
L 596.140364 118.407438 
L 596.850545 119.611767 
L 597.560727 119.417567 
L 598.270909 122.703404 
L 598.981091 121.028704 
L 599.691273 120.403299 
L 600.401455 124.744409 
L 601.111636 121.939019 
L 601.821818 122.532278 
L 602.532 125.88819 
L 603.242182 118.600714 
L 603.952364 123.630265 
L 604.662545 120.080125 
L 605.372727 121.399907 
L 606.082909 130.023708 
L 606.793091 133.808148 
L 607.503273 135.284064 
L 608.213455 135.183009 
L 608.923636 149.956562 
L 609.633818 150.122673 
L 610.344 140.595519 
L 611.764364 147.221443 
L 612.474545 145.592746 
L 613.184727 147.978163 
L 613.894909 142.560901 
L 614.605091 134.861144 
L 615.315273 129.840502 
L 616.025455 122.684774 
L 616.735636 117.763322 
L 617.445818 118.133208 
L 618.156 123.417515 
L 618.866182 123.267453 
L 619.576364 116.65484 
L 620.286545 124.401831 
L 620.996727 124.9285 
L 621.706909 120.347823 
L 622.417091 117.263708 
L 623.127273 109.231383 
L 623.837455 108.929103 
L 624.547636 113.490491 
L 625.257818 104.789271 
L 625.968 108.055967 
L 626.678182 107.355224 
L 627.388364 107.358777 
L 628.098545 110.376734 
L 628.808727 101.610443 
L 629.518909 102.892991 
L 630.229091 96.54265 
L 630.939273 93.608344 
L 631.649455 93.035636 
L 632.359636 92.244652 
L 633.069818 95.516295 
L 633.78 100.649424 
L 634.490182 99.93254 
L 635.910545 90.633142 
L 636.620727 84.041876 
L 637.330909 85.280231 
L 638.041091 85.825386 
L 638.751273 84.721345 
L 639.461455 72.248838 
L 640.171636 76.139022 
L 640.881818 78.289721 
L 641.592 79.960761 
L 642.302182 84.977627 
L 643.012364 84.733247 
L 643.722545 84.714779 
L 644.432727 80.410238 
L 645.142909 83.599113 
L 645.853091 88.462634 
L 646.563273 87.888154 
L 647.273455 89.495558 
L 647.983636 99.393587 
L 648.693818 103.082562 
L 649.404 114.045976 
L 650.114182 110.014876 
L 650.824364 107.380623 
L 651.534545 102.19774 
L 652.244727 104.514074 
L 652.954909 96.119815 
L 653.665091 99.565366 
L 654.375273 89.014707 
L 655.085455 82.770614 
L 655.795636 86.191335 
L 656.505818 84.84035 
L 657.216 86.753501 
L 657.926182 89.45018 
L 658.636364 83.720015 
L 659.346545 90.157888 
L 660.056727 88.094222 
L 660.766909 87.990974 
L 661.477091 89.873346 
L 662.897455 97.707762 
L 663.607636 98.269864 
L 664.317818 92.303087 
L 665.028 90.673642 
L 665.738182 93.487294 
L 666.448364 88.350363 
L 667.158545 91.633243 
L 667.868727 89.159737 
L 668.578909 78.255187 
L 669.289091 79.080072 
L 669.999273 84.255624 
L 670.709455 75.61165 
L 671.419636 74.452283 
L 672.84 66.96 
L 673.550182 67.194195 
L 674.260364 76.5791 
L 674.970545 77.852099 
L 675.680727 76.279643 
L 676.390909 75.7807 
L 677.101091 82.657485 
L 677.811273 88.210359 
L 678.521455 80.621714 
L 679.231636 84.562049 
L 679.941818 85.966192 
L 680.652 93.632494 
L 681.362182 94.247744 
L 682.072364 94.311932 
L 682.782545 93.668316 
L 683.492727 94.345179 
L 684.202909 93.556732 
L 684.913091 95.791397 
L 685.623273 105.906665 
L 687.043636 95.218586 
L 687.753818 92.344442 
L 688.464 100.92446 
L 689.174182 104.402876 
L 689.884364 109.273561 
L 690.594545 111.388466 
L 691.304727 110.897702 
L 692.014909 121.723414 
L 692.725091 122.83535 
L 693.435273 124.297362 
L 694.145455 119.127389 
L 694.855636 112.590613 
L 695.565818 117.9626 
L 696.276 118.307466 
L 696.986182 116.241455 
L 697.696364 109.388678 
L 698.406545 106.805157 
L 699.116727 102.433629 
L 699.826909 96.773384 
L 701.247273 103.260965 
L 701.957455 99.722878 
L 702.667636 104.573409 
L 703.377818 103.077477 
L 704.088 102.141466 
L 704.798182 100.467687 
L 705.508364 101.761699 
L 706.218545 105.844401 
L 706.928727 107.409602 
L 707.638909 114.269731 
L 708.349091 113.247503 
L 709.059273 112.874517 
L 709.769455 110.84304 
L 710.479636 115.396741 
L 711.189818 111.283245 
L 711.9 109.714311 
L 712.610182 113.315016 
L 713.320364 109.819488 
L 714.740727 103.927999 
L 715.450909 103.442652 
L 716.161091 106.71996 
L 716.871273 112.206763 
L 719.001818 120.828418 
L 719.712 124.273724 
L 720.422182 121.906135 
L 721.842545 117.856632 
L 722.552727 118.633008 
L 723.262909 115.129101 
L 723.973091 120.47876 
L 724.683273 123.940297 
L 725.393455 129.460534 
L 726.103636 128.082512 
L 726.813818 129.599518 
L 727.524 128.176582 
L 728.234182 135.543309 
L 728.944364 136.842025 
L 731.074909 159.978209 
L 731.785091 162.21575 
L 732.495273 160.358408 
L 733.205455 166.093541 
L 733.915636 161.248346 
L 734.625818 163.728873 
L 735.336 162.60748 
L 736.046182 161.154921 
L 736.756364 157.427877 
L 737.466545 163.161495 
L 738.176727 162.315591 
L 738.886909 163.747131 
L 739.597091 155.059414 
L 740.307273 166.339928 
L 741.017455 163.990794 
L 741.727636 157.741346 
L 742.437818 154.2368 
L 743.148 149.026841 
L 743.858182 145.555487 
L 744.568364 143.619004 
L 745.278545 147.536192 
L 745.988727 144.310867 
L 746.698909 146.943768 
L 747.409091 144.949778 
L 748.119273 153.335525 
L 748.829455 150.785799 
L 749.539636 150.356604 
L 750.249818 152.820384 
L 750.96 139.846953 
L 751.670182 131.601484 
L 752.380364 128.680927 
L 753.800727 126.262301 
L 754.510909 128.583821 
L 755.221091 134.214488 
L 755.931273 142.524523 
L 756.641455 141.710373 
L 757.351636 131.402211 
L 758.772 136.234141 
L 759.482182 126.710606 
L 760.192364 131.775882 
L 761.612727 145.311727 
L 762.322909 153.309527 
L 763.033091 154.113096 
L 763.743273 153.136331 
L 765.163636 162.311624 
L 765.873818 166.043151 
L 766.584 165.004826 
L 767.294182 168.752882 
L 768.004364 170.065569 
L 768.714545 174.114463 
L 769.424727 171.767921 
L 770.134909 174.902191 
L 771.555273 183.853003 
L 772.265455 185.354392 
L 772.975636 194.665629 
L 773.685818 194.25581 
L 774.396 194.622619 
L 775.106182 196.717218 
L 775.816364 196.357741 
L 776.526545 193.012344 
L 777.236727 200.427353 
L 777.946909 201.646286 
L 778.657091 205.068303 
L 779.367273 212.501681 
L 780.077455 209.054885 
L 780.787636 208.260179 
L 781.497818 215.46526 
L 782.208 206.835011 
L 782.918182 209.344996 
L 783.628364 208.541481 
L 784.338545 204.106648 
L 785.048727 206.066609 
L 785.758909 205.518875 
L 786.469091 195.570299 
L 787.179273 193.96201 
L 787.889455 195.291593 
L 788.599636 190.639749 
L 789.309818 193.770604 
L 790.02 187.352857 
L 790.730182 183.344326 
L 791.440364 181.837641 
L 792.150545 189.283631 
L 792.860727 189.478273 
L 793.570909 190.89027 
L 794.281091 191.182543 
L 794.991273 209.129408 
L 795.701455 207.030437 
L 796.411636 207.090431 
L 797.121818 206.450286 
L 797.832 203.11531 
L 798.542182 206.616842 
L 799.252364 212.582064 
L 799.962545 214.224898 
L 800.672727 224.640624 
L 801.382909 227.988101 
L 802.093091 232.710501 
L 802.803273 236.677567 
L 803.513455 231.080086 
L 804.223636 234.286782 
L 804.933818 227.323421 
L 805.644 232.397651 
L 806.354182 232.999903 
L 807.064364 226.111345 
L 807.774545 228.428646 
L 808.484727 231.171084 
L 809.194909 226.700211 
L 809.905091 221.040404 
L 810.615273 216.902414 
L 811.325455 209.539012 
L 812.035636 205.091497 
L 812.745818 208.045455 
L 813.456 200.21548 
L 814.166182 201.037885 
L 814.876364 204.220738 
L 815.586545 208.477922 
L 816.296727 214.223788 
L 817.006909 216.467226 
L 817.717091 215.306977 
L 818.427273 222.813239 
L 819.137455 220.052253 
L 819.847636 221.225098 
L 820.557818 224.111837 
L 821.268 223.922279 
L 821.978182 216.00043 
L 822.688364 214.668364 
L 823.398545 209.503713 
L 824.108727 209.983818 
L 824.818909 204.106262 
L 825.529091 200.33191 
L 826.239273 204.96306 
L 826.949455 200.77459 
L 827.659636 202.276902 
L 828.369818 196.376451 
L 829.08 199.910062 
L 829.790182 201.910282 
L 830.500364 198.530199 
L 831.210545 203.354136 
L 831.920727 205.16844 
L 832.630909 205.806205 
L 833.341091 207.772801 
L 834.051273 204.368357 
L 834.761455 205.380776 
L 835.471636 203.24839 
L 836.181818 197.874171 
L 836.892 197.113443 
L 837.602182 192.915368 
L 838.312364 192.246731 
L 839.022545 191.826566 
L 839.732727 189.61267 
L 840.442909 192.360276 
L 841.153091 192.694492 
L 841.863273 195.49622 
L 842.573455 195.393175 
L 843.283636 199.64586 
L 843.993818 203.190171 
L 844.704 204.619969 
L 845.414182 207.581804 
L 846.834545 204.651353 
L 847.544727 199.813444 
L 848.254909 192.779573 
L 848.965091 187.002044 
L 849.675273 188.781065 
L 850.385455 182.823173 
L 851.095636 187.172264 
L 851.805818 186.09917 
L 852.516 188.081633 
L 853.226182 189.313056 
L 854.646545 179.760643 
L 855.356727 177.893717 
L 856.066909 170.679991 
L 856.777091 172.491769 
L 857.487273 181.102431 
L 858.197455 174.971274 
L 859.617818 169.572807 
L 860.328 177.736206 
L 861.038182 175.720072 
L 861.748364 174.924145 
L 862.458545 168.45156 
L 863.168727 165.117827 
L 863.878909 165.88429 
L 864.589091 168.738525 
L 865.299273 167.99078 
L 866.009455 169.169905 
L 866.719636 165.358629 
L 867.429818 167.36451 
L 868.850182 163.344934 
L 870.270545 156.005551 
L 870.980727 157.477661 
L 871.690909 159.535027 
L 871.690909 159.535027 
" clip-path="url(#p71d1dbca2d)" style="fill: none; stroke: #ff7f0e; stroke-width: 1.5; stroke-linecap: square"/>
   </g>
   <g id="line2d_16">
    <path d="M 162.219273 369.341582 
L 163.639636 369.36 
L 165.06 369.005853 
L 165.770182 368.611607 
L 167.190545 368.416259 
L 168.610909 368.229261 
L 169.321091 368.203824 
L 171.451636 367.79141 
L 172.161818 367.764602 
L 172.872 367.538843 
L 173.582182 367.525355 
L 174.292364 367.2969 
L 175.712727 367.291042 
L 176.422909 367.091486 
L 177.133091 367.161567 
L 177.843273 366.867686 
L 178.553455 366.864397 
L 179.263636 366.575073 
L 181.394182 366.613334 
L 182.814545 366.383741 
L 183.524727 365.937331 
L 184.945091 365.85642 
L 185.655273 365.017747 
L 186.365455 364.672337 
L 187.075636 364.203175 
L 189.206182 364.226686 
L 190.626545 363.833086 
L 191.336727 363.827333 
L 192.046909 363.686449 
L 192.757091 363.739005 
L 194.177455 363.587461 
L 196.308 363.655452 
L 200.569091 363.472076 
L 201.279273 363.37358 
L 202.699636 363.407286 
L 203.409818 362.744816 
L 206.250545 362.677524 
L 206.960727 362.395145 
L 208.381091 362.305159 
L 211.221818 361.575397 
L 212.642182 361.530688 
L 215.482909 361.457799 
L 221.874545 360.769393 
L 222.584727 360.727771 
L 223.294909 360.441085 
L 224.005091 360.342252 
L 224.715273 359.996754 
L 225.425455 360.029732 
L 226.135636 359.928962 
L 226.845818 359.190692 
L 227.556 359.18803 
L 228.266182 359.051532 
L 228.976364 357.903899 
L 229.686545 357.902053 
L 230.396727 357.667621 
L 233.237455 357.465616 
L 233.947636 356.991771 
L 235.368 356.91369 
L 236.078182 356.869592 
L 237.498545 356.6718 
L 238.208727 356.627031 
L 238.918909 356.43717 
L 239.629091 355.946438 
L 241.049455 355.373889 
L 241.759636 354.597933 
L 242.469818 354.408631 
L 248.151273 353.919863 
L 248.861455 353.857713 
L 249.571636 353.229653 
L 250.281818 352.868066 
L 250.992 352.90146 
L 251.702182 352.519663 
L 255.253091 352.158668 
L 255.963273 351.745161 
L 257.383636 351.775866 
L 258.093818 351.730139 
L 258.804 351.486967 
L 260.934545 351.343976 
L 261.644727 351.029812 
L 262.354909 350.284081 
L 263.065091 350.29146 
L 263.775273 350.082415 
L 265.195636 349.992214 
L 266.616 349.989974 
L 267.326182 350.062863 
L 269.456727 349.950438 
L 270.166909 349.494041 
L 270.877091 348.746764 
L 272.297455 348.749316 
L 273.007636 348.458933 
L 273.717818 347.711458 
L 275.848364 347.656251 
L 277.268727 347.514231 
L 277.978909 347.687953 
L 280.109455 347.675175 
L 280.819636 347.142821 
L 281.529818 346.837875 
L 283.660364 346.759672 
L 284.370545 345.484098 
L 288.631636 345.340697 
L 290.762182 345.183512 
L 291.472364 344.869777 
L 292.182545 344.879624 
L 292.892727 344.66823 
L 293.602909 344.705585 
L 294.313091 344.582631 
L 295.023273 344.588442 
L 295.733455 344.738031 
L 297.153818 344.619761 
L 299.284364 344.546263 
L 300.704727 344.527865 
L 302.125091 344.452538 
L 307.806545 344.052172 
L 308.516727 343.692413 
L 309.226909 343.041272 
L 310.647273 342.945366 
L 311.357455 342.23104 
L 313.488 341.893323 
L 314.198182 341.814283 
L 314.908364 341.113744 
L 316.328727 341.112676 
L 317.038909 341.035842 
L 317.749091 340.246095 
L 320.589818 340.10556 
L 321.3 339.981292 
L 322.720364 339.879233 
L 324.140727 339.825085 
L 324.850909 339.426007 
L 325.561091 339.265653 
L 326.981455 339.354427 
L 327.691636 338.811891 
L 329.822182 338.814756 
L 330.532364 338.202487 
L 331.952727 338.167342 
L 332.662909 337.872065 
L 333.373091 337.859948 
L 334.083273 337.391819 
L 336.213818 337.265309 
L 336.924 337.316506 
L 337.634182 337.212606 
L 338.344364 336.893064 
L 339.764727 336.563296 
L 341.895273 336.021383 
L 342.605455 336.034365 
L 343.315636 335.054612 
L 345.446182 335.035643 
L 346.156364 334.573539 
L 349.707273 334.54673 
L 350.417455 334.145017 
L 353.258182 333.8337 
L 353.968364 333.839624 
L 354.678545 333.617125 
L 355.388727 333.62124 
L 356.098909 332.872957 
L 361.070182 332.567732 
L 361.780364 331.583008 
L 364.621091 331.302129 
L 366.751636 331.18668 
L 367.461818 331.000199 
L 368.882182 330.935737 
L 370.302545 330.829893 
L 373.853455 330.632144 
L 374.563636 330.349043 
L 375.273818 330.360121 
L 376.694182 330.129976 
L 378.824727 330.103439 
L 379.534909 329.82978 
L 380.245091 329.369473 
L 385.216364 329.252333 
L 386.636727 328.831985 
L 387.346909 328.817829 
L 388.767273 328.194791 
L 389.477455 328.180138 
L 393.028364 325.973532 
L 395.869091 325.888532 
L 396.579273 325.981408 
L 398.709818 325.858173 
L 400.130182 325.080686 
L 405.101455 324.575079 
L 405.811636 323.951767 
L 406.521818 323.648589 
L 407.942182 323.627854 
L 408.652364 323.389302 
L 410.072727 323.376737 
L 410.782909 322.951922 
L 413.623636 322.869315 
L 414.333818 322.776821 
L 417.174545 321.554149 
L 417.884727 321.371109 
L 423.566182 321.0313 
L 425.696727 320.771902 
L 427.117091 320.550638 
L 427.827273 320.210653 
L 428.537455 320.039951 
L 429.247636 320.07462 
L 429.957818 319.918524 
L 430.668 319.192037 
L 436.349455 318.548659 
L 439.900364 318.504739 
L 440.610545 317.954071 
L 442.030909 317.884075 
L 442.741091 317.731549 
L 443.451273 316.795658 
L 447.712364 316.733446 
L 448.422545 316.479969 
L 449.132727 316.466314 
L 449.842909 315.685399 
L 450.553091 315.559358 
L 451.263273 315.25706 
L 453.393818 315.053283 
L 454.104 315.0647 
L 454.814182 314.687771 
L 455.524364 314.565695 
L 456.234545 314.12177 
L 456.944727 314.017313 
L 457.654909 313.09987 
L 460.495636 313.064138 
L 461.205818 312.925215 
L 461.916 312.994956 
L 465.466909 312.631434 
L 466.177091 312.320494 
L 468.307636 312.274394 
L 469.728 311.839545 
L 470.438182 311.862959 
L 471.148364 311.647595 
L 471.858545 311.812145 
L 473.278909 311.787343 
L 473.989091 311.417295 
L 474.699273 311.439246 
L 475.409455 311.333621 
L 476.119636 310.609468 
L 476.829818 310.59642 
L 478.250182 309.781076 
L 478.960364 309.579566 
L 480.380727 309.634119 
L 481.090909 309.484918 
L 482.511273 309.563709 
L 483.221455 309.193127 
L 486.772364 308.895243 
L 487.482545 308.90064 
L 488.192727 307.893307 
L 489.613091 307.896131 
L 493.874182 307.694662 
L 494.584364 307.459454 
L 498.135273 307.31428 
L 500.265818 307.053577 
L 500.976 307.05513 
L 501.686182 306.244049 
L 503.816727 306.187209 
L 504.526909 305.418758 
L 507.367636 305.229272 
L 508.077818 305.270354 
L 513.049091 304.662717 
L 513.759273 304.441597 
L 517.310182 304.458392 
L 518.020364 304.273472 
L 518.730545 303.907172 
L 519.440727 303.299647 
L 520.150909 303.32354 
L 520.861091 302.642892 
L 521.571273 302.448454 
L 523.701818 302.378253 
L 524.412 301.864726 
L 525.122182 301.119263 
L 527.962909 300.778227 
L 528.673091 300.320901 
L 529.383273 300.261746 
L 530.093455 299.537335 
L 530.803636 299.179772 
L 533.644364 299.033313 
L 534.354545 298.844728 
L 535.064727 298.532053 
L 535.774909 298.545967 
L 536.485091 298.169446 
L 539.325818 298.12533 
L 540.036 297.965405 
L 540.746182 297.428231 
L 542.876727 297.282422 
L 543.586909 296.965313 
L 545.007273 296.877634 
L 545.717455 296.840339 
L 547.137818 296.419953 
L 547.848 295.47043 
L 548.558182 293.409099 
L 549.978545 293.341948 
L 551.398909 293.162047 
L 552.109091 292.666407 
L 552.819273 292.495573 
L 555.66 292.378404 
L 556.370182 291.785343 
L 559.210909 291.856063 
L 559.921091 292.000169 
L 561.341455 292.014164 
L 562.051636 290.220316 
L 562.761818 289.479834 
L 563.472 289.191218 
L 565.602545 289.045578 
L 566.312727 289.066126 
L 567.022909 289.281576 
L 570.573818 289.173361 
L 571.284 289.053922 
L 572.704364 288.255563 
L 573.414545 287.518498 
L 574.124727 287.212207 
L 574.834909 287.165554 
L 575.545091 286.979402 
L 576.255273 286.970446 
L 576.965455 286.465526 
L 577.675636 286.467983 
L 578.385818 286.057294 
L 580.516364 286.036957 
L 581.226545 285.41673 
L 581.936727 285.309791 
L 583.357091 285.250253 
L 585.487636 284.998749 
L 586.197818 284.704471 
L 588.328364 284.614692 
L 590.458909 284.530131 
L 591.169091 284.354333 
L 591.879273 284.448756 
L 592.589455 284.331391 
L 593.299636 283.772273 
L 597.560727 283.442195 
L 598.981091 283.472002 
L 599.691273 283.459024 
L 600.401455 283.225457 
L 602.532 283.154989 
L 603.242182 282.875542 
L 605.372727 282.747462 
L 606.082909 282.199239 
L 606.793091 282.035455 
L 608.213455 282.078387 
L 608.923636 280.964534 
L 609.633818 280.963238 
L 610.344 280.38641 
L 611.054182 280.409587 
L 612.474545 280.255961 
L 613.184727 280.263666 
L 613.894909 279.972187 
L 614.605091 280.011768 
L 618.156 279.349299 
L 618.866182 279.351162 
L 620.286545 278.909803 
L 621.706909 278.900379 
L 622.417091 278.838661 
L 623.127273 278.318373 
L 623.837455 278.324605 
L 625.257818 277.825631 
L 628.098545 277.764199 
L 628.808727 277.157435 
L 629.518909 277.159726 
L 630.229091 276.801 
L 633.069818 276.75254 
L 633.78 276.537359 
L 635.200364 276.46927 
L 637.330909 276.086316 
L 638.751273 276.122198 
L 639.461455 275.155742 
L 640.171636 275.040858 
L 641.592 275.062211 
L 642.302182 274.763596 
L 644.432727 274.708297 
L 645.142909 274.586881 
L 645.853091 274.210534 
L 647.273455 274.187077 
L 647.983636 273.90461 
L 648.693818 273.820917 
L 649.404 272.697502 
L 652.244727 272.673155 
L 652.954909 272.42138 
L 654.375273 272.132178 
L 655.085455 271.864068 
L 656.505818 271.760791 
L 657.926182 271.783904 
L 659.346545 271.157922 
L 662.187273 271.193831 
L 663.607636 271.151703 
L 664.317818 270.884983 
L 665.028 270.883305 
L 665.738182 270.740361 
L 666.448364 270.879523 
L 667.868727 270.722309 
L 668.578909 270.130146 
L 669.999273 270.025943 
L 670.709455 269.803025 
L 672.129818 269.706801 
L 673.550182 269.606063 
L 674.260364 269.313436 
L 676.390909 269.336567 
L 677.811273 268.67529 
L 678.521455 268.342243 
L 679.941818 268.294922 
L 680.652 267.742114 
L 684.913091 267.644569 
L 685.623273 267.265577 
L 687.753818 266.979243 
L 688.464 266.492135 
L 689.174182 266.417849 
L 691.304727 266.487697 
L 692.014909 265.94762 
L 693.435273 265.896839 
L 694.855636 265.478071 
L 695.565818 265.099597 
L 696.986182 265.064436 
L 697.696364 264.785901 
L 700.537091 264.656592 
L 701.247273 264.647139 
L 702.667636 264.386851 
L 709.769455 264.386439 
L 710.479636 264.184996 
L 711.189818 264.103967 
L 712.610182 264.128346 
L 714.740727 263.935803 
L 716.161091 263.94799 
L 718.291636 263.700275 
L 721.842545 263.53479 
L 727.524 263.448248 
L 728.234182 262.984335 
L 728.944364 262.954797 
L 729.654545 262.540949 
L 731.074909 262.142229 
L 739.597091 261.220347 
L 740.307273 260.441509 
L 743.148 260.187198 
L 745.278545 259.892077 
L 747.409091 259.883808 
L 748.119273 259.469937 
L 750.249818 259.468695 
L 750.96 258.661449 
L 752.380364 258.681616 
L 755.221091 258.531093 
L 755.931273 258.066353 
L 756.641455 258.052193 
L 757.351636 257.209066 
L 758.772 257.152939 
L 759.482182 256.830631 
L 760.192364 256.660493 
L 762.322909 255.501028 
L 763.743273 255.450889 
L 764.453455 255.257313 
L 765.163636 255.247097 
L 765.873818 255.095282 
L 766.584 255.126619 
L 769.424727 254.801965 
L 770.845091 254.721745 
L 772.265455 254.642751 
L 772.975636 254.185623 
L 775.816364 254.169271 
L 776.526545 254.03128 
L 777.236727 253.492096 
L 778.657091 253.402702 
L 779.367273 253.051835 
L 780.787636 252.951469 
L 781.497818 252.48049 
L 782.208 252.15107 
L 783.628364 252.107096 
L 785.758909 252.074353 
L 786.469091 251.410345 
L 788.599636 251.413759 
L 792.150545 250.586064 
L 794.281091 250.555433 
L 794.991273 248.629615 
L 798.542182 248.413102 
L 799.252364 248.158838 
L 799.962545 248.148526 
L 800.672727 248.020516 
L 801.382909 248.034805 
L 802.093091 248.175272 
L 802.803273 248.181652 
L 810.615273 246.715864 
L 812.745818 246.223232 
L 814.166182 246.14264 
L 814.876364 246.172433 
L 817.006909 245.86676 
L 817.717091 245.874025 
L 818.427273 245.580293 
L 820.557818 245.55971 
L 821.268 245.565078 
L 821.978182 245.367676 
L 822.688364 245.353869 
L 823.398545 245.090431 
L 825.529091 245.06981 
L 826.239273 245.001967 
L 827.659636 245.160165 
L 831.920727 244.570256 
L 834.051273 244.530233 
L 837.602182 244.389582 
L 839.022545 244.388697 
L 839.732727 244.480081 
L 842.573455 244.356603 
L 843.993818 244.51393 
L 847.544727 244.384135 
L 848.254909 244.122995 
L 852.516 243.744048 
L 853.226182 243.725309 
L 854.646545 243.290081 
L 856.777091 243.28699 
L 857.487273 243.385382 
L 858.907636 243.048587 
L 859.617818 242.96825 
L 860.328 242.594041 
L 861.748364 242.659886 
L 862.458545 242.466575 
L 871.690909 242.320614 
L 871.690909 242.320614 
" clip-path="url(#p71d1dbca2d)" style="fill: none; stroke: #2ca02c; stroke-width: 1.5; stroke-linecap: square"/>
   </g>
   <g id="patch_3">
    <path d="M 126 384.48 
L 126 51.84 
" style="fill: none; stroke: #000000; stroke-width: 0.8; stroke-linejoin: miter; stroke-linecap: square"/>
   </g>
   <g id="patch_4">
    <path d="M 907.2 384.48 
L 907.2 51.84 
" style="fill: none; stroke: #000000; stroke-width: 0.8; stroke-linejoin: miter; stroke-linecap: square"/>
   </g>
   <g id="patch_5">
    <path d="M 126 384.48 
L 907.2 384.48 
" style="fill: none; stroke: #000000; stroke-width: 0.8; stroke-linejoin: miter; stroke-linecap: square"/>
   </g>
   <g id="patch_6">
    <path d="M 126 51.84 
L 907.2 51.84 
" style="fill: none; stroke: #000000; stroke-width: 0.8; stroke-linejoin: miter; stroke-linecap: square"/>
   </g>
   <g id="text_16">
    <!-- Quadratic Covariation of $X_t$ and $S_t$ -->
    <g transform="translate(414.54 45.84)scale(0.12 -0.12)">
     <defs>
      <path id="DejaVuSans-66" d="M 2375 4863 
L 2375 4384 
L 1825 4384 
Q 1516 4384 1395 4259 
Q 1275 4134 1275 3809 
L 1275 3500 
L 2222 3500 
L 2222 3053 
L 1275 3053 
L 1275 0 
L 697 0 
L 697 3053 
L 147 3053 
L 147 3500 
L 697 3500 
L 697 3744 
Q 697 4328 969 4595 
Q 1241 4863 1831 4863 
L 2375 4863 
z
" transform="scale(0.015625)"/>
      <path id="DejaVuSans-Oblique-58" d="M 878 4666 
L 1516 4666 
L 2316 2981 
L 3763 4666 
L 4500 4666 
L 2578 2438 
L 3738 0 
L 3103 0 
L 2163 1966 
L 459 0 
L -275 0 
L 1906 2509 
L 878 4666 
z
" transform="scale(0.015625)"/>
      <path id="DejaVuSans-Oblique-74" d="M 2706 3500 
L 2619 3053 
L 1472 3053 
L 1100 1153 
Q 1081 1047 1072 975 
Q 1063 903 1063 863 
Q 1063 663 1183 572 
Q 1303 481 1569 481 
L 2150 481 
L 2053 0 
L 1503 0 
Q 991 0 739 200 
Q 488 400 488 806 
Q 488 878 497 964 
Q 506 1050 525 1153 
L 897 3053 
L 409 3053 
L 500 3500 
L 978 3500 
L 1172 4494 
L 1747 4494 
L 1556 3500 
L 2706 3500 
z
" transform="scale(0.015625)"/>
      <path id="DejaVuSans-Oblique-53" d="M 3859 4513 
L 3738 3897 
Q 3422 4066 3111 4152 
Q 2800 4238 2509 4238 
Q 1944 4238 1609 3991 
Q 1275 3744 1275 3334 
Q 1275 3109 1398 2989 
Q 1522 2869 2034 2731 
L 2413 2638 
Q 3053 2472 3303 2217 
Q 3553 1963 3553 1503 
Q 3553 797 2998 353 
Q 2444 -91 1538 -91 
Q 1166 -91 791 -17 
Q 416 56 38 206 
L 166 856 
Q 513 641 861 531 
Q 1209 422 1556 422 
Q 2147 422 2503 684 
Q 2859 947 2859 1369 
Q 2859 1650 2717 1795 
Q 2575 1941 2106 2059 
L 1728 2156 
Q 1081 2325 845 2545 
Q 609 2766 609 3163 
Q 609 3859 1145 4304 
Q 1681 4750 2541 4750 
Q 2875 4750 3203 4690 
Q 3531 4631 3859 4513 
z
" transform="scale(0.015625)"/>
     </defs>
     <use xlink:href="#DejaVuSans-51" transform="translate(0 0.015625)"/>
     <use xlink:href="#DejaVuSans-75" transform="translate(78.710938 0.015625)"/>
     <use xlink:href="#DejaVuSans-61" transform="translate(142.089844 0.015625)"/>
     <use xlink:href="#DejaVuSans-64" transform="translate(203.369141 0.015625)"/>
     <use xlink:href="#DejaVuSans-72" transform="translate(266.845703 0.015625)"/>
     <use xlink:href="#DejaVuSans-61" transform="translate(307.958984 0.015625)"/>
     <use xlink:href="#DejaVuSans-74" transform="translate(369.238281 0.015625)"/>
     <use xlink:href="#DejaVuSans-69" transform="translate(408.447266 0.015625)"/>
     <use xlink:href="#DejaVuSans-63" transform="translate(436.230469 0.015625)"/>
     <use xlink:href="#DejaVuSans-20" transform="translate(491.210938 0.015625)"/>
     <use xlink:href="#DejaVuSans-43" transform="translate(522.998047 0.015625)"/>
     <use xlink:href="#DejaVuSans-6f" transform="translate(592.822266 0.015625)"/>
     <use xlink:href="#DejaVuSans-76" transform="translate(654.003906 0.015625)"/>
     <use xlink:href="#DejaVuSans-61" transform="translate(713.183594 0.015625)"/>
     <use xlink:href="#DejaVuSans-72" transform="translate(774.462891 0.015625)"/>
     <use xlink:href="#DejaVuSans-69" transform="translate(815.576172 0.015625)"/>
     <use xlink:href="#DejaVuSans-61" transform="translate(843.359375 0.015625)"/>
     <use xlink:href="#DejaVuSans-74" transform="translate(904.638672 0.015625)"/>
     <use xlink:href="#DejaVuSans-69" transform="translate(943.847656 0.015625)"/>
     <use xlink:href="#DejaVuSans-6f" transform="translate(971.630859 0.015625)"/>
     <use xlink:href="#DejaVuSans-6e" transform="translate(1032.8125 0.015625)"/>
     <use xlink:href="#DejaVuSans-20" transform="translate(1096.191406 0.015625)"/>
     <use xlink:href="#DejaVuSans-6f" transform="translate(1127.978516 0.015625)"/>
     <use xlink:href="#DejaVuSans-66" transform="translate(1189.160156 0.015625)"/>
     <use xlink:href="#DejaVuSans-20" transform="translate(1224.365234 0.015625)"/>
     <use xlink:href="#DejaVuSans-Oblique-58" transform="translate(1256.152344 0.015625)"/>
     <use xlink:href="#DejaVuSans-Oblique-74" transform="translate(1324.658203 -16.390625)scale(0.7)"/>
     <use xlink:href="#DejaVuSans-20" transform="translate(1354.838867 0.015625)"/>
     <use xlink:href="#DejaVuSans-61" transform="translate(1386.625977 0.015625)"/>
     <use xlink:href="#DejaVuSans-6e" transform="translate(1447.905273 0.015625)"/>
     <use xlink:href="#DejaVuSans-64" transform="translate(1511.28418 0.015625)"/>
     <use xlink:href="#DejaVuSans-20" transform="translate(1574.760742 0.015625)"/>
     <use xlink:href="#DejaVuSans-Oblique-53" transform="translate(1606.547852 0.015625)"/>
     <use xlink:href="#DejaVuSans-Oblique-74" transform="translate(1670.024414 -16.390625)scale(0.7)"/>
    </g>
   </g>
   <g id="legend_1">
    <g id="patch_7">
     <path d="M 133 103.874375 
L 335.1 103.874375 
Q 337.1 103.874375 337.1 101.874375 
L 337.1 58.84 
Q 337.1 56.84 335.1 56.84 
L 133 56.84 
Q 131 56.84 131 58.84 
L 131 101.874375 
Q 131 103.874375 133 103.874375 
z
" style="fill: #ffffff; opacity: 0.8; stroke: #cccccc; stroke-linejoin: miter"/>
    </g>
    <g id="line2d_17">
     <path d="M 135 64.938437 
L 145 64.938437 
L 155 64.938437 
" style="fill: none; stroke: #1f77b4; stroke-width: 1.5; stroke-linecap: square"/>
    </g>
    <g id="text_17">
     <!-- $X_t$ -->
     <g transform="translate(163 68.438437)scale(0.1 -0.1)">
      <use xlink:href="#DejaVuSans-Oblique-58" transform="translate(0 0.09375)"/>
      <use xlink:href="#DejaVuSans-Oblique-74" transform="translate(68.505859 -16.3125)scale(0.7)"/>
     </g>
    </g>
    <g id="line2d_18">
     <path d="M 135 79.616562 
L 145 79.616562 
L 155 79.616562 
" style="fill: none; stroke: #ff7f0e; stroke-width: 1.5; stroke-linecap: square"/>
    </g>
    <g id="text_18">
     <!-- $S_t$ -->
     <g transform="translate(163 83.116562)scale(0.1 -0.1)">
      <use xlink:href="#DejaVuSans-Oblique-53" transform="translate(0 0.78125)"/>
      <use xlink:href="#DejaVuSans-Oblique-74" transform="translate(63.476562 -15.625)scale(0.7)"/>
     </g>
    </g>
    <g id="line2d_19">
     <path d="M 135 94.294687 
L 145 94.294687 
L 155 94.294687 
" style="fill: none; stroke: #2ca02c; stroke-width: 1.5; stroke-linecap: square"/>
    </g>
    <g id="text_19">
     <!-- Quadratic Covariation of $X_t$ and $S_t$ -->
     <g transform="translate(163 97.794687)scale(0.1 -0.1)">
      <use xlink:href="#DejaVuSans-51" transform="translate(0 0.015625)"/>
      <use xlink:href="#DejaVuSans-75" transform="translate(78.710938 0.015625)"/>
      <use xlink:href="#DejaVuSans-61" transform="translate(142.089844 0.015625)"/>
      <use xlink:href="#DejaVuSans-64" transform="translate(203.369141 0.015625)"/>
      <use xlink:href="#DejaVuSans-72" transform="translate(266.845703 0.015625)"/>
      <use xlink:href="#DejaVuSans-61" transform="translate(307.958984 0.015625)"/>
      <use xlink:href="#DejaVuSans-74" transform="translate(369.238281 0.015625)"/>
      <use xlink:href="#DejaVuSans-69" transform="translate(408.447266 0.015625)"/>
      <use xlink:href="#DejaVuSans-63" transform="translate(436.230469 0.015625)"/>
      <use xlink:href="#DejaVuSans-20" transform="translate(491.210938 0.015625)"/>
      <use xlink:href="#DejaVuSans-43" transform="translate(522.998047 0.015625)"/>
      <use xlink:href="#DejaVuSans-6f" transform="translate(592.822266 0.015625)"/>
      <use xlink:href="#DejaVuSans-76" transform="translate(654.003906 0.015625)"/>
      <use xlink:href="#DejaVuSans-61" transform="translate(713.183594 0.015625)"/>
      <use xlink:href="#DejaVuSans-72" transform="translate(774.462891 0.015625)"/>
      <use xlink:href="#DejaVuSans-69" transform="translate(815.576172 0.015625)"/>
      <use xlink:href="#DejaVuSans-61" transform="translate(843.359375 0.015625)"/>
      <use xlink:href="#DejaVuSans-74" transform="translate(904.638672 0.015625)"/>
      <use xlink:href="#DejaVuSans-69" transform="translate(943.847656 0.015625)"/>
      <use xlink:href="#DejaVuSans-6f" transform="translate(971.630859 0.015625)"/>
      <use xlink:href="#DejaVuSans-6e" transform="translate(1032.8125 0.015625)"/>
      <use xlink:href="#DejaVuSans-20" transform="translate(1096.191406 0.015625)"/>
      <use xlink:href="#DejaVuSans-6f" transform="translate(1127.978516 0.015625)"/>
      <use xlink:href="#DejaVuSans-66" transform="translate(1189.160156 0.015625)"/>
      <use xlink:href="#DejaVuSans-20" transform="translate(1224.365234 0.015625)"/>
      <use xlink:href="#DejaVuSans-Oblique-58" transform="translate(1256.152344 0.015625)"/>
      <use xlink:href="#DejaVuSans-Oblique-74" transform="translate(1324.658203 -16.390625)scale(0.7)"/>
      <use xlink:href="#DejaVuSans-20" transform="translate(1354.838867 0.015625)"/>
      <use xlink:href="#DejaVuSans-61" transform="translate(1386.625977 0.015625)"/>
      <use xlink:href="#DejaVuSans-6e" transform="translate(1447.905273 0.015625)"/>
      <use xlink:href="#DejaVuSans-64" transform="translate(1511.28418 0.015625)"/>
      <use xlink:href="#DejaVuSans-20" transform="translate(1574.760742 0.015625)"/>
      <use xlink:href="#DejaVuSans-Oblique-53" transform="translate(1606.547852 0.015625)"/>
      <use xlink:href="#DejaVuSans-Oblique-74" transform="translate(1670.024414 -16.390625)scale(0.7)"/>
     </g>
    </g>
   </g>
  </g>
 </g>
 <defs>
  <clipPath id="p71d1dbca2d">
   <rect x="126" y="51.84" width="781.2" height="332.64"/>
  </clipPath>
 </defs>
</svg>
