<?xml version="1.0" encoding="utf-8" standalone="no"?>
<!DOCTYPE svg PUBLIC "-//W3C//DTD SVG 1.1//EN"
  "http://www.w3.org/Graphics/SVG/1.1/DTD/svg11.dtd">
<svg xmlns:xlink="http://www.w3.org/1999/xlink" width="1008pt" height="432pt" viewBox="0 0 1008 432" xmlns="http://www.w3.org/2000/svg" version="1.1">
 <metadata>
  <rdf:RDF xmlns:dc="http://purl.org/dc/elements/1.1/" xmlns:cc="http://creativecommons.org/ns#" xmlns:rdf="http://www.w3.org/1999/02/22-rdf-syntax-ns#">
   <cc:Work>
    <dc:type rdf:resource="http://purl.org/dc/dcmitype/StillImage"/>
    <dc:date>2023-12-22T17:09:41.602801</dc:date>
    <dc:format>image/svg+xml</dc:format>
    <dc:creator>
     <cc:Agent>
      <dc:title>Matplotlib v3.5.2, https://matplotlib.org/</dc:title>
     </cc:Agent>
    </dc:creator>
   </cc:Work>
  </rdf:RDF>
 </metadata>
 <defs>
  <style type="text/css">*{stroke-linejoin: round; stroke-linecap: butt}</style>
 </defs>
 <g id="figure_1">
  <g id="patch_1">
   <path d="M 0 432 
L 1008 432 
L 1008 0 
L 0 0 
z
" style="fill: #ffffff"/>
  </g>
  <g id="axes_1">
   <g id="patch_2">
    <path d="M 126 384.48 
L 907.2 384.48 
L 907.2 51.84 
L 126 51.84 
z
" style="fill: #ffffff"/>
   </g>
   <g id="matplotlib.axis_1">
    <g id="xtick_1">
     <g id="line2d_1">
      <defs>
       <path id="m0925d60e7c" d="M 0 0 
L 0 3.5 
" style="stroke: #000000; stroke-width: 0.8"/>
      </defs>
      <g>
       <use xlink:href="#m0925d60e7c" x="161.509091" y="384.48" style="stroke: #000000; stroke-width: 0.8"/>
      </g>
     </g>
     <g id="text_1">
      <!-- 0.0 -->
      <g transform="translate(153.557528 399.078438)scale(0.1 -0.1)">
       <defs>
        <path id="DejaVuSans-30" d="M 2034 4250 
Q 1547 4250 1301 3770 
Q 1056 3291 1056 2328 
Q 1056 1369 1301 889 
Q 1547 409 2034 409 
Q 2525 409 2770 889 
Q 3016 1369 3016 2328 
Q 3016 3291 2770 3770 
Q 2525 4250 2034 4250 
z
M 2034 4750 
Q 2819 4750 3233 4129 
Q 3647 3509 3647 2328 
Q 3647 1150 3233 529 
Q 2819 -91 2034 -91 
Q 1250 -91 836 529 
Q 422 1150 422 2328 
Q 422 3509 836 4129 
Q 1250 4750 2034 4750 
z
" transform="scale(0.015625)"/>
        <path id="DejaVuSans-2e" d="M 684 794 
L 1344 794 
L 1344 0 
L 684 0 
L 684 794 
z
" transform="scale(0.015625)"/>
       </defs>
       <use xlink:href="#DejaVuSans-30"/>
       <use xlink:href="#DejaVuSans-2e" x="63.623047"/>
       <use xlink:href="#DejaVuSans-30" x="95.410156"/>
      </g>
     </g>
    </g>
    <g id="xtick_2">
     <g id="line2d_2">
      <g>
       <use xlink:href="#m0925d60e7c" x="303.545455" y="384.48" style="stroke: #000000; stroke-width: 0.8"/>
      </g>
     </g>
     <g id="text_2">
      <!-- 0.2 -->
      <g transform="translate(295.593892 399.078438)scale(0.1 -0.1)">
       <defs>
        <path id="DejaVuSans-32" d="M 1228 531 
L 3431 531 
L 3431 0 
L 469 0 
L 469 531 
Q 828 903 1448 1529 
Q 2069 2156 2228 2338 
Q 2531 2678 2651 2914 
Q 2772 3150 2772 3378 
Q 2772 3750 2511 3984 
Q 2250 4219 1831 4219 
Q 1534 4219 1204 4116 
Q 875 4013 500 3803 
L 500 4441 
Q 881 4594 1212 4672 
Q 1544 4750 1819 4750 
Q 2544 4750 2975 4387 
Q 3406 4025 3406 3419 
Q 3406 3131 3298 2873 
Q 3191 2616 2906 2266 
Q 2828 2175 2409 1742 
Q 1991 1309 1228 531 
z
" transform="scale(0.015625)"/>
       </defs>
       <use xlink:href="#DejaVuSans-30"/>
       <use xlink:href="#DejaVuSans-2e" x="63.623047"/>
       <use xlink:href="#DejaVuSans-32" x="95.410156"/>
      </g>
     </g>
    </g>
    <g id="xtick_3">
     <g id="line2d_3">
      <g>
       <use xlink:href="#m0925d60e7c" x="445.581818" y="384.48" style="stroke: #000000; stroke-width: 0.8"/>
      </g>
     </g>
     <g id="text_3">
      <!-- 0.4 -->
      <g transform="translate(437.630256 399.078438)scale(0.1 -0.1)">
       <defs>
        <path id="DejaVuSans-34" d="M 2419 4116 
L 825 1625 
L 2419 1625 
L 2419 4116 
z
M 2253 4666 
L 3047 4666 
L 3047 1625 
L 3713 1625 
L 3713 1100 
L 3047 1100 
L 3047 0 
L 2419 0 
L 2419 1100 
L 313 1100 
L 313 1709 
L 2253 4666 
z
" transform="scale(0.015625)"/>
       </defs>
       <use xlink:href="#DejaVuSans-30"/>
       <use xlink:href="#DejaVuSans-2e" x="63.623047"/>
       <use xlink:href="#DejaVuSans-34" x="95.410156"/>
      </g>
     </g>
    </g>
    <g id="xtick_4">
     <g id="line2d_4">
      <g>
       <use xlink:href="#m0925d60e7c" x="587.618182" y="384.48" style="stroke: #000000; stroke-width: 0.8"/>
      </g>
     </g>
     <g id="text_4">
      <!-- 0.6 -->
      <g transform="translate(579.666619 399.078438)scale(0.1 -0.1)">
       <defs>
        <path id="DejaVuSans-36" d="M 2113 2584 
Q 1688 2584 1439 2293 
Q 1191 2003 1191 1497 
Q 1191 994 1439 701 
Q 1688 409 2113 409 
Q 2538 409 2786 701 
Q 3034 994 3034 1497 
Q 3034 2003 2786 2293 
Q 2538 2584 2113 2584 
z
M 3366 4563 
L 3366 3988 
Q 3128 4100 2886 4159 
Q 2644 4219 2406 4219 
Q 1781 4219 1451 3797 
Q 1122 3375 1075 2522 
Q 1259 2794 1537 2939 
Q 1816 3084 2150 3084 
Q 2853 3084 3261 2657 
Q 3669 2231 3669 1497 
Q 3669 778 3244 343 
Q 2819 -91 2113 -91 
Q 1303 -91 875 529 
Q 447 1150 447 2328 
Q 447 3434 972 4092 
Q 1497 4750 2381 4750 
Q 2619 4750 2861 4703 
Q 3103 4656 3366 4563 
z
" transform="scale(0.015625)"/>
       </defs>
       <use xlink:href="#DejaVuSans-30"/>
       <use xlink:href="#DejaVuSans-2e" x="63.623047"/>
       <use xlink:href="#DejaVuSans-36" x="95.410156"/>
      </g>
     </g>
    </g>
    <g id="xtick_5">
     <g id="line2d_5">
      <g>
       <use xlink:href="#m0925d60e7c" x="729.654545" y="384.48" style="stroke: #000000; stroke-width: 0.8"/>
      </g>
     </g>
     <g id="text_5">
      <!-- 0.8 -->
      <g transform="translate(721.702983 399.078438)scale(0.1 -0.1)">
       <defs>
        <path id="DejaVuSans-38" d="M 2034 2216 
Q 1584 2216 1326 1975 
Q 1069 1734 1069 1313 
Q 1069 891 1326 650 
Q 1584 409 2034 409 
Q 2484 409 2743 651 
Q 3003 894 3003 1313 
Q 3003 1734 2745 1975 
Q 2488 2216 2034 2216 
z
M 1403 2484 
Q 997 2584 770 2862 
Q 544 3141 544 3541 
Q 544 4100 942 4425 
Q 1341 4750 2034 4750 
Q 2731 4750 3128 4425 
Q 3525 4100 3525 3541 
Q 3525 3141 3298 2862 
Q 3072 2584 2669 2484 
Q 3125 2378 3379 2068 
Q 3634 1759 3634 1313 
Q 3634 634 3220 271 
Q 2806 -91 2034 -91 
Q 1263 -91 848 271 
Q 434 634 434 1313 
Q 434 1759 690 2068 
Q 947 2378 1403 2484 
z
M 1172 3481 
Q 1172 3119 1398 2916 
Q 1625 2713 2034 2713 
Q 2441 2713 2670 2916 
Q 2900 3119 2900 3481 
Q 2900 3844 2670 4047 
Q 2441 4250 2034 4250 
Q 1625 4250 1398 4047 
Q 1172 3844 1172 3481 
z
" transform="scale(0.015625)"/>
       </defs>
       <use xlink:href="#DejaVuSans-30"/>
       <use xlink:href="#DejaVuSans-2e" x="63.623047"/>
       <use xlink:href="#DejaVuSans-38" x="95.410156"/>
      </g>
     </g>
    </g>
    <g id="xtick_6">
     <g id="line2d_6">
      <g>
       <use xlink:href="#m0925d60e7c" x="871.690909" y="384.48" style="stroke: #000000; stroke-width: 0.8"/>
      </g>
     </g>
     <g id="text_6">
      <!-- 1.0 -->
      <g transform="translate(863.739347 399.078438)scale(0.1 -0.1)">
       <defs>
        <path id="DejaVuSans-31" d="M 794 531 
L 1825 531 
L 1825 4091 
L 703 3866 
L 703 4441 
L 1819 4666 
L 2450 4666 
L 2450 531 
L 3481 531 
L 3481 0 
L 794 0 
L 794 531 
z
" transform="scale(0.015625)"/>
       </defs>
       <use xlink:href="#DejaVuSans-31"/>
       <use xlink:href="#DejaVuSans-2e" x="63.623047"/>
       <use xlink:href="#DejaVuSans-30" x="95.410156"/>
      </g>
     </g>
    </g>
    <g id="text_7">
     <!-- Time -->
     <g transform="translate(504.366406 412.756563)scale(0.1 -0.1)">
      <defs>
       <path id="DejaVuSans-54" d="M -19 4666 
L 3928 4666 
L 3928 4134 
L 2272 4134 
L 2272 0 
L 1638 0 
L 1638 4134 
L -19 4134 
L -19 4666 
z
" transform="scale(0.015625)"/>
       <path id="DejaVuSans-69" d="M 603 3500 
L 1178 3500 
L 1178 0 
L 603 0 
L 603 3500 
z
M 603 4863 
L 1178 4863 
L 1178 4134 
L 603 4134 
L 603 4863 
z
" transform="scale(0.015625)"/>
       <path id="DejaVuSans-6d" d="M 3328 2828 
Q 3544 3216 3844 3400 
Q 4144 3584 4550 3584 
Q 5097 3584 5394 3201 
Q 5691 2819 5691 2113 
L 5691 0 
L 5113 0 
L 5113 2094 
Q 5113 2597 4934 2840 
Q 4756 3084 4391 3084 
Q 3944 3084 3684 2787 
Q 3425 2491 3425 1978 
L 3425 0 
L 2847 0 
L 2847 2094 
Q 2847 2600 2669 2842 
Q 2491 3084 2119 3084 
Q 1678 3084 1418 2786 
Q 1159 2488 1159 1978 
L 1159 0 
L 581 0 
L 581 3500 
L 1159 3500 
L 1159 2956 
Q 1356 3278 1631 3431 
Q 1906 3584 2284 3584 
Q 2666 3584 2933 3390 
Q 3200 3197 3328 2828 
z
" transform="scale(0.015625)"/>
       <path id="DejaVuSans-65" d="M 3597 1894 
L 3597 1613 
L 953 1613 
Q 991 1019 1311 708 
Q 1631 397 2203 397 
Q 2534 397 2845 478 
Q 3156 559 3463 722 
L 3463 178 
Q 3153 47 2828 -22 
Q 2503 -91 2169 -91 
Q 1331 -91 842 396 
Q 353 884 353 1716 
Q 353 2575 817 3079 
Q 1281 3584 2069 3584 
Q 2775 3584 3186 3129 
Q 3597 2675 3597 1894 
z
M 3022 2063 
Q 3016 2534 2758 2815 
Q 2500 3097 2075 3097 
Q 1594 3097 1305 2825 
Q 1016 2553 972 2059 
L 3022 2063 
z
" transform="scale(0.015625)"/>
      </defs>
      <use xlink:href="#DejaVuSans-54"/>
      <use xlink:href="#DejaVuSans-69" x="57.958984"/>
      <use xlink:href="#DejaVuSans-6d" x="85.742188"/>
      <use xlink:href="#DejaVuSans-65" x="183.154297"/>
     </g>
    </g>
   </g>
   <g id="matplotlib.axis_2">
    <g id="ytick_1">
     <g id="line2d_7">
      <defs>
       <path id="mc964daa5d2" d="M 0 0 
L -3.5 0 
" style="stroke: #000000; stroke-width: 0.8"/>
      </defs>
      <g>
       <use xlink:href="#mc964daa5d2" x="126" y="369.394591" style="stroke: #000000; stroke-width: 0.8"/>
      </g>
     </g>
     <g id="text_8">
      <!-- 0.0 -->
      <g transform="translate(103.096875 373.193809)scale(0.1 -0.1)">
       <use xlink:href="#DejaVuSans-30"/>
       <use xlink:href="#DejaVuSans-2e" x="63.623047"/>
       <use xlink:href="#DejaVuSans-30" x="95.410156"/>
      </g>
     </g>
    </g>
    <g id="ytick_2">
     <g id="line2d_8">
      <g>
       <use xlink:href="#mc964daa5d2" x="126" y="302.038353" style="stroke: #000000; stroke-width: 0.8"/>
      </g>
     </g>
     <g id="text_9">
      <!-- 0.5 -->
      <g transform="translate(103.096875 305.837572)scale(0.1 -0.1)">
       <defs>
        <path id="DejaVuSans-35" d="M 691 4666 
L 3169 4666 
L 3169 4134 
L 1269 4134 
L 1269 2991 
Q 1406 3038 1543 3061 
Q 1681 3084 1819 3084 
Q 2600 3084 3056 2656 
Q 3513 2228 3513 1497 
Q 3513 744 3044 326 
Q 2575 -91 1722 -91 
Q 1428 -91 1123 -41 
Q 819 9 494 109 
L 494 744 
Q 775 591 1075 516 
Q 1375 441 1709 441 
Q 2250 441 2565 725 
Q 2881 1009 2881 1497 
Q 2881 1984 2565 2268 
Q 2250 2553 1709 2553 
Q 1456 2553 1204 2497 
Q 953 2441 691 2322 
L 691 4666 
z
" transform="scale(0.015625)"/>
       </defs>
       <use xlink:href="#DejaVuSans-30"/>
       <use xlink:href="#DejaVuSans-2e" x="63.623047"/>
       <use xlink:href="#DejaVuSans-35" x="95.410156"/>
      </g>
     </g>
    </g>
    <g id="ytick_3">
     <g id="line2d_9">
      <g>
       <use xlink:href="#mc964daa5d2" x="126" y="234.682115" style="stroke: #000000; stroke-width: 0.8"/>
      </g>
     </g>
     <g id="text_10">
      <!-- 1.0 -->
      <g transform="translate(103.096875 238.481334)scale(0.1 -0.1)">
       <use xlink:href="#DejaVuSans-31"/>
       <use xlink:href="#DejaVuSans-2e" x="63.623047"/>
       <use xlink:href="#DejaVuSans-30" x="95.410156"/>
      </g>
     </g>
    </g>
    <g id="ytick_4">
     <g id="line2d_10">
      <g>
       <use xlink:href="#mc964daa5d2" x="126" y="167.325878" style="stroke: #000000; stroke-width: 0.8"/>
      </g>
     </g>
     <g id="text_11">
      <!-- 1.5 -->
      <g transform="translate(103.096875 171.125096)scale(0.1 -0.1)">
       <use xlink:href="#DejaVuSans-31"/>
       <use xlink:href="#DejaVuSans-2e" x="63.623047"/>
       <use xlink:href="#DejaVuSans-35" x="95.410156"/>
      </g>
     </g>
    </g>
    <g id="ytick_5">
     <g id="line2d_11">
      <g>
       <use xlink:href="#mc964daa5d2" x="126" y="99.96964" style="stroke: #000000; stroke-width: 0.8"/>
      </g>
     </g>
     <g id="text_12">
      <!-- 2.0 -->
      <g transform="translate(103.096875 103.768859)scale(0.1 -0.1)">
       <use xlink:href="#DejaVuSans-32"/>
       <use xlink:href="#DejaVuSans-2e" x="63.623047"/>
       <use xlink:href="#DejaVuSans-30" x="95.410156"/>
      </g>
     </g>
    </g>
    <g id="text_13">
     <!-- Quadratic Covariation -->
     <g transform="translate(97.017187 272.970156)rotate(-90)scale(0.1 -0.1)">
      <defs>
       <path id="DejaVuSans-51" d="M 2522 4238 
Q 1834 4238 1429 3725 
Q 1025 3213 1025 2328 
Q 1025 1447 1429 934 
Q 1834 422 2522 422 
Q 3209 422 3611 934 
Q 4013 1447 4013 2328 
Q 4013 3213 3611 3725 
Q 3209 4238 2522 4238 
z
M 3406 84 
L 4238 -825 
L 3475 -825 
L 2784 -78 
Q 2681 -84 2626 -87 
Q 2572 -91 2522 -91 
Q 1538 -91 948 567 
Q 359 1225 359 2328 
Q 359 3434 948 4092 
Q 1538 4750 2522 4750 
Q 3503 4750 4090 4092 
Q 4678 3434 4678 2328 
Q 4678 1516 4351 937 
Q 4025 359 3406 84 
z
" transform="scale(0.015625)"/>
       <path id="DejaVuSans-75" d="M 544 1381 
L 544 3500 
L 1119 3500 
L 1119 1403 
Q 1119 906 1312 657 
Q 1506 409 1894 409 
Q 2359 409 2629 706 
Q 2900 1003 2900 1516 
L 2900 3500 
L 3475 3500 
L 3475 0 
L 2900 0 
L 2900 538 
Q 2691 219 2414 64 
Q 2138 -91 1772 -91 
Q 1169 -91 856 284 
Q 544 659 544 1381 
z
M 1991 3584 
L 1991 3584 
z
" transform="scale(0.015625)"/>
       <path id="DejaVuSans-61" d="M 2194 1759 
Q 1497 1759 1228 1600 
Q 959 1441 959 1056 
Q 959 750 1161 570 
Q 1363 391 1709 391 
Q 2188 391 2477 730 
Q 2766 1069 2766 1631 
L 2766 1759 
L 2194 1759 
z
M 3341 1997 
L 3341 0 
L 2766 0 
L 2766 531 
Q 2569 213 2275 61 
Q 1981 -91 1556 -91 
Q 1019 -91 701 211 
Q 384 513 384 1019 
Q 384 1609 779 1909 
Q 1175 2209 1959 2209 
L 2766 2209 
L 2766 2266 
Q 2766 2663 2505 2880 
Q 2244 3097 1772 3097 
Q 1472 3097 1187 3025 
Q 903 2953 641 2809 
L 641 3341 
Q 956 3463 1253 3523 
Q 1550 3584 1831 3584 
Q 2591 3584 2966 3190 
Q 3341 2797 3341 1997 
z
" transform="scale(0.015625)"/>
       <path id="DejaVuSans-64" d="M 2906 2969 
L 2906 4863 
L 3481 4863 
L 3481 0 
L 2906 0 
L 2906 525 
Q 2725 213 2448 61 
Q 2172 -91 1784 -91 
Q 1150 -91 751 415 
Q 353 922 353 1747 
Q 353 2572 751 3078 
Q 1150 3584 1784 3584 
Q 2172 3584 2448 3432 
Q 2725 3281 2906 2969 
z
M 947 1747 
Q 947 1113 1208 752 
Q 1469 391 1925 391 
Q 2381 391 2643 752 
Q 2906 1113 2906 1747 
Q 2906 2381 2643 2742 
Q 2381 3103 1925 3103 
Q 1469 3103 1208 2742 
Q 947 2381 947 1747 
z
" transform="scale(0.015625)"/>
       <path id="DejaVuSans-72" d="M 2631 2963 
Q 2534 3019 2420 3045 
Q 2306 3072 2169 3072 
Q 1681 3072 1420 2755 
Q 1159 2438 1159 1844 
L 1159 0 
L 581 0 
L 581 3500 
L 1159 3500 
L 1159 2956 
Q 1341 3275 1631 3429 
Q 1922 3584 2338 3584 
Q 2397 3584 2469 3576 
Q 2541 3569 2628 3553 
L 2631 2963 
z
" transform="scale(0.015625)"/>
       <path id="DejaVuSans-74" d="M 1172 4494 
L 1172 3500 
L 2356 3500 
L 2356 3053 
L 1172 3053 
L 1172 1153 
Q 1172 725 1289 603 
Q 1406 481 1766 481 
L 2356 481 
L 2356 0 
L 1766 0 
Q 1100 0 847 248 
Q 594 497 594 1153 
L 594 3053 
L 172 3053 
L 172 3500 
L 594 3500 
L 594 4494 
L 1172 4494 
z
" transform="scale(0.015625)"/>
       <path id="DejaVuSans-63" d="M 3122 3366 
L 3122 2828 
Q 2878 2963 2633 3030 
Q 2388 3097 2138 3097 
Q 1578 3097 1268 2742 
Q 959 2388 959 1747 
Q 959 1106 1268 751 
Q 1578 397 2138 397 
Q 2388 397 2633 464 
Q 2878 531 3122 666 
L 3122 134 
Q 2881 22 2623 -34 
Q 2366 -91 2075 -91 
Q 1284 -91 818 406 
Q 353 903 353 1747 
Q 353 2603 823 3093 
Q 1294 3584 2113 3584 
Q 2378 3584 2631 3529 
Q 2884 3475 3122 3366 
z
" transform="scale(0.015625)"/>
       <path id="DejaVuSans-20" transform="scale(0.015625)"/>
       <path id="DejaVuSans-43" d="M 4122 4306 
L 4122 3641 
Q 3803 3938 3442 4084 
Q 3081 4231 2675 4231 
Q 1875 4231 1450 3742 
Q 1025 3253 1025 2328 
Q 1025 1406 1450 917 
Q 1875 428 2675 428 
Q 3081 428 3442 575 
Q 3803 722 4122 1019 
L 4122 359 
Q 3791 134 3420 21 
Q 3050 -91 2638 -91 
Q 1578 -91 968 557 
Q 359 1206 359 2328 
Q 359 3453 968 4101 
Q 1578 4750 2638 4750 
Q 3056 4750 3426 4639 
Q 3797 4528 4122 4306 
z
" transform="scale(0.015625)"/>
       <path id="DejaVuSans-6f" d="M 1959 3097 
Q 1497 3097 1228 2736 
Q 959 2375 959 1747 
Q 959 1119 1226 758 
Q 1494 397 1959 397 
Q 2419 397 2687 759 
Q 2956 1122 2956 1747 
Q 2956 2369 2687 2733 
Q 2419 3097 1959 3097 
z
M 1959 3584 
Q 2709 3584 3137 3096 
Q 3566 2609 3566 1747 
Q 3566 888 3137 398 
Q 2709 -91 1959 -91 
Q 1206 -91 779 398 
Q 353 888 353 1747 
Q 353 2609 779 3096 
Q 1206 3584 1959 3584 
z
" transform="scale(0.015625)"/>
       <path id="DejaVuSans-76" d="M 191 3500 
L 800 3500 
L 1894 563 
L 2988 3500 
L 3597 3500 
L 2284 0 
L 1503 0 
L 191 3500 
z
" transform="scale(0.015625)"/>
       <path id="DejaVuSans-6e" d="M 3513 2113 
L 3513 0 
L 2938 0 
L 2938 2094 
Q 2938 2591 2744 2837 
Q 2550 3084 2163 3084 
Q 1697 3084 1428 2787 
Q 1159 2491 1159 1978 
L 1159 0 
L 581 0 
L 581 3500 
L 1159 3500 
L 1159 2956 
Q 1366 3272 1645 3428 
Q 1925 3584 2291 3584 
Q 2894 3584 3203 3211 
Q 3513 2838 3513 2113 
z
" transform="scale(0.015625)"/>
      </defs>
      <use xlink:href="#DejaVuSans-51"/>
      <use xlink:href="#DejaVuSans-75" x="78.710938"/>
      <use xlink:href="#DejaVuSans-61" x="142.089844"/>
      <use xlink:href="#DejaVuSans-64" x="203.369141"/>
      <use xlink:href="#DejaVuSans-72" x="266.845703"/>
      <use xlink:href="#DejaVuSans-61" x="307.958984"/>
      <use xlink:href="#DejaVuSans-74" x="369.238281"/>
      <use xlink:href="#DejaVuSans-69" x="408.447266"/>
      <use xlink:href="#DejaVuSans-63" x="436.230469"/>
      <use xlink:href="#DejaVuSans-20" x="491.210938"/>
      <use xlink:href="#DejaVuSans-43" x="522.998047"/>
      <use xlink:href="#DejaVuSans-6f" x="592.822266"/>
      <use xlink:href="#DejaVuSans-76" x="654.003906"/>
      <use xlink:href="#DejaVuSans-61" x="713.183594"/>
      <use xlink:href="#DejaVuSans-72" x="774.462891"/>
      <use xlink:href="#DejaVuSans-69" x="815.576172"/>
      <use xlink:href="#DejaVuSans-61" x="843.359375"/>
      <use xlink:href="#DejaVuSans-74" x="904.638672"/>
      <use xlink:href="#DejaVuSans-69" x="943.847656"/>
      <use xlink:href="#DejaVuSans-6f" x="971.630859"/>
      <use xlink:href="#DejaVuSans-6e" x="1032.8125"/>
     </g>
    </g>
   </g>
   <g id="line2d_12">
    <path d="M 161.509091 234.682115 
L 162.219273 236.50954 
L 162.929455 241.921862 
L 163.639636 242.87178 
L 164.349818 246.876134 
L 165.06 246.902003 
L 165.770182 245.434798 
L 166.480364 240.905264 
L 167.190545 237.578559 
L 167.900727 231.09564 
L 168.610909 234.657735 
L 169.321091 230.379108 
L 170.031273 231.116186 
L 170.741455 233.171711 
L 171.451636 236.876404 
L 172.161818 234.880416 
L 172.872 228.800836 
L 173.582182 235.810201 
L 174.292364 240.648158 
L 175.002545 240.01741 
L 175.712727 245.751389 
L 176.422909 249.580372 
L 177.133091 251.334608 
L 177.843273 252.387072 
L 178.553455 259.395549 
L 179.263636 255.494017 
L 179.973818 255.435033 
L 180.684 251.907222 
L 181.394182 251.709509 
L 182.104364 253.724031 
L 182.814545 253.123133 
L 183.524727 247.61766 
L 184.234909 246.990845 
L 184.945091 239.319666 
L 185.655273 237.329547 
L 186.365455 244.701238 
L 187.075636 242.967586 
L 188.496 255.096263 
L 189.206182 252.414892 
L 189.916364 255.441073 
L 190.626545 256.210286 
L 191.336727 252.255987 
L 192.046909 249.23413 
L 192.757091 247.773325 
L 193.467273 250.623346 
L 194.177455 250.715927 
L 194.887636 244.227587 
L 195.597818 246.760827 
L 196.308 239.776164 
L 197.018182 237.916115 
L 197.728364 234.105834 
L 198.438545 235.672441 
L 199.148727 228.400301 
L 199.858909 225.918279 
L 200.569091 230.269831 
L 201.279273 229.784978 
L 201.989455 232.132703 
L 202.699636 238.209257 
L 203.409818 236.980524 
L 204.12 237.05429 
L 204.830182 237.413638 
L 205.540364 235.6606 
L 206.250545 234.320325 
L 206.960727 239.963743 
L 207.670909 239.141791 
L 208.381091 236.321927 
L 209.091273 238.849073 
L 209.801455 238.891004 
L 210.511636 238.052386 
L 211.221818 243.519164 
L 211.932 242.110658 
L 212.642182 242.219018 
L 213.352364 244.817293 
L 214.062545 244.959353 
L 214.772727 242.049604 
L 215.482909 238.013677 
L 216.193091 241.062387 
L 216.903273 234.960944 
L 217.613455 236.606277 
L 218.323636 231.567605 
L 219.033818 235.306422 
L 219.744 233.805534 
L 220.454182 225.543003 
L 221.164364 219.684042 
L 221.874545 217.251784 
L 223.294909 229.954258 
L 224.005091 223.557513 
L 225.425455 230.478395 
L 226.135636 234.750681 
L 226.845818 233.950572 
L 227.556 221.717527 
L 228.266182 222.426532 
L 228.976364 219.032147 
L 229.686545 222.656435 
L 230.396727 229.546533 
L 231.106909 226.966004 
L 231.817091 221.516022 
L 232.527273 212.353271 
L 233.237455 215.557854 
L 233.947636 212.206847 
L 234.657818 207.471691 
L 235.368 207.768099 
L 236.078182 208.246677 
L 236.788364 219.526583 
L 237.498545 219.254016 
L 238.208727 216.436835 
L 238.918909 212.465747 
L 239.629091 212.412383 
L 240.339273 212.869663 
L 241.049455 210.066089 
L 241.759636 208.348471 
L 242.469818 204.097012 
L 243.18 209.104644 
L 243.890182 210.3131 
L 244.600364 212.431259 
L 245.310545 211.757935 
L 246.020727 205.822608 
L 246.730909 210.436379 
L 247.441091 210.584634 
L 248.151273 211.223778 
L 248.861455 210.895751 
L 249.571636 215.671607 
L 250.281818 217.616088 
L 250.992 217.231669 
L 251.702182 220.152232 
L 252.412364 221.22316 
L 253.122545 217.907112 
L 253.832727 221.010697 
L 254.542909 223.448581 
L 255.253091 224.247683 
L 255.963273 224.619227 
L 256.673455 215.694578 
L 257.383636 216.720728 
L 258.093818 211.028047 
L 258.804 215.818986 
L 259.514182 216.387178 
L 260.224364 217.681713 
L 260.934545 211.947912 
L 261.644727 209.348244 
L 262.354909 207.72657 
L 263.065091 205.02284 
L 263.775273 208.24433 
L 264.485455 206.13899 
L 265.195636 204.873333 
L 265.905818 209.712522 
L 266.616 212.490044 
L 267.326182 204.820289 
L 268.036364 205.258085 
L 268.746545 211.23999 
L 269.456727 213.545973 
L 270.166909 218.000843 
L 270.877091 218.99009 
L 271.587273 225.278176 
L 272.297455 223.432506 
L 273.007636 225.351968 
L 273.717818 221.159443 
L 274.428 221.909714 
L 275.138182 224.213024 
L 275.848364 219.117712 
L 276.558545 212.956828 
L 277.268727 216.662559 
L 277.978909 216.881791 
L 278.689091 213.401047 
L 279.399273 218.926242 
L 280.109455 217.71943 
L 280.819636 227.314374 
L 281.529818 224.588425 
L 282.24 226.493543 
L 282.950182 225.237822 
L 283.660364 222.502465 
L 284.370545 218.008188 
L 285.080727 216.483943 
L 285.790909 218.264991 
L 286.501091 217.780771 
L 287.211273 218.976166 
L 287.921455 225.047352 
L 288.631636 226.801982 
L 289.341818 222.830386 
L 290.052 217.458384 
L 290.762182 217.719692 
L 291.472364 218.921333 
L 292.182545 220.515802 
L 292.892727 214.003901 
L 293.602909 215.087515 
L 294.313091 213.604751 
L 295.023273 215.759731 
L 295.733455 207.29102 
L 296.443636 212.947447 
L 297.864 204.992583 
L 298.574182 207.211198 
L 299.284364 204.878137 
L 299.994545 211.239385 
L 300.704727 210.330914 
L 301.414909 204.839554 
L 302.125091 209.959563 
L 302.835273 210.121305 
L 303.545455 209.120201 
L 304.255636 208.426303 
L 304.965818 212.512581 
L 305.676 215.85032 
L 306.386182 217.115793 
L 307.096364 215.041035 
L 307.806545 221.414679 
L 308.516727 215.156352 
L 309.226909 214.23205 
L 309.937091 207.980307 
L 310.647273 209.075149 
L 311.357455 214.795215 
L 312.067636 212.2198 
L 312.777818 216.149276 
L 314.198182 202.89465 
L 314.908364 210.166949 
L 315.618545 213.047343 
L 317.038909 215.220327 
L 317.749091 214.240853 
L 318.459273 220.056108 
L 319.169455 214.090234 
L 319.879636 218.210499 
L 320.589818 212.368441 
L 321.3 211.38348 
L 322.010182 212.165486 
L 322.720364 213.654951 
L 323.430545 221.007632 
L 324.140727 219.929908 
L 324.850909 221.988517 
L 325.561091 215.903858 
L 326.271273 211.982298 
L 326.981455 211.186199 
L 327.691636 213.400574 
L 328.401818 214.343921 
L 329.112 213.308956 
L 329.822182 213.339648 
L 330.532364 217.928738 
L 331.242545 216.276174 
L 331.952727 217.599124 
L 332.662909 215.1682 
L 333.373091 212.154425 
L 334.083273 214.308823 
L 334.793455 215.988777 
L 335.503636 219.372339 
L 336.213818 225.518792 
L 336.924 227.213332 
L 337.634182 226.181275 
L 338.344364 222.64121 
L 339.054545 220.875746 
L 339.764727 211.402142 
L 340.474909 210.526766 
L 341.185091 210.498955 
L 341.895273 213.24213 
L 342.605455 212.390052 
L 343.315636 215.142897 
L 344.025818 216.127315 
L 344.736 210.694602 
L 345.446182 213.045548 
L 346.156364 211.452058 
L 346.866545 214.259247 
L 347.576727 218.409588 
L 348.286909 218.931121 
L 348.997091 217.657769 
L 349.707273 212.634432 
L 350.417455 219.775979 
L 351.127636 209.108936 
L 351.837818 205.578482 
L 352.548 216.411522 
L 353.258182 211.040649 
L 353.968364 210.628826 
L 354.678545 213.662142 
L 355.388727 219.850394 
L 356.098909 215.642702 
L 356.809091 217.115145 
L 357.519273 222.01269 
L 358.939636 215.409285 
L 359.649818 217.846394 
L 360.36 216.45685 
L 361.070182 211.132294 
L 361.780364 209.608602 
L 362.490545 205.698016 
L 363.200727 197.538944 
L 363.910909 206.789419 
L 364.621091 208.896287 
L 365.331273 210.329574 
L 366.041455 212.226985 
L 366.751636 211.526613 
L 367.461818 212.158524 
L 368.172 217.303759 
L 368.882182 217.587335 
L 369.592364 218.999503 
L 370.302545 219.128084 
L 371.012727 216.031005 
L 372.433091 225.345292 
L 373.143273 232.383747 
L 373.853455 229.422437 
L 374.563636 237.568394 
L 375.273818 233.634844 
L 375.984 234.304787 
L 376.694182 236.748702 
L 377.404364 237.151672 
L 378.824727 230.161746 
L 379.534909 230.198648 
L 380.245091 229.289126 
L 380.955273 229.193654 
L 381.665455 231.375659 
L 382.375636 230.715643 
L 383.085818 227.215251 
L 383.796 225.278489 
L 384.506182 225.31877 
L 385.216364 231.172732 
L 385.926545 240.032539 
L 386.636727 239.081783 
L 387.346909 236.153174 
L 388.057091 224.709224 
L 388.767273 221.434337 
L 389.477455 226.528725 
L 390.187636 229.856244 
L 390.897818 234.60606 
L 391.608 240.817787 
L 392.318182 240.260929 
L 393.028364 240.564842 
L 393.738545 243.007216 
L 394.448727 246.421889 
L 395.158909 244.335097 
L 395.869091 247.49653 
L 396.579273 248.103808 
L 397.999636 239.441473 
L 398.709818 238.879919 
L 399.42 235.969884 
L 400.840364 235.476607 
L 401.550545 239.386506 
L 402.260727 237.143955 
L 402.970909 235.971718 
L 403.681091 236.401746 
L 404.391273 241.228074 
L 405.101455 238.75093 
L 405.811636 239.391539 
L 406.521818 239.683365 
L 407.232 240.381264 
L 407.942182 242.41803 
L 408.652364 242.857645 
L 409.362545 245.628206 
L 410.072727 245.199121 
L 410.782909 246.622692 
L 411.493091 242.359364 
L 412.203273 242.692538 
L 412.913455 236.896786 
L 415.044 221.748792 
L 415.754182 227.471896 
L 416.464364 229.713315 
L 417.174545 232.563185 
L 417.884727 236.077195 
L 418.594909 238.112544 
L 419.305091 230.047022 
L 420.015273 230.340692 
L 420.725455 224.846222 
L 421.435636 220.535132 
L 422.145818 224.62912 
L 424.276364 210.255277 
L 424.986545 213.906105 
L 425.696727 213.389766 
L 427.117091 217.86103 
L 427.827273 212.910433 
L 428.537455 213.870772 
L 429.247636 216.672951 
L 429.957818 220.401978 
L 430.668 222.22113 
L 431.378182 221.638326 
L 432.088364 219.819065 
L 432.798545 229.786468 
L 433.508727 236.346167 
L 434.218909 239.934651 
L 434.929091 249.989016 
L 435.639273 243.856794 
L 436.349455 243.504268 
L 437.059636 240.557573 
L 437.769818 238.198946 
L 438.48 241.213199 
L 439.190182 234.470539 
L 439.900364 226.003055 
L 440.610545 228.704498 
L 441.320727 231.884018 
L 442.030909 233.329956 
L 442.741091 234.267665 
L 443.451273 239.109391 
L 444.161455 239.502675 
L 444.871636 244.729091 
L 445.581818 242.217245 
L 446.292 242.67918 
L 447.002182 244.229506 
L 447.712364 250.226223 
L 448.422545 254.307658 
L 449.132727 255.920227 
L 450.553091 256.981352 
L 451.263273 259.890175 
L 451.973455 257.192446 
L 452.683636 253.677535 
L 453.393818 259.265583 
L 454.104 255.176382 
L 454.814182 254.206327 
L 455.524364 257.588639 
L 456.234545 258.119417 
L 457.654909 246.084276 
L 458.365091 251.703158 
L 459.075273 249.985305 
L 459.785455 247.567082 
L 460.495636 248.384784 
L 461.205818 245.816856 
L 461.916 240.200797 
L 462.626182 236.93644 
L 463.336364 239.302482 
L 464.046545 237.850005 
L 464.756727 236.952207 
L 465.466909 236.817876 
L 466.177091 237.091958 
L 466.887273 242.755031 
L 467.597455 243.000343 
L 468.307636 242.424635 
L 469.017818 253.08865 
L 469.728 248.850709 
L 470.438182 247.141035 
L 471.148364 242.120305 
L 471.858545 246.724487 
L 473.278909 243.905731 
L 473.989091 241.081218 
L 474.699273 242.791972 
L 475.409455 247.232022 
L 476.119636 248.015096 
L 476.829818 251.987094 
L 477.54 251.641148 
L 478.250182 247.444871 
L 478.960364 247.681696 
L 479.670545 244.169075 
L 480.380727 246.413576 
L 481.090909 251.125454 
L 481.801091 251.732006 
L 482.511273 250.684415 
L 483.221455 241.424758 
L 483.931636 241.605771 
L 485.352 234.742607 
L 486.062182 238.753279 
L 486.772364 241.030754 
L 487.482545 246.879678 
L 488.192727 244.345777 
L 488.902909 242.286227 
L 489.613091 246.982662 
L 490.323273 241.523887 
L 491.033455 236.942065 
L 491.743636 230.518234 
L 492.453818 235.24391 
L 493.164 233.921822 
L 493.874182 239.97576 
L 494.584364 248.833486 
L 495.294545 250.276245 
L 496.004727 250.326045 
L 496.714909 258.035986 
L 497.425091 258.041262 
L 498.135273 258.269742 
L 498.845455 255.28 
L 499.555636 261.538629 
L 500.265818 264.902766 
L 500.976 258.358076 
L 502.396364 249.094537 
L 503.106545 251.926746 
L 503.816727 251.812135 
L 504.526909 247.785173 
L 505.237091 248.063343 
L 505.947273 250.804805 
L 506.657455 249.912244 
L 507.367636 253.109286 
L 508.077818 251.428786 
L 508.788 249.293462 
L 509.498182 233.727975 
L 510.208364 231.938101 
L 510.918545 236.158525 
L 511.628727 238.964294 
L 512.338909 244.305635 
L 513.049091 241.365638 
L 513.759273 237.738688 
L 514.469455 232.229183 
L 515.889818 227.078271 
L 516.6 228.433933 
L 517.310182 221.831808 
L 518.020364 220.674786 
L 518.730545 218.834207 
L 519.440727 223.309038 
L 520.861091 229.405208 
L 521.571273 224.790474 
L 522.281455 223.940404 
L 522.991636 228.665697 
L 523.701818 234.445894 
L 524.412 236.291743 
L 525.122182 234.23539 
L 525.832364 230.449038 
L 527.962909 247.276341 
L 528.673091 250.504647 
L 529.383273 248.079591 
L 530.093455 251.119575 
L 530.803636 252.344464 
L 531.513818 253.985578 
L 532.224 247.197254 
L 532.934182 252.354929 
L 533.644364 251.042269 
L 534.354545 247.717801 
L 535.064727 256.001756 
L 535.774909 255.764575 
L 536.485091 253.134636 
L 537.195273 254.488764 
L 537.905455 257.412744 
L 538.615636 252.628193 
L 540.036 250.725344 
L 540.746182 242.082718 
L 541.456364 239.22398 
L 542.166545 229.947485 
L 542.876727 225.074052 
L 543.586909 218.098175 
L 544.297091 216.161413 
L 545.007273 219.62367 
L 545.717455 228.06522 
L 546.427636 230.574489 
L 547.137818 226.768997 
L 548.558182 233.875697 
L 549.268364 227.435972 
L 549.978545 226.13058 
L 550.688727 223.951981 
L 551.398909 227.972623 
L 552.109091 238.689453 
L 552.819273 235.747962 
L 553.529455 231.809514 
L 554.239636 234.212991 
L 554.949818 232.780077 
L 555.66 231.880352 
L 556.370182 232.315956 
L 557.080364 227.318818 
L 557.790545 220.376246 
L 558.500727 223.62855 
L 559.210909 222.9315 
L 559.921091 224.439515 
L 560.631273 230.999154 
L 561.341455 232.439988 
L 562.051636 235.330336 
L 562.761818 233.86031 
L 563.472 245.248819 
L 564.182182 238.182941 
L 564.892364 240.366389 
L 565.602545 237.714805 
L 566.312727 248.13677 
L 567.022909 241.189426 
L 568.443273 243.387907 
L 569.153455 250.175715 
L 569.863636 249.33424 
L 570.573818 246.478338 
L 571.284 255.124028 
L 571.994182 252.6504 
L 572.704364 252.815501 
L 573.414545 253.484046 
L 574.124727 250.865654 
L 574.834909 258.657009 
L 575.545091 250.540075 
L 576.255273 243.917 
L 576.965455 245.30378 
L 577.675636 240.738832 
L 578.385818 241.81652 
L 579.096 232.178809 
L 579.806182 230.899855 
L 580.516364 233.697624 
L 581.226545 229.638083 
L 581.936727 224.744421 
L 582.646909 227.721605 
L 583.357091 230.053661 
L 584.067273 236.465863 
L 584.777455 245.894624 
L 585.487636 246.497566 
L 586.197818 245.340275 
L 586.908 245.38212 
L 587.618182 244.613445 
L 588.328364 247.275205 
L 589.038545 242.264645 
L 589.748727 246.202219 
L 590.458909 246.290389 
L 591.169091 248.157051 
L 591.879273 243.131465 
L 592.589455 235.291798 
L 593.299636 241.379513 
L 594.009818 249.075445 
L 594.72 245.885987 
L 595.430182 241.059578 
L 596.140364 241.047178 
L 596.850545 239.133525 
L 597.560727 242.988892 
L 598.270909 238.485409 
L 599.691273 231.563877 
L 600.401455 232.426605 
L 601.111636 236.970553 
L 601.821818 236.851663 
L 602.532 238.805658 
L 603.242182 235.18661 
L 604.662545 242.541433 
L 605.372727 245.457037 
L 606.082909 243.78026 
L 606.793091 240.712224 
L 607.503273 238.210158 
L 608.213455 250.333892 
L 608.923636 246.064841 
L 609.633818 244.611597 
L 610.344 241.066641 
L 611.054182 248.610339 
L 611.764364 240.288123 
L 613.184727 239.806651 
L 613.894909 242.153102 
L 614.605091 240.218142 
L 615.315273 246.260759 
L 616.025455 242.212296 
L 616.735636 239.766556 
L 617.445818 242.387467 
L 618.156 249.482641 
L 618.866182 255.095247 
L 619.576364 264.231155 
L 620.286545 268.173897 
L 620.996727 260.215437 
L 621.706909 259.933892 
L 622.417091 261.914254 
L 623.127273 261.043279 
L 623.837455 261.498711 
L 624.547636 265.280271 
L 625.257818 267.527638 
L 625.968 261.780549 
L 626.678182 270.278716 
L 627.388364 268.645371 
L 628.098545 270.574602 
L 628.808727 269.357624 
L 629.518909 260.210464 
L 630.229091 260.894382 
L 630.939273 262.564334 
L 631.649455 258.740429 
L 632.359636 269.251877 
L 633.069818 268.734565 
L 633.78 279.267955 
L 634.490182 277.268914 
L 635.200364 280.056812 
L 635.910545 281.376229 
L 636.620727 287.73495 
L 637.330909 290.979439 
L 638.041091 300.715986 
L 638.751273 292.089121 
L 639.461455 290.332603 
L 640.171636 291.519675 
L 640.881818 295.203377 
L 641.592 295.632112 
L 642.302182 295.738437 
L 643.012364 296.97997 
L 643.722545 299.727528 
L 644.432727 293.835344 
L 645.142909 295.336048 
L 645.853091 291.17051 
L 646.563273 293.827449 
L 647.273455 295.756319 
L 648.693818 291.909546 
L 649.404 291.567317 
L 650.114182 289.883327 
L 650.824364 292.761666 
L 651.534545 292.436433 
L 652.244727 288.857863 
L 652.954909 291.646473 
L 653.665091 288.731403 
L 654.375273 281.914816 
L 655.085455 285.785598 
L 655.795636 285.873876 
L 656.505818 283.621623 
L 657.216 280.359437 
L 657.926182 275.791273 
L 658.636364 274.541348 
L 659.346545 268.930806 
L 660.056727 267.554401 
L 660.766909 271.281497 
L 662.187273 265.757808 
L 662.897455 256.541831 
L 663.607636 254.687727 
L 664.317818 261.78076 
L 665.028 258.584745 
L 665.738182 256.995226 
L 666.448364 259.469673 
L 667.158545 265.003896 
L 667.868727 267.544199 
L 668.578909 268.700233 
L 669.289091 275.185482 
L 669.999273 271.059325 
L 670.709455 272.772394 
L 671.419636 270.848529 
L 672.129818 261.525274 
L 672.84 258.970818 
L 673.550182 251.450947 
L 674.260364 248.806271 
L 674.970545 245.443014 
L 675.680727 245.060577 
L 676.390909 257.697234 
L 677.811273 251.730598 
L 678.521455 253.593097 
L 679.231636 256.224042 
L 679.941818 251.08622 
L 680.652 254.181639 
L 681.362182 256.655346 
L 682.782545 263.019694 
L 683.492727 266.410119 
L 684.202909 271.534315 
L 684.913091 272.533025 
L 685.623273 273.045181 
L 686.333455 274.684804 
L 687.043636 276.620319 
L 687.753818 277.484378 
L 688.464 282.700619 
L 689.174182 276.266603 
L 689.884364 273.994488 
L 690.594545 269.657709 
L 691.304727 269.670638 
L 692.014909 269.09922 
L 693.435273 283.121789 
L 694.145455 286.053403 
L 694.855636 287.956884 
L 695.565818 287.094581 
L 696.276 288.678082 
L 696.986182 293.006313 
L 697.696364 295.093533 
L 698.406545 297.563971 
L 699.116727 301.969738 
L 699.826909 297.902949 
L 700.537091 296.704313 
L 701.247273 302.852606 
L 701.957455 298.028156 
L 702.667636 299.595808 
L 703.377818 298.003783 
L 704.088 295.706398 
L 704.798182 300.078909 
L 705.508364 290.053403 
L 706.218545 287.088165 
L 706.928727 286.6942 
L 707.638909 286.043921 
L 708.349091 280.936793 
L 709.059273 279.409497 
L 709.769455 289.122606 
L 710.479636 289.042894 
L 711.189818 291.824332 
L 711.9 289.146723 
L 712.610182 290.806785 
L 713.320364 294.104662 
L 714.030545 294.795751 
L 714.740727 302.648343 
L 716.161091 299.894349 
L 716.871273 302.492395 
L 717.581455 309.615999 
L 718.291636 310.244437 
L 719.001818 311.81049 
L 719.712 316.323226 
L 720.422182 311.429741 
L 721.132364 310.900035 
L 721.842545 305.351188 
L 722.552727 308.732205 
L 723.262909 309.621286 
L 723.973091 316.207696 
L 724.683273 317.643009 
L 725.393455 316.348141 
L 726.103636 319.07962 
L 726.813818 313.405032 
L 727.524 316.025452 
L 728.234182 320.325628 
L 728.944364 316.116983 
L 729.654545 316.792817 
L 730.364727 314.665039 
L 731.074909 305.362456 
L 731.785091 306.56853 
L 733.915636 291.660392 
L 734.625818 290.605772 
L 735.336 298.108894 
L 736.046182 293.000808 
L 736.756364 291.525292 
L 737.466545 298.341465 
L 738.176727 298.257749 
L 738.886909 302.504674 
L 739.597091 302.42521 
L 740.307273 291.222038 
L 741.017455 289.486745 
L 741.727636 291.478837 
L 742.437818 288.325258 
L 743.148 290.12319 
L 743.858182 289.589506 
L 744.568364 287.159033 
L 745.278545 291.323612 
L 745.988727 286.504644 
L 746.698909 291.755588 
L 748.119273 284.613612 
L 748.829455 283.868068 
L 749.539636 288.373731 
L 750.96 291.819093 
L 751.670182 286.802781 
L 752.380364 284.695999 
L 753.090545 283.294002 
L 753.800727 280.315902 
L 754.510909 284.736267 
L 755.221091 282.894707 
L 755.931273 282.353099 
L 756.641455 281.960577 
L 757.351636 278.01629 
L 758.061818 279.35123 
L 758.772 287.643751 
L 759.482182 285.328283 
L 760.192364 284.65198 
L 760.902545 288.656149 
L 761.612727 289.988903 
L 762.322909 289.117422 
L 763.033091 291.503012 
L 763.743273 288.319219 
L 764.453455 284.468813 
L 765.163636 287.74829 
L 765.873818 281.372214 
L 766.584 280.930618 
L 767.294182 277.222181 
L 768.004364 268.617712 
L 768.714545 266.457146 
L 769.424727 265.969623 
L 770.134909 265.665527 
L 770.845091 260.401773 
L 772.265455 254.311061 
L 772.975636 243.859707 
L 773.685818 245.18118 
L 774.396 245.01578 
L 775.106182 241.591434 
L 775.816364 234.979321 
L 776.526545 231.378803 
L 777.236727 223.345323 
L 777.946909 225.48104 
L 779.367273 216.90415 
L 780.077455 214.467332 
L 780.787636 226.669216 
L 781.497818 220.821704 
L 782.208 222.984184 
L 782.918182 231.209889 
L 783.628364 234.419336 
L 784.338545 247.093987 
L 785.048727 241.77139 
L 785.758909 242.836846 
L 786.469091 248.749917 
L 787.179273 242.529203 
L 787.889455 246.837633 
L 788.599636 247.387313 
L 789.309818 249.314049 
L 790.02 247.706817 
L 790.730182 242.512012 
L 791.440364 243.242686 
L 792.150545 240.373388 
L 792.860727 242.491101 
L 793.570909 240.630807 
L 794.281091 246.266003 
L 794.991273 248.467254 
L 795.701455 246.216852 
L 797.121818 237.983844 
L 797.832 225.197536 
L 798.542182 229.432685 
L 799.252364 227.938462 
L 799.962545 228.582248 
L 800.672727 231.635808 
L 801.382909 228.055108 
L 802.093091 230.738243 
L 802.803273 238.141747 
L 803.513455 232.710588 
L 804.223636 235.131399 
L 804.933818 239.988002 
L 805.644 235.836837 
L 806.354182 233.185575 
L 807.064364 238.623969 
L 807.774545 241.424523 
L 809.194909 248.409559 
L 809.905091 252.725386 
L 810.615273 251.319617 
L 811.325455 254.989869 
L 812.035636 249.861089 
L 812.745818 247.650227 
L 813.456 241.161428 
L 814.166182 241.328071 
L 814.876364 248.123424 
L 815.586545 246.651985 
L 816.296727 243.416476 
L 817.006909 243.218301 
L 817.717091 244.342737 
L 818.427273 243.849379 
L 819.137455 238.846889 
L 819.847636 239.597077 
L 820.557818 235.560837 
L 821.268 236.487781 
L 821.978182 236.798258 
L 822.688364 232.97925 
L 823.398545 236.544496 
L 824.108727 236.854111 
L 824.818909 234.178682 
L 826.239273 239.021264 
L 826.949455 233.233614 
L 827.659636 229.212088 
L 828.369818 231.288858 
L 829.08 230.729968 
L 829.790182 238.063761 
L 830.500364 242.8872 
L 831.210545 233.846308 
L 831.920727 234.481604 
L 832.630909 235.799826 
L 833.341091 233.779782 
L 834.051273 235.861679 
L 834.761455 245.194165 
L 835.471636 245.777061 
L 836.181818 242.340115 
L 837.602182 250.864356 
L 838.312364 251.694703 
L 839.022545 256.205932 
L 839.732727 257.098811 
L 840.442909 250.969011 
L 841.153091 251.776752 
L 841.863273 248.077305 
L 842.573455 250.495712 
L 843.283636 257.255899 
L 843.993818 250.223876 
L 844.704 251.166689 
L 845.414182 254.768072 
L 846.124364 253.875173 
L 846.834545 256.071822 
L 847.544727 253.550006 
L 848.254909 252.081006 
L 848.965091 256.910165 
L 849.675273 254.47644 
L 850.385455 260.857157 
L 851.095636 259.105369 
L 851.805818 264.109574 
L 852.516 265.128917 
L 853.226182 267.255858 
L 853.936364 267.968988 
L 855.356727 272.493448 
L 856.066909 271.656408 
L 856.777091 275.007882 
L 857.487273 271.336427 
L 858.197455 276.158838 
L 858.907636 278.647577 
L 859.617818 283.62224 
L 860.328 281.066038 
L 861.038182 284.727975 
L 861.748364 292.336869 
L 862.458545 292.949455 
L 863.168727 297.607438 
L 863.878909 300.052741 
L 864.589091 299.668849 
L 865.299273 288.363482 
L 866.009455 289.718965 
L 866.719636 288.901353 
L 868.850182 299.836324 
L 869.560364 299.678492 
L 870.270545 289.988708 
L 870.980727 284.312992 
L 871.690909 283.904363 
L 871.690909 283.904363 
" clip-path="url(#p540a92ffcd)" style="fill: none; stroke: #1f77b4; stroke-width: 1.5; stroke-linecap: square"/>
   </g>
   <g id="line2d_13">
    <path d="M 161.509091 234.682115 
L 162.219273 237.232034 
L 162.929455 243.270116 
L 163.639636 244.466383 
L 164.349818 248.045058 
L 165.06 254.186903 
L 165.770182 254.496645 
L 166.480364 249.809969 
L 167.190545 251.089077 
L 167.900727 249.437934 
L 168.610909 255.839079 
L 169.321091 258.055988 
L 170.031273 256.477884 
L 170.741455 257.878809 
L 171.451636 262.38336 
L 172.161818 269.08232 
L 172.872 263.774911 
L 173.582182 267.934656 
L 174.292364 264.449532 
L 175.002545 265.389403 
L 175.712727 277.947532 
L 176.422909 285.655134 
L 177.133091 285.494001 
L 177.843273 281.290767 
L 178.553455 297.475819 
L 179.263636 284.972943 
L 179.973818 281.961976 
L 180.684 275.852984 
L 182.104364 277.073524 
L 182.814545 279.264496 
L 184.945091 261.502863 
L 185.655273 259.037793 
L 186.365455 272.258054 
L 187.075636 263.702393 
L 187.785818 277.324134 
L 188.496 284.72925 
L 189.206182 267.174993 
L 189.916364 273.161976 
L 190.626545 269.977125 
L 191.336727 268.896631 
L 192.046909 261.583909 
L 192.757091 256.233807 
L 193.467273 252.77712 
L 194.177455 252.365164 
L 194.887636 246.633741 
L 195.597818 249.386297 
L 196.308 246.85484 
L 197.018182 247.559426 
L 197.728364 240.908769 
L 198.438545 245.616144 
L 199.148727 237.140473 
L 199.858909 234.40224 
L 200.569091 240.302054 
L 201.279273 234.593372 
L 201.989455 242.591099 
L 204.12 254.396731 
L 204.830182 250.138208 
L 205.540364 250.143337 
L 206.960727 264.275158 
L 207.670909 262.267321 
L 208.381091 271.23988 
L 209.091273 266.072094 
L 209.801455 263.749467 
L 211.221818 270.663997 
L 211.932 274.268415 
L 212.642182 269.505965 
L 214.062545 281.766538 
L 214.772727 276.106651 
L 215.482909 266.836445 
L 216.193091 268.330883 
L 216.903273 261.058705 
L 217.613455 259.18484 
L 218.323636 252.929959 
L 219.033818 261.160181 
L 220.454182 248.666325 
L 221.164364 229.469167 
L 221.874545 227.421277 
L 222.584727 231.198421 
L 223.294909 245.006468 
L 224.715273 248.913885 
L 225.425455 255.866925 
L 226.135636 256.650166 
L 226.845818 246.613355 
L 227.556 228.812525 
L 228.266182 220.627606 
L 228.976364 217.947802 
L 230.396727 237.158683 
L 231.106909 236.295946 
L 231.817091 223.995809 
L 232.527273 215.656598 
L 233.237455 222.961663 
L 233.947636 219.640969 
L 234.657818 222.107508 
L 235.368 221.795241 
L 236.078182 225.011726 
L 236.788364 242.533007 
L 237.498545 241.470142 
L 238.208727 237.451138 
L 238.918909 235.089706 
L 239.629091 229.605332 
L 240.339273 228.995709 
L 241.759636 221.300669 
L 242.469818 219.911077 
L 243.18 223.181928 
L 243.890182 224.284892 
L 244.600364 228.835497 
L 245.310545 228.719353 
L 246.020727 216.062444 
L 246.730909 224.339532 
L 247.441091 219.304842 
L 248.151273 220.644021 
L 248.861455 216.84937 
L 249.571636 217.077877 
L 250.281818 226.702125 
L 250.992 228.174274 
L 251.702182 231.004618 
L 252.412364 232.997456 
L 253.122545 230.099721 
L 253.832727 230.215886 
L 254.542909 231.343182 
L 255.253091 228.177356 
L 255.963273 225.730021 
L 256.673455 212.078134 
L 257.383636 216.330247 
L 258.093818 204.530542 
L 258.804 209.898449 
L 259.514182 201.850173 
L 260.224364 208.053187 
L 260.934545 207.051951 
L 261.644727 206.904808 
L 262.354909 204.362726 
L 263.065091 194.966402 
L 263.775273 200.803481 
L 264.485455 200.84489 
L 265.195636 201.130137 
L 265.905818 209.887243 
L 266.616 213.127116 
L 267.326182 204.361082 
L 268.036364 201.780115 
L 268.746545 199.77549 
L 269.456727 201.228035 
L 270.166909 209.915283 
L 270.877091 211.297964 
L 271.587273 222.493589 
L 272.297455 222.482018 
L 273.007636 222.03123 
L 273.717818 221.177815 
L 274.428 219.796227 
L 275.138182 218.704392 
L 275.848364 219.078929 
L 276.558545 216.804131 
L 277.268727 217.874042 
L 277.978909 223.270468 
L 278.689091 223.537479 
L 279.399273 225.388205 
L 280.109455 220.76875 
L 280.819636 224.458475 
L 281.529818 216.453766 
L 282.24 217.390808 
L 282.950182 217.424124 
L 283.660364 217.658396 
L 284.370545 206.636165 
L 285.080727 208.544672 
L 285.790909 211.028745 
L 286.501091 205.731743 
L 287.211273 203.904861 
L 287.921455 209.903802 
L 288.631636 213.96255 
L 289.341818 208.712028 
L 290.052 204.56517 
L 290.762182 202.229852 
L 291.472364 204.909177 
L 292.182545 211.0301 
L 292.892727 197.332136 
L 293.602909 197.773534 
L 295.023273 192.47279 
L 295.733455 185.719066 
L 296.443636 191.406634 
L 297.153818 187.273703 
L 297.864 184.498257 
L 298.574182 183.197375 
L 299.284364 177.743359 
L 299.994545 185.393865 
L 300.704727 183.462948 
L 301.414909 177.140933 
L 302.125091 181.604298 
L 302.835273 178.248654 
L 303.545455 181.216237 
L 304.255636 177.377797 
L 304.965818 179.483806 
L 305.676 175.731676 
L 306.386182 170.052761 
L 307.096364 165.584649 
L 307.806545 169.634425 
L 308.516727 159.094777 
L 309.226909 158.283195 
L 309.937091 147.436242 
L 310.647273 140.901824 
L 311.357455 141.44667 
L 312.067636 136.66542 
L 312.777818 138.182414 
L 313.488 125.360795 
L 314.198182 121.863611 
L 314.908364 131.941901 
L 315.618545 132.606688 
L 316.328727 138.958873 
L 317.038909 143.861572 
L 317.749091 147.660474 
L 318.459273 149.870995 
L 319.169455 144.545794 
L 319.879636 142.327817 
L 322.010182 129.30527 
L 322.720364 128.448996 
L 323.430545 135.986404 
L 324.140727 138.014287 
L 324.850909 133.502008 
L 325.561091 127.46916 
L 326.271273 124.931522 
L 326.981455 119.070566 
L 327.691636 125.591953 
L 328.401818 122.483974 
L 329.112 128.31428 
L 329.822182 128.706649 
L 330.532364 125.615788 
L 331.242545 123.7548 
L 331.952727 122.39535 
L 332.662909 116.103767 
L 333.373091 115.347963 
L 334.083273 111.146684 
L 334.793455 110.511637 
L 335.503636 112.73695 
L 336.213818 113.633073 
L 336.924 112.355026 
L 337.634182 117.528497 
L 338.344364 107.674953 
L 339.054545 101.165237 
L 339.764727 100.02392 
L 340.474909 100.794466 
L 341.185091 98.488094 
L 342.605455 119.112837 
L 343.315636 122.810136 
L 344.025818 128.029032 
L 344.736 118.627084 
L 345.446182 121.090403 
L 346.156364 115.720777 
L 346.866545 117.099734 
L 347.576727 122.545608 
L 348.286909 126.012476 
L 349.707273 112.869265 
L 350.417455 120.239991 
L 351.127636 116.898636 
L 351.837818 107.513666 
L 352.548 127.259673 
L 353.258182 123.77227 
L 353.968364 125.990463 
L 354.678545 125.009374 
L 355.388727 126.127274 
L 356.098909 127.58875 
L 356.809091 133.360866 
L 357.519273 135.085628 
L 358.229455 130.857171 
L 358.939636 131.377044 
L 359.649818 136.742708 
L 360.36 135.515682 
L 361.070182 137.469861 
L 361.780364 137.634736 
L 362.490545 132.220527 
L 363.200727 123.647276 
L 363.910909 132.266941 
L 364.621091 139.248008 
L 365.331273 136.418517 
L 366.041455 131.482001 
L 366.751636 135.21952 
L 367.461818 135.128172 
L 368.172 141.768388 
L 368.882182 139.73586 
L 369.592364 144.252298 
L 370.302545 141.848483 
L 371.012727 134.492307 
L 371.722909 144.472895 
L 372.433091 143.039081 
L 373.143273 145.885176 
L 373.853455 143.034655 
L 374.563636 148.847764 
L 375.273818 148.471326 
L 375.984 150.283574 
L 376.694182 149.518026 
L 377.404364 155.552698 
L 378.114545 157.450842 
L 378.824727 149.454982 
L 379.534909 147.265586 
L 380.955273 136.281567 
L 381.665455 140.567082 
L 382.375636 139.14893 
L 383.085818 133.933474 
L 383.796 131.183536 
L 385.216364 144.861563 
L 385.926545 157.039219 
L 386.636727 156.052172 
L 387.346909 149.855052 
L 388.057091 137.309054 
L 388.767273 132.457366 
L 390.187636 145.861418 
L 390.897818 145.475931 
L 391.608 153.04091 
L 392.318182 137.360446 
L 393.028364 132.341086 
L 394.448727 145.031413 
L 395.158909 140.317409 
L 395.869091 138.758625 
L 396.579273 138.997364 
L 397.289455 137.837478 
L 397.999636 131.065874 
L 398.709818 126.220074 
L 399.42 119.459671 
L 400.130182 122.323761 
L 400.840364 121.246678 
L 401.550545 116.213145 
L 402.260727 114.795107 
L 402.970909 105.125683 
L 403.681091 106.171447 
L 404.391273 108.023639 
L 405.101455 95.407809 
L 405.811636 96.335512 
L 406.521818 98.957645 
L 407.232 99.735889 
L 407.942182 107.551531 
L 408.652364 107.364714 
L 409.362545 116.602271 
L 410.072727 121.315077 
L 410.782909 121.095849 
L 412.203273 115.223788 
L 412.913455 115.116791 
L 413.623636 104.657762 
L 414.333818 103.122254 
L 415.044 100.69166 
L 415.754182 108.711242 
L 416.464364 112.026665 
L 417.174545 118.225209 
L 417.884727 122.411132 
L 418.594909 120.84291 
L 419.305091 113.331024 
L 420.725455 107.007463 
L 421.435636 105.280743 
L 422.145818 108.054491 
L 422.856 106.142525 
L 423.566182 94.699464 
L 424.276364 90.025656 
L 424.986545 90.518267 
L 425.696727 78.442762 
L 426.406909 84.460727 
L 427.117091 84.553113 
L 427.827273 78.767824 
L 428.537455 66.96 
L 429.247636 77.163248 
L 429.957818 80.764412 
L 430.668 80.152681 
L 431.378182 81.071131 
L 432.088364 76.80568 
L 434.218909 104.906962 
L 434.929091 124.10447 
L 435.639273 118.751638 
L 436.349455 118.672211 
L 437.059636 106.88094 
L 437.769818 103.849591 
L 438.48 106.715119 
L 439.190182 100.099493 
L 439.900364 88.499194 
L 440.610545 96.464928 
L 441.320727 88.266329 
L 442.030909 87.6342 
L 442.741091 91.758509 
L 443.451273 102.873455 
L 444.161455 103.818078 
L 444.871636 115.902551 
L 445.581818 121.689694 
L 446.292 113.637715 
L 447.002182 117.192982 
L 447.712364 117.004461 
L 449.132727 132.898468 
L 449.842909 128.26469 
L 450.553091 129.425436 
L 451.263273 141.751034 
L 451.973455 139.381498 
L 452.683636 128.68475 
L 453.393818 127.38611 
L 454.104 121.353298 
L 454.814182 119.33741 
L 455.524364 116.417204 
L 456.234545 116.7338 
L 456.944727 104.280753 
L 457.654909 100.943799 
L 458.365091 101.616888 
L 459.075273 98.558176 
L 459.785455 101.713481 
L 460.495636 103.214056 
L 461.205818 97.380996 
L 461.916 93.4891 
L 462.626182 88.213836 
L 463.336364 91.309421 
L 464.046545 80.180605 
L 464.756727 85.812898 
L 465.466909 89.355184 
L 466.177091 88.168034 
L 466.887273 95.090963 
L 467.597455 92.606577 
L 468.307636 93.737246 
L 469.017818 105.311317 
L 471.148364 76.363468 
L 471.858545 89.574843 
L 472.568727 88.460441 
L 473.278909 82.118787 
L 473.989091 79.869689 
L 474.699273 78.039627 
L 475.409455 87.405745 
L 476.119636 87.587687 
L 476.829818 98.510862 
L 477.54 98.514808 
L 478.250182 96.523122 
L 478.960364 96.846879 
L 479.670545 94.722524 
L 480.380727 102.80457 
L 481.090909 102.66233 
L 481.801091 103.32415 
L 482.511273 104.535572 
L 483.221455 96.127184 
L 483.931636 98.222408 
L 484.641818 95.896335 
L 485.352 85.010998 
L 486.062182 94.028769 
L 486.772364 100.378746 
L 487.482545 109.869926 
L 488.192727 112.533504 
L 488.902909 103.827108 
L 489.613091 111.864909 
L 490.323273 114.063354 
L 491.033455 114.790375 
L 491.743636 101.111976 
L 493.164 103.15322 
L 493.874182 111.888518 
L 494.584364 124.043026 
L 495.294545 129.594668 
L 496.004727 133.679868 
L 496.714909 142.014779 
L 497.425091 138.284408 
L 498.135273 141.263818 
L 498.845455 137.367559 
L 499.555636 141.539474 
L 500.265818 141.464469 
L 500.976 137.833675 
L 501.686182 137.012129 
L 502.396364 131.666646 
L 503.106545 142.120286 
L 503.816727 146.031032 
L 504.526909 146.700421 
L 505.237091 146.965831 
L 505.947273 144.74129 
L 506.657455 153.6789 
L 507.367636 157.915494 
L 508.077818 157.987788 
L 508.788 158.900402 
L 509.498182 150.239677 
L 510.208364 144.645551 
L 510.918545 153.673469 
L 511.628727 154.08157 
L 512.338909 163.910437 
L 513.759273 156.727255 
L 514.469455 159.118264 
L 515.179636 155.150374 
L 515.889818 153.36066 
L 516.6 153.47495 
L 517.310182 145.950519 
L 518.020364 142.882419 
L 518.730545 140.686541 
L 520.150909 156.636592 
L 520.861091 154.131375 
L 521.571273 144.08359 
L 522.281455 139.900109 
L 522.991636 146.447424 
L 523.701818 146.483101 
L 524.412 146.078909 
L 525.122182 138.694003 
L 525.832364 133.708162 
L 526.542545 138.058994 
L 527.962909 153.229059 
L 528.673091 152.048889 
L 529.383273 153.655733 
L 530.093455 163.034462 
L 530.803636 155.439418 
L 531.513818 163.600193 
L 532.224 157.30179 
L 532.934182 172.506701 
L 533.644364 175.123814 
L 534.354545 179.579685 
L 535.064727 190.24516 
L 535.774909 190.059659 
L 536.485091 187.118052 
L 537.195273 192.371598 
L 537.905455 189.660184 
L 538.615636 178.119231 
L 539.325818 173.23235 
L 540.036 174.99141 
L 541.456364 160.735285 
L 542.166545 143.623903 
L 542.876727 143.367757 
L 543.586909 140.285201 
L 544.297091 140.897234 
L 545.007273 148.515286 
L 545.717455 157.550562 
L 546.427636 155.9332 
L 547.137818 153.806714 
L 547.848 157.195992 
L 548.558182 154.045346 
L 549.268364 149.863575 
L 549.978545 140.786862 
L 550.688727 137.42616 
L 551.398909 146.074727 
L 552.109091 149.910292 
L 552.819273 151.615347 
L 553.529455 147.475243 
L 554.239636 152.598846 
L 554.949818 153.040997 
L 555.66 154.011839 
L 556.370182 151.083881 
L 557.080364 152.60188 
L 557.790545 144.528352 
L 558.500727 154.832283 
L 559.210909 159.04138 
L 559.921091 170.249947 
L 560.631273 167.640657 
L 561.341455 163.47608 
L 562.051636 170.926664 
L 562.761818 164.091822 
L 563.472 181.483832 
L 564.182182 184.392362 
L 564.892364 185.03273 
L 565.602545 192.747392 
L 566.312727 202.673869 
L 567.022909 200.61743 
L 567.733091 207.04226 
L 568.443273 210.6255 
L 569.153455 215.127519 
L 570.573818 203.330354 
L 571.284 215.476446 
L 571.994182 210.732708 
L 572.704364 210.271236 
L 573.414545 212.053799 
L 574.124727 204.411616 
L 574.834909 214.989354 
L 576.255273 201.516214 
L 576.965455 199.106108 
L 577.675636 199.403692 
L 578.385818 198.966531 
L 579.096 183.797748 
L 579.806182 179.62174 
L 580.516364 187.533639 
L 581.226545 179.918252 
L 581.936727 182.685997 
L 582.646909 175.649002 
L 583.357091 184.076826 
L 584.067273 188.169434 
L 585.487636 200.894928 
L 586.197818 194.713786 
L 586.908 201.01995 
L 587.618182 198.610551 
L 588.328364 201.523878 
L 589.038545 189.367458 
L 589.748727 189.165814 
L 590.458909 180.882395 
L 591.169091 188.262598 
L 591.879273 186.052337 
L 592.589455 178.217128 
L 593.299636 184.968604 
L 594.009818 198.317779 
L 594.72 200.724351 
L 595.430182 196.058054 
L 596.140364 189.440336 
L 596.850545 190.697017 
L 597.560727 186.24487 
L 598.270909 179.47454 
L 598.981091 176.143418 
L 599.691273 166.045202 
L 600.401455 172.85815 
L 601.111636 181.640563 
L 601.821818 179.778397 
L 602.532 181.647517 
L 603.242182 173.110819 
L 603.952364 177.343883 
L 605.372727 182.168702 
L 606.082909 170.038661 
L 606.793091 168.326114 
L 607.503273 167.221209 
L 608.213455 173.958688 
L 608.923636 174.037589 
L 609.633818 173.001804 
L 610.344 175.63015 
L 611.054182 177.603843 
L 611.764364 167.267694 
L 613.184727 179.194934 
L 613.894909 179.870593 
L 614.605091 173.921588 
L 615.315273 175.6347 
L 616.025455 170.230181 
L 616.735636 169.565345 
L 617.445818 177.62824 
L 618.156 187.75509 
L 618.866182 196.0995 
L 619.576364 200.735787 
L 620.286545 202.655822 
L 620.996727 194.723529 
L 621.706909 191.208598 
L 622.417091 194.50494 
L 623.127273 195.165529 
L 623.837455 197.367298 
L 624.547636 200.078445 
L 625.257818 197.539939 
L 625.968 188.972129 
L 626.678182 197.237277 
L 627.388364 197.641151 
L 628.098545 198.237681 
L 628.808727 193.903889 
L 629.518909 179.266968 
L 630.229091 177.404417 
L 630.939273 179.633926 
L 631.649455 177.839019 
L 632.359636 179.656822 
L 633.069818 172.479761 
L 633.78 188.472069 
L 634.490182 185.887469 
L 635.200364 185.743908 
L 635.910545 187.818682 
L 637.330909 197.01005 
L 638.041091 213.793722 
L 638.751273 199.894446 
L 639.461455 192.132578 
L 640.171636 197.42781 
L 640.881818 198.357125 
L 642.302182 191.099033 
L 643.012364 188.277407 
L 643.722545 190.101455 
L 644.432727 183.228914 
L 645.142909 192.063394 
L 645.853091 182.223831 
L 646.563273 184.243796 
L 647.273455 180.789822 
L 647.983636 176.186464 
L 649.404 161.94926 
L 650.114182 164.121333 
L 650.824364 173.253478 
L 651.534545 171.840035 
L 652.244727 168.040917 
L 652.954909 176.128347 
L 653.665091 170.245695 
L 654.375273 162.891495 
L 655.085455 164.661481 
L 655.795636 162.435667 
L 656.505818 157.610806 
L 657.216 159.443809 
L 657.926182 147.113862 
L 658.636364 149.836826 
L 659.346545 147.940803 
L 660.056727 148.610276 
L 660.766909 147.906256 
L 661.477091 143.632668 
L 662.187273 138.143227 
L 662.897455 125.319067 
L 663.607636 118.80446 
L 664.317818 126.288697 
L 665.028 126.509198 
L 665.738182 128.061925 
L 666.448364 133.413262 
L 667.158545 134.815609 
L 667.868727 135.9301 
L 668.578909 137.349302 
L 669.289091 146.090378 
L 669.999273 139.645269 
L 671.419636 146.795357 
L 672.129818 135.609209 
L 672.84 138.239238 
L 673.550182 131.315954 
L 674.260364 129.023243 
L 674.970545 126.046616 
L 675.680727 128.997714 
L 676.390909 139.563415 
L 677.101091 143.149417 
L 677.811273 149.609282 
L 678.521455 151.316014 
L 679.231636 147.876394 
L 679.941818 142.690891 
L 680.652 139.860602 
L 681.362182 143.122487 
L 682.072364 150.0704 
L 682.782545 147.947986 
L 683.492727 151.650066 
L 684.202909 158.081052 
L 684.913091 161.003221 
L 685.623273 164.425859 
L 686.333455 168.812421 
L 687.043636 175.758805 
L 687.753818 177.358148 
L 688.464 183.791247 
L 689.174182 185.620513 
L 689.884364 183.74288 
L 690.594545 181.023501 
L 691.304727 181.525422 
L 692.014909 183.323629 
L 692.725091 194.051575 
L 693.435273 197.787748 
L 694.145455 204.150234 
L 694.855636 201.758746 
L 696.276 194.472396 
L 696.986182 202.309222 
L 697.696364 197.085278 
L 698.406545 197.880836 
L 699.116727 207.509766 
L 700.537091 198.418349 
L 701.247273 194.212308 
L 701.957455 194.467952 
L 702.667636 197.875209 
L 703.377818 199.680893 
L 704.798182 213.282141 
L 705.508364 202.945988 
L 706.218545 203.606439 
L 706.928727 206.585883 
L 707.638909 205.889887 
L 708.349091 202.478941 
L 709.059273 208.562407 
L 709.769455 225.110777 
L 710.479636 219.31246 
L 711.189818 214.447214 
L 712.610182 209.415944 
L 713.320364 210.141968 
L 714.030545 206.554394 
L 714.740727 221.007705 
L 715.450909 222.492068 
L 716.161091 222.92154 
L 716.871273 225.478504 
L 717.581455 227.542795 
L 718.291636 226.737701 
L 719.001818 214.188621 
L 719.712 219.058301 
L 720.422182 217.122978 
L 721.132364 217.917613 
L 721.842545 208.675849 
L 722.552727 211.90076 
L 723.262909 216.860196 
L 723.973091 226.856765 
L 724.683273 229.605276 
L 725.393455 222.625115 
L 726.103636 227.691086 
L 726.813818 215.335759 
L 727.524 217.804221 
L 728.234182 227.972866 
L 728.944364 227.568933 
L 729.654545 226.282646 
L 730.364727 215.351753 
L 731.074909 201.255705 
L 731.785091 198.070842 
L 732.495273 192.409276 
L 733.205455 183.244644 
L 733.915636 177.781564 
L 734.625818 175.618132 
L 735.336 181.795741 
L 736.046182 177.816041 
L 736.756364 183.830389 
L 737.466545 192.792949 
L 738.176727 190.634389 
L 738.886909 191.419938 
L 739.597091 187.958081 
L 740.307273 179.08548 
L 741.017455 175.634057 
L 741.727636 184.610442 
L 742.437818 184.032629 
L 743.148 187.242774 
L 743.858182 193.875926 
L 744.568364 187.285055 
L 745.278545 190.348386 
L 745.988727 187.320756 
L 746.698909 190.268185 
L 747.409091 188.394221 
L 748.119273 187.195076 
L 748.829455 185.210071 
L 749.539636 198.265449 
L 750.249818 192.960872 
L 750.96 197.804542 
L 751.670182 190.237183 
L 753.090545 192.870378 
L 753.800727 183.542482 
L 755.221091 190.603714 
L 755.931273 191.847669 
L 756.641455 195.511638 
L 757.351636 192.058067 
L 758.772 215.515384 
L 759.482182 204.550498 
L 760.192364 203.895078 
L 760.902545 210.878624 
L 761.612727 212.794394 
L 762.322909 214.119148 
L 763.033091 216.155291 
L 763.743273 212.857163 
L 764.453455 201.592843 
L 765.163636 204.613426 
L 765.873818 204.380945 
L 766.584 200.764192 
L 768.004364 191.424516 
L 768.714545 188.264402 
L 770.134909 184.848153 
L 770.845091 175.799077 
L 771.555273 171.066743 
L 772.265455 165.163074 
L 772.975636 150.316156 
L 773.685818 151.089485 
L 774.396 155.386203 
L 775.106182 155.256288 
L 775.816364 146.966589 
L 776.526545 149.329045 
L 777.236727 147.27892 
L 777.946909 157.299534 
L 778.657091 153.537522 
L 779.367273 148.757482 
L 780.077455 151.171294 
L 780.787636 165.821967 
L 781.497818 154.37071 
L 782.208 156.020739 
L 782.918182 165.926435 
L 783.628364 165.913176 
L 784.338545 177.702416 
L 785.048727 178.020015 
L 785.758909 179.805273 
L 786.469091 186.22301 
L 787.179273 185.896724 
L 787.889455 192.560486 
L 788.599636 193.067918 
L 789.309818 194.373172 
L 790.02 192.698005 
L 790.730182 184.658723 
L 791.440364 189.815515 
L 792.150545 189.798804 
L 792.860727 188.003146 
L 793.570909 187.537943 
L 794.281091 190.123669 
L 794.991273 186.664001 
L 795.701455 188.838749 
L 796.411636 187.77381 
L 797.121818 184.177595 
L 797.832 173.492646 
L 798.542182 181.041381 
L 799.252364 178.188189 
L 799.962545 174.496865 
L 800.672727 173.560692 
L 801.382909 167.702995 
L 802.093091 160.361679 
L 802.803273 170.085717 
L 803.513455 157.553206 
L 804.223636 168.721642 
L 804.933818 177.222073 
L 805.644 169.872447 
L 806.354182 167.294859 
L 807.064364 172.725683 
L 807.774545 168.57756 
L 808.484727 167.468689 
L 809.194909 167.446263 
L 809.905091 174.106104 
L 810.615273 174.0443 
L 811.325455 172.218466 
L 812.035636 164.575044 
L 812.745818 161.485608 
L 813.456 162.339687 
L 814.166182 162.546984 
L 814.876364 174.724583 
L 815.586545 172.32787 
L 816.296727 162.277065 
L 817.006909 162.261489 
L 817.717091 170.487301 
L 818.427273 166.928371 
L 819.137455 157.848857 
L 819.847636 159.094839 
L 820.557818 152.279841 
L 821.268 150.470553 
L 821.978182 144.456231 
L 822.688364 141.374637 
L 823.398545 144.416816 
L 824.108727 152.480203 
L 824.818909 150.227694 
L 825.529091 152.577397 
L 826.239273 162.669823 
L 826.949455 156.637046 
L 827.659636 148.67435 
L 828.369818 148.228923 
L 829.08 152.72101 
L 829.790182 163.907976 
L 830.500364 167.920369 
L 831.210545 158.079237 
L 832.630909 152.539336 
L 833.341091 148.846375 
L 834.051273 138.563562 
L 834.761455 146.325619 
L 835.471636 142.550654 
L 836.181818 138.039946 
L 836.892 143.43929 
L 837.602182 146.066298 
L 839.022545 166.977612 
L 839.732727 175.409667 
L 840.442909 164.92845 
L 841.153091 168.322579 
L 841.863273 164.650123 
L 842.573455 168.398199 
L 843.283636 178.434812 
L 843.993818 171.212644 
L 844.704 177.315586 
L 845.414182 178.842211 
L 846.124364 174.022607 
L 846.834545 176.114104 
L 847.544727 175.57077 
L 848.965091 176.997606 
L 849.675273 177.132498 
L 850.385455 182.22525 
L 851.095636 184.911079 
L 851.805818 193.630964 
L 852.516 194.347773 
L 853.226182 190.647099 
L 853.936364 196.660489 
L 854.646545 199.9903 
L 855.356727 206.490524 
L 856.066909 201.819919 
L 856.777091 214.770478 
L 857.487273 214.073459 
L 858.907636 220.886541 
L 859.617818 228.65811 
L 860.328 220.165537 
L 861.038182 219.122654 
L 861.748364 222.686256 
L 862.458545 218.821924 
L 863.168727 218.396504 
L 863.878909 222.107933 
L 864.589091 224.204198 
L 865.299273 212.414593 
L 866.009455 205.851153 
L 866.719636 202.68748 
L 867.429818 200.897919 
L 868.14 203.115545 
L 868.850182 213.278143 
L 869.560364 213.904745 
L 870.270545 205.109664 
L 870.980727 204.135526 
L 871.690909 206.010407 
L 871.690909 206.010407 
" clip-path="url(#p540a92ffcd)" style="fill: none; stroke: #ff7f0e; stroke-width: 1.5; stroke-linecap: square"/>
   </g>
   <g id="line2d_14">
    <path d="M 162.219273 369.36 
L 162.929455 369.117409 
L 165.770182 369.004791 
L 166.480364 368.847207 
L 167.900727 368.799335 
L 168.610909 368.630074 
L 170.031273 368.709121 
L 172.161818 368.663122 
L 173.582182 368.207158 
L 174.292364 368.33232 
L 175.002545 368.336721 
L 175.712727 367.80219 
L 176.422909 367.583114 
L 177.843273 367.61805 
L 178.553455 366.776016 
L 179.263636 366.413909 
L 179.973818 366.41259 
L 180.684 366.25261 
L 182.814545 366.253305 
L 183.524727 366.02294 
L 184.234909 365.997139 
L 184.945091 365.622455 
L 185.655273 365.586039 
L 186.365455 364.862604 
L 187.075636 364.752499 
L 187.785818 364.132212 
L 189.206182 363.453298 
L 189.916364 363.318806 
L 191.336727 363.305275 
L 192.757091 363.083221 
L 194.177455 363.156635 
L 194.887636 362.880585 
L 197.018182 362.707299 
L 197.728364 362.519189 
L 198.438545 362.464445 
L 199.148727 362.006906 
L 199.858909 361.956455 
L 200.569091 361.765876 
L 201.279273 361.74533 
L 202.699636 361.42279 
L 206.250545 361.539318 
L 206.960727 361.248537 
L 207.670909 361.236286 
L 209.091273 361.521049 
L 210.511636 361.541961 
L 211.221818 361.392971 
L 212.642182 361.434488 
L 213.352364 361.311443 
L 214.062545 361.305241 
L 214.772727 361.182989 
L 215.482909 360.905258 
L 216.193091 360.871437 
L 216.903273 360.542063 
L 217.613455 360.56495 
L 219.033818 360.102575 
L 219.744 360.034106 
L 220.454182 359.644732 
L 221.164364 358.809802 
L 221.874545 358.772827 
L 222.584727 358.592937 
L 223.294909 357.948553 
L 224.005091 358.044016 
L 224.715273 357.99549 
L 225.425455 357.816138 
L 226.845818 357.731686 
L 227.556 356.115218 
L 228.976364 356.090772 
L 229.686545 355.842142 
L 230.396727 355.332238 
L 231.106909 355.315712 
L 232.527273 354.250884 
L 233.947636 353.994505 
L 235.368 354.081891 
L 236.078182 354.070465 
L 236.788364 352.603352 
L 238.208727 352.517154 
L 239.629091 352.44537 
L 241.049455 352.37117 
L 245.310545 352.072315 
L 246.020727 351.514662 
L 246.730909 351.231179 
L 249.571636 351.213025 
L 250.281818 351.074106 
L 252.412364 351.001103 
L 253.832727 350.927097 
L 255.963273 350.932225 
L 256.673455 350.027793 
L 257.383636 349.995403 
L 258.093818 349.496771 
L 258.804 349.305866 
L 260.224364 349.280203 
L 263.065091 349.015559 
L 263.775273 348.875972 
L 265.195636 348.879299 
L 265.905818 348.564723 
L 266.616 348.497923 
L 267.326182 347.998835 
L 269.456727 348.071374 
L 270.166909 347.784091 
L 270.877091 347.773938 
L 271.587273 347.25135 
L 276.558545 347.167549 
L 280.109455 347.018944 
L 281.529818 346.594165 
L 283.660364 346.58598 
L 284.370545 346.218257 
L 287.211273 346.20418 
L 287.921455 345.933822 
L 289.341818 345.72616 
L 290.052 345.560794 
L 292.182545 345.468976 
L 292.892727 344.806827 
L 295.023273 344.812555 
L 295.733455 344.387982 
L 297.153818 344.025881 
L 299.284364 343.871749 
L 299.994545 343.510485 
L 300.704727 343.497463 
L 302.125091 343.070116 
L 307.096364 343.090042 
L 307.806545 342.898435 
L 308.516727 342.408796 
L 309.226909 342.403227 
L 309.937091 341.899841 
L 311.357455 341.929813 
L 312.777818 341.794156 
L 313.488 341.109663 
L 314.198182 340.952269 
L 314.908364 340.408204 
L 318.459273 340.234428 
L 319.169455 339.998596 
L 319.879636 340.066434 
L 320.589818 339.880659 
L 322.720364 339.879933 
L 323.430545 339.468537 
L 324.850909 339.553715 
L 325.561091 339.281225 
L 328.401818 339.087284 
L 331.952727 339.227801 
L 333.373091 339.097359 
L 334.793455 339.172467 
L 336.924 339.091764 
L 337.634182 339.131399 
L 338.344364 338.872461 
L 340.474909 338.711893 
L 341.185091 338.711417 
L 341.895273 338.512995 
L 342.605455 338.581817 
L 344.025818 338.468126 
L 344.736 338.088962 
L 346.866545 337.953721 
L 347.576727 337.78594 
L 348.997091 337.710827 
L 349.707273 337.464095 
L 351.127636 336.808768 
L 351.837818 336.562813 
L 352.548 334.974918 
L 353.258182 334.835878 
L 356.809091 334.795956 
L 360.36 334.533178 
L 361.780364 334.612283 
L 362.490545 334.455113 
L 363.910909 333.343963 
L 364.621091 333.234781 
L 367.461818 333.354276 
L 368.172 333.100658 
L 370.302545 333.059886 
L 371.012727 332.890765 
L 371.722909 332.521695 
L 372.433091 332.567811 
L 373.853455 332.356447 
L 374.563636 332.004933 
L 378.114545 332.030702 
L 378.824727 331.826174 
L 380.955273 331.783991 
L 384.506182 331.530593 
L 385.216364 331.224038 
L 385.926545 330.423135 
L 386.636727 330.416169 
L 387.346909 330.281445 
L 388.057091 329.215651 
L 388.767273 329.097706 
L 390.187636 328.682119 
L 390.897818 328.695711 
L 391.608 328.346882 
L 400.840364 327.570525 
L 401.550545 327.716619 
L 404.391273 327.539175 
L 405.101455 327.30719 
L 407.232 327.293067 
L 407.942182 327.174899 
L 408.652364 327.175509 
L 409.362545 326.985525 
L 410.782909 327.002853 
L 412.203273 326.920074 
L 412.913455 326.915471 
L 413.623636 326.540738 
L 415.044 326.38651 
L 415.754182 326.045807 
L 417.174545 325.859512 
L 417.884727 325.750321 
L 418.594909 325.774015 
L 419.305091 325.324262 
L 420.015273 325.331533 
L 422.145818 325.070097 
L 422.856 325.005054 
L 423.566182 324.58951 
L 424.276364 324.419538 
L 425.696727 324.359904 
L 427.827273 324.047638 
L 428.537455 324.131813 
L 429.957818 323.819889 
L 432.088364 323.774519 
L 432.798545 323.075831 
L 433.508727 322.581618 
L 434.218909 322.354956 
L 434.929091 320.922135 
L 435.639273 320.67847 
L 436.349455 320.678262 
L 437.059636 320.420341 
L 438.48 320.303148 
L 439.190182 319.972022 
L 439.900364 319.242874 
L 440.610545 319.083133 
L 441.320727 319.276639 
L 442.741091 319.254715 
L 443.451273 318.855231 
L 444.161455 318.852473 
L 444.871636 318.383634 
L 446.292 318.519152 
L 447.712364 318.486628 
L 448.422545 318.237538 
L 449.842909 318.164197 
L 450.553091 318.159688 
L 451.263273 317.893544 
L 451.973455 317.846092 
L 452.683636 317.566993 
L 453.393818 317.620862 
L 454.104 317.437736 
L 456.234545 317.495292 
L 456.944727 316.897312 
L 458.365091 316.731352 
L 459.785455 316.748988 
L 461.205818 316.628688 
L 462.626182 316.338608 
L 465.466909 316.205316 
L 466.177091 316.207731 
L 466.887273 315.916703 
L 468.307636 315.926059 
L 469.017818 315.009841 
L 469.728 314.702301 
L 470.438182 314.572745 
L 471.858545 313.787132 
L 474.699273 313.688661 
L 475.409455 313.379959 
L 476.119636 313.378901 
L 476.829818 313.056831 
L 478.960364 312.994231 
L 482.511273 312.815596 
L 483.221455 312.237634 
L 484.641818 312.178681 
L 486.062182 311.618338 
L 486.772364 311.510985 
L 487.482545 311.098898 
L 488.192727 311.148999 
L 488.902909 311.015892 
L 489.613091 310.735672 
L 491.033455 310.849484 
L 491.743636 310.197223 
L 493.164 310.172889 
L 493.874182 309.780328 
L 494.584364 308.981134 
L 496.004727 308.920167 
L 496.714909 308.443138 
L 498.845455 308.351759 
L 499.555636 308.157936 
L 500.265818 308.159809 
L 500.976 307.983415 
L 501.686182 307.955317 
L 503.106545 307.55078 
L 508.788 307.592881 
L 509.498182 306.592168 
L 510.208364 306.517841 
L 510.918545 306.235005 
L 511.628727 306.226505 
L 512.338909 305.836791 
L 513.759273 305.661373 
L 514.469455 305.759162 
L 515.889818 305.646685 
L 516.6 305.645535 
L 517.310182 305.27677 
L 518.730545 305.220416 
L 520.150909 304.764602 
L 520.861091 304.819173 
L 521.571273 304.474974 
L 522.281455 304.448576 
L 522.991636 304.218916 
L 525.122182 304.110195 
L 526.542545 303.790571 
L 527.962909 303.1567 
L 529.383273 303.213908 
L 530.093455 303.002263 
L 530.803636 303.071322 
L 531.513818 302.971905 
L 532.224 302.654521 
L 532.934182 302.072377 
L 534.354545 302.207842 
L 535.064727 301.551983 
L 537.905455 301.500273 
L 538.615636 301.090375 
L 540.036 301.068852 
L 540.746182 300.617296 
L 541.456364 300.464128 
L 542.166545 299.285814 
L 542.876727 299.276547 
L 543.586909 299.116922 
L 544.297091 299.125721 
L 545.007273 298.929929 
L 545.717455 298.363747 
L 547.137818 298.333803 
L 547.848 298.237576 
L 548.558182 298.314336 
L 549.978545 298.026477 
L 550.688727 297.972127 
L 552.109091 297.408869 
L 552.819273 297.4461 
L 554.239636 297.233647 
L 557.080364 297.310612 
L 557.790545 296.894533 
L 558.500727 296.645769 
L 559.210909 296.667549 
L 559.921091 296.542076 
L 561.341455 296.713675 
L 562.761818 296.479234 
L 563.472 295.008924 
L 564.182182 295.161481 
L 564.892364 295.151102 
L 565.602545 295.302951 
L 566.312727 294.534994 
L 567.733091 294.377647 
L 568.443273 294.347776 
L 569.153455 294.120931 
L 570.573818 293.964624 
L 571.284 293.185101 
L 572.704364 293.098561 
L 573.414545 293.089715 
L 574.124727 292.941174 
L 574.834909 292.329391 
L 576.255273 291.59166 
L 578.385818 291.630052 
L 579.096 290.544834 
L 579.806182 290.505188 
L 581.226545 290.111381 
L 582.646909 290.367444 
L 584.067273 290.026742 
L 584.777455 289.556442 
L 588.328364 289.403188 
L 589.038545 288.951036 
L 591.169091 288.860087 
L 591.879273 288.777631 
L 592.589455 288.321656 
L 593.299636 288.016554 
L 594.009818 287.253935 
L 594.72 287.310913 
L 595.430182 287.143731 
L 596.850545 287.160974 
L 597.560727 287.288391 
L 598.270909 287.062057 
L 598.981091 286.97678 
L 599.691273 286.716448 
L 600.401455 286.672816 
L 601.111636 286.376579 
L 602.532 286.347824 
L 603.952364 286.004727 
L 607.503273 285.676151 
L 608.213455 285.069798 
L 611.054182 285.019765 
L 611.764364 284.381222 
L 613.894909 284.39084 
L 617.445818 283.897189 
L 618.156 283.363818 
L 619.576364 282.701737 
L 620.286545 282.645542 
L 620.996727 282.176923 
L 625.257818 282.084189 
L 625.968 281.71867 
L 626.678182 281.197274 
L 628.808727 281.154476 
L 629.518909 280.16061 
L 631.649455 280.091478 
L 632.359636 279.949637 
L 633.069818 279.922076 
L 633.78 278.671611 
L 635.910545 278.615908 
L 637.330909 278.290818 
L 638.041091 277.077753 
L 638.751273 276.187655 
L 640.171636 276.039787 
L 642.302182 276.028726 
L 643.722545 276.017528 
L 644.432727 275.71693 
L 645.142909 275.618514 
L 645.853091 275.314258 
L 652.244727 274.860752 
L 653.665091 274.566043 
L 654.375273 274.193913 
L 656.505818 274.063847 
L 657.216 274.108235 
L 657.926182 273.69012 
L 659.346545 273.636419 
L 661.477091 273.580395 
L 662.187273 273.461078 
L 662.897455 272.583749 
L 663.607636 272.494085 
L 664.317818 272.100017 
L 666.448364 272.025274 
L 668.578909 271.934468 
L 669.289091 271.51366 
L 669.999273 271.316251 
L 671.419636 271.324049 
L 672.129818 270.549872 
L 672.84 270.599743 
L 673.550182 270.213274 
L 675.680727 270.102326 
L 676.390909 269.111214 
L 679.231636 269.381929 
L 679.941818 269.184159 
L 680.652 269.249193 
L 681.362182 269.189295 
L 682.072364 269.010998 
L 682.782545 269.056804 
L 683.492727 268.96363 
L 684.202909 268.719008 
L 687.753818 268.52088 
L 688.464 268.271782 
L 689.174182 268.35915 
L 692.014909 268.247516 
L 692.725091 267.695114 
L 694.145455 267.360128 
L 696.276 267.417778 
L 696.986182 267.165985 
L 698.406545 267.232335 
L 699.116727 266.917421 
L 700.537091 266.733136 
L 701.247273 266.9251 
L 704.088 267.029448 
L 704.798182 266.804004 
L 705.508364 266.034772 
L 707.638909 266.054664 
L 708.349091 265.92535 
L 709.059273 265.994321 
L 709.769455 264.801142 
L 714.030545 264.878339 
L 714.740727 264.035834 
L 716.871273 264.006653 
L 717.581455 263.897493 
L 718.291636 263.901249 
L 719.001818 264.047134 
L 720.422182 263.813703 
L 721.132364 263.816828 
L 721.842545 263.436157 
L 723.262909 263.322487 
L 723.973091 262.833731 
L 725.393455 262.737352 
L 726.103636 262.634633 
L 726.813818 262.114181 
L 727.524 262.066164 
L 728.234182 261.74157 
L 729.654545 261.735403 
L 730.364727 261.56275 
L 731.074909 260.589346 
L 731.785091 260.61786 
L 732.495273 260.402937 
L 733.205455 260.030011 
L 733.915636 259.855123 
L 734.625818 259.838187 
L 735.336 259.494111 
L 736.046182 259.343207 
L 736.756364 259.409082 
L 737.466545 258.955595 
L 739.597091 258.927447 
L 740.307273 258.189569 
L 745.278545 257.768664 
L 747.409091 257.497096 
L 748.829455 257.453491 
L 749.539636 257.016834 
L 750.249818 257.086951 
L 750.96 257.027095 
L 751.670182 256.745308 
L 753.090545 256.779036 
L 754.510909 256.464963 
L 756.641455 256.532234 
L 758.061818 256.314792 
L 758.772 255.593422 
L 759.482182 255.404955 
L 760.192364 255.401665 
L 760.902545 255.194087 
L 763.743273 255.069699 
L 764.453455 254.747737 
L 765.873818 254.6632 
L 766.584 254.651344 
L 767.294182 254.515989 
L 768.004364 254.233494 
L 770.134909 254.172928 
L 770.845091 253.819344 
L 772.265455 253.577591 
L 772.975636 252.425727 
L 775.106182 252.420114 
L 775.816364 252.01323 
L 776.526545 252.076372 
L 780.077455 251.567061 
L 780.787636 250.240043 
L 781.497818 249.742975 
L 782.208 249.716487 
L 782.918182 249.111634 
L 783.628364 249.11195 
L 784.338545 248.002739 
L 785.758909 248.001168 
L 786.469091 247.719468 
L 787.179273 247.704401 
L 787.889455 247.491277 
L 790.02 247.450552 
L 790.730182 247.14054 
L 794.991273 247.082386 
L 796.411636 247.087845 
L 797.121818 246.972308 
L 797.832 245.958141 
L 798.542182 245.72082 
L 801.382909 245.572335 
L 802.093091 245.718555 
L 803.513455 244.678874 
L 804.933818 244.171721 
L 805.644 243.945242 
L 806.354182 243.894513 
L 807.064364 243.675268 
L 808.484727 243.790556 
L 809.194909 243.791131 
L 809.905091 243.577768 
L 811.325455 243.626868 
L 812.035636 243.335867 
L 813.456 243.326303 
L 814.166182 243.326047 
L 814.876364 242.711768 
L 815.586545 242.685589 
L 816.296727 242.44419 
L 818.427273 242.362473 
L 819.137455 242.025309 
L 819.847636 242.01837 
L 820.557818 241.81418 
L 822.688364 241.75313 
L 824.818909 241.609349 
L 825.529091 241.568077 
L 826.949455 241.123363 
L 827.659636 240.885656 
L 829.08 240.911159 
L 829.790182 240.302137 
L 830.500364 240.158471 
L 831.210545 239.498008 
L 834.051273 239.642664 
L 834.761455 239.104931 
L 835.471636 239.121265 
L 838.312364 238.680233 
L 839.022545 238.352866 
L 839.732727 238.296978 
L 840.442909 237.820053 
L 841.863273 237.698849 
L 842.573455 237.631562 
L 843.993818 236.750903 
L 848.254909 236.598519 
L 849.675273 236.574009 
L 850.385455 236.332788 
L 851.095636 236.367715 
L 851.805818 236.043795 
L 854.646545 236.008183 
L 856.066909 235.871694 
L 856.777091 235.549501 
L 858.197455 235.404699 
L 858.907636 235.343756 
L 859.617818 235.056768 
L 860.328 234.895619 
L 861.038182 234.923968 
L 861.748364 234.722687 
L 864.589091 234.693573 
L 865.299273 233.704164 
L 867.429818 233.799319 
L 868.14 233.730292 
L 868.850182 233.496067 
L 869.560364 233.496802 
L 870.270545 232.864177 
L 871.690909 232.828822 
L 871.690909 232.828822 
" clip-path="url(#p540a92ffcd)" style="fill: none; stroke: #2ca02c; stroke-width: 1.5; stroke-linecap: square"/>
   </g>
   <g id="patch_3">
    <path d="M 126 384.48 
L 126 51.84 
" style="fill: none; stroke: #000000; stroke-width: 0.8; stroke-linejoin: miter; stroke-linecap: square"/>
   </g>
   <g id="patch_4">
    <path d="M 907.2 384.48 
L 907.2 51.84 
" style="fill: none; stroke: #000000; stroke-width: 0.8; stroke-linejoin: miter; stroke-linecap: square"/>
   </g>
   <g id="patch_5">
    <path d="M 126 384.48 
L 907.2 384.48 
" style="fill: none; stroke: #000000; stroke-width: 0.8; stroke-linejoin: miter; stroke-linecap: square"/>
   </g>
   <g id="patch_6">
    <path d="M 126 51.84 
L 907.2 51.84 
" style="fill: none; stroke: #000000; stroke-width: 0.8; stroke-linejoin: miter; stroke-linecap: square"/>
   </g>
   <g id="text_14">
    <!-- Quadratic Covariation of $X_t$ and $S_t$ -->
    <g transform="translate(414.54 45.84)scale(0.12 -0.12)">
     <defs>
      <path id="DejaVuSans-66" d="M 2375 4863 
L 2375 4384 
L 1825 4384 
Q 1516 4384 1395 4259 
Q 1275 4134 1275 3809 
L 1275 3500 
L 2222 3500 
L 2222 3053 
L 1275 3053 
L 1275 0 
L 697 0 
L 697 3053 
L 147 3053 
L 147 3500 
L 697 3500 
L 697 3744 
Q 697 4328 969 4595 
Q 1241 4863 1831 4863 
L 2375 4863 
z
" transform="scale(0.015625)"/>
      <path id="DejaVuSans-Oblique-58" d="M 878 4666 
L 1516 4666 
L 2316 2981 
L 3763 4666 
L 4500 4666 
L 2578 2438 
L 3738 0 
L 3103 0 
L 2163 1966 
L 459 0 
L -275 0 
L 1906 2509 
L 878 4666 
z
" transform="scale(0.015625)"/>
      <path id="DejaVuSans-Oblique-74" d="M 2706 3500 
L 2619 3053 
L 1472 3053 
L 1100 1153 
Q 1081 1047 1072 975 
Q 1063 903 1063 863 
Q 1063 663 1183 572 
Q 1303 481 1569 481 
L 2150 481 
L 2053 0 
L 1503 0 
Q 991 0 739 200 
Q 488 400 488 806 
Q 488 878 497 964 
Q 506 1050 525 1153 
L 897 3053 
L 409 3053 
L 500 3500 
L 978 3500 
L 1172 4494 
L 1747 4494 
L 1556 3500 
L 2706 3500 
z
" transform="scale(0.015625)"/>
      <path id="DejaVuSans-Oblique-53" d="M 3859 4513 
L 3738 3897 
Q 3422 4066 3111 4152 
Q 2800 4238 2509 4238 
Q 1944 4238 1609 3991 
Q 1275 3744 1275 3334 
Q 1275 3109 1398 2989 
Q 1522 2869 2034 2731 
L 2413 2638 
Q 3053 2472 3303 2217 
Q 3553 1963 3553 1503 
Q 3553 797 2998 353 
Q 2444 -91 1538 -91 
Q 1166 -91 791 -17 
Q 416 56 38 206 
L 166 856 
Q 513 641 861 531 
Q 1209 422 1556 422 
Q 2147 422 2503 684 
Q 2859 947 2859 1369 
Q 2859 1650 2717 1795 
Q 2575 1941 2106 2059 
L 1728 2156 
Q 1081 2325 845 2545 
Q 609 2766 609 3163 
Q 609 3859 1145 4304 
Q 1681 4750 2541 4750 
Q 2875 4750 3203 4690 
Q 3531 4631 3859 4513 
z
" transform="scale(0.015625)"/>
     </defs>
     <use xlink:href="#DejaVuSans-51" transform="translate(0 0.015625)"/>
     <use xlink:href="#DejaVuSans-75" transform="translate(78.710938 0.015625)"/>
     <use xlink:href="#DejaVuSans-61" transform="translate(142.089844 0.015625)"/>
     <use xlink:href="#DejaVuSans-64" transform="translate(203.369141 0.015625)"/>
     <use xlink:href="#DejaVuSans-72" transform="translate(266.845703 0.015625)"/>
     <use xlink:href="#DejaVuSans-61" transform="translate(307.958984 0.015625)"/>
     <use xlink:href="#DejaVuSans-74" transform="translate(369.238281 0.015625)"/>
     <use xlink:href="#DejaVuSans-69" transform="translate(408.447266 0.015625)"/>
     <use xlink:href="#DejaVuSans-63" transform="translate(436.230469 0.015625)"/>
     <use xlink:href="#DejaVuSans-20" transform="translate(491.210938 0.015625)"/>
     <use xlink:href="#DejaVuSans-43" transform="translate(522.998047 0.015625)"/>
     <use xlink:href="#DejaVuSans-6f" transform="translate(592.822266 0.015625)"/>
     <use xlink:href="#DejaVuSans-76" transform="translate(654.003906 0.015625)"/>
     <use xlink:href="#DejaVuSans-61" transform="translate(713.183594 0.015625)"/>
     <use xlink:href="#DejaVuSans-72" transform="translate(774.462891 0.015625)"/>
     <use xlink:href="#DejaVuSans-69" transform="translate(815.576172 0.015625)"/>
     <use xlink:href="#DejaVuSans-61" transform="translate(843.359375 0.015625)"/>
     <use xlink:href="#DejaVuSans-74" transform="translate(904.638672 0.015625)"/>
     <use xlink:href="#DejaVuSans-69" transform="translate(943.847656 0.015625)"/>
     <use xlink:href="#DejaVuSans-6f" transform="translate(971.630859 0.015625)"/>
     <use xlink:href="#DejaVuSans-6e" transform="translate(1032.8125 0.015625)"/>
     <use xlink:href="#DejaVuSans-20" transform="translate(1096.191406 0.015625)"/>
     <use xlink:href="#DejaVuSans-6f" transform="translate(1127.978516 0.015625)"/>
     <use xlink:href="#DejaVuSans-66" transform="translate(1189.160156 0.015625)"/>
     <use xlink:href="#DejaVuSans-20" transform="translate(1224.365234 0.015625)"/>
     <use xlink:href="#DejaVuSans-Oblique-58" transform="translate(1256.152344 0.015625)"/>
     <use xlink:href="#DejaVuSans-Oblique-74" transform="translate(1324.658203 -16.390625)scale(0.7)"/>
     <use xlink:href="#DejaVuSans-20" transform="translate(1354.838867 0.015625)"/>
     <use xlink:href="#DejaVuSans-61" transform="translate(1386.625977 0.015625)"/>
     <use xlink:href="#DejaVuSans-6e" transform="translate(1447.905273 0.015625)"/>
     <use xlink:href="#DejaVuSans-64" transform="translate(1511.28418 0.015625)"/>
     <use xlink:href="#DejaVuSans-20" transform="translate(1574.760742 0.015625)"/>
     <use xlink:href="#DejaVuSans-Oblique-53" transform="translate(1606.547852 0.015625)"/>
     <use xlink:href="#DejaVuSans-Oblique-74" transform="translate(1670.024414 -16.390625)scale(0.7)"/>
    </g>
   </g>
   <g id="legend_1">
    <g id="patch_7">
     <path d="M 698.1 103.874375 
L 900.2 103.874375 
Q 902.2 103.874375 902.2 101.874375 
L 902.2 58.84 
Q 902.2 56.84 900.2 56.84 
L 698.1 56.84 
Q 696.1 56.84 696.1 58.84 
L 696.1 101.874375 
Q 696.1 103.874375 698.1 103.874375 
z
" style="fill: #ffffff; opacity: 0.8; stroke: #cccccc; stroke-linejoin: miter"/>
    </g>
    <g id="line2d_15">
     <path d="M 700.1 64.938437 
L 710.1 64.938437 
L 720.1 64.938437 
" style="fill: none; stroke: #1f77b4; stroke-width: 1.5; stroke-linecap: square"/>
    </g>
    <g id="text_15">
     <!-- $X_t$ -->
     <g transform="translate(728.1 68.438437)scale(0.1 -0.1)">
      <use xlink:href="#DejaVuSans-Oblique-58" transform="translate(0 0.09375)"/>
      <use xlink:href="#DejaVuSans-Oblique-74" transform="translate(68.505859 -16.3125)scale(0.7)"/>
     </g>
    </g>
    <g id="line2d_16">
     <path d="M 700.1 79.616562 
L 710.1 79.616562 
L 720.1 79.616562 
" style="fill: none; stroke: #ff7f0e; stroke-width: 1.5; stroke-linecap: square"/>
    </g>
    <g id="text_16">
     <!-- $S_t$ -->
     <g transform="translate(728.1 83.116562)scale(0.1 -0.1)">
      <use xlink:href="#DejaVuSans-Oblique-53" transform="translate(0 0.78125)"/>
      <use xlink:href="#DejaVuSans-Oblique-74" transform="translate(63.476562 -15.625)scale(0.7)"/>
     </g>
    </g>
    <g id="line2d_17">
     <path d="M 700.1 94.294687 
L 710.1 94.294687 
L 720.1 94.294687 
" style="fill: none; stroke: #2ca02c; stroke-width: 1.5; stroke-linecap: square"/>
    </g>
    <g id="text_17">
     <!-- Quadratic Covariation of $X_t$ and $S_t$ -->
     <g transform="translate(728.1 97.794687)scale(0.1 -0.1)">
      <use xlink:href="#DejaVuSans-51" transform="translate(0 0.015625)"/>
      <use xlink:href="#DejaVuSans-75" transform="translate(78.710938 0.015625)"/>
      <use xlink:href="#DejaVuSans-61" transform="translate(142.089844 0.015625)"/>
      <use xlink:href="#DejaVuSans-64" transform="translate(203.369141 0.015625)"/>
      <use xlink:href="#DejaVuSans-72" transform="translate(266.845703 0.015625)"/>
      <use xlink:href="#DejaVuSans-61" transform="translate(307.958984 0.015625)"/>
      <use xlink:href="#DejaVuSans-74" transform="translate(369.238281 0.015625)"/>
      <use xlink:href="#DejaVuSans-69" transform="translate(408.447266 0.015625)"/>
      <use xlink:href="#DejaVuSans-63" transform="translate(436.230469 0.015625)"/>
      <use xlink:href="#DejaVuSans-20" transform="translate(491.210938 0.015625)"/>
      <use xlink:href="#DejaVuSans-43" transform="translate(522.998047 0.015625)"/>
      <use xlink:href="#DejaVuSans-6f" transform="translate(592.822266 0.015625)"/>
      <use xlink:href="#DejaVuSans-76" transform="translate(654.003906 0.015625)"/>
      <use xlink:href="#DejaVuSans-61" transform="translate(713.183594 0.015625)"/>
      <use xlink:href="#DejaVuSans-72" transform="translate(774.462891 0.015625)"/>
      <use xlink:href="#DejaVuSans-69" transform="translate(815.576172 0.015625)"/>
      <use xlink:href="#DejaVuSans-61" transform="translate(843.359375 0.015625)"/>
      <use xlink:href="#DejaVuSans-74" transform="translate(904.638672 0.015625)"/>
      <use xlink:href="#DejaVuSans-69" transform="translate(943.847656 0.015625)"/>
      <use xlink:href="#DejaVuSans-6f" transform="translate(971.630859 0.015625)"/>
      <use xlink:href="#DejaVuSans-6e" transform="translate(1032.8125 0.015625)"/>
      <use xlink:href="#DejaVuSans-20" transform="translate(1096.191406 0.015625)"/>
      <use xlink:href="#DejaVuSans-6f" transform="translate(1127.978516 0.015625)"/>
      <use xlink:href="#DejaVuSans-66" transform="translate(1189.160156 0.015625)"/>
      <use xlink:href="#DejaVuSans-20" transform="translate(1224.365234 0.015625)"/>
      <use xlink:href="#DejaVuSans-Oblique-58" transform="translate(1256.152344 0.015625)"/>
      <use xlink:href="#DejaVuSans-Oblique-74" transform="translate(1324.658203 -16.390625)scale(0.7)"/>
      <use xlink:href="#DejaVuSans-20" transform="translate(1354.838867 0.015625)"/>
      <use xlink:href="#DejaVuSans-61" transform="translate(1386.625977 0.015625)"/>
      <use xlink:href="#DejaVuSans-6e" transform="translate(1447.905273 0.015625)"/>
      <use xlink:href="#DejaVuSans-64" transform="translate(1511.28418 0.015625)"/>
      <use xlink:href="#DejaVuSans-20" transform="translate(1574.760742 0.015625)"/>
      <use xlink:href="#DejaVuSans-Oblique-53" transform="translate(1606.547852 0.015625)"/>
      <use xlink:href="#DejaVuSans-Oblique-74" transform="translate(1670.024414 -16.390625)scale(0.7)"/>
     </g>
    </g>
   </g>
  </g>
 </g>
 <defs>
  <clipPath id="p540a92ffcd">
   <rect x="126" y="51.84" width="781.2" height="332.64"/>
  </clipPath>
 </defs>
</svg>
