<?xml version="1.0" encoding="utf-8" standalone="no"?>
<!DOCTYPE svg PUBLIC "-//W3C//DTD SVG 1.1//EN"
  "http://www.w3.org/Graphics/SVG/1.1/DTD/svg11.dtd">
<svg xmlns:xlink="http://www.w3.org/1999/xlink" width="1008pt" height="432pt" viewBox="0 0 1008 432" xmlns="http://www.w3.org/2000/svg" version="1.1">
 <metadata>
  <rdf:RDF xmlns:dc="http://purl.org/dc/elements/1.1/" xmlns:cc="http://creativecommons.org/ns#" xmlns:rdf="http://www.w3.org/1999/02/22-rdf-syntax-ns#">
   <cc:Work>
    <dc:type rdf:resource="http://purl.org/dc/dcmitype/StillImage"/>
    <dc:date>2023-12-22T17:09:55.353631</dc:date>
    <dc:format>image/svg+xml</dc:format>
    <dc:creator>
     <cc:Agent>
      <dc:title>Matplotlib v3.5.2, https://matplotlib.org/</dc:title>
     </cc:Agent>
    </dc:creator>
   </cc:Work>
  </rdf:RDF>
 </metadata>
 <defs>
  <style type="text/css">*{stroke-linejoin: round; stroke-linecap: butt}</style>
 </defs>
 <g id="figure_1">
  <g id="patch_1">
   <path d="M 0 432 
L 1008 432 
L 1008 0 
L 0 0 
z
" style="fill: #ffffff"/>
  </g>
  <g id="axes_1">
   <g id="patch_2">
    <path d="M 126 384.48 
L 907.2 384.48 
L 907.2 51.84 
L 126 51.84 
z
" style="fill: #ffffff"/>
   </g>
   <g id="matplotlib.axis_1">
    <g id="xtick_1">
     <g id="line2d_1">
      <defs>
       <path id="m76fc27b35b" d="M 0 0 
L 0 3.5 
" style="stroke: #000000; stroke-width: 0.8"/>
      </defs>
      <g>
       <use xlink:href="#m76fc27b35b" x="161.509091" y="384.48" style="stroke: #000000; stroke-width: 0.8"/>
      </g>
     </g>
     <g id="text_1">
      <!-- 0.0 -->
      <g transform="translate(153.557528 399.078438)scale(0.1 -0.1)">
       <defs>
        <path id="DejaVuSans-30" d="M 2034 4250 
Q 1547 4250 1301 3770 
Q 1056 3291 1056 2328 
Q 1056 1369 1301 889 
Q 1547 409 2034 409 
Q 2525 409 2770 889 
Q 3016 1369 3016 2328 
Q 3016 3291 2770 3770 
Q 2525 4250 2034 4250 
z
M 2034 4750 
Q 2819 4750 3233 4129 
Q 3647 3509 3647 2328 
Q 3647 1150 3233 529 
Q 2819 -91 2034 -91 
Q 1250 -91 836 529 
Q 422 1150 422 2328 
Q 422 3509 836 4129 
Q 1250 4750 2034 4750 
z
" transform="scale(0.015625)"/>
        <path id="DejaVuSans-2e" d="M 684 794 
L 1344 794 
L 1344 0 
L 684 0 
L 684 794 
z
" transform="scale(0.015625)"/>
       </defs>
       <use xlink:href="#DejaVuSans-30"/>
       <use xlink:href="#DejaVuSans-2e" x="63.623047"/>
       <use xlink:href="#DejaVuSans-30" x="95.410156"/>
      </g>
     </g>
    </g>
    <g id="xtick_2">
     <g id="line2d_2">
      <g>
       <use xlink:href="#m76fc27b35b" x="303.545455" y="384.48" style="stroke: #000000; stroke-width: 0.8"/>
      </g>
     </g>
     <g id="text_2">
      <!-- 0.2 -->
      <g transform="translate(295.593892 399.078438)scale(0.1 -0.1)">
       <defs>
        <path id="DejaVuSans-32" d="M 1228 531 
L 3431 531 
L 3431 0 
L 469 0 
L 469 531 
Q 828 903 1448 1529 
Q 2069 2156 2228 2338 
Q 2531 2678 2651 2914 
Q 2772 3150 2772 3378 
Q 2772 3750 2511 3984 
Q 2250 4219 1831 4219 
Q 1534 4219 1204 4116 
Q 875 4013 500 3803 
L 500 4441 
Q 881 4594 1212 4672 
Q 1544 4750 1819 4750 
Q 2544 4750 2975 4387 
Q 3406 4025 3406 3419 
Q 3406 3131 3298 2873 
Q 3191 2616 2906 2266 
Q 2828 2175 2409 1742 
Q 1991 1309 1228 531 
z
" transform="scale(0.015625)"/>
       </defs>
       <use xlink:href="#DejaVuSans-30"/>
       <use xlink:href="#DejaVuSans-2e" x="63.623047"/>
       <use xlink:href="#DejaVuSans-32" x="95.410156"/>
      </g>
     </g>
    </g>
    <g id="xtick_3">
     <g id="line2d_3">
      <g>
       <use xlink:href="#m76fc27b35b" x="445.581818" y="384.48" style="stroke: #000000; stroke-width: 0.8"/>
      </g>
     </g>
     <g id="text_3">
      <!-- 0.4 -->
      <g transform="translate(437.630256 399.078438)scale(0.1 -0.1)">
       <defs>
        <path id="DejaVuSans-34" d="M 2419 4116 
L 825 1625 
L 2419 1625 
L 2419 4116 
z
M 2253 4666 
L 3047 4666 
L 3047 1625 
L 3713 1625 
L 3713 1100 
L 3047 1100 
L 3047 0 
L 2419 0 
L 2419 1100 
L 313 1100 
L 313 1709 
L 2253 4666 
z
" transform="scale(0.015625)"/>
       </defs>
       <use xlink:href="#DejaVuSans-30"/>
       <use xlink:href="#DejaVuSans-2e" x="63.623047"/>
       <use xlink:href="#DejaVuSans-34" x="95.410156"/>
      </g>
     </g>
    </g>
    <g id="xtick_4">
     <g id="line2d_4">
      <g>
       <use xlink:href="#m76fc27b35b" x="587.618182" y="384.48" style="stroke: #000000; stroke-width: 0.8"/>
      </g>
     </g>
     <g id="text_4">
      <!-- 0.6 -->
      <g transform="translate(579.666619 399.078438)scale(0.1 -0.1)">
       <defs>
        <path id="DejaVuSans-36" d="M 2113 2584 
Q 1688 2584 1439 2293 
Q 1191 2003 1191 1497 
Q 1191 994 1439 701 
Q 1688 409 2113 409 
Q 2538 409 2786 701 
Q 3034 994 3034 1497 
Q 3034 2003 2786 2293 
Q 2538 2584 2113 2584 
z
M 3366 4563 
L 3366 3988 
Q 3128 4100 2886 4159 
Q 2644 4219 2406 4219 
Q 1781 4219 1451 3797 
Q 1122 3375 1075 2522 
Q 1259 2794 1537 2939 
Q 1816 3084 2150 3084 
Q 2853 3084 3261 2657 
Q 3669 2231 3669 1497 
Q 3669 778 3244 343 
Q 2819 -91 2113 -91 
Q 1303 -91 875 529 
Q 447 1150 447 2328 
Q 447 3434 972 4092 
Q 1497 4750 2381 4750 
Q 2619 4750 2861 4703 
Q 3103 4656 3366 4563 
z
" transform="scale(0.015625)"/>
       </defs>
       <use xlink:href="#DejaVuSans-30"/>
       <use xlink:href="#DejaVuSans-2e" x="63.623047"/>
       <use xlink:href="#DejaVuSans-36" x="95.410156"/>
      </g>
     </g>
    </g>
    <g id="xtick_5">
     <g id="line2d_5">
      <g>
       <use xlink:href="#m76fc27b35b" x="729.654545" y="384.48" style="stroke: #000000; stroke-width: 0.8"/>
      </g>
     </g>
     <g id="text_5">
      <!-- 0.8 -->
      <g transform="translate(721.702983 399.078438)scale(0.1 -0.1)">
       <defs>
        <path id="DejaVuSans-38" d="M 2034 2216 
Q 1584 2216 1326 1975 
Q 1069 1734 1069 1313 
Q 1069 891 1326 650 
Q 1584 409 2034 409 
Q 2484 409 2743 651 
Q 3003 894 3003 1313 
Q 3003 1734 2745 1975 
Q 2488 2216 2034 2216 
z
M 1403 2484 
Q 997 2584 770 2862 
Q 544 3141 544 3541 
Q 544 4100 942 4425 
Q 1341 4750 2034 4750 
Q 2731 4750 3128 4425 
Q 3525 4100 3525 3541 
Q 3525 3141 3298 2862 
Q 3072 2584 2669 2484 
Q 3125 2378 3379 2068 
Q 3634 1759 3634 1313 
Q 3634 634 3220 271 
Q 2806 -91 2034 -91 
Q 1263 -91 848 271 
Q 434 634 434 1313 
Q 434 1759 690 2068 
Q 947 2378 1403 2484 
z
M 1172 3481 
Q 1172 3119 1398 2916 
Q 1625 2713 2034 2713 
Q 2441 2713 2670 2916 
Q 2900 3119 2900 3481 
Q 2900 3844 2670 4047 
Q 2441 4250 2034 4250 
Q 1625 4250 1398 4047 
Q 1172 3844 1172 3481 
z
" transform="scale(0.015625)"/>
       </defs>
       <use xlink:href="#DejaVuSans-30"/>
       <use xlink:href="#DejaVuSans-2e" x="63.623047"/>
       <use xlink:href="#DejaVuSans-38" x="95.410156"/>
      </g>
     </g>
    </g>
    <g id="xtick_6">
     <g id="line2d_6">
      <g>
       <use xlink:href="#m76fc27b35b" x="871.690909" y="384.48" style="stroke: #000000; stroke-width: 0.8"/>
      </g>
     </g>
     <g id="text_6">
      <!-- 1.0 -->
      <g transform="translate(863.739347 399.078438)scale(0.1 -0.1)">
       <defs>
        <path id="DejaVuSans-31" d="M 794 531 
L 1825 531 
L 1825 4091 
L 703 3866 
L 703 4441 
L 1819 4666 
L 2450 4666 
L 2450 531 
L 3481 531 
L 3481 0 
L 794 0 
L 794 531 
z
" transform="scale(0.015625)"/>
       </defs>
       <use xlink:href="#DejaVuSans-31"/>
       <use xlink:href="#DejaVuSans-2e" x="63.623047"/>
       <use xlink:href="#DejaVuSans-30" x="95.410156"/>
      </g>
     </g>
    </g>
    <g id="text_7">
     <!-- Time -->
     <g transform="translate(504.366406 412.756563)scale(0.1 -0.1)">
      <defs>
       <path id="DejaVuSans-54" d="M -19 4666 
L 3928 4666 
L 3928 4134 
L 2272 4134 
L 2272 0 
L 1638 0 
L 1638 4134 
L -19 4134 
L -19 4666 
z
" transform="scale(0.015625)"/>
       <path id="DejaVuSans-69" d="M 603 3500 
L 1178 3500 
L 1178 0 
L 603 0 
L 603 3500 
z
M 603 4863 
L 1178 4863 
L 1178 4134 
L 603 4134 
L 603 4863 
z
" transform="scale(0.015625)"/>
       <path id="DejaVuSans-6d" d="M 3328 2828 
Q 3544 3216 3844 3400 
Q 4144 3584 4550 3584 
Q 5097 3584 5394 3201 
Q 5691 2819 5691 2113 
L 5691 0 
L 5113 0 
L 5113 2094 
Q 5113 2597 4934 2840 
Q 4756 3084 4391 3084 
Q 3944 3084 3684 2787 
Q 3425 2491 3425 1978 
L 3425 0 
L 2847 0 
L 2847 2094 
Q 2847 2600 2669 2842 
Q 2491 3084 2119 3084 
Q 1678 3084 1418 2786 
Q 1159 2488 1159 1978 
L 1159 0 
L 581 0 
L 581 3500 
L 1159 3500 
L 1159 2956 
Q 1356 3278 1631 3431 
Q 1906 3584 2284 3584 
Q 2666 3584 2933 3390 
Q 3200 3197 3328 2828 
z
" transform="scale(0.015625)"/>
       <path id="DejaVuSans-65" d="M 3597 1894 
L 3597 1613 
L 953 1613 
Q 991 1019 1311 708 
Q 1631 397 2203 397 
Q 2534 397 2845 478 
Q 3156 559 3463 722 
L 3463 178 
Q 3153 47 2828 -22 
Q 2503 -91 2169 -91 
Q 1331 -91 842 396 
Q 353 884 353 1716 
Q 353 2575 817 3079 
Q 1281 3584 2069 3584 
Q 2775 3584 3186 3129 
Q 3597 2675 3597 1894 
z
M 3022 2063 
Q 3016 2534 2758 2815 
Q 2500 3097 2075 3097 
Q 1594 3097 1305 2825 
Q 1016 2553 972 2059 
L 3022 2063 
z
" transform="scale(0.015625)"/>
      </defs>
      <use xlink:href="#DejaVuSans-54"/>
      <use xlink:href="#DejaVuSans-69" x="57.958984"/>
      <use xlink:href="#DejaVuSans-6d" x="85.742188"/>
      <use xlink:href="#DejaVuSans-65" x="183.154297"/>
     </g>
    </g>
   </g>
   <g id="matplotlib.axis_2">
    <g id="ytick_1">
     <g id="line2d_7">
      <defs>
       <path id="maf8e139453" d="M 0 0 
L -3.5 0 
" style="stroke: #000000; stroke-width: 0.8"/>
      </defs>
      <g>
       <use xlink:href="#maf8e139453" x="126" y="369.373054" style="stroke: #000000; stroke-width: 0.8"/>
      </g>
     </g>
     <g id="text_8">
      <!-- 0 -->
      <g transform="translate(112.6375 373.172272)scale(0.1 -0.1)">
       <use xlink:href="#DejaVuSans-30"/>
      </g>
     </g>
    </g>
    <g id="ytick_2">
     <g id="line2d_8">
      <g>
       <use xlink:href="#maf8e139453" x="126" y="310.505753" style="stroke: #000000; stroke-width: 0.8"/>
      </g>
     </g>
     <g id="text_9">
      <!-- 1 -->
      <g transform="translate(112.6375 314.304971)scale(0.1 -0.1)">
       <use xlink:href="#DejaVuSans-31"/>
      </g>
     </g>
    </g>
    <g id="ytick_3">
     <g id="line2d_9">
      <g>
       <use xlink:href="#maf8e139453" x="126" y="251.638452" style="stroke: #000000; stroke-width: 0.8"/>
      </g>
     </g>
     <g id="text_10">
      <!-- 2 -->
      <g transform="translate(112.6375 255.437671)scale(0.1 -0.1)">
       <use xlink:href="#DejaVuSans-32"/>
      </g>
     </g>
    </g>
    <g id="ytick_4">
     <g id="line2d_10">
      <g>
       <use xlink:href="#maf8e139453" x="126" y="192.771151" style="stroke: #000000; stroke-width: 0.8"/>
      </g>
     </g>
     <g id="text_11">
      <!-- 3 -->
      <g transform="translate(112.6375 196.57037)scale(0.1 -0.1)">
       <defs>
        <path id="DejaVuSans-33" d="M 2597 2516 
Q 3050 2419 3304 2112 
Q 3559 1806 3559 1356 
Q 3559 666 3084 287 
Q 2609 -91 1734 -91 
Q 1441 -91 1130 -33 
Q 819 25 488 141 
L 488 750 
Q 750 597 1062 519 
Q 1375 441 1716 441 
Q 2309 441 2620 675 
Q 2931 909 2931 1356 
Q 2931 1769 2642 2001 
Q 2353 2234 1838 2234 
L 1294 2234 
L 1294 2753 
L 1863 2753 
Q 2328 2753 2575 2939 
Q 2822 3125 2822 3475 
Q 2822 3834 2567 4026 
Q 2313 4219 1838 4219 
Q 1578 4219 1281 4162 
Q 984 4106 628 3988 
L 628 4550 
Q 988 4650 1302 4700 
Q 1616 4750 1894 4750 
Q 2613 4750 3031 4423 
Q 3450 4097 3450 3541 
Q 3450 3153 3228 2886 
Q 3006 2619 2597 2516 
z
" transform="scale(0.015625)"/>
       </defs>
       <use xlink:href="#DejaVuSans-33"/>
      </g>
     </g>
    </g>
    <g id="ytick_5">
     <g id="line2d_11">
      <g>
       <use xlink:href="#maf8e139453" x="126" y="133.90385" style="stroke: #000000; stroke-width: 0.8"/>
      </g>
     </g>
     <g id="text_12">
      <!-- 4 -->
      <g transform="translate(112.6375 137.703069)scale(0.1 -0.1)">
       <use xlink:href="#DejaVuSans-34"/>
      </g>
     </g>
    </g>
    <g id="ytick_6">
     <g id="line2d_12">
      <g>
       <use xlink:href="#maf8e139453" x="126" y="75.036549" style="stroke: #000000; stroke-width: 0.8"/>
      </g>
     </g>
     <g id="text_13">
      <!-- 5 -->
      <g transform="translate(112.6375 78.835768)scale(0.1 -0.1)">
       <defs>
        <path id="DejaVuSans-35" d="M 691 4666 
L 3169 4666 
L 3169 4134 
L 1269 4134 
L 1269 2991 
Q 1406 3038 1543 3061 
Q 1681 3084 1819 3084 
Q 2600 3084 3056 2656 
Q 3513 2228 3513 1497 
Q 3513 744 3044 326 
Q 2575 -91 1722 -91 
Q 1428 -91 1123 -41 
Q 819 9 494 109 
L 494 744 
Q 775 591 1075 516 
Q 1375 441 1709 441 
Q 2250 441 2565 725 
Q 2881 1009 2881 1497 
Q 2881 1984 2565 2268 
Q 2250 2553 1709 2553 
Q 1456 2553 1204 2497 
Q 953 2441 691 2322 
L 691 4666 
z
" transform="scale(0.015625)"/>
       </defs>
       <use xlink:href="#DejaVuSans-35"/>
      </g>
     </g>
    </g>
    <g id="text_14">
     <!-- Quadratic Covariation -->
     <g transform="translate(106.557812 272.970156)rotate(-90)scale(0.1 -0.1)">
      <defs>
       <path id="DejaVuSans-51" d="M 2522 4238 
Q 1834 4238 1429 3725 
Q 1025 3213 1025 2328 
Q 1025 1447 1429 934 
Q 1834 422 2522 422 
Q 3209 422 3611 934 
Q 4013 1447 4013 2328 
Q 4013 3213 3611 3725 
Q 3209 4238 2522 4238 
z
M 3406 84 
L 4238 -825 
L 3475 -825 
L 2784 -78 
Q 2681 -84 2626 -87 
Q 2572 -91 2522 -91 
Q 1538 -91 948 567 
Q 359 1225 359 2328 
Q 359 3434 948 4092 
Q 1538 4750 2522 4750 
Q 3503 4750 4090 4092 
Q 4678 3434 4678 2328 
Q 4678 1516 4351 937 
Q 4025 359 3406 84 
z
" transform="scale(0.015625)"/>
       <path id="DejaVuSans-75" d="M 544 1381 
L 544 3500 
L 1119 3500 
L 1119 1403 
Q 1119 906 1312 657 
Q 1506 409 1894 409 
Q 2359 409 2629 706 
Q 2900 1003 2900 1516 
L 2900 3500 
L 3475 3500 
L 3475 0 
L 2900 0 
L 2900 538 
Q 2691 219 2414 64 
Q 2138 -91 1772 -91 
Q 1169 -91 856 284 
Q 544 659 544 1381 
z
M 1991 3584 
L 1991 3584 
z
" transform="scale(0.015625)"/>
       <path id="DejaVuSans-61" d="M 2194 1759 
Q 1497 1759 1228 1600 
Q 959 1441 959 1056 
Q 959 750 1161 570 
Q 1363 391 1709 391 
Q 2188 391 2477 730 
Q 2766 1069 2766 1631 
L 2766 1759 
L 2194 1759 
z
M 3341 1997 
L 3341 0 
L 2766 0 
L 2766 531 
Q 2569 213 2275 61 
Q 1981 -91 1556 -91 
Q 1019 -91 701 211 
Q 384 513 384 1019 
Q 384 1609 779 1909 
Q 1175 2209 1959 2209 
L 2766 2209 
L 2766 2266 
Q 2766 2663 2505 2880 
Q 2244 3097 1772 3097 
Q 1472 3097 1187 3025 
Q 903 2953 641 2809 
L 641 3341 
Q 956 3463 1253 3523 
Q 1550 3584 1831 3584 
Q 2591 3584 2966 3190 
Q 3341 2797 3341 1997 
z
" transform="scale(0.015625)"/>
       <path id="DejaVuSans-64" d="M 2906 2969 
L 2906 4863 
L 3481 4863 
L 3481 0 
L 2906 0 
L 2906 525 
Q 2725 213 2448 61 
Q 2172 -91 1784 -91 
Q 1150 -91 751 415 
Q 353 922 353 1747 
Q 353 2572 751 3078 
Q 1150 3584 1784 3584 
Q 2172 3584 2448 3432 
Q 2725 3281 2906 2969 
z
M 947 1747 
Q 947 1113 1208 752 
Q 1469 391 1925 391 
Q 2381 391 2643 752 
Q 2906 1113 2906 1747 
Q 2906 2381 2643 2742 
Q 2381 3103 1925 3103 
Q 1469 3103 1208 2742 
Q 947 2381 947 1747 
z
" transform="scale(0.015625)"/>
       <path id="DejaVuSans-72" d="M 2631 2963 
Q 2534 3019 2420 3045 
Q 2306 3072 2169 3072 
Q 1681 3072 1420 2755 
Q 1159 2438 1159 1844 
L 1159 0 
L 581 0 
L 581 3500 
L 1159 3500 
L 1159 2956 
Q 1341 3275 1631 3429 
Q 1922 3584 2338 3584 
Q 2397 3584 2469 3576 
Q 2541 3569 2628 3553 
L 2631 2963 
z
" transform="scale(0.015625)"/>
       <path id="DejaVuSans-74" d="M 1172 4494 
L 1172 3500 
L 2356 3500 
L 2356 3053 
L 1172 3053 
L 1172 1153 
Q 1172 725 1289 603 
Q 1406 481 1766 481 
L 2356 481 
L 2356 0 
L 1766 0 
Q 1100 0 847 248 
Q 594 497 594 1153 
L 594 3053 
L 172 3053 
L 172 3500 
L 594 3500 
L 594 4494 
L 1172 4494 
z
" transform="scale(0.015625)"/>
       <path id="DejaVuSans-63" d="M 3122 3366 
L 3122 2828 
Q 2878 2963 2633 3030 
Q 2388 3097 2138 3097 
Q 1578 3097 1268 2742 
Q 959 2388 959 1747 
Q 959 1106 1268 751 
Q 1578 397 2138 397 
Q 2388 397 2633 464 
Q 2878 531 3122 666 
L 3122 134 
Q 2881 22 2623 -34 
Q 2366 -91 2075 -91 
Q 1284 -91 818 406 
Q 353 903 353 1747 
Q 353 2603 823 3093 
Q 1294 3584 2113 3584 
Q 2378 3584 2631 3529 
Q 2884 3475 3122 3366 
z
" transform="scale(0.015625)"/>
       <path id="DejaVuSans-20" transform="scale(0.015625)"/>
       <path id="DejaVuSans-43" d="M 4122 4306 
L 4122 3641 
Q 3803 3938 3442 4084 
Q 3081 4231 2675 4231 
Q 1875 4231 1450 3742 
Q 1025 3253 1025 2328 
Q 1025 1406 1450 917 
Q 1875 428 2675 428 
Q 3081 428 3442 575 
Q 3803 722 4122 1019 
L 4122 359 
Q 3791 134 3420 21 
Q 3050 -91 2638 -91 
Q 1578 -91 968 557 
Q 359 1206 359 2328 
Q 359 3453 968 4101 
Q 1578 4750 2638 4750 
Q 3056 4750 3426 4639 
Q 3797 4528 4122 4306 
z
" transform="scale(0.015625)"/>
       <path id="DejaVuSans-6f" d="M 1959 3097 
Q 1497 3097 1228 2736 
Q 959 2375 959 1747 
Q 959 1119 1226 758 
Q 1494 397 1959 397 
Q 2419 397 2687 759 
Q 2956 1122 2956 1747 
Q 2956 2369 2687 2733 
Q 2419 3097 1959 3097 
z
M 1959 3584 
Q 2709 3584 3137 3096 
Q 3566 2609 3566 1747 
Q 3566 888 3137 398 
Q 2709 -91 1959 -91 
Q 1206 -91 779 398 
Q 353 888 353 1747 
Q 353 2609 779 3096 
Q 1206 3584 1959 3584 
z
" transform="scale(0.015625)"/>
       <path id="DejaVuSans-76" d="M 191 3500 
L 800 3500 
L 1894 563 
L 2988 3500 
L 3597 3500 
L 2284 0 
L 1503 0 
L 191 3500 
z
" transform="scale(0.015625)"/>
       <path id="DejaVuSans-6e" d="M 3513 2113 
L 3513 0 
L 2938 0 
L 2938 2094 
Q 2938 2591 2744 2837 
Q 2550 3084 2163 3084 
Q 1697 3084 1428 2787 
Q 1159 2491 1159 1978 
L 1159 0 
L 581 0 
L 581 3500 
L 1159 3500 
L 1159 2956 
Q 1366 3272 1645 3428 
Q 1925 3584 2291 3584 
Q 2894 3584 3203 3211 
Q 3513 2838 3513 2113 
z
" transform="scale(0.015625)"/>
      </defs>
      <use xlink:href="#DejaVuSans-51"/>
      <use xlink:href="#DejaVuSans-75" x="78.710938"/>
      <use xlink:href="#DejaVuSans-61" x="142.089844"/>
      <use xlink:href="#DejaVuSans-64" x="203.369141"/>
      <use xlink:href="#DejaVuSans-72" x="266.845703"/>
      <use xlink:href="#DejaVuSans-61" x="307.958984"/>
      <use xlink:href="#DejaVuSans-74" x="369.238281"/>
      <use xlink:href="#DejaVuSans-69" x="408.447266"/>
      <use xlink:href="#DejaVuSans-63" x="436.230469"/>
      <use xlink:href="#DejaVuSans-20" x="491.210938"/>
      <use xlink:href="#DejaVuSans-43" x="522.998047"/>
      <use xlink:href="#DejaVuSans-6f" x="592.822266"/>
      <use xlink:href="#DejaVuSans-76" x="654.003906"/>
      <use xlink:href="#DejaVuSans-61" x="713.183594"/>
      <use xlink:href="#DejaVuSans-72" x="774.462891"/>
      <use xlink:href="#DejaVuSans-69" x="815.576172"/>
      <use xlink:href="#DejaVuSans-61" x="843.359375"/>
      <use xlink:href="#DejaVuSans-74" x="904.638672"/>
      <use xlink:href="#DejaVuSans-69" x="943.847656"/>
      <use xlink:href="#DejaVuSans-6f" x="971.630859"/>
      <use xlink:href="#DejaVuSans-6e" x="1032.8125"/>
     </g>
    </g>
   </g>
   <g id="line2d_13">
    <path d="M 161.509091 310.505753 
L 162.219273 307.925721 
L 162.929455 307.083051 
L 163.639636 309.488851 
L 164.349818 308.61242 
L 165.06 307.556311 
L 165.770182 310.036761 
L 166.480364 311.306793 
L 167.190545 310.039478 
L 167.900727 313.888561 
L 168.610909 312.416068 
L 169.321091 312.733756 
L 170.031273 314.558205 
L 170.741455 309.651621 
L 171.451636 308.283311 
L 172.161818 309.620317 
L 172.872 307.587115 
L 173.582182 306.636953 
L 174.292364 307.63253 
L 175.002545 305.882619 
L 175.712727 306.394589 
L 176.422909 307.097152 
L 177.133091 305.904542 
L 177.843273 305.826096 
L 178.553455 303.852841 
L 179.263636 303.214838 
L 179.973818 302.783313 
L 180.684 303.683418 
L 182.104364 302.720564 
L 182.814545 299.210129 
L 183.524727 299.514507 
L 184.234909 298.433391 
L 184.945091 298.451495 
L 185.655273 298.35726 
L 186.365455 298.584629 
L 187.075636 298.393537 
L 187.785818 297.896824 
L 188.496 295.67946 
L 189.206182 297.514748 
L 189.916364 297.765959 
L 190.626545 297.675907 
L 191.336727 296.162292 
L 192.046909 295.770621 
L 192.757091 297.549696 
L 193.467273 298.208594 
L 194.177455 296.629384 
L 194.887636 297.827806 
L 195.597818 295.050774 
L 196.308 293.593579 
L 197.018182 287.931625 
L 197.728364 284.439612 
L 199.148727 286.27365 
L 199.858909 285.723737 
L 200.569091 286.549837 
L 201.279273 284.114934 
L 201.989455 285.588422 
L 202.699636 285.253383 
L 203.409818 283.165461 
L 204.12 279.149646 
L 204.830182 283.171333 
L 205.540364 285.863635 
L 206.250545 286.076951 
L 206.960727 283.987626 
L 207.670909 283.847114 
L 208.381091 285.94306 
L 209.091273 283.452315 
L 209.801455 281.662315 
L 210.511636 277.079577 
L 211.221818 276.371363 
L 211.932 278.938242 
L 212.642182 277.153934 
L 213.352364 280.683198 
L 214.062545 279.175455 
L 214.772727 278.440895 
L 215.482909 278.077926 
L 216.193091 278.231781 
L 217.613455 275.694557 
L 218.323636 277.658443 
L 219.033818 277.155129 
L 219.744 275.827643 
L 220.454182 278.149332 
L 221.164364 275.230342 
L 221.874545 273.11873 
L 222.584727 271.465683 
L 223.294909 272.322144 
L 224.005091 273.641642 
L 224.715273 275.317808 
L 225.425455 276.473566 
L 226.135636 275.306368 
L 226.845818 273.017894 
L 227.556 267.512968 
L 228.266182 269.503842 
L 228.976364 269.715409 
L 229.686545 269.138779 
L 230.396727 266.027108 
L 231.106909 268.108661 
L 231.817091 265.971271 
L 232.527273 262.435022 
L 233.237455 263.077612 
L 233.947636 264.969008 
L 234.657818 266.179331 
L 235.368 264.610571 
L 236.078182 264.49155 
L 237.498545 265.699221 
L 238.208727 266.723682 
L 238.918909 265.155303 
L 239.629091 266.725973 
L 240.339273 266.51313 
L 241.049455 264.628511 
L 242.469818 266.654194 
L 243.18 268.450378 
L 243.890182 263.054296 
L 244.600364 263.924221 
L 245.310545 260.47579 
L 246.020727 261.090823 
L 246.730909 260.177418 
L 248.151273 256.246782 
L 248.861455 257.682774 
L 249.571636 256.245196 
L 250.281818 257.754005 
L 250.992 257.27426 
L 251.702182 256.542391 
L 252.412364 257.332604 
L 253.122545 254.588547 
L 253.832727 254.40375 
L 254.542909 256.172777 
L 255.253091 257.11733 
L 255.963273 258.299768 
L 257.383636 257.15067 
L 258.093818 258.252022 
L 258.804 256.369797 
L 259.514182 257.978171 
L 260.224364 259.873191 
L 260.934545 258.721047 
L 261.644727 257.31072 
L 262.354909 256.170252 
L 263.065091 257.655005 
L 264.485455 254.773723 
L 265.195636 253.857993 
L 265.905818 255.407159 
L 266.616 255.364468 
L 267.326182 254.650256 
L 268.036364 254.219576 
L 268.746545 255.485785 
L 269.456727 255.597824 
L 270.166909 253.827585 
L 270.877091 253.957988 
L 271.587273 255.680683 
L 272.297455 253.399644 
L 273.007636 255.00801 
L 273.717818 251.632906 
L 274.428 249.944734 
L 275.138182 248.960135 
L 275.848364 248.323107 
L 276.558545 247.887327 
L 277.268727 248.810706 
L 277.978909 252.46936 
L 278.689091 248.039061 
L 279.399273 254.178001 
L 280.109455 256.066894 
L 280.819636 257.211638 
L 281.529818 255.578744 
L 282.24 253.083938 
L 282.950182 253.665261 
L 285.080727 250.936239 
L 285.790909 248.515763 
L 286.501091 248.715324 
L 287.211273 249.720084 
L 287.921455 251.165854 
L 288.631636 253.352432 
L 289.341818 251.379982 
L 290.052 250.669462 
L 290.762182 246.966694 
L 291.472364 245.991358 
L 292.182545 243.783389 
L 292.892727 242.037182 
L 293.602909 242.189871 
L 294.313091 243.390156 
L 295.023273 241.463701 
L 295.733455 241.023517 
L 296.443636 240.012339 
L 297.153818 238.325286 
L 297.864 238.321985 
L 298.574182 237.890898 
L 299.284364 237.983834 
L 299.994545 240.301395 
L 300.704727 242.228014 
L 301.414909 242.420072 
L 302.125091 240.565147 
L 302.835273 241.574332 
L 303.545455 241.467102 
L 304.255636 242.504652 
L 304.965818 243.795108 
L 305.676 245.755924 
L 306.386182 248.62252 
L 307.096364 249.803364 
L 307.806545 249.453357 
L 309.226909 247.741442 
L 310.647273 241.211916 
L 311.357455 240.964327 
L 312.067636 241.436545 
L 312.777818 238.176908 
L 313.488 238.901108 
L 314.198182 240.022135 
L 315.618545 238.280401 
L 316.328727 237.843547 
L 317.038909 237.098377 
L 317.749091 239.91875 
L 318.459273 240.752183 
L 319.169455 241.087703 
L 319.879636 238.105583 
L 321.3 240.110659 
L 322.720364 244.40461 
L 323.430545 241.865247 
L 324.140727 241.889022 
L 324.850909 242.634847 
L 325.561091 244.026724 
L 326.271273 244.099634 
L 326.981455 244.741974 
L 327.691636 242.404607 
L 328.401818 245.762586 
L 329.112 245.313638 
L 329.822182 244.034402 
L 330.532364 244.894784 
L 331.242545 245.946977 
L 331.952727 245.14024 
L 332.662909 248.752783 
L 333.373091 249.22868 
L 334.083273 248.360824 
L 334.793455 245.360297 
L 335.503636 248.262943 
L 336.213818 252.097635 
L 336.924 254.992096 
L 337.634182 252.090029 
L 338.344364 254.390767 
L 339.054545 254.338082 
L 339.764727 251.074596 
L 340.474909 250.841422 
L 341.185091 250.912396 
L 341.895273 250.745462 
L 342.605455 254.864023 
L 343.315636 253.822738 
L 344.025818 252.136374 
L 344.736 251.366539 
L 345.446182 252.269558 
L 346.156364 251.99071 
L 346.866545 253.099255 
L 347.576727 256.6921 
L 348.286909 258.171196 
L 348.997091 259.918669 
L 349.707273 258.076718 
L 350.417455 254.41113 
L 351.127636 255.682241 
L 351.837818 254.789279 
L 352.548 255.878997 
L 353.258182 256.034756 
L 353.968364 254.054313 
L 354.678545 256.2062 
L 355.388727 254.104622 
L 356.098909 253.864792 
L 356.809091 254.491636 
L 357.519273 257.956863 
L 358.229455 255.682416 
L 358.939636 255.848933 
L 359.649818 255.609943 
L 360.36 257.84859 
L 361.070182 258.976477 
L 361.780364 258.103759 
L 362.490545 259.710658 
L 363.200727 259.865549 
L 363.910909 260.139498 
L 364.621091 261.014097 
L 365.331273 264.637718 
L 366.041455 263.928284 
L 366.751636 266.940763 
L 367.461818 267.534777 
L 368.172 265.832388 
L 368.882182 266.208118 
L 369.592364 266.016438 
L 370.302545 266.732275 
L 371.012727 262.899495 
L 371.722909 260.062026 
L 372.433091 262.780987 
L 373.143273 261.947871 
L 374.563636 257.812312 
L 375.273818 256.746907 
L 375.984 254.348803 
L 376.694182 253.478907 
L 377.404364 252.228322 
L 378.114545 250.152876 
L 378.824727 249.95456 
L 379.534909 245.767247 
L 380.245091 242.644232 
L 381.665455 239.378515 
L 382.375636 238.765921 
L 383.085818 239.396031 
L 383.796 234.961666 
L 384.506182 235.839358 
L 385.216364 233.681003 
L 385.926545 232.370215 
L 386.636727 230.572292 
L 387.346909 230.31771 
L 388.057091 230.389752 
L 388.767273 228.176657 
L 389.477455 227.070794 
L 390.187636 228.09416 
L 390.897818 228.485796 
L 391.608 230.067611 
L 392.318182 229.440483 
L 393.028364 229.781887 
L 393.738545 226.663469 
L 394.448727 227.377574 
L 395.158909 224.734314 
L 395.869091 224.280058 
L 396.579273 219.538809 
L 397.289455 218.578374 
L 397.999636 219.35894 
L 398.709818 221.209107 
L 399.42 220.598842 
L 400.130182 220.674118 
L 400.840364 219.033793 
L 401.550545 217.869563 
L 402.260727 216.19464 
L 402.970909 216.20466 
L 403.681091 217.180985 
L 404.391273 218.995783 
L 405.101455 216.973356 
L 405.811636 219.11907 
L 406.521818 217.967545 
L 407.232 214.589783 
L 408.652364 209.124475 
L 409.362545 208.732484 
L 410.072727 208.00364 
L 410.782909 205.63398 
L 412.203273 199.559843 
L 412.913455 200.016629 
L 413.623636 201.949082 
L 414.333818 202.225059 
L 415.044 206.567626 
L 415.754182 205.437011 
L 416.464364 208.263717 
L 417.174545 207.694088 
L 417.884727 208.424002 
L 418.594909 211.797361 
L 419.305091 209.137272 
L 420.015273 209.010379 
L 420.725455 209.707052 
L 421.435636 209.481719 
L 422.145818 209.555161 
L 422.856 209.843395 
L 423.566182 207.78708 
L 424.276364 203.699168 
L 424.986545 204.219846 
L 425.696727 205.203427 
L 426.406909 206.968609 
L 427.117091 205.665534 
L 427.827273 202.807133 
L 428.537455 204.109311 
L 429.247636 203.086355 
L 429.957818 199.975249 
L 431.378182 195.401544 
L 432.088364 196.554044 
L 434.218909 198.533831 
L 434.929091 197.817268 
L 435.639273 197.585842 
L 436.349455 197.887299 
L 437.059636 200.544557 
L 438.48 197.332945 
L 439.190182 197.096407 
L 439.900364 199.040604 
L 440.610545 198.613026 
L 441.320727 200.017076 
L 442.030909 199.881404 
L 442.741091 201.008825 
L 443.451273 197.03179 
L 444.161455 197.035756 
L 444.871636 195.431946 
L 445.581818 194.137729 
L 446.292 193.910364 
L 447.002182 194.452344 
L 447.712364 194.650199 
L 448.422545 195.485993 
L 449.132727 193.776492 
L 449.842909 194.519355 
L 450.553091 195.698093 
L 451.263273 197.8844 
L 451.973455 197.943237 
L 452.683636 194.217099 
L 453.393818 194.722066 
L 454.104 195.666938 
L 454.814182 195.675268 
L 455.524364 192.433557 
L 456.234545 191.889601 
L 456.944727 191.94229 
L 457.654909 191.249798 
L 458.365091 193.659692 
L 459.785455 199.709922 
L 460.495636 200.282206 
L 461.916 200.692634 
L 462.626182 202.238264 
L 463.336364 203.496218 
L 464.046545 202.103025 
L 464.756727 203.736872 
L 465.466909 200.064374 
L 466.177091 199.300392 
L 466.887273 198.888301 
L 467.597455 197.155913 
L 468.307636 196.230655 
L 469.017818 198.703485 
L 469.728 198.314256 
L 470.438182 198.751855 
L 471.148364 196.45598 
L 471.858545 195.787816 
L 472.568727 196.119092 
L 473.989091 193.012582 
L 474.699273 192.181031 
L 475.409455 190.45536 
L 476.119636 190.913131 
L 477.54 186.120188 
L 478.250182 186.648606 
L 479.670545 191.420426 
L 480.380727 191.898378 
L 481.090909 188.702721 
L 481.801091 186.440341 
L 482.511273 189.560834 
L 483.221455 190.028626 
L 483.931636 187.562321 
L 485.352 195.369451 
L 486.062182 196.831381 
L 486.772364 196.451752 
L 488.192727 197.611801 
L 488.902909 199.16039 
L 489.613091 201.619143 
L 490.323273 200.807 
L 491.033455 200.224446 
L 491.743636 199.478346 
L 492.453818 200.313716 
L 493.164 198.051819 
L 493.874182 193.127485 
L 494.584364 190.795501 
L 495.294545 191.943435 
L 496.004727 190.69477 
L 497.425091 191.609203 
L 498.135273 192.901963 
L 498.845455 193.334746 
L 499.555636 193.011052 
L 500.265818 191.798545 
L 500.976 194.318893 
L 501.686182 194.461087 
L 502.396364 195.424828 
L 503.106545 194.515499 
L 503.816727 198.282404 
L 504.526909 195.20386 
L 505.237091 195.462067 
L 505.947273 196.14416 
L 506.657455 194.456198 
L 507.367636 193.735871 
L 508.077818 192.397369 
L 508.788 190.605084 
L 509.498182 191.244073 
L 510.208364 192.835445 
L 510.918545 192.302897 
L 511.628727 192.346985 
L 513.049091 190.963215 
L 513.759273 185.278523 
L 514.469455 185.790986 
L 515.179636 186.520155 
L 515.889818 183.839981 
L 516.6 183.401494 
L 517.310182 182.739462 
L 518.020364 182.916806 
L 518.730545 178.52655 
L 519.440727 180.794071 
L 520.150909 179.497341 
L 520.861091 177.855354 
L 521.571273 179.451197 
L 522.281455 180.728304 
L 522.991636 179.282084 
L 523.701818 175.118025 
L 524.412 175.031166 
L 525.122182 172.543389 
L 525.832364 168.004171 
L 526.542545 170.235536 
L 527.252727 171.266418 
L 527.962909 174.116704 
L 528.673091 173.453397 
L 529.383273 173.905902 
L 530.093455 176.011034 
L 530.803636 174.081175 
L 531.513818 173.827483 
L 532.224 171.798008 
L 532.934182 171.791046 
L 533.644364 170.051542 
L 535.064727 175.354283 
L 535.774909 174.376549 
L 536.485091 174.916769 
L 537.195273 173.242981 
L 537.905455 173.071595 
L 538.615636 177.231421 
L 539.325818 179.165182 
L 540.036 179.094082 
L 540.746182 177.852663 
L 541.456364 175.293919 
L 542.166545 175.784842 
L 542.876727 176.95098 
L 543.586909 174.463236 
L 544.297091 175.649693 
L 545.007273 177.268107 
L 545.717455 177.466855 
L 546.427636 174.525034 
L 547.137818 177.346838 
L 547.848 175.70678 
L 548.558182 174.346933 
L 549.268364 174.58718 
L 550.688727 170.21499 
L 551.398909 169.45722 
L 552.109091 168.998919 
L 552.819273 166.41363 
L 553.529455 167.580223 
L 554.239636 166.072173 
L 555.66 168.763849 
L 556.370182 167.467444 
L 557.080364 166.491537 
L 557.790545 165.250558 
L 558.500727 165.41435 
L 559.210909 163.944342 
L 559.921091 162.830031 
L 560.631273 164.872719 
L 561.341455 168.136042 
L 562.761818 162.995495 
L 564.182182 162.039773 
L 564.892364 163.895364 
L 565.602545 163.041779 
L 566.312727 162.876373 
L 567.733091 156.543789 
L 568.443273 156.811549 
L 569.153455 155.99402 
L 569.863636 156.661089 
L 570.573818 155.178146 
L 571.284 155.547608 
L 572.704364 156.859318 
L 573.414545 156.631727 
L 574.124727 156.697838 
L 574.834909 157.620152 
L 576.255273 153.345027 
L 576.965455 153.538826 
L 577.675636 154.949472 
L 578.385818 154.818033 
L 579.096 152.282635 
L 579.806182 151.147683 
L 580.516364 152.072154 
L 581.226545 154.281963 
L 581.936727 153.092308 
L 582.646909 149.6137 
L 583.357091 151.467539 
L 584.067273 154.584345 
L 584.777455 150.289483 
L 585.487636 150.244908 
L 586.908 152.800308 
L 587.618182 156.061013 
L 588.328364 155.110094 
L 589.038545 157.624081 
L 589.748727 156.077044 
L 590.458909 155.527058 
L 591.169091 156.120845 
L 592.589455 152.48806 
L 593.299636 153.25129 
L 594.009818 152.535428 
L 594.72 152.384884 
L 595.430182 155.165963 
L 596.140364 154.337141 
L 597.560727 153.682223 
L 598.270909 154.978745 
L 598.981091 152.840685 
L 599.691273 153.293089 
L 600.401455 151.152543 
L 601.111636 153.465821 
L 601.821818 153.839111 
L 602.532 150.788633 
L 603.242182 152.427054 
L 603.952364 151.949701 
L 604.662545 150.798261 
L 605.372727 149.218005 
L 606.082909 149.307366 
L 606.793091 150.46254 
L 607.503273 149.260935 
L 608.213455 151.23307 
L 608.923636 150.205294 
L 610.344 143.620623 
L 611.054182 143.234608 
L 611.764364 139.957262 
L 612.474545 138.507388 
L 613.184727 138.577734 
L 613.894909 138.401674 
L 614.605091 138.522849 
L 615.315273 139.044802 
L 616.025455 136.888024 
L 616.735636 135.217585 
L 617.445818 136.601588 
L 618.156 135.740712 
L 618.866182 133.954673 
L 619.576364 134.065166 
L 620.286545 131.752068 
L 620.996727 132.029521 
L 621.706909 132.815627 
L 623.127273 131.961063 
L 623.837455 132.634417 
L 625.257818 130.224209 
L 625.968 130.492165 
L 626.678182 129.3416 
L 627.388364 130.669891 
L 628.808727 128.454671 
L 629.518909 129.94153 
L 630.229091 128.438956 
L 630.939273 131.706744 
L 631.649455 129.177257 
L 632.359636 129.988213 
L 633.069818 133.424074 
L 633.78 131.242068 
L 634.490182 130.588439 
L 635.200364 129.706318 
L 635.910545 132.424464 
L 636.620727 133.415801 
L 637.330909 131.792605 
L 638.751273 124.553603 
L 639.461455 122.762878 
L 640.171636 121.91988 
L 640.881818 122.572177 
L 641.592 125.862894 
L 642.302182 124.619999 
L 643.012364 124.326422 
L 643.722545 126.197739 
L 644.432727 124.792846 
L 645.142909 124.969761 
L 645.853091 123.772195 
L 646.563273 124.448834 
L 647.273455 123.911977 
L 647.983636 124.330969 
L 648.693818 123.859448 
L 649.404 125.11338 
L 650.114182 124.64058 
L 650.824364 122.592866 
L 651.534545 122.166569 
L 652.244727 122.596771 
L 652.954909 121.126617 
L 653.665091 118.781556 
L 655.085455 116.576104 
L 655.795636 116.871555 
L 656.505818 116.770962 
L 657.216 116.892292 
L 657.926182 119.031769 
L 658.636364 118.619605 
L 659.346545 119.719639 
L 660.056727 117.025383 
L 661.477091 122.354714 
L 662.187273 120.571991 
L 662.897455 118.13832 
L 663.607636 121.247804 
L 664.317818 120.435787 
L 665.028 120.982797 
L 666.448364 119.639383 
L 667.868727 123.040069 
L 668.578909 124.282042 
L 669.289091 127.508462 
L 669.999273 128.578303 
L 670.709455 128.881355 
L 671.419636 132.304178 
L 672.129818 133.53491 
L 673.550182 130.437286 
L 674.260364 133.625978 
L 675.680727 133.109817 
L 676.390909 133.795388 
L 677.101091 130.17024 
L 677.811273 128.889128 
L 678.521455 129.639618 
L 679.231636 127.416913 
L 679.941818 126.843082 
L 680.652 124.562072 
L 681.362182 124.985557 
L 682.072364 123.872438 
L 682.782545 124.895421 
L 683.492727 126.427637 
L 684.202909 127.13859 
L 684.913091 128.989156 
L 685.623273 127.781986 
L 686.333455 127.789461 
L 687.043636 130.074607 
L 687.753818 127.760619 
L 688.464 130.239521 
L 689.174182 127.590483 
L 689.884364 127.49092 
L 690.594545 126.544209 
L 691.304727 127.334464 
L 692.014909 129.429577 
L 692.725091 129.127907 
L 693.435273 127.263689 
L 694.145455 124.99507 
L 694.855636 124.748717 
L 695.565818 121.810989 
L 696.276 124.613826 
L 696.986182 125.210281 
L 697.696364 125.159936 
L 698.406545 124.680027 
L 699.116727 121.994227 
L 699.826909 120.045345 
L 700.537091 117.12595 
L 701.247273 117.229661 
L 701.957455 120.81265 
L 702.667636 123.592832 
L 704.088 119.624191 
L 704.798182 122.152312 
L 705.508364 121.433125 
L 706.218545 119.91525 
L 706.928727 117.347148 
L 707.638909 113.766928 
L 708.349091 115.72092 
L 709.059273 115.085432 
L 709.769455 114.200968 
L 710.479636 112.978401 
L 711.189818 112.102578 
L 711.9 112.507258 
L 712.610182 111.963187 
L 713.320364 112.143066 
L 714.030545 111.501964 
L 714.740727 109.909535 
L 715.450909 111.636345 
L 716.161091 116.996492 
L 716.871273 113.672381 
L 717.581455 111.001165 
L 719.001818 111.444159 
L 719.712 114.67576 
L 720.422182 115.132445 
L 721.132364 112.215434 
L 721.842545 112.839916 
L 722.552727 110.511372 
L 723.262909 114.367885 
L 723.973091 114.667768 
L 724.683273 111.108711 
L 725.393455 111.22996 
L 726.103636 110.294368 
L 726.813818 112.128311 
L 727.524 113.104843 
L 728.944364 112.712816 
L 731.074909 111.767856 
L 731.785091 114.649668 
L 732.495273 114.779178 
L 733.205455 115.454652 
L 734.625818 115.136841 
L 735.336 114.095795 
L 736.046182 114.30763 
L 737.466545 115.489301 
L 738.176727 119.514992 
L 738.886909 121.63712 
L 739.597091 118.954937 
L 740.307273 114.929121 
L 741.017455 115.325144 
L 742.437818 114.964036 
L 743.148 113.31991 
L 743.858182 110.600231 
L 744.568364 111.197236 
L 745.278545 112.102889 
L 745.988727 110.076324 
L 746.698909 108.830935 
L 747.409091 108.963999 
L 748.119273 110.044173 
L 748.829455 109.90157 
L 749.539636 110.176011 
L 750.249818 109.880992 
L 750.96 108.623936 
L 751.670182 108.834125 
L 752.380364 107.415028 
L 753.090545 109.113268 
L 753.800727 109.152882 
L 754.510909 110.191851 
L 755.221091 112.188113 
L 755.931273 113.619962 
L 756.641455 113.442145 
L 757.351636 112.687081 
L 758.061818 114.512553 
L 758.772 113.772235 
L 759.482182 114.307608 
L 760.192364 109.564986 
L 761.612727 111.539242 
L 762.322909 105.068913 
L 763.033091 104.555485 
L 763.743273 105.901577 
L 764.453455 103.627792 
L 765.163636 104.389999 
L 767.294182 105.72394 
L 768.004364 104.481686 
L 768.714545 101.511661 
L 769.424727 101.491881 
L 770.134909 100.814043 
L 770.845091 97.872873 
L 771.555273 98.681894 
L 772.265455 99.132879 
L 772.975636 98.90678 
L 773.685818 100.792749 
L 774.396 97.776204 
L 775.106182 96.55332 
L 775.816364 97.838883 
L 776.526545 101.046507 
L 777.236727 100.810207 
L 777.946909 101.406949 
L 778.657091 101.036951 
L 779.367273 102.912688 
L 780.077455 105.982813 
L 780.787636 107.142824 
L 781.497818 107.201131 
L 782.208 106.91064 
L 782.918182 107.547052 
L 783.628364 107.960505 
L 784.338545 106.249763 
L 785.048727 105.993173 
L 785.758909 105.613077 
L 786.469091 103.259882 
L 787.179273 101.867088 
L 787.889455 101.436429 
L 788.599636 102.558079 
L 789.309818 99.30193 
L 790.02 99.873118 
L 790.730182 99.338024 
L 791.440364 94.180403 
L 792.150545 93.271175 
L 792.860727 91.008255 
L 793.570909 91.233943 
L 794.281091 89.804695 
L 794.991273 90.174158 
L 795.701455 89.265373 
L 796.411636 86.197235 
L 797.121818 83.639926 
L 797.832 84.970803 
L 798.542182 85.381718 
L 799.252364 83.891866 
L 799.962545 84.244929 
L 800.672727 83.46334 
L 801.382909 81.128337 
L 802.093091 82.326151 
L 802.803273 82.280671 
L 803.513455 83.970544 
L 804.223636 82.980157 
L 804.933818 82.451874 
L 805.644 82.505681 
L 806.354182 83.105995 
L 807.064364 79.677837 
L 807.774545 79.170031 
L 808.484727 76.701669 
L 809.194909 80.365359 
L 809.905091 77.315093 
L 810.615273 76.60411 
L 811.325455 77.425775 
L 812.035636 77.238816 
L 812.745818 75.370959 
L 813.456 75.620348 
L 814.166182 75.65353 
L 814.876364 80.250421 
L 815.586545 80.244239 
L 816.296727 80.712866 
L 817.006909 81.442396 
L 817.717091 80.707068 
L 818.427273 79.569727 
L 819.137455 78.812551 
L 819.847636 80.494528 
L 821.268 76.311587 
L 821.978182 76.397485 
L 823.398545 80.892607 
L 824.108727 77.532677 
L 824.818909 77.130836 
L 825.529091 76.353964 
L 826.239273 76.128494 
L 826.949455 80.075673 
L 827.659636 77.978197 
L 828.369818 76.547005 
L 829.08 75.715454 
L 829.790182 76.124772 
L 831.210545 78.475628 
L 831.920727 80.362434 
L 832.630909 82.705055 
L 833.341091 82.98793 
L 834.051273 80.476659 
L 834.761455 80.357371 
L 835.471636 78.787746 
L 836.181818 78.1108 
L 836.892 80.133718 
L 837.602182 80.732422 
L 838.312364 78.496249 
L 839.732727 82.092839 
L 840.442909 82.415287 
L 841.863273 79.656573 
L 842.573455 80.774827 
L 843.993818 76.33068 
L 844.704 77.830831 
L 845.414182 80.334386 
L 846.124364 84.103862 
L 847.544727 84.336016 
L 848.254909 82.162598 
L 848.965091 82.609383 
L 849.675273 82.057813 
L 850.385455 77.747866 
L 851.095636 76.782847 
L 851.805818 76.110531 
L 852.516 73.249326 
L 853.226182 73.28863 
L 853.936364 70.451042 
L 854.646545 69.294342 
L 855.356727 70.689687 
L 856.066909 68.793136 
L 856.777091 68.911076 
L 857.487273 69.523689 
L 858.197455 68.957537 
L 859.617818 68.297246 
L 860.328 68.273639 
L 861.038182 67.139724 
L 861.748364 69.66144 
L 862.458545 70.757241 
L 863.168727 74.830794 
L 863.878909 74.936561 
L 864.589091 74.722881 
L 865.299273 77.220366 
L 866.009455 76.200257 
L 866.719636 71.272137 
L 867.429818 68.027306 
L 868.850182 69.068924 
L 869.560364 66.96 
L 870.270545 70.679573 
L 870.980727 70.112256 
L 871.690909 72.345888 
L 871.690909 72.345888 
" clip-path="url(#pbe35a2a480)" style="fill: none; stroke: #1f77b4; stroke-width: 1.5; stroke-linecap: square"/>
   </g>
   <g id="line2d_14">
    <path d="M 161.509091 310.505753 
L 162.219273 310.17529 
L 162.929455 310.275183 
L 163.639636 314.380142 
L 164.349818 310.617726 
L 165.06 308.900641 
L 165.770182 314.100038 
L 166.480364 316.069358 
L 167.190545 315.540148 
L 167.900727 322.558097 
L 168.610909 320.690433 
L 169.321091 324.553739 
L 170.031273 324.805117 
L 170.741455 320.337608 
L 171.451636 318.696534 
L 172.161818 320.224186 
L 173.582182 315.048303 
L 174.292364 317.066402 
L 175.002545 314.552747 
L 175.712727 315.336733 
L 176.422909 311.437497 
L 177.133091 310.133589 
L 177.843273 312.014209 
L 178.553455 311.516661 
L 179.263636 310.716853 
L 179.973818 308.955071 
L 180.684 313.543493 
L 181.394182 313.490306 
L 182.104364 312.764467 
L 182.814545 307.749061 
L 183.524727 309.111308 
L 184.234909 305.620108 
L 184.945091 305.389435 
L 185.655273 304.141731 
L 186.365455 304.447384 
L 187.075636 301.77193 
L 187.785818 300.3715 
L 188.496 299.306773 
L 189.206182 301.772754 
L 189.916364 300.036127 
L 190.626545 299.929998 
L 191.336727 304.222075 
L 192.046909 302.948632 
L 192.757091 303.799913 
L 193.467273 305.746772 
L 194.887636 304.481002 
L 195.597818 303.748605 
L 196.308 299.194319 
L 197.018182 293.20002 
L 197.728364 290.666986 
L 198.438545 294.997046 
L 199.148727 296.673478 
L 199.858909 295.316417 
L 200.569091 296.531119 
L 201.279273 295.969968 
L 201.989455 301.788075 
L 202.699636 301.105792 
L 203.409818 298.221774 
L 204.12 294.480827 
L 205.540364 303.72944 
L 206.250545 305.712044 
L 206.960727 299.894276 
L 207.670909 301.242521 
L 208.381091 302.255223 
L 209.091273 302.190511 
L 209.801455 299.759097 
L 210.511636 294.646902 
L 211.221818 296.35334 
L 211.932 300.684745 
L 212.642182 303.265748 
L 213.352364 308.198343 
L 214.062545 308.32179 
L 214.772727 307.96649 
L 215.482909 312.152783 
L 216.193091 312.072523 
L 216.903273 311.610372 
L 217.613455 309.805394 
L 218.323636 310.231141 
L 219.033818 312.329385 
L 219.744 310.044634 
L 220.454182 313.512636 
L 221.164364 306.8934 
L 221.874545 302.858611 
L 222.584727 302.925188 
L 223.294909 302.823398 
L 224.005091 301.925964 
L 224.715273 300.23308 
L 225.425455 299.586971 
L 226.135636 296.351485 
L 226.845818 294.450188 
L 227.556 288.175206 
L 228.266182 293.197924 
L 228.976364 296.150515 
L 229.686545 294.761514 
L 230.396727 290.775261 
L 231.106909 296.007759 
L 231.817091 294.577762 
L 232.527273 286.993198 
L 233.237455 286.73097 
L 233.947636 288.056701 
L 234.657818 288.6498 
L 235.368 286.652549 
L 236.078182 288.464442 
L 236.788364 285.951558 
L 237.498545 287.640825 
L 238.208727 289.902708 
L 238.918909 287.535094 
L 239.629091 290.655511 
L 240.339273 289.104395 
L 241.049455 291.114507 
L 241.759636 294.852939 
L 242.469818 297.089048 
L 243.18 298.019856 
L 243.890182 295.351146 
L 244.600364 291.45767 
L 245.310545 286.767846 
L 246.020727 291.271496 
L 246.730909 290.353312 
L 247.441091 290.584731 
L 248.151273 287.712714 
L 248.861455 289.396126 
L 249.571636 289.500102 
L 250.281818 290.383507 
L 250.992 290.058108 
L 251.702182 291.100986 
L 252.412364 291.659611 
L 253.122545 287.209627 
L 253.832727 286.60936 
L 254.542909 288.212124 
L 255.253091 288.941195 
L 256.673455 288.233486 
L 257.383636 290.076288 
L 258.093818 293.333065 
L 258.804 291.142313 
L 259.514182 296.442913 
L 260.224364 299.614606 
L 260.934545 300.98209 
L 261.644727 299.576853 
L 262.354909 297.567871 
L 263.065091 300.742604 
L 263.775273 303.150923 
L 264.485455 300.460342 
L 265.195636 299.067347 
L 265.905818 299.684664 
L 266.616 300.562276 
L 267.326182 300.429403 
L 268.036364 299.610103 
L 268.746545 301.118784 
L 270.166909 295.652655 
L 270.877091 295.688353 
L 271.587273 296.279963 
L 272.297455 294.03769 
L 273.007636 294.648514 
L 273.717818 291.176497 
L 274.428 286.836138 
L 275.138182 285.017799 
L 275.848364 284.353732 
L 276.558545 282.488556 
L 277.268727 284.434503 
L 277.978909 287.39759 
L 278.689091 283.219994 
L 279.399273 287.352202 
L 280.109455 290.283182 
L 280.819636 295.866373 
L 281.529818 292.554375 
L 282.24 287.740522 
L 282.950182 286.241095 
L 283.660364 283.064443 
L 285.080727 284.074255 
L 285.790909 282.626422 
L 286.501091 283.31487 
L 287.211273 286.085528 
L 287.921455 286.483193 
L 288.631636 289.481524 
L 289.341818 288.613092 
L 290.052 288.235241 
L 290.762182 287.693262 
L 291.472364 286.178645 
L 292.182545 285.460516 
L 293.602909 281.883115 
L 294.313091 281.940866 
L 295.023273 280.656454 
L 295.733455 279.702587 
L 296.443636 274.349192 
L 297.153818 270.971714 
L 297.864 274.983964 
L 299.284364 276.960257 
L 299.994545 282.195267 
L 300.704727 280.01003 
L 301.414909 279.08635 
L 302.125091 275.842362 
L 303.545455 281.864856 
L 304.255636 280.564738 
L 304.965818 281.617898 
L 305.676 282.247987 
L 306.386182 287.686243 
L 307.096364 288.422489 
L 307.806545 289.701625 
L 308.516727 292.629814 
L 309.226909 293.485381 
L 309.937091 292.895104 
L 310.647273 287.250498 
L 311.357455 288.039758 
L 312.067636 288.154178 
L 312.777818 285.616051 
L 313.488 289.887528 
L 314.198182 292.332442 
L 314.908364 291.187738 
L 315.618545 286.524818 
L 316.328727 287.522484 
L 317.038909 284.523056 
L 317.749091 287.727297 
L 318.459273 287.426599 
L 319.169455 290.00697 
L 319.879636 287.053285 
L 320.589818 286.400572 
L 321.3 284.424584 
L 322.010182 288.796265 
L 322.720364 291.11853 
L 323.430545 286.335325 
L 324.140727 284.993889 
L 324.850909 284.638196 
L 325.561091 285.787658 
L 326.271273 289.265963 
L 326.981455 288.572044 
L 327.691636 288.444985 
L 328.401818 291.278006 
L 329.112 293.305531 
L 329.822182 294.120673 
L 330.532364 298.04927 
L 331.242545 299.857162 
L 331.952727 296.367293 
L 332.662909 298.706378 
L 333.373091 298.902466 
L 334.083273 297.925835 
L 334.793455 293.995519 
L 335.503636 295.38286 
L 336.213818 299.621944 
L 336.924 301.759809 
L 337.634182 297.224428 
L 338.344364 302.706538 
L 339.054545 301.524613 
L 339.764727 297.077635 
L 340.474909 297.45171 
L 341.185091 300.983116 
L 341.895273 301.562354 
L 342.605455 306.010097 
L 343.315636 302.141175 
L 344.025818 302.408832 
L 345.446182 304.899001 
L 346.156364 302.815439 
L 347.576727 311.497338 
L 348.286909 315.801402 
L 348.997091 316.519397 
L 349.707273 313.499942 
L 350.417455 308.324419 
L 351.127636 310.476144 
L 351.837818 308.342015 
L 352.548 309.256605 
L 353.258182 312.873523 
L 353.968364 310.601883 
L 354.678545 314.551663 
L 355.388727 313.935912 
L 356.098909 314.34804 
L 357.519273 320.588819 
L 358.229455 319.245228 
L 358.939636 319.907319 
L 360.36 325.351385 
L 361.070182 325.855983 
L 361.780364 323.524179 
L 362.490545 322.816877 
L 363.200727 323.331111 
L 363.910909 323.258479 
L 364.621091 323.405393 
L 365.331273 323.769583 
L 366.041455 328.77823 
L 366.751636 328.362648 
L 367.461818 329.235443 
L 368.172 326.339144 
L 368.882182 326.756322 
L 369.592364 326.624703 
L 370.302545 326.212007 
L 371.012727 321.846325 
L 371.722909 318.350773 
L 372.433091 319.26765 
L 373.143273 316.02916 
L 373.853455 313.328594 
L 374.563636 311.580165 
L 375.273818 308.544484 
L 375.984 303.7964 
L 376.694182 302.407131 
L 377.404364 300.411964 
L 378.114545 300.992886 
L 378.824727 300.745745 
L 379.534909 296.919192 
L 380.245091 295.55153 
L 380.955273 298.625135 
L 381.665455 296.090331 
L 382.375636 295.304562 
L 383.085818 294.334865 
L 383.796 290.081544 
L 384.506182 292.903037 
L 385.216364 290.552997 
L 385.926545 287.004875 
L 386.636727 285.743199 
L 387.346909 285.537968 
L 388.057091 287.403744 
L 388.767273 284.99204 
L 389.477455 283.361038 
L 390.187636 283.129165 
L 390.897818 285.443213 
L 391.608 288.381198 
L 392.318182 288.469446 
L 393.028364 285.767009 
L 393.738545 279.877465 
L 394.448727 280.393602 
L 395.158909 278.766726 
L 395.869091 280.234398 
L 396.579273 274.869814 
L 397.289455 271.160873 
L 397.999636 271.105859 
L 398.709818 276.142234 
L 399.42 277.085844 
L 400.840364 274.913549 
L 402.260727 267.618344 
L 402.970909 268.3142 
L 403.681091 268.518414 
L 404.391273 271.128324 
L 405.101455 268.973037 
L 406.521818 273.574694 
L 407.232 270.125708 
L 407.942182 267.94536 
L 408.652364 263.798855 
L 409.362545 264.681244 
L 410.782909 258.172055 
L 411.493091 253.777896 
L 412.203273 250.421466 
L 412.913455 253.235087 
L 413.623636 260.221366 
L 414.333818 260.981549 
L 415.044 268.080811 
L 415.754182 264.912474 
L 416.464364 269.110969 
L 417.174545 267.63324 
L 417.884727 270.361292 
L 418.594909 270.869252 
L 419.305091 267.596728 
L 420.015273 268.128417 
L 420.725455 266.821184 
L 421.435636 267.129169 
L 422.145818 266.929429 
L 422.856 267.660498 
L 423.566182 266.018982 
L 424.276364 260.482813 
L 424.986545 260.757104 
L 425.696727 260.660104 
L 426.406909 262.683163 
L 427.117091 261.660271 
L 428.537455 258.482701 
L 429.247636 254.995946 
L 430.668 246.676459 
L 431.378182 245.45169 
L 432.088364 247.570954 
L 432.798545 249.120697 
L 433.508727 252.640785 
L 434.218909 252.626714 
L 434.929091 253.406797 
L 435.639273 252.971996 
L 436.349455 248.593791 
L 437.059636 251.751343 
L 437.769818 248.296867 
L 438.48 248.06544 
L 439.190182 245.026254 
L 440.610545 246.396272 
L 441.320727 248.301179 
L 442.030909 248.461891 
L 442.741091 249.803406 
L 443.451273 244.391787 
L 444.161455 245.529009 
L 444.871636 242.539931 
L 445.581818 242.971515 
L 446.292 238.127677 
L 447.002182 240.312841 
L 447.712364 239.38875 
L 448.422545 240.168844 
L 449.132727 238.288382 
L 449.842909 237.159259 
L 450.553091 236.920704 
L 451.263273 240.681308 
L 451.973455 241.394897 
L 452.683636 237.357456 
L 453.393818 234.459171 
L 454.104 233.360502 
L 454.814182 233.536754 
L 455.524364 232.239519 
L 456.944727 229.271945 
L 457.654909 226.025626 
L 458.365091 231.494909 
L 459.785455 237.948927 
L 460.495636 240.561464 
L 461.205818 240.242628 
L 461.916 244.276149 
L 462.626182 245.721247 
L 463.336364 246.316289 
L 464.046545 244.193938 
L 464.756727 245.770078 
L 465.466909 243.393501 
L 466.177091 243.153188 
L 466.887273 242.481816 
L 468.307636 234.271397 
L 469.017818 237.104603 
L 470.438182 235.734508 
L 471.148364 232.860048 
L 471.858545 230.623458 
L 472.568727 231.091632 
L 473.278909 228.505898 
L 473.989091 228.423105 
L 474.699273 229.721421 
L 475.409455 223.1592 
L 476.119636 224.793166 
L 476.829818 223.683108 
L 477.54 222.323474 
L 478.250182 222.949101 
L 478.960364 226.710905 
L 479.670545 226.558514 
L 480.380727 227.255531 
L 481.090909 223.347968 
L 481.801091 223.326582 
L 482.511273 226.8003 
L 483.221455 226.153322 
L 483.931636 224.496229 
L 484.641818 231.225168 
L 485.352 232.326105 
L 486.062182 235.458879 
L 486.772364 234.664653 
L 487.482545 235.608335 
L 488.192727 235.973853 
L 488.902909 238.045705 
L 489.613091 241.646666 
L 490.323273 239.640959 
L 491.033455 239.080298 
L 491.743636 236.07983 
L 492.453818 239.534005 
L 493.164 234.192504 
L 493.874182 226.626667 
L 494.584364 228.487773 
L 495.294545 227.660171 
L 496.004727 228.415971 
L 496.714909 228.416999 
L 497.425091 229.374072 
L 498.135273 233.109416 
L 499.555636 238.340857 
L 500.265818 235.315438 
L 500.976 238.376848 
L 501.686182 236.952925 
L 502.396364 239.765166 
L 503.106545 237.052207 
L 503.816727 241.165341 
L 504.526909 235.659213 
L 505.237091 234.631245 
L 505.947273 234.718002 
L 506.657455 229.876174 
L 507.367636 230.054872 
L 508.077818 229.163746 
L 508.788 230.572904 
L 509.498182 229.766335 
L 510.208364 230.750628 
L 510.918545 229.232621 
L 511.628727 229.328687 
L 512.338909 227.470738 
L 513.049091 229.388523 
L 513.759273 221.571876 
L 514.469455 220.174099 
L 515.179636 223.426343 
L 515.889818 221.849485 
L 516.6 221.641409 
L 517.310182 222.665452 
L 518.020364 223.295529 
L 518.730545 221.189824 
L 519.440727 222.258563 
L 520.150909 219.910599 
L 520.861091 214.868417 
L 521.571273 217.403766 
L 522.281455 216.005646 
L 522.991636 215.453828 
L 523.701818 214.728011 
L 524.412 212.73709 
L 525.122182 208.421737 
L 525.832364 205.648512 
L 526.542545 209.726307 
L 527.252727 209.546378 
L 527.962909 213.553279 
L 528.673091 213.900671 
L 530.093455 216.036996 
L 530.803636 216.078805 
L 531.513818 214.284574 
L 532.224 211.465769 
L 532.934182 210.905458 
L 533.644364 211.369801 
L 534.354545 216.898849 
L 535.064727 221.474347 
L 535.774909 217.222783 
L 536.485091 215.079159 
L 537.195273 214.681421 
L 537.905455 217.76654 
L 539.325818 219.34395 
L 540.036 219.357755 
L 540.746182 218.027012 
L 541.456364 213.675138 
L 542.166545 212.522777 
L 542.876727 214.10779 
L 543.586909 212.786824 
L 544.297091 215.967793 
L 545.007273 221.079171 
L 545.717455 224.642283 
L 546.427636 219.126574 
L 547.137818 220.16319 
L 547.848 215.619527 
L 548.558182 213.898785 
L 549.268364 214.395736 
L 549.978545 214.518298 
L 550.688727 212.655451 
L 551.398909 212.240529 
L 552.109091 209.811321 
L 552.819273 208.719435 
L 553.529455 213.46012 
L 554.239636 212.825951 
L 554.949818 215.803845 
L 555.66 215.742739 
L 556.370182 214.856714 
L 557.080364 215.856191 
L 557.790545 213.867509 
L 558.500727 214.758713 
L 559.210909 208.781624 
L 559.921091 207.739255 
L 560.631273 209.199047 
L 561.341455 209.929399 
L 562.051636 206.3589 
L 562.761818 206.449315 
L 563.472 201.493352 
L 564.182182 198.560263 
L 564.892364 199.465747 
L 565.602545 198.951719 
L 566.312727 196.361433 
L 567.022909 190.984276 
L 568.443273 186.262504 
L 569.153455 184.548123 
L 569.863636 186.130606 
L 570.573818 186.306543 
L 571.284 186.766077 
L 571.994182 190.422815 
L 572.704364 190.742019 
L 573.414545 190.552033 
L 574.124727 191.808952 
L 574.834909 193.860116 
L 575.545091 193.818534 
L 576.255273 192.000914 
L 576.965455 191.595093 
L 577.675636 190.903695 
L 578.385818 191.649028 
L 579.096 188.966881 
L 581.226545 196.25112 
L 581.936727 197.559148 
L 582.646909 192.63245 
L 583.357091 193.68238 
L 584.067273 197.504525 
L 584.777455 192.756691 
L 585.487636 192.699671 
L 586.197818 194.400051 
L 586.908 194.01612 
L 587.618182 194.171151 
L 588.328364 194.481868 
L 589.038545 196.321657 
L 589.748727 196.551927 
L 590.458909 195.209102 
L 591.169091 190.476518 
L 591.879273 188.719184 
L 592.589455 188.035485 
L 593.299636 186.168577 
L 594.009818 187.706086 
L 594.72 187.778146 
L 595.430182 190.977276 
L 596.140364 189.248871 
L 596.850545 190.117499 
L 597.560727 190.62058 
L 598.270909 192.246819 
L 598.981091 193.345377 
L 599.691273 192.514686 
L 600.401455 190.800109 
L 601.111636 191.24021 
L 601.821818 193.721391 
L 602.532 186.421988 
L 603.242182 186.506987 
L 604.662545 184.158745 
L 605.372727 180.478661 
L 606.082909 182.068823 
L 606.793091 185.043811 
L 607.503273 183.278263 
L 608.923636 191.121736 
L 609.633818 190.361755 
L 610.344 186.711386 
L 611.054182 186.405003 
L 611.764364 184.220808 
L 612.474545 180.579142 
L 613.184727 178.96442 
L 613.894909 179.790387 
L 615.315273 177.521709 
L 616.025455 176.919269 
L 616.735636 175.554162 
L 617.445818 174.964528 
L 618.156 171.193839 
L 618.866182 166.196997 
L 619.576364 166.207678 
L 620.286545 161.860884 
L 620.996727 159.81635 
L 621.706909 161.936219 
L 622.417091 160.476651 
L 623.127273 161.179482 
L 623.837455 164.044586 
L 624.547636 163.584909 
L 625.257818 163.811883 
L 625.968 165.772194 
L 626.678182 166.324841 
L 627.388364 168.018972 
L 628.098545 167.95449 
L 628.808727 167.237969 
L 629.518909 169.099113 
L 630.229091 164.388692 
L 631.649455 166.42077 
L 632.359636 167.973498 
L 633.069818 170.57657 
L 633.78 168.271613 
L 634.490182 167.18273 
L 635.910545 169.722851 
L 636.620727 175.229246 
L 637.330909 177.094206 
L 638.041091 172.236823 
L 639.461455 166.121711 
L 640.171636 164.079543 
L 640.881818 169.056587 
L 641.592 172.963847 
L 642.302182 172.891277 
L 643.012364 175.600774 
L 643.722545 176.805557 
L 644.432727 171.420869 
L 645.142909 170.729729 
L 645.853091 168.746403 
L 646.563273 168.045068 
L 647.983636 165.99556 
L 648.693818 165.910002 
L 649.404 168.286421 
L 650.114182 170.014569 
L 651.534545 165.412492 
L 652.244727 166.394776 
L 653.665091 160.705694 
L 654.375273 156.494553 
L 655.085455 155.744848 
L 655.795636 154.01742 
L 657.216 159.046288 
L 657.926182 158.968907 
L 659.346545 156.786799 
L 660.056727 158.765059 
L 660.766909 163.092183 
L 661.477091 168.281958 
L 662.187273 163.197921 
L 662.897455 159.831968 
L 663.607636 163.020713 
L 664.317818 162.170237 
L 665.028 162.833393 
L 665.738182 162.959241 
L 666.448364 162.451775 
L 667.158545 165.010577 
L 667.868727 163.724337 
L 668.578909 163.806267 
L 669.289091 169.013832 
L 669.999273 168.841065 
L 670.709455 166.504779 
L 671.419636 170.942223 
L 672.129818 168.267793 
L 672.84 168.719284 
L 673.550182 167.462792 
L 674.260364 170.805783 
L 674.970545 172.822437 
L 675.680727 170.889875 
L 677.101091 173.540893 
L 677.811273 171.299679 
L 678.521455 171.448644 
L 679.231636 168.552182 
L 679.941818 166.590307 
L 680.652 166.222508 
L 681.362182 169.92263 
L 682.072364 168.275369 
L 682.782545 169.527864 
L 683.492727 169.865834 
L 684.202909 173.757119 
L 684.913091 173.050014 
L 685.623273 172.603036 
L 686.333455 171.785074 
L 687.043636 172.991071 
L 687.753818 169.559822 
L 688.464 178.019095 
L 689.174182 172.802042 
L 689.884364 172.567274 
L 690.594545 171.446626 
L 691.304727 172.103048 
L 692.014909 176.376581 
L 692.725091 173.475026 
L 693.435273 174.408533 
L 694.145455 172.516482 
L 694.855636 175.151556 
L 695.565818 174.403665 
L 696.276 177.709787 
L 696.986182 178.807125 
L 697.696364 177.761604 
L 698.406545 179.407441 
L 699.116727 175.036296 
L 699.826909 174.025312 
L 700.537091 170.516889 
L 701.247273 171.753827 
L 701.957455 177.797656 
L 702.667636 178.214932 
L 704.088 172.116981 
L 704.798182 174.197579 
L 705.508364 171.924025 
L 706.218545 170.075423 
L 706.928727 166.230343 
L 707.638909 160.305333 
L 708.349091 160.906999 
L 709.059273 164.422157 
L 709.769455 164.870661 
L 710.479636 164.812706 
L 711.189818 165.377007 
L 711.9 165.659902 
L 712.610182 167.631793 
L 713.320364 166.704209 
L 714.030545 166.246994 
L 714.740727 167.228766 
L 715.450909 168.831469 
L 716.161091 174.152867 
L 716.871273 173.244166 
L 717.581455 170.396677 
L 718.291636 168.975425 
L 719.001818 169.888427 
L 719.712 176.472476 
L 720.422182 176.286006 
L 721.132364 175.85983 
L 721.842545 179.148779 
L 722.552727 175.811552 
L 723.262909 178.328834 
L 723.973091 180.228145 
L 724.683273 175.37271 
L 725.393455 176.202944 
L 726.103636 174.790167 
L 726.813818 176.002334 
L 727.524 176.720723 
L 728.234182 177.279063 
L 728.944364 175.437029 
L 729.654545 176.001371 
L 730.364727 176.018035 
L 731.074909 173.738287 
L 731.785091 175.284592 
L 732.495273 174.146166 
L 733.205455 175.290779 
L 733.915636 174.201933 
L 735.336 173.576171 
L 736.046182 174.484575 
L 736.756364 177.630449 
L 737.466545 177.157654 
L 738.176727 182.495478 
L 738.886909 184.646806 
L 740.307273 173.222431 
L 741.017455 176.035725 
L 741.727636 174.450121 
L 742.437818 174.364115 
L 743.148 176.925786 
L 743.858182 176.676203 
L 744.568364 180.505935 
L 745.278545 181.341639 
L 745.988727 178.950574 
L 746.698909 178.478539 
L 748.119273 184.036866 
L 748.829455 185.482454 
L 750.249818 182.923981 
L 750.96 179.826209 
L 751.670182 180.847635 
L 752.380364 179.532851 
L 753.090545 182.495006 
L 753.800727 184.550758 
L 754.510909 186.187838 
L 755.221091 190.426188 
L 755.931273 193.125414 
L 756.641455 193.374608 
L 757.351636 193.812804 
L 758.061818 196.240746 
L 758.772 194.267136 
L 759.482182 194.442408 
L 760.192364 189.828439 
L 760.902545 190.120331 
L 761.612727 190.794913 
L 762.322909 183.79451 
L 763.033091 187.016097 
L 763.743273 189.026827 
L 764.453455 186.369551 
L 765.163636 188.279667 
L 765.873818 189.708538 
L 766.584 188.036322 
L 767.294182 189.908808 
L 768.004364 190.495878 
L 768.714545 189.197724 
L 769.424727 189.771375 
L 770.134909 186.489164 
L 770.845091 184.009197 
L 771.555273 180.688067 
L 772.265455 180.197591 
L 772.975636 179.353986 
L 773.685818 182.084707 
L 775.106182 174.938739 
L 775.816364 177.874132 
L 776.526545 181.694892 
L 777.236727 178.898258 
L 777.946909 178.685083 
L 778.657091 175.432969 
L 779.367273 177.778302 
L 780.787636 186.000682 
L 781.497818 186.430318 
L 782.208 186.498025 
L 782.918182 190.283986 
L 783.628364 190.611373 
L 784.338545 188.971098 
L 785.048727 187.914447 
L 785.758909 185.765036 
L 786.469091 183.00202 
L 787.179273 183.139962 
L 787.889455 179.860597 
L 788.599636 181.735752 
L 789.309818 176.887297 
L 790.02 178.074632 
L 790.730182 176.714085 
L 791.440364 174.336524 
L 792.150545 175.099603 
L 792.860727 173.836863 
L 793.570909 169.983009 
L 794.281091 173.250911 
L 794.991273 171.269924 
L 795.701455 170.39397 
L 796.411636 166.371465 
L 797.121818 163.380888 
L 797.832 163.411991 
L 798.542182 162.130177 
L 799.252364 157.42284 
L 799.962545 155.771495 
L 800.672727 156.893325 
L 801.382909 153.966197 
L 802.093091 155.967063 
L 802.803273 155.202037 
L 803.513455 154.668703 
L 804.933818 153.107239 
L 805.644 150.716675 
L 806.354182 153.047059 
L 807.064364 146.784489 
L 808.484727 146.049419 
L 809.194909 146.973299 
L 809.905091 143.265977 
L 810.615273 142.56673 
L 811.325455 145.210836 
L 812.035636 146.761807 
L 813.456 142.890977 
L 814.166182 145.200859 
L 814.876364 147.020507 
L 815.586545 142.563826 
L 816.296727 141.591695 
L 817.006909 141.045051 
L 817.717091 142.163146 
L 818.427273 141.851872 
L 819.137455 142.055862 
L 819.847636 144.229615 
L 821.268 142.103897 
L 821.978182 139.021999 
L 822.688364 142.964024 
L 823.398545 142.473062 
L 824.108727 139.448519 
L 824.818909 140.314728 
L 825.529091 139.415323 
L 826.239273 140.547158 
L 826.949455 141.116956 
L 827.659636 143.526521 
L 828.369818 141.551358 
L 829.08 145.271526 
L 829.790182 144.771823 
L 830.500364 148.732131 
L 831.210545 151.0732 
L 831.920727 151.303796 
L 832.630909 154.347357 
L 833.341091 153.054245 
L 834.051273 154.148369 
L 834.761455 152.750675 
L 836.181818 147.927481 
L 836.892 152.658164 
L 837.602182 152.890159 
L 838.312364 150.675812 
L 839.022545 150.678457 
L 839.732727 151.421483 
L 840.442909 154.243759 
L 841.153091 153.29523 
L 841.863273 153.680772 
L 842.573455 152.94532 
L 843.283636 151.08207 
L 843.993818 150.437146 
L 844.704 151.896119 
L 845.414182 151.848518 
L 846.124364 155.852017 
L 846.834545 156.85851 
L 847.544727 156.835276 
L 848.254909 156.207299 
L 848.965091 157.044387 
L 849.675273 159.485724 
L 850.385455 154.221735 
L 851.095636 156.337279 
L 851.805818 157.549239 
L 852.516 154.624484 
L 853.226182 152.322893 
L 853.936364 152.814319 
L 854.646545 152.684 
L 855.356727 154.850362 
L 856.066909 154.243865 
L 856.777091 153.365212 
L 857.487273 151.785408 
L 858.197455 152.588672 
L 858.907636 153.187072 
L 859.617818 152.772865 
L 861.038182 145.438381 
L 861.748364 147.096383 
L 862.458545 148.097617 
L 863.168727 154.908573 
L 863.878909 159.892353 
L 864.589091 157.848789 
L 865.299273 159.115293 
L 866.009455 159.651734 
L 866.719636 156.488747 
L 867.429818 154.919074 
L 868.14 156.186241 
L 868.850182 153.833229 
L 869.560364 154.872707 
L 870.270545 160.212719 
L 870.980727 159.097295 
L 871.690909 164.333886 
L 871.690909 164.333886 
" clip-path="url(#pbe35a2a480)" style="fill: none; stroke: #ff7f0e; stroke-width: 1.5; stroke-linecap: square"/>
   </g>
   <g id="line2d_15">
    <path d="M 162.219273 369.35857 
L 162.929455 369.36 
L 164.349818 369.136222 
L 165.06 369.105417 
L 165.770182 368.886333 
L 167.190545 368.832453 
L 167.900727 368.373579 
L 170.031273 368.298222 
L 170.741455 367.925856 
L 178.553455 367.61193 
L 182.104364 367.513857 
L 182.814545 367.214773 
L 188.496 367.079899 
L 189.916364 367.010429 
L 196.308 366.914467 
L 197.018182 366.337925 
L 198.438545 366.126317 
L 202.699636 365.89539 
L 203.409818 365.793099 
L 205.540364 365.004057 
L 206.250545 364.996873 
L 206.960727 364.790388 
L 209.091273 364.754811 
L 209.801455 364.680878 
L 210.511636 364.282901 
L 211.221818 364.303431 
L 211.932 364.114562 
L 212.642182 364.192794 
L 213.352364 363.89707 
L 219.744 363.826658 
L 220.454182 363.689882 
L 221.164364 363.361661 
L 221.874545 363.21693 
L 226.845818 363.163219 
L 227.556 362.57642 
L 228.266182 362.406553 
L 229.686545 362.382335 
L 231.106909 361.986604 
L 231.817091 361.934683 
L 232.527273 361.479067 
L 234.657818 361.427139 
L 236.078182 361.377578 
L 237.498545 361.391261 
L 243.18 361.131582 
L 243.890182 360.886954 
L 244.600364 360.944491 
L 245.310545 360.669762 
L 249.571636 360.484437 
L 252.412364 360.46461 
L 253.122545 360.257177 
L 258.093818 360.157569 
L 263.065091 359.714701 
L 263.775273 359.773994 
L 265.905818 359.67063 
L 269.456727 359.636602 
L 270.877091 359.557362 
L 273.007636 359.436475 
L 274.428 359.112939 
L 277.268727 359.031008 
L 277.978909 358.84685 
L 280.109455 358.007476 
L 283.660364 357.567841 
L 286.501091 357.521401 
L 292.892727 357.177573 
L 295.733455 357.131646 
L 297.864 356.94312 
L 299.284364 356.949647 
L 299.994545 356.743549 
L 301.414909 356.818081 
L 302.835273 356.667744 
L 305.676 356.652442 
L 306.386182 356.387621 
L 309.937091 356.403774 
L 310.647273 356.081013 
L 312.067636 356.083414 
L 313.488 355.890323 
L 322.720364 355.215409 
L 323.430545 355.009076 
L 327.691636 354.985165 
L 328.401818 354.82356 
L 330.532364 354.799318 
L 331.952727 354.719177 
L 332.662909 354.575633 
L 334.083273 354.55965 
L 334.793455 354.359318 
L 335.503636 354.29091 
L 336.213818 354.014771 
L 336.924 353.909654 
L 338.344364 353.471807 
L 339.054545 353.470749 
L 339.764727 353.224217 
L 341.895273 353.223084 
L 342.605455 352.911904 
L 344.025818 352.851136 
L 346.156364 352.837365 
L 346.866545 352.761435 
L 347.576727 352.477646 
L 349.707273 352.253711 
L 350.417455 351.931438 
L 363.200727 351.197976 
L 370.302545 351.164703 
L 371.722909 350.711969 
L 375.273818 350.4096 
L 375.984 350.216175 
L 378.824727 350.172908 
L 379.534909 349.90072 
L 380.245091 349.828163 
L 380.955273 349.917727 
L 382.375636 349.842792 
L 383.085818 349.853171 
L 383.796 349.532777 
L 393.028364 349.088831 
L 393.738545 348.77684 
L 395.869091 348.708855 
L 396.579273 348.276784 
L 400.130182 348.069955 
L 401.550545 347.973246 
L 402.970909 347.863439 
L 404.391273 347.779592 
L 407.942182 347.36501 
L 408.652364 347.158922 
L 410.072727 347.123512 
L 410.782909 346.995718 
L 412.203273 346.591896 
L 412.913455 346.570063 
L 413.623636 346.340723 
L 414.333818 346.337159 
L 415.044 345.813455 
L 415.754182 345.752604 
L 416.464364 345.550999 
L 418.594909 345.473766 
L 419.305091 345.325887 
L 423.566182 345.283012 
L 424.276364 344.898565 
L 427.117091 344.814454 
L 427.827273 344.735378 
L 429.247636 344.709053 
L 430.668 344.327819 
L 434.218909 344.181828 
L 436.349455 344.212034 
L 437.769818 343.97027 
L 442.741091 343.864059 
L 443.451273 343.498454 
L 447.712364 343.390709 
L 450.553091 343.344051 
L 451.263273 343.204383 
L 451.973455 343.20367 
L 452.683636 342.948111 
L 454.814182 342.990583 
L 456.234545 342.904452 
L 457.654909 342.867496 
L 459.075273 342.471069 
L 459.785455 342.312537 
L 464.756727 342.127621 
L 465.466909 341.979356 
L 466.887273 341.971537 
L 469.017818 341.666119 
L 471.148364 341.553616 
L 474.699273 341.468775 
L 475.409455 341.276406 
L 478.250182 341.158 
L 478.960364 341.004765 
L 480.380727 341.005252 
L 481.090909 340.793126 
L 481.801091 340.792305 
L 482.511273 340.608166 
L 483.931636 340.543882 
L 484.641818 340.108282 
L 486.772364 339.95062 
L 488.902909 339.883761 
L 489.613091 339.733357 
L 492.453818 339.613092 
L 493.164 339.407852 
L 493.874182 338.774959 
L 495.294545 338.864824 
L 497.425091 338.873432 
L 498.845455 338.772638 
L 500.265818 338.725056 
L 500.976 338.593984 
L 503.106545 338.509476 
L 504.526909 337.958327 
L 505.947273 337.961831 
L 506.657455 337.822996 
L 513.049091 337.81628 
L 513.759273 337.061443 
L 515.179636 337.033327 
L 516.6 336.959984 
L 518.020364 336.969603 
L 518.730545 336.812562 
L 520.861091 336.579032 
L 522.281455 336.540633 
L 524.412 336.472796 
L 526.542545 335.922016 
L 527.252727 335.925167 
L 527.962909 335.731157 
L 531.513818 335.679715 
L 532.934182 335.582469 
L 533.644364 335.59619 
L 535.064727 335.144059 
L 536.485091 335.093116 
L 540.746182 334.978937 
L 541.456364 334.789777 
L 543.586909 334.712165 
L 545.717455 334.495498 
L 546.427636 334.219858 
L 554.949818 333.685803 
L 558.500727 333.639862 
L 559.210909 333.490604 
L 561.341455 333.379731 
L 562.051636 333.222654 
L 564.892364 333.133128 
L 566.312727 333.118397 
L 567.022909 332.811156 
L 567.733091 332.683399 
L 571.284 332.653162 
L 573.414545 332.607419 
L 578.385818 332.521634 
L 579.096 332.406115 
L 580.516364 332.410964 
L 583.357091 332.035458 
L 584.067273 331.83309 
L 584.777455 331.486696 
L 589.748727 331.385732 
L 601.821818 331.137444 
L 602.532 330.759192 
L 604.662545 330.724713 
L 606.082909 330.62351 
L 614.605091 330.016261 
L 617.445818 329.979645 
L 619.576364 329.772878 
L 620.286545 329.602077 
L 623.837455 329.544057 
L 629.518909 329.439729 
L 630.939273 329.25987 
L 632.359636 329.279642 
L 633.78 329.042274 
L 637.330909 328.944153 
L 638.751273 328.448004 
L 642.302182 328.057614 
L 643.722545 328.032828 
L 644.432727 327.90432 
L 650.114182 327.834391 
L 651.534545 327.735387 
L 652.954909 327.661902 
L 654.375273 327.461548 
L 659.346545 327.470466 
L 660.056727 327.561008 
L 663.607636 326.667861 
L 668.578909 326.602933 
L 669.289091 326.317515 
L 670.709455 326.332682 
L 671.419636 326.074668 
L 672.84 326.142288 
L 673.550182 326.108746 
L 674.260364 325.927665 
L 678.521455 325.945228 
L 679.941818 325.816739 
L 687.043636 325.633514 
L 687.753818 325.498637 
L 689.174182 324.907649 
L 691.304727 324.880417 
L 692.014909 324.728321 
L 695.565818 324.643803 
L 696.276 324.486389 
L 698.406545 324.487794 
L 699.116727 324.288362 
L 699.826909 324.254892 
L 700.537091 324.080899 
L 701.247273 324.07872 
L 701.957455 323.710859 
L 703.377818 323.593992 
L 705.508364 323.368317 
L 706.218545 323.320651 
L 706.928727 323.152909 
L 707.638909 322.792559 
L 710.479636 322.81607 
L 715.450909 322.818145 
L 716.161091 322.333606 
L 719.001818 322.153223 
L 719.712 321.791783 
L 721.842545 321.737221 
L 725.393455 321.135362 
L 733.915636 320.961269 
L 737.466545 320.924589 
L 738.176727 320.559557 
L 738.886909 320.482003 
L 739.597091 320.225489 
L 740.307273 319.829213 
L 742.437818 319.804745 
L 743.858182 319.86476 
L 748.829455 319.66649 
L 751.670182 319.59713 
L 754.510909 319.449704 
L 755.931273 319.240322 
L 759.482182 319.14499 
L 760.192364 318.773268 
L 761.612727 318.757414 
L 762.322909 317.987973 
L 763.743273 317.970093 
L 765.163636 317.842722 
L 770.134909 317.739109 
L 770.845091 317.615203 
L 772.975636 317.661363 
L 775.816364 317.259701 
L 776.526545 317.051512 
L 779.367273 316.947275 
L 780.077455 316.739597 
L 781.497818 316.655614 
L 785.758909 316.546567 
L 786.469091 316.436116 
L 788.599636 316.37966 
L 789.309818 316.111476 
L 790.730182 316.087588 
L 791.440364 315.879279 
L 795.701455 315.935552 
L 797.121818 315.595984 
L 800.672727 315.509891 
L 802.093091 315.353072 
L 806.354182 315.326137 
L 807.064364 314.961434 
L 809.194909 314.884652 
L 809.905091 314.692553 
L 814.166182 314.592512 
L 814.876364 314.450418 
L 821.978182 314.341959 
L 822.688364 314.190482 
L 823.398545 314.209106 
L 824.108727 314.036476 
L 830.500364 314.01363 
L 833.341091 313.843289 
L 834.761455 313.887132 
L 839.732727 313.520338 
L 845.414182 313.376085 
L 846.124364 313.119728 
L 849.675273 313.110406 
L 850.385455 312.725005 
L 851.805818 312.773527 
L 852.516 312.631371 
L 861.038182 312.540459 
L 862.458545 312.450796 
L 863.168727 311.979486 
L 866.009455 311.918677 
L 866.719636 311.653885 
L 868.14 311.556134 
L 869.560364 311.614157 
L 870.270545 311.276745 
L 870.980727 311.265995 
L 871.690909 311.067301 
L 871.690909 311.067301 
" clip-path="url(#pbe35a2a480)" style="fill: none; stroke: #2ca02c; stroke-width: 1.5; stroke-linecap: square"/>
   </g>
   <g id="patch_3">
    <path d="M 126 384.48 
L 126 51.84 
" style="fill: none; stroke: #000000; stroke-width: 0.8; stroke-linejoin: miter; stroke-linecap: square"/>
   </g>
   <g id="patch_4">
    <path d="M 907.2 384.48 
L 907.2 51.84 
" style="fill: none; stroke: #000000; stroke-width: 0.8; stroke-linejoin: miter; stroke-linecap: square"/>
   </g>
   <g id="patch_5">
    <path d="M 126 384.48 
L 907.2 384.48 
" style="fill: none; stroke: #000000; stroke-width: 0.8; stroke-linejoin: miter; stroke-linecap: square"/>
   </g>
   <g id="patch_6">
    <path d="M 126 51.84 
L 907.2 51.84 
" style="fill: none; stroke: #000000; stroke-width: 0.8; stroke-linejoin: miter; stroke-linecap: square"/>
   </g>
   <g id="text_15">
    <!-- Quadratic Covariation of $X_t$ and $S_t$ -->
    <g transform="translate(414.54 45.84)scale(0.12 -0.12)">
     <defs>
      <path id="DejaVuSans-66" d="M 2375 4863 
L 2375 4384 
L 1825 4384 
Q 1516 4384 1395 4259 
Q 1275 4134 1275 3809 
L 1275 3500 
L 2222 3500 
L 2222 3053 
L 1275 3053 
L 1275 0 
L 697 0 
L 697 3053 
L 147 3053 
L 147 3500 
L 697 3500 
L 697 3744 
Q 697 4328 969 4595 
Q 1241 4863 1831 4863 
L 2375 4863 
z
" transform="scale(0.015625)"/>
      <path id="DejaVuSans-Oblique-58" d="M 878 4666 
L 1516 4666 
L 2316 2981 
L 3763 4666 
L 4500 4666 
L 2578 2438 
L 3738 0 
L 3103 0 
L 2163 1966 
L 459 0 
L -275 0 
L 1906 2509 
L 878 4666 
z
" transform="scale(0.015625)"/>
      <path id="DejaVuSans-Oblique-74" d="M 2706 3500 
L 2619 3053 
L 1472 3053 
L 1100 1153 
Q 1081 1047 1072 975 
Q 1063 903 1063 863 
Q 1063 663 1183 572 
Q 1303 481 1569 481 
L 2150 481 
L 2053 0 
L 1503 0 
Q 991 0 739 200 
Q 488 400 488 806 
Q 488 878 497 964 
Q 506 1050 525 1153 
L 897 3053 
L 409 3053 
L 500 3500 
L 978 3500 
L 1172 4494 
L 1747 4494 
L 1556 3500 
L 2706 3500 
z
" transform="scale(0.015625)"/>
      <path id="DejaVuSans-Oblique-53" d="M 3859 4513 
L 3738 3897 
Q 3422 4066 3111 4152 
Q 2800 4238 2509 4238 
Q 1944 4238 1609 3991 
Q 1275 3744 1275 3334 
Q 1275 3109 1398 2989 
Q 1522 2869 2034 2731 
L 2413 2638 
Q 3053 2472 3303 2217 
Q 3553 1963 3553 1503 
Q 3553 797 2998 353 
Q 2444 -91 1538 -91 
Q 1166 -91 791 -17 
Q 416 56 38 206 
L 166 856 
Q 513 641 861 531 
Q 1209 422 1556 422 
Q 2147 422 2503 684 
Q 2859 947 2859 1369 
Q 2859 1650 2717 1795 
Q 2575 1941 2106 2059 
L 1728 2156 
Q 1081 2325 845 2545 
Q 609 2766 609 3163 
Q 609 3859 1145 4304 
Q 1681 4750 2541 4750 
Q 2875 4750 3203 4690 
Q 3531 4631 3859 4513 
z
" transform="scale(0.015625)"/>
     </defs>
     <use xlink:href="#DejaVuSans-51" transform="translate(0 0.015625)"/>
     <use xlink:href="#DejaVuSans-75" transform="translate(78.710938 0.015625)"/>
     <use xlink:href="#DejaVuSans-61" transform="translate(142.089844 0.015625)"/>
     <use xlink:href="#DejaVuSans-64" transform="translate(203.369141 0.015625)"/>
     <use xlink:href="#DejaVuSans-72" transform="translate(266.845703 0.015625)"/>
     <use xlink:href="#DejaVuSans-61" transform="translate(307.958984 0.015625)"/>
     <use xlink:href="#DejaVuSans-74" transform="translate(369.238281 0.015625)"/>
     <use xlink:href="#DejaVuSans-69" transform="translate(408.447266 0.015625)"/>
     <use xlink:href="#DejaVuSans-63" transform="translate(436.230469 0.015625)"/>
     <use xlink:href="#DejaVuSans-20" transform="translate(491.210938 0.015625)"/>
     <use xlink:href="#DejaVuSans-43" transform="translate(522.998047 0.015625)"/>
     <use xlink:href="#DejaVuSans-6f" transform="translate(592.822266 0.015625)"/>
     <use xlink:href="#DejaVuSans-76" transform="translate(654.003906 0.015625)"/>
     <use xlink:href="#DejaVuSans-61" transform="translate(713.183594 0.015625)"/>
     <use xlink:href="#DejaVuSans-72" transform="translate(774.462891 0.015625)"/>
     <use xlink:href="#DejaVuSans-69" transform="translate(815.576172 0.015625)"/>
     <use xlink:href="#DejaVuSans-61" transform="translate(843.359375 0.015625)"/>
     <use xlink:href="#DejaVuSans-74" transform="translate(904.638672 0.015625)"/>
     <use xlink:href="#DejaVuSans-69" transform="translate(943.847656 0.015625)"/>
     <use xlink:href="#DejaVuSans-6f" transform="translate(971.630859 0.015625)"/>
     <use xlink:href="#DejaVuSans-6e" transform="translate(1032.8125 0.015625)"/>
     <use xlink:href="#DejaVuSans-20" transform="translate(1096.191406 0.015625)"/>
     <use xlink:href="#DejaVuSans-6f" transform="translate(1127.978516 0.015625)"/>
     <use xlink:href="#DejaVuSans-66" transform="translate(1189.160156 0.015625)"/>
     <use xlink:href="#DejaVuSans-20" transform="translate(1224.365234 0.015625)"/>
     <use xlink:href="#DejaVuSans-Oblique-58" transform="translate(1256.152344 0.015625)"/>
     <use xlink:href="#DejaVuSans-Oblique-74" transform="translate(1324.658203 -16.390625)scale(0.7)"/>
     <use xlink:href="#DejaVuSans-20" transform="translate(1354.838867 0.015625)"/>
     <use xlink:href="#DejaVuSans-61" transform="translate(1386.625977 0.015625)"/>
     <use xlink:href="#DejaVuSans-6e" transform="translate(1447.905273 0.015625)"/>
     <use xlink:href="#DejaVuSans-64" transform="translate(1511.28418 0.015625)"/>
     <use xlink:href="#DejaVuSans-20" transform="translate(1574.760742 0.015625)"/>
     <use xlink:href="#DejaVuSans-Oblique-53" transform="translate(1606.547852 0.015625)"/>
     <use xlink:href="#DejaVuSans-Oblique-74" transform="translate(1670.024414 -16.390625)scale(0.7)"/>
    </g>
   </g>
   <g id="legend_1">
    <g id="patch_7">
     <path d="M 133 103.874375 
L 335.1 103.874375 
Q 337.1 103.874375 337.1 101.874375 
L 337.1 58.84 
Q 337.1 56.84 335.1 56.84 
L 133 56.84 
Q 131 56.84 131 58.84 
L 131 101.874375 
Q 131 103.874375 133 103.874375 
z
" style="fill: #ffffff; opacity: 0.8; stroke: #cccccc; stroke-linejoin: miter"/>
    </g>
    <g id="line2d_16">
     <path d="M 135 64.938437 
L 145 64.938437 
L 155 64.938437 
" style="fill: none; stroke: #1f77b4; stroke-width: 1.5; stroke-linecap: square"/>
    </g>
    <g id="text_16">
     <!-- $X_t$ -->
     <g transform="translate(163 68.438437)scale(0.1 -0.1)">
      <use xlink:href="#DejaVuSans-Oblique-58" transform="translate(0 0.09375)"/>
      <use xlink:href="#DejaVuSans-Oblique-74" transform="translate(68.505859 -16.3125)scale(0.7)"/>
     </g>
    </g>
    <g id="line2d_17">
     <path d="M 135 79.616562 
L 145 79.616562 
L 155 79.616562 
" style="fill: none; stroke: #ff7f0e; stroke-width: 1.5; stroke-linecap: square"/>
    </g>
    <g id="text_17">
     <!-- $S_t$ -->
     <g transform="translate(163 83.116562)scale(0.1 -0.1)">
      <use xlink:href="#DejaVuSans-Oblique-53" transform="translate(0 0.78125)"/>
      <use xlink:href="#DejaVuSans-Oblique-74" transform="translate(63.476562 -15.625)scale(0.7)"/>
     </g>
    </g>
    <g id="line2d_18">
     <path d="M 135 94.294687 
L 145 94.294687 
L 155 94.294687 
" style="fill: none; stroke: #2ca02c; stroke-width: 1.5; stroke-linecap: square"/>
    </g>
    <g id="text_18">
     <!-- Quadratic Covariation of $X_t$ and $S_t$ -->
     <g transform="translate(163 97.794687)scale(0.1 -0.1)">
      <use xlink:href="#DejaVuSans-51" transform="translate(0 0.015625)"/>
      <use xlink:href="#DejaVuSans-75" transform="translate(78.710938 0.015625)"/>
      <use xlink:href="#DejaVuSans-61" transform="translate(142.089844 0.015625)"/>
      <use xlink:href="#DejaVuSans-64" transform="translate(203.369141 0.015625)"/>
      <use xlink:href="#DejaVuSans-72" transform="translate(266.845703 0.015625)"/>
      <use xlink:href="#DejaVuSans-61" transform="translate(307.958984 0.015625)"/>
      <use xlink:href="#DejaVuSans-74" transform="translate(369.238281 0.015625)"/>
      <use xlink:href="#DejaVuSans-69" transform="translate(408.447266 0.015625)"/>
      <use xlink:href="#DejaVuSans-63" transform="translate(436.230469 0.015625)"/>
      <use xlink:href="#DejaVuSans-20" transform="translate(491.210938 0.015625)"/>
      <use xlink:href="#DejaVuSans-43" transform="translate(522.998047 0.015625)"/>
      <use xlink:href="#DejaVuSans-6f" transform="translate(592.822266 0.015625)"/>
      <use xlink:href="#DejaVuSans-76" transform="translate(654.003906 0.015625)"/>
      <use xlink:href="#DejaVuSans-61" transform="translate(713.183594 0.015625)"/>
      <use xlink:href="#DejaVuSans-72" transform="translate(774.462891 0.015625)"/>
      <use xlink:href="#DejaVuSans-69" transform="translate(815.576172 0.015625)"/>
      <use xlink:href="#DejaVuSans-61" transform="translate(843.359375 0.015625)"/>
      <use xlink:href="#DejaVuSans-74" transform="translate(904.638672 0.015625)"/>
      <use xlink:href="#DejaVuSans-69" transform="translate(943.847656 0.015625)"/>
      <use xlink:href="#DejaVuSans-6f" transform="translate(971.630859 0.015625)"/>
      <use xlink:href="#DejaVuSans-6e" transform="translate(1032.8125 0.015625)"/>
      <use xlink:href="#DejaVuSans-20" transform="translate(1096.191406 0.015625)"/>
      <use xlink:href="#DejaVuSans-6f" transform="translate(1127.978516 0.015625)"/>
      <use xlink:href="#DejaVuSans-66" transform="translate(1189.160156 0.015625)"/>
      <use xlink:href="#DejaVuSans-20" transform="translate(1224.365234 0.015625)"/>
      <use xlink:href="#DejaVuSans-Oblique-58" transform="translate(1256.152344 0.015625)"/>
      <use xlink:href="#DejaVuSans-Oblique-74" transform="translate(1324.658203 -16.390625)scale(0.7)"/>
      <use xlink:href="#DejaVuSans-20" transform="translate(1354.838867 0.015625)"/>
      <use xlink:href="#DejaVuSans-61" transform="translate(1386.625977 0.015625)"/>
      <use xlink:href="#DejaVuSans-6e" transform="translate(1447.905273 0.015625)"/>
      <use xlink:href="#DejaVuSans-64" transform="translate(1511.28418 0.015625)"/>
      <use xlink:href="#DejaVuSans-20" transform="translate(1574.760742 0.015625)"/>
      <use xlink:href="#DejaVuSans-Oblique-53" transform="translate(1606.547852 0.015625)"/>
      <use xlink:href="#DejaVuSans-Oblique-74" transform="translate(1670.024414 -16.390625)scale(0.7)"/>
     </g>
    </g>
   </g>
  </g>
 </g>
 <defs>
  <clipPath id="pbe35a2a480">
   <rect x="126" y="51.84" width="781.2" height="332.64"/>
  </clipPath>
 </defs>
</svg>
