<?xml version="1.0" encoding="utf-8" standalone="no"?>
<!DOCTYPE svg PUBLIC "-//W3C//DTD SVG 1.1//EN"
  "http://www.w3.org/Graphics/SVG/1.1/DTD/svg11.dtd">
<svg xmlns:xlink="http://www.w3.org/1999/xlink" width="1008pt" height="432pt" viewBox="0 0 1008 432" xmlns="http://www.w3.org/2000/svg" version="1.1">
 <metadata>
  <rdf:RDF xmlns:dc="http://purl.org/dc/elements/1.1/" xmlns:cc="http://creativecommons.org/ns#" xmlns:rdf="http://www.w3.org/1999/02/22-rdf-syntax-ns#">
   <cc:Work>
    <dc:type rdf:resource="http://purl.org/dc/dcmitype/StillImage"/>
    <dc:date>2023-12-22T17:09:51.050798</dc:date>
    <dc:format>image/svg+xml</dc:format>
    <dc:creator>
     <cc:Agent>
      <dc:title>Matplotlib v3.5.2, https://matplotlib.org/</dc:title>
     </cc:Agent>
    </dc:creator>
   </cc:Work>
  </rdf:RDF>
 </metadata>
 <defs>
  <style type="text/css">*{stroke-linejoin: round; stroke-linecap: butt}</style>
 </defs>
 <g id="figure_1">
  <g id="patch_1">
   <path d="M 0 432 
L 1008 432 
L 1008 0 
L 0 0 
z
" style="fill: #ffffff"/>
  </g>
  <g id="axes_1">
   <g id="patch_2">
    <path d="M 126 384.48 
L 907.2 384.48 
L 907.2 51.84 
L 126 51.84 
z
" style="fill: #ffffff"/>
   </g>
   <g id="matplotlib.axis_1">
    <g id="xtick_1">
     <g id="line2d_1">
      <defs>
       <path id="m993cab6d13" d="M 0 0 
L 0 3.5 
" style="stroke: #000000; stroke-width: 0.8"/>
      </defs>
      <g>
       <use xlink:href="#m993cab6d13" x="161.509091" y="384.48" style="stroke: #000000; stroke-width: 0.8"/>
      </g>
     </g>
     <g id="text_1">
      <!-- 0.0 -->
      <g transform="translate(153.557528 399.078438)scale(0.1 -0.1)">
       <defs>
        <path id="DejaVuSans-30" d="M 2034 4250 
Q 1547 4250 1301 3770 
Q 1056 3291 1056 2328 
Q 1056 1369 1301 889 
Q 1547 409 2034 409 
Q 2525 409 2770 889 
Q 3016 1369 3016 2328 
Q 3016 3291 2770 3770 
Q 2525 4250 2034 4250 
z
M 2034 4750 
Q 2819 4750 3233 4129 
Q 3647 3509 3647 2328 
Q 3647 1150 3233 529 
Q 2819 -91 2034 -91 
Q 1250 -91 836 529 
Q 422 1150 422 2328 
Q 422 3509 836 4129 
Q 1250 4750 2034 4750 
z
" transform="scale(0.015625)"/>
        <path id="DejaVuSans-2e" d="M 684 794 
L 1344 794 
L 1344 0 
L 684 0 
L 684 794 
z
" transform="scale(0.015625)"/>
       </defs>
       <use xlink:href="#DejaVuSans-30"/>
       <use xlink:href="#DejaVuSans-2e" x="63.623047"/>
       <use xlink:href="#DejaVuSans-30" x="95.410156"/>
      </g>
     </g>
    </g>
    <g id="xtick_2">
     <g id="line2d_2">
      <g>
       <use xlink:href="#m993cab6d13" x="303.545455" y="384.48" style="stroke: #000000; stroke-width: 0.8"/>
      </g>
     </g>
     <g id="text_2">
      <!-- 0.2 -->
      <g transform="translate(295.593892 399.078438)scale(0.1 -0.1)">
       <defs>
        <path id="DejaVuSans-32" d="M 1228 531 
L 3431 531 
L 3431 0 
L 469 0 
L 469 531 
Q 828 903 1448 1529 
Q 2069 2156 2228 2338 
Q 2531 2678 2651 2914 
Q 2772 3150 2772 3378 
Q 2772 3750 2511 3984 
Q 2250 4219 1831 4219 
Q 1534 4219 1204 4116 
Q 875 4013 500 3803 
L 500 4441 
Q 881 4594 1212 4672 
Q 1544 4750 1819 4750 
Q 2544 4750 2975 4387 
Q 3406 4025 3406 3419 
Q 3406 3131 3298 2873 
Q 3191 2616 2906 2266 
Q 2828 2175 2409 1742 
Q 1991 1309 1228 531 
z
" transform="scale(0.015625)"/>
       </defs>
       <use xlink:href="#DejaVuSans-30"/>
       <use xlink:href="#DejaVuSans-2e" x="63.623047"/>
       <use xlink:href="#DejaVuSans-32" x="95.410156"/>
      </g>
     </g>
    </g>
    <g id="xtick_3">
     <g id="line2d_3">
      <g>
       <use xlink:href="#m993cab6d13" x="445.581818" y="384.48" style="stroke: #000000; stroke-width: 0.8"/>
      </g>
     </g>
     <g id="text_3">
      <!-- 0.4 -->
      <g transform="translate(437.630256 399.078438)scale(0.1 -0.1)">
       <defs>
        <path id="DejaVuSans-34" d="M 2419 4116 
L 825 1625 
L 2419 1625 
L 2419 4116 
z
M 2253 4666 
L 3047 4666 
L 3047 1625 
L 3713 1625 
L 3713 1100 
L 3047 1100 
L 3047 0 
L 2419 0 
L 2419 1100 
L 313 1100 
L 313 1709 
L 2253 4666 
z
" transform="scale(0.015625)"/>
       </defs>
       <use xlink:href="#DejaVuSans-30"/>
       <use xlink:href="#DejaVuSans-2e" x="63.623047"/>
       <use xlink:href="#DejaVuSans-34" x="95.410156"/>
      </g>
     </g>
    </g>
    <g id="xtick_4">
     <g id="line2d_4">
      <g>
       <use xlink:href="#m993cab6d13" x="587.618182" y="384.48" style="stroke: #000000; stroke-width: 0.8"/>
      </g>
     </g>
     <g id="text_4">
      <!-- 0.6 -->
      <g transform="translate(579.666619 399.078438)scale(0.1 -0.1)">
       <defs>
        <path id="DejaVuSans-36" d="M 2113 2584 
Q 1688 2584 1439 2293 
Q 1191 2003 1191 1497 
Q 1191 994 1439 701 
Q 1688 409 2113 409 
Q 2538 409 2786 701 
Q 3034 994 3034 1497 
Q 3034 2003 2786 2293 
Q 2538 2584 2113 2584 
z
M 3366 4563 
L 3366 3988 
Q 3128 4100 2886 4159 
Q 2644 4219 2406 4219 
Q 1781 4219 1451 3797 
Q 1122 3375 1075 2522 
Q 1259 2794 1537 2939 
Q 1816 3084 2150 3084 
Q 2853 3084 3261 2657 
Q 3669 2231 3669 1497 
Q 3669 778 3244 343 
Q 2819 -91 2113 -91 
Q 1303 -91 875 529 
Q 447 1150 447 2328 
Q 447 3434 972 4092 
Q 1497 4750 2381 4750 
Q 2619 4750 2861 4703 
Q 3103 4656 3366 4563 
z
" transform="scale(0.015625)"/>
       </defs>
       <use xlink:href="#DejaVuSans-30"/>
       <use xlink:href="#DejaVuSans-2e" x="63.623047"/>
       <use xlink:href="#DejaVuSans-36" x="95.410156"/>
      </g>
     </g>
    </g>
    <g id="xtick_5">
     <g id="line2d_5">
      <g>
       <use xlink:href="#m993cab6d13" x="729.654545" y="384.48" style="stroke: #000000; stroke-width: 0.8"/>
      </g>
     </g>
     <g id="text_5">
      <!-- 0.8 -->
      <g transform="translate(721.702983 399.078438)scale(0.1 -0.1)">
       <defs>
        <path id="DejaVuSans-38" d="M 2034 2216 
Q 1584 2216 1326 1975 
Q 1069 1734 1069 1313 
Q 1069 891 1326 650 
Q 1584 409 2034 409 
Q 2484 409 2743 651 
Q 3003 894 3003 1313 
Q 3003 1734 2745 1975 
Q 2488 2216 2034 2216 
z
M 1403 2484 
Q 997 2584 770 2862 
Q 544 3141 544 3541 
Q 544 4100 942 4425 
Q 1341 4750 2034 4750 
Q 2731 4750 3128 4425 
Q 3525 4100 3525 3541 
Q 3525 3141 3298 2862 
Q 3072 2584 2669 2484 
Q 3125 2378 3379 2068 
Q 3634 1759 3634 1313 
Q 3634 634 3220 271 
Q 2806 -91 2034 -91 
Q 1263 -91 848 271 
Q 434 634 434 1313 
Q 434 1759 690 2068 
Q 947 2378 1403 2484 
z
M 1172 3481 
Q 1172 3119 1398 2916 
Q 1625 2713 2034 2713 
Q 2441 2713 2670 2916 
Q 2900 3119 2900 3481 
Q 2900 3844 2670 4047 
Q 2441 4250 2034 4250 
Q 1625 4250 1398 4047 
Q 1172 3844 1172 3481 
z
" transform="scale(0.015625)"/>
       </defs>
       <use xlink:href="#DejaVuSans-30"/>
       <use xlink:href="#DejaVuSans-2e" x="63.623047"/>
       <use xlink:href="#DejaVuSans-38" x="95.410156"/>
      </g>
     </g>
    </g>
    <g id="xtick_6">
     <g id="line2d_6">
      <g>
       <use xlink:href="#m993cab6d13" x="871.690909" y="384.48" style="stroke: #000000; stroke-width: 0.8"/>
      </g>
     </g>
     <g id="text_6">
      <!-- 1.0 -->
      <g transform="translate(863.739347 399.078438)scale(0.1 -0.1)">
       <defs>
        <path id="DejaVuSans-31" d="M 794 531 
L 1825 531 
L 1825 4091 
L 703 3866 
L 703 4441 
L 1819 4666 
L 2450 4666 
L 2450 531 
L 3481 531 
L 3481 0 
L 794 0 
L 794 531 
z
" transform="scale(0.015625)"/>
       </defs>
       <use xlink:href="#DejaVuSans-31"/>
       <use xlink:href="#DejaVuSans-2e" x="63.623047"/>
       <use xlink:href="#DejaVuSans-30" x="95.410156"/>
      </g>
     </g>
    </g>
    <g id="text_7">
     <!-- Time -->
     <g transform="translate(504.366406 412.756563)scale(0.1 -0.1)">
      <defs>
       <path id="DejaVuSans-54" d="M -19 4666 
L 3928 4666 
L 3928 4134 
L 2272 4134 
L 2272 0 
L 1638 0 
L 1638 4134 
L -19 4134 
L -19 4666 
z
" transform="scale(0.015625)"/>
       <path id="DejaVuSans-69" d="M 603 3500 
L 1178 3500 
L 1178 0 
L 603 0 
L 603 3500 
z
M 603 4863 
L 1178 4863 
L 1178 4134 
L 603 4134 
L 603 4863 
z
" transform="scale(0.015625)"/>
       <path id="DejaVuSans-6d" d="M 3328 2828 
Q 3544 3216 3844 3400 
Q 4144 3584 4550 3584 
Q 5097 3584 5394 3201 
Q 5691 2819 5691 2113 
L 5691 0 
L 5113 0 
L 5113 2094 
Q 5113 2597 4934 2840 
Q 4756 3084 4391 3084 
Q 3944 3084 3684 2787 
Q 3425 2491 3425 1978 
L 3425 0 
L 2847 0 
L 2847 2094 
Q 2847 2600 2669 2842 
Q 2491 3084 2119 3084 
Q 1678 3084 1418 2786 
Q 1159 2488 1159 1978 
L 1159 0 
L 581 0 
L 581 3500 
L 1159 3500 
L 1159 2956 
Q 1356 3278 1631 3431 
Q 1906 3584 2284 3584 
Q 2666 3584 2933 3390 
Q 3200 3197 3328 2828 
z
" transform="scale(0.015625)"/>
       <path id="DejaVuSans-65" d="M 3597 1894 
L 3597 1613 
L 953 1613 
Q 991 1019 1311 708 
Q 1631 397 2203 397 
Q 2534 397 2845 478 
Q 3156 559 3463 722 
L 3463 178 
Q 3153 47 2828 -22 
Q 2503 -91 2169 -91 
Q 1331 -91 842 396 
Q 353 884 353 1716 
Q 353 2575 817 3079 
Q 1281 3584 2069 3584 
Q 2775 3584 3186 3129 
Q 3597 2675 3597 1894 
z
M 3022 2063 
Q 3016 2534 2758 2815 
Q 2500 3097 2075 3097 
Q 1594 3097 1305 2825 
Q 1016 2553 972 2059 
L 3022 2063 
z
" transform="scale(0.015625)"/>
      </defs>
      <use xlink:href="#DejaVuSans-54"/>
      <use xlink:href="#DejaVuSans-69" x="57.958984"/>
      <use xlink:href="#DejaVuSans-6d" x="85.742188"/>
      <use xlink:href="#DejaVuSans-65" x="183.154297"/>
     </g>
    </g>
   </g>
   <g id="matplotlib.axis_2">
    <g id="ytick_1">
     <g id="line2d_7">
      <defs>
       <path id="mf403fccd6f" d="M 0 0 
L -3.5 0 
" style="stroke: #000000; stroke-width: 0.8"/>
      </defs>
      <g>
       <use xlink:href="#mf403fccd6f" x="126" y="369.358491" style="stroke: #000000; stroke-width: 0.8"/>
      </g>
     </g>
     <g id="text_8">
      <!-- 0.0 -->
      <g transform="translate(103.096875 373.15771)scale(0.1 -0.1)">
       <use xlink:href="#DejaVuSans-30"/>
       <use xlink:href="#DejaVuSans-2e" x="63.623047"/>
       <use xlink:href="#DejaVuSans-30" x="95.410156"/>
      </g>
     </g>
    </g>
    <g id="ytick_2">
     <g id="line2d_8">
      <g>
       <use xlink:href="#mf403fccd6f" x="126" y="332.227879" style="stroke: #000000; stroke-width: 0.8"/>
      </g>
     </g>
     <g id="text_9">
      <!-- 0.2 -->
      <g transform="translate(103.096875 336.027098)scale(0.1 -0.1)">
       <use xlink:href="#DejaVuSans-30"/>
       <use xlink:href="#DejaVuSans-2e" x="63.623047"/>
       <use xlink:href="#DejaVuSans-32" x="95.410156"/>
      </g>
     </g>
    </g>
    <g id="ytick_3">
     <g id="line2d_9">
      <g>
       <use xlink:href="#mf403fccd6f" x="126" y="295.097267" style="stroke: #000000; stroke-width: 0.8"/>
      </g>
     </g>
     <g id="text_10">
      <!-- 0.4 -->
      <g transform="translate(103.096875 298.896486)scale(0.1 -0.1)">
       <use xlink:href="#DejaVuSans-30"/>
       <use xlink:href="#DejaVuSans-2e" x="63.623047"/>
       <use xlink:href="#DejaVuSans-34" x="95.410156"/>
      </g>
     </g>
    </g>
    <g id="ytick_4">
     <g id="line2d_10">
      <g>
       <use xlink:href="#mf403fccd6f" x="126" y="257.966656" style="stroke: #000000; stroke-width: 0.8"/>
      </g>
     </g>
     <g id="text_11">
      <!-- 0.6 -->
      <g transform="translate(103.096875 261.765874)scale(0.1 -0.1)">
       <use xlink:href="#DejaVuSans-30"/>
       <use xlink:href="#DejaVuSans-2e" x="63.623047"/>
       <use xlink:href="#DejaVuSans-36" x="95.410156"/>
      </g>
     </g>
    </g>
    <g id="ytick_5">
     <g id="line2d_11">
      <g>
       <use xlink:href="#mf403fccd6f" x="126" y="220.836044" style="stroke: #000000; stroke-width: 0.8"/>
      </g>
     </g>
     <g id="text_12">
      <!-- 0.8 -->
      <g transform="translate(103.096875 224.635262)scale(0.1 -0.1)">
       <use xlink:href="#DejaVuSans-30"/>
       <use xlink:href="#DejaVuSans-2e" x="63.623047"/>
       <use xlink:href="#DejaVuSans-38" x="95.410156"/>
      </g>
     </g>
    </g>
    <g id="ytick_6">
     <g id="line2d_12">
      <g>
       <use xlink:href="#mf403fccd6f" x="126" y="183.705432" style="stroke: #000000; stroke-width: 0.8"/>
      </g>
     </g>
     <g id="text_13">
      <!-- 1.0 -->
      <g transform="translate(103.096875 187.50465)scale(0.1 -0.1)">
       <use xlink:href="#DejaVuSans-31"/>
       <use xlink:href="#DejaVuSans-2e" x="63.623047"/>
       <use xlink:href="#DejaVuSans-30" x="95.410156"/>
      </g>
     </g>
    </g>
    <g id="ytick_7">
     <g id="line2d_13">
      <g>
       <use xlink:href="#mf403fccd6f" x="126" y="146.57482" style="stroke: #000000; stroke-width: 0.8"/>
      </g>
     </g>
     <g id="text_14">
      <!-- 1.2 -->
      <g transform="translate(103.096875 150.374039)scale(0.1 -0.1)">
       <use xlink:href="#DejaVuSans-31"/>
       <use xlink:href="#DejaVuSans-2e" x="63.623047"/>
       <use xlink:href="#DejaVuSans-32" x="95.410156"/>
      </g>
     </g>
    </g>
    <g id="ytick_8">
     <g id="line2d_14">
      <g>
       <use xlink:href="#mf403fccd6f" x="126" y="109.444208" style="stroke: #000000; stroke-width: 0.8"/>
      </g>
     </g>
     <g id="text_15">
      <!-- 1.4 -->
      <g transform="translate(103.096875 113.243427)scale(0.1 -0.1)">
       <use xlink:href="#DejaVuSans-31"/>
       <use xlink:href="#DejaVuSans-2e" x="63.623047"/>
       <use xlink:href="#DejaVuSans-34" x="95.410156"/>
      </g>
     </g>
    </g>
    <g id="ytick_9">
     <g id="line2d_15">
      <g>
       <use xlink:href="#mf403fccd6f" x="126" y="72.313596" style="stroke: #000000; stroke-width: 0.8"/>
      </g>
     </g>
     <g id="text_16">
      <!-- 1.6 -->
      <g transform="translate(103.096875 76.112815)scale(0.1 -0.1)">
       <use xlink:href="#DejaVuSans-31"/>
       <use xlink:href="#DejaVuSans-2e" x="63.623047"/>
       <use xlink:href="#DejaVuSans-36" x="95.410156"/>
      </g>
     </g>
    </g>
    <g id="text_17">
     <!-- Quadratic Covariation -->
     <g transform="translate(97.017187 272.970156)rotate(-90)scale(0.1 -0.1)">
      <defs>
       <path id="DejaVuSans-51" d="M 2522 4238 
Q 1834 4238 1429 3725 
Q 1025 3213 1025 2328 
Q 1025 1447 1429 934 
Q 1834 422 2522 422 
Q 3209 422 3611 934 
Q 4013 1447 4013 2328 
Q 4013 3213 3611 3725 
Q 3209 4238 2522 4238 
z
M 3406 84 
L 4238 -825 
L 3475 -825 
L 2784 -78 
Q 2681 -84 2626 -87 
Q 2572 -91 2522 -91 
Q 1538 -91 948 567 
Q 359 1225 359 2328 
Q 359 3434 948 4092 
Q 1538 4750 2522 4750 
Q 3503 4750 4090 4092 
Q 4678 3434 4678 2328 
Q 4678 1516 4351 937 
Q 4025 359 3406 84 
z
" transform="scale(0.015625)"/>
       <path id="DejaVuSans-75" d="M 544 1381 
L 544 3500 
L 1119 3500 
L 1119 1403 
Q 1119 906 1312 657 
Q 1506 409 1894 409 
Q 2359 409 2629 706 
Q 2900 1003 2900 1516 
L 2900 3500 
L 3475 3500 
L 3475 0 
L 2900 0 
L 2900 538 
Q 2691 219 2414 64 
Q 2138 -91 1772 -91 
Q 1169 -91 856 284 
Q 544 659 544 1381 
z
M 1991 3584 
L 1991 3584 
z
" transform="scale(0.015625)"/>
       <path id="DejaVuSans-61" d="M 2194 1759 
Q 1497 1759 1228 1600 
Q 959 1441 959 1056 
Q 959 750 1161 570 
Q 1363 391 1709 391 
Q 2188 391 2477 730 
Q 2766 1069 2766 1631 
L 2766 1759 
L 2194 1759 
z
M 3341 1997 
L 3341 0 
L 2766 0 
L 2766 531 
Q 2569 213 2275 61 
Q 1981 -91 1556 -91 
Q 1019 -91 701 211 
Q 384 513 384 1019 
Q 384 1609 779 1909 
Q 1175 2209 1959 2209 
L 2766 2209 
L 2766 2266 
Q 2766 2663 2505 2880 
Q 2244 3097 1772 3097 
Q 1472 3097 1187 3025 
Q 903 2953 641 2809 
L 641 3341 
Q 956 3463 1253 3523 
Q 1550 3584 1831 3584 
Q 2591 3584 2966 3190 
Q 3341 2797 3341 1997 
z
" transform="scale(0.015625)"/>
       <path id="DejaVuSans-64" d="M 2906 2969 
L 2906 4863 
L 3481 4863 
L 3481 0 
L 2906 0 
L 2906 525 
Q 2725 213 2448 61 
Q 2172 -91 1784 -91 
Q 1150 -91 751 415 
Q 353 922 353 1747 
Q 353 2572 751 3078 
Q 1150 3584 1784 3584 
Q 2172 3584 2448 3432 
Q 2725 3281 2906 2969 
z
M 947 1747 
Q 947 1113 1208 752 
Q 1469 391 1925 391 
Q 2381 391 2643 752 
Q 2906 1113 2906 1747 
Q 2906 2381 2643 2742 
Q 2381 3103 1925 3103 
Q 1469 3103 1208 2742 
Q 947 2381 947 1747 
z
" transform="scale(0.015625)"/>
       <path id="DejaVuSans-72" d="M 2631 2963 
Q 2534 3019 2420 3045 
Q 2306 3072 2169 3072 
Q 1681 3072 1420 2755 
Q 1159 2438 1159 1844 
L 1159 0 
L 581 0 
L 581 3500 
L 1159 3500 
L 1159 2956 
Q 1341 3275 1631 3429 
Q 1922 3584 2338 3584 
Q 2397 3584 2469 3576 
Q 2541 3569 2628 3553 
L 2631 2963 
z
" transform="scale(0.015625)"/>
       <path id="DejaVuSans-74" d="M 1172 4494 
L 1172 3500 
L 2356 3500 
L 2356 3053 
L 1172 3053 
L 1172 1153 
Q 1172 725 1289 603 
Q 1406 481 1766 481 
L 2356 481 
L 2356 0 
L 1766 0 
Q 1100 0 847 248 
Q 594 497 594 1153 
L 594 3053 
L 172 3053 
L 172 3500 
L 594 3500 
L 594 4494 
L 1172 4494 
z
" transform="scale(0.015625)"/>
       <path id="DejaVuSans-63" d="M 3122 3366 
L 3122 2828 
Q 2878 2963 2633 3030 
Q 2388 3097 2138 3097 
Q 1578 3097 1268 2742 
Q 959 2388 959 1747 
Q 959 1106 1268 751 
Q 1578 397 2138 397 
Q 2388 397 2633 464 
Q 2878 531 3122 666 
L 3122 134 
Q 2881 22 2623 -34 
Q 2366 -91 2075 -91 
Q 1284 -91 818 406 
Q 353 903 353 1747 
Q 353 2603 823 3093 
Q 1294 3584 2113 3584 
Q 2378 3584 2631 3529 
Q 2884 3475 3122 3366 
z
" transform="scale(0.015625)"/>
       <path id="DejaVuSans-20" transform="scale(0.015625)"/>
       <path id="DejaVuSans-43" d="M 4122 4306 
L 4122 3641 
Q 3803 3938 3442 4084 
Q 3081 4231 2675 4231 
Q 1875 4231 1450 3742 
Q 1025 3253 1025 2328 
Q 1025 1406 1450 917 
Q 1875 428 2675 428 
Q 3081 428 3442 575 
Q 3803 722 4122 1019 
L 4122 359 
Q 3791 134 3420 21 
Q 3050 -91 2638 -91 
Q 1578 -91 968 557 
Q 359 1206 359 2328 
Q 359 3453 968 4101 
Q 1578 4750 2638 4750 
Q 3056 4750 3426 4639 
Q 3797 4528 4122 4306 
z
" transform="scale(0.015625)"/>
       <path id="DejaVuSans-6f" d="M 1959 3097 
Q 1497 3097 1228 2736 
Q 959 2375 959 1747 
Q 959 1119 1226 758 
Q 1494 397 1959 397 
Q 2419 397 2687 759 
Q 2956 1122 2956 1747 
Q 2956 2369 2687 2733 
Q 2419 3097 1959 3097 
z
M 1959 3584 
Q 2709 3584 3137 3096 
Q 3566 2609 3566 1747 
Q 3566 888 3137 398 
Q 2709 -91 1959 -91 
Q 1206 -91 779 398 
Q 353 888 353 1747 
Q 353 2609 779 3096 
Q 1206 3584 1959 3584 
z
" transform="scale(0.015625)"/>
       <path id="DejaVuSans-76" d="M 191 3500 
L 800 3500 
L 1894 563 
L 2988 3500 
L 3597 3500 
L 2284 0 
L 1503 0 
L 191 3500 
z
" transform="scale(0.015625)"/>
       <path id="DejaVuSans-6e" d="M 3513 2113 
L 3513 0 
L 2938 0 
L 2938 2094 
Q 2938 2591 2744 2837 
Q 2550 3084 2163 3084 
Q 1697 3084 1428 2787 
Q 1159 2491 1159 1978 
L 1159 0 
L 581 0 
L 581 3500 
L 1159 3500 
L 1159 2956 
Q 1366 3272 1645 3428 
Q 1925 3584 2291 3584 
Q 2894 3584 3203 3211 
Q 3513 2838 3513 2113 
z
" transform="scale(0.015625)"/>
      </defs>
      <use xlink:href="#DejaVuSans-51"/>
      <use xlink:href="#DejaVuSans-75" x="78.710938"/>
      <use xlink:href="#DejaVuSans-61" x="142.089844"/>
      <use xlink:href="#DejaVuSans-64" x="203.369141"/>
      <use xlink:href="#DejaVuSans-72" x="266.845703"/>
      <use xlink:href="#DejaVuSans-61" x="307.958984"/>
      <use xlink:href="#DejaVuSans-74" x="369.238281"/>
      <use xlink:href="#DejaVuSans-69" x="408.447266"/>
      <use xlink:href="#DejaVuSans-63" x="436.230469"/>
      <use xlink:href="#DejaVuSans-20" x="491.210938"/>
      <use xlink:href="#DejaVuSans-43" x="522.998047"/>
      <use xlink:href="#DejaVuSans-6f" x="592.822266"/>
      <use xlink:href="#DejaVuSans-76" x="654.003906"/>
      <use xlink:href="#DejaVuSans-61" x="713.183594"/>
      <use xlink:href="#DejaVuSans-72" x="774.462891"/>
      <use xlink:href="#DejaVuSans-69" x="815.576172"/>
      <use xlink:href="#DejaVuSans-61" x="843.359375"/>
      <use xlink:href="#DejaVuSans-74" x="904.638672"/>
      <use xlink:href="#DejaVuSans-69" x="943.847656"/>
      <use xlink:href="#DejaVuSans-6f" x="971.630859"/>
      <use xlink:href="#DejaVuSans-6e" x="1032.8125"/>
     </g>
    </g>
   </g>
   <g id="line2d_16">
    <path d="M 161.509091 183.705432 
L 162.219273 183.586704 
L 162.929455 186.168442 
L 163.639636 190.105324 
L 164.349818 191.71818 
L 165.06 198.819709 
L 165.770182 203.384379 
L 166.480364 203.662219 
L 167.190545 210.872336 
L 167.900727 197.598773 
L 168.610909 189.886714 
L 169.321091 184.278864 
L 170.031273 188.197246 
L 171.451636 214.364387 
L 172.161818 225.93192 
L 172.872 233.084473 
L 173.582182 232.659865 
L 174.292364 239.506372 
L 175.002545 232.10062 
L 175.712727 225.868823 
L 176.422909 226.101422 
L 177.133091 220.716165 
L 177.843273 217.878477 
L 178.553455 222.237246 
L 179.263636 219.208139 
L 179.973818 223.171889 
L 180.684 212.932478 
L 181.394182 210.211385 
L 182.104364 201.048858 
L 183.524727 218.026433 
L 184.234909 218.756895 
L 184.945091 221.59263 
L 185.655273 220.759627 
L 186.365455 208.321829 
L 187.075636 210.160633 
L 187.785818 210.308909 
L 188.496 224.299012 
L 189.206182 220.448064 
L 189.916364 223.299026 
L 190.626545 218.777797 
L 191.336727 223.906116 
L 192.046909 220.065901 
L 192.757091 216.84061 
L 193.467273 225.814878 
L 194.177455 211.676806 
L 194.887636 194.383839 
L 195.597818 197.005046 
L 196.308 198.296859 
L 197.018182 191.144631 
L 197.728364 191.407886 
L 198.438545 187.831013 
L 199.148727 189.308166 
L 199.858909 193.350132 
L 201.279273 199.470272 
L 201.989455 195.843082 
L 202.699636 199.790318 
L 203.409818 202.395699 
L 204.12 199.237569 
L 204.830182 193.183615 
L 205.540364 194.296927 
L 206.250545 189.840587 
L 206.960727 192.807613 
L 207.670909 191.404574 
L 208.381091 187.630536 
L 209.091273 191.746831 
L 209.801455 185.865851 
L 210.511636 196.958478 
L 211.932 187.374165 
L 212.642182 182.893099 
L 213.352364 179.359511 
L 214.062545 172.978463 
L 214.772727 172.615415 
L 215.482909 177.836807 
L 216.193091 175.967329 
L 217.613455 166.044058 
L 218.323636 168.324402 
L 219.033818 165.314788 
L 219.744 167.408743 
L 220.454182 167.63634 
L 221.164364 170.04931 
L 221.874545 176.420832 
L 222.584727 179.323394 
L 223.294909 195.41306 
L 224.005091 191.041676 
L 224.715273 193.520969 
L 225.425455 192.950581 
L 226.845818 208.531145 
L 227.556 213.920725 
L 228.266182 213.867409 
L 228.976364 213.151012 
L 229.686545 208.986835 
L 230.396727 209.778981 
L 231.106909 208.680373 
L 231.817091 203.179279 
L 232.527273 199.86818 
L 233.237455 200.50013 
L 233.947636 197.119825 
L 234.657818 191.184267 
L 235.368 192.688082 
L 236.788364 200.376254 
L 237.498545 196.475896 
L 238.208727 199.376859 
L 238.918909 192.271347 
L 239.629091 201.699056 
L 240.339273 202.578099 
L 241.049455 207.450991 
L 241.759636 204.875012 
L 242.469818 203.98518 
L 243.18 206.933616 
L 243.890182 206.439588 
L 244.600364 209.398319 
L 245.310545 207.787467 
L 246.020727 207.346909 
L 246.730909 208.408939 
L 247.441091 204.104596 
L 248.151273 202.330508 
L 248.861455 192.514496 
L 249.571636 199.892067 
L 250.281818 191.833025 
L 250.992 198.327846 
L 251.702182 201.223571 
L 252.412364 201.859114 
L 253.122545 214.674625 
L 253.832727 214.363039 
L 254.542909 218.396936 
L 255.253091 218.387719 
L 255.963273 213.503109 
L 256.673455 202.207484 
L 257.383636 202.033398 
L 258.093818 208.3652 
L 258.804 205.880179 
L 259.514182 206.092287 
L 260.224364 204.366542 
L 260.934545 211.780327 
L 261.644727 217.436881 
L 262.354909 217.819234 
L 263.065091 207.07366 
L 263.775273 211.586774 
L 264.485455 214.256524 
L 265.195636 215.361084 
L 265.905818 215.655235 
L 266.616 214.536671 
L 267.326182 214.824674 
L 268.036364 214.826967 
L 268.746545 213.855415 
L 269.456727 217.81443 
L 270.166909 218.886615 
L 270.877091 220.980082 
L 271.587273 216.540856 
L 272.297455 221.456665 
L 273.007636 220.800835 
L 273.717818 218.138183 
L 274.428 220.03009 
L 275.138182 217.686659 
L 275.848364 213.753846 
L 277.268727 210.870328 
L 277.978909 210.004048 
L 278.689091 214.773844 
L 279.399273 227.572527 
L 280.109455 217.456903 
L 280.819636 209.443084 
L 281.529818 205.901492 
L 282.24 204.330032 
L 282.950182 210.383011 
L 284.370545 210.516002 
L 285.790909 203.154847 
L 286.501091 206.353367 
L 287.211273 212.466134 
L 287.921455 206.231172 
L 288.631636 201.115974 
L 289.341818 203.382186 
L 290.052 207.061578 
L 290.762182 203.056369 
L 291.472364 194.869241 
L 292.182545 192.973678 
L 292.892727 200.626711 
L 293.602909 192.169243 
L 294.313091 198.136925 
L 295.023273 201.356143 
L 295.733455 213.666917 
L 296.443636 209.270331 
L 297.153818 207.748986 
L 297.864 202.148261 
L 298.574182 211.770301 
L 299.994545 196.18103 
L 300.704727 192.608956 
L 301.414909 194.4008 
L 302.125091 192.660034 
L 302.835273 189.183058 
L 303.545455 192.139904 
L 304.255636 198.123065 
L 304.965818 186.692523 
L 305.676 172.731714 
L 306.386182 175.554432 
L 307.096364 172.852071 
L 307.806545 170.838627 
L 308.516727 179.23449 
L 309.226909 178.118372 
L 311.357455 197.637583 
L 312.067636 199.338658 
L 312.777818 199.038792 
L 313.488 197.114379 
L 314.198182 201.466759 
L 314.908364 202.098629 
L 315.618545 191.816863 
L 316.328727 196.799725 
L 317.749091 201.781748 
L 318.459273 198.915154 
L 319.169455 204.248381 
L 319.879636 204.467279 
L 320.589818 198.86048 
L 321.3 197.405653 
L 322.010182 200.077969 
L 322.720364 204.068972 
L 323.430545 211.575147 
L 324.140727 216.112207 
L 324.850909 214.266913 
L 325.561091 213.509087 
L 326.271273 219.425376 
L 326.981455 219.229022 
L 327.691636 216.748565 
L 328.401818 212.767937 
L 329.112 206.44554 
L 329.822182 205.124744 
L 330.532364 216.369923 
L 331.242545 225.133028 
L 331.952727 220.360958 
L 332.662909 212.067178 
L 333.373091 215.111823 
L 334.083273 223.338538 
L 335.503636 237.525189 
L 336.213818 238.060322 
L 336.924 241.80179 
L 337.634182 234.622155 
L 338.344364 232.546912 
L 339.054545 240.584403 
L 339.764727 242.484535 
L 340.474909 243.165012 
L 341.185091 230.354762 
L 343.315636 210.428203 
L 344.025818 204.464858 
L 344.736 205.868343 
L 345.446182 200.515642 
L 346.156364 196.612016 
L 347.576727 208.080935 
L 348.286909 208.778519 
L 348.997091 203.361854 
L 349.707273 201.664355 
L 350.417455 201.077614 
L 351.127636 197.001532 
L 351.837818 202.162052 
L 352.548 204.363046 
L 353.258182 201.707716 
L 353.968364 190.791002 
L 354.678545 184.915115 
L 355.388727 186.330291 
L 356.098909 179.492044 
L 356.809091 169.144751 
L 357.519273 169.135072 
L 358.229455 179.146118 
L 358.939636 175.289535 
L 359.649818 169.466871 
L 360.36 173.552712 
L 361.070182 182.883636 
L 361.780364 180.573582 
L 362.490545 179.373867 
L 363.200727 187.455858 
L 363.910909 188.100514 
L 364.621091 197.082796 
L 365.331273 194.911296 
L 366.041455 187.226808 
L 366.751636 183.962187 
L 367.461818 170.889792 
L 368.172 174.697966 
L 368.882182 176.04498 
L 369.592364 171.684031 
L 370.302545 179.276056 
L 371.012727 180.312689 
L 371.722909 175.043589 
L 372.433091 180.582251 
L 373.143273 178.272838 
L 373.853455 166.742848 
L 374.563636 166.469626 
L 375.273818 164.657877 
L 375.984 165.352519 
L 376.694182 166.379929 
L 377.404364 169.395279 
L 378.114545 174.982917 
L 378.824727 184.389105 
L 379.534909 175.606436 
L 380.245091 172.074025 
L 380.955273 166.039525 
L 381.665455 174.727115 
L 382.375636 177.649569 
L 383.085818 178.703131 
L 383.796 178.232675 
L 384.506182 170.431344 
L 385.216364 169.668008 
L 386.636727 176.422106 
L 387.346909 181.078586 
L 388.057091 174.833918 
L 388.767273 178.299103 
L 390.187636 162.112966 
L 390.897818 159.33279 
L 391.608 163.69232 
L 392.318182 166.710532 
L 393.028364 157.230731 
L 393.738545 154.643918 
L 394.448727 160.212012 
L 395.158909 156.482282 
L 395.869091 154.550958 
L 396.579273 163.125791 
L 397.289455 174.071143 
L 397.999636 170.42154 
L 398.709818 177.970607 
L 399.42 181.534718 
L 400.130182 183.956998 
L 400.840364 178.689784 
L 401.550545 177.692484 
L 402.260727 185.185529 
L 402.970909 186.621241 
L 403.681091 185.995836 
L 404.391273 185.906494 
L 405.101455 183.347122 
L 405.811636 180.320017 
L 406.521818 180.675973 
L 407.232 178.538254 
L 407.942182 182.700365 
L 408.652364 184.975077 
L 409.362545 186.77911 
L 410.072727 184.260754 
L 410.782909 179.500024 
L 411.493091 181.982312 
L 412.203273 197.421863 
L 412.913455 207.606328 
L 413.623636 200.984702 
L 414.333818 203.88477 
L 415.044 203.632495 
L 415.754182 195.228545 
L 416.464364 189.942555 
L 417.174545 186.418775 
L 417.884727 184.321067 
L 419.305091 191.459677 
L 420.015273 189.012594 
L 420.725455 182.435844 
L 421.435636 184.483573 
L 422.145818 181.984407 
L 422.856 185.223781 
L 423.566182 192.109537 
L 424.276364 173.608916 
L 424.986545 164.707358 
L 425.696727 162.933875 
L 426.406909 165.185499 
L 427.117091 162.62205 
L 427.827273 166.369425 
L 428.537455 158.804256 
L 429.247636 155.551851 
L 429.957818 155.707177 
L 430.668 157.20872 
L 431.378182 149.85094 
L 432.088364 145.591231 
L 432.798545 145.691198 
L 433.508727 141.210418 
L 434.218909 148.128704 
L 434.929091 140.930516 
L 435.639273 141.479741 
L 436.349455 135.759347 
L 437.059636 142.565584 
L 438.48 152.891291 
L 439.190182 151.934045 
L 439.900364 147.350687 
L 440.610545 139.753563 
L 441.320727 139.976832 
L 442.030909 139.063859 
L 442.741091 142.806526 
L 443.451273 139.82773 
L 444.161455 135.176137 
L 444.871636 136.993459 
L 445.581818 136.338928 
L 446.292 128.023343 
L 447.002182 123.118728 
L 447.712364 121.909693 
L 448.422545 123.477447 
L 449.132727 124.561768 
L 449.842909 128.852846 
L 450.553091 130.748053 
L 451.263273 131.955696 
L 451.973455 134.293325 
L 452.683636 142.309817 
L 453.393818 139.70666 
L 454.104 144.851858 
L 454.814182 145.102927 
L 455.524364 133.020863 
L 456.944727 138.642335 
L 457.654909 146.230524 
L 458.365091 141.240323 
L 459.075273 147.342262 
L 459.785455 145.18436 
L 460.495636 141.022311 
L 461.205818 140.954519 
L 461.916 138.806216 
L 462.626182 131.929346 
L 463.336364 132.557826 
L 464.046545 131.308022 
L 464.756727 129.125085 
L 465.466909 132.280336 
L 466.177091 134.172661 
L 466.887273 125.890596 
L 467.597455 122.643741 
L 468.307636 129.917253 
L 469.017818 117.140733 
L 469.728 117.771044 
L 470.438182 124.220689 
L 471.148364 115.355907 
L 471.858545 109.333571 
L 472.568727 110.894864 
L 473.278909 116.168111 
L 473.989091 124.128764 
L 474.699273 110.943207 
L 475.409455 112.391401 
L 476.119636 115.450904 
L 476.829818 113.031122 
L 477.54 116.15752 
L 478.250182 107.306863 
L 478.960364 111.722205 
L 480.380727 104.541297 
L 481.090909 102.095098 
L 481.801091 105.769925 
L 483.221455 95.384333 
L 483.931636 94.647261 
L 484.641818 108.369188 
L 485.352 108.237833 
L 486.062182 110.595911 
L 486.772364 101.158973 
L 487.482545 97.427084 
L 488.192727 101.744516 
L 488.902909 97.612624 
L 489.613091 95.954704 
L 490.323273 90.77248 
L 491.033455 89.063689 
L 491.743636 93.354628 
L 492.453818 100.411323 
L 493.164 103.519342 
L 493.874182 118.047248 
L 494.584364 114.701672 
L 495.294545 118.661103 
L 496.004727 111.181548 
L 496.714909 105.090913 
L 497.425091 112.03167 
L 498.135273 111.727919 
L 498.845455 113.353229 
L 499.555636 116.614176 
L 500.265818 106.605942 
L 500.976 110.496325 
L 501.686182 106.644899 
L 502.396364 97.504366 
L 503.106545 98.737986 
L 503.816727 103.557627 
L 504.526909 98.402058 
L 505.237091 106.321065 
L 506.657455 115.955982 
L 507.367636 124.031774 
L 508.077818 134.673189 
L 508.788 130.281187 
L 509.498182 138.726694 
L 510.208364 139.363931 
L 510.918545 137.772307 
L 511.628727 134.818657 
L 512.338909 137.589169 
L 513.049091 127.890081 
L 514.469455 129.596453 
L 515.179636 128.772597 
L 515.889818 132.441355 
L 516.6 133.891731 
L 517.310182 135.778294 
L 518.020364 134.084429 
L 518.730545 130.959603 
L 520.861091 143.067384 
L 521.571273 139.273833 
L 522.281455 139.2538 
L 522.991636 140.760127 
L 523.701818 149.149736 
L 524.412 152.245681 
L 525.122182 154.52493 
L 525.832364 158.33947 
L 526.542545 154.820435 
L 527.252727 148.875701 
L 527.962909 152.527237 
L 529.383273 139.442953 
L 530.093455 135.71724 
L 530.803636 133.547393 
L 531.513818 136.672574 
L 532.224 137.545963 
L 532.934182 138.734414 
L 533.644364 139.283176 
L 534.354545 140.097896 
L 535.064727 141.614969 
L 535.774909 149.769411 
L 536.485091 154.220515 
L 537.195273 162.447287 
L 537.905455 166.664392 
L 538.615636 169.581119 
L 539.325818 177.85691 
L 540.036 189.616022 
L 540.746182 189.810164 
L 541.456364 194.136609 
L 542.166545 193.875872 
L 542.876727 190.306889 
L 543.586909 191.083685 
L 544.297091 208.916476 
L 545.007273 210.450921 
L 545.717455 206.379475 
L 546.427636 203.559383 
L 547.137818 192.118609 
L 547.848 194.600666 
L 548.558182 190.002419 
L 549.268364 189.365874 
L 550.688727 185.699365 
L 551.398909 175.749123 
L 552.109091 170.5427 
L 552.819273 174.35173 
L 553.529455 170.362547 
L 554.239636 169.558197 
L 554.949818 170.226437 
L 555.66 163.807501 
L 557.080364 182.741031 
L 557.790545 179.550845 
L 558.500727 170.622224 
L 559.210909 180.436342 
L 559.921091 168.601004 
L 560.631273 166.810004 
L 561.341455 172.840548 
L 562.051636 171.926739 
L 562.761818 152.041883 
L 563.472 154.076071 
L 564.182182 151.596035 
L 564.892364 160.73692 
L 565.602545 161.742093 
L 566.312727 159.694258 
L 567.022909 165.939802 
L 567.733091 180.293905 
L 568.443273 175.681725 
L 569.153455 170.077922 
L 569.863636 158.160749 
L 570.573818 166.949098 
L 571.284 168.885453 
L 571.994182 177.242917 
L 572.704364 171.826199 
L 574.124727 162.798175 
L 574.834909 161.176273 
L 575.545091 163.633776 
L 576.255273 164.403191 
L 576.965455 172.020602 
L 577.675636 181.019056 
L 578.385818 178.733085 
L 579.096 186.37195 
L 579.806182 185.369028 
L 580.516364 177.983473 
L 581.226545 175.37997 
L 581.936727 184.155813 
L 582.646909 180.70061 
L 583.357091 181.63862 
L 584.067273 177.928322 
L 584.777455 185.895352 
L 586.197818 208.277339 
L 586.908 207.335759 
L 587.618182 209.018177 
L 588.328364 213.874823 
L 589.038545 213.631591 
L 589.748727 214.439028 
L 590.458909 216.509168 
L 591.169091 222.176926 
L 591.879273 224.397875 
L 592.589455 220.004258 
L 593.299636 211.980457 
L 594.009818 214.038967 
L 594.72 211.012962 
L 595.430182 208.639583 
L 596.140364 207.387705 
L 596.850545 202.978016 
L 597.560727 206.201208 
L 598.270909 206.710252 
L 598.981091 201.522552 
L 599.691273 206.474288 
L 600.401455 210.444699 
L 601.111636 225.08498 
L 602.532 216.821239 
L 603.242182 225.760108 
L 603.952364 224.231375 
L 604.662545 231.759971 
L 605.372727 228.809785 
L 606.082909 224.879856 
L 606.793091 215.530611 
L 607.503273 216.28241 
L 608.213455 213.515796 
L 608.923636 221.284307 
L 609.633818 223.70366 
L 610.344 220.151915 
L 611.054182 233.217333 
L 611.764364 236.1684 
L 612.474545 248.647649 
L 613.184727 244.106856 
L 613.894909 233.546045 
L 614.605091 232.134825 
L 615.315273 230.051042 
L 616.025455 228.902598 
L 616.735636 225.613375 
L 617.445818 232.726954 
L 618.156 231.869862 
L 618.866182 228.830667 
L 619.576364 227.12917 
L 620.286545 226.021912 
L 620.996727 225.178315 
L 621.706909 231.444973 
L 622.417091 225.151841 
L 623.127273 224.91694 
L 623.837455 223.571404 
L 624.547636 227.528642 
L 625.257818 213.401544 
L 625.968 203.569218 
L 626.678182 205.460803 
L 627.388364 204.044334 
L 628.098545 216.286943 
L 628.808727 213.814679 
L 629.518909 214.377963 
L 630.229091 211.817247 
L 630.939273 214.787153 
L 631.649455 213.482975 
L 632.359636 211.676957 
L 633.069818 207.445953 
L 633.78 206.350699 
L 634.490182 203.811 
L 635.200364 203.258386 
L 635.910545 198.030909 
L 636.620727 201.980595 
L 637.330909 201.220331 
L 638.041091 196.093391 
L 638.751273 199.540571 
L 639.461455 206.444756 
L 640.171636 207.898375 
L 640.881818 204.481034 
L 641.592 204.508404 
L 642.302182 215.59038 
L 643.012364 207.154134 
L 643.722545 207.126986 
L 644.432727 196.373449 
L 645.142909 204.701687 
L 645.853091 195.238126 
L 646.563273 190.229516 
L 647.273455 186.75332 
L 647.983636 198.128908 
L 648.693818 198.694497 
L 649.404 196.158258 
L 650.114182 202.873224 
L 650.824364 207.649509 
L 651.534545 196.809851 
L 652.244727 195.281634 
L 652.954909 188.538963 
L 653.665091 184.815289 
L 654.375273 182.171788 
L 655.085455 178.026637 
L 655.795636 169.423723 
L 656.505818 169.66628 
L 657.216 177.046771 
L 657.926182 180.989851 
L 658.636364 182.728398 
L 659.346545 179.564338 
L 660.056727 179.765041 
L 660.766909 189.028835 
L 661.477091 192.353549 
L 662.187273 182.017743 
L 662.897455 186.463495 
L 664.317818 170.833119 
L 665.028 173.874243 
L 665.738182 184.415266 
L 666.448364 190.486033 
L 667.158545 191.345702 
L 667.868727 194.939042 
L 668.578909 201.528799 
L 669.289091 200.885745 
L 669.999273 209.349936 
L 670.709455 209.620691 
L 671.419636 214.973569 
L 672.129818 223.665612 
L 672.84 226.31324 
L 673.550182 223.544173 
L 674.260364 234.538355 
L 674.970545 231.834295 
L 675.680727 232.965018 
L 677.101091 216.996352 
L 677.811273 218.423362 
L 678.521455 224.516858 
L 679.231636 222.788067 
L 679.941818 216.386785 
L 680.652 204.671006 
L 681.362182 204.104485 
L 682.072364 211.153912 
L 682.782545 209.472406 
L 683.492727 214.559825 
L 684.202909 216.830432 
L 684.913091 224.05198 
L 685.623273 224.190388 
L 686.333455 224.999816 
L 687.043636 215.540658 
L 687.753818 211.251509 
L 688.464 210.076201 
L 689.174182 199.120548 
L 689.884364 196.741763 
L 690.594545 195.301377 
L 691.304727 197.255276 
L 692.014909 210.780165 
L 692.725091 210.519617 
L 693.435273 201.800961 
L 694.145455 211.168998 
L 694.855636 215.220428 
L 695.565818 209.626648 
L 696.276 223.684162 
L 696.986182 214.478352 
L 697.696364 214.028818 
L 698.406545 218.804002 
L 699.116727 210.208515 
L 699.826909 209.586727 
L 700.537091 214.321542 
L 701.247273 209.563667 
L 701.957455 206.19142 
L 702.667636 208.623422 
L 703.377818 207.022269 
L 704.088 206.530079 
L 704.798182 210.355962 
L 705.508364 219.235927 
L 706.218545 216.638747 
L 706.928727 216.79809 
L 707.638909 227.013243 
L 708.349091 223.307887 
L 709.059273 224.100933 
L 709.769455 233.299894 
L 710.479636 227.260716 
L 711.189818 224.193126 
L 711.9 217.794344 
L 712.610182 223.972856 
L 713.320364 233.420637 
L 714.030545 231.75788 
L 715.450909 217.292032 
L 716.161091 212.207165 
L 716.871273 212.385835 
L 719.001818 233.387616 
L 719.712 237.407681 
L 720.422182 230.849259 
L 721.132364 232.250811 
L 721.842545 227.2482 
L 722.552727 229.630885 
L 723.262909 232.888042 
L 723.973091 218.731023 
L 724.683273 215.445182 
L 725.393455 221.397372 
L 726.103636 220.779706 
L 726.813818 216.950526 
L 727.524 225.956444 
L 728.234182 225.058906 
L 728.944364 223.504904 
L 729.654545 218.62565 
L 730.364727 217.504611 
L 731.074909 206.889323 
L 731.785091 213.430453 
L 732.495273 211.1339 
L 733.205455 216.277097 
L 733.915636 218.221878 
L 734.625818 209.115193 
L 735.336 203.623098 
L 736.046182 211.578994 
L 736.756364 217.35498 
L 737.466545 221.726275 
L 738.176727 222.083846 
L 738.886909 212.583885 
L 739.597091 207.964319 
L 740.307273 209.109535 
L 741.017455 213.176642 
L 741.727636 208.251496 
L 742.437818 212.850602 
L 743.148 216.629149 
L 743.858182 208.985274 
L 744.568364 208.66257 
L 745.278545 205.989451 
L 745.988727 202.08171 
L 746.698909 197.494426 
L 747.409091 202.092377 
L 748.119273 202.559747 
L 749.539636 217.54865 
L 750.249818 221.119894 
L 750.96 218.302833 
L 751.670182 212.194773 
L 752.380364 208.201207 
L 753.090545 205.258013 
L 753.800727 205.233828 
L 754.510909 202.023796 
L 755.221091 209.34331 
L 755.931273 209.241112 
L 756.641455 207.057989 
L 757.351636 203.675072 
L 758.061818 198.0083 
L 758.772 200.019625 
L 759.482182 192.157517 
L 760.192364 192.333178 
L 760.902545 184.319062 
L 761.612727 178.904392 
L 762.322909 179.503726 
L 763.033091 178.51655 
L 763.743273 183.914962 
L 764.453455 191.854079 
L 765.163636 191.946313 
L 765.873818 180.029363 
L 766.584 174.925549 
L 767.294182 174.375655 
L 768.004364 181.108853 
L 768.714545 180.259762 
L 769.424727 183.082938 
L 770.134909 188.219838 
L 770.845091 183.664959 
L 771.555273 183.264612 
L 772.265455 188.300603 
L 772.975636 189.007277 
L 773.685818 188.691047 
L 774.396 187.298616 
L 775.106182 191.261234 
L 775.816364 192.894504 
L 776.526545 191.555475 
L 777.236727 189.219341 
L 777.946909 193.832565 
L 778.657091 185.231601 
L 779.367273 182.784847 
L 780.077455 177.797346 
L 780.787636 190.869709 
L 781.497818 192.173427 
L 782.208 196.444578 
L 782.918182 194.450416 
L 783.628364 190.638411 
L 784.338545 195.508732 
L 785.048727 194.816092 
L 786.469091 186.245111 
L 787.179273 176.856572 
L 787.889455 180.087467 
L 788.599636 186.289774 
L 789.309818 189.093045 
L 790.02 193.540399 
L 790.730182 194.990841 
L 791.440364 199.634538 
L 792.150545 212.943284 
L 792.860727 212.754908 
L 793.570909 217.14966 
L 794.281091 209.50668 
L 794.991273 210.192185 
L 796.411636 197.316878 
L 797.121818 187.25071 
L 798.542182 194.625821 
L 799.252364 198.037415 
L 799.962545 184.071979 
L 800.672727 189.856548 
L 801.382909 190.483058 
L 802.093091 195.50779 
L 802.803273 193.646912 
L 803.513455 196.678609 
L 804.223636 203.101245 
L 804.933818 199.225734 
L 805.644 204.074421 
L 806.354182 205.728438 
L 807.064364 210.454984 
L 807.774545 207.426797 
L 808.484727 205.22304 
L 809.194909 200.857596 
L 809.905091 201.234985 
L 810.615273 186.256597 
L 811.325455 174.217005 
L 812.745818 154.460413 
L 813.456 151.227422 
L 814.166182 153.743436 
L 814.876364 160.731934 
L 815.586545 154.341985 
L 816.296727 154.296784 
L 817.006909 146.15529 
L 817.717091 143.255082 
L 818.427273 152.680494 
L 819.137455 151.823032 
L 819.847636 160.922964 
L 820.557818 160.64588 
L 821.268 155.081377 
L 821.978182 146.652987 
L 822.688364 143.091599 
L 823.398545 143.619239 
L 824.108727 144.841851 
L 824.818909 147.466508 
L 825.529091 140.947291 
L 826.239273 142.392872 
L 826.949455 143.17575 
L 828.369818 130.341406 
L 829.790182 132.113528 
L 831.210545 125.163291 
L 832.630909 119.611217 
L 833.341091 118.144267 
L 834.051273 118.794731 
L 834.761455 122.651321 
L 835.471636 117.302211 
L 836.181818 127.296617 
L 836.892 128.975076 
L 837.602182 117.0981 
L 838.312364 123.025095 
L 839.022545 115.773427 
L 839.732727 109.855238 
L 840.442909 107.773635 
L 841.153091 98.827816 
L 841.863273 106.3354 
L 842.573455 106.600229 
L 843.283636 117.68884 
L 843.993818 122.557734 
L 844.704 123.451809 
L 845.414182 116.716301 
L 846.124364 114.148881 
L 846.834545 122.332463 
L 847.544727 121.709913 
L 848.254909 124.761046 
L 848.965091 122.188473 
L 849.675273 121.485966 
L 850.385455 122.339667 
L 851.095636 125.090414 
L 851.805818 131.010372 
L 852.516 121.736696 
L 853.226182 120.755646 
L 853.936364 124.455499 
L 854.646545 107.533533 
L 855.356727 98.118032 
L 856.066909 94.330274 
L 856.777091 98.008321 
L 857.487273 89.266475 
L 858.197455 94.228691 
L 858.907636 98.066758 
L 859.617818 99.417808 
L 860.328 101.570628 
L 861.038182 108.488868 
L 861.748364 103.359746 
L 862.458545 93.188997 
L 863.168727 99.134755 
L 863.878909 103.233564 
L 864.589091 106.103291 
L 866.009455 96.226609 
L 866.719636 96.720849 
L 867.429818 90.521338 
L 868.14 97.355499 
L 868.850182 88.502682 
L 869.560364 90.370888 
L 870.270545 93.897661 
L 870.980727 92.230931 
L 871.690909 97.402449 
L 871.690909 97.402449 
" clip-path="url(#p1cfffe7d8c)" style="fill: none; stroke: #1f77b4; stroke-width: 1.5; stroke-linecap: square"/>
   </g>
   <g id="line2d_17">
    <path d="M 161.509091 183.705432 
L 162.219273 186.064522 
L 163.639636 197.136906 
L 164.349818 205.396134 
L 165.06 211.368356 
L 165.770182 224.017284 
L 166.480364 221.91882 
L 167.190545 221.360695 
L 167.900727 219.136673 
L 168.610909 206.629115 
L 169.321091 199.592068 
L 170.031273 202.089189 
L 170.741455 216.895391 
L 171.451636 225.818935 
L 172.872 260.546656 
L 173.582182 255.993129 
L 174.292364 273.357898 
L 175.002545 272.810394 
L 175.712727 265.238739 
L 176.422909 273.143882 
L 177.133091 271.878154 
L 177.843273 272.601604 
L 178.553455 263.835579 
L 179.263636 265.32391 
L 179.973818 271.142033 
L 180.684 259.72852 
L 181.394182 253.852227 
L 182.104364 243.028354 
L 182.814545 243.981631 
L 183.524727 242.593557 
L 184.234909 240.622516 
L 184.945091 235.681226 
L 185.655273 236.95442 
L 186.365455 235.816434 
L 187.075636 243.952127 
L 187.785818 245.958335 
L 188.496 258.81003 
L 189.206182 257.595385 
L 189.916364 257.262942 
L 190.626545 257.538891 
L 191.336727 264.225253 
L 192.046909 268.317639 
L 192.757091 255.426392 
L 193.467273 263.75038 
L 194.887636 228.4112 
L 195.597818 232.257287 
L 196.308 238.556996 
L 197.018182 218.314653 
L 197.728364 223.152579 
L 198.438545 214.200112 
L 199.148727 213.235506 
L 199.858909 216.930205 
L 200.569091 209.628816 
L 201.279273 224.796715 
L 201.989455 219.105125 
L 202.699636 208.905497 
L 203.409818 208.601488 
L 204.12 214.794598 
L 204.830182 209.904714 
L 205.540364 208.652918 
L 206.250545 197.381965 
L 206.960727 192.777087 
L 207.670909 194.109027 
L 208.381091 190.322102 
L 209.091273 198.107573 
L 209.801455 193.182786 
L 210.511636 205.428941 
L 211.221818 205.267 
L 212.642182 190.501513 
L 213.352364 184.367963 
L 214.062545 184.036984 
L 215.482909 193.62729 
L 216.193091 196.439705 
L 216.903273 191.235171 
L 217.613455 180.685776 
L 218.323636 183.199957 
L 219.033818 172.916707 
L 219.744 175.771373 
L 220.454182 173.899575 
L 221.164364 176.648655 
L 221.874545 177.344161 
L 222.584727 175.964772 
L 223.294909 185.421277 
L 224.005091 180.135996 
L 224.715273 179.816095 
L 225.425455 174.502016 
L 226.135636 183.006815 
L 227.556 186.007678 
L 228.266182 186.045468 
L 228.976364 179.215511 
L 229.686545 177.659156 
L 230.396727 185.894776 
L 231.106909 184.196324 
L 231.817091 175.738298 
L 232.527273 176.854403 
L 233.237455 184.381506 
L 233.947636 178.317813 
L 234.657818 179.041283 
L 235.368 178.572874 
L 236.788364 197.304603 
L 237.498545 206.363562 
L 238.208727 204.193095 
L 238.918909 192.580354 
L 239.629091 203.215702 
L 240.339273 202.704199 
L 241.049455 204.760011 
L 241.759636 188.721295 
L 242.469818 184.555932 
L 243.18 187.803614 
L 243.890182 189.393762 
L 244.600364 188.849182 
L 245.310545 186.993019 
L 246.020727 194.496688 
L 246.730909 188.568099 
L 247.441091 185.389914 
L 248.861455 174.118952 
L 249.571636 176.755652 
L 250.281818 170.29077 
L 250.992 196.191698 
L 251.702182 200.585314 
L 252.412364 183.324572 
L 253.122545 192.470509 
L 253.832727 188.410867 
L 254.542909 179.291833 
L 255.963273 168.084661 
L 256.673455 154.480056 
L 257.383636 148.575373 
L 258.093818 164.750407 
L 258.804 158.454533 
L 259.514182 162.07046 
L 260.224364 157.546496 
L 260.934545 167.192574 
L 261.644727 162.556667 
L 262.354909 152.864122 
L 263.065091 145.358665 
L 263.775273 145.181389 
L 264.485455 147.372144 
L 265.195636 145.41583 
L 265.905818 145.247896 
L 266.616 138.257751 
L 267.326182 137.216563 
L 268.036364 134.276203 
L 268.746545 126.45701 
L 270.166909 140.282109 
L 270.877091 157.466928 
L 271.587273 164.716208 
L 272.297455 178.596328 
L 273.007636 177.2499 
L 273.717818 170.565872 
L 275.138182 169.012962 
L 275.848364 162.268156 
L 276.558545 165.648471 
L 277.268727 172.887022 
L 277.978909 162.387114 
L 278.689091 167.952801 
L 279.399273 177.494346 
L 280.109455 172.354211 
L 280.819636 156.873362 
L 281.529818 161.159499 
L 282.24 162.812385 
L 282.950182 166.46089 
L 283.660364 164.620763 
L 284.370545 163.1895 
L 285.080727 160.384999 
L 285.790909 149.784541 
L 286.501091 160.193822 
L 287.211273 160.090127 
L 287.921455 155.416388 
L 288.631636 155.429842 
L 290.052 146.295213 
L 290.762182 148.743374 
L 291.472364 138.044891 
L 292.182545 133.596687 
L 292.892727 135.390886 
L 293.602909 119.290049 
L 294.313091 118.783024 
L 295.023273 117.429635 
L 295.733455 126.12594 
L 296.443636 131.580126 
L 297.153818 135.889627 
L 297.864 133.504375 
L 298.574182 143.692812 
L 299.284364 139.501473 
L 299.994545 140.394649 
L 300.704727 131.637561 
L 301.414909 128.987928 
L 302.125091 138.833871 
L 302.835273 133.49105 
L 303.545455 137.422785 
L 304.255636 133.633162 
L 304.965818 116.766194 
L 305.676 107.31502 
L 306.386182 103.385459 
L 307.096364 98.268353 
L 307.806545 105.903121 
L 308.516727 107.900176 
L 309.226909 107.787098 
L 309.937091 128.447025 
L 310.647273 139.241749 
L 311.357455 147.573287 
L 312.067636 152.368764 
L 312.777818 153.503714 
L 313.488 149.605678 
L 314.198182 157.354178 
L 314.908364 150.736093 
L 315.618545 136.630108 
L 317.038909 128.637646 
L 317.749091 131.746843 
L 318.459273 133.549857 
L 319.169455 137.575812 
L 319.879636 131.941758 
L 320.589818 135.935991 
L 321.3 126.396952 
L 322.010182 128.975932 
L 322.720364 136.069944 
L 324.140727 145.19577 
L 324.850909 150.79661 
L 325.561091 147.290288 
L 326.271273 150.482141 
L 326.981455 156.197996 
L 327.691636 166.268891 
L 329.112 162.027089 
L 329.822182 167.835569 
L 331.242545 189.497004 
L 331.952727 191.94864 
L 332.662909 185.138715 
L 333.373091 192.880224 
L 334.083273 209.372998 
L 334.793455 209.169966 
L 335.503636 217.337629 
L 336.213818 221.727475 
L 336.924 227.449908 
L 337.634182 229.730136 
L 338.344364 225.831496 
L 339.054545 238.785963 
L 339.764727 246.898309 
L 340.474909 244.438662 
L 341.185091 223.884471 
L 341.895273 222.268996 
L 342.605455 208.644496 
L 343.315636 199.46898 
L 344.025818 180.248119 
L 344.736 176.607615 
L 345.446182 174.308341 
L 346.156364 175.389387 
L 346.866545 175.069346 
L 347.576727 170.933511 
L 348.286909 178.796584 
L 348.997091 165.103963 
L 349.707273 159.283316 
L 350.417455 156.418945 
L 351.127636 161.636028 
L 351.837818 168.093305 
L 352.548 167.656796 
L 353.258182 172.538982 
L 353.968364 155.352551 
L 354.678545 155.270337 
L 355.388727 153.50445 
L 356.098909 144.889954 
L 356.809091 145.653483 
L 357.519273 129.542223 
L 358.229455 140.652575 
L 358.939636 130.90274 
L 359.649818 118.271511 
L 360.36 115.971139 
L 361.070182 125.716747 
L 361.780364 125.269179 
L 362.490545 125.718082 
L 363.200727 124.088872 
L 363.910909 133.576932 
L 364.621091 151.391158 
L 365.331273 148.791728 
L 366.041455 136.184244 
L 366.751636 128.759713 
L 367.461818 114.049519 
L 368.172 119.115355 
L 368.882182 123.281327 
L 369.592364 130.316382 
L 370.302545 139.797059 
L 371.012727 134.428707 
L 371.722909 126.811477 
L 372.433091 134.208324 
L 373.143273 136.546704 
L 373.853455 122.500427 
L 374.563636 128.84393 
L 375.273818 128.000249 
L 375.984 126.081901 
L 377.404364 117.708044 
L 378.114545 133.994986 
L 378.824727 142.094425 
L 379.534909 111.584811 
L 380.955273 97.758839 
L 381.665455 103.04718 
L 383.085818 108.374787 
L 383.796 112.887451 
L 384.506182 107.054381 
L 385.216364 106.757653 
L 385.926545 112.56522 
L 386.636727 105.840572 
L 387.346909 120.022423 
L 388.057091 115.300453 
L 388.767273 115.943849 
L 389.477455 114.317583 
L 390.187636 101.995023 
L 390.897818 105.380128 
L 391.608 110.499505 
L 392.318182 101.583534 
L 393.738545 88.658191 
L 394.448727 90.133412 
L 395.158909 93.523594 
L 395.869091 88.665917 
L 396.579273 95.875924 
L 397.289455 108.605514 
L 397.999636 102.415973 
L 399.42 113.592104 
L 400.130182 125.53318 
L 400.840364 125.477831 
L 401.550545 126.364509 
L 402.260727 143.189607 
L 402.970909 148.080187 
L 403.681091 144.21151 
L 404.391273 148.095553 
L 405.101455 149.059614 
L 405.811636 152.806638 
L 406.521818 152.194537 
L 407.232 154.924726 
L 407.942182 158.646867 
L 409.362545 150.030662 
L 410.072727 148.020732 
L 410.782909 145.504384 
L 411.493091 149.136785 
L 412.913455 169.620373 
L 413.623636 164.694608 
L 414.333818 165.538793 
L 415.044 157.582875 
L 415.754182 154.879798 
L 416.464364 143.910105 
L 417.174545 137.962513 
L 417.884727 128.44538 
L 418.594909 139.239757 
L 419.305091 141.381708 
L 420.015273 146.569142 
L 420.725455 147.003934 
L 421.435636 147.830968 
L 422.145818 152.866272 
L 422.856 159.71681 
L 423.566182 171.115059 
L 424.276364 152.804065 
L 424.986545 157.59996 
L 425.696727 155.347783 
L 426.406909 162.096676 
L 427.117091 161.35857 
L 427.827273 174.777958 
L 428.537455 170.888368 
L 429.247636 162.962644 
L 429.957818 168.133768 
L 430.668 175.228206 
L 431.378182 163.538298 
L 432.088364 156.063863 
L 432.798545 158.732368 
L 433.508727 158.855751 
L 434.218909 166.356488 
L 434.929091 153.181998 
L 435.639273 151.127588 
L 436.349455 134.962285 
L 437.059636 134.808732 
L 437.769818 147.156187 
L 439.190182 137.654023 
L 439.900364 131.827944 
L 440.610545 120.375769 
L 441.320727 123.841524 
L 442.030909 133.17214 
L 442.741091 132.344995 
L 443.451273 127.288144 
L 444.161455 124.351775 
L 444.871636 132.155326 
L 445.581818 123.821012 
L 446.292 109.726534 
L 447.002182 107.257948 
L 447.712364 105.948457 
L 448.422545 108.004895 
L 449.132727 115.936011 
L 449.842909 121.035274 
L 450.553091 122.284829 
L 451.263273 122.75476 
L 451.973455 113.01273 
L 452.683636 128.653454 
L 453.393818 125.081784 
L 454.104 116.507737 
L 454.814182 105.563371 
L 455.524364 91.679618 
L 456.234545 97.284331 
L 456.944727 90.65497 
L 457.654909 93.709559 
L 458.365091 87.917248 
L 459.075273 96.673619 
L 459.785455 92.348015 
L 460.495636 84.532809 
L 461.205818 92.308961 
L 461.916 92.054424 
L 462.626182 93.832772 
L 463.336364 86.475516 
L 464.046545 92.52135 
L 464.756727 90.372056 
L 465.466909 85.822252 
L 466.177091 91.778116 
L 466.887273 82.992457 
L 467.597455 83.860249 
L 468.307636 93.150919 
L 469.017818 73.783378 
L 469.728 73.34568 
L 470.438182 79.104227 
L 471.148364 66.96 
L 471.858545 70.704639 
L 473.278909 87.31742 
L 473.989091 101.183792 
L 474.699273 87.459975 
L 475.409455 90.517616 
L 476.119636 95.185142 
L 476.829818 95.092271 
L 477.54 99.705126 
L 478.250182 93.812815 
L 478.960364 100.929492 
L 479.670545 96.084718 
L 480.380727 94.847879 
L 481.090909 93.995194 
L 481.801091 105.962983 
L 482.511273 94.45257 
L 483.221455 86.400659 
L 483.931636 96.438982 
L 484.641818 111.961099 
L 485.352 119.812907 
L 486.062182 125.870933 
L 486.772364 110.397638 
L 487.482545 115.283088 
L 488.192727 114.675458 
L 488.902909 117.367166 
L 489.613091 110.788555 
L 490.323273 111.692895 
L 491.033455 112.281917 
L 491.743636 109.708546 
L 492.453818 104.16063 
L 493.164 96.736456 
L 493.874182 118.119286 
L 494.584364 105.414777 
L 495.294545 113.322498 
L 496.004727 98.054485 
L 496.714909 95.555435 
L 497.425091 113.929276 
L 498.135273 114.994255 
L 498.845455 114.161132 
L 500.265818 120.480671 
L 500.976 125.413072 
L 502.396364 114.833771 
L 503.106545 108.586298 
L 503.816727 118.765635 
L 504.526909 115.249122 
L 505.237091 118.313598 
L 505.947273 120.587379 
L 506.657455 129.527478 
L 507.367636 134.447079 
L 508.077818 150.746267 
L 508.788 155.89473 
L 509.498182 164.968935 
L 510.208364 160.338373 
L 510.918545 160.898704 
L 511.628727 152.799006 
L 512.338909 155.957341 
L 513.049091 143.697194 
L 513.759273 143.680474 
L 514.469455 141.891281 
L 515.179636 133.954901 
L 515.889818 141.468168 
L 516.6 144.108232 
L 517.310182 145.399649 
L 518.020364 137.004202 
L 518.730545 116.609565 
L 519.440727 109.364554 
L 520.150909 112.141115 
L 520.861091 118.371353 
L 521.571273 101.005776 
L 522.281455 100.299629 
L 522.991636 103.574058 
L 523.701818 124.741768 
L 524.412 124.182579 
L 526.542545 148.084129 
L 527.252727 134.68029 
L 527.962909 142.875092 
L 528.673091 131.219401 
L 529.383273 115.516973 
L 530.803636 112.605291 
L 531.513818 119.279526 
L 532.224 105.647042 
L 532.934182 114.376566 
L 533.644364 109.668166 
L 534.354545 107.133293 
L 535.064727 108.495442 
L 535.774909 119.598645 
L 536.485091 123.21121 
L 537.195273 122.80651 
L 537.905455 133.275626 
L 538.615636 118.141784 
L 539.325818 124.442601 
L 540.036 136.060781 
L 540.746182 138.830894 
L 541.456364 142.241295 
L 542.166545 135.855578 
L 542.876727 130.698013 
L 543.586909 134.277493 
L 544.297091 156.552035 
L 545.717455 178.341785 
L 547.137818 166.443385 
L 547.848 171.774748 
L 548.558182 176.153738 
L 549.268364 168.894536 
L 549.978545 168.187643 
L 550.688727 163.724108 
L 551.398909 150.497733 
L 552.109091 143.093194 
L 552.819273 153.270148 
L 553.529455 143.340315 
L 554.239636 147.987611 
L 554.949818 138.020074 
L 555.66 130.467452 
L 557.080364 156.36017 
L 558.500727 145.597052 
L 559.210909 161.485087 
L 559.921091 150.898483 
L 560.631273 149.036735 
L 561.341455 156.368229 
L 562.051636 157.587032 
L 562.761818 146.337954 
L 563.472 148.995645 
L 564.182182 155.105059 
L 564.892364 153.463747 
L 565.602545 155.075679 
L 566.312727 147.52694 
L 567.022909 159.693738 
L 567.733091 168.632032 
L 568.443273 171.805288 
L 569.153455 179.62733 
L 569.863636 169.307933 
L 570.573818 178.107245 
L 571.284 175.902977 
L 571.994182 192.155716 
L 572.704364 194.442513 
L 573.414545 191.481674 
L 574.124727 185.905342 
L 574.834909 178.520143 
L 575.545091 174.527658 
L 576.255273 164.701131 
L 576.965455 165.385102 
L 577.675636 177.597963 
L 578.385818 171.720896 
L 579.096 178.000115 
L 579.806182 168.800331 
L 581.226545 159.216445 
L 581.936727 177.712097 
L 582.646909 179.4877 
L 584.067273 176.493348 
L 584.777455 196.392084 
L 586.197818 210.949765 
L 586.908 204.575973 
L 587.618182 210.220554 
L 588.328364 234.259133 
L 589.038545 233.393848 
L 589.748727 224.202848 
L 590.458909 232.002093 
L 591.169091 235.665398 
L 591.879273 242.691651 
L 592.589455 233.633077 
L 593.299636 228.584473 
L 594.009818 222.476757 
L 594.72 217.637564 
L 595.430182 215.698002 
L 596.140364 221.393674 
L 596.850545 219.372982 
L 597.560727 218.053746 
L 598.270909 220.995252 
L 598.981091 211.323177 
L 599.691273 221.824343 
L 600.401455 227.24586 
L 601.111636 237.71225 
L 601.821818 226.863609 
L 602.532 224.157844 
L 603.242182 230.844476 
L 603.952364 231.683229 
L 604.662545 238.59988 
L 605.372727 237.519702 
L 606.082909 225.981583 
L 606.793091 217.94443 
L 607.503273 214.864253 
L 608.213455 214.357099 
L 608.923636 229.69076 
L 609.633818 233.409195 
L 610.344 224.563339 
L 611.764364 239.093266 
L 612.474545 249.563198 
L 613.184727 250.785741 
L 613.894909 245.182495 
L 614.605091 252.287093 
L 615.315273 260.904877 
L 616.025455 251.226478 
L 616.735636 246.458663 
L 617.445818 240.616129 
L 618.156 239.508811 
L 618.866182 238.634041 
L 619.576364 226.699046 
L 620.286545 237.081334 
L 620.996727 230.379776 
L 621.706909 229.045697 
L 622.417091 224.000244 
L 623.127273 227.833919 
L 623.837455 228.11942 
L 624.547636 241.992791 
L 625.257818 221.528333 
L 625.968 219.49797 
L 627.388364 229.598078 
L 628.098545 255.17909 
L 628.808727 252.840745 
L 629.518909 250.013499 
L 630.229091 245.316517 
L 630.939273 249.091197 
L 631.649455 250.42452 
L 632.359636 256.080887 
L 633.069818 248.784057 
L 633.78 246.77101 
L 634.490182 233.310414 
L 635.200364 236.375125 
L 635.910545 226.517904 
L 638.041091 200.77696 
L 639.461455 215.521037 
L 640.171636 208.752925 
L 640.881818 204.974423 
L 641.592 211.538587 
L 642.302182 226.613855 
L 643.722545 208.959001 
L 644.432727 190.97689 
L 645.142909 202.417851 
L 645.853091 197.05046 
L 646.563273 179.956572 
L 647.273455 183.993849 
L 647.983636 190.538057 
L 648.693818 186.412465 
L 649.404 175.916372 
L 650.824364 190.542289 
L 651.534545 187.405545 
L 652.244727 174.347265 
L 652.954909 159.013937 
L 653.665091 165.128645 
L 654.375273 165.225657 
L 655.085455 161.8451 
L 655.795636 146.482689 
L 656.505818 143.825566 
L 657.216 149.111633 
L 657.926182 159.873027 
L 658.636364 163.355883 
L 659.346545 161.141104 
L 660.056727 161.853105 
L 660.766909 173.004755 
L 661.477091 188.058387 
L 662.187273 173.208831 
L 662.897455 167.846159 
L 664.317818 145.039349 
L 665.028 153.517724 
L 665.738182 164.256272 
L 666.448364 166.017267 
L 667.158545 159.717069 
L 667.868727 162.494709 
L 668.578909 167.348828 
L 669.289091 175.426042 
L 669.999273 185.463829 
L 670.709455 182.698494 
L 671.419636 172.896422 
L 672.129818 184.28421 
L 672.84 188.590737 
L 673.550182 191.099328 
L 674.260364 199.914254 
L 676.390909 171.418274 
L 677.101091 163.37231 
L 677.811273 165.132318 
L 678.521455 176.93466 
L 679.231636 175.191398 
L 679.941818 159.641233 
L 681.362182 171.942932 
L 682.072364 181.922245 
L 682.782545 183.190615 
L 683.492727 199.966727 
L 684.202909 203.452221 
L 684.913091 192.256671 
L 685.623273 189.934595 
L 686.333455 187.227979 
L 687.043636 192.555775 
L 687.753818 186.114366 
L 688.464 184.616439 
L 689.174182 176.077159 
L 689.884364 169.264958 
L 690.594545 159.328493 
L 692.014909 174.446616 
L 692.725091 175.794584 
L 693.435273 160.593838 
L 694.855636 177.233192 
L 695.565818 170.623839 
L 696.276 186.43735 
L 696.986182 193.398927 
L 697.696364 191.741969 
L 698.406545 201.15225 
L 699.116727 182.93895 
L 699.826909 175.730482 
L 700.537091 179.365054 
L 701.247273 179.367764 
L 701.957455 186.185171 
L 702.667636 194.786964 
L 703.377818 189.421346 
L 704.088 190.92142 
L 704.798182 198.771957 
L 705.508364 209.104504 
L 706.218545 203.627327 
L 706.928727 204.545633 
L 707.638909 217.336388 
L 708.349091 219.66306 
L 709.059273 220.431467 
L 709.769455 222.616155 
L 710.479636 223.690675 
L 711.189818 222.760553 
L 711.9 217.575761 
L 712.610182 229.180836 
L 713.320364 232.105416 
L 714.030545 222.949333 
L 714.740727 202.365792 
L 715.450909 197.910474 
L 716.161091 196.46266 
L 716.871273 202.859871 
L 718.291636 232.872237 
L 719.001818 238.795302 
L 719.712 250.48567 
L 720.422182 242.153495 
L 721.132364 246.27202 
L 721.842545 251.929575 
L 723.262909 259.595368 
L 723.973091 242.049285 
L 724.683273 240.17304 
L 725.393455 239.359498 
L 726.103636 244.704366 
L 726.813818 245.540332 
L 727.524 267.603279 
L 728.234182 270.559533 
L 728.944364 261.179042 
L 730.364727 254.227906 
L 731.074909 236.581241 
L 731.785091 232.831526 
L 732.495273 243.07237 
L 733.205455 257.761702 
L 733.915636 259.562635 
L 734.625818 241.263381 
L 735.336 233.16376 
L 736.046182 247.403694 
L 736.756364 252.548057 
L 737.466545 253.22154 
L 738.176727 265.313436 
L 738.886909 250.120411 
L 739.597091 246.263548 
L 740.307273 245.520503 
L 741.017455 248.621149 
L 741.727636 249.039752 
L 742.437818 256.764526 
L 743.148 265.848816 
L 743.858182 260.609019 
L 744.568364 252.630473 
L 745.278545 251.775523 
L 746.698909 240.238624 
L 747.409091 251.732549 
L 748.119273 251.54933 
L 748.829455 257.077523 
L 749.539636 255.898339 
L 750.249818 258.163076 
L 750.96 250.469805 
L 751.670182 251.537845 
L 752.380364 246.835237 
L 753.090545 239.327719 
L 753.800727 242.401654 
L 755.221091 230.780301 
L 755.931273 235.87435 
L 756.641455 245.348089 
L 757.351636 240.217484 
L 758.061818 236.43871 
L 758.772 234.228816 
L 759.482182 223.614087 
L 760.192364 232.791972 
L 760.902545 231.040068 
L 761.612727 234.671162 
L 762.322909 225.928395 
L 763.033091 227.285556 
L 763.743273 224.018383 
L 764.453455 236.671123 
L 765.163636 245.487133 
L 765.873818 234.947408 
L 766.584 235.888091 
L 767.294182 229.937356 
L 768.004364 232.428393 
L 768.714545 229.061715 
L 769.424727 228.816078 
L 770.134909 221.553489 
L 771.555273 201.954878 
L 772.265455 208.183633 
L 772.975636 203.764826 
L 773.685818 210.238566 
L 774.396 204.450478 
L 775.816364 207.292044 
L 776.526545 196.892624 
L 777.236727 191.520815 
L 777.946909 198.513177 
L 778.657091 191.285644 
L 779.367273 193.590026 
L 780.077455 178.274202 
L 780.787636 188.163507 
L 781.497818 185.709707 
L 782.208 192.278154 
L 782.918182 194.87033 
L 783.628364 177.02434 
L 784.338545 169.597184 
L 785.048727 167.657616 
L 785.758909 157.551918 
L 786.469091 153.036384 
L 787.179273 140.741863 
L 787.889455 141.855806 
L 788.599636 148.757941 
L 789.309818 151.491248 
L 790.02 154.854091 
L 790.730182 164.190684 
L 791.440364 170.110424 
L 792.150545 192.037249 
L 792.860727 190.782146 
L 793.570909 190.523005 
L 794.281091 182.484268 
L 794.991273 179.197605 
L 795.701455 168.605136 
L 796.411636 161.300782 
L 797.121818 146.215587 
L 798.542182 163.629406 
L 799.252364 167.269698 
L 799.962545 168.24263 
L 800.672727 185.669705 
L 801.382909 189.733887 
L 802.093091 197.023229 
L 802.803273 197.457875 
L 803.513455 206.461796 
L 804.223636 209.1575 
L 804.933818 214.226486 
L 805.644 208.940849 
L 806.354182 215.361609 
L 807.064364 217.535151 
L 807.774545 217.86903 
L 808.484727 215.177196 
L 809.194909 223.090319 
L 809.905091 219.200983 
L 810.615273 202.401752 
L 812.035636 189.932831 
L 812.745818 171.154371 
L 813.456 164.640021 
L 814.166182 168.068789 
L 814.876364 180.307644 
L 815.586545 168.355007 
L 816.296727 175.074064 
L 817.006909 163.921302 
L 817.717091 162.172659 
L 818.427273 174.810409 
L 819.137455 166.590292 
L 819.847636 181.166095 
L 820.557818 182.930269 
L 821.268 171.859127 
L 821.978182 154.900384 
L 822.688364 155.37483 
L 823.398545 144.741702 
L 824.108727 147.817009 
L 824.818909 144.804922 
L 825.529091 140.727656 
L 826.239273 143.099194 
L 826.949455 150.762359 
L 827.659636 147.051344 
L 828.369818 135.747389 
L 829.08 141.310308 
L 829.790182 145.736159 
L 830.500364 153.913711 
L 831.210545 152.324237 
L 831.920727 155.651629 
L 832.630909 144.148723 
L 833.341091 143.317623 
L 834.051273 149.327275 
L 834.761455 157.069302 
L 835.471636 147.187102 
L 836.181818 168.11669 
L 836.892 168.351548 
L 837.602182 164.832819 
L 838.312364 171.920856 
L 839.022545 158.227862 
L 839.732727 155.37431 
L 840.442909 155.330311 
L 841.153091 146.695246 
L 841.863273 148.937016 
L 842.573455 157.431616 
L 843.283636 162.552051 
L 843.993818 162.568169 
L 844.704 162.011166 
L 845.414182 153.643739 
L 846.124364 162.528147 
L 846.834545 169.651795 
L 847.544727 170.957114 
L 848.254909 174.935138 
L 850.385455 191.495775 
L 851.095636 196.690831 
L 851.805818 194.579381 
L 852.516 178.221975 
L 853.226182 181.028365 
L 853.936364 183.331532 
L 854.646545 163.170551 
L 855.356727 160.017245 
L 856.066909 152.869189 
L 856.777091 157.086936 
L 857.487273 144.020555 
L 858.197455 152.581119 
L 858.907636 156.711102 
L 859.617818 162.155665 
L 860.328 155.954835 
L 861.038182 158.812151 
L 861.748364 152.381762 
L 862.458545 151.281507 
L 863.878909 169.298182 
L 864.589091 166.802385 
L 865.299273 158.410899 
L 866.009455 154.941227 
L 866.719636 149.282533 
L 867.429818 158.725942 
L 868.850182 147.406045 
L 869.560364 155.47053 
L 870.270545 152.747051 
L 871.690909 141.363387 
L 871.690909 141.363387 
" clip-path="url(#p1cfffe7d8c)" style="fill: none; stroke: #ff7f0e; stroke-width: 1.5; stroke-linecap: square"/>
   </g>
   <g id="line2d_18">
    <path d="M 162.219273 369.36 
L 164.349818 369.090907 
L 165.770182 368.55146 
L 167.190545 368.576276 
L 167.900727 368.417266 
L 168.610909 367.8977 
L 169.321091 367.685138 
L 170.031273 367.632434 
L 170.741455 366.50521 
L 171.451636 365.926834 
L 172.161818 364.782294 
L 172.872 364.152062 
L 173.582182 364.141647 
L 174.292364 363.50127 
L 175.002545 363.47943 
L 175.712727 363.225273 
L 177.843273 363.189712 
L 178.553455 363.395521 
L 179.263636 363.419804 
L 179.973818 363.295586 
L 180.684 362.666091 
L 181.394182 362.579963 
L 182.104364 362.045773 
L 183.524727 362.062448 
L 187.075636 361.994571 
L 187.785818 361.992969 
L 188.496 361.024515 
L 192.046909 360.911097 
L 192.757091 360.687142 
L 193.467273 360.284769 
L 194.177455 359.023263 
L 194.887636 357.274546 
L 196.308 357.176409 
L 197.018182 356.396578 
L 197.728364 356.389718 
L 198.438545 356.217236 
L 200.569091 356.261548 
L 201.279273 356.004746 
L 201.989455 355.893547 
L 202.699636 356.110405 
L 205.540364 356.068074 
L 206.250545 355.797531 
L 207.670909 355.88119 
L 209.091273 355.631588 
L 209.801455 355.475585 
L 210.511636 354.743886 
L 211.221818 354.73943 
L 213.352364 354.26653 
L 216.193091 354.164986 
L 216.903273 354.019227 
L 217.613455 353.750803 
L 218.323636 353.719922 
L 219.033818 353.55322 
L 222.584727 353.485284 
L 223.294909 352.665734 
L 224.005091 352.541286 
L 225.425455 352.529232 
L 226.135636 352.180769 
L 228.266182 352.07337 
L 231.106909 351.966915 
L 231.817091 351.716295 
L 233.237455 351.710579 
L 233.947636 351.600173 
L 235.368 351.627097 
L 236.788364 351.238177 
L 237.498545 351.428496 
L 238.208727 351.462411 
L 239.629091 350.477879 
L 241.049455 350.426341 
L 241.759636 350.2038 
L 246.020727 350.146869 
L 247.441091 350.107098 
L 248.151273 350.055613 
L 248.861455 349.744551 
L 249.571636 349.639773 
L 250.281818 349.359138 
L 250.992 348.453029 
L 251.702182 348.384499 
L 252.412364 348.443588 
L 253.122545 347.81225 
L 253.832727 347.805436 
L 254.542909 348.003576 
L 255.253091 348.00328 
L 255.963273 347.865054 
L 256.673455 347.037314 
L 257.383636 347.031777 
L 258.093818 346.480118 
L 259.514182 346.391715 
L 260.224364 346.349662 
L 260.934545 345.96446 
L 261.644727 346.105709 
L 262.354909 346.125671 
L 263.065091 345.691256 
L 268.036364 345.635503 
L 270.166909 345.404314 
L 270.877091 345.210534 
L 271.587273 345.383875 
L 272.297455 345.016351 
L 275.138182 344.912608 
L 275.848364 344.769728 
L 277.978909 344.801719 
L 278.689091 344.658725 
L 279.399273 344.000944 
L 280.109455 343.720875 
L 280.819636 343.052635 
L 282.24 343.14839 
L 282.950182 343.029435 
L 285.080727 342.976911 
L 286.501091 342.580247 
L 287.211273 342.583662 
L 287.921455 342.426699 
L 289.341818 342.478841 
L 290.762182 342.628638 
L 291.472364 342.156844 
L 292.892727 342.037466 
L 293.602909 341.303989 
L 295.023273 341.343755 
L 295.733455 340.767097 
L 297.153818 340.931576 
L 297.864 340.859618 
L 298.574182 340.331571 
L 299.284364 340.156358 
L 299.994545 340.19402 
L 300.704727 340.025529 
L 302.835273 340.04336 
L 303.545455 339.98074 
L 304.255636 340.10287 
L 304.965818 339.064382 
L 305.676 338.353669 
L 306.386182 338.413415 
L 307.096364 338.338931 
L 307.806545 338.421731 
L 309.226909 338.330738 
L 309.937091 337.599013 
L 311.357455 336.928106 
L 314.908364 336.686466 
L 315.618545 335.905254 
L 317.038909 336.064369 
L 319.879636 335.93927 
L 320.589818 336.059898 
L 322.720364 335.795524 
L 324.140727 335.49976 
L 325.561091 335.541117 
L 326.981455 335.445446 
L 327.691636 335.58 
L 329.822182 335.505387 
L 331.242545 334.344202 
L 331.952727 334.40722 
L 332.662909 334.102996 
L 333.373091 333.976038 
L 334.083273 333.245205 
L 334.793455 333.252647 
L 335.503636 332.927899 
L 338.344364 332.844524 
L 339.054545 332.283685 
L 340.474909 332.209672 
L 341.185091 330.791412 
L 341.895273 330.732468 
L 342.605455 330.164846 
L 343.315636 329.897071 
L 344.025818 329.279679 
L 346.156364 329.263639 
L 346.866545 329.273685 
L 347.576727 329.399362 
L 348.286909 329.369817 
L 348.997091 328.970317 
L 350.417455 328.908044 
L 351.127636 329.022587 
L 351.837818 328.843097 
L 353.258182 328.9181 
L 353.968364 327.907509 
L 355.388727 327.918368 
L 356.098909 327.601066 
L 357.519273 327.642781 
L 358.229455 327.043673 
L 358.939636 326.841139 
L 359.649818 326.444984 
L 360.36 326.49561 
L 361.070182 326.005796 
L 363.910909 326.041106 
L 364.621091 325.179216 
L 365.331273 325.148812 
L 366.041455 324.626967 
L 366.751636 324.496411 
L 367.461818 323.460621 
L 368.882182 323.326483 
L 369.592364 323.491735 
L 370.302545 323.104035 
L 371.012727 323.134011 
L 372.433091 322.69715 
L 373.143273 322.726238 
L 373.853455 321.853893 
L 377.404364 321.953458 
L 378.824727 321.052906 
L 379.534909 319.609591 
L 380.955273 319.255206 
L 381.665455 319.007739 
L 383.796 318.963454 
L 384.506182 318.718342 
L 386.636727 318.738204 
L 387.346909 318.3825 
L 388.057091 318.223671 
L 389.477455 318.138448 
L 390.187636 317.618868 
L 390.897818 317.66956 
L 391.608 317.549347 
L 392.318182 317.694296 
L 393.028364 317.348235 
L 394.448727 317.218326 
L 395.158909 317.286434 
L 395.869091 317.2359 
L 396.579273 316.902889 
L 397.289455 316.152404 
L 397.999636 316.030728 
L 398.709818 315.787735 
L 400.840364 315.530533 
L 401.550545 315.535296 
L 402.260727 314.856227 
L 404.391273 314.807243 
L 410.782909 314.834058 
L 411.493091 314.785491 
L 412.203273 313.942717 
L 412.913455 313.374961 
L 413.623636 313.199276 
L 415.754182 313.052918 
L 416.464364 312.740584 
L 419.305091 312.28185 
L 420.725455 312.365628 
L 422.856 312.304756 
L 423.566182 311.882002 
L 424.276364 310.057283 
L 424.986545 310.287233 
L 427.117091 310.173676 
L 428.537455 309.744311 
L 429.247636 309.605462 
L 430.668 309.543757 
L 431.378182 309.080464 
L 432.088364 308.908967 
L 433.508727 308.910508 
L 434.218909 308.630996 
L 434.929091 308.120191 
L 435.639273 308.126269 
L 436.349455 307.628179 
L 437.059636 307.633808 
L 437.769818 307.277711 
L 438.48 307.397814 
L 439.190182 307.371945 
L 439.900364 307.228112 
L 440.610545 306.759476 
L 444.161455 306.663159 
L 445.581818 306.557389 
L 446.292 305.926083 
L 448.422545 305.834974 
L 451.263273 305.654978 
L 451.973455 305.777643 
L 452.683636 305.102277 
L 453.393818 305.052197 
L 454.104 305.289818 
L 454.814182 305.304619 
L 455.524364 304.401082 
L 456.234545 304.310842 
L 456.944727 304.404837 
L 458.365091 304.124294 
L 459.075273 303.836495 
L 459.785455 303.786217 
L 460.495636 303.611013 
L 463.336364 303.701685 
L 465.466909 303.79444 
L 466.177091 303.733733 
L 466.887273 303.341801 
L 467.597455 303.356977 
L 468.307636 302.992988 
L 469.017818 301.660126 
L 469.728 301.661612 
L 470.438182 301.461559 
L 471.148364 300.881682 
L 471.858545 301.003153 
L 472.568727 300.931074 
L 473.278909 300.702653 
L 473.989091 300.108074 
L 474.699273 299.133373 
L 477.54 298.953712 
L 478.960364 298.503553 
L 480.380727 298.384237 
L 481.090909 298.373002 
L 483.221455 297.587833 
L 483.931636 297.627687 
L 484.641818 296.480421 
L 486.062182 296.40903 
L 486.772364 295.622507 
L 488.192727 295.734842 
L 488.902909 295.794749 
L 490.323273 295.761244 
L 491.743636 295.826142 
L 493.164 296.161308 
L 493.874182 294.488037 
L 495.294545 294.090446 
L 496.004727 293.475332 
L 496.714909 293.393346 
L 497.425091 292.706429 
L 499.555636 292.660838 
L 500.265818 292.833857 
L 501.686182 292.624056 
L 502.396364 292.355806 
L 503.106545 292.397319 
L 503.816727 292.133059 
L 505.947273 291.841496 
L 507.367636 291.411998 
L 508.077818 290.477747 
L 508.788 290.599545 
L 509.498182 290.186752 
L 510.918545 290.20745 
L 512.338909 290.031455 
L 513.049091 289.390947 
L 515.179636 289.364111 
L 515.889818 289.215638 
L 518.020364 289.105292 
L 518.730545 288.762019 
L 519.440727 288.921358 
L 520.861091 288.722451 
L 521.571273 288.36761 
L 522.991636 288.340966 
L 523.701818 287.384404 
L 525.122182 287.293738 
L 525.832364 287.11191 
L 526.542545 287.242839 
L 527.252727 286.81364 
L 527.962909 286.652459 
L 528.673091 286.25202 
L 529.383273 285.684826 
L 535.064727 285.548102 
L 535.774909 285.060416 
L 537.905455 284.753931 
L 538.615636 284.991693 
L 539.325818 284.710824 
L 540.036 283.974938 
L 542.166545 283.883597 
L 543.586909 283.769471 
L 544.297091 281.629904 
L 545.007273 281.534464 
L 545.717455 281.759084 
L 546.427636 281.67414 
L 547.137818 281.285516 
L 547.848 281.21424 
L 548.558182 281.322698 
L 550.688727 281.24532 
L 551.398909 280.53644 
L 553.529455 279.906623 
L 554.949818 279.962635 
L 555.66 279.701504 
L 557.080364 278.382457 
L 557.790545 278.284147 
L 558.500727 278.041663 
L 559.921091 276.526885 
L 560.631273 276.508925 
L 561.341455 276.270777 
L 562.051636 276.276776 
L 562.761818 275.071914 
L 564.182182 275.124406 
L 565.602545 275.196491 
L 566.312727 275.113225 
L 567.022909 274.703923 
L 567.733091 274.012842 
L 568.443273 274.091676 
L 569.153455 274.327778 
L 569.863636 273.66537 
L 570.573818 273.248833 
L 571.284 273.271823 
L 571.994182 272.540181 
L 572.704364 272.606902 
L 575.545091 272.386971 
L 576.965455 272.399632 
L 577.675636 271.807684 
L 578.385818 271.735319 
L 579.096 271.476955 
L 579.806182 271.427257 
L 580.516364 271.223181 
L 581.226545 271.16072 
L 581.936727 270.286429 
L 584.067273 270.299675 
L 584.777455 269.445749 
L 586.197818 268.568309 
L 587.618182 268.484831 
L 588.328364 267.855987 
L 590.458909 267.80786 
L 592.589455 267.397592 
L 593.299636 267.179394 
L 594.009818 267.247116 
L 595.430182 267.143446 
L 597.560727 267.15676 
L 598.270909 267.148695 
L 599.691273 266.598341 
L 600.401455 266.482396 
L 601.111636 265.657034 
L 601.821818 265.42589 
L 602.532 265.363102 
L 603.242182 265.041152 
L 603.952364 265.048059 
L 604.662545 264.767575 
L 605.372727 264.75041 
L 606.082909 264.506169 
L 606.793091 264.101429 
L 608.213455 264.106344 
L 608.923636 263.464719 
L 609.633818 263.416262 
L 610.344 263.247031 
L 611.054182 262.756046 
L 611.764364 262.635982 
L 612.474545 261.932213 
L 613.184727 261.962114 
L 613.894909 261.643376 
L 616.025455 261.734237 
L 616.735636 261.649765 
L 617.445818 261.873631 
L 618.866182 261.854198 
L 619.576364 261.744815 
L 621.706909 261.821316 
L 622.417091 261.650289 
L 623.837455 261.657209 
L 624.547636 261.361495 
L 625.257818 259.804271 
L 626.678182 259.643012 
L 627.388364 259.679839 
L 628.098545 257.992938 
L 633.78 257.731429 
L 634.490182 257.547291 
L 635.200364 257.556413 
L 635.910545 257.278861 
L 636.620727 257.452788 
L 637.330909 257.418441 
L 639.461455 256.760783 
L 640.171636 256.813775 
L 641.592 256.743256 
L 642.302182 255.843385 
L 643.012364 255.449525 
L 643.722545 255.448211 
L 644.432727 254.406637 
L 645.142909 253.893406 
L 645.853091 253.619806 
L 646.563273 253.158641 
L 647.273455 253.234236 
L 647.983636 252.83325 
L 648.693818 252.845819 
L 649.404 252.70243 
L 650.824364 252.251669 
L 652.244727 251.961035 
L 652.954909 251.404149 
L 653.665091 251.526792 
L 655.085455 251.452695 
L 655.795636 250.740821 
L 656.505818 250.744293 
L 657.926182 250.305588 
L 660.056727 250.234457 
L 660.766909 249.678008 
L 661.477091 249.408424 
L 662.187273 248.581709 
L 662.897455 248.710127 
L 664.317818 247.749991 
L 665.028 247.611109 
L 665.738182 247.001395 
L 669.289091 246.774903 
L 669.999273 246.317266 
L 670.709455 246.321299 
L 671.419636 246.603919 
L 672.129818 246.070757 
L 673.550182 246.046757 
L 674.260364 245.524747 
L 674.970545 245.3814 
L 675.680727 245.440401 
L 677.101091 244.706049 
L 677.811273 244.692521 
L 678.521455 244.305145 
L 679.231636 244.288912 
L 679.941818 243.752745 
L 680.652 244.122211 
L 681.362182 244.141884 
L 682.072364 243.76296 
L 682.782545 243.774448 
L 683.492727 243.314735 
L 684.202909 243.272106 
L 684.913091 243.707591 
L 686.333455 243.721123 
L 687.043636 243.992578 
L 687.753818 243.843762 
L 688.464 243.834279 
L 689.174182 243.330364 
L 691.304727 243.08515 
L 692.014909 242.543344 
L 692.725091 242.545236 
L 693.435273 241.831377 
L 694.145455 241.37927 
L 695.565818 241.012539 
L 696.276 239.815152 
L 696.986182 240.160349 
L 697.696364 240.156337 
L 698.406545 239.914295 
L 699.116727 239.071044 
L 704.088 238.923129 
L 704.798182 238.761348 
L 705.508364 238.267132 
L 706.928727 238.189721 
L 707.638909 237.485938 
L 709.059273 237.529093 
L 709.769455 237.420843 
L 711.189818 237.440428 
L 711.9 237.261727 
L 712.610182 236.875512 
L 714.030545 236.644677 
L 714.740727 235.77888 
L 715.450909 235.61913 
L 716.871273 235.573319 
L 718.291636 234.417226 
L 719.712 233.950536 
L 720.422182 233.656192 
L 721.132364 233.6251 
L 721.842545 233.777548 
L 723.262909 233.661495 
L 723.973091 232.323514 
L 726.103636 232.334172 
L 726.813818 232.351414 
L 727.524 231.281154 
L 728.944364 231.216927 
L 730.364727 231.09963 
L 731.074909 230.090628 
L 732.495273 230.349423 
L 733.205455 229.94248 
L 733.915636 229.923615 
L 734.625818 229.025996 
L 735.336 228.786389 
L 736.046182 228.176157 
L 736.756364 228.016107 
L 738.176727 227.97696 
L 738.886909 227.199525 
L 740.307273 227.108139 
L 742.437818 226.859956 
L 743.858182 226.459328 
L 745.988727 226.307538 
L 746.698909 226.169929 
L 747.409091 225.885266 
L 748.119273 225.885727 
L 748.829455 225.675032 
L 750.249818 225.681727 
L 750.96 225.564991 
L 751.670182 225.60013 
L 754.510909 225.273381 
L 755.221091 225.487638 
L 758.772 225.416957 
L 759.482182 224.96744 
L 763.033091 225.024475 
L 763.743273 225.119477 
L 764.453455 224.578406 
L 765.163636 224.574026 
L 765.873818 223.897488 
L 767.294182 223.905723 
L 768.714545 223.799981 
L 769.424727 223.803716 
L 770.134909 224.004667 
L 770.845091 223.772704 
L 771.555273 223.750829 
L 772.265455 223.581869 
L 774.396 223.566304 
L 777.236727 223.381006 
L 777.946909 223.207255 
L 778.657091 222.872417 
L 779.367273 222.902787 
L 780.077455 222.491333 
L 780.787636 221.794998 
L 781.497818 221.81223 
L 782.208 221.661115 
L 782.918182 221.688959 
L 783.628364 221.322528 
L 784.338545 221.517368 
L 785.048727 221.510132 
L 785.758909 221.271785 
L 786.469091 221.169818 
L 787.179273 220.54808 
L 787.889455 220.528695 
L 788.599636 220.298108 
L 790.730182 220.103335 
L 791.440364 219.955266 
L 792.150545 218.383417 
L 793.570909 218.388278 
L 794.281091 218.057339 
L 794.991273 218.069474 
L 796.411636 217.45492 
L 797.121818 216.636996 
L 798.542182 216.290398 
L 799.252364 216.223503 
L 799.962545 216.29669 
L 800.672727 215.753698 
L 801.382909 215.739983 
L 802.093091 215.542696 
L 802.803273 215.547052 
L 804.223636 215.306762 
L 805.644 215.550621 
L 808.484727 215.411575 
L 809.194909 215.597644 
L 809.905091 215.60555 
L 810.615273 214.250197 
L 811.325455 213.813911 
L 812.035636 213.514319 
L 812.745818 212.495873 
L 814.166182 212.335964 
L 815.586545 211.463864 
L 816.296727 211.4655 
L 817.006909 210.976415 
L 817.717091 210.949099 
L 818.427273 210.307493 
L 819.137455 210.269527 
L 819.847636 209.555083 
L 820.557818 209.557716 
L 821.268 209.225885 
L 821.978182 208.455982 
L 824.818909 208.517634 
L 825.529091 208.374461 
L 826.949455 208.32368 
L 827.659636 208.194907 
L 828.369818 207.805706 
L 829.790182 207.757631 
L 830.500364 207.91925 
L 834.051273 207.752783 
L 834.761455 207.591957 
L 835.471636 207.307228 
L 836.181818 206.180509 
L 836.892 206.178385 
L 838.312364 205.726992 
L 839.022545 205.192139 
L 840.442909 205.100681 
L 841.153091 204.684595 
L 842.573455 204.581823 
L 843.283636 204.275991 
L 844.704 204.278251 
L 845.414182 203.97468 
L 846.124364 204.097544 
L 846.834545 203.783534 
L 851.805818 203.799359 
L 852.516 202.982279 
L 853.936364 202.95121 
L 854.646545 201.11357 
L 856.777091 200.724252 
L 857.487273 200.108995 
L 858.197455 199.880184 
L 859.617818 199.755182 
L 860.328 199.827087 
L 862.458545 199.482679 
L 863.878909 198.996473 
L 864.589091 199.035051 
L 865.299273 198.794198 
L 866.719636 198.724264 
L 868.14 199.234164 
L 868.850182 198.946402 
L 869.560364 198.86525 
L 871.690909 199.036821 
L 871.690909 199.036821 
" clip-path="url(#p1cfffe7d8c)" style="fill: none; stroke: #2ca02c; stroke-width: 1.5; stroke-linecap: square"/>
   </g>
   <g id="patch_3">
    <path d="M 126 384.48 
L 126 51.84 
" style="fill: none; stroke: #000000; stroke-width: 0.8; stroke-linejoin: miter; stroke-linecap: square"/>
   </g>
   <g id="patch_4">
    <path d="M 907.2 384.48 
L 907.2 51.84 
" style="fill: none; stroke: #000000; stroke-width: 0.8; stroke-linejoin: miter; stroke-linecap: square"/>
   </g>
   <g id="patch_5">
    <path d="M 126 384.48 
L 907.2 384.48 
" style="fill: none; stroke: #000000; stroke-width: 0.8; stroke-linejoin: miter; stroke-linecap: square"/>
   </g>
   <g id="patch_6">
    <path d="M 126 51.84 
L 907.2 51.84 
" style="fill: none; stroke: #000000; stroke-width: 0.8; stroke-linejoin: miter; stroke-linecap: square"/>
   </g>
   <g id="text_18">
    <!-- Quadratic Covariation of $X_t$ and $S_t$ -->
    <g transform="translate(414.54 45.84)scale(0.12 -0.12)">
     <defs>
      <path id="DejaVuSans-66" d="M 2375 4863 
L 2375 4384 
L 1825 4384 
Q 1516 4384 1395 4259 
Q 1275 4134 1275 3809 
L 1275 3500 
L 2222 3500 
L 2222 3053 
L 1275 3053 
L 1275 0 
L 697 0 
L 697 3053 
L 147 3053 
L 147 3500 
L 697 3500 
L 697 3744 
Q 697 4328 969 4595 
Q 1241 4863 1831 4863 
L 2375 4863 
z
" transform="scale(0.015625)"/>
      <path id="DejaVuSans-Oblique-58" d="M 878 4666 
L 1516 4666 
L 2316 2981 
L 3763 4666 
L 4500 4666 
L 2578 2438 
L 3738 0 
L 3103 0 
L 2163 1966 
L 459 0 
L -275 0 
L 1906 2509 
L 878 4666 
z
" transform="scale(0.015625)"/>
      <path id="DejaVuSans-Oblique-74" d="M 2706 3500 
L 2619 3053 
L 1472 3053 
L 1100 1153 
Q 1081 1047 1072 975 
Q 1063 903 1063 863 
Q 1063 663 1183 572 
Q 1303 481 1569 481 
L 2150 481 
L 2053 0 
L 1503 0 
Q 991 0 739 200 
Q 488 400 488 806 
Q 488 878 497 964 
Q 506 1050 525 1153 
L 897 3053 
L 409 3053 
L 500 3500 
L 978 3500 
L 1172 4494 
L 1747 4494 
L 1556 3500 
L 2706 3500 
z
" transform="scale(0.015625)"/>
      <path id="DejaVuSans-Oblique-53" d="M 3859 4513 
L 3738 3897 
Q 3422 4066 3111 4152 
Q 2800 4238 2509 4238 
Q 1944 4238 1609 3991 
Q 1275 3744 1275 3334 
Q 1275 3109 1398 2989 
Q 1522 2869 2034 2731 
L 2413 2638 
Q 3053 2472 3303 2217 
Q 3553 1963 3553 1503 
Q 3553 797 2998 353 
Q 2444 -91 1538 -91 
Q 1166 -91 791 -17 
Q 416 56 38 206 
L 166 856 
Q 513 641 861 531 
Q 1209 422 1556 422 
Q 2147 422 2503 684 
Q 2859 947 2859 1369 
Q 2859 1650 2717 1795 
Q 2575 1941 2106 2059 
L 1728 2156 
Q 1081 2325 845 2545 
Q 609 2766 609 3163 
Q 609 3859 1145 4304 
Q 1681 4750 2541 4750 
Q 2875 4750 3203 4690 
Q 3531 4631 3859 4513 
z
" transform="scale(0.015625)"/>
     </defs>
     <use xlink:href="#DejaVuSans-51" transform="translate(0 0.015625)"/>
     <use xlink:href="#DejaVuSans-75" transform="translate(78.710938 0.015625)"/>
     <use xlink:href="#DejaVuSans-61" transform="translate(142.089844 0.015625)"/>
     <use xlink:href="#DejaVuSans-64" transform="translate(203.369141 0.015625)"/>
     <use xlink:href="#DejaVuSans-72" transform="translate(266.845703 0.015625)"/>
     <use xlink:href="#DejaVuSans-61" transform="translate(307.958984 0.015625)"/>
     <use xlink:href="#DejaVuSans-74" transform="translate(369.238281 0.015625)"/>
     <use xlink:href="#DejaVuSans-69" transform="translate(408.447266 0.015625)"/>
     <use xlink:href="#DejaVuSans-63" transform="translate(436.230469 0.015625)"/>
     <use xlink:href="#DejaVuSans-20" transform="translate(491.210938 0.015625)"/>
     <use xlink:href="#DejaVuSans-43" transform="translate(522.998047 0.015625)"/>
     <use xlink:href="#DejaVuSans-6f" transform="translate(592.822266 0.015625)"/>
     <use xlink:href="#DejaVuSans-76" transform="translate(654.003906 0.015625)"/>
     <use xlink:href="#DejaVuSans-61" transform="translate(713.183594 0.015625)"/>
     <use xlink:href="#DejaVuSans-72" transform="translate(774.462891 0.015625)"/>
     <use xlink:href="#DejaVuSans-69" transform="translate(815.576172 0.015625)"/>
     <use xlink:href="#DejaVuSans-61" transform="translate(843.359375 0.015625)"/>
     <use xlink:href="#DejaVuSans-74" transform="translate(904.638672 0.015625)"/>
     <use xlink:href="#DejaVuSans-69" transform="translate(943.847656 0.015625)"/>
     <use xlink:href="#DejaVuSans-6f" transform="translate(971.630859 0.015625)"/>
     <use xlink:href="#DejaVuSans-6e" transform="translate(1032.8125 0.015625)"/>
     <use xlink:href="#DejaVuSans-20" transform="translate(1096.191406 0.015625)"/>
     <use xlink:href="#DejaVuSans-6f" transform="translate(1127.978516 0.015625)"/>
     <use xlink:href="#DejaVuSans-66" transform="translate(1189.160156 0.015625)"/>
     <use xlink:href="#DejaVuSans-20" transform="translate(1224.365234 0.015625)"/>
     <use xlink:href="#DejaVuSans-Oblique-58" transform="translate(1256.152344 0.015625)"/>
     <use xlink:href="#DejaVuSans-Oblique-74" transform="translate(1324.658203 -16.390625)scale(0.7)"/>
     <use xlink:href="#DejaVuSans-20" transform="translate(1354.838867 0.015625)"/>
     <use xlink:href="#DejaVuSans-61" transform="translate(1386.625977 0.015625)"/>
     <use xlink:href="#DejaVuSans-6e" transform="translate(1447.905273 0.015625)"/>
     <use xlink:href="#DejaVuSans-64" transform="translate(1511.28418 0.015625)"/>
     <use xlink:href="#DejaVuSans-20" transform="translate(1574.760742 0.015625)"/>
     <use xlink:href="#DejaVuSans-Oblique-53" transform="translate(1606.547852 0.015625)"/>
     <use xlink:href="#DejaVuSans-Oblique-74" transform="translate(1670.024414 -16.390625)scale(0.7)"/>
    </g>
   </g>
   <g id="legend_1">
    <g id="patch_7">
     <path d="M 698.1 379.48 
L 900.2 379.48 
Q 902.2 379.48 902.2 377.48 
L 902.2 334.445625 
Q 902.2 332.445625 900.2 332.445625 
L 698.1 332.445625 
Q 696.1 332.445625 696.1 334.445625 
L 696.1 377.48 
Q 696.1 379.48 698.1 379.48 
z
" style="fill: #ffffff; opacity: 0.8; stroke: #cccccc; stroke-linejoin: miter"/>
    </g>
    <g id="line2d_19">
     <path d="M 700.1 340.544062 
L 710.1 340.544062 
L 720.1 340.544062 
" style="fill: none; stroke: #1f77b4; stroke-width: 1.5; stroke-linecap: square"/>
    </g>
    <g id="text_19">
     <!-- $X_t$ -->
     <g transform="translate(728.1 344.044062)scale(0.1 -0.1)">
      <use xlink:href="#DejaVuSans-Oblique-58" transform="translate(0 0.09375)"/>
      <use xlink:href="#DejaVuSans-Oblique-74" transform="translate(68.505859 -16.3125)scale(0.7)"/>
     </g>
    </g>
    <g id="line2d_20">
     <path d="M 700.1 355.222188 
L 710.1 355.222188 
L 720.1 355.222188 
" style="fill: none; stroke: #ff7f0e; stroke-width: 1.5; stroke-linecap: square"/>
    </g>
    <g id="text_20">
     <!-- $S_t$ -->
     <g transform="translate(728.1 358.722188)scale(0.1 -0.1)">
      <use xlink:href="#DejaVuSans-Oblique-53" transform="translate(0 0.78125)"/>
      <use xlink:href="#DejaVuSans-Oblique-74" transform="translate(63.476562 -15.625)scale(0.7)"/>
     </g>
    </g>
    <g id="line2d_21">
     <path d="M 700.1 369.900312 
L 710.1 369.900312 
L 720.1 369.900312 
" style="fill: none; stroke: #2ca02c; stroke-width: 1.5; stroke-linecap: square"/>
    </g>
    <g id="text_21">
     <!-- Quadratic Covariation of $X_t$ and $S_t$ -->
     <g transform="translate(728.1 373.400312)scale(0.1 -0.1)">
      <use xlink:href="#DejaVuSans-51" transform="translate(0 0.015625)"/>
      <use xlink:href="#DejaVuSans-75" transform="translate(78.710938 0.015625)"/>
      <use xlink:href="#DejaVuSans-61" transform="translate(142.089844 0.015625)"/>
      <use xlink:href="#DejaVuSans-64" transform="translate(203.369141 0.015625)"/>
      <use xlink:href="#DejaVuSans-72" transform="translate(266.845703 0.015625)"/>
      <use xlink:href="#DejaVuSans-61" transform="translate(307.958984 0.015625)"/>
      <use xlink:href="#DejaVuSans-74" transform="translate(369.238281 0.015625)"/>
      <use xlink:href="#DejaVuSans-69" transform="translate(408.447266 0.015625)"/>
      <use xlink:href="#DejaVuSans-63" transform="translate(436.230469 0.015625)"/>
      <use xlink:href="#DejaVuSans-20" transform="translate(491.210938 0.015625)"/>
      <use xlink:href="#DejaVuSans-43" transform="translate(522.998047 0.015625)"/>
      <use xlink:href="#DejaVuSans-6f" transform="translate(592.822266 0.015625)"/>
      <use xlink:href="#DejaVuSans-76" transform="translate(654.003906 0.015625)"/>
      <use xlink:href="#DejaVuSans-61" transform="translate(713.183594 0.015625)"/>
      <use xlink:href="#DejaVuSans-72" transform="translate(774.462891 0.015625)"/>
      <use xlink:href="#DejaVuSans-69" transform="translate(815.576172 0.015625)"/>
      <use xlink:href="#DejaVuSans-61" transform="translate(843.359375 0.015625)"/>
      <use xlink:href="#DejaVuSans-74" transform="translate(904.638672 0.015625)"/>
      <use xlink:href="#DejaVuSans-69" transform="translate(943.847656 0.015625)"/>
      <use xlink:href="#DejaVuSans-6f" transform="translate(971.630859 0.015625)"/>
      <use xlink:href="#DejaVuSans-6e" transform="translate(1032.8125 0.015625)"/>
      <use xlink:href="#DejaVuSans-20" transform="translate(1096.191406 0.015625)"/>
      <use xlink:href="#DejaVuSans-6f" transform="translate(1127.978516 0.015625)"/>
      <use xlink:href="#DejaVuSans-66" transform="translate(1189.160156 0.015625)"/>
      <use xlink:href="#DejaVuSans-20" transform="translate(1224.365234 0.015625)"/>
      <use xlink:href="#DejaVuSans-Oblique-58" transform="translate(1256.152344 0.015625)"/>
      <use xlink:href="#DejaVuSans-Oblique-74" transform="translate(1324.658203 -16.390625)scale(0.7)"/>
      <use xlink:href="#DejaVuSans-20" transform="translate(1354.838867 0.015625)"/>
      <use xlink:href="#DejaVuSans-61" transform="translate(1386.625977 0.015625)"/>
      <use xlink:href="#DejaVuSans-6e" transform="translate(1447.905273 0.015625)"/>
      <use xlink:href="#DejaVuSans-64" transform="translate(1511.28418 0.015625)"/>
      <use xlink:href="#DejaVuSans-20" transform="translate(1574.760742 0.015625)"/>
      <use xlink:href="#DejaVuSans-Oblique-53" transform="translate(1606.547852 0.015625)"/>
      <use xlink:href="#DejaVuSans-Oblique-74" transform="translate(1670.024414 -16.390625)scale(0.7)"/>
     </g>
    </g>
   </g>
  </g>
 </g>
 <defs>
  <clipPath id="p1cfffe7d8c">
   <rect x="126" y="51.84" width="781.2" height="332.64"/>
  </clipPath>
 </defs>
</svg>
