<?xml version="1.0" encoding="utf-8" standalone="no"?>
<!DOCTYPE svg PUBLIC "-//W3C//DTD SVG 1.1//EN"
  "http://www.w3.org/Graphics/SVG/1.1/DTD/svg11.dtd">
<svg xmlns:xlink="http://www.w3.org/1999/xlink" width="1008pt" height="432pt" viewBox="0 0 1008 432" xmlns="http://www.w3.org/2000/svg" version="1.1">
 <metadata>
  <rdf:RDF xmlns:dc="http://purl.org/dc/elements/1.1/" xmlns:cc="http://creativecommons.org/ns#" xmlns:rdf="http://www.w3.org/1999/02/22-rdf-syntax-ns#">
   <cc:Work>
    <dc:type rdf:resource="http://purl.org/dc/dcmitype/StillImage"/>
    <dc:date>2023-12-22T17:09:36.655852</dc:date>
    <dc:format>image/svg+xml</dc:format>
    <dc:creator>
     <cc:Agent>
      <dc:title>Matplotlib v3.5.2, https://matplotlib.org/</dc:title>
     </cc:Agent>
    </dc:creator>
   </cc:Work>
  </rdf:RDF>
 </metadata>
 <defs>
  <style type="text/css">*{stroke-linejoin: round; stroke-linecap: butt}</style>
 </defs>
 <g id="figure_1">
  <g id="patch_1">
   <path d="M 0 432 
L 1008 432 
L 1008 0 
L 0 0 
z
" style="fill: #ffffff"/>
  </g>
  <g id="axes_1">
   <g id="patch_2">
    <path d="M 126 384.48 
L 907.2 384.48 
L 907.2 51.84 
L 126 51.84 
z
" style="fill: #ffffff"/>
   </g>
   <g id="matplotlib.axis_1">
    <g id="xtick_1">
     <g id="line2d_1">
      <defs>
       <path id="mb8e2ebcdd9" d="M 0 0 
L 0 3.5 
" style="stroke: #000000; stroke-width: 0.8"/>
      </defs>
      <g>
       <use xlink:href="#mb8e2ebcdd9" x="161.509091" y="384.48" style="stroke: #000000; stroke-width: 0.8"/>
      </g>
     </g>
     <g id="text_1">
      <!-- 0.0 -->
      <g transform="translate(153.557528 399.078438)scale(0.1 -0.1)">
       <defs>
        <path id="DejaVuSans-30" d="M 2034 4250 
Q 1547 4250 1301 3770 
Q 1056 3291 1056 2328 
Q 1056 1369 1301 889 
Q 1547 409 2034 409 
Q 2525 409 2770 889 
Q 3016 1369 3016 2328 
Q 3016 3291 2770 3770 
Q 2525 4250 2034 4250 
z
M 2034 4750 
Q 2819 4750 3233 4129 
Q 3647 3509 3647 2328 
Q 3647 1150 3233 529 
Q 2819 -91 2034 -91 
Q 1250 -91 836 529 
Q 422 1150 422 2328 
Q 422 3509 836 4129 
Q 1250 4750 2034 4750 
z
" transform="scale(0.015625)"/>
        <path id="DejaVuSans-2e" d="M 684 794 
L 1344 794 
L 1344 0 
L 684 0 
L 684 794 
z
" transform="scale(0.015625)"/>
       </defs>
       <use xlink:href="#DejaVuSans-30"/>
       <use xlink:href="#DejaVuSans-2e" x="63.623047"/>
       <use xlink:href="#DejaVuSans-30" x="95.410156"/>
      </g>
     </g>
    </g>
    <g id="xtick_2">
     <g id="line2d_2">
      <g>
       <use xlink:href="#mb8e2ebcdd9" x="303.545455" y="384.48" style="stroke: #000000; stroke-width: 0.8"/>
      </g>
     </g>
     <g id="text_2">
      <!-- 0.2 -->
      <g transform="translate(295.593892 399.078438)scale(0.1 -0.1)">
       <defs>
        <path id="DejaVuSans-32" d="M 1228 531 
L 3431 531 
L 3431 0 
L 469 0 
L 469 531 
Q 828 903 1448 1529 
Q 2069 2156 2228 2338 
Q 2531 2678 2651 2914 
Q 2772 3150 2772 3378 
Q 2772 3750 2511 3984 
Q 2250 4219 1831 4219 
Q 1534 4219 1204 4116 
Q 875 4013 500 3803 
L 500 4441 
Q 881 4594 1212 4672 
Q 1544 4750 1819 4750 
Q 2544 4750 2975 4387 
Q 3406 4025 3406 3419 
Q 3406 3131 3298 2873 
Q 3191 2616 2906 2266 
Q 2828 2175 2409 1742 
Q 1991 1309 1228 531 
z
" transform="scale(0.015625)"/>
       </defs>
       <use xlink:href="#DejaVuSans-30"/>
       <use xlink:href="#DejaVuSans-2e" x="63.623047"/>
       <use xlink:href="#DejaVuSans-32" x="95.410156"/>
      </g>
     </g>
    </g>
    <g id="xtick_3">
     <g id="line2d_3">
      <g>
       <use xlink:href="#mb8e2ebcdd9" x="445.581818" y="384.48" style="stroke: #000000; stroke-width: 0.8"/>
      </g>
     </g>
     <g id="text_3">
      <!-- 0.4 -->
      <g transform="translate(437.630256 399.078438)scale(0.1 -0.1)">
       <defs>
        <path id="DejaVuSans-34" d="M 2419 4116 
L 825 1625 
L 2419 1625 
L 2419 4116 
z
M 2253 4666 
L 3047 4666 
L 3047 1625 
L 3713 1625 
L 3713 1100 
L 3047 1100 
L 3047 0 
L 2419 0 
L 2419 1100 
L 313 1100 
L 313 1709 
L 2253 4666 
z
" transform="scale(0.015625)"/>
       </defs>
       <use xlink:href="#DejaVuSans-30"/>
       <use xlink:href="#DejaVuSans-2e" x="63.623047"/>
       <use xlink:href="#DejaVuSans-34" x="95.410156"/>
      </g>
     </g>
    </g>
    <g id="xtick_4">
     <g id="line2d_4">
      <g>
       <use xlink:href="#mb8e2ebcdd9" x="587.618182" y="384.48" style="stroke: #000000; stroke-width: 0.8"/>
      </g>
     </g>
     <g id="text_4">
      <!-- 0.6 -->
      <g transform="translate(579.666619 399.078438)scale(0.1 -0.1)">
       <defs>
        <path id="DejaVuSans-36" d="M 2113 2584 
Q 1688 2584 1439 2293 
Q 1191 2003 1191 1497 
Q 1191 994 1439 701 
Q 1688 409 2113 409 
Q 2538 409 2786 701 
Q 3034 994 3034 1497 
Q 3034 2003 2786 2293 
Q 2538 2584 2113 2584 
z
M 3366 4563 
L 3366 3988 
Q 3128 4100 2886 4159 
Q 2644 4219 2406 4219 
Q 1781 4219 1451 3797 
Q 1122 3375 1075 2522 
Q 1259 2794 1537 2939 
Q 1816 3084 2150 3084 
Q 2853 3084 3261 2657 
Q 3669 2231 3669 1497 
Q 3669 778 3244 343 
Q 2819 -91 2113 -91 
Q 1303 -91 875 529 
Q 447 1150 447 2328 
Q 447 3434 972 4092 
Q 1497 4750 2381 4750 
Q 2619 4750 2861 4703 
Q 3103 4656 3366 4563 
z
" transform="scale(0.015625)"/>
       </defs>
       <use xlink:href="#DejaVuSans-30"/>
       <use xlink:href="#DejaVuSans-2e" x="63.623047"/>
       <use xlink:href="#DejaVuSans-36" x="95.410156"/>
      </g>
     </g>
    </g>
    <g id="xtick_5">
     <g id="line2d_5">
      <g>
       <use xlink:href="#mb8e2ebcdd9" x="729.654545" y="384.48" style="stroke: #000000; stroke-width: 0.8"/>
      </g>
     </g>
     <g id="text_5">
      <!-- 0.8 -->
      <g transform="translate(721.702983 399.078438)scale(0.1 -0.1)">
       <defs>
        <path id="DejaVuSans-38" d="M 2034 2216 
Q 1584 2216 1326 1975 
Q 1069 1734 1069 1313 
Q 1069 891 1326 650 
Q 1584 409 2034 409 
Q 2484 409 2743 651 
Q 3003 894 3003 1313 
Q 3003 1734 2745 1975 
Q 2488 2216 2034 2216 
z
M 1403 2484 
Q 997 2584 770 2862 
Q 544 3141 544 3541 
Q 544 4100 942 4425 
Q 1341 4750 2034 4750 
Q 2731 4750 3128 4425 
Q 3525 4100 3525 3541 
Q 3525 3141 3298 2862 
Q 3072 2584 2669 2484 
Q 3125 2378 3379 2068 
Q 3634 1759 3634 1313 
Q 3634 634 3220 271 
Q 2806 -91 2034 -91 
Q 1263 -91 848 271 
Q 434 634 434 1313 
Q 434 1759 690 2068 
Q 947 2378 1403 2484 
z
M 1172 3481 
Q 1172 3119 1398 2916 
Q 1625 2713 2034 2713 
Q 2441 2713 2670 2916 
Q 2900 3119 2900 3481 
Q 2900 3844 2670 4047 
Q 2441 4250 2034 4250 
Q 1625 4250 1398 4047 
Q 1172 3844 1172 3481 
z
" transform="scale(0.015625)"/>
       </defs>
       <use xlink:href="#DejaVuSans-30"/>
       <use xlink:href="#DejaVuSans-2e" x="63.623047"/>
       <use xlink:href="#DejaVuSans-38" x="95.410156"/>
      </g>
     </g>
    </g>
    <g id="xtick_6">
     <g id="line2d_6">
      <g>
       <use xlink:href="#mb8e2ebcdd9" x="871.690909" y="384.48" style="stroke: #000000; stroke-width: 0.8"/>
      </g>
     </g>
     <g id="text_6">
      <!-- 1.0 -->
      <g transform="translate(863.739347 399.078438)scale(0.1 -0.1)">
       <defs>
        <path id="DejaVuSans-31" d="M 794 531 
L 1825 531 
L 1825 4091 
L 703 3866 
L 703 4441 
L 1819 4666 
L 2450 4666 
L 2450 531 
L 3481 531 
L 3481 0 
L 794 0 
L 794 531 
z
" transform="scale(0.015625)"/>
       </defs>
       <use xlink:href="#DejaVuSans-31"/>
       <use xlink:href="#DejaVuSans-2e" x="63.623047"/>
       <use xlink:href="#DejaVuSans-30" x="95.410156"/>
      </g>
     </g>
    </g>
    <g id="text_7">
     <!-- Time -->
     <g transform="translate(504.366406 412.756563)scale(0.1 -0.1)">
      <defs>
       <path id="DejaVuSans-54" d="M -19 4666 
L 3928 4666 
L 3928 4134 
L 2272 4134 
L 2272 0 
L 1638 0 
L 1638 4134 
L -19 4134 
L -19 4666 
z
" transform="scale(0.015625)"/>
       <path id="DejaVuSans-69" d="M 603 3500 
L 1178 3500 
L 1178 0 
L 603 0 
L 603 3500 
z
M 603 4863 
L 1178 4863 
L 1178 4134 
L 603 4134 
L 603 4863 
z
" transform="scale(0.015625)"/>
       <path id="DejaVuSans-6d" d="M 3328 2828 
Q 3544 3216 3844 3400 
Q 4144 3584 4550 3584 
Q 5097 3584 5394 3201 
Q 5691 2819 5691 2113 
L 5691 0 
L 5113 0 
L 5113 2094 
Q 5113 2597 4934 2840 
Q 4756 3084 4391 3084 
Q 3944 3084 3684 2787 
Q 3425 2491 3425 1978 
L 3425 0 
L 2847 0 
L 2847 2094 
Q 2847 2600 2669 2842 
Q 2491 3084 2119 3084 
Q 1678 3084 1418 2786 
Q 1159 2488 1159 1978 
L 1159 0 
L 581 0 
L 581 3500 
L 1159 3500 
L 1159 2956 
Q 1356 3278 1631 3431 
Q 1906 3584 2284 3584 
Q 2666 3584 2933 3390 
Q 3200 3197 3328 2828 
z
" transform="scale(0.015625)"/>
       <path id="DejaVuSans-65" d="M 3597 1894 
L 3597 1613 
L 953 1613 
Q 991 1019 1311 708 
Q 1631 397 2203 397 
Q 2534 397 2845 478 
Q 3156 559 3463 722 
L 3463 178 
Q 3153 47 2828 -22 
Q 2503 -91 2169 -91 
Q 1331 -91 842 396 
Q 353 884 353 1716 
Q 353 2575 817 3079 
Q 1281 3584 2069 3584 
Q 2775 3584 3186 3129 
Q 3597 2675 3597 1894 
z
M 3022 2063 
Q 3016 2534 2758 2815 
Q 2500 3097 2075 3097 
Q 1594 3097 1305 2825 
Q 1016 2553 972 2059 
L 3022 2063 
z
" transform="scale(0.015625)"/>
      </defs>
      <use xlink:href="#DejaVuSans-54"/>
      <use xlink:href="#DejaVuSans-69" x="57.958984"/>
      <use xlink:href="#DejaVuSans-6d" x="85.742188"/>
      <use xlink:href="#DejaVuSans-65" x="183.154297"/>
     </g>
    </g>
   </g>
   <g id="matplotlib.axis_2">
    <g id="ytick_1">
     <g id="line2d_7">
      <defs>
       <path id="mbdd934986f" d="M 0 0 
L -3.5 0 
" style="stroke: #000000; stroke-width: 0.8"/>
      </defs>
      <g>
       <use xlink:href="#mbdd934986f" x="126" y="355.344318" style="stroke: #000000; stroke-width: 0.8"/>
      </g>
     </g>
     <g id="text_8">
      <!-- −0.50 -->
      <g transform="translate(88.354687 359.143536)scale(0.1 -0.1)">
       <defs>
        <path id="DejaVuSans-2212" d="M 678 2272 
L 4684 2272 
L 4684 1741 
L 678 1741 
L 678 2272 
z
" transform="scale(0.015625)"/>
        <path id="DejaVuSans-35" d="M 691 4666 
L 3169 4666 
L 3169 4134 
L 1269 4134 
L 1269 2991 
Q 1406 3038 1543 3061 
Q 1681 3084 1819 3084 
Q 2600 3084 3056 2656 
Q 3513 2228 3513 1497 
Q 3513 744 3044 326 
Q 2575 -91 1722 -91 
Q 1428 -91 1123 -41 
Q 819 9 494 109 
L 494 744 
Q 775 591 1075 516 
Q 1375 441 1709 441 
Q 2250 441 2565 725 
Q 2881 1009 2881 1497 
Q 2881 1984 2565 2268 
Q 2250 2553 1709 2553 
Q 1456 2553 1204 2497 
Q 953 2441 691 2322 
L 691 4666 
z
" transform="scale(0.015625)"/>
       </defs>
       <use xlink:href="#DejaVuSans-2212"/>
       <use xlink:href="#DejaVuSans-30" x="83.789062"/>
       <use xlink:href="#DejaVuSans-2e" x="147.412109"/>
       <use xlink:href="#DejaVuSans-35" x="179.199219"/>
       <use xlink:href="#DejaVuSans-30" x="242.822266"/>
      </g>
     </g>
    </g>
    <g id="ytick_2">
     <g id="line2d_8">
      <g>
       <use xlink:href="#mbdd934986f" x="126" y="310.02414" style="stroke: #000000; stroke-width: 0.8"/>
      </g>
     </g>
     <g id="text_9">
      <!-- −0.25 -->
      <g transform="translate(88.354687 313.823359)scale(0.1 -0.1)">
       <use xlink:href="#DejaVuSans-2212"/>
       <use xlink:href="#DejaVuSans-30" x="83.789062"/>
       <use xlink:href="#DejaVuSans-2e" x="147.412109"/>
       <use xlink:href="#DejaVuSans-32" x="179.199219"/>
       <use xlink:href="#DejaVuSans-35" x="242.822266"/>
      </g>
     </g>
    </g>
    <g id="ytick_3">
     <g id="line2d_9">
      <g>
       <use xlink:href="#mbdd934986f" x="126" y="264.703963" style="stroke: #000000; stroke-width: 0.8"/>
      </g>
     </g>
     <g id="text_10">
      <!-- 0.00 -->
      <g transform="translate(96.734375 268.503182)scale(0.1 -0.1)">
       <use xlink:href="#DejaVuSans-30"/>
       <use xlink:href="#DejaVuSans-2e" x="63.623047"/>
       <use xlink:href="#DejaVuSans-30" x="95.410156"/>
       <use xlink:href="#DejaVuSans-30" x="159.033203"/>
      </g>
     </g>
    </g>
    <g id="ytick_4">
     <g id="line2d_10">
      <g>
       <use xlink:href="#mbdd934986f" x="126" y="219.383786" style="stroke: #000000; stroke-width: 0.8"/>
      </g>
     </g>
     <g id="text_11">
      <!-- 0.25 -->
      <g transform="translate(96.734375 223.183004)scale(0.1 -0.1)">
       <use xlink:href="#DejaVuSans-30"/>
       <use xlink:href="#DejaVuSans-2e" x="63.623047"/>
       <use xlink:href="#DejaVuSans-32" x="95.410156"/>
       <use xlink:href="#DejaVuSans-35" x="159.033203"/>
      </g>
     </g>
    </g>
    <g id="ytick_5">
     <g id="line2d_11">
      <g>
       <use xlink:href="#mbdd934986f" x="126" y="174.063608" style="stroke: #000000; stroke-width: 0.8"/>
      </g>
     </g>
     <g id="text_12">
      <!-- 0.50 -->
      <g transform="translate(96.734375 177.862827)scale(0.1 -0.1)">
       <use xlink:href="#DejaVuSans-30"/>
       <use xlink:href="#DejaVuSans-2e" x="63.623047"/>
       <use xlink:href="#DejaVuSans-35" x="95.410156"/>
       <use xlink:href="#DejaVuSans-30" x="159.033203"/>
      </g>
     </g>
    </g>
    <g id="ytick_6">
     <g id="line2d_12">
      <g>
       <use xlink:href="#mbdd934986f" x="126" y="128.743431" style="stroke: #000000; stroke-width: 0.8"/>
      </g>
     </g>
     <g id="text_13">
      <!-- 0.75 -->
      <g transform="translate(96.734375 132.54265)scale(0.1 -0.1)">
       <defs>
        <path id="DejaVuSans-37" d="M 525 4666 
L 3525 4666 
L 3525 4397 
L 1831 0 
L 1172 0 
L 2766 4134 
L 525 4134 
L 525 4666 
z
" transform="scale(0.015625)"/>
       </defs>
       <use xlink:href="#DejaVuSans-30"/>
       <use xlink:href="#DejaVuSans-2e" x="63.623047"/>
       <use xlink:href="#DejaVuSans-37" x="95.410156"/>
       <use xlink:href="#DejaVuSans-35" x="159.033203"/>
      </g>
     </g>
    </g>
    <g id="ytick_7">
     <g id="line2d_13">
      <g>
       <use xlink:href="#mbdd934986f" x="126" y="83.423254" style="stroke: #000000; stroke-width: 0.8"/>
      </g>
     </g>
     <g id="text_14">
      <!-- 1.00 -->
      <g transform="translate(96.734375 87.222472)scale(0.1 -0.1)">
       <use xlink:href="#DejaVuSans-31"/>
       <use xlink:href="#DejaVuSans-2e" x="63.623047"/>
       <use xlink:href="#DejaVuSans-30" x="95.410156"/>
       <use xlink:href="#DejaVuSans-30" x="159.033203"/>
      </g>
     </g>
    </g>
    <g id="text_15">
     <!-- Quadratic Covariation -->
     <g transform="translate(82.275 272.970156)rotate(-90)scale(0.1 -0.1)">
      <defs>
       <path id="DejaVuSans-51" d="M 2522 4238 
Q 1834 4238 1429 3725 
Q 1025 3213 1025 2328 
Q 1025 1447 1429 934 
Q 1834 422 2522 422 
Q 3209 422 3611 934 
Q 4013 1447 4013 2328 
Q 4013 3213 3611 3725 
Q 3209 4238 2522 4238 
z
M 3406 84 
L 4238 -825 
L 3475 -825 
L 2784 -78 
Q 2681 -84 2626 -87 
Q 2572 -91 2522 -91 
Q 1538 -91 948 567 
Q 359 1225 359 2328 
Q 359 3434 948 4092 
Q 1538 4750 2522 4750 
Q 3503 4750 4090 4092 
Q 4678 3434 4678 2328 
Q 4678 1516 4351 937 
Q 4025 359 3406 84 
z
" transform="scale(0.015625)"/>
       <path id="DejaVuSans-75" d="M 544 1381 
L 544 3500 
L 1119 3500 
L 1119 1403 
Q 1119 906 1312 657 
Q 1506 409 1894 409 
Q 2359 409 2629 706 
Q 2900 1003 2900 1516 
L 2900 3500 
L 3475 3500 
L 3475 0 
L 2900 0 
L 2900 538 
Q 2691 219 2414 64 
Q 2138 -91 1772 -91 
Q 1169 -91 856 284 
Q 544 659 544 1381 
z
M 1991 3584 
L 1991 3584 
z
" transform="scale(0.015625)"/>
       <path id="DejaVuSans-61" d="M 2194 1759 
Q 1497 1759 1228 1600 
Q 959 1441 959 1056 
Q 959 750 1161 570 
Q 1363 391 1709 391 
Q 2188 391 2477 730 
Q 2766 1069 2766 1631 
L 2766 1759 
L 2194 1759 
z
M 3341 1997 
L 3341 0 
L 2766 0 
L 2766 531 
Q 2569 213 2275 61 
Q 1981 -91 1556 -91 
Q 1019 -91 701 211 
Q 384 513 384 1019 
Q 384 1609 779 1909 
Q 1175 2209 1959 2209 
L 2766 2209 
L 2766 2266 
Q 2766 2663 2505 2880 
Q 2244 3097 1772 3097 
Q 1472 3097 1187 3025 
Q 903 2953 641 2809 
L 641 3341 
Q 956 3463 1253 3523 
Q 1550 3584 1831 3584 
Q 2591 3584 2966 3190 
Q 3341 2797 3341 1997 
z
" transform="scale(0.015625)"/>
       <path id="DejaVuSans-64" d="M 2906 2969 
L 2906 4863 
L 3481 4863 
L 3481 0 
L 2906 0 
L 2906 525 
Q 2725 213 2448 61 
Q 2172 -91 1784 -91 
Q 1150 -91 751 415 
Q 353 922 353 1747 
Q 353 2572 751 3078 
Q 1150 3584 1784 3584 
Q 2172 3584 2448 3432 
Q 2725 3281 2906 2969 
z
M 947 1747 
Q 947 1113 1208 752 
Q 1469 391 1925 391 
Q 2381 391 2643 752 
Q 2906 1113 2906 1747 
Q 2906 2381 2643 2742 
Q 2381 3103 1925 3103 
Q 1469 3103 1208 2742 
Q 947 2381 947 1747 
z
" transform="scale(0.015625)"/>
       <path id="DejaVuSans-72" d="M 2631 2963 
Q 2534 3019 2420 3045 
Q 2306 3072 2169 3072 
Q 1681 3072 1420 2755 
Q 1159 2438 1159 1844 
L 1159 0 
L 581 0 
L 581 3500 
L 1159 3500 
L 1159 2956 
Q 1341 3275 1631 3429 
Q 1922 3584 2338 3584 
Q 2397 3584 2469 3576 
Q 2541 3569 2628 3553 
L 2631 2963 
z
" transform="scale(0.015625)"/>
       <path id="DejaVuSans-74" d="M 1172 4494 
L 1172 3500 
L 2356 3500 
L 2356 3053 
L 1172 3053 
L 1172 1153 
Q 1172 725 1289 603 
Q 1406 481 1766 481 
L 2356 481 
L 2356 0 
L 1766 0 
Q 1100 0 847 248 
Q 594 497 594 1153 
L 594 3053 
L 172 3053 
L 172 3500 
L 594 3500 
L 594 4494 
L 1172 4494 
z
" transform="scale(0.015625)"/>
       <path id="DejaVuSans-63" d="M 3122 3366 
L 3122 2828 
Q 2878 2963 2633 3030 
Q 2388 3097 2138 3097 
Q 1578 3097 1268 2742 
Q 959 2388 959 1747 
Q 959 1106 1268 751 
Q 1578 397 2138 397 
Q 2388 397 2633 464 
Q 2878 531 3122 666 
L 3122 134 
Q 2881 22 2623 -34 
Q 2366 -91 2075 -91 
Q 1284 -91 818 406 
Q 353 903 353 1747 
Q 353 2603 823 3093 
Q 1294 3584 2113 3584 
Q 2378 3584 2631 3529 
Q 2884 3475 3122 3366 
z
" transform="scale(0.015625)"/>
       <path id="DejaVuSans-20" transform="scale(0.015625)"/>
       <path id="DejaVuSans-43" d="M 4122 4306 
L 4122 3641 
Q 3803 3938 3442 4084 
Q 3081 4231 2675 4231 
Q 1875 4231 1450 3742 
Q 1025 3253 1025 2328 
Q 1025 1406 1450 917 
Q 1875 428 2675 428 
Q 3081 428 3442 575 
Q 3803 722 4122 1019 
L 4122 359 
Q 3791 134 3420 21 
Q 3050 -91 2638 -91 
Q 1578 -91 968 557 
Q 359 1206 359 2328 
Q 359 3453 968 4101 
Q 1578 4750 2638 4750 
Q 3056 4750 3426 4639 
Q 3797 4528 4122 4306 
z
" transform="scale(0.015625)"/>
       <path id="DejaVuSans-6f" d="M 1959 3097 
Q 1497 3097 1228 2736 
Q 959 2375 959 1747 
Q 959 1119 1226 758 
Q 1494 397 1959 397 
Q 2419 397 2687 759 
Q 2956 1122 2956 1747 
Q 2956 2369 2687 2733 
Q 2419 3097 1959 3097 
z
M 1959 3584 
Q 2709 3584 3137 3096 
Q 3566 2609 3566 1747 
Q 3566 888 3137 398 
Q 2709 -91 1959 -91 
Q 1206 -91 779 398 
Q 353 888 353 1747 
Q 353 2609 779 3096 
Q 1206 3584 1959 3584 
z
" transform="scale(0.015625)"/>
       <path id="DejaVuSans-76" d="M 191 3500 
L 800 3500 
L 1894 563 
L 2988 3500 
L 3597 3500 
L 2284 0 
L 1503 0 
L 191 3500 
z
" transform="scale(0.015625)"/>
       <path id="DejaVuSans-6e" d="M 3513 2113 
L 3513 0 
L 2938 0 
L 2938 2094 
Q 2938 2591 2744 2837 
Q 2550 3084 2163 3084 
Q 1697 3084 1428 2787 
Q 1159 2491 1159 1978 
L 1159 0 
L 581 0 
L 581 3500 
L 1159 3500 
L 1159 2956 
Q 1366 3272 1645 3428 
Q 1925 3584 2291 3584 
Q 2894 3584 3203 3211 
Q 3513 2838 3513 2113 
z
" transform="scale(0.015625)"/>
      </defs>
      <use xlink:href="#DejaVuSans-51"/>
      <use xlink:href="#DejaVuSans-75" x="78.710938"/>
      <use xlink:href="#DejaVuSans-61" x="142.089844"/>
      <use xlink:href="#DejaVuSans-64" x="203.369141"/>
      <use xlink:href="#DejaVuSans-72" x="266.845703"/>
      <use xlink:href="#DejaVuSans-61" x="307.958984"/>
      <use xlink:href="#DejaVuSans-74" x="369.238281"/>
      <use xlink:href="#DejaVuSans-69" x="408.447266"/>
      <use xlink:href="#DejaVuSans-63" x="436.230469"/>
      <use xlink:href="#DejaVuSans-20" x="491.210938"/>
      <use xlink:href="#DejaVuSans-43" x="522.998047"/>
      <use xlink:href="#DejaVuSans-6f" x="592.822266"/>
      <use xlink:href="#DejaVuSans-76" x="654.003906"/>
      <use xlink:href="#DejaVuSans-61" x="713.183594"/>
      <use xlink:href="#DejaVuSans-72" x="774.462891"/>
      <use xlink:href="#DejaVuSans-69" x="815.576172"/>
      <use xlink:href="#DejaVuSans-61" x="843.359375"/>
      <use xlink:href="#DejaVuSans-74" x="904.638672"/>
      <use xlink:href="#DejaVuSans-69" x="943.847656"/>
      <use xlink:href="#DejaVuSans-6f" x="971.630859"/>
      <use xlink:href="#DejaVuSans-6e" x="1032.8125"/>
     </g>
    </g>
   </g>
   <g id="line2d_14">
    <path d="M 161.509091 83.423254 
L 162.219273 74.927573 
L 162.929455 72.731857 
L 163.639636 69.798898 
L 164.349818 76.409201 
L 165.06 76.467546 
L 165.770182 84.630911 
L 166.480364 86.080805 
L 167.190545 91.705189 
L 167.900727 94.765017 
L 168.610909 90.407386 
L 169.321091 94.416183 
L 170.031273 93.103965 
L 170.741455 86.649459 
L 171.451636 92.171452 
L 172.161818 92.310053 
L 172.872 85.378875 
L 173.582182 73.35858 
L 174.292364 81.844384 
L 175.002545 83.285337 
L 175.712727 87.045782 
L 176.422909 100.179043 
L 177.133091 100.137941 
L 177.843273 103.883752 
L 178.553455 106.808241 
L 179.263636 111.503214 
L 179.973818 105.488639 
L 180.684 105.007603 
L 181.394182 103.846364 
L 182.104364 95.455348 
L 182.814545 92.924131 
L 183.524727 91.549628 
L 184.234909 89.41588 
L 184.945091 95.042871 
L 185.655273 93.908586 
L 186.365455 88.02134 
L 187.075636 90.763559 
L 187.785818 100.21185 
L 188.496 98.06509 
L 189.206182 97.652304 
L 189.916364 86.564067 
L 190.626545 85.786888 
L 191.336727 84.622451 
L 192.046909 79.476021 
L 192.757091 70.818338 
L 193.467273 70.357612 
L 194.177455 71.322012 
L 194.887636 79.124338 
L 195.597818 84.372105 
L 196.308 86.348459 
L 197.018182 86.757173 
L 197.728364 90.297664 
L 198.438545 87.798838 
L 199.148727 89.142715 
L 199.858909 77.888509 
L 200.569091 76.868434 
L 201.279273 81.952088 
L 201.989455 81.868023 
L 202.699636 79.052929 
L 203.409818 72.387184 
L 204.12 73.880014 
L 204.830182 74.335734 
L 205.540364 77.798203 
L 206.250545 73.717681 
L 206.960727 74.112859 
L 207.670909 74.918193 
L 208.381091 77.752102 
L 209.091273 77.758164 
L 209.801455 79.820306 
L 210.511636 74.41959 
L 211.221818 72.227312 
L 211.932 86.910122 
L 212.642182 91.506848 
L 213.352364 92.83903 
L 214.062545 96.37721 
L 214.772727 98.954582 
L 215.482909 106.150438 
L 216.193091 105.751188 
L 216.903273 110.699583 
L 217.613455 119.06733 
L 218.323636 124.744729 
L 219.033818 128.013678 
L 220.454182 142.419569 
L 221.164364 136.087578 
L 221.874545 140.62645 
L 222.584727 148.015743 
L 223.294909 145.732221 
L 224.005091 152.632573 
L 224.715273 154.396938 
L 225.425455 146.950393 
L 226.845818 156.539086 
L 227.556 150.260373 
L 228.266182 150.029534 
L 228.976364 152.44399 
L 229.686545 148.079478 
L 230.396727 164.9232 
L 231.106909 166.708295 
L 231.817091 175.186078 
L 233.237455 178.462179 
L 233.947636 175.429307 
L 234.657818 182.503207 
L 235.368 172.939424 
L 236.078182 187.624052 
L 236.788364 188.703119 
L 237.498545 202.375473 
L 238.208727 200.798026 
L 238.918909 205.103273 
L 239.629091 207.869437 
L 240.339273 207.098483 
L 241.049455 207.36852 
L 241.759636 209.13595 
L 242.469818 216.268806 
L 243.18 205.813934 
L 243.890182 217.277585 
L 244.600364 216.690694 
L 245.310545 211.983187 
L 246.020727 208.21641 
L 246.730909 216.216395 
L 247.441091 213.113339 
L 248.151273 205.839715 
L 248.861455 204.292392 
L 249.571636 201.604264 
L 250.281818 200.441358 
L 251.702182 209.580565 
L 252.412364 194.81703 
L 253.122545 199.760324 
L 253.832727 198.052577 
L 254.542909 190.635434 
L 255.253091 193.706233 
L 255.963273 197.374872 
L 256.673455 195.186872 
L 257.383636 202.547422 
L 258.093818 201.440874 
L 258.804 207.329327 
L 259.514182 209.950314 
L 260.224364 218.91645 
L 260.934545 220.015992 
L 262.354909 217.594016 
L 263.775273 199.22225 
L 264.485455 203.322547 
L 265.195636 206.356738 
L 265.905818 210.389437 
L 266.616 210.496741 
L 268.036364 203.7793 
L 268.746545 201.59618 
L 269.456727 201.033289 
L 270.166909 198.152184 
L 270.877091 192.273192 
L 271.587273 188.804799 
L 272.297455 188.66095 
L 273.007636 190.282789 
L 273.717818 189.238721 
L 274.428 202.294792 
L 275.138182 208.781412 
L 275.848364 204.703116 
L 276.558545 190.795169 
L 277.268727 189.416902 
L 277.978909 188.353224 
L 278.689091 188.990313 
L 279.399273 192.07612 
L 280.109455 187.434462 
L 280.819636 191.038879 
L 281.529818 187.722211 
L 282.24 186.673968 
L 282.950182 188.969757 
L 283.660364 194.316804 
L 284.370545 193.372102 
L 285.080727 188.182243 
L 285.790909 188.625158 
L 286.501091 182.308543 
L 287.211273 180.996409 
L 287.921455 184.230312 
L 288.631636 190.796426 
L 289.341818 193.13842 
L 290.052 192.415276 
L 290.762182 205.16851 
L 291.472364 204.650194 
L 292.182545 196.143369 
L 292.892727 196.814691 
L 293.602909 190.179233 
L 294.313091 189.020411 
L 295.023273 178.914382 
L 295.733455 183.059692 
L 296.443636 190.749629 
L 297.864 191.788822 
L 298.574182 195.330807 
L 299.284364 195.480794 
L 299.994545 198.204 
L 300.704727 198.120276 
L 302.125091 191.119656 
L 302.835273 196.198965 
L 304.255636 190.124804 
L 304.965818 179.025025 
L 305.676 178.110474 
L 306.386182 178.015908 
L 307.096364 173.279643 
L 308.516727 185.964946 
L 309.226909 175.6273 
L 309.937091 174.690802 
L 310.647273 179.153725 
L 311.357455 174.751476 
L 312.067636 175.663227 
L 312.777818 173.101261 
L 313.488 172.899395 
L 314.198182 176.850127 
L 314.908364 182.981603 
L 315.618545 186.53765 
L 316.328727 182.771567 
L 317.038909 181.986438 
L 317.749091 179.811641 
L 318.459273 179.024083 
L 319.169455 180.577605 
L 319.879636 180.209452 
L 320.589818 174.516858 
L 321.3 187.034347 
L 322.010182 177.275682 
L 322.720364 181.893081 
L 323.430545 180.299787 
L 324.140727 177.308172 
L 324.850909 175.47039 
L 325.561091 176.287403 
L 326.271273 180.556568 
L 326.981455 179.834497 
L 327.691636 172.3601 
L 328.401818 174.185169 
L 329.112 170.005271 
L 329.822182 169.204396 
L 330.532364 169.343582 
L 331.242545 177.883991 
L 332.662909 173.74824 
L 333.373091 173.763507 
L 334.083273 162.369012 
L 334.793455 163.488392 
L 335.503636 165.637055 
L 336.213818 165.610684 
L 336.924 168.117387 
L 337.634182 169.602737 
L 338.344364 168.700888 
L 339.054545 165.116746 
L 339.764727 169.064785 
L 340.474909 172.09952 
L 341.185091 176.064464 
L 341.895273 173.681689 
L 342.605455 172.424594 
L 343.315636 173.187376 
L 344.025818 173.225019 
L 344.736 179.634064 
L 345.446182 177.752037 
L 346.156364 176.844405 
L 346.866545 181.712759 
L 347.576727 178.425724 
L 348.286909 187.140671 
L 348.997091 182.165662 
L 349.707273 184.856989 
L 350.417455 188.726604 
L 351.127636 189.460497 
L 351.837818 191.721256 
L 352.548 178.461754 
L 353.258182 171.38699 
L 353.968364 159.421258 
L 354.678545 159.551917 
L 355.388727 165.515328 
L 356.098909 156.626267 
L 356.809091 166.806839 
L 357.519273 168.389455 
L 358.229455 165.210439 
L 358.939636 169.992988 
L 359.649818 173.294149 
L 360.36 177.232193 
L 361.070182 170.647944 
L 361.780364 173.643587 
L 362.490545 173.291484 
L 363.200727 179.679391 
L 363.910909 163.129777 
L 364.621091 159.438514 
L 365.331273 161.083059 
L 366.041455 161.63481 
L 366.751636 150.118528 
L 367.461818 151.965509 
L 368.172 154.412844 
L 368.882182 160.863527 
L 369.592364 163.913101 
L 370.302545 169.240399 
L 371.722909 181.315159 
L 372.433091 186.797474 
L 373.143273 187.999301 
L 373.853455 185.72359 
L 375.273818 187.759341 
L 375.984 179.985683 
L 376.694182 166.116215 
L 378.114545 175.60268 
L 378.824727 174.961088 
L 379.534909 189.892327 
L 380.245091 182.005467 
L 380.955273 192.085351 
L 381.665455 185.770717 
L 382.375636 190.763836 
L 383.085818 202.93586 
L 383.796 208.046776 
L 384.506182 205.896621 
L 385.216364 202.861626 
L 385.926545 205.286915 
L 386.636727 205.292539 
L 387.346909 201.346027 
L 388.057091 196.030269 
L 388.767273 194.959891 
L 389.477455 191.476256 
L 390.187636 185.146152 
L 390.897818 191.509088 
L 391.608 196.21908 
L 392.318182 204.769461 
L 393.028364 205.247217 
L 393.738545 216.981675 
L 394.448727 218.988715 
L 395.158909 218.631899 
L 395.869091 226.42838 
L 396.579273 222.562604 
L 397.289455 223.793479 
L 397.999636 227.079248 
L 398.709818 231.301144 
L 399.42 240.187802 
L 400.130182 238.081119 
L 400.840364 243.025545 
L 401.550545 252.560452 
L 402.260727 241.285835 
L 403.681091 255.508659 
L 404.391273 249.226802 
L 405.101455 246.391918 
L 405.811636 249.819037 
L 406.521818 244.764616 
L 407.232 243.71482 
L 407.942182 256.243227 
L 408.652364 248.099125 
L 409.362545 243.697092 
L 410.072727 245.20459 
L 410.782909 242.388233 
L 411.493091 254.820966 
L 412.203273 255.062211 
L 412.913455 247.550358 
L 413.623636 250.787563 
L 414.333818 256.285847 
L 415.044 255.139473 
L 415.754182 260.98358 
L 416.464364 262.56268 
L 417.174545 263.289415 
L 417.884727 264.911236 
L 418.594909 270.205582 
L 419.305091 278.534335 
L 420.015273 281.625544 
L 420.725455 289.658883 
L 421.435636 285.023927 
L 422.145818 290.963264 
L 422.856 295.029024 
L 423.566182 302.04545 
L 424.276364 293.027469 
L 424.986545 289.274698 
L 425.696727 293.073687 
L 426.406909 288.10049 
L 427.117091 281.436232 
L 427.827273 273.219602 
L 428.537455 268.709711 
L 429.247636 278.933067 
L 429.957818 297.778543 
L 430.668 300.631554 
L 432.088364 314.179622 
L 432.798545 313.874506 
L 433.508727 313.885965 
L 434.218909 320.614982 
L 434.929091 321.504744 
L 435.639273 319.222093 
L 436.349455 322.158931 
L 437.059636 326.968168 
L 437.769818 337.68774 
L 438.48 328.54013 
L 439.190182 323.574893 
L 439.900364 327.759394 
L 440.610545 320.584629 
L 441.320727 319.37033 
L 442.030909 317.049342 
L 442.741091 316.942097 
L 443.451273 307.970914 
L 444.161455 309.732953 
L 444.871636 304.179395 
L 445.581818 302.506601 
L 446.292 299.123585 
L 447.002182 292.857313 
L 447.712364 298.679381 
L 448.422545 294.853716 
L 449.132727 294.294186 
L 449.842909 301.305432 
L 450.553091 314.029665 
L 451.263273 317.146189 
L 451.973455 309.286376 
L 452.683636 302.698998 
L 453.393818 304.93505 
L 454.104 303.264999 
L 454.814182 299.401146 
L 455.524364 296.749055 
L 456.234545 287.744112 
L 456.944727 283.160337 
L 457.654909 269.91273 
L 458.365091 272.197587 
L 459.075273 272.83294 
L 459.785455 270.761647 
L 460.495636 273.228323 
L 461.205818 267.238627 
L 461.916 266.812186 
L 462.626182 263.201215 
L 463.336364 261.125686 
L 464.046545 255.32811 
L 464.756727 253.695645 
L 465.466909 246.210041 
L 466.177091 241.918975 
L 466.887273 232.327006 
L 467.597455 236.374958 
L 468.307636 239.286971 
L 469.017818 228.721292 
L 469.728 231.358626 
L 470.438182 232.187123 
L 471.148364 223.924546 
L 471.858545 214.349613 
L 472.568727 219.999235 
L 473.278909 222.387178 
L 473.989091 216.215061 
L 474.699273 207.79703 
L 475.409455 208.058126 
L 476.119636 217.361329 
L 476.829818 223.897458 
L 477.54 222.363634 
L 478.250182 216.575578 
L 478.960364 234.344437 
L 479.670545 226.383171 
L 480.380727 225.059338 
L 481.090909 223.469392 
L 481.801091 230.776048 
L 482.511273 219.118791 
L 483.221455 222.584931 
L 483.931636 216.415391 
L 484.641818 216.074096 
L 485.352 230.48338 
L 486.062182 231.797404 
L 486.772364 231.548585 
L 487.482545 222.852728 
L 488.192727 226.150309 
L 488.902909 221.369702 
L 489.613091 220.554729 
L 491.033455 225.435639 
L 491.743636 224.267285 
L 492.453818 228.449721 
L 493.164 224.173489 
L 493.874182 230.772657 
L 494.584364 219.574584 
L 495.294545 213.518636 
L 496.004727 214.399835 
L 496.714909 216.282157 
L 497.425091 213.578861 
L 498.135273 217.360785 
L 498.845455 217.123339 
L 499.555636 219.763587 
L 500.265818 217.314496 
L 500.976 218.410239 
L 501.686182 223.819032 
L 502.396364 230.581483 
L 503.106545 239.162994 
L 503.816727 241.251621 
L 504.526909 241.930277 
L 505.237091 241.151241 
L 505.947273 237.634735 
L 506.657455 234.869685 
L 507.367636 238.122975 
L 508.077818 244.637377 
L 508.788 241.340504 
L 509.498182 243.536612 
L 510.208364 251.502809 
L 510.918545 248.337084 
L 511.628727 248.480934 
L 512.338909 249.288091 
L 513.049091 244.98799 
L 513.759273 245.256367 
L 514.469455 247.646599 
L 515.179636 249.572125 
L 515.889818 239.959387 
L 516.6 233.549126 
L 517.310182 221.554916 
L 518.020364 212.347874 
L 518.730545 218.70163 
L 519.440727 218.616951 
L 520.150909 220.15769 
L 520.861091 216.005643 
L 521.571273 223.929937 
L 522.281455 217.513697 
L 522.991636 216.200927 
L 523.701818 213.5492 
L 524.412 220.644547 
L 525.122182 223.523015 
L 525.832364 236.320592 
L 526.542545 235.608708 
L 527.252727 234.66756 
L 527.962909 234.889326 
L 528.673091 226.937568 
L 529.383273 235.800486 
L 530.093455 237.791438 
L 530.803636 237.669137 
L 531.513818 232.293752 
L 532.224 236.3014 
L 532.934182 237.498018 
L 533.644364 237.096597 
L 534.354545 232.924763 
L 535.064727 233.563018 
L 535.774909 230.579361 
L 536.485091 228.624055 
L 537.195273 226.995124 
L 537.905455 220.28353 
L 538.615636 219.258841 
L 539.325818 213.454017 
L 540.036 211.566222 
L 540.746182 209.255198 
L 541.456364 211.433706 
L 542.166545 220.039305 
L 542.876727 221.377267 
L 543.586909 214.602756 
L 544.297091 209.891992 
L 545.007273 208.990341 
L 545.717455 219.856213 
L 546.427636 211.958209 
L 547.137818 211.349136 
L 547.848 217.890459 
L 548.558182 215.059372 
L 549.268364 217.1699 
L 549.978545 221.331222 
L 550.688727 212.778537 
L 551.398909 221.252358 
L 552.109091 220.180817 
L 552.819273 218.033118 
L 553.529455 226.367262 
L 554.239636 231.118741 
L 554.949818 226.378824 
L 555.66 232.509899 
L 556.370182 223.12532 
L 557.080364 231.245781 
L 557.790545 246.856323 
L 558.500727 245.114287 
L 559.210909 239.610848 
L 559.921091 232.71016 
L 560.631273 228.879695 
L 561.341455 231.108366 
L 562.051636 230.680238 
L 562.761818 234.68655 
L 563.472 242.322217 
L 564.182182 254.916545 
L 564.892364 259.492064 
L 565.602545 247.971951 
L 566.312727 245.912123 
L 567.022909 238.05773 
L 567.733091 234.404103 
L 569.153455 228.664012 
L 569.863636 225.774245 
L 570.573818 230.327378 
L 571.284 225.804907 
L 571.994182 219.347507 
L 572.704364 218.87457 
L 573.414545 229.534685 
L 574.124727 231.502223 
L 574.834909 236.712344 
L 575.545091 228.374015 
L 576.965455 237.763336 
L 577.675636 233.136955 
L 578.385818 227.634512 
L 579.096 231.409093 
L 579.806182 230.210374 
L 580.516364 230.512424 
L 581.226545 231.197268 
L 581.936727 223.288101 
L 582.646909 223.760602 
L 583.357091 214.62896 
L 584.067273 217.880505 
L 584.777455 229.868997 
L 585.487636 218.962167 
L 586.197818 227.396162 
L 586.908 239.540227 
L 587.618182 246.780891 
L 588.328364 242.856449 
L 589.038545 241.794336 
L 589.748727 225.0717 
L 590.458909 226.959786 
L 591.169091 227.681585 
L 591.879273 220.983149 
L 593.299636 225.722184 
L 594.72 237.691335 
L 595.430182 237.53122 
L 596.140364 241.955377 
L 596.850545 254.025006 
L 597.560727 261.60128 
L 598.270909 259.796684 
L 598.981091 260.244587 
L 599.691273 262.152738 
L 601.111636 256.46976 
L 601.821818 261.05326 
L 602.532 275.853071 
L 603.242182 276.97617 
L 603.952364 282.361699 
L 604.662545 270.180866 
L 605.372727 266.589348 
L 606.082909 268.240301 
L 606.793091 271.929902 
L 607.503273 268.664948 
L 608.213455 270.171554 
L 608.923636 266.846548 
L 609.633818 259.591886 
L 610.344 263.735318 
L 611.054182 256.973635 
L 611.764364 257.788614 
L 612.474545 266.393419 
L 613.184727 270.684498 
L 613.894909 271.891221 
L 614.605091 270.680949 
L 615.315273 265.568175 
L 616.025455 267.901509 
L 616.735636 264.319635 
L 617.445818 259.246466 
L 618.156 258.38653 
L 618.866182 267.331519 
L 619.576364 269.093521 
L 620.286545 261.301788 
L 620.996727 259.606396 
L 621.706909 252.747726 
L 622.417091 248.171347 
L 623.127273 248.239832 
L 623.837455 242.576551 
L 624.547636 239.690203 
L 625.257818 242.859328 
L 625.968 243.781972 
L 626.678182 241.141175 
L 627.388364 245.398139 
L 628.098545 244.237554 
L 628.808727 258.635993 
L 629.518909 261.358207 
L 630.229091 257.520758 
L 630.939273 250.792751 
L 631.649455 250.061693 
L 632.359636 259.412457 
L 633.069818 259.317042 
L 633.78 262.822676 
L 634.490182 261.539877 
L 635.200364 262.915724 
L 635.910545 257.663539 
L 636.620727 248.401265 
L 637.330909 252.111918 
L 638.041091 257.599673 
L 638.751273 254.680187 
L 639.461455 247.096234 
L 640.171636 246.973048 
L 640.881818 253.543233 
L 641.592 255.203877 
L 642.302182 246.397358 
L 643.012364 239.159018 
L 643.722545 247.998026 
L 644.432727 253.536911 
L 645.142909 257.680515 
L 645.853091 256.662321 
L 646.563273 250.633508 
L 647.273455 258.982277 
L 647.983636 252.978501 
L 648.693818 255.020611 
L 649.404 256.349812 
L 650.114182 255.290213 
L 650.824364 256.328431 
L 651.534545 257.78744 
L 653.665091 280.667098 
L 654.375273 276.23112 
L 655.085455 275.552934 
L 655.795636 275.947666 
L 657.216 286.945498 
L 657.926182 295.171698 
L 658.636364 299.128254 
L 659.346545 299.491212 
L 660.056727 300.944599 
L 660.766909 303.692614 
L 661.477091 304.961023 
L 662.187273 312.558826 
L 662.897455 317.433027 
L 663.607636 323.230666 
L 664.317818 319.967567 
L 665.028 322.698531 
L 665.738182 330.634087 
L 666.448364 319.666317 
L 667.158545 318.977317 
L 667.868727 326.270766 
L 668.578909 321.868661 
L 669.289091 328.639644 
L 669.999273 328.425251 
L 670.709455 337.482756 
L 671.419636 336.77533 
L 672.129818 340.930919 
L 672.84 347.704828 
L 673.550182 348.505739 
L 674.260364 350.370421 
L 674.970545 347.224092 
L 675.680727 341.907607 
L 676.390909 340.69027 
L 677.101091 337.479107 
L 678.521455 342.234773 
L 679.231636 346.942514 
L 679.941818 353.087394 
L 680.652 354.034088 
L 681.362182 349.67988 
L 682.072364 350.455871 
L 682.782545 342.125789 
L 683.492727 340.845117 
L 684.202909 343.477033 
L 684.913091 341.672569 
L 685.623273 345.364026 
L 686.333455 347.695244 
L 687.043636 348.60682 
L 687.753818 346.764494 
L 688.464 340.221789 
L 689.174182 339.089406 
L 689.884364 340.123354 
L 690.594545 336.569671 
L 692.014909 361.154546 
L 692.725091 362.046708 
L 694.145455 369.36 
L 695.565818 355.705169 
L 696.276 346.946159 
L 696.986182 352.963403 
L 699.116727 324.325898 
L 699.826909 321.931986 
L 700.537091 329.971263 
L 701.247273 334.397756 
L 701.957455 332.447516 
L 702.667636 328.859789 
L 703.377818 335.375159 
L 704.088 336.217184 
L 704.798182 326.413964 
L 705.508364 322.183312 
L 706.218545 329.359866 
L 706.928727 318.347148 
L 708.349091 307.813176 
L 709.059273 302.519596 
L 709.769455 293.98053 
L 711.9 313.678904 
L 712.610182 315.058393 
L 713.320364 307.631627 
L 714.030545 313.063086 
L 714.740727 305.534815 
L 715.450909 296.762023 
L 716.161091 296.252248 
L 716.871273 310.008911 
L 717.581455 312.507923 
L 718.291636 297.202367 
L 719.001818 299.514942 
L 719.712 295.907155 
L 720.422182 299.465322 
L 721.132364 296.652656 
L 721.842545 293.198542 
L 722.552727 296.710011 
L 723.262909 289.669183 
L 723.973091 304.249202 
L 724.683273 303.853916 
L 725.393455 303.724992 
L 726.103636 305.660388 
L 726.813818 306.083762 
L 727.524 300.408538 
L 728.234182 293.200454 
L 728.944364 289.49471 
L 729.654545 303.794285 
L 730.364727 305.00297 
L 731.074909 292.617436 
L 731.785091 286.57285 
L 732.495273 291.612614 
L 733.205455 299.994822 
L 733.915636 302.044812 
L 734.625818 301.143686 
L 735.336 307.973098 
L 736.046182 301.64959 
L 736.756364 296.8724 
L 737.466545 299.232406 
L 738.176727 297.713578 
L 739.597091 289.995538 
L 740.307273 283.052808 
L 741.017455 286.084328 
L 741.727636 286.414204 
L 742.437818 282.617981 
L 743.148 283.646837 
L 743.858182 269.989863 
L 744.568364 268.7317 
L 745.278545 271.463901 
L 745.988727 270.864037 
L 746.698909 273.518 
L 747.409091 269.867436 
L 748.119273 268.676861 
L 749.539636 283.932261 
L 750.249818 282.091069 
L 751.670182 279.367411 
L 752.380364 280.692937 
L 753.090545 269.383638 
L 753.800727 269.699323 
L 754.510909 267.480414 
L 755.221091 269.81511 
L 755.931273 264.950268 
L 756.641455 269.092825 
L 757.351636 271.558044 
L 758.061818 265.651151 
L 758.772 261.537861 
L 759.482182 268.060013 
L 760.192364 266.346252 
L 760.902545 268.648656 
L 761.612727 269.723111 
L 762.322909 274.374535 
L 763.033091 277.815472 
L 763.743273 270.225642 
L 764.453455 258.219336 
L 765.163636 256.49232 
L 765.873818 264.273171 
L 766.584 263.716648 
L 767.294182 259.87306 
L 768.004364 258.93907 
L 769.424727 250.630411 
L 770.134909 239.503302 
L 770.845091 237.143568 
L 771.555273 242.555145 
L 772.265455 244.009849 
L 772.975636 243.405052 
L 773.685818 248.91247 
L 774.396 243.100394 
L 775.816364 250.339207 
L 776.526545 241.217104 
L 777.236727 235.405436 
L 777.946909 238.57211 
L 778.657091 236.331641 
L 779.367273 238.793802 
L 780.077455 241.747853 
L 780.787636 238.892007 
L 781.497818 244.708587 
L 782.208 246.959863 
L 782.918182 241.20551 
L 783.628364 238.665915 
L 784.338545 243.741972 
L 785.048727 244.898896 
L 785.758909 252.819461 
L 786.469091 262.220575 
L 787.179273 262.433126 
L 787.889455 267.803038 
L 788.599636 277.511605 
L 789.309818 278.442969 
L 790.02 277.930087 
L 790.730182 280.96425 
L 791.440364 286.368417 
L 792.150545 294.583733 
L 792.860727 298.313272 
L 793.570909 298.082311 
L 794.281091 295.035987 
L 795.701455 287.362075 
L 796.411636 291.585154 
L 797.121818 293.699861 
L 797.832 301.136051 
L 799.252364 302.657239 
L 799.962545 309.515369 
L 800.672727 321.302029 
L 801.382909 316.965345 
L 802.093091 327.731143 
L 802.803273 333.330359 
L 803.513455 333.126127 
L 804.223636 326.631354 
L 805.644 339.824297 
L 806.354182 339.562715 
L 807.064364 340.002376 
L 807.774545 332.444835 
L 808.484727 333.219812 
L 809.194909 330.447207 
L 810.615273 332.678722 
L 811.325455 329.489576 
L 812.035636 324.735414 
L 812.745818 328.061566 
L 813.456 337.56475 
L 814.166182 343.787965 
L 814.876364 339.670668 
L 815.586545 338.949834 
L 816.296727 333.862715 
L 817.717091 329.402633 
L 818.427273 326.165451 
L 819.137455 327.197832 
L 819.847636 314.045629 
L 820.557818 310.154087 
L 821.268 305.300497 
L 821.978182 305.01123 
L 822.688364 311.417185 
L 823.398545 315.272634 
L 824.108727 312.903565 
L 824.818909 315.638623 
L 826.239273 304.733216 
L 826.949455 301.443012 
L 827.659636 305.317027 
L 828.369818 312.216796 
L 829.08 313.468878 
L 829.790182 310.013962 
L 830.500364 317.738397 
L 831.210545 311.837573 
L 831.920727 303.473239 
L 832.630909 310.51705 
L 833.341091 307.846902 
L 834.051273 312.882078 
L 834.761455 308.943709 
L 835.471636 306.481915 
L 836.181818 301.769916 
L 836.892 292.625771 
L 837.602182 292.377236 
L 838.312364 291.582419 
L 839.022545 293.048039 
L 839.732727 288.460767 
L 840.442909 289.346752 
L 841.153091 289.24535 
L 841.863273 287.817433 
L 842.573455 288.271209 
L 843.283636 293.192221 
L 843.993818 292.937339 
L 844.704 285.258669 
L 845.414182 287.618446 
L 846.124364 278.883273 
L 846.834545 287.736644 
L 847.544727 300.438919 
L 848.254909 297.588962 
L 848.965091 293.177842 
L 849.675273 300.482857 
L 850.385455 301.973376 
L 851.095636 297.174933 
L 852.516 278.962253 
L 853.226182 274.27081 
L 853.936364 270.647908 
L 854.646545 266.394734 
L 855.356727 263.347089 
L 857.487273 278.271997 
L 858.197455 274.925882 
L 858.907636 275.480283 
L 859.617818 291.515221 
L 860.328 281.75724 
L 861.038182 280.568649 
L 862.458545 262.374939 
L 863.168727 262.252561 
L 863.878909 269.825414 
L 864.589091 272.458362 
L 865.299273 278.866971 
L 866.009455 286.621224 
L 866.719636 290.362822 
L 867.429818 292.066243 
L 868.14 284.68902 
L 868.850182 288.618859 
L 869.560364 286.999835 
L 870.270545 291.8884 
L 870.980727 295.334 
L 871.690909 304.273556 
L 871.690909 304.273556 
" clip-path="url(#pff2847ddf2)" style="fill: none; stroke: #1f77b4; stroke-width: 1.5; stroke-linecap: square"/>
   </g>
   <g id="line2d_15">
    <path d="M 161.509091 83.423254 
L 162.219273 72.55222 
L 162.929455 66.96 
L 163.639636 69.599182 
L 164.349818 70.268511 
L 165.06 75.35549 
L 166.480364 92.542684 
L 167.190545 97.022669 
L 167.900727 97.54526 
L 168.610909 96.702958 
L 169.321091 113.051184 
L 170.031273 114.901098 
L 170.741455 106.980375 
L 171.451636 112.875918 
L 172.161818 115.309742 
L 172.872 114.791757 
L 173.582182 104.346043 
L 174.292364 115.696309 
L 175.002545 106.531899 
L 175.712727 106.744263 
L 176.422909 117.641709 
L 177.843273 124.652581 
L 178.553455 126.452915 
L 179.263636 131.891103 
L 179.973818 129.592591 
L 180.684 124.929678 
L 182.104364 111.574111 
L 182.814545 106.144973 
L 183.524727 108.888105 
L 184.234909 105.531372 
L 184.945091 118.815797 
L 185.655273 114.273205 
L 186.365455 107.844426 
L 187.075636 112.500954 
L 187.785818 120.730181 
L 188.496 109.645145 
L 189.206182 123.058428 
L 189.916364 120.314571 
L 190.626545 118.178394 
L 191.336727 113.543554 
L 192.046909 123.031921 
L 192.757091 120.046389 
L 193.467273 124.67033 
L 194.177455 133.958993 
L 194.887636 151.107889 
L 195.597818 158.24046 
L 196.308 154.509794 
L 197.018182 139.898868 
L 197.728364 136.859415 
L 198.438545 135.174509 
L 199.148727 130.319967 
L 199.858909 113.212238 
L 200.569091 112.306051 
L 201.279273 118.332048 
L 201.989455 117.035344 
L 202.699636 105.136351 
L 203.409818 101.784697 
L 204.12 100.375092 
L 204.830182 95.506478 
L 205.540364 98.537773 
L 206.250545 105.279683 
L 206.960727 106.314641 
L 207.670909 112.917557 
L 208.381091 111.667407 
L 209.091273 102.786611 
L 209.801455 99.473491 
L 210.511636 90.792958 
L 211.221818 91.960847 
L 211.932 109.155971 
L 212.642182 112.004692 
L 213.352364 107.067529 
L 214.062545 111.552201 
L 214.772727 116.812361 
L 215.482909 125.514377 
L 216.193091 125.730533 
L 216.903273 137.836045 
L 217.613455 135.661388 
L 218.323636 138.304789 
L 219.033818 144.402642 
L 219.744 157.78717 
L 220.454182 161.976099 
L 221.164364 154.647191 
L 221.874545 166.885741 
L 222.584727 173.198414 
L 223.294909 171.449906 
L 224.715273 181.608635 
L 225.425455 178.531873 
L 226.135636 192.109201 
L 226.845818 197.973252 
L 227.556 191.854867 
L 228.266182 196.360169 
L 228.976364 211.669083 
L 229.686545 212.786572 
L 230.396727 234.811582 
L 231.106909 245.960723 
L 231.817091 251.439864 
L 232.527273 250.209476 
L 233.237455 248.511739 
L 233.947636 250.921755 
L 234.657818 251.114325 
L 235.368 243.137904 
L 236.078182 262.325458 
L 236.788364 264.76554 
L 237.498545 274.560176 
L 238.208727 274.303578 
L 238.918909 282.981928 
L 240.339273 275.636162 
L 241.049455 267.969626 
L 241.759636 271.127327 
L 242.469818 267.423955 
L 243.18 262.393941 
L 243.890182 274.407105 
L 244.600364 269.3581 
L 245.310545 255.56971 
L 246.020727 257.576876 
L 246.730909 268.139524 
L 247.441091 269.162529 
L 248.151273 259.694139 
L 248.861455 264.305667 
L 249.571636 266.652944 
L 250.281818 260.787854 
L 250.992 265.592007 
L 251.702182 258.856286 
L 252.412364 242.655359 
L 253.122545 247.800995 
L 253.832727 248.94092 
L 254.542909 242.460545 
L 255.963273 259.204623 
L 256.673455 257.104198 
L 257.383636 262.386471 
L 258.093818 254.510487 
L 258.804 265.007455 
L 259.514182 262.179966 
L 260.224364 272.141627 
L 260.934545 268.604701 
L 261.644727 269.685845 
L 262.354909 269.993915 
L 263.065091 271.56518 
L 263.775273 251.379034 
L 264.485455 248.969145 
L 265.195636 251.475283 
L 265.905818 251.111642 
L 266.616 242.121127 
L 267.326182 242.449556 
L 268.036364 239.269742 
L 268.746545 234.945042 
L 269.456727 247.176947 
L 270.166909 241.880555 
L 270.877091 240.653898 
L 272.297455 251.262653 
L 273.007636 252.220192 
L 273.717818 252.713398 
L 274.428 260.241981 
L 275.138182 270.774206 
L 275.848364 268.627493 
L 276.558545 245.031655 
L 277.268727 233.837624 
L 277.978909 232.935811 
L 278.689091 248.751905 
L 279.399273 251.908844 
L 280.109455 245.146459 
L 280.819636 252.991074 
L 281.529818 246.728369 
L 282.24 243.425349 
L 282.950182 248.252782 
L 284.370545 264.223882 
L 285.080727 256.673202 
L 285.790909 261.970451 
L 286.501091 261.033163 
L 287.211273 255.625769 
L 287.921455 253.346916 
L 288.631636 265.851796 
L 289.341818 267.829429 
L 290.052 260.131661 
L 290.762182 270.032182 
L 291.472364 257.949504 
L 292.182545 252.678258 
L 292.892727 243.346929 
L 293.602909 241.178512 
L 294.313091 232.352634 
L 295.023273 215.840196 
L 295.733455 225.753514 
L 296.443636 239.013962 
L 297.153818 239.126123 
L 297.864 239.000497 
L 298.574182 249.450988 
L 299.284364 249.157161 
L 299.994545 255.859043 
L 300.704727 254.738083 
L 301.414909 256.860749 
L 302.125091 253.529652 
L 302.835273 259.117501 
L 303.545455 252.424079 
L 304.255636 243.502771 
L 304.965818 232.406458 
L 305.676 235.071116 
L 306.386182 233.171736 
L 307.096364 225.628758 
L 307.806545 233.636021 
L 308.516727 236.300133 
L 309.226909 226.539123 
L 309.937091 220.223612 
L 310.647273 226.962578 
L 311.357455 216.779289 
L 312.067636 217.447998 
L 312.777818 212.837459 
L 313.488 209.842271 
L 314.198182 207.365381 
L 314.908364 221.21368 
L 315.618545 220.325749 
L 316.328727 218.547545 
L 317.038909 215.345891 
L 317.749091 209.903183 
L 318.459273 208.434931 
L 319.169455 214.490601 
L 319.879636 207.475216 
L 320.589818 217.229434 
L 321.3 230.612148 
L 322.010182 216.800449 
L 323.430545 226.028396 
L 324.140727 222.605318 
L 324.850909 216.238429 
L 325.561091 220.680852 
L 326.271273 223.494154 
L 326.981455 230.490853 
L 327.691636 226.150224 
L 328.401818 229.234415 
L 329.112 229.166916 
L 329.822182 221.974354 
L 331.242545 237.782952 
L 331.952727 230.378719 
L 332.662909 220.888772 
L 333.373091 218.18443 
L 334.083273 209.425476 
L 334.793455 208.750237 
L 335.503636 214.074512 
L 336.213818 214.278258 
L 336.924 219.20969 
L 337.634182 214.483751 
L 338.344364 208.024532 
L 339.054545 198.534672 
L 339.764727 206.264226 
L 340.474909 218.244226 
L 341.185091 215.499993 
L 341.895273 223.156247 
L 342.605455 223.85626 
L 343.315636 228.276694 
L 344.025818 225.823371 
L 344.736 234.733856 
L 345.446182 238.201691 
L 346.866545 254.629615 
L 347.576727 234.017921 
L 348.286909 245.596047 
L 348.997091 248.074073 
L 349.707273 261.933105 
L 350.417455 265.98012 
L 351.837818 254.198223 
L 352.548 254.404313 
L 353.968364 234.169 
L 354.678545 234.464632 
L 355.388727 241.615135 
L 356.098909 233.175114 
L 356.809091 226.314573 
L 357.519273 233.457527 
L 358.229455 229.484129 
L 358.939636 224.845329 
L 359.649818 224.597154 
L 360.36 232.086627 
L 361.070182 221.795337 
L 361.780364 221.052823 
L 362.490545 215.656049 
L 363.200727 231.830068 
L 363.910909 213.690085 
L 364.621091 215.99855 
L 365.331273 213.359052 
L 366.041455 205.932129 
L 366.751636 187.190116 
L 367.461818 180.752818 
L 368.172 185.593533 
L 368.882182 181.617917 
L 369.592364 174.826491 
L 370.302545 180.570388 
L 371.012727 204.20612 
L 371.722909 209.60286 
L 372.433091 207.292008 
L 373.143273 209.983594 
L 374.563636 221.587734 
L 375.273818 223.569968 
L 375.984 222.559471 
L 376.694182 206.269974 
L 377.404364 209.130652 
L 378.114545 213.587313 
L 379.534909 221.334748 
L 380.245091 213.827404 
L 380.955273 222.703602 
L 381.665455 213.354751 
L 382.375636 216.167746 
L 383.085818 225.059399 
L 383.796 223.266835 
L 384.506182 209.998852 
L 385.216364 206.940789 
L 385.926545 213.8956 
L 386.636727 211.600206 
L 387.346909 217.432855 
L 388.057091 205.671077 
L 388.767273 206.964989 
L 389.477455 202.000825 
L 390.187636 192.395075 
L 390.897818 197.636199 
L 391.608 211.192175 
L 392.318182 211.604161 
L 393.028364 221.891918 
L 393.738545 238.562159 
L 394.448727 246.774504 
L 395.158909 248.420186 
L 395.869091 255.407402 
L 396.579273 251.081007 
L 397.289455 243.120667 
L 397.999636 245.316044 
L 398.709818 252.960082 
L 399.42 259.388913 
L 400.130182 247.698233 
L 400.840364 258.814616 
L 401.550545 264.82708 
L 402.260727 237.221467 
L 402.970909 246.133326 
L 403.681091 252.693783 
L 404.391273 239.123826 
L 405.101455 247.432905 
L 405.811636 252.657129 
L 406.521818 243.552443 
L 407.232 245.841844 
L 407.942182 262.874684 
L 408.652364 259.288879 
L 409.362545 258.93867 
L 410.782909 244.63494 
L 411.493091 261.003555 
L 412.203273 262.358661 
L 412.913455 254.549287 
L 413.623636 255.291806 
L 414.333818 255.783371 
L 415.044 263.490768 
L 415.754182 263.494656 
L 416.464364 268.847202 
L 417.174545 267.998342 
L 417.884727 267.611339 
L 419.305091 286.823697 
L 420.015273 285.779375 
L 420.725455 289.71269 
L 421.435636 287.622883 
L 423.566182 303.501122 
L 424.276364 286.852483 
L 424.986545 286.200718 
L 425.696727 289.017778 
L 426.406909 284.648203 
L 427.827273 276.976757 
L 428.537455 268.307426 
L 429.247636 278.301993 
L 429.957818 299.202149 
L 430.668 313.69264 
L 432.088364 315.847855 
L 432.798545 308.592735 
L 433.508727 306.035303 
L 434.218909 314.237516 
L 434.929091 308.361722 
L 435.639273 297.567839 
L 436.349455 298.697934 
L 437.059636 307.272516 
L 437.769818 317.295209 
L 438.48 304.585934 
L 439.190182 287.672379 
L 439.900364 296.670307 
L 440.610545 285.809 
L 441.320727 287.263215 
L 442.030909 282.176156 
L 442.741091 281.084563 
L 443.451273 266.702409 
L 444.161455 261.870358 
L 445.581818 249.416045 
L 446.292 254.075307 
L 447.002182 245.740036 
L 447.712364 241.525383 
L 449.132727 222.348124 
L 449.842909 223.565293 
L 450.553091 250.8643 
L 451.263273 254.308317 
L 451.973455 247.515899 
L 452.683636 232.728218 
L 453.393818 233.529254 
L 454.104 228.88224 
L 455.524364 234.791073 
L 456.234545 222.215737 
L 456.944727 214.982822 
L 457.654909 200.583205 
L 458.365091 195.953387 
L 459.075273 179.996954 
L 459.785455 175.296868 
L 460.495636 182.754121 
L 461.205818 173.407848 
L 461.916 180.884359 
L 462.626182 184.325137 
L 463.336364 176.213247 
L 464.046545 165.973847 
L 464.756727 158.981485 
L 466.177091 130.114281 
L 466.887273 124.743043 
L 467.597455 129.19676 
L 468.307636 126.803642 
L 469.017818 108.862319 
L 469.728 108.316617 
L 470.438182 104.579031 
L 471.148364 105.356735 
L 472.568727 111.021049 
L 473.278909 103.292644 
L 474.699273 80.577836 
L 476.119636 89.506854 
L 476.829818 100.753876 
L 477.54 97.586414 
L 478.250182 89.132522 
L 478.960364 110.452059 
L 481.090909 86.523902 
L 481.801091 87.522014 
L 482.511273 80.007862 
L 483.221455 90.113499 
L 483.931636 85.558424 
L 485.352 98.702766 
L 486.062182 102.887721 
L 486.772364 109.256083 
L 487.482545 101.00288 
L 488.192727 96.301245 
L 488.902909 98.829491 
L 489.613091 104.680419 
L 490.323273 108.723875 
L 491.033455 117.719603 
L 491.743636 113.49096 
L 492.453818 120.506282 
L 493.164 124.288936 
L 493.874182 138.1489 
L 495.294545 118.257298 
L 496.004727 114.482842 
L 497.425091 108.950185 
L 498.135273 112.410741 
L 498.845455 110.127697 
L 499.555636 120.957889 
L 500.265818 123.140584 
L 500.976 110.562573 
L 501.686182 118.740304 
L 502.396364 110.578513 
L 503.106545 130.253142 
L 503.816727 144.876332 
L 504.526909 140.437521 
L 505.237091 136.94694 
L 505.947273 128.33335 
L 506.657455 127.399927 
L 508.077818 132.795409 
L 508.788 141.120453 
L 509.498182 138.715868 
L 510.208364 150.740397 
L 510.918545 152.017602 
L 511.628727 157.813637 
L 512.338909 157.315298 
L 513.049091 150.510549 
L 513.759273 152.831502 
L 514.469455 157.408682 
L 515.179636 154.594184 
L 515.889818 146.389182 
L 516.6 145.349151 
L 517.310182 132.76972 
L 518.020364 124.763826 
L 518.730545 131.265766 
L 519.440727 119.390396 
L 520.150909 129.239775 
L 520.861091 136.50988 
L 521.571273 147.547272 
L 522.281455 143.263866 
L 522.991636 145.684981 
L 523.701818 143.624884 
L 525.122182 159.075182 
L 525.832364 179.75309 
L 526.542545 174.219434 
L 527.252727 177.866176 
L 527.962909 180.601595 
L 528.673091 181.933001 
L 529.383273 185.699863 
L 530.093455 181.248365 
L 530.803636 182.971711 
L 531.513818 184.393381 
L 532.224 187.894284 
L 532.934182 197.12781 
L 533.644364 203.429774 
L 534.354545 199.294756 
L 535.064727 202.54777 
L 535.774909 196.779591 
L 536.485091 199.166803 
L 537.905455 182.431322 
L 538.615636 184.549643 
L 539.325818 189.146727 
L 540.036 182.112944 
L 540.746182 181.214579 
L 541.456364 187.761756 
L 542.166545 197.579708 
L 542.876727 199.610829 
L 543.586909 187.357552 
L 544.297091 178.126353 
L 545.007273 182.313797 
L 545.717455 199.382011 
L 546.427636 195.6747 
L 547.137818 193.740775 
L 547.848 197.34187 
L 548.558182 191.599987 
L 549.978545 202.491413 
L 550.688727 195.074274 
L 551.398909 216.539047 
L 552.109091 219.235284 
L 552.819273 206.1631 
L 553.529455 198.401655 
L 554.239636 211.931571 
L 554.949818 205.170746 
L 555.66 201.578339 
L 556.370182 188.981405 
L 557.080364 197.361315 
L 557.790545 210.855085 
L 558.500727 204.512195 
L 559.210909 210.83423 
L 559.921091 198.941897 
L 560.631273 203.126272 
L 561.341455 206.617205 
L 562.051636 208.789163 
L 562.761818 212.624351 
L 563.472 221.338727 
L 564.182182 242.869316 
L 564.892364 245.951953 
L 565.602545 237.038893 
L 566.312727 235.586607 
L 567.022909 224.761597 
L 567.733091 220.228754 
L 568.443273 226.685031 
L 569.153455 222.572518 
L 569.863636 214.068576 
L 570.573818 219.919692 
L 571.284 221.765351 
L 571.994182 227.452763 
L 572.704364 222.735848 
L 573.414545 231.54057 
L 574.124727 230.427349 
L 574.834909 232.78112 
L 575.545091 219.572932 
L 576.255273 223.044057 
L 576.965455 224.146386 
L 577.675636 217.586078 
L 578.385818 215.079378 
L 579.096 218.266888 
L 580.516364 210.908363 
L 581.226545 214.737974 
L 581.936727 205.510649 
L 582.646909 205.498278 
L 583.357091 201.769272 
L 584.067273 202.800695 
L 584.777455 215.417325 
L 585.487636 196.523314 
L 586.197818 202.050122 
L 586.908 206.590707 
L 587.618182 216.320348 
L 588.328364 211.623519 
L 589.038545 208.465411 
L 589.748727 186.652225 
L 590.458909 190.005717 
L 591.169091 199.868671 
L 591.879273 196.354691 
L 592.589455 199.548179 
L 593.299636 197.16421 
L 594.009818 203.153778 
L 594.72 211.443062 
L 595.430182 217.383113 
L 596.140364 233.080478 
L 597.560727 252.863737 
L 598.270909 257.027925 
L 598.981091 258.154257 
L 599.691273 270.168513 
L 601.111636 262.938394 
L 601.821818 264.162399 
L 602.532 279.640628 
L 603.242182 281.898442 
L 603.952364 288.575955 
L 604.662545 279.411372 
L 605.372727 271.83902 
L 606.082909 272.185991 
L 606.793091 275.924292 
L 607.503273 267.604433 
L 608.213455 267.483666 
L 608.923636 264.244376 
L 609.633818 256.581069 
L 610.344 256.343106 
L 611.054182 249.106818 
L 611.764364 243.251087 
L 612.474545 247.932025 
L 613.184727 258.050401 
L 615.315273 243.370599 
L 616.025455 253.925756 
L 616.735636 245.367486 
L 617.445818 242.084229 
L 618.156 246.117297 
L 618.866182 254.374956 
L 619.576364 254.157304 
L 620.286545 255.234875 
L 620.996727 253.697505 
L 621.706909 239.16842 
L 622.417091 236.861802 
L 623.127273 238.263389 
L 623.837455 227.09204 
L 624.547636 236.038262 
L 625.257818 241.625205 
L 625.968 245.941766 
L 626.678182 244.296968 
L 627.388364 234.410371 
L 628.098545 240.47372 
L 628.808727 263.323788 
L 629.518909 277.624499 
L 631.649455 253.31787 
L 632.359636 251.769049 
L 633.069818 249.785024 
L 633.78 246.341545 
L 634.490182 241.446059 
L 635.200364 243.104281 
L 635.910545 237.156979 
L 636.620727 229.888286 
L 637.330909 227.294999 
L 638.041091 232.816345 
L 638.751273 232.818546 
L 639.461455 227.173673 
L 640.171636 225.899766 
L 640.881818 245.055679 
L 641.592 236.413017 
L 642.302182 232.851564 
L 643.012364 222.620602 
L 643.722545 236.36657 
L 644.432727 241.189514 
L 645.142909 254.759156 
L 645.853091 257.383943 
L 646.563273 257.933509 
L 647.273455 256.818718 
L 647.983636 252.298208 
L 648.693818 251.907738 
L 649.404 256.85993 
L 650.114182 252.74617 
L 650.824364 256.780101 
L 651.534545 251.013079 
L 652.244727 263.90738 
L 652.954909 268.270713 
L 653.665091 283.746608 
L 654.375273 283.72367 
L 655.085455 287.026633 
L 655.795636 298.387407 
L 656.505818 299.746909 
L 657.216 301.90366 
L 657.926182 312.610578 
L 658.636364 311.84978 
L 659.346545 310.193708 
L 660.056727 316.239318 
L 660.766909 316.864422 
L 661.477091 313.59065 
L 662.187273 326.508808 
L 662.897455 328.931298 
L 663.607636 337.074852 
L 664.317818 335.044352 
L 665.028 337.672595 
L 665.738182 334.919462 
L 666.448364 328.077765 
L 667.158545 326.621123 
L 667.868727 334.541457 
L 668.578909 319.605921 
L 669.289091 330.648851 
L 669.999273 328.249135 
L 670.709455 328.402712 
L 672.129818 309.315643 
L 672.84 319.146966 
L 674.260364 332.28433 
L 674.970545 329.961271 
L 675.680727 314.637002 
L 676.390909 321.636546 
L 677.101091 312.21059 
L 677.811273 318.645364 
L 678.521455 321.246907 
L 679.231636 335.439987 
L 679.941818 345.009954 
L 680.652 336.242943 
L 681.362182 325.049452 
L 682.072364 327.159136 
L 682.782545 324.242707 
L 683.492727 322.953555 
L 684.202909 326.314363 
L 684.913091 328.009119 
L 685.623273 332.507327 
L 686.333455 338.517411 
L 687.043636 336.729812 
L 687.753818 321.343187 
L 688.464 316.573181 
L 689.174182 318.158472 
L 689.884364 317.319265 
L 690.594545 320.764452 
L 691.304727 328.815152 
L 692.014909 340.108828 
L 693.435273 352.45133 
L 694.855636 343.95313 
L 695.565818 343.604866 
L 696.276 334.755203 
L 696.986182 343.554457 
L 697.696364 333.590516 
L 698.406545 317.91935 
L 699.116727 299.070969 
L 699.826909 296.685285 
L 700.537091 305.977542 
L 701.247273 304.266547 
L 701.957455 316.134081 
L 702.667636 317.150472 
L 703.377818 328.302661 
L 704.088 332.244787 
L 704.798182 331.755477 
L 705.508364 330.427987 
L 706.218545 328.392507 
L 706.928727 320.433198 
L 707.638909 315.036622 
L 708.349091 318.387428 
L 709.059273 308.787304 
L 709.769455 295.471642 
L 710.479636 296.316542 
L 711.189818 301.698946 
L 711.9 312.484925 
L 712.610182 320.355618 
L 713.320364 315.693313 
L 714.030545 312.155709 
L 714.740727 298.264919 
L 715.450909 299.003899 
L 716.161091 294.67842 
L 716.871273 305.839116 
L 717.581455 306.379032 
L 718.291636 280.067672 
L 719.001818 285.646559 
L 719.712 282.162164 
L 720.422182 292.696565 
L 721.132364 289.877577 
L 721.842545 277.96656 
L 722.552727 285.75936 
L 723.262909 282.23793 
L 723.973091 291.946717 
L 724.683273 293.736391 
L 725.393455 297.366337 
L 726.103636 307.97884 
L 726.813818 307.907308 
L 727.524 302.231797 
L 728.234182 291.802123 
L 728.944364 274.702482 
L 729.654545 279.130452 
L 730.364727 280.165115 
L 731.074909 268.846784 
L 731.785091 265.369928 
L 732.495273 275.716791 
L 733.205455 282.098016 
L 733.915636 279.448292 
L 734.625818 278.249768 
L 735.336 289.77098 
L 736.046182 287.627675 
L 736.756364 280.970279 
L 737.466545 288.272993 
L 738.176727 288.43997 
L 738.886909 283.703249 
L 739.597091 275.730782 
L 740.307273 255.19069 
L 741.017455 265.230224 
L 741.727636 261.098998 
L 742.437818 254.242551 
L 743.148 250.780596 
L 743.858182 237.83633 
L 744.568364 232.312124 
L 745.278545 238.359045 
L 745.988727 239.451357 
L 746.698909 238.659585 
L 747.409091 241.389279 
L 748.119273 245.867953 
L 749.539636 276.041783 
L 750.249818 278.21981 
L 750.96 275.088897 
L 751.670182 283.046809 
L 752.380364 279.005424 
L 753.090545 266.489218 
L 753.800727 263.483276 
L 754.510909 258.234915 
L 755.221091 268.759561 
L 755.931273 256.10482 
L 756.641455 273.781039 
L 757.351636 286.560281 
L 758.061818 294.57523 
L 758.772 294.140179 
L 759.482182 303.6837 
L 760.192364 305.476135 
L 760.902545 307.840387 
L 761.612727 306.738544 
L 762.322909 306.075468 
L 763.033091 314.586288 
L 763.743273 297.935778 
L 764.453455 283.969269 
L 765.163636 289.700436 
L 765.873818 289.319719 
L 766.584 279.974262 
L 767.294182 277.695305 
L 768.004364 283.787303 
L 768.714545 281.725209 
L 769.424727 288.775093 
L 770.134909 276.886528 
L 770.845091 273.391117 
L 771.555273 282.713029 
L 772.265455 282.108078 
L 772.975636 279.895368 
L 773.685818 281.173258 
L 774.396 277.655738 
L 775.106182 281.165907 
L 775.816364 280.008227 
L 776.526545 270.716399 
L 777.236727 266.970414 
L 777.946909 276.0125 
L 778.657091 271.386054 
L 779.367273 275.301556 
L 780.077455 276.10783 
L 781.497818 281.890947 
L 782.208 287.069798 
L 783.628364 276.363381 
L 784.338545 288.895173 
L 785.048727 284.893364 
L 786.469091 285.92917 
L 787.179273 290.318341 
L 788.599636 309.905887 
L 789.309818 313.567749 
L 790.02 316.221674 
L 790.730182 309.125654 
L 791.440364 306.908455 
L 792.150545 314.052754 
L 792.860727 313.346133 
L 793.570909 306.389283 
L 794.281091 305.086386 
L 795.701455 282.261608 
L 796.411636 283.153939 
L 797.121818 288.033234 
L 797.832 284.542023 
L 798.542182 291.386843 
L 799.962545 319.840396 
L 800.672727 324.925495 
L 801.382909 314.833813 
L 802.093091 336.602133 
L 802.803273 349.745683 
L 803.513455 354.380129 
L 804.223636 348.332079 
L 804.933818 353.286878 
L 805.644 360.91509 
L 806.354182 355.080221 
L 807.064364 353.625383 
L 807.774545 327.825664 
L 808.484727 326.560861 
L 809.194909 332.972322 
L 809.905091 331.19291 
L 810.615273 328.649335 
L 811.325455 329.494123 
L 812.035636 316.063223 
L 812.745818 334.575137 
L 813.456 340.011558 
L 814.166182 338.841805 
L 814.876364 333.856293 
L 815.586545 332.819339 
L 816.296727 332.228248 
L 817.006909 324.264532 
L 817.717091 324.356466 
L 818.427273 315.434934 
L 819.137455 315.899571 
L 819.847636 298.146008 
L 820.557818 293.114815 
L 821.268 290.305578 
L 821.978182 293.002228 
L 822.688364 310.827181 
L 823.398545 314.181281 
L 824.108727 309.05396 
L 824.818909 317.514891 
L 825.529091 309.517879 
L 826.239273 314.154127 
L 826.949455 304.6133 
L 827.659636 317.391941 
L 828.369818 322.831724 
L 829.08 326.34162 
L 829.790182 327.118421 
L 830.500364 349.324299 
L 831.210545 346.078525 
L 831.920727 332.249728 
L 832.630909 337.463605 
L 833.341091 324.783561 
L 834.051273 337.99152 
L 834.761455 336.347112 
L 835.471636 338.648001 
L 836.181818 337.682098 
L 836.892 333.268438 
L 837.602182 334.677969 
L 838.312364 335.171712 
L 839.022545 340.00475 
L 839.732727 336.557136 
L 840.442909 331.123753 
L 841.153091 331.299966 
L 841.863273 332.98364 
L 842.573455 332.248122 
L 843.283636 335.867441 
L 843.993818 335.188682 
L 845.414182 323.587122 
L 846.124364 292.814051 
L 846.834545 298.891514 
L 847.544727 306.742616 
L 848.254909 311.884091 
L 848.965091 311.437603 
L 849.675273 320.579137 
L 850.385455 321.120487 
L 851.095636 322.370972 
L 851.805818 311.212513 
L 852.516 304.240469 
L 853.226182 310.195609 
L 853.936364 303.775343 
L 854.646545 295.836282 
L 855.356727 292.250462 
L 856.066909 296.019516 
L 856.777091 290.58556 
L 857.487273 300.730198 
L 858.197455 293.966482 
L 858.907636 290.184415 
L 859.617818 304.329959 
L 860.328 300.61716 
L 861.038182 293.05083 
L 861.748364 281.00776 
L 862.458545 264.42846 
L 863.168727 261.609846 
L 863.878909 271.389567 
L 864.589091 266.622164 
L 865.299273 275.341194 
L 866.009455 279.926748 
L 866.719636 295.350151 
L 867.429818 303.060964 
L 868.14 294.239697 
L 868.850182 294.413818 
L 869.560364 295.471968 
L 870.270545 308.506897 
L 870.980727 305.939011 
L 871.690909 323.439293 
L 871.690909 323.439293 
" clip-path="url(#pff2847ddf2)" style="fill: none; stroke: #ff7f0e; stroke-width: 1.5; stroke-linecap: square"/>
   </g>
   <g id="line2d_16">
    <path d="M 162.219273 264.194494 
L 163.639636 264.16946 
L 165.06 264.143416 
L 165.770182 263.761093 
L 168.610909 263.52347 
L 169.321091 263.161949 
L 170.031273 263.17534 
L 171.451636 262.713738 
L 172.872 262.692073 
L 173.582182 261.999442 
L 174.292364 261.468133 
L 175.712727 261.536573 
L 176.422909 260.747085 
L 178.553455 260.640978 
L 179.973818 260.423874 
L 181.394182 260.369169 
L 182.104364 260.056862 
L 183.524727 260.001854 
L 184.234909 259.962344 
L 184.945091 259.549993 
L 185.655273 259.52157 
L 186.365455 259.31279 
L 187.075636 259.242351 
L 187.785818 258.813446 
L 188.496 258.682175 
L 189.206182 258.712718 
L 189.916364 258.544887 
L 191.336727 258.505957 
L 192.046909 258.775325 
L 192.757091 258.632741 
L 194.177455 258.595078 
L 194.887636 257.856989 
L 195.597818 257.650513 
L 199.148727 257.796252 
L 199.858909 256.734175 
L 200.569091 256.729076 
L 201.279273 256.560089 
L 201.989455 256.559488 
L 203.409818 256.251468 
L 209.801455 256.395113 
L 210.511636 256.136502 
L 211.221818 256.150626 
L 211.932 254.757909 
L 214.772727 254.559639 
L 215.482909 254.214216 
L 216.193091 254.214692 
L 216.903273 253.88425 
L 217.613455 253.98463 
L 219.033818 253.791883 
L 219.744 253.26662 
L 221.164364 252.842135 
L 222.584727 252.278394 
L 223.294909 252.256368 
L 224.005091 252.059535 
L 225.425455 251.884605 
L 226.135636 251.508761 
L 228.976364 250.950841 
L 229.686545 250.977746 
L 230.396727 248.931289 
L 231.106909 248.821502 
L 231.817091 248.565264 
L 234.657818 248.624686 
L 235.368 248.203876 
L 236.078182 246.64959 
L 236.788364 246.635066 
L 237.498545 245.896345 
L 238.208727 245.894112 
L 238.918909 245.68801 
L 240.339273 245.725842 
L 242.469818 245.852193 
L 243.18 245.5621 
L 243.890182 244.802424 
L 244.600364 244.786078 
L 245.310545 244.42802 
L 246.020727 244.469726 
L 246.730909 244.003593 
L 247.441091 244.021104 
L 248.151273 243.641199 
L 250.281818 243.677743 
L 250.992 243.560415 
L 251.702182 243.735494 
L 252.412364 242.416087 
L 253.122545 242.275772 
L 253.832727 242.286511 
L 254.542909 242.021365 
L 257.383636 241.470736 
L 258.093818 241.422661 
L 258.804 241.081693 
L 259.514182 241.122574 
L 260.224364 240.62987 
L 263.065091 240.746395 
L 263.775273 239.80807 
L 265.195636 239.820631 
L 268.036364 239.781213 
L 270.877091 239.643156 
L 272.297455 239.749863 
L 273.717818 239.744137 
L 274.428 239.201918 
L 275.138182 238.825052 
L 275.848364 238.776757 
L 276.558545 236.966473 
L 278.689091 236.82049 
L 279.399273 236.766752 
L 281.529818 236.323046 
L 282.950182 236.242811 
L 283.660364 236.004792 
L 284.370545 236.045969 
L 285.080727 235.829802 
L 287.921455 235.785714 
L 288.631636 235.332778 
L 290.052 235.276522 
L 290.762182 234.580013 
L 291.472364 234.545466 
L 292.182545 234.298106 
L 292.892727 234.332662 
L 294.313091 234.196872 
L 295.023273 233.276338 
L 295.733455 233.049652 
L 296.443636 232.487143 
L 297.864 232.487176 
L 298.574182 232.282988 
L 301.414909 232.226242 
L 302.835273 232.010408 
L 304.255636 231.748951 
L 304.965818 231.069526 
L 306.386182 231.081978 
L 308.516727 230.50754 
L 309.226909 229.950912 
L 309.937091 229.918286 
L 312.067636 229.501725 
L 313.488 229.433231 
L 314.198182 229.487211 
L 314.908364 229.018818 
L 317.038909 228.985428 
L 319.169455 228.861859 
L 319.879636 228.847611 
L 320.589818 229.153914 
L 322.010182 227.486325 
L 322.720364 227.36591 
L 324.140727 227.348975 
L 326.271273 227.198154 
L 326.981455 227.226023 
L 327.691636 227.047054 
L 330.532364 226.976215 
L 331.242545 226.62761 
L 333.373091 226.436453 
L 334.083273 225.885904 
L 336.213818 225.826996 
L 337.634182 225.797528 
L 338.344364 225.765394 
L 340.474909 225.208878 
L 343.315636 225.355788 
L 344.025818 225.356298 
L 344.736 225.041274 
L 346.156364 225.120583 
L 346.866545 224.911692 
L 347.576727 224.537955 
L 348.286909 223.981345 
L 348.997091 224.049351 
L 349.707273 223.843597 
L 351.127636 223.779535 
L 352.548 223.872767 
L 353.258182 223.471982 
L 353.968364 222.814174 
L 354.678545 222.813961 
L 355.388727 222.578738 
L 356.098909 222.164884 
L 356.809091 222.550166 
L 358.229455 222.418127 
L 358.939636 222.540508 
L 359.649818 222.545027 
L 360.36 222.38233 
L 361.070182 222.008543 
L 362.490545 222.010331 
L 363.200727 221.440396 
L 363.910909 219.784347 
L 366.041455 219.877902 
L 366.751636 218.687272 
L 367.461818 218.752859 
L 368.172 218.687508 
L 369.592364 218.943224 
L 370.302545 218.774428 
L 371.012727 217.942926 
L 371.722909 217.773316 
L 373.853455 217.894901 
L 375.984 217.808082 
L 376.694182 216.561801 
L 378.824727 216.386621 
L 380.245091 215.718941 
L 380.955273 215.225392 
L 381.665455 214.899739 
L 382.375636 214.822259 
L 383.085818 214.225232 
L 383.796 214.275771 
L 385.216364 214.067202 
L 386.636727 213.974228 
L 387.346909 214.101205 
L 388.057091 213.756311 
L 389.477455 213.668555 
L 390.187636 213.333134 
L 390.897818 213.149171 
L 391.608 212.796963 
L 393.028364 212.750418 
L 393.738545 211.671339 
L 395.158909 211.583656 
L 395.869091 211.283151 
L 396.579273 211.190891 
L 397.999636 211.205149 
L 398.709818 211.027125 
L 399.42 210.711974 
L 400.130182 210.576115 
L 401.550545 209.956676 
L 402.260727 208.239766 
L 404.391273 207.167489 
L 405.101455 207.297427 
L 405.811636 207.198663 
L 406.521818 206.944809 
L 407.232 206.958067 
L 407.942182 205.780918 
L 408.652364 205.619824 
L 410.782909 205.555403 
L 411.493091 204.432798 
L 412.203273 204.430995 
L 412.913455 204.107393 
L 417.884727 204.088079 
L 418.594909 203.804726 
L 419.305091 203.367788 
L 420.015273 203.385596 
L 420.725455 203.211294 
L 421.435636 203.157862 
L 423.566182 202.66798 
L 424.276364 201.839778 
L 425.696727 201.76725 
L 427.827273 201.33053 
L 428.537455 201.114855 
L 429.247636 200.55121 
L 429.957818 198.378483 
L 430.668 198.150431 
L 433.508727 198.057743 
L 434.218909 197.753282 
L 434.929091 197.782122 
L 435.639273 197.646208 
L 436.349455 197.627899 
L 437.059636 197.400422 
L 439.190182 195.703175 
L 439.900364 195.495476 
L 440.610545 195.065605 
L 442.741091 195.009569 
L 443.451273 194.297828 
L 444.161455 194.344795 
L 444.871636 194.144491 
L 445.581818 194.089901 
L 446.292 194.176851 
L 447.002182 193.888728 
L 447.712364 194.024088 
L 448.422545 193.835318 
L 449.842909 193.75666 
L 450.553091 191.840521 
L 451.263273 191.781313 
L 451.973455 191.486813 
L 452.683636 190.949458 
L 455.524364 191.002966 
L 456.234545 190.378299 
L 456.944727 190.195411 
L 457.654909 189.143118 
L 459.075273 189.257396 
L 460.495636 189.102223 
L 461.205818 188.793413 
L 463.336364 188.786663 
L 464.046545 188.459194 
L 464.756727 188.396227 
L 465.466909 187.778336 
L 466.887273 187.165022 
L 467.597455 187.065572 
L 468.307636 187.104014 
L 469.017818 186.05833 
L 471.148364 186.118798 
L 471.858545 186.275658 
L 472.568727 186.191684 
L 473.278909 186.293487 
L 473.989091 185.91577 
L 474.699273 185.376137 
L 475.409455 185.369996 
L 476.119636 185.130571 
L 476.829818 184.725056 
L 477.54 184.698256 
L 478.250182 184.428335 
L 478.960364 182.338626 
L 479.670545 182.004713 
L 481.801091 181.833213 
L 482.511273 181.350015 
L 483.931636 181.001769 
L 484.641818 181.013633 
L 485.352 180.469748 
L 486.772364 180.448155 
L 487.482545 180.052257 
L 489.613091 180.230758 
L 491.743636 180.02715 
L 492.453818 179.865296 
L 493.164 179.954525 
L 495.294545 178.50799 
L 497.425091 178.508852 
L 500.265818 178.305419 
L 500.976 178.381446 
L 501.686182 178.137451 
L 502.396364 178.441916 
L 503.106545 177.510554 
L 503.816727 177.342073 
L 505.237091 177.34369 
L 505.947273 177.176602 
L 507.367636 177.111722 
L 508.077818 177.019241 
L 508.788 177.170645 
L 509.498182 177.199775 
L 510.208364 176.671369 
L 512.338909 176.691293 
L 513.049091 176.52988 
L 515.179636 176.495987 
L 515.889818 176.060902 
L 516.6 176.024126 
L 517.310182 175.191823 
L 518.020364 174.785213 
L 518.730545 174.557325 
L 520.861091 174.63458 
L 521.571273 174.152104 
L 522.281455 174.000498 
L 523.701818 173.987896 
L 524.412 173.695279 
L 525.122182 173.568662 
L 525.832364 172.108897 
L 527.962909 172.102753 
L 528.673091 172.161154 
L 529.383273 171.97699 
L 531.513818 172.069198 
L 534.354545 171.849648 
L 536.485091 171.769006 
L 537.195273 171.692602 
L 537.905455 171.387805 
L 538.615636 171.399779 
L 539.325818 171.546983 
L 541.456364 171.383603 
L 542.166545 170.917534 
L 542.876727 170.902543 
L 543.586909 170.444634 
L 544.297091 170.204752 
L 545.007273 170.22558 
L 545.717455 169.20252 
L 546.427636 169.041 
L 547.137818 169.034503 
L 550.688727 168.275067 
L 551.398909 167.271714 
L 552.109091 167.287651 
L 552.819273 167.13278 
L 553.529455 167.489603 
L 554.239636 167.134975 
L 554.949818 166.958201 
L 555.66 167.079699 
L 556.370182 166.427579 
L 557.080364 166.052201 
L 557.790545 164.890218 
L 558.500727 164.829265 
L 559.210909 165.021194 
L 559.921091 164.568497 
L 560.631273 164.656913 
L 562.761818 164.534367 
L 563.472 164.167311 
L 564.182182 162.671491 
L 564.892364 162.593685 
L 565.602545 162.027274 
L 566.312727 162.010772 
L 567.022909 161.541754 
L 567.733091 161.450397 
L 568.443273 161.545478 
L 569.863636 161.340264 
L 570.573818 161.193304 
L 571.284 161.239349 
L 571.994182 161.44194 
L 572.704364 161.429634 
L 573.414545 160.911877 
L 574.834909 160.856311 
L 575.545091 160.248777 
L 579.096 159.8155 
L 581.226545 159.784423 
L 581.936727 159.38184 
L 582.646909 159.381873 
L 583.357091 159.194032 
L 584.067273 159.175532 
L 584.777455 158.341166 
L 585.487636 157.2044 
L 586.908 156.643092 
L 587.618182 156.254474 
L 589.038545 156.134292 
L 589.748727 154.122086 
L 593.299636 153.907569 
L 594.72 153.43994 
L 595.430182 153.445187 
L 596.140364 153.062092 
L 596.850545 152.369507 
L 597.560727 151.97745 
L 598.981091 152.01612 
L 600.401455 151.832195 
L 601.821818 151.746021 
L 602.532 150.482374 
L 603.242182 150.468386 
L 603.952364 150.270009 
L 604.662545 149.654211 
L 605.372727 149.504188 
L 606.793091 149.424943 
L 607.503273 149.275098 
L 608.923636 149.216688 
L 609.633818 148.91001 
L 610.344 148.915449 
L 611.054182 148.645539 
L 611.764364 148.671864 
L 613.184727 148.210164 
L 614.605091 148.213787 
L 617.445818 147.666817 
L 618.156 147.685949 
L 618.866182 147.278489 
L 620.996727 147.312542 
L 621.706909 146.762841 
L 623.127273 146.704082 
L 623.837455 146.355084 
L 624.547636 146.497526 
L 625.968 146.377886 
L 626.678182 146.353926 
L 627.388364 146.58609 
L 628.098545 146.624908 
L 628.808727 144.810014 
L 630.939273 144.134204 
L 631.649455 144.100264 
L 633.78 144.245701 
L 635.200364 144.198474 
L 635.910545 144.026165 
L 636.620727 143.654781 
L 637.330909 143.707864 
L 638.041091 143.540721 
L 638.751273 143.540756 
L 639.461455 143.304601 
L 640.171636 143.303735 
L 640.881818 142.609464 
L 641.592 142.688636 
L 642.302182 142.515623 
L 643.012364 142.107112 
L 643.722545 141.436877 
L 644.432727 141.289515 
L 645.142909 140.979349 
L 647.273455 141.063709 
L 647.983636 140.913996 
L 651.534545 140.881351 
L 652.244727 140.365595 
L 652.954909 140.195032 
L 653.665091 139.46577 
L 656.505818 139.409993 
L 657.216 139.347102 
L 657.926182 138.861241 
L 661.477091 138.846123 
L 662.187273 138.304699 
L 662.897455 138.239564 
L 663.607636 137.979121 
L 665.028 137.902977 
L 665.738182 138.023496 
L 666.448364 137.609562 
L 667.158545 137.604026 
L 668.578909 136.922683 
L 669.289091 136.51022 
L 671.419636 136.463217 
L 672.129818 136.686395 
L 672.84 136.319028 
L 674.970545 136.184952 
L 675.680727 135.735531 
L 676.390909 135.782535 
L 677.811273 135.523751 
L 678.521455 135.492623 
L 679.941818 134.799644 
L 680.652 134.845428 
L 681.362182 134.57657 
L 682.072364 134.567539 
L 682.782545 134.433525 
L 685.623273 134.300896 
L 689.884364 133.918757 
L 690.594545 133.986294 
L 691.304727 133.414068 
L 692.014909 132.685175 
L 694.145455 132.605339 
L 694.855636 132.449137 
L 695.565818 132.435289 
L 696.276 132.007696 
L 696.986182 131.715623 
L 697.696364 131.205088 
L 698.406545 130.522426 
L 699.116727 129.33171 
L 699.826909 129.300206 
L 700.537091 128.888121 
L 702.667636 129.077688 
L 703.377818 128.67687 
L 706.218545 128.681699 
L 706.928727 128.198174 
L 707.638909 128.029538 
L 708.349091 128.11954 
L 709.059273 127.839207 
L 709.769455 127.211984 
L 710.479636 127.181397 
L 711.189818 126.969952 
L 711.9 126.61212 
L 712.610182 126.552226 
L 713.320364 126.361219 
L 714.030545 126.467212 
L 714.740727 125.890352 
L 716.161091 125.91395 
L 716.871273 125.06701 
L 717.581455 125.059567 
L 718.291636 122.838095 
L 719.712 122.69758 
L 720.422182 122.490812 
L 721.132364 122.447074 
L 722.552727 122.069172 
L 723.262909 121.932402 
L 723.973091 121.151545 
L 725.393455 121.158029 
L 726.103636 121.044728 
L 726.813818 121.044895 
L 727.524 120.867216 
L 728.944364 120.10296 
L 729.654545 119.753678 
L 730.364727 119.746779 
L 731.074909 118.973484 
L 731.785091 118.857552 
L 733.205455 118.27484 
L 734.625818 118.298846 
L 735.336 117.864806 
L 736.756364 117.614604 
L 739.597091 117.254597 
L 740.307273 116.467948 
L 741.017455 116.300059 
L 741.727636 116.307577 
L 742.437818 116.163995 
L 743.148 116.183643 
L 743.858182 115.208473 
L 746.698909 115.094202 
L 748.119273 115.178586 
L 749.539636 113.908756 
L 752.380364 113.989766 
L 753.090545 113.208935 
L 754.510909 113.149929 
L 755.221091 113.014383 
L 757.351636 112.097067 
L 758.061818 112.358228 
L 758.772 112.348356 
L 759.482182 112.004998 
L 762.322909 112.015459 
L 763.033091 111.853913 
L 763.743273 111.156792 
L 764.453455 110.231784 
L 765.873818 110.302724 
L 768.714545 110.21012 
L 769.424727 110.372616 
L 770.134909 109.642889 
L 770.845091 109.597389 
L 771.555273 109.319112 
L 773.685818 109.277762 
L 775.106182 109.090572 
L 775.816364 109.112257 
L 776.526545 108.64469 
L 779.367273 108.256288 
L 782.208 108.125684 
L 785.048727 107.558099 
L 787.179273 107.504045 
L 787.889455 107.217419 
L 788.599636 106.686607 
L 790.02 106.675302 
L 791.440364 106.860168 
L 792.150545 106.536401 
L 794.281091 106.520181 
L 795.701455 106.037118 
L 797.121818 105.959412 
L 797.832 106.102622 
L 799.252364 106.017627 
L 799.962545 105.463394 
L 801.382909 104.891349 
L 802.093091 103.598584 
L 802.803273 103.192619 
L 803.513455 103.19784 
L 805.644 102.524185 
L 807.064364 102.519294 
L 807.774545 101.443711 
L 810.615273 101.573441 
L 811.325455 101.588303 
L 813.456 100.611423 
L 814.166182 100.65158 
L 815.586545 100.534224 
L 817.717091 100.419512 
L 818.427273 100.260198 
L 819.137455 100.257552 
L 819.847636 98.969502 
L 821.268 98.786284 
L 821.978182 98.790587 
L 822.688364 98.160703 
L 824.818909 97.894708 
L 825.529091 97.660339 
L 826.239273 97.80337 
L 827.659636 97.357123 
L 828.369818 97.150078 
L 829.790182 97.14064 
L 830.500364 96.19444 
L 831.210545 96.088788 
L 831.920727 95.450724 
L 833.341091 95.061365 
L 834.051273 94.694507 
L 843.993818 94.262623 
L 844.704 94.011762 
L 845.414182 94.085689 
L 846.124364 92.602861 
L 846.834545 92.306051 
L 847.544727 91.755927 
L 848.965091 91.825893 
L 849.675273 91.457519 
L 851.095636 91.486168 
L 851.805818 90.955232 
L 852.516 90.586514 
L 853.226182 90.740629 
L 856.066909 90.263226 
L 856.777091 90.41919 
L 857.487273 90.151153 
L 858.197455 90.026307 
L 858.907636 90.037874 
L 859.617818 88.786649 
L 860.328 88.586796 
L 861.038182 88.537187 
L 861.748364 87.905585 
L 862.458545 87.111157 
L 863.168727 87.109254 
L 863.878909 86.700715 
L 864.589091 86.769957 
L 866.719636 85.947241 
L 867.429818 85.874786 
L 868.14 85.515804 
L 869.560364 85.52148 
L 870.270545 85.169969 
L 870.980727 85.218777 
L 871.690909 84.35578 
L 871.690909 84.35578 
" clip-path="url(#pff2847ddf2)" style="fill: none; stroke: #2ca02c; stroke-width: 1.5; stroke-linecap: square"/>
   </g>
   <g id="patch_3">
    <path d="M 126 384.48 
L 126 51.84 
" style="fill: none; stroke: #000000; stroke-width: 0.8; stroke-linejoin: miter; stroke-linecap: square"/>
   </g>
   <g id="patch_4">
    <path d="M 907.2 384.48 
L 907.2 51.84 
" style="fill: none; stroke: #000000; stroke-width: 0.8; stroke-linejoin: miter; stroke-linecap: square"/>
   </g>
   <g id="patch_5">
    <path d="M 126 384.48 
L 907.2 384.48 
" style="fill: none; stroke: #000000; stroke-width: 0.8; stroke-linejoin: miter; stroke-linecap: square"/>
   </g>
   <g id="patch_6">
    <path d="M 126 51.84 
L 907.2 51.84 
" style="fill: none; stroke: #000000; stroke-width: 0.8; stroke-linejoin: miter; stroke-linecap: square"/>
   </g>
   <g id="text_16">
    <!-- Quadratic Covariation of $X_t$ and $S_t$ -->
    <g transform="translate(414.54 45.84)scale(0.12 -0.12)">
     <defs>
      <path id="DejaVuSans-66" d="M 2375 4863 
L 2375 4384 
L 1825 4384 
Q 1516 4384 1395 4259 
Q 1275 4134 1275 3809 
L 1275 3500 
L 2222 3500 
L 2222 3053 
L 1275 3053 
L 1275 0 
L 697 0 
L 697 3053 
L 147 3053 
L 147 3500 
L 697 3500 
L 697 3744 
Q 697 4328 969 4595 
Q 1241 4863 1831 4863 
L 2375 4863 
z
" transform="scale(0.015625)"/>
      <path id="DejaVuSans-Oblique-58" d="M 878 4666 
L 1516 4666 
L 2316 2981 
L 3763 4666 
L 4500 4666 
L 2578 2438 
L 3738 0 
L 3103 0 
L 2163 1966 
L 459 0 
L -275 0 
L 1906 2509 
L 878 4666 
z
" transform="scale(0.015625)"/>
      <path id="DejaVuSans-Oblique-74" d="M 2706 3500 
L 2619 3053 
L 1472 3053 
L 1100 1153 
Q 1081 1047 1072 975 
Q 1063 903 1063 863 
Q 1063 663 1183 572 
Q 1303 481 1569 481 
L 2150 481 
L 2053 0 
L 1503 0 
Q 991 0 739 200 
Q 488 400 488 806 
Q 488 878 497 964 
Q 506 1050 525 1153 
L 897 3053 
L 409 3053 
L 500 3500 
L 978 3500 
L 1172 4494 
L 1747 4494 
L 1556 3500 
L 2706 3500 
z
" transform="scale(0.015625)"/>
      <path id="DejaVuSans-Oblique-53" d="M 3859 4513 
L 3738 3897 
Q 3422 4066 3111 4152 
Q 2800 4238 2509 4238 
Q 1944 4238 1609 3991 
Q 1275 3744 1275 3334 
Q 1275 3109 1398 2989 
Q 1522 2869 2034 2731 
L 2413 2638 
Q 3053 2472 3303 2217 
Q 3553 1963 3553 1503 
Q 3553 797 2998 353 
Q 2444 -91 1538 -91 
Q 1166 -91 791 -17 
Q 416 56 38 206 
L 166 856 
Q 513 641 861 531 
Q 1209 422 1556 422 
Q 2147 422 2503 684 
Q 2859 947 2859 1369 
Q 2859 1650 2717 1795 
Q 2575 1941 2106 2059 
L 1728 2156 
Q 1081 2325 845 2545 
Q 609 2766 609 3163 
Q 609 3859 1145 4304 
Q 1681 4750 2541 4750 
Q 2875 4750 3203 4690 
Q 3531 4631 3859 4513 
z
" transform="scale(0.015625)"/>
     </defs>
     <use xlink:href="#DejaVuSans-51" transform="translate(0 0.015625)"/>
     <use xlink:href="#DejaVuSans-75" transform="translate(78.710938 0.015625)"/>
     <use xlink:href="#DejaVuSans-61" transform="translate(142.089844 0.015625)"/>
     <use xlink:href="#DejaVuSans-64" transform="translate(203.369141 0.015625)"/>
     <use xlink:href="#DejaVuSans-72" transform="translate(266.845703 0.015625)"/>
     <use xlink:href="#DejaVuSans-61" transform="translate(307.958984 0.015625)"/>
     <use xlink:href="#DejaVuSans-74" transform="translate(369.238281 0.015625)"/>
     <use xlink:href="#DejaVuSans-69" transform="translate(408.447266 0.015625)"/>
     <use xlink:href="#DejaVuSans-63" transform="translate(436.230469 0.015625)"/>
     <use xlink:href="#DejaVuSans-20" transform="translate(491.210938 0.015625)"/>
     <use xlink:href="#DejaVuSans-43" transform="translate(522.998047 0.015625)"/>
     <use xlink:href="#DejaVuSans-6f" transform="translate(592.822266 0.015625)"/>
     <use xlink:href="#DejaVuSans-76" transform="translate(654.003906 0.015625)"/>
     <use xlink:href="#DejaVuSans-61" transform="translate(713.183594 0.015625)"/>
     <use xlink:href="#DejaVuSans-72" transform="translate(774.462891 0.015625)"/>
     <use xlink:href="#DejaVuSans-69" transform="translate(815.576172 0.015625)"/>
     <use xlink:href="#DejaVuSans-61" transform="translate(843.359375 0.015625)"/>
     <use xlink:href="#DejaVuSans-74" transform="translate(904.638672 0.015625)"/>
     <use xlink:href="#DejaVuSans-69" transform="translate(943.847656 0.015625)"/>
     <use xlink:href="#DejaVuSans-6f" transform="translate(971.630859 0.015625)"/>
     <use xlink:href="#DejaVuSans-6e" transform="translate(1032.8125 0.015625)"/>
     <use xlink:href="#DejaVuSans-20" transform="translate(1096.191406 0.015625)"/>
     <use xlink:href="#DejaVuSans-6f" transform="translate(1127.978516 0.015625)"/>
     <use xlink:href="#DejaVuSans-66" transform="translate(1189.160156 0.015625)"/>
     <use xlink:href="#DejaVuSans-20" transform="translate(1224.365234 0.015625)"/>
     <use xlink:href="#DejaVuSans-Oblique-58" transform="translate(1256.152344 0.015625)"/>
     <use xlink:href="#DejaVuSans-Oblique-74" transform="translate(1324.658203 -16.390625)scale(0.7)"/>
     <use xlink:href="#DejaVuSans-20" transform="translate(1354.838867 0.015625)"/>
     <use xlink:href="#DejaVuSans-61" transform="translate(1386.625977 0.015625)"/>
     <use xlink:href="#DejaVuSans-6e" transform="translate(1447.905273 0.015625)"/>
     <use xlink:href="#DejaVuSans-64" transform="translate(1511.28418 0.015625)"/>
     <use xlink:href="#DejaVuSans-20" transform="translate(1574.760742 0.015625)"/>
     <use xlink:href="#DejaVuSans-Oblique-53" transform="translate(1606.547852 0.015625)"/>
     <use xlink:href="#DejaVuSans-Oblique-74" transform="translate(1670.024414 -16.390625)scale(0.7)"/>
    </g>
   </g>
   <g id="legend_1">
    <g id="patch_7">
     <path d="M 133 379.48 
L 335.1 379.48 
Q 337.1 379.48 337.1 377.48 
L 337.1 334.445625 
Q 337.1 332.445625 335.1 332.445625 
L 133 332.445625 
Q 131 332.445625 131 334.445625 
L 131 377.48 
Q 131 379.48 133 379.48 
z
" style="fill: #ffffff; opacity: 0.8; stroke: #cccccc; stroke-linejoin: miter"/>
    </g>
    <g id="line2d_17">
     <path d="M 135 340.544062 
L 145 340.544062 
L 155 340.544062 
" style="fill: none; stroke: #1f77b4; stroke-width: 1.5; stroke-linecap: square"/>
    </g>
    <g id="text_17">
     <!-- $X_t$ -->
     <g transform="translate(163 344.044062)scale(0.1 -0.1)">
      <use xlink:href="#DejaVuSans-Oblique-58" transform="translate(0 0.09375)"/>
      <use xlink:href="#DejaVuSans-Oblique-74" transform="translate(68.505859 -16.3125)scale(0.7)"/>
     </g>
    </g>
    <g id="line2d_18">
     <path d="M 135 355.222188 
L 145 355.222188 
L 155 355.222188 
" style="fill: none; stroke: #ff7f0e; stroke-width: 1.5; stroke-linecap: square"/>
    </g>
    <g id="text_18">
     <!-- $S_t$ -->
     <g transform="translate(163 358.722188)scale(0.1 -0.1)">
      <use xlink:href="#DejaVuSans-Oblique-53" transform="translate(0 0.78125)"/>
      <use xlink:href="#DejaVuSans-Oblique-74" transform="translate(63.476562 -15.625)scale(0.7)"/>
     </g>
    </g>
    <g id="line2d_19">
     <path d="M 135 369.900312 
L 145 369.900312 
L 155 369.900312 
" style="fill: none; stroke: #2ca02c; stroke-width: 1.5; stroke-linecap: square"/>
    </g>
    <g id="text_19">
     <!-- Quadratic Covariation of $X_t$ and $S_t$ -->
     <g transform="translate(163 373.400312)scale(0.1 -0.1)">
      <use xlink:href="#DejaVuSans-51" transform="translate(0 0.015625)"/>
      <use xlink:href="#DejaVuSans-75" transform="translate(78.710938 0.015625)"/>
      <use xlink:href="#DejaVuSans-61" transform="translate(142.089844 0.015625)"/>
      <use xlink:href="#DejaVuSans-64" transform="translate(203.369141 0.015625)"/>
      <use xlink:href="#DejaVuSans-72" transform="translate(266.845703 0.015625)"/>
      <use xlink:href="#DejaVuSans-61" transform="translate(307.958984 0.015625)"/>
      <use xlink:href="#DejaVuSans-74" transform="translate(369.238281 0.015625)"/>
      <use xlink:href="#DejaVuSans-69" transform="translate(408.447266 0.015625)"/>
      <use xlink:href="#DejaVuSans-63" transform="translate(436.230469 0.015625)"/>
      <use xlink:href="#DejaVuSans-20" transform="translate(491.210938 0.015625)"/>
      <use xlink:href="#DejaVuSans-43" transform="translate(522.998047 0.015625)"/>
      <use xlink:href="#DejaVuSans-6f" transform="translate(592.822266 0.015625)"/>
      <use xlink:href="#DejaVuSans-76" transform="translate(654.003906 0.015625)"/>
      <use xlink:href="#DejaVuSans-61" transform="translate(713.183594 0.015625)"/>
      <use xlink:href="#DejaVuSans-72" transform="translate(774.462891 0.015625)"/>
      <use xlink:href="#DejaVuSans-69" transform="translate(815.576172 0.015625)"/>
      <use xlink:href="#DejaVuSans-61" transform="translate(843.359375 0.015625)"/>
      <use xlink:href="#DejaVuSans-74" transform="translate(904.638672 0.015625)"/>
      <use xlink:href="#DejaVuSans-69" transform="translate(943.847656 0.015625)"/>
      <use xlink:href="#DejaVuSans-6f" transform="translate(971.630859 0.015625)"/>
      <use xlink:href="#DejaVuSans-6e" transform="translate(1032.8125 0.015625)"/>
      <use xlink:href="#DejaVuSans-20" transform="translate(1096.191406 0.015625)"/>
      <use xlink:href="#DejaVuSans-6f" transform="translate(1127.978516 0.015625)"/>
      <use xlink:href="#DejaVuSans-66" transform="translate(1189.160156 0.015625)"/>
      <use xlink:href="#DejaVuSans-20" transform="translate(1224.365234 0.015625)"/>
      <use xlink:href="#DejaVuSans-Oblique-58" transform="translate(1256.152344 0.015625)"/>
      <use xlink:href="#DejaVuSans-Oblique-74" transform="translate(1324.658203 -16.390625)scale(0.7)"/>
      <use xlink:href="#DejaVuSans-20" transform="translate(1354.838867 0.015625)"/>
      <use xlink:href="#DejaVuSans-61" transform="translate(1386.625977 0.015625)"/>
      <use xlink:href="#DejaVuSans-6e" transform="translate(1447.905273 0.015625)"/>
      <use xlink:href="#DejaVuSans-64" transform="translate(1511.28418 0.015625)"/>
      <use xlink:href="#DejaVuSans-20" transform="translate(1574.760742 0.015625)"/>
      <use xlink:href="#DejaVuSans-Oblique-53" transform="translate(1606.547852 0.015625)"/>
      <use xlink:href="#DejaVuSans-Oblique-74" transform="translate(1670.024414 -16.390625)scale(0.7)"/>
     </g>
    </g>
   </g>
  </g>
 </g>
 <defs>
  <clipPath id="pff2847ddf2">
   <rect x="126" y="51.84" width="781.2" height="332.64"/>
  </clipPath>
 </defs>
</svg>
