<?xml version="1.0" encoding="utf-8" standalone="no"?>
<!DOCTYPE svg PUBLIC "-//W3C//DTD SVG 1.1//EN"
  "http://www.w3.org/Graphics/SVG/1.1/DTD/svg11.dtd">
<svg xmlns:xlink="http://www.w3.org/1999/xlink" width="1008pt" height="432pt" viewBox="0 0 1008 432" xmlns="http://www.w3.org/2000/svg" version="1.1">
 <metadata>
  <rdf:RDF xmlns:dc="http://purl.org/dc/elements/1.1/" xmlns:cc="http://creativecommons.org/ns#" xmlns:rdf="http://www.w3.org/1999/02/22-rdf-syntax-ns#">
   <cc:Work>
    <dc:type rdf:resource="http://purl.org/dc/dcmitype/StillImage"/>
    <dc:date>2023-12-22T17:11:03.261681</dc:date>
    <dc:format>image/svg+xml</dc:format>
    <dc:creator>
     <cc:Agent>
      <dc:title>Matplotlib v3.5.2, https://matplotlib.org/</dc:title>
     </cc:Agent>
    </dc:creator>
   </cc:Work>
  </rdf:RDF>
 </metadata>
 <defs>
  <style type="text/css">*{stroke-linejoin: round; stroke-linecap: butt}</style>
 </defs>
 <g id="figure_1">
  <g id="patch_1">
   <path d="M 0 432 
L 1008 432 
L 1008 0 
L 0 0 
z
" style="fill: #ffffff"/>
  </g>
  <g id="axes_1">
   <g id="patch_2">
    <path d="M 126 384.48 
L 907.2 384.48 
L 907.2 51.84 
L 126 51.84 
z
" style="fill: #ffffff"/>
   </g>
   <g id="matplotlib.axis_1">
    <g id="xtick_1">
     <g id="line2d_1">
      <defs>
       <path id="m2c14918902" d="M 0 0 
L 0 3.5 
" style="stroke: #000000; stroke-width: 0.8"/>
      </defs>
      <g>
       <use xlink:href="#m2c14918902" x="161.509091" y="384.48" style="stroke: #000000; stroke-width: 0.8"/>
      </g>
     </g>
     <g id="text_1">
      <!-- 0.0 -->
      <g transform="translate(153.557528 399.078438)scale(0.1 -0.1)">
       <defs>
        <path id="DejaVuSans-30" d="M 2034 4250 
Q 1547 4250 1301 3770 
Q 1056 3291 1056 2328 
Q 1056 1369 1301 889 
Q 1547 409 2034 409 
Q 2525 409 2770 889 
Q 3016 1369 3016 2328 
Q 3016 3291 2770 3770 
Q 2525 4250 2034 4250 
z
M 2034 4750 
Q 2819 4750 3233 4129 
Q 3647 3509 3647 2328 
Q 3647 1150 3233 529 
Q 2819 -91 2034 -91 
Q 1250 -91 836 529 
Q 422 1150 422 2328 
Q 422 3509 836 4129 
Q 1250 4750 2034 4750 
z
" transform="scale(0.015625)"/>
        <path id="DejaVuSans-2e" d="M 684 794 
L 1344 794 
L 1344 0 
L 684 0 
L 684 794 
z
" transform="scale(0.015625)"/>
       </defs>
       <use xlink:href="#DejaVuSans-30"/>
       <use xlink:href="#DejaVuSans-2e" x="63.623047"/>
       <use xlink:href="#DejaVuSans-30" x="95.410156"/>
      </g>
     </g>
    </g>
    <g id="xtick_2">
     <g id="line2d_2">
      <g>
       <use xlink:href="#m2c14918902" x="303.545455" y="384.48" style="stroke: #000000; stroke-width: 0.8"/>
      </g>
     </g>
     <g id="text_2">
      <!-- 0.2 -->
      <g transform="translate(295.593892 399.078438)scale(0.1 -0.1)">
       <defs>
        <path id="DejaVuSans-32" d="M 1228 531 
L 3431 531 
L 3431 0 
L 469 0 
L 469 531 
Q 828 903 1448 1529 
Q 2069 2156 2228 2338 
Q 2531 2678 2651 2914 
Q 2772 3150 2772 3378 
Q 2772 3750 2511 3984 
Q 2250 4219 1831 4219 
Q 1534 4219 1204 4116 
Q 875 4013 500 3803 
L 500 4441 
Q 881 4594 1212 4672 
Q 1544 4750 1819 4750 
Q 2544 4750 2975 4387 
Q 3406 4025 3406 3419 
Q 3406 3131 3298 2873 
Q 3191 2616 2906 2266 
Q 2828 2175 2409 1742 
Q 1991 1309 1228 531 
z
" transform="scale(0.015625)"/>
       </defs>
       <use xlink:href="#DejaVuSans-30"/>
       <use xlink:href="#DejaVuSans-2e" x="63.623047"/>
       <use xlink:href="#DejaVuSans-32" x="95.410156"/>
      </g>
     </g>
    </g>
    <g id="xtick_3">
     <g id="line2d_3">
      <g>
       <use xlink:href="#m2c14918902" x="445.581818" y="384.48" style="stroke: #000000; stroke-width: 0.8"/>
      </g>
     </g>
     <g id="text_3">
      <!-- 0.4 -->
      <g transform="translate(437.630256 399.078438)scale(0.1 -0.1)">
       <defs>
        <path id="DejaVuSans-34" d="M 2419 4116 
L 825 1625 
L 2419 1625 
L 2419 4116 
z
M 2253 4666 
L 3047 4666 
L 3047 1625 
L 3713 1625 
L 3713 1100 
L 3047 1100 
L 3047 0 
L 2419 0 
L 2419 1100 
L 313 1100 
L 313 1709 
L 2253 4666 
z
" transform="scale(0.015625)"/>
       </defs>
       <use xlink:href="#DejaVuSans-30"/>
       <use xlink:href="#DejaVuSans-2e" x="63.623047"/>
       <use xlink:href="#DejaVuSans-34" x="95.410156"/>
      </g>
     </g>
    </g>
    <g id="xtick_4">
     <g id="line2d_4">
      <g>
       <use xlink:href="#m2c14918902" x="587.618182" y="384.48" style="stroke: #000000; stroke-width: 0.8"/>
      </g>
     </g>
     <g id="text_4">
      <!-- 0.6 -->
      <g transform="translate(579.666619 399.078438)scale(0.1 -0.1)">
       <defs>
        <path id="DejaVuSans-36" d="M 2113 2584 
Q 1688 2584 1439 2293 
Q 1191 2003 1191 1497 
Q 1191 994 1439 701 
Q 1688 409 2113 409 
Q 2538 409 2786 701 
Q 3034 994 3034 1497 
Q 3034 2003 2786 2293 
Q 2538 2584 2113 2584 
z
M 3366 4563 
L 3366 3988 
Q 3128 4100 2886 4159 
Q 2644 4219 2406 4219 
Q 1781 4219 1451 3797 
Q 1122 3375 1075 2522 
Q 1259 2794 1537 2939 
Q 1816 3084 2150 3084 
Q 2853 3084 3261 2657 
Q 3669 2231 3669 1497 
Q 3669 778 3244 343 
Q 2819 -91 2113 -91 
Q 1303 -91 875 529 
Q 447 1150 447 2328 
Q 447 3434 972 4092 
Q 1497 4750 2381 4750 
Q 2619 4750 2861 4703 
Q 3103 4656 3366 4563 
z
" transform="scale(0.015625)"/>
       </defs>
       <use xlink:href="#DejaVuSans-30"/>
       <use xlink:href="#DejaVuSans-2e" x="63.623047"/>
       <use xlink:href="#DejaVuSans-36" x="95.410156"/>
      </g>
     </g>
    </g>
    <g id="xtick_5">
     <g id="line2d_5">
      <g>
       <use xlink:href="#m2c14918902" x="729.654545" y="384.48" style="stroke: #000000; stroke-width: 0.8"/>
      </g>
     </g>
     <g id="text_5">
      <!-- 0.8 -->
      <g transform="translate(721.702983 399.078438)scale(0.1 -0.1)">
       <defs>
        <path id="DejaVuSans-38" d="M 2034 2216 
Q 1584 2216 1326 1975 
Q 1069 1734 1069 1313 
Q 1069 891 1326 650 
Q 1584 409 2034 409 
Q 2484 409 2743 651 
Q 3003 894 3003 1313 
Q 3003 1734 2745 1975 
Q 2488 2216 2034 2216 
z
M 1403 2484 
Q 997 2584 770 2862 
Q 544 3141 544 3541 
Q 544 4100 942 4425 
Q 1341 4750 2034 4750 
Q 2731 4750 3128 4425 
Q 3525 4100 3525 3541 
Q 3525 3141 3298 2862 
Q 3072 2584 2669 2484 
Q 3125 2378 3379 2068 
Q 3634 1759 3634 1313 
Q 3634 634 3220 271 
Q 2806 -91 2034 -91 
Q 1263 -91 848 271 
Q 434 634 434 1313 
Q 434 1759 690 2068 
Q 947 2378 1403 2484 
z
M 1172 3481 
Q 1172 3119 1398 2916 
Q 1625 2713 2034 2713 
Q 2441 2713 2670 2916 
Q 2900 3119 2900 3481 
Q 2900 3844 2670 4047 
Q 2441 4250 2034 4250 
Q 1625 4250 1398 4047 
Q 1172 3844 1172 3481 
z
" transform="scale(0.015625)"/>
       </defs>
       <use xlink:href="#DejaVuSans-30"/>
       <use xlink:href="#DejaVuSans-2e" x="63.623047"/>
       <use xlink:href="#DejaVuSans-38" x="95.410156"/>
      </g>
     </g>
    </g>
    <g id="xtick_6">
     <g id="line2d_6">
      <g>
       <use xlink:href="#m2c14918902" x="871.690909" y="384.48" style="stroke: #000000; stroke-width: 0.8"/>
      </g>
     </g>
     <g id="text_6">
      <!-- 1.0 -->
      <g transform="translate(863.739347 399.078438)scale(0.1 -0.1)">
       <defs>
        <path id="DejaVuSans-31" d="M 794 531 
L 1825 531 
L 1825 4091 
L 703 3866 
L 703 4441 
L 1819 4666 
L 2450 4666 
L 2450 531 
L 3481 531 
L 3481 0 
L 794 0 
L 794 531 
z
" transform="scale(0.015625)"/>
       </defs>
       <use xlink:href="#DejaVuSans-31"/>
       <use xlink:href="#DejaVuSans-2e" x="63.623047"/>
       <use xlink:href="#DejaVuSans-30" x="95.410156"/>
      </g>
     </g>
    </g>
    <g id="text_7">
     <!-- Time -->
     <g transform="translate(504.366406 412.756563)scale(0.1 -0.1)">
      <defs>
       <path id="DejaVuSans-54" d="M -19 4666 
L 3928 4666 
L 3928 4134 
L 2272 4134 
L 2272 0 
L 1638 0 
L 1638 4134 
L -19 4134 
L -19 4666 
z
" transform="scale(0.015625)"/>
       <path id="DejaVuSans-69" d="M 603 3500 
L 1178 3500 
L 1178 0 
L 603 0 
L 603 3500 
z
M 603 4863 
L 1178 4863 
L 1178 4134 
L 603 4134 
L 603 4863 
z
" transform="scale(0.015625)"/>
       <path id="DejaVuSans-6d" d="M 3328 2828 
Q 3544 3216 3844 3400 
Q 4144 3584 4550 3584 
Q 5097 3584 5394 3201 
Q 5691 2819 5691 2113 
L 5691 0 
L 5113 0 
L 5113 2094 
Q 5113 2597 4934 2840 
Q 4756 3084 4391 3084 
Q 3944 3084 3684 2787 
Q 3425 2491 3425 1978 
L 3425 0 
L 2847 0 
L 2847 2094 
Q 2847 2600 2669 2842 
Q 2491 3084 2119 3084 
Q 1678 3084 1418 2786 
Q 1159 2488 1159 1978 
L 1159 0 
L 581 0 
L 581 3500 
L 1159 3500 
L 1159 2956 
Q 1356 3278 1631 3431 
Q 1906 3584 2284 3584 
Q 2666 3584 2933 3390 
Q 3200 3197 3328 2828 
z
" transform="scale(0.015625)"/>
       <path id="DejaVuSans-65" d="M 3597 1894 
L 3597 1613 
L 953 1613 
Q 991 1019 1311 708 
Q 1631 397 2203 397 
Q 2534 397 2845 478 
Q 3156 559 3463 722 
L 3463 178 
Q 3153 47 2828 -22 
Q 2503 -91 2169 -91 
Q 1331 -91 842 396 
Q 353 884 353 1716 
Q 353 2575 817 3079 
Q 1281 3584 2069 3584 
Q 2775 3584 3186 3129 
Q 3597 2675 3597 1894 
z
M 3022 2063 
Q 3016 2534 2758 2815 
Q 2500 3097 2075 3097 
Q 1594 3097 1305 2825 
Q 1016 2553 972 2059 
L 3022 2063 
z
" transform="scale(0.015625)"/>
      </defs>
      <use xlink:href="#DejaVuSans-54"/>
      <use xlink:href="#DejaVuSans-69" x="57.958984"/>
      <use xlink:href="#DejaVuSans-6d" x="85.742188"/>
      <use xlink:href="#DejaVuSans-65" x="183.154297"/>
     </g>
    </g>
   </g>
   <g id="matplotlib.axis_2">
    <g id="ytick_1">
     <g id="line2d_7">
      <defs>
       <path id="m7b7f80105e" d="M 0 0 
L -3.5 0 
" style="stroke: #000000; stroke-width: 0.8"/>
      </defs>
      <g>
       <use xlink:href="#m7b7f80105e" x="126" y="369.359097" style="stroke: #000000; stroke-width: 0.8"/>
      </g>
     </g>
     <g id="text_8">
      <!-- 0.0 -->
      <g transform="translate(103.096875 373.158316)scale(0.1 -0.1)">
       <use xlink:href="#DejaVuSans-30"/>
       <use xlink:href="#DejaVuSans-2e" x="63.623047"/>
       <use xlink:href="#DejaVuSans-30" x="95.410156"/>
      </g>
     </g>
    </g>
    <g id="ytick_2">
     <g id="line2d_8">
      <g>
       <use xlink:href="#m7b7f80105e" x="126" y="328.619593" style="stroke: #000000; stroke-width: 0.8"/>
      </g>
     </g>
     <g id="text_9">
      <!-- 0.2 -->
      <g transform="translate(103.096875 332.418812)scale(0.1 -0.1)">
       <use xlink:href="#DejaVuSans-30"/>
       <use xlink:href="#DejaVuSans-2e" x="63.623047"/>
       <use xlink:href="#DejaVuSans-32" x="95.410156"/>
      </g>
     </g>
    </g>
    <g id="ytick_3">
     <g id="line2d_9">
      <g>
       <use xlink:href="#m7b7f80105e" x="126" y="287.880089" style="stroke: #000000; stroke-width: 0.8"/>
      </g>
     </g>
     <g id="text_10">
      <!-- 0.4 -->
      <g transform="translate(103.096875 291.679308)scale(0.1 -0.1)">
       <use xlink:href="#DejaVuSans-30"/>
       <use xlink:href="#DejaVuSans-2e" x="63.623047"/>
       <use xlink:href="#DejaVuSans-34" x="95.410156"/>
      </g>
     </g>
    </g>
    <g id="ytick_4">
     <g id="line2d_10">
      <g>
       <use xlink:href="#m7b7f80105e" x="126" y="247.140585" style="stroke: #000000; stroke-width: 0.8"/>
      </g>
     </g>
     <g id="text_11">
      <!-- 0.6 -->
      <g transform="translate(103.096875 250.939804)scale(0.1 -0.1)">
       <use xlink:href="#DejaVuSans-30"/>
       <use xlink:href="#DejaVuSans-2e" x="63.623047"/>
       <use xlink:href="#DejaVuSans-36" x="95.410156"/>
      </g>
     </g>
    </g>
    <g id="ytick_5">
     <g id="line2d_11">
      <g>
       <use xlink:href="#m7b7f80105e" x="126" y="206.401081" style="stroke: #000000; stroke-width: 0.8"/>
      </g>
     </g>
     <g id="text_12">
      <!-- 0.8 -->
      <g transform="translate(103.096875 210.2003)scale(0.1 -0.1)">
       <use xlink:href="#DejaVuSans-30"/>
       <use xlink:href="#DejaVuSans-2e" x="63.623047"/>
       <use xlink:href="#DejaVuSans-38" x="95.410156"/>
      </g>
     </g>
    </g>
    <g id="ytick_6">
     <g id="line2d_12">
      <g>
       <use xlink:href="#m7b7f80105e" x="126" y="165.661577" style="stroke: #000000; stroke-width: 0.8"/>
      </g>
     </g>
     <g id="text_13">
      <!-- 1.0 -->
      <g transform="translate(103.096875 169.460796)scale(0.1 -0.1)">
       <use xlink:href="#DejaVuSans-31"/>
       <use xlink:href="#DejaVuSans-2e" x="63.623047"/>
       <use xlink:href="#DejaVuSans-30" x="95.410156"/>
      </g>
     </g>
    </g>
    <g id="ytick_7">
     <g id="line2d_13">
      <g>
       <use xlink:href="#m7b7f80105e" x="126" y="124.922073" style="stroke: #000000; stroke-width: 0.8"/>
      </g>
     </g>
     <g id="text_14">
      <!-- 1.2 -->
      <g transform="translate(103.096875 128.721292)scale(0.1 -0.1)">
       <use xlink:href="#DejaVuSans-31"/>
       <use xlink:href="#DejaVuSans-2e" x="63.623047"/>
       <use xlink:href="#DejaVuSans-32" x="95.410156"/>
      </g>
     </g>
    </g>
    <g id="ytick_8">
     <g id="line2d_14">
      <g>
       <use xlink:href="#m7b7f80105e" x="126" y="84.182569" style="stroke: #000000; stroke-width: 0.8"/>
      </g>
     </g>
     <g id="text_15">
      <!-- 1.4 -->
      <g transform="translate(103.096875 87.981788)scale(0.1 -0.1)">
       <use xlink:href="#DejaVuSans-31"/>
       <use xlink:href="#DejaVuSans-2e" x="63.623047"/>
       <use xlink:href="#DejaVuSans-34" x="95.410156"/>
      </g>
     </g>
    </g>
    <g id="text_16">
     <!-- Quadratic Covariation -->
     <g transform="translate(97.017187 272.970156)rotate(-90)scale(0.1 -0.1)">
      <defs>
       <path id="DejaVuSans-51" d="M 2522 4238 
Q 1834 4238 1429 3725 
Q 1025 3213 1025 2328 
Q 1025 1447 1429 934 
Q 1834 422 2522 422 
Q 3209 422 3611 934 
Q 4013 1447 4013 2328 
Q 4013 3213 3611 3725 
Q 3209 4238 2522 4238 
z
M 3406 84 
L 4238 -825 
L 3475 -825 
L 2784 -78 
Q 2681 -84 2626 -87 
Q 2572 -91 2522 -91 
Q 1538 -91 948 567 
Q 359 1225 359 2328 
Q 359 3434 948 4092 
Q 1538 4750 2522 4750 
Q 3503 4750 4090 4092 
Q 4678 3434 4678 2328 
Q 4678 1516 4351 937 
Q 4025 359 3406 84 
z
" transform="scale(0.015625)"/>
       <path id="DejaVuSans-75" d="M 544 1381 
L 544 3500 
L 1119 3500 
L 1119 1403 
Q 1119 906 1312 657 
Q 1506 409 1894 409 
Q 2359 409 2629 706 
Q 2900 1003 2900 1516 
L 2900 3500 
L 3475 3500 
L 3475 0 
L 2900 0 
L 2900 538 
Q 2691 219 2414 64 
Q 2138 -91 1772 -91 
Q 1169 -91 856 284 
Q 544 659 544 1381 
z
M 1991 3584 
L 1991 3584 
z
" transform="scale(0.015625)"/>
       <path id="DejaVuSans-61" d="M 2194 1759 
Q 1497 1759 1228 1600 
Q 959 1441 959 1056 
Q 959 750 1161 570 
Q 1363 391 1709 391 
Q 2188 391 2477 730 
Q 2766 1069 2766 1631 
L 2766 1759 
L 2194 1759 
z
M 3341 1997 
L 3341 0 
L 2766 0 
L 2766 531 
Q 2569 213 2275 61 
Q 1981 -91 1556 -91 
Q 1019 -91 701 211 
Q 384 513 384 1019 
Q 384 1609 779 1909 
Q 1175 2209 1959 2209 
L 2766 2209 
L 2766 2266 
Q 2766 2663 2505 2880 
Q 2244 3097 1772 3097 
Q 1472 3097 1187 3025 
Q 903 2953 641 2809 
L 641 3341 
Q 956 3463 1253 3523 
Q 1550 3584 1831 3584 
Q 2591 3584 2966 3190 
Q 3341 2797 3341 1997 
z
" transform="scale(0.015625)"/>
       <path id="DejaVuSans-64" d="M 2906 2969 
L 2906 4863 
L 3481 4863 
L 3481 0 
L 2906 0 
L 2906 525 
Q 2725 213 2448 61 
Q 2172 -91 1784 -91 
Q 1150 -91 751 415 
Q 353 922 353 1747 
Q 353 2572 751 3078 
Q 1150 3584 1784 3584 
Q 2172 3584 2448 3432 
Q 2725 3281 2906 2969 
z
M 947 1747 
Q 947 1113 1208 752 
Q 1469 391 1925 391 
Q 2381 391 2643 752 
Q 2906 1113 2906 1747 
Q 2906 2381 2643 2742 
Q 2381 3103 1925 3103 
Q 1469 3103 1208 2742 
Q 947 2381 947 1747 
z
" transform="scale(0.015625)"/>
       <path id="DejaVuSans-72" d="M 2631 2963 
Q 2534 3019 2420 3045 
Q 2306 3072 2169 3072 
Q 1681 3072 1420 2755 
Q 1159 2438 1159 1844 
L 1159 0 
L 581 0 
L 581 3500 
L 1159 3500 
L 1159 2956 
Q 1341 3275 1631 3429 
Q 1922 3584 2338 3584 
Q 2397 3584 2469 3576 
Q 2541 3569 2628 3553 
L 2631 2963 
z
" transform="scale(0.015625)"/>
       <path id="DejaVuSans-74" d="M 1172 4494 
L 1172 3500 
L 2356 3500 
L 2356 3053 
L 1172 3053 
L 1172 1153 
Q 1172 725 1289 603 
Q 1406 481 1766 481 
L 2356 481 
L 2356 0 
L 1766 0 
Q 1100 0 847 248 
Q 594 497 594 1153 
L 594 3053 
L 172 3053 
L 172 3500 
L 594 3500 
L 594 4494 
L 1172 4494 
z
" transform="scale(0.015625)"/>
       <path id="DejaVuSans-63" d="M 3122 3366 
L 3122 2828 
Q 2878 2963 2633 3030 
Q 2388 3097 2138 3097 
Q 1578 3097 1268 2742 
Q 959 2388 959 1747 
Q 959 1106 1268 751 
Q 1578 397 2138 397 
Q 2388 397 2633 464 
Q 2878 531 3122 666 
L 3122 134 
Q 2881 22 2623 -34 
Q 2366 -91 2075 -91 
Q 1284 -91 818 406 
Q 353 903 353 1747 
Q 353 2603 823 3093 
Q 1294 3584 2113 3584 
Q 2378 3584 2631 3529 
Q 2884 3475 3122 3366 
z
" transform="scale(0.015625)"/>
       <path id="DejaVuSans-20" transform="scale(0.015625)"/>
       <path id="DejaVuSans-43" d="M 4122 4306 
L 4122 3641 
Q 3803 3938 3442 4084 
Q 3081 4231 2675 4231 
Q 1875 4231 1450 3742 
Q 1025 3253 1025 2328 
Q 1025 1406 1450 917 
Q 1875 428 2675 428 
Q 3081 428 3442 575 
Q 3803 722 4122 1019 
L 4122 359 
Q 3791 134 3420 21 
Q 3050 -91 2638 -91 
Q 1578 -91 968 557 
Q 359 1206 359 2328 
Q 359 3453 968 4101 
Q 1578 4750 2638 4750 
Q 3056 4750 3426 4639 
Q 3797 4528 4122 4306 
z
" transform="scale(0.015625)"/>
       <path id="DejaVuSans-6f" d="M 1959 3097 
Q 1497 3097 1228 2736 
Q 959 2375 959 1747 
Q 959 1119 1226 758 
Q 1494 397 1959 397 
Q 2419 397 2687 759 
Q 2956 1122 2956 1747 
Q 2956 2369 2687 2733 
Q 2419 3097 1959 3097 
z
M 1959 3584 
Q 2709 3584 3137 3096 
Q 3566 2609 3566 1747 
Q 3566 888 3137 398 
Q 2709 -91 1959 -91 
Q 1206 -91 779 398 
Q 353 888 353 1747 
Q 353 2609 779 3096 
Q 1206 3584 1959 3584 
z
" transform="scale(0.015625)"/>
       <path id="DejaVuSans-76" d="M 191 3500 
L 800 3500 
L 1894 563 
L 2988 3500 
L 3597 3500 
L 2284 0 
L 1503 0 
L 191 3500 
z
" transform="scale(0.015625)"/>
       <path id="DejaVuSans-6e" d="M 3513 2113 
L 3513 0 
L 2938 0 
L 2938 2094 
Q 2938 2591 2744 2837 
Q 2550 3084 2163 3084 
Q 1697 3084 1428 2787 
Q 1159 2491 1159 1978 
L 1159 0 
L 581 0 
L 581 3500 
L 1159 3500 
L 1159 2956 
Q 1366 3272 1645 3428 
Q 1925 3584 2291 3584 
Q 2894 3584 3203 3211 
Q 3513 2838 3513 2113 
z
" transform="scale(0.015625)"/>
      </defs>
      <use xlink:href="#DejaVuSans-51"/>
      <use xlink:href="#DejaVuSans-75" x="78.710938"/>
      <use xlink:href="#DejaVuSans-61" x="142.089844"/>
      <use xlink:href="#DejaVuSans-64" x="203.369141"/>
      <use xlink:href="#DejaVuSans-72" x="266.845703"/>
      <use xlink:href="#DejaVuSans-61" x="307.958984"/>
      <use xlink:href="#DejaVuSans-74" x="369.238281"/>
      <use xlink:href="#DejaVuSans-69" x="408.447266"/>
      <use xlink:href="#DejaVuSans-63" x="436.230469"/>
      <use xlink:href="#DejaVuSans-20" x="491.210938"/>
      <use xlink:href="#DejaVuSans-43" x="522.998047"/>
      <use xlink:href="#DejaVuSans-6f" x="592.822266"/>
      <use xlink:href="#DejaVuSans-76" x="654.003906"/>
      <use xlink:href="#DejaVuSans-61" x="713.183594"/>
      <use xlink:href="#DejaVuSans-72" x="774.462891"/>
      <use xlink:href="#DejaVuSans-69" x="815.576172"/>
      <use xlink:href="#DejaVuSans-61" x="843.359375"/>
      <use xlink:href="#DejaVuSans-74" x="904.638672"/>
      <use xlink:href="#DejaVuSans-69" x="943.847656"/>
      <use xlink:href="#DejaVuSans-6f" x="971.630859"/>
      <use xlink:href="#DejaVuSans-6e" x="1032.8125"/>
     </g>
    </g>
   </g>
   <g id="line2d_15">
    <path d="M 161.509091 165.661577 
L 162.219273 165.575894 
L 162.929455 166.002059 
L 164.349818 167.459236 
L 165.06 166.821966 
L 165.770182 167.391279 
L 166.480364 168.879605 
L 167.190545 168.465839 
L 167.900727 170.637748 
L 168.610909 171.441959 
L 169.321091 171.483033 
L 170.031273 170.491005 
L 170.741455 169.987598 
L 171.451636 168.516777 
L 172.161818 170.366039 
L 172.872 169.879675 
L 173.582182 169.67381 
L 174.292364 171.511517 
L 175.002545 169.577613 
L 175.712727 168.737875 
L 176.422909 168.128043 
L 177.133091 168.111628 
L 177.843273 166.587038 
L 178.553455 166.287315 
L 179.263636 165.633974 
L 179.973818 165.503956 
L 180.684 164.820211 
L 181.394182 162.397312 
L 182.104364 162.680359 
L 182.814545 162.803598 
L 183.524727 161.977417 
L 184.234909 161.637031 
L 184.945091 161.684826 
L 185.655273 163.271423 
L 186.365455 165.156828 
L 187.075636 163.177151 
L 187.785818 161.867315 
L 188.496 160.058548 
L 189.206182 160.007481 
L 189.916364 161.046121 
L 190.626545 163.471818 
L 191.336727 162.784698 
L 192.046909 163.291626 
L 192.757091 163.328486 
L 193.467273 163.128517 
L 194.177455 162.715639 
L 194.887636 163.390482 
L 195.597818 166.638348 
L 196.308 168.506048 
L 197.018182 167.857205 
L 197.728364 167.767567 
L 198.438545 166.281355 
L 199.148727 166.707861 
L 199.858909 165.778624 
L 200.569091 166.963614 
L 201.279273 166.113401 
L 201.989455 166.916273 
L 202.699636 166.731971 
L 204.12 167.467555 
L 204.830182 169.926074 
L 205.540364 169.952316 
L 206.250545 171.746454 
L 206.960727 172.887939 
L 207.670909 171.426712 
L 208.381091 170.95917 
L 209.091273 170.816666 
L 209.801455 171.61141 
L 210.511636 172.125397 
L 211.221818 173.512156 
L 211.932 173.404888 
L 212.642182 175.160228 
L 213.352364 174.058631 
L 214.062545 175.666729 
L 214.772727 173.358836 
L 215.482909 172.72214 
L 216.193091 172.439941 
L 217.613455 170.798833 
L 218.323636 169.448899 
L 219.033818 170.912353 
L 219.744 173.461475 
L 220.454182 172.614186 
L 221.874545 174.591275 
L 222.584727 174.885502 
L 224.005091 170.425251 
L 224.715273 170.198377 
L 225.425455 170.523168 
L 226.135636 167.46034 
L 226.845818 167.916697 
L 227.556 168.95091 
L 228.266182 170.380684 
L 228.976364 168.703032 
L 229.686545 168.171905 
L 230.396727 169.581168 
L 231.106909 169.10863 
L 231.817091 169.157925 
L 232.527273 169.548358 
L 233.237455 170.208445 
L 233.947636 168.469546 
L 234.657818 168.254425 
L 235.368 167.736652 
L 236.078182 166.82788 
L 236.788364 166.278471 
L 237.498545 164.938246 
L 238.208727 166.288655 
L 238.918909 165.985151 
L 239.629091 165.184541 
L 240.339273 167.320191 
L 241.049455 166.581432 
L 241.759636 168.817217 
L 242.469818 167.101469 
L 243.18 167.775018 
L 243.890182 166.946985 
L 244.600364 168.207666 
L 245.310545 167.676982 
L 246.020727 167.420157 
L 246.730909 167.377089 
L 247.441091 167.536194 
L 248.151273 167.83448 
L 248.861455 168.649029 
L 249.571636 169.645237 
L 250.281818 170.257793 
L 250.992 170.355495 
L 251.702182 168.839226 
L 253.122545 168.172461 
L 253.832727 166.959012 
L 254.542909 165.117907 
L 255.253091 163.914296 
L 255.963273 163.659298 
L 256.673455 162.46071 
L 257.383636 164.130394 
L 258.093818 165.496579 
L 258.804 164.839729 
L 259.514182 168.25399 
L 260.224364 165.539096 
L 260.934545 163.659481 
L 262.354909 167.363299 
L 263.065091 166.303634 
L 263.775273 167.391988 
L 264.485455 169.000277 
L 265.195636 167.199805 
L 265.905818 169.771062 
L 266.616 168.720368 
L 267.326182 168.394175 
L 268.036364 170.604222 
L 268.746545 169.794769 
L 269.456727 169.225201 
L 270.166909 168.388227 
L 270.877091 168.112951 
L 271.587273 167.010918 
L 273.007636 166.242838 
L 273.717818 165.42735 
L 274.428 168.435189 
L 275.138182 167.693506 
L 275.848364 168.886938 
L 276.558545 169.663262 
L 277.268727 168.856865 
L 277.978909 169.314871 
L 278.689091 169.392632 
L 279.399273 170.887428 
L 280.109455 169.875401 
L 280.819636 170.638054 
L 281.529818 169.317064 
L 282.24 168.45185 
L 282.950182 168.029116 
L 283.660364 167.357219 
L 284.370545 167.955987 
L 285.080727 167.033236 
L 285.790909 167.986669 
L 286.501091 167.380984 
L 287.211273 167.939892 
L 287.921455 167.762415 
L 288.631636 169.034487 
L 289.341818 170.561685 
L 290.052 171.424545 
L 290.762182 170.735891 
L 291.472364 171.673658 
L 292.182545 170.666268 
L 292.892727 171.098183 
L 293.602909 169.464106 
L 294.313091 171.594064 
L 295.023273 171.760636 
L 295.733455 172.319002 
L 296.443636 172.245363 
L 297.153818 170.655632 
L 298.574182 174.802737 
L 299.284364 171.596019 
L 299.994545 169.137125 
L 300.704727 169.560639 
L 301.414909 166.920972 
L 302.125091 166.507106 
L 302.835273 167.505497 
L 303.545455 166.533943 
L 304.255636 167.429802 
L 305.676 166.850539 
L 306.386182 166.126034 
L 307.096364 163.149167 
L 307.806545 164.001022 
L 309.226909 162.142423 
L 310.647273 157.736835 
L 311.357455 159.145133 
L 312.067636 159.091173 
L 312.777818 159.62234 
L 313.488 159.881825 
L 314.198182 158.880024 
L 314.908364 159.635197 
L 315.618545 158.361675 
L 316.328727 155.930902 
L 317.749091 155.367616 
L 318.459273 154.203468 
L 319.169455 155.315793 
L 320.589818 152.403376 
L 321.3 152.539796 
L 322.010182 153.54014 
L 322.720364 151.816227 
L 323.430545 149.18238 
L 324.140727 149.137849 
L 324.850909 150.433211 
L 325.561091 151.009825 
L 326.271273 151.409545 
L 326.981455 151.651435 
L 328.401818 149.602022 
L 329.112 146.194979 
L 330.532364 146.063055 
L 331.242545 142.795961 
L 331.952727 143.104396 
L 332.662909 141.995886 
L 333.373091 142.986574 
L 334.083273 144.209266 
L 334.793455 143.044743 
L 335.503636 145.162586 
L 336.213818 145.481429 
L 336.924 146.25129 
L 337.634182 144.95969 
L 338.344364 144.85315 
L 339.054545 143.281814 
L 339.764727 145.390311 
L 340.474909 145.354547 
L 341.185091 146.684961 
L 341.895273 145.500513 
L 342.605455 147.663473 
L 343.315636 147.654198 
L 344.025818 148.264634 
L 344.736 147.854443 
L 345.446182 150.454784 
L 346.156364 150.043455 
L 346.866545 149.963828 
L 347.576727 150.455577 
L 348.286909 150.627968 
L 348.997091 150.519922 
L 349.707273 147.941593 
L 350.417455 149.482805 
L 351.127636 147.122778 
L 351.837818 146.923838 
L 352.548 146.533365 
L 353.258182 146.391526 
L 353.968364 145.755642 
L 354.678545 146.40831 
L 355.388727 145.738985 
L 356.098909 145.629769 
L 356.809091 143.428794 
L 357.519273 143.003148 
L 358.229455 143.930828 
L 358.939636 143.327859 
L 359.649818 144.173072 
L 360.36 143.209357 
L 361.070182 144.477175 
L 361.780364 143.955643 
L 362.490545 141.606462 
L 363.200727 140.881382 
L 363.910909 140.875601 
L 364.621091 141.480274 
L 365.331273 141.545883 
L 366.041455 142.70966 
L 367.461818 143.191859 
L 368.172 145.894552 
L 368.882182 146.752553 
L 370.302545 147.91017 
L 371.012727 145.540144 
L 371.722909 145.332321 
L 372.433091 144.039527 
L 373.143273 144.424761 
L 373.853455 145.136597 
L 374.563636 146.83649 
L 375.273818 145.238427 
L 376.694182 144.182156 
L 377.404364 141.926805 
L 378.114545 141.480556 
L 378.824727 141.579016 
L 379.534909 141.174784 
L 380.245091 139.979233 
L 380.955273 139.53977 
L 381.665455 139.472586 
L 382.375636 140.61814 
L 384.506182 139.039058 
L 385.216364 138.976405 
L 385.926545 138.347137 
L 386.636727 139.277593 
L 387.346909 139.804418 
L 388.057091 139.86105 
L 388.767273 138.645776 
L 389.477455 139.108327 
L 390.187636 139.109067 
L 390.897818 139.49983 
L 391.608 138.842737 
L 392.318182 137.071775 
L 393.028364 136.769176 
L 393.738545 135.710281 
L 394.448727 135.395743 
L 395.158909 134.230587 
L 395.869091 133.313731 
L 396.579273 133.679521 
L 397.289455 133.741572 
L 397.999636 134.968725 
L 398.709818 134.427827 
L 399.42 135.95439 
L 400.130182 135.593486 
L 400.840364 137.361518 
L 402.260727 135.439251 
L 402.970909 135.182137 
L 403.681091 134.638708 
L 404.391273 133.225007 
L 405.101455 135.190197 
L 406.521818 133.614218 
L 407.232 133.59618 
L 407.942182 132.116663 
L 408.652364 129.744727 
L 409.362545 128.930722 
L 410.072727 129.137138 
L 410.782909 125.793493 
L 411.493091 127.898347 
L 412.203273 129.076714 
L 412.913455 129.503149 
L 414.333818 125.862773 
L 415.044 126.701856 
L 415.754182 126.487105 
L 416.464364 125.125131 
L 417.174545 127.293842 
L 417.884727 126.597491 
L 418.594909 124.741354 
L 419.305091 125.148618 
L 420.725455 122.361407 
L 421.435636 121.661305 
L 422.145818 121.827094 
L 422.856 119.751166 
L 424.276364 119.407166 
L 424.986545 120.415187 
L 425.696727 118.234636 
L 426.406909 118.049893 
L 427.117091 117.227473 
L 427.827273 114.918527 
L 428.537455 115.318113 
L 429.247636 115.850771 
L 429.957818 116.983994 
L 430.668 114.138503 
L 431.378182 113.835178 
L 432.088364 113.917967 
L 432.798545 115.983493 
L 433.508727 116.329992 
L 434.218909 118.960392 
L 434.929091 120.302178 
L 435.639273 119.941863 
L 437.059636 119.994355 
L 437.769818 121.832858 
L 438.48 122.623347 
L 439.190182 121.976796 
L 440.610545 124.729486 
L 441.320727 124.656388 
L 442.030909 123.425129 
L 442.741091 122.438271 
L 443.451273 122.45118 
L 444.161455 121.809378 
L 444.871636 122.227819 
L 445.581818 124.886733 
L 446.292 125.487186 
L 447.002182 124.993577 
L 447.712364 122.612921 
L 448.422545 124.083901 
L 449.842909 122.374849 
L 450.553091 123.042929 
L 451.263273 122.948041 
L 451.973455 119.824754 
L 452.683636 120.161462 
L 453.393818 119.432285 
L 454.104 119.513331 
L 454.814182 119.10138 
L 455.524364 119.127384 
L 456.234545 119.288521 
L 456.944727 118.063879 
L 457.654909 119.67122 
L 458.365091 120.797157 
L 459.075273 119.825427 
L 459.785455 120.477623 
L 460.495636 121.43343 
L 461.205818 121.003267 
L 461.916 119.405832 
L 462.626182 119.243225 
L 463.336364 118.744066 
L 464.046545 119.407807 
L 465.466909 116.320234 
L 466.177091 114.105599 
L 466.887273 114.085169 
L 468.307636 113.839255 
L 469.017818 112.329691 
L 469.728 109.31722 
L 470.438182 109.157781 
L 471.148364 110.0972 
L 471.858545 108.243935 
L 472.568727 108.836947 
L 473.278909 109.25327 
L 473.989091 108.905522 
L 474.699273 108.729571 
L 475.409455 109.007609 
L 476.119636 108.9224 
L 476.829818 110.42774 
L 477.54 110.609255 
L 478.250182 111.483532 
L 478.960364 110.683362 
L 479.670545 109.412168 
L 480.380727 109.002087 
L 481.090909 108.388294 
L 481.801091 109.733034 
L 482.511273 109.922795 
L 483.931636 109.737584 
L 484.641818 110.469507 
L 485.352 107.671572 
L 486.062182 110.773745 
L 486.772364 109.068236 
L 488.192727 109.206889 
L 488.902909 109.61451 
L 489.613091 110.806042 
L 490.323273 109.402051 
L 491.033455 110.094669 
L 491.743636 111.845985 
L 492.453818 110.13319 
L 493.164 111.759755 
L 493.874182 110.839808 
L 494.584364 107.596899 
L 495.294545 108.272273 
L 496.004727 108.222776 
L 496.714909 108.465919 
L 497.425091 105.859001 
L 498.135273 108.076533 
L 498.845455 107.255955 
L 499.555636 110.015496 
L 500.265818 110.423304 
L 500.976 109.349696 
L 501.686182 107.51759 
L 502.396364 108.046535 
L 503.106545 106.425778 
L 503.816727 107.213578 
L 504.526909 107.367705 
L 505.237091 106.362079 
L 505.947273 103.904812 
L 506.657455 104.026076 
L 507.367636 101.786488 
L 508.077818 101.925011 
L 508.788 102.740272 
L 509.498182 104.092528 
L 510.208364 104.723701 
L 510.918545 104.958776 
L 511.628727 102.984171 
L 513.049091 104.295545 
L 513.759273 106.726771 
L 514.469455 106.848693 
L 515.179636 105.300297 
L 515.889818 106.745442 
L 516.6 106.847258 
L 517.310182 106.410143 
L 518.020364 105.113609 
L 518.730545 105.222599 
L 519.440727 106.565937 
L 520.150909 105.673259 
L 520.861091 105.392428 
L 521.571273 107.062205 
L 522.281455 107.045842 
L 522.991636 107.431402 
L 523.701818 109.687946 
L 524.412 110.586774 
L 526.542545 115.49586 
L 527.252727 115.080434 
L 527.962909 115.584302 
L 528.673091 112.31329 
L 529.383273 111.650375 
L 530.093455 113.502703 
L 530.803636 112.998933 
L 531.513818 115.262024 
L 532.224 116.072303 
L 532.934182 115.526256 
L 533.644364 112.946026 
L 534.354545 111.713563 
L 535.064727 111.833529 
L 535.774909 109.7182 
L 536.485091 109.735148 
L 537.195273 110.508523 
L 537.905455 109.003643 
L 538.615636 110.271994 
L 539.325818 112.030851 
L 540.036 113.333951 
L 540.746182 112.817317 
L 541.456364 112.516063 
L 542.166545 112.564774 
L 542.876727 112.729411 
L 543.586909 113.992663 
L 544.297091 112.324628 
L 545.717455 117.254951 
L 546.427636 117.068541 
L 547.137818 118.934521 
L 547.848 119.021969 
L 548.558182 120.407452 
L 549.268364 118.366275 
L 549.978545 119.941028 
L 550.688727 120.25943 
L 551.398909 120.941274 
L 552.109091 120.478927 
L 552.819273 121.655309 
L 554.239636 120.153426 
L 555.66 122.170452 
L 556.370182 120.249862 
L 557.080364 120.802933 
L 557.790545 120.372951 
L 558.500727 120.722566 
L 559.210909 120.498493 
L 559.921091 118.393307 
L 560.631273 118.583307 
L 561.341455 118.424716 
L 562.051636 117.697813 
L 562.761818 118.123162 
L 563.472 119.521687 
L 564.182182 120.64735 
L 564.892364 121.376796 
L 565.602545 122.532958 
L 566.312727 122.331156 
L 567.022909 124.487881 
L 567.733091 122.956389 
L 568.443273 122.878776 
L 569.153455 123.209952 
L 569.863636 122.517619 
L 570.573818 123.463389 
L 571.284 124.973438 
L 571.994182 124.513456 
L 572.704364 125.117853 
L 573.414545 124.140439 
L 574.124727 126.501274 
L 575.545091 129.030591 
L 576.255273 128.925013 
L 576.965455 128.132008 
L 577.675636 128.67499 
L 579.096 128.769435 
L 579.806182 128.635813 
L 580.516364 127.528726 
L 581.226545 127.228664 
L 581.936727 130.356396 
L 582.646909 129.290021 
L 584.067273 129.839733 
L 584.777455 130.619994 
L 585.487636 129.262173 
L 586.197818 128.73824 
L 586.908 127.191846 
L 587.618182 124.652571 
L 589.038545 121.25561 
L 589.748727 122.61945 
L 590.458909 121.273337 
L 591.169091 121.950388 
L 591.879273 122.414976 
L 592.589455 121.171179 
L 593.299636 119.177786 
L 594.009818 120.66004 
L 594.72 119.9138 
L 595.430182 120.3797 
L 596.140364 120.249002 
L 596.850545 119.845814 
L 597.560727 120.552884 
L 598.270909 123.360028 
L 598.981091 123.477161 
L 599.691273 121.617327 
L 601.111636 120.434158 
L 601.821818 121.318399 
L 602.532 122.504789 
L 603.242182 122.355355 
L 603.952364 123.207167 
L 604.662545 124.725439 
L 605.372727 124.001341 
L 606.082909 122.541388 
L 606.793091 121.398215 
L 607.503273 122.536539 
L 608.213455 124.566043 
L 608.923636 121.991342 
L 609.633818 120.565136 
L 610.344 120.067879 
L 611.054182 118.685739 
L 611.764364 119.789522 
L 612.474545 120.543449 
L 613.184727 118.479976 
L 613.894909 118.301606 
L 614.605091 116.403395 
L 615.315273 116.683376 
L 616.025455 114.813946 
L 616.735636 116.008183 
L 617.445818 114.262719 
L 618.156 117.437261 
L 618.866182 118.619925 
L 619.576364 115.864371 
L 620.286545 115.233948 
L 620.996727 115.879025 
L 621.706909 116.865697 
L 622.417091 115.928382 
L 623.127273 116.117289 
L 623.837455 116.842302 
L 624.547636 115.052044 
L 625.257818 112.166605 
L 625.968 112.417269 
L 626.678182 110.834335 
L 627.388364 110.45978 
L 628.098545 108.934055 
L 628.808727 109.865957 
L 629.518909 111.186274 
L 630.229091 113.18202 
L 630.939273 113.409069 
L 631.649455 113.086856 
L 633.069818 113.64052 
L 633.78 114.663467 
L 634.490182 113.469216 
L 635.200364 114.843753 
L 635.910545 116.773266 
L 637.330909 118.53441 
L 638.041091 120.274087 
L 638.751273 119.546859 
L 639.461455 120.414071 
L 640.171636 118.701641 
L 640.881818 119.07525 
L 641.592 117.203426 
L 643.012364 119.827337 
L 643.722545 120.073695 
L 644.432727 119.607278 
L 645.142909 118.975138 
L 645.853091 119.31061 
L 646.563273 119.908572 
L 647.273455 120.09804 
L 647.983636 119.45799 
L 648.693818 118.009846 
L 649.404 119.277837 
L 650.114182 120.170719 
L 650.824364 122.857931 
L 652.244727 126.059148 
L 652.954909 127.376117 
L 653.665091 125.519051 
L 654.375273 125.642607 
L 655.085455 124.097211 
L 655.795636 123.059566 
L 656.505818 122.876163 
L 657.216 122.160748 
L 657.926182 123.84304 
L 658.636364 123.949651 
L 659.346545 125.287999 
L 660.056727 127.259557 
L 660.766909 128.412035 
L 662.187273 131.652219 
L 662.897455 131.86168 
L 663.607636 131.845392 
L 664.317818 128.957982 
L 665.028 130.493579 
L 665.738182 130.368696 
L 666.448364 130.503635 
L 667.158545 131.871829 
L 667.868727 131.437529 
L 668.578909 132.455169 
L 669.289091 133.196248 
L 669.999273 131.154192 
L 670.709455 130.420556 
L 671.419636 130.256325 
L 672.129818 130.671669 
L 672.84 131.481132 
L 673.550182 133.36589 
L 674.970545 134.079871 
L 675.680727 131.585092 
L 676.390909 131.550157 
L 677.101091 129.719316 
L 677.811273 128.721242 
L 678.521455 129.093353 
L 679.231636 128.95128 
L 680.652 127.187214 
L 681.362182 126.970812 
L 682.072364 128.42763 
L 682.782545 128.302366 
L 683.492727 127.964726 
L 684.202909 126.760337 
L 685.623273 128.626833 
L 686.333455 127.673912 
L 687.043636 128.717674 
L 687.753818 129.322759 
L 688.464 131.619414 
L 689.174182 132.625092 
L 689.884364 132.848993 
L 690.594545 135.058524 
L 691.304727 133.336282 
L 692.725091 135.607703 
L 693.435273 136.427053 
L 694.145455 135.755684 
L 694.855636 135.41387 
L 696.276 132.74896 
L 696.986182 132.231487 
L 697.696364 132.673287 
L 698.406545 132.551808 
L 699.116727 131.005949 
L 699.826909 130.556311 
L 700.537091 129.576848 
L 701.247273 129.784989 
L 701.957455 129.232224 
L 702.667636 127.613366 
L 703.377818 127.001369 
L 704.798182 128.992831 
L 705.508364 128.085334 
L 706.218545 128.4587 
L 706.928727 127.044422 
L 707.638909 125.292782 
L 708.349091 125.929835 
L 709.059273 124.45577 
L 711.189818 126.374554 
L 711.9 125.572466 
L 712.610182 126.019665 
L 713.320364 123.302812 
L 714.030545 124.807439 
L 714.740727 124.498641 
L 715.450909 124.043889 
L 716.161091 124.174843 
L 716.871273 122.762313 
L 717.581455 122.008231 
L 718.291636 120.673518 
L 719.001818 120.518506 
L 720.422182 119.319661 
L 721.132364 118.289224 
L 721.842545 117.674015 
L 723.262909 118.972481 
L 723.973091 117.737922 
L 724.683273 120.082481 
L 725.393455 120.148758 
L 726.103636 122.441553 
L 726.813818 120.524152 
L 727.524 119.755354 
L 728.234182 120.452116 
L 728.944364 120.502509 
L 729.654545 119.732001 
L 730.364727 121.755539 
L 731.074909 121.429145 
L 731.785091 119.422977 
L 732.495273 119.912141 
L 733.205455 122.383518 
L 733.915636 122.633357 
L 734.625818 123.310527 
L 735.336 122.864574 
L 736.046182 121.161335 
L 736.756364 121.079912 
L 737.466545 121.228247 
L 738.176727 119.660851 
L 738.886909 118.941399 
L 739.597091 118.642547 
L 741.017455 117.431189 
L 741.727636 116.208855 
L 742.437818 116.841363 
L 743.148 116.881021 
L 743.858182 114.017078 
L 745.278545 111.940478 
L 745.988727 111.547637 
L 746.698909 112.596337 
L 747.409091 110.554581 
L 748.119273 111.193783 
L 748.829455 112.238944 
L 749.539636 110.939838 
L 750.249818 110.414743 
L 750.96 108.676077 
L 751.670182 108.011148 
L 752.380364 107.772344 
L 753.090545 104.404615 
L 753.800727 102.718329 
L 754.510909 101.664367 
L 755.221091 101.361331 
L 756.641455 104.384099 
L 757.351636 102.161048 
L 758.061818 102.095138 
L 758.772 103.675447 
L 759.482182 102.001196 
L 760.192364 100.666916 
L 760.902545 100.005404 
L 761.612727 101.443668 
L 762.322909 100.333744 
L 763.033091 99.573363 
L 763.743273 99.11248 
L 764.453455 100.687806 
L 765.163636 101.09952 
L 765.873818 97.384061 
L 766.584 95.051754 
L 767.294182 93.846581 
L 768.004364 93.868921 
L 769.424727 93.637486 
L 770.134909 92.374151 
L 771.555273 88.928982 
L 772.265455 88.200402 
L 772.975636 87.671439 
L 773.685818 88.11544 
L 774.396 86.756483 
L 775.106182 86.788988 
L 775.816364 87.241096 
L 776.526545 86.84444 
L 777.236727 87.856375 
L 777.946909 87.890051 
L 778.657091 86.836961 
L 779.367273 86.694362 
L 780.077455 86.354463 
L 780.787636 86.393714 
L 781.497818 85.929385 
L 782.208 86.543044 
L 782.918182 87.521872 
L 783.628364 88.161018 
L 784.338545 89.434108 
L 785.048727 87.402519 
L 785.758909 87.312375 
L 786.469091 85.201818 
L 787.179273 85.752475 
L 787.889455 87.26414 
L 788.599636 87.006115 
L 789.309818 87.741571 
L 790.02 87.404721 
L 790.730182 86.620508 
L 791.440364 87.827799 
L 792.150545 87.789999 
L 792.860727 87.507225 
L 793.570909 85.091381 
L 794.281091 84.144851 
L 794.991273 82.267439 
L 795.701455 83.01797 
L 796.411636 83.301053 
L 797.121818 82.664074 
L 797.832 80.978908 
L 798.542182 81.420399 
L 799.252364 80.572905 
L 799.962545 83.657627 
L 800.672727 83.166643 
L 801.382909 85.370454 
L 802.093091 85.387791 
L 802.803273 88.600018 
L 804.223636 91.093732 
L 804.933818 91.683904 
L 805.644 91.922694 
L 806.354182 90.742105 
L 807.064364 91.899155 
L 807.774545 91.487762 
L 808.484727 90.125952 
L 809.194909 91.297455 
L 809.905091 90.669423 
L 810.615273 90.677009 
L 811.325455 91.349935 
L 812.035636 92.818742 
L 812.745818 92.736557 
L 813.456 92.501144 
L 814.166182 91.122191 
L 815.586545 91.339397 
L 816.296727 89.188908 
L 817.006909 90.302236 
L 817.717091 87.912807 
L 818.427273 88.121965 
L 819.137455 87.545201 
L 819.847636 87.152892 
L 820.557818 85.521737 
L 821.268 84.521409 
L 821.978182 84.941531 
L 822.688364 84.888054 
L 824.108727 87.25274 
L 824.818909 86.004505 
L 825.529091 88.316411 
L 826.239273 86.542564 
L 826.949455 86.052534 
L 827.659636 86.101182 
L 828.369818 88.615167 
L 829.08 88.318595 
L 829.790182 86.417999 
L 830.500364 86.167555 
L 831.210545 84.512236 
L 832.630909 80.539973 
L 834.051273 81.059884 
L 834.761455 80.740885 
L 835.471636 79.297249 
L 836.181818 80.430218 
L 836.892 78.305792 
L 837.602182 79.680267 
L 838.312364 80.382027 
L 839.022545 78.753816 
L 839.732727 78.131411 
L 840.442909 79.026551 
L 841.153091 78.10948 
L 841.863273 76.600947 
L 842.573455 77.408567 
L 843.283636 77.184949 
L 843.993818 76.658341 
L 845.414182 74.747237 
L 846.124364 75.008994 
L 847.544727 79.027682 
L 848.254909 78.056566 
L 848.965091 77.790426 
L 850.385455 75.696932 
L 851.095636 76.286279 
L 851.805818 75.720243 
L 852.516 75.990802 
L 853.226182 74.74906 
L 853.936364 74.407898 
L 854.646545 74.511578 
L 855.356727 73.945971 
L 856.066909 72.78821 
L 856.777091 73.892099 
L 857.487273 74.266932 
L 858.197455 73.06906 
L 858.907636 72.880262 
L 859.617818 73.849168 
L 860.328 71.612217 
L 861.038182 69.861502 
L 861.748364 69.777674 
L 862.458545 70.945741 
L 863.168727 68.089542 
L 863.878909 69.215325 
L 864.589091 69.238011 
L 865.299273 69.58039 
L 866.009455 69.260607 
L 866.719636 71.550358 
L 867.429818 70.899516 
L 868.14 68.834331 
L 868.850182 67.552232 
L 869.560364 69.463254 
L 870.270545 68.14607 
L 870.980727 68.05418 
L 871.690909 66.96 
L 871.690909 66.96 
" clip-path="url(#p6cbac15f67)" style="fill: none; stroke: #1f77b4; stroke-width: 1.5; stroke-linecap: square"/>
   </g>
   <g id="line2d_16">
    <path d="M 161.509091 165.661577 
L 162.929455 164.712017 
L 164.349818 168.783929 
L 165.06 170.545264 
L 165.770182 171.115521 
L 166.480364 174.296991 
L 167.190545 173.594613 
L 167.900727 176.465677 
L 168.610909 176.590282 
L 169.321091 176.066958 
L 170.031273 173.444745 
L 170.741455 174.709216 
L 171.451636 173.717297 
L 172.161818 177.589766 
L 172.872 177.532107 
L 173.582182 176.146969 
L 174.292364 177.004469 
L 175.002545 176.070304 
L 175.712727 176.430854 
L 176.422909 176.531354 
L 177.133091 176.465177 
L 177.843273 176.852734 
L 178.553455 176.41735 
L 179.263636 174.937697 
L 179.973818 176.203193 
L 180.684 174.809802 
L 181.394182 173.973618 
L 182.104364 175.076528 
L 182.814545 175.391824 
L 183.524727 172.991034 
L 184.234909 171.508175 
L 184.945091 173.098269 
L 185.655273 174.167146 
L 186.365455 176.360763 
L 187.075636 175.859152 
L 187.785818 174.302463 
L 188.496 173.027135 
L 189.206182 172.644121 
L 189.916364 174.143472 
L 190.626545 175.937974 
L 191.336727 175.71164 
L 192.046909 175.982348 
L 192.757091 177.835974 
L 193.467273 175.775809 
L 194.177455 176.897569 
L 194.887636 177.086002 
L 195.597818 181.270489 
L 196.308 181.849836 
L 197.018182 180.174475 
L 197.728364 180.021905 
L 198.438545 179.079685 
L 199.148727 179.390929 
L 199.858909 178.745422 
L 200.569091 181.28955 
L 201.279273 182.053833 
L 201.989455 180.767514 
L 202.699636 182.373466 
L 203.409818 185.405294 
L 204.12 184.964206 
L 204.830182 186.684953 
L 205.540364 186.749773 
L 206.250545 189.569917 
L 206.960727 188.824987 
L 207.670909 189.567 
L 209.091273 191.656308 
L 209.801455 193.016612 
L 210.511636 195.457691 
L 211.221818 196.668678 
L 211.932 195.837764 
L 212.642182 199.44142 
L 213.352364 196.856779 
L 214.062545 199.742775 
L 214.772727 197.153388 
L 216.193091 199.968403 
L 216.903273 196.080443 
L 217.613455 194.068125 
L 218.323636 193.633856 
L 219.033818 192.78485 
L 219.744 194.607024 
L 220.454182 193.299598 
L 221.164364 195.332607 
L 221.874545 196.840417 
L 223.294909 195.052144 
L 224.715273 192.473356 
L 225.425455 192.360069 
L 226.135636 186.208203 
L 226.845818 187.727396 
L 227.556 186.658659 
L 228.266182 186.579765 
L 228.976364 184.638926 
L 229.686545 184.584637 
L 230.396727 185.865838 
L 231.106909 184.940655 
L 231.817091 185.233693 
L 232.527273 186.205671 
L 233.237455 186.064796 
L 233.947636 185.577772 
L 234.657818 184.736645 
L 235.368 183.562504 
L 236.078182 187.406982 
L 236.788364 187.860305 
L 237.498545 186.458823 
L 238.208727 187.11574 
L 238.918909 186.625406 
L 239.629091 184.951067 
L 240.339273 188.151275 
L 241.049455 186.483547 
L 241.759636 187.469686 
L 242.469818 185.895302 
L 243.18 188.41028 
L 243.890182 188.0642 
L 244.600364 187.959264 
L 245.310545 186.488954 
L 246.020727 184.662472 
L 246.730909 186.017719 
L 247.441091 183.127425 
L 248.151273 182.794911 
L 248.861455 184.795003 
L 249.571636 185.477732 
L 250.281818 187.447367 
L 250.992 187.889409 
L 251.702182 185.156372 
L 252.412364 184.807952 
L 253.122545 184.063291 
L 253.832727 182.964308 
L 254.542909 182.154872 
L 255.253091 181.16332 
L 255.963273 177.263316 
L 256.673455 175.295032 
L 257.383636 176.162803 
L 258.093818 177.442902 
L 258.804 177.391535 
L 259.514182 180.118842 
L 260.224364 176.843461 
L 260.934545 176.013567 
L 261.644727 179.645826 
L 262.354909 181.113112 
L 263.065091 181.088386 
L 263.775273 182.163249 
L 264.485455 183.493626 
L 265.195636 183.02582 
L 265.905818 186.005267 
L 266.616 181.642131 
L 267.326182 182.133271 
L 268.036364 183.383249 
L 268.746545 182.588767 
L 269.456727 179.859772 
L 270.166909 179.731986 
L 270.877091 179.473867 
L 271.587273 179.373881 
L 273.007636 178.354462 
L 273.717818 175.582492 
L 274.428 180.445322 
L 275.138182 179.810158 
L 275.848364 181.834617 
L 276.558545 180.422277 
L 277.268727 180.235758 
L 277.978909 181.346303 
L 278.689091 181.940048 
L 279.399273 182.354295 
L 280.109455 183.134113 
L 280.819636 185.451467 
L 281.529818 185.743608 
L 282.24 182.423048 
L 282.950182 184.494658 
L 283.660364 184.649599 
L 284.370545 188.487182 
L 285.080727 188.074934 
L 285.790909 189.923177 
L 286.501091 189.235793 
L 287.211273 191.469259 
L 287.921455 189.195141 
L 288.631636 189.412269 
L 289.341818 191.425796 
L 290.052 190.877417 
L 290.762182 190.720619 
L 291.472364 191.09081 
L 292.182545 190.908956 
L 292.892727 192.912055 
L 293.602909 190.724162 
L 294.313091 194.899238 
L 295.023273 193.441554 
L 295.733455 192.952318 
L 296.443636 192.123922 
L 297.153818 190.155385 
L 298.574182 196.261705 
L 299.284364 192.530432 
L 299.994545 190.559669 
L 300.704727 191.373937 
L 301.414909 186.636295 
L 302.125091 184.66734 
L 302.835273 185.791952 
L 303.545455 184.581762 
L 304.255636 183.852302 
L 304.965818 182.882334 
L 305.676 183.94604 
L 307.096364 177.068039 
L 307.806545 179.149264 
L 308.516727 178.636265 
L 309.226909 178.716225 
L 309.937091 173.65982 
L 310.647273 172.30392 
L 311.357455 174.429454 
L 312.067636 171.560661 
L 312.777818 172.780917 
L 313.488 173.126247 
L 314.198182 169.951629 
L 314.908364 168.597468 
L 315.618545 168.352588 
L 316.328727 165.290863 
L 317.038909 165.22076 
L 317.749091 163.388636 
L 318.459273 160.560226 
L 319.169455 163.16423 
L 319.879636 162.829401 
L 320.589818 160.750638 
L 321.3 160.394383 
L 322.010182 160.578628 
L 322.720364 157.528062 
L 323.430545 156.500957 
L 324.140727 158.364194 
L 324.850909 161.026658 
L 325.561091 161.392574 
L 326.271273 159.673894 
L 326.981455 158.679396 
L 327.691636 157.128595 
L 328.401818 156.275112 
L 329.112 152.086887 
L 329.822182 151.559622 
L 330.532364 150.446178 
L 331.242545 147.429213 
L 331.952727 147.602338 
L 332.662909 147.531861 
L 333.373091 147.757403 
L 334.083273 149.728883 
L 334.793455 148.62218 
L 335.503636 148.477946 
L 336.213818 149.30529 
L 336.924 146.889671 
L 337.634182 142.668098 
L 338.344364 143.248499 
L 339.764727 141.821746 
L 341.185091 144.025815 
L 341.895273 142.050211 
L 342.605455 143.812169 
L 343.315636 143.465712 
L 344.025818 143.652746 
L 344.736 143.032395 
L 345.446182 145.129166 
L 346.156364 145.843784 
L 346.866545 145.464154 
L 347.576727 144.103028 
L 348.286909 145.491062 
L 348.997091 146.288021 
L 349.707273 142.510918 
L 350.417455 145.304315 
L 351.127636 141.829604 
L 351.837818 140.829193 
L 352.548 141.585886 
L 353.258182 144.912587 
L 353.968364 144.650354 
L 354.678545 145.601612 
L 355.388727 145.004631 
L 356.098909 143.941101 
L 356.809091 140.70061 
L 357.519273 141.305535 
L 358.229455 142.278666 
L 359.649818 141.971221 
L 360.36 140.400973 
L 361.070182 140.828431 
L 361.780364 142.282297 
L 362.490545 141.327803 
L 363.200727 141.834414 
L 363.910909 142.914542 
L 364.621091 142.742424 
L 365.331273 141.11632 
L 366.751636 142.971318 
L 367.461818 142.729522 
L 368.172 144.465851 
L 369.592364 144.803195 
L 370.302545 144.387263 
L 371.012727 139.874564 
L 371.722909 140.102308 
L 372.433091 138.512906 
L 373.143273 139.681401 
L 373.853455 139.258819 
L 374.563636 140.284387 
L 375.273818 139.400889 
L 375.984 138.853527 
L 376.694182 138.773563 
L 377.404364 136.99262 
L 378.114545 136.762803 
L 378.824727 139.114391 
L 379.534909 136.757912 
L 380.955273 137.336384 
L 381.665455 136.365169 
L 382.375636 136.353188 
L 383.085818 137.109627 
L 383.796 136.524634 
L 385.926545 130.055607 
L 386.636727 130.336943 
L 387.346909 129.945348 
L 388.057091 130.160729 
L 388.767273 130.106451 
L 389.477455 130.439589 
L 390.187636 128.210837 
L 390.897818 131.230348 
L 391.608 130.921999 
L 392.318182 129.925113 
L 393.028364 129.681979 
L 393.738545 128.571689 
L 394.448727 129.578611 
L 395.158909 127.627188 
L 395.869091 126.821867 
L 396.579273 127.442477 
L 397.999636 130.770263 
L 398.709818 129.867793 
L 399.42 132.430958 
L 400.130182 132.395036 
L 400.840364 134.353138 
L 401.550545 135.446005 
L 402.260727 133.957463 
L 402.970909 134.16114 
L 403.681091 134.144248 
L 404.391273 130.139672 
L 405.101455 132.623747 
L 405.811636 131.349037 
L 406.521818 131.179662 
L 407.232 132.456718 
L 407.942182 131.478514 
L 408.652364 131.468555 
L 409.362545 129.490616 
L 410.072727 130.477187 
L 410.782909 125.398402 
L 411.493091 124.583156 
L 412.203273 124.308747 
L 412.913455 126.012613 
L 413.623636 122.21021 
L 414.333818 121.100201 
L 415.044 118.669291 
L 415.754182 120.813736 
L 416.464364 118.960369 
L 417.174545 121.717305 
L 417.884727 119.600868 
L 418.594909 115.685634 
L 419.305091 114.967382 
L 420.015273 112.382122 
L 420.725455 107.825694 
L 421.435636 105.93654 
L 422.145818 107.564637 
L 422.856 102.814421 
L 423.566182 104.369151 
L 424.276364 104.842617 
L 424.986545 106.68272 
L 425.696727 104.8971 
L 426.406909 105.309233 
L 427.117091 104.218817 
L 427.827273 101.360858 
L 428.537455 100.621574 
L 429.247636 100.848844 
L 429.957818 100.505324 
L 430.668 97.886449 
L 431.378182 97.651203 
L 432.088364 97.699617 
L 432.798545 100.808007 
L 433.508727 101.093042 
L 434.218909 102.572346 
L 434.929091 105.59126 
L 435.639273 105.498602 
L 436.349455 106.949522 
L 437.059636 107.531797 
L 437.769818 107.707531 
L 438.48 108.493278 
L 439.190182 107.628475 
L 439.900364 107.770361 
L 440.610545 109.060813 
L 441.320727 106.821848 
L 442.030909 105.319337 
L 442.741091 106.619975 
L 443.451273 106.913366 
L 444.161455 106.384431 
L 444.871636 104.250677 
L 445.581818 108.57356 
L 446.292 111.075736 
L 447.002182 112.400875 
L 447.712364 112.13972 
L 448.422545 115.632665 
L 449.842909 116.505161 
L 450.553091 115.217038 
L 451.263273 113.554578 
L 451.973455 111.511991 
L 452.683636 112.204757 
L 453.393818 109.954874 
L 454.104 111.972666 
L 454.814182 110.858004 
L 455.524364 110.02976 
L 456.234545 108.890757 
L 456.944727 108.854883 
L 457.654909 112.097242 
L 459.075273 112.12466 
L 459.785455 111.631898 
L 460.495636 114.080528 
L 461.205818 114.02396 
L 461.916 113.217 
L 462.626182 113.190479 
L 463.336364 110.76348 
L 464.046545 112.18069 
L 464.756727 110.315986 
L 465.466909 110.414654 
L 466.177091 107.11459 
L 466.887273 109.133623 
L 467.597455 109.229616 
L 468.307636 107.660445 
L 469.017818 104.469208 
L 469.728 101.84985 
L 470.438182 102.094564 
L 471.148364 103.091036 
L 471.858545 100.401978 
L 472.568727 101.678724 
L 473.278909 101.531385 
L 474.699273 100.990913 
L 475.409455 101.623332 
L 476.119636 101.186463 
L 476.829818 102.410765 
L 477.54 101.454503 
L 478.250182 102.299633 
L 478.960364 100.847356 
L 479.670545 102.111792 
L 481.090909 96.954937 
L 481.801091 99.97339 
L 482.511273 100.246662 
L 483.221455 98.861235 
L 483.931636 99.727369 
L 484.641818 102.795765 
L 485.352 98.706128 
L 486.062182 101.978779 
L 486.772364 99.633563 
L 487.482545 101.296428 
L 488.192727 100.273297 
L 489.613091 101.101283 
L 490.323273 100.883932 
L 491.033455 100.193554 
L 491.743636 101.587476 
L 492.453818 100.453246 
L 493.164 100.710766 
L 493.874182 99.089559 
L 494.584364 93.453347 
L 495.294545 91.291441 
L 496.004727 87.915462 
L 496.714909 87.719274 
L 497.425091 85.029893 
L 498.135273 87.79855 
L 498.845455 85.755816 
L 499.555636 88.507216 
L 500.265818 89.279506 
L 500.976 89.468388 
L 501.686182 88.15561 
L 502.396364 89.163034 
L 503.816727 85.908469 
L 504.526909 87.121798 
L 505.237091 87.207092 
L 505.947273 84.710854 
L 506.657455 83.842597 
L 507.367636 81.809527 
L 508.077818 84.064847 
L 508.788 84.230011 
L 509.498182 86.278519 
L 510.208364 87.097463 
L 510.918545 86.864976 
L 511.628727 83.710327 
L 513.049091 87.727505 
L 513.759273 91.114625 
L 514.469455 90.544544 
L 515.179636 87.992214 
L 516.6 90.703069 
L 517.310182 91.034277 
L 518.020364 90.646638 
L 518.730545 91.140621 
L 520.150909 93.845563 
L 520.861091 93.775875 
L 521.571273 96.381091 
L 522.281455 96.796547 
L 522.991636 95.879871 
L 523.701818 97.062752 
L 524.412 97.545771 
L 525.122182 98.545814 
L 525.832364 99.869757 
L 526.542545 102.036454 
L 527.252727 102.425207 
L 528.673091 98.735945 
L 529.383273 98.547792 
L 530.093455 100.368999 
L 530.803636 100.521056 
L 531.513818 104.159973 
L 532.224 106.815177 
L 532.934182 105.948971 
L 533.644364 101.361974 
L 534.354545 101.496089 
L 535.064727 102.760112 
L 535.774909 100.917673 
L 536.485091 101.20684 
L 537.195273 102.056796 
L 537.905455 100.581246 
L 538.615636 103.990705 
L 539.325818 104.119118 
L 540.036 106.427881 
L 540.746182 104.943032 
L 541.456364 105.841327 
L 542.166545 105.895088 
L 542.876727 107.101901 
L 543.586909 108.646364 
L 544.297091 107.328221 
L 545.717455 114.144665 
L 546.427636 114.181158 
L 547.137818 114.440043 
L 547.848 115.458721 
L 548.558182 114.39903 
L 549.268364 111.659404 
L 549.978545 114.596554 
L 550.688727 115.939061 
L 551.398909 114.655911 
L 552.109091 112.826439 
L 552.819273 115.05533 
L 554.239636 111.023965 
L 554.949818 110.269336 
L 555.66 109.880625 
L 556.370182 108.037306 
L 557.080364 109.416345 
L 557.790545 109.324568 
L 558.500727 108.723031 
L 559.210909 108.695419 
L 559.921091 107.497116 
L 560.631273 106.864207 
L 561.341455 106.976414 
L 562.051636 107.713773 
L 562.761818 109.596536 
L 563.472 112.248023 
L 564.182182 113.517646 
L 564.892364 113.813684 
L 565.602545 115.497599 
L 566.312727 115.619967 
L 567.022909 116.229588 
L 567.733091 113.236746 
L 569.153455 115.449542 
L 569.863636 114.336068 
L 570.573818 117.913213 
L 571.284 119.786818 
L 571.994182 118.500117 
L 572.704364 118.289028 
L 573.414545 117.194267 
L 574.124727 118.406476 
L 574.834909 120.108281 
L 575.545091 122.845903 
L 576.255273 119.956009 
L 576.965455 118.927057 
L 577.675636 120.281014 
L 578.385818 121.334553 
L 579.096 120.106569 
L 579.806182 119.313705 
L 580.516364 119.271405 
L 581.226545 118.557899 
L 581.936727 120.840538 
L 582.646909 120.909816 
L 583.357091 121.747341 
L 584.777455 124.344735 
L 585.487636 121.48106 
L 587.618182 115.296301 
L 588.328364 114.77086 
L 589.038545 113.561887 
L 589.748727 115.082906 
L 590.458909 112.950336 
L 591.169091 111.481494 
L 591.879273 112.105455 
L 592.589455 111.073901 
L 593.299636 108.184424 
L 594.009818 109.010402 
L 594.72 107.167858 
L 595.430182 108.943732 
L 596.140364 111.896508 
L 596.850545 111.864093 
L 598.270909 117.955329 
L 598.981091 118.767603 
L 599.691273 115.794997 
L 600.401455 115.459969 
L 601.111636 113.01311 
L 601.821818 114.533812 
L 602.532 116.726833 
L 603.242182 117.106658 
L 603.952364 118.786055 
L 604.662545 121.946732 
L 605.372727 120.126506 
L 606.082909 118.976347 
L 606.793091 117.090511 
L 607.503273 114.715822 
L 608.213455 116.052178 
L 608.923636 114.106313 
L 609.633818 112.962279 
L 610.344 112.175776 
L 611.054182 111.654705 
L 611.764364 113.275545 
L 612.474545 112.135295 
L 613.184727 110.345685 
L 613.894909 112.778056 
L 614.605091 110.685026 
L 615.315273 111.044157 
L 616.025455 107.393523 
L 616.735636 108.740453 
L 617.445818 106.314177 
L 618.156 111.663857 
L 618.866182 112.55636 
L 619.576364 108.321704 
L 620.286545 107.883054 
L 620.996727 107.995185 
L 621.706909 109.77074 
L 622.417091 108.405634 
L 623.127273 109.893092 
L 624.547636 109.020392 
L 625.257818 107.390055 
L 625.968 106.679884 
L 626.678182 103.984002 
L 627.388364 104.952224 
L 628.098545 104.281593 
L 628.808727 105.204452 
L 629.518909 107.985749 
L 630.229091 111.533894 
L 630.939273 112.926933 
L 631.649455 111.915005 
L 632.359636 112.897415 
L 633.069818 112.742488 
L 633.78 112.858973 
L 634.490182 110.925575 
L 635.910545 116.249245 
L 636.620727 116.649212 
L 637.330909 115.505998 
L 638.041091 115.301985 
L 638.751273 112.545311 
L 639.461455 114.694812 
L 640.171636 112.629193 
L 640.881818 112.482582 
L 641.592 109.687765 
L 642.302182 114.442412 
L 643.012364 115.058044 
L 643.722545 115.033055 
L 644.432727 115.436828 
L 645.142909 113.876769 
L 645.853091 113.766588 
L 646.563273 115.150602 
L 647.273455 114.418703 
L 647.983636 113.078808 
L 648.693818 113.283174 
L 649.404 114.317312 
L 650.114182 114.521056 
L 650.824364 118.611254 
L 651.534545 119.948821 
L 652.244727 122.013482 
L 652.954909 126.199994 
L 653.665091 123.024165 
L 654.375273 124.133091 
L 655.085455 124.725451 
L 655.795636 123.986438 
L 656.505818 125.157885 
L 657.216 124.439996 
L 657.926182 127.061573 
L 658.636364 128.730153 
L 659.346545 129.96784 
L 660.056727 132.501076 
L 660.766909 134.232396 
L 661.477091 136.596902 
L 662.187273 138.42645 
L 663.607636 136.506439 
L 664.317818 133.152025 
L 665.028 135.567954 
L 666.448364 138.797923 
L 667.158545 140.866917 
L 667.868727 142.529967 
L 668.578909 142.228685 
L 669.289091 143.114958 
L 669.999273 139.86808 
L 670.709455 138.467262 
L 671.419636 139.301379 
L 672.129818 141.091771 
L 672.84 140.407731 
L 673.550182 142.871388 
L 674.260364 141.303737 
L 674.970545 142.494439 
L 675.680727 142.307479 
L 676.390909 143.005629 
L 677.811273 139.093546 
L 678.521455 138.953107 
L 679.231636 138.59707 
L 679.941818 137.045406 
L 680.652 136.910573 
L 681.362182 138.701661 
L 682.072364 140.905836 
L 682.782545 140.808901 
L 683.492727 140.152556 
L 684.202909 136.687858 
L 684.913091 136.563571 
L 685.623273 136.687389 
L 686.333455 135.747831 
L 687.043636 135.668697 
L 687.753818 135.888387 
L 688.464 136.597878 
L 689.174182 137.130618 
L 689.884364 135.708418 
L 690.594545 137.181481 
L 691.304727 136.361297 
L 692.014909 138.568383 
L 692.725091 139.061379 
L 693.435273 140.260339 
L 694.145455 140.91265 
L 694.855636 140.098586 
L 696.986182 135.914897 
L 697.696364 137.814792 
L 698.406545 137.556874 
L 699.116727 134.230403 
L 699.826909 134.865797 
L 700.537091 133.194399 
L 701.247273 132.021372 
L 701.957455 132.700284 
L 702.667636 129.86019 
L 703.377818 129.538757 
L 704.088 130.99451 
L 704.798182 129.879729 
L 705.508364 129.976002 
L 706.218545 129.916586 
L 707.638909 125.53917 
L 708.349091 126.253219 
L 709.059273 125.143205 
L 709.769455 123.309691 
L 710.479636 123.631373 
L 711.189818 124.423866 
L 711.9 123.887064 
L 712.610182 124.888453 
L 713.320364 121.73613 
L 714.030545 122.786646 
L 714.740727 121.0701 
L 715.450909 120.822563 
L 716.161091 123.322437 
L 716.871273 122.570084 
L 717.581455 121.295422 
L 718.291636 121.154298 
L 719.001818 121.738545 
L 719.712 121.634523 
L 720.422182 120.842899 
L 721.132364 119.775498 
L 721.842545 117.830269 
L 722.552727 121.903559 
L 723.262909 124.95654 
L 723.973091 124.281879 
L 724.683273 128.392074 
L 725.393455 128.320712 
L 726.103636 129.144725 
L 726.813818 125.631838 
L 727.524 125.669346 
L 728.234182 127.692079 
L 728.944364 127.195783 
L 729.654545 124.456558 
L 730.364727 126.866895 
L 731.074909 126.89922 
L 731.785091 125.159669 
L 732.495273 126.193185 
L 734.625818 130.284408 
L 735.336 128.802583 
L 736.046182 126.019847 
L 736.756364 126.251523 
L 737.466545 126.698546 
L 738.176727 124.448329 
L 738.886909 123.018448 
L 739.597091 124.743444 
L 740.307273 122.575445 
L 741.017455 123.531819 
L 741.727636 122.324023 
L 742.437818 123.016033 
L 743.148 121.885257 
L 743.858182 118.255135 
L 744.568364 119.327608 
L 745.278545 117.704594 
L 745.988727 118.831428 
L 746.698909 121.758096 
L 747.409091 121.43678 
L 748.829455 125.902105 
L 749.539636 125.915672 
L 750.249818 127.584726 
L 751.670182 124.282072 
L 752.380364 125.561942 
L 753.800727 120.555892 
L 754.510909 118.944218 
L 755.221091 118.835219 
L 755.931273 118.515284 
L 756.641455 121.183384 
L 757.351636 117.383583 
L 758.061818 117.896909 
L 758.772 118.636833 
L 760.192364 116.055969 
L 760.902545 115.893941 
L 761.612727 119.047977 
L 762.322909 118.308849 
L 763.033091 116.402486 
L 763.743273 115.742789 
L 764.453455 116.708511 
L 765.163636 117.177055 
L 765.873818 111.667387 
L 766.584 110.01599 
L 767.294182 109.274048 
L 768.004364 107.979865 
L 768.714545 106.374855 
L 769.424727 107.790503 
L 770.134909 105.683829 
L 770.845091 106.801252 
L 771.555273 105.206428 
L 772.265455 105.97441 
L 772.975636 105.446552 
L 773.685818 107.624757 
L 774.396 106.706133 
L 775.106182 106.288535 
L 775.816364 107.164706 
L 776.526545 106.155204 
L 777.236727 108.353818 
L 777.946909 109.118595 
L 778.657091 107.167529 
L 779.367273 107.109098 
L 780.077455 104.845359 
L 780.787636 107.02388 
L 781.497818 106.141964 
L 782.918182 105.255676 
L 783.628364 106.455299 
L 784.338545 108.622514 
L 785.048727 104.176536 
L 785.758909 104.943041 
L 786.469091 103.011178 
L 787.179273 105.155379 
L 787.889455 108.017887 
L 788.599636 107.346687 
L 789.309818 106.926701 
L 790.02 106.856187 
L 790.730182 105.784411 
L 791.440364 108.639487 
L 792.150545 107.474695 
L 792.860727 108.281259 
L 793.570909 105.437049 
L 794.281091 105.534988 
L 794.991273 103.048591 
L 795.701455 101.773496 
L 796.411636 101.010256 
L 797.121818 100.628182 
L 797.832 96.114751 
L 799.252364 96.227646 
L 799.962545 100.293917 
L 800.672727 100.3748 
L 801.382909 104.026616 
L 802.093091 104.356167 
L 802.803273 107.827629 
L 803.513455 107.86675 
L 804.223636 107.608623 
L 804.933818 108.536854 
L 805.644 106.773674 
L 806.354182 107.499247 
L 807.064364 110.797123 
L 807.774545 109.953437 
L 808.484727 105.509144 
L 809.194909 106.046332 
L 810.615273 104.477787 
L 811.325455 104.907132 
L 812.745818 107.077535 
L 813.456 107.097419 
L 814.166182 104.108423 
L 814.876364 104.432163 
L 815.586545 103.054761 
L 816.296727 100.992154 
L 817.006909 102.178258 
L 817.717091 99.786214 
L 818.427273 102.359747 
L 819.137455 102.014555 
L 819.847636 102.873478 
L 820.557818 102.355335 
L 821.268 100.504804 
L 821.978182 102.064546 
L 822.688364 103.340407 
L 823.398545 106.059529 
L 824.108727 106.700686 
L 824.818909 106.356995 
L 825.529091 109.89488 
L 827.659636 103.597763 
L 829.08 106.233236 
L 829.790182 105.190548 
L 830.500364 107.27506 
L 831.210545 103.068351 
L 831.920727 99.903769 
L 832.630909 97.817781 
L 834.051273 100.541726 
L 834.761455 100.537841 
L 835.471636 98.443237 
L 836.181818 101.356877 
L 836.892 99.958546 
L 838.312364 104.583223 
L 839.022545 103.765833 
L 839.732727 104.386532 
L 840.442909 104.0512 
L 841.153091 102.833365 
L 841.863273 99.280533 
L 842.573455 100.26367 
L 843.283636 101.737013 
L 843.993818 100.246765 
L 844.704 97.746766 
L 845.414182 97.079584 
L 846.124364 98.324697 
L 846.834545 100.459637 
L 847.544727 103.147937 
L 848.254909 103.166295 
L 848.965091 102.936361 
L 849.675273 101.4851 
L 850.385455 101.455189 
L 851.095636 103.772904 
L 851.805818 102.142864 
L 852.516 103.844129 
L 853.936364 101.42162 
L 854.646545 101.987927 
L 855.356727 102.308061 
L 856.066909 99.777148 
L 856.777091 101.480509 
L 857.487273 101.277106 
L 858.197455 100.268634 
L 858.907636 99.704924 
L 859.617818 99.888488 
L 860.328 95.333858 
L 861.038182 94.726917 
L 861.748364 96.506307 
L 862.458545 97.496943 
L 863.168727 96.332996 
L 863.878909 97.445004 
L 864.589091 97.526684 
L 865.299273 97.265007 
L 866.009455 97.244936 
L 866.719636 100.091935 
L 868.14 95.496412 
L 868.850182 94.49427 
L 869.560364 96.911173 
L 870.270545 94.36025 
L 870.980727 93.923529 
L 871.690909 94.29152 
L 871.690909 94.29152 
" clip-path="url(#p6cbac15f67)" style="fill: none; stroke: #ff7f0e; stroke-width: 1.5; stroke-linecap: square"/>
   </g>
   <g id="line2d_17">
    <path d="M 162.219273 369.358916 
L 171.451636 369.276788 
L 174.292364 369.232358 
L 192.757091 369.108936 
L 211.932 368.958308 
L 216.193091 368.867605 
L 230.396727 368.662919 
L 258.804 368.481234 
L 262.354909 368.337623 
L 273.007636 368.23009 
L 290.052 368.073611 
L 297.864 367.961226 
L 304.255636 367.772038 
L 309.937091 367.651747 
L 320.589818 367.517205 
L 328.401818 367.452014 
L 329.822182 367.38172 
L 341.895273 367.278998 
L 347.576727 367.236277 
L 356.098909 367.122714 
L 358.939636 367.084169 
L 371.722909 366.988669 
L 382.375636 366.936545 
L 398.709818 366.873966 
L 405.811636 366.779198 
L 412.913455 366.685618 
L 415.754182 366.655127 
L 443.451273 366.277516 
L 456.944727 366.155692 
L 460.495636 366.120634 
L 469.017818 366.030541 
L 471.858545 365.962934 
L 493.874182 365.744725 
L 495.294545 365.662163 
L 500.976 365.550964 
L 520.150909 365.340269 
L 530.803636 365.231343 
L 534.354545 365.120738 
L 544.297091 365.025803 
L 547.137818 364.940828 
L 563.472 364.821962 
L 617.445818 364.181188 
L 619.576364 364.035348 
L 634.490182 363.896101 
L 643.722545 363.763828 
L 652.244727 363.666063 
L 656.505818 363.611154 
L 663.607636 363.511272 
L 665.738182 363.446488 
L 683.492727 363.322753 
L 688.464 363.289715 
L 712.610182 363.121138 
L 714.740727 363.068731 
L 726.103636 362.958665 
L 728.944364 362.918944 
L 777.236727 362.31901 
L 787.179273 362.218973 
L 792.150545 362.177015 
L 799.252364 362.089483 
L 801.382909 361.98859 
L 811.325455 361.881846 
L 871.690909 361.158475 
L 871.690909 361.158475 
" clip-path="url(#p6cbac15f67)" style="fill: none; stroke: #2ca02c; stroke-width: 1.5; stroke-linecap: square"/>
   </g>
   <g id="patch_3">
    <path d="M 126 384.48 
L 126 51.84 
" style="fill: none; stroke: #000000; stroke-width: 0.8; stroke-linejoin: miter; stroke-linecap: square"/>
   </g>
   <g id="patch_4">
    <path d="M 907.2 384.48 
L 907.2 51.84 
" style="fill: none; stroke: #000000; stroke-width: 0.8; stroke-linejoin: miter; stroke-linecap: square"/>
   </g>
   <g id="patch_5">
    <path d="M 126 384.48 
L 907.2 384.48 
" style="fill: none; stroke: #000000; stroke-width: 0.8; stroke-linejoin: miter; stroke-linecap: square"/>
   </g>
   <g id="patch_6">
    <path d="M 126 51.84 
L 907.2 51.84 
" style="fill: none; stroke: #000000; stroke-width: 0.8; stroke-linejoin: miter; stroke-linecap: square"/>
   </g>
   <g id="text_17">
    <!-- Quadratic Covariation of $X_t$ and $S_t$ -->
    <g transform="translate(414.54 45.84)scale(0.12 -0.12)">
     <defs>
      <path id="DejaVuSans-66" d="M 2375 4863 
L 2375 4384 
L 1825 4384 
Q 1516 4384 1395 4259 
Q 1275 4134 1275 3809 
L 1275 3500 
L 2222 3500 
L 2222 3053 
L 1275 3053 
L 1275 0 
L 697 0 
L 697 3053 
L 147 3053 
L 147 3500 
L 697 3500 
L 697 3744 
Q 697 4328 969 4595 
Q 1241 4863 1831 4863 
L 2375 4863 
z
" transform="scale(0.015625)"/>
      <path id="DejaVuSans-Oblique-58" d="M 878 4666 
L 1516 4666 
L 2316 2981 
L 3763 4666 
L 4500 4666 
L 2578 2438 
L 3738 0 
L 3103 0 
L 2163 1966 
L 459 0 
L -275 0 
L 1906 2509 
L 878 4666 
z
" transform="scale(0.015625)"/>
      <path id="DejaVuSans-Oblique-74" d="M 2706 3500 
L 2619 3053 
L 1472 3053 
L 1100 1153 
Q 1081 1047 1072 975 
Q 1063 903 1063 863 
Q 1063 663 1183 572 
Q 1303 481 1569 481 
L 2150 481 
L 2053 0 
L 1503 0 
Q 991 0 739 200 
Q 488 400 488 806 
Q 488 878 497 964 
Q 506 1050 525 1153 
L 897 3053 
L 409 3053 
L 500 3500 
L 978 3500 
L 1172 4494 
L 1747 4494 
L 1556 3500 
L 2706 3500 
z
" transform="scale(0.015625)"/>
      <path id="DejaVuSans-Oblique-53" d="M 3859 4513 
L 3738 3897 
Q 3422 4066 3111 4152 
Q 2800 4238 2509 4238 
Q 1944 4238 1609 3991 
Q 1275 3744 1275 3334 
Q 1275 3109 1398 2989 
Q 1522 2869 2034 2731 
L 2413 2638 
Q 3053 2472 3303 2217 
Q 3553 1963 3553 1503 
Q 3553 797 2998 353 
Q 2444 -91 1538 -91 
Q 1166 -91 791 -17 
Q 416 56 38 206 
L 166 856 
Q 513 641 861 531 
Q 1209 422 1556 422 
Q 2147 422 2503 684 
Q 2859 947 2859 1369 
Q 2859 1650 2717 1795 
Q 2575 1941 2106 2059 
L 1728 2156 
Q 1081 2325 845 2545 
Q 609 2766 609 3163 
Q 609 3859 1145 4304 
Q 1681 4750 2541 4750 
Q 2875 4750 3203 4690 
Q 3531 4631 3859 4513 
z
" transform="scale(0.015625)"/>
     </defs>
     <use xlink:href="#DejaVuSans-51" transform="translate(0 0.015625)"/>
     <use xlink:href="#DejaVuSans-75" transform="translate(78.710938 0.015625)"/>
     <use xlink:href="#DejaVuSans-61" transform="translate(142.089844 0.015625)"/>
     <use xlink:href="#DejaVuSans-64" transform="translate(203.369141 0.015625)"/>
     <use xlink:href="#DejaVuSans-72" transform="translate(266.845703 0.015625)"/>
     <use xlink:href="#DejaVuSans-61" transform="translate(307.958984 0.015625)"/>
     <use xlink:href="#DejaVuSans-74" transform="translate(369.238281 0.015625)"/>
     <use xlink:href="#DejaVuSans-69" transform="translate(408.447266 0.015625)"/>
     <use xlink:href="#DejaVuSans-63" transform="translate(436.230469 0.015625)"/>
     <use xlink:href="#DejaVuSans-20" transform="translate(491.210938 0.015625)"/>
     <use xlink:href="#DejaVuSans-43" transform="translate(522.998047 0.015625)"/>
     <use xlink:href="#DejaVuSans-6f" transform="translate(592.822266 0.015625)"/>
     <use xlink:href="#DejaVuSans-76" transform="translate(654.003906 0.015625)"/>
     <use xlink:href="#DejaVuSans-61" transform="translate(713.183594 0.015625)"/>
     <use xlink:href="#DejaVuSans-72" transform="translate(774.462891 0.015625)"/>
     <use xlink:href="#DejaVuSans-69" transform="translate(815.576172 0.015625)"/>
     <use xlink:href="#DejaVuSans-61" transform="translate(843.359375 0.015625)"/>
     <use xlink:href="#DejaVuSans-74" transform="translate(904.638672 0.015625)"/>
     <use xlink:href="#DejaVuSans-69" transform="translate(943.847656 0.015625)"/>
     <use xlink:href="#DejaVuSans-6f" transform="translate(971.630859 0.015625)"/>
     <use xlink:href="#DejaVuSans-6e" transform="translate(1032.8125 0.015625)"/>
     <use xlink:href="#DejaVuSans-20" transform="translate(1096.191406 0.015625)"/>
     <use xlink:href="#DejaVuSans-6f" transform="translate(1127.978516 0.015625)"/>
     <use xlink:href="#DejaVuSans-66" transform="translate(1189.160156 0.015625)"/>
     <use xlink:href="#DejaVuSans-20" transform="translate(1224.365234 0.015625)"/>
     <use xlink:href="#DejaVuSans-Oblique-58" transform="translate(1256.152344 0.015625)"/>
     <use xlink:href="#DejaVuSans-Oblique-74" transform="translate(1324.658203 -16.390625)scale(0.7)"/>
     <use xlink:href="#DejaVuSans-20" transform="translate(1354.838867 0.015625)"/>
     <use xlink:href="#DejaVuSans-61" transform="translate(1386.625977 0.015625)"/>
     <use xlink:href="#DejaVuSans-6e" transform="translate(1447.905273 0.015625)"/>
     <use xlink:href="#DejaVuSans-64" transform="translate(1511.28418 0.015625)"/>
     <use xlink:href="#DejaVuSans-20" transform="translate(1574.760742 0.015625)"/>
     <use xlink:href="#DejaVuSans-Oblique-53" transform="translate(1606.547852 0.015625)"/>
     <use xlink:href="#DejaVuSans-Oblique-74" transform="translate(1670.024414 -16.390625)scale(0.7)"/>
    </g>
   </g>
   <g id="legend_1">
    <g id="patch_7">
     <path d="M 133 103.874375 
L 335.1 103.874375 
Q 337.1 103.874375 337.1 101.874375 
L 337.1 58.84 
Q 337.1 56.84 335.1 56.84 
L 133 56.84 
Q 131 56.84 131 58.84 
L 131 101.874375 
Q 131 103.874375 133 103.874375 
z
" style="fill: #ffffff; opacity: 0.8; stroke: #cccccc; stroke-linejoin: miter"/>
    </g>
    <g id="line2d_18">
     <path d="M 135 64.938437 
L 145 64.938437 
L 155 64.938437 
" style="fill: none; stroke: #1f77b4; stroke-width: 1.5; stroke-linecap: square"/>
    </g>
    <g id="text_18">
     <!-- $X_t$ -->
     <g transform="translate(163 68.438437)scale(0.1 -0.1)">
      <use xlink:href="#DejaVuSans-Oblique-58" transform="translate(0 0.09375)"/>
      <use xlink:href="#DejaVuSans-Oblique-74" transform="translate(68.505859 -16.3125)scale(0.7)"/>
     </g>
    </g>
    <g id="line2d_19">
     <path d="M 135 79.616562 
L 145 79.616562 
L 155 79.616562 
" style="fill: none; stroke: #ff7f0e; stroke-width: 1.5; stroke-linecap: square"/>
    </g>
    <g id="text_19">
     <!-- $S_t$ -->
     <g transform="translate(163 83.116562)scale(0.1 -0.1)">
      <use xlink:href="#DejaVuSans-Oblique-53" transform="translate(0 0.78125)"/>
      <use xlink:href="#DejaVuSans-Oblique-74" transform="translate(63.476562 -15.625)scale(0.7)"/>
     </g>
    </g>
    <g id="line2d_20">
     <path d="M 135 94.294687 
L 145 94.294687 
L 155 94.294687 
" style="fill: none; stroke: #2ca02c; stroke-width: 1.5; stroke-linecap: square"/>
    </g>
    <g id="text_20">
     <!-- Quadratic Covariation of $X_t$ and $S_t$ -->
     <g transform="translate(163 97.794687)scale(0.1 -0.1)">
      <use xlink:href="#DejaVuSans-51" transform="translate(0 0.015625)"/>
      <use xlink:href="#DejaVuSans-75" transform="translate(78.710938 0.015625)"/>
      <use xlink:href="#DejaVuSans-61" transform="translate(142.089844 0.015625)"/>
      <use xlink:href="#DejaVuSans-64" transform="translate(203.369141 0.015625)"/>
      <use xlink:href="#DejaVuSans-72" transform="translate(266.845703 0.015625)"/>
      <use xlink:href="#DejaVuSans-61" transform="translate(307.958984 0.015625)"/>
      <use xlink:href="#DejaVuSans-74" transform="translate(369.238281 0.015625)"/>
      <use xlink:href="#DejaVuSans-69" transform="translate(408.447266 0.015625)"/>
      <use xlink:href="#DejaVuSans-63" transform="translate(436.230469 0.015625)"/>
      <use xlink:href="#DejaVuSans-20" transform="translate(491.210938 0.015625)"/>
      <use xlink:href="#DejaVuSans-43" transform="translate(522.998047 0.015625)"/>
      <use xlink:href="#DejaVuSans-6f" transform="translate(592.822266 0.015625)"/>
      <use xlink:href="#DejaVuSans-76" transform="translate(654.003906 0.015625)"/>
      <use xlink:href="#DejaVuSans-61" transform="translate(713.183594 0.015625)"/>
      <use xlink:href="#DejaVuSans-72" transform="translate(774.462891 0.015625)"/>
      <use xlink:href="#DejaVuSans-69" transform="translate(815.576172 0.015625)"/>
      <use xlink:href="#DejaVuSans-61" transform="translate(843.359375 0.015625)"/>
      <use xlink:href="#DejaVuSans-74" transform="translate(904.638672 0.015625)"/>
      <use xlink:href="#DejaVuSans-69" transform="translate(943.847656 0.015625)"/>
      <use xlink:href="#DejaVuSans-6f" transform="translate(971.630859 0.015625)"/>
      <use xlink:href="#DejaVuSans-6e" transform="translate(1032.8125 0.015625)"/>
      <use xlink:href="#DejaVuSans-20" transform="translate(1096.191406 0.015625)"/>
      <use xlink:href="#DejaVuSans-6f" transform="translate(1127.978516 0.015625)"/>
      <use xlink:href="#DejaVuSans-66" transform="translate(1189.160156 0.015625)"/>
      <use xlink:href="#DejaVuSans-20" transform="translate(1224.365234 0.015625)"/>
      <use xlink:href="#DejaVuSans-Oblique-58" transform="translate(1256.152344 0.015625)"/>
      <use xlink:href="#DejaVuSans-Oblique-74" transform="translate(1324.658203 -16.390625)scale(0.7)"/>
      <use xlink:href="#DejaVuSans-20" transform="translate(1354.838867 0.015625)"/>
      <use xlink:href="#DejaVuSans-61" transform="translate(1386.625977 0.015625)"/>
      <use xlink:href="#DejaVuSans-6e" transform="translate(1447.905273 0.015625)"/>
      <use xlink:href="#DejaVuSans-64" transform="translate(1511.28418 0.015625)"/>
      <use xlink:href="#DejaVuSans-20" transform="translate(1574.760742 0.015625)"/>
      <use xlink:href="#DejaVuSans-Oblique-53" transform="translate(1606.547852 0.015625)"/>
      <use xlink:href="#DejaVuSans-Oblique-74" transform="translate(1670.024414 -16.390625)scale(0.7)"/>
     </g>
    </g>
   </g>
  </g>
 </g>
 <defs>
  <clipPath id="p6cbac15f67">
   <rect x="126" y="51.84" width="781.2" height="332.64"/>
  </clipPath>
 </defs>
</svg>
