<?xml version="1.0" encoding="utf-8" standalone="no"?>
<!DOCTYPE svg PUBLIC "-//W3C//DTD SVG 1.1//EN"
  "http://www.w3.org/Graphics/SVG/1.1/DTD/svg11.dtd">
<svg xmlns:xlink="http://www.w3.org/1999/xlink" width="1008pt" height="432pt" viewBox="0 0 1008 432" xmlns="http://www.w3.org/2000/svg" version="1.1">
 <metadata>
  <rdf:RDF xmlns:dc="http://purl.org/dc/elements/1.1/" xmlns:cc="http://creativecommons.org/ns#" xmlns:rdf="http://www.w3.org/1999/02/22-rdf-syntax-ns#">
   <cc:Work>
    <dc:type rdf:resource="http://purl.org/dc/dcmitype/StillImage"/>
    <dc:date>2023-12-22T17:11:08.496474</dc:date>
    <dc:format>image/svg+xml</dc:format>
    <dc:creator>
     <cc:Agent>
      <dc:title>Matplotlib v3.5.2, https://matplotlib.org/</dc:title>
     </cc:Agent>
    </dc:creator>
   </cc:Work>
  </rdf:RDF>
 </metadata>
 <defs>
  <style type="text/css">*{stroke-linejoin: round; stroke-linecap: butt}</style>
 </defs>
 <g id="figure_1">
  <g id="patch_1">
   <path d="M 0 432 
L 1008 432 
L 1008 0 
L 0 0 
z
" style="fill: #ffffff"/>
  </g>
  <g id="axes_1">
   <g id="patch_2">
    <path d="M 126 384.48 
L 907.2 384.48 
L 907.2 51.84 
L 126 51.84 
z
" style="fill: #ffffff"/>
   </g>
   <g id="matplotlib.axis_1">
    <g id="xtick_1">
     <g id="line2d_1">
      <defs>
       <path id="m8b7acce22c" d="M 0 0 
L 0 3.5 
" style="stroke: #000000; stroke-width: 0.8"/>
      </defs>
      <g>
       <use xlink:href="#m8b7acce22c" x="161.509091" y="384.48" style="stroke: #000000; stroke-width: 0.8"/>
      </g>
     </g>
     <g id="text_1">
      <!-- 0.0 -->
      <g transform="translate(153.557528 399.078438)scale(0.1 -0.1)">
       <defs>
        <path id="DejaVuSans-30" d="M 2034 4250 
Q 1547 4250 1301 3770 
Q 1056 3291 1056 2328 
Q 1056 1369 1301 889 
Q 1547 409 2034 409 
Q 2525 409 2770 889 
Q 3016 1369 3016 2328 
Q 3016 3291 2770 3770 
Q 2525 4250 2034 4250 
z
M 2034 4750 
Q 2819 4750 3233 4129 
Q 3647 3509 3647 2328 
Q 3647 1150 3233 529 
Q 2819 -91 2034 -91 
Q 1250 -91 836 529 
Q 422 1150 422 2328 
Q 422 3509 836 4129 
Q 1250 4750 2034 4750 
z
" transform="scale(0.015625)"/>
        <path id="DejaVuSans-2e" d="M 684 794 
L 1344 794 
L 1344 0 
L 684 0 
L 684 794 
z
" transform="scale(0.015625)"/>
       </defs>
       <use xlink:href="#DejaVuSans-30"/>
       <use xlink:href="#DejaVuSans-2e" x="63.623047"/>
       <use xlink:href="#DejaVuSans-30" x="95.410156"/>
      </g>
     </g>
    </g>
    <g id="xtick_2">
     <g id="line2d_2">
      <g>
       <use xlink:href="#m8b7acce22c" x="303.545455" y="384.48" style="stroke: #000000; stroke-width: 0.8"/>
      </g>
     </g>
     <g id="text_2">
      <!-- 0.2 -->
      <g transform="translate(295.593892 399.078438)scale(0.1 -0.1)">
       <defs>
        <path id="DejaVuSans-32" d="M 1228 531 
L 3431 531 
L 3431 0 
L 469 0 
L 469 531 
Q 828 903 1448 1529 
Q 2069 2156 2228 2338 
Q 2531 2678 2651 2914 
Q 2772 3150 2772 3378 
Q 2772 3750 2511 3984 
Q 2250 4219 1831 4219 
Q 1534 4219 1204 4116 
Q 875 4013 500 3803 
L 500 4441 
Q 881 4594 1212 4672 
Q 1544 4750 1819 4750 
Q 2544 4750 2975 4387 
Q 3406 4025 3406 3419 
Q 3406 3131 3298 2873 
Q 3191 2616 2906 2266 
Q 2828 2175 2409 1742 
Q 1991 1309 1228 531 
z
" transform="scale(0.015625)"/>
       </defs>
       <use xlink:href="#DejaVuSans-30"/>
       <use xlink:href="#DejaVuSans-2e" x="63.623047"/>
       <use xlink:href="#DejaVuSans-32" x="95.410156"/>
      </g>
     </g>
    </g>
    <g id="xtick_3">
     <g id="line2d_3">
      <g>
       <use xlink:href="#m8b7acce22c" x="445.581818" y="384.48" style="stroke: #000000; stroke-width: 0.8"/>
      </g>
     </g>
     <g id="text_3">
      <!-- 0.4 -->
      <g transform="translate(437.630256 399.078438)scale(0.1 -0.1)">
       <defs>
        <path id="DejaVuSans-34" d="M 2419 4116 
L 825 1625 
L 2419 1625 
L 2419 4116 
z
M 2253 4666 
L 3047 4666 
L 3047 1625 
L 3713 1625 
L 3713 1100 
L 3047 1100 
L 3047 0 
L 2419 0 
L 2419 1100 
L 313 1100 
L 313 1709 
L 2253 4666 
z
" transform="scale(0.015625)"/>
       </defs>
       <use xlink:href="#DejaVuSans-30"/>
       <use xlink:href="#DejaVuSans-2e" x="63.623047"/>
       <use xlink:href="#DejaVuSans-34" x="95.410156"/>
      </g>
     </g>
    </g>
    <g id="xtick_4">
     <g id="line2d_4">
      <g>
       <use xlink:href="#m8b7acce22c" x="587.618182" y="384.48" style="stroke: #000000; stroke-width: 0.8"/>
      </g>
     </g>
     <g id="text_4">
      <!-- 0.6 -->
      <g transform="translate(579.666619 399.078438)scale(0.1 -0.1)">
       <defs>
        <path id="DejaVuSans-36" d="M 2113 2584 
Q 1688 2584 1439 2293 
Q 1191 2003 1191 1497 
Q 1191 994 1439 701 
Q 1688 409 2113 409 
Q 2538 409 2786 701 
Q 3034 994 3034 1497 
Q 3034 2003 2786 2293 
Q 2538 2584 2113 2584 
z
M 3366 4563 
L 3366 3988 
Q 3128 4100 2886 4159 
Q 2644 4219 2406 4219 
Q 1781 4219 1451 3797 
Q 1122 3375 1075 2522 
Q 1259 2794 1537 2939 
Q 1816 3084 2150 3084 
Q 2853 3084 3261 2657 
Q 3669 2231 3669 1497 
Q 3669 778 3244 343 
Q 2819 -91 2113 -91 
Q 1303 -91 875 529 
Q 447 1150 447 2328 
Q 447 3434 972 4092 
Q 1497 4750 2381 4750 
Q 2619 4750 2861 4703 
Q 3103 4656 3366 4563 
z
" transform="scale(0.015625)"/>
       </defs>
       <use xlink:href="#DejaVuSans-30"/>
       <use xlink:href="#DejaVuSans-2e" x="63.623047"/>
       <use xlink:href="#DejaVuSans-36" x="95.410156"/>
      </g>
     </g>
    </g>
    <g id="xtick_5">
     <g id="line2d_5">
      <g>
       <use xlink:href="#m8b7acce22c" x="729.654545" y="384.48" style="stroke: #000000; stroke-width: 0.8"/>
      </g>
     </g>
     <g id="text_5">
      <!-- 0.8 -->
      <g transform="translate(721.702983 399.078438)scale(0.1 -0.1)">
       <defs>
        <path id="DejaVuSans-38" d="M 2034 2216 
Q 1584 2216 1326 1975 
Q 1069 1734 1069 1313 
Q 1069 891 1326 650 
Q 1584 409 2034 409 
Q 2484 409 2743 651 
Q 3003 894 3003 1313 
Q 3003 1734 2745 1975 
Q 2488 2216 2034 2216 
z
M 1403 2484 
Q 997 2584 770 2862 
Q 544 3141 544 3541 
Q 544 4100 942 4425 
Q 1341 4750 2034 4750 
Q 2731 4750 3128 4425 
Q 3525 4100 3525 3541 
Q 3525 3141 3298 2862 
Q 3072 2584 2669 2484 
Q 3125 2378 3379 2068 
Q 3634 1759 3634 1313 
Q 3634 634 3220 271 
Q 2806 -91 2034 -91 
Q 1263 -91 848 271 
Q 434 634 434 1313 
Q 434 1759 690 2068 
Q 947 2378 1403 2484 
z
M 1172 3481 
Q 1172 3119 1398 2916 
Q 1625 2713 2034 2713 
Q 2441 2713 2670 2916 
Q 2900 3119 2900 3481 
Q 2900 3844 2670 4047 
Q 2441 4250 2034 4250 
Q 1625 4250 1398 4047 
Q 1172 3844 1172 3481 
z
" transform="scale(0.015625)"/>
       </defs>
       <use xlink:href="#DejaVuSans-30"/>
       <use xlink:href="#DejaVuSans-2e" x="63.623047"/>
       <use xlink:href="#DejaVuSans-38" x="95.410156"/>
      </g>
     </g>
    </g>
    <g id="xtick_6">
     <g id="line2d_6">
      <g>
       <use xlink:href="#m8b7acce22c" x="871.690909" y="384.48" style="stroke: #000000; stroke-width: 0.8"/>
      </g>
     </g>
     <g id="text_6">
      <!-- 1.0 -->
      <g transform="translate(863.739347 399.078438)scale(0.1 -0.1)">
       <defs>
        <path id="DejaVuSans-31" d="M 794 531 
L 1825 531 
L 1825 4091 
L 703 3866 
L 703 4441 
L 1819 4666 
L 2450 4666 
L 2450 531 
L 3481 531 
L 3481 0 
L 794 0 
L 794 531 
z
" transform="scale(0.015625)"/>
       </defs>
       <use xlink:href="#DejaVuSans-31"/>
       <use xlink:href="#DejaVuSans-2e" x="63.623047"/>
       <use xlink:href="#DejaVuSans-30" x="95.410156"/>
      </g>
     </g>
    </g>
    <g id="text_7">
     <!-- Time -->
     <g transform="translate(504.366406 412.756563)scale(0.1 -0.1)">
      <defs>
       <path id="DejaVuSans-54" d="M -19 4666 
L 3928 4666 
L 3928 4134 
L 2272 4134 
L 2272 0 
L 1638 0 
L 1638 4134 
L -19 4134 
L -19 4666 
z
" transform="scale(0.015625)"/>
       <path id="DejaVuSans-69" d="M 603 3500 
L 1178 3500 
L 1178 0 
L 603 0 
L 603 3500 
z
M 603 4863 
L 1178 4863 
L 1178 4134 
L 603 4134 
L 603 4863 
z
" transform="scale(0.015625)"/>
       <path id="DejaVuSans-6d" d="M 3328 2828 
Q 3544 3216 3844 3400 
Q 4144 3584 4550 3584 
Q 5097 3584 5394 3201 
Q 5691 2819 5691 2113 
L 5691 0 
L 5113 0 
L 5113 2094 
Q 5113 2597 4934 2840 
Q 4756 3084 4391 3084 
Q 3944 3084 3684 2787 
Q 3425 2491 3425 1978 
L 3425 0 
L 2847 0 
L 2847 2094 
Q 2847 2600 2669 2842 
Q 2491 3084 2119 3084 
Q 1678 3084 1418 2786 
Q 1159 2488 1159 1978 
L 1159 0 
L 581 0 
L 581 3500 
L 1159 3500 
L 1159 2956 
Q 1356 3278 1631 3431 
Q 1906 3584 2284 3584 
Q 2666 3584 2933 3390 
Q 3200 3197 3328 2828 
z
" transform="scale(0.015625)"/>
       <path id="DejaVuSans-65" d="M 3597 1894 
L 3597 1613 
L 953 1613 
Q 991 1019 1311 708 
Q 1631 397 2203 397 
Q 2534 397 2845 478 
Q 3156 559 3463 722 
L 3463 178 
Q 3153 47 2828 -22 
Q 2503 -91 2169 -91 
Q 1331 -91 842 396 
Q 353 884 353 1716 
Q 353 2575 817 3079 
Q 1281 3584 2069 3584 
Q 2775 3584 3186 3129 
Q 3597 2675 3597 1894 
z
M 3022 2063 
Q 3016 2534 2758 2815 
Q 2500 3097 2075 3097 
Q 1594 3097 1305 2825 
Q 1016 2553 972 2059 
L 3022 2063 
z
" transform="scale(0.015625)"/>
      </defs>
      <use xlink:href="#DejaVuSans-54"/>
      <use xlink:href="#DejaVuSans-69" x="57.958984"/>
      <use xlink:href="#DejaVuSans-6d" x="85.742188"/>
      <use xlink:href="#DejaVuSans-65" x="183.154297"/>
     </g>
    </g>
   </g>
   <g id="matplotlib.axis_2">
    <g id="ytick_1">
     <g id="line2d_7">
      <defs>
       <path id="m9f74fcb9fc" d="M 0 0 
L -3.5 0 
" style="stroke: #000000; stroke-width: 0.8"/>
      </defs>
      <g>
       <use xlink:href="#m9f74fcb9fc" x="126" y="369.688273" style="stroke: #000000; stroke-width: 0.8"/>
      </g>
     </g>
     <g id="text_8">
      <!-- 0.0 -->
      <g transform="translate(103.096875 373.487491)scale(0.1 -0.1)">
       <use xlink:href="#DejaVuSans-30"/>
       <use xlink:href="#DejaVuSans-2e" x="63.623047"/>
       <use xlink:href="#DejaVuSans-30" x="95.410156"/>
      </g>
     </g>
    </g>
    <g id="ytick_2">
     <g id="line2d_8">
      <g>
       <use xlink:href="#m9f74fcb9fc" x="126" y="321.343819" style="stroke: #000000; stroke-width: 0.8"/>
      </g>
     </g>
     <g id="text_9">
      <!-- 0.2 -->
      <g transform="translate(103.096875 325.143038)scale(0.1 -0.1)">
       <use xlink:href="#DejaVuSans-30"/>
       <use xlink:href="#DejaVuSans-2e" x="63.623047"/>
       <use xlink:href="#DejaVuSans-32" x="95.410156"/>
      </g>
     </g>
    </g>
    <g id="ytick_3">
     <g id="line2d_9">
      <g>
       <use xlink:href="#m9f74fcb9fc" x="126" y="272.999366" style="stroke: #000000; stroke-width: 0.8"/>
      </g>
     </g>
     <g id="text_10">
      <!-- 0.4 -->
      <g transform="translate(103.096875 276.798585)scale(0.1 -0.1)">
       <use xlink:href="#DejaVuSans-30"/>
       <use xlink:href="#DejaVuSans-2e" x="63.623047"/>
       <use xlink:href="#DejaVuSans-34" x="95.410156"/>
      </g>
     </g>
    </g>
    <g id="ytick_4">
     <g id="line2d_10">
      <g>
       <use xlink:href="#m9f74fcb9fc" x="126" y="224.654913" style="stroke: #000000; stroke-width: 0.8"/>
      </g>
     </g>
     <g id="text_11">
      <!-- 0.6 -->
      <g transform="translate(103.096875 228.454132)scale(0.1 -0.1)">
       <use xlink:href="#DejaVuSans-30"/>
       <use xlink:href="#DejaVuSans-2e" x="63.623047"/>
       <use xlink:href="#DejaVuSans-36" x="95.410156"/>
      </g>
     </g>
    </g>
    <g id="ytick_5">
     <g id="line2d_11">
      <g>
       <use xlink:href="#m9f74fcb9fc" x="126" y="176.31046" style="stroke: #000000; stroke-width: 0.8"/>
      </g>
     </g>
     <g id="text_12">
      <!-- 0.8 -->
      <g transform="translate(103.096875 180.109679)scale(0.1 -0.1)">
       <use xlink:href="#DejaVuSans-30"/>
       <use xlink:href="#DejaVuSans-2e" x="63.623047"/>
       <use xlink:href="#DejaVuSans-38" x="95.410156"/>
      </g>
     </g>
    </g>
    <g id="ytick_6">
     <g id="line2d_12">
      <g>
       <use xlink:href="#m9f74fcb9fc" x="126" y="127.966007" style="stroke: #000000; stroke-width: 0.8"/>
      </g>
     </g>
     <g id="text_13">
      <!-- 1.0 -->
      <g transform="translate(103.096875 131.765226)scale(0.1 -0.1)">
       <use xlink:href="#DejaVuSans-31"/>
       <use xlink:href="#DejaVuSans-2e" x="63.623047"/>
       <use xlink:href="#DejaVuSans-30" x="95.410156"/>
      </g>
     </g>
    </g>
    <g id="ytick_7">
     <g id="line2d_13">
      <g>
       <use xlink:href="#m9f74fcb9fc" x="126" y="79.621554" style="stroke: #000000; stroke-width: 0.8"/>
      </g>
     </g>
     <g id="text_14">
      <!-- 1.2 -->
      <g transform="translate(103.096875 83.420773)scale(0.1 -0.1)">
       <use xlink:href="#DejaVuSans-31"/>
       <use xlink:href="#DejaVuSans-2e" x="63.623047"/>
       <use xlink:href="#DejaVuSans-32" x="95.410156"/>
      </g>
     </g>
    </g>
    <g id="text_15">
     <!-- Quadratic Covariation -->
     <g transform="translate(97.017187 272.970156)rotate(-90)scale(0.1 -0.1)">
      <defs>
       <path id="DejaVuSans-51" d="M 2522 4238 
Q 1834 4238 1429 3725 
Q 1025 3213 1025 2328 
Q 1025 1447 1429 934 
Q 1834 422 2522 422 
Q 3209 422 3611 934 
Q 4013 1447 4013 2328 
Q 4013 3213 3611 3725 
Q 3209 4238 2522 4238 
z
M 3406 84 
L 4238 -825 
L 3475 -825 
L 2784 -78 
Q 2681 -84 2626 -87 
Q 2572 -91 2522 -91 
Q 1538 -91 948 567 
Q 359 1225 359 2328 
Q 359 3434 948 4092 
Q 1538 4750 2522 4750 
Q 3503 4750 4090 4092 
Q 4678 3434 4678 2328 
Q 4678 1516 4351 937 
Q 4025 359 3406 84 
z
" transform="scale(0.015625)"/>
       <path id="DejaVuSans-75" d="M 544 1381 
L 544 3500 
L 1119 3500 
L 1119 1403 
Q 1119 906 1312 657 
Q 1506 409 1894 409 
Q 2359 409 2629 706 
Q 2900 1003 2900 1516 
L 2900 3500 
L 3475 3500 
L 3475 0 
L 2900 0 
L 2900 538 
Q 2691 219 2414 64 
Q 2138 -91 1772 -91 
Q 1169 -91 856 284 
Q 544 659 544 1381 
z
M 1991 3584 
L 1991 3584 
z
" transform="scale(0.015625)"/>
       <path id="DejaVuSans-61" d="M 2194 1759 
Q 1497 1759 1228 1600 
Q 959 1441 959 1056 
Q 959 750 1161 570 
Q 1363 391 1709 391 
Q 2188 391 2477 730 
Q 2766 1069 2766 1631 
L 2766 1759 
L 2194 1759 
z
M 3341 1997 
L 3341 0 
L 2766 0 
L 2766 531 
Q 2569 213 2275 61 
Q 1981 -91 1556 -91 
Q 1019 -91 701 211 
Q 384 513 384 1019 
Q 384 1609 779 1909 
Q 1175 2209 1959 2209 
L 2766 2209 
L 2766 2266 
Q 2766 2663 2505 2880 
Q 2244 3097 1772 3097 
Q 1472 3097 1187 3025 
Q 903 2953 641 2809 
L 641 3341 
Q 956 3463 1253 3523 
Q 1550 3584 1831 3584 
Q 2591 3584 2966 3190 
Q 3341 2797 3341 1997 
z
" transform="scale(0.015625)"/>
       <path id="DejaVuSans-64" d="M 2906 2969 
L 2906 4863 
L 3481 4863 
L 3481 0 
L 2906 0 
L 2906 525 
Q 2725 213 2448 61 
Q 2172 -91 1784 -91 
Q 1150 -91 751 415 
Q 353 922 353 1747 
Q 353 2572 751 3078 
Q 1150 3584 1784 3584 
Q 2172 3584 2448 3432 
Q 2725 3281 2906 2969 
z
M 947 1747 
Q 947 1113 1208 752 
Q 1469 391 1925 391 
Q 2381 391 2643 752 
Q 2906 1113 2906 1747 
Q 2906 2381 2643 2742 
Q 2381 3103 1925 3103 
Q 1469 3103 1208 2742 
Q 947 2381 947 1747 
z
" transform="scale(0.015625)"/>
       <path id="DejaVuSans-72" d="M 2631 2963 
Q 2534 3019 2420 3045 
Q 2306 3072 2169 3072 
Q 1681 3072 1420 2755 
Q 1159 2438 1159 1844 
L 1159 0 
L 581 0 
L 581 3500 
L 1159 3500 
L 1159 2956 
Q 1341 3275 1631 3429 
Q 1922 3584 2338 3584 
Q 2397 3584 2469 3576 
Q 2541 3569 2628 3553 
L 2631 2963 
z
" transform="scale(0.015625)"/>
       <path id="DejaVuSans-74" d="M 1172 4494 
L 1172 3500 
L 2356 3500 
L 2356 3053 
L 1172 3053 
L 1172 1153 
Q 1172 725 1289 603 
Q 1406 481 1766 481 
L 2356 481 
L 2356 0 
L 1766 0 
Q 1100 0 847 248 
Q 594 497 594 1153 
L 594 3053 
L 172 3053 
L 172 3500 
L 594 3500 
L 594 4494 
L 1172 4494 
z
" transform="scale(0.015625)"/>
       <path id="DejaVuSans-63" d="M 3122 3366 
L 3122 2828 
Q 2878 2963 2633 3030 
Q 2388 3097 2138 3097 
Q 1578 3097 1268 2742 
Q 959 2388 959 1747 
Q 959 1106 1268 751 
Q 1578 397 2138 397 
Q 2388 397 2633 464 
Q 2878 531 3122 666 
L 3122 134 
Q 2881 22 2623 -34 
Q 2366 -91 2075 -91 
Q 1284 -91 818 406 
Q 353 903 353 1747 
Q 353 2603 823 3093 
Q 1294 3584 2113 3584 
Q 2378 3584 2631 3529 
Q 2884 3475 3122 3366 
z
" transform="scale(0.015625)"/>
       <path id="DejaVuSans-20" transform="scale(0.015625)"/>
       <path id="DejaVuSans-43" d="M 4122 4306 
L 4122 3641 
Q 3803 3938 3442 4084 
Q 3081 4231 2675 4231 
Q 1875 4231 1450 3742 
Q 1025 3253 1025 2328 
Q 1025 1406 1450 917 
Q 1875 428 2675 428 
Q 3081 428 3442 575 
Q 3803 722 4122 1019 
L 4122 359 
Q 3791 134 3420 21 
Q 3050 -91 2638 -91 
Q 1578 -91 968 557 
Q 359 1206 359 2328 
Q 359 3453 968 4101 
Q 1578 4750 2638 4750 
Q 3056 4750 3426 4639 
Q 3797 4528 4122 4306 
z
" transform="scale(0.015625)"/>
       <path id="DejaVuSans-6f" d="M 1959 3097 
Q 1497 3097 1228 2736 
Q 959 2375 959 1747 
Q 959 1119 1226 758 
Q 1494 397 1959 397 
Q 2419 397 2687 759 
Q 2956 1122 2956 1747 
Q 2956 2369 2687 2733 
Q 2419 3097 1959 3097 
z
M 1959 3584 
Q 2709 3584 3137 3096 
Q 3566 2609 3566 1747 
Q 3566 888 3137 398 
Q 2709 -91 1959 -91 
Q 1206 -91 779 398 
Q 353 888 353 1747 
Q 353 2609 779 3096 
Q 1206 3584 1959 3584 
z
" transform="scale(0.015625)"/>
       <path id="DejaVuSans-76" d="M 191 3500 
L 800 3500 
L 1894 563 
L 2988 3500 
L 3597 3500 
L 2284 0 
L 1503 0 
L 191 3500 
z
" transform="scale(0.015625)"/>
       <path id="DejaVuSans-6e" d="M 3513 2113 
L 3513 0 
L 2938 0 
L 2938 2094 
Q 2938 2591 2744 2837 
Q 2550 3084 2163 3084 
Q 1697 3084 1428 2787 
Q 1159 2491 1159 1978 
L 1159 0 
L 581 0 
L 581 3500 
L 1159 3500 
L 1159 2956 
Q 1366 3272 1645 3428 
Q 1925 3584 2291 3584 
Q 2894 3584 3203 3211 
Q 3513 2838 3513 2113 
z
" transform="scale(0.015625)"/>
      </defs>
      <use xlink:href="#DejaVuSans-51"/>
      <use xlink:href="#DejaVuSans-75" x="78.710938"/>
      <use xlink:href="#DejaVuSans-61" x="142.089844"/>
      <use xlink:href="#DejaVuSans-64" x="203.369141"/>
      <use xlink:href="#DejaVuSans-72" x="266.845703"/>
      <use xlink:href="#DejaVuSans-61" x="307.958984"/>
      <use xlink:href="#DejaVuSans-74" x="369.238281"/>
      <use xlink:href="#DejaVuSans-69" x="408.447266"/>
      <use xlink:href="#DejaVuSans-63" x="436.230469"/>
      <use xlink:href="#DejaVuSans-20" x="491.210938"/>
      <use xlink:href="#DejaVuSans-43" x="522.998047"/>
      <use xlink:href="#DejaVuSans-6f" x="592.822266"/>
      <use xlink:href="#DejaVuSans-76" x="654.003906"/>
      <use xlink:href="#DejaVuSans-61" x="713.183594"/>
      <use xlink:href="#DejaVuSans-72" x="774.462891"/>
      <use xlink:href="#DejaVuSans-69" x="815.576172"/>
      <use xlink:href="#DejaVuSans-61" x="843.359375"/>
      <use xlink:href="#DejaVuSans-74" x="904.638672"/>
      <use xlink:href="#DejaVuSans-69" x="943.847656"/>
      <use xlink:href="#DejaVuSans-6f" x="971.630859"/>
      <use xlink:href="#DejaVuSans-6e" x="1032.8125"/>
     </g>
    </g>
   </g>
   <g id="line2d_14">
    <path d="M 161.509091 127.966007 
L 162.219273 135.259514 
L 162.929455 137.556761 
L 163.639636 134.319679 
L 164.349818 134.322764 
L 165.06 135.49914 
L 165.770182 135.086031 
L 166.480364 133.753117 
L 167.190545 134.941087 
L 167.900727 129.489358 
L 168.610909 130.463032 
L 169.321091 126.822118 
L 170.031273 127.126872 
L 170.741455 126.515133 
L 171.451636 124.608874 
L 172.161818 121.452274 
L 172.872 120.654571 
L 173.582182 122.363394 
L 174.292364 123.200888 
L 175.002545 121.338757 
L 176.422909 118.798302 
L 177.133091 123.630882 
L 177.843273 123.973587 
L 178.553455 129.8922 
L 179.263636 132.870241 
L 179.973818 124.412384 
L 180.684 125.507575 
L 181.394182 123.796035 
L 182.104364 120.200007 
L 182.814545 113.242101 
L 183.524727 108.227114 
L 184.234909 112.767003 
L 185.655273 126.724841 
L 186.365455 124.243001 
L 187.075636 131.183598 
L 187.785818 125.936854 
L 188.496 124.20922 
L 189.206182 118.76361 
L 189.916364 120.347486 
L 190.626545 126.495753 
L 191.336727 131.418079 
L 192.046909 130.166939 
L 192.757091 126.52223 
L 193.467273 128.500604 
L 194.177455 133.46047 
L 194.887636 136.986057 
L 195.597818 130.254762 
L 197.018182 127.003108 
L 197.728364 124.455782 
L 198.438545 127.495207 
L 199.148727 128.235314 
L 199.858909 130.997831 
L 201.279273 118.296372 
L 201.989455 117.257848 
L 202.699636 120.432171 
L 203.409818 119.540199 
L 204.12 116.726527 
L 204.830182 118.564278 
L 205.540364 114.325353 
L 206.250545 116.294213 
L 206.960727 109.306533 
L 207.670909 115.170606 
L 208.381091 113.896154 
L 209.091273 115.127468 
L 209.801455 113.98641 
L 210.511636 119.006086 
L 211.221818 117.392272 
L 211.932 112.469308 
L 212.642182 111.687275 
L 213.352364 111.644779 
L 214.062545 109.799934 
L 215.482909 115.902015 
L 216.193091 119.600443 
L 216.903273 125.60596 
L 218.323636 119.220941 
L 219.033818 119.292754 
L 219.744 120.015027 
L 220.454182 112.015875 
L 221.874545 104.322182 
L 222.584727 105.701884 
L 223.294909 105.944547 
L 224.005091 103.927717 
L 224.715273 107.515427 
L 225.425455 112.127375 
L 226.135636 108.192781 
L 226.845818 109.478918 
L 227.556 107.310591 
L 228.266182 109.260723 
L 228.976364 105.14494 
L 229.686545 112.890801 
L 231.106909 118.149846 
L 231.817091 114.002841 
L 233.237455 108.105835 
L 233.947636 107.061702 
L 234.657818 112.432717 
L 235.368 116.177154 
L 236.078182 124.757914 
L 236.788364 129.915525 
L 237.498545 130.966352 
L 238.208727 134.245839 
L 238.918909 128.947219 
L 239.629091 130.703362 
L 240.339273 138.583757 
L 241.049455 139.174095 
L 241.759636 143.128608 
L 242.469818 138.082426 
L 243.18 141.184867 
L 243.890182 135.044073 
L 244.600364 144.403695 
L 245.310545 145.789054 
L 246.020727 143.863943 
L 246.730909 144.93616 
L 247.441091 148.479925 
L 248.151273 149.335646 
L 248.861455 151.233142 
L 249.571636 149.784573 
L 250.281818 160.507236 
L 251.702182 158.260383 
L 252.412364 160.917453 
L 253.122545 160.585193 
L 253.832727 159.936609 
L 254.542909 160.435358 
L 255.253091 164.027573 
L 256.673455 159.307587 
L 257.383636 159.072467 
L 258.093818 155.864002 
L 258.804 151.970418 
L 260.224364 154.898597 
L 260.934545 157.184507 
L 261.644727 157.60213 
L 262.354909 159.629666 
L 263.065091 160.471878 
L 263.775273 159.428395 
L 264.485455 167.220684 
L 265.905818 157.426557 
L 266.616 152.705558 
L 267.326182 154.09263 
L 268.036364 146.912173 
L 268.746545 145.927181 
L 269.456727 155.171459 
L 270.166909 151.660899 
L 270.877091 156.525996 
L 272.297455 172.587389 
L 273.007636 174.032049 
L 273.717818 178.045312 
L 274.428 178.151394 
L 275.138182 173.214432 
L 275.848364 175.942199 
L 276.558545 180.628016 
L 277.268727 179.697618 
L 277.978909 181.481837 
L 278.689091 184.125305 
L 279.399273 182.748427 
L 280.109455 186.131932 
L 281.529818 189.554046 
L 282.24 187.095866 
L 282.950182 185.629032 
L 283.660364 184.427893 
L 284.370545 189.773709 
L 285.080727 192.253213 
L 285.790909 188.827164 
L 286.501091 190.141233 
L 287.211273 182.713128 
L 287.921455 177.493927 
L 288.631636 183.917205 
L 289.341818 180.9551 
L 290.052 184.128191 
L 290.762182 189.608586 
L 291.472364 191.248998 
L 292.182545 197.018563 
L 292.892727 196.012791 
L 293.602909 198.668339 
L 294.313091 197.779341 
L 295.023273 201.171922 
L 296.443636 196.819199 
L 297.153818 204.140778 
L 298.574182 202.322642 
L 299.284364 197.150395 
L 299.994545 197.612769 
L 300.704727 199.305952 
L 301.414909 200.539341 
L 302.125091 200.329355 
L 302.835273 199.23226 
L 303.545455 202.128078 
L 304.255636 202.720349 
L 304.965818 198.275127 
L 305.676 199.963947 
L 306.386182 202.802082 
L 307.096364 198.367054 
L 307.806545 201.796392 
L 308.516727 196.976016 
L 309.226909 194.95692 
L 309.937091 197.017963 
L 310.647273 196.547813 
L 311.357455 193.78859 
L 312.067636 195.108546 
L 312.777818 190.503169 
L 313.488 187.034316 
L 314.198182 181.680146 
L 314.908364 180.18644 
L 315.618545 185.882365 
L 316.328727 186.703131 
L 317.038909 186.908712 
L 317.749091 184.557844 
L 318.459273 190.989975 
L 319.169455 190.94008 
L 319.879636 193.676302 
L 320.589818 186.579646 
L 321.3 182.78741 
L 322.010182 177.101622 
L 322.720364 176.887637 
L 323.430545 176.410922 
L 324.140727 170.921556 
L 324.850909 167.271261 
L 325.561091 166.450639 
L 326.271273 171.253339 
L 327.691636 177.751159 
L 328.401818 177.950573 
L 329.112 180.880901 
L 329.822182 182.288757 
L 330.532364 183.429294 
L 331.242545 182.916003 
L 331.952727 180.228635 
L 332.662909 182.522947 
L 333.373091 177.775871 
L 334.083273 176.491077 
L 334.793455 169.933923 
L 335.503636 171.021723 
L 336.213818 173.462945 
L 336.924 169.567752 
L 337.634182 167.921439 
L 338.344364 164.702713 
L 339.054545 168.848819 
L 339.764727 165.268712 
L 340.474909 167.246875 
L 341.185091 167.794357 
L 341.895273 173.225904 
L 342.605455 175.555824 
L 343.315636 174.662757 
L 344.025818 173.095902 
L 345.446182 184.234859 
L 346.156364 190.931361 
L 346.866545 189.004186 
L 347.576727 189.975594 
L 348.286909 188.42879 
L 348.997091 191.005164 
L 349.707273 189.421574 
L 350.417455 190.196345 
L 351.127636 187.858107 
L 351.837818 186.590206 
L 352.548 184.336341 
L 353.258182 190.241042 
L 353.968364 188.256822 
L 354.678545 190.565651 
L 355.388727 191.958242 
L 356.098909 190.238224 
L 356.809091 183.69875 
L 357.519273 175.763067 
L 358.229455 174.096997 
L 358.939636 170.972352 
L 359.649818 178.560288 
L 360.36 177.906901 
L 361.070182 179.01414 
L 361.780364 178.983642 
L 362.490545 178.548226 
L 363.200727 181.350843 
L 363.910909 181.734933 
L 364.621091 182.398136 
L 365.331273 183.439154 
L 366.041455 171.979396 
L 366.751636 166.73886 
L 367.461818 166.074763 
L 368.172 169.532571 
L 368.882182 168.51903 
L 369.592364 165.847671 
L 370.302545 169.168193 
L 371.012727 170.322975 
L 371.722909 172.240941 
L 373.143273 179.792014 
L 373.853455 178.097315 
L 374.563636 177.576324 
L 375.273818 179.525212 
L 375.984 173.614374 
L 376.694182 169.948039 
L 377.404364 175.497393 
L 378.824727 168.771503 
L 379.534909 173.060085 
L 380.245091 179.233867 
L 380.955273 181.954679 
L 381.665455 175.696028 
L 382.375636 172.756781 
L 383.085818 174.920878 
L 383.796 170.450202 
L 385.216364 177.968065 
L 385.926545 175.82983 
L 386.636727 171.744759 
L 387.346909 176.603704 
L 388.057091 176.958845 
L 388.767273 174.964894 
L 389.477455 178.561711 
L 390.187636 179.257132 
L 390.897818 175.451607 
L 391.608 171.026596 
L 392.318182 168.078983 
L 393.028364 163.700637 
L 393.738545 164.987118 
L 394.448727 162.087057 
L 395.158909 171.400358 
L 395.869091 176.20136 
L 396.579273 166.988591 
L 397.289455 171.153667 
L 397.999636 168.175677 
L 398.709818 166.371964 
L 399.42 165.07816 
L 400.130182 162.487523 
L 400.840364 166.584133 
L 401.550545 167.215458 
L 402.970909 163.271574 
L 403.681091 165.14202 
L 404.391273 165.139337 
L 405.101455 169.492322 
L 405.811636 177.846594 
L 406.521818 182.541522 
L 407.232 179.779252 
L 407.942182 179.935578 
L 408.652364 176.445918 
L 409.362545 177.767132 
L 410.782909 172.202389 
L 411.493091 171.184003 
L 412.203273 171.477815 
L 412.913455 169.66555 
L 413.623636 170.420924 
L 414.333818 174.878411 
L 415.044 171.954511 
L 415.754182 179.75066 
L 416.464364 177.468524 
L 417.174545 177.971625 
L 417.884727 176.361251 
L 418.594909 183.27105 
L 419.305091 176.741644 
L 420.015273 186.382823 
L 421.435636 193.163794 
L 422.145818 190.848446 
L 422.856 196.403226 
L 423.566182 191.503731 
L 424.276364 182.30609 
L 424.986545 175.81664 
L 425.696727 176.66217 
L 426.406909 173.145676 
L 427.117091 182.65209 
L 427.827273 183.645602 
L 428.537455 183.829644 
L 429.247636 179.744447 
L 429.957818 184.338373 
L 430.668 185.067153 
L 431.378182 186.875826 
L 432.088364 186.057849 
L 432.798545 180.121286 
L 433.508727 177.09429 
L 434.218909 171.733608 
L 434.929091 172.554989 
L 435.639273 163.894636 
L 436.349455 167.249538 
L 437.059636 165.80471 
L 437.769818 168.723896 
L 438.48 172.678239 
L 439.190182 170.747076 
L 439.900364 173.021084 
L 440.610545 170.137388 
L 441.320727 172.450082 
L 442.030909 172.334044 
L 442.741091 164.296389 
L 443.451273 166.378501 
L 444.161455 161.83078 
L 444.871636 160.860478 
L 445.581818 161.26476 
L 446.292 164.750417 
L 447.002182 166.261951 
L 447.712364 166.864712 
L 448.422545 163.815561 
L 449.132727 167.175075 
L 449.842909 158.360622 
L 450.553091 164.93507 
L 451.263273 167.548058 
L 451.973455 165.124556 
L 452.683636 168.733851 
L 453.393818 164.021239 
L 454.104 167.260603 
L 454.814182 165.065091 
L 455.524364 167.677647 
L 456.234545 168.934018 
L 456.944727 167.980238 
L 457.654909 166.169722 
L 458.365091 168.595892 
L 459.075273 174.456285 
L 459.785455 171.890006 
L 460.495636 163.584231 
L 461.205818 158.043349 
L 461.916 156.169257 
L 462.626182 144.331244 
L 463.336364 142.469884 
L 464.046545 148.493297 
L 464.756727 149.155238 
L 465.466909 149.24592 
L 466.177091 152.11481 
L 466.887273 156.915954 
L 467.597455 156.321118 
L 468.307636 154.22046 
L 469.017818 162.961744 
L 469.728 159.776592 
L 471.148364 166.409672 
L 471.858545 172.64354 
L 472.568727 166.730356 
L 473.278909 155.161114 
L 473.989091 161.440093 
L 474.699273 161.519452 
L 475.409455 166.873443 
L 476.119636 162.996609 
L 476.829818 157.94664 
L 477.54 164.628134 
L 478.250182 164.385141 
L 479.670545 173.774841 
L 480.380727 170.059813 
L 481.090909 177.232947 
L 481.801091 180.04631 
L 483.221455 186.827422 
L 483.931636 185.014538 
L 484.641818 184.372491 
L 485.352 181.17363 
L 486.062182 188.097356 
L 486.772364 184.181188 
L 487.482545 183.321358 
L 488.192727 182.004924 
L 488.902909 181.511078 
L 489.613091 174.735677 
L 490.323273 173.911165 
L 491.033455 174.929238 
L 491.743636 177.253414 
L 492.453818 178.705095 
L 493.164 180.94497 
L 493.874182 181.599516 
L 494.584364 172.050861 
L 495.294545 178.29567 
L 496.004727 167.408264 
L 496.714909 162.820472 
L 497.425091 162.262071 
L 498.135273 170.950152 
L 498.845455 175.281569 
L 499.555636 175.312524 
L 500.265818 170.230827 
L 500.976 169.618118 
L 501.686182 168.430778 
L 502.396364 173.26519 
L 503.106545 171.074208 
L 503.816727 171.573549 
L 504.526909 176.23568 
L 505.237091 176.342391 
L 505.947273 179.007064 
L 506.657455 177.582916 
L 507.367636 179.693123 
L 508.077818 178.515146 
L 508.788 172.485937 
L 509.498182 168.956157 
L 510.918545 173.660311 
L 511.628727 166.258204 
L 512.338909 166.301578 
L 513.049091 167.786657 
L 513.759273 175.402265 
L 514.469455 169.832146 
L 515.179636 165.70463 
L 515.889818 168.237894 
L 516.6 170.204782 
L 517.310182 173.398959 
L 518.020364 175.259516 
L 519.440727 171.815555 
L 520.150909 168.363381 
L 520.861091 158.082154 
L 521.571273 156.376757 
L 522.281455 153.463626 
L 522.991636 154.168271 
L 523.701818 154.355037 
L 524.412 154.402153 
L 525.122182 151.860519 
L 525.832364 145.738669 
L 526.542545 141.141606 
L 527.252727 137.704113 
L 527.962909 136.075309 
L 528.673091 137.376216 
L 529.383273 131.895793 
L 530.093455 129.642287 
L 530.803636 128.959062 
L 531.513818 129.037168 
L 532.224 129.628516 
L 532.934182 119.773672 
L 533.644364 116.440398 
L 534.354545 117.415014 
L 535.064727 119.924564 
L 535.774909 119.751654 
L 536.485091 116.963303 
L 537.195273 117.184571 
L 537.905455 122.269119 
L 538.615636 125.683856 
L 540.036 131.565109 
L 540.746182 133.085905 
L 541.456364 139.139548 
L 542.166545 143.528161 
L 542.876727 141.079925 
L 543.586909 139.33165 
L 544.297091 142.704498 
L 545.007273 144.417334 
L 545.717455 145.622902 
L 546.427636 145.888895 
L 547.137818 148.692443 
L 547.848 144.630451 
L 548.558182 144.12263 
L 549.268364 137.877393 
L 549.978545 144.202721 
L 550.688727 139.963581 
L 551.398909 141.01355 
L 552.109091 136.73213 
L 552.819273 142.519042 
L 553.529455 143.917665 
L 554.239636 148.324941 
L 554.949818 144.029129 
L 555.66 143.359892 
L 556.370182 144.499654 
L 557.080364 140.98921 
L 557.790545 140.994648 
L 558.500727 136.236682 
L 559.210909 138.645802 
L 561.341455 147.704215 
L 562.051636 146.643009 
L 562.761818 147.824406 
L 563.472 146.350872 
L 564.182182 142.794749 
L 564.892364 144.840923 
L 565.602545 144.478815 
L 566.312727 144.47837 
L 567.022909 147.89231 
L 567.733091 148.45182 
L 568.443273 150.575221 
L 569.153455 150.284891 
L 569.863636 145.141987 
L 570.573818 141.454554 
L 571.284 141.493808 
L 571.994182 137.555975 
L 572.704364 138.084086 
L 574.834909 132.071448 
L 575.545091 123.088682 
L 576.255273 117.936528 
L 576.965455 116.73537 
L 577.675636 122.820312 
L 578.385818 122.560562 
L 579.096 124.954651 
L 579.806182 129.632038 
L 580.516364 133.262669 
L 581.226545 129.482224 
L 581.936727 133.990487 
L 582.646909 137.107839 
L 583.357091 135.822723 
L 584.067273 132.991817 
L 584.777455 128.175401 
L 585.487636 128.607044 
L 586.197818 127.724448 
L 586.908 125.092275 
L 587.618182 130.17463 
L 588.328364 131.203904 
L 589.038545 133.641286 
L 589.748727 132.336271 
L 590.458909 133.89861 
L 591.169091 130.167885 
L 591.879273 138.546362 
L 592.589455 134.003849 
L 593.299636 137.164012 
L 594.009818 141.802475 
L 594.72 144.874147 
L 595.430182 143.02259 
L 596.140364 143.802123 
L 596.850545 141.757169 
L 597.560727 141.872188 
L 598.270909 144.215288 
L 598.981091 134.115176 
L 599.691273 138.0882 
L 600.401455 145.273853 
L 601.111636 142.212283 
L 601.821818 145.103061 
L 602.532 148.767243 
L 603.242182 150.875254 
L 603.952364 148.005615 
L 604.662545 156.278594 
L 605.372727 159.905636 
L 606.082909 157.659619 
L 606.793091 167.041737 
L 607.503273 167.539277 
L 608.213455 167.083477 
L 608.923636 168.471851 
L 609.633818 168.607762 
L 610.344 176.168153 
L 611.054182 174.018627 
L 611.764364 166.740257 
L 612.474545 168.84482 
L 613.184727 166.097835 
L 613.894909 164.607871 
L 614.605091 168.056276 
L 615.315273 169.336138 
L 616.025455 168.707538 
L 616.735636 162.890051 
L 617.445818 167.216591 
L 618.156 169.549318 
L 618.866182 166.309615 
L 619.576364 158.788582 
L 620.286545 155.292488 
L 620.996727 155.525674 
L 621.706909 151.18696 
L 622.417091 150.451337 
L 623.127273 149.002251 
L 623.837455 142.071009 
L 624.547636 137.490021 
L 625.257818 129.28889 
L 625.968 126.416377 
L 626.678182 126.896562 
L 627.388364 125.078422 
L 628.098545 119.108718 
L 628.808727 111.106282 
L 629.518909 114.376862 
L 630.229091 114.314329 
L 630.939273 115.477551 
L 631.649455 119.533347 
L 633.069818 115.098228 
L 633.78 121.540079 
L 634.490182 121.983711 
L 635.200364 122.76402 
L 635.910545 127.97185 
L 636.620727 129.937325 
L 637.330909 138.365967 
L 638.041091 139.765016 
L 638.751273 136.646486 
L 639.461455 135.633319 
L 640.171636 130.833572 
L 640.881818 132.69034 
L 643.012364 143.755621 
L 643.722545 140.817434 
L 644.432727 140.425404 
L 645.142909 137.150417 
L 645.853091 140.602531 
L 646.563273 136.310458 
L 647.983636 141.489739 
L 648.693818 147.282821 
L 649.404 151.777272 
L 650.114182 152.280999 
L 650.824364 156.510289 
L 651.534545 155.921751 
L 652.244727 152.362724 
L 652.954909 149.966719 
L 653.665091 155.774951 
L 654.375273 153.63068 
L 655.085455 151.116076 
L 656.505818 140.032791 
L 657.216 139.80102 
L 657.926182 135.920864 
L 658.636364 131.083979 
L 659.346545 135.720278 
L 660.056727 136.591555 
L 660.766909 130.269528 
L 661.477091 129.674677 
L 662.187273 130.739449 
L 662.897455 133.249752 
L 663.607636 126.01671 
L 664.317818 123.697576 
L 665.028 125.256591 
L 665.738182 128.180942 
L 666.448364 127.637587 
L 667.158545 127.512013 
L 667.868727 124.97471 
L 668.578909 121.556255 
L 669.289091 120.395114 
L 669.999273 123.923898 
L 670.709455 118.783666 
L 671.419636 120.213757 
L 672.129818 124.409166 
L 672.84 124.09619 
L 673.550182 126.588346 
L 674.260364 130.563485 
L 674.970545 135.476982 
L 675.680727 143.802405 
L 676.390909 144.467588 
L 677.101091 136.425817 
L 677.811273 126.001536 
L 678.521455 125.279187 
L 679.231636 123.20494 
L 679.941818 127.711961 
L 680.652 129.012994 
L 681.362182 120.15507 
L 682.072364 123.972488 
L 682.782545 125.032948 
L 683.492727 121.999689 
L 684.202909 123.202204 
L 684.913091 122.18201 
L 685.623273 121.759527 
L 686.333455 120.696832 
L 687.043636 115.992479 
L 687.753818 114.521137 
L 688.464 116.228311 
L 689.174182 117.093182 
L 689.884364 114.39075 
L 690.594545 118.552612 
L 691.304727 120.932155 
L 692.014909 124.243721 
L 693.435273 114.805121 
L 694.855636 116.334683 
L 695.565818 124.092114 
L 696.276 127.305254 
L 696.986182 125.184691 
L 697.696364 124.217635 
L 698.406545 130.939167 
L 699.116727 127.008482 
L 699.826909 132.130529 
L 700.537091 131.510832 
L 701.247273 128.964015 
L 701.957455 127.82829 
L 702.667636 124.600237 
L 703.377818 125.526575 
L 704.088 129.907911 
L 704.798182 131.884675 
L 705.508364 120.003834 
L 706.218545 119.512703 
L 706.928727 125.686788 
L 707.638909 127.536393 
L 708.349091 127.807068 
L 709.059273 134.999143 
L 709.769455 132.673828 
L 710.479636 137.637867 
L 711.189818 135.881133 
L 711.9 129.017459 
L 712.610182 125.91481 
L 713.320364 126.340361 
L 714.030545 125.616375 
L 714.740727 125.841701 
L 715.450909 117.384905 
L 716.161091 117.230411 
L 716.871273 116.761477 
L 717.581455 115.630323 
L 718.291636 116.256366 
L 719.001818 113.662843 
L 719.712 109.460863 
L 720.422182 113.217763 
L 721.132364 112.386987 
L 721.842545 110.346409 
L 722.552727 103.814731 
L 723.262909 102.9358 
L 723.973091 107.118385 
L 724.683273 101.25599 
L 725.393455 105.277229 
L 726.103636 103.651398 
L 726.813818 109.916305 
L 727.524 113.370243 
L 728.234182 120.004175 
L 728.944364 118.612459 
L 729.654545 115.714475 
L 730.364727 124.366929 
L 731.074909 123.414583 
L 731.785091 127.080367 
L 732.495273 120.061514 
L 733.205455 120.104086 
L 733.915636 118.603744 
L 734.625818 117.941224 
L 735.336 122.486961 
L 736.046182 124.105054 
L 736.756364 132.522416 
L 737.466545 136.05124 
L 738.176727 134.859994 
L 738.886909 131.352221 
L 739.597091 134.901243 
L 740.307273 123.692773 
L 741.017455 122.696424 
L 741.727636 126.442586 
L 742.437818 128.521542 
L 743.858182 136.901252 
L 745.278545 135.717258 
L 745.988727 146.213041 
L 746.698909 145.58252 
L 747.409091 147.591663 
L 748.119273 149.077558 
L 748.829455 150.189963 
L 749.539636 150.015463 
L 750.249818 155.004706 
L 750.96 156.999119 
L 751.670182 157.754486 
L 752.380364 159.310477 
L 753.090545 161.786714 
L 753.800727 159.126683 
L 754.510909 159.093818 
L 755.221091 158.400853 
L 755.931273 161.474922 
L 756.641455 160.192993 
L 758.061818 165.076687 
L 758.772 159.101355 
L 759.482182 163.57839 
L 760.192364 163.786176 
L 760.902545 162.813877 
L 761.612727 162.164641 
L 762.322909 163.897385 
L 763.033091 161.131042 
L 763.743273 163.349719 
L 764.453455 157.757575 
L 765.163636 159.31568 
L 765.873818 156.475978 
L 766.584 154.679067 
L 767.294182 152.000808 
L 768.004364 147.193538 
L 768.714545 148.264785 
L 769.424727 148.762201 
L 770.134909 150.237741 
L 770.845091 148.825665 
L 771.555273 151.716066 
L 772.265455 143.930627 
L 772.975636 151.214336 
L 773.685818 154.073603 
L 774.396 152.61679 
L 775.106182 152.006384 
L 775.816364 157.646044 
L 776.526545 153.581851 
L 777.946909 151.847858 
L 778.657091 152.974141 
L 779.367273 152.386468 
L 780.077455 148.484835 
L 780.787636 137.702384 
L 781.497818 132.345929 
L 782.208 130.99825 
L 782.918182 125.179242 
L 783.628364 127.298072 
L 784.338545 128.50073 
L 785.048727 127.970909 
L 785.758909 131.108841 
L 786.469091 132.489147 
L 787.179273 130.484969 
L 787.889455 127.688762 
L 788.599636 128.05627 
L 789.309818 132.73024 
L 790.02 132.469203 
L 790.730182 129.787107 
L 791.440364 130.645597 
L 792.150545 125.584219 
L 792.860727 124.213791 
L 793.570909 125.501956 
L 794.281091 117.426601 
L 794.991273 124.169455 
L 795.701455 125.499786 
L 796.411636 123.253092 
L 797.121818 125.295614 
L 797.832 120.017065 
L 798.542182 118.069278 
L 799.252364 118.436908 
L 799.962545 121.732106 
L 800.672727 122.040895 
L 801.382909 113.979568 
L 802.093091 114.81924 
L 802.803273 116.838918 
L 803.513455 115.88331 
L 804.223636 111.503687 
L 804.933818 112.605197 
L 805.644 113.271912 
L 806.354182 118.607877 
L 807.064364 118.823462 
L 807.774545 118.35096 
L 808.484727 120.052595 
L 809.194909 115.680604 
L 809.905091 108.551797 
L 810.615273 111.737732 
L 811.325455 112.147906 
L 812.035636 114.098025 
L 812.745818 111.711406 
L 813.456 107.74403 
L 814.166182 107.827778 
L 814.876364 110.668298 
L 815.586545 111.613737 
L 816.296727 115.122431 
L 817.006909 117.358197 
L 817.717091 106.446345 
L 818.427273 99.142157 
L 819.137455 99.82694 
L 820.557818 94.330991 
L 821.268 95.763321 
L 821.978182 94.350164 
L 822.688364 91.581518 
L 823.398545 90.532817 
L 824.108727 94.948857 
L 824.818909 97.307017 
L 825.529091 95.612774 
L 826.239273 100.191099 
L 826.949455 92.451881 
L 827.659636 87.92687 
L 828.369818 87.740393 
L 829.08 85.683334 
L 829.790182 85.35231 
L 830.500364 83.110736 
L 831.210545 81.966132 
L 831.920727 85.407248 
L 832.630909 87.022322 
L 833.341091 88.204717 
L 834.051273 83.890289 
L 834.761455 82.78247 
L 835.471636 81.932422 
L 836.181818 74.442521 
L 836.892 76.532471 
L 837.602182 80.432943 
L 838.312364 83.026203 
L 839.022545 79.259466 
L 839.732727 76.69021 
L 840.442909 71.990742 
L 841.153091 68.361397 
L 841.863273 72.37232 
L 842.573455 70.442456 
L 843.283636 66.96 
L 843.993818 70.820198 
L 844.704 78.960352 
L 845.414182 74.401884 
L 846.124364 77.76181 
L 846.834545 70.826941 
L 847.544727 72.061563 
L 848.254909 75.282847 
L 848.965091 80.158289 
L 849.675273 76.583722 
L 850.385455 83.413035 
L 851.095636 81.016449 
L 851.805818 84.058317 
L 852.516 81.979568 
L 853.226182 83.376271 
L 853.936364 79.459573 
L 854.646545 79.123381 
L 855.356727 81.435415 
L 856.066909 75.002231 
L 856.777091 77.242463 
L 857.487273 73.566964 
L 858.197455 74.176268 
L 858.907636 78.610317 
L 859.617818 76.614459 
L 861.038182 71.696168 
L 861.748364 73.254418 
L 862.458545 77.67193 
L 863.168727 84.020483 
L 864.589091 89.44539 
L 866.009455 83.322522 
L 866.719636 85.765009 
L 867.429818 80.66603 
L 868.14 81.69646 
L 868.850182 80.494134 
L 869.560364 78.242332 
L 870.270545 81.914965 
L 870.980727 86.9318 
L 871.690909 90.546982 
L 871.690909 90.546982 
" clip-path="url(#p62bedd10d3)" style="fill: none; stroke: #1f77b4; stroke-width: 1.5; stroke-linecap: square"/>
   </g>
   <g id="line2d_15">
    <path d="M 161.509091 127.966007 
L 162.219273 138.845654 
L 162.929455 139.36734 
L 163.639636 131.469028 
L 164.349818 127.203634 
L 165.06 132.731317 
L 166.480364 131.122938 
L 167.190545 135.311042 
L 167.900727 129.040628 
L 168.610909 130.564935 
L 169.321091 128.904127 
L 170.031273 129.350337 
L 170.741455 129.304582 
L 171.451636 131.101258 
L 172.161818 130.330348 
L 172.872 130.585057 
L 173.582182 138.696152 
L 175.002545 140.554014 
L 175.712727 135.097287 
L 176.422909 132.34078 
L 177.133091 134.307477 
L 177.843273 131.249005 
L 178.553455 131.987384 
L 179.263636 136.858859 
L 179.973818 128.473231 
L 180.684 132.689453 
L 181.394182 130.844485 
L 182.104364 122.97233 
L 182.814545 121.978111 
L 183.524727 117.539449 
L 184.234909 122.433889 
L 184.945091 135.582494 
L 185.655273 144.914899 
L 186.365455 140.800786 
L 187.785818 149.687795 
L 188.496 144.137599 
L 189.206182 137.629835 
L 189.916364 134.864033 
L 190.626545 141.511889 
L 191.336727 143.0616 
L 192.046909 136.11508 
L 192.757091 131.198396 
L 194.177455 133.868217 
L 194.887636 138.809679 
L 195.597818 131.189446 
L 196.308 128.4281 
L 197.018182 122.662052 
L 197.728364 126.645887 
L 198.438545 123.403308 
L 199.148727 121.558312 
L 199.858909 125.040958 
L 200.569091 108.481117 
L 201.279273 106.509043 
L 201.989455 100.193008 
L 202.699636 104.85459 
L 203.409818 106.7879 
L 204.12 105.348389 
L 204.830182 105.959996 
L 205.540364 105.406087 
L 206.250545 108.344111 
L 206.960727 108.757327 
L 207.670909 115.636602 
L 208.381091 111.951524 
L 209.801455 100.42787 
L 210.511636 106.345927 
L 212.642182 91.582772 
L 213.352364 90.829056 
L 214.062545 91.006618 
L 214.772727 90.816267 
L 215.482909 91.445045 
L 216.903273 101.614129 
L 217.613455 105.241826 
L 218.323636 102.269695 
L 219.033818 104.252231 
L 219.744 104.057172 
L 220.454182 97.976272 
L 221.164364 89.28996 
L 221.874545 81.988914 
L 222.584727 84.922462 
L 223.294909 85.865604 
L 224.715273 84.896722 
L 225.425455 83.786026 
L 226.135636 89.595256 
L 226.845818 85.047021 
L 227.556 84.22544 
L 228.266182 84.972621 
L 228.976364 81.672378 
L 229.686545 84.946312 
L 230.396727 85.27101 
L 231.106909 85.743022 
L 231.817091 76.679903 
L 232.527273 75.155446 
L 233.237455 70.291957 
L 233.947636 69.812685 
L 234.657818 74.547361 
L 236.078182 88.443518 
L 236.788364 89.404379 
L 237.498545 92.356709 
L 238.208727 92.846065 
L 238.918909 89.169063 
L 239.629091 92.627859 
L 240.339273 104.383746 
L 241.049455 109.512023 
L 241.759636 115.999043 
L 242.469818 108.230759 
L 243.890182 102.55914 
L 244.600364 104.935958 
L 245.310545 105.391449 
L 246.020727 106.288442 
L 246.730909 107.531604 
L 248.151273 114.704616 
L 248.861455 116.692053 
L 249.571636 115.446049 
L 250.992 121.803541 
L 251.702182 123.076208 
L 252.412364 131.987641 
L 253.122545 137.601291 
L 253.832727 141.159313 
L 254.542909 140.815852 
L 255.253091 146.100576 
L 255.963273 145.575481 
L 256.673455 135.672658 
L 257.383636 131.795522 
L 258.093818 126.798667 
L 258.804 118.213983 
L 259.514182 120.937553 
L 260.934545 115.554189 
L 261.644727 113.715574 
L 262.354909 110.969672 
L 263.065091 118.722486 
L 263.775273 122.884738 
L 264.485455 128.750946 
L 265.195636 132.444369 
L 265.905818 125.705116 
L 266.616 115.620436 
L 267.326182 115.844448 
L 268.036364 109.343675 
L 268.746545 106.717548 
L 269.456727 116.644072 
L 270.166909 120.25799 
L 271.587273 138.426316 
L 272.297455 152.85495 
L 273.007636 156.345241 
L 273.717818 156.193527 
L 274.428 158.051069 
L 275.848364 159.567772 
L 276.558545 168.98954 
L 277.268727 164.387656 
L 278.689091 170.723869 
L 279.399273 168.577549 
L 280.109455 173.798043 
L 280.819636 171.575628 
L 281.529818 167.896551 
L 282.950182 162.958147 
L 283.660364 163.025964 
L 284.370545 170.540988 
L 285.080727 172.186837 
L 285.790909 172.245765 
L 286.501091 179.194735 
L 287.211273 174.783083 
L 287.921455 165.721238 
L 288.631636 172.634135 
L 289.341818 171.752858 
L 290.052 173.760668 
L 291.472364 182.492336 
L 292.182545 193.718293 
L 292.892727 195.631271 
L 293.602909 197.916559 
L 294.313091 196.719071 
L 295.023273 202.312228 
L 295.733455 200.513423 
L 296.443636 200.040034 
L 297.153818 212.410443 
L 297.864 206.154153 
L 298.574182 204.726549 
L 299.284364 201.653671 
L 300.704727 203.964025 
L 301.414909 210.779916 
L 302.125091 206.59051 
L 302.835273 210.563164 
L 303.545455 212.75446 
L 304.255636 214.54216 
L 304.965818 206.381307 
L 305.676 206.286231 
L 306.386182 214.970378 
L 307.096364 205.937045 
L 307.806545 209.710179 
L 308.516727 209.067869 
L 309.937091 202.047444 
L 310.647273 199.368789 
L 311.357455 192.102479 
L 312.067636 193.462694 
L 312.777818 193.961721 
L 313.488 192.189875 
L 314.198182 185.70683 
L 314.908364 186.091133 
L 315.618545 190.505771 
L 317.038909 195.236226 
L 317.749091 196.36436 
L 318.459273 208.789652 
L 319.169455 212.811109 
L 319.879636 217.983525 
L 320.589818 203.468478 
L 321.3 201.382476 
L 322.010182 197.0904 
L 322.720364 193.832897 
L 323.430545 188.188371 
L 324.140727 181.178842 
L 324.850909 185.868565 
L 325.561091 192.100025 
L 326.271273 193.903776 
L 326.981455 200.169148 
L 327.691636 205.305141 
L 328.401818 203.257015 
L 329.112 200.207883 
L 329.822182 195.886838 
L 330.532364 196.290647 
L 331.242545 189.977305 
L 331.952727 190.370891 
L 332.662909 193.29149 
L 334.083273 183.559957 
L 334.793455 179.049053 
L 336.213818 188.198722 
L 336.924 179.032187 
L 337.634182 177.021186 
L 338.344364 171.394385 
L 339.054545 177.374582 
L 339.764727 177.221734 
L 340.474909 179.223033 
L 341.185091 178.38182 
L 341.895273 185.195779 
L 342.605455 185.79157 
L 343.315636 187.038037 
L 344.025818 181.119633 
L 344.736 189.0034 
L 345.446182 188.144457 
L 346.156364 197.674933 
L 346.866545 196.83251 
L 347.576727 199.489024 
L 348.286909 194.661653 
L 348.997091 198.731889 
L 349.707273 201.465806 
L 350.417455 201.581899 
L 351.127636 196.769997 
L 351.837818 194.794714 
L 352.548 190.019547 
L 353.258182 199.729872 
L 353.968364 194.572202 
L 354.678545 198.042625 
L 355.388727 203.60712 
L 356.098909 203.889479 
L 356.809091 200.463926 
L 357.519273 190.703297 
L 358.229455 185.62527 
L 358.939636 184.148495 
L 359.649818 191.904424 
L 360.36 183.668689 
L 361.070182 185.817026 
L 361.780364 185.201299 
L 362.490545 178.312353 
L 363.200727 185.173586 
L 363.910909 189.197694 
L 364.621091 190.683921 
L 365.331273 193.626428 
L 366.751636 179.367894 
L 367.461818 181.311572 
L 368.172 189.586269 
L 368.882182 189.858805 
L 369.592364 187.661631 
L 370.302545 189.505528 
L 371.012727 186.368645 
L 371.722909 188.025772 
L 372.433091 192.398307 
L 373.143273 200.005065 
L 373.853455 194.190426 
L 374.563636 181.127621 
L 375.273818 177.196515 
L 375.984 175.842977 
L 376.694182 173.702728 
L 377.404364 184.690477 
L 378.114545 178.313248 
L 378.824727 174.269045 
L 379.534909 173.069743 
L 380.955273 181.307477 
L 381.665455 174.368423 
L 382.375636 170.698963 
L 383.085818 168.801162 
L 383.796 165.289341 
L 384.506182 170.00409 
L 385.216364 177.513839 
L 385.926545 177.739849 
L 386.636727 173.284115 
L 387.346909 178.754492 
L 388.057091 181.762133 
L 389.477455 184.495416 
L 390.187636 183.116742 
L 390.897818 173.588368 
L 391.608 171.686152 
L 392.318182 167.025287 
L 393.028364 163.236586 
L 393.738545 169.597024 
L 394.448727 171.023573 
L 395.158909 181.271882 
L 395.869091 187.346646 
L 396.579273 179.846315 
L 397.289455 184.888188 
L 397.999636 183.742366 
L 398.709818 179.25045 
L 399.42 177.093086 
L 400.130182 178.60092 
L 400.840364 178.502026 
L 401.550545 178.953042 
L 402.260727 181.950764 
L 402.970909 190.332799 
L 403.681091 187.809204 
L 404.391273 191.057177 
L 406.521818 216.137153 
L 407.232 214.22342 
L 407.942182 214.072637 
L 408.652364 214.111747 
L 409.362545 220.172536 
L 410.072727 210.529809 
L 410.782909 209.071704 
L 411.493091 209.912244 
L 412.203273 212.376034 
L 412.913455 207.703954 
L 413.623636 211.886811 
L 414.333818 223.61819 
L 415.044 218.33024 
L 415.754182 225.550094 
L 416.464364 219.91721 
L 417.174545 221.471959 
L 418.594909 235.306328 
L 419.305091 228.513421 
L 420.015273 240.479455 
L 420.725455 246.745781 
L 421.435636 250.780644 
L 422.145818 246.721411 
L 422.856 250.421966 
L 423.566182 243.421416 
L 424.276364 234.085764 
L 424.986545 226.327189 
L 425.696727 226.36604 
L 426.406909 231.284477 
L 427.117091 237.523228 
L 427.827273 237.001281 
L 428.537455 235.653722 
L 429.247636 231.685045 
L 429.957818 239.470407 
L 430.668 239.913808 
L 431.378182 251.439718 
L 432.088364 251.877147 
L 432.798545 242.244577 
L 433.508727 239.756631 
L 434.218909 233.501125 
L 434.929091 228.723744 
L 435.639273 215.708175 
L 436.349455 223.781315 
L 437.059636 223.994609 
L 437.769818 227.558462 
L 438.48 232.128267 
L 439.190182 228.574976 
L 439.900364 236.385802 
L 440.610545 230.231118 
L 441.320727 234.732591 
L 442.030909 235.13225 
L 442.741091 228.917128 
L 443.451273 235.951001 
L 444.161455 228.884245 
L 444.871636 232.694854 
L 445.581818 232.655156 
L 446.292 229.202252 
L 447.002182 233.371876 
L 447.712364 233.771112 
L 448.422545 238.179115 
L 449.132727 239.082725 
L 449.842909 226.793848 
L 450.553091 236.853373 
L 451.263273 238.632252 
L 451.973455 239.183865 
L 452.683636 251.677356 
L 453.393818 247.584218 
L 454.104 249.493392 
L 454.814182 246.905955 
L 455.524364 252.105615 
L 456.234545 256.204709 
L 456.944727 258.438739 
L 457.654909 260.240221 
L 458.365091 262.579589 
L 459.075273 268.45838 
L 459.785455 262.336012 
L 460.495636 250.540683 
L 461.916 245.749962 
L 462.626182 233.139534 
L 463.336364 225.04321 
L 464.046545 234.534363 
L 464.756727 228.030767 
L 465.466909 228.703697 
L 466.177091 234.740701 
L 466.887273 234.421288 
L 467.597455 233.626461 
L 468.307636 233.572183 
L 469.017818 243.781413 
L 469.728 235.848401 
L 470.438182 246.755876 
L 471.858545 262.308486 
L 472.568727 257.850581 
L 473.278909 248.507077 
L 474.699273 258.737722 
L 475.409455 267.336761 
L 476.119636 270.148921 
L 476.829818 264.647558 
L 477.54 267.540931 
L 478.250182 265.924411 
L 479.670545 277.029682 
L 480.380727 269.555172 
L 481.801091 283.281792 
L 482.511273 283.603661 
L 483.221455 288.861274 
L 483.931636 286.609243 
L 484.641818 283.535949 
L 485.352 278.22252 
L 486.062182 294.486945 
L 486.772364 290.546586 
L 487.482545 291.792426 
L 488.902909 285.632229 
L 489.613091 285.058742 
L 490.323273 280.439262 
L 491.033455 284.913331 
L 492.453818 297.529892 
L 493.164 296.799403 
L 493.874182 297.873504 
L 494.584364 285.825441 
L 495.294545 290.984199 
L 496.004727 281.912101 
L 496.714909 278.776934 
L 497.425091 283.836038 
L 498.135273 291.372624 
L 498.845455 301.649422 
L 499.555636 300.937746 
L 501.686182 285.500907 
L 502.396364 288.832692 
L 503.106545 280.587037 
L 503.816727 290.115442 
L 505.237091 294.557497 
L 505.947273 292.566679 
L 506.657455 288.883796 
L 507.367636 293.292212 
L 508.077818 290.946388 
L 508.788 289.62326 
L 509.498182 282.162385 
L 510.208364 282.886791 
L 510.918545 282.11884 
L 511.628727 270.727756 
L 512.338909 268.817208 
L 513.049091 268.045317 
L 513.759273 269.857731 
L 514.469455 260.738633 
L 515.179636 257.625842 
L 515.889818 260.993059 
L 516.6 249.510201 
L 517.310182 252.673067 
L 518.020364 256.740815 
L 518.730545 252.614268 
L 519.440727 244.990013 
L 520.150909 241.178785 
L 520.861091 235.164426 
L 521.571273 236.437906 
L 522.281455 234.339223 
L 522.991636 234.880165 
L 523.701818 235.119675 
L 524.412 228.102345 
L 525.122182 227.086721 
L 525.832364 228.230832 
L 527.252727 211.136576 
L 527.962909 209.979906 
L 528.673091 211.669501 
L 529.383273 210.328101 
L 530.093455 207.498525 
L 530.803636 207.274515 
L 531.513818 205.215838 
L 532.224 203.731744 
L 532.934182 197.49856 
L 533.644364 197.658377 
L 534.354545 201.919497 
L 535.064727 201.039251 
L 535.774909 206.180411 
L 536.485091 200.538396 
L 537.195273 205.624101 
L 537.905455 213.460405 
L 538.615636 213.341096 
L 539.325818 213.957227 
L 540.036 220.188081 
L 540.746182 217.649621 
L 541.456364 219.098862 
L 542.166545 219.301418 
L 542.876727 207.471972 
L 543.586909 208.708708 
L 544.297091 215.587359 
L 545.007273 216.76193 
L 545.717455 208.193067 
L 546.427636 207.364779 
L 547.137818 209.268182 
L 547.848 210.786038 
L 548.558182 214.453445 
L 549.268364 209.936468 
L 549.978545 212.520167 
L 550.688727 214.014694 
L 551.398909 216.343469 
L 552.109091 213.541827 
L 552.819273 226.161651 
L 553.529455 223.887865 
L 554.239636 230.437033 
L 554.949818 220.688611 
L 555.66 220.843172 
L 556.370182 219.147609 
L 557.080364 215.606904 
L 557.790545 209.548632 
L 558.500727 210.351688 
L 559.210909 206.463263 
L 559.921091 210.87135 
L 560.631273 208.511987 
L 561.341455 210.445554 
L 562.051636 214.389855 
L 562.761818 221.253804 
L 563.472 218.557456 
L 564.182182 210.497677 
L 564.892364 208.312935 
L 565.602545 204.245023 
L 566.312727 205.098811 
L 567.022909 208.592431 
L 567.733091 205.337134 
L 568.443273 209.304211 
L 569.153455 211.828112 
L 569.863636 205.773911 
L 570.573818 193.588364 
L 571.284 192.753805 
L 571.994182 183.423657 
L 572.704364 181.575289 
L 573.414545 182.948842 
L 574.124727 183.576094 
L 574.834909 176.014821 
L 575.545091 162.255327 
L 576.965455 149.233796 
L 577.675636 158.788615 
L 578.385818 156.641905 
L 579.096 156.992612 
L 579.806182 162.805847 
L 580.516364 172.228519 
L 581.226545 171.055462 
L 581.936727 167.335213 
L 582.646909 167.545206 
L 583.357091 171.996827 
L 584.067273 168.856747 
L 584.777455 168.509424 
L 585.487636 174.183555 
L 586.197818 172.161469 
L 586.908 165.459104 
L 587.618182 173.626788 
L 588.328364 176.950085 
L 589.038545 183.737346 
L 589.748727 176.982078 
L 590.458909 178.879337 
L 591.169091 175.585962 
L 591.879273 182.864452 
L 592.589455 177.53986 
L 593.299636 181.224777 
L 594.009818 181.254548 
L 595.430182 178.584092 
L 596.140364 183.479288 
L 596.850545 184.916257 
L 597.560727 187.163005 
L 598.270909 188.916508 
L 598.981091 180.296088 
L 599.691273 184.724905 
L 600.401455 191.95451 
L 601.111636 189.249639 
L 601.821818 190.064933 
L 602.532 195.960944 
L 603.242182 203.134133 
L 603.952364 193.965815 
L 604.662545 208.602489 
L 605.372727 205.510945 
L 606.082909 207.235178 
L 606.793091 220.729102 
L 607.503273 219.07334 
L 608.213455 221.681195 
L 608.923636 223.08505 
L 609.633818 220.516706 
L 610.344 222.868621 
L 611.054182 228.036085 
L 611.764364 229.468937 
L 612.474545 228.784698 
L 613.184727 225.658598 
L 613.894909 222.020692 
L 614.605091 219.193724 
L 615.315273 222.091095 
L 616.025455 222.220748 
L 616.735636 216.611629 
L 617.445818 218.486212 
L 618.156 226.220077 
L 618.866182 221.54391 
L 619.576364 224.137138 
L 620.286545 218.731871 
L 620.996727 221.093842 
L 621.706909 219.373556 
L 622.417091 211.731344 
L 623.127273 215.555319 
L 623.837455 200.654576 
L 624.547636 198.139131 
L 625.257818 191.224688 
L 625.968 187.809274 
L 626.678182 189.212369 
L 627.388364 183.261154 
L 628.098545 181.113957 
L 628.808727 173.432096 
L 629.518909 173.761139 
L 630.229091 171.760148 
L 630.939273 175.835001 
L 632.359636 163.200764 
L 633.069818 166.548093 
L 633.78 177.512017 
L 634.490182 173.534972 
L 635.200364 170.946072 
L 635.910545 176.558565 
L 636.620727 181.262846 
L 637.330909 194.587801 
L 638.041091 193.86384 
L 638.751273 192.424557 
L 639.461455 192.074337 
L 640.171636 186.801353 
L 640.881818 189.694949 
L 641.592 191.117491 
L 642.302182 201.815732 
L 643.012364 208.513403 
L 643.722545 202.447594 
L 644.432727 192.940402 
L 645.142909 185.865974 
L 645.853091 190.904961 
L 646.563273 184.280584 
L 647.273455 189.813257 
L 647.983636 196.978246 
L 648.693818 200.995407 
L 649.404 207.983904 
L 650.114182 213.444833 
L 650.824364 216.982135 
L 651.534545 213.427624 
L 652.244727 213.849622 
L 652.954909 210.7704 
L 653.665091 223.593409 
L 654.375273 224.243523 
L 655.085455 222.987261 
L 655.795636 219.951964 
L 656.505818 212.149124 
L 657.216 213.675633 
L 657.926182 210.652782 
L 658.636364 205.506664 
L 659.346545 207.155168 
L 660.056727 207.182679 
L 660.766909 194.234932 
L 661.477091 195.911368 
L 662.187273 193.252825 
L 662.897455 193.242384 
L 663.607636 184.841767 
L 664.317818 172.796279 
L 665.028 175.94398 
L 665.738182 177.300745 
L 667.158545 179.373189 
L 668.578909 171.718344 
L 669.289091 174.26156 
L 669.999273 182.225285 
L 670.709455 177.236884 
L 671.419636 175.320342 
L 672.129818 176.721982 
L 672.84 175.461966 
L 673.550182 175.443534 
L 674.260364 178.184938 
L 674.970545 182.358722 
L 675.680727 188.161487 
L 676.390909 189.853226 
L 677.101091 186.138948 
L 677.811273 178.088233 
L 679.231636 167.592802 
L 679.941818 173.320558 
L 680.652 168.321049 
L 681.362182 153.667792 
L 682.072364 157.812067 
L 682.782545 155.01418 
L 683.492727 152.933448 
L 684.913091 159.777159 
L 685.623273 159.92647 
L 686.333455 162.576558 
L 687.043636 162.866305 
L 687.753818 160.200166 
L 688.464 163.060215 
L 689.174182 168.354382 
L 689.884364 167.604996 
L 690.594545 168.530853 
L 691.304727 171.353359 
L 692.014909 166.913307 
L 692.725091 171.29888 
L 693.435273 166.212621 
L 694.145455 155.245226 
L 694.855636 155.655459 
L 696.276 172.274551 
L 696.986182 177.393265 
L 697.696364 176.994664 
L 698.406545 184.228551 
L 699.116727 182.956965 
L 699.826909 194.87793 
L 700.537091 195.647456 
L 701.247273 188.414193 
L 702.667636 175.922715 
L 704.088 180.055508 
L 704.798182 180.655808 
L 705.508364 170.194692 
L 706.218545 172.257026 
L 706.928727 186.009583 
L 707.638909 183.873568 
L 708.349091 186.152684 
L 709.059273 194.569321 
L 709.769455 193.930089 
L 710.479636 196.302799 
L 711.189818 197.102305 
L 711.9 183.778314 
L 712.610182 184.247482 
L 713.320364 188.126544 
L 714.030545 189.489641 
L 714.740727 187.293209 
L 715.450909 175.627434 
L 716.161091 168.112009 
L 716.871273 170.176486 
L 717.581455 165.940133 
L 718.291636 173.744091 
L 719.001818 172.454005 
L 719.712 168.164505 
L 720.422182 169.601955 
L 721.132364 167.229538 
L 721.842545 171.671763 
L 722.552727 162.570758 
L 723.262909 156.874263 
L 723.973091 166.656536 
L 724.683273 166.962891 
L 725.393455 168.556731 
L 726.103636 169.513269 
L 726.813818 172.348634 
L 727.524 179.369574 
L 728.234182 179.299704 
L 728.944364 175.837062 
L 729.654545 173.472773 
L 730.364727 185.412231 
L 731.074909 189.610449 
L 731.785091 192.729669 
L 732.495273 180.551937 
L 733.915636 186.49383 
L 734.625818 183.814489 
L 735.336 188.804631 
L 736.046182 187.837992 
L 736.756364 189.435934 
L 737.466545 191.690083 
L 738.886909 189.374857 
L 739.597091 192.823426 
L 740.307273 184.208936 
L 741.017455 185.812308 
L 741.727636 184.795166 
L 742.437818 184.835229 
L 743.148 187.282689 
L 743.858182 195.458891 
L 744.568364 199.197896 
L 745.278545 195.963729 
L 745.988727 207.243663 
L 746.698909 203.945693 
L 747.409091 202.343114 
L 748.119273 199.742845 
L 748.829455 196.257903 
L 749.539636 197.180223 
L 750.249818 206.716529 
L 750.96 206.226661 
L 751.670182 210.271849 
L 752.380364 206.809179 
L 753.090545 204.777272 
L 753.800727 196.591988 
L 755.221091 201.156239 
L 755.931273 205.343687 
L 756.641455 204.544323 
L 757.351636 209.585496 
L 758.061818 212.592246 
L 758.772 207.245404 
L 759.482182 213.508786 
L 760.192364 210.805796 
L 760.902545 213.559166 
L 761.612727 210.82549 
L 762.322909 213.988165 
L 763.033091 210.557492 
L 763.743273 214.681619 
L 764.453455 206.217815 
L 765.163636 209.571983 
L 765.873818 211.251466 
L 766.584 205.165772 
L 767.294182 186.769888 
L 768.004364 184.303185 
L 769.424727 189.983633 
L 770.134909 190.01337 
L 770.845091 204.122231 
L 771.555273 209.455155 
L 772.265455 195.994278 
L 772.975636 206.717745 
L 773.685818 210.310276 
L 775.106182 202.467526 
L 775.816364 201.894803 
L 776.526545 192.527742 
L 777.236727 196.474072 
L 777.946909 192.355195 
L 778.657091 193.629148 
L 779.367273 188.895573 
L 780.077455 185.2321 
L 781.497818 168.818503 
L 782.208 168.83525 
L 782.918182 168.564781 
L 783.628364 173.162542 
L 784.338545 175.231922 
L 785.048727 174.745615 
L 785.758909 184.380863 
L 786.469091 181.451228 
L 787.179273 177.891974 
L 787.889455 180.335429 
L 788.599636 179.615183 
L 789.309818 187.795334 
L 790.02 189.554776 
L 790.730182 182.896464 
L 791.440364 171.964833 
L 792.150545 163.962766 
L 792.860727 164.453762 
L 793.570909 163.80018 
L 794.281091 161.219672 
L 794.991273 170.163406 
L 795.701455 168.387774 
L 796.411636 166.068403 
L 797.121818 171.379928 
L 797.832 161.484617 
L 798.542182 153.981287 
L 799.252364 148.983927 
L 799.962545 145.468397 
L 800.672727 147.204831 
L 801.382909 136.665636 
L 802.093091 152.357945 
L 802.803273 157.630577 
L 803.513455 156.231102 
L 804.223636 153.094621 
L 804.933818 152.127606 
L 805.644 155.247192 
L 806.354182 159.478797 
L 807.064364 160.275999 
L 807.774545 163.843951 
L 808.484727 165.174751 
L 809.194909 165.543058 
L 809.905091 155.73358 
L 810.615273 154.01672 
L 811.325455 154.558147 
L 812.035636 155.837715 
L 812.745818 154.324229 
L 813.456 147.170904 
L 814.166182 145.48665 
L 814.876364 146.00461 
L 815.586545 150.382214 
L 816.296727 149.289018 
L 817.006909 153.250652 
L 817.717091 139.178991 
L 818.427273 137.274305 
L 819.137455 139.10376 
L 819.847636 136.71364 
L 820.557818 130.06572 
L 821.268 135.778842 
L 821.978182 133.208578 
L 822.688364 124.157754 
L 823.398545 111.558385 
L 824.818909 117.749645 
L 825.529091 113.55961 
L 826.239273 118.2304 
L 826.949455 101.381721 
L 827.659636 97.361193 
L 828.369818 104.063458 
L 829.08 106.158996 
L 829.790182 112.160163 
L 830.500364 104.436601 
L 831.210545 99.755728 
L 831.920727 100.572237 
L 833.341091 105.662526 
L 834.051273 101.6493 
L 834.761455 106.93036 
L 835.471636 102.994235 
L 836.181818 102.6817 
L 836.892 104.014271 
L 838.312364 108.908742 
L 839.022545 104.009389 
L 839.732727 103.710375 
L 840.442909 100.685187 
L 841.153091 94.424204 
L 841.863273 99.414196 
L 842.573455 96.016892 
L 843.283636 87.256199 
L 843.993818 87.60245 
L 844.704 96.660095 
L 845.414182 95.209582 
L 846.124364 99.738084 
L 846.834545 92.252061 
L 847.544727 94.353162 
L 848.254909 99.329316 
L 848.965091 102.616026 
L 849.675273 107.125214 
L 850.385455 117.037137 
L 851.095636 120.892346 
L 851.805818 127.968755 
L 852.516 124.3565 
L 853.226182 118.376568 
L 853.936364 115.74719 
L 854.646545 113.724896 
L 855.356727 108.944044 
L 856.066909 99.628341 
L 856.777091 102.745103 
L 857.487273 102.734127 
L 858.197455 106.611362 
L 858.907636 115.129129 
L 859.617818 105.927553 
L 860.328 108.844225 
L 861.038182 115.309626 
L 861.748364 107.624849 
L 862.458545 115.825642 
L 863.168727 120.043769 
L 863.878909 122.937881 
L 864.589091 124.137893 
L 865.299273 127.297555 
L 866.009455 120.168624 
L 866.719636 120.89946 
L 867.429818 111.778208 
L 868.14 114.08335 
L 868.850182 114.663745 
L 869.560364 109.593331 
L 870.270545 112.609683 
L 871.690909 127.548923 
L 871.690909 127.548923 
" clip-path="url(#p62bedd10d3)" style="fill: none; stroke: #ff7f0e; stroke-width: 1.5; stroke-linecap: square"/>
   </g>
   <g id="line2d_16">
    <path d="M 162.219273 369.36 
L 164.349818 369.249324 
L 174.292364 368.966921 
L 177.843273 368.895806 
L 179.263636 368.81771 
L 179.973818 368.524297 
L 182.814545 368.3464 
L 184.234909 368.162387 
L 185.655273 367.51639 
L 189.916364 367.256164 
L 190.626545 367.087074 
L 194.887636 366.835506 
L 195.597818 366.623304 
L 198.438545 366.649361 
L 199.858909 366.615209 
L 200.569091 366.151702 
L 204.12 366.005301 
L 206.960727 365.978953 
L 207.670909 365.812065 
L 211.221818 365.640917 
L 212.642182 365.515849 
L 216.193091 365.428516 
L 216.903273 365.310599 
L 218.323636 365.313376 
L 219.744 365.31337 
L 221.164364 364.96326 
L 222.584727 364.839269 
L 225.425455 364.861958 
L 226.845818 364.980717 
L 228.976364 364.911126 
L 230.396727 364.802868 
L 231.106909 364.797464 
L 231.817091 364.641977 
L 233.947636 364.561181 
L 235.368 364.345645 
L 236.078182 364.105192 
L 239.629091 363.959487 
L 240.339273 363.576233 
L 241.759636 363.457583 
L 242.469818 363.295412 
L 243.890182 363.256028 
L 245.310545 363.161386 
L 248.151273 363.09473 
L 249.571636 363.071662 
L 250.281818 362.920022 
L 251.702182 362.939897 
L 253.122545 362.849656 
L 255.253091 362.781376 
L 257.383636 362.674994 
L 260.224364 362.468463 
L 263.775273 362.511321 
L 264.485455 362.322215 
L 265.195636 362.400761 
L 268.036364 361.879665 
L 268.746545 361.868964 
L 269.456727 361.48934 
L 270.166909 361.541825 
L 271.587273 361.061631 
L 272.297455 360.579042 
L 279.399273 360.294688 
L 280.819636 360.238249 
L 282.950182 360.223433 
L 283.660364 360.22377 
L 284.370545 360.057571 
L 286.501091 360.003747 
L 289.341818 359.478021 
L 291.472364 359.324227 
L 292.182545 359.05628 
L 294.313091 359.034729 
L 295.733455 358.940492 
L 296.443636 358.936109 
L 297.153818 358.561419 
L 305.676 358.257239 
L 308.516727 357.923197 
L 317.749091 357.563785 
L 318.459273 357.233153 
L 319.879636 357.175433 
L 320.589818 356.749289 
L 323.430545 356.60159 
L 324.140727 356.442407 
L 325.561091 356.534383 
L 329.822182 356.40967 
L 332.662909 356.371014 
L 334.793455 356.122793 
L 336.213818 356.056648 
L 336.924 355.908936 
L 338.344364 355.820314 
L 339.764727 355.715476 
L 341.185091 355.701003 
L 341.895273 355.547892 
L 344.025818 355.508391 
L 344.736 355.332796 
L 345.446182 355.353247 
L 346.156364 355.089221 
L 351.837818 354.958187 
L 352.548 354.913662 
L 353.258182 354.676462 
L 356.809091 354.478254 
L 357.519273 354.157815 
L 358.939636 354.103725 
L 359.649818 353.860258 
L 365.331273 353.712973 
L 366.041455 353.351291 
L 366.751636 353.207563 
L 367.461818 353.212903 
L 368.172 353.094534 
L 371.722909 353.047903 
L 374.563636 352.796228 
L 375.984 352.794825 
L 376.694182 352.762363 
L 377.404364 352.510111 
L 378.824727 352.365486 
L 379.534909 352.386764 
L 382.375636 352.012585 
L 383.796 351.964624 
L 388.057091 351.586748 
L 390.187636 351.58298 
L 390.897818 351.432971 
L 394.448727 351.255952 
L 395.158909 350.861095 
L 395.869091 350.740441 
L 396.579273 350.45458 
L 397.999636 350.353588 
L 400.840364 350.326359 
L 402.970909 350.418468 
L 404.391273 350.438032 
L 405.101455 350.28688 
L 405.811636 349.954327 
L 406.521818 349.817116 
L 413.623636 349.579738 
L 414.333818 349.363405 
L 415.044 349.299442 
L 415.754182 349.066583 
L 417.174545 349.010167 
L 417.884727 349.054401 
L 419.305091 348.665249 
L 420.015273 348.18798 
L 423.566182 347.777001 
L 424.276364 347.421775 
L 424.986545 347.213483 
L 426.406909 347.284899 
L 427.117091 347.039542 
L 429.247636 346.975642 
L 429.957818 346.827681 
L 432.088364 346.741582 
L 432.798545 346.505012 
L 434.929091 346.351361 
L 435.639273 345.885043 
L 436.349455 345.772995 
L 437.769818 345.731231 
L 441.320727 345.438112 
L 442.030909 345.438304 
L 442.741091 345.231641 
L 445.581818 345.053464 
L 447.002182 345.077182 
L 449.132727 345.119231 
L 449.842909 344.671115 
L 450.553091 344.397512 
L 451.973455 344.383813 
L 453.393818 344.117466 
L 459.785455 343.782178 
L 460.495636 343.37688 
L 461.916 343.300861 
L 462.626182 342.683282 
L 463.336364 342.620937 
L 464.046545 342.38443 
L 466.177091 342.330337 
L 468.307636 342.334253 
L 469.017818 341.965062 
L 471.148364 341.610127 
L 472.568727 341.292651 
L 473.278909 340.845455 
L 473.989091 340.712807 
L 474.699273 340.711125 
L 475.409455 340.520662 
L 476.119636 340.565764 
L 477.54 340.370855 
L 478.960364 340.260945 
L 483.221455 339.67987 
L 485.352 339.584501 
L 486.062182 339.118634 
L 487.482545 339.059228 
L 493.874182 338.892705 
L 494.584364 338.416775 
L 495.294545 338.2835 
L 496.004727 337.874884 
L 497.425091 337.827067 
L 498.845455 337.372034 
L 500.265818 337.263777 
L 502.396364 337.160131 
L 504.526909 337.025924 
L 508.788 336.942202 
L 510.208364 336.826629 
L 510.918545 336.834552 
L 511.628727 336.48573 
L 513.759273 336.433714 
L 514.469455 336.223578 
L 515.889818 336.135137 
L 516.6 336.228573 
L 520.150909 336.018925 
L 520.861091 335.763115 
L 525.832364 335.76471 
L 527.252727 335.481681 
L 532.224 335.411664 
L 532.934182 335.157542 
L 537.195273 335.085643 
L 537.905455 334.920809 
L 540.746182 334.85319 
L 547.137818 334.619619 
L 548.558182 334.65283 
L 549.978545 334.468518 
L 551.398909 334.484613 
L 552.109091 334.43499 
L 552.819273 334.132867 
L 553.529455 334.146023 
L 555.66 333.853795 
L 562.051636 333.839075 
L 569.863636 333.480486 
L 570.573818 333.294598 
L 571.284 333.294733 
L 571.994182 333.142738 
L 574.834909 333.090607 
L 575.545091 332.579283 
L 576.255273 332.431175 
L 576.965455 332.400998 
L 577.675636 332.160472 
L 579.096 332.154692 
L 581.226545 331.882331 
L 582.646909 331.949008 
L 584.777455 331.92898 
L 586.908 331.83848 
L 587.618182 331.66675 
L 590.458909 331.535427 
L 591.169091 331.484598 
L 591.879273 331.232314 
L 593.299636 331.084077 
L 598.270909 331.067412 
L 598.981091 330.707217 
L 599.691273 330.634423 
L 600.401455 330.41951 
L 603.242182 330.223569 
L 603.952364 330.114726 
L 604.662545 329.613784 
L 606.082909 329.676193 
L 606.793091 329.152445 
L 616.025455 329.14302 
L 617.445818 328.974473 
L 618.866182 328.837165 
L 619.576364 328.917852 
L 620.996727 328.837395 
L 623.127273 328.806185 
L 623.837455 328.378915 
L 624.547636 328.331243 
L 625.257818 328.096651 
L 628.098545 327.955485 
L 628.808727 327.70117 
L 633.069818 327.745824 
L 633.78 327.453638 
L 635.200364 327.469294 
L 636.620727 327.310124 
L 637.330909 326.845494 
L 639.461455 326.829648 
L 640.881818 326.702718 
L 641.592 326.680571 
L 643.012364 326.411736 
L 651.534545 325.5921 
L 652.954909 325.567792 
L 653.665091 325.259673 
L 655.795636 325.177188 
L 656.505818 325.012693 
L 657.926182 324.965634 
L 659.346545 324.831041 
L 660.056727 324.830941 
L 660.766909 324.492305 
L 662.897455 324.508249 
L 663.607636 324.256878 
L 665.028 324.12101 
L 669.999273 323.909528 
L 670.709455 323.80345 
L 673.550182 323.78902 
L 674.970545 323.659097 
L 675.680727 323.459237 
L 676.390909 323.454582 
L 677.101091 323.331013 
L 677.811273 322.983826 
L 679.231636 322.92395 
L 679.941818 322.817153 
L 680.652 322.844062 
L 681.362182 322.307093 
L 682.782545 322.253919 
L 685.623273 322.223837 
L 689.174182 322.185756 
L 692.014909 322.19448 
L 692.725091 322.278764 
L 693.435273 322.177909 
L 694.855636 322.215182 
L 695.565818 321.950838 
L 696.276 321.839417 
L 697.696364 321.882727 
L 698.406545 321.681576 
L 699.116727 321.660898 
L 699.826909 321.408295 
L 701.957455 321.306549 
L 703.377818 321.209368 
L 704.798182 321.169997 
L 705.508364 320.655825 
L 706.218545 320.660015 
L 706.928727 320.308747 
L 708.349091 320.322539 
L 709.059273 320.072115 
L 711.189818 320.02305 
L 711.9 319.644717 
L 714.740727 319.65004 
L 715.450909 319.241906 
L 719.712 319.112663 
L 721.842545 319.119669 
L 722.552727 318.873747 
L 723.262909 318.853033 
L 723.973091 318.683768 
L 726.103636 318.671117 
L 728.944364 318.479291 
L 729.654545 318.450945 
L 730.364727 318.023572 
L 731.785091 317.992809 
L 732.495273 317.639206 
L 736.046182 317.562301 
L 738.176727 317.467707 
L 739.597091 317.401268 
L 740.307273 317.001821 
L 743.148 316.982984 
L 743.858182 316.836057 
L 745.278545 316.836504 
L 745.988727 316.34672 
L 753.090545 316.221798 
L 754.510909 316.132024 
L 756.641455 316.08127 
L 758.772 315.867527 
L 759.482182 315.751521 
L 763.743273 315.657791 
L 764.453455 315.461984 
L 766.584 315.414854 
L 767.294182 315.211029 
L 769.424727 315.14341 
L 771.555273 315.16188 
L 772.975636 314.405204 
L 777.946909 314.183209 
L 780.077455 314.106633 
L 780.787636 313.730265 
L 781.497818 313.553518 
L 785.048727 313.495436 
L 785.758909 313.370356 
L 788.599636 313.386935 
L 789.309818 313.228762 
L 791.440364 313.195607 
L 792.150545 313.028054 
L 794.281091 312.948112 
L 794.991273 312.698626 
L 797.121818 312.641959 
L 797.832 312.425873 
L 799.252364 312.373012 
L 800.672727 312.418718 
L 801.382909 312.06724 
L 804.223636 311.906314 
L 806.354182 311.808705 
L 809.194909 311.812262 
L 809.905091 311.522963 
L 812.745818 311.519407 
L 813.456 311.401999 
L 817.006909 311.3586 
L 817.717091 310.723376 
L 821.268 310.524194 
L 822.688364 310.405502 
L 826.239273 310.144734 
L 826.949455 309.60529 
L 828.369818 309.535197 
L 830.500364 309.489625 
L 840.442909 309.138863 
L 843.283636 308.80872 
L 843.993818 308.803191 
L 844.704 308.498169 
L 846.124364 308.407869 
L 846.834545 308.193099 
L 848.254909 308.116053 
L 848.965091 308.049762 
L 849.675273 308.116443 
L 850.385455 307.836404 
L 851.095636 307.874627 
L 852.516 307.754512 
L 853.936364 307.74646 
L 855.356727 307.789376 
L 856.066909 307.541448 
L 858.907636 307.346376 
L 860.328 307.301788 
L 861.748364 307.413302 
L 863.168727 307.152647 
L 870.270545 306.750246 
L 871.690909 306.480911 
L 871.690909 306.480911 
" clip-path="url(#p62bedd10d3)" style="fill: none; stroke: #2ca02c; stroke-width: 1.5; stroke-linecap: square"/>
   </g>
   <g id="patch_3">
    <path d="M 126 384.48 
L 126 51.84 
" style="fill: none; stroke: #000000; stroke-width: 0.8; stroke-linejoin: miter; stroke-linecap: square"/>
   </g>
   <g id="patch_4">
    <path d="M 907.2 384.48 
L 907.2 51.84 
" style="fill: none; stroke: #000000; stroke-width: 0.8; stroke-linejoin: miter; stroke-linecap: square"/>
   </g>
   <g id="patch_5">
    <path d="M 126 384.48 
L 907.2 384.48 
" style="fill: none; stroke: #000000; stroke-width: 0.8; stroke-linejoin: miter; stroke-linecap: square"/>
   </g>
   <g id="patch_6">
    <path d="M 126 51.84 
L 907.2 51.84 
" style="fill: none; stroke: #000000; stroke-width: 0.8; stroke-linejoin: miter; stroke-linecap: square"/>
   </g>
   <g id="text_16">
    <!-- Quadratic Covariation of $X_t$ and $S_t$ -->
    <g transform="translate(414.54 45.84)scale(0.12 -0.12)">
     <defs>
      <path id="DejaVuSans-66" d="M 2375 4863 
L 2375 4384 
L 1825 4384 
Q 1516 4384 1395 4259 
Q 1275 4134 1275 3809 
L 1275 3500 
L 2222 3500 
L 2222 3053 
L 1275 3053 
L 1275 0 
L 697 0 
L 697 3053 
L 147 3053 
L 147 3500 
L 697 3500 
L 697 3744 
Q 697 4328 969 4595 
Q 1241 4863 1831 4863 
L 2375 4863 
z
" transform="scale(0.015625)"/>
      <path id="DejaVuSans-Oblique-58" d="M 878 4666 
L 1516 4666 
L 2316 2981 
L 3763 4666 
L 4500 4666 
L 2578 2438 
L 3738 0 
L 3103 0 
L 2163 1966 
L 459 0 
L -275 0 
L 1906 2509 
L 878 4666 
z
" transform="scale(0.015625)"/>
      <path id="DejaVuSans-Oblique-74" d="M 2706 3500 
L 2619 3053 
L 1472 3053 
L 1100 1153 
Q 1081 1047 1072 975 
Q 1063 903 1063 863 
Q 1063 663 1183 572 
Q 1303 481 1569 481 
L 2150 481 
L 2053 0 
L 1503 0 
Q 991 0 739 200 
Q 488 400 488 806 
Q 488 878 497 964 
Q 506 1050 525 1153 
L 897 3053 
L 409 3053 
L 500 3500 
L 978 3500 
L 1172 4494 
L 1747 4494 
L 1556 3500 
L 2706 3500 
z
" transform="scale(0.015625)"/>
      <path id="DejaVuSans-Oblique-53" d="M 3859 4513 
L 3738 3897 
Q 3422 4066 3111 4152 
Q 2800 4238 2509 4238 
Q 1944 4238 1609 3991 
Q 1275 3744 1275 3334 
Q 1275 3109 1398 2989 
Q 1522 2869 2034 2731 
L 2413 2638 
Q 3053 2472 3303 2217 
Q 3553 1963 3553 1503 
Q 3553 797 2998 353 
Q 2444 -91 1538 -91 
Q 1166 -91 791 -17 
Q 416 56 38 206 
L 166 856 
Q 513 641 861 531 
Q 1209 422 1556 422 
Q 2147 422 2503 684 
Q 2859 947 2859 1369 
Q 2859 1650 2717 1795 
Q 2575 1941 2106 2059 
L 1728 2156 
Q 1081 2325 845 2545 
Q 609 2766 609 3163 
Q 609 3859 1145 4304 
Q 1681 4750 2541 4750 
Q 2875 4750 3203 4690 
Q 3531 4631 3859 4513 
z
" transform="scale(0.015625)"/>
     </defs>
     <use xlink:href="#DejaVuSans-51" transform="translate(0 0.015625)"/>
     <use xlink:href="#DejaVuSans-75" transform="translate(78.710938 0.015625)"/>
     <use xlink:href="#DejaVuSans-61" transform="translate(142.089844 0.015625)"/>
     <use xlink:href="#DejaVuSans-64" transform="translate(203.369141 0.015625)"/>
     <use xlink:href="#DejaVuSans-72" transform="translate(266.845703 0.015625)"/>
     <use xlink:href="#DejaVuSans-61" transform="translate(307.958984 0.015625)"/>
     <use xlink:href="#DejaVuSans-74" transform="translate(369.238281 0.015625)"/>
     <use xlink:href="#DejaVuSans-69" transform="translate(408.447266 0.015625)"/>
     <use xlink:href="#DejaVuSans-63" transform="translate(436.230469 0.015625)"/>
     <use xlink:href="#DejaVuSans-20" transform="translate(491.210938 0.015625)"/>
     <use xlink:href="#DejaVuSans-43" transform="translate(522.998047 0.015625)"/>
     <use xlink:href="#DejaVuSans-6f" transform="translate(592.822266 0.015625)"/>
     <use xlink:href="#DejaVuSans-76" transform="translate(654.003906 0.015625)"/>
     <use xlink:href="#DejaVuSans-61" transform="translate(713.183594 0.015625)"/>
     <use xlink:href="#DejaVuSans-72" transform="translate(774.462891 0.015625)"/>
     <use xlink:href="#DejaVuSans-69" transform="translate(815.576172 0.015625)"/>
     <use xlink:href="#DejaVuSans-61" transform="translate(843.359375 0.015625)"/>
     <use xlink:href="#DejaVuSans-74" transform="translate(904.638672 0.015625)"/>
     <use xlink:href="#DejaVuSans-69" transform="translate(943.847656 0.015625)"/>
     <use xlink:href="#DejaVuSans-6f" transform="translate(971.630859 0.015625)"/>
     <use xlink:href="#DejaVuSans-6e" transform="translate(1032.8125 0.015625)"/>
     <use xlink:href="#DejaVuSans-20" transform="translate(1096.191406 0.015625)"/>
     <use xlink:href="#DejaVuSans-6f" transform="translate(1127.978516 0.015625)"/>
     <use xlink:href="#DejaVuSans-66" transform="translate(1189.160156 0.015625)"/>
     <use xlink:href="#DejaVuSans-20" transform="translate(1224.365234 0.015625)"/>
     <use xlink:href="#DejaVuSans-Oblique-58" transform="translate(1256.152344 0.015625)"/>
     <use xlink:href="#DejaVuSans-Oblique-74" transform="translate(1324.658203 -16.390625)scale(0.7)"/>
     <use xlink:href="#DejaVuSans-20" transform="translate(1354.838867 0.015625)"/>
     <use xlink:href="#DejaVuSans-61" transform="translate(1386.625977 0.015625)"/>
     <use xlink:href="#DejaVuSans-6e" transform="translate(1447.905273 0.015625)"/>
     <use xlink:href="#DejaVuSans-64" transform="translate(1511.28418 0.015625)"/>
     <use xlink:href="#DejaVuSans-20" transform="translate(1574.760742 0.015625)"/>
     <use xlink:href="#DejaVuSans-Oblique-53" transform="translate(1606.547852 0.015625)"/>
     <use xlink:href="#DejaVuSans-Oblique-74" transform="translate(1670.024414 -16.390625)scale(0.7)"/>
    </g>
   </g>
   <g id="legend_1">
    <g id="patch_7">
     <path d="M 698.1 379.48 
L 900.2 379.48 
Q 902.2 379.48 902.2 377.48 
L 902.2 334.445625 
Q 902.2 332.445625 900.2 332.445625 
L 698.1 332.445625 
Q 696.1 332.445625 696.1 334.445625 
L 696.1 377.48 
Q 696.1 379.48 698.1 379.48 
z
" style="fill: #ffffff; opacity: 0.8; stroke: #cccccc; stroke-linejoin: miter"/>
    </g>
    <g id="line2d_17">
     <path d="M 700.1 340.544062 
L 710.1 340.544062 
L 720.1 340.544062 
" style="fill: none; stroke: #1f77b4; stroke-width: 1.5; stroke-linecap: square"/>
    </g>
    <g id="text_17">
     <!-- $X_t$ -->
     <g transform="translate(728.1 344.044062)scale(0.1 -0.1)">
      <use xlink:href="#DejaVuSans-Oblique-58" transform="translate(0 0.09375)"/>
      <use xlink:href="#DejaVuSans-Oblique-74" transform="translate(68.505859 -16.3125)scale(0.7)"/>
     </g>
    </g>
    <g id="line2d_18">
     <path d="M 700.1 355.222188 
L 710.1 355.222188 
L 720.1 355.222188 
" style="fill: none; stroke: #ff7f0e; stroke-width: 1.5; stroke-linecap: square"/>
    </g>
    <g id="text_18">
     <!-- $S_t$ -->
     <g transform="translate(728.1 358.722188)scale(0.1 -0.1)">
      <use xlink:href="#DejaVuSans-Oblique-53" transform="translate(0 0.78125)"/>
      <use xlink:href="#DejaVuSans-Oblique-74" transform="translate(63.476562 -15.625)scale(0.7)"/>
     </g>
    </g>
    <g id="line2d_19">
     <path d="M 700.1 369.900312 
L 710.1 369.900312 
L 720.1 369.900312 
" style="fill: none; stroke: #2ca02c; stroke-width: 1.5; stroke-linecap: square"/>
    </g>
    <g id="text_19">
     <!-- Quadratic Covariation of $X_t$ and $S_t$ -->
     <g transform="translate(728.1 373.400312)scale(0.1 -0.1)">
      <use xlink:href="#DejaVuSans-51" transform="translate(0 0.015625)"/>
      <use xlink:href="#DejaVuSans-75" transform="translate(78.710938 0.015625)"/>
      <use xlink:href="#DejaVuSans-61" transform="translate(142.089844 0.015625)"/>
      <use xlink:href="#DejaVuSans-64" transform="translate(203.369141 0.015625)"/>
      <use xlink:href="#DejaVuSans-72" transform="translate(266.845703 0.015625)"/>
      <use xlink:href="#DejaVuSans-61" transform="translate(307.958984 0.015625)"/>
      <use xlink:href="#DejaVuSans-74" transform="translate(369.238281 0.015625)"/>
      <use xlink:href="#DejaVuSans-69" transform="translate(408.447266 0.015625)"/>
      <use xlink:href="#DejaVuSans-63" transform="translate(436.230469 0.015625)"/>
      <use xlink:href="#DejaVuSans-20" transform="translate(491.210938 0.015625)"/>
      <use xlink:href="#DejaVuSans-43" transform="translate(522.998047 0.015625)"/>
      <use xlink:href="#DejaVuSans-6f" transform="translate(592.822266 0.015625)"/>
      <use xlink:href="#DejaVuSans-76" transform="translate(654.003906 0.015625)"/>
      <use xlink:href="#DejaVuSans-61" transform="translate(713.183594 0.015625)"/>
      <use xlink:href="#DejaVuSans-72" transform="translate(774.462891 0.015625)"/>
      <use xlink:href="#DejaVuSans-69" transform="translate(815.576172 0.015625)"/>
      <use xlink:href="#DejaVuSans-61" transform="translate(843.359375 0.015625)"/>
      <use xlink:href="#DejaVuSans-74" transform="translate(904.638672 0.015625)"/>
      <use xlink:href="#DejaVuSans-69" transform="translate(943.847656 0.015625)"/>
      <use xlink:href="#DejaVuSans-6f" transform="translate(971.630859 0.015625)"/>
      <use xlink:href="#DejaVuSans-6e" transform="translate(1032.8125 0.015625)"/>
      <use xlink:href="#DejaVuSans-20" transform="translate(1096.191406 0.015625)"/>
      <use xlink:href="#DejaVuSans-6f" transform="translate(1127.978516 0.015625)"/>
      <use xlink:href="#DejaVuSans-66" transform="translate(1189.160156 0.015625)"/>
      <use xlink:href="#DejaVuSans-20" transform="translate(1224.365234 0.015625)"/>
      <use xlink:href="#DejaVuSans-Oblique-58" transform="translate(1256.152344 0.015625)"/>
      <use xlink:href="#DejaVuSans-Oblique-74" transform="translate(1324.658203 -16.390625)scale(0.7)"/>
      <use xlink:href="#DejaVuSans-20" transform="translate(1354.838867 0.015625)"/>
      <use xlink:href="#DejaVuSans-61" transform="translate(1386.625977 0.015625)"/>
      <use xlink:href="#DejaVuSans-6e" transform="translate(1447.905273 0.015625)"/>
      <use xlink:href="#DejaVuSans-64" transform="translate(1511.28418 0.015625)"/>
      <use xlink:href="#DejaVuSans-20" transform="translate(1574.760742 0.015625)"/>
      <use xlink:href="#DejaVuSans-Oblique-53" transform="translate(1606.547852 0.015625)"/>
      <use xlink:href="#DejaVuSans-Oblique-74" transform="translate(1670.024414 -16.390625)scale(0.7)"/>
     </g>
    </g>
   </g>
  </g>
 </g>
 <defs>
  <clipPath id="p62bedd10d3">
   <rect x="126" y="51.84" width="781.2" height="332.64"/>
  </clipPath>
 </defs>
</svg>
