<?xml version="1.0" encoding="utf-8" standalone="no"?>
<!DOCTYPE svg PUBLIC "-//W3C//DTD SVG 1.1//EN"
  "http://www.w3.org/Graphics/SVG/1.1/DTD/svg11.dtd">
<svg xmlns:xlink="http://www.w3.org/1999/xlink" width="1008pt" height="432pt" viewBox="0 0 1008 432" xmlns="http://www.w3.org/2000/svg" version="1.1">
 <metadata>
  <rdf:RDF xmlns:dc="http://purl.org/dc/elements/1.1/" xmlns:cc="http://creativecommons.org/ns#" xmlns:rdf="http://www.w3.org/1999/02/22-rdf-syntax-ns#">
   <cc:Work>
    <dc:type rdf:resource="http://purl.org/dc/dcmitype/StillImage"/>
    <dc:date>2023-12-22T17:11:24.908654</dc:date>
    <dc:format>image/svg+xml</dc:format>
    <dc:creator>
     <cc:Agent>
      <dc:title>Matplotlib v3.5.2, https://matplotlib.org/</dc:title>
     </cc:Agent>
    </dc:creator>
   </cc:Work>
  </rdf:RDF>
 </metadata>
 <defs>
  <style type="text/css">*{stroke-linejoin: round; stroke-linecap: butt}</style>
 </defs>
 <g id="figure_1">
  <g id="patch_1">
   <path d="M 0 432 
L 1008 432 
L 1008 0 
L 0 0 
z
" style="fill: #ffffff"/>
  </g>
  <g id="axes_1">
   <g id="patch_2">
    <path d="M 126 384.48 
L 907.2 384.48 
L 907.2 51.84 
L 126 51.84 
z
" style="fill: #ffffff"/>
   </g>
   <g id="matplotlib.axis_1">
    <g id="xtick_1">
     <g id="line2d_1">
      <defs>
       <path id="m339360fc01" d="M 0 0 
L 0 3.5 
" style="stroke: #000000; stroke-width: 0.8"/>
      </defs>
      <g>
       <use xlink:href="#m339360fc01" x="161.509091" y="384.48" style="stroke: #000000; stroke-width: 0.8"/>
      </g>
     </g>
     <g id="text_1">
      <!-- 0.0 -->
      <g transform="translate(153.557528 399.078438)scale(0.1 -0.1)">
       <defs>
        <path id="DejaVuSans-30" d="M 2034 4250 
Q 1547 4250 1301 3770 
Q 1056 3291 1056 2328 
Q 1056 1369 1301 889 
Q 1547 409 2034 409 
Q 2525 409 2770 889 
Q 3016 1369 3016 2328 
Q 3016 3291 2770 3770 
Q 2525 4250 2034 4250 
z
M 2034 4750 
Q 2819 4750 3233 4129 
Q 3647 3509 3647 2328 
Q 3647 1150 3233 529 
Q 2819 -91 2034 -91 
Q 1250 -91 836 529 
Q 422 1150 422 2328 
Q 422 3509 836 4129 
Q 1250 4750 2034 4750 
z
" transform="scale(0.015625)"/>
        <path id="DejaVuSans-2e" d="M 684 794 
L 1344 794 
L 1344 0 
L 684 0 
L 684 794 
z
" transform="scale(0.015625)"/>
       </defs>
       <use xlink:href="#DejaVuSans-30"/>
       <use xlink:href="#DejaVuSans-2e" x="63.623047"/>
       <use xlink:href="#DejaVuSans-30" x="95.410156"/>
      </g>
     </g>
    </g>
    <g id="xtick_2">
     <g id="line2d_2">
      <g>
       <use xlink:href="#m339360fc01" x="303.545455" y="384.48" style="stroke: #000000; stroke-width: 0.8"/>
      </g>
     </g>
     <g id="text_2">
      <!-- 0.2 -->
      <g transform="translate(295.593892 399.078438)scale(0.1 -0.1)">
       <defs>
        <path id="DejaVuSans-32" d="M 1228 531 
L 3431 531 
L 3431 0 
L 469 0 
L 469 531 
Q 828 903 1448 1529 
Q 2069 2156 2228 2338 
Q 2531 2678 2651 2914 
Q 2772 3150 2772 3378 
Q 2772 3750 2511 3984 
Q 2250 4219 1831 4219 
Q 1534 4219 1204 4116 
Q 875 4013 500 3803 
L 500 4441 
Q 881 4594 1212 4672 
Q 1544 4750 1819 4750 
Q 2544 4750 2975 4387 
Q 3406 4025 3406 3419 
Q 3406 3131 3298 2873 
Q 3191 2616 2906 2266 
Q 2828 2175 2409 1742 
Q 1991 1309 1228 531 
z
" transform="scale(0.015625)"/>
       </defs>
       <use xlink:href="#DejaVuSans-30"/>
       <use xlink:href="#DejaVuSans-2e" x="63.623047"/>
       <use xlink:href="#DejaVuSans-32" x="95.410156"/>
      </g>
     </g>
    </g>
    <g id="xtick_3">
     <g id="line2d_3">
      <g>
       <use xlink:href="#m339360fc01" x="445.581818" y="384.48" style="stroke: #000000; stroke-width: 0.8"/>
      </g>
     </g>
     <g id="text_3">
      <!-- 0.4 -->
      <g transform="translate(437.630256 399.078438)scale(0.1 -0.1)">
       <defs>
        <path id="DejaVuSans-34" d="M 2419 4116 
L 825 1625 
L 2419 1625 
L 2419 4116 
z
M 2253 4666 
L 3047 4666 
L 3047 1625 
L 3713 1625 
L 3713 1100 
L 3047 1100 
L 3047 0 
L 2419 0 
L 2419 1100 
L 313 1100 
L 313 1709 
L 2253 4666 
z
" transform="scale(0.015625)"/>
       </defs>
       <use xlink:href="#DejaVuSans-30"/>
       <use xlink:href="#DejaVuSans-2e" x="63.623047"/>
       <use xlink:href="#DejaVuSans-34" x="95.410156"/>
      </g>
     </g>
    </g>
    <g id="xtick_4">
     <g id="line2d_4">
      <g>
       <use xlink:href="#m339360fc01" x="587.618182" y="384.48" style="stroke: #000000; stroke-width: 0.8"/>
      </g>
     </g>
     <g id="text_4">
      <!-- 0.6 -->
      <g transform="translate(579.666619 399.078438)scale(0.1 -0.1)">
       <defs>
        <path id="DejaVuSans-36" d="M 2113 2584 
Q 1688 2584 1439 2293 
Q 1191 2003 1191 1497 
Q 1191 994 1439 701 
Q 1688 409 2113 409 
Q 2538 409 2786 701 
Q 3034 994 3034 1497 
Q 3034 2003 2786 2293 
Q 2538 2584 2113 2584 
z
M 3366 4563 
L 3366 3988 
Q 3128 4100 2886 4159 
Q 2644 4219 2406 4219 
Q 1781 4219 1451 3797 
Q 1122 3375 1075 2522 
Q 1259 2794 1537 2939 
Q 1816 3084 2150 3084 
Q 2853 3084 3261 2657 
Q 3669 2231 3669 1497 
Q 3669 778 3244 343 
Q 2819 -91 2113 -91 
Q 1303 -91 875 529 
Q 447 1150 447 2328 
Q 447 3434 972 4092 
Q 1497 4750 2381 4750 
Q 2619 4750 2861 4703 
Q 3103 4656 3366 4563 
z
" transform="scale(0.015625)"/>
       </defs>
       <use xlink:href="#DejaVuSans-30"/>
       <use xlink:href="#DejaVuSans-2e" x="63.623047"/>
       <use xlink:href="#DejaVuSans-36" x="95.410156"/>
      </g>
     </g>
    </g>
    <g id="xtick_5">
     <g id="line2d_5">
      <g>
       <use xlink:href="#m339360fc01" x="729.654545" y="384.48" style="stroke: #000000; stroke-width: 0.8"/>
      </g>
     </g>
     <g id="text_5">
      <!-- 0.8 -->
      <g transform="translate(721.702983 399.078438)scale(0.1 -0.1)">
       <defs>
        <path id="DejaVuSans-38" d="M 2034 2216 
Q 1584 2216 1326 1975 
Q 1069 1734 1069 1313 
Q 1069 891 1326 650 
Q 1584 409 2034 409 
Q 2484 409 2743 651 
Q 3003 894 3003 1313 
Q 3003 1734 2745 1975 
Q 2488 2216 2034 2216 
z
M 1403 2484 
Q 997 2584 770 2862 
Q 544 3141 544 3541 
Q 544 4100 942 4425 
Q 1341 4750 2034 4750 
Q 2731 4750 3128 4425 
Q 3525 4100 3525 3541 
Q 3525 3141 3298 2862 
Q 3072 2584 2669 2484 
Q 3125 2378 3379 2068 
Q 3634 1759 3634 1313 
Q 3634 634 3220 271 
Q 2806 -91 2034 -91 
Q 1263 -91 848 271 
Q 434 634 434 1313 
Q 434 1759 690 2068 
Q 947 2378 1403 2484 
z
M 1172 3481 
Q 1172 3119 1398 2916 
Q 1625 2713 2034 2713 
Q 2441 2713 2670 2916 
Q 2900 3119 2900 3481 
Q 2900 3844 2670 4047 
Q 2441 4250 2034 4250 
Q 1625 4250 1398 4047 
Q 1172 3844 1172 3481 
z
" transform="scale(0.015625)"/>
       </defs>
       <use xlink:href="#DejaVuSans-30"/>
       <use xlink:href="#DejaVuSans-2e" x="63.623047"/>
       <use xlink:href="#DejaVuSans-38" x="95.410156"/>
      </g>
     </g>
    </g>
    <g id="xtick_6">
     <g id="line2d_6">
      <g>
       <use xlink:href="#m339360fc01" x="871.690909" y="384.48" style="stroke: #000000; stroke-width: 0.8"/>
      </g>
     </g>
     <g id="text_6">
      <!-- 1.0 -->
      <g transform="translate(863.739347 399.078438)scale(0.1 -0.1)">
       <defs>
        <path id="DejaVuSans-31" d="M 794 531 
L 1825 531 
L 1825 4091 
L 703 3866 
L 703 4441 
L 1819 4666 
L 2450 4666 
L 2450 531 
L 3481 531 
L 3481 0 
L 794 0 
L 794 531 
z
" transform="scale(0.015625)"/>
       </defs>
       <use xlink:href="#DejaVuSans-31"/>
       <use xlink:href="#DejaVuSans-2e" x="63.623047"/>
       <use xlink:href="#DejaVuSans-30" x="95.410156"/>
      </g>
     </g>
    </g>
    <g id="text_7">
     <!-- Time -->
     <g transform="translate(504.366406 412.756563)scale(0.1 -0.1)">
      <defs>
       <path id="DejaVuSans-54" d="M -19 4666 
L 3928 4666 
L 3928 4134 
L 2272 4134 
L 2272 0 
L 1638 0 
L 1638 4134 
L -19 4134 
L -19 4666 
z
" transform="scale(0.015625)"/>
       <path id="DejaVuSans-69" d="M 603 3500 
L 1178 3500 
L 1178 0 
L 603 0 
L 603 3500 
z
M 603 4863 
L 1178 4863 
L 1178 4134 
L 603 4134 
L 603 4863 
z
" transform="scale(0.015625)"/>
       <path id="DejaVuSans-6d" d="M 3328 2828 
Q 3544 3216 3844 3400 
Q 4144 3584 4550 3584 
Q 5097 3584 5394 3201 
Q 5691 2819 5691 2113 
L 5691 0 
L 5113 0 
L 5113 2094 
Q 5113 2597 4934 2840 
Q 4756 3084 4391 3084 
Q 3944 3084 3684 2787 
Q 3425 2491 3425 1978 
L 3425 0 
L 2847 0 
L 2847 2094 
Q 2847 2600 2669 2842 
Q 2491 3084 2119 3084 
Q 1678 3084 1418 2786 
Q 1159 2488 1159 1978 
L 1159 0 
L 581 0 
L 581 3500 
L 1159 3500 
L 1159 2956 
Q 1356 3278 1631 3431 
Q 1906 3584 2284 3584 
Q 2666 3584 2933 3390 
Q 3200 3197 3328 2828 
z
" transform="scale(0.015625)"/>
       <path id="DejaVuSans-65" d="M 3597 1894 
L 3597 1613 
L 953 1613 
Q 991 1019 1311 708 
Q 1631 397 2203 397 
Q 2534 397 2845 478 
Q 3156 559 3463 722 
L 3463 178 
Q 3153 47 2828 -22 
Q 2503 -91 2169 -91 
Q 1331 -91 842 396 
Q 353 884 353 1716 
Q 353 2575 817 3079 
Q 1281 3584 2069 3584 
Q 2775 3584 3186 3129 
Q 3597 2675 3597 1894 
z
M 3022 2063 
Q 3016 2534 2758 2815 
Q 2500 3097 2075 3097 
Q 1594 3097 1305 2825 
Q 1016 2553 972 2059 
L 3022 2063 
z
" transform="scale(0.015625)"/>
      </defs>
      <use xlink:href="#DejaVuSans-54"/>
      <use xlink:href="#DejaVuSans-69" x="57.958984"/>
      <use xlink:href="#DejaVuSans-6d" x="85.742188"/>
      <use xlink:href="#DejaVuSans-65" x="183.154297"/>
     </g>
    </g>
   </g>
   <g id="matplotlib.axis_2">
    <g id="ytick_1">
     <g id="line2d_7">
      <defs>
       <path id="m5fa392ab49" d="M 0 0 
L -3.5 0 
" style="stroke: #000000; stroke-width: 0.8"/>
      </defs>
      <g>
       <use xlink:href="#m5fa392ab49" x="126" y="371.239416" style="stroke: #000000; stroke-width: 0.8"/>
      </g>
     </g>
     <g id="text_8">
      <!-- −4 -->
      <g transform="translate(104.257812 375.038634)scale(0.1 -0.1)">
       <defs>
        <path id="DejaVuSans-2212" d="M 678 2272 
L 4684 2272 
L 4684 1741 
L 678 1741 
L 678 2272 
z
" transform="scale(0.015625)"/>
       </defs>
       <use xlink:href="#DejaVuSans-2212"/>
       <use xlink:href="#DejaVuSans-34" x="83.789062"/>
      </g>
     </g>
    </g>
    <g id="ytick_2">
     <g id="line2d_8">
      <g>
       <use xlink:href="#m5fa392ab49" x="126" y="330.652488" style="stroke: #000000; stroke-width: 0.8"/>
      </g>
     </g>
     <g id="text_9">
      <!-- −3 -->
      <g transform="translate(104.257812 334.451707)scale(0.1 -0.1)">
       <defs>
        <path id="DejaVuSans-33" d="M 2597 2516 
Q 3050 2419 3304 2112 
Q 3559 1806 3559 1356 
Q 3559 666 3084 287 
Q 2609 -91 1734 -91 
Q 1441 -91 1130 -33 
Q 819 25 488 141 
L 488 750 
Q 750 597 1062 519 
Q 1375 441 1716 441 
Q 2309 441 2620 675 
Q 2931 909 2931 1356 
Q 2931 1769 2642 2001 
Q 2353 2234 1838 2234 
L 1294 2234 
L 1294 2753 
L 1863 2753 
Q 2328 2753 2575 2939 
Q 2822 3125 2822 3475 
Q 2822 3834 2567 4026 
Q 2313 4219 1838 4219 
Q 1578 4219 1281 4162 
Q 984 4106 628 3988 
L 628 4550 
Q 988 4650 1302 4700 
Q 1616 4750 1894 4750 
Q 2613 4750 3031 4423 
Q 3450 4097 3450 3541 
Q 3450 3153 3228 2886 
Q 3006 2619 2597 2516 
z
" transform="scale(0.015625)"/>
       </defs>
       <use xlink:href="#DejaVuSans-2212"/>
       <use xlink:href="#DejaVuSans-33" x="83.789062"/>
      </g>
     </g>
    </g>
    <g id="ytick_3">
     <g id="line2d_9">
      <g>
       <use xlink:href="#m5fa392ab49" x="126" y="290.065561" style="stroke: #000000; stroke-width: 0.8"/>
      </g>
     </g>
     <g id="text_10">
      <!-- −2 -->
      <g transform="translate(104.257812 293.86478)scale(0.1 -0.1)">
       <use xlink:href="#DejaVuSans-2212"/>
       <use xlink:href="#DejaVuSans-32" x="83.789062"/>
      </g>
     </g>
    </g>
    <g id="ytick_4">
     <g id="line2d_10">
      <g>
       <use xlink:href="#m5fa392ab49" x="126" y="249.478633" style="stroke: #000000; stroke-width: 0.8"/>
      </g>
     </g>
     <g id="text_11">
      <!-- −1 -->
      <g transform="translate(104.257812 253.277852)scale(0.1 -0.1)">
       <use xlink:href="#DejaVuSans-2212"/>
       <use xlink:href="#DejaVuSans-31" x="83.789062"/>
      </g>
     </g>
    </g>
    <g id="ytick_5">
     <g id="line2d_11">
      <g>
       <use xlink:href="#m5fa392ab49" x="126" y="208.891706" style="stroke: #000000; stroke-width: 0.8"/>
      </g>
     </g>
     <g id="text_12">
      <!-- 0 -->
      <g transform="translate(112.6375 212.690925)scale(0.1 -0.1)">
       <use xlink:href="#DejaVuSans-30"/>
      </g>
     </g>
    </g>
    <g id="ytick_6">
     <g id="line2d_12">
      <g>
       <use xlink:href="#m5fa392ab49" x="126" y="168.304779" style="stroke: #000000; stroke-width: 0.8"/>
      </g>
     </g>
     <g id="text_13">
      <!-- 1 -->
      <g transform="translate(112.6375 172.103997)scale(0.1 -0.1)">
       <use xlink:href="#DejaVuSans-31"/>
      </g>
     </g>
    </g>
    <g id="ytick_7">
     <g id="line2d_13">
      <g>
       <use xlink:href="#m5fa392ab49" x="126" y="127.717851" style="stroke: #000000; stroke-width: 0.8"/>
      </g>
     </g>
     <g id="text_14">
      <!-- 2 -->
      <g transform="translate(112.6375 131.51707)scale(0.1 -0.1)">
       <use xlink:href="#DejaVuSans-32"/>
      </g>
     </g>
    </g>
    <g id="ytick_8">
     <g id="line2d_14">
      <g>
       <use xlink:href="#m5fa392ab49" x="126" y="87.130924" style="stroke: #000000; stroke-width: 0.8"/>
      </g>
     </g>
     <g id="text_15">
      <!-- 3 -->
      <g transform="translate(112.6375 90.930142)scale(0.1 -0.1)">
       <use xlink:href="#DejaVuSans-33"/>
      </g>
     </g>
    </g>
    <g id="text_16">
     <!-- Quadratic Covariation -->
     <g transform="translate(98.178125 272.970156)rotate(-90)scale(0.1 -0.1)">
      <defs>
       <path id="DejaVuSans-51" d="M 2522 4238 
Q 1834 4238 1429 3725 
Q 1025 3213 1025 2328 
Q 1025 1447 1429 934 
Q 1834 422 2522 422 
Q 3209 422 3611 934 
Q 4013 1447 4013 2328 
Q 4013 3213 3611 3725 
Q 3209 4238 2522 4238 
z
M 3406 84 
L 4238 -825 
L 3475 -825 
L 2784 -78 
Q 2681 -84 2626 -87 
Q 2572 -91 2522 -91 
Q 1538 -91 948 567 
Q 359 1225 359 2328 
Q 359 3434 948 4092 
Q 1538 4750 2522 4750 
Q 3503 4750 4090 4092 
Q 4678 3434 4678 2328 
Q 4678 1516 4351 937 
Q 4025 359 3406 84 
z
" transform="scale(0.015625)"/>
       <path id="DejaVuSans-75" d="M 544 1381 
L 544 3500 
L 1119 3500 
L 1119 1403 
Q 1119 906 1312 657 
Q 1506 409 1894 409 
Q 2359 409 2629 706 
Q 2900 1003 2900 1516 
L 2900 3500 
L 3475 3500 
L 3475 0 
L 2900 0 
L 2900 538 
Q 2691 219 2414 64 
Q 2138 -91 1772 -91 
Q 1169 -91 856 284 
Q 544 659 544 1381 
z
M 1991 3584 
L 1991 3584 
z
" transform="scale(0.015625)"/>
       <path id="DejaVuSans-61" d="M 2194 1759 
Q 1497 1759 1228 1600 
Q 959 1441 959 1056 
Q 959 750 1161 570 
Q 1363 391 1709 391 
Q 2188 391 2477 730 
Q 2766 1069 2766 1631 
L 2766 1759 
L 2194 1759 
z
M 3341 1997 
L 3341 0 
L 2766 0 
L 2766 531 
Q 2569 213 2275 61 
Q 1981 -91 1556 -91 
Q 1019 -91 701 211 
Q 384 513 384 1019 
Q 384 1609 779 1909 
Q 1175 2209 1959 2209 
L 2766 2209 
L 2766 2266 
Q 2766 2663 2505 2880 
Q 2244 3097 1772 3097 
Q 1472 3097 1187 3025 
Q 903 2953 641 2809 
L 641 3341 
Q 956 3463 1253 3523 
Q 1550 3584 1831 3584 
Q 2591 3584 2966 3190 
Q 3341 2797 3341 1997 
z
" transform="scale(0.015625)"/>
       <path id="DejaVuSans-64" d="M 2906 2969 
L 2906 4863 
L 3481 4863 
L 3481 0 
L 2906 0 
L 2906 525 
Q 2725 213 2448 61 
Q 2172 -91 1784 -91 
Q 1150 -91 751 415 
Q 353 922 353 1747 
Q 353 2572 751 3078 
Q 1150 3584 1784 3584 
Q 2172 3584 2448 3432 
Q 2725 3281 2906 2969 
z
M 947 1747 
Q 947 1113 1208 752 
Q 1469 391 1925 391 
Q 2381 391 2643 752 
Q 2906 1113 2906 1747 
Q 2906 2381 2643 2742 
Q 2381 3103 1925 3103 
Q 1469 3103 1208 2742 
Q 947 2381 947 1747 
z
" transform="scale(0.015625)"/>
       <path id="DejaVuSans-72" d="M 2631 2963 
Q 2534 3019 2420 3045 
Q 2306 3072 2169 3072 
Q 1681 3072 1420 2755 
Q 1159 2438 1159 1844 
L 1159 0 
L 581 0 
L 581 3500 
L 1159 3500 
L 1159 2956 
Q 1341 3275 1631 3429 
Q 1922 3584 2338 3584 
Q 2397 3584 2469 3576 
Q 2541 3569 2628 3553 
L 2631 2963 
z
" transform="scale(0.015625)"/>
       <path id="DejaVuSans-74" d="M 1172 4494 
L 1172 3500 
L 2356 3500 
L 2356 3053 
L 1172 3053 
L 1172 1153 
Q 1172 725 1289 603 
Q 1406 481 1766 481 
L 2356 481 
L 2356 0 
L 1766 0 
Q 1100 0 847 248 
Q 594 497 594 1153 
L 594 3053 
L 172 3053 
L 172 3500 
L 594 3500 
L 594 4494 
L 1172 4494 
z
" transform="scale(0.015625)"/>
       <path id="DejaVuSans-63" d="M 3122 3366 
L 3122 2828 
Q 2878 2963 2633 3030 
Q 2388 3097 2138 3097 
Q 1578 3097 1268 2742 
Q 959 2388 959 1747 
Q 959 1106 1268 751 
Q 1578 397 2138 397 
Q 2388 397 2633 464 
Q 2878 531 3122 666 
L 3122 134 
Q 2881 22 2623 -34 
Q 2366 -91 2075 -91 
Q 1284 -91 818 406 
Q 353 903 353 1747 
Q 353 2603 823 3093 
Q 1294 3584 2113 3584 
Q 2378 3584 2631 3529 
Q 2884 3475 3122 3366 
z
" transform="scale(0.015625)"/>
       <path id="DejaVuSans-20" transform="scale(0.015625)"/>
       <path id="DejaVuSans-43" d="M 4122 4306 
L 4122 3641 
Q 3803 3938 3442 4084 
Q 3081 4231 2675 4231 
Q 1875 4231 1450 3742 
Q 1025 3253 1025 2328 
Q 1025 1406 1450 917 
Q 1875 428 2675 428 
Q 3081 428 3442 575 
Q 3803 722 4122 1019 
L 4122 359 
Q 3791 134 3420 21 
Q 3050 -91 2638 -91 
Q 1578 -91 968 557 
Q 359 1206 359 2328 
Q 359 3453 968 4101 
Q 1578 4750 2638 4750 
Q 3056 4750 3426 4639 
Q 3797 4528 4122 4306 
z
" transform="scale(0.015625)"/>
       <path id="DejaVuSans-6f" d="M 1959 3097 
Q 1497 3097 1228 2736 
Q 959 2375 959 1747 
Q 959 1119 1226 758 
Q 1494 397 1959 397 
Q 2419 397 2687 759 
Q 2956 1122 2956 1747 
Q 2956 2369 2687 2733 
Q 2419 3097 1959 3097 
z
M 1959 3584 
Q 2709 3584 3137 3096 
Q 3566 2609 3566 1747 
Q 3566 888 3137 398 
Q 2709 -91 1959 -91 
Q 1206 -91 779 398 
Q 353 888 353 1747 
Q 353 2609 779 3096 
Q 1206 3584 1959 3584 
z
" transform="scale(0.015625)"/>
       <path id="DejaVuSans-76" d="M 191 3500 
L 800 3500 
L 1894 563 
L 2988 3500 
L 3597 3500 
L 2284 0 
L 1503 0 
L 191 3500 
z
" transform="scale(0.015625)"/>
       <path id="DejaVuSans-6e" d="M 3513 2113 
L 3513 0 
L 2938 0 
L 2938 2094 
Q 2938 2591 2744 2837 
Q 2550 3084 2163 3084 
Q 1697 3084 1428 2787 
Q 1159 2491 1159 1978 
L 1159 0 
L 581 0 
L 581 3500 
L 1159 3500 
L 1159 2956 
Q 1366 3272 1645 3428 
Q 1925 3584 2291 3584 
Q 2894 3584 3203 3211 
Q 3513 2838 3513 2113 
z
" transform="scale(0.015625)"/>
      </defs>
      <use xlink:href="#DejaVuSans-51"/>
      <use xlink:href="#DejaVuSans-75" x="78.710938"/>
      <use xlink:href="#DejaVuSans-61" x="142.089844"/>
      <use xlink:href="#DejaVuSans-64" x="203.369141"/>
      <use xlink:href="#DejaVuSans-72" x="266.845703"/>
      <use xlink:href="#DejaVuSans-61" x="307.958984"/>
      <use xlink:href="#DejaVuSans-74" x="369.238281"/>
      <use xlink:href="#DejaVuSans-69" x="408.447266"/>
      <use xlink:href="#DejaVuSans-63" x="436.230469"/>
      <use xlink:href="#DejaVuSans-20" x="491.210938"/>
      <use xlink:href="#DejaVuSans-43" x="522.998047"/>
      <use xlink:href="#DejaVuSans-6f" x="592.822266"/>
      <use xlink:href="#DejaVuSans-76" x="654.003906"/>
      <use xlink:href="#DejaVuSans-61" x="713.183594"/>
      <use xlink:href="#DejaVuSans-72" x="774.462891"/>
      <use xlink:href="#DejaVuSans-69" x="815.576172"/>
      <use xlink:href="#DejaVuSans-61" x="843.359375"/>
      <use xlink:href="#DejaVuSans-74" x="904.638672"/>
      <use xlink:href="#DejaVuSans-69" x="943.847656"/>
      <use xlink:href="#DejaVuSans-6f" x="971.630859"/>
      <use xlink:href="#DejaVuSans-6e" x="1032.8125"/>
     </g>
    </g>
   </g>
   <g id="line2d_15">
    <path d="M 161.509091 168.304779 
L 162.219273 168.427153 
L 162.929455 169.815888 
L 164.349818 168.700859 
L 165.06 173.098932 
L 166.480364 175.743493 
L 167.190545 178.985298 
L 167.900727 177.046028 
L 168.610909 174.341045 
L 169.321091 174.961816 
L 170.031273 170.162704 
L 171.451636 171.374213 
L 172.161818 172.956756 
L 172.872 175.119863 
L 174.292364 178.058726 
L 175.002545 180.785702 
L 175.712727 181.891656 
L 176.422909 183.582266 
L 177.133091 183.704502 
L 177.843273 180.719226 
L 178.553455 182.077023 
L 179.263636 179.215709 
L 179.973818 181.456405 
L 180.684 181.844243 
L 181.394182 181.558028 
L 182.104364 179.465813 
L 182.814545 179.812951 
L 183.524727 178.155583 
L 184.945091 177.170588 
L 185.655273 175.76312 
L 186.365455 180.115209 
L 187.785818 175.588418 
L 188.496 177.433605 
L 189.206182 175.97337 
L 189.916364 174.903444 
L 190.626545 173.275044 
L 191.336727 174.049785 
L 192.046909 175.022375 
L 192.757091 172.18494 
L 193.467273 172.626883 
L 194.177455 173.279536 
L 194.887636 172.63652 
L 195.597818 176.333927 
L 196.308 178.543113 
L 197.018182 178.93966 
L 197.728364 181.842967 
L 198.438545 178.152919 
L 199.148727 178.281125 
L 199.858909 180.154331 
L 200.569091 182.566599 
L 201.279273 177.597282 
L 201.989455 175.51253 
L 202.699636 171.405237 
L 203.409818 172.692223 
L 204.12 169.818572 
L 204.830182 166.29457 
L 205.540364 165.810627 
L 206.250545 166.532311 
L 206.960727 169.813601 
L 207.670909 165.852604 
L 208.381091 167.916841 
L 209.091273 173.125231 
L 209.801455 170.409705 
L 210.511636 168.711764 
L 211.221818 162.699525 
L 211.932 162.394989 
L 212.642182 160.779767 
L 213.352364 162.50013 
L 214.062545 162.214738 
L 215.482909 156.963905 
L 216.193091 155.706016 
L 216.903273 152.254582 
L 217.613455 151.857588 
L 218.323636 151.236862 
L 219.033818 153.856752 
L 219.744 152.275897 
L 220.454182 149.526223 
L 221.164364 155.320207 
L 221.874545 156.787014 
L 222.584727 156.470705 
L 223.294909 159.809099 
L 224.005091 158.820601 
L 224.715273 159.261078 
L 225.425455 163.706938 
L 226.135636 166.616651 
L 227.556 159.783238 
L 228.266182 161.03012 
L 229.686545 160.924126 
L 231.106909 158.857615 
L 231.817091 159.993895 
L 232.527273 157.783845 
L 233.237455 160.269406 
L 233.947636 159.668278 
L 234.657818 160.607866 
L 235.368 165.565418 
L 236.078182 165.365614 
L 236.788364 172.531287 
L 237.498545 174.577517 
L 238.208727 172.713496 
L 238.918909 175.880485 
L 240.339273 175.036175 
L 241.049455 179.519392 
L 241.759636 180.020217 
L 242.469818 184.952356 
L 243.18 183.550885 
L 243.890182 184.234011 
L 244.600364 184.315689 
L 245.310545 184.092585 
L 246.020727 181.817806 
L 246.730909 183.553866 
L 247.441091 182.3997 
L 248.861455 178.040551 
L 249.571636 180.397792 
L 250.281818 180.129839 
L 250.992 176.017357 
L 251.702182 175.966478 
L 252.412364 176.211316 
L 253.122545 175.286042 
L 254.542909 187.536477 
L 255.253091 188.464902 
L 255.963273 190.921421 
L 256.673455 191.335435 
L 257.383636 192.388882 
L 258.093818 190.840791 
L 258.804 191.535707 
L 259.514182 190.429445 
L 260.224364 192.744485 
L 260.934545 193.904397 
L 261.644727 197.870603 
L 262.354909 197.872338 
L 263.065091 198.568174 
L 263.775273 197.619291 
L 264.485455 198.844151 
L 265.195636 198.578124 
L 265.905818 196.404842 
L 266.616 196.215389 
L 267.326182 197.085511 
L 268.036364 198.641045 
L 268.746545 197.597862 
L 269.456727 198.096928 
L 270.166909 196.266784 
L 270.877091 195.525615 
L 271.587273 197.659814 
L 272.297455 199.082781 
L 273.007636 201.774015 
L 273.717818 197.383156 
L 274.428 201.314583 
L 275.138182 200.189485 
L 275.848364 198.259789 
L 276.558545 197.761071 
L 277.268727 197.115139 
L 277.978909 193.513023 
L 278.689091 192.413357 
L 279.399273 195.865853 
L 280.109455 192.114041 
L 280.819636 193.146904 
L 281.529818 194.624155 
L 282.24 198.674259 
L 282.950182 196.061493 
L 283.660364 196.089379 
L 284.370545 198.871355 
L 285.080727 199.374848 
L 285.790909 200.573424 
L 286.501091 199.025527 
L 287.211273 202.000394 
L 287.921455 199.941938 
L 288.631636 196.831556 
L 289.341818 195.740785 
L 290.052 197.168962 
L 290.762182 201.874421 
L 291.472364 201.682049 
L 292.182545 203.537223 
L 293.602909 208.32244 
L 294.313091 208.611725 
L 295.023273 209.170258 
L 296.443636 213.79038 
L 297.153818 215.385069 
L 297.864 216.125825 
L 298.574182 210.968068 
L 299.284364 208.525773 
L 299.994545 206.547512 
L 300.704727 207.504037 
L 301.414909 207.35538 
L 302.125091 202.805872 
L 302.835273 200.938859 
L 303.545455 198.61479 
L 304.255636 196.772576 
L 304.965818 196.440585 
L 305.676 196.384008 
L 306.386182 196.765555 
L 307.096364 193.752882 
L 307.806545 196.106664 
L 308.516727 194.595976 
L 309.226909 193.901741 
L 309.937091 194.225988 
L 310.647273 189.001525 
L 311.357455 187.390355 
L 312.067636 188.98176 
L 312.777818 187.841196 
L 314.198182 196.945057 
L 315.618545 187.150215 
L 316.328727 185.037211 
L 317.038909 185.241316 
L 317.749091 184.418458 
L 318.459273 184.754162 
L 319.169455 186.64287 
L 319.879636 183.605844 
L 320.589818 183.093565 
L 321.3 181.966284 
L 322.010182 186.845753 
L 322.720364 184.419556 
L 323.430545 187.810761 
L 324.140727 189.191358 
L 324.850909 188.752136 
L 325.561091 188.50443 
L 326.271273 185.384983 
L 326.981455 187.466773 
L 327.691636 182.792234 
L 328.401818 185.883132 
L 329.112 186.875037 
L 329.822182 183.397478 
L 330.532364 182.669075 
L 331.242545 179.591094 
L 331.952727 180.249725 
L 332.662909 181.912508 
L 333.373091 185.178099 
L 334.083273 191.782195 
L 334.793455 188.688925 
L 335.503636 192.704542 
L 336.213818 193.894159 
L 336.924 198.881278 
L 337.634182 199.907161 
L 338.344364 200.694047 
L 339.054545 201.207127 
L 339.764727 200.793919 
L 340.474909 199.819389 
L 341.185091 199.10614 
L 341.895273 201.00753 
L 342.605455 202.3761 
L 343.315636 203.242616 
L 344.025818 203.761142 
L 344.736 205.326235 
L 345.446182 205.483023 
L 346.156364 204.364192 
L 346.866545 201.02761 
L 347.576727 203.36023 
L 348.286909 202.71257 
L 348.997091 206.450689 
L 349.707273 205.767194 
L 350.417455 208.442474 
L 351.837818 215.159369 
L 352.548 214.008015 
L 353.258182 218.241299 
L 353.968364 219.344126 
L 354.678545 223.490983 
L 355.388727 223.867773 
L 356.098909 221.32948 
L 356.809091 220.352575 
L 357.519273 215.505754 
L 358.229455 219.606157 
L 359.649818 214.379493 
L 360.36 214.945231 
L 361.070182 214.408707 
L 361.780364 217.431241 
L 362.490545 218.628949 
L 363.200727 224.747629 
L 363.910909 223.517108 
L 364.621091 222.805746 
L 365.331273 224.900649 
L 366.041455 223.149394 
L 366.751636 221.985375 
L 367.461818 222.407027 
L 368.172 223.102729 
L 368.882182 225.465029 
L 369.592364 224.971184 
L 370.302545 222.817951 
L 371.012727 223.869379 
L 371.722909 226.592728 
L 372.433091 227.687875 
L 373.143273 227.95992 
L 373.853455 229.3565 
L 374.563636 230.464668 
L 375.273818 237.384239 
L 375.984 236.607049 
L 376.694182 236.338141 
L 377.404364 238.752083 
L 378.114545 244.561804 
L 378.824727 246.043054 
L 379.534909 248.988778 
L 380.245091 247.589456 
L 380.955273 245.499077 
L 381.665455 245.667838 
L 382.375636 244.781845 
L 383.796 246.46838 
L 384.506182 244.473658 
L 385.216364 239.744682 
L 385.926545 240.67429 
L 387.346909 235.619946 
L 388.057091 235.960098 
L 389.477455 232.01745 
L 390.187636 232.149369 
L 390.897818 236.672582 
L 391.608 238.070954 
L 392.318182 237.960771 
L 393.028364 236.693081 
L 394.448727 231.711646 
L 395.158909 234.805218 
L 395.869091 237.065579 
L 397.289455 242.815864 
L 397.999636 243.73527 
L 398.709818 241.566188 
L 399.42 241.69252 
L 400.130182 238.794935 
L 400.840364 240.119059 
L 401.550545 241.105773 
L 402.260727 238.016637 
L 402.970909 239.266767 
L 403.681091 238.520722 
L 404.391273 238.584116 
L 405.101455 240.730094 
L 405.811636 241.950757 
L 407.232 239.373261 
L 407.942182 242.419003 
L 408.652364 246.678212 
L 409.362545 246.007941 
L 410.072727 243.790223 
L 410.782909 243.013659 
L 411.493091 247.263069 
L 412.203273 248.11903 
L 412.913455 247.939201 
L 413.623636 242.670721 
L 414.333818 245.138212 
L 415.754182 238.8903 
L 416.464364 238.338624 
L 417.174545 240.695873 
L 418.594909 247.182969 
L 419.305091 243.65013 
L 420.015273 244.928763 
L 420.725455 243.306733 
L 421.435636 244.735415 
L 422.145818 249.443527 
L 422.856 248.221615 
L 423.566182 249.11402 
L 424.276364 248.497785 
L 424.986545 247.550007 
L 425.696727 251.905297 
L 426.406909 252.20234 
L 427.117091 253.663906 
L 427.827273 253.232276 
L 428.537455 252.000438 
L 429.247636 247.386041 
L 429.957818 248.10977 
L 430.668 251.297774 
L 431.378182 252.021211 
L 432.088364 252.253848 
L 432.798545 247.703893 
L 433.508727 248.250133 
L 434.929091 242.797175 
L 435.639273 244.399821 
L 436.349455 245.609778 
L 437.059636 243.705065 
L 437.769818 247.823384 
L 438.48 245.288795 
L 439.190182 244.124575 
L 439.900364 246.844442 
L 440.610545 246.699779 
L 441.320727 246.168589 
L 442.030909 244.502359 
L 442.741091 245.176747 
L 443.451273 244.606335 
L 444.871636 245.561266 
L 445.581818 248.730705 
L 446.292 246.339478 
L 447.002182 247.751159 
L 447.712364 252.798936 
L 448.422545 250.192149 
L 449.132727 253.621878 
L 450.553091 251.912738 
L 451.263273 250.949947 
L 451.973455 249.044669 
L 452.683636 248.395759 
L 453.393818 244.956348 
L 454.104 246.534479 
L 454.814182 247.184386 
L 455.524364 244.046352 
L 456.234545 244.652083 
L 456.944727 241.522785 
L 457.654909 243.886907 
L 458.365091 242.095344 
L 459.075273 238.189625 
L 459.785455 239.614703 
L 460.495636 238.619089 
L 461.916 233.568448 
L 462.626182 233.514185 
L 463.336364 234.289162 
L 464.046545 234.520003 
L 464.756727 238.973263 
L 465.466909 237.944487 
L 466.177091 238.808681 
L 466.887273 242.443456 
L 467.597455 238.888268 
L 468.307636 238.77834 
L 469.017818 238.385291 
L 469.728 236.672802 
L 470.438182 237.301315 
L 471.148364 232.690735 
L 472.568727 229.403587 
L 473.278909 231.314044 
L 473.989091 228.818954 
L 474.699273 232.997554 
L 475.409455 232.183031 
L 476.119636 232.391126 
L 476.829818 234.463107 
L 478.250182 240.292415 
L 478.960364 240.61635 
L 479.670545 239.284764 
L 480.380727 238.408856 
L 481.090909 236.085603 
L 481.801091 235.995177 
L 482.511273 236.929961 
L 483.221455 239.141527 
L 483.931636 232.681181 
L 484.641818 231.445366 
L 485.352 232.915055 
L 486.062182 235.019382 
L 486.772364 236.177683 
L 487.482545 236.992855 
L 488.902909 232.009813 
L 489.613091 232.834893 
L 490.323273 237.176174 
L 491.033455 233.733802 
L 491.743636 231.025491 
L 492.453818 226.420007 
L 493.164 227.754692 
L 493.874182 226.460697 
L 494.584364 229.922836 
L 495.294545 227.815258 
L 496.004727 229.525671 
L 496.714909 229.856258 
L 498.135273 232.558232 
L 498.845455 229.710436 
L 499.555636 229.15241 
L 500.265818 229.47592 
L 500.976 225.73847 
L 502.396364 230.479982 
L 503.106545 230.562603 
L 503.816727 228.134708 
L 504.526909 227.007056 
L 505.237091 229.56857 
L 505.947273 227.040121 
L 506.657455 222.645165 
L 507.367636 219.46568 
L 508.077818 218.056128 
L 508.788 214.935151 
L 509.498182 215.002071 
L 510.208364 215.298915 
L 510.918545 214.768057 
L 511.628727 217.701131 
L 512.338909 218.651039 
L 513.049091 215.445039 
L 513.759273 209.917084 
L 514.469455 208.132011 
L 515.179636 207.20589 
L 515.889818 208.638003 
L 516.6 208.992977 
L 517.310182 213.044224 
L 518.020364 213.206112 
L 518.730545 211.492741 
L 519.440727 208.330515 
L 520.150909 209.438522 
L 520.861091 209.55384 
L 521.571273 206.960343 
L 522.281455 209.702692 
L 522.991636 205.341965 
L 523.701818 205.058278 
L 524.412 201.970118 
L 525.122182 204.984983 
L 525.832364 204.007925 
L 526.542545 205.51882 
L 527.252727 204.860923 
L 527.962909 207.075338 
L 528.673091 212.940407 
L 529.383273 216.801501 
L 530.093455 215.5237 
L 530.803636 215.645379 
L 531.513818 215.915223 
L 532.224 218.077203 
L 532.934182 218.548648 
L 533.644364 220.748309 
L 534.354545 216.966165 
L 535.774909 216.533818 
L 536.485091 216.925339 
L 537.195273 216.517737 
L 537.905455 214.897585 
L 538.615636 218.845623 
L 539.325818 219.865326 
L 540.036 216.519406 
L 540.746182 216.347575 
L 541.456364 214.099464 
L 542.166545 213.045529 
L 542.876727 209.023753 
L 543.586909 207.795754 
L 545.007273 206.895393 
L 545.717455 206.749255 
L 546.427636 208.116772 
L 547.137818 209.743071 
L 547.848 210.082439 
L 548.558182 209.922065 
L 549.268364 212.681126 
L 549.978545 207.731275 
L 550.688727 211.461161 
L 551.398909 213.404816 
L 552.109091 219.203319 
L 552.819273 216.486642 
L 553.529455 216.627364 
L 554.239636 216.477386 
L 554.949818 219.234474 
L 555.66 213.621367 
L 556.370182 214.900652 
L 557.080364 219.213607 
L 559.210909 213.265279 
L 559.921091 213.778376 
L 560.631273 209.783357 
L 561.341455 211.03553 
L 562.051636 209.039123 
L 562.761818 211.874051 
L 563.472 212.338017 
L 564.182182 208.986669 
L 564.892364 209.920495 
L 565.602545 207.583551 
L 566.312727 209.139256 
L 567.022909 210.179921 
L 568.443273 212.678629 
L 569.863636 223.634508 
L 570.573818 224.23518 
L 571.994182 231.396111 
L 573.414545 236.712718 
L 574.124727 240.312345 
L 574.834909 237.028201 
L 575.545091 237.37098 
L 576.255273 238.790126 
L 576.965455 234.702923 
L 577.675636 232.702738 
L 578.385818 231.167691 
L 579.096 232.142178 
L 579.806182 230.979803 
L 580.516364 231.609327 
L 581.226545 229.28749 
L 581.936727 228.150287 
L 582.646909 227.533597 
L 583.357091 230.528754 
L 584.067273 229.694479 
L 584.777455 226.561553 
L 585.487636 226.837165 
L 586.197818 229.17726 
L 586.908 228.676947 
L 587.618182 229.041376 
L 588.328364 228.496196 
L 589.038545 230.546281 
L 589.748727 229.444113 
L 590.458909 233.528191 
L 591.169091 233.612419 
L 591.879273 230.288498 
L 592.589455 230.347381 
L 593.299636 231.531935 
L 594.009818 231.002274 
L 594.72 227.457543 
L 595.430182 225.232132 
L 596.140364 224.149364 
L 596.850545 224.130168 
L 597.560727 223.354536 
L 598.270909 226.117893 
L 598.981091 227.661395 
L 599.691273 224.687047 
L 600.401455 227.12097 
L 601.111636 225.455822 
L 601.821818 227.418535 
L 602.532 227.229054 
L 603.242182 233.790849 
L 603.952364 234.773094 
L 604.662545 235.325414 
L 605.372727 237.810183 
L 606.793091 238.353984 
L 608.213455 245.836496 
L 608.923636 239.605223 
L 609.633818 240.502401 
L 610.344 240.19694 
L 611.054182 241.612141 
L 611.764364 236.548949 
L 612.474545 236.252492 
L 613.184727 232.457217 
L 613.894909 229.36319 
L 614.605091 226.950622 
L 615.315273 231.596536 
L 616.025455 233.049626 
L 616.735636 227.018828 
L 617.445818 227.288216 
L 618.156 226.728698 
L 618.866182 229.548673 
L 619.576364 229.876662 
L 620.286545 228.441237 
L 620.996727 228.500716 
L 621.706909 223.581692 
L 623.127273 222.116047 
L 623.837455 220.560005 
L 624.547636 220.544205 
L 625.257818 219.437761 
L 625.968 221.864841 
L 626.678182 225.061205 
L 627.388364 222.893139 
L 628.098545 221.410194 
L 628.808727 222.942225 
L 629.518909 230.224945 
L 630.229091 229.452435 
L 630.939273 227.529387 
L 631.649455 226.377057 
L 633.069818 223.545777 
L 633.78 223.493606 
L 634.490182 218.785114 
L 635.200364 224.115169 
L 635.910545 226.153515 
L 636.620727 225.518692 
L 637.330909 226.534521 
L 638.041091 227.191137 
L 638.751273 226.247212 
L 639.461455 228.995806 
L 640.171636 229.316308 
L 640.881818 227.098527 
L 641.592 227.531588 
L 642.302182 225.03915 
L 643.012364 225.997213 
L 643.722545 225.406885 
L 644.432727 227.17604 
L 645.142909 231.145547 
L 645.853091 230.918182 
L 646.563273 227.069145 
L 647.273455 226.441637 
L 647.983636 223.137585 
L 648.693818 223.80582 
L 649.404 228.32032 
L 650.114182 230.510487 
L 650.824364 233.429275 
L 652.244727 224.806379 
L 652.954909 223.128697 
L 653.665091 222.442387 
L 654.375273 222.962468 
L 655.085455 224.795202 
L 655.795636 223.681395 
L 656.505818 224.175205 
L 657.216 225.811045 
L 658.636364 226.428784 
L 660.056727 228.015215 
L 660.766909 228.049516 
L 661.477091 227.789435 
L 662.187273 229.062598 
L 662.897455 233.586207 
L 663.607636 233.216672 
L 664.317818 234.437324 
L 665.028 242.018773 
L 665.738182 244.709658 
L 666.448364 246.528791 
L 667.158545 246.013019 
L 667.868727 244.78743 
L 668.578909 244.631431 
L 669.289091 246.116994 
L 669.999273 249.324554 
L 670.709455 251.882555 
L 671.419636 251.286597 
L 672.129818 254.580099 
L 672.84 254.867532 
L 673.550182 255.884172 
L 674.970545 251.043409 
L 675.680727 251.551421 
L 676.390909 250.365155 
L 677.101091 247.828662 
L 677.811273 247.476916 
L 678.521455 247.546616 
L 679.231636 248.637872 
L 679.941818 240.387477 
L 680.652 244.950486 
L 681.362182 241.379677 
L 682.072364 241.672864 
L 682.782545 239.190141 
L 683.492727 238.027207 
L 684.202909 233.121273 
L 684.913091 236.643554 
L 685.623273 235.544592 
L 686.333455 237.49911 
L 687.043636 236.468406 
L 687.753818 236.493475 
L 688.464 232.695539 
L 689.174182 229.574499 
L 689.884364 222.990308 
L 690.594545 222.792291 
L 691.304727 224.574874 
L 692.014909 222.219175 
L 692.725091 224.582902 
L 693.435273 222.103338 
L 694.145455 221.073367 
L 694.855636 223.601716 
L 695.565818 220.869721 
L 696.276 216.160963 
L 696.986182 217.415347 
L 697.696364 217.054616 
L 698.406545 216.198155 
L 699.116727 217.960508 
L 699.826909 215.056677 
L 700.537091 218.39017 
L 701.247273 214.628559 
L 701.957455 216.726215 
L 702.667636 217.859973 
L 703.377818 217.548886 
L 704.088 218.160567 
L 706.218545 216.653366 
L 706.928727 214.908681 
L 707.638909 214.998836 
L 708.349091 216.429423 
L 709.059273 212.085697 
L 709.769455 211.382055 
L 710.479636 212.810766 
L 711.189818 215.580016 
L 711.9 216.043328 
L 712.610182 218.751121 
L 713.320364 218.291737 
L 714.030545 218.592485 
L 715.450909 210.772914 
L 716.161091 208.97883 
L 716.871273 205.47254 
L 717.581455 207.841075 
L 718.291636 212.520454 
L 719.001818 219.204492 
L 719.712 218.811095 
L 720.422182 217.287662 
L 721.132364 214.501406 
L 721.842545 215.85778 
L 722.552727 221.629039 
L 723.262909 221.191933 
L 724.683273 211.037111 
L 725.393455 208.967575 
L 726.103636 205.908783 
L 726.813818 207.430875 
L 727.524 207.479858 
L 728.234182 213.278533 
L 728.944364 214.481086 
L 729.654545 217.829566 
L 730.364727 220.047046 
L 731.074909 215.817765 
L 731.785091 216.569251 
L 732.495273 213.924499 
L 733.205455 212.185633 
L 733.915636 213.846507 
L 735.336 214.73045 
L 736.046182 211.363996 
L 736.756364 210.065679 
L 737.466545 214.095095 
L 738.176727 213.522773 
L 738.886909 220.10396 
L 739.597091 220.819932 
L 740.307273 221.924768 
L 741.017455 222.76966 
L 742.437818 219.240433 
L 743.858182 221.336896 
L 744.568364 223.375263 
L 745.988727 217.844661 
L 746.698909 220.013777 
L 747.409091 220.452475 
L 748.119273 217.416014 
L 748.829455 217.106539 
L 749.539636 214.585411 
L 750.249818 217.776739 
L 750.96 216.715185 
L 751.670182 213.765727 
L 752.380364 212.454909 
L 753.090545 211.702011 
L 753.800727 216.132156 
L 754.510909 216.458704 
L 755.221091 212.909569 
L 756.641455 216.471268 
L 757.351636 217.814382 
L 758.772 214.379449 
L 759.482182 213.811001 
L 760.192364 219.564272 
L 760.902545 215.409382 
L 761.612727 218.590058 
L 762.322909 220.775408 
L 763.033091 220.924505 
L 763.743273 222.048768 
L 764.453455 220.373793 
L 765.163636 221.750757 
L 765.873818 224.192988 
L 766.584 223.410413 
L 768.004364 219.127984 
L 768.714545 219.294054 
L 769.424727 217.012042 
L 770.134909 219.53303 
L 770.845091 220.459246 
L 771.555273 216.646668 
L 772.265455 215.662307 
L 772.975636 214.010558 
L 773.685818 213.023515 
L 774.396 215.858518 
L 775.106182 216.842523 
L 775.816364 214.404656 
L 776.526545 218.107343 
L 777.236727 217.047572 
L 777.946909 221.080403 
L 778.657091 217.161518 
L 779.367273 217.609327 
L 780.787636 208.886374 
L 781.497818 204.623409 
L 782.208 202.104134 
L 782.918182 205.143514 
L 783.628364 203.422309 
L 784.338545 203.564717 
L 785.048727 202.880965 
L 785.758909 200.949805 
L 786.469091 205.507816 
L 787.179273 202.703317 
L 787.889455 203.747307 
L 788.599636 203.241354 
L 789.309818 203.326939 
L 790.02 204.58578 
L 791.440364 205.799522 
L 792.150545 205.749881 
L 792.860727 209.862855 
L 793.570909 207.274024 
L 794.281091 206.801901 
L 794.991273 205.887411 
L 795.701455 210.370012 
L 796.411636 204.512141 
L 797.121818 203.884025 
L 797.832 206.125831 
L 798.542182 204.564419 
L 799.252364 207.014885 
L 799.962545 204.947123 
L 800.672727 206.109007 
L 801.382909 201.059263 
L 802.093091 197.335289 
L 802.803273 194.414385 
L 803.513455 189.862767 
L 804.223636 192.815691 
L 804.933818 196.753094 
L 805.644 197.151671 
L 806.354182 194.259944 
L 807.064364 194.76351 
L 807.774545 192.712815 
L 808.484727 194.927428 
L 809.194909 196.207164 
L 809.905091 194.100342 
L 810.615273 193.906999 
L 811.325455 195.176737 
L 812.035636 195.228946 
L 812.745818 190.533618 
L 813.456 196.523935 
L 814.166182 199.002887 
L 814.876364 204.378742 
L 815.586545 205.669953 
L 816.296727 205.180455 
L 817.006909 204.266169 
L 817.717091 204.292009 
L 818.427273 201.795742 
L 819.137455 203.588094 
L 819.847636 204.54314 
L 820.557818 204.96053 
L 821.268 204.551889 
L 821.978182 208.462611 
L 822.688364 208.171967 
L 823.398545 206.557994 
L 824.108727 206.849092 
L 824.818909 210.635119 
L 825.529091 210.109394 
L 826.949455 207.969212 
L 827.659636 205.654933 
L 828.369818 210.315756 
L 829.08 209.923507 
L 830.500364 208.058719 
L 831.210545 201.828937 
L 831.920727 199.973052 
L 832.630909 199.230349 
L 833.341091 199.668427 
L 834.051273 209.15292 
L 834.761455 210.186665 
L 835.471636 206.863893 
L 836.181818 206.363579 
L 836.892 207.648162 
L 837.602182 210.324004 
L 838.312364 209.857255 
L 839.022545 211.659207 
L 839.732727 209.438627 
L 840.442909 210.623409 
L 841.153091 210.574791 
L 841.863273 211.368679 
L 842.573455 209.844254 
L 843.283636 206.455747 
L 843.993818 205.853953 
L 844.704 206.251767 
L 845.414182 207.831189 
L 846.124364 203.724145 
L 846.834545 206.875672 
L 847.544727 205.639826 
L 848.254909 205.827374 
L 848.965091 206.524195 
L 850.385455 201.303365 
L 851.095636 201.795344 
L 851.805818 204.013734 
L 852.516 202.146825 
L 853.226182 199.818557 
L 853.936364 199.697027 
L 854.646545 196.740965 
L 855.356727 197.899646 
L 856.066909 200.095239 
L 857.487273 196.640954 
L 858.197455 201.051805 
L 858.907636 200.876172 
L 860.328 196.352622 
L 861.038182 195.917623 
L 862.458545 191.129102 
L 863.168727 191.260582 
L 863.878909 190.509747 
L 864.589091 191.815506 
L 865.299273 191.578807 
L 866.009455 190.747907 
L 866.719636 187.543237 
L 867.429818 185.869963 
L 868.14 188.214456 
L 868.850182 188.856969 
L 869.560364 190.982441 
L 870.270545 189.655629 
L 870.980727 190.968442 
L 871.690909 190.722793 
L 871.690909 190.722793 
" clip-path="url(#pb4a8a00c19)" style="fill: none; stroke: #1f77b4; stroke-width: 1.5; stroke-linecap: square"/>
   </g>
   <g id="line2d_16">
    <path d="M 161.509091 168.304779 
L 162.219273 169.709015 
L 162.929455 174.237988 
L 163.639636 177.918432 
L 164.349818 178.916722 
L 165.06 182.08446 
L 165.770182 183.558766 
L 166.480364 183.429665 
L 167.190545 188.541537 
L 168.610909 181.311443 
L 169.321091 179.263128 
L 170.031273 171.570325 
L 170.741455 167.538987 
L 171.451636 164.315482 
L 172.161818 159.795386 
L 172.872 160.027496 
L 173.582182 168.255196 
L 174.292364 169.034329 
L 175.002545 172.681741 
L 175.712727 177.246267 
L 176.422909 179.166376 
L 177.133091 178.797836 
L 177.843273 180.14486 
L 178.553455 182.500211 
L 179.263636 179.423022 
L 179.973818 184.658156 
L 180.684 184.676088 
L 181.394182 182.108613 
L 182.104364 181.622342 
L 182.814545 182.027221 
L 183.524727 181.811601 
L 184.234909 180.932774 
L 184.945091 179.802589 
L 185.655273 176.115997 
L 186.365455 179.273734 
L 187.075636 176.180071 
L 187.785818 176.082559 
L 188.496 174.665196 
L 189.206182 173.984212 
L 189.916364 170.302503 
L 190.626545 170.650461 
L 191.336727 172.44366 
L 192.046909 171.664711 
L 192.757091 168.746313 
L 193.467273 167.45447 
L 194.177455 169.611897 
L 194.887636 167.928442 
L 195.597818 171.888972 
L 196.308 177.067321 
L 197.018182 174.597294 
L 197.728364 174.543086 
L 198.438545 171.191228 
L 199.148727 172.384198 
L 199.858909 174.851044 
L 200.569091 178.405723 
L 201.279273 177.271644 
L 201.989455 177.564388 
L 202.699636 176.098961 
L 203.409818 181.545194 
L 204.12 179.914337 
L 204.830182 175.948349 
L 205.540364 176.624258 
L 206.250545 176.619679 
L 206.960727 180.56159 
L 207.670909 179.117249 
L 208.381091 184.182432 
L 209.091273 190.968999 
L 209.801455 189.481992 
L 210.511636 190.429022 
L 211.221818 185.618546 
L 211.932 183.234141 
L 212.642182 179.693328 
L 213.352364 183.257435 
L 214.062545 187.737999 
L 214.772727 188.677423 
L 215.482909 185.811272 
L 216.193091 184.680931 
L 217.613455 181.125067 
L 218.323636 182.984525 
L 219.033818 183.65058 
L 219.744 182.220222 
L 220.454182 177.280473 
L 221.164364 179.909024 
L 221.874545 178.923344 
L 222.584727 183.061852 
L 223.294909 188.287125 
L 224.005091 185.416073 
L 224.715273 185.701599 
L 225.425455 192.270886 
L 226.135636 192.870068 
L 226.845818 187.305534 
L 227.556 184.785446 
L 228.266182 188.662169 
L 228.976364 188.964406 
L 229.686545 186.927335 
L 230.396727 184.508165 
L 231.106909 185.67753 
L 231.817091 192.03615 
L 232.527273 185.443424 
L 233.237455 188.376305 
L 233.947636 185.590698 
L 234.657818 184.174599 
L 235.368 185.941083 
L 236.078182 187.31657 
L 237.498545 199.419415 
L 238.208727 196.457648 
L 238.918909 198.752566 
L 239.629091 194.688718 
L 240.339273 194.861267 
L 241.049455 199.668256 
L 241.759636 200.040613 
L 242.469818 204.975427 
L 243.18 200.636645 
L 243.890182 202.131196 
L 244.600364 203.064881 
L 245.310545 200.565004 
L 246.020727 197.015799 
L 246.730909 199.720053 
L 247.441091 198.538615 
L 248.151273 197.032028 
L 248.861455 195.819644 
L 249.571636 194.054922 
L 250.281818 197.87328 
L 250.992 193.20072 
L 251.702182 193.438439 
L 252.412364 196.103444 
L 253.122545 194.523299 
L 253.832727 198.296107 
L 254.542909 205.767517 
L 255.253091 207.36595 
L 255.963273 211.655869 
L 256.673455 209.277212 
L 257.383636 209.929032 
L 258.093818 212.156979 
L 258.804 211.703756 
L 259.514182 212.320826 
L 260.224364 211.05592 
L 260.934545 208.300148 
L 261.644727 210.039705 
L 262.354909 210.679947 
L 263.065091 210.127301 
L 263.775273 209.840918 
L 264.485455 214.800808 
L 265.195636 213.787371 
L 265.905818 211.822194 
L 266.616 211.259077 
L 267.326182 209.931144 
L 268.036364 209.66747 
L 268.746545 206.222167 
L 269.456727 207.955807 
L 270.166909 205.835165 
L 270.877091 205.438921 
L 273.007636 215.370886 
L 273.717818 211.726666 
L 274.428 215.338498 
L 275.138182 215.36085 
L 275.848364 216.897616 
L 276.558545 218.149681 
L 277.268727 218.738267 
L 277.978909 215.583414 
L 278.689091 213.047085 
L 279.399273 216.724481 
L 280.109455 212.568158 
L 281.529818 214.766585 
L 282.24 217.673124 
L 282.950182 216.060192 
L 283.660364 216.087092 
L 284.370545 217.306233 
L 285.080727 216.624787 
L 285.790909 212.724612 
L 286.501091 211.738114 
L 287.211273 214.491611 
L 287.921455 213.641051 
L 288.631636 212.023194 
L 289.341818 213.173826 
L 290.052 215.920321 
L 290.762182 219.770941 
L 291.472364 220.253844 
L 292.182545 226.60281 
L 292.892727 230.236819 
L 293.602909 229.586946 
L 294.313091 234.629983 
L 295.023273 235.998972 
L 295.733455 238.249339 
L 296.443636 242.058718 
L 297.153818 239.901735 
L 298.574182 241.166157 
L 299.284364 238.926469 
L 299.994545 233.837466 
L 300.704727 237.103126 
L 301.414909 237.398107 
L 302.125091 235.593469 
L 302.835273 235.655401 
L 303.545455 236.530976 
L 304.255636 231.573806 
L 304.965818 231.58359 
L 305.676 231.476612 
L 306.386182 226.698429 
L 307.096364 223.243039 
L 307.806545 225.470946 
L 308.516727 221.508329 
L 309.226909 222.378898 
L 309.937091 224.249182 
L 310.647273 220.319418 
L 311.357455 219.419895 
L 312.067636 217.958306 
L 312.777818 220.734477 
L 313.488 225.399167 
L 314.198182 232.718454 
L 314.908364 225.719042 
L 315.618545 220.397333 
L 316.328727 218.436042 
L 317.038909 219.367802 
L 317.749091 224.080644 
L 318.459273 220.209759 
L 319.169455 221.140945 
L 319.879636 220.308769 
L 320.589818 216.559345 
L 321.3 217.220317 
L 322.010182 218.714693 
L 322.720364 214.781949 
L 323.430545 218.619968 
L 324.140727 217.408831 
L 324.850909 215.280141 
L 325.561091 211.726384 
L 326.271273 211.301167 
L 326.981455 214.83253 
L 327.691636 210.680857 
L 328.401818 215.30287 
L 329.112 215.259193 
L 329.822182 211.749495 
L 330.532364 210.319894 
L 331.242545 202.203642 
L 332.662909 208.447708 
L 333.373091 210.52645 
L 334.083273 218.60442 
L 334.793455 214.583529 
L 335.503636 218.894797 
L 336.213818 217.254524 
L 336.924 222.945053 
L 337.634182 223.805364 
L 338.344364 222.709074 
L 339.764727 218.199673 
L 340.474909 214.994914 
L 341.185091 216.69446 
L 341.895273 217.956262 
L 342.605455 217.950845 
L 343.315636 221.245452 
L 344.025818 222.954188 
L 344.736 228.285007 
L 345.446182 228.678375 
L 346.156364 228.652276 
L 346.866545 223.956066 
L 347.576727 226.188322 
L 348.286909 229.671989 
L 348.997091 229.536542 
L 349.707273 228.324453 
L 350.417455 233.885748 
L 351.837818 235.389265 
L 353.258182 243.449657 
L 353.968364 239.73006 
L 354.678545 238.820765 
L 355.388727 237.705439 
L 356.098909 232.542155 
L 356.809091 235.231094 
L 357.519273 225.837709 
L 358.229455 228.029468 
L 358.939636 225.679052 
L 359.649818 228.965691 
L 360.36 231.403126 
L 361.070182 225.539839 
L 361.780364 230.902453 
L 362.490545 233.275484 
L 363.200727 239.429931 
L 363.910909 235.636087 
L 364.621091 233.89209 
L 365.331273 234.36431 
L 366.041455 232.964104 
L 366.751636 236.605552 
L 367.461818 234.636289 
L 368.172 237.412526 
L 368.882182 237.468217 
L 369.592364 239.116845 
L 370.302545 233.777139 
L 371.012727 233.180012 
L 371.722909 235.726971 
L 372.433091 236.219235 
L 373.143273 238.702118 
L 374.563636 238.201649 
L 375.273818 248.315687 
L 375.984 251.25391 
L 376.694182 249.004124 
L 377.404364 253.480351 
L 378.114545 259.328043 
L 378.824727 263.124797 
L 379.534909 265.492655 
L 380.245091 264.608244 
L 380.955273 261.399671 
L 381.665455 256.903077 
L 382.375636 261.261555 
L 383.085818 256.80343 
L 383.796 256.030103 
L 384.506182 253.048959 
L 385.216364 251.77576 
L 385.926545 253.347716 
L 386.636727 248.660799 
L 387.346909 249.920621 
L 388.057091 248.624663 
L 388.767273 243.471542 
L 389.477455 239.799065 
L 390.187636 239.714185 
L 390.897818 242.833684 
L 391.608 242.618291 
L 392.318182 245.780296 
L 393.028364 250.330125 
L 393.738545 253.251154 
L 394.448727 248.259084 
L 395.158909 250.893332 
L 395.869091 254.200876 
L 396.579273 261.374203 
L 397.289455 261.651687 
L 397.999636 260.941483 
L 398.709818 258.876414 
L 399.42 264.086561 
L 400.130182 260.463204 
L 400.840364 261.336557 
L 401.550545 267.572851 
L 402.260727 266.656342 
L 402.970909 266.990521 
L 403.681091 268.557483 
L 404.391273 270.68478 
L 405.811636 275.326783 
L 406.521818 273.922919 
L 407.232 267.92188 
L 407.942182 267.817502 
L 408.652364 272.62849 
L 409.362545 272.582658 
L 410.072727 269.388794 
L 410.782909 269.728114 
L 411.493091 276.520386 
L 412.203273 277.481351 
L 412.913455 276.788723 
L 413.623636 271.279731 
L 414.333818 270.38934 
L 415.044 266.138567 
L 415.754182 260.706402 
L 416.464364 261.637293 
L 417.884727 260.621308 
L 418.594909 260.057353 
L 419.305091 255.072255 
L 420.015273 257.457359 
L 420.725455 252.278295 
L 421.435636 253.565715 
L 422.145818 261.544817 
L 422.856 263.975357 
L 423.566182 264.21275 
L 424.276364 258.694117 
L 424.986545 260.025652 
L 425.696727 265.985803 
L 426.406909 268.543701 
L 427.117091 271.936343 
L 427.827273 271.141569 
L 429.247636 264.796866 
L 429.957818 264.735424 
L 430.668 271.020748 
L 431.378182 269.599122 
L 432.088364 269.398065 
L 432.798545 269.640186 
L 433.508727 276.747969 
L 434.218909 274.396305 
L 434.929091 276.065773 
L 435.639273 276.390756 
L 436.349455 277.359107 
L 437.059636 276.288433 
L 437.769818 276.6275 
L 438.48 274.153855 
L 439.190182 270.872398 
L 440.610545 275.589361 
L 441.320727 275.814539 
L 442.030909 275.841462 
L 442.741091 276.478141 
L 443.451273 276.807682 
L 444.161455 276.630462 
L 444.871636 277.104138 
L 445.581818 286.465395 
L 446.292 286.376126 
L 447.002182 290.925881 
L 447.712364 293.854389 
L 448.422545 290.217677 
L 449.132727 292.653464 
L 449.842909 293.295163 
L 450.553091 294.124485 
L 451.263273 294.073356 
L 451.973455 297.32162 
L 452.683636 299.382244 
L 453.393818 296.604254 
L 454.104 298.505342 
L 454.814182 297.640534 
L 455.524364 298.367579 
L 456.234545 301.936919 
L 456.944727 306.251897 
L 457.654909 308.982765 
L 458.365091 307.71566 
L 459.075273 301.447931 
L 460.495636 308.30623 
L 461.205818 306.529845 
L 461.916 305.405574 
L 462.626182 305.869074 
L 463.336364 311.513629 
L 464.046545 314.732519 
L 464.756727 319.582442 
L 465.466909 319.84912 
L 466.177091 319.264116 
L 466.887273 320.715979 
L 467.597455 319.05865 
L 468.307636 319.777431 
L 469.017818 318.974392 
L 469.728 316.476836 
L 470.438182 315.705861 
L 471.148364 314.505484 
L 471.858545 314.796286 
L 472.568727 315.266398 
L 473.278909 319.27167 
L 473.989091 315.27501 
L 474.699273 314.058673 
L 475.409455 310.770439 
L 476.119636 312.013343 
L 476.829818 315.421281 
L 477.54 326.859419 
L 478.250182 334.695851 
L 478.960364 334.751601 
L 479.670545 338.28359 
L 480.380727 335.454983 
L 481.090909 340.674504 
L 482.511273 344.717627 
L 483.221455 351.940265 
L 483.931636 346.495173 
L 484.641818 344.727017 
L 486.772364 348.308084 
L 488.192727 347.059409 
L 488.902909 346.091924 
L 489.613091 344.37514 
L 490.323273 350.547658 
L 491.033455 349.383932 
L 491.743636 347.749945 
L 492.453818 345.021147 
L 493.874182 352.213326 
L 494.584364 354.389862 
L 495.294545 351.558154 
L 496.004727 353.561221 
L 496.714909 358.782359 
L 497.425091 363.022766 
L 498.135273 369.36 
L 498.845455 364.961812 
L 499.555636 361.376932 
L 500.265818 359.592878 
L 500.976 356.647802 
L 501.686182 361.887514 
L 502.396364 360.256604 
L 503.816727 352.511872 
L 505.237091 357.875964 
L 505.947273 356.136992 
L 506.657455 357.210512 
L 507.367636 347.188633 
L 508.077818 347.905323 
L 508.788 342.855977 
L 509.498182 340.847071 
L 510.208364 339.902689 
L 511.628727 347.64887 
L 512.338909 347.729921 
L 513.049091 344.208303 
L 513.759273 337.045188 
L 514.469455 333.82902 
L 515.179636 326.896775 
L 515.889818 328.137075 
L 516.6 326.49537 
L 517.310182 331.560131 
L 518.020364 332.11593 
L 518.730545 328.996259 
L 519.440727 324.789305 
L 520.150909 325.31164 
L 520.861091 332.307331 
L 521.571273 327.325756 
L 522.281455 328.76928 
L 522.991636 320.804197 
L 523.701818 320.7615 
L 524.412 315.429368 
L 525.122182 317.405231 
L 525.832364 316.081291 
L 526.542545 318.030836 
L 527.252727 318.759081 
L 527.962909 321.919245 
L 529.383273 330.7749 
L 530.093455 334.015412 
L 530.803636 334.81122 
L 531.513818 331.051888 
L 532.934182 335.295181 
L 533.644364 340.948648 
L 535.064727 333.94725 
L 535.774909 334.977193 
L 536.485091 332.676024 
L 537.195273 331.125878 
L 537.905455 327.091791 
L 538.615636 330.038372 
L 539.325818 327.019194 
L 540.036 325.307523 
L 540.746182 324.719841 
L 541.456364 319.942509 
L 542.166545 320.158561 
L 542.876727 319.441311 
L 543.586909 317.561276 
L 544.297091 312.735558 
L 545.007273 314.599572 
L 545.717455 312.879146 
L 546.427636 314.694124 
L 547.137818 313.128942 
L 547.848 306.47784 
L 549.268364 313.226559 
L 549.978545 304.051891 
L 550.688727 312.157122 
L 551.398909 312.481946 
L 552.109091 317.254723 
L 552.819273 314.25183 
L 553.529455 310.594843 
L 554.239636 306.13083 
L 554.949818 306.763432 
L 555.66 300.128155 
L 556.370182 304.577883 
L 557.080364 313.080433 
L 557.790545 312.939107 
L 558.500727 307.552194 
L 559.210909 305.354503 
L 559.921091 304.894901 
L 560.631273 299.108095 
L 561.341455 299.598449 
L 562.051636 294.545901 
L 562.761818 299.335991 
L 563.472 297.355135 
L 564.182182 297.453309 
L 564.892364 294.44624 
L 565.602545 290.834221 
L 566.312727 290.481963 
L 567.022909 291.73577 
L 567.733091 297.695691 
L 568.443273 301.794322 
L 569.153455 303.609149 
L 569.863636 312.111736 
L 570.573818 309.762188 
L 571.994182 319.736688 
L 572.704364 325.488879 
L 573.414545 329.901144 
L 574.124727 333.194064 
L 574.834909 331.110538 
L 575.545091 329.589253 
L 576.965455 327.754001 
L 578.385818 320.618159 
L 579.096 320.917828 
L 580.516364 317.502395 
L 581.226545 310.667959 
L 581.936727 309.026179 
L 582.646909 306.465375 
L 583.357091 313.274096 
L 584.067273 312.088348 
L 584.777455 312.779037 
L 585.487636 311.110916 
L 586.197818 316.102891 
L 586.908 315.239664 
L 587.618182 313.828238 
L 588.328364 311.448293 
L 589.038545 314.21472 
L 589.748727 310.910614 
L 591.169091 316.259077 
L 591.879273 317.858737 
L 592.589455 317.606144 
L 593.299636 322.572366 
L 594.009818 323.996292 
L 594.72 324.143801 
L 595.430182 322.026614 
L 596.140364 320.549776 
L 596.850545 319.76062 
L 597.560727 318.420069 
L 598.270909 317.696261 
L 598.981091 320.2637 
L 599.691273 318.053914 
L 600.401455 321.421509 
L 601.111636 321.018726 
L 601.821818 324.213059 
L 602.532 321.362711 
L 603.242182 327.670144 
L 603.952364 330.182381 
L 604.662545 328.576454 
L 605.372727 336.907963 
L 606.082909 339.130029 
L 606.793091 338.043168 
L 607.503273 340.363523 
L 608.213455 346.047593 
L 608.923636 337.245737 
L 609.633818 339.886184 
L 610.344 341.711338 
L 611.054182 342.451879 
L 611.764364 335.503253 
L 612.474545 334.604328 
L 613.184727 329.762147 
L 613.894909 326.797636 
L 614.605091 324.379202 
L 615.315273 332.192964 
L 616.025455 336.727414 
L 616.735636 332.554687 
L 617.445818 329.79529 
L 618.156 330.547203 
L 618.866182 329.760713 
L 619.576364 334.960847 
L 620.286545 330.258865 
L 620.996727 333.648235 
L 621.706909 328.720863 
L 622.417091 328.847602 
L 623.127273 327.671391 
L 623.837455 326.999826 
L 624.547636 326.094991 
L 625.257818 325.797279 
L 625.968 328.480613 
L 626.678182 325.736186 
L 627.388364 320.383124 
L 628.098545 320.084531 
L 628.808727 321.734065 
L 629.518909 332.906922 
L 630.229091 328.249277 
L 630.939273 326.03247 
L 631.649455 319.924879 
L 632.359636 320.579186 
L 633.069818 316.423665 
L 633.78 314.842494 
L 634.490182 313.648931 
L 635.200364 320.328986 
L 635.910545 320.338492 
L 636.620727 316.816618 
L 637.330909 319.892236 
L 638.041091 317.575559 
L 638.751273 311.619979 
L 639.461455 312.326204 
L 640.171636 314.617785 
L 640.881818 311.633285 
L 641.592 310.345269 
L 642.302182 308.798512 
L 643.012364 309.159137 
L 643.722545 307.391538 
L 644.432727 310.382048 
L 645.142909 310.698616 
L 645.853091 311.813493 
L 646.563273 311.1181 
L 647.983636 304.945124 
L 648.693818 311.391942 
L 649.404 314.024182 
L 650.114182 314.419498 
L 650.824364 316.650402 
L 651.534545 313.21485 
L 652.244727 309.074081 
L 652.954909 312.910596 
L 653.665091 311.131773 
L 654.375273 312.15225 
L 655.085455 312.516698 
L 655.795636 308.978282 
L 656.505818 309.633717 
L 657.216 309.18522 
L 657.926182 312.170746 
L 658.636364 310.605671 
L 659.346545 310.32598 
L 660.056727 308.180619 
L 660.766909 311.072363 
L 661.477091 312.808199 
L 662.187273 310.855822 
L 662.897455 314.768158 
L 663.607636 311.010448 
L 664.317818 317.632102 
L 665.028 326.268252 
L 665.738182 329.485597 
L 666.448364 334.579157 
L 667.158545 336.597925 
L 667.868727 337.424724 
L 668.578909 335.559604 
L 669.289091 331.267246 
L 669.999273 329.843799 
L 670.709455 333.080061 
L 671.419636 331.170773 
L 672.129818 341.60292 
L 672.84 344.642228 
L 673.550182 346.879433 
L 674.260364 344.287236 
L 674.970545 341.004977 
L 675.680727 342.737986 
L 676.390909 340.350041 
L 677.101091 338.911021 
L 677.811273 338.491668 
L 678.521455 340.614262 
L 679.231636 343.638754 
L 679.941818 337.08042 
L 680.652 344.123662 
L 681.362182 340.022082 
L 682.072364 339.597366 
L 682.782545 339.367371 
L 683.492727 338.966132 
L 684.202909 333.079682 
L 684.913091 334.689161 
L 685.623273 335.352745 
L 686.333455 337.755416 
L 687.043636 338.374684 
L 687.753818 338.744536 
L 689.174182 329.817636 
L 689.884364 321.696039 
L 690.594545 322.55584 
L 691.304727 326.844218 
L 692.014909 324.40397 
L 692.725091 322.600952 
L 693.435273 322.588114 
L 694.145455 320.153607 
L 694.855636 321.978154 
L 696.276 316.926917 
L 696.986182 317.669425 
L 697.696364 314.654305 
L 698.406545 310.018749 
L 699.116727 312.897797 
L 699.826909 312.073196 
L 700.537091 313.844908 
L 701.247273 312.290927 
L 702.667636 322.786758 
L 703.377818 315.390646 
L 704.088 313.244632 
L 704.798182 315.348009 
L 705.508364 314.135043 
L 706.218545 312.301504 
L 706.928727 313.679567 
L 707.638909 309.882179 
L 708.349091 312.135488 
L 709.059273 308.845923 
L 709.769455 309.035312 
L 710.479636 307.473054 
L 711.189818 309.555896 
L 712.610182 316.992514 
L 713.320364 317.340813 
L 714.030545 314.441145 
L 714.740727 312.923441 
L 715.450909 311.927949 
L 716.161091 312.140015 
L 716.871273 307.289362 
L 717.581455 304.417536 
L 719.001818 313.702687 
L 719.712 312.433875 
L 720.422182 316.404304 
L 721.132364 314.43018 
L 721.842545 314.983567 
L 722.552727 321.75422 
L 723.973091 315.381787 
L 724.683273 310.967024 
L 725.393455 315.718645 
L 726.103636 317.585577 
L 726.813818 316.767733 
L 727.524 313.807994 
L 728.234182 319.504312 
L 729.654545 327.710843 
L 730.364727 329.119357 
L 731.785091 322.449399 
L 732.495273 317.520256 
L 733.205455 317.717723 
L 733.915636 318.064611 
L 734.625818 315.931636 
L 736.046182 314.651664 
L 736.756364 313.097071 
L 737.466545 315.014677 
L 738.176727 315.78877 
L 738.886909 320.446548 
L 739.597091 316.51078 
L 740.307273 316.973119 
L 741.017455 313.687066 
L 741.727636 312.588448 
L 742.437818 308.586225 
L 743.148 303.488695 
L 743.858182 304.7639 
L 744.568364 304.7892 
L 745.278545 302.242674 
L 745.988727 301.302969 
L 746.698909 303.453624 
L 747.409091 305.055986 
L 748.119273 303.140178 
L 748.829455 293.315203 
L 749.539636 291.962495 
L 750.249818 295.959731 
L 750.96 293.129191 
L 751.670182 295.048376 
L 752.380364 289.873807 
L 753.090545 288.414507 
L 753.800727 296.236036 
L 754.510909 295.631663 
L 755.221091 290.83372 
L 755.931273 291.659347 
L 757.351636 297.571628 
L 758.061818 291.89788 
L 758.772 290.305382 
L 759.482182 293.587781 
L 760.192364 300.650236 
L 760.902545 299.157874 
L 761.612727 306.320749 
L 762.322909 307.103534 
L 763.033091 304.401702 
L 763.743273 305.299829 
L 764.453455 298.223703 
L 765.163636 293.751624 
L 766.584 291.003932 
L 767.294182 287.325182 
L 768.004364 287.651835 
L 768.714545 287.120925 
L 770.134909 282.398579 
L 770.845091 282.980723 
L 771.555273 278.840216 
L 772.265455 280.247793 
L 772.975636 280.225809 
L 773.685818 281.531303 
L 774.396 284.247932 
L 775.106182 284.312221 
L 775.816364 279.959228 
L 776.526545 277.291305 
L 777.946909 285.289923 
L 778.657091 279.781332 
L 779.367273 279.913362 
L 780.077455 275.889763 
L 780.787636 272.839165 
L 782.208 264.493952 
L 782.918182 267.669935 
L 783.628364 266.06537 
L 784.338545 267.748604 
L 785.048727 264.605092 
L 785.758909 263.555154 
L 786.469091 266.215435 
L 787.179273 259.474294 
L 787.889455 261.331374 
L 788.599636 264.441931 
L 789.309818 260.1457 
L 790.02 260.796316 
L 790.730182 258.98573 
L 792.150545 257.236181 
L 792.860727 261.024066 
L 793.570909 257.765833 
L 794.281091 258.568013 
L 794.991273 260.263809 
L 795.701455 269.102792 
L 796.411636 264.115875 
L 797.121818 264.272745 
L 797.832 267.1809 
L 798.542182 266.907533 
L 799.252364 274.366571 
L 799.962545 274.368163 
L 800.672727 281.23624 
L 801.382909 277.623904 
L 802.803273 266.246701 
L 803.513455 263.243637 
L 804.223636 264.348859 
L 804.933818 263.490681 
L 805.644 260.728616 
L 806.354182 255.918181 
L 807.064364 252.985351 
L 807.774545 249.030562 
L 808.484727 248.647155 
L 809.905091 250.853501 
L 810.615273 249.261604 
L 811.325455 252.293168 
L 812.035636 250.200461 
L 812.745818 245.298666 
L 813.456 249.679351 
L 814.166182 248.287406 
L 814.876364 252.745962 
L 815.586545 254.256322 
L 816.296727 245.735373 
L 817.006909 244.417385 
L 817.717091 246.790403 
L 818.427273 245.625904 
L 819.137455 247.229522 
L 819.847636 246.219631 
L 820.557818 242.846621 
L 821.268 242.392014 
L 821.978182 244.884781 
L 822.688364 245.666796 
L 823.398545 244.193 
L 824.108727 245.362399 
L 824.818909 244.44401 
L 825.529091 239.642515 
L 826.239273 237.707804 
L 826.949455 239.14349 
L 827.659636 241.594624 
L 828.369818 247.415905 
L 829.08 251.263492 
L 829.790182 248.920814 
L 830.500364 248.317663 
L 831.210545 241.945662 
L 831.920727 244.612616 
L 832.630909 246.590937 
L 833.341091 246.782062 
L 834.051273 259.470693 
L 834.761455 260.954714 
L 835.471636 262.063658 
L 836.181818 260.413746 
L 836.892 261.413382 
L 837.602182 262.900323 
L 838.312364 258.981636 
L 839.022545 263.508993 
L 839.732727 264.125412 
L 840.442909 263.771455 
L 841.153091 262.928589 
L 841.863273 264.315607 
L 842.573455 261.896416 
L 843.283636 261.252444 
L 843.993818 262.83411 
L 844.704 263.250877 
L 845.414182 267.282531 
L 846.124364 261.412949 
L 846.834545 268.468419 
L 847.544727 264.32699 
L 848.254909 263.92245 
L 848.965091 263.663113 
L 849.675273 259.701828 
L 850.385455 256.930318 
L 851.095636 257.396229 
L 851.805818 259.016457 
L 852.516 259.230485 
L 853.226182 258.078047 
L 853.936364 261.598237 
L 854.646545 260.941925 
L 855.356727 258.111355 
L 856.066909 257.901866 
L 856.777091 254.075594 
L 857.487273 252.051452 
L 858.197455 257.298675 
L 858.907636 260.171572 
L 859.617818 260.983991 
L 861.038182 248.178472 
L 862.458545 240.545599 
L 863.878909 238.826432 
L 864.589091 242.531906 
L 865.299273 242.156486 
L 866.009455 242.536804 
L 866.719636 238.255183 
L 868.14 237.411421 
L 868.850182 238.306089 
L 869.560364 239.587276 
L 870.270545 240.624011 
L 870.980727 242.078179 
L 871.690909 247.573409 
L 871.690909 247.573409 
" clip-path="url(#pb4a8a00c19)" style="fill: none; stroke: #ff7f0e; stroke-width: 1.5; stroke-linecap: square"/>
   </g>
   <g id="line2d_17">
    <path d="M 162.219273 208.887472 
L 162.929455 208.732507 
L 164.349818 208.794338 
L 165.06 208.451076 
L 166.480364 208.408134 
L 167.190545 207.999833 
L 168.610909 207.586208 
L 169.321091 207.617537 
L 170.031273 206.707918 
L 171.451636 206.814981 
L 172.161818 206.991226 
L 172.872 206.978856 
L 173.582182 206.68153 
L 174.292364 206.653269 
L 175.002545 206.408205 
L 176.422909 206.203846 
L 178.553455 206.225237 
L 179.973818 205.719282 
L 184.945091 205.639429 
L 185.655273 205.511586 
L 186.365455 205.172986 
L 187.075636 204.988344 
L 192.046909 204.924567 
L 192.757091 204.720542 
L 194.887636 204.673245 
L 196.308 204.030584 
L 197.728364 204.058595 
L 198.438545 203.753853 
L 199.858909 203.636233 
L 201.279273 203.286109 
L 201.989455 203.301146 
L 204.12 202.864683 
L 204.830182 202.520332 
L 206.250545 202.528473 
L 206.960727 202.209786 
L 207.670909 202.068828 
L 208.381091 201.811215 
L 209.091273 200.940316 
L 209.801455 200.840826 
L 210.511636 200.880445 
L 211.221818 200.167857 
L 211.932 200.149966 
L 213.352364 199.857982 
L 214.772727 199.947854 
L 215.482909 199.75513 
L 216.193091 199.720097 
L 216.903273 199.563659 
L 219.744 199.476604 
L 221.164364 198.766708 
L 222.584727 198.834583 
L 223.294909 198.404789 
L 224.715273 198.331766 
L 225.425455 197.612171 
L 226.135636 197.569215 
L 226.845818 197.083959 
L 228.266182 196.760332 
L 231.106909 196.736952 
L 231.817091 196.558935 
L 232.527273 196.199946 
L 233.237455 196.020335 
L 236.078182 195.802862 
L 236.788364 194.777082 
L 237.498545 194.459827 
L 239.629091 194.097563 
L 240.339273 194.09915 
L 241.049455 193.568171 
L 241.759636 193.563577 
L 242.469818 192.963896 
L 243.18 192.814078 
L 245.310545 192.773302 
L 246.730909 192.458708 
L 249.571636 192.381269 
L 250.281818 192.406477 
L 250.992 191.933029 
L 253.122545 191.881227 
L 253.832727 191.33255 
L 254.542909 190.164002 
L 255.253091 190.127438 
L 255.963273 189.867791 
L 261.644727 189.965609 
L 263.775273 189.968361 
L 264.485455 189.818678 
L 268.036364 189.742753 
L 270.166909 189.537259 
L 270.877091 189.530023 
L 273.007636 189.011131 
L 274.428 188.267027 
L 277.268727 188.365464 
L 277.978909 188.085468 
L 278.689091 188.016749 
L 280.109455 187.319728 
L 281.529818 187.252311 
L 282.24 186.962272 
L 283.660364 186.858422 
L 285.080727 186.783311 
L 285.790909 186.898487 
L 286.501091 186.860864 
L 287.211273 186.659043 
L 290.052 186.4262 
L 290.762182 185.979777 
L 291.472364 185.982066 
L 292.892727 185.466442 
L 294.313091 185.466806 
L 295.023273 185.447967 
L 296.443636 185.109375 
L 298.574182 185.256697 
L 299.284364 185.121925 
L 299.994545 184.87388 
L 302.835273 184.598559 
L 303.545455 184.648696 
L 304.255636 184.423693 
L 306.386182 184.468543 
L 307.096364 184.212057 
L 308.516727 183.93536 
L 309.937091 183.935309 
L 310.647273 183.429459 
L 312.067636 183.45106 
L 312.777818 183.529075 
L 313.488 183.020886 
L 314.908364 181.362024 
L 315.618545 180.697005 
L 317.038909 180.590213 
L 318.459273 180.717778 
L 322.010182 180.403551 
L 323.430545 179.847778 
L 324.850909 179.86594 
L 326.271273 179.811569 
L 326.981455 179.630438 
L 328.401818 178.800286 
L 329.112 178.801353 
L 329.822182 178.500636 
L 330.532364 178.47498 
L 331.242545 177.859469 
L 332.662909 177.681924 
L 333.373091 177.51467 
L 334.083273 176.200264 
L 335.503636 175.467267 
L 336.213818 175.515344 
L 336.924 174.81612 
L 344.025818 174.625445 
L 344.736 174.419881 
L 346.156364 174.417642 
L 346.866545 174.031574 
L 347.576727 173.903281 
L 348.997091 173.971346 
L 349.707273 173.950935 
L 350.417455 173.584363 
L 351.837818 173.459631 
L 352.548 173.581434 
L 353.258182 173.188567 
L 355.388727 173.392894 
L 356.098909 173.069984 
L 356.809091 173.134705 
L 357.519273 172.012963 
L 358.939636 171.633952 
L 359.649818 171.836845 
L 361.070182 171.725362 
L 361.780364 171.326005 
L 362.490545 171.255977 
L 363.200727 170.328164 
L 364.621091 170.182575 
L 366.751636 170.20222 
L 369.592364 170.191909 
L 370.302545 169.908625 
L 371.012727 169.924094 
L 371.722909 169.753195 
L 374.563636 169.73889 
L 375.273818 168.014571 
L 376.694182 168.055929 
L 377.404364 167.789702 
L 378.114545 166.952647 
L 380.955273 166.446482 
L 382.375636 166.560322 
L 383.796 166.668821 
L 386.636727 166.066425 
L 388.057091 166.161187 
L 389.477455 165.731625 
L 390.187636 165.731901 
L 390.897818 165.384248 
L 392.318182 165.400253 
L 393.738545 165.726347 
L 395.158909 165.227294 
L 395.869091 165.043091 
L 396.579273 164.525038 
L 399.42 164.395272 
L 400.130182 164.136593 
L 400.840364 164.1081 
L 402.260727 163.886732 
L 405.101455 163.769734 
L 407.942182 163.480352 
L 408.652364 162.975485 
L 409.362545 162.974729 
L 410.072727 162.800212 
L 410.782909 162.806704 
L 411.493091 162.09556 
L 412.913455 162.072225 
L 413.623636 161.357118 
L 414.333818 161.411249 
L 415.754182 160.669721 
L 418.594909 160.798547 
L 419.305091 160.364625 
L 420.015273 160.289486 
L 420.725455 160.082508 
L 421.435636 160.03719 
L 422.145818 159.111609 
L 423.566182 159.179563 
L 424.276364 159.095773 
L 424.986545 159.126867 
L 425.696727 158.487296 
L 427.827273 158.337952 
L 428.537455 158.243394 
L 429.247636 157.876263 
L 429.957818 157.877359 
L 430.668 157.383662 
L 432.798545 157.437297 
L 434.218909 157.184332 
L 434.929091 157.296957 
L 437.769818 157.170606 
L 439.900364 156.772044 
L 444.871636 156.775302 
L 445.581818 156.04428 
L 446.292 156.039021 
L 447.002182 155.880773 
L 447.712364 155.516556 
L 449.132727 155.077148 
L 451.263273 155.107118 
L 451.973455 155.259601 
L 452.683636 155.292547 
L 453.393818 155.057135 
L 454.814182 154.997063 
L 456.234545 155.000006 
L 456.944727 155.332696 
L 458.365091 155.117695 
L 459.075273 154.514546 
L 459.785455 154.387696 
L 460.495636 154.46731 
L 461.916 154.284851 
L 463.336364 154.177692 
L 464.046545 154.159384 
L 464.756727 153.627243 
L 466.177091 153.646459 
L 467.597455 153.371264 
L 469.017818 153.365434 
L 469.728 153.260055 
L 470.438182 153.271994 
L 471.148364 153.135634 
L 472.568727 153.166749 
L 473.989091 152.732522 
L 474.699273 152.857749 
L 476.829818 152.61141 
L 477.54 151.836571 
L 478.250182 151.241914 
L 478.960364 151.241469 
L 479.670545 151.357348 
L 480.380727 151.296304 
L 481.090909 151.595076 
L 482.511273 151.55078 
L 483.221455 151.157221 
L 483.931636 150.29051 
L 488.902909 150.001598 
L 489.613091 150.036498 
L 490.323273 149.37627 
L 491.743636 149.168535 
L 492.453818 148.858893 
L 493.164 148.73562 
L 493.874182 148.845407 
L 495.294545 148.512701 
L 497.425091 148.252691 
L 499.555636 147.671788 
L 500.265818 147.686008 
L 501.686182 147.101432 
L 503.106545 147.202887 
L 503.816727 146.988439 
L 504.526909 147.064035 
L 505.947273 146.788883 
L 506.657455 146.905129 
L 507.367636 146.120039 
L 508.077818 146.144929 
L 508.788 145.756654 
L 510.918545 145.815001 
L 511.628727 145.521127 
L 512.338909 145.51923 
L 513.049091 145.241054 
L 513.759273 144.265435 
L 515.889818 143.922037 
L 516.6 143.936396 
L 517.310182 143.430849 
L 518.020364 143.428632 
L 518.730545 143.296936 
L 519.440727 142.969161 
L 520.861091 142.935025 
L 521.571273 142.616704 
L 522.281455 142.519169 
L 522.991636 141.663387 
L 523.701818 141.663089 
L 524.412 141.25738 
L 525.122182 141.110609 
L 527.252727 141.017968 
L 527.962909 140.84555 
L 528.673091 140.181595 
L 529.383273 139.776239 
L 530.803636 139.875874 
L 531.513818 139.900868 
L 533.644364 139.450106 
L 534.354545 139.130699 
L 537.905455 138.96355 
L 538.615636 138.676925 
L 539.325818 138.752779 
L 540.036 138.611672 
L 540.746182 138.609184 
L 541.456364 138.344567 
L 542.876727 138.279105 
L 545.007273 138.187665 
L 549.268364 138.04326 
L 549.978545 136.924347 
L 550.688727 136.179487 
L 551.398909 136.163932 
L 552.109091 135.482063 
L 552.819273 135.281065 
L 554.949818 135.234276 
L 555.66 134.316628 
L 556.370182 134.176374 
L 557.080364 133.272854 
L 557.790545 133.26619 
L 559.210909 132.907119 
L 559.921091 132.912929 
L 560.631273 132.343327 
L 561.341455 132.328199 
L 562.761818 131.745092 
L 564.892364 131.845029 
L 565.602545 131.637054 
L 567.022909 131.618408 
L 569.153455 131.043391 
L 569.863636 129.978845 
L 570.573818 130.013617 
L 573.414545 128.472184 
L 574.124727 128.180137 
L 574.834909 128.011546 
L 576.965455 127.969122 
L 578.385818 127.658509 
L 580.516364 127.627555 
L 581.226545 127.236581 
L 582.646909 127.15167 
L 583.357091 126.649213 
L 584.777455 126.678154 
L 585.487636 126.689482 
L 586.197818 126.401663 
L 588.328364 126.371727 
L 591.169091 125.847334 
L 591.879273 125.97834 
L 592.589455 125.978707 
L 593.299636 125.833765 
L 594.72 125.86523 
L 596.140364 125.709744 
L 598.981091 125.635394 
L 601.821818 125.100508 
L 602.532 125.087201 
L 603.242182 124.067462 
L 604.662545 124.028517 
L 605.372727 123.518455 
L 606.793091 123.506134 
L 607.503273 123.304052 
L 608.213455 122.751182 
L 608.923636 121.399841 
L 611.054182 121.329388 
L 611.764364 120.462552 
L 612.474545 120.455986 
L 613.184727 120.003195 
L 614.605091 119.633447 
L 615.315273 118.73902 
L 616.025455 118.576677 
L 616.735636 117.956653 
L 619.576364 117.997956 
L 620.286545 117.831663 
L 620.996727 117.826695 
L 621.706909 117.229512 
L 625.257818 117.175669 
L 625.968 117.015207 
L 626.678182 117.23134 
L 627.388364 116.945391 
L 628.808727 116.872217 
L 629.518909 114.867414 
L 634.490182 114.233697 
L 635.200364 113.356443 
L 636.620727 113.300879 
L 637.330909 113.223901 
L 638.041091 113.261381 
L 639.461455 113.075046 
L 640.171636 113.05695 
L 640.881818 112.893869 
L 642.302182 112.812626 
L 643.722545 112.778404 
L 645.142909 112.617089 
L 646.563273 112.557387 
L 647.273455 112.509101 
L 647.983636 112.260822 
L 648.693818 112.15468 
L 649.404 111.861895 
L 650.114182 111.840563 
L 650.824364 111.680128 
L 652.244727 110.879597 
L 652.954909 111.038181 
L 658.636364 110.882967 
L 662.187273 111.000737 
L 662.897455 110.564688 
L 663.607636 110.530475 
L 664.317818 110.331329 
L 665.028 108.718137 
L 666.448364 108.276532 
L 669.289091 108.477093 
L 669.999273 108.589587 
L 670.709455 108.385621 
L 671.419636 108.357586 
L 672.129818 107.51105 
L 673.550182 107.433487 
L 675.680727 107.06022 
L 677.811273 106.896859 
L 679.231636 106.811895 
L 679.941818 105.478735 
L 680.652 104.686895 
L 681.362182 104.326041 
L 683.492727 104.303543 
L 684.202909 103.59202 
L 684.913091 103.452344 
L 685.623273 103.470311 
L 686.333455 103.354608 
L 687.753818 103.370105 
L 689.174182 102.611233 
L 689.884364 101.293711 
L 690.594545 101.297906 
L 692.014909 100.967926 
L 693.435273 101.072147 
L 694.855636 100.896707 
L 696.986182 100.415917 
L 698.406545 100.291299 
L 701.247273 99.817751 
L 701.957455 99.54312 
L 703.377818 99.341675 
L 707.638909 99.432679 
L 708.349091 99.353256 
L 709.059273 99.001197 
L 711.189818 98.917362 
L 711.9 98.877151 
L 712.610182 98.616018 
L 714.030545 98.641446 
L 715.450909 98.400554 
L 716.161091 98.409928 
L 716.871273 97.990882 
L 717.581455 98.158473 
L 718.291636 97.638317 
L 719.001818 96.852189 
L 719.712 96.839891 
L 720.422182 96.988921 
L 721.132364 96.853399 
L 721.842545 96.834906 
L 722.552727 95.872152 
L 723.262909 95.835875 
L 723.973091 95.446768 
L 724.683273 94.91405 
L 726.103636 95.297036 
L 727.524 95.331279 
L 728.234182 94.517443 
L 728.944364 94.392681 
L 729.654545 94.063026 
L 730.364727 93.986072 
L 731.074909 93.636835 
L 731.785091 93.698277 
L 732.495273 93.377081 
L 736.046182 93.344256 
L 736.756364 93.294526 
L 737.466545 93.104149 
L 738.176727 93.115065 
L 738.886909 92.359804 
L 741.017455 92.485053 
L 743.858182 92.36933 
L 744.568364 92.368059 
L 745.988727 92.130977 
L 748.829455 91.780474 
L 749.539636 91.696448 
L 750.249818 91.382147 
L 750.96 91.308114 
L 751.670182 91.447582 
L 752.380364 91.280461 
L 753.090545 91.253391 
L 753.800727 90.399655 
L 754.510909 90.404517 
L 755.221091 89.98496 
L 756.641455 89.826285 
L 757.351636 89.723484 
L 758.061818 89.473876 
L 759.482182 89.455132 
L 760.192364 88.454017 
L 760.902545 88.301243 
L 761.612727 87.73991 
L 763.743273 87.682809 
L 764.453455 87.390786 
L 765.873818 87.631738 
L 766.584 87.607352 
L 767.294182 87.4053 
L 768.714545 87.423997 
L 769.424727 87.296638 
L 770.134909 87.449263 
L 770.845091 87.435979 
L 771.555273 87.047035 
L 773.685818 87.112028 
L 774.396 86.922271 
L 775.106182 86.920712 
L 775.816364 86.659248 
L 776.526545 86.902639 
L 777.236727 87.006337 
L 777.946909 86.606182 
L 778.657091 86.074299 
L 779.367273 86.072842 
L 781.497818 84.896706 
L 782.918182 84.391015 
L 785.758909 84.214148 
L 786.469091 83.915392 
L 787.179273 83.449589 
L 788.599636 83.440596 
L 792.150545 83.469044 
L 792.860727 83.08519 
L 793.570909 82.877364 
L 794.991273 82.924904 
L 795.701455 81.948688 
L 796.411636 81.228931 
L 797.121818 81.231359 
L 797.832 81.070728 
L 798.542182 81.060211 
L 799.252364 80.609866 
L 799.962545 80.609947 
L 800.672727 80.413335 
L 803.513455 78.695798 
L 804.223636 78.615387 
L 805.644 78.725765 
L 806.354182 78.383032 
L 807.064364 78.41942 
L 807.774545 78.2196 
L 810.615273 78.246917 
L 812.035636 78.154768 
L 813.456 76.941145 
L 814.166182 77.026162 
L 814.876364 76.435613 
L 819.847636 76.134921 
L 821.268 76.165031 
L 821.978182 75.924843 
L 825.529091 75.886924 
L 826.949455 75.869593 
L 827.659636 76.009357 
L 828.369818 75.340867 
L 829.790182 75.324085 
L 830.500364 75.310268 
L 831.210545 74.332214 
L 832.630909 74.490365 
L 833.341091 74.488302 
L 834.051273 71.523179 
L 834.761455 71.485381 
L 836.181818 71.55583 
L 838.312364 71.381094 
L 839.022545 71.180092 
L 841.153091 71.22314 
L 844.704 71.070749 
L 845.414182 70.913859 
L 846.834545 69.77206 
L 847.544727 69.645956 
L 848.965091 69.652278 
L 850.385455 69.215168 
L 852.516 69.130807 
L 854.646545 69.027437 
L 856.066909 69.119577 
L 857.487273 68.871122 
L 858.197455 68.300871 
L 859.617818 68.360155 
L 860.328 68.040154 
L 861.038182 67.966676 
L 862.458545 67.51693 
L 863.878909 67.503944 
L 864.589091 67.384731 
L 866.009455 67.390328 
L 866.719636 67.052259 
L 871.690909 66.993259 
L 871.690909 66.993259 
" clip-path="url(#pb4a8a00c19)" style="fill: none; stroke: #2ca02c; stroke-width: 1.5; stroke-linecap: square"/>
   </g>
   <g id="patch_3">
    <path d="M 126 384.48 
L 126 51.84 
" style="fill: none; stroke: #000000; stroke-width: 0.8; stroke-linejoin: miter; stroke-linecap: square"/>
   </g>
   <g id="patch_4">
    <path d="M 907.2 384.48 
L 907.2 51.84 
" style="fill: none; stroke: #000000; stroke-width: 0.8; stroke-linejoin: miter; stroke-linecap: square"/>
   </g>
   <g id="patch_5">
    <path d="M 126 384.48 
L 907.2 384.48 
" style="fill: none; stroke: #000000; stroke-width: 0.8; stroke-linejoin: miter; stroke-linecap: square"/>
   </g>
   <g id="patch_6">
    <path d="M 126 51.84 
L 907.2 51.84 
" style="fill: none; stroke: #000000; stroke-width: 0.8; stroke-linejoin: miter; stroke-linecap: square"/>
   </g>
   <g id="text_17">
    <!-- Quadratic Covariation of $X_t$ and $S_t$ -->
    <g transform="translate(414.54 45.84)scale(0.12 -0.12)">
     <defs>
      <path id="DejaVuSans-66" d="M 2375 4863 
L 2375 4384 
L 1825 4384 
Q 1516 4384 1395 4259 
Q 1275 4134 1275 3809 
L 1275 3500 
L 2222 3500 
L 2222 3053 
L 1275 3053 
L 1275 0 
L 697 0 
L 697 3053 
L 147 3053 
L 147 3500 
L 697 3500 
L 697 3744 
Q 697 4328 969 4595 
Q 1241 4863 1831 4863 
L 2375 4863 
z
" transform="scale(0.015625)"/>
      <path id="DejaVuSans-Oblique-58" d="M 878 4666 
L 1516 4666 
L 2316 2981 
L 3763 4666 
L 4500 4666 
L 2578 2438 
L 3738 0 
L 3103 0 
L 2163 1966 
L 459 0 
L -275 0 
L 1906 2509 
L 878 4666 
z
" transform="scale(0.015625)"/>
      <path id="DejaVuSans-Oblique-74" d="M 2706 3500 
L 2619 3053 
L 1472 3053 
L 1100 1153 
Q 1081 1047 1072 975 
Q 1063 903 1063 863 
Q 1063 663 1183 572 
Q 1303 481 1569 481 
L 2150 481 
L 2053 0 
L 1503 0 
Q 991 0 739 200 
Q 488 400 488 806 
Q 488 878 497 964 
Q 506 1050 525 1153 
L 897 3053 
L 409 3053 
L 500 3500 
L 978 3500 
L 1172 4494 
L 1747 4494 
L 1556 3500 
L 2706 3500 
z
" transform="scale(0.015625)"/>
      <path id="DejaVuSans-Oblique-53" d="M 3859 4513 
L 3738 3897 
Q 3422 4066 3111 4152 
Q 2800 4238 2509 4238 
Q 1944 4238 1609 3991 
Q 1275 3744 1275 3334 
Q 1275 3109 1398 2989 
Q 1522 2869 2034 2731 
L 2413 2638 
Q 3053 2472 3303 2217 
Q 3553 1963 3553 1503 
Q 3553 797 2998 353 
Q 2444 -91 1538 -91 
Q 1166 -91 791 -17 
Q 416 56 38 206 
L 166 856 
Q 513 641 861 531 
Q 1209 422 1556 422 
Q 2147 422 2503 684 
Q 2859 947 2859 1369 
Q 2859 1650 2717 1795 
Q 2575 1941 2106 2059 
L 1728 2156 
Q 1081 2325 845 2545 
Q 609 2766 609 3163 
Q 609 3859 1145 4304 
Q 1681 4750 2541 4750 
Q 2875 4750 3203 4690 
Q 3531 4631 3859 4513 
z
" transform="scale(0.015625)"/>
     </defs>
     <use xlink:href="#DejaVuSans-51" transform="translate(0 0.015625)"/>
     <use xlink:href="#DejaVuSans-75" transform="translate(78.710938 0.015625)"/>
     <use xlink:href="#DejaVuSans-61" transform="translate(142.089844 0.015625)"/>
     <use xlink:href="#DejaVuSans-64" transform="translate(203.369141 0.015625)"/>
     <use xlink:href="#DejaVuSans-72" transform="translate(266.845703 0.015625)"/>
     <use xlink:href="#DejaVuSans-61" transform="translate(307.958984 0.015625)"/>
     <use xlink:href="#DejaVuSans-74" transform="translate(369.238281 0.015625)"/>
     <use xlink:href="#DejaVuSans-69" transform="translate(408.447266 0.015625)"/>
     <use xlink:href="#DejaVuSans-63" transform="translate(436.230469 0.015625)"/>
     <use xlink:href="#DejaVuSans-20" transform="translate(491.210938 0.015625)"/>
     <use xlink:href="#DejaVuSans-43" transform="translate(522.998047 0.015625)"/>
     <use xlink:href="#DejaVuSans-6f" transform="translate(592.822266 0.015625)"/>
     <use xlink:href="#DejaVuSans-76" transform="translate(654.003906 0.015625)"/>
     <use xlink:href="#DejaVuSans-61" transform="translate(713.183594 0.015625)"/>
     <use xlink:href="#DejaVuSans-72" transform="translate(774.462891 0.015625)"/>
     <use xlink:href="#DejaVuSans-69" transform="translate(815.576172 0.015625)"/>
     <use xlink:href="#DejaVuSans-61" transform="translate(843.359375 0.015625)"/>
     <use xlink:href="#DejaVuSans-74" transform="translate(904.638672 0.015625)"/>
     <use xlink:href="#DejaVuSans-69" transform="translate(943.847656 0.015625)"/>
     <use xlink:href="#DejaVuSans-6f" transform="translate(971.630859 0.015625)"/>
     <use xlink:href="#DejaVuSans-6e" transform="translate(1032.8125 0.015625)"/>
     <use xlink:href="#DejaVuSans-20" transform="translate(1096.191406 0.015625)"/>
     <use xlink:href="#DejaVuSans-6f" transform="translate(1127.978516 0.015625)"/>
     <use xlink:href="#DejaVuSans-66" transform="translate(1189.160156 0.015625)"/>
     <use xlink:href="#DejaVuSans-20" transform="translate(1224.365234 0.015625)"/>
     <use xlink:href="#DejaVuSans-Oblique-58" transform="translate(1256.152344 0.015625)"/>
     <use xlink:href="#DejaVuSans-Oblique-74" transform="translate(1324.658203 -16.390625)scale(0.7)"/>
     <use xlink:href="#DejaVuSans-20" transform="translate(1354.838867 0.015625)"/>
     <use xlink:href="#DejaVuSans-61" transform="translate(1386.625977 0.015625)"/>
     <use xlink:href="#DejaVuSans-6e" transform="translate(1447.905273 0.015625)"/>
     <use xlink:href="#DejaVuSans-64" transform="translate(1511.28418 0.015625)"/>
     <use xlink:href="#DejaVuSans-20" transform="translate(1574.760742 0.015625)"/>
     <use xlink:href="#DejaVuSans-Oblique-53" transform="translate(1606.547852 0.015625)"/>
     <use xlink:href="#DejaVuSans-Oblique-74" transform="translate(1670.024414 -16.390625)scale(0.7)"/>
    </g>
   </g>
   <g id="legend_1">
    <g id="patch_7">
     <path d="M 133 103.874375 
L 335.1 103.874375 
Q 337.1 103.874375 337.1 101.874375 
L 337.1 58.84 
Q 337.1 56.84 335.1 56.84 
L 133 56.84 
Q 131 56.84 131 58.84 
L 131 101.874375 
Q 131 103.874375 133 103.874375 
z
" style="fill: #ffffff; opacity: 0.8; stroke: #cccccc; stroke-linejoin: miter"/>
    </g>
    <g id="line2d_18">
     <path d="M 135 64.938437 
L 145 64.938437 
L 155 64.938437 
" style="fill: none; stroke: #1f77b4; stroke-width: 1.5; stroke-linecap: square"/>
    </g>
    <g id="text_18">
     <!-- $X_t$ -->
     <g transform="translate(163 68.438437)scale(0.1 -0.1)">
      <use xlink:href="#DejaVuSans-Oblique-58" transform="translate(0 0.09375)"/>
      <use xlink:href="#DejaVuSans-Oblique-74" transform="translate(68.505859 -16.3125)scale(0.7)"/>
     </g>
    </g>
    <g id="line2d_19">
     <path d="M 135 79.616562 
L 145 79.616562 
L 155 79.616562 
" style="fill: none; stroke: #ff7f0e; stroke-width: 1.5; stroke-linecap: square"/>
    </g>
    <g id="text_19">
     <!-- $S_t$ -->
     <g transform="translate(163 83.116562)scale(0.1 -0.1)">
      <use xlink:href="#DejaVuSans-Oblique-53" transform="translate(0 0.78125)"/>
      <use xlink:href="#DejaVuSans-Oblique-74" transform="translate(63.476562 -15.625)scale(0.7)"/>
     </g>
    </g>
    <g id="line2d_20">
     <path d="M 135 94.294687 
L 145 94.294687 
L 155 94.294687 
" style="fill: none; stroke: #2ca02c; stroke-width: 1.5; stroke-linecap: square"/>
    </g>
    <g id="text_20">
     <!-- Quadratic Covariation of $X_t$ and $S_t$ -->
     <g transform="translate(163 97.794687)scale(0.1 -0.1)">
      <use xlink:href="#DejaVuSans-51" transform="translate(0 0.015625)"/>
      <use xlink:href="#DejaVuSans-75" transform="translate(78.710938 0.015625)"/>
      <use xlink:href="#DejaVuSans-61" transform="translate(142.089844 0.015625)"/>
      <use xlink:href="#DejaVuSans-64" transform="translate(203.369141 0.015625)"/>
      <use xlink:href="#DejaVuSans-72" transform="translate(266.845703 0.015625)"/>
      <use xlink:href="#DejaVuSans-61" transform="translate(307.958984 0.015625)"/>
      <use xlink:href="#DejaVuSans-74" transform="translate(369.238281 0.015625)"/>
      <use xlink:href="#DejaVuSans-69" transform="translate(408.447266 0.015625)"/>
      <use xlink:href="#DejaVuSans-63" transform="translate(436.230469 0.015625)"/>
      <use xlink:href="#DejaVuSans-20" transform="translate(491.210938 0.015625)"/>
      <use xlink:href="#DejaVuSans-43" transform="translate(522.998047 0.015625)"/>
      <use xlink:href="#DejaVuSans-6f" transform="translate(592.822266 0.015625)"/>
      <use xlink:href="#DejaVuSans-76" transform="translate(654.003906 0.015625)"/>
      <use xlink:href="#DejaVuSans-61" transform="translate(713.183594 0.015625)"/>
      <use xlink:href="#DejaVuSans-72" transform="translate(774.462891 0.015625)"/>
      <use xlink:href="#DejaVuSans-69" transform="translate(815.576172 0.015625)"/>
      <use xlink:href="#DejaVuSans-61" transform="translate(843.359375 0.015625)"/>
      <use xlink:href="#DejaVuSans-74" transform="translate(904.638672 0.015625)"/>
      <use xlink:href="#DejaVuSans-69" transform="translate(943.847656 0.015625)"/>
      <use xlink:href="#DejaVuSans-6f" transform="translate(971.630859 0.015625)"/>
      <use xlink:href="#DejaVuSans-6e" transform="translate(1032.8125 0.015625)"/>
      <use xlink:href="#DejaVuSans-20" transform="translate(1096.191406 0.015625)"/>
      <use xlink:href="#DejaVuSans-6f" transform="translate(1127.978516 0.015625)"/>
      <use xlink:href="#DejaVuSans-66" transform="translate(1189.160156 0.015625)"/>
      <use xlink:href="#DejaVuSans-20" transform="translate(1224.365234 0.015625)"/>
      <use xlink:href="#DejaVuSans-Oblique-58" transform="translate(1256.152344 0.015625)"/>
      <use xlink:href="#DejaVuSans-Oblique-74" transform="translate(1324.658203 -16.390625)scale(0.7)"/>
      <use xlink:href="#DejaVuSans-20" transform="translate(1354.838867 0.015625)"/>
      <use xlink:href="#DejaVuSans-61" transform="translate(1386.625977 0.015625)"/>
      <use xlink:href="#DejaVuSans-6e" transform="translate(1447.905273 0.015625)"/>
      <use xlink:href="#DejaVuSans-64" transform="translate(1511.28418 0.015625)"/>
      <use xlink:href="#DejaVuSans-20" transform="translate(1574.760742 0.015625)"/>
      <use xlink:href="#DejaVuSans-Oblique-53" transform="translate(1606.547852 0.015625)"/>
      <use xlink:href="#DejaVuSans-Oblique-74" transform="translate(1670.024414 -16.390625)scale(0.7)"/>
     </g>
    </g>
   </g>
  </g>
 </g>
 <defs>
  <clipPath id="pb4a8a00c19">
   <rect x="126" y="51.84" width="781.2" height="332.64"/>
  </clipPath>
 </defs>
</svg>
