<?xml version="1.0" encoding="utf-8" standalone="no"?>
<!DOCTYPE svg PUBLIC "-//W3C//DTD SVG 1.1//EN"
  "http://www.w3.org/Graphics/SVG/1.1/DTD/svg11.dtd">
<svg xmlns:xlink="http://www.w3.org/1999/xlink" width="1008pt" height="432pt" viewBox="0 0 1008 432" xmlns="http://www.w3.org/2000/svg" version="1.1">
 <metadata>
  <rdf:RDF xmlns:dc="http://purl.org/dc/elements/1.1/" xmlns:cc="http://creativecommons.org/ns#" xmlns:rdf="http://www.w3.org/1999/02/22-rdf-syntax-ns#">
   <cc:Work>
    <dc:type rdf:resource="http://purl.org/dc/dcmitype/StillImage"/>
    <dc:date>2023-12-22T17:10:58.146647</dc:date>
    <dc:format>image/svg+xml</dc:format>
    <dc:creator>
     <cc:Agent>
      <dc:title>Matplotlib v3.5.2, https://matplotlib.org/</dc:title>
     </cc:Agent>
    </dc:creator>
   </cc:Work>
  </rdf:RDF>
 </metadata>
 <defs>
  <style type="text/css">*{stroke-linejoin: round; stroke-linecap: butt}</style>
 </defs>
 <g id="figure_1">
  <g id="patch_1">
   <path d="M 0 432 
L 1008 432 
L 1008 0 
L 0 0 
z
" style="fill: #ffffff"/>
  </g>
  <g id="axes_1">
   <g id="patch_2">
    <path d="M 126 384.48 
L 907.2 384.48 
L 907.2 51.84 
L 126 51.84 
z
" style="fill: #ffffff"/>
   </g>
   <g id="matplotlib.axis_1">
    <g id="xtick_1">
     <g id="line2d_1">
      <defs>
       <path id="m41a17cbd2e" d="M 0 0 
L 0 3.5 
" style="stroke: #000000; stroke-width: 0.8"/>
      </defs>
      <g>
       <use xlink:href="#m41a17cbd2e" x="161.509091" y="384.48" style="stroke: #000000; stroke-width: 0.8"/>
      </g>
     </g>
     <g id="text_1">
      <!-- 0.0 -->
      <g transform="translate(153.557528 399.078438)scale(0.1 -0.1)">
       <defs>
        <path id="DejaVuSans-30" d="M 2034 4250 
Q 1547 4250 1301 3770 
Q 1056 3291 1056 2328 
Q 1056 1369 1301 889 
Q 1547 409 2034 409 
Q 2525 409 2770 889 
Q 3016 1369 3016 2328 
Q 3016 3291 2770 3770 
Q 2525 4250 2034 4250 
z
M 2034 4750 
Q 2819 4750 3233 4129 
Q 3647 3509 3647 2328 
Q 3647 1150 3233 529 
Q 2819 -91 2034 -91 
Q 1250 -91 836 529 
Q 422 1150 422 2328 
Q 422 3509 836 4129 
Q 1250 4750 2034 4750 
z
" transform="scale(0.015625)"/>
        <path id="DejaVuSans-2e" d="M 684 794 
L 1344 794 
L 1344 0 
L 684 0 
L 684 794 
z
" transform="scale(0.015625)"/>
       </defs>
       <use xlink:href="#DejaVuSans-30"/>
       <use xlink:href="#DejaVuSans-2e" x="63.623047"/>
       <use xlink:href="#DejaVuSans-30" x="95.410156"/>
      </g>
     </g>
    </g>
    <g id="xtick_2">
     <g id="line2d_2">
      <g>
       <use xlink:href="#m41a17cbd2e" x="303.545455" y="384.48" style="stroke: #000000; stroke-width: 0.8"/>
      </g>
     </g>
     <g id="text_2">
      <!-- 0.2 -->
      <g transform="translate(295.593892 399.078438)scale(0.1 -0.1)">
       <defs>
        <path id="DejaVuSans-32" d="M 1228 531 
L 3431 531 
L 3431 0 
L 469 0 
L 469 531 
Q 828 903 1448 1529 
Q 2069 2156 2228 2338 
Q 2531 2678 2651 2914 
Q 2772 3150 2772 3378 
Q 2772 3750 2511 3984 
Q 2250 4219 1831 4219 
Q 1534 4219 1204 4116 
Q 875 4013 500 3803 
L 500 4441 
Q 881 4594 1212 4672 
Q 1544 4750 1819 4750 
Q 2544 4750 2975 4387 
Q 3406 4025 3406 3419 
Q 3406 3131 3298 2873 
Q 3191 2616 2906 2266 
Q 2828 2175 2409 1742 
Q 1991 1309 1228 531 
z
" transform="scale(0.015625)"/>
       </defs>
       <use xlink:href="#DejaVuSans-30"/>
       <use xlink:href="#DejaVuSans-2e" x="63.623047"/>
       <use xlink:href="#DejaVuSans-32" x="95.410156"/>
      </g>
     </g>
    </g>
    <g id="xtick_3">
     <g id="line2d_3">
      <g>
       <use xlink:href="#m41a17cbd2e" x="445.581818" y="384.48" style="stroke: #000000; stroke-width: 0.8"/>
      </g>
     </g>
     <g id="text_3">
      <!-- 0.4 -->
      <g transform="translate(437.630256 399.078438)scale(0.1 -0.1)">
       <defs>
        <path id="DejaVuSans-34" d="M 2419 4116 
L 825 1625 
L 2419 1625 
L 2419 4116 
z
M 2253 4666 
L 3047 4666 
L 3047 1625 
L 3713 1625 
L 3713 1100 
L 3047 1100 
L 3047 0 
L 2419 0 
L 2419 1100 
L 313 1100 
L 313 1709 
L 2253 4666 
z
" transform="scale(0.015625)"/>
       </defs>
       <use xlink:href="#DejaVuSans-30"/>
       <use xlink:href="#DejaVuSans-2e" x="63.623047"/>
       <use xlink:href="#DejaVuSans-34" x="95.410156"/>
      </g>
     </g>
    </g>
    <g id="xtick_4">
     <g id="line2d_4">
      <g>
       <use xlink:href="#m41a17cbd2e" x="587.618182" y="384.48" style="stroke: #000000; stroke-width: 0.8"/>
      </g>
     </g>
     <g id="text_4">
      <!-- 0.6 -->
      <g transform="translate(579.666619 399.078438)scale(0.1 -0.1)">
       <defs>
        <path id="DejaVuSans-36" d="M 2113 2584 
Q 1688 2584 1439 2293 
Q 1191 2003 1191 1497 
Q 1191 994 1439 701 
Q 1688 409 2113 409 
Q 2538 409 2786 701 
Q 3034 994 3034 1497 
Q 3034 2003 2786 2293 
Q 2538 2584 2113 2584 
z
M 3366 4563 
L 3366 3988 
Q 3128 4100 2886 4159 
Q 2644 4219 2406 4219 
Q 1781 4219 1451 3797 
Q 1122 3375 1075 2522 
Q 1259 2794 1537 2939 
Q 1816 3084 2150 3084 
Q 2853 3084 3261 2657 
Q 3669 2231 3669 1497 
Q 3669 778 3244 343 
Q 2819 -91 2113 -91 
Q 1303 -91 875 529 
Q 447 1150 447 2328 
Q 447 3434 972 4092 
Q 1497 4750 2381 4750 
Q 2619 4750 2861 4703 
Q 3103 4656 3366 4563 
z
" transform="scale(0.015625)"/>
       </defs>
       <use xlink:href="#DejaVuSans-30"/>
       <use xlink:href="#DejaVuSans-2e" x="63.623047"/>
       <use xlink:href="#DejaVuSans-36" x="95.410156"/>
      </g>
     </g>
    </g>
    <g id="xtick_5">
     <g id="line2d_5">
      <g>
       <use xlink:href="#m41a17cbd2e" x="729.654545" y="384.48" style="stroke: #000000; stroke-width: 0.8"/>
      </g>
     </g>
     <g id="text_5">
      <!-- 0.8 -->
      <g transform="translate(721.702983 399.078438)scale(0.1 -0.1)">
       <defs>
        <path id="DejaVuSans-38" d="M 2034 2216 
Q 1584 2216 1326 1975 
Q 1069 1734 1069 1313 
Q 1069 891 1326 650 
Q 1584 409 2034 409 
Q 2484 409 2743 651 
Q 3003 894 3003 1313 
Q 3003 1734 2745 1975 
Q 2488 2216 2034 2216 
z
M 1403 2484 
Q 997 2584 770 2862 
Q 544 3141 544 3541 
Q 544 4100 942 4425 
Q 1341 4750 2034 4750 
Q 2731 4750 3128 4425 
Q 3525 4100 3525 3541 
Q 3525 3141 3298 2862 
Q 3072 2584 2669 2484 
Q 3125 2378 3379 2068 
Q 3634 1759 3634 1313 
Q 3634 634 3220 271 
Q 2806 -91 2034 -91 
Q 1263 -91 848 271 
Q 434 634 434 1313 
Q 434 1759 690 2068 
Q 947 2378 1403 2484 
z
M 1172 3481 
Q 1172 3119 1398 2916 
Q 1625 2713 2034 2713 
Q 2441 2713 2670 2916 
Q 2900 3119 2900 3481 
Q 2900 3844 2670 4047 
Q 2441 4250 2034 4250 
Q 1625 4250 1398 4047 
Q 1172 3844 1172 3481 
z
" transform="scale(0.015625)"/>
       </defs>
       <use xlink:href="#DejaVuSans-30"/>
       <use xlink:href="#DejaVuSans-2e" x="63.623047"/>
       <use xlink:href="#DejaVuSans-38" x="95.410156"/>
      </g>
     </g>
    </g>
    <g id="xtick_6">
     <g id="line2d_6">
      <g>
       <use xlink:href="#m41a17cbd2e" x="871.690909" y="384.48" style="stroke: #000000; stroke-width: 0.8"/>
      </g>
     </g>
     <g id="text_6">
      <!-- 1.0 -->
      <g transform="translate(863.739347 399.078438)scale(0.1 -0.1)">
       <defs>
        <path id="DejaVuSans-31" d="M 794 531 
L 1825 531 
L 1825 4091 
L 703 3866 
L 703 4441 
L 1819 4666 
L 2450 4666 
L 2450 531 
L 3481 531 
L 3481 0 
L 794 0 
L 794 531 
z
" transform="scale(0.015625)"/>
       </defs>
       <use xlink:href="#DejaVuSans-31"/>
       <use xlink:href="#DejaVuSans-2e" x="63.623047"/>
       <use xlink:href="#DejaVuSans-30" x="95.410156"/>
      </g>
     </g>
    </g>
    <g id="text_7">
     <!-- Time -->
     <g transform="translate(504.366406 412.756563)scale(0.1 -0.1)">
      <defs>
       <path id="DejaVuSans-54" d="M -19 4666 
L 3928 4666 
L 3928 4134 
L 2272 4134 
L 2272 0 
L 1638 0 
L 1638 4134 
L -19 4134 
L -19 4666 
z
" transform="scale(0.015625)"/>
       <path id="DejaVuSans-69" d="M 603 3500 
L 1178 3500 
L 1178 0 
L 603 0 
L 603 3500 
z
M 603 4863 
L 1178 4863 
L 1178 4134 
L 603 4134 
L 603 4863 
z
" transform="scale(0.015625)"/>
       <path id="DejaVuSans-6d" d="M 3328 2828 
Q 3544 3216 3844 3400 
Q 4144 3584 4550 3584 
Q 5097 3584 5394 3201 
Q 5691 2819 5691 2113 
L 5691 0 
L 5113 0 
L 5113 2094 
Q 5113 2597 4934 2840 
Q 4756 3084 4391 3084 
Q 3944 3084 3684 2787 
Q 3425 2491 3425 1978 
L 3425 0 
L 2847 0 
L 2847 2094 
Q 2847 2600 2669 2842 
Q 2491 3084 2119 3084 
Q 1678 3084 1418 2786 
Q 1159 2488 1159 1978 
L 1159 0 
L 581 0 
L 581 3500 
L 1159 3500 
L 1159 2956 
Q 1356 3278 1631 3431 
Q 1906 3584 2284 3584 
Q 2666 3584 2933 3390 
Q 3200 3197 3328 2828 
z
" transform="scale(0.015625)"/>
       <path id="DejaVuSans-65" d="M 3597 1894 
L 3597 1613 
L 953 1613 
Q 991 1019 1311 708 
Q 1631 397 2203 397 
Q 2534 397 2845 478 
Q 3156 559 3463 722 
L 3463 178 
Q 3153 47 2828 -22 
Q 2503 -91 2169 -91 
Q 1331 -91 842 396 
Q 353 884 353 1716 
Q 353 2575 817 3079 
Q 1281 3584 2069 3584 
Q 2775 3584 3186 3129 
Q 3597 2675 3597 1894 
z
M 3022 2063 
Q 3016 2534 2758 2815 
Q 2500 3097 2075 3097 
Q 1594 3097 1305 2825 
Q 1016 2553 972 2059 
L 3022 2063 
z
" transform="scale(0.015625)"/>
      </defs>
      <use xlink:href="#DejaVuSans-54"/>
      <use xlink:href="#DejaVuSans-69" x="57.958984"/>
      <use xlink:href="#DejaVuSans-6d" x="85.742188"/>
      <use xlink:href="#DejaVuSans-65" x="183.154297"/>
     </g>
    </g>
   </g>
   <g id="matplotlib.axis_2">
    <g id="ytick_1">
     <g id="line2d_7">
      <defs>
       <path id="mccbe02dc9b" d="M 0 0 
L -3.5 0 
" style="stroke: #000000; stroke-width: 0.8"/>
      </defs>
      <g>
       <use xlink:href="#mccbe02dc9b" x="126" y="369.357985" style="stroke: #000000; stroke-width: 0.8"/>
      </g>
     </g>
     <g id="text_8">
      <!-- 0.0 -->
      <g transform="translate(103.096875 373.157204)scale(0.1 -0.1)">
       <use xlink:href="#DejaVuSans-30"/>
       <use xlink:href="#DejaVuSans-2e" x="63.623047"/>
       <use xlink:href="#DejaVuSans-30" x="95.410156"/>
      </g>
     </g>
    </g>
    <g id="ytick_2">
     <g id="line2d_8">
      <g>
       <use xlink:href="#mccbe02dc9b" x="126" y="309.311229" style="stroke: #000000; stroke-width: 0.8"/>
      </g>
     </g>
     <g id="text_9">
      <!-- 0.2 -->
      <g transform="translate(103.096875 313.110448)scale(0.1 -0.1)">
       <use xlink:href="#DejaVuSans-30"/>
       <use xlink:href="#DejaVuSans-2e" x="63.623047"/>
       <use xlink:href="#DejaVuSans-32" x="95.410156"/>
      </g>
     </g>
    </g>
    <g id="ytick_3">
     <g id="line2d_9">
      <g>
       <use xlink:href="#mccbe02dc9b" x="126" y="249.264474" style="stroke: #000000; stroke-width: 0.8"/>
      </g>
     </g>
     <g id="text_10">
      <!-- 0.4 -->
      <g transform="translate(103.096875 253.063692)scale(0.1 -0.1)">
       <use xlink:href="#DejaVuSans-30"/>
       <use xlink:href="#DejaVuSans-2e" x="63.623047"/>
       <use xlink:href="#DejaVuSans-34" x="95.410156"/>
      </g>
     </g>
    </g>
    <g id="ytick_4">
     <g id="line2d_10">
      <g>
       <use xlink:href="#mccbe02dc9b" x="126" y="189.217718" style="stroke: #000000; stroke-width: 0.8"/>
      </g>
     </g>
     <g id="text_11">
      <!-- 0.6 -->
      <g transform="translate(103.096875 193.016937)scale(0.1 -0.1)">
       <use xlink:href="#DejaVuSans-30"/>
       <use xlink:href="#DejaVuSans-2e" x="63.623047"/>
       <use xlink:href="#DejaVuSans-36" x="95.410156"/>
      </g>
     </g>
    </g>
    <g id="ytick_5">
     <g id="line2d_11">
      <g>
       <use xlink:href="#mccbe02dc9b" x="126" y="129.170962" style="stroke: #000000; stroke-width: 0.8"/>
      </g>
     </g>
     <g id="text_12">
      <!-- 0.8 -->
      <g transform="translate(103.096875 132.970181)scale(0.1 -0.1)">
       <use xlink:href="#DejaVuSans-30"/>
       <use xlink:href="#DejaVuSans-2e" x="63.623047"/>
       <use xlink:href="#DejaVuSans-38" x="95.410156"/>
      </g>
     </g>
    </g>
    <g id="ytick_6">
     <g id="line2d_12">
      <g>
       <use xlink:href="#mccbe02dc9b" x="126" y="69.124206" style="stroke: #000000; stroke-width: 0.8"/>
      </g>
     </g>
     <g id="text_13">
      <!-- 1.0 -->
      <g transform="translate(103.096875 72.923425)scale(0.1 -0.1)">
       <use xlink:href="#DejaVuSans-31"/>
       <use xlink:href="#DejaVuSans-2e" x="63.623047"/>
       <use xlink:href="#DejaVuSans-30" x="95.410156"/>
      </g>
     </g>
    </g>
    <g id="text_14">
     <!-- Quadratic Covariation -->
     <g transform="translate(97.017187 272.970156)rotate(-90)scale(0.1 -0.1)">
      <defs>
       <path id="DejaVuSans-51" d="M 2522 4238 
Q 1834 4238 1429 3725 
Q 1025 3213 1025 2328 
Q 1025 1447 1429 934 
Q 1834 422 2522 422 
Q 3209 422 3611 934 
Q 4013 1447 4013 2328 
Q 4013 3213 3611 3725 
Q 3209 4238 2522 4238 
z
M 3406 84 
L 4238 -825 
L 3475 -825 
L 2784 -78 
Q 2681 -84 2626 -87 
Q 2572 -91 2522 -91 
Q 1538 -91 948 567 
Q 359 1225 359 2328 
Q 359 3434 948 4092 
Q 1538 4750 2522 4750 
Q 3503 4750 4090 4092 
Q 4678 3434 4678 2328 
Q 4678 1516 4351 937 
Q 4025 359 3406 84 
z
" transform="scale(0.015625)"/>
       <path id="DejaVuSans-75" d="M 544 1381 
L 544 3500 
L 1119 3500 
L 1119 1403 
Q 1119 906 1312 657 
Q 1506 409 1894 409 
Q 2359 409 2629 706 
Q 2900 1003 2900 1516 
L 2900 3500 
L 3475 3500 
L 3475 0 
L 2900 0 
L 2900 538 
Q 2691 219 2414 64 
Q 2138 -91 1772 -91 
Q 1169 -91 856 284 
Q 544 659 544 1381 
z
M 1991 3584 
L 1991 3584 
z
" transform="scale(0.015625)"/>
       <path id="DejaVuSans-61" d="M 2194 1759 
Q 1497 1759 1228 1600 
Q 959 1441 959 1056 
Q 959 750 1161 570 
Q 1363 391 1709 391 
Q 2188 391 2477 730 
Q 2766 1069 2766 1631 
L 2766 1759 
L 2194 1759 
z
M 3341 1997 
L 3341 0 
L 2766 0 
L 2766 531 
Q 2569 213 2275 61 
Q 1981 -91 1556 -91 
Q 1019 -91 701 211 
Q 384 513 384 1019 
Q 384 1609 779 1909 
Q 1175 2209 1959 2209 
L 2766 2209 
L 2766 2266 
Q 2766 2663 2505 2880 
Q 2244 3097 1772 3097 
Q 1472 3097 1187 3025 
Q 903 2953 641 2809 
L 641 3341 
Q 956 3463 1253 3523 
Q 1550 3584 1831 3584 
Q 2591 3584 2966 3190 
Q 3341 2797 3341 1997 
z
" transform="scale(0.015625)"/>
       <path id="DejaVuSans-64" d="M 2906 2969 
L 2906 4863 
L 3481 4863 
L 3481 0 
L 2906 0 
L 2906 525 
Q 2725 213 2448 61 
Q 2172 -91 1784 -91 
Q 1150 -91 751 415 
Q 353 922 353 1747 
Q 353 2572 751 3078 
Q 1150 3584 1784 3584 
Q 2172 3584 2448 3432 
Q 2725 3281 2906 2969 
z
M 947 1747 
Q 947 1113 1208 752 
Q 1469 391 1925 391 
Q 2381 391 2643 752 
Q 2906 1113 2906 1747 
Q 2906 2381 2643 2742 
Q 2381 3103 1925 3103 
Q 1469 3103 1208 2742 
Q 947 2381 947 1747 
z
" transform="scale(0.015625)"/>
       <path id="DejaVuSans-72" d="M 2631 2963 
Q 2534 3019 2420 3045 
Q 2306 3072 2169 3072 
Q 1681 3072 1420 2755 
Q 1159 2438 1159 1844 
L 1159 0 
L 581 0 
L 581 3500 
L 1159 3500 
L 1159 2956 
Q 1341 3275 1631 3429 
Q 1922 3584 2338 3584 
Q 2397 3584 2469 3576 
Q 2541 3569 2628 3553 
L 2631 2963 
z
" transform="scale(0.015625)"/>
       <path id="DejaVuSans-74" d="M 1172 4494 
L 1172 3500 
L 2356 3500 
L 2356 3053 
L 1172 3053 
L 1172 1153 
Q 1172 725 1289 603 
Q 1406 481 1766 481 
L 2356 481 
L 2356 0 
L 1766 0 
Q 1100 0 847 248 
Q 594 497 594 1153 
L 594 3053 
L 172 3053 
L 172 3500 
L 594 3500 
L 594 4494 
L 1172 4494 
z
" transform="scale(0.015625)"/>
       <path id="DejaVuSans-63" d="M 3122 3366 
L 3122 2828 
Q 2878 2963 2633 3030 
Q 2388 3097 2138 3097 
Q 1578 3097 1268 2742 
Q 959 2388 959 1747 
Q 959 1106 1268 751 
Q 1578 397 2138 397 
Q 2388 397 2633 464 
Q 2878 531 3122 666 
L 3122 134 
Q 2881 22 2623 -34 
Q 2366 -91 2075 -91 
Q 1284 -91 818 406 
Q 353 903 353 1747 
Q 353 2603 823 3093 
Q 1294 3584 2113 3584 
Q 2378 3584 2631 3529 
Q 2884 3475 3122 3366 
z
" transform="scale(0.015625)"/>
       <path id="DejaVuSans-20" transform="scale(0.015625)"/>
       <path id="DejaVuSans-43" d="M 4122 4306 
L 4122 3641 
Q 3803 3938 3442 4084 
Q 3081 4231 2675 4231 
Q 1875 4231 1450 3742 
Q 1025 3253 1025 2328 
Q 1025 1406 1450 917 
Q 1875 428 2675 428 
Q 3081 428 3442 575 
Q 3803 722 4122 1019 
L 4122 359 
Q 3791 134 3420 21 
Q 3050 -91 2638 -91 
Q 1578 -91 968 557 
Q 359 1206 359 2328 
Q 359 3453 968 4101 
Q 1578 4750 2638 4750 
Q 3056 4750 3426 4639 
Q 3797 4528 4122 4306 
z
" transform="scale(0.015625)"/>
       <path id="DejaVuSans-6f" d="M 1959 3097 
Q 1497 3097 1228 2736 
Q 959 2375 959 1747 
Q 959 1119 1226 758 
Q 1494 397 1959 397 
Q 2419 397 2687 759 
Q 2956 1122 2956 1747 
Q 2956 2369 2687 2733 
Q 2419 3097 1959 3097 
z
M 1959 3584 
Q 2709 3584 3137 3096 
Q 3566 2609 3566 1747 
Q 3566 888 3137 398 
Q 2709 -91 1959 -91 
Q 1206 -91 779 398 
Q 353 888 353 1747 
Q 353 2609 779 3096 
Q 1206 3584 1959 3584 
z
" transform="scale(0.015625)"/>
       <path id="DejaVuSans-76" d="M 191 3500 
L 800 3500 
L 1894 563 
L 2988 3500 
L 3597 3500 
L 2284 0 
L 1503 0 
L 191 3500 
z
" transform="scale(0.015625)"/>
       <path id="DejaVuSans-6e" d="M 3513 2113 
L 3513 0 
L 2938 0 
L 2938 2094 
Q 2938 2591 2744 2837 
Q 2550 3084 2163 3084 
Q 1697 3084 1428 2787 
Q 1159 2491 1159 1978 
L 1159 0 
L 581 0 
L 581 3500 
L 1159 3500 
L 1159 2956 
Q 1366 3272 1645 3428 
Q 1925 3584 2291 3584 
Q 2894 3584 3203 3211 
Q 3513 2838 3513 2113 
z
" transform="scale(0.015625)"/>
      </defs>
      <use xlink:href="#DejaVuSans-51"/>
      <use xlink:href="#DejaVuSans-75" x="78.710938"/>
      <use xlink:href="#DejaVuSans-61" x="142.089844"/>
      <use xlink:href="#DejaVuSans-64" x="203.369141"/>
      <use xlink:href="#DejaVuSans-72" x="266.845703"/>
      <use xlink:href="#DejaVuSans-61" x="307.958984"/>
      <use xlink:href="#DejaVuSans-74" x="369.238281"/>
      <use xlink:href="#DejaVuSans-69" x="408.447266"/>
      <use xlink:href="#DejaVuSans-63" x="436.230469"/>
      <use xlink:href="#DejaVuSans-20" x="491.210938"/>
      <use xlink:href="#DejaVuSans-43" x="522.998047"/>
      <use xlink:href="#DejaVuSans-6f" x="592.822266"/>
      <use xlink:href="#DejaVuSans-76" x="654.003906"/>
      <use xlink:href="#DejaVuSans-61" x="713.183594"/>
      <use xlink:href="#DejaVuSans-72" x="774.462891"/>
      <use xlink:href="#DejaVuSans-69" x="815.576172"/>
      <use xlink:href="#DejaVuSans-61" x="843.359375"/>
      <use xlink:href="#DejaVuSans-74" x="904.638672"/>
      <use xlink:href="#DejaVuSans-69" x="943.847656"/>
      <use xlink:href="#DejaVuSans-6f" x="971.630859"/>
      <use xlink:href="#DejaVuSans-6e" x="1032.8125"/>
     </g>
    </g>
   </g>
   <g id="line2d_13">
    <path d="M 161.509091 69.124206 
L 162.219273 69.697489 
L 162.929455 70.469774 
L 163.639636 72.10899 
L 164.349818 71.951981 
L 165.06 70.266884 
L 165.770182 71.358296 
L 166.480364 71.325272 
L 167.190545 70.588395 
L 167.900727 71.005774 
L 168.610909 71.650285 
L 169.321091 69.455043 
L 170.031273 70.984104 
L 170.741455 70.660623 
L 171.451636 69.363899 
L 172.161818 68.504761 
L 172.872 69.298586 
L 173.582182 70.689013 
L 174.292364 71.566751 
L 175.002545 72.066055 
L 175.712727 71.311029 
L 176.422909 71.842906 
L 177.133091 71.657429 
L 177.843273 72.13126 
L 178.553455 71.132913 
L 179.263636 72.84633 
L 179.973818 72.915626 
L 180.684 72.774483 
L 181.394182 73.495674 
L 182.104364 73.620099 
L 182.814545 74.137977 
L 184.234909 76.278533 
L 184.945091 75.126355 
L 185.655273 74.230185 
L 187.075636 73.667291 
L 187.785818 74.031056 
L 188.496 74.00842 
L 189.206182 73.59822 
L 189.916364 73.937794 
L 190.626545 75.097842 
L 191.336727 75.509301 
L 192.046909 75.584673 
L 192.757091 75.337073 
L 193.467273 77.139266 
L 194.887636 77.295255 
L 195.597818 76.704417 
L 196.308 74.943316 
L 197.018182 75.180636 
L 197.728364 76.542378 
L 198.438545 76.434837 
L 199.148727 76.76976 
L 199.858909 78.675387 
L 200.569091 79.128427 
L 201.279273 80.206273 
L 201.989455 79.968189 
L 202.699636 79.309404 
L 203.409818 79.636194 
L 204.12 80.193246 
L 204.830182 80.033542 
L 205.540364 79.226697 
L 206.250545 79.400079 
L 206.960727 78.67385 
L 208.381091 79.937704 
L 209.091273 80.686794 
L 209.801455 82.179172 
L 210.511636 82.244021 
L 211.221818 83.695746 
L 211.932 84.01606 
L 212.642182 82.913907 
L 213.352364 83.023496 
L 214.062545 84.219429 
L 214.772727 85.791111 
L 215.482909 87.743236 
L 216.193091 89.179393 
L 217.613455 87.680144 
L 218.323636 89.334466 
L 219.033818 91.301849 
L 219.744 90.079479 
L 220.454182 89.372391 
L 221.164364 89.835609 
L 221.874545 90.150353 
L 222.584727 89.934287 
L 223.294909 89.222149 
L 224.005091 89.400327 
L 224.715273 92.079022 
L 225.425455 91.422547 
L 226.135636 91.540842 
L 226.845818 91.985757 
L 227.556 92.23877 
L 228.266182 89.750377 
L 228.976364 89.563448 
L 229.686545 90.876328 
L 230.396727 91.167764 
L 231.106909 91.280369 
L 231.817091 90.486237 
L 232.527273 90.731703 
L 233.947636 88.487592 
L 234.657818 88.599066 
L 235.368 89.294352 
L 236.078182 88.963766 
L 237.498545 88.69085 
L 238.208727 89.742485 
L 238.918909 89.338123 
L 239.629091 90.086673 
L 240.339273 90.651738 
L 241.049455 89.187848 
L 241.759636 89.770314 
L 243.890182 89.092768 
L 244.600364 88.1844 
L 245.310545 88.308548 
L 246.020727 88.828372 
L 246.730909 88.471273 
L 248.151273 90.902771 
L 249.571636 89.642471 
L 250.992 87.489877 
L 251.702182 86.859399 
L 252.412364 87.429946 
L 253.122545 86.598649 
L 253.832727 86.334722 
L 254.542909 85.603066 
L 255.253091 87.905179 
L 255.963273 87.930135 
L 256.673455 89.473433 
L 257.383636 89.396213 
L 258.093818 90.016187 
L 258.804 91.689824 
L 259.514182 92.856576 
L 260.224364 92.576251 
L 261.644727 94.836145 
L 262.354909 96.203607 
L 263.065091 96.130023 
L 264.485455 96.355179 
L 265.195636 96.027021 
L 265.905818 95.060137 
L 266.616 95.353954 
L 267.326182 94.045702 
L 268.036364 93.354995 
L 268.746545 93.802567 
L 269.456727 93.254738 
L 270.166909 93.76164 
L 270.877091 92.997871 
L 271.587273 93.423054 
L 272.297455 92.139185 
L 273.007636 92.51128 
L 273.717818 91.304549 
L 274.428 89.073938 
L 275.138182 91.052621 
L 275.848364 89.473619 
L 276.558545 91.162819 
L 277.268727 90.945299 
L 277.978909 89.017812 
L 278.689091 90.188361 
L 280.109455 91.02574 
L 280.819636 90.63555 
L 281.529818 90.036992 
L 282.24 89.669161 
L 282.950182 87.778681 
L 283.660364 88.353851 
L 284.370545 89.155277 
L 285.080727 90.607889 
L 285.790909 90.845426 
L 286.501091 91.729778 
L 287.211273 91.941205 
L 287.921455 92.498277 
L 288.631636 92.407884 
L 289.341818 92.984763 
L 290.052 93.118792 
L 290.762182 92.445868 
L 291.472364 92.558808 
L 292.182545 93.272433 
L 292.892727 94.209944 
L 293.602909 95.964534 
L 294.313091 96.753841 
L 295.023273 96.374494 
L 295.733455 96.911524 
L 296.443636 96.838419 
L 297.153818 97.584802 
L 297.864 98.652849 
L 299.284364 98.999564 
L 299.994545 100.271313 
L 300.704727 99.579805 
L 301.414909 99.498247 
L 302.125091 99.870067 
L 302.835273 100.422146 
L 303.545455 99.118478 
L 304.255636 98.576693 
L 304.965818 99.567897 
L 305.676 99.534133 
L 306.386182 98.400033 
L 307.096364 97.521766 
L 307.806545 98.656418 
L 308.516727 98.271413 
L 309.226909 98.41147 
L 309.937091 98.727147 
L 310.647273 99.919121 
L 311.357455 100.023862 
L 312.067636 100.709989 
L 312.777818 100.028851 
L 313.488 102.247924 
L 314.198182 100.99528 
L 314.908364 100.151277 
L 315.618545 99.791298 
L 316.328727 100.268203 
L 317.038909 101.01251 
L 317.749091 100.858939 
L 318.459273 101.916971 
L 319.169455 102.282115 
L 319.879636 101.77889 
L 320.589818 101.820052 
L 321.3 102.46547 
L 322.010182 102.418813 
L 322.720364 101.951411 
L 323.430545 103.029655 
L 324.140727 101.918065 
L 324.850909 103.192988 
L 327.691636 104.960619 
L 329.112 106.470538 
L 329.822182 106.933354 
L 331.242545 107.380038 
L 331.952727 107.629864 
L 332.662909 108.699749 
L 333.373091 107.413749 
L 334.083273 105.875143 
L 335.503636 106.044998 
L 336.924 107.984862 
L 337.634182 106.226277 
L 339.054545 107.466729 
L 339.764727 108.698368 
L 340.474909 109.248953 
L 341.185091 107.68612 
L 341.895273 107.110506 
L 342.605455 108.15737 
L 343.315636 107.992616 
L 344.025818 109.073096 
L 344.736 109.219748 
L 345.446182 110.87745 
L 346.156364 110.593529 
L 346.866545 110.820291 
L 347.576727 110.135507 
L 348.286909 108.50204 
L 348.997091 108.671626 
L 349.707273 109.155893 
L 350.417455 109.921723 
L 351.127636 109.451859 
L 351.837818 109.384933 
L 353.258182 108.764395 
L 353.968364 109.411398 
L 354.678545 109.125942 
L 355.388727 108.639054 
L 356.098909 107.575014 
L 356.809091 108.294808 
L 357.519273 107.031756 
L 358.229455 106.573165 
L 358.939636 106.754396 
L 359.649818 105.871314 
L 361.070182 106.013182 
L 361.780364 105.168 
L 362.490545 104.733571 
L 363.200727 103.901837 
L 363.910909 104.521384 
L 364.621091 103.886753 
L 366.041455 99.922791 
L 366.751636 99.120704 
L 367.461818 98.983426 
L 368.172 98.182114 
L 369.592364 95.860984 
L 370.302545 96.668737 
L 371.012727 96.300052 
L 372.433091 94.389214 
L 373.143273 94.805825 
L 373.853455 94.284657 
L 374.563636 95.089493 
L 375.273818 95.703768 
L 375.984 96.567815 
L 377.404364 95.519717 
L 378.114545 95.223704 
L 378.824727 94.202562 
L 379.534909 94.729835 
L 380.245091 93.950797 
L 380.955273 92.789038 
L 381.665455 92.624753 
L 382.375636 92.179768 
L 383.085818 90.783274 
L 383.796 91.439067 
L 384.506182 91.35471 
L 385.216364 91.095684 
L 385.926545 89.646786 
L 386.636727 89.742272 
L 388.057091 87.244076 
L 388.767273 87.642246 
L 389.477455 89.043437 
L 390.187636 88.705073 
L 390.897818 89.762692 
L 391.608 88.879568 
L 392.318182 88.304573 
L 393.028364 88.499272 
L 393.738545 89.442534 
L 394.448727 88.077952 
L 395.158909 89.383016 
L 395.869091 88.295726 
L 396.579273 89.57516 
L 397.289455 89.789147 
L 398.709818 88.0359 
L 399.42 88.249822 
L 400.130182 89.506184 
L 400.840364 88.754873 
L 401.550545 90.039815 
L 402.260727 90.796091 
L 402.970909 91.731726 
L 403.681091 92.932924 
L 404.391273 93.66738 
L 405.101455 92.404679 
L 405.811636 93.37229 
L 406.521818 92.619711 
L 407.232 92.367675 
L 407.942182 92.525904 
L 408.652364 93.555965 
L 409.362545 91.600301 
L 410.072727 91.676506 
L 410.782909 92.443618 
L 411.493091 91.679044 
L 412.203273 93.994647 
L 412.913455 91.01353 
L 413.623636 89.659835 
L 414.333818 91.075444 
L 415.044 89.430472 
L 415.754182 90.704481 
L 416.464364 91.382007 
L 417.174545 89.993011 
L 417.884727 90.249794 
L 418.594909 91.288173 
L 419.305091 91.233214 
L 420.015273 91.700779 
L 420.725455 90.515328 
L 421.435636 89.718797 
L 422.145818 92.448981 
L 422.856 91.42217 
L 423.566182 91.606077 
L 424.276364 92.26444 
L 424.986545 90.437853 
L 425.696727 90.068751 
L 426.406909 89.363096 
L 427.117091 90.799985 
L 427.827273 89.634125 
L 428.537455 89.645638 
L 429.247636 89.795661 
L 429.957818 88.663912 
L 430.668 88.014046 
L 431.378182 87.708238 
L 432.798545 86.615238 
L 433.508727 87.72975 
L 434.218909 88.409858 
L 434.929091 88.654604 
L 435.639273 87.298499 
L 436.349455 87.26487 
L 437.059636 87.003833 
L 437.769818 88.003406 
L 438.48 87.374933 
L 439.190182 87.440669 
L 440.610545 84.42749 
L 441.320727 83.981065 
L 442.030909 83.169949 
L 442.741091 82.929005 
L 443.451273 81.869425 
L 444.161455 82.404827 
L 445.581818 84.848061 
L 446.292 83.719606 
L 447.002182 83.993813 
L 447.712364 85.1336 
L 448.422545 85.363218 
L 449.132727 84.016282 
L 449.842909 85.659745 
L 450.553091 84.471912 
L 451.263273 82.882568 
L 451.973455 84.222786 
L 452.683636 83.250304 
L 454.104 82.608321 
L 454.814182 81.267502 
L 455.524364 80.465128 
L 456.234545 80.34393 
L 456.944727 81.370795 
L 457.654909 80.417494 
L 459.075273 82.127995 
L 459.785455 80.684488 
L 460.495636 80.73854 
L 461.916 82.83026 
L 462.626182 85.161297 
L 463.336364 85.241368 
L 464.046545 85.01261 
L 464.756727 85.324814 
L 465.466909 85.390624 
L 466.177091 86.256769 
L 466.887273 86.620537 
L 467.597455 85.752847 
L 468.307636 85.925026 
L 469.017818 86.386106 
L 469.728 88.75718 
L 470.438182 89.568951 
L 471.148364 89.560647 
L 471.858545 89.690699 
L 472.568727 90.272797 
L 473.278909 90.697589 
L 473.989091 90.219856 
L 474.699273 91.055347 
L 475.409455 89.938831 
L 476.119636 90.389509 
L 476.829818 91.390141 
L 477.54 90.903086 
L 478.250182 91.896244 
L 478.960364 91.029342 
L 479.670545 91.376747 
L 480.380727 91.113912 
L 481.801091 87.969654 
L 482.511273 88.154942 
L 483.221455 87.582809 
L 483.931636 87.814687 
L 484.641818 88.592161 
L 485.352 88.767776 
L 486.062182 87.742515 
L 486.772364 89.93629 
L 487.482545 89.123561 
L 488.192727 88.698525 
L 488.902909 90.864059 
L 489.613091 91.258132 
L 490.323273 92.327448 
L 491.033455 91.911354 
L 491.743636 92.749967 
L 492.453818 92.443843 
L 493.164 91.987453 
L 493.874182 91.275152 
L 494.584364 90.793515 
L 495.294545 90.527341 
L 496.004727 88.838219 
L 496.714909 90.036541 
L 497.425091 90.623361 
L 498.135273 89.64014 
L 498.845455 88.319175 
L 499.555636 89.562384 
L 500.265818 88.208365 
L 500.976 88.751138 
L 501.686182 89.147988 
L 502.396364 88.453055 
L 503.106545 88.770362 
L 503.816727 89.273182 
L 504.526909 88.3757 
L 505.237091 89.705488 
L 505.947273 88.771098 
L 506.657455 89.79815 
L 507.367636 88.143034 
L 509.498182 89.140466 
L 510.208364 87.290905 
L 510.918545 86.961602 
L 511.628727 86.447268 
L 512.338909 88.330776 
L 513.049091 89.513162 
L 513.759273 88.646506 
L 514.469455 89.424522 
L 515.179636 91.378844 
L 515.889818 90.093606 
L 516.6 90.147252 
L 517.310182 90.8214 
L 518.020364 90.02598 
L 518.730545 88.485464 
L 519.440727 87.834562 
L 520.150909 88.661152 
L 520.861091 88.433129 
L 521.571273 89.827322 
L 522.281455 89.394865 
L 522.991636 89.146957 
L 523.701818 89.240824 
L 524.412 89.644488 
L 525.122182 91.176512 
L 525.832364 89.387293 
L 526.542545 90.057234 
L 527.252727 88.424315 
L 527.962909 89.920625 
L 528.673091 91.993616 
L 530.093455 90.060917 
L 530.803636 91.103943 
L 531.513818 90.396983 
L 532.224 90.748579 
L 532.934182 90.238658 
L 533.644364 90.247251 
L 534.354545 90.104635 
L 535.064727 91.060657 
L 535.774909 92.240083 
L 536.485091 91.643745 
L 537.195273 93.684226 
L 537.905455 92.976026 
L 538.615636 93.898684 
L 539.325818 92.830631 
L 540.036 93.251827 
L 541.456364 93.337887 
L 542.166545 92.728621 
L 542.876727 92.842176 
L 543.586909 92.700157 
L 544.297091 94.499155 
L 545.007273 94.137835 
L 545.717455 93.444712 
L 546.427636 93.646693 
L 547.137818 94.459225 
L 547.848 92.763494 
L 548.558182 92.918948 
L 549.268364 91.752721 
L 549.978545 92.379376 
L 550.688727 94.003998 
L 551.398909 92.62545 
L 552.109091 94.13038 
L 553.529455 94.047642 
L 554.239636 94.044383 
L 554.949818 93.163582 
L 555.66 91.103609 
L 556.370182 91.442327 
L 557.080364 91.523763 
L 557.790545 91.91119 
L 558.500727 91.791854 
L 559.210909 92.071533 
L 559.921091 91.307996 
L 560.631273 91.9557 
L 561.341455 92.405629 
L 562.051636 91.581013 
L 562.761818 90.138953 
L 563.472 91.153992 
L 564.182182 91.891094 
L 564.892364 90.396439 
L 565.602545 89.565248 
L 566.312727 89.379359 
L 567.022909 89.623453 
L 567.733091 90.04098 
L 568.443273 90.329454 
L 569.153455 90.137303 
L 569.863636 91.591034 
L 570.573818 91.794909 
L 571.284 92.861208 
L 571.994182 91.874109 
L 572.704364 92.31603 
L 573.414545 90.907818 
L 574.124727 91.789237 
L 574.834909 90.872125 
L 575.545091 90.988603 
L 576.255273 90.443598 
L 576.965455 90.279099 
L 577.675636 89.186876 
L 578.385818 90.171504 
L 579.096 89.616024 
L 579.806182 90.180933 
L 580.516364 88.349189 
L 581.226545 87.775236 
L 581.936727 88.292583 
L 583.357091 91.380003 
L 584.067273 90.522615 
L 584.777455 92.229953 
L 586.908 93.865268 
L 587.618182 94.085722 
L 588.328364 92.784431 
L 589.038545 92.037379 
L 589.748727 92.692125 
L 590.458909 92.608567 
L 591.169091 93.57334 
L 591.879273 93.577337 
L 592.589455 93.095014 
L 593.299636 94.048661 
L 594.009818 92.728966 
L 594.72 91.870633 
L 595.430182 92.19049 
L 596.140364 90.861222 
L 597.560727 90.072266 
L 598.981091 88.618613 
L 601.111636 90.979574 
L 601.821818 91.091575 
L 602.532 91.433112 
L 603.242182 92.052106 
L 603.952364 91.912239 
L 604.662545 92.021309 
L 605.372727 92.254425 
L 606.082909 92.03861 
L 606.793091 93.862653 
L 607.503273 93.527698 
L 608.213455 93.436196 
L 608.923636 93.180876 
L 609.633818 94.056585 
L 610.344 93.254934 
L 611.054182 93.399894 
L 611.764364 92.866148 
L 612.474545 92.190652 
L 613.184727 92.337187 
L 613.894909 91.408407 
L 614.605091 91.545118 
L 615.315273 90.935997 
L 616.025455 90.100483 
L 616.735636 90.115623 
L 617.445818 89.363706 
L 618.866182 90.938539 
L 619.576364 91.335562 
L 620.996727 89.539785 
L 621.706909 88.615244 
L 622.417091 87.48489 
L 623.127273 87.162966 
L 623.837455 88.086979 
L 625.257818 87.597499 
L 625.968 87.889347 
L 626.678182 87.056386 
L 627.388364 87.021861 
L 628.098545 87.224445 
L 628.808727 86.193698 
L 629.518909 86.429971 
L 630.229091 87.574596 
L 630.939273 88.010259 
L 631.649455 89.877626 
L 632.359636 90.043627 
L 633.069818 90.495991 
L 633.78 89.178589 
L 634.490182 88.481958 
L 635.200364 87.47303 
L 635.910545 87.901443 
L 636.620727 86.554686 
L 638.041091 87.231776 
L 638.751273 88.437919 
L 639.461455 88.348252 
L 640.171636 88.987813 
L 640.881818 88.481421 
L 641.592 87.57357 
L 642.302182 87.985497 
L 643.722545 87.392993 
L 644.432727 87.711305 
L 645.142909 87.247246 
L 645.853091 88.344129 
L 646.563273 87.910958 
L 647.273455 88.790532 
L 647.983636 87.627884 
L 648.693818 87.774969 
L 649.404 88.042773 
L 650.114182 89.480438 
L 650.824364 89.724754 
L 651.534545 90.735049 
L 652.244727 90.112587 
L 652.954909 92.218972 
L 653.665091 90.895274 
L 654.375273 91.354154 
L 655.085455 90.485708 
L 655.795636 88.978476 
L 657.216 88.035594 
L 657.926182 88.762545 
L 658.636364 89.147612 
L 659.346545 88.84966 
L 660.766909 89.360071 
L 661.477091 89.629926 
L 662.187273 87.986506 
L 662.897455 88.551976 
L 663.607636 88.340941 
L 664.317818 87.041573 
L 665.028 87.224674 
L 666.448364 90.091592 
L 667.158545 88.501739 
L 667.868727 88.613138 
L 668.578909 87.531253 
L 669.289091 85.954308 
L 669.999273 86.362908 
L 670.709455 87.178432 
L 671.419636 89.213028 
L 672.84 89.935404 
L 673.550182 90.011309 
L 674.260364 89.437674 
L 674.970545 90.697538 
L 675.680727 89.52917 
L 676.390909 89.358425 
L 677.101091 87.515256 
L 677.811273 87.416551 
L 678.521455 87.17745 
L 679.231636 86.229161 
L 679.941818 88.052647 
L 680.652 87.465446 
L 682.072364 89.021695 
L 682.782545 88.204408 
L 683.492727 88.37273 
L 684.202909 89.21688 
L 684.913091 88.027205 
L 685.623273 87.500726 
L 686.333455 86.415325 
L 687.043636 86.491394 
L 687.753818 86.27499 
L 688.464 86.467009 
L 689.884364 88.114548 
L 690.594545 86.847183 
L 691.304727 87.551134 
L 692.014909 86.49152 
L 693.435273 87.735732 
L 694.145455 87.515575 
L 694.855636 87.85801 
L 695.565818 87.480901 
L 696.986182 89.118534 
L 697.696364 89.859182 
L 698.406545 89.555806 
L 699.116727 89.453794 
L 700.537091 91.739873 
L 701.247273 92.020681 
L 701.957455 90.477627 
L 702.667636 89.503344 
L 703.377818 89.289416 
L 704.088 88.124141 
L 704.798182 87.945664 
L 705.508364 85.979284 
L 706.218545 86.686254 
L 707.638909 86.902921 
L 709.059273 88.756336 
L 709.769455 90.280938 
L 710.479636 89.906294 
L 711.189818 90.546597 
L 711.9 90.847564 
L 712.610182 91.595745 
L 713.320364 91.132265 
L 714.030545 93.307141 
L 714.740727 94.531379 
L 715.450909 94.591841 
L 716.161091 93.984536 
L 716.871273 94.485098 
L 717.581455 94.17932 
L 718.291636 94.222776 
L 719.001818 94.40633 
L 719.712 96.309101 
L 721.132364 97.541576 
L 721.842545 97.543988 
L 722.552727 98.085044 
L 723.262909 97.659152 
L 723.973091 97.810403 
L 725.393455 95.60231 
L 726.103636 95.876529 
L 726.813818 96.387775 
L 727.524 98.640454 
L 728.234182 97.2567 
L 728.944364 98.352606 
L 729.654545 100.028633 
L 730.364727 99.650401 
L 731.074909 98.046139 
L 731.785091 98.857135 
L 732.495273 100.792152 
L 733.205455 101.737515 
L 733.915636 101.959317 
L 734.625818 100.524851 
L 736.046182 101.871035 
L 736.756364 101.428948 
L 737.466545 102.430154 
L 738.176727 100.078374 
L 738.886909 100.056671 
L 739.597091 98.572093 
L 740.307273 100.680636 
L 741.017455 99.809439 
L 741.727636 99.453099 
L 742.437818 100.934798 
L 743.148 99.350599 
L 743.858182 98.838606 
L 744.568364 98.526596 
L 745.278545 96.64694 
L 745.988727 96.500425 
L 746.698909 94.784931 
L 747.409091 95.000747 
L 748.119273 95.352589 
L 748.829455 95.883847 
L 749.539636 96.844811 
L 750.249818 95.485448 
L 750.96 95.812061 
L 751.670182 97.714377 
L 752.380364 97.916327 
L 753.090545 97.638764 
L 753.800727 97.895216 
L 754.510909 99.321947 
L 755.221091 99.716433 
L 755.931273 99.619161 
L 756.641455 100.582651 
L 757.351636 100.584795 
L 758.061818 99.848524 
L 758.772 99.497859 
L 759.482182 100.017252 
L 760.192364 100.105333 
L 760.902545 100.720039 
L 761.612727 100.618082 
L 762.322909 99.096257 
L 763.033091 97.214283 
L 763.743273 95.932084 
L 764.453455 97.530503 
L 765.163636 98.184273 
L 765.873818 98.507972 
L 766.584 97.733877 
L 767.294182 98.208749 
L 768.004364 95.735484 
L 768.714545 96.038038 
L 769.424727 95.858629 
L 770.134909 95.45633 
L 770.845091 93.541139 
L 771.555273 92.491194 
L 772.265455 93.144461 
L 772.975636 93.046292 
L 773.685818 93.138793 
L 774.396 92.633686 
L 775.106182 93.388661 
L 775.816364 93.885572 
L 776.526545 93.907474 
L 777.236727 93.5018 
L 777.946909 93.746071 
L 778.657091 93.440177 
L 780.077455 91.135741 
L 781.497818 91.336212 
L 782.208 91.053626 
L 782.918182 91.227271 
L 783.628364 90.618761 
L 784.338545 92.444189 
L 785.048727 92.48684 
L 785.758909 93.214988 
L 786.469091 92.786976 
L 787.179273 91.290513 
L 787.889455 91.180246 
L 788.599636 91.473086 
L 790.02 90.459997 
L 790.730182 90.858523 
L 791.440364 91.397721 
L 792.150545 91.042276 
L 792.860727 88.760172 
L 793.570909 90.043677 
L 794.281091 88.971008 
L 794.991273 89.794961 
L 795.701455 90.328293 
L 796.411636 92.081825 
L 797.121818 90.920827 
L 797.832 92.946864 
L 798.542182 92.571713 
L 799.252364 93.42589 
L 799.962545 93.56658 
L 800.672727 94.190074 
L 802.093091 94.181393 
L 802.803273 93.756312 
L 804.223636 91.586215 
L 804.933818 92.051773 
L 805.644 91.279547 
L 806.354182 91.910433 
L 807.064364 92.235732 
L 807.774545 93.746866 
L 808.484727 94.486811 
L 809.194909 93.256161 
L 809.905091 92.447654 
L 810.615273 92.347243 
L 811.325455 91.965033 
L 812.035636 92.037834 
L 812.745818 91.8092 
L 813.456 90.774987 
L 814.166182 91.032944 
L 814.876364 92.171475 
L 815.586545 91.075522 
L 816.296727 90.187074 
L 817.006909 89.834684 
L 817.717091 91.345532 
L 818.427273 91.46784 
L 819.137455 92.745708 
L 819.847636 93.072022 
L 820.557818 93.228927 
L 821.268 92.572052 
L 821.978182 92.815093 
L 822.688364 92.375639 
L 824.108727 91.25406 
L 824.818909 91.171724 
L 825.529091 92.310674 
L 826.239273 94.598813 
L 826.949455 95.61522 
L 827.659636 95.101493 
L 828.369818 95.760546 
L 829.08 93.351728 
L 829.790182 93.641607 
L 830.500364 93.445489 
L 831.210545 92.627036 
L 831.920727 92.477131 
L 832.630909 91.793931 
L 833.341091 91.505577 
L 834.051273 89.671967 
L 834.761455 89.111968 
L 835.471636 87.393324 
L 836.181818 87.450796 
L 836.892 88.914025 
L 837.602182 88.984683 
L 838.312364 88.781635 
L 839.022545 88.255894 
L 840.442909 90.361871 
L 841.153091 90.067037 
L 841.863273 89.628132 
L 842.573455 91.167462 
L 843.283636 91.21757 
L 843.993818 91.924017 
L 844.704 92.289971 
L 845.414182 92.378581 
L 846.124364 93.786155 
L 848.254909 91.461153 
L 848.965091 91.949426 
L 849.675273 90.87831 
L 850.385455 92.12948 
L 851.095636 91.932848 
L 851.805818 91.861882 
L 852.516 90.388929 
L 853.226182 89.790604 
L 853.936364 88.889431 
L 855.356727 88.311166 
L 856.066909 88.905863 
L 856.777091 88.860527 
L 858.197455 87.766534 
L 858.907636 88.215968 
L 860.328 86.898523 
L 861.038182 85.57522 
L 861.748364 86.900757 
L 862.458545 86.030696 
L 863.168727 86.699311 
L 863.878909 85.073626 
L 864.589091 86.245784 
L 865.299273 86.89631 
L 866.009455 88.051887 
L 866.719636 88.788946 
L 867.429818 86.614347 
L 868.14 87.681708 
L 868.850182 88.165684 
L 869.560364 86.550939 
L 870.270545 86.022777 
L 871.690909 84.562838 
L 871.690909 84.562838 
" clip-path="url(#p641401dafd)" style="fill: none; stroke: #1f77b4; stroke-width: 1.5; stroke-linecap: square"/>
   </g>
   <g id="line2d_14">
    <path d="M 161.509091 69.124206 
L 162.219273 68.069045 
L 162.929455 68.659581 
L 163.639636 69.813594 
L 164.349818 70.461781 
L 165.06 69.929449 
L 165.770182 70.815507 
L 166.480364 69.342691 
L 167.190545 70.166472 
L 167.900727 72.270976 
L 168.610909 73.084038 
L 169.321091 70.362641 
L 170.031273 71.982394 
L 170.741455 71.580972 
L 171.451636 68.275101 
L 172.161818 66.96 
L 172.872 67.756483 
L 173.582182 69.944057 
L 174.292364 71.671029 
L 175.002545 71.473565 
L 175.712727 71.112003 
L 176.422909 71.494303 
L 177.133091 70.552319 
L 177.843273 71.497028 
L 178.553455 69.605011 
L 179.263636 71.405835 
L 179.973818 69.33201 
L 180.684 68.362347 
L 182.814545 69.868338 
L 183.524727 72.374897 
L 184.234909 73.420492 
L 184.945091 71.7992 
L 185.655273 70.620032 
L 186.365455 71.340652 
L 187.075636 70.912648 
L 187.785818 71.155848 
L 188.496 70.693011 
L 189.206182 70.641749 
L 190.626545 72.252046 
L 191.336727 72.023485 
L 192.046909 71.481759 
L 192.757091 70.790308 
L 193.467273 72.679252 
L 194.177455 73.255081 
L 194.887636 72.610777 
L 195.597818 72.359327 
L 196.308 71.979465 
L 197.018182 72.165069 
L 197.728364 74.371541 
L 198.438545 75.694399 
L 199.858909 81.47093 
L 200.569091 80.391612 
L 201.279273 81.452369 
L 201.989455 81.633402 
L 203.409818 82.848757 
L 204.12 83.83179 
L 204.830182 82.304823 
L 205.540364 81.884581 
L 206.250545 82.559659 
L 206.960727 81.396129 
L 207.670909 83.896042 
L 208.381091 83.429881 
L 209.091273 85.32989 
L 209.801455 85.181032 
L 210.511636 84.350017 
L 211.932 87.870832 
L 212.642182 86.309785 
L 213.352364 88.175004 
L 214.772727 90.236196 
L 215.482909 94.453595 
L 216.193091 94.22615 
L 216.903273 93.382302 
L 217.613455 94.65549 
L 218.323636 97.265278 
L 219.033818 100.613486 
L 219.744 99.042529 
L 220.454182 99.659197 
L 221.164364 100.724396 
L 221.874545 100.493336 
L 222.584727 100.979573 
L 223.294909 102.486034 
L 224.005091 102.440124 
L 224.715273 105.571138 
L 225.425455 104.704189 
L 226.135636 103.523741 
L 226.845818 104.035663 
L 227.556 104.193809 
L 228.266182 101.024629 
L 228.976364 101.47993 
L 229.686545 102.894653 
L 230.396727 101.361287 
L 231.106909 101.396045 
L 231.817091 99.682433 
L 232.527273 101.704403 
L 233.237455 100.534642 
L 233.947636 98.927342 
L 234.657818 98.028175 
L 235.368 99.118219 
L 236.078182 97.966533 
L 236.788364 97.841417 
L 237.498545 97.417611 
L 238.208727 99.151348 
L 238.918909 99.610956 
L 239.629091 99.100495 
L 240.339273 99.545226 
L 241.049455 99.822572 
L 241.759636 99.891567 
L 242.469818 101.466227 
L 243.18 100.86804 
L 243.890182 101.245748 
L 244.600364 100.062221 
L 245.310545 99.59941 
L 246.020727 99.569927 
L 246.730909 98.466847 
L 248.151273 100.364048 
L 248.861455 97.425133 
L 249.571636 95.303571 
L 250.281818 95.570664 
L 250.992 96.102554 
L 251.702182 96.091142 
L 253.122545 98.287524 
L 253.832727 98.881234 
L 254.542909 97.254878 
L 255.253091 100.768771 
L 255.963273 100.22082 
L 256.673455 101.331778 
L 257.383636 101.821317 
L 258.093818 103.811128 
L 259.514182 107.036748 
L 260.224364 107.212678 
L 260.934545 108.766464 
L 261.644727 109.028106 
L 262.354909 111.267131 
L 263.065091 109.752551 
L 263.775273 109.445298 
L 264.485455 110.046647 
L 265.195636 109.793028 
L 265.905818 108.639511 
L 266.616 108.365714 
L 267.326182 106.62712 
L 268.036364 106.084064 
L 268.746545 106.240609 
L 269.456727 105.446605 
L 270.166909 106.278037 
L 270.877091 104.903373 
L 271.587273 105.104929 
L 272.297455 106.37514 
L 273.007636 108.919751 
L 273.717818 106.778828 
L 274.428 103.276448 
L 275.138182 103.315526 
L 275.848364 101.633326 
L 276.558545 103.541768 
L 277.268727 103.392442 
L 277.978909 100.365266 
L 278.689091 100.34207 
L 279.399273 100.083738 
L 280.109455 101.485437 
L 280.819636 100.67354 
L 281.529818 100.907678 
L 282.24 101.55998 
L 282.950182 100.109868 
L 283.660364 100.503245 
L 284.370545 100.442725 
L 285.080727 104.597434 
L 285.790909 104.725892 
L 286.501091 106.708893 
L 287.211273 106.770314 
L 287.921455 107.098342 
L 288.631636 107.027917 
L 289.341818 106.385929 
L 290.052 106.980438 
L 290.762182 105.762243 
L 291.472364 105.874908 
L 292.182545 107.355086 
L 292.892727 106.360363 
L 293.602909 107.771321 
L 294.313091 108.786388 
L 295.023273 107.858379 
L 295.733455 108.806457 
L 296.443636 108.841424 
L 297.153818 109.933332 
L 297.864 110.347022 
L 298.574182 111.771241 
L 299.284364 112.050688 
L 299.994545 113.196069 
L 300.704727 113.126105 
L 301.414909 112.539801 
L 302.125091 112.704635 
L 302.835273 113.249699 
L 303.545455 111.666869 
L 304.965818 113.015445 
L 305.676 113.06893 
L 306.386182 113.316478 
L 307.096364 112.253061 
L 307.806545 113.91676 
L 308.516727 113.030787 
L 309.226909 113.98098 
L 309.937091 116.284312 
L 310.647273 116.569641 
L 312.067636 118.451249 
L 312.777818 119.114615 
L 313.488 121.073284 
L 314.198182 120.517696 
L 314.908364 118.103753 
L 315.618545 118.335873 
L 316.328727 118.702725 
L 317.038909 120.45043 
L 317.749091 119.279089 
L 318.459273 120.266992 
L 319.169455 122.228675 
L 319.879636 123.354494 
L 320.589818 123.908032 
L 321.3 125.926301 
L 322.010182 126.728633 
L 322.720364 126.097681 
L 323.430545 126.323923 
L 324.140727 125.33978 
L 324.850909 127.591659 
L 325.561091 127.321889 
L 326.271273 128.128685 
L 326.981455 129.456879 
L 327.691636 129.44807 
L 328.401818 130.258273 
L 329.112 131.577709 
L 329.822182 134.114776 
L 330.532364 134.931608 
L 331.952727 135.548768 
L 332.662909 137.795661 
L 333.373091 135.028624 
L 334.083273 133.438542 
L 334.793455 132.766906 
L 335.503636 132.700482 
L 336.213818 134.806573 
L 336.924 135.888843 
L 337.634182 134.915789 
L 338.344364 137.546429 
L 339.054545 139.228416 
L 339.764727 139.583019 
L 340.474909 138.743643 
L 341.185091 137.179352 
L 341.895273 137.336892 
L 342.605455 138.877131 
L 343.315636 138.050697 
L 344.025818 138.884873 
L 344.736 137.901802 
L 345.446182 140.020668 
L 346.156364 140.12329 
L 346.866545 141.308963 
L 348.286909 137.846854 
L 348.997091 139.469495 
L 349.707273 139.175042 
L 350.417455 140.015294 
L 351.127636 140.394539 
L 352.548 140.320398 
L 353.258182 140.409014 
L 353.968364 140.715456 
L 354.678545 140.081401 
L 355.388727 140.464008 
L 356.098909 140.225057 
L 356.809091 141.278395 
L 357.519273 138.144685 
L 358.229455 137.107246 
L 358.939636 136.614695 
L 359.649818 135.401553 
L 360.36 134.843098 
L 361.070182 134.532595 
L 361.780364 132.094544 
L 362.490545 130.450338 
L 363.200727 128.365961 
L 363.910909 130.563483 
L 364.621091 130.861488 
L 365.331273 128.879261 
L 366.041455 127.845849 
L 366.751636 125.432147 
L 367.461818 124.62712 
L 368.172 125.146704 
L 368.882182 124.384133 
L 369.592364 124.144443 
L 370.302545 125.349851 
L 371.012727 125.54148 
L 371.722909 125.225335 
L 372.433091 124.170168 
L 373.143273 124.964825 
L 373.853455 122.726605 
L 374.563636 124.152491 
L 375.273818 125.968284 
L 375.984 126.331452 
L 376.694182 125.374259 
L 377.404364 123.945191 
L 378.114545 124.126221 
L 378.824727 122.116066 
L 379.534909 124.424646 
L 380.245091 123.956851 
L 380.955273 123.021512 
L 381.665455 125.871351 
L 382.375636 125.066405 
L 383.085818 123.018486 
L 383.796 123.56403 
L 384.506182 123.758164 
L 385.216364 122.301912 
L 385.926545 119.553342 
L 386.636727 120.109723 
L 387.346909 118.104871 
L 388.057091 116.886988 
L 388.767273 116.960005 
L 389.477455 117.884645 
L 390.187636 115.988002 
L 390.897818 118.803393 
L 391.608 118.026134 
L 392.318182 115.997421 
L 393.028364 116.367948 
L 393.738545 119.417892 
L 394.448727 116.477336 
L 395.158909 117.763757 
L 395.869091 115.634281 
L 396.579273 116.920855 
L 397.289455 116.84362 
L 397.999636 117.701202 
L 398.709818 115.28597 
L 399.42 115.168802 
L 400.130182 117.6682 
L 400.840364 115.724894 
L 401.550545 117.338716 
L 402.260727 116.132885 
L 403.681091 118.872505 
L 404.391273 119.144486 
L 405.101455 117.136108 
L 405.811636 117.927802 
L 406.521818 116.794897 
L 408.652364 118.06169 
L 409.362545 115.339378 
L 410.072727 115.680138 
L 410.782909 115.294869 
L 411.493091 113.536796 
L 412.203273 115.956381 
L 412.913455 115.068508 
L 413.623636 113.879212 
L 414.333818 115.046909 
L 415.044 114.474437 
L 415.754182 115.643267 
L 416.464364 115.198836 
L 417.174545 113.503867 
L 418.594909 116.210984 
L 419.305091 115.912975 
L 420.015273 116.632352 
L 421.435636 112.728496 
L 422.145818 113.609834 
L 422.856 111.408731 
L 423.566182 111.541131 
L 424.276364 110.895855 
L 424.986545 109.724385 
L 425.696727 109.010523 
L 426.406909 108.651689 
L 427.117091 109.286425 
L 427.827273 108.009856 
L 428.537455 108.035894 
L 429.247636 109.267385 
L 429.957818 107.651266 
L 430.668 108.906515 
L 431.378182 108.748906 
L 432.088364 109.407856 
L 432.798545 109.253965 
L 433.508727 110.412414 
L 434.218909 110.500452 
L 434.929091 109.232485 
L 435.639273 109.838693 
L 436.349455 112.082286 
L 437.059636 109.484656 
L 437.769818 110.637767 
L 438.48 110.11575 
L 439.190182 110.168128 
L 439.900364 108.991786 
L 442.030909 106.981175 
L 442.741091 106.677532 
L 444.161455 105.209917 
L 444.871636 105.771421 
L 445.581818 107.51756 
L 446.292 104.997914 
L 447.002182 105.701567 
L 447.712364 107.294068 
L 448.422545 108.281373 
L 449.132727 106.1775 
L 449.842909 105.522862 
L 450.553091 105.261993 
L 451.263273 103.497233 
L 451.973455 106.231734 
L 452.683636 104.673374 
L 453.393818 104.206771 
L 454.104 104.363049 
L 454.814182 102.233893 
L 455.524364 101.334768 
L 456.234545 100.165418 
L 456.944727 102.416129 
L 457.654909 99.583906 
L 458.365091 100.325536 
L 459.785455 98.155173 
L 460.495636 98.270146 
L 461.916 101.167304 
L 462.626182 104.557042 
L 463.336364 103.981446 
L 464.046545 103.832152 
L 464.756727 103.337855 
L 465.466909 102.34188 
L 466.177091 103.292394 
L 466.887273 105.182418 
L 467.597455 104.429284 
L 468.307636 104.326721 
L 469.017818 105.377386 
L 469.728 107.623227 
L 470.438182 107.078039 
L 471.148364 107.143835 
L 471.858545 107.934446 
L 473.278909 108.389334 
L 473.989091 107.798798 
L 474.699273 108.283538 
L 475.409455 106.723442 
L 476.119636 110.412076 
L 476.829818 112.028806 
L 478.250182 113.412374 
L 478.960364 113.168317 
L 479.670545 113.121252 
L 480.380727 112.428933 
L 481.090909 109.637747 
L 481.801091 108.068678 
L 482.511273 108.894254 
L 483.221455 109.179201 
L 483.931636 108.982391 
L 484.641818 109.149714 
L 485.352 110.480612 
L 486.062182 108.879065 
L 486.772364 109.993409 
L 487.482545 110.494866 
L 488.192727 110.289823 
L 488.902909 113.255699 
L 489.613091 114.704403 
L 490.323273 114.889242 
L 491.033455 114.80072 
L 491.743636 116.193313 
L 492.453818 115.484081 
L 493.164 113.948703 
L 493.874182 113.91253 
L 494.584364 111.939216 
L 495.294545 111.121635 
L 496.004727 108.907089 
L 496.714909 110.978386 
L 497.425091 108.069301 
L 498.135273 106.113502 
L 498.845455 106.670957 
L 499.555636 108.213992 
L 500.265818 105.991707 
L 500.976 107.795219 
L 501.686182 107.625575 
L 502.396364 106.597721 
L 503.106545 106.477811 
L 503.816727 107.505652 
L 504.526909 107.946015 
L 505.237091 109.637653 
L 505.947273 108.236347 
L 506.657455 109.442896 
L 507.367636 107.422377 
L 508.077818 108.568544 
L 508.788 108.512412 
L 509.498182 109.412135 
L 510.208364 106.083431 
L 510.918545 107.361278 
L 511.628727 106.476326 
L 512.338909 109.267941 
L 513.049091 110.142423 
L 513.759273 107.632084 
L 514.469455 108.312203 
L 515.179636 109.381327 
L 515.889818 107.547424 
L 517.310182 109.845704 
L 518.020364 110.041704 
L 518.730545 109.895704 
L 519.440727 110.160885 
L 520.150909 108.692044 
L 520.861091 109.275551 
L 521.571273 111.899662 
L 522.281455 111.27364 
L 522.991636 111.495648 
L 523.701818 112.523361 
L 524.412 112.609965 
L 525.122182 113.562113 
L 525.832364 112.331633 
L 526.542545 112.242657 
L 527.252727 110.134293 
L 527.962909 111.908915 
L 528.673091 114.424314 
L 529.383273 114.58199 
L 530.093455 113.767497 
L 530.803636 113.214937 
L 532.224 110.902043 
L 532.934182 110.294893 
L 533.644364 111.562569 
L 534.354545 110.760364 
L 535.064727 109.117373 
L 535.774909 109.663838 
L 536.485091 107.943207 
L 537.195273 108.450576 
L 537.905455 108.328678 
L 538.615636 109.53669 
L 540.036 105.363653 
L 540.746182 104.338938 
L 541.456364 104.85686 
L 542.166545 105.081064 
L 542.876727 103.822719 
L 543.586909 105.049708 
L 545.007273 105.872908 
L 545.717455 106.123574 
L 546.427636 105.257937 
L 547.137818 105.832858 
L 547.848 103.412642 
L 548.558182 102.399394 
L 549.268364 100.786592 
L 549.978545 101.311641 
L 550.688727 102.131541 
L 551.398909 99.478169 
L 552.109091 100.918249 
L 552.819273 100.97289 
L 554.949818 104.263902 
L 555.66 103.760885 
L 557.080364 104.899358 
L 557.790545 104.806827 
L 558.500727 104.937789 
L 559.210909 105.897659 
L 559.921091 104.043875 
L 560.631273 106.021544 
L 562.051636 105.202106 
L 562.761818 102.961373 
L 564.182182 105.700717 
L 565.602545 101.413042 
L 567.022909 103.395681 
L 567.733091 102.347742 
L 568.443273 102.814495 
L 569.153455 102.17248 
L 569.863636 102.606507 
L 570.573818 103.308123 
L 571.994182 102.931857 
L 572.704364 102.146229 
L 573.414545 100.911985 
L 574.124727 100.332241 
L 574.834909 97.492346 
L 575.545091 98.980165 
L 576.255273 97.703001 
L 576.965455 97.271561 
L 577.675636 97.169078 
L 578.385818 99.464025 
L 579.806182 99.666676 
L 581.226545 98.107945 
L 581.936727 97.74458 
L 582.646909 100.355306 
L 583.357091 99.872807 
L 584.067273 99.188921 
L 584.777455 101.999756 
L 585.487636 102.944861 
L 586.197818 103.527245 
L 587.618182 103.448527 
L 588.328364 101.342454 
L 589.038545 101.06897 
L 589.748727 101.684456 
L 590.458909 101.010792 
L 591.169091 99.828614 
L 591.879273 99.167319 
L 592.589455 98.762745 
L 593.299636 98.612929 
L 594.009818 96.734288 
L 594.72 96.933985 
L 595.430182 97.550206 
L 596.140364 96.644138 
L 596.850545 94.7963 
L 597.560727 95.560741 
L 599.691273 96.297641 
L 600.401455 96.86621 
L 601.111636 97.951795 
L 601.821818 98.676368 
L 602.532 99.208834 
L 603.242182 100.109948 
L 603.952364 100.334489 
L 604.662545 98.767611 
L 605.372727 99.454483 
L 606.082909 98.8228 
L 606.793091 99.902462 
L 607.503273 99.80854 
L 608.213455 97.681512 
L 608.923636 97.27331 
L 610.344 99.954495 
L 611.054182 98.930161 
L 611.764364 97.57043 
L 612.474545 96.713025 
L 613.184727 96.56762 
L 614.605091 98.138509 
L 615.315273 98.146675 
L 616.025455 98.037096 
L 616.735636 99.941612 
L 617.445818 97.87381 
L 618.156 98.895429 
L 619.576364 100.258135 
L 620.286545 98.77769 
L 620.996727 99.577242 
L 621.706909 99.281709 
L 622.417091 100.258568 
L 623.127273 101.725195 
L 623.837455 101.900413 
L 624.547636 101.309746 
L 625.968 98.513293 
L 627.388364 95.889444 
L 628.098545 96.245198 
L 628.808727 93.615891 
L 629.518909 95.123574 
L 630.229091 97.136709 
L 630.939273 96.389485 
L 631.649455 99.022487 
L 632.359636 99.663986 
L 633.069818 100.043314 
L 633.78 98.786958 
L 634.490182 96.871267 
L 635.200364 94.606166 
L 635.910545 94.214065 
L 636.620727 92.373634 
L 637.330909 93.094997 
L 638.041091 94.949949 
L 638.751273 97.772727 
L 640.171636 99.640282 
L 640.881818 99.910797 
L 641.592 99.201786 
L 643.012364 98.460017 
L 643.722545 96.970942 
L 644.432727 97.099978 
L 645.142909 98.57732 
L 645.853091 101.830663 
L 647.273455 98.614945 
L 647.983636 96.771921 
L 648.693818 97.224674 
L 649.404 97.516149 
L 650.114182 99.914799 
L 650.824364 100.188698 
L 651.534545 100.102569 
L 652.244727 99.266663 
L 652.954909 100.988139 
L 653.665091 99.482094 
L 654.375273 98.830027 
L 655.795636 98.103918 
L 657.926182 97.337527 
L 658.636364 98.935447 
L 660.056727 98.184625 
L 660.766909 97.525587 
L 661.477091 98.790617 
L 662.187273 97.461964 
L 662.897455 98.64561 
L 663.607636 98.986808 
L 664.317818 97.786043 
L 665.028 97.131311 
L 665.738182 99.231561 
L 666.448364 100.31899 
L 667.158545 98.773087 
L 667.868727 99.712045 
L 668.578909 99.26448 
L 669.289091 97.430109 
L 669.999273 98.118377 
L 670.709455 97.484985 
L 671.419636 98.803384 
L 672.129818 98.357942 
L 672.84 97.080728 
L 673.550182 96.201329 
L 674.260364 96.637452 
L 674.970545 98.419435 
L 675.680727 99.163556 
L 676.390909 99.362642 
L 677.101091 96.326823 
L 677.811273 96.56558 
L 679.231636 92.300279 
L 679.941818 95.117335 
L 681.362182 95.701182 
L 682.072364 96.182025 
L 682.782545 95.966658 
L 683.492727 97.180988 
L 684.202909 97.334125 
L 684.913091 97.118679 
L 685.623273 97.494934 
L 686.333455 95.668783 
L 687.043636 95.225554 
L 688.464 94.131133 
L 689.174182 96.209596 
L 689.884364 96.193618 
L 690.594545 95.388579 
L 691.304727 95.654588 
L 692.014909 94.977255 
L 692.725091 96.395322 
L 693.435273 96.175258 
L 694.145455 96.386065 
L 694.855636 96.317828 
L 695.565818 94.9294 
L 696.276 95.002069 
L 696.986182 97.069655 
L 697.696364 96.962378 
L 698.406545 94.925157 
L 699.116727 94.553254 
L 699.826909 95.98731 
L 700.537091 96.089545 
L 701.247273 96.454145 
L 702.667636 92.534265 
L 703.377818 94.005138 
L 704.088 94.071144 
L 704.798182 92.35443 
L 705.508364 89.306437 
L 706.218545 90.828095 
L 706.928727 91.666574 
L 707.638909 91.267386 
L 708.349091 91.922526 
L 709.769455 94.808466 
L 710.479636 95.191387 
L 711.189818 94.302336 
L 711.9 94.387236 
L 712.610182 96.128954 
L 713.320364 95.420277 
L 714.740727 99.738526 
L 715.450909 99.816626 
L 716.161091 98.402665 
L 716.871273 98.272885 
L 717.581455 96.984634 
L 718.291636 97.243522 
L 719.001818 98.54048 
L 719.712 100.877026 
L 720.422182 99.18062 
L 721.132364 99.542499 
L 721.842545 97.982557 
L 722.552727 97.531314 
L 723.262909 98.806794 
L 723.973091 99.771407 
L 724.683273 98.992639 
L 725.393455 96.073524 
L 726.103636 98.343229 
L 726.813818 98.739343 
L 727.524 102.263945 
L 728.234182 99.667406 
L 728.944364 99.225374 
L 729.654545 99.172946 
L 730.364727 97.885919 
L 731.074909 96.231065 
L 731.785091 96.727122 
L 732.495273 99.345638 
L 733.205455 99.825498 
L 733.915636 101.072068 
L 734.625818 99.551714 
L 735.336 100.069209 
L 736.046182 102.147979 
L 736.756364 100.621376 
L 737.466545 101.3192 
L 738.176727 98.518372 
L 738.886909 99.4963 
L 739.597091 98.069898 
L 740.307273 99.748138 
L 741.727636 98.125831 
L 742.437818 101.405893 
L 743.148 100.175735 
L 743.858182 99.824117 
L 744.568364 99.332887 
L 745.278545 96.901563 
L 745.988727 96.508769 
L 746.698909 95.636887 
L 747.409091 95.88347 
L 748.119273 97.179231 
L 748.829455 99.45829 
L 749.539636 98.55125 
L 750.249818 96.647719 
L 750.96 99.127159 
L 752.380364 100.574509 
L 753.090545 100.331952 
L 753.800727 98.603783 
L 754.510909 102.797148 
L 755.221091 101.67667 
L 756.641455 104.683169 
L 757.351636 104.282037 
L 758.061818 101.886469 
L 758.772 101.877238 
L 759.482182 101.327081 
L 760.192364 103.416072 
L 760.902545 104.017639 
L 761.612727 105.041798 
L 762.322909 104.378964 
L 763.033091 104.405841 
L 763.743273 102.266366 
L 764.453455 102.242494 
L 765.163636 103.998781 
L 765.873818 103.817325 
L 766.584 104.082568 
L 767.294182 104.071421 
L 768.004364 101.804469 
L 768.714545 103.647772 
L 769.424727 104.164916 
L 770.134909 102.655832 
L 770.845091 101.519625 
L 771.555273 101.910683 
L 772.265455 103.446269 
L 772.975636 103.39684 
L 773.685818 102.750497 
L 774.396 101.232656 
L 775.106182 101.757295 
L 775.816364 101.36524 
L 776.526545 101.362877 
L 777.236727 100.042089 
L 777.946909 100.197332 
L 778.657091 99.473438 
L 779.367273 98.069864 
L 780.077455 97.47619 
L 780.787636 97.685911 
L 781.497818 97.581025 
L 782.918182 95.969377 
L 783.628364 94.533085 
L 784.338545 97.789729 
L 785.048727 96.403713 
L 785.758909 97.224557 
L 786.469091 96.805224 
L 787.179273 94.801791 
L 787.889455 93.596034 
L 788.599636 94.282642 
L 790.02 93.061035 
L 791.440364 93.452479 
L 792.150545 93.058691 
L 792.860727 91.871755 
L 793.570909 92.940466 
L 794.281091 90.852757 
L 794.991273 92.281852 
L 795.701455 92.539052 
L 796.411636 93.901922 
L 797.121818 93.03666 
L 797.832 95.442511 
L 798.542182 93.536794 
L 799.252364 94.001714 
L 799.962545 91.798785 
L 800.672727 93.986212 
L 801.382909 92.794125 
L 802.093091 92.862595 
L 802.803273 92.554065 
L 804.223636 90.717011 
L 804.933818 91.767139 
L 805.644 92.163718 
L 806.354182 92.325465 
L 807.064364 90.672933 
L 807.774545 92.334837 
L 808.484727 93.554858 
L 809.905091 89.288234 
L 810.615273 89.937625 
L 811.325455 90.019726 
L 812.035636 90.468383 
L 812.745818 89.106336 
L 813.456 88.096538 
L 814.166182 89.232016 
L 814.876364 91.156162 
L 815.586545 89.894219 
L 816.296727 90.397217 
L 817.006909 88.815228 
L 817.717091 91.644521 
L 819.137455 91.712153 
L 819.847636 92.322265 
L 820.557818 91.786752 
L 821.268 89.35736 
L 821.978182 89.09388 
L 822.688364 88.074619 
L 823.398545 87.808913 
L 824.108727 87.284212 
L 824.818909 88.140109 
L 825.529091 89.896541 
L 826.239273 92.624009 
L 826.949455 93.019424 
L 827.659636 92.871378 
L 828.369818 93.777053 
L 829.08 89.210455 
L 829.790182 89.187702 
L 830.500364 88.890414 
L 831.210545 87.888407 
L 831.920727 88.286947 
L 832.630909 87.277801 
L 833.341091 87.00712 
L 834.051273 84.925779 
L 835.471636 81.904129 
L 836.181818 81.982181 
L 836.892 84.842004 
L 837.602182 85.696148 
L 838.312364 86.017615 
L 839.022545 85.735704 
L 839.732727 83.830493 
L 841.153091 88.222535 
L 841.863273 89.125677 
L 842.573455 90.967059 
L 843.283636 91.168496 
L 843.993818 93.228886 
L 844.704 93.825282 
L 845.414182 91.542151 
L 846.124364 92.854936 
L 846.834545 92.367352 
L 848.254909 90.985759 
L 848.965091 92.801392 
L 849.675273 91.161227 
L 850.385455 91.435999 
L 851.095636 91.858356 
L 851.805818 92.421053 
L 852.516 91.954236 
L 853.226182 92.751588 
L 853.936364 92.949397 
L 854.646545 92.233414 
L 855.356727 91.805165 
L 856.066909 92.211717 
L 856.777091 91.695689 
L 857.487273 91.68242 
L 858.197455 90.781751 
L 858.907636 90.180625 
L 859.617818 90.876928 
L 861.038182 86.660451 
L 861.748364 87.671429 
L 862.458545 85.530406 
L 863.168727 85.990318 
L 863.878909 85.298945 
L 864.589091 85.668902 
L 866.009455 90.303767 
L 866.719636 90.448528 
L 867.429818 87.101972 
L 868.14 88.574687 
L 868.850182 89.441057 
L 869.560364 88.850885 
L 870.270545 88.658688 
L 870.980727 87.885317 
L 871.690909 86.053645 
L 871.690909 86.053645 
" clip-path="url(#p641401dafd)" style="fill: none; stroke: #ff7f0e; stroke-width: 1.5; stroke-linecap: square"/>
   </g>
   <g id="line2d_15">
    <path d="M 162.219273 369.36 
L 214.772727 369.143723 
L 219.033818 369.082094 
L 241.049455 368.994802 
L 273.717818 368.878487 
L 277.978909 368.813081 
L 314.198182 368.70788 
L 330.532364 368.658939 
L 358.939636 368.543616 
L 569.153455 367.597399 
L 739.597091 366.983275 
L 750.249818 366.912653 
L 871.690909 366.415762 
L 871.690909 366.415762 
" clip-path="url(#p641401dafd)" style="fill: none; stroke: #2ca02c; stroke-width: 1.5; stroke-linecap: square"/>
   </g>
   <g id="patch_3">
    <path d="M 126 384.48 
L 126 51.84 
" style="fill: none; stroke: #000000; stroke-width: 0.8; stroke-linejoin: miter; stroke-linecap: square"/>
   </g>
   <g id="patch_4">
    <path d="M 907.2 384.48 
L 907.2 51.84 
" style="fill: none; stroke: #000000; stroke-width: 0.8; stroke-linejoin: miter; stroke-linecap: square"/>
   </g>
   <g id="patch_5">
    <path d="M 126 384.48 
L 907.2 384.48 
" style="fill: none; stroke: #000000; stroke-width: 0.8; stroke-linejoin: miter; stroke-linecap: square"/>
   </g>
   <g id="patch_6">
    <path d="M 126 51.84 
L 907.2 51.84 
" style="fill: none; stroke: #000000; stroke-width: 0.8; stroke-linejoin: miter; stroke-linecap: square"/>
   </g>
   <g id="text_15">
    <!-- Quadratic Covariation of $X_t$ and $S_t$ -->
    <g transform="translate(414.54 45.84)scale(0.12 -0.12)">
     <defs>
      <path id="DejaVuSans-66" d="M 2375 4863 
L 2375 4384 
L 1825 4384 
Q 1516 4384 1395 4259 
Q 1275 4134 1275 3809 
L 1275 3500 
L 2222 3500 
L 2222 3053 
L 1275 3053 
L 1275 0 
L 697 0 
L 697 3053 
L 147 3053 
L 147 3500 
L 697 3500 
L 697 3744 
Q 697 4328 969 4595 
Q 1241 4863 1831 4863 
L 2375 4863 
z
" transform="scale(0.015625)"/>
      <path id="DejaVuSans-Oblique-58" d="M 878 4666 
L 1516 4666 
L 2316 2981 
L 3763 4666 
L 4500 4666 
L 2578 2438 
L 3738 0 
L 3103 0 
L 2163 1966 
L 459 0 
L -275 0 
L 1906 2509 
L 878 4666 
z
" transform="scale(0.015625)"/>
      <path id="DejaVuSans-Oblique-74" d="M 2706 3500 
L 2619 3053 
L 1472 3053 
L 1100 1153 
Q 1081 1047 1072 975 
Q 1063 903 1063 863 
Q 1063 663 1183 572 
Q 1303 481 1569 481 
L 2150 481 
L 2053 0 
L 1503 0 
Q 991 0 739 200 
Q 488 400 488 806 
Q 488 878 497 964 
Q 506 1050 525 1153 
L 897 3053 
L 409 3053 
L 500 3500 
L 978 3500 
L 1172 4494 
L 1747 4494 
L 1556 3500 
L 2706 3500 
z
" transform="scale(0.015625)"/>
      <path id="DejaVuSans-Oblique-53" d="M 3859 4513 
L 3738 3897 
Q 3422 4066 3111 4152 
Q 2800 4238 2509 4238 
Q 1944 4238 1609 3991 
Q 1275 3744 1275 3334 
Q 1275 3109 1398 2989 
Q 1522 2869 2034 2731 
L 2413 2638 
Q 3053 2472 3303 2217 
Q 3553 1963 3553 1503 
Q 3553 797 2998 353 
Q 2444 -91 1538 -91 
Q 1166 -91 791 -17 
Q 416 56 38 206 
L 166 856 
Q 513 641 861 531 
Q 1209 422 1556 422 
Q 2147 422 2503 684 
Q 2859 947 2859 1369 
Q 2859 1650 2717 1795 
Q 2575 1941 2106 2059 
L 1728 2156 
Q 1081 2325 845 2545 
Q 609 2766 609 3163 
Q 609 3859 1145 4304 
Q 1681 4750 2541 4750 
Q 2875 4750 3203 4690 
Q 3531 4631 3859 4513 
z
" transform="scale(0.015625)"/>
     </defs>
     <use xlink:href="#DejaVuSans-51" transform="translate(0 0.015625)"/>
     <use xlink:href="#DejaVuSans-75" transform="translate(78.710938 0.015625)"/>
     <use xlink:href="#DejaVuSans-61" transform="translate(142.089844 0.015625)"/>
     <use xlink:href="#DejaVuSans-64" transform="translate(203.369141 0.015625)"/>
     <use xlink:href="#DejaVuSans-72" transform="translate(266.845703 0.015625)"/>
     <use xlink:href="#DejaVuSans-61" transform="translate(307.958984 0.015625)"/>
     <use xlink:href="#DejaVuSans-74" transform="translate(369.238281 0.015625)"/>
     <use xlink:href="#DejaVuSans-69" transform="translate(408.447266 0.015625)"/>
     <use xlink:href="#DejaVuSans-63" transform="translate(436.230469 0.015625)"/>
     <use xlink:href="#DejaVuSans-20" transform="translate(491.210938 0.015625)"/>
     <use xlink:href="#DejaVuSans-43" transform="translate(522.998047 0.015625)"/>
     <use xlink:href="#DejaVuSans-6f" transform="translate(592.822266 0.015625)"/>
     <use xlink:href="#DejaVuSans-76" transform="translate(654.003906 0.015625)"/>
     <use xlink:href="#DejaVuSans-61" transform="translate(713.183594 0.015625)"/>
     <use xlink:href="#DejaVuSans-72" transform="translate(774.462891 0.015625)"/>
     <use xlink:href="#DejaVuSans-69" transform="translate(815.576172 0.015625)"/>
     <use xlink:href="#DejaVuSans-61" transform="translate(843.359375 0.015625)"/>
     <use xlink:href="#DejaVuSans-74" transform="translate(904.638672 0.015625)"/>
     <use xlink:href="#DejaVuSans-69" transform="translate(943.847656 0.015625)"/>
     <use xlink:href="#DejaVuSans-6f" transform="translate(971.630859 0.015625)"/>
     <use xlink:href="#DejaVuSans-6e" transform="translate(1032.8125 0.015625)"/>
     <use xlink:href="#DejaVuSans-20" transform="translate(1096.191406 0.015625)"/>
     <use xlink:href="#DejaVuSans-6f" transform="translate(1127.978516 0.015625)"/>
     <use xlink:href="#DejaVuSans-66" transform="translate(1189.160156 0.015625)"/>
     <use xlink:href="#DejaVuSans-20" transform="translate(1224.365234 0.015625)"/>
     <use xlink:href="#DejaVuSans-Oblique-58" transform="translate(1256.152344 0.015625)"/>
     <use xlink:href="#DejaVuSans-Oblique-74" transform="translate(1324.658203 -16.390625)scale(0.7)"/>
     <use xlink:href="#DejaVuSans-20" transform="translate(1354.838867 0.015625)"/>
     <use xlink:href="#DejaVuSans-61" transform="translate(1386.625977 0.015625)"/>
     <use xlink:href="#DejaVuSans-6e" transform="translate(1447.905273 0.015625)"/>
     <use xlink:href="#DejaVuSans-64" transform="translate(1511.28418 0.015625)"/>
     <use xlink:href="#DejaVuSans-20" transform="translate(1574.760742 0.015625)"/>
     <use xlink:href="#DejaVuSans-Oblique-53" transform="translate(1606.547852 0.015625)"/>
     <use xlink:href="#DejaVuSans-Oblique-74" transform="translate(1670.024414 -16.390625)scale(0.7)"/>
    </g>
   </g>
   <g id="legend_1">
    <g id="patch_7">
     <path d="M 698.1 241.677188 
L 900.2 241.677188 
Q 902.2 241.677188 902.2 239.677188 
L 902.2 196.642812 
Q 902.2 194.642812 900.2 194.642812 
L 698.1 194.642812 
Q 696.1 194.642812 696.1 196.642812 
L 696.1 239.677188 
Q 696.1 241.677188 698.1 241.677188 
z
" style="fill: #ffffff; opacity: 0.8; stroke: #cccccc; stroke-linejoin: miter"/>
    </g>
    <g id="line2d_16">
     <path d="M 700.1 202.74125 
L 710.1 202.74125 
L 720.1 202.74125 
" style="fill: none; stroke: #1f77b4; stroke-width: 1.5; stroke-linecap: square"/>
    </g>
    <g id="text_16">
     <!-- $X_t$ -->
     <g transform="translate(728.1 206.24125)scale(0.1 -0.1)">
      <use xlink:href="#DejaVuSans-Oblique-58" transform="translate(0 0.09375)"/>
      <use xlink:href="#DejaVuSans-Oblique-74" transform="translate(68.505859 -16.3125)scale(0.7)"/>
     </g>
    </g>
    <g id="line2d_17">
     <path d="M 700.1 217.419375 
L 710.1 217.419375 
L 720.1 217.419375 
" style="fill: none; stroke: #ff7f0e; stroke-width: 1.5; stroke-linecap: square"/>
    </g>
    <g id="text_17">
     <!-- $S_t$ -->
     <g transform="translate(728.1 220.919375)scale(0.1 -0.1)">
      <use xlink:href="#DejaVuSans-Oblique-53" transform="translate(0 0.78125)"/>
      <use xlink:href="#DejaVuSans-Oblique-74" transform="translate(63.476562 -15.625)scale(0.7)"/>
     </g>
    </g>
    <g id="line2d_18">
     <path d="M 700.1 232.0975 
L 710.1 232.0975 
L 720.1 232.0975 
" style="fill: none; stroke: #2ca02c; stroke-width: 1.5; stroke-linecap: square"/>
    </g>
    <g id="text_18">
     <!-- Quadratic Covariation of $X_t$ and $S_t$ -->
     <g transform="translate(728.1 235.5975)scale(0.1 -0.1)">
      <use xlink:href="#DejaVuSans-51" transform="translate(0 0.015625)"/>
      <use xlink:href="#DejaVuSans-75" transform="translate(78.710938 0.015625)"/>
      <use xlink:href="#DejaVuSans-61" transform="translate(142.089844 0.015625)"/>
      <use xlink:href="#DejaVuSans-64" transform="translate(203.369141 0.015625)"/>
      <use xlink:href="#DejaVuSans-72" transform="translate(266.845703 0.015625)"/>
      <use xlink:href="#DejaVuSans-61" transform="translate(307.958984 0.015625)"/>
      <use xlink:href="#DejaVuSans-74" transform="translate(369.238281 0.015625)"/>
      <use xlink:href="#DejaVuSans-69" transform="translate(408.447266 0.015625)"/>
      <use xlink:href="#DejaVuSans-63" transform="translate(436.230469 0.015625)"/>
      <use xlink:href="#DejaVuSans-20" transform="translate(491.210938 0.015625)"/>
      <use xlink:href="#DejaVuSans-43" transform="translate(522.998047 0.015625)"/>
      <use xlink:href="#DejaVuSans-6f" transform="translate(592.822266 0.015625)"/>
      <use xlink:href="#DejaVuSans-76" transform="translate(654.003906 0.015625)"/>
      <use xlink:href="#DejaVuSans-61" transform="translate(713.183594 0.015625)"/>
      <use xlink:href="#DejaVuSans-72" transform="translate(774.462891 0.015625)"/>
      <use xlink:href="#DejaVuSans-69" transform="translate(815.576172 0.015625)"/>
      <use xlink:href="#DejaVuSans-61" transform="translate(843.359375 0.015625)"/>
      <use xlink:href="#DejaVuSans-74" transform="translate(904.638672 0.015625)"/>
      <use xlink:href="#DejaVuSans-69" transform="translate(943.847656 0.015625)"/>
      <use xlink:href="#DejaVuSans-6f" transform="translate(971.630859 0.015625)"/>
      <use xlink:href="#DejaVuSans-6e" transform="translate(1032.8125 0.015625)"/>
      <use xlink:href="#DejaVuSans-20" transform="translate(1096.191406 0.015625)"/>
      <use xlink:href="#DejaVuSans-6f" transform="translate(1127.978516 0.015625)"/>
      <use xlink:href="#DejaVuSans-66" transform="translate(1189.160156 0.015625)"/>
      <use xlink:href="#DejaVuSans-20" transform="translate(1224.365234 0.015625)"/>
      <use xlink:href="#DejaVuSans-Oblique-58" transform="translate(1256.152344 0.015625)"/>
      <use xlink:href="#DejaVuSans-Oblique-74" transform="translate(1324.658203 -16.390625)scale(0.7)"/>
      <use xlink:href="#DejaVuSans-20" transform="translate(1354.838867 0.015625)"/>
      <use xlink:href="#DejaVuSans-61" transform="translate(1386.625977 0.015625)"/>
      <use xlink:href="#DejaVuSans-6e" transform="translate(1447.905273 0.015625)"/>
      <use xlink:href="#DejaVuSans-64" transform="translate(1511.28418 0.015625)"/>
      <use xlink:href="#DejaVuSans-20" transform="translate(1574.760742 0.015625)"/>
      <use xlink:href="#DejaVuSans-Oblique-53" transform="translate(1606.547852 0.015625)"/>
      <use xlink:href="#DejaVuSans-Oblique-74" transform="translate(1670.024414 -16.390625)scale(0.7)"/>
     </g>
    </g>
   </g>
  </g>
 </g>
 <defs>
  <clipPath id="p641401dafd">
   <rect x="126" y="51.84" width="781.2" height="332.64"/>
  </clipPath>
 </defs>
</svg>
