<?xml version="1.0" encoding="utf-8" standalone="no"?>
<!DOCTYPE svg PUBLIC "-//W3C//DTD SVG 1.1//EN"
  "http://www.w3.org/Graphics/SVG/1.1/DTD/svg11.dtd">
<svg xmlns:xlink="http://www.w3.org/1999/xlink" width="1008pt" height="432pt" viewBox="0 0 1008 432" xmlns="http://www.w3.org/2000/svg" version="1.1">
 <metadata>
  <rdf:RDF xmlns:dc="http://purl.org/dc/elements/1.1/" xmlns:cc="http://creativecommons.org/ns#" xmlns:rdf="http://www.w3.org/1999/02/22-rdf-syntax-ns#">
   <cc:Work>
    <dc:type rdf:resource="http://purl.org/dc/dcmitype/StillImage"/>
    <dc:date>2023-12-22T17:11:16.673772</dc:date>
    <dc:format>image/svg+xml</dc:format>
    <dc:creator>
     <cc:Agent>
      <dc:title>Matplotlib v3.5.2, https://matplotlib.org/</dc:title>
     </cc:Agent>
    </dc:creator>
   </cc:Work>
  </rdf:RDF>
 </metadata>
 <defs>
  <style type="text/css">*{stroke-linejoin: round; stroke-linecap: butt}</style>
 </defs>
 <g id="figure_1">
  <g id="patch_1">
   <path d="M 0 432 
L 1008 432 
L 1008 0 
L 0 0 
z
" style="fill: #ffffff"/>
  </g>
  <g id="axes_1">
   <g id="patch_2">
    <path d="M 126 384.48 
L 907.2 384.48 
L 907.2 51.84 
L 126 51.84 
z
" style="fill: #ffffff"/>
   </g>
   <g id="matplotlib.axis_1">
    <g id="xtick_1">
     <g id="line2d_1">
      <defs>
       <path id="m5dc07f1ebc" d="M 0 0 
L 0 3.5 
" style="stroke: #000000; stroke-width: 0.8"/>
      </defs>
      <g>
       <use xlink:href="#m5dc07f1ebc" x="161.509091" y="384.48" style="stroke: #000000; stroke-width: 0.8"/>
      </g>
     </g>
     <g id="text_1">
      <!-- 0.0 -->
      <g transform="translate(153.557528 399.078438)scale(0.1 -0.1)">
       <defs>
        <path id="DejaVuSans-30" d="M 2034 4250 
Q 1547 4250 1301 3770 
Q 1056 3291 1056 2328 
Q 1056 1369 1301 889 
Q 1547 409 2034 409 
Q 2525 409 2770 889 
Q 3016 1369 3016 2328 
Q 3016 3291 2770 3770 
Q 2525 4250 2034 4250 
z
M 2034 4750 
Q 2819 4750 3233 4129 
Q 3647 3509 3647 2328 
Q 3647 1150 3233 529 
Q 2819 -91 2034 -91 
Q 1250 -91 836 529 
Q 422 1150 422 2328 
Q 422 3509 836 4129 
Q 1250 4750 2034 4750 
z
" transform="scale(0.015625)"/>
        <path id="DejaVuSans-2e" d="M 684 794 
L 1344 794 
L 1344 0 
L 684 0 
L 684 794 
z
" transform="scale(0.015625)"/>
       </defs>
       <use xlink:href="#DejaVuSans-30"/>
       <use xlink:href="#DejaVuSans-2e" x="63.623047"/>
       <use xlink:href="#DejaVuSans-30" x="95.410156"/>
      </g>
     </g>
    </g>
    <g id="xtick_2">
     <g id="line2d_2">
      <g>
       <use xlink:href="#m5dc07f1ebc" x="303.545455" y="384.48" style="stroke: #000000; stroke-width: 0.8"/>
      </g>
     </g>
     <g id="text_2">
      <!-- 0.2 -->
      <g transform="translate(295.593892 399.078438)scale(0.1 -0.1)">
       <defs>
        <path id="DejaVuSans-32" d="M 1228 531 
L 3431 531 
L 3431 0 
L 469 0 
L 469 531 
Q 828 903 1448 1529 
Q 2069 2156 2228 2338 
Q 2531 2678 2651 2914 
Q 2772 3150 2772 3378 
Q 2772 3750 2511 3984 
Q 2250 4219 1831 4219 
Q 1534 4219 1204 4116 
Q 875 4013 500 3803 
L 500 4441 
Q 881 4594 1212 4672 
Q 1544 4750 1819 4750 
Q 2544 4750 2975 4387 
Q 3406 4025 3406 3419 
Q 3406 3131 3298 2873 
Q 3191 2616 2906 2266 
Q 2828 2175 2409 1742 
Q 1991 1309 1228 531 
z
" transform="scale(0.015625)"/>
       </defs>
       <use xlink:href="#DejaVuSans-30"/>
       <use xlink:href="#DejaVuSans-2e" x="63.623047"/>
       <use xlink:href="#DejaVuSans-32" x="95.410156"/>
      </g>
     </g>
    </g>
    <g id="xtick_3">
     <g id="line2d_3">
      <g>
       <use xlink:href="#m5dc07f1ebc" x="445.581818" y="384.48" style="stroke: #000000; stroke-width: 0.8"/>
      </g>
     </g>
     <g id="text_3">
      <!-- 0.4 -->
      <g transform="translate(437.630256 399.078438)scale(0.1 -0.1)">
       <defs>
        <path id="DejaVuSans-34" d="M 2419 4116 
L 825 1625 
L 2419 1625 
L 2419 4116 
z
M 2253 4666 
L 3047 4666 
L 3047 1625 
L 3713 1625 
L 3713 1100 
L 3047 1100 
L 3047 0 
L 2419 0 
L 2419 1100 
L 313 1100 
L 313 1709 
L 2253 4666 
z
" transform="scale(0.015625)"/>
       </defs>
       <use xlink:href="#DejaVuSans-30"/>
       <use xlink:href="#DejaVuSans-2e" x="63.623047"/>
       <use xlink:href="#DejaVuSans-34" x="95.410156"/>
      </g>
     </g>
    </g>
    <g id="xtick_4">
     <g id="line2d_4">
      <g>
       <use xlink:href="#m5dc07f1ebc" x="587.618182" y="384.48" style="stroke: #000000; stroke-width: 0.8"/>
      </g>
     </g>
     <g id="text_4">
      <!-- 0.6 -->
      <g transform="translate(579.666619 399.078438)scale(0.1 -0.1)">
       <defs>
        <path id="DejaVuSans-36" d="M 2113 2584 
Q 1688 2584 1439 2293 
Q 1191 2003 1191 1497 
Q 1191 994 1439 701 
Q 1688 409 2113 409 
Q 2538 409 2786 701 
Q 3034 994 3034 1497 
Q 3034 2003 2786 2293 
Q 2538 2584 2113 2584 
z
M 3366 4563 
L 3366 3988 
Q 3128 4100 2886 4159 
Q 2644 4219 2406 4219 
Q 1781 4219 1451 3797 
Q 1122 3375 1075 2522 
Q 1259 2794 1537 2939 
Q 1816 3084 2150 3084 
Q 2853 3084 3261 2657 
Q 3669 2231 3669 1497 
Q 3669 778 3244 343 
Q 2819 -91 2113 -91 
Q 1303 -91 875 529 
Q 447 1150 447 2328 
Q 447 3434 972 4092 
Q 1497 4750 2381 4750 
Q 2619 4750 2861 4703 
Q 3103 4656 3366 4563 
z
" transform="scale(0.015625)"/>
       </defs>
       <use xlink:href="#DejaVuSans-30"/>
       <use xlink:href="#DejaVuSans-2e" x="63.623047"/>
       <use xlink:href="#DejaVuSans-36" x="95.410156"/>
      </g>
     </g>
    </g>
    <g id="xtick_5">
     <g id="line2d_5">
      <g>
       <use xlink:href="#m5dc07f1ebc" x="729.654545" y="384.48" style="stroke: #000000; stroke-width: 0.8"/>
      </g>
     </g>
     <g id="text_5">
      <!-- 0.8 -->
      <g transform="translate(721.702983 399.078438)scale(0.1 -0.1)">
       <defs>
        <path id="DejaVuSans-38" d="M 2034 2216 
Q 1584 2216 1326 1975 
Q 1069 1734 1069 1313 
Q 1069 891 1326 650 
Q 1584 409 2034 409 
Q 2484 409 2743 651 
Q 3003 894 3003 1313 
Q 3003 1734 2745 1975 
Q 2488 2216 2034 2216 
z
M 1403 2484 
Q 997 2584 770 2862 
Q 544 3141 544 3541 
Q 544 4100 942 4425 
Q 1341 4750 2034 4750 
Q 2731 4750 3128 4425 
Q 3525 4100 3525 3541 
Q 3525 3141 3298 2862 
Q 3072 2584 2669 2484 
Q 3125 2378 3379 2068 
Q 3634 1759 3634 1313 
Q 3634 634 3220 271 
Q 2806 -91 2034 -91 
Q 1263 -91 848 271 
Q 434 634 434 1313 
Q 434 1759 690 2068 
Q 947 2378 1403 2484 
z
M 1172 3481 
Q 1172 3119 1398 2916 
Q 1625 2713 2034 2713 
Q 2441 2713 2670 2916 
Q 2900 3119 2900 3481 
Q 2900 3844 2670 4047 
Q 2441 4250 2034 4250 
Q 1625 4250 1398 4047 
Q 1172 3844 1172 3481 
z
" transform="scale(0.015625)"/>
       </defs>
       <use xlink:href="#DejaVuSans-30"/>
       <use xlink:href="#DejaVuSans-2e" x="63.623047"/>
       <use xlink:href="#DejaVuSans-38" x="95.410156"/>
      </g>
     </g>
    </g>
    <g id="xtick_6">
     <g id="line2d_6">
      <g>
       <use xlink:href="#m5dc07f1ebc" x="871.690909" y="384.48" style="stroke: #000000; stroke-width: 0.8"/>
      </g>
     </g>
     <g id="text_6">
      <!-- 1.0 -->
      <g transform="translate(863.739347 399.078438)scale(0.1 -0.1)">
       <defs>
        <path id="DejaVuSans-31" d="M 794 531 
L 1825 531 
L 1825 4091 
L 703 3866 
L 703 4441 
L 1819 4666 
L 2450 4666 
L 2450 531 
L 3481 531 
L 3481 0 
L 794 0 
L 794 531 
z
" transform="scale(0.015625)"/>
       </defs>
       <use xlink:href="#DejaVuSans-31"/>
       <use xlink:href="#DejaVuSans-2e" x="63.623047"/>
       <use xlink:href="#DejaVuSans-30" x="95.410156"/>
      </g>
     </g>
    </g>
    <g id="text_7">
     <!-- Time -->
     <g transform="translate(504.366406 412.756563)scale(0.1 -0.1)">
      <defs>
       <path id="DejaVuSans-54" d="M -19 4666 
L 3928 4666 
L 3928 4134 
L 2272 4134 
L 2272 0 
L 1638 0 
L 1638 4134 
L -19 4134 
L -19 4666 
z
" transform="scale(0.015625)"/>
       <path id="DejaVuSans-69" d="M 603 3500 
L 1178 3500 
L 1178 0 
L 603 0 
L 603 3500 
z
M 603 4863 
L 1178 4863 
L 1178 4134 
L 603 4134 
L 603 4863 
z
" transform="scale(0.015625)"/>
       <path id="DejaVuSans-6d" d="M 3328 2828 
Q 3544 3216 3844 3400 
Q 4144 3584 4550 3584 
Q 5097 3584 5394 3201 
Q 5691 2819 5691 2113 
L 5691 0 
L 5113 0 
L 5113 2094 
Q 5113 2597 4934 2840 
Q 4756 3084 4391 3084 
Q 3944 3084 3684 2787 
Q 3425 2491 3425 1978 
L 3425 0 
L 2847 0 
L 2847 2094 
Q 2847 2600 2669 2842 
Q 2491 3084 2119 3084 
Q 1678 3084 1418 2786 
Q 1159 2488 1159 1978 
L 1159 0 
L 581 0 
L 581 3500 
L 1159 3500 
L 1159 2956 
Q 1356 3278 1631 3431 
Q 1906 3584 2284 3584 
Q 2666 3584 2933 3390 
Q 3200 3197 3328 2828 
z
" transform="scale(0.015625)"/>
       <path id="DejaVuSans-65" d="M 3597 1894 
L 3597 1613 
L 953 1613 
Q 991 1019 1311 708 
Q 1631 397 2203 397 
Q 2534 397 2845 478 
Q 3156 559 3463 722 
L 3463 178 
Q 3153 47 2828 -22 
Q 2503 -91 2169 -91 
Q 1331 -91 842 396 
Q 353 884 353 1716 
Q 353 2575 817 3079 
Q 1281 3584 2069 3584 
Q 2775 3584 3186 3129 
Q 3597 2675 3597 1894 
z
M 3022 2063 
Q 3016 2534 2758 2815 
Q 2500 3097 2075 3097 
Q 1594 3097 1305 2825 
Q 1016 2553 972 2059 
L 3022 2063 
z
" transform="scale(0.015625)"/>
      </defs>
      <use xlink:href="#DejaVuSans-54"/>
      <use xlink:href="#DejaVuSans-69" x="57.958984"/>
      <use xlink:href="#DejaVuSans-6d" x="85.742188"/>
      <use xlink:href="#DejaVuSans-65" x="183.154297"/>
     </g>
    </g>
   </g>
   <g id="matplotlib.axis_2">
    <g id="ytick_1">
     <g id="line2d_7">
      <defs>
       <path id="m22a043e780" d="M 0 0 
L -3.5 0 
" style="stroke: #000000; stroke-width: 0.8"/>
      </defs>
      <g>
       <use xlink:href="#m22a043e780" x="126" y="369.474074" style="stroke: #000000; stroke-width: 0.8"/>
      </g>
     </g>
     <g id="text_8">
      <!-- 0.0 -->
      <g transform="translate(103.096875 373.273293)scale(0.1 -0.1)">
       <use xlink:href="#DejaVuSans-30"/>
       <use xlink:href="#DejaVuSans-2e" x="63.623047"/>
       <use xlink:href="#DejaVuSans-30" x="95.410156"/>
      </g>
     </g>
    </g>
    <g id="ytick_2">
     <g id="line2d_8">
      <g>
       <use xlink:href="#m22a043e780" x="126" y="323.692401" style="stroke: #000000; stroke-width: 0.8"/>
      </g>
     </g>
     <g id="text_9">
      <!-- 0.5 -->
      <g transform="translate(103.096875 327.491619)scale(0.1 -0.1)">
       <defs>
        <path id="DejaVuSans-35" d="M 691 4666 
L 3169 4666 
L 3169 4134 
L 1269 4134 
L 1269 2991 
Q 1406 3038 1543 3061 
Q 1681 3084 1819 3084 
Q 2600 3084 3056 2656 
Q 3513 2228 3513 1497 
Q 3513 744 3044 326 
Q 2575 -91 1722 -91 
Q 1428 -91 1123 -41 
Q 819 9 494 109 
L 494 744 
Q 775 591 1075 516 
Q 1375 441 1709 441 
Q 2250 441 2565 725 
Q 2881 1009 2881 1497 
Q 2881 1984 2565 2268 
Q 2250 2553 1709 2553 
Q 1456 2553 1204 2497 
Q 953 2441 691 2322 
L 691 4666 
z
" transform="scale(0.015625)"/>
       </defs>
       <use xlink:href="#DejaVuSans-30"/>
       <use xlink:href="#DejaVuSans-2e" x="63.623047"/>
       <use xlink:href="#DejaVuSans-35" x="95.410156"/>
      </g>
     </g>
    </g>
    <g id="ytick_3">
     <g id="line2d_9">
      <g>
       <use xlink:href="#m22a043e780" x="126" y="277.910727" style="stroke: #000000; stroke-width: 0.8"/>
      </g>
     </g>
     <g id="text_10">
      <!-- 1.0 -->
      <g transform="translate(103.096875 281.709946)scale(0.1 -0.1)">
       <use xlink:href="#DejaVuSans-31"/>
       <use xlink:href="#DejaVuSans-2e" x="63.623047"/>
       <use xlink:href="#DejaVuSans-30" x="95.410156"/>
      </g>
     </g>
    </g>
    <g id="ytick_4">
     <g id="line2d_10">
      <g>
       <use xlink:href="#m22a043e780" x="126" y="232.129054" style="stroke: #000000; stroke-width: 0.8"/>
      </g>
     </g>
     <g id="text_11">
      <!-- 1.5 -->
      <g transform="translate(103.096875 235.928273)scale(0.1 -0.1)">
       <use xlink:href="#DejaVuSans-31"/>
       <use xlink:href="#DejaVuSans-2e" x="63.623047"/>
       <use xlink:href="#DejaVuSans-35" x="95.410156"/>
      </g>
     </g>
    </g>
    <g id="ytick_5">
     <g id="line2d_11">
      <g>
       <use xlink:href="#m22a043e780" x="126" y="186.347381" style="stroke: #000000; stroke-width: 0.8"/>
      </g>
     </g>
     <g id="text_12">
      <!-- 2.0 -->
      <g transform="translate(103.096875 190.146599)scale(0.1 -0.1)">
       <use xlink:href="#DejaVuSans-32"/>
       <use xlink:href="#DejaVuSans-2e" x="63.623047"/>
       <use xlink:href="#DejaVuSans-30" x="95.410156"/>
      </g>
     </g>
    </g>
    <g id="ytick_6">
     <g id="line2d_12">
      <g>
       <use xlink:href="#m22a043e780" x="126" y="140.565707" style="stroke: #000000; stroke-width: 0.8"/>
      </g>
     </g>
     <g id="text_13">
      <!-- 2.5 -->
      <g transform="translate(103.096875 144.364926)scale(0.1 -0.1)">
       <use xlink:href="#DejaVuSans-32"/>
       <use xlink:href="#DejaVuSans-2e" x="63.623047"/>
       <use xlink:href="#DejaVuSans-35" x="95.410156"/>
      </g>
     </g>
    </g>
    <g id="ytick_7">
     <g id="line2d_13">
      <g>
       <use xlink:href="#m22a043e780" x="126" y="94.784034" style="stroke: #000000; stroke-width: 0.8"/>
      </g>
     </g>
     <g id="text_14">
      <!-- 3.0 -->
      <g transform="translate(103.096875 98.583253)scale(0.1 -0.1)">
       <defs>
        <path id="DejaVuSans-33" d="M 2597 2516 
Q 3050 2419 3304 2112 
Q 3559 1806 3559 1356 
Q 3559 666 3084 287 
Q 2609 -91 1734 -91 
Q 1441 -91 1130 -33 
Q 819 25 488 141 
L 488 750 
Q 750 597 1062 519 
Q 1375 441 1716 441 
Q 2309 441 2620 675 
Q 2931 909 2931 1356 
Q 2931 1769 2642 2001 
Q 2353 2234 1838 2234 
L 1294 2234 
L 1294 2753 
L 1863 2753 
Q 2328 2753 2575 2939 
Q 2822 3125 2822 3475 
Q 2822 3834 2567 4026 
Q 2313 4219 1838 4219 
Q 1578 4219 1281 4162 
Q 984 4106 628 3988 
L 628 4550 
Q 988 4650 1302 4700 
Q 1616 4750 1894 4750 
Q 2613 4750 3031 4423 
Q 3450 4097 3450 3541 
Q 3450 3153 3228 2886 
Q 3006 2619 2597 2516 
z
" transform="scale(0.015625)"/>
       </defs>
       <use xlink:href="#DejaVuSans-33"/>
       <use xlink:href="#DejaVuSans-2e" x="63.623047"/>
       <use xlink:href="#DejaVuSans-30" x="95.410156"/>
      </g>
     </g>
    </g>
    <g id="text_15">
     <!-- Quadratic Covariation -->
     <g transform="translate(97.017187 272.970156)rotate(-90)scale(0.1 -0.1)">
      <defs>
       <path id="DejaVuSans-51" d="M 2522 4238 
Q 1834 4238 1429 3725 
Q 1025 3213 1025 2328 
Q 1025 1447 1429 934 
Q 1834 422 2522 422 
Q 3209 422 3611 934 
Q 4013 1447 4013 2328 
Q 4013 3213 3611 3725 
Q 3209 4238 2522 4238 
z
M 3406 84 
L 4238 -825 
L 3475 -825 
L 2784 -78 
Q 2681 -84 2626 -87 
Q 2572 -91 2522 -91 
Q 1538 -91 948 567 
Q 359 1225 359 2328 
Q 359 3434 948 4092 
Q 1538 4750 2522 4750 
Q 3503 4750 4090 4092 
Q 4678 3434 4678 2328 
Q 4678 1516 4351 937 
Q 4025 359 3406 84 
z
" transform="scale(0.015625)"/>
       <path id="DejaVuSans-75" d="M 544 1381 
L 544 3500 
L 1119 3500 
L 1119 1403 
Q 1119 906 1312 657 
Q 1506 409 1894 409 
Q 2359 409 2629 706 
Q 2900 1003 2900 1516 
L 2900 3500 
L 3475 3500 
L 3475 0 
L 2900 0 
L 2900 538 
Q 2691 219 2414 64 
Q 2138 -91 1772 -91 
Q 1169 -91 856 284 
Q 544 659 544 1381 
z
M 1991 3584 
L 1991 3584 
z
" transform="scale(0.015625)"/>
       <path id="DejaVuSans-61" d="M 2194 1759 
Q 1497 1759 1228 1600 
Q 959 1441 959 1056 
Q 959 750 1161 570 
Q 1363 391 1709 391 
Q 2188 391 2477 730 
Q 2766 1069 2766 1631 
L 2766 1759 
L 2194 1759 
z
M 3341 1997 
L 3341 0 
L 2766 0 
L 2766 531 
Q 2569 213 2275 61 
Q 1981 -91 1556 -91 
Q 1019 -91 701 211 
Q 384 513 384 1019 
Q 384 1609 779 1909 
Q 1175 2209 1959 2209 
L 2766 2209 
L 2766 2266 
Q 2766 2663 2505 2880 
Q 2244 3097 1772 3097 
Q 1472 3097 1187 3025 
Q 903 2953 641 2809 
L 641 3341 
Q 956 3463 1253 3523 
Q 1550 3584 1831 3584 
Q 2591 3584 2966 3190 
Q 3341 2797 3341 1997 
z
" transform="scale(0.015625)"/>
       <path id="DejaVuSans-64" d="M 2906 2969 
L 2906 4863 
L 3481 4863 
L 3481 0 
L 2906 0 
L 2906 525 
Q 2725 213 2448 61 
Q 2172 -91 1784 -91 
Q 1150 -91 751 415 
Q 353 922 353 1747 
Q 353 2572 751 3078 
Q 1150 3584 1784 3584 
Q 2172 3584 2448 3432 
Q 2725 3281 2906 2969 
z
M 947 1747 
Q 947 1113 1208 752 
Q 1469 391 1925 391 
Q 2381 391 2643 752 
Q 2906 1113 2906 1747 
Q 2906 2381 2643 2742 
Q 2381 3103 1925 3103 
Q 1469 3103 1208 2742 
Q 947 2381 947 1747 
z
" transform="scale(0.015625)"/>
       <path id="DejaVuSans-72" d="M 2631 2963 
Q 2534 3019 2420 3045 
Q 2306 3072 2169 3072 
Q 1681 3072 1420 2755 
Q 1159 2438 1159 1844 
L 1159 0 
L 581 0 
L 581 3500 
L 1159 3500 
L 1159 2956 
Q 1341 3275 1631 3429 
Q 1922 3584 2338 3584 
Q 2397 3584 2469 3576 
Q 2541 3569 2628 3553 
L 2631 2963 
z
" transform="scale(0.015625)"/>
       <path id="DejaVuSans-74" d="M 1172 4494 
L 1172 3500 
L 2356 3500 
L 2356 3053 
L 1172 3053 
L 1172 1153 
Q 1172 725 1289 603 
Q 1406 481 1766 481 
L 2356 481 
L 2356 0 
L 1766 0 
Q 1100 0 847 248 
Q 594 497 594 1153 
L 594 3053 
L 172 3053 
L 172 3500 
L 594 3500 
L 594 4494 
L 1172 4494 
z
" transform="scale(0.015625)"/>
       <path id="DejaVuSans-63" d="M 3122 3366 
L 3122 2828 
Q 2878 2963 2633 3030 
Q 2388 3097 2138 3097 
Q 1578 3097 1268 2742 
Q 959 2388 959 1747 
Q 959 1106 1268 751 
Q 1578 397 2138 397 
Q 2388 397 2633 464 
Q 2878 531 3122 666 
L 3122 134 
Q 2881 22 2623 -34 
Q 2366 -91 2075 -91 
Q 1284 -91 818 406 
Q 353 903 353 1747 
Q 353 2603 823 3093 
Q 1294 3584 2113 3584 
Q 2378 3584 2631 3529 
Q 2884 3475 3122 3366 
z
" transform="scale(0.015625)"/>
       <path id="DejaVuSans-20" transform="scale(0.015625)"/>
       <path id="DejaVuSans-43" d="M 4122 4306 
L 4122 3641 
Q 3803 3938 3442 4084 
Q 3081 4231 2675 4231 
Q 1875 4231 1450 3742 
Q 1025 3253 1025 2328 
Q 1025 1406 1450 917 
Q 1875 428 2675 428 
Q 3081 428 3442 575 
Q 3803 722 4122 1019 
L 4122 359 
Q 3791 134 3420 21 
Q 3050 -91 2638 -91 
Q 1578 -91 968 557 
Q 359 1206 359 2328 
Q 359 3453 968 4101 
Q 1578 4750 2638 4750 
Q 3056 4750 3426 4639 
Q 3797 4528 4122 4306 
z
" transform="scale(0.015625)"/>
       <path id="DejaVuSans-6f" d="M 1959 3097 
Q 1497 3097 1228 2736 
Q 959 2375 959 1747 
Q 959 1119 1226 758 
Q 1494 397 1959 397 
Q 2419 397 2687 759 
Q 2956 1122 2956 1747 
Q 2956 2369 2687 2733 
Q 2419 3097 1959 3097 
z
M 1959 3584 
Q 2709 3584 3137 3096 
Q 3566 2609 3566 1747 
Q 3566 888 3137 398 
Q 2709 -91 1959 -91 
Q 1206 -91 779 398 
Q 353 888 353 1747 
Q 353 2609 779 3096 
Q 1206 3584 1959 3584 
z
" transform="scale(0.015625)"/>
       <path id="DejaVuSans-76" d="M 191 3500 
L 800 3500 
L 1894 563 
L 2988 3500 
L 3597 3500 
L 2284 0 
L 1503 0 
L 191 3500 
z
" transform="scale(0.015625)"/>
       <path id="DejaVuSans-6e" d="M 3513 2113 
L 3513 0 
L 2938 0 
L 2938 2094 
Q 2938 2591 2744 2837 
Q 2550 3084 2163 3084 
Q 1697 3084 1428 2787 
Q 1159 2491 1159 1978 
L 1159 0 
L 581 0 
L 581 3500 
L 1159 3500 
L 1159 2956 
Q 1366 3272 1645 3428 
Q 1925 3584 2291 3584 
Q 2894 3584 3203 3211 
Q 3513 2838 3513 2113 
z
" transform="scale(0.015625)"/>
      </defs>
      <use xlink:href="#DejaVuSans-51"/>
      <use xlink:href="#DejaVuSans-75" x="78.710938"/>
      <use xlink:href="#DejaVuSans-61" x="142.089844"/>
      <use xlink:href="#DejaVuSans-64" x="203.369141"/>
      <use xlink:href="#DejaVuSans-72" x="266.845703"/>
      <use xlink:href="#DejaVuSans-61" x="307.958984"/>
      <use xlink:href="#DejaVuSans-74" x="369.238281"/>
      <use xlink:href="#DejaVuSans-69" x="408.447266"/>
      <use xlink:href="#DejaVuSans-63" x="436.230469"/>
      <use xlink:href="#DejaVuSans-20" x="491.210938"/>
      <use xlink:href="#DejaVuSans-43" x="522.998047"/>
      <use xlink:href="#DejaVuSans-6f" x="592.822266"/>
      <use xlink:href="#DejaVuSans-76" x="654.003906"/>
      <use xlink:href="#DejaVuSans-61" x="713.183594"/>
      <use xlink:href="#DejaVuSans-72" x="774.462891"/>
      <use xlink:href="#DejaVuSans-69" x="815.576172"/>
      <use xlink:href="#DejaVuSans-61" x="843.359375"/>
      <use xlink:href="#DejaVuSans-74" x="904.638672"/>
      <use xlink:href="#DejaVuSans-69" x="943.847656"/>
      <use xlink:href="#DejaVuSans-6f" x="971.630859"/>
      <use xlink:href="#DejaVuSans-6e" x="1032.8125"/>
     </g>
    </g>
   </g>
   <g id="line2d_14">
    <path d="M 161.509091 277.910727 
L 162.219273 280.30648 
L 162.929455 275.054747 
L 163.639636 274.62602 
L 164.349818 275.753069 
L 165.06 274.099051 
L 165.770182 273.231123 
L 166.480364 280.178297 
L 167.190545 282.22369 
L 167.900727 283.505871 
L 168.610909 278.788828 
L 169.321091 280.603908 
L 170.031273 281.394299 
L 170.741455 279.42454 
L 171.451636 279.588997 
L 172.161818 276.270932 
L 172.872 280.3613 
L 173.582182 278.736902 
L 174.292364 276.698724 
L 175.002545 272.000802 
L 175.712727 272.77786 
L 176.422909 269.243484 
L 177.133091 270.917144 
L 177.843273 274.242741 
L 178.553455 272.701217 
L 179.263636 270.353067 
L 179.973818 269.997489 
L 181.394182 277.135725 
L 182.104364 273.605769 
L 182.814545 273.717938 
L 183.524727 271.463883 
L 184.234909 263.262793 
L 184.945091 268.128996 
L 185.655273 272.18849 
L 186.365455 274.741196 
L 187.785818 275.007769 
L 188.496 273.555111 
L 189.206182 276.889573 
L 189.916364 274.553194 
L 190.626545 273.502497 
L 191.336727 270.799538 
L 192.046909 268.772088 
L 192.757091 263.673481 
L 193.467273 264.612357 
L 194.177455 262.149189 
L 194.887636 261.020412 
L 195.597818 263.017754 
L 196.308 263.725033 
L 197.018182 257.61396 
L 197.728364 261.848843 
L 198.438545 259.615658 
L 199.148727 263.522516 
L 199.858909 262.162045 
L 200.569091 266.12246 
L 201.279273 263.519255 
L 201.989455 258.847029 
L 202.699636 260.831226 
L 203.409818 265.082486 
L 204.12 266.281632 
L 204.830182 267.738831 
L 205.540364 263.228008 
L 206.250545 262.129453 
L 206.960727 267.234322 
L 207.670909 262.841417 
L 208.381091 262.054309 
L 209.091273 263.605471 
L 209.801455 263.043699 
L 210.511636 262.716773 
L 211.221818 264.988911 
L 211.932 267.832582 
L 212.642182 266.425624 
L 213.352364 272.062784 
L 214.062545 272.013471 
L 214.772727 269.739532 
L 215.482909 267.067967 
L 216.193091 264.908425 
L 217.613455 269.965221 
L 218.323636 268.725267 
L 219.033818 264.630408 
L 220.454182 267.794312 
L 221.164364 270.676005 
L 221.874545 278.27515 
L 222.584727 282.397031 
L 223.294909 278.009634 
L 224.005091 278.333035 
L 224.715273 284.687292 
L 225.425455 286.991784 
L 226.135636 288.584549 
L 226.845818 294.328253 
L 227.556 295.264812 
L 228.266182 294.516849 
L 228.976364 297.67236 
L 229.686545 293.910175 
L 230.396727 298.161062 
L 231.106909 295.907548 
L 231.817091 295.648094 
L 232.527273 293.290053 
L 233.947636 295.155886 
L 234.657818 296.942783 
L 235.368 302.305642 
L 236.078182 303.296977 
L 236.788364 311.869753 
L 237.498545 313.912208 
L 238.208727 309.633337 
L 238.918909 306.694108 
L 239.629091 301.687633 
L 240.339273 301.964346 
L 241.049455 300.548162 
L 241.759636 301.841451 
L 242.469818 305.740306 
L 243.890182 301.329576 
L 244.600364 305.714559 
L 245.310545 307.019217 
L 246.020727 304.674327 
L 246.730909 307.428771 
L 248.151273 296.225383 
L 248.861455 295.889467 
L 249.571636 293.908224 
L 250.281818 293.431501 
L 250.992 292.805211 
L 251.702182 290.693486 
L 253.122545 274.163744 
L 253.832727 274.733696 
L 254.542909 272.412955 
L 255.253091 271.017604 
L 255.963273 268.824286 
L 256.673455 272.759957 
L 257.383636 270.128284 
L 258.093818 273.408662 
L 258.804 272.87407 
L 259.514182 274.719686 
L 260.224364 267.025954 
L 260.934545 268.701222 
L 261.644727 264.556896 
L 262.354909 261.96368 
L 263.065091 262.207738 
L 263.775273 266.79171 
L 264.485455 267.527388 
L 265.195636 266.642708 
L 265.905818 265.365283 
L 266.616 263.582306 
L 267.326182 263.374273 
L 268.036364 266.377845 
L 268.746545 265.70472 
L 269.456727 267.308552 
L 270.166909 265.753969 
L 270.877091 265.752118 
L 271.587273 266.589048 
L 272.297455 268.634694 
L 273.007636 265.895956 
L 273.717818 265.532628 
L 274.428 262.124519 
L 275.138182 259.59795 
L 275.848364 255.04212 
L 276.558545 254.85017 
L 277.268727 256.262165 
L 277.978909 257.301858 
L 278.689091 253.941683 
L 279.399273 252.916312 
L 280.109455 253.915943 
L 280.819636 253.794921 
L 281.529818 254.616678 
L 282.24 258.823173 
L 282.950182 259.792752 
L 283.660364 260.130554 
L 284.370545 257.501599 
L 285.790909 250.359406 
L 287.211273 252.183318 
L 287.921455 252.883569 
L 288.631636 249.575658 
L 289.341818 249.89748 
L 290.052 250.686766 
L 290.762182 252.645814 
L 291.472364 252.317371 
L 292.182545 252.638982 
L 293.602909 254.789002 
L 294.313091 253.453266 
L 295.023273 254.946274 
L 295.733455 246.723343 
L 296.443636 240.258594 
L 297.153818 242.03574 
L 297.864 241.762392 
L 298.574182 238.122994 
L 299.284364 242.029561 
L 299.994545 241.738755 
L 300.704727 239.034396 
L 301.414909 243.853775 
L 302.125091 241.20774 
L 302.835273 241.552705 
L 303.545455 236.104598 
L 304.255636 233.574465 
L 304.965818 235.268785 
L 305.676 236.253913 
L 306.386182 239.774608 
L 307.096364 238.014271 
L 307.806545 238.777729 
L 309.226909 235.845693 
L 309.937091 236.856222 
L 310.647273 235.083637 
L 311.357455 234.682132 
L 312.067636 235.876893 
L 312.777818 234.369287 
L 313.488 230.707018 
L 314.198182 238.273175 
L 314.908364 232.288731 
L 315.618545 231.697292 
L 316.328727 230.951672 
L 317.038909 231.249041 
L 317.749091 229.144981 
L 318.459273 230.755836 
L 319.169455 233.201659 
L 319.879636 232.686584 
L 320.589818 233.906465 
L 321.3 235.976278 
L 322.720364 231.813567 
L 323.430545 235.829154 
L 324.140727 238.11575 
L 324.850909 231.519773 
L 325.561091 232.475644 
L 326.271273 231.478002 
L 326.981455 231.602988 
L 327.691636 232.183462 
L 328.401818 232.330876 
L 329.112 232.356538 
L 329.822182 233.000658 
L 330.532364 230.169838 
L 331.242545 230.543897 
L 331.952727 228.06271 
L 332.662909 227.282758 
L 333.373091 233.600572 
L 334.083273 229.79348 
L 334.793455 229.515542 
L 335.503636 230.752506 
L 336.213818 231.60835 
L 336.924 236.011335 
L 337.634182 231.807464 
L 338.344364 229.557105 
L 339.054545 231.900082 
L 339.764727 228.191764 
L 340.474909 226.740801 
L 341.185091 230.467769 
L 341.895273 227.734988 
L 342.605455 234.131122 
L 343.315636 230.809863 
L 344.025818 231.25059 
L 344.736 226.291841 
L 345.446182 228.310945 
L 346.156364 227.104243 
L 346.866545 226.273514 
L 347.576727 226.868219 
L 348.286909 228.073267 
L 348.997091 232.950136 
L 349.707273 230.103906 
L 350.417455 230.095894 
L 351.127636 232.201906 
L 351.837818 231.584648 
L 352.548 233.289071 
L 353.258182 236.756671 
L 353.968364 235.198323 
L 354.678545 231.728466 
L 355.388727 229.113567 
L 356.098909 228.609243 
L 356.809091 227.865133 
L 358.229455 228.862299 
L 358.939636 228.619171 
L 359.649818 231.597903 
L 360.36 228.211404 
L 361.070182 231.506405 
L 361.780364 231.340466 
L 362.490545 223.774023 
L 363.200727 221.172012 
L 363.910909 219.733168 
L 364.621091 224.073979 
L 365.331273 221.390091 
L 366.041455 220.929616 
L 366.751636 217.217749 
L 367.461818 216.881664 
L 368.172 218.754938 
L 368.882182 218.778876 
L 369.592364 224.642041 
L 370.302545 224.98415 
L 371.012727 228.431869 
L 371.722909 227.512441 
L 372.433091 228.106324 
L 373.143273 233.144371 
L 373.853455 235.46429 
L 374.563636 232.680795 
L 375.273818 234.665073 
L 375.984 238.791906 
L 376.694182 239.341625 
L 377.404364 245.047721 
L 378.114545 244.763005 
L 378.824727 243.412509 
L 379.534909 244.397391 
L 380.245091 239.150672 
L 380.955273 243.524074 
L 381.665455 243.993334 
L 382.375636 242.357119 
L 383.085818 239.767059 
L 383.796 240.731082 
L 384.506182 242.354227 
L 385.216364 247.490281 
L 385.926545 249.408191 
L 386.636727 247.230964 
L 387.346909 251.165362 
L 388.057091 251.228733 
L 388.767273 249.438652 
L 389.477455 248.163456 
L 390.187636 244.447978 
L 391.608 248.61568 
L 392.318182 246.787932 
L 393.738545 249.25408 
L 394.448727 253.792738 
L 395.158909 253.915343 
L 395.869091 258.779858 
L 396.579273 258.458967 
L 397.289455 259.022615 
L 398.709818 254.745916 
L 399.42 255.432316 
L 400.130182 259.612416 
L 400.840364 257.31677 
L 401.550545 258.633237 
L 402.260727 258.232452 
L 402.970909 256.420961 
L 403.681091 259.077595 
L 404.391273 260.567556 
L 405.101455 260.029869 
L 405.811636 258.233176 
L 406.521818 259.074479 
L 407.232 257.571162 
L 407.942182 258.295475 
L 408.652364 256.440296 
L 409.362545 259.022503 
L 410.072727 263.770804 
L 410.782909 263.552107 
L 411.493091 266.059227 
L 412.203273 264.172921 
L 412.913455 266.684906 
L 413.623636 266.155595 
L 414.333818 270.889696 
L 415.044 271.742673 
L 416.464364 275.011061 
L 417.174545 275.683262 
L 417.884727 273.726662 
L 419.305091 275.080883 
L 420.015273 276.771407 
L 420.725455 280.085097 
L 421.435636 280.608565 
L 422.145818 285.602685 
L 422.856 286.319255 
L 423.566182 285.77016 
L 424.276364 287.85104 
L 424.986545 287.822047 
L 425.696727 286.350873 
L 426.406909 283.659273 
L 427.117091 276.730876 
L 427.827273 278.011413 
L 428.537455 277.26426 
L 429.247636 276.765052 
L 429.957818 275.170816 
L 430.668 276.149167 
L 431.378182 278.852721 
L 432.088364 276.271496 
L 432.798545 274.468918 
L 434.218909 274.162381 
L 434.929091 273.039365 
L 435.639273 276.202977 
L 436.349455 273.69641 
L 437.059636 278.493897 
L 437.769818 277.246885 
L 438.48 280.856648 
L 439.190182 283.261753 
L 440.610545 279.852207 
L 441.320727 276.762032 
L 442.741091 280.070851 
L 443.451273 280.787911 
L 444.161455 278.769076 
L 444.871636 277.546307 
L 445.581818 282.343188 
L 446.292 283.622186 
L 447.002182 282.799659 
L 447.712364 276.627851 
L 448.422545 277.777688 
L 449.132727 276.765246 
L 449.842909 279.196357 
L 450.553091 280.347782 
L 451.263273 281.275795 
L 451.973455 277.239627 
L 452.683636 281.99729 
L 454.104 273.707482 
L 454.814182 272.071161 
L 455.524364 266.841759 
L 456.234545 267.441376 
L 456.944727 265.790799 
L 457.654909 270.398316 
L 458.365091 268.070487 
L 459.075273 268.549015 
L 459.785455 269.184343 
L 460.495636 275.456818 
L 461.916 278.934983 
L 463.336364 282.611368 
L 464.046545 282.02924 
L 464.756727 281.818729 
L 465.466909 285.515715 
L 466.177091 279.627327 
L 466.887273 276.162533 
L 467.597455 280.234692 
L 468.307636 281.988355 
L 469.017818 278.71599 
L 469.728 280.89808 
L 470.438182 279.587474 
L 471.148364 281.571655 
L 471.858545 280.397787 
L 472.568727 276.316516 
L 473.278909 277.915513 
L 473.989091 274.341549 
L 474.699273 269.658029 
L 475.409455 266.822869 
L 476.119636 270.136952 
L 476.829818 267.169821 
L 477.54 270.10065 
L 478.250182 272.491413 
L 478.960364 268.100412 
L 479.670545 261.346684 
L 480.380727 264.134309 
L 481.090909 264.378974 
L 481.801091 265.17218 
L 482.511273 268.120227 
L 483.221455 268.804738 
L 483.931636 264.962092 
L 484.641818 266.527508 
L 486.062182 274.922741 
L 486.772364 274.922114 
L 487.482545 278.30127 
L 488.192727 282.503059 
L 488.902909 281.505635 
L 489.613091 279.058928 
L 490.323273 280.010528 
L 491.033455 284.008755 
L 491.743636 286.472159 
L 492.453818 284.343973 
L 493.164 286.145793 
L 493.874182 288.533631 
L 494.584364 289.442007 
L 495.294545 286.877393 
L 496.004727 282.870372 
L 496.714909 279.80289 
L 497.425091 282.493438 
L 498.135273 274.227364 
L 499.555636 276.072461 
L 500.265818 276.122652 
L 500.976 278.643947 
L 501.686182 284.767987 
L 502.396364 281.523114 
L 503.106545 283.900387 
L 503.816727 281.263975 
L 504.526909 282.643856 
L 505.237091 281.098446 
L 505.947273 283.221968 
L 506.657455 288.826392 
L 507.367636 287.660738 
L 508.788 290.575847 
L 509.498182 288.837767 
L 510.208364 290.43872 
L 511.628727 294.227923 
L 512.338909 299.485556 
L 513.049091 295.859705 
L 513.759273 297.549114 
L 514.469455 295.906553 
L 515.179636 289.907339 
L 515.889818 291.699396 
L 516.6 292.798821 
L 517.310182 293.182194 
L 518.020364 300.762419 
L 518.730545 300.057597 
L 519.440727 296.932821 
L 520.861091 293.118701 
L 521.571273 294.741409 
L 522.281455 289.823675 
L 522.991636 289.003574 
L 523.701818 286.035303 
L 524.412 287.857916 
L 525.122182 284.768347 
L 525.832364 284.868426 
L 526.542545 282.450562 
L 527.252727 279.440274 
L 527.962909 279.662109 
L 528.673091 277.330603 
L 529.383273 272.530562 
L 530.093455 276.445964 
L 530.803636 275.695572 
L 531.513818 276.292852 
L 533.644364 269.46407 
L 534.354545 266.849745 
L 535.064727 267.235321 
L 535.774909 267.319466 
L 536.485091 268.918914 
L 537.195273 268.318867 
L 537.905455 269.715616 
L 538.615636 272.103063 
L 539.325818 275.025098 
L 540.036 272.723779 
L 540.746182 274.427316 
L 541.456364 278.073145 
L 542.166545 275.432031 
L 542.876727 276.872354 
L 543.586909 276.895818 
L 544.297091 281.886185 
L 545.007273 282.862584 
L 545.717455 284.803737 
L 546.427636 284.317992 
L 547.137818 280.523362 
L 547.848 279.805358 
L 548.558182 278.878845 
L 549.268364 280.851538 
L 549.978545 281.902358 
L 550.688727 278.660734 
L 551.398909 278.327886 
L 552.109091 277.097441 
L 552.819273 278.255043 
L 553.529455 277.137379 
L 554.239636 278.160341 
L 554.949818 277.692719 
L 555.66 270.864922 
L 556.370182 269.831899 
L 557.080364 273.749811 
L 557.790545 273.106666 
L 558.500727 278.205254 
L 559.210909 276.616605 
L 559.921091 274.70851 
L 560.631273 274.003541 
L 561.341455 274.083954 
L 562.051636 275.749591 
L 562.761818 280.546002 
L 563.472 284.037984 
L 564.182182 282.591603 
L 564.892364 280.369354 
L 565.602545 280.567845 
L 566.312727 281.5856 
L 567.022909 282.343488 
L 567.733091 285.520379 
L 568.443273 282.504859 
L 569.863636 278.31274 
L 570.573818 277.536186 
L 571.284 272.981928 
L 571.994182 272.833155 
L 572.704364 271.929535 
L 573.414545 270.388111 
L 574.124727 269.398613 
L 574.834909 265.694702 
L 575.545091 264.879351 
L 576.255273 265.792346 
L 576.965455 267.322471 
L 577.675636 269.429147 
L 578.385818 268.262172 
L 579.096 263.855299 
L 579.806182 268.083272 
L 580.516364 263.419634 
L 581.226545 262.315256 
L 581.936727 262.77734 
L 582.646909 257.252433 
L 583.357091 253.270205 
L 584.067273 259.694366 
L 584.777455 259.748222 
L 585.487636 256.937609 
L 586.197818 258.767767 
L 586.908 258.672573 
L 587.618182 262.068186 
L 588.328364 263.842385 
L 589.038545 258.931495 
L 589.748727 262.533443 
L 590.458909 262.476421 
L 591.169091 263.031696 
L 591.879273 264.826394 
L 592.589455 261.706169 
L 593.299636 262.226201 
L 594.009818 260.791281 
L 594.72 258.421517 
L 595.430182 257.797985 
L 596.140364 256.68936 
L 596.850545 248.951353 
L 597.560727 246.609838 
L 598.270909 249.375273 
L 598.981091 247.698783 
L 599.691273 252.764854 
L 600.401455 255.254066 
L 601.111636 254.69314 
L 601.821818 259.016485 
L 602.532 265.127945 
L 603.242182 267.964737 
L 603.952364 261.794907 
L 604.662545 257.958683 
L 605.372727 261.254527 
L 606.082909 265.245374 
L 606.793091 268.070574 
L 607.503273 263.262028 
L 608.213455 261.279717 
L 608.923636 263.628638 
L 609.633818 259.014883 
L 610.344 256.270278 
L 611.054182 256.590444 
L 611.764364 257.843197 
L 613.184727 263.257636 
L 613.894909 266.543131 
L 614.605091 263.481177 
L 615.315273 266.535106 
L 616.025455 264.481609 
L 616.735636 265.505374 
L 617.445818 268.039025 
L 618.156 269.336456 
L 618.866182 269.200046 
L 619.576364 270.056045 
L 621.706909 274.963987 
L 623.127273 279.515587 
L 623.837455 284.677513 
L 624.547636 282.978638 
L 625.257818 279.971303 
L 625.968 281.27442 
L 626.678182 285.274478 
L 627.388364 285.462134 
L 628.098545 285.798537 
L 628.808727 283.917645 
L 629.518909 278.020314 
L 630.229091 278.124214 
L 631.649455 274.584827 
L 632.359636 275.624097 
L 633.069818 271.247541 
L 633.78 273.630564 
L 634.490182 273.022959 
L 635.200364 275.045444 
L 635.910545 272.702094 
L 636.620727 269.519426 
L 637.330909 271.047418 
L 638.041091 271.915711 
L 638.751273 273.878 
L 639.461455 276.387922 
L 640.171636 280.75221 
L 640.881818 281.685555 
L 641.592 284.506294 
L 642.302182 285.187809 
L 643.722545 286.839746 
L 644.432727 289.311798 
L 645.142909 289.80322 
L 645.853091 291.434108 
L 646.563273 287.894722 
L 647.273455 289.724631 
L 647.983636 289.96527 
L 648.693818 292.487224 
L 649.404 287.34495 
L 650.114182 284.968817 
L 650.824364 285.016159 
L 652.244727 291.669456 
L 652.954909 291.640611 
L 653.665091 295.710052 
L 654.375273 295.64917 
L 655.085455 293.593963 
L 655.795636 290.156774 
L 657.216 281.193838 
L 657.926182 280.496161 
L 658.636364 281.982049 
L 659.346545 278.587744 
L 660.056727 272.462001 
L 660.766909 272.090673 
L 661.477091 262.893191 
L 662.187273 262.825396 
L 662.897455 266.904607 
L 664.317818 262.467932 
L 665.028 262.325415 
L 666.448364 266.605565 
L 667.158545 262.486913 
L 667.868727 254.619556 
L 668.578909 254.988035 
L 669.289091 248.938679 
L 669.999273 246.546348 
L 670.709455 247.84747 
L 672.129818 249.1525 
L 672.84 251.195338 
L 673.550182 251.907172 
L 674.260364 253.664258 
L 674.970545 250.620701 
L 675.680727 250.708607 
L 676.390909 251.815467 
L 677.101091 254.023673 
L 677.811273 247.938094 
L 678.521455 249.492182 
L 679.231636 252.635732 
L 679.941818 243.819411 
L 680.652 243.741652 
L 681.362182 246.113796 
L 682.072364 241.791845 
L 682.782545 239.805379 
L 683.492727 242.656517 
L 684.202909 244.096369 
L 684.913091 238.941193 
L 685.623273 235.559467 
L 686.333455 232.757246 
L 687.043636 228.500326 
L 687.753818 227.658423 
L 688.464 222.164318 
L 689.174182 228.354586 
L 689.884364 229.308433 
L 690.594545 228.605046 
L 691.304727 228.471285 
L 692.014909 225.955645 
L 692.725091 230.009625 
L 693.435273 235.554356 
L 694.145455 227.11579 
L 694.855636 221.381238 
L 695.565818 216.811887 
L 696.276 214.832998 
L 696.986182 213.564835 
L 697.696364 214.188565 
L 698.406545 211.862924 
L 699.116727 205.682469 
L 699.826909 206.559618 
L 700.537091 203.302173 
L 701.247273 207.549889 
L 701.957455 204.403305 
L 702.667636 203.946446 
L 704.088 200.517899 
L 704.798182 201.76297 
L 705.508364 202.073705 
L 706.218545 197.15842 
L 706.928727 199.978271 
L 707.638909 198.237751 
L 708.349091 194.110716 
L 709.059273 198.406305 
L 709.769455 201.903053 
L 710.479636 198.730609 
L 711.189818 200.502631 
L 711.9 197.229825 
L 712.610182 196.14259 
L 713.320364 196.294925 
L 714.030545 199.22959 
L 714.740727 197.515638 
L 715.450909 196.834868 
L 716.161091 198.450617 
L 716.871273 197.022912 
L 717.581455 195.089675 
L 718.291636 199.304334 
L 719.001818 193.150873 
L 719.712 193.217771 
L 720.422182 188.641656 
L 721.842545 184.345539 
L 722.552727 184.017884 
L 723.262909 178.987363 
L 723.973091 181.438183 
L 724.683273 178.961368 
L 725.393455 180.850735 
L 726.103636 175.466125 
L 726.813818 178.639291 
L 727.524 175.340023 
L 728.234182 176.385883 
L 729.654545 172.987413 
L 730.364727 172.387974 
L 731.074909 175.962934 
L 731.785091 172.47519 
L 732.495273 178.809313 
L 733.205455 182.706427 
L 733.915636 182.74578 
L 734.625818 178.783106 
L 736.046182 179.272781 
L 736.756364 182.890251 
L 737.466545 182.776492 
L 738.176727 183.480731 
L 738.886909 187.22558 
L 739.597091 187.495626 
L 740.307273 194.321778 
L 741.017455 193.402431 
L 741.727636 191.522303 
L 742.437818 190.128033 
L 743.148 189.755612 
L 743.858182 190.392324 
L 744.568364 187.003339 
L 745.278545 185.725121 
L 745.988727 187.404184 
L 746.698909 181.468238 
L 747.409091 187.537348 
L 748.119273 181.351378 
L 748.829455 180.108969 
L 749.539636 180.823168 
L 750.249818 185.7805 
L 750.96 188.896775 
L 751.670182 191.409665 
L 752.380364 192.824423 
L 753.090545 193.639489 
L 753.800727 189.064026 
L 754.510909 182.360028 
L 755.221091 187.944359 
L 755.931273 191.211434 
L 756.641455 190.782814 
L 757.351636 185.907921 
L 758.061818 184.753967 
L 759.482182 179.671332 
L 760.192364 179.419597 
L 760.902545 179.404034 
L 761.612727 178.233711 
L 762.322909 179.072449 
L 763.033091 177.922207 
L 763.743273 179.500286 
L 764.453455 183.937676 
L 765.163636 183.956248 
L 765.873818 178.959718 
L 766.584 183.974551 
L 767.294182 187.928855 
L 768.004364 188.197132 
L 768.714545 181.203125 
L 769.424727 181.290698 
L 770.134909 173.567887 
L 770.845091 171.378315 
L 771.555273 172.961769 
L 772.265455 172.758834 
L 772.975636 168.335813 
L 773.685818 166.701809 
L 774.396 166.43919 
L 775.106182 166.896081 
L 775.816364 163.907751 
L 776.526545 170.87304 
L 777.236727 168.186094 
L 777.946909 167.64085 
L 778.657091 170.684109 
L 779.367273 169.684237 
L 780.077455 173.699299 
L 780.787636 174.233255 
L 781.497818 169.347492 
L 782.208 170.910076 
L 782.918182 171.35243 
L 783.628364 169.949468 
L 784.338545 167.561108 
L 785.048727 170.869797 
L 785.758909 173.254785 
L 786.469091 173.837822 
L 787.179273 172.648967 
L 787.889455 175.550198 
L 788.599636 176.582032 
L 789.309818 175.46278 
L 790.02 177.56477 
L 790.730182 178.13312 
L 792.150545 170.037577 
L 792.860727 169.269611 
L 793.570909 172.811572 
L 794.281091 170.8903 
L 794.991273 168.404435 
L 795.701455 168.96646 
L 796.411636 168.514714 
L 797.121818 170.229883 
L 798.542182 177.722821 
L 799.962545 174.840055 
L 800.672727 176.175842 
L 801.382909 176.29897 
L 802.093091 171.911331 
L 802.803273 174.679297 
L 804.223636 169.178711 
L 805.644 162.039366 
L 806.354182 166.677441 
L 807.064364 162.716542 
L 807.774545 165.955355 
L 808.484727 167.840117 
L 809.194909 163.296177 
L 809.905091 160.08376 
L 810.615273 163.059178 
L 811.325455 161.828792 
L 812.035636 164.565442 
L 812.745818 165.524326 
L 814.876364 174.977808 
L 815.586545 173.320755 
L 817.006909 178.281025 
L 818.427273 190.553651 
L 819.137455 187.35298 
L 819.847636 181.787806 
L 820.557818 184.355105 
L 821.268 185.793433 
L 821.978182 190.043469 
L 822.688364 191.635797 
L 823.398545 189.094471 
L 824.108727 187.422917 
L 824.818909 187.463357 
L 825.529091 189.564322 
L 826.239273 188.74388 
L 826.949455 191.910092 
L 827.659636 198.454142 
L 828.369818 203.329266 
L 829.08 201.847731 
L 829.790182 202.45836 
L 830.500364 205.140842 
L 831.210545 206.741803 
L 831.920727 207.550926 
L 832.630909 202.357331 
L 833.341091 203.692667 
L 834.051273 203.889627 
L 834.761455 208.69518 
L 835.471636 214.284195 
L 836.892 219.186248 
L 838.312364 217.345761 
L 839.732727 213.847221 
L 840.442909 215.324227 
L 841.153091 215.596167 
L 841.863273 211.362135 
L 842.573455 212.350971 
L 843.993818 207.833871 
L 844.704 212.959713 
L 845.414182 212.280671 
L 846.124364 207.502295 
L 846.834545 206.555952 
L 847.544727 207.593819 
L 848.254909 210.798117 
L 848.965091 205.738434 
L 850.385455 215.006415 
L 851.095636 211.949388 
L 852.516 209.551491 
L 853.226182 208.80348 
L 853.936364 209.015803 
L 854.646545 210.923526 
L 855.356727 210.934477 
L 856.066909 214.249153 
L 856.777091 212.400945 
L 857.487273 218.097208 
L 858.197455 216.58867 
L 858.907636 220.884611 
L 859.617818 220.325871 
L 860.328 222.378035 
L 861.038182 225.643379 
L 861.748364 225.124998 
L 862.458545 227.303282 
L 863.168727 228.585569 
L 863.878909 228.090806 
L 864.589091 233.36626 
L 865.299273 231.695318 
L 866.009455 233.798392 
L 866.719636 230.454808 
L 867.429818 231.512784 
L 868.14 228.340311 
L 868.850182 229.53944 
L 869.560364 228.527093 
L 870.270545 227.182289 
L 870.980727 220.96383 
L 871.690909 221.273449 
L 871.690909 221.273449 
" clip-path="url(#p89c6773d89)" style="fill: none; stroke: #1f77b4; stroke-width: 1.5; stroke-linecap: square"/>
   </g>
   <g id="line2d_15">
    <path d="M 161.509091 277.910727 
L 162.219273 282.270527 
L 162.929455 277.99598 
L 163.639636 275.680404 
L 164.349818 277.312672 
L 165.06 276.253516 
L 165.770182 274.097352 
L 166.480364 278.469322 
L 167.190545 284.948399 
L 167.900727 280.593339 
L 168.610909 278.341285 
L 169.321091 284.817625 
L 170.031273 286.23626 
L 170.741455 285.724255 
L 171.451636 284.299997 
L 172.161818 282.573137 
L 172.872 291.254133 
L 173.582182 286.465928 
L 174.292364 288.658344 
L 175.002545 286.968687 
L 175.712727 281.595271 
L 176.422909 275.199566 
L 177.133091 280.519724 
L 177.843273 282.807486 
L 178.553455 279.658889 
L 179.263636 280.063631 
L 181.394182 285.456412 
L 182.104364 282.515286 
L 182.814545 283.627122 
L 183.524727 281.733571 
L 184.234909 271.78909 
L 184.945091 274.588549 
L 185.655273 278.258628 
L 186.365455 282.803299 
L 187.075636 278.246476 
L 187.785818 277.001042 
L 188.496 276.449925 
L 189.206182 281.829237 
L 189.916364 280.140284 
L 190.626545 281.675828 
L 191.336727 279.838317 
L 192.046909 272.638729 
L 192.757091 267.562876 
L 193.467273 272.172367 
L 194.177455 265.781998 
L 194.887636 261.016369 
L 195.597818 260.563447 
L 196.308 259.236998 
L 197.018182 249.678392 
L 197.728364 256.025296 
L 198.438545 252.415373 
L 199.148727 251.958014 
L 199.858909 250.160042 
L 200.569091 256.645608 
L 201.279273 259.942801 
L 201.989455 253.766467 
L 202.699636 256.500772 
L 203.409818 257.969735 
L 204.12 256.957091 
L 204.830182 254.623699 
L 205.540364 249.83448 
L 206.250545 247.614744 
L 206.960727 250.732368 
L 207.670909 247.926575 
L 208.381091 242.479759 
L 209.091273 250.682418 
L 209.801455 244.696214 
L 210.511636 246.115436 
L 211.221818 247.787497 
L 211.932 251.692211 
L 212.642182 251.11179 
L 213.352364 255.829889 
L 214.062545 258.013704 
L 214.772727 252.276461 
L 215.482909 249.317227 
L 216.193091 247.589724 
L 216.903273 251.282994 
L 217.613455 249.776157 
L 218.323636 247.170028 
L 219.033818 236.087655 
L 219.744 239.372431 
L 220.454182 238.102261 
L 221.164364 241.203502 
L 221.874545 250.583002 
L 222.584727 248.198705 
L 223.294909 242.501261 
L 224.005091 240.164028 
L 224.715273 249.74288 
L 225.425455 253.607921 
L 226.135636 252.994247 
L 226.845818 261.703208 
L 227.556 260.923432 
L 228.266182 263.765535 
L 228.976364 263.585237 
L 229.686545 260.673347 
L 230.396727 268.855237 
L 231.106909 269.984039 
L 231.817091 266.89501 
L 232.527273 260.785438 
L 233.947636 265.670116 
L 234.657818 270.791353 
L 235.368 273.839338 
L 236.078182 274.640018 
L 236.788364 284.283876 
L 237.498545 285.21006 
L 238.208727 282.241925 
L 238.918909 281.928922 
L 239.629091 271.940736 
L 240.339273 270.959555 
L 241.759636 275.312713 
L 242.469818 280.687311 
L 243.18 278.430792 
L 243.890182 276.764203 
L 244.600364 275.934976 
L 245.310545 277.996732 
L 246.020727 276.586 
L 246.730909 282.365491 
L 247.441091 277.492114 
L 248.151273 275.253731 
L 248.861455 270.960047 
L 249.571636 271.573487 
L 250.281818 270.973717 
L 250.992 272.400832 
L 252.412364 257.041315 
L 253.122545 247.701288 
L 253.832727 246.986452 
L 254.542909 244.057078 
L 255.253091 244.271403 
L 255.963273 240.321115 
L 256.673455 244.812883 
L 257.383636 247.801189 
L 258.093818 249.333593 
L 258.804 253.182263 
L 259.514182 254.891182 
L 260.224364 246.390938 
L 260.934545 247.422499 
L 261.644727 238.370256 
L 262.354909 236.348574 
L 263.065091 238.086206 
L 263.775273 243.509573 
L 264.485455 240.844989 
L 265.195636 240.632831 
L 265.905818 238.475409 
L 266.616 233.936132 
L 267.326182 233.586104 
L 268.036364 244.207841 
L 268.746545 242.461274 
L 269.456727 244.583229 
L 270.166909 243.38626 
L 270.877091 243.180137 
L 271.587273 248.140721 
L 272.297455 247.885713 
L 273.007636 244.687765 
L 273.717818 243.76505 
L 274.428 234.677045 
L 275.848364 222.406951 
L 276.558545 223.081401 
L 277.268727 223.443569 
L 277.978909 221.987423 
L 278.689091 219.686991 
L 279.399273 214.775806 
L 280.109455 214.60215 
L 281.529818 205.974514 
L 282.24 207.713432 
L 282.950182 201.213 
L 283.660364 196.806623 
L 284.370545 193.319546 
L 285.080727 188.616592 
L 285.790909 182.293788 
L 286.501091 180.695873 
L 287.211273 185.468487 
L 287.921455 184.177682 
L 288.631636 180.00916 
L 289.341818 179.449747 
L 290.052 186.622476 
L 290.762182 187.066608 
L 291.472364 184.207203 
L 292.182545 184.17987 
L 292.892727 188.2725 
L 293.602909 189.638949 
L 294.313091 189.747297 
L 295.023273 191.784531 
L 295.733455 183.887657 
L 296.443636 182.187321 
L 297.153818 185.853783 
L 297.864 184.088215 
L 298.574182 181.23587 
L 299.284364 190.856076 
L 299.994545 196.032508 
L 300.704727 187.540771 
L 301.414909 199.250925 
L 302.125091 197.410741 
L 302.835273 200.877555 
L 303.545455 190.898805 
L 304.255636 186.654699 
L 304.965818 190.324769 
L 305.676 187.282977 
L 306.386182 191.418033 
L 307.096364 185.885877 
L 307.806545 186.802656 
L 308.516727 182.491553 
L 309.937091 177.793857 
L 310.647273 176.22443 
L 311.357455 172.516615 
L 312.067636 174.069838 
L 312.777818 170.470629 
L 313.488 169.000115 
L 314.198182 171.194063 
L 314.908364 169.301639 
L 315.618545 173.480319 
L 316.328727 173.075385 
L 317.038909 171.265575 
L 317.749091 170.889917 
L 318.459273 173.54573 
L 319.169455 177.703674 
L 319.879636 179.030267 
L 320.589818 177.796382 
L 321.3 182.974655 
L 322.010182 183.056357 
L 322.720364 184.475838 
L 323.430545 192.258932 
L 324.140727 192.914854 
L 324.850909 190.110879 
L 325.561091 198.212483 
L 326.981455 195.111084 
L 327.691636 197.060506 
L 328.401818 199.39114 
L 329.112 199.841099 
L 329.822182 206.747619 
L 330.532364 204.551827 
L 331.242545 208.123525 
L 331.952727 208.42501 
L 332.662909 205.267479 
L 333.373091 211.776095 
L 334.083273 213.25516 
L 334.793455 214.182082 
L 335.503636 220.221924 
L 336.213818 221.519095 
L 336.924 225.371475 
L 337.634182 223.391064 
L 338.344364 218.131035 
L 339.054545 219.018381 
L 339.764727 212.137462 
L 340.474909 210.12286 
L 341.185091 213.041216 
L 341.895273 206.991343 
L 342.605455 213.204755 
L 343.315636 210.059628 
L 344.025818 216.34384 
L 344.736 209.375847 
L 345.446182 209.979551 
L 346.156364 207.081767 
L 346.866545 207.546689 
L 347.576727 208.78499 
L 348.286909 207.266084 
L 348.997091 212.422378 
L 349.707273 208.984643 
L 350.417455 208.020868 
L 351.127636 211.053622 
L 351.837818 210.201912 
L 352.548 210.983731 
L 353.258182 209.558623 
L 353.968364 206.801409 
L 354.678545 203.248592 
L 355.388727 200.869466 
L 356.098909 196.860395 
L 356.809091 195.91748 
L 357.519273 203.295388 
L 358.939636 193.950292 
L 359.649818 193.509662 
L 360.36 186.77003 
L 361.070182 190.813494 
L 361.780364 188.088634 
L 362.490545 182.081291 
L 363.200727 177.33738 
L 363.910909 171.50969 
L 364.621091 180.218383 
L 365.331273 175.02387 
L 366.041455 172.411988 
L 366.751636 172.012977 
L 367.461818 175.923976 
L 368.882182 169.59872 
L 369.592364 176.539318 
L 370.302545 175.526095 
L 371.012727 178.858628 
L 371.722909 179.196628 
L 372.433091 176.131707 
L 373.143273 182.272817 
L 373.853455 179.585017 
L 374.563636 178.50083 
L 375.273818 183.340217 
L 375.984 183.6759 
L 376.694182 184.848176 
L 377.404364 189.6525 
L 378.114545 187.706706 
L 378.824727 184.716106 
L 379.534909 182.862971 
L 380.245091 173.538779 
L 380.955273 182.585447 
L 382.375636 178.01375 
L 383.085818 172.699841 
L 383.796 173.585297 
L 384.506182 174.126364 
L 385.216364 185.875015 
L 385.926545 190.278776 
L 386.636727 193.954295 
L 387.346909 199.432205 
L 388.057091 199.986124 
L 388.767273 198.458135 
L 389.477455 199.683133 
L 390.187636 195.321513 
L 390.897818 202.733507 
L 391.608 206.060622 
L 392.318182 203.661785 
L 393.028364 203.024806 
L 393.738545 204.172973 
L 394.448727 204.866391 
L 395.158909 209.511913 
L 395.869091 211.731753 
L 396.579273 211.049285 
L 397.289455 212.473309 
L 397.999636 204.996155 
L 398.709818 203.137023 
L 399.42 203.621317 
L 400.130182 202.962032 
L 401.550545 195.57321 
L 402.260727 193.246505 
L 402.970909 190.44381 
L 403.681091 190.358465 
L 404.391273 193.177122 
L 405.101455 190.523826 
L 405.811636 188.714005 
L 406.521818 192.149612 
L 407.232 197.07063 
L 407.942182 198.163642 
L 408.652364 192.155238 
L 410.072727 197.850127 
L 410.782909 194.176208 
L 411.493091 198.242825 
L 412.203273 198.402635 
L 412.913455 200.982111 
L 413.623636 204.657058 
L 414.333818 209.959799 
L 415.044 211.020366 
L 415.754182 211.39372 
L 416.464364 214.75217 
L 417.174545 219.650462 
L 417.884727 219.650257 
L 418.594909 219.373063 
L 419.305091 224.388407 
L 420.015273 226.192421 
L 420.725455 231.623626 
L 421.435636 224.967561 
L 422.145818 223.939396 
L 422.856 223.500418 
L 423.566182 227.586533 
L 424.276364 230.171856 
L 424.986545 230.397751 
L 425.696727 227.996439 
L 426.406909 227.604946 
L 427.117091 217.697399 
L 427.827273 218.592039 
L 428.537455 217.63537 
L 429.247636 213.59744 
L 429.957818 215.359423 
L 430.668 204.782547 
L 431.378182 206.836111 
L 432.088364 200.517036 
L 432.798545 200.391791 
L 434.218909 197.117403 
L 434.929091 196.757696 
L 435.639273 200.293102 
L 436.349455 191.652264 
L 437.059636 195.531141 
L 437.769818 191.735386 
L 438.48 193.219569 
L 439.190182 199.877031 
L 439.900364 202.971574 
L 440.610545 200.503678 
L 441.320727 194.080783 
L 442.030909 195.076676 
L 442.741091 194.50584 
L 443.451273 191.125449 
L 444.161455 191.884309 
L 445.581818 201.832282 
L 446.292 201.72712 
L 447.002182 207.826768 
L 447.712364 200.588246 
L 448.422545 202.203411 
L 449.132727 206.624494 
L 449.842909 208.222147 
L 450.553091 207.868384 
L 451.263273 206.63255 
L 451.973455 200.982884 
L 452.683636 203.523717 
L 453.393818 197.884152 
L 454.814182 189.982548 
L 455.524364 182.176298 
L 456.234545 181.339624 
L 456.944727 183.11916 
L 457.654909 186.719722 
L 458.365091 184.780846 
L 459.075273 185.08901 
L 459.785455 184.754553 
L 460.495636 194.992892 
L 461.205818 200.224225 
L 463.336364 209.314057 
L 464.046545 206.912203 
L 464.756727 206.746907 
L 465.466909 214.911642 
L 466.177091 208.354739 
L 466.887273 205.954582 
L 467.597455 210.276209 
L 468.307636 215.541957 
L 469.017818 214.538374 
L 469.728 217.427008 
L 470.438182 218.295471 
L 471.148364 224.15846 
L 471.858545 223.420353 
L 472.568727 227.951843 
L 473.278909 224.955112 
L 473.989091 224.365522 
L 474.699273 220.092649 
L 475.409455 217.091874 
L 476.119636 219.088832 
L 476.829818 219.3576 
L 477.54 227.955576 
L 478.250182 233.00913 
L 478.960364 227.380895 
L 479.670545 213.715056 
L 480.380727 217.445025 
L 481.090909 217.344337 
L 481.801091 218.477259 
L 482.511273 216.246956 
L 483.221455 213.55721 
L 483.931636 206.362226 
L 484.641818 208.488091 
L 485.352 217.382137 
L 486.062182 219.664972 
L 487.482545 227.887646 
L 488.192727 233.675663 
L 488.902909 232.248302 
L 489.613091 232.313556 
L 490.323273 231.146005 
L 491.743636 244.463709 
L 492.453818 248.930976 
L 493.164 250.929148 
L 493.874182 252.300362 
L 494.584364 254.731163 
L 496.004727 248.864418 
L 496.714909 243.316584 
L 497.425091 247.042731 
L 498.135273 240.853046 
L 498.845455 236.827995 
L 499.555636 237.345489 
L 500.265818 236.18075 
L 500.976 236.113973 
L 501.686182 241.611967 
L 502.396364 236.921805 
L 503.106545 240.224528 
L 504.526909 233.746775 
L 505.237091 233.928491 
L 505.947273 232.993658 
L 506.657455 239.358102 
L 507.367636 236.724078 
L 508.077818 240.921525 
L 508.788 243.383449 
L 509.498182 245.288119 
L 510.208364 248.261359 
L 510.918545 255.348522 
L 511.628727 255.808912 
L 512.338909 266.284446 
L 513.049091 264.563039 
L 514.469455 269.256814 
L 515.179636 268.006223 
L 515.889818 269.595758 
L 516.6 269.774084 
L 517.310182 271.216873 
L 518.020364 277.78487 
L 518.730545 275.397376 
L 519.440727 272.612214 
L 520.861091 259.704532 
L 521.571273 259.890409 
L 522.281455 253.452295 
L 522.991636 253.407644 
L 523.701818 248.440407 
L 524.412 250.494641 
L 525.122182 242.467332 
L 525.832364 242.215417 
L 527.252727 240.295786 
L 527.962909 236.636975 
L 528.673091 234.793315 
L 529.383273 231.607009 
L 530.093455 229.997671 
L 530.803636 226.161272 
L 531.513818 225.618473 
L 532.224 225.825442 
L 532.934182 221.018589 
L 533.644364 226.127113 
L 534.354545 228.18619 
L 535.774909 226.140247 
L 536.485091 222.987606 
L 537.195273 225.238439 
L 537.905455 225.051819 
L 538.615636 223.364031 
L 539.325818 222.63542 
L 540.036 214.78725 
L 540.746182 214.71293 
L 541.456364 213.862068 
L 542.876727 207.503857 
L 543.586909 209.849359 
L 544.297091 214.315466 
L 545.007273 215.085439 
L 545.717455 217.669104 
L 546.427636 216.276604 
L 547.137818 214.626026 
L 548.558182 215.205585 
L 549.268364 215.706586 
L 549.978545 216.830499 
L 550.688727 212.675436 
L 551.398909 206.851 
L 552.109091 204.748094 
L 552.819273 204.135873 
L 553.529455 200.187932 
L 554.239636 200.317049 
L 554.949818 201.427613 
L 555.66 192.453024 
L 556.370182 193.905888 
L 557.080364 197.810834 
L 557.790545 196.659668 
L 558.500727 202.508408 
L 559.210909 209.650714 
L 559.921091 207.880521 
L 560.631273 207.038289 
L 561.341455 206.3711 
L 562.051636 209.305464 
L 562.761818 216.449568 
L 563.472 220.369652 
L 564.182182 219.03758 
L 564.892364 219.279348 
L 565.602545 220.837776 
L 566.312727 223.055912 
L 567.022909 223.984633 
L 567.733091 226.791084 
L 568.443273 227.534512 
L 569.153455 229.586062 
L 569.863636 224.518252 
L 570.573818 222.831437 
L 571.284 217.162878 
L 571.994182 218.5335 
L 572.704364 214.015809 
L 573.414545 210.678243 
L 574.124727 210.93019 
L 574.834909 209.639645 
L 575.545091 209.216365 
L 576.255273 208.074389 
L 576.965455 208.623361 
L 577.675636 211.098949 
L 578.385818 210.319623 
L 579.096 201.924712 
L 579.806182 206.442395 
L 580.516364 204.876357 
L 581.226545 206.498903 
L 581.936727 209.677156 
L 582.646909 201.402491 
L 583.357091 201.007332 
L 584.067273 204.463589 
L 584.777455 206.8617 
L 585.487636 207.208603 
L 586.197818 208.087841 
L 586.908 206.665462 
L 588.328364 209.38591 
L 589.038545 200.234515 
L 589.748727 202.795362 
L 590.458909 200.274817 
L 591.169091 201.317823 
L 591.879273 203.904328 
L 592.589455 197.518366 
L 593.299636 198.654315 
L 594.009818 201.01901 
L 594.72 191.193117 
L 595.430182 190.431491 
L 596.140364 187.093617 
L 596.850545 180.705767 
L 597.560727 180.056233 
L 598.270909 182.041209 
L 598.981091 181.343786 
L 599.691273 182.516384 
L 600.401455 181.726297 
L 601.111636 182.712463 
L 601.821818 190.117393 
L 602.532 195.940027 
L 603.242182 199.135613 
L 603.952364 191.505937 
L 604.662545 189.521533 
L 605.372727 193.335628 
L 606.082909 195.260468 
L 606.793091 194.352982 
L 607.503273 194.55604 
L 608.213455 190.090879 
L 608.923636 191.741334 
L 609.633818 185.513452 
L 610.344 181.173011 
L 611.054182 182.439872 
L 611.764364 182.915052 
L 612.474545 180.516168 
L 613.184727 182.554355 
L 613.894909 187.73745 
L 614.605091 187.051353 
L 615.315273 188.834908 
L 616.025455 185.537233 
L 616.735636 185.990416 
L 617.445818 189.385928 
L 618.156 188.645957 
L 618.866182 195.672169 
L 619.576364 195.778446 
L 620.286545 198.406496 
L 620.996727 197.3627 
L 621.706909 202.10248 
L 623.127273 215.580227 
L 623.837455 215.931142 
L 624.547636 215.325084 
L 625.257818 211.998163 
L 625.968 210.587189 
L 626.678182 219.227378 
L 627.388364 217.988477 
L 628.098545 221.773214 
L 628.808727 218.562133 
L 629.518909 214.636683 
L 630.229091 212.933991 
L 630.939273 211.725756 
L 631.649455 208.150379 
L 632.359636 207.330232 
L 633.069818 202.782994 
L 633.78 208.539755 
L 634.490182 203.433727 
L 635.200364 203.727466 
L 635.910545 202.229891 
L 636.620727 197.780519 
L 637.330909 198.515603 
L 639.461455 207.802323 
L 640.171636 212.166657 
L 640.881818 212.721016 
L 641.592 218.97828 
L 642.302182 214.32083 
L 643.012364 219.681044 
L 643.722545 223.418452 
L 644.432727 226.196026 
L 645.142909 227.747604 
L 646.563273 232.790389 
L 647.273455 233.679471 
L 647.983636 233.942808 
L 648.693818 235.269583 
L 649.404 230.355282 
L 650.114182 230.76406 
L 650.824364 229.598219 
L 652.244727 240.072255 
L 652.954909 236.104277 
L 653.665091 238.778359 
L 654.375273 244.875799 
L 655.085455 243.993561 
L 655.795636 238.125144 
L 656.505818 234.865995 
L 657.216 229.838522 
L 657.926182 227.541869 
L 658.636364 229.863332 
L 659.346545 227.190206 
L 660.056727 218.923066 
L 660.766909 218.436018 
L 661.477091 208.498626 
L 662.187273 205.531666 
L 662.897455 214.38137 
L 663.607636 208.407624 
L 664.317818 203.857857 
L 665.028 200.651972 
L 665.738182 203.387278 
L 666.448364 203.451094 
L 667.158545 201.931381 
L 667.868727 196.190852 
L 668.578909 200.060503 
L 669.289091 195.587757 
L 669.999273 186.138733 
L 670.709455 188.864215 
L 671.419636 193.594899 
L 672.129818 189.770979 
L 672.84 189.561541 
L 674.260364 205.953324 
L 674.970545 201.092011 
L 675.680727 203.623834 
L 676.390909 196.686052 
L 677.101091 203.894712 
L 677.811273 198.436163 
L 678.521455 196.303027 
L 679.231636 197.382101 
L 679.941818 184.130178 
L 680.652 181.638491 
L 681.362182 182.677829 
L 682.072364 179.260435 
L 682.782545 173.491795 
L 683.492727 178.732064 
L 684.202909 180.147157 
L 684.913091 173.446359 
L 685.623273 172.149471 
L 686.333455 167.734499 
L 687.043636 166.391093 
L 687.753818 168.45328 
L 688.464 161.442882 
L 689.174182 166.329551 
L 689.884364 169.632717 
L 690.594545 170.212442 
L 692.014909 160.774375 
L 692.725091 165.416632 
L 693.435273 172.196708 
L 694.855636 161.951388 
L 695.565818 160.215675 
L 696.276 153.677034 
L 696.986182 150.360311 
L 697.696364 147.968254 
L 698.406545 144.893035 
L 699.116727 140.371999 
L 699.826909 137.835815 
L 700.537091 133.753209 
L 701.247273 134.136542 
L 701.957455 130.37305 
L 702.667636 127.501641 
L 703.377818 123.487386 
L 704.088 123.708714 
L 704.798182 123.144474 
L 706.218545 120.276298 
L 706.928727 125.90594 
L 707.638909 124.521854 
L 708.349091 127.118898 
L 709.059273 129.15916 
L 709.769455 134.709405 
L 710.479636 136.834509 
L 711.189818 140.06546 
L 711.9 138.548252 
L 712.610182 141.603263 
L 713.320364 145.500718 
L 714.030545 146.418287 
L 714.740727 145.206599 
L 715.450909 148.602398 
L 716.161091 150.718067 
L 716.871273 144.56389 
L 717.581455 141.401965 
L 718.291636 146.771813 
L 719.001818 142.019313 
L 719.712 144.321719 
L 720.422182 128.969466 
L 721.132364 126.354667 
L 721.842545 120.435037 
L 722.552727 118.62984 
L 723.262909 113.22389 
L 723.973091 112.525233 
L 724.683273 112.182135 
L 725.393455 111.638623 
L 726.103636 106.955909 
L 726.813818 112.096824 
L 727.524 106.591395 
L 728.234182 110.984799 
L 728.944364 104.487378 
L 729.654545 102.239016 
L 730.364727 104.639806 
L 731.074909 111.493137 
L 731.785091 106.953527 
L 732.495273 111.192028 
L 733.915636 112.828553 
L 734.625818 110.654222 
L 735.336 114.74764 
L 736.046182 113.562396 
L 736.756364 113.075933 
L 737.466545 110.691579 
L 738.176727 110.455888 
L 738.886909 118.853422 
L 739.597091 117.645494 
L 740.307273 120.208232 
L 741.017455 117.74734 
L 741.727636 113.788377 
L 742.437818 110.946779 
L 743.148 105.171453 
L 743.858182 107.292488 
L 744.568364 108.194648 
L 745.988727 105.878587 
L 746.698909 94.31671 
L 747.409091 100.587347 
L 748.119273 99.996564 
L 751.670182 119.436772 
L 752.380364 120.066785 
L 753.090545 125.309523 
L 753.800727 119.639341 
L 754.510909 110.101213 
L 755.221091 109.871045 
L 755.931273 111.447229 
L 756.641455 115.191115 
L 757.351636 114.914561 
L 758.061818 116.472899 
L 759.482182 110.507729 
L 760.192364 115.669123 
L 760.902545 116.101537 
L 761.612727 114.037827 
L 762.322909 111.33499 
L 763.033091 109.160673 
L 763.743273 111.241441 
L 764.453455 115.737187 
L 765.163636 111.645565 
L 765.873818 106.120427 
L 766.584 109.531813 
L 767.294182 110.072585 
L 768.004364 114.625432 
L 768.714545 108.122759 
L 769.424727 116.472122 
L 770.134909 109.338138 
L 770.845091 106.966622 
L 771.555273 106.304882 
L 772.265455 106.611736 
L 772.975636 98.408393 
L 773.685818 97.911283 
L 774.396 99.028486 
L 775.106182 101.521556 
L 775.816364 101.629694 
L 776.526545 109.181395 
L 777.236727 104.493909 
L 777.946909 97.653681 
L 778.657091 100.761439 
L 779.367273 102.006008 
L 780.787636 94.165 
L 781.497818 88.985779 
L 782.208 89.380756 
L 782.918182 88.705524 
L 783.628364 84.913042 
L 784.338545 83.079215 
L 785.048727 87.119281 
L 785.758909 87.990766 
L 786.469091 88.307709 
L 787.179273 89.128399 
L 787.889455 93.138296 
L 788.599636 93.296187 
L 789.309818 89.279507 
L 790.02 89.237696 
L 790.730182 90.352034 
L 791.440364 90.594002 
L 792.860727 82.650029 
L 793.570909 80.180359 
L 794.281091 75.925833 
L 794.991273 73.446318 
L 795.701455 73.273738 
L 796.411636 71.475026 
L 797.121818 72.324852 
L 798.542182 82.832851 
L 799.252364 82.0399 
L 799.962545 77.35832 
L 801.382909 83.148399 
L 802.093091 77.985797 
L 802.803273 81.546012 
L 803.513455 76.23318 
L 804.223636 77.741834 
L 805.644 67.121262 
L 806.354182 70.545725 
L 807.064364 68.37408 
L 807.774545 72.964178 
L 809.194909 68.321546 
L 809.905091 66.96 
L 810.615273 71.131909 
L 811.325455 72.644271 
L 812.035636 74.920887 
L 812.745818 74.419467 
L 813.456 80.216887 
L 814.166182 88.093789 
L 814.876364 91.171569 
L 815.586545 87.865691 
L 816.296727 89.830104 
L 817.006909 94.977473 
L 817.717091 101.99726 
L 818.427273 106.419706 
L 819.137455 99.134677 
L 819.847636 94.255259 
L 820.557818 99.591171 
L 821.268 98.827614 
L 821.978182 108.727636 
L 822.688364 109.890298 
L 823.398545 104.73124 
L 824.108727 101.335862 
L 824.818909 104.054009 
L 825.529091 102.155481 
L 826.239273 104.502629 
L 826.949455 104.728665 
L 828.369818 118.628121 
L 829.08 117.086853 
L 829.790182 116.131903 
L 830.500364 120.175857 
L 831.210545 117.879213 
L 831.920727 119.966623 
L 832.630909 120.648999 
L 833.341091 132.62277 
L 834.761455 141.01692 
L 835.471636 139.186649 
L 836.181818 136.402462 
L 836.892 143.056826 
L 838.312364 137.478803 
L 839.022545 131.828444 
L 839.732727 130.715109 
L 840.442909 134.017427 
L 841.153091 129.253233 
L 841.863273 123.474669 
L 842.573455 122.33951 
L 843.283636 120.584416 
L 843.993818 121.288199 
L 844.704 125.081003 
L 845.414182 122.527391 
L 846.124364 118.263321 
L 846.834545 116.870787 
L 847.544727 110.511125 
L 848.254909 118.505927 
L 848.965091 115.639093 
L 849.675273 117.264687 
L 850.385455 123.007282 
L 851.805818 121.501107 
L 852.516 122.494225 
L 853.226182 120.80616 
L 853.936364 119.694367 
L 854.646545 121.830614 
L 855.356727 120.539572 
L 856.066909 124.202929 
L 856.777091 112.578621 
L 857.487273 116.01812 
L 858.197455 114.449042 
L 858.907636 117.209176 
L 859.617818 120.419524 
L 860.328 126.12812 
L 861.038182 130.565675 
L 861.748364 130.611278 
L 862.458545 135.726637 
L 863.168727 135.190949 
L 863.878909 130.598269 
L 864.589091 137.930864 
L 865.299273 134.982749 
L 866.009455 133.789215 
L 866.719636 127.309456 
L 867.429818 128.305282 
L 868.14 127.159475 
L 868.850182 127.828008 
L 869.560364 121.789803 
L 870.270545 123.806752 
L 870.980727 117.940927 
L 871.690909 117.836568 
L 871.690909 117.836568 
" clip-path="url(#p89c6773d89)" style="fill: none; stroke: #ff7f0e; stroke-width: 1.5; stroke-linecap: square"/>
   </g>
   <g id="line2d_16">
    <path d="M 162.219273 369.36 
L 162.929455 369.114828 
L 165.770182 369.044323 
L 166.480364 368.712609 
L 167.190545 368.567876 
L 167.900727 368.628861 
L 170.031273 368.372215 
L 172.161818 368.30118 
L 172.872 367.913378 
L 173.582182 367.828432 
L 174.292364 367.877235 
L 175.002545 367.790542 
L 175.712727 367.836144 
L 176.422909 367.589267 
L 178.553455 367.355921 
L 180.684 367.311321 
L 183.524727 367.067651 
L 184.234909 366.17695 
L 186.365455 365.738755 
L 188.496 365.738374 
L 189.206182 365.542476 
L 192.046909 365.303339 
L 192.757091 365.020696 
L 193.467273 364.973431 
L 194.887636 364.742772 
L 196.308 364.762898 
L 197.018182 364.124942 
L 197.728364 363.831393 
L 199.148727 363.762863 
L 199.858909 363.736148 
L 200.569091 363.455626 
L 201.279273 363.549368 
L 201.989455 363.234206 
L 204.12 363.120012 
L 204.830182 363.157147 
L 205.540364 362.921208 
L 206.250545 362.894577 
L 207.670909 362.586149 
L 212.642182 362.197027 
L 213.352364 361.906555 
L 214.062545 361.907731 
L 215.482909 361.678906 
L 218.323636 361.549161 
L 219.033818 361.053539 
L 221.164364 360.924543 
L 221.874545 360.146107 
L 222.584727 360.253441 
L 223.294909 359.980439 
L 224.005091 359.988694 
L 224.715273 359.323947 
L 226.135636 359.237345 
L 226.845818 358.691038 
L 228.976364 358.728444 
L 229.686545 358.6088 
L 230.396727 358.22895 
L 231.817091 358.247979 
L 232.527273 358.090638 
L 234.657818 357.940822 
L 235.368 357.762302 
L 236.078182 357.753633 
L 236.788364 356.85071 
L 237.498545 356.83005 
L 238.208727 356.691345 
L 238.918909 356.681298 
L 239.629091 356.135167 
L 241.759636 356.14608 
L 242.469818 355.917224 
L 243.890182 355.82205 
L 245.310545 355.832384 
L 246.020727 355.796256 
L 246.730909 355.622395 
L 247.441091 355.305661 
L 248.861455 355.161507 
L 250.992 355.181419 
L 251.702182 355.010603 
L 252.412364 354.318569 
L 253.122545 353.445156 
L 255.253091 353.378625 
L 257.383636 353.176818 
L 259.514182 353.109942 
L 260.224364 352.395698 
L 260.934545 352.376824 
L 261.644727 351.967103 
L 263.065091 351.905214 
L 263.775273 351.633702 
L 265.905818 351.622962 
L 267.326182 351.533775 
L 268.036364 351.185348 
L 272.297455 351.075369 
L 273.717818 350.976054 
L 274.428 350.637786 
L 275.138182 350.47108 
L 275.848364 350.161168 
L 278.689091 350.089111 
L 280.819636 350.029843 
L 281.529818 350.065405 
L 282.24 349.985518 
L 283.660364 350.070608 
L 285.080727 349.783651 
L 285.790909 349.541644 
L 287.921455 349.51922 
L 288.631636 349.368624 
L 292.182545 349.289097 
L 295.023273 349.194675 
L 295.733455 348.485489 
L 297.153818 348.294276 
L 298.574182 348.175632 
L 299.284364 347.765185 
L 299.994545 347.781625 
L 300.704727 347.530818 
L 301.414909 346.914462 
L 302.835273 346.848222 
L 303.545455 346.254477 
L 304.965818 346.069289 
L 305.676 346.102016 
L 307.096364 345.836661 
L 312.067636 345.683116 
L 313.488 345.565038 
L 314.908364 345.260059 
L 317.749091 345.280999 
L 322.010182 345.031804 
L 322.720364 345.065936 
L 323.430545 344.724602 
L 324.140727 344.708222 
L 324.850909 344.506231 
L 326.271273 344.404742 
L 329.822182 344.342035 
L 331.242545 344.259557 
L 332.662909 344.24083 
L 333.373091 343.79174 
L 334.793455 343.856051 
L 339.054545 343.334177 
L 339.764727 343.055499 
L 341.185091 342.904787 
L 341.895273 342.724224 
L 342.605455 342.290187 
L 344.025818 342.145857 
L 344.736 341.768495 
L 348.286909 341.733158 
L 348.997091 341.458522 
L 350.417455 341.351576 
L 351.837818 341.27608 
L 354.678545 341.133934 
L 356.809091 341.036246 
L 358.939636 341.014767 
L 359.649818 341.029101 
L 361.070182 340.634326 
L 361.780364 340.629387 
L 362.490545 340.132964 
L 363.910909 339.906576 
L 364.621091 339.493716 
L 365.331273 339.341456 
L 368.172 339.387502 
L 368.882182 339.388376 
L 369.592364 338.943942 
L 370.302545 338.947727 
L 371.012727 338.822245 
L 372.433091 338.845518 
L 373.143273 338.507618 
L 374.563636 338.54276 
L 375.984 338.422755 
L 376.694182 338.415717 
L 377.404364 338.116319 
L 379.534909 338.086092 
L 380.955273 337.119699 
L 382.375636 337.092272 
L 383.085818 336.941957 
L 384.506182 336.923043 
L 385.216364 336.264027 
L 385.926545 336.171784 
L 386.636727 336.259182 
L 387.346909 336.023801 
L 389.477455 336.010606 
L 391.608 335.585105 
L 394.448727 335.494216 
L 395.158909 335.487995 
L 395.869091 335.370061 
L 397.289455 335.358903 
L 397.999636 335.177995 
L 400.840364 335.074395 
L 402.260727 335.119857 
L 405.101455 335.005437 
L 406.521818 334.938357 
L 407.942182 335.010506 
L 410.072727 334.656679 
L 412.203273 334.539847 
L 417.174545 334.101681 
L 420.015273 334.037796 
L 420.725455 333.84124 
L 423.566182 333.963311 
L 425.696727 333.866046 
L 426.406909 333.854537 
L 427.117091 333.104855 
L 429.957818 333.0932 
L 430.668 333.206214 
L 431.378182 333.145579 
L 432.088364 332.967441 
L 434.929091 332.955016 
L 435.639273 332.832864 
L 437.059636 332.393085 
L 438.48 332.282878 
L 439.190182 332.108006 
L 440.610545 332.127879 
L 441.320727 331.911113 
L 444.161455 331.948214 
L 444.871636 332.011054 
L 445.581818 331.736411 
L 447.002182 331.792674 
L 447.712364 331.304763 
L 451.263273 331.30792 
L 452.683636 330.926857 
L 454.104 330.496815 
L 454.814182 330.426117 
L 455.524364 329.980283 
L 456.944727 330.017841 
L 457.654909 329.836659 
L 459.785455 329.788077 
L 460.495636 329.086708 
L 463.336364 328.810479 
L 464.756727 328.794829 
L 466.177091 328.043497 
L 471.148364 327.440296 
L 471.858545 327.430833 
L 472.568727 327.632816 
L 473.989091 327.662135 
L 474.699273 327.443575 
L 476.119636 327.278381 
L 476.829818 327.28709 
L 477.54 327.01188 
L 478.250182 326.879929 
L 478.960364 326.610022 
L 479.670545 325.602028 
L 480.380727 325.48847 
L 483.221455 325.570841 
L 483.931636 325.268888 
L 484.641818 325.232543 
L 485.352 324.814291 
L 489.613091 324.286353 
L 490.323273 324.298487 
L 491.743636 323.829498 
L 492.453818 323.93333 
L 495.294545 323.750225 
L 497.425091 323.329235 
L 498.135273 322.770449 
L 500.265818 322.810645 
L 500.976 322.812483 
L 501.686182 322.44476 
L 503.106545 322.192799 
L 503.816727 322.103532 
L 505.947273 322.179179 
L 506.657455 321.789623 
L 510.208364 321.631685 
L 510.918545 321.476043 
L 511.628727 321.467101 
L 512.338909 320.865588 
L 513.759273 320.756938 
L 514.469455 320.80178 
L 515.889818 320.688731 
L 517.310182 320.680549 
L 518.020364 320.136806 
L 519.440727 320.023379 
L 520.861091 319.754606 
L 521.571273 319.751312 
L 522.281455 319.40553 
L 522.991636 319.40513 
L 523.701818 319.244104 
L 524.412 319.203214 
L 525.122182 318.932353 
L 528.673091 318.838176 
L 529.383273 318.67114 
L 530.803636 318.708517 
L 535.774909 318.824975 
L 538.615636 318.941651 
L 539.325818 318.964903 
L 540.036 318.76765 
L 543.586909 318.758222 
L 544.297091 318.514811 
L 549.978545 318.357484 
L 550.688727 318.210382 
L 554.949818 318.124728 
L 555.66 317.455501 
L 556.370182 317.471893 
L 557.080364 317.304804 
L 557.790545 317.296718 
L 558.500727 316.971038 
L 559.210909 317.094959 
L 562.051636 316.998792 
L 562.761818 316.624559 
L 563.472 316.475057 
L 570.573818 316.258157 
L 571.284 315.976209 
L 574.124727 315.880389 
L 575.545091 315.824414 
L 578.385818 315.759737 
L 579.096 315.355696 
L 579.806182 315.147091 
L 581.226545 315.086897 
L 581.936727 315.070858 
L 582.646909 314.571567 
L 583.357091 314.554381 
L 584.067273 314.311887 
L 588.328364 314.226386 
L 589.038545 313.735562 
L 590.458909 313.633252 
L 591.879273 313.57623 
L 592.589455 313.358614 
L 594.009818 313.389221 
L 594.72 313.134915 
L 596.140364 313.089315 
L 596.850545 312.549478 
L 601.111636 312.42279 
L 602.532 311.684515 
L 603.242182 311.585511 
L 603.952364 311.071399 
L 606.793091 310.795074 
L 608.213455 310.709069 
L 608.923636 310.666729 
L 609.633818 310.352914 
L 610.344 310.22281 
L 613.184727 310.223048 
L 613.894909 310.037067 
L 616.735636 309.875612 
L 618.156 309.79214 
L 620.996727 309.771187 
L 622.417091 309.492228 
L 623.127273 309.342733 
L 625.968 309.222516 
L 626.678182 308.845058 
L 628.808727 308.76773 
L 629.518909 308.514903 
L 632.359636 308.437098 
L 633.78 308.069923 
L 638.751273 307.72796 
L 639.461455 307.644113 
L 640.171636 307.436091 
L 640.881818 307.43044 
L 641.592 307.237676 
L 643.012364 307.222185 
L 647.273455 307.138327 
L 648.693818 307.101091 
L 649.404 306.8251 
L 650.824364 306.836311 
L 652.244727 306.456802 
L 652.954909 306.455552 
L 653.665091 306.336705 
L 655.085455 306.320957 
L 657.216 305.69485 
L 659.346545 305.540583 
L 660.056727 304.987497 
L 660.766909 304.985522 
L 661.477091 303.987317 
L 662.187273 303.98512 
L 662.897455 303.59086 
L 664.317818 303.334609 
L 666.448364 303.263968 
L 667.158545 303.195609 
L 667.868727 302.702368 
L 668.578909 302.686795 
L 669.999273 302.144412 
L 674.260364 301.884786 
L 674.970545 301.723197 
L 677.101091 301.630784 
L 677.811273 301.267992 
L 679.231636 301.267151 
L 679.941818 299.991168 
L 681.362182 299.962126 
L 683.492727 299.512495 
L 684.202909 299.490242 
L 684.913091 299.112976 
L 687.753818 298.886465 
L 689.174182 298.135448 
L 692.014909 297.971997 
L 692.725091 297.76646 
L 694.855636 296.566061 
L 698.406545 296.230377 
L 699.116727 295.92521 
L 699.826909 295.949506 
L 700.537091 295.804264 
L 701.247273 295.786481 
L 701.957455 295.657148 
L 706.218545 295.507319 
L 706.928727 295.333945 
L 707.638909 295.307635 
L 708.349091 295.424691 
L 709.059273 295.328975 
L 709.769455 295.117014 
L 710.479636 295.190644 
L 712.610182 295.110161 
L 716.161091 295.0395 
L 717.581455 294.876781 
L 719.001818 294.310218 
L 719.712 294.308536 
L 720.422182 293.541268 
L 722.552727 293.333208 
L 723.262909 293.036203 
L 725.393455 293.056838 
L 726.813818 292.603299 
L 727.524 292.404924 
L 730.364727 292.206134 
L 732.495273 291.472428 
L 736.756364 291.352278 
L 738.176727 291.351128 
L 738.886909 291.007678 
L 739.597091 291.01124 
L 740.307273 290.820185 
L 745.988727 290.668519 
L 746.698909 289.918976 
L 747.409091 289.503338 
L 750.249818 289.282312 
L 751.670182 289.02537 
L 753.090545 288.968966 
L 753.800727 288.685625 
L 754.510909 287.987271 
L 758.061818 287.96751 
L 760.192364 287.816117 
L 763.743273 287.751395 
L 764.453455 287.53352 
L 765.163636 287.53435 
L 766.584 287.04601 
L 768.004364 287.009316 
L 768.714545 286.512614 
L 769.424727 286.504628 
L 770.134909 285.90292 
L 771.555273 285.857653 
L 772.265455 285.858333 
L 772.975636 285.462066 
L 775.816364 285.447488 
L 776.526545 284.873025 
L 777.946909 284.694737 
L 778.657091 284.591446 
L 779.367273 284.605037 
L 780.077455 284.780965 
L 780.787636 284.803294 
L 781.497818 284.526934 
L 784.338545 284.417512 
L 785.048727 284.271522 
L 791.440364 284.083951 
L 792.150545 283.901037 
L 792.860727 283.868121 
L 793.570909 283.963656 
L 794.991273 283.807067 
L 797.121818 283.783333 
L 798.542182 283.352156 
L 801.382909 283.22538 
L 802.093091 282.977993 
L 805.644 282.353057 
L 807.774545 281.923288 
L 808.484727 281.972833 
L 810.615273 281.678545 
L 812.745818 281.636074 
L 814.876364 281.033324 
L 817.006909 280.775443 
L 817.717091 280.30428 
L 819.847636 279.457129 
L 820.557818 279.307518 
L 821.268 279.319512 
L 821.978182 278.85999 
L 822.688364 278.83977 
L 824.108727 278.634596 
L 826.949455 278.690174 
L 828.369818 277.82414 
L 834.051273 277.564419 
L 834.761455 277.330521 
L 836.181818 277.516598 
L 836.892 277.33806 
L 839.732727 277.145992 
L 841.153091 277.106872 
L 841.863273 276.839663 
L 843.993818 276.825864 
L 844.704 276.613537 
L 845.414182 276.5946 
L 846.124364 276.372072 
L 847.544727 276.429767 
L 848.254909 276.149985 
L 851.095636 275.582916 
L 855.356727 275.53094 
L 856.777091 275.163687 
L 857.487273 274.949711 
L 859.617818 274.813951 
L 862.458545 274.406319 
L 863.878909 274.389004 
L 864.589091 273.966534 
L 870.270545 273.606431 
L 870.980727 273.208058 
L 871.690909 273.20841 
L 871.690909 273.20841 
" clip-path="url(#p89c6773d89)" style="fill: none; stroke: #2ca02c; stroke-width: 1.5; stroke-linecap: square"/>
   </g>
   <g id="patch_3">
    <path d="M 126 384.48 
L 126 51.84 
" style="fill: none; stroke: #000000; stroke-width: 0.8; stroke-linejoin: miter; stroke-linecap: square"/>
   </g>
   <g id="patch_4">
    <path d="M 907.2 384.48 
L 907.2 51.84 
" style="fill: none; stroke: #000000; stroke-width: 0.8; stroke-linejoin: miter; stroke-linecap: square"/>
   </g>
   <g id="patch_5">
    <path d="M 126 384.48 
L 907.2 384.48 
" style="fill: none; stroke: #000000; stroke-width: 0.8; stroke-linejoin: miter; stroke-linecap: square"/>
   </g>
   <g id="patch_6">
    <path d="M 126 51.84 
L 907.2 51.84 
" style="fill: none; stroke: #000000; stroke-width: 0.8; stroke-linejoin: miter; stroke-linecap: square"/>
   </g>
   <g id="text_16">
    <!-- Quadratic Covariation of $X_t$ and $S_t$ -->
    <g transform="translate(414.54 45.84)scale(0.12 -0.12)">
     <defs>
      <path id="DejaVuSans-66" d="M 2375 4863 
L 2375 4384 
L 1825 4384 
Q 1516 4384 1395 4259 
Q 1275 4134 1275 3809 
L 1275 3500 
L 2222 3500 
L 2222 3053 
L 1275 3053 
L 1275 0 
L 697 0 
L 697 3053 
L 147 3053 
L 147 3500 
L 697 3500 
L 697 3744 
Q 697 4328 969 4595 
Q 1241 4863 1831 4863 
L 2375 4863 
z
" transform="scale(0.015625)"/>
      <path id="DejaVuSans-Oblique-58" d="M 878 4666 
L 1516 4666 
L 2316 2981 
L 3763 4666 
L 4500 4666 
L 2578 2438 
L 3738 0 
L 3103 0 
L 2163 1966 
L 459 0 
L -275 0 
L 1906 2509 
L 878 4666 
z
" transform="scale(0.015625)"/>
      <path id="DejaVuSans-Oblique-74" d="M 2706 3500 
L 2619 3053 
L 1472 3053 
L 1100 1153 
Q 1081 1047 1072 975 
Q 1063 903 1063 863 
Q 1063 663 1183 572 
Q 1303 481 1569 481 
L 2150 481 
L 2053 0 
L 1503 0 
Q 991 0 739 200 
Q 488 400 488 806 
Q 488 878 497 964 
Q 506 1050 525 1153 
L 897 3053 
L 409 3053 
L 500 3500 
L 978 3500 
L 1172 4494 
L 1747 4494 
L 1556 3500 
L 2706 3500 
z
" transform="scale(0.015625)"/>
      <path id="DejaVuSans-Oblique-53" d="M 3859 4513 
L 3738 3897 
Q 3422 4066 3111 4152 
Q 2800 4238 2509 4238 
Q 1944 4238 1609 3991 
Q 1275 3744 1275 3334 
Q 1275 3109 1398 2989 
Q 1522 2869 2034 2731 
L 2413 2638 
Q 3053 2472 3303 2217 
Q 3553 1963 3553 1503 
Q 3553 797 2998 353 
Q 2444 -91 1538 -91 
Q 1166 -91 791 -17 
Q 416 56 38 206 
L 166 856 
Q 513 641 861 531 
Q 1209 422 1556 422 
Q 2147 422 2503 684 
Q 2859 947 2859 1369 
Q 2859 1650 2717 1795 
Q 2575 1941 2106 2059 
L 1728 2156 
Q 1081 2325 845 2545 
Q 609 2766 609 3163 
Q 609 3859 1145 4304 
Q 1681 4750 2541 4750 
Q 2875 4750 3203 4690 
Q 3531 4631 3859 4513 
z
" transform="scale(0.015625)"/>
     </defs>
     <use xlink:href="#DejaVuSans-51" transform="translate(0 0.015625)"/>
     <use xlink:href="#DejaVuSans-75" transform="translate(78.710938 0.015625)"/>
     <use xlink:href="#DejaVuSans-61" transform="translate(142.089844 0.015625)"/>
     <use xlink:href="#DejaVuSans-64" transform="translate(203.369141 0.015625)"/>
     <use xlink:href="#DejaVuSans-72" transform="translate(266.845703 0.015625)"/>
     <use xlink:href="#DejaVuSans-61" transform="translate(307.958984 0.015625)"/>
     <use xlink:href="#DejaVuSans-74" transform="translate(369.238281 0.015625)"/>
     <use xlink:href="#DejaVuSans-69" transform="translate(408.447266 0.015625)"/>
     <use xlink:href="#DejaVuSans-63" transform="translate(436.230469 0.015625)"/>
     <use xlink:href="#DejaVuSans-20" transform="translate(491.210938 0.015625)"/>
     <use xlink:href="#DejaVuSans-43" transform="translate(522.998047 0.015625)"/>
     <use xlink:href="#DejaVuSans-6f" transform="translate(592.822266 0.015625)"/>
     <use xlink:href="#DejaVuSans-76" transform="translate(654.003906 0.015625)"/>
     <use xlink:href="#DejaVuSans-61" transform="translate(713.183594 0.015625)"/>
     <use xlink:href="#DejaVuSans-72" transform="translate(774.462891 0.015625)"/>
     <use xlink:href="#DejaVuSans-69" transform="translate(815.576172 0.015625)"/>
     <use xlink:href="#DejaVuSans-61" transform="translate(843.359375 0.015625)"/>
     <use xlink:href="#DejaVuSans-74" transform="translate(904.638672 0.015625)"/>
     <use xlink:href="#DejaVuSans-69" transform="translate(943.847656 0.015625)"/>
     <use xlink:href="#DejaVuSans-6f" transform="translate(971.630859 0.015625)"/>
     <use xlink:href="#DejaVuSans-6e" transform="translate(1032.8125 0.015625)"/>
     <use xlink:href="#DejaVuSans-20" transform="translate(1096.191406 0.015625)"/>
     <use xlink:href="#DejaVuSans-6f" transform="translate(1127.978516 0.015625)"/>
     <use xlink:href="#DejaVuSans-66" transform="translate(1189.160156 0.015625)"/>
     <use xlink:href="#DejaVuSans-20" transform="translate(1224.365234 0.015625)"/>
     <use xlink:href="#DejaVuSans-Oblique-58" transform="translate(1256.152344 0.015625)"/>
     <use xlink:href="#DejaVuSans-Oblique-74" transform="translate(1324.658203 -16.390625)scale(0.7)"/>
     <use xlink:href="#DejaVuSans-20" transform="translate(1354.838867 0.015625)"/>
     <use xlink:href="#DejaVuSans-61" transform="translate(1386.625977 0.015625)"/>
     <use xlink:href="#DejaVuSans-6e" transform="translate(1447.905273 0.015625)"/>
     <use xlink:href="#DejaVuSans-64" transform="translate(1511.28418 0.015625)"/>
     <use xlink:href="#DejaVuSans-20" transform="translate(1574.760742 0.015625)"/>
     <use xlink:href="#DejaVuSans-Oblique-53" transform="translate(1606.547852 0.015625)"/>
     <use xlink:href="#DejaVuSans-Oblique-74" transform="translate(1670.024414 -16.390625)scale(0.7)"/>
    </g>
   </g>
   <g id="legend_1">
    <g id="patch_7">
     <path d="M 133 103.874375 
L 335.1 103.874375 
Q 337.1 103.874375 337.1 101.874375 
L 337.1 58.84 
Q 337.1 56.84 335.1 56.84 
L 133 56.84 
Q 131 56.84 131 58.84 
L 131 101.874375 
Q 131 103.874375 133 103.874375 
z
" style="fill: #ffffff; opacity: 0.8; stroke: #cccccc; stroke-linejoin: miter"/>
    </g>
    <g id="line2d_17">
     <path d="M 135 64.938437 
L 145 64.938437 
L 155 64.938437 
" style="fill: none; stroke: #1f77b4; stroke-width: 1.5; stroke-linecap: square"/>
    </g>
    <g id="text_17">
     <!-- $X_t$ -->
     <g transform="translate(163 68.438437)scale(0.1 -0.1)">
      <use xlink:href="#DejaVuSans-Oblique-58" transform="translate(0 0.09375)"/>
      <use xlink:href="#DejaVuSans-Oblique-74" transform="translate(68.505859 -16.3125)scale(0.7)"/>
     </g>
    </g>
    <g id="line2d_18">
     <path d="M 135 79.616562 
L 145 79.616562 
L 155 79.616562 
" style="fill: none; stroke: #ff7f0e; stroke-width: 1.5; stroke-linecap: square"/>
    </g>
    <g id="text_18">
     <!-- $S_t$ -->
     <g transform="translate(163 83.116562)scale(0.1 -0.1)">
      <use xlink:href="#DejaVuSans-Oblique-53" transform="translate(0 0.78125)"/>
      <use xlink:href="#DejaVuSans-Oblique-74" transform="translate(63.476562 -15.625)scale(0.7)"/>
     </g>
    </g>
    <g id="line2d_19">
     <path d="M 135 94.294687 
L 145 94.294687 
L 155 94.294687 
" style="fill: none; stroke: #2ca02c; stroke-width: 1.5; stroke-linecap: square"/>
    </g>
    <g id="text_19">
     <!-- Quadratic Covariation of $X_t$ and $S_t$ -->
     <g transform="translate(163 97.794687)scale(0.1 -0.1)">
      <use xlink:href="#DejaVuSans-51" transform="translate(0 0.015625)"/>
      <use xlink:href="#DejaVuSans-75" transform="translate(78.710938 0.015625)"/>
      <use xlink:href="#DejaVuSans-61" transform="translate(142.089844 0.015625)"/>
      <use xlink:href="#DejaVuSans-64" transform="translate(203.369141 0.015625)"/>
      <use xlink:href="#DejaVuSans-72" transform="translate(266.845703 0.015625)"/>
      <use xlink:href="#DejaVuSans-61" transform="translate(307.958984 0.015625)"/>
      <use xlink:href="#DejaVuSans-74" transform="translate(369.238281 0.015625)"/>
      <use xlink:href="#DejaVuSans-69" transform="translate(408.447266 0.015625)"/>
      <use xlink:href="#DejaVuSans-63" transform="translate(436.230469 0.015625)"/>
      <use xlink:href="#DejaVuSans-20" transform="translate(491.210938 0.015625)"/>
      <use xlink:href="#DejaVuSans-43" transform="translate(522.998047 0.015625)"/>
      <use xlink:href="#DejaVuSans-6f" transform="translate(592.822266 0.015625)"/>
      <use xlink:href="#DejaVuSans-76" transform="translate(654.003906 0.015625)"/>
      <use xlink:href="#DejaVuSans-61" transform="translate(713.183594 0.015625)"/>
      <use xlink:href="#DejaVuSans-72" transform="translate(774.462891 0.015625)"/>
      <use xlink:href="#DejaVuSans-69" transform="translate(815.576172 0.015625)"/>
      <use xlink:href="#DejaVuSans-61" transform="translate(843.359375 0.015625)"/>
      <use xlink:href="#DejaVuSans-74" transform="translate(904.638672 0.015625)"/>
      <use xlink:href="#DejaVuSans-69" transform="translate(943.847656 0.015625)"/>
      <use xlink:href="#DejaVuSans-6f" transform="translate(971.630859 0.015625)"/>
      <use xlink:href="#DejaVuSans-6e" transform="translate(1032.8125 0.015625)"/>
      <use xlink:href="#DejaVuSans-20" transform="translate(1096.191406 0.015625)"/>
      <use xlink:href="#DejaVuSans-6f" transform="translate(1127.978516 0.015625)"/>
      <use xlink:href="#DejaVuSans-66" transform="translate(1189.160156 0.015625)"/>
      <use xlink:href="#DejaVuSans-20" transform="translate(1224.365234 0.015625)"/>
      <use xlink:href="#DejaVuSans-Oblique-58" transform="translate(1256.152344 0.015625)"/>
      <use xlink:href="#DejaVuSans-Oblique-74" transform="translate(1324.658203 -16.390625)scale(0.7)"/>
      <use xlink:href="#DejaVuSans-20" transform="translate(1354.838867 0.015625)"/>
      <use xlink:href="#DejaVuSans-61" transform="translate(1386.625977 0.015625)"/>
      <use xlink:href="#DejaVuSans-6e" transform="translate(1447.905273 0.015625)"/>
      <use xlink:href="#DejaVuSans-64" transform="translate(1511.28418 0.015625)"/>
      <use xlink:href="#DejaVuSans-20" transform="translate(1574.760742 0.015625)"/>
      <use xlink:href="#DejaVuSans-Oblique-53" transform="translate(1606.547852 0.015625)"/>
      <use xlink:href="#DejaVuSans-Oblique-74" transform="translate(1670.024414 -16.390625)scale(0.7)"/>
     </g>
    </g>
   </g>
  </g>
 </g>
 <defs>
  <clipPath id="p89c6773d89">
   <rect x="126" y="51.84" width="781.2" height="332.64"/>
  </clipPath>
 </defs>
</svg>
