<?xml version="1.0" encoding="utf-8" standalone="no"?>
<!DOCTYPE svg PUBLIC "-//W3C//DTD SVG 1.1//EN"
  "http://www.w3.org/Graphics/SVG/1.1/DTD/svg11.dtd">
<svg xmlns:xlink="http://www.w3.org/1999/xlink" width="1008pt" height="432pt" viewBox="0 0 1008 432" xmlns="http://www.w3.org/2000/svg" version="1.1">
 <metadata>
  <rdf:RDF xmlns:dc="http://purl.org/dc/elements/1.1/" xmlns:cc="http://creativecommons.org/ns#" xmlns:rdf="http://www.w3.org/1999/02/22-rdf-syntax-ns#">
   <cc:Work>
    <dc:type rdf:resource="http://purl.org/dc/dcmitype/StillImage"/>
    <dc:date>2023-12-22T17:11:37.599495</dc:date>
    <dc:format>image/svg+xml</dc:format>
    <dc:creator>
     <cc:Agent>
      <dc:title>Matplotlib v3.5.2, https://matplotlib.org/</dc:title>
     </cc:Agent>
    </dc:creator>
   </cc:Work>
  </rdf:RDF>
 </metadata>
 <defs>
  <style type="text/css">*{stroke-linejoin: round; stroke-linecap: butt}</style>
 </defs>
 <g id="figure_1">
  <g id="patch_1">
   <path d="M 0 432 
L 1008 432 
L 1008 0 
L 0 0 
z
" style="fill: #ffffff"/>
  </g>
  <g id="axes_1">
   <g id="patch_2">
    <path d="M 126 384.48 
L 907.2 384.48 
L 907.2 51.84 
L 126 51.84 
z
" style="fill: #ffffff"/>
   </g>
   <g id="matplotlib.axis_1">
    <g id="xtick_1">
     <g id="line2d_1">
      <defs>
       <path id="md1220f9adc" d="M 0 0 
L 0 3.5 
" style="stroke: #000000; stroke-width: 0.8"/>
      </defs>
      <g>
       <use xlink:href="#md1220f9adc" x="161.509091" y="384.48" style="stroke: #000000; stroke-width: 0.8"/>
      </g>
     </g>
     <g id="text_1">
      <!-- 0.0 -->
      <g transform="translate(153.557528 399.078438)scale(0.1 -0.1)">
       <defs>
        <path id="DejaVuSans-30" d="M 2034 4250 
Q 1547 4250 1301 3770 
Q 1056 3291 1056 2328 
Q 1056 1369 1301 889 
Q 1547 409 2034 409 
Q 2525 409 2770 889 
Q 3016 1369 3016 2328 
Q 3016 3291 2770 3770 
Q 2525 4250 2034 4250 
z
M 2034 4750 
Q 2819 4750 3233 4129 
Q 3647 3509 3647 2328 
Q 3647 1150 3233 529 
Q 2819 -91 2034 -91 
Q 1250 -91 836 529 
Q 422 1150 422 2328 
Q 422 3509 836 4129 
Q 1250 4750 2034 4750 
z
" transform="scale(0.015625)"/>
        <path id="DejaVuSans-2e" d="M 684 794 
L 1344 794 
L 1344 0 
L 684 0 
L 684 794 
z
" transform="scale(0.015625)"/>
       </defs>
       <use xlink:href="#DejaVuSans-30"/>
       <use xlink:href="#DejaVuSans-2e" x="63.623047"/>
       <use xlink:href="#DejaVuSans-30" x="95.410156"/>
      </g>
     </g>
    </g>
    <g id="xtick_2">
     <g id="line2d_2">
      <g>
       <use xlink:href="#md1220f9adc" x="303.545455" y="384.48" style="stroke: #000000; stroke-width: 0.8"/>
      </g>
     </g>
     <g id="text_2">
      <!-- 0.2 -->
      <g transform="translate(295.593892 399.078438)scale(0.1 -0.1)">
       <defs>
        <path id="DejaVuSans-32" d="M 1228 531 
L 3431 531 
L 3431 0 
L 469 0 
L 469 531 
Q 828 903 1448 1529 
Q 2069 2156 2228 2338 
Q 2531 2678 2651 2914 
Q 2772 3150 2772 3378 
Q 2772 3750 2511 3984 
Q 2250 4219 1831 4219 
Q 1534 4219 1204 4116 
Q 875 4013 500 3803 
L 500 4441 
Q 881 4594 1212 4672 
Q 1544 4750 1819 4750 
Q 2544 4750 2975 4387 
Q 3406 4025 3406 3419 
Q 3406 3131 3298 2873 
Q 3191 2616 2906 2266 
Q 2828 2175 2409 1742 
Q 1991 1309 1228 531 
z
" transform="scale(0.015625)"/>
       </defs>
       <use xlink:href="#DejaVuSans-30"/>
       <use xlink:href="#DejaVuSans-2e" x="63.623047"/>
       <use xlink:href="#DejaVuSans-32" x="95.410156"/>
      </g>
     </g>
    </g>
    <g id="xtick_3">
     <g id="line2d_3">
      <g>
       <use xlink:href="#md1220f9adc" x="445.581818" y="384.48" style="stroke: #000000; stroke-width: 0.8"/>
      </g>
     </g>
     <g id="text_3">
      <!-- 0.4 -->
      <g transform="translate(437.630256 399.078438)scale(0.1 -0.1)">
       <defs>
        <path id="DejaVuSans-34" d="M 2419 4116 
L 825 1625 
L 2419 1625 
L 2419 4116 
z
M 2253 4666 
L 3047 4666 
L 3047 1625 
L 3713 1625 
L 3713 1100 
L 3047 1100 
L 3047 0 
L 2419 0 
L 2419 1100 
L 313 1100 
L 313 1709 
L 2253 4666 
z
" transform="scale(0.015625)"/>
       </defs>
       <use xlink:href="#DejaVuSans-30"/>
       <use xlink:href="#DejaVuSans-2e" x="63.623047"/>
       <use xlink:href="#DejaVuSans-34" x="95.410156"/>
      </g>
     </g>
    </g>
    <g id="xtick_4">
     <g id="line2d_4">
      <g>
       <use xlink:href="#md1220f9adc" x="587.618182" y="384.48" style="stroke: #000000; stroke-width: 0.8"/>
      </g>
     </g>
     <g id="text_4">
      <!-- 0.6 -->
      <g transform="translate(579.666619 399.078438)scale(0.1 -0.1)">
       <defs>
        <path id="DejaVuSans-36" d="M 2113 2584 
Q 1688 2584 1439 2293 
Q 1191 2003 1191 1497 
Q 1191 994 1439 701 
Q 1688 409 2113 409 
Q 2538 409 2786 701 
Q 3034 994 3034 1497 
Q 3034 2003 2786 2293 
Q 2538 2584 2113 2584 
z
M 3366 4563 
L 3366 3988 
Q 3128 4100 2886 4159 
Q 2644 4219 2406 4219 
Q 1781 4219 1451 3797 
Q 1122 3375 1075 2522 
Q 1259 2794 1537 2939 
Q 1816 3084 2150 3084 
Q 2853 3084 3261 2657 
Q 3669 2231 3669 1497 
Q 3669 778 3244 343 
Q 2819 -91 2113 -91 
Q 1303 -91 875 529 
Q 447 1150 447 2328 
Q 447 3434 972 4092 
Q 1497 4750 2381 4750 
Q 2619 4750 2861 4703 
Q 3103 4656 3366 4563 
z
" transform="scale(0.015625)"/>
       </defs>
       <use xlink:href="#DejaVuSans-30"/>
       <use xlink:href="#DejaVuSans-2e" x="63.623047"/>
       <use xlink:href="#DejaVuSans-36" x="95.410156"/>
      </g>
     </g>
    </g>
    <g id="xtick_5">
     <g id="line2d_5">
      <g>
       <use xlink:href="#md1220f9adc" x="729.654545" y="384.48" style="stroke: #000000; stroke-width: 0.8"/>
      </g>
     </g>
     <g id="text_5">
      <!-- 0.8 -->
      <g transform="translate(721.702983 399.078438)scale(0.1 -0.1)">
       <defs>
        <path id="DejaVuSans-38" d="M 2034 2216 
Q 1584 2216 1326 1975 
Q 1069 1734 1069 1313 
Q 1069 891 1326 650 
Q 1584 409 2034 409 
Q 2484 409 2743 651 
Q 3003 894 3003 1313 
Q 3003 1734 2745 1975 
Q 2488 2216 2034 2216 
z
M 1403 2484 
Q 997 2584 770 2862 
Q 544 3141 544 3541 
Q 544 4100 942 4425 
Q 1341 4750 2034 4750 
Q 2731 4750 3128 4425 
Q 3525 4100 3525 3541 
Q 3525 3141 3298 2862 
Q 3072 2584 2669 2484 
Q 3125 2378 3379 2068 
Q 3634 1759 3634 1313 
Q 3634 634 3220 271 
Q 2806 -91 2034 -91 
Q 1263 -91 848 271 
Q 434 634 434 1313 
Q 434 1759 690 2068 
Q 947 2378 1403 2484 
z
M 1172 3481 
Q 1172 3119 1398 2916 
Q 1625 2713 2034 2713 
Q 2441 2713 2670 2916 
Q 2900 3119 2900 3481 
Q 2900 3844 2670 4047 
Q 2441 4250 2034 4250 
Q 1625 4250 1398 4047 
Q 1172 3844 1172 3481 
z
" transform="scale(0.015625)"/>
       </defs>
       <use xlink:href="#DejaVuSans-30"/>
       <use xlink:href="#DejaVuSans-2e" x="63.623047"/>
       <use xlink:href="#DejaVuSans-38" x="95.410156"/>
      </g>
     </g>
    </g>
    <g id="xtick_6">
     <g id="line2d_6">
      <g>
       <use xlink:href="#md1220f9adc" x="871.690909" y="384.48" style="stroke: #000000; stroke-width: 0.8"/>
      </g>
     </g>
     <g id="text_6">
      <!-- 1.0 -->
      <g transform="translate(863.739347 399.078438)scale(0.1 -0.1)">
       <defs>
        <path id="DejaVuSans-31" d="M 794 531 
L 1825 531 
L 1825 4091 
L 703 3866 
L 703 4441 
L 1819 4666 
L 2450 4666 
L 2450 531 
L 3481 531 
L 3481 0 
L 794 0 
L 794 531 
z
" transform="scale(0.015625)"/>
       </defs>
       <use xlink:href="#DejaVuSans-31"/>
       <use xlink:href="#DejaVuSans-2e" x="63.623047"/>
       <use xlink:href="#DejaVuSans-30" x="95.410156"/>
      </g>
     </g>
    </g>
    <g id="text_7">
     <!-- Time -->
     <g transform="translate(504.366406 412.756563)scale(0.1 -0.1)">
      <defs>
       <path id="DejaVuSans-54" d="M -19 4666 
L 3928 4666 
L 3928 4134 
L 2272 4134 
L 2272 0 
L 1638 0 
L 1638 4134 
L -19 4134 
L -19 4666 
z
" transform="scale(0.015625)"/>
       <path id="DejaVuSans-69" d="M 603 3500 
L 1178 3500 
L 1178 0 
L 603 0 
L 603 3500 
z
M 603 4863 
L 1178 4863 
L 1178 4134 
L 603 4134 
L 603 4863 
z
" transform="scale(0.015625)"/>
       <path id="DejaVuSans-6d" d="M 3328 2828 
Q 3544 3216 3844 3400 
Q 4144 3584 4550 3584 
Q 5097 3584 5394 3201 
Q 5691 2819 5691 2113 
L 5691 0 
L 5113 0 
L 5113 2094 
Q 5113 2597 4934 2840 
Q 4756 3084 4391 3084 
Q 3944 3084 3684 2787 
Q 3425 2491 3425 1978 
L 3425 0 
L 2847 0 
L 2847 2094 
Q 2847 2600 2669 2842 
Q 2491 3084 2119 3084 
Q 1678 3084 1418 2786 
Q 1159 2488 1159 1978 
L 1159 0 
L 581 0 
L 581 3500 
L 1159 3500 
L 1159 2956 
Q 1356 3278 1631 3431 
Q 1906 3584 2284 3584 
Q 2666 3584 2933 3390 
Q 3200 3197 3328 2828 
z
" transform="scale(0.015625)"/>
       <path id="DejaVuSans-65" d="M 3597 1894 
L 3597 1613 
L 953 1613 
Q 991 1019 1311 708 
Q 1631 397 2203 397 
Q 2534 397 2845 478 
Q 3156 559 3463 722 
L 3463 178 
Q 3153 47 2828 -22 
Q 2503 -91 2169 -91 
Q 1331 -91 842 396 
Q 353 884 353 1716 
Q 353 2575 817 3079 
Q 1281 3584 2069 3584 
Q 2775 3584 3186 3129 
Q 3597 2675 3597 1894 
z
M 3022 2063 
Q 3016 2534 2758 2815 
Q 2500 3097 2075 3097 
Q 1594 3097 1305 2825 
Q 1016 2553 972 2059 
L 3022 2063 
z
" transform="scale(0.015625)"/>
      </defs>
      <use xlink:href="#DejaVuSans-54"/>
      <use xlink:href="#DejaVuSans-69" x="57.958984"/>
      <use xlink:href="#DejaVuSans-6d" x="85.742188"/>
      <use xlink:href="#DejaVuSans-65" x="183.154297"/>
     </g>
    </g>
   </g>
   <g id="matplotlib.axis_2">
    <g id="ytick_1">
     <g id="line2d_7">
      <defs>
       <path id="m8f4ec197e4" d="M 0 0 
L -3.5 0 
" style="stroke: #000000; stroke-width: 0.8"/>
      </defs>
      <g>
       <use xlink:href="#m8f4ec197e4" x="126" y="357.816511" style="stroke: #000000; stroke-width: 0.8"/>
      </g>
     </g>
     <g id="text_8">
      <!-- 0 -->
      <g transform="translate(112.6375 361.615729)scale(0.1 -0.1)">
       <use xlink:href="#DejaVuSans-30"/>
      </g>
     </g>
    </g>
    <g id="ytick_2">
     <g id="line2d_8">
      <g>
       <use xlink:href="#m8f4ec197e4" x="126" y="302.779859" style="stroke: #000000; stroke-width: 0.8"/>
      </g>
     </g>
     <g id="text_9">
      <!-- 20 -->
      <g transform="translate(106.275 306.579078)scale(0.1 -0.1)">
       <use xlink:href="#DejaVuSans-32"/>
       <use xlink:href="#DejaVuSans-30" x="63.623047"/>
      </g>
     </g>
    </g>
    <g id="ytick_3">
     <g id="line2d_9">
      <g>
       <use xlink:href="#m8f4ec197e4" x="126" y="247.743208" style="stroke: #000000; stroke-width: 0.8"/>
      </g>
     </g>
     <g id="text_10">
      <!-- 40 -->
      <g transform="translate(106.275 251.542427)scale(0.1 -0.1)">
       <use xlink:href="#DejaVuSans-34"/>
       <use xlink:href="#DejaVuSans-30" x="63.623047"/>
      </g>
     </g>
    </g>
    <g id="ytick_4">
     <g id="line2d_10">
      <g>
       <use xlink:href="#m8f4ec197e4" x="126" y="192.706557" style="stroke: #000000; stroke-width: 0.8"/>
      </g>
     </g>
     <g id="text_11">
      <!-- 60 -->
      <g transform="translate(106.275 196.505776)scale(0.1 -0.1)">
       <use xlink:href="#DejaVuSans-36"/>
       <use xlink:href="#DejaVuSans-30" x="63.623047"/>
      </g>
     </g>
    </g>
    <g id="ytick_5">
     <g id="line2d_11">
      <g>
       <use xlink:href="#m8f4ec197e4" x="126" y="137.669906" style="stroke: #000000; stroke-width: 0.8"/>
      </g>
     </g>
     <g id="text_12">
      <!-- 80 -->
      <g transform="translate(106.275 141.469124)scale(0.1 -0.1)">
       <use xlink:href="#DejaVuSans-38"/>
       <use xlink:href="#DejaVuSans-30" x="63.623047"/>
      </g>
     </g>
    </g>
    <g id="ytick_6">
     <g id="line2d_12">
      <g>
       <use xlink:href="#m8f4ec197e4" x="126" y="82.633254" style="stroke: #000000; stroke-width: 0.8"/>
      </g>
     </g>
     <g id="text_13">
      <!-- 100 -->
      <g transform="translate(99.9125 86.432473)scale(0.1 -0.1)">
       <use xlink:href="#DejaVuSans-31"/>
       <use xlink:href="#DejaVuSans-30" x="63.623047"/>
       <use xlink:href="#DejaVuSans-30" x="127.246094"/>
      </g>
     </g>
    </g>
    <g id="text_14">
     <!-- Quadratic Covariation -->
     <g transform="translate(93.832812 272.970156)rotate(-90)scale(0.1 -0.1)">
      <defs>
       <path id="DejaVuSans-51" d="M 2522 4238 
Q 1834 4238 1429 3725 
Q 1025 3213 1025 2328 
Q 1025 1447 1429 934 
Q 1834 422 2522 422 
Q 3209 422 3611 934 
Q 4013 1447 4013 2328 
Q 4013 3213 3611 3725 
Q 3209 4238 2522 4238 
z
M 3406 84 
L 4238 -825 
L 3475 -825 
L 2784 -78 
Q 2681 -84 2626 -87 
Q 2572 -91 2522 -91 
Q 1538 -91 948 567 
Q 359 1225 359 2328 
Q 359 3434 948 4092 
Q 1538 4750 2522 4750 
Q 3503 4750 4090 4092 
Q 4678 3434 4678 2328 
Q 4678 1516 4351 937 
Q 4025 359 3406 84 
z
" transform="scale(0.015625)"/>
       <path id="DejaVuSans-75" d="M 544 1381 
L 544 3500 
L 1119 3500 
L 1119 1403 
Q 1119 906 1312 657 
Q 1506 409 1894 409 
Q 2359 409 2629 706 
Q 2900 1003 2900 1516 
L 2900 3500 
L 3475 3500 
L 3475 0 
L 2900 0 
L 2900 538 
Q 2691 219 2414 64 
Q 2138 -91 1772 -91 
Q 1169 -91 856 284 
Q 544 659 544 1381 
z
M 1991 3584 
L 1991 3584 
z
" transform="scale(0.015625)"/>
       <path id="DejaVuSans-61" d="M 2194 1759 
Q 1497 1759 1228 1600 
Q 959 1441 959 1056 
Q 959 750 1161 570 
Q 1363 391 1709 391 
Q 2188 391 2477 730 
Q 2766 1069 2766 1631 
L 2766 1759 
L 2194 1759 
z
M 3341 1997 
L 3341 0 
L 2766 0 
L 2766 531 
Q 2569 213 2275 61 
Q 1981 -91 1556 -91 
Q 1019 -91 701 211 
Q 384 513 384 1019 
Q 384 1609 779 1909 
Q 1175 2209 1959 2209 
L 2766 2209 
L 2766 2266 
Q 2766 2663 2505 2880 
Q 2244 3097 1772 3097 
Q 1472 3097 1187 3025 
Q 903 2953 641 2809 
L 641 3341 
Q 956 3463 1253 3523 
Q 1550 3584 1831 3584 
Q 2591 3584 2966 3190 
Q 3341 2797 3341 1997 
z
" transform="scale(0.015625)"/>
       <path id="DejaVuSans-64" d="M 2906 2969 
L 2906 4863 
L 3481 4863 
L 3481 0 
L 2906 0 
L 2906 525 
Q 2725 213 2448 61 
Q 2172 -91 1784 -91 
Q 1150 -91 751 415 
Q 353 922 353 1747 
Q 353 2572 751 3078 
Q 1150 3584 1784 3584 
Q 2172 3584 2448 3432 
Q 2725 3281 2906 2969 
z
M 947 1747 
Q 947 1113 1208 752 
Q 1469 391 1925 391 
Q 2381 391 2643 752 
Q 2906 1113 2906 1747 
Q 2906 2381 2643 2742 
Q 2381 3103 1925 3103 
Q 1469 3103 1208 2742 
Q 947 2381 947 1747 
z
" transform="scale(0.015625)"/>
       <path id="DejaVuSans-72" d="M 2631 2963 
Q 2534 3019 2420 3045 
Q 2306 3072 2169 3072 
Q 1681 3072 1420 2755 
Q 1159 2438 1159 1844 
L 1159 0 
L 581 0 
L 581 3500 
L 1159 3500 
L 1159 2956 
Q 1341 3275 1631 3429 
Q 1922 3584 2338 3584 
Q 2397 3584 2469 3576 
Q 2541 3569 2628 3553 
L 2631 2963 
z
" transform="scale(0.015625)"/>
       <path id="DejaVuSans-74" d="M 1172 4494 
L 1172 3500 
L 2356 3500 
L 2356 3053 
L 1172 3053 
L 1172 1153 
Q 1172 725 1289 603 
Q 1406 481 1766 481 
L 2356 481 
L 2356 0 
L 1766 0 
Q 1100 0 847 248 
Q 594 497 594 1153 
L 594 3053 
L 172 3053 
L 172 3500 
L 594 3500 
L 594 4494 
L 1172 4494 
z
" transform="scale(0.015625)"/>
       <path id="DejaVuSans-63" d="M 3122 3366 
L 3122 2828 
Q 2878 2963 2633 3030 
Q 2388 3097 2138 3097 
Q 1578 3097 1268 2742 
Q 959 2388 959 1747 
Q 959 1106 1268 751 
Q 1578 397 2138 397 
Q 2388 397 2633 464 
Q 2878 531 3122 666 
L 3122 134 
Q 2881 22 2623 -34 
Q 2366 -91 2075 -91 
Q 1284 -91 818 406 
Q 353 903 353 1747 
Q 353 2603 823 3093 
Q 1294 3584 2113 3584 
Q 2378 3584 2631 3529 
Q 2884 3475 3122 3366 
z
" transform="scale(0.015625)"/>
       <path id="DejaVuSans-20" transform="scale(0.015625)"/>
       <path id="DejaVuSans-43" d="M 4122 4306 
L 4122 3641 
Q 3803 3938 3442 4084 
Q 3081 4231 2675 4231 
Q 1875 4231 1450 3742 
Q 1025 3253 1025 2328 
Q 1025 1406 1450 917 
Q 1875 428 2675 428 
Q 3081 428 3442 575 
Q 3803 722 4122 1019 
L 4122 359 
Q 3791 134 3420 21 
Q 3050 -91 2638 -91 
Q 1578 -91 968 557 
Q 359 1206 359 2328 
Q 359 3453 968 4101 
Q 1578 4750 2638 4750 
Q 3056 4750 3426 4639 
Q 3797 4528 4122 4306 
z
" transform="scale(0.015625)"/>
       <path id="DejaVuSans-6f" d="M 1959 3097 
Q 1497 3097 1228 2736 
Q 959 2375 959 1747 
Q 959 1119 1226 758 
Q 1494 397 1959 397 
Q 2419 397 2687 759 
Q 2956 1122 2956 1747 
Q 2956 2369 2687 2733 
Q 2419 3097 1959 3097 
z
M 1959 3584 
Q 2709 3584 3137 3096 
Q 3566 2609 3566 1747 
Q 3566 888 3137 398 
Q 2709 -91 1959 -91 
Q 1206 -91 779 398 
Q 353 888 353 1747 
Q 353 2609 779 3096 
Q 1206 3584 1959 3584 
z
" transform="scale(0.015625)"/>
       <path id="DejaVuSans-76" d="M 191 3500 
L 800 3500 
L 1894 563 
L 2988 3500 
L 3597 3500 
L 2284 0 
L 1503 0 
L 191 3500 
z
" transform="scale(0.015625)"/>
       <path id="DejaVuSans-6e" d="M 3513 2113 
L 3513 0 
L 2938 0 
L 2938 2094 
Q 2938 2591 2744 2837 
Q 2550 3084 2163 3084 
Q 1697 3084 1428 2787 
Q 1159 2491 1159 1978 
L 1159 0 
L 581 0 
L 581 3500 
L 1159 3500 
L 1159 2956 
Q 1366 3272 1645 3428 
Q 1925 3584 2291 3584 
Q 2894 3584 3203 3211 
Q 3513 2838 3513 2113 
z
" transform="scale(0.015625)"/>
      </defs>
      <use xlink:href="#DejaVuSans-51"/>
      <use xlink:href="#DejaVuSans-75" x="78.710938"/>
      <use xlink:href="#DejaVuSans-61" x="142.089844"/>
      <use xlink:href="#DejaVuSans-64" x="203.369141"/>
      <use xlink:href="#DejaVuSans-72" x="266.845703"/>
      <use xlink:href="#DejaVuSans-61" x="307.958984"/>
      <use xlink:href="#DejaVuSans-74" x="369.238281"/>
      <use xlink:href="#DejaVuSans-69" x="408.447266"/>
      <use xlink:href="#DejaVuSans-63" x="436.230469"/>
      <use xlink:href="#DejaVuSans-20" x="491.210938"/>
      <use xlink:href="#DejaVuSans-43" x="522.998047"/>
      <use xlink:href="#DejaVuSans-6f" x="592.822266"/>
      <use xlink:href="#DejaVuSans-76" x="654.003906"/>
      <use xlink:href="#DejaVuSans-61" x="713.183594"/>
      <use xlink:href="#DejaVuSans-72" x="774.462891"/>
      <use xlink:href="#DejaVuSans-69" x="815.576172"/>
      <use xlink:href="#DejaVuSans-61" x="843.359375"/>
      <use xlink:href="#DejaVuSans-74" x="904.638672"/>
      <use xlink:href="#DejaVuSans-69" x="943.847656"/>
      <use xlink:href="#DejaVuSans-6f" x="971.630859"/>
      <use xlink:href="#DejaVuSans-6e" x="1032.8125"/>
     </g>
    </g>
   </g>
   <g id="line2d_13">
    <path d="M 161.509091 355.064678 
L 162.219273 354.692012 
L 162.929455 356.400147 
L 163.639636 356.891313 
L 164.349818 356.572322 
L 165.06 356.624164 
L 165.770182 356.512996 
L 166.480364 355.911741 
L 167.190545 354.803285 
L 167.900727 355.162467 
L 169.321091 353.919976 
L 170.031273 353.692822 
L 170.741455 353.828437 
L 171.451636 353.613371 
L 172.872 352.549094 
L 173.582182 352.755807 
L 174.292364 352.679099 
L 175.712727 353.500906 
L 176.422909 353.380558 
L 177.133091 352.479754 
L 177.843273 353.179367 
L 178.553455 352.750302 
L 179.263636 352.567202 
L 179.973818 353.749809 
L 182.104364 349.918256 
L 182.814545 351.699813 
L 184.234909 351.262178 
L 184.945091 352.554698 
L 185.655273 351.569798 
L 186.365455 352.247817 
L 187.075636 352.099957 
L 187.785818 350.125612 
L 189.206182 348.14667 
L 189.916364 349.686717 
L 191.336727 348.306423 
L 192.046909 349.797206 
L 192.757091 349.936468 
L 193.467273 349.940602 
L 194.177455 349.036361 
L 194.887636 348.512501 
L 195.597818 347.729392 
L 196.308 346.760553 
L 197.018182 346.99653 
L 197.728364 346.907692 
L 198.438545 347.078848 
L 199.148727 346.832736 
L 199.858909 346.200798 
L 200.569091 346.615882 
L 201.279273 346.431464 
L 201.989455 345.110084 
L 203.409818 343.79235 
L 204.12 344.13365 
L 204.830182 344.08076 
L 206.250545 342.714088 
L 206.960727 341.713352 
L 207.670909 340.925582 
L 208.381091 340.420821 
L 209.801455 341.309215 
L 210.511636 341.296931 
L 211.221818 340.848607 
L 211.932 340.652542 
L 212.642182 340.731289 
L 213.352364 339.732069 
L 214.062545 339.205674 
L 215.482909 338.603729 
L 216.903273 337.035702 
L 217.613455 337.074064 
L 218.323636 337.966289 
L 219.033818 338.410722 
L 219.744 337.046557 
L 220.454182 337.208867 
L 221.164364 337.572435 
L 221.874545 337.785112 
L 222.584727 336.73606 
L 223.294909 335.886241 
L 224.005091 335.577978 
L 224.715273 334.118041 
L 225.425455 335.554599 
L 226.135636 335.011226 
L 226.845818 335.502544 
L 228.266182 337.222866 
L 228.976364 335.393511 
L 229.686545 336.316939 
L 230.396727 337.433137 
L 231.106909 337.430381 
L 231.817091 337.759825 
L 232.527273 337.69694 
L 233.237455 337.374296 
L 233.947636 336.55455 
L 234.657818 337.487758 
L 235.368 337.347493 
L 236.078182 337.328697 
L 236.788364 337.915914 
L 237.498545 336.661489 
L 238.208727 335.926553 
L 238.918909 335.527637 
L 239.629091 337.168151 
L 240.339273 337.719855 
L 241.049455 339.226637 
L 241.759636 337.737774 
L 242.469818 338.407807 
L 243.18 338.643585 
L 243.890182 338.748002 
L 244.600364 339.490675 
L 245.310545 340.478571 
L 246.020727 338.733634 
L 246.730909 338.422602 
L 247.441091 339.706769 
L 248.151273 339.975398 
L 248.861455 340.910239 
L 249.571636 339.969052 
L 250.281818 337.345494 
L 250.992 337.931529 
L 251.702182 336.064907 
L 252.412364 335.619823 
L 253.122545 336.21224 
L 253.832727 335.716732 
L 254.542909 336.398874 
L 255.253091 335.481977 
L 255.963273 335.254247 
L 256.673455 335.72986 
L 257.383636 336.518558 
L 258.093818 334.230801 
L 258.804 334.013813 
L 259.514182 332.643766 
L 260.224364 331.010708 
L 260.934545 331.275014 
L 261.644727 330.970539 
L 263.065091 332.104917 
L 264.485455 330.721937 
L 265.195636 330.439301 
L 265.905818 329.205646 
L 266.616 327.696423 
L 268.036364 326.995236 
L 268.746545 326.339018 
L 269.456727 326.692258 
L 270.166909 325.667493 
L 270.877091 324.88635 
L 271.587273 323.412941 
L 273.007636 324.481434 
L 273.717818 325.381467 
L 274.428 326.646456 
L 275.138182 326.701476 
L 275.848364 328.35979 
L 276.558545 327.98801 
L 277.268727 326.965905 
L 277.978909 327.109284 
L 278.689091 328.200661 
L 279.399273 329.598173 
L 280.109455 330.166035 
L 281.529818 332.429739 
L 282.24 332.809758 
L 282.950182 330.908629 
L 283.660364 330.619309 
L 284.370545 331.575579 
L 285.080727 331.039336 
L 285.790909 332.234674 
L 286.501091 332.894999 
L 287.921455 333.806075 
L 288.631636 333.197345 
L 289.341818 333.1591 
L 290.052 332.576611 
L 290.762182 332.400395 
L 291.472364 330.858585 
L 292.182545 330.544412 
L 292.892727 331.305228 
L 293.602909 331.463097 
L 295.023273 331.043512 
L 295.733455 331.773975 
L 297.153818 331.582598 
L 297.864 331.814686 
L 298.574182 332.874781 
L 300.704727 330.357779 
L 301.414909 331.697643 
L 302.125091 330.820979 
L 302.835273 332.90035 
L 303.545455 333.762824 
L 304.255636 332.968988 
L 304.965818 333.212259 
L 305.676 333.259226 
L 306.386182 332.788377 
L 307.096364 333.928866 
L 307.806545 333.083604 
L 308.516727 333.964824 
L 309.226909 332.823236 
L 309.937091 334.227068 
L 311.357455 332.293336 
L 312.777818 331.999968 
L 313.488 331.392929 
L 314.198182 330.944717 
L 314.908364 331.223543 
L 315.618545 332.747444 
L 316.328727 332.2359 
L 317.038909 332.055858 
L 317.749091 332.713682 
L 318.459273 332.53816 
L 319.169455 332.191286 
L 319.879636 332.375827 
L 320.589818 331.659895 
L 321.3 331.854897 
L 322.010182 333.679484 
L 322.720364 333.759122 
L 323.430545 332.896193 
L 324.140727 333.405634 
L 324.850909 333.285868 
L 325.561091 331.580592 
L 326.271273 331.336018 
L 326.981455 330.82011 
L 327.691636 332.053514 
L 328.401818 331.975149 
L 329.112 331.006954 
L 329.822182 330.588261 
L 330.532364 331.160381 
L 331.242545 330.682982 
L 331.952727 331.555022 
L 332.662909 331.12557 
L 333.373091 332.199776 
L 334.083273 331.15278 
L 334.793455 331.985428 
L 335.503636 331.723399 
L 336.213818 331.180233 
L 336.924 329.973172 
L 337.634182 331.795862 
L 338.344364 332.232864 
L 339.054545 333.594553 
L 339.764727 334.686557 
L 340.474909 336.552765 
L 341.185091 335.827275 
L 341.895273 334.740385 
L 342.605455 335.607185 
L 343.315636 333.88842 
L 344.025818 335.272179 
L 344.736 337.36978 
L 345.446182 337.378286 
L 346.156364 336.685559 
L 346.866545 336.402719 
L 347.576727 336.355056 
L 348.286909 336.037133 
L 348.997091 336.894652 
L 349.707273 336.541774 
L 350.417455 336.647234 
L 352.548 335.696343 
L 353.258182 336.40229 
L 353.968364 335.623264 
L 355.388727 336.622113 
L 356.098909 335.318231 
L 356.809091 335.208872 
L 357.519273 336.520057 
L 358.229455 337.498684 
L 358.939636 336.862907 
L 360.36 336.657435 
L 361.780364 335.646782 
L 362.490545 336.184412 
L 363.200727 336.940819 
L 363.910909 338.179069 
L 364.621091 338.761676 
L 365.331273 339.823681 
L 366.041455 340.57139 
L 366.751636 340.456545 
L 367.461818 341.7864 
L 368.172 341.891074 
L 368.882182 341.793744 
L 369.592364 342.689065 
L 371.722909 340.956023 
L 372.433091 341.96118 
L 373.143273 340.547308 
L 373.853455 339.38792 
L 374.563636 337.143927 
L 375.984 336.592232 
L 376.694182 334.921285 
L 377.404364 335.182822 
L 378.114545 335.156488 
L 378.824727 334.370401 
L 379.534909 335.042593 
L 380.245091 334.132671 
L 381.665455 333.402819 
L 382.375636 334.052761 
L 383.085818 334.038009 
L 383.796 333.665785 
L 384.506182 334.107408 
L 385.216364 334.750917 
L 385.926545 333.452055 
L 386.636727 333.943269 
L 387.346909 332.978237 
L 388.057091 333.077337 
L 388.767273 333.515631 
L 389.477455 335.205754 
L 390.897818 332.937469 
L 391.608 333.374337 
L 392.318182 332.031686 
L 393.738545 331.172334 
L 394.448727 329.539575 
L 395.158909 330.71519 
L 395.869091 329.191616 
L 396.579273 330.142501 
L 397.289455 330.235397 
L 397.999636 329.84349 
L 398.709818 328.705915 
L 399.42 330.419605 
L 400.840364 331.584038 
L 401.550545 330.10852 
L 402.260727 330.491376 
L 402.970909 331.519967 
L 403.681091 333.130075 
L 404.391273 333.127414 
L 405.811636 330.574416 
L 406.521818 330.221055 
L 407.232 328.339369 
L 407.942182 329.124462 
L 408.652364 329.380292 
L 410.072727 328.901051 
L 410.782909 327.533256 
L 411.493091 326.952705 
L 412.203273 326.705133 
L 412.913455 327.469728 
L 413.623636 327.960596 
L 414.333818 327.890664 
L 415.044 327.02491 
L 415.754182 328.418816 
L 416.464364 328.483153 
L 417.174545 327.258857 
L 417.884727 327.054521 
L 419.305091 325.789603 
L 420.015273 326.641066 
L 420.725455 327.108262 
L 421.435636 328.106495 
L 422.145818 327.48331 
L 422.856 327.230987 
L 423.566182 326.367878 
L 424.276364 325.790736 
L 425.696727 322.968255 
L 426.406909 322.344423 
L 427.117091 321.127669 
L 427.827273 321.028045 
L 428.537455 320.506739 
L 429.247636 321.320876 
L 430.668 320.730549 
L 431.378182 321.205713 
L 432.088364 321.069327 
L 432.798545 319.937117 
L 433.508727 320.25668 
L 434.929091 322.29317 
L 435.639273 322.959764 
L 436.349455 323.0163 
L 437.059636 323.684586 
L 437.769818 324.718575 
L 439.190182 322.329828 
L 439.900364 320.677178 
L 440.610545 320.249675 
L 441.320727 320.669804 
L 442.741091 323.366458 
L 444.161455 324.201855 
L 444.871636 323.672992 
L 445.581818 323.563115 
L 446.292 323.7112 
L 447.002182 321.904111 
L 447.712364 323.201212 
L 448.422545 323.287672 
L 449.132727 324.302902 
L 450.553091 325.400005 
L 451.263273 326.20697 
L 451.973455 327.201048 
L 454.104 328.50702 
L 454.814182 328.734069 
L 455.524364 328.502062 
L 456.234545 328.116116 
L 456.944727 330.143067 
L 457.654909 330.712538 
L 458.365091 330.413164 
L 459.075273 329.261359 
L 459.785455 328.624398 
L 460.495636 328.685618 
L 461.205818 330.388848 
L 461.916 329.790341 
L 462.626182 330.58277 
L 464.046545 328.710606 
L 464.756727 325.914742 
L 465.466909 326.290984 
L 466.177091 324.919233 
L 466.887273 325.426503 
L 467.597455 325.009835 
L 468.307636 326.349362 
L 469.017818 326.32754 
L 469.728 327.559341 
L 470.438182 327.519928 
L 471.148364 327.719167 
L 471.858545 327.117328 
L 472.568727 328.772187 
L 473.989091 328.99001 
L 474.699273 329.28049 
L 476.119636 331.492787 
L 478.250182 331.687591 
L 478.960364 332.736529 
L 479.670545 333.276698 
L 480.380727 333.186882 
L 481.090909 333.294772 
L 481.801091 332.3366 
L 482.511273 334.951002 
L 483.221455 334.010844 
L 483.931636 333.854053 
L 484.641818 335.253196 
L 485.352 335.806646 
L 486.772364 337.714468 
L 487.482545 339.290972 
L 488.192727 339.183857 
L 488.902909 339.299869 
L 489.613091 338.571017 
L 490.323273 340.287157 
L 491.033455 340.875006 
L 491.743636 340.050896 
L 492.453818 341.852691 
L 493.164 342.14362 
L 493.874182 342.299145 
L 494.584364 341.609946 
L 495.294545 341.233183 
L 496.004727 340.696347 
L 496.714909 341.025511 
L 498.135273 340.967021 
L 498.845455 342.075647 
L 499.555636 340.908137 
L 500.265818 340.812609 
L 501.686182 341.294962 
L 502.396364 341.931538 
L 503.106545 340.59786 
L 503.816727 341.952641 
L 504.526909 341.271416 
L 505.237091 340.299266 
L 505.947273 340.70764 
L 506.657455 339.850915 
L 507.367636 341.357643 
L 508.077818 341.697752 
L 508.788 342.977776 
L 509.498182 342.893819 
L 510.918545 344.531073 
L 511.628727 343.735979 
L 512.338909 344.186119 
L 513.049091 344.388149 
L 513.759273 343.898746 
L 514.469455 342.997498 
L 515.179636 343.338121 
L 515.889818 344.933124 
L 516.6 345.084986 
L 517.310182 344.260394 
L 518.020364 344.122129 
L 519.440727 341.642967 
L 520.150909 342.264769 
L 521.571273 342.561128 
L 522.281455 343.080679 
L 522.991636 344.4764 
L 523.701818 344.046389 
L 524.412 345.129371 
L 525.122182 343.901738 
L 525.832364 343.248795 
L 526.542545 343.251253 
L 527.252727 344.48751 
L 527.962909 344.274856 
L 528.673091 346.027712 
L 529.383273 346.396982 
L 530.093455 346.609642 
L 530.803636 345.556621 
L 531.513818 346.024766 
L 532.224 346.687602 
L 532.934182 346.758948 
L 533.644364 344.294552 
L 534.354545 345.059053 
L 535.064727 345.24458 
L 535.774909 346.363617 
L 536.485091 345.125171 
L 537.195273 346.495099 
L 537.905455 346.903141 
L 538.615636 346.942391 
L 539.325818 346.833201 
L 540.036 346.46672 
L 540.746182 345.908481 
L 541.456364 345.77243 
L 542.166545 346.493204 
L 542.876727 346.765008 
L 543.586909 347.447132 
L 544.297091 347.305025 
L 545.007273 347.434181 
L 546.427636 349.100173 
L 547.137818 348.692772 
L 547.848 347.93143 
L 548.558182 349.57099 
L 549.268364 348.838043 
L 549.978545 347.452681 
L 550.688727 347.448133 
L 551.398909 347.011981 
L 552.109091 348.920024 
L 554.949818 349.203704 
L 556.370182 348.056787 
L 557.080364 347.363877 
L 557.790545 347.057717 
L 558.500727 347.535742 
L 559.210909 346.846245 
L 559.921091 346.567674 
L 560.631273 346.848601 
L 561.341455 345.569789 
L 562.761818 344.207799 
L 563.472 344.360686 
L 564.182182 343.836177 
L 564.892364 342.448036 
L 565.602545 342.866119 
L 566.312727 342.206477 
L 567.022909 343.919673 
L 568.443273 342.417559 
L 569.153455 341.396731 
L 569.863636 341.290406 
L 570.573818 341.66166 
L 571.284 341.551322 
L 571.994182 341.785779 
L 572.704364 341.020881 
L 573.414545 342.311192 
L 574.124727 341.25448 
L 574.834909 342.336728 
L 575.545091 344.010943 
L 576.255273 344.662719 
L 576.965455 346.410294 
L 577.675636 346.498334 
L 578.385818 347.660036 
L 579.096 347.92949 
L 579.806182 349.475575 
L 580.516364 349.268795 
L 581.226545 349.4409 
L 581.936727 350.147951 
L 583.357091 350.212301 
L 584.777455 348.09977 
L 585.487636 349.757415 
L 586.197818 348.696092 
L 586.908 347.266752 
L 587.618182 346.968637 
L 589.748727 347.121083 
L 590.458909 345.901638 
L 591.169091 345.950096 
L 591.879273 344.91702 
L 592.589455 344.235968 
L 593.299636 343.24642 
L 594.009818 344.144487 
L 594.72 343.353364 
L 595.430182 343.281259 
L 596.140364 343.474844 
L 596.850545 343.481061 
L 597.560727 343.362049 
L 598.270909 344.30876 
L 598.981091 345.728559 
L 599.691273 346.156505 
L 600.401455 345.883479 
L 601.111636 346.185947 
L 601.821818 346.001559 
L 602.532 346.676605 
L 603.242182 348.677396 
L 603.952364 349.542013 
L 604.662545 349.457727 
L 605.372727 348.902212 
L 606.082909 349.441367 
L 606.793091 349.170935 
L 607.503273 350.640643 
L 608.213455 349.526308 
L 609.633818 351.017395 
L 610.344 351.418662 
L 611.054182 349.806541 
L 611.764364 348.990975 
L 612.474545 346.94003 
L 614.605091 345.61885 
L 615.315273 346.654576 
L 616.735636 347.536269 
L 617.445818 348.237041 
L 618.156 348.74012 
L 618.866182 348.561361 
L 619.576364 348.749263 
L 620.286545 348.682922 
L 620.996727 348.315253 
L 621.706909 347.32393 
L 622.417091 345.624073 
L 623.127273 345.418738 
L 623.837455 345.72748 
L 624.547636 347.638271 
L 625.257818 348.684135 
L 625.968 347.656266 
L 626.678182 348.164494 
L 627.388364 349.804841 
L 628.808727 352.14359 
L 629.518909 351.233143 
L 630.229091 349.07943 
L 630.939273 350.221862 
L 631.649455 350.239515 
L 632.359636 350.472347 
L 634.490182 354.109272 
L 635.200364 354.135843 
L 635.910545 353.75428 
L 636.620727 352.572236 
L 637.330909 353.026237 
L 638.041091 351.611774 
L 638.751273 352.854914 
L 639.461455 352.442813 
L 640.171636 353.308221 
L 640.881818 354.667204 
L 641.592 356.417543 
L 643.012364 357.420001 
L 643.722545 357.657955 
L 644.432727 357.62752 
L 645.142909 357.429972 
L 645.853091 356.196457 
L 646.563273 355.710002 
L 647.983636 358.117084 
L 648.693818 358.810933 
L 649.404 358.915239 
L 650.114182 359.585207 
L 651.534545 358.437996 
L 652.954909 355.990981 
L 654.375273 356.931429 
L 655.085455 357.767466 
L 655.795636 355.818954 
L 656.505818 355.679663 
L 657.216 356.346051 
L 657.926182 355.354332 
L 658.636364 356.389837 
L 659.346545 356.709289 
L 660.056727 356.861609 
L 661.477091 358.61628 
L 662.187273 358.32246 
L 662.897455 359.163603 
L 663.607636 358.979576 
L 664.317818 358.623756 
L 665.028 357.994482 
L 665.738182 358.472506 
L 666.448364 358.405094 
L 667.158545 360.373937 
L 667.868727 358.689753 
L 668.578909 358.693735 
L 669.289091 359.633753 
L 669.999273 359.063347 
L 670.709455 359.012812 
L 671.419636 359.643456 
L 672.129818 359.969528 
L 672.84 360.608126 
L 673.550182 359.75785 
L 674.260364 360.881474 
L 674.970545 359.249516 
L 675.680727 359.527916 
L 676.390909 359.631392 
L 677.101091 361.098845 
L 677.811273 360.656959 
L 678.521455 359.778738 
L 679.231636 360.683111 
L 679.941818 360.954212 
L 680.652 359.104157 
L 681.362182 358.876578 
L 682.072364 359.131458 
L 682.782545 358.335812 
L 683.492727 359.318812 
L 684.202909 359.496002 
L 684.913091 360.561847 
L 685.623273 360.622406 
L 686.333455 359.848316 
L 687.753818 360.658409 
L 688.464 361.180271 
L 689.174182 360.940049 
L 689.884364 362.215405 
L 690.594545 361.471359 
L 691.304727 361.985395 
L 692.014909 360.52769 
L 692.725091 361.533628 
L 693.435273 361.617689 
L 694.855636 360.992579 
L 695.565818 361.585755 
L 696.276 361.601521 
L 696.986182 363.553891 
L 697.696364 364.033594 
L 698.406545 363.98358 
L 699.116727 363.711822 
L 699.826909 363.00887 
L 700.537091 362.830605 
L 701.247273 362.922102 
L 701.957455 363.84771 
L 702.667636 365.160545 
L 703.377818 363.312242 
L 704.088 362.87385 
L 704.798182 362.164011 
L 706.218545 363.52606 
L 706.928727 364.280576 
L 707.638909 364.041535 
L 708.349091 364.303138 
L 709.059273 366.171966 
L 709.769455 365.682108 
L 710.479636 367.707991 
L 711.189818 367.241466 
L 711.9 368.714977 
L 712.610182 369.36 
L 713.320364 367.723694 
L 714.030545 367.564308 
L 714.740727 367.95071 
L 715.450909 367.972755 
L 716.161091 367.117039 
L 716.871273 367.805175 
L 717.581455 367.382287 
L 718.291636 367.819788 
L 719.001818 367.877733 
L 719.712 366.877391 
L 720.422182 365.491002 
L 721.132364 365.559986 
L 721.842545 365.245611 
L 722.552727 366.35456 
L 723.262909 365.575328 
L 723.973091 365.486934 
L 724.683273 364.524787 
L 725.393455 364.447073 
L 726.103636 365.248733 
L 726.813818 366.451711 
L 727.524 365.422951 
L 728.234182 365.687753 
L 728.944364 365.616763 
L 729.654545 365.869879 
L 730.364727 365.613595 
L 731.074909 366.054134 
L 731.785091 366.178221 
L 732.495273 366.00371 
L 733.205455 365.484657 
L 733.915636 364.040278 
L 734.625818 365.128851 
L 735.336 365.36337 
L 736.046182 364.902321 
L 736.756364 365.985578 
L 737.466545 365.136814 
L 738.176727 365.996449 
L 738.886909 366.364662 
L 739.597091 367.647564 
L 740.307273 367.479951 
L 741.017455 365.490621 
L 741.727636 364.817527 
L 742.437818 365.102883 
L 743.148 364.192384 
L 743.858182 364.871023 
L 744.568364 364.899944 
L 745.278545 366.199036 
L 745.988727 364.306845 
L 746.698909 364.082724 
L 747.409091 363.676292 
L 748.119273 364.932565 
L 748.829455 365.233919 
L 749.539636 364.377901 
L 750.249818 364.206752 
L 750.96 363.776964 
L 751.670182 362.971008 
L 752.380364 362.937176 
L 753.090545 364.725969 
L 753.800727 367.268984 
L 754.510909 367.272708 
L 755.221091 368.019576 
L 755.931273 368.603619 
L 756.641455 368.295719 
L 757.351636 368.77109 
L 758.772 367.198194 
L 759.482182 366.052492 
L 760.192364 365.458188 
L 760.902545 364.617065 
L 761.612727 365.796499 
L 762.322909 366.363045 
L 763.033091 365.479428 
L 763.743273 365.309985 
L 764.453455 363.756716 
L 765.163636 363.301491 
L 766.584 364.403539 
L 767.294182 364.047507 
L 768.004364 364.368147 
L 768.714545 363.336978 
L 769.424727 363.272315 
L 770.134909 363.00479 
L 770.845091 362.995691 
L 771.555273 364.249407 
L 772.265455 362.821996 
L 772.975636 362.314885 
L 773.685818 362.577395 
L 774.396 361.85707 
L 775.106182 360.936136 
L 775.816364 361.183628 
L 776.526545 360.819977 
L 777.236727 361.81321 
L 777.946909 361.681181 
L 779.367273 362.234256 
L 780.077455 363.234978 
L 780.787636 363.177106 
L 781.497818 363.631408 
L 782.208 364.642629 
L 783.628364 361.892911 
L 784.338545 361.464443 
L 785.048727 363.229089 
L 785.758909 364.677588 
L 786.469091 364.595264 
L 787.179273 363.750813 
L 787.889455 364.246431 
L 788.599636 363.938087 
L 789.309818 364.084643 
L 790.02 365.17377 
L 790.730182 366.015292 
L 791.440364 366.001167 
L 792.150545 365.347638 
L 792.860727 365.131184 
L 793.570909 363.188777 
L 794.281091 363.464313 
L 794.991273 364.109416 
L 795.701455 364.451874 
L 796.411636 364.587267 
L 797.121818 364.917442 
L 797.832 365.540098 
L 798.542182 366.859336 
L 799.252364 367.206936 
L 799.962545 368.691537 
L 800.672727 367.522803 
L 801.382909 368.227326 
L 802.803273 364.709012 
L 803.513455 364.844324 
L 804.223636 364.633448 
L 805.644 363.914667 
L 807.064364 363.182731 
L 807.774545 362.148734 
L 808.484727 361.908126 
L 809.194909 362.281663 
L 809.905091 361.097507 
L 810.615273 361.613178 
L 811.325455 362.283674 
L 812.035636 362.465467 
L 812.745818 361.939512 
L 813.456 360.897323 
L 814.166182 361.820472 
L 814.876364 361.954624 
L 815.586545 360.804757 
L 816.296727 360.918153 
L 817.006909 361.853663 
L 818.427273 360.68043 
L 819.137455 360.648089 
L 819.847636 361.701982 
L 820.557818 361.15777 
L 821.268 362.007786 
L 821.978182 360.612752 
L 822.688364 362.689018 
L 823.398545 362.171727 
L 824.108727 360.725824 
L 824.818909 360.59363 
L 825.529091 361.223385 
L 826.239273 359.899105 
L 826.949455 360.564215 
L 827.659636 360.144167 
L 828.369818 360.954133 
L 829.08 360.588263 
L 829.790182 361.610265 
L 830.500364 361.897913 
L 831.210545 363.950279 
L 831.920727 364.723946 
L 832.630909 365.795024 
L 834.051273 364.212262 
L 834.761455 363.878757 
L 836.892 361.001109 
L 837.602182 360.19234 
L 838.312364 361.482457 
L 839.022545 363.092487 
L 839.732727 363.855175 
L 840.442909 364.441028 
L 841.153091 363.722302 
L 841.863273 361.964492 
L 842.573455 360.732605 
L 843.283636 359.927944 
L 843.993818 361.497306 
L 844.704 361.64143 
L 845.414182 361.661655 
L 846.124364 360.332193 
L 846.834545 360.228385 
L 848.254909 357.786546 
L 848.965091 358.399609 
L 849.675273 359.655043 
L 850.385455 358.87951 
L 851.095636 358.963814 
L 851.805818 358.81531 
L 852.516 359.487554 
L 853.226182 359.156296 
L 854.646545 358.806584 
L 855.356727 358.53592 
L 856.777091 356.668677 
L 857.487273 356.290036 
L 858.197455 357.785617 
L 858.907636 358.31584 
L 859.617818 357.997453 
L 860.328 356.29447 
L 861.038182 356.645432 
L 861.748364 357.213768 
L 862.458545 358.796701 
L 863.168727 356.423187 
L 863.878909 356.841597 
L 864.589091 355.65644 
L 865.299273 355.233415 
L 866.009455 354.102997 
L 866.719636 353.902987 
L 867.429818 355.315332 
L 868.14 354.687978 
L 868.850182 355.034888 
L 869.560364 354.269994 
L 870.270545 354.599567 
L 870.980727 354.530391 
L 871.690909 353.366715 
L 871.690909 353.366715 
" clip-path="url(#pd3b6c2d3d3)" style="fill: none; stroke: #1f77b4; stroke-width: 1.5; stroke-linecap: square"/>
   </g>
   <g id="line2d_14">
    <path d="M 161.509091 355.064678 
L 162.219273 354.974826 
L 162.929455 357.91532 
L 164.349818 359.175415 
L 165.06 359.438655 
L 166.480364 357.56268 
L 167.190545 357.486856 
L 167.900727 358.683194 
L 168.610909 357.736086 
L 169.321091 357.642818 
L 170.031273 358.03101 
L 170.741455 357.766049 
L 171.451636 355.544749 
L 172.161818 353.933229 
L 172.872 353.911462 
L 173.582182 353.449827 
L 174.292364 352.666595 
L 175.002545 353.36501 
L 175.712727 354.235209 
L 176.422909 353.912143 
L 177.133091 351.30096 
L 177.843273 350.617988 
L 178.553455 349.523073 
L 179.973818 351.39876 
L 180.684 349.680219 
L 181.394182 348.367303 
L 182.104364 347.763117 
L 182.814545 350.344961 
L 183.524727 348.823994 
L 184.234909 349.033206 
L 184.945091 349.697361 
L 185.655273 349.519651 
L 186.365455 351.654651 
L 187.075636 351.818942 
L 187.785818 349.211898 
L 188.496 347.5837 
L 189.206182 345.448334 
L 189.916364 346.501538 
L 190.626545 345.901521 
L 191.336727 345.541713 
L 192.046909 348.464863 
L 192.757091 349.131674 
L 193.467273 348.019169 
L 194.177455 347.478104 
L 194.887636 347.68915 
L 195.597818 346.157165 
L 196.308 344.987553 
L 197.018182 344.300515 
L 197.728364 342.380728 
L 198.438545 341.756046 
L 199.148727 340.969043 
L 199.858909 340.791104 
L 200.569091 340.989433 
L 201.279273 341.069672 
L 202.699636 338.300173 
L 203.409818 338.218086 
L 205.540364 335.319592 
L 206.250545 335.976684 
L 206.960727 336.448473 
L 207.670909 334.652519 
L 208.381091 334.798458 
L 209.801455 336.909863 
L 210.511636 337.239038 
L 211.221818 337.821734 
L 211.932 336.106688 
L 212.642182 336.594379 
L 213.352364 334.865284 
L 214.062545 334.197373 
L 214.772727 331.489093 
L 216.193091 329.564153 
L 216.903273 328.247456 
L 219.033818 329.453628 
L 220.454182 323.57597 
L 221.164364 323.165289 
L 221.874545 323.839346 
L 223.294909 320.37823 
L 224.005091 320.101923 
L 224.715273 318.660753 
L 225.425455 321.070092 
L 226.135636 320.886966 
L 226.845818 321.85273 
L 227.556 320.821744 
L 228.266182 323.066704 
L 228.976364 320.772655 
L 229.686545 320.70066 
L 230.396727 322.248533 
L 231.106909 322.719079 
L 231.817091 322.123955 
L 232.527273 323.37141 
L 233.237455 322.908392 
L 233.947636 322.26338 
L 234.657818 322.975186 
L 235.368 322.795331 
L 236.078182 322.948799 
L 236.788364 322.410722 
L 238.208727 320.441724 
L 238.918909 321.202406 
L 240.339273 323.997348 
L 241.049455 326.424233 
L 241.759636 325.810153 
L 243.18 325.327178 
L 243.890182 325.82138 
L 244.600364 327.200158 
L 245.310545 326.968542 
L 246.020727 324.885252 
L 246.730909 323.828051 
L 247.441091 326.399238 
L 248.151273 325.356201 
L 248.861455 325.950123 
L 249.571636 325.239745 
L 250.281818 323.344623 
L 250.992 324.160174 
L 251.702182 324.442194 
L 252.412364 323.734811 
L 253.122545 324.771954 
L 253.832727 324.560075 
L 254.542909 324.69936 
L 255.253091 324.084416 
L 255.963273 323.708213 
L 256.673455 324.802577 
L 257.383636 326.333123 
L 258.093818 323.387512 
L 259.514182 321.360431 
L 260.934545 320.311147 
L 261.644727 321.050518 
L 262.354909 321.108292 
L 263.065091 322.496121 
L 263.775273 323.432258 
L 264.485455 322.843652 
L 265.195636 323.506618 
L 265.905818 321.775898 
L 266.616 319.212598 
L 267.326182 318.767923 
L 268.036364 319.54771 
L 268.746545 319.076997 
L 269.456727 318.93608 
L 270.166909 318.657777 
L 270.877091 316.646218 
L 271.587273 315.020515 
L 272.297455 315.114592 
L 273.007636 314.810996 
L 273.717818 315.628348 
L 274.428 315.440368 
L 275.138182 314.603941 
L 275.848364 317.230276 
L 276.558545 317.403231 
L 277.268727 316.294983 
L 277.978909 316.783824 
L 279.399273 318.91796 
L 280.109455 318.669353 
L 280.819636 319.119726 
L 281.529818 320.319101 
L 282.24 321.231967 
L 282.950182 318.099342 
L 283.660364 316.910689 
L 284.370545 319.552591 
L 285.080727 318.853613 
L 285.790909 319.192887 
L 286.501091 319.678656 
L 287.921455 321.766833 
L 288.631636 321.158806 
L 289.341818 321.754924 
L 290.052 321.902388 
L 290.762182 323.474075 
L 291.472364 322.649474 
L 292.182545 321.346333 
L 292.892727 322.127221 
L 293.602909 321.175951 
L 294.313091 321.736903 
L 295.733455 323.147159 
L 296.443636 321.352566 
L 297.153818 321.074149 
L 297.864 321.865403 
L 298.574182 320.094589 
L 299.994545 317.263171 
L 300.704727 316.802 
L 301.414909 317.291239 
L 302.125091 316.046182 
L 302.835273 317.136325 
L 303.545455 317.967357 
L 304.255636 316.600065 
L 304.965818 316.901882 
L 305.676 316.891053 
L 306.386182 316.241922 
L 307.096364 316.790066 
L 307.806545 316.108205 
L 308.516727 315.904377 
L 309.226909 314.903395 
L 309.937091 316.423135 
L 310.647273 314.431919 
L 311.357455 313.182909 
L 312.067636 314.280511 
L 312.777818 313.51413 
L 314.198182 314.375233 
L 314.908364 313.683787 
L 315.618545 314.804535 
L 317.749091 312.900701 
L 318.459273 311.814718 
L 319.169455 312.904385 
L 319.879636 312.499368 
L 320.589818 310.135391 
L 321.3 310.568102 
L 322.010182 312.910329 
L 322.720364 312.566909 
L 323.430545 314.068367 
L 324.140727 313.961852 
L 324.850909 315.530633 
L 325.561091 312.791561 
L 326.271273 313.35654 
L 326.981455 312.149348 
L 327.691636 313.052997 
L 328.401818 313.008392 
L 329.112 312.549749 
L 329.822182 312.236423 
L 330.532364 314.360516 
L 331.242545 314.455588 
L 331.952727 315.85484 
L 332.662909 315.850558 
L 333.373091 316.900769 
L 334.793455 317.538307 
L 335.503636 318.238661 
L 336.213818 318.078933 
L 336.924 317.716126 
L 337.634182 321.155089 
L 338.344364 322.136509 
L 339.054545 322.801988 
L 339.764727 322.685005 
L 340.474909 324.895734 
L 341.185091 323.750536 
L 341.895273 323.078378 
L 342.605455 322.65045 
L 343.315636 320.983068 
L 344.736 327.464559 
L 345.446182 328.423496 
L 346.156364 328.491306 
L 346.866545 328.268829 
L 347.576727 328.690881 
L 348.286909 327.682722 
L 348.997091 328.47537 
L 349.707273 326.925983 
L 350.417455 326.273496 
L 351.127636 325.136048 
L 351.837818 323.556427 
L 353.258182 327.051546 
L 353.968364 327.330349 
L 355.388727 330.191957 
L 356.098909 328.205276 
L 356.809091 326.816206 
L 357.519273 329.543641 
L 358.229455 330.250687 
L 358.939636 330.749813 
L 360.36 330.616333 
L 361.070182 330.73006 
L 361.780364 331.113067 
L 362.490545 332.308161 
L 363.200727 333.091852 
L 363.910909 333.13301 
L 364.621091 333.391601 
L 365.331273 334.383766 
L 366.041455 335.644296 
L 366.751636 335.790967 
L 367.461818 336.567207 
L 368.172 335.414188 
L 368.882182 335.619849 
L 369.592364 334.425323 
L 370.302545 334.150214 
L 371.012727 331.2206 
L 371.722909 331.654304 
L 372.433091 332.397667 
L 373.143273 329.481914 
L 373.853455 330.168335 
L 374.563636 327.306852 
L 375.984 325.912247 
L 377.404364 323.132529 
L 378.114545 324.804821 
L 378.824727 325.832879 
L 379.534909 325.658112 
L 380.245091 323.223381 
L 380.955273 323.87398 
L 381.665455 323.669138 
L 382.375636 325.928855 
L 383.085818 326.531555 
L 383.796 326.864944 
L 385.926545 325.191818 
L 386.636727 325.114382 
L 387.346909 323.434672 
L 388.057091 324.265502 
L 388.767273 324.750229 
L 389.477455 325.015629 
L 390.187636 323.764579 
L 390.897818 323.00156 
L 391.608 324.672356 
L 392.318182 322.121235 
L 393.028364 321.158069 
L 393.738545 320.664716 
L 394.448727 319.280993 
L 395.158909 321.132337 
L 395.869091 319.88258 
L 396.579273 319.938958 
L 397.289455 321.356328 
L 397.999636 321.023187 
L 398.709818 320.191831 
L 399.42 322.710358 
L 400.840364 321.467215 
L 401.550545 321.442775 
L 402.260727 321.709296 
L 403.681091 322.576378 
L 404.391273 322.342955 
L 405.101455 320.738124 
L 405.811636 318.813809 
L 406.521818 318.401193 
L 407.232 315.66334 
L 407.942182 316.07679 
L 408.652364 317.584598 
L 409.362545 317.715505 
L 410.072727 316.718919 
L 410.782909 314.88469 
L 411.493091 315.009371 
L 412.203273 313.806378 
L 412.913455 313.699318 
L 413.623636 314.265596 
L 414.333818 313.656591 
L 415.044 312.301496 
L 415.754182 312.993186 
L 416.464364 312.235836 
L 417.174545 310.917472 
L 417.884727 310.239909 
L 418.594909 310.06179 
L 419.305091 309.669187 
L 420.015273 309.941926 
L 420.725455 309.95592 
L 421.435636 310.527908 
L 422.145818 310.643212 
L 422.856 311.032116 
L 423.566182 309.878251 
L 424.276364 308.274074 
L 424.986545 307.31703 
L 425.696727 307.096669 
L 426.406909 306.535859 
L 427.117091 304.007763 
L 428.537455 305.404946 
L 429.247636 307.19528 
L 429.957818 307.67 
L 430.668 307.657267 
L 431.378182 306.495916 
L 432.088364 307.255105 
L 432.798545 306.71159 
L 433.508727 307.150382 
L 434.218909 309.210569 
L 435.639273 312.436089 
L 436.349455 312.591477 
L 437.059636 312.319886 
L 437.769818 313.0058 
L 438.48 310.820755 
L 439.190182 308.999353 
L 439.900364 306.323926 
L 440.610545 304.979324 
L 441.320727 304.600324 
L 442.030909 306.012384 
L 442.741091 309.240559 
L 443.451273 309.35631 
L 444.161455 309.770584 
L 444.871636 307.152578 
L 445.581818 307.49396 
L 446.292 307.611358 
L 447.002182 305.287764 
L 447.712364 306.583213 
L 448.422545 305.680195 
L 449.132727 307.685374 
L 449.842909 308.579716 
L 450.553091 308.279063 
L 451.263273 307.71932 
L 451.973455 307.85823 
L 453.393818 308.420832 
L 454.104 309.260784 
L 454.814182 309.834341 
L 455.524364 309.328338 
L 456.234545 308.424783 
L 456.944727 310.491238 
L 457.654909 311.234768 
L 458.365091 311.32777 
L 459.075273 309.398769 
L 459.785455 308.057991 
L 460.495636 308.749935 
L 461.205818 309.880477 
L 462.626182 308.485278 
L 463.336364 307.605647 
L 464.046545 307.172959 
L 464.756727 304.09835 
L 465.466909 303.043378 
L 466.177091 301.590001 
L 466.887273 302.250782 
L 467.597455 302.338112 
L 469.017818 305.018296 
L 469.728 308.021723 
L 470.438182 308.203802 
L 471.148364 308.994955 
L 471.858545 306.849487 
L 472.568727 309.042616 
L 473.278909 309.19556 
L 473.989091 310.704028 
L 474.699273 313.423012 
L 475.409455 314.707244 
L 476.119636 315.58807 
L 476.829818 317.090709 
L 477.54 317.79223 
L 478.250182 317.277798 
L 479.670545 318.004528 
L 480.380727 317.549867 
L 481.090909 316.321604 
L 481.801091 316.318052 
L 482.511273 320.072987 
L 483.221455 319.226572 
L 483.931636 318.19801 
L 484.641818 320.073478 
L 485.352 321.43401 
L 486.062182 322.190002 
L 486.772364 323.235314 
L 487.482545 326.114934 
L 488.192727 323.968245 
L 488.902909 323.983353 
L 489.613091 324.456327 
L 491.033455 325.001419 
L 491.743636 323.661101 
L 492.453818 325.808607 
L 493.164 326.804033 
L 493.874182 326.770272 
L 494.584364 326.125424 
L 495.294545 325.891154 
L 496.004727 324.506807 
L 496.714909 324.843147 
L 497.425091 325.599443 
L 498.135273 324.916038 
L 498.845455 325.675882 
L 499.555636 323.360237 
L 500.265818 322.853264 
L 500.976 324.221324 
L 501.686182 324.116599 
L 502.396364 323.424565 
L 503.106545 320.964352 
L 503.816727 322.857761 
L 504.526909 322.45292 
L 505.237091 320.379697 
L 505.947273 320.979535 
L 506.657455 321.215515 
L 507.367636 322.848712 
L 508.077818 322.051612 
L 508.788 323.694329 
L 509.498182 323.128925 
L 510.918545 324.768659 
L 511.628727 323.574417 
L 512.338909 324.230786 
L 513.049091 323.710371 
L 513.759273 321.746525 
L 515.179636 321.66052 
L 515.889818 323.737664 
L 516.6 324.094307 
L 517.310182 324.042629 
L 518.020364 323.81125 
L 518.730545 323.881406 
L 519.440727 322.902155 
L 520.150909 324.119058 
L 520.861091 324.017794 
L 521.571273 324.250674 
L 522.281455 325.16397 
L 522.991636 327.727052 
L 523.701818 328.042959 
L 524.412 328.669587 
L 525.122182 327.644759 
L 525.832364 326.372496 
L 526.542545 326.015825 
L 527.252727 327.680362 
L 527.962909 326.959193 
L 528.673091 327.940781 
L 529.383273 327.974039 
L 530.093455 327.231352 
L 530.803636 326.042493 
L 531.513818 328.492076 
L 532.224 328.564295 
L 532.934182 328.040374 
L 533.644364 327.097028 
L 534.354545 328.42619 
L 535.064727 330.575598 
L 535.774909 332.345247 
L 536.485091 330.967005 
L 537.195273 332.30922 
L 537.905455 334.627536 
L 538.615636 334.10739 
L 539.325818 332.365156 
L 540.746182 329.953604 
L 542.166545 332.185291 
L 542.876727 331.477396 
L 543.586909 331.518328 
L 544.297091 330.895167 
L 545.007273 332.57716 
L 545.717455 333.248683 
L 546.427636 335.164286 
L 547.137818 332.842116 
L 547.848 332.547236 
L 548.558182 334.289377 
L 549.268364 332.686917 
L 549.978545 331.707756 
L 550.688727 332.436382 
L 551.398909 332.812152 
L 552.109091 335.241188 
L 552.819273 336.139239 
L 553.529455 335.66991 
L 554.239636 335.008256 
L 554.949818 334.898987 
L 555.66 332.94035 
L 556.370182 333.600729 
L 557.080364 333.319867 
L 557.790545 333.458887 
L 558.500727 334.84608 
L 559.921091 333.088615 
L 560.631273 333.425782 
L 562.051636 330.463499 
L 562.761818 329.930732 
L 563.472 330.235362 
L 564.182182 329.422089 
L 565.602545 328.337254 
L 566.312727 329.189919 
L 567.022909 330.634799 
L 567.733091 331.422637 
L 569.153455 330.188395 
L 569.863636 329.259014 
L 570.573818 329.619495 
L 571.284 327.820318 
L 571.994182 330.173262 
L 572.704364 327.615514 
L 573.414545 328.252224 
L 574.124727 328.140776 
L 574.834909 328.557757 
L 575.545091 329.231661 
L 576.255273 329.526501 
L 576.965455 331.434902 
L 577.675636 330.801069 
L 578.385818 332.715099 
L 579.096 332.892543 
L 579.806182 335.059304 
L 580.516364 334.680443 
L 581.226545 334.954002 
L 581.936727 335.036298 
L 582.646909 335.456611 
L 583.357091 336.571292 
L 584.067273 335.200379 
L 584.777455 335.314453 
L 585.487636 336.764284 
L 586.197818 333.862567 
L 586.908 332.137499 
L 587.618182 331.092131 
L 588.328364 331.38569 
L 589.038545 332.44145 
L 589.748727 332.396976 
L 590.458909 330.835523 
L 591.169091 332.3798 
L 591.879273 330.634975 
L 592.589455 329.237264 
L 593.299636 326.32407 
L 594.009818 327.907398 
L 594.72 326.817039 
L 595.430182 325.978634 
L 596.140364 325.551602 
L 596.850545 324.816886 
L 597.560727 322.166248 
L 598.270909 323.452586 
L 598.981091 324.160206 
L 599.691273 323.482613 
L 600.401455 323.235401 
L 601.821818 325.368284 
L 602.532 326.982618 
L 603.242182 329.681224 
L 603.952364 328.474472 
L 604.662545 328.859688 
L 605.372727 327.181838 
L 606.082909 328.50001 
L 606.793091 328.132083 
L 607.503273 329.253721 
L 608.213455 328.256668 
L 608.923636 329.176993 
L 609.633818 331.163863 
L 610.344 332.005679 
L 611.764364 331.331249 
L 612.474545 328.154762 
L 613.184727 327.777195 
L 613.894909 327.621078 
L 614.605091 327.205552 
L 615.315273 328.414892 
L 616.735636 329.445086 
L 617.445818 329.497792 
L 618.156 332.228652 
L 618.866182 332.628996 
L 619.576364 332.47643 
L 620.286545 331.62691 
L 620.996727 332.198198 
L 621.706909 331.08758 
L 623.127273 330.315588 
L 623.837455 331.878424 
L 624.547636 335.207995 
L 625.257818 337.703025 
L 625.968 335.740725 
L 626.678182 335.208331 
L 627.388364 337.201005 
L 628.098545 337.207312 
L 628.808727 337.990096 
L 629.518909 336.172755 
L 630.229091 333.621692 
L 630.939273 334.343221 
L 631.649455 334.251757 
L 632.359636 333.916739 
L 633.069818 335.422716 
L 633.78 336.34474 
L 634.490182 338.135644 
L 635.200364 338.989795 
L 635.910545 338.617139 
L 636.620727 337.282498 
L 637.330909 336.888277 
L 638.041091 334.725153 
L 638.751273 335.698129 
L 639.461455 335.686986 
L 640.881818 338.088346 
L 641.592 339.483385 
L 642.302182 340.436118 
L 643.012364 341.069355 
L 644.432727 340.613316 
L 645.142909 341.198907 
L 645.853091 340.492211 
L 646.563273 340.555029 
L 647.273455 343.579226 
L 647.983636 345.283288 
L 648.693818 345.65275 
L 649.404 346.238862 
L 650.114182 347.791357 
L 650.824364 347.417829 
L 651.534545 345.605993 
L 652.244727 344.516766 
L 652.954909 344.07182 
L 653.665091 344.41652 
L 654.375273 345.035168 
L 655.085455 346.397267 
L 655.795636 343.862979 
L 656.505818 343.985989 
L 657.216 343.764442 
L 657.926182 342.642581 
L 658.636364 345.419258 
L 659.346545 346.693858 
L 660.056727 348.43329 
L 660.766909 348.66109 
L 661.477091 349.22455 
L 662.187273 348.377079 
L 662.897455 349.091288 
L 664.317818 349.511385 
L 665.028 348.637904 
L 665.738182 347.981133 
L 666.448364 347.856987 
L 667.158545 350.746566 
L 667.868727 347.750956 
L 668.578909 347.267924 
L 669.289091 347.686237 
L 669.999273 346.583939 
L 670.709455 346.221498 
L 671.419636 347.325661 
L 672.129818 349.34536 
L 672.84 349.138924 
L 673.550182 347.441786 
L 674.260364 348.070014 
L 674.970545 347.211561 
L 675.680727 347.083716 
L 676.390909 346.545259 
L 677.101091 348.570801 
L 677.811273 347.932035 
L 678.521455 348.961378 
L 679.231636 350.234394 
L 679.941818 351.031729 
L 680.652 347.473206 
L 681.362182 348.217304 
L 682.072364 347.382228 
L 682.782545 345.851528 
L 684.202909 347.690781 
L 684.913091 349.303433 
L 685.623273 349.907474 
L 686.333455 348.421556 
L 687.043636 347.547183 
L 687.753818 347.711703 
L 688.464 349.670976 
L 689.174182 349.483017 
L 689.884364 350.506276 
L 690.594545 349.227649 
L 691.304727 350.289063 
L 692.014909 348.28272 
L 693.435273 349.283997 
L 694.145455 348.070662 
L 694.855636 347.090295 
L 695.565818 346.761973 
L 696.276 346.661505 
L 696.986182 347.127109 
L 697.696364 348.06717 
L 698.406545 348.589798 
L 699.116727 349.253967 
L 699.826909 347.721956 
L 700.537091 347.709887 
L 701.247273 346.875406 
L 701.957455 347.89725 
L 702.667636 348.131964 
L 703.377818 345.820313 
L 704.088 346.907376 
L 704.798182 346.041349 
L 705.508364 346.070521 
L 706.218545 346.638675 
L 706.928727 346.679795 
L 707.638909 346.223843 
L 708.349091 347.114672 
L 709.059273 348.540734 
L 709.769455 346.91125 
L 710.479636 349.382242 
L 711.189818 350.061625 
L 711.9 351.494282 
L 712.610182 354.04346 
L 713.320364 353.436948 
L 714.030545 353.631786 
L 714.740727 352.859122 
L 715.450909 352.898891 
L 716.161091 353.354752 
L 716.871273 355.151565 
L 717.581455 354.111409 
L 718.291636 354.690506 
L 719.001818 353.497284 
L 719.712 352.684449 
L 720.422182 350.737119 
L 721.132364 350.81431 
L 721.842545 349.40352 
L 722.552727 351.054115 
L 723.262909 350.465493 
L 723.973091 350.449491 
L 724.683273 349.383333 
L 725.393455 349.230532 
L 726.103636 350.25629 
L 726.813818 351.688871 
L 727.524 350.44369 
L 728.234182 350.800477 
L 728.944364 350.234827 
L 729.654545 350.757044 
L 730.364727 350.987846 
L 731.074909 350.203899 
L 731.785091 350.430372 
L 733.205455 349.509614 
L 733.915636 347.299288 
L 734.625818 349.057756 
L 736.046182 347.337564 
L 736.756364 348.313803 
L 737.466545 346.711953 
L 738.176727 347.62131 
L 738.886909 348.32909 
L 739.597091 348.268761 
L 740.307273 347.203352 
L 741.017455 345.631861 
L 741.727636 346.127352 
L 742.437818 345.475354 
L 743.148 343.418048 
L 743.858182 344.660032 
L 744.568364 343.675183 
L 745.278545 346.386104 
L 745.988727 344.111685 
L 746.698909 343.810037 
L 747.409091 343.92875 
L 748.119273 342.26929 
L 748.829455 342.77617 
L 749.539636 340.998833 
L 750.96 340.852761 
L 752.380364 339.546271 
L 753.090545 341.796906 
L 753.800727 343.65613 
L 754.510909 343.128795 
L 755.221091 344.888815 
L 755.931273 345.837526 
L 756.641455 345.355585 
L 757.351636 345.767528 
L 758.061818 344.760712 
L 758.772 343.365744 
L 759.482182 343.014951 
L 760.192364 343.005872 
L 760.902545 341.415638 
L 761.612727 342.847034 
L 762.322909 344.682181 
L 763.743273 341.818946 
L 765.163636 338.132632 
L 765.873818 336.86495 
L 766.584 337.230011 
L 768.004364 338.491559 
L 768.714545 337.415954 
L 769.424727 336.914749 
L 771.555273 337.368614 
L 772.265455 335.619988 
L 772.975636 334.463322 
L 773.685818 333.715448 
L 775.106182 333.707136 
L 775.816364 333.409294 
L 776.526545 333.944493 
L 777.236727 335.175994 
L 777.946909 334.611946 
L 778.657091 333.157569 
L 779.367273 333.141632 
L 780.077455 334.134847 
L 780.787636 333.558134 
L 781.497818 333.287079 
L 782.208 334.318369 
L 782.918182 333.189755 
L 783.628364 332.576785 
L 784.338545 332.795279 
L 785.758909 335.910382 
L 786.469091 336.423151 
L 787.179273 336.589165 
L 787.889455 337.259032 
L 788.599636 337.006085 
L 789.309818 336.469837 
L 790.02 336.152529 
L 790.730182 335.685913 
L 792.150545 333.91078 
L 792.860727 334.64504 
L 793.570909 331.00064 
L 794.281091 329.930352 
L 794.991273 330.810859 
L 795.701455 331.093503 
L 797.121818 333.213948 
L 797.832 334.352533 
L 798.542182 333.926758 
L 799.252364 334.843563 
L 799.962545 338.834561 
L 800.672727 339.390284 
L 801.382909 340.304539 
L 802.093091 337.628066 
L 802.803273 335.436905 
L 803.513455 336.680346 
L 804.223636 337.397872 
L 804.933818 336.775979 
L 805.644 334.595342 
L 806.354182 334.844337 
L 807.064364 334.841458 
L 807.774545 333.699942 
L 808.484727 333.753448 
L 809.194909 333.009661 
L 809.905091 333.24678 
L 810.615273 332.695508 
L 811.325455 332.780919 
L 812.035636 331.368416 
L 812.745818 331.364808 
L 813.456 329.948027 
L 814.166182 329.787859 
L 815.586545 327.666093 
L 816.296727 328.303319 
L 817.006909 330.352396 
L 817.717091 330.275407 
L 818.427273 329.759829 
L 819.137455 328.129475 
L 819.847636 329.796791 
L 820.557818 329.820622 
L 821.268 331.823361 
L 821.978182 331.283332 
L 822.688364 332.772898 
L 823.398545 333.086846 
L 824.108727 331.614897 
L 825.529091 330.462052 
L 826.239273 329.140281 
L 826.949455 329.903752 
L 827.659636 329.679498 
L 828.369818 329.785265 
L 829.08 329.19923 
L 829.790182 330.90385 
L 830.500364 331.39944 
L 831.210545 334.282534 
L 831.920727 335.555173 
L 832.630909 337.27739 
L 833.341091 336.277139 
L 834.051273 334.39085 
L 834.761455 335.104461 
L 835.471636 336.356673 
L 836.181818 334.22378 
L 836.892 334.645893 
L 837.602182 334.590578 
L 839.022545 335.8665 
L 839.732727 337.209916 
L 840.442909 339.853631 
L 841.153091 339.267493 
L 841.863273 338.086246 
L 843.283636 334.110003 
L 843.993818 335.1745 
L 844.704 335.732583 
L 845.414182 334.669267 
L 846.124364 334.607536 
L 846.834545 335.937103 
L 847.544727 333.938535 
L 848.254909 334.143657 
L 848.965091 333.714492 
L 849.675273 333.528535 
L 850.385455 332.733286 
L 851.095636 332.850068 
L 851.805818 332.462057 
L 852.516 334.291257 
L 853.226182 333.893094 
L 853.936364 331.388038 
L 854.646545 333.718721 
L 855.356727 333.551501 
L 856.066909 332.552123 
L 856.777091 332.035942 
L 857.487273 332.758345 
L 858.197455 334.376544 
L 858.907636 334.631122 
L 859.617818 334.750359 
L 860.328 333.259484 
L 861.038182 333.560454 
L 861.748364 334.188488 
L 862.458545 336.354026 
L 863.168727 334.33935 
L 863.878909 334.742783 
L 864.589091 334.246704 
L 865.299273 334.068227 
L 866.009455 333.431538 
L 866.719636 332.952018 
L 867.429818 336.274637 
L 868.14 334.584879 
L 869.560364 331.602929 
L 870.270545 332.739064 
L 871.690909 330.241098 
L 871.690909 330.241098 
" clip-path="url(#pd3b6c2d3d3)" style="fill: none; stroke: #ff7f0e; stroke-width: 1.5; stroke-linecap: square"/>
   </g>
   <g id="line2d_15">
    <path d="M 162.219273 357.804342 
L 162.929455 355.9791 
L 163.639636 355.856826 
L 165.06 355.918524 
L 165.770182 355.883386 
L 166.480364 355.663545 
L 167.190545 355.633003 
L 169.321091 355.240476 
L 170.741455 355.285578 
L 171.451636 355.111975 
L 172.161818 354.79135 
L 175.002545 354.695666 
L 175.712727 354.565919 
L 176.422909 354.55179 
L 177.133091 353.697027 
L 177.843273 353.870663 
L 178.553455 353.699944 
L 179.263636 353.76426 
L 179.973818 353.373584 
L 180.684 352.533795 
L 181.394182 351.980306 
L 182.104364 351.689011 
L 182.814545 350.017506 
L 185.655273 349.572217 
L 186.365455 349.046178 
L 187.075636 349.055006 
L 187.785818 347.184541 
L 189.916364 345.25295 
L 191.336727 345.013029 
L 192.046909 343.429437 
L 194.887636 343.259747 
L 196.308 342.411993 
L 197.018182 342.470908 
L 199.148727 342.377398 
L 201.279273 342.311998 
L 201.989455 341.647387 
L 202.699636 341.277447 
L 203.409818 341.260059 
L 204.12 341.373994 
L 204.830182 341.357775 
L 205.540364 341.073272 
L 206.960727 341.406615 
L 207.670909 340.892485 
L 208.381091 340.919254 
L 209.801455 340.581707 
L 212.642182 340.541957 
L 213.352364 339.914104 
L 214.062545 339.78634 
L 214.772727 339.432043 
L 215.482909 339.349601 
L 216.903273 338.700272 
L 218.323636 338.590081 
L 219.033818 338.51524 
L 219.744 337.115834 
L 220.454182 337.29601 
L 221.874545 337.298174 
L 223.294909 336.10216 
L 224.005091 336.071208 
L 224.715273 335.30662 
L 225.425455 334.048857 
L 226.135636 334.012698 
L 226.845818 333.840268 
L 227.556 334.178223 
L 228.266182 333.51067 
L 228.976364 331.985639 
L 229.686545 332.009798 
L 230.396727 331.38195 
L 233.237455 331.427889 
L 234.657818 330.994356 
L 236.078182 330.986237 
L 236.788364 331.101058 
L 237.498545 330.687797 
L 238.208727 330.404053 
L 238.918909 330.514324 
L 239.629091 329.706647 
L 240.339273 329.417921 
L 241.049455 328.089066 
L 241.759636 327.756822 
L 243.18 327.842137 
L 243.890182 327.823384 
L 244.600364 327.451276 
L 245.310545 327.534425 
L 246.020727 326.213411 
L 246.730909 326.093918 
L 247.441091 324.89405 
L 248.151273 324.99587 
L 249.571636 324.55114 
L 250.281818 322.744358 
L 250.992 322.570677 
L 251.702182 322.761977 
L 256.673455 321.926435 
L 257.383636 321.487768 
L 258.093818 319.038912 
L 258.804 318.965909 
L 259.514182 318.417625 
L 260.224364 318.125423 
L 262.354909 318.249785 
L 263.065091 317.940355 
L 263.775273 318.152314 
L 264.485455 317.989772 
L 265.195636 318.057864 
L 265.905818 317.281978 
L 266.616 315.876154 
L 267.326182 315.811876 
L 268.036364 315.897852 
L 268.746545 315.785603 
L 269.456727 315.803692 
L 270.166909 315.700054 
L 270.877091 315.129047 
L 271.587273 314.258599 
L 273.007636 314.303827 
L 273.717818 314.036499 
L 275.138182 314.139635 
L 275.848364 312.556948 
L 276.558545 312.580315 
L 277.268727 312.168682 
L 277.978909 312.143212 
L 278.689091 311.751253 
L 279.399273 311.169342 
L 280.109455 311.220644 
L 280.819636 311.020751 
L 281.529818 310.566452 
L 282.24 310.440388 
L 282.950182 308.276185 
L 283.660364 308.151213 
L 284.370545 307.233144 
L 289.341818 306.361899 
L 290.762182 306.493757 
L 291.472364 306.031746 
L 292.892727 305.667071 
L 295.023273 305.82155 
L 295.733455 305.643215 
L 297.864 305.510471 
L 298.574182 306.192646 
L 299.994545 305.301483 
L 301.414909 304.93197 
L 302.125091 304.535327 
L 302.835273 303.71158 
L 303.545455 303.45112 
L 304.255636 303.05669 
L 306.386182 302.919124 
L 307.806545 302.482505 
L 308.516727 302.547776 
L 309.226909 302.132523 
L 310.647273 300.665066 
L 311.357455 300.221548 
L 314.908364 300.444143 
L 315.618545 299.823499 
L 317.038909 299.659945 
L 317.749091 299.79154 
L 318.459273 299.722272 
L 319.879636 299.886789 
L 320.589818 299.271763 
L 321.3 299.2411 
L 322.010182 297.6881 
L 322.720364 297.698038 
L 323.430545 298.168871 
L 324.850909 298.256867 
L 325.561091 296.559499 
L 326.271273 296.609713 
L 326.981455 296.383391 
L 327.691636 295.978365 
L 328.401818 295.977095 
L 329.822182 295.768055 
L 330.532364 295.326445 
L 331.242545 295.342938 
L 331.952727 294.899523 
L 332.662909 294.898855 
L 333.373091 294.488894 
L 334.083273 294.594141 
L 334.793455 294.484934 
L 336.213818 294.520095 
L 336.924 294.360953 
L 337.634182 292.083139 
L 338.344364 291.927286 
L 339.054545 291.597987 
L 339.764727 291.644409 
L 340.474909 290.145161 
L 341.895273 289.57776 
L 342.605455 289.712553 
L 343.315636 288.671124 
L 344.025818 287.139065 
L 344.736 284.520915 
L 348.286909 284.40299 
L 349.707273 283.957303 
L 350.417455 283.982309 
L 351.127636 283.838285 
L 351.837818 283.575255 
L 352.548 283.66885 
L 353.258182 283.230323 
L 353.968364 283.30925 
L 355.388727 282.789205 
L 356.098909 281.847869 
L 356.809091 281.792667 
L 357.519273 280.493107 
L 358.229455 280.241662 
L 358.939636 280.356979 
L 361.780364 280.444629 
L 363.200727 279.995725 
L 364.621091 279.922457 
L 366.041455 279.197052 
L 366.751636 279.203173 
L 367.461818 278.828046 
L 368.882182 278.879179 
L 369.592364 279.267823 
L 370.302545 279.212188 
L 371.012727 278.52788 
L 371.722909 278.612003 
L 372.433091 278.340475 
L 373.143273 276.842382 
L 373.853455 277.131581 
L 374.563636 274.798172 
L 375.984 274.658157 
L 376.694182 273.846211 
L 377.404364 273.983312 
L 378.114545 273.999315 
L 378.824727 274.29299 
L 379.534909 274.33568 
L 380.245091 273.530611 
L 381.665455 273.578241 
L 382.375636 273.044529 
L 383.796 273.092856 
L 385.216364 273.295802 
L 385.926545 273.00443 
L 386.636727 273.018252 
L 387.346909 272.4292 
L 388.767273 272.322076 
L 389.477455 272.159072 
L 390.187636 271.680687 
L 391.608 271.078265 
L 392.318182 269.833543 
L 393.738545 269.613309 
L 395.869091 267.309445 
L 397.999636 267.194671 
L 398.709818 266.850999 
L 399.42 265.282599 
L 400.840364 265.545346 
L 402.260727 265.495161 
L 402.970909 265.350371 
L 403.681091 265.069685 
L 404.391273 265.069459 
L 405.101455 264.331728 
L 405.811636 263.431051 
L 406.521818 263.378068 
L 407.232 261.50594 
L 409.362545 261.259272 
L 410.072727 261.172999 
L 410.782909 260.261298 
L 411.493091 260.287602 
L 412.203273 260.179373 
L 412.913455 260.20912 
L 414.333818 260.092631 
L 415.754182 259.315938 
L 416.464364 259.333645 
L 417.174545 258.747101 
L 420.725455 258.475957 
L 421.435636 258.268467 
L 422.856 258.330239 
L 424.986545 257.172041 
L 426.406909 256.924769 
L 427.117091 255.806942 
L 428.537455 255.952386 
L 429.247636 255.422711 
L 432.088364 255.715874 
L 432.798545 255.492251 
L 433.508727 255.441295 
L 434.218909 254.607512 
L 435.639273 253.6824 
L 437.059636 253.745164 
L 437.769818 253.487435 
L 438.48 252.478189 
L 439.190182 251.738392 
L 439.900364 250.131628 
L 440.610545 249.922741 
L 441.320727 249.980604 
L 442.030909 249.254689 
L 442.741091 247.750791 
L 444.161455 247.665902 
L 444.871636 247.162758 
L 446.292 247.170071 
L 447.002182 245.6442 
L 447.712364 245.033579 
L 448.422545 245.061951 
L 449.132727 244.322183 
L 449.842909 244.151548 
L 451.973455 244.328013 
L 456.234545 243.913216 
L 456.944727 242.391101 
L 457.654909 242.237233 
L 458.365091 242.247351 
L 459.075273 241.43995 
L 459.785455 241.129603 
L 460.495636 241.114209 
L 461.205818 240.414468 
L 461.916 240.267569 
L 462.626182 240.474841 
L 463.336364 240.175498 
L 464.046545 240.028371 
L 464.756727 236.904566 
L 465.466909 237.048806 
L 466.177091 236.324317 
L 466.887273 236.202509 
L 467.597455 236.215732 
L 468.307636 235.56748 
L 469.017818 235.578174 
L 469.728 234.233752 
L 471.148364 234.179078 
L 471.858545 233.709854 
L 472.568727 232.390981 
L 473.989091 232.316796 
L 474.699273 232.029784 
L 475.409455 231.526969 
L 476.119636 231.163711 
L 481.801091 230.977266 
L 482.511273 227.409858 
L 483.221455 227.120682 
L 483.931636 227.062077 
L 484.641818 226.108513 
L 486.772364 225.219166 
L 487.482545 223.569454 
L 488.902909 223.485258 
L 489.613091 223.61053 
L 491.033455 223.381505 
L 491.743636 222.980111 
L 492.453818 221.574006 
L 494.584364 221.309173 
L 495.294545 221.277098 
L 496.004727 221.007035 
L 498.135273 220.966797 
L 498.845455 220.66068 
L 499.555636 219.67823 
L 501.686182 219.574629 
L 502.396364 219.734716 
L 503.106545 218.542372 
L 503.816727 217.610209 
L 504.526909 217.50999 
L 505.237091 216.777574 
L 505.947273 216.688558 
L 506.657455 216.762025 
L 507.367636 215.86779 
L 508.077818 215.966307 
L 508.788 215.202192 
L 509.498182 215.184942 
L 511.628727 214.350497 
L 512.338909 214.24313 
L 513.049091 214.281337 
L 513.759273 213.932074 
L 515.179636 213.915382 
L 515.889818 212.711438 
L 518.730545 212.698031 
L 519.440727 212.281803 
L 520.150909 212.006832 
L 521.571273 211.997091 
L 522.281455 211.824659 
L 522.991636 210.524671 
L 523.701818 210.574036 
L 524.412 210.327427 
L 525.122182 209.870236 
L 525.832364 209.568359 
L 526.542545 209.568677 
L 527.252727 208.820887 
L 527.962909 208.765157 
L 528.673091 208.139907 
L 530.093455 208.192839 
L 531.513818 207.321182 
L 532.934182 207.317371 
L 533.644364 206.47256 
L 534.354545 206.103298 
L 535.064727 205.958386 
L 537.195273 203.9503 
L 537.905455 203.606539 
L 539.325818 203.544828 
L 542.166545 202.869995 
L 543.586909 202.929769 
L 545.007273 202.818645 
L 545.717455 202.622131 
L 546.427636 202.022983 
L 547.137818 201.679192 
L 547.848 201.597608 
L 548.558182 200.559629 
L 549.978545 199.639875 
L 551.398909 199.700637 
L 552.109091 198.016412 
L 554.949818 198.020134 
L 555.66 197.646952 
L 556.370182 197.796364 
L 558.500727 197.500138 
L 559.921091 197.200417 
L 560.631273 197.165996 
L 561.341455 196.445414 
L 562.051636 196.062117 
L 565.602545 195.578162 
L 566.312727 195.782555 
L 567.022909 194.883022 
L 567.733091 195.083855 
L 569.863636 194.633974 
L 571.284 194.5132 
L 571.994182 194.312728 
L 572.704364 193.601778 
L 573.414545 193.30323 
L 574.124727 193.260433 
L 574.834909 193.096442 
L 575.545091 192.686438 
L 576.255273 192.616605 
L 576.965455 191.404659 
L 577.675636 191.424937 
L 578.385818 190.616919 
L 579.096 190.599544 
L 579.806182 189.382174 
L 583.357091 189.296773 
L 584.067273 188.784371 
L 584.777455 188.829306 
L 585.487636 187.95596 
L 586.197818 186.83683 
L 586.908 185.940806 
L 588.328364 185.82329 
L 589.748727 185.798903 
L 590.458909 185.106962 
L 591.169091 185.079768 
L 591.879273 184.424737 
L 592.589455 184.078817 
L 593.299636 183.031243 
L 594.009818 182.51452 
L 594.72 182.201053 
L 597.560727 182.096149 
L 598.981091 181.288517 
L 599.691273 181.393892 
L 601.821818 181.329029 
L 602.532 180.93302 
L 603.242182 178.970929 
L 603.952364 179.350086 
L 604.662545 179.361885 
L 606.082909 178.764912 
L 606.793091 178.728754 
L 607.503273 178.129707 
L 608.213455 177.725958 
L 608.923636 177.491035 
L 609.633818 176.921614 
L 611.764364 176.486697 
L 612.474545 174.119256 
L 614.605091 173.967264 
L 615.315273 173.512097 
L 617.445818 173.333071 
L 618.156 172.833826 
L 620.996727 172.926099 
L 621.706909 172.526009 
L 622.417091 172.297324 
L 623.127273 172.267344 
L 623.837455 172.092002 
L 624.547636 169.780045 
L 625.257818 168.831782 
L 625.968 168.098821 
L 626.678182 168.197148 
L 627.388364 167.009329 
L 628.098545 167.006631 
L 628.808727 166.676207 
L 629.518909 166.074938 
L 630.229091 164.078356 
L 630.939273 163.778811 
L 632.359636 163.807744 
L 633.069818 163.172401 
L 633.78 162.80493 
L 634.490182 161.907314 
L 635.910545 161.847395 
L 636.620727 161.274103 
L 637.330909 161.339142 
L 638.041091 160.22728 
L 638.751273 159.787738 
L 639.461455 159.78607 
L 640.171636 159.421515 
L 640.881818 158.808085 
L 641.592 157.920752 
L 643.012364 157.625322 
L 645.142909 157.686833 
L 645.853091 157.370055 
L 646.563273 157.38116 
L 647.273455 156.049512 
L 647.983636 155.309287 
L 649.404 155.193915 
L 650.114182 154.81594 
L 650.824364 154.746669 
L 652.244727 153.80791 
L 652.954909 153.624437 
L 654.375273 153.455484 
L 655.085455 153.041663 
L 655.795636 151.24719 
L 657.216 151.307067 
L 657.926182 150.902765 
L 658.636364 149.85791 
L 660.056727 149.613665 
L 660.766909 149.544723 
L 662.897455 149.047169 
L 664.317818 149.091013 
L 665.028 148.891271 
L 665.738182 149.005359 
L 666.448364 149.002318 
L 667.868727 145.10154 
L 668.578909 145.102239 
L 671.419636 144.471158 
L 672.129818 144.231839 
L 672.84 144.279745 
L 673.550182 143.755355 
L 674.260364 143.498838 
L 674.970545 142.989738 
L 676.390909 143.022919 
L 677.101091 141.942771 
L 677.811273 141.840199 
L 678.521455 142.168704 
L 679.231636 141.750334 
L 679.941818 141.671784 
L 680.652 139.279392 
L 682.072364 139.418276 
L 682.782545 138.9757 
L 683.492727 138.674069 
L 684.202909 138.61001 
L 684.913091 137.985395 
L 685.623273 137.972102 
L 686.333455 137.554113 
L 687.043636 137.667523 
L 687.753818 137.640429 
L 688.464 137.26887 
L 689.174182 137.252462 
L 690.594545 136.432508 
L 691.304727 136.234238 
L 692.014909 135.171435 
L 692.725091 135.009058 
L 693.435273 134.99204 
L 694.855636 134.740045 
L 696.276 134.811393 
L 696.986182 134.481056 
L 697.696364 134.317183 
L 699.116727 134.392272 
L 699.826909 134.000922 
L 701.247273 134.027886 
L 701.957455 133.684178 
L 702.667636 133.572201 
L 703.377818 132.019552 
L 704.088 132.192732 
L 704.798182 131.969339 
L 705.508364 131.962589 
L 706.218545 131.812825 
L 708.349091 131.677257 
L 709.059273 130.708787 
L 709.769455 130.418719 
L 710.479636 128.599589 
L 711.189818 128.714767 
L 711.9 127.947628 
L 712.610182 127.350107 
L 713.320364 126.98946 
L 715.450909 127.108921 
L 716.161091 127.250677 
L 716.871273 126.801357 
L 718.291636 126.549444 
L 719.001818 126.57457 
L 719.712 126.279089 
L 720.422182 125.298013 
L 721.132364 125.296078 
L 721.842545 125.134906 
L 722.552727 124.469741 
L 723.262909 124.303062 
L 723.973091 124.302548 
L 724.683273 123.929778 
L 725.393455 123.925463 
L 726.103636 123.62664 
L 726.813818 123.00038 
L 727.524 122.534875 
L 730.364727 122.459411 
L 731.074909 122.584913 
L 733.205455 122.453494 
L 733.915636 121.293341 
L 734.625818 120.597725 
L 735.336 120.675965 
L 736.046182 120.541576 
L 738.176727 119.379141 
L 738.886909 119.284435 
L 740.307273 119.247667 
L 741.017455 118.111619 
L 742.437818 118.300426 
L 743.148 117.619724 
L 743.858182 117.313434 
L 744.568364 117.323785 
L 745.278545 116.044006 
L 745.988727 114.48009 
L 747.409091 114.473056 
L 748.119273 115.230636 
L 748.829455 115.175127 
L 749.539636 114.622248 
L 750.96 114.606535 
L 751.670182 114.396529 
L 752.380364 114.389282 
L 753.090545 112.926286 
L 753.800727 111.208146 
L 754.510909 111.20886 
L 755.221091 110.731177 
L 755.931273 110.529825 
L 757.351636 110.404739 
L 759.482182 109.580198 
L 760.192364 109.578237 
L 763.033091 107.620656 
L 763.743273 107.536436 
L 764.453455 106.464286 
L 765.163636 106.168695 
L 765.873818 106.447208 
L 766.584 106.381213 
L 767.294182 106.468592 
L 768.004364 106.40029 
L 768.714545 105.997238 
L 771.555273 105.934037 
L 772.265455 105.027002 
L 772.975636 104.81385 
L 774.396 104.880171 
L 776.526545 104.981323 
L 777.236727 104.536831 
L 777.946909 104.509768 
L 778.657091 104.639709 
L 779.367273 104.641488 
L 780.077455 104.280299 
L 781.497818 104.312919 
L 782.208 103.933949 
L 782.918182 103.319454 
L 783.628364 103.040698 
L 784.338545 103.074718 
L 785.048727 102.067645 
L 785.758909 101.254579 
L 787.889455 101.200217 
L 789.309818 101.200434 
L 790.730182 101.468712 
L 791.440364 101.464195 
L 792.150545 101.251609 
L 792.860727 101.309364 
L 793.570909 98.736931 
L 794.281091 98.844097 
L 794.991273 98.637683 
L 796.411636 98.554552 
L 797.121818 98.417082 
L 797.832 98.159455 
L 798.542182 98.363573 
L 799.252364 98.247766 
L 799.962545 96.094641 
L 800.672727 96.330663 
L 801.382909 96.096596 
L 802.093091 94.383189 
L 802.803273 92.984436 
L 803.513455 92.923294 
L 804.223636 92.978279 
L 804.933818 92.887741 
L 805.644 92.635623 
L 807.064364 92.665858 
L 807.774545 92.236935 
L 809.194909 92.342576 
L 810.615273 92.547916 
L 811.325455 92.527105 
L 812.745818 92.619729 
L 813.456 92.083158 
L 814.876364 92.185853 
L 815.586545 91.718951 
L 816.296727 91.692693 
L 817.006909 90.996091 
L 819.137455 90.840897 
L 819.847636 90.20235 
L 820.557818 90.207063 
L 821.268 89.588435 
L 821.978182 89.314669 
L 822.688364 88.190788 
L 823.398545 88.249804 
L 824.108727 87.476393 
L 824.818909 87.451564 
L 825.529091 87.597106 
L 826.239273 86.961023 
L 826.949455 86.776494 
L 829.08 86.633215 
L 829.790182 86.000137 
L 830.500364 85.948333 
L 831.210545 83.79807 
L 831.920727 83.440273 
L 832.630909 82.769946 
L 833.341091 82.506332 
L 834.051273 81.918528 
L 834.761455 82.005013 
L 835.471636 82.452992 
L 836.181818 81.761613 
L 836.892 81.915186 
L 837.602182 81.898929 
L 839.022545 81.223256 
L 839.732727 80.850919 
L 840.442909 80.288085 
L 841.153091 80.134997 
L 843.283636 77.932024 
L 843.993818 77.324945 
L 846.124364 77.273707 
L 846.834545 77.323863 
L 847.544727 76.441174 
L 849.675273 76.713042 
L 850.385455 76.488922 
L 851.805818 76.464405 
L 852.516 76.01755 
L 853.936364 75.836311 
L 854.646545 76.008473 
L 855.356727 75.992025 
L 856.066909 75.636117 
L 856.777091 75.469693 
L 857.487273 75.569092 
L 858.197455 74.689625 
L 859.617818 74.654369 
L 860.328 73.731735 
L 861.748364 73.563642 
L 862.458545 72.317963 
L 863.168727 70.580263 
L 863.878909 70.518921 
L 864.589091 70.30527 
L 865.299273 70.277834 
L 866.009455 70.01629 
L 866.719636 69.981437 
L 867.429818 68.276144 
L 868.14 67.890918 
L 868.850182 68.064695 
L 869.560364 67.618997 
L 870.980727 67.449216 
L 871.690909 66.96 
L 871.690909 66.96 
" clip-path="url(#pd3b6c2d3d3)" style="fill: none; stroke: #2ca02c; stroke-width: 1.5; stroke-linecap: square"/>
   </g>
   <g id="patch_3">
    <path d="M 126 384.48 
L 126 51.84 
" style="fill: none; stroke: #000000; stroke-width: 0.8; stroke-linejoin: miter; stroke-linecap: square"/>
   </g>
   <g id="patch_4">
    <path d="M 907.2 384.48 
L 907.2 51.84 
" style="fill: none; stroke: #000000; stroke-width: 0.8; stroke-linejoin: miter; stroke-linecap: square"/>
   </g>
   <g id="patch_5">
    <path d="M 126 384.48 
L 907.2 384.48 
" style="fill: none; stroke: #000000; stroke-width: 0.8; stroke-linejoin: miter; stroke-linecap: square"/>
   </g>
   <g id="patch_6">
    <path d="M 126 51.84 
L 907.2 51.84 
" style="fill: none; stroke: #000000; stroke-width: 0.8; stroke-linejoin: miter; stroke-linecap: square"/>
   </g>
   <g id="text_15">
    <!-- Quadratic Covariation of $X_t$ and $S_t$ -->
    <g transform="translate(414.54 45.84)scale(0.12 -0.12)">
     <defs>
      <path id="DejaVuSans-66" d="M 2375 4863 
L 2375 4384 
L 1825 4384 
Q 1516 4384 1395 4259 
Q 1275 4134 1275 3809 
L 1275 3500 
L 2222 3500 
L 2222 3053 
L 1275 3053 
L 1275 0 
L 697 0 
L 697 3053 
L 147 3053 
L 147 3500 
L 697 3500 
L 697 3744 
Q 697 4328 969 4595 
Q 1241 4863 1831 4863 
L 2375 4863 
z
" transform="scale(0.015625)"/>
      <path id="DejaVuSans-Oblique-58" d="M 878 4666 
L 1516 4666 
L 2316 2981 
L 3763 4666 
L 4500 4666 
L 2578 2438 
L 3738 0 
L 3103 0 
L 2163 1966 
L 459 0 
L -275 0 
L 1906 2509 
L 878 4666 
z
" transform="scale(0.015625)"/>
      <path id="DejaVuSans-Oblique-74" d="M 2706 3500 
L 2619 3053 
L 1472 3053 
L 1100 1153 
Q 1081 1047 1072 975 
Q 1063 903 1063 863 
Q 1063 663 1183 572 
Q 1303 481 1569 481 
L 2150 481 
L 2053 0 
L 1503 0 
Q 991 0 739 200 
Q 488 400 488 806 
Q 488 878 497 964 
Q 506 1050 525 1153 
L 897 3053 
L 409 3053 
L 500 3500 
L 978 3500 
L 1172 4494 
L 1747 4494 
L 1556 3500 
L 2706 3500 
z
" transform="scale(0.015625)"/>
      <path id="DejaVuSans-Oblique-53" d="M 3859 4513 
L 3738 3897 
Q 3422 4066 3111 4152 
Q 2800 4238 2509 4238 
Q 1944 4238 1609 3991 
Q 1275 3744 1275 3334 
Q 1275 3109 1398 2989 
Q 1522 2869 2034 2731 
L 2413 2638 
Q 3053 2472 3303 2217 
Q 3553 1963 3553 1503 
Q 3553 797 2998 353 
Q 2444 -91 1538 -91 
Q 1166 -91 791 -17 
Q 416 56 38 206 
L 166 856 
Q 513 641 861 531 
Q 1209 422 1556 422 
Q 2147 422 2503 684 
Q 2859 947 2859 1369 
Q 2859 1650 2717 1795 
Q 2575 1941 2106 2059 
L 1728 2156 
Q 1081 2325 845 2545 
Q 609 2766 609 3163 
Q 609 3859 1145 4304 
Q 1681 4750 2541 4750 
Q 2875 4750 3203 4690 
Q 3531 4631 3859 4513 
z
" transform="scale(0.015625)"/>
     </defs>
     <use xlink:href="#DejaVuSans-51" transform="translate(0 0.015625)"/>
     <use xlink:href="#DejaVuSans-75" transform="translate(78.710938 0.015625)"/>
     <use xlink:href="#DejaVuSans-61" transform="translate(142.089844 0.015625)"/>
     <use xlink:href="#DejaVuSans-64" transform="translate(203.369141 0.015625)"/>
     <use xlink:href="#DejaVuSans-72" transform="translate(266.845703 0.015625)"/>
     <use xlink:href="#DejaVuSans-61" transform="translate(307.958984 0.015625)"/>
     <use xlink:href="#DejaVuSans-74" transform="translate(369.238281 0.015625)"/>
     <use xlink:href="#DejaVuSans-69" transform="translate(408.447266 0.015625)"/>
     <use xlink:href="#DejaVuSans-63" transform="translate(436.230469 0.015625)"/>
     <use xlink:href="#DejaVuSans-20" transform="translate(491.210938 0.015625)"/>
     <use xlink:href="#DejaVuSans-43" transform="translate(522.998047 0.015625)"/>
     <use xlink:href="#DejaVuSans-6f" transform="translate(592.822266 0.015625)"/>
     <use xlink:href="#DejaVuSans-76" transform="translate(654.003906 0.015625)"/>
     <use xlink:href="#DejaVuSans-61" transform="translate(713.183594 0.015625)"/>
     <use xlink:href="#DejaVuSans-72" transform="translate(774.462891 0.015625)"/>
     <use xlink:href="#DejaVuSans-69" transform="translate(815.576172 0.015625)"/>
     <use xlink:href="#DejaVuSans-61" transform="translate(843.359375 0.015625)"/>
     <use xlink:href="#DejaVuSans-74" transform="translate(904.638672 0.015625)"/>
     <use xlink:href="#DejaVuSans-69" transform="translate(943.847656 0.015625)"/>
     <use xlink:href="#DejaVuSans-6f" transform="translate(971.630859 0.015625)"/>
     <use xlink:href="#DejaVuSans-6e" transform="translate(1032.8125 0.015625)"/>
     <use xlink:href="#DejaVuSans-20" transform="translate(1096.191406 0.015625)"/>
     <use xlink:href="#DejaVuSans-6f" transform="translate(1127.978516 0.015625)"/>
     <use xlink:href="#DejaVuSans-66" transform="translate(1189.160156 0.015625)"/>
     <use xlink:href="#DejaVuSans-20" transform="translate(1224.365234 0.015625)"/>
     <use xlink:href="#DejaVuSans-Oblique-58" transform="translate(1256.152344 0.015625)"/>
     <use xlink:href="#DejaVuSans-Oblique-74" transform="translate(1324.658203 -16.390625)scale(0.7)"/>
     <use xlink:href="#DejaVuSans-20" transform="translate(1354.838867 0.015625)"/>
     <use xlink:href="#DejaVuSans-61" transform="translate(1386.625977 0.015625)"/>
     <use xlink:href="#DejaVuSans-6e" transform="translate(1447.905273 0.015625)"/>
     <use xlink:href="#DejaVuSans-64" transform="translate(1511.28418 0.015625)"/>
     <use xlink:href="#DejaVuSans-20" transform="translate(1574.760742 0.015625)"/>
     <use xlink:href="#DejaVuSans-Oblique-53" transform="translate(1606.547852 0.015625)"/>
     <use xlink:href="#DejaVuSans-Oblique-74" transform="translate(1670.024414 -16.390625)scale(0.7)"/>
    </g>
   </g>
   <g id="legend_1">
    <g id="patch_7">
     <path d="M 133 103.874375 
L 335.1 103.874375 
Q 337.1 103.874375 337.1 101.874375 
L 337.1 58.84 
Q 337.1 56.84 335.1 56.84 
L 133 56.84 
Q 131 56.84 131 58.84 
L 131 101.874375 
Q 131 103.874375 133 103.874375 
z
" style="fill: #ffffff; opacity: 0.8; stroke: #cccccc; stroke-linejoin: miter"/>
    </g>
    <g id="line2d_16">
     <path d="M 135 64.938437 
L 145 64.938437 
L 155 64.938437 
" style="fill: none; stroke: #1f77b4; stroke-width: 1.5; stroke-linecap: square"/>
    </g>
    <g id="text_16">
     <!-- $X_t$ -->
     <g transform="translate(163 68.438437)scale(0.1 -0.1)">
      <use xlink:href="#DejaVuSans-Oblique-58" transform="translate(0 0.09375)"/>
      <use xlink:href="#DejaVuSans-Oblique-74" transform="translate(68.505859 -16.3125)scale(0.7)"/>
     </g>
    </g>
    <g id="line2d_17">
     <path d="M 135 79.616562 
L 145 79.616562 
L 155 79.616562 
" style="fill: none; stroke: #ff7f0e; stroke-width: 1.5; stroke-linecap: square"/>
    </g>
    <g id="text_17">
     <!-- $S_t$ -->
     <g transform="translate(163 83.116562)scale(0.1 -0.1)">
      <use xlink:href="#DejaVuSans-Oblique-53" transform="translate(0 0.78125)"/>
      <use xlink:href="#DejaVuSans-Oblique-74" transform="translate(63.476562 -15.625)scale(0.7)"/>
     </g>
    </g>
    <g id="line2d_18">
     <path d="M 135 94.294687 
L 145 94.294687 
L 155 94.294687 
" style="fill: none; stroke: #2ca02c; stroke-width: 1.5; stroke-linecap: square"/>
    </g>
    <g id="text_18">
     <!-- Quadratic Covariation of $X_t$ and $S_t$ -->
     <g transform="translate(163 97.794687)scale(0.1 -0.1)">
      <use xlink:href="#DejaVuSans-51" transform="translate(0 0.015625)"/>
      <use xlink:href="#DejaVuSans-75" transform="translate(78.710938 0.015625)"/>
      <use xlink:href="#DejaVuSans-61" transform="translate(142.089844 0.015625)"/>
      <use xlink:href="#DejaVuSans-64" transform="translate(203.369141 0.015625)"/>
      <use xlink:href="#DejaVuSans-72" transform="translate(266.845703 0.015625)"/>
      <use xlink:href="#DejaVuSans-61" transform="translate(307.958984 0.015625)"/>
      <use xlink:href="#DejaVuSans-74" transform="translate(369.238281 0.015625)"/>
      <use xlink:href="#DejaVuSans-69" transform="translate(408.447266 0.015625)"/>
      <use xlink:href="#DejaVuSans-63" transform="translate(436.230469 0.015625)"/>
      <use xlink:href="#DejaVuSans-20" transform="translate(491.210938 0.015625)"/>
      <use xlink:href="#DejaVuSans-43" transform="translate(522.998047 0.015625)"/>
      <use xlink:href="#DejaVuSans-6f" transform="translate(592.822266 0.015625)"/>
      <use xlink:href="#DejaVuSans-76" transform="translate(654.003906 0.015625)"/>
      <use xlink:href="#DejaVuSans-61" transform="translate(713.183594 0.015625)"/>
      <use xlink:href="#DejaVuSans-72" transform="translate(774.462891 0.015625)"/>
      <use xlink:href="#DejaVuSans-69" transform="translate(815.576172 0.015625)"/>
      <use xlink:href="#DejaVuSans-61" transform="translate(843.359375 0.015625)"/>
      <use xlink:href="#DejaVuSans-74" transform="translate(904.638672 0.015625)"/>
      <use xlink:href="#DejaVuSans-69" transform="translate(943.847656 0.015625)"/>
      <use xlink:href="#DejaVuSans-6f" transform="translate(971.630859 0.015625)"/>
      <use xlink:href="#DejaVuSans-6e" transform="translate(1032.8125 0.015625)"/>
      <use xlink:href="#DejaVuSans-20" transform="translate(1096.191406 0.015625)"/>
      <use xlink:href="#DejaVuSans-6f" transform="translate(1127.978516 0.015625)"/>
      <use xlink:href="#DejaVuSans-66" transform="translate(1189.160156 0.015625)"/>
      <use xlink:href="#DejaVuSans-20" transform="translate(1224.365234 0.015625)"/>
      <use xlink:href="#DejaVuSans-Oblique-58" transform="translate(1256.152344 0.015625)"/>
      <use xlink:href="#DejaVuSans-Oblique-74" transform="translate(1324.658203 -16.390625)scale(0.7)"/>
      <use xlink:href="#DejaVuSans-20" transform="translate(1354.838867 0.015625)"/>
      <use xlink:href="#DejaVuSans-61" transform="translate(1386.625977 0.015625)"/>
      <use xlink:href="#DejaVuSans-6e" transform="translate(1447.905273 0.015625)"/>
      <use xlink:href="#DejaVuSans-64" transform="translate(1511.28418 0.015625)"/>
      <use xlink:href="#DejaVuSans-20" transform="translate(1574.760742 0.015625)"/>
      <use xlink:href="#DejaVuSans-Oblique-53" transform="translate(1606.547852 0.015625)"/>
      <use xlink:href="#DejaVuSans-Oblique-74" transform="translate(1670.024414 -16.390625)scale(0.7)"/>
     </g>
    </g>
   </g>
  </g>
 </g>
 <defs>
  <clipPath id="pd3b6c2d3d3">
   <rect x="126" y="51.84" width="781.2" height="332.64"/>
  </clipPath>
 </defs>
</svg>
