<?xml version="1.0" encoding="utf-8" standalone="no"?>
<!DOCTYPE svg PUBLIC "-//W3C//DTD SVG 1.1//EN"
  "http://www.w3.org/Graphics/SVG/1.1/DTD/svg11.dtd">
<svg xmlns:xlink="http://www.w3.org/1999/xlink" width="1008pt" height="432pt" viewBox="0 0 1008 432" xmlns="http://www.w3.org/2000/svg" version="1.1">
 <metadata>
  <rdf:RDF xmlns:dc="http://purl.org/dc/elements/1.1/" xmlns:cc="http://creativecommons.org/ns#" xmlns:rdf="http://www.w3.org/1999/02/22-rdf-syntax-ns#">
   <cc:Work>
    <dc:type rdf:resource="http://purl.org/dc/dcmitype/StillImage"/>
    <dc:date>2023-12-22T17:10:23.757461</dc:date>
    <dc:format>image/svg+xml</dc:format>
    <dc:creator>
     <cc:Agent>
      <dc:title>Matplotlib v3.5.2, https://matplotlib.org/</dc:title>
     </cc:Agent>
    </dc:creator>
   </cc:Work>
  </rdf:RDF>
 </metadata>
 <defs>
  <style type="text/css">*{stroke-linejoin: round; stroke-linecap: butt}</style>
 </defs>
 <g id="figure_1">
  <g id="patch_1">
   <path d="M 0 432 
L 1008 432 
L 1008 0 
L 0 0 
z
" style="fill: #ffffff"/>
  </g>
  <g id="axes_1">
   <g id="patch_2">
    <path d="M 126 384.48 
L 907.2 384.48 
L 907.2 51.84 
L 126 51.84 
z
" style="fill: #ffffff"/>
   </g>
   <g id="matplotlib.axis_1">
    <g id="xtick_1">
     <g id="line2d_1">
      <defs>
       <path id="m5ec3b788b1" d="M 0 0 
L 0 3.5 
" style="stroke: #000000; stroke-width: 0.8"/>
      </defs>
      <g>
       <use xlink:href="#m5ec3b788b1" x="161.509091" y="384.48" style="stroke: #000000; stroke-width: 0.8"/>
      </g>
     </g>
     <g id="text_1">
      <!-- 0.0 -->
      <g transform="translate(153.557528 399.078438)scale(0.1 -0.1)">
       <defs>
        <path id="DejaVuSans-30" d="M 2034 4250 
Q 1547 4250 1301 3770 
Q 1056 3291 1056 2328 
Q 1056 1369 1301 889 
Q 1547 409 2034 409 
Q 2525 409 2770 889 
Q 3016 1369 3016 2328 
Q 3016 3291 2770 3770 
Q 2525 4250 2034 4250 
z
M 2034 4750 
Q 2819 4750 3233 4129 
Q 3647 3509 3647 2328 
Q 3647 1150 3233 529 
Q 2819 -91 2034 -91 
Q 1250 -91 836 529 
Q 422 1150 422 2328 
Q 422 3509 836 4129 
Q 1250 4750 2034 4750 
z
" transform="scale(0.015625)"/>
        <path id="DejaVuSans-2e" d="M 684 794 
L 1344 794 
L 1344 0 
L 684 0 
L 684 794 
z
" transform="scale(0.015625)"/>
       </defs>
       <use xlink:href="#DejaVuSans-30"/>
       <use xlink:href="#DejaVuSans-2e" x="63.623047"/>
       <use xlink:href="#DejaVuSans-30" x="95.410156"/>
      </g>
     </g>
    </g>
    <g id="xtick_2">
     <g id="line2d_2">
      <g>
       <use xlink:href="#m5ec3b788b1" x="303.545455" y="384.48" style="stroke: #000000; stroke-width: 0.8"/>
      </g>
     </g>
     <g id="text_2">
      <!-- 0.2 -->
      <g transform="translate(295.593892 399.078438)scale(0.1 -0.1)">
       <defs>
        <path id="DejaVuSans-32" d="M 1228 531 
L 3431 531 
L 3431 0 
L 469 0 
L 469 531 
Q 828 903 1448 1529 
Q 2069 2156 2228 2338 
Q 2531 2678 2651 2914 
Q 2772 3150 2772 3378 
Q 2772 3750 2511 3984 
Q 2250 4219 1831 4219 
Q 1534 4219 1204 4116 
Q 875 4013 500 3803 
L 500 4441 
Q 881 4594 1212 4672 
Q 1544 4750 1819 4750 
Q 2544 4750 2975 4387 
Q 3406 4025 3406 3419 
Q 3406 3131 3298 2873 
Q 3191 2616 2906 2266 
Q 2828 2175 2409 1742 
Q 1991 1309 1228 531 
z
" transform="scale(0.015625)"/>
       </defs>
       <use xlink:href="#DejaVuSans-30"/>
       <use xlink:href="#DejaVuSans-2e" x="63.623047"/>
       <use xlink:href="#DejaVuSans-32" x="95.410156"/>
      </g>
     </g>
    </g>
    <g id="xtick_3">
     <g id="line2d_3">
      <g>
       <use xlink:href="#m5ec3b788b1" x="445.581818" y="384.48" style="stroke: #000000; stroke-width: 0.8"/>
      </g>
     </g>
     <g id="text_3">
      <!-- 0.4 -->
      <g transform="translate(437.630256 399.078438)scale(0.1 -0.1)">
       <defs>
        <path id="DejaVuSans-34" d="M 2419 4116 
L 825 1625 
L 2419 1625 
L 2419 4116 
z
M 2253 4666 
L 3047 4666 
L 3047 1625 
L 3713 1625 
L 3713 1100 
L 3047 1100 
L 3047 0 
L 2419 0 
L 2419 1100 
L 313 1100 
L 313 1709 
L 2253 4666 
z
" transform="scale(0.015625)"/>
       </defs>
       <use xlink:href="#DejaVuSans-30"/>
       <use xlink:href="#DejaVuSans-2e" x="63.623047"/>
       <use xlink:href="#DejaVuSans-34" x="95.410156"/>
      </g>
     </g>
    </g>
    <g id="xtick_4">
     <g id="line2d_4">
      <g>
       <use xlink:href="#m5ec3b788b1" x="587.618182" y="384.48" style="stroke: #000000; stroke-width: 0.8"/>
      </g>
     </g>
     <g id="text_4">
      <!-- 0.6 -->
      <g transform="translate(579.666619 399.078438)scale(0.1 -0.1)">
       <defs>
        <path id="DejaVuSans-36" d="M 2113 2584 
Q 1688 2584 1439 2293 
Q 1191 2003 1191 1497 
Q 1191 994 1439 701 
Q 1688 409 2113 409 
Q 2538 409 2786 701 
Q 3034 994 3034 1497 
Q 3034 2003 2786 2293 
Q 2538 2584 2113 2584 
z
M 3366 4563 
L 3366 3988 
Q 3128 4100 2886 4159 
Q 2644 4219 2406 4219 
Q 1781 4219 1451 3797 
Q 1122 3375 1075 2522 
Q 1259 2794 1537 2939 
Q 1816 3084 2150 3084 
Q 2853 3084 3261 2657 
Q 3669 2231 3669 1497 
Q 3669 778 3244 343 
Q 2819 -91 2113 -91 
Q 1303 -91 875 529 
Q 447 1150 447 2328 
Q 447 3434 972 4092 
Q 1497 4750 2381 4750 
Q 2619 4750 2861 4703 
Q 3103 4656 3366 4563 
z
" transform="scale(0.015625)"/>
       </defs>
       <use xlink:href="#DejaVuSans-30"/>
       <use xlink:href="#DejaVuSans-2e" x="63.623047"/>
       <use xlink:href="#DejaVuSans-36" x="95.410156"/>
      </g>
     </g>
    </g>
    <g id="xtick_5">
     <g id="line2d_5">
      <g>
       <use xlink:href="#m5ec3b788b1" x="729.654545" y="384.48" style="stroke: #000000; stroke-width: 0.8"/>
      </g>
     </g>
     <g id="text_5">
      <!-- 0.8 -->
      <g transform="translate(721.702983 399.078438)scale(0.1 -0.1)">
       <defs>
        <path id="DejaVuSans-38" d="M 2034 2216 
Q 1584 2216 1326 1975 
Q 1069 1734 1069 1313 
Q 1069 891 1326 650 
Q 1584 409 2034 409 
Q 2484 409 2743 651 
Q 3003 894 3003 1313 
Q 3003 1734 2745 1975 
Q 2488 2216 2034 2216 
z
M 1403 2484 
Q 997 2584 770 2862 
Q 544 3141 544 3541 
Q 544 4100 942 4425 
Q 1341 4750 2034 4750 
Q 2731 4750 3128 4425 
Q 3525 4100 3525 3541 
Q 3525 3141 3298 2862 
Q 3072 2584 2669 2484 
Q 3125 2378 3379 2068 
Q 3634 1759 3634 1313 
Q 3634 634 3220 271 
Q 2806 -91 2034 -91 
Q 1263 -91 848 271 
Q 434 634 434 1313 
Q 434 1759 690 2068 
Q 947 2378 1403 2484 
z
M 1172 3481 
Q 1172 3119 1398 2916 
Q 1625 2713 2034 2713 
Q 2441 2713 2670 2916 
Q 2900 3119 2900 3481 
Q 2900 3844 2670 4047 
Q 2441 4250 2034 4250 
Q 1625 4250 1398 4047 
Q 1172 3844 1172 3481 
z
" transform="scale(0.015625)"/>
       </defs>
       <use xlink:href="#DejaVuSans-30"/>
       <use xlink:href="#DejaVuSans-2e" x="63.623047"/>
       <use xlink:href="#DejaVuSans-38" x="95.410156"/>
      </g>
     </g>
    </g>
    <g id="xtick_6">
     <g id="line2d_6">
      <g>
       <use xlink:href="#m5ec3b788b1" x="871.690909" y="384.48" style="stroke: #000000; stroke-width: 0.8"/>
      </g>
     </g>
     <g id="text_6">
      <!-- 1.0 -->
      <g transform="translate(863.739347 399.078438)scale(0.1 -0.1)">
       <defs>
        <path id="DejaVuSans-31" d="M 794 531 
L 1825 531 
L 1825 4091 
L 703 3866 
L 703 4441 
L 1819 4666 
L 2450 4666 
L 2450 531 
L 3481 531 
L 3481 0 
L 794 0 
L 794 531 
z
" transform="scale(0.015625)"/>
       </defs>
       <use xlink:href="#DejaVuSans-31"/>
       <use xlink:href="#DejaVuSans-2e" x="63.623047"/>
       <use xlink:href="#DejaVuSans-30" x="95.410156"/>
      </g>
     </g>
    </g>
    <g id="text_7">
     <!-- Time -->
     <g transform="translate(504.366406 412.756563)scale(0.1 -0.1)">
      <defs>
       <path id="DejaVuSans-54" d="M -19 4666 
L 3928 4666 
L 3928 4134 
L 2272 4134 
L 2272 0 
L 1638 0 
L 1638 4134 
L -19 4134 
L -19 4666 
z
" transform="scale(0.015625)"/>
       <path id="DejaVuSans-69" d="M 603 3500 
L 1178 3500 
L 1178 0 
L 603 0 
L 603 3500 
z
M 603 4863 
L 1178 4863 
L 1178 4134 
L 603 4134 
L 603 4863 
z
" transform="scale(0.015625)"/>
       <path id="DejaVuSans-6d" d="M 3328 2828 
Q 3544 3216 3844 3400 
Q 4144 3584 4550 3584 
Q 5097 3584 5394 3201 
Q 5691 2819 5691 2113 
L 5691 0 
L 5113 0 
L 5113 2094 
Q 5113 2597 4934 2840 
Q 4756 3084 4391 3084 
Q 3944 3084 3684 2787 
Q 3425 2491 3425 1978 
L 3425 0 
L 2847 0 
L 2847 2094 
Q 2847 2600 2669 2842 
Q 2491 3084 2119 3084 
Q 1678 3084 1418 2786 
Q 1159 2488 1159 1978 
L 1159 0 
L 581 0 
L 581 3500 
L 1159 3500 
L 1159 2956 
Q 1356 3278 1631 3431 
Q 1906 3584 2284 3584 
Q 2666 3584 2933 3390 
Q 3200 3197 3328 2828 
z
" transform="scale(0.015625)"/>
       <path id="DejaVuSans-65" d="M 3597 1894 
L 3597 1613 
L 953 1613 
Q 991 1019 1311 708 
Q 1631 397 2203 397 
Q 2534 397 2845 478 
Q 3156 559 3463 722 
L 3463 178 
Q 3153 47 2828 -22 
Q 2503 -91 2169 -91 
Q 1331 -91 842 396 
Q 353 884 353 1716 
Q 353 2575 817 3079 
Q 1281 3584 2069 3584 
Q 2775 3584 3186 3129 
Q 3597 2675 3597 1894 
z
M 3022 2063 
Q 3016 2534 2758 2815 
Q 2500 3097 2075 3097 
Q 1594 3097 1305 2825 
Q 1016 2553 972 2059 
L 3022 2063 
z
" transform="scale(0.015625)"/>
      </defs>
      <use xlink:href="#DejaVuSans-54"/>
      <use xlink:href="#DejaVuSans-69" x="57.958984"/>
      <use xlink:href="#DejaVuSans-6d" x="85.742188"/>
      <use xlink:href="#DejaVuSans-65" x="183.154297"/>
     </g>
    </g>
   </g>
   <g id="matplotlib.axis_2">
    <g id="ytick_1">
     <g id="line2d_7">
      <defs>
       <path id="mdc7a344960" d="M 0 0 
L -3.5 0 
" style="stroke: #000000; stroke-width: 0.8"/>
      </defs>
      <g>
       <use xlink:href="#mdc7a344960" x="126" y="340.536254" style="stroke: #000000; stroke-width: 0.8"/>
      </g>
     </g>
     <g id="text_8">
      <!-- −0.5 -->
      <g transform="translate(94.717187 344.335473)scale(0.1 -0.1)">
       <defs>
        <path id="DejaVuSans-2212" d="M 678 2272 
L 4684 2272 
L 4684 1741 
L 678 1741 
L 678 2272 
z
" transform="scale(0.015625)"/>
        <path id="DejaVuSans-35" d="M 691 4666 
L 3169 4666 
L 3169 4134 
L 1269 4134 
L 1269 2991 
Q 1406 3038 1543 3061 
Q 1681 3084 1819 3084 
Q 2600 3084 3056 2656 
Q 3513 2228 3513 1497 
Q 3513 744 3044 326 
Q 2575 -91 1722 -91 
Q 1428 -91 1123 -41 
Q 819 9 494 109 
L 494 744 
Q 775 591 1075 516 
Q 1375 441 1709 441 
Q 2250 441 2565 725 
Q 2881 1009 2881 1497 
Q 2881 1984 2565 2268 
Q 2250 2553 1709 2553 
Q 1456 2553 1204 2497 
Q 953 2441 691 2322 
L 691 4666 
z
" transform="scale(0.015625)"/>
       </defs>
       <use xlink:href="#DejaVuSans-2212"/>
       <use xlink:href="#DejaVuSans-30" x="83.789062"/>
       <use xlink:href="#DejaVuSans-2e" x="147.412109"/>
       <use xlink:href="#DejaVuSans-35" x="179.199219"/>
      </g>
     </g>
    </g>
    <g id="ytick_2">
     <g id="line2d_8">
      <g>
       <use xlink:href="#mdc7a344960" x="126" y="275.185083" style="stroke: #000000; stroke-width: 0.8"/>
      </g>
     </g>
     <g id="text_9">
      <!-- 0.0 -->
      <g transform="translate(103.096875 278.984302)scale(0.1 -0.1)">
       <use xlink:href="#DejaVuSans-30"/>
       <use xlink:href="#DejaVuSans-2e" x="63.623047"/>
       <use xlink:href="#DejaVuSans-30" x="95.410156"/>
      </g>
     </g>
    </g>
    <g id="ytick_3">
     <g id="line2d_9">
      <g>
       <use xlink:href="#mdc7a344960" x="126" y="209.833912" style="stroke: #000000; stroke-width: 0.8"/>
      </g>
     </g>
     <g id="text_10">
      <!-- 0.5 -->
      <g transform="translate(103.096875 213.633131)scale(0.1 -0.1)">
       <use xlink:href="#DejaVuSans-30"/>
       <use xlink:href="#DejaVuSans-2e" x="63.623047"/>
       <use xlink:href="#DejaVuSans-35" x="95.410156"/>
      </g>
     </g>
    </g>
    <g id="ytick_4">
     <g id="line2d_10">
      <g>
       <use xlink:href="#mdc7a344960" x="126" y="144.482741" style="stroke: #000000; stroke-width: 0.8"/>
      </g>
     </g>
     <g id="text_11">
      <!-- 1.0 -->
      <g transform="translate(103.096875 148.28196)scale(0.1 -0.1)">
       <use xlink:href="#DejaVuSans-31"/>
       <use xlink:href="#DejaVuSans-2e" x="63.623047"/>
       <use xlink:href="#DejaVuSans-30" x="95.410156"/>
      </g>
     </g>
    </g>
    <g id="ytick_5">
     <g id="line2d_11">
      <g>
       <use xlink:href="#mdc7a344960" x="126" y="79.131571" style="stroke: #000000; stroke-width: 0.8"/>
      </g>
     </g>
     <g id="text_12">
      <!-- 1.5 -->
      <g transform="translate(103.096875 82.930789)scale(0.1 -0.1)">
       <use xlink:href="#DejaVuSans-31"/>
       <use xlink:href="#DejaVuSans-2e" x="63.623047"/>
       <use xlink:href="#DejaVuSans-35" x="95.410156"/>
      </g>
     </g>
    </g>
    <g id="text_13">
     <!-- Quadratic Covariation -->
     <g transform="translate(88.6375 272.970156)rotate(-90)scale(0.1 -0.1)">
      <defs>
       <path id="DejaVuSans-51" d="M 2522 4238 
Q 1834 4238 1429 3725 
Q 1025 3213 1025 2328 
Q 1025 1447 1429 934 
Q 1834 422 2522 422 
Q 3209 422 3611 934 
Q 4013 1447 4013 2328 
Q 4013 3213 3611 3725 
Q 3209 4238 2522 4238 
z
M 3406 84 
L 4238 -825 
L 3475 -825 
L 2784 -78 
Q 2681 -84 2626 -87 
Q 2572 -91 2522 -91 
Q 1538 -91 948 567 
Q 359 1225 359 2328 
Q 359 3434 948 4092 
Q 1538 4750 2522 4750 
Q 3503 4750 4090 4092 
Q 4678 3434 4678 2328 
Q 4678 1516 4351 937 
Q 4025 359 3406 84 
z
" transform="scale(0.015625)"/>
       <path id="DejaVuSans-75" d="M 544 1381 
L 544 3500 
L 1119 3500 
L 1119 1403 
Q 1119 906 1312 657 
Q 1506 409 1894 409 
Q 2359 409 2629 706 
Q 2900 1003 2900 1516 
L 2900 3500 
L 3475 3500 
L 3475 0 
L 2900 0 
L 2900 538 
Q 2691 219 2414 64 
Q 2138 -91 1772 -91 
Q 1169 -91 856 284 
Q 544 659 544 1381 
z
M 1991 3584 
L 1991 3584 
z
" transform="scale(0.015625)"/>
       <path id="DejaVuSans-61" d="M 2194 1759 
Q 1497 1759 1228 1600 
Q 959 1441 959 1056 
Q 959 750 1161 570 
Q 1363 391 1709 391 
Q 2188 391 2477 730 
Q 2766 1069 2766 1631 
L 2766 1759 
L 2194 1759 
z
M 3341 1997 
L 3341 0 
L 2766 0 
L 2766 531 
Q 2569 213 2275 61 
Q 1981 -91 1556 -91 
Q 1019 -91 701 211 
Q 384 513 384 1019 
Q 384 1609 779 1909 
Q 1175 2209 1959 2209 
L 2766 2209 
L 2766 2266 
Q 2766 2663 2505 2880 
Q 2244 3097 1772 3097 
Q 1472 3097 1187 3025 
Q 903 2953 641 2809 
L 641 3341 
Q 956 3463 1253 3523 
Q 1550 3584 1831 3584 
Q 2591 3584 2966 3190 
Q 3341 2797 3341 1997 
z
" transform="scale(0.015625)"/>
       <path id="DejaVuSans-64" d="M 2906 2969 
L 2906 4863 
L 3481 4863 
L 3481 0 
L 2906 0 
L 2906 525 
Q 2725 213 2448 61 
Q 2172 -91 1784 -91 
Q 1150 -91 751 415 
Q 353 922 353 1747 
Q 353 2572 751 3078 
Q 1150 3584 1784 3584 
Q 2172 3584 2448 3432 
Q 2725 3281 2906 2969 
z
M 947 1747 
Q 947 1113 1208 752 
Q 1469 391 1925 391 
Q 2381 391 2643 752 
Q 2906 1113 2906 1747 
Q 2906 2381 2643 2742 
Q 2381 3103 1925 3103 
Q 1469 3103 1208 2742 
Q 947 2381 947 1747 
z
" transform="scale(0.015625)"/>
       <path id="DejaVuSans-72" d="M 2631 2963 
Q 2534 3019 2420 3045 
Q 2306 3072 2169 3072 
Q 1681 3072 1420 2755 
Q 1159 2438 1159 1844 
L 1159 0 
L 581 0 
L 581 3500 
L 1159 3500 
L 1159 2956 
Q 1341 3275 1631 3429 
Q 1922 3584 2338 3584 
Q 2397 3584 2469 3576 
Q 2541 3569 2628 3553 
L 2631 2963 
z
" transform="scale(0.015625)"/>
       <path id="DejaVuSans-74" d="M 1172 4494 
L 1172 3500 
L 2356 3500 
L 2356 3053 
L 1172 3053 
L 1172 1153 
Q 1172 725 1289 603 
Q 1406 481 1766 481 
L 2356 481 
L 2356 0 
L 1766 0 
Q 1100 0 847 248 
Q 594 497 594 1153 
L 594 3053 
L 172 3053 
L 172 3500 
L 594 3500 
L 594 4494 
L 1172 4494 
z
" transform="scale(0.015625)"/>
       <path id="DejaVuSans-63" d="M 3122 3366 
L 3122 2828 
Q 2878 2963 2633 3030 
Q 2388 3097 2138 3097 
Q 1578 3097 1268 2742 
Q 959 2388 959 1747 
Q 959 1106 1268 751 
Q 1578 397 2138 397 
Q 2388 397 2633 464 
Q 2878 531 3122 666 
L 3122 134 
Q 2881 22 2623 -34 
Q 2366 -91 2075 -91 
Q 1284 -91 818 406 
Q 353 903 353 1747 
Q 353 2603 823 3093 
Q 1294 3584 2113 3584 
Q 2378 3584 2631 3529 
Q 2884 3475 3122 3366 
z
" transform="scale(0.015625)"/>
       <path id="DejaVuSans-20" transform="scale(0.015625)"/>
       <path id="DejaVuSans-43" d="M 4122 4306 
L 4122 3641 
Q 3803 3938 3442 4084 
Q 3081 4231 2675 4231 
Q 1875 4231 1450 3742 
Q 1025 3253 1025 2328 
Q 1025 1406 1450 917 
Q 1875 428 2675 428 
Q 3081 428 3442 575 
Q 3803 722 4122 1019 
L 4122 359 
Q 3791 134 3420 21 
Q 3050 -91 2638 -91 
Q 1578 -91 968 557 
Q 359 1206 359 2328 
Q 359 3453 968 4101 
Q 1578 4750 2638 4750 
Q 3056 4750 3426 4639 
Q 3797 4528 4122 4306 
z
" transform="scale(0.015625)"/>
       <path id="DejaVuSans-6f" d="M 1959 3097 
Q 1497 3097 1228 2736 
Q 959 2375 959 1747 
Q 959 1119 1226 758 
Q 1494 397 1959 397 
Q 2419 397 2687 759 
Q 2956 1122 2956 1747 
Q 2956 2369 2687 2733 
Q 2419 3097 1959 3097 
z
M 1959 3584 
Q 2709 3584 3137 3096 
Q 3566 2609 3566 1747 
Q 3566 888 3137 398 
Q 2709 -91 1959 -91 
Q 1206 -91 779 398 
Q 353 888 353 1747 
Q 353 2609 779 3096 
Q 1206 3584 1959 3584 
z
" transform="scale(0.015625)"/>
       <path id="DejaVuSans-76" d="M 191 3500 
L 800 3500 
L 1894 563 
L 2988 3500 
L 3597 3500 
L 2284 0 
L 1503 0 
L 191 3500 
z
" transform="scale(0.015625)"/>
       <path id="DejaVuSans-6e" d="M 3513 2113 
L 3513 0 
L 2938 0 
L 2938 2094 
Q 2938 2591 2744 2837 
Q 2550 3084 2163 3084 
Q 1697 3084 1428 2787 
Q 1159 2491 1159 1978 
L 1159 0 
L 581 0 
L 581 3500 
L 1159 3500 
L 1159 2956 
Q 1366 3272 1645 3428 
Q 1925 3584 2291 3584 
Q 2894 3584 3203 3211 
Q 3513 2838 3513 2113 
z
" transform="scale(0.015625)"/>
      </defs>
      <use xlink:href="#DejaVuSans-51"/>
      <use xlink:href="#DejaVuSans-75" x="78.710938"/>
      <use xlink:href="#DejaVuSans-61" x="142.089844"/>
      <use xlink:href="#DejaVuSans-64" x="203.369141"/>
      <use xlink:href="#DejaVuSans-72" x="266.845703"/>
      <use xlink:href="#DejaVuSans-61" x="307.958984"/>
      <use xlink:href="#DejaVuSans-74" x="369.238281"/>
      <use xlink:href="#DejaVuSans-69" x="408.447266"/>
      <use xlink:href="#DejaVuSans-63" x="436.230469"/>
      <use xlink:href="#DejaVuSans-20" x="491.210938"/>
      <use xlink:href="#DejaVuSans-43" x="522.998047"/>
      <use xlink:href="#DejaVuSans-6f" x="592.822266"/>
      <use xlink:href="#DejaVuSans-76" x="654.003906"/>
      <use xlink:href="#DejaVuSans-61" x="713.183594"/>
      <use xlink:href="#DejaVuSans-72" x="774.462891"/>
      <use xlink:href="#DejaVuSans-69" x="815.576172"/>
      <use xlink:href="#DejaVuSans-61" x="843.359375"/>
      <use xlink:href="#DejaVuSans-74" x="904.638672"/>
      <use xlink:href="#DejaVuSans-69" x="943.847656"/>
      <use xlink:href="#DejaVuSans-6f" x="971.630859"/>
      <use xlink:href="#DejaVuSans-6e" x="1032.8125"/>
     </g>
    </g>
   </g>
   <g id="line2d_12">
    <path d="M 161.509091 144.482741 
L 162.219273 138.6845 
L 163.639636 141.247959 
L 164.349818 141.394451 
L 165.770182 151.984771 
L 166.480364 163.513751 
L 167.190545 162.176502 
L 167.900727 172.840236 
L 168.610909 176.987613 
L 169.321091 181.932966 
L 170.031273 183.283598 
L 170.741455 181.929401 
L 171.451636 178.605668 
L 172.161818 182.339688 
L 172.872 184.467896 
L 173.582182 182.745709 
L 174.292364 176.756153 
L 175.002545 175.572536 
L 175.712727 176.222146 
L 176.422909 171.069751 
L 177.133091 168.261147 
L 177.843273 168.213037 
L 178.553455 167.791935 
L 179.263636 171.80958 
L 179.973818 173.555523 
L 180.684 176.142084 
L 181.394182 173.716903 
L 182.104364 173.531489 
L 182.814545 170.740354 
L 183.524727 170.441151 
L 184.234909 163.663881 
L 184.945091 168.852468 
L 185.655273 168.220104 
L 186.365455 176.709932 
L 187.075636 179.656249 
L 187.785818 176.517986 
L 188.496 178.624477 
L 189.206182 183.932778 
L 189.916364 184.599255 
L 190.626545 182.955651 
L 191.336727 184.862242 
L 192.046909 189.578441 
L 192.757091 188.197394 
L 193.467273 189.877721 
L 194.177455 194.147904 
L 194.887636 195.946988 
L 195.597818 187.060656 
L 196.308 186.303165 
L 197.018182 184.198619 
L 197.728364 182.463747 
L 198.438545 184.509297 
L 199.148727 182.144253 
L 199.858909 175.8583 
L 200.569091 178.343284 
L 201.279273 177.462031 
L 201.989455 174.310757 
L 202.699636 173.317247 
L 203.409818 178.918539 
L 204.12 175.445197 
L 204.830182 171.034432 
L 206.250545 169.414918 
L 206.960727 161.088694 
L 207.670909 159.403696 
L 208.381091 156.493521 
L 209.091273 152.575138 
L 209.801455 161.566984 
L 210.511636 168.339196 
L 211.221818 169.238542 
L 211.932 170.583933 
L 212.642182 167.779281 
L 213.352364 168.801392 
L 214.062545 167.612496 
L 214.772727 169.732114 
L 215.482909 173.951479 
L 216.193091 175.077268 
L 216.903273 166.40712 
L 217.613455 165.531698 
L 218.323636 169.235616 
L 219.033818 167.809848 
L 219.744 170.909156 
L 220.454182 172.086891 
L 221.164364 170.151217 
L 221.874545 180.155146 
L 222.584727 185.402729 
L 223.294909 187.994373 
L 224.005091 186.153298 
L 224.715273 181.718197 
L 225.425455 178.831651 
L 226.135636 177.383068 
L 226.845818 178.670596 
L 228.266182 182.587068 
L 228.976364 189.117489 
L 229.686545 182.323985 
L 230.396727 177.128629 
L 231.106909 181.39432 
L 231.817091 193.769191 
L 232.527273 194.481781 
L 233.237455 189.179109 
L 233.947636 190.024703 
L 234.657818 191.625587 
L 235.368 192.361553 
L 236.078182 186.080401 
L 236.788364 181.790465 
L 237.498545 185.798539 
L 238.208727 183.37892 
L 238.918909 171.917611 
L 239.629091 180.082768 
L 240.339273 174.442741 
L 241.049455 171.811606 
L 242.469818 154.729769 
L 243.18 151.734365 
L 243.890182 153.023588 
L 244.600364 165.936002 
L 245.310545 163.243568 
L 246.020727 162.776258 
L 246.730909 164.484151 
L 247.441091 159.176935 
L 248.151273 155.421312 
L 248.861455 160.752018 
L 249.571636 157.3911 
L 250.281818 156.621926 
L 250.992 149.272208 
L 251.702182 152.826248 
L 252.412364 148.661533 
L 253.122545 141.284542 
L 253.832727 147.146927 
L 255.253091 138.884906 
L 255.963273 139.308299 
L 256.673455 132.035039 
L 257.383636 127.756053 
L 258.804 132.445905 
L 259.514182 136.704352 
L 260.224364 129.393776 
L 261.644727 125.034161 
L 262.354909 128.610524 
L 263.065091 124.475155 
L 263.775273 132.012236 
L 264.485455 135.688078 
L 265.195636 135.472396 
L 265.905818 140.702193 
L 266.616 150.041733 
L 267.326182 154.445741 
L 268.036364 160.16462 
L 268.746545 159.518567 
L 269.456727 157.946921 
L 270.166909 159.536383 
L 270.877091 159.859523 
L 271.587273 156.635768 
L 272.297455 160.878989 
L 273.007636 158.499288 
L 273.717818 162.52716 
L 274.428 162.542813 
L 275.138182 166.791565 
L 275.848364 164.952049 
L 276.558545 170.034266 
L 277.268727 171.498909 
L 277.978909 177.272704 
L 278.689091 169.48554 
L 279.399273 174.823159 
L 280.109455 170.25893 
L 280.819636 173.701651 
L 281.529818 171.183694 
L 282.24 163.426222 
L 282.950182 158.449583 
L 283.660364 157.26803 
L 284.370545 157.841465 
L 285.080727 157.745049 
L 285.790909 154.45786 
L 286.501091 152.677922 
L 287.211273 152.277596 
L 287.921455 151.376744 
L 288.631636 147.090729 
L 289.341818 144.790756 
L 290.052 147.327981 
L 290.762182 149.005872 
L 291.472364 145.199503 
L 292.892727 152.344319 
L 293.602909 154.963822 
L 294.313091 152.986574 
L 295.023273 149.206596 
L 295.733455 144.536379 
L 296.443636 146.275485 
L 297.864 150.654607 
L 298.574182 148.499165 
L 299.284364 149.885779 
L 299.994545 146.960138 
L 300.704727 147.04805 
L 301.414909 143.273522 
L 302.125091 140.750257 
L 302.835273 136.476555 
L 303.545455 146.915303 
L 304.255636 150.022033 
L 304.965818 149.082899 
L 305.676 161.810334 
L 307.096364 167.364663 
L 308.516727 186.382954 
L 309.226909 192.108961 
L 309.937091 196.811547 
L 310.647273 196.96398 
L 311.357455 204.013467 
L 312.067636 198.941824 
L 312.777818 200.44375 
L 313.488 202.936789 
L 314.198182 203.902817 
L 314.908364 203.892638 
L 315.618545 197.352023 
L 316.328727 202.544779 
L 317.038909 205.991938 
L 317.749091 200.442471 
L 318.459273 196.315432 
L 319.169455 196.415113 
L 319.879636 196.84625 
L 320.589818 203.165284 
L 321.3 204.236943 
L 322.010182 204.334892 
L 322.720364 203.637153 
L 323.430545 201.617871 
L 324.140727 206.014184 
L 324.850909 206.704407 
L 325.561091 209.882534 
L 326.271273 205.713205 
L 326.981455 207.762665 
L 328.401818 212.740659 
L 329.112 212.50714 
L 329.822182 218.363567 
L 330.532364 226.390195 
L 331.242545 220.432265 
L 331.952727 221.536144 
L 332.662909 216.017775 
L 333.373091 216.247206 
L 334.083273 216.137929 
L 334.793455 222.909633 
L 335.503636 219.218294 
L 336.213818 218.031063 
L 336.924 220.714606 
L 337.634182 218.79888 
L 338.344364 218.472854 
L 339.054545 220.263866 
L 339.764727 217.433871 
L 340.474909 218.681041 
L 341.185091 224.746084 
L 341.895273 222.240024 
L 342.605455 225.457945 
L 343.315636 224.940221 
L 344.025818 222.963466 
L 344.736 223.560151 
L 345.446182 222.291962 
L 346.156364 231.468595 
L 346.866545 231.210485 
L 348.286909 227.416893 
L 348.997091 224.288869 
L 350.417455 215.175627 
L 351.127636 221.510874 
L 351.837818 223.009102 
L 352.548 223.907722 
L 353.258182 222.174734 
L 353.968364 224.846573 
L 355.388727 229.090816 
L 356.098909 222.817165 
L 356.809091 224.961544 
L 357.519273 228.549904 
L 358.229455 229.535373 
L 358.939636 229.090458 
L 359.649818 230.823375 
L 360.36 223.707914 
L 361.070182 225.379305 
L 361.780364 231.433107 
L 362.490545 228.618417 
L 363.200727 228.872477 
L 363.910909 231.252272 
L 364.621091 232.152626 
L 365.331273 221.946307 
L 366.041455 220.902588 
L 366.751636 223.475088 
L 367.461818 218.762284 
L 368.172 219.436857 
L 368.882182 219.358825 
L 369.592364 223.356568 
L 370.302545 222.245809 
L 371.012727 220.232979 
L 371.722909 227.168516 
L 372.433091 231.666009 
L 373.143273 223.615067 
L 373.853455 226.745169 
L 374.563636 231.45715 
L 375.273818 231.298604 
L 376.694182 235.911104 
L 377.404364 240.139078 
L 378.114545 247.402506 
L 378.824727 251.100421 
L 379.534909 250.386804 
L 380.245091 247.124923 
L 380.955273 245.968778 
L 381.665455 244.094553 
L 382.375636 246.414142 
L 383.085818 240.70153 
L 383.796 248.527053 
L 384.506182 246.960696 
L 385.216364 248.269018 
L 385.926545 248.076831 
L 386.636727 253.043577 
L 387.346909 256.082437 
L 388.057091 258.014344 
L 388.767273 256.74099 
L 389.477455 263.228833 
L 390.187636 266.164547 
L 390.897818 266.416118 
L 391.608 269.072275 
L 392.318182 267.916327 
L 393.028364 270.369849 
L 393.738545 269.015935 
L 394.448727 271.305671 
L 395.158909 271.805419 
L 395.869091 269.782437 
L 396.579273 265.299485 
L 397.289455 266.320334 
L 397.999636 265.333306 
L 398.709818 264.950197 
L 399.42 264.368572 
L 400.130182 265.427396 
L 400.840364 266.725059 
L 401.550545 268.899968 
L 402.260727 267.727209 
L 402.970909 266.287708 
L 403.681091 266.187208 
L 404.391273 267.855287 
L 405.101455 265.949796 
L 405.811636 268.26067 
L 406.521818 267.432661 
L 407.232 272.406974 
L 407.942182 280.503525 
L 408.652364 284.5846 
L 409.362545 281.737322 
L 410.072727 281.788402 
L 410.782909 275.720569 
L 411.493091 267.142725 
L 412.203273 266.943608 
L 412.913455 264.99845 
L 413.623636 267.506208 
L 414.333818 269.031882 
L 415.044 263.721126 
L 415.754182 257.124296 
L 416.464364 257.536084 
L 417.174545 262.989915 
L 417.884727 261.373964 
L 418.594909 267.614803 
L 419.305091 262.857568 
L 420.015273 263.94295 
L 420.725455 267.739768 
L 421.435636 265.894449 
L 422.145818 269.923672 
L 422.856 272.328923 
L 423.566182 271.785091 
L 424.276364 268.048885 
L 424.986545 263.395507 
L 425.696727 266.622541 
L 426.406909 262.986976 
L 427.827273 268.092852 
L 428.537455 274.523678 
L 429.247636 269.719646 
L 429.957818 272.0778 
L 430.668 273.361804 
L 431.378182 276.02501 
L 432.088364 273.657066 
L 432.798545 274.419515 
L 433.508727 269.098775 
L 434.218909 274.573135 
L 434.929091 278.974186 
L 435.639273 286.567694 
L 436.349455 291.503581 
L 437.059636 288.13037 
L 437.769818 287.002763 
L 438.48 286.348262 
L 439.190182 280.493705 
L 439.900364 271.003488 
L 440.610545 268.412285 
L 441.320727 266.614965 
L 442.030909 265.368117 
L 442.741091 274.738513 
L 443.451273 274.335792 
L 444.161455 278.267904 
L 444.871636 275.17978 
L 445.581818 276.790902 
L 446.292 276.868829 
L 447.002182 269.06702 
L 447.712364 267.826166 
L 448.422545 260.946792 
L 449.132727 262.539664 
L 449.842909 264.971018 
L 451.263273 255.893916 
L 451.973455 254.5808 
L 452.683636 255.391471 
L 453.393818 255.735982 
L 454.814182 262.424337 
L 456.234545 258.245482 
L 456.944727 252.30783 
L 457.654909 254.567196 
L 458.365091 252.305372 
L 459.075273 248.832533 
L 459.785455 250.315307 
L 461.205818 242.502152 
L 461.916 246.563522 
L 462.626182 242.401173 
L 463.336364 239.368499 
L 464.046545 238.290815 
L 464.756727 240.016965 
L 466.177091 238.663556 
L 466.887273 242.038883 
L 467.597455 242.375959 
L 468.307636 244.218522 
L 469.017818 237.080161 
L 469.728 236.433508 
L 470.438182 235.416202 
L 471.148364 236.511507 
L 471.858545 240.97118 
L 472.568727 236.969398 
L 473.278909 234.458242 
L 473.989091 244.241301 
L 474.699273 246.309395 
L 475.409455 248.926479 
L 476.119636 243.481714 
L 476.829818 249.506884 
L 477.54 241.923092 
L 478.250182 245.119195 
L 479.670545 241.846214 
L 480.380727 235.512977 
L 481.090909 239.391944 
L 481.801091 241.777719 
L 482.511273 245.141903 
L 483.221455 244.343652 
L 483.931636 234.489048 
L 484.641818 232.94181 
L 485.352 234.440564 
L 486.062182 233.911008 
L 486.772364 231.232212 
L 487.482545 233.05242 
L 488.192727 232.65622 
L 488.902909 227.125809 
L 489.613091 229.259384 
L 490.323273 227.60116 
L 491.033455 224.167137 
L 491.743636 219.873661 
L 492.453818 216.565334 
L 493.164 216.551198 
L 493.874182 218.524913 
L 494.584364 223.041898 
L 495.294545 220.867735 
L 496.004727 221.820758 
L 496.714909 223.411545 
L 497.425091 221.419584 
L 498.135273 229.098629 
L 498.845455 238.984324 
L 499.555636 237.002351 
L 500.265818 227.765429 
L 500.976 225.036284 
L 501.686182 224.616013 
L 503.106545 208.825592 
L 503.816727 210.19144 
L 504.526909 205.416161 
L 505.237091 205.226324 
L 505.947273 205.877967 
L 506.657455 213.915199 
L 507.367636 206.533663 
L 508.077818 205.794213 
L 508.788 209.207797 
L 509.498182 209.936161 
L 510.208364 209.508189 
L 510.918545 210.632044 
L 511.628727 204.248517 
L 513.049091 197.279002 
L 513.759273 191.661586 
L 514.469455 197.450136 
L 515.179636 204.563512 
L 515.889818 207.402097 
L 516.6 201.547423 
L 517.310182 194.676635 
L 518.020364 195.622068 
L 518.730545 197.527156 
L 519.440727 204.252787 
L 520.861091 202.632115 
L 521.571273 209.845767 
L 522.281455 210.06131 
L 522.991636 210.114047 
L 523.701818 209.387957 
L 525.122182 191.283505 
L 525.832364 189.757232 
L 526.542545 185.728936 
L 527.252727 187.470503 
L 527.962909 188.337248 
L 528.673091 190.852601 
L 529.383273 189.093144 
L 530.093455 190.319678 
L 531.513818 187.64828 
L 532.224 180.671393 
L 532.934182 177.779947 
L 533.644364 176.715751 
L 534.354545 180.081931 
L 535.064727 175.710907 
L 535.774909 179.888235 
L 536.485091 182.363826 
L 537.195273 180.152104 
L 537.905455 175.917542 
L 538.615636 182.895466 
L 539.325818 183.331767 
L 540.746182 186.753706 
L 541.456364 185.176868 
L 542.166545 178.536433 
L 542.876727 180.132073 
L 543.586909 180.465987 
L 544.297091 180.04053 
L 545.007273 182.125332 
L 545.717455 187.105246 
L 546.427636 187.953201 
L 547.137818 185.338716 
L 547.848 181.189149 
L 548.558182 180.526055 
L 549.268364 173.589014 
L 549.978545 171.499002 
L 550.688727 170.631983 
L 551.398909 170.142825 
L 552.109091 171.918255 
L 552.819273 168.421932 
L 553.529455 169.548927 
L 554.239636 163.907639 
L 554.949818 162.50923 
L 555.66 163.78736 
L 556.370182 161.491304 
L 557.080364 166.259092 
L 558.500727 155.716281 
L 559.210909 158.324961 
L 559.921091 158.223134 
L 560.631273 160.532231 
L 561.341455 159.179375 
L 562.051636 153.492692 
L 562.761818 152.546004 
L 563.472 153.6385 
L 564.182182 159.815064 
L 564.892364 156.157811 
L 565.602545 157.731917 
L 566.312727 151.069264 
L 567.022909 148.438835 
L 568.443273 156.491817 
L 569.153455 150.63226 
L 569.863636 156.358433 
L 570.573818 154.36233 
L 571.284 153.800845 
L 571.994182 160.791913 
L 572.704364 164.579215 
L 573.414545 159.312584 
L 574.124727 163.775511 
L 574.834909 164.094489 
L 575.545091 159.207237 
L 576.965455 169.881919 
L 577.675636 171.714581 
L 578.385818 172.198237 
L 579.096 174.492841 
L 579.806182 177.193575 
L 580.516364 173.035474 
L 581.226545 176.602429 
L 581.936727 177.888568 
L 582.646909 171.698182 
L 583.357091 175.524548 
L 584.067273 170.670511 
L 584.777455 172.173013 
L 585.487636 179.706717 
L 586.197818 176.128024 
L 586.908 180.079508 
L 587.618182 173.73149 
L 588.328364 175.618623 
L 589.038545 175.334137 
L 590.458909 186.048299 
L 591.169091 181.565153 
L 591.879273 178.751708 
L 592.589455 177.170937 
L 593.299636 177.595297 
L 594.009818 173.39537 
L 594.72 172.781151 
L 595.430182 167.55274 
L 596.140364 172.51602 
L 596.850545 181.703042 
L 597.560727 177.901679 
L 598.270909 176.699297 
L 598.981091 178.692727 
L 599.691273 185.035546 
L 600.401455 187.733173 
L 601.821818 180.080609 
L 602.532 187.996874 
L 603.242182 183.177401 
L 603.952364 176.083193 
L 604.662545 174.296919 
L 605.372727 175.76307 
L 606.082909 178.062701 
L 606.793091 180.92527 
L 607.503273 187.166371 
L 608.213455 184.466237 
L 608.923636 182.54747 
L 609.633818 188.091721 
L 610.344 186.783604 
L 611.054182 188.64346 
L 611.764364 189.068235 
L 612.474545 184.715581 
L 613.184727 187.048302 
L 613.894909 185.8727 
L 614.605091 177.668357 
L 615.315273 177.493824 
L 616.025455 165.690886 
L 616.735636 166.763071 
L 617.445818 171.910641 
L 618.156 175.969578 
L 618.866182 174.060045 
L 619.576364 167.696963 
L 620.286545 169.929439 
L 620.996727 166.439735 
L 621.706909 174.849099 
L 622.417091 174.197989 
L 623.127273 184.053022 
L 623.837455 177.723823 
L 624.547636 176.851768 
L 625.257818 181.632698 
L 625.968 178.800734 
L 626.678182 181.162018 
L 627.388364 182.116655 
L 628.098545 171.154369 
L 629.518909 164.256113 
L 630.229091 171.334668 
L 630.939273 170.367316 
L 631.649455 168.841577 
L 632.359636 162.440912 
L 633.069818 161.277007 
L 633.78 164.417995 
L 634.490182 158.911395 
L 635.200364 162.335724 
L 635.910545 153.565652 
L 636.620727 154.11814 
L 637.330909 160.532418 
L 638.041091 158.75369 
L 638.751273 158.35237 
L 639.461455 159.217212 
L 640.171636 156.043246 
L 640.881818 160.082294 
L 641.592 161.263213 
L 642.302182 160.073817 
L 643.012364 164.833793 
L 643.722545 162.93481 
L 644.432727 158.485276 
L 645.142909 159.523211 
L 645.853091 159.097816 
L 646.563273 155.094712 
L 647.273455 162.249145 
L 647.983636 150.364787 
L 648.693818 144.761869 
L 649.404 145.763315 
L 650.114182 140.877014 
L 650.824364 133.886246 
L 651.534545 131.069329 
L 652.244727 130.510317 
L 652.954909 135.692111 
L 653.665091 137.933194 
L 654.375273 136.627123 
L 655.085455 142.110167 
L 655.795636 140.384115 
L 656.505818 144.50006 
L 657.216 139.227665 
L 657.926182 134.994237 
L 658.636364 137.321778 
L 659.346545 141.132195 
L 660.056727 137.564367 
L 660.766909 137.015846 
L 662.187273 143.767781 
L 662.897455 143.488093 
L 663.607636 139.451026 
L 664.317818 142.449728 
L 665.028 150.679195 
L 665.738182 157.237621 
L 666.448364 153.731273 
L 667.158545 152.315536 
L 667.868727 160.21739 
L 668.578909 161.327648 
L 669.289091 163.422113 
L 669.999273 163.731402 
L 670.709455 164.777837 
L 671.419636 165.296626 
L 672.129818 165.627185 
L 672.84 162.989877 
L 673.550182 163.957437 
L 674.260364 162.535691 
L 674.970545 162.032123 
L 675.680727 164.181264 
L 676.390909 164.502407 
L 677.101091 164.265839 
L 677.811273 166.833781 
L 678.521455 171.933948 
L 679.231636 176.125452 
L 679.941818 172.276594 
L 681.362182 167.95014 
L 682.072364 163.706419 
L 682.782545 165.949576 
L 683.492727 167.417046 
L 684.202909 162.769109 
L 684.913091 159.237972 
L 685.623273 161.877224 
L 686.333455 150.888475 
L 687.043636 146.258757 
L 687.753818 140.121724 
L 688.464 143.974302 
L 689.884364 126.162801 
L 690.594545 125.258985 
L 691.304727 121.083271 
L 692.014909 125.930598 
L 692.725091 127.006327 
L 693.435273 133.410491 
L 694.145455 134.98665 
L 694.855636 132.786429 
L 695.565818 128.929273 
L 696.276 134.748387 
L 697.696364 152.353037 
L 698.406545 158.621112 
L 699.116727 157.71595 
L 699.826909 155.030577 
L 700.537091 156.541946 
L 701.957455 160.309276 
L 702.667636 167.789348 
L 703.377818 163.586677 
L 704.088 161.403796 
L 704.798182 159.870233 
L 705.508364 160.57127 
L 706.218545 158.993569 
L 706.928727 157.125784 
L 707.638909 156.55038 
L 709.059273 163.207108 
L 709.769455 157.936753 
L 710.479636 156.968644 
L 711.189818 159.451363 
L 711.9 154.762657 
L 712.610182 160.433798 
L 713.320364 158.781734 
L 714.030545 166.768373 
L 714.740727 160.088797 
L 715.450909 156.473006 
L 717.581455 164.732728 
L 718.291636 174.521191 
L 719.001818 167.284005 
L 719.712 161.575523 
L 720.422182 161.464395 
L 721.132364 166.203571 
L 721.842545 169.000168 
L 722.552727 164.163349 
L 723.262909 160.953459 
L 723.973091 153.368553 
L 724.683273 153.882744 
L 725.393455 156.83335 
L 726.103636 153.491188 
L 726.813818 156.280064 
L 727.524 161.376924 
L 728.234182 155.489948 
L 728.944364 153.129746 
L 729.654545 153.816361 
L 730.364727 158.022049 
L 731.074909 149.372749 
L 731.785091 143.657825 
L 732.495273 140.895075 
L 733.205455 137.554645 
L 733.915636 131.91879 
L 734.625818 136.022964 
L 735.336 134.267532 
L 736.046182 138.814298 
L 736.756364 139.111792 
L 737.466545 136.904611 
L 738.176727 139.315247 
L 738.886909 136.219701 
L 739.597091 145.456503 
L 740.307273 144.405904 
L 741.017455 139.468852 
L 742.437818 150.935951 
L 743.148 149.193247 
L 743.858182 141.239682 
L 744.568364 143.421557 
L 745.278545 146.472888 
L 745.988727 140.523046 
L 746.698909 148.787237 
L 747.409091 144.535126 
L 749.539636 146.703855 
L 750.249818 143.169481 
L 750.96 144.326492 
L 751.670182 149.35381 
L 752.380364 144.393667 
L 753.090545 148.3002 
L 753.800727 147.659484 
L 754.510909 149.509599 
L 755.221091 152.334323 
L 755.931273 152.013977 
L 756.641455 142.882639 
L 757.351636 145.543201 
L 758.061818 145.4633 
L 758.772 149.654531 
L 759.482182 151.568657 
L 760.192364 158.519585 
L 760.902545 152.285228 
L 761.612727 153.342848 
L 762.322909 151.144894 
L 763.033091 148.161068 
L 763.743273 153.397167 
L 764.453455 159.557361 
L 765.873818 168.486867 
L 766.584 167.653951 
L 767.294182 170.667713 
L 768.004364 169.095899 
L 768.714545 168.175968 
L 769.424727 168.632827 
L 770.134909 174.261341 
L 770.845091 171.653733 
L 771.555273 168.298861 
L 772.265455 168.221934 
L 773.685818 162.500458 
L 774.396 169.561805 
L 775.106182 173.893659 
L 775.816364 175.820471 
L 776.526545 178.788033 
L 777.236727 175.483349 
L 777.946909 173.517711 
L 778.657091 170.943857 
L 779.367273 169.160566 
L 780.077455 166.721678 
L 780.787636 169.354384 
L 781.497818 165.679603 
L 782.918182 166.018835 
L 783.628364 160.121176 
L 784.338545 155.21834 
L 785.048727 151.145941 
L 785.758909 147.85136 
L 786.469091 147.010116 
L 787.179273 152.849298 
L 787.889455 153.871187 
L 788.599636 154.689277 
L 789.309818 149.8594 
L 790.02 148.643282 
L 791.440364 139.042545 
L 792.150545 144.476885 
L 792.860727 142.29995 
L 793.570909 141.769934 
L 794.281091 136.865372 
L 794.991273 139.083066 
L 795.701455 135.015362 
L 796.411636 126.802075 
L 797.121818 127.002973 
L 797.832 129.538858 
L 798.542182 130.163118 
L 799.252364 125.699426 
L 799.962545 130.203594 
L 800.672727 127.083133 
L 801.382909 130.462105 
L 802.093091 132.911673 
L 802.803273 136.157213 
L 803.513455 143.994528 
L 804.223636 145.111891 
L 804.933818 140.133997 
L 806.354182 134.073942 
L 807.064364 127.175514 
L 807.774545 122.666805 
L 808.484727 121.044338 
L 809.194909 117.799368 
L 809.905091 113.43469 
L 810.615273 111.349562 
L 811.325455 104.025221 
L 812.035636 98.412187 
L 812.745818 97.013375 
L 813.456 100.768856 
L 814.166182 101.920016 
L 814.876364 98.184243 
L 815.586545 96.000539 
L 816.296727 100.064878 
L 817.006909 97.79199 
L 817.717091 94.372026 
L 818.427273 94.040858 
L 819.847636 88.07487 
L 820.557818 92.984301 
L 821.268 95.724317 
L 821.978182 95.207404 
L 822.688364 92.935317 
L 823.398545 91.500203 
L 824.108727 98.506778 
L 824.818909 100.533072 
L 825.529091 96.962237 
L 826.239273 95.636173 
L 826.949455 94.610473 
L 827.659636 91.505066 
L 828.369818 94.945221 
L 829.08 88.964668 
L 829.790182 88.021107 
L 830.500364 81.738892 
L 831.210545 76.756789 
L 831.920727 73.585876 
L 832.630909 71.377016 
L 833.341091 75.473768 
L 834.051273 83.108094 
L 835.471636 81.111864 
L 836.181818 81.561083 
L 836.892 88.954745 
L 837.602182 91.77486 
L 838.312364 92.06736 
L 839.022545 92.831881 
L 839.732727 93.389493 
L 840.442909 95.006714 
L 841.153091 100.793238 
L 841.863273 100.498083 
L 842.573455 100.836367 
L 843.283636 101.387564 
L 843.993818 107.014389 
L 844.704 105.736891 
L 845.414182 105.334091 
L 846.124364 114.468361 
L 846.834545 110.183521 
L 847.544727 110.756604 
L 848.254909 114.346309 
L 848.965091 112.490882 
L 849.675273 106.905837 
L 850.385455 111.372214 
L 851.095636 112.755164 
L 851.805818 115.144744 
L 852.516 116.207152 
L 853.226182 111.628856 
L 853.936364 112.613766 
L 854.646545 120.789444 
L 855.356727 117.06195 
L 856.066909 120.94763 
L 856.777091 116.682394 
L 857.487273 121.266261 
L 858.197455 123.390153 
L 858.907636 126.550396 
L 859.617818 131.38978 
L 860.328 134.477366 
L 861.038182 132.911462 
L 861.748364 130.134764 
L 862.458545 131.097753 
L 863.168727 138.216977 
L 863.878909 138.40371 
L 864.589091 137.991914 
L 866.009455 143.127975 
L 866.719636 138.536909 
L 867.429818 144.15781 
L 868.14 141.333434 
L 868.850182 141.23828 
L 869.560364 143.709352 
L 870.270545 138.444115 
L 870.980727 141.149752 
L 871.690909 133.938055 
L 871.690909 133.938055 
" clip-path="url(#p53026fd7e1)" style="fill: none; stroke: #1f77b4; stroke-width: 1.5; stroke-linecap: square"/>
   </g>
   <g id="line2d_13">
    <path d="M 161.509091 144.482741 
L 162.219273 137.140445 
L 162.929455 144.109977 
L 163.639636 145.814449 
L 164.349818 145.066294 
L 165.06 149.131314 
L 165.770182 152.385504 
L 166.480364 162.593061 
L 167.190545 153.606489 
L 167.900727 160.343069 
L 168.610909 163.130918 
L 170.031273 181.875143 
L 170.741455 185.290594 
L 171.451636 183.089742 
L 172.161818 186.201631 
L 172.872 191.870997 
L 173.582182 194.32433 
L 174.292364 189.348659 
L 175.002545 190.232155 
L 175.712727 194.400436 
L 176.422909 189.191416 
L 177.133091 189.858079 
L 177.843273 186.729576 
L 178.553455 177.818713 
L 179.263636 187.398885 
L 179.973818 183.309284 
L 180.684 188.7084 
L 181.394182 181.031922 
L 182.104364 181.960517 
L 182.814545 182.637605 
L 183.524727 179.353827 
L 184.234909 179.190322 
L 184.945091 187.34488 
L 185.655273 189.404142 
L 186.365455 195.073105 
L 187.075636 203.064621 
L 187.785818 198.682267 
L 188.496 199.325085 
L 189.206182 209.186173 
L 189.916364 203.406655 
L 190.626545 199.097988 
L 191.336727 196.770493 
L 192.046909 200.08234 
L 192.757091 195.240301 
L 193.467273 198.848236 
L 194.177455 200.80454 
L 194.887636 207.704257 
L 195.597818 200.573271 
L 196.308 195.054317 
L 197.018182 191.018999 
L 197.728364 188.5862 
L 198.438545 193.831468 
L 199.148727 193.362403 
L 199.858909 178.123739 
L 200.569091 178.440838 
L 201.279273 179.688981 
L 201.989455 178.904589 
L 202.699636 177.699859 
L 203.409818 183.911986 
L 204.12 178.764576 
L 204.830182 178.571663 
L 205.540364 176.530668 
L 206.250545 176.961539 
L 206.960727 169.976445 
L 208.381091 161.5048 
L 209.091273 158.439351 
L 209.801455 163.931681 
L 210.511636 174.488307 
L 211.221818 173.437147 
L 212.642182 168.728686 
L 213.352364 163.861362 
L 214.062545 162.683677 
L 214.772727 166.20062 
L 215.482909 167.170126 
L 216.193091 166.752995 
L 216.903273 161.206684 
L 217.613455 160.577696 
L 218.323636 170.257888 
L 219.033818 170.394191 
L 219.744 172.376111 
L 220.454182 179.46396 
L 221.164364 184.97264 
L 221.874545 198.514275 
L 222.584727 199.074658 
L 223.294909 206.611486 
L 224.005091 205.451799 
L 224.715273 204.600856 
L 225.425455 201.492163 
L 226.135636 199.257254 
L 226.845818 212.378833 
L 227.556 217.801134 
L 228.976364 234.747351 
L 229.686545 234.014123 
L 230.396727 232.779368 
L 231.817091 258.823658 
L 232.527273 253.629934 
L 233.237455 251.604423 
L 233.947636 252.256704 
L 234.657818 254.322012 
L 235.368 253.408973 
L 236.078182 253.910111 
L 236.788364 253.439856 
L 237.498545 254.243787 
L 238.208727 247.175392 
L 238.918909 234.655572 
L 239.629091 243.355765 
L 240.339273 235.226421 
L 241.049455 238.391373 
L 242.469818 213.617078 
L 243.18 216.82007 
L 243.890182 216.302406 
L 244.600364 229.97587 
L 245.310545 228.719297 
L 246.020727 229.485669 
L 246.730909 231.570026 
L 247.441091 223.07001 
L 248.151273 219.295169 
L 248.861455 226.631386 
L 249.571636 220.378591 
L 250.281818 219.139321 
L 250.992 219.416764 
L 251.702182 222.597281 
L 252.412364 224.735474 
L 253.122545 217.722562 
L 253.832727 222.121116 
L 254.542909 219.299496 
L 255.253091 221.593375 
L 255.963273 219.133355 
L 256.673455 208.314308 
L 257.383636 205.624629 
L 258.093818 200.074188 
L 258.804 202.272277 
L 259.514182 211.599934 
L 260.224364 204.528598 
L 260.934545 199.479645 
L 261.644727 196.950682 
L 262.354909 199.357509 
L 263.065091 187.476146 
L 263.775273 197.577373 
L 264.485455 201.295306 
L 265.195636 209.845249 
L 266.616 216.878438 
L 267.326182 219.053975 
L 268.036364 220.047948 
L 268.746545 211.236833 
L 269.456727 209.209104 
L 270.166909 206.751744 
L 270.877091 210.695399 
L 271.587273 204.355041 
L 272.297455 205.34018 
L 273.007636 209.021711 
L 273.717818 206.588672 
L 274.428 215.748139 
L 275.138182 219.516502 
L 275.848364 215.996103 
L 276.558545 223.138089 
L 277.268727 226.155263 
L 277.978909 235.500326 
L 278.689091 232.385395 
L 279.399273 237.787121 
L 280.109455 239.398772 
L 280.819636 239.801609 
L 281.529818 236.711841 
L 282.950182 220.292278 
L 283.660364 219.197695 
L 284.370545 218.916038 
L 285.080727 219.962054 
L 285.790909 220.241746 
L 287.211273 213.786635 
L 287.921455 221.380468 
L 289.341818 217.154061 
L 290.052 215.819298 
L 290.762182 208.645792 
L 291.472364 212.424738 
L 292.182545 214.474993 
L 292.892727 217.250313 
L 293.602909 220.879638 
L 294.313091 216.262464 
L 295.733455 209.905233 
L 296.443636 206.827308 
L 297.864 226.961651 
L 298.574182 225.084738 
L 299.284364 230.605589 
L 299.994545 223.31656 
L 300.704727 225.933887 
L 301.414909 223.749034 
L 302.125091 222.84017 
L 302.835273 224.642437 
L 303.545455 235.420527 
L 304.255636 241.454433 
L 304.965818 232.265416 
L 305.676 246.080004 
L 306.386182 247.542453 
L 307.096364 247.716858 
L 307.806545 250.039955 
L 308.516727 258.164289 
L 309.226909 256.931861 
L 309.937091 258.141306 
L 311.357455 271.493729 
L 312.067636 260.421922 
L 312.777818 255.669906 
L 313.488 257.566633 
L 314.198182 252.404494 
L 314.908364 252.613999 
L 315.618545 248.849098 
L 316.328727 258.269432 
L 317.038909 271.506173 
L 317.749091 273.348966 
L 318.459273 269.398041 
L 319.169455 269.67565 
L 319.879636 270.850063 
L 320.589818 276.258529 
L 321.3 284.829077 
L 322.010182 284.644296 
L 322.720364 286.042198 
L 323.430545 284.011162 
L 324.140727 289.945767 
L 324.850909 287.308962 
L 325.561091 281.02087 
L 326.271273 278.511768 
L 327.691636 283.166883 
L 328.401818 284.348718 
L 329.112 283.606732 
L 329.822182 283.630423 
L 330.532364 291.470328 
L 331.242545 286.848602 
L 331.952727 293.571036 
L 332.662909 291.634748 
L 333.373091 292.51534 
L 334.083273 289.674863 
L 334.793455 299.219114 
L 335.503636 293.82015 
L 336.213818 293.406376 
L 336.924 303.271424 
L 337.634182 304.097677 
L 338.344364 304.673697 
L 339.054545 316.189619 
L 339.764727 311.400811 
L 340.474909 313.936186 
L 341.185091 324.778828 
L 341.895273 322.599978 
L 342.605455 321.477645 
L 343.315636 314.558512 
L 344.025818 311.79301 
L 344.736 313.857885 
L 345.446182 314.109828 
L 346.156364 319.974696 
L 346.866545 317.796512 
L 347.576727 325.210762 
L 348.286909 326.246349 
L 348.997091 318.675971 
L 349.707273 317.665512 
L 350.417455 315.644793 
L 351.127636 319.93982 
L 351.837818 325.161106 
L 352.548 329.208431 
L 353.258182 327.358609 
L 353.968364 337.001327 
L 354.678545 332.265684 
L 355.388727 336.663661 
L 356.098909 326.914771 
L 356.809091 332.061616 
L 357.519273 338.167625 
L 358.229455 341.270076 
L 358.939636 339.189317 
L 359.649818 343.942278 
L 360.36 338.402566 
L 361.070182 342.694297 
L 361.780364 351.169481 
L 362.490545 351.47625 
L 363.910909 344.208006 
L 364.621091 342.971235 
L 365.331273 333.435315 
L 366.041455 330.766691 
L 366.751636 330.937918 
L 367.461818 323.942277 
L 368.172 319.923317 
L 368.882182 323.976492 
L 369.592364 332.416233 
L 371.012727 323.71625 
L 371.722909 330.590257 
L 372.433091 331.663068 
L 373.143273 316.057333 
L 373.853455 316.219917 
L 374.563636 316.009118 
L 375.273818 311.937382 
L 375.984 309.370686 
L 376.694182 309.880808 
L 377.404364 315.689286 
L 379.534909 341.228469 
L 380.245091 337.951923 
L 380.955273 336.285216 
L 381.665455 334.227464 
L 382.375636 332.940262 
L 383.085818 329.856329 
L 383.796 338.818971 
L 384.506182 336.626566 
L 385.216364 337.230783 
L 385.926545 340.313725 
L 386.636727 338.320364 
L 387.346909 345.018411 
L 388.057091 343.521423 
L 388.767273 344.246173 
L 389.477455 348.739656 
L 390.187636 351.199766 
L 390.897818 352.312286 
L 391.608 355.094726 
L 392.318182 344.454338 
L 393.028364 351.165734 
L 393.738545 350.692582 
L 394.448727 360.115226 
L 395.158909 360.660747 
L 395.869091 358.395251 
L 396.579273 352.372003 
L 397.289455 356.798555 
L 397.999636 348.288765 
L 398.709818 349.251107 
L 399.42 345.342796 
L 400.130182 355.423144 
L 400.840364 351.680244 
L 401.550545 356.452697 
L 402.970909 347.226474 
L 403.681091 346.830181 
L 404.391273 351.171609 
L 405.101455 345.184282 
L 405.811636 354.383317 
L 406.521818 349.26759 
L 407.232 356.28454 
L 407.942182 368.165468 
L 408.652364 369.36 
L 409.362545 366.436479 
L 410.072727 368.510113 
L 410.782909 362.896764 
L 411.493091 351.794866 
L 412.913455 339.337647 
L 414.333818 348.044105 
L 415.044 337.348368 
L 415.754182 330.101343 
L 416.464364 325.554294 
L 417.174545 327.614034 
L 418.594909 336.910242 
L 419.305091 324.705105 
L 420.015273 326.444057 
L 420.725455 334.397506 
L 421.435636 337.938015 
L 422.145818 342.773002 
L 422.856 348.413163 
L 423.566182 350.87674 
L 424.276364 346.097288 
L 424.986545 332.585651 
L 425.696727 336.209151 
L 426.406909 336.081514 
L 427.117091 336.965183 
L 427.827273 347.157589 
L 428.537455 355.147764 
L 429.247636 348.733585 
L 430.668 349.030475 
L 431.378182 343.878877 
L 432.088364 344.349252 
L 432.798545 348.373798 
L 433.508727 339.356491 
L 434.218909 337.97796 
L 435.639273 353.577922 
L 436.349455 364.397196 
L 437.769818 358.146076 
L 438.48 348.433282 
L 439.900364 332.573958 
L 440.610545 322.890742 
L 441.320727 320.747502 
L 442.030909 315.170073 
L 442.741091 320.836677 
L 443.451273 316.701749 
L 444.161455 325.352683 
L 444.871636 325.722516 
L 445.581818 330.878999 
L 446.292 328.479344 
L 447.002182 321.656493 
L 447.712364 324.954996 
L 448.422545 325.237742 
L 449.132727 330.074774 
L 449.842909 322.316425 
L 450.553091 320.503087 
L 451.263273 315.568907 
L 451.973455 308.571308 
L 452.683636 310.974285 
L 453.393818 304.419008 
L 454.104 309.558652 
L 454.814182 315.536486 
L 455.524364 311.834406 
L 456.234545 299.503486 
L 456.944727 290.791316 
L 457.654909 286.759817 
L 458.365091 287.107448 
L 459.075273 283.954753 
L 459.785455 288.905946 
L 460.495636 282.093914 
L 461.205818 268.389787 
L 461.916 275.248171 
L 462.626182 268.99009 
L 463.336364 271.473202 
L 464.046545 270.470814 
L 464.756727 266.26625 
L 465.466909 264.666962 
L 466.177091 262.585363 
L 467.597455 268.624789 
L 468.307636 266.204455 
L 469.017818 258.104163 
L 470.438182 252.744422 
L 471.148364 253.762306 
L 471.858545 259.942407 
L 473.278909 252.774376 
L 473.989091 257.237733 
L 474.699273 260.182319 
L 475.409455 261.205225 
L 476.119636 254.179988 
L 476.829818 257.193294 
L 477.54 248.925705 
L 478.250182 254.416573 
L 478.960364 249.689814 
L 479.670545 250.554951 
L 480.380727 245.721483 
L 481.090909 251.711655 
L 481.801091 259.92703 
L 482.511273 261.446153 
L 483.221455 259.183596 
L 483.931636 244.410866 
L 484.641818 248.973593 
L 485.352 255.37898 
L 486.062182 249.799428 
L 486.772364 245.573888 
L 487.482545 248.080014 
L 488.192727 249.278832 
L 488.902909 246.894822 
L 490.323273 240.947713 
L 491.033455 241.194417 
L 491.743636 238.224537 
L 492.453818 230.231413 
L 493.164 217.241204 
L 493.874182 222.169465 
L 494.584364 221.149442 
L 495.294545 223.27072 
L 496.004727 222.174596 
L 496.714909 216.675449 
L 497.425091 209.517552 
L 498.845455 227.538285 
L 499.555636 230.205772 
L 500.265818 218.037942 
L 500.976 218.466606 
L 501.686182 219.518786 
L 502.396364 219.743711 
L 503.106545 210.669991 
L 503.816727 215.279575 
L 504.526909 211.366787 
L 505.237091 217.939979 
L 505.947273 210.635248 
L 506.657455 227.069907 
L 507.367636 219.963816 
L 508.077818 211.276385 
L 508.788 222.664146 
L 509.498182 223.113885 
L 510.208364 221.669194 
L 510.918545 219.106222 
L 511.628727 214.287435 
L 512.338909 215.389234 
L 513.049091 216.093858 
L 513.759273 207.102245 
L 514.469455 210.045329 
L 515.179636 219.789124 
L 515.889818 224.728105 
L 517.310182 203.459014 
L 518.020364 206.60969 
L 518.730545 201.682947 
L 519.440727 205.772474 
L 520.150909 206.97707 
L 520.861091 201.651909 
L 521.571273 200.443327 
L 522.281455 200.515298 
L 522.991636 199.588102 
L 523.701818 196.833714 
L 524.412 186.271784 
L 525.122182 178.73013 
L 525.832364 179.636097 
L 526.542545 176.690314 
L 527.252727 184.698674 
L 527.962909 183.226639 
L 528.673091 189.108427 
L 529.383273 188.819893 
L 530.093455 194.525044 
L 530.803636 192.40227 
L 531.513818 194.583637 
L 532.224 188.425501 
L 532.934182 191.567867 
L 533.644364 190.631874 
L 534.354545 194.853547 
L 535.064727 192.154339 
L 535.774909 195.208846 
L 536.485091 202.869483 
L 537.195273 200.982925 
L 537.905455 192.381933 
L 538.615636 206.789569 
L 539.325818 201.998278 
L 540.036 202.482191 
L 540.746182 201.321008 
L 541.456364 204.978276 
L 542.166545 193.934457 
L 542.876727 192.627274 
L 543.586909 199.187422 
L 544.297091 198.454366 
L 545.007273 203.824647 
L 545.717455 211.116254 
L 546.427636 213.499569 
L 547.137818 206.713757 
L 547.848 197.251397 
L 548.558182 194.163745 
L 549.268364 195.630908 
L 550.688727 208.016521 
L 551.398909 206.048826 
L 552.109091 207.057236 
L 552.819273 206.69427 
L 553.529455 207.151608 
L 554.239636 199.789518 
L 554.949818 196.397539 
L 555.66 200.341914 
L 556.370182 192.702955 
L 557.080364 194.617403 
L 557.790545 188.411522 
L 558.500727 183.965099 
L 559.210909 184.718795 
L 559.921091 182.857488 
L 560.631273 186.564871 
L 561.341455 183.309498 
L 562.051636 183.938693 
L 562.761818 180.963051 
L 563.472 187.420476 
L 564.182182 186.816132 
L 564.892364 177.560802 
L 565.602545 182.265071 
L 566.312727 173.794624 
L 567.022909 174.072791 
L 567.733091 174.169499 
L 568.443273 187.032556 
L 569.153455 185.257278 
L 569.863636 189.14631 
L 570.573818 188.192035 
L 571.284 185.164783 
L 571.994182 187.493508 
L 572.704364 193.912867 
L 573.414545 182.178905 
L 574.124727 186.0324 
L 574.834909 182.05514 
L 576.255273 184.572726 
L 576.965455 196.320045 
L 577.675636 199.316304 
L 578.385818 194.742074 
L 579.096 199.058981 
L 579.806182 201.69219 
L 580.516364 193.795469 
L 581.226545 196.216625 
L 581.936727 197.310772 
L 582.646909 191.456635 
L 583.357091 193.346136 
L 584.777455 187.767288 
L 585.487636 197.099907 
L 586.197818 199.8176 
L 586.908 209.390085 
L 587.618182 200.12651 
L 588.328364 203.113079 
L 589.038545 202.972032 
L 589.748727 207.127706 
L 590.458909 215.964509 
L 591.169091 220.060018 
L 591.879273 218.529516 
L 592.589455 225.033365 
L 593.299636 224.954216 
L 594.009818 222.443912 
L 594.72 224.637185 
L 595.430182 229.425719 
L 596.140364 231.119059 
L 596.850545 236.176989 
L 597.560727 229.934041 
L 598.270909 227.706792 
L 598.981091 226.413332 
L 599.691273 244.962307 
L 600.401455 240.371497 
L 601.111636 232.452061 
L 601.821818 233.00119 
L 602.532 249.768058 
L 603.242182 251.428452 
L 603.952364 241.461105 
L 605.372727 234.170409 
L 606.082909 237.098687 
L 606.793091 242.965759 
L 607.503273 251.072602 
L 608.213455 239.950204 
L 608.923636 240.891222 
L 609.633818 240.522124 
L 610.344 251.600658 
L 611.054182 250.381899 
L 611.764364 247.936858 
L 612.474545 249.205939 
L 613.184727 248.902343 
L 613.894909 258.309403 
L 614.605091 248.919081 
L 615.315273 256.047883 
L 616.025455 237.822664 
L 616.735636 232.092606 
L 618.156 246.880858 
L 618.866182 247.856884 
L 619.576364 245.989106 
L 620.286545 252.991895 
L 620.996727 236.601519 
L 621.706909 249.949605 
L 622.417091 252.181172 
L 623.127273 258.596043 
L 623.837455 259.716405 
L 624.547636 253.453427 
L 625.257818 260.820287 
L 625.968 258.963208 
L 626.678182 268.122698 
L 627.388364 269.034249 
L 628.098545 255.199655 
L 628.808727 252.36381 
L 629.518909 243.616963 
L 630.229091 250.099157 
L 631.649455 247.337437 
L 632.359636 243.661552 
L 633.069818 236.174081 
L 633.78 244.116235 
L 634.490182 235.969653 
L 635.200364 237.300949 
L 635.910545 227.76455 
L 636.620727 224.834223 
L 637.330909 229.05437 
L 638.041091 224.236234 
L 638.751273 217.166129 
L 639.461455 216.240418 
L 640.171636 212.657447 
L 640.881818 219.843738 
L 641.592 215.059209 
L 642.302182 214.727016 
L 643.012364 223.863995 
L 643.722545 225.161077 
L 644.432727 216.70852 
L 645.142909 224.638713 
L 645.853091 221.942259 
L 646.563273 211.117253 
L 647.273455 216.34796 
L 647.983636 200.446907 
L 648.693818 193.783171 
L 649.404 196.608886 
L 650.114182 195.269699 
L 650.824364 186.290734 
L 651.534545 179.025091 
L 652.244727 174.873006 
L 652.954909 185.209884 
L 653.665091 198.135352 
L 654.375273 191.690155 
L 655.085455 199.984861 
L 655.795636 206.210893 
L 656.505818 205.791964 
L 657.926182 190.416579 
L 658.636364 190.509055 
L 659.346545 197.916784 
L 660.056727 196.028804 
L 660.766909 192.861986 
L 661.477091 199.094278 
L 662.187273 209.599629 
L 662.897455 211.326424 
L 663.607636 201.251716 
L 664.317818 205.29109 
L 665.028 219.43916 
L 665.738182 220.484602 
L 666.448364 211.199346 
L 667.158545 210.753545 
L 667.868727 214.320498 
L 668.578909 218.676861 
L 669.289091 219.218462 
L 669.999273 224.871168 
L 670.709455 220.336147 
L 671.419636 220.173764 
L 672.129818 224.764596 
L 672.84 217.189317 
L 673.550182 217.99522 
L 674.260364 216.783342 
L 674.970545 211.122363 
L 675.680727 218.124733 
L 676.390909 218.786308 
L 677.101091 219.860898 
L 678.521455 229.715589 
L 679.231636 228.514735 
L 679.941818 215.411953 
L 680.652 209.552513 
L 681.362182 206.77716 
L 682.072364 201.232411 
L 682.782545 206.3682 
L 683.492727 204.951985 
L 684.202909 202.306849 
L 684.913091 196.879963 
L 685.623273 197.808884 
L 686.333455 191.683664 
L 687.753818 181.293073 
L 688.464 188.919421 
L 689.174182 174.16467 
L 689.884364 168.848181 
L 690.594545 159.180266 
L 691.304727 152.706973 
L 692.014909 158.087133 
L 692.725091 162.349255 
L 693.435273 169.329236 
L 694.145455 166.436964 
L 694.855636 160.506263 
L 695.565818 163.637836 
L 696.276 161.686816 
L 697.696364 182.445816 
L 698.406545 196.63861 
L 699.116727 204.037844 
L 699.826909 191.642769 
L 700.537091 189.973495 
L 701.247273 186.006393 
L 701.957455 183.031336 
L 702.667636 193.234356 
L 703.377818 185.463685 
L 704.088 182.701074 
L 704.798182 173.744587 
L 705.508364 174.982248 
L 706.218545 171.495236 
L 706.928727 170.597376 
L 707.638909 167.629348 
L 708.349091 167.470333 
L 709.059273 169.474972 
L 709.769455 169.725028 
L 710.479636 164.203853 
L 711.189818 168.220262 
L 711.9 157.158588 
L 712.610182 162.28298 
L 713.320364 166.403351 
L 714.030545 175.97438 
L 714.740727 165.842933 
L 715.450909 164.679907 
L 716.161091 167.745025 
L 716.871273 171.918255 
L 717.581455 168.782325 
L 718.291636 178.129124 
L 719.001818 169.822936 
L 719.712 157.728468 
L 720.422182 151.831698 
L 721.842545 168.344208 
L 722.552727 163.564828 
L 723.262909 156.19266 
L 723.973091 153.478871 
L 724.683273 165.675842 
L 725.393455 167.680112 
L 726.103636 175.653577 
L 726.813818 181.652649 
L 727.524 186.448875 
L 728.234182 174.444574 
L 729.654545 178.184345 
L 730.364727 184.334038 
L 731.074909 173.692523 
L 731.785091 164.834418 
L 732.495273 159.823305 
L 733.915636 146.354472 
L 734.625818 157.725444 
L 735.336 162.011469 
L 736.046182 170.637666 
L 736.756364 166.483848 
L 737.466545 170.809956 
L 738.176727 177.708196 
L 738.886909 181.129222 
L 739.597091 186.725374 
L 740.307273 188.439439 
L 741.017455 174.984019 
L 741.727636 179.492687 
L 742.437818 181.699612 
L 743.148 181.458512 
L 743.858182 160.741278 
L 744.568364 160.881172 
L 745.278545 169.05343 
L 745.988727 159.244306 
L 746.698909 169.831996 
L 747.409091 164.137504 
L 748.119273 160.398397 
L 748.829455 161.416489 
L 749.539636 160.598574 
L 750.249818 160.072957 
L 750.96 167.667239 
L 751.670182 173.251803 
L 752.380364 166.75321 
L 753.090545 170.405825 
L 754.510909 156.665689 
L 755.221091 156.902057 
L 755.931273 160.766758 
L 756.641455 145.654561 
L 757.351636 147.672873 
L 758.061818 148.41111 
L 758.772 145.23063 
L 759.482182 147.337312 
L 760.192364 154.574021 
L 760.902545 141.703993 
L 761.612727 148.838809 
L 762.322909 146.070853 
L 763.033091 142.54069 
L 764.453455 153.516814 
L 765.163636 156.689114 
L 765.873818 158.806728 
L 766.584 159.483044 
L 767.294182 158.917232 
L 768.004364 156.982992 
L 768.714545 156.522777 
L 769.424727 163.490847 
L 770.134909 166.997539 
L 770.845091 165.24384 
L 771.555273 159.793889 
L 772.265455 157.238706 
L 772.975636 152.573931 
L 773.685818 143.785717 
L 774.396 146.477137 
L 775.106182 148.514705 
L 775.816364 149.118938 
L 776.526545 157.569235 
L 777.236727 146.008426 
L 777.946909 138.257237 
L 778.657091 133.915199 
L 779.367273 135.332221 
L 780.077455 130.173366 
L 780.787636 127.745241 
L 781.497818 136.685237 
L 782.918182 141.635938 
L 783.628364 135.374328 
L 784.338545 132.866141 
L 785.758909 124.224445 
L 786.469091 124.703711 
L 787.179273 137.196507 
L 787.889455 138.370929 
L 788.599636 138.454465 
L 789.309818 133.635734 
L 790.02 131.292665 
L 790.730182 124.132755 
L 791.440364 119.218972 
L 792.150545 122.742386 
L 792.860727 115.619831 
L 793.570909 129.561607 
L 794.281091 125.025305 
L 794.991273 136.684224 
L 795.701455 138.72513 
L 796.411636 131.644718 
L 797.121818 133.507418 
L 797.832 135.740582 
L 799.252364 122.623452 
L 799.962545 128.96236 
L 800.672727 127.653363 
L 801.382909 135.96777 
L 802.093091 132.230513 
L 802.803273 136.838297 
L 803.513455 145.997805 
L 804.223636 147.450892 
L 804.933818 143.69491 
L 805.644 143.498432 
L 806.354182 146.294845 
L 807.064364 134.937164 
L 807.774545 128.018786 
L 808.484727 130.878278 
L 809.194909 129.686933 
L 809.905091 122.480803 
L 810.615273 119.45047 
L 811.325455 109.941206 
L 812.035636 105.052102 
L 812.745818 106.048679 
L 813.456 108.849777 
L 814.166182 111.194811 
L 814.876364 104.07056 
L 815.586545 94.48276 
L 817.006909 90.581466 
L 819.137455 78.162467 
L 819.847636 69.663418 
L 820.557818 69.108227 
L 821.268 78.749734 
L 821.978182 75.223999 
L 822.688364 78.08637 
L 823.398545 80.311211 
L 824.108727 81.913861 
L 824.818909 87.01681 
L 825.529091 83.575771 
L 826.239273 79.165728 
L 826.949455 75.880097 
L 827.659636 76.828467 
L 828.369818 85.441607 
L 829.08 81.791125 
L 829.790182 83.108188 
L 830.500364 76.692722 
L 831.210545 74.514357 
L 831.920727 70.06269 
L 832.630909 66.96 
L 833.341091 71.298124 
L 834.051273 79.676467 
L 834.761455 84.370635 
L 835.471636 77.660273 
L 836.181818 81.439533 
L 836.892 87.128255 
L 837.602182 90.326734 
L 838.312364 90.282149 
L 839.022545 94.349766 
L 839.732727 94.297479 
L 841.153091 111.986083 
L 841.863273 114.517985 
L 842.573455 114.738591 
L 843.283636 115.599459 
L 843.993818 116.791971 
L 844.704 126.10061 
L 845.414182 124.931185 
L 846.124364 138.275725 
L 846.834545 138.044666 
L 847.544727 147.865837 
L 848.254909 149.953906 
L 849.675273 138.704614 
L 850.385455 143.073742 
L 851.095636 152.335194 
L 851.805818 156.516181 
L 852.516 155.048061 
L 853.226182 150.75607 
L 853.936364 148.263152 
L 854.646545 163.648104 
L 856.066909 172.03849 
L 856.777091 169.260318 
L 857.487273 174.155041 
L 858.197455 177.390116 
L 858.907636 179.453879 
L 859.617818 188.998681 
L 860.328 192.639534 
L 861.038182 195.625517 
L 861.748364 192.271545 
L 862.458545 191.824856 
L 863.168727 199.938372 
L 863.878909 200.020141 
L 864.589091 200.241406 
L 865.299273 206.104515 
L 866.009455 213.846422 
L 866.719636 214.086802 
L 867.429818 216.813248 
L 868.14 210.401718 
L 868.850182 210.03337 
L 869.560364 213.613363 
L 870.270545 199.389038 
L 870.980727 206.330865 
L 871.690909 197.259033 
L 871.690909 197.259033 
" clip-path="url(#p53026fd7e1)" style="fill: none; stroke: #ff7f0e; stroke-width: 1.5; stroke-linecap: square"/>
   </g>
   <g id="line2d_14">
    <path d="M 162.219273 274.859363 
L 163.639636 274.771034 
L 164.349818 274.771872 
L 165.770182 274.473335 
L 166.480364 273.572948 
L 167.190545 273.481004 
L 167.900727 272.93138 
L 168.610909 272.842918 
L 169.321091 272.468673 
L 170.031273 272.377187 
L 171.451636 272.356607 
L 172.872 272.175391 
L 173.582182 272.207717 
L 174.292364 271.979702 
L 175.712727 271.966986 
L 176.422909 271.761642 
L 178.553455 271.746107 
L 179.263636 271.451623 
L 179.973818 271.506252 
L 182.104364 271.258286 
L 184.234909 271.256749 
L 184.945091 270.933032 
L 185.655273 270.942995 
L 186.365455 270.574765 
L 187.785818 270.289395 
L 188.496 270.279035 
L 189.206182 269.87854 
L 191.336727 269.887781 
L 192.757091 269.717115 
L 194.887636 269.511843 
L 195.597818 269.027014 
L 199.148727 268.807183 
L 199.858909 268.0743 
L 202.699636 268.048617 
L 203.409818 267.782394 
L 204.12 267.645605 
L 206.250545 267.630022 
L 206.960727 267.185045 
L 209.091273 266.942916 
L 209.801455 266.565064 
L 210.511636 266.018083 
L 214.772727 265.968197 
L 216.193091 265.940492 
L 216.903273 265.572577 
L 217.613455 265.568364 
L 218.323636 265.294042 
L 219.744 265.248532 
L 220.454182 265.184664 
L 221.164364 265.266247 
L 221.874545 264.229773 
L 222.584727 264.207274 
L 223.294909 264.057829 
L 226.135636 263.919194 
L 228.266182 263.585818 
L 228.976364 263.148695 
L 230.396727 263.061503 
L 231.106909 262.660986 
L 231.817091 261.357026 
L 233.237455 261.303166 
L 237.498545 261.262786 
L 238.208727 261.131933 
L 238.918909 260.034068 
L 239.629091 259.490555 
L 240.339273 259.13976 
L 241.049455 259.203473 
L 242.469818 257.583059 
L 243.890182 257.661571 
L 244.600364 256.310735 
L 246.730909 256.260353 
L 247.441091 255.915207 
L 248.151273 255.80674 
L 248.861455 255.507532 
L 249.571636 255.346746 
L 252.412364 255.336701 
L 253.122545 254.940884 
L 254.542909 254.657226 
L 255.963273 254.739981 
L 256.673455 254.137928 
L 257.383636 254.049873 
L 258.093818 254.152322 
L 258.804 254.114023 
L 260.224364 253.414595 
L 262.354909 253.218852 
L 263.065091 252.84293 
L 263.775273 252.260433 
L 264.485455 252.155871 
L 265.195636 252.16998 
L 265.905818 252.039052 
L 266.616 251.7703 
L 269.456727 251.585568 
L 270.877091 251.605702 
L 271.587273 251.449318 
L 273.007636 251.484365 
L 274.428 251.558248 
L 277.268727 251.074684 
L 277.978909 250.661865 
L 279.399273 250.255684 
L 280.819636 250.301353 
L 281.529818 250.241829 
L 282.24 249.733741 
L 282.950182 249.434501 
L 290.052 249.350397 
L 291.472364 249.552539 
L 295.023273 249.192149 
L 295.733455 249.071462 
L 296.443636 249.112417 
L 297.864 248.775092 
L 299.284364 248.685569 
L 299.994545 248.522412 
L 302.835273 248.49894 
L 303.545455 247.638131 
L 304.965818 247.428682 
L 305.676 246.083455 
L 307.096364 246.047513 
L 307.806545 245.870801 
L 308.516727 245.306638 
L 309.937091 245.317115 
L 310.647273 245.309466 
L 312.067636 244.513432 
L 314.198182 244.570013 
L 314.908364 244.57003 
L 315.618545 244.381626 
L 317.038909 243.658253 
L 317.749091 243.736495 
L 318.459273 243.611741 
L 319.879636 243.607656 
L 320.589818 243.346174 
L 322.010182 243.276041 
L 323.430545 243.252125 
L 324.140727 243.052508 
L 324.850909 243.066432 
L 325.561091 243.219332 
L 327.691636 243.056613 
L 329.822182 243.032528 
L 330.532364 242.551068 
L 331.242545 242.340391 
L 334.083273 242.197943 
L 334.793455 241.703454 
L 335.503636 241.550975 
L 336.213818 241.547216 
L 336.924 241.34467 
L 338.344364 241.358217 
L 339.764727 241.096726 
L 340.474909 241.072534 
L 341.185091 240.569398 
L 344.025818 240.48602 
L 345.446182 240.479038 
L 346.156364 240.067264 
L 346.866545 240.062963 
L 348.286909 240.193393 
L 348.997091 240.012215 
L 350.417455 239.908562 
L 351.127636 239.700379 
L 355.388727 239.396033 
L 356.098909 238.928091 
L 359.649818 238.58252 
L 360.36 238.280937 
L 361.070182 238.226055 
L 361.780364 237.833506 
L 364.621091 237.925403 
L 365.331273 237.18076 
L 366.751636 237.156079 
L 367.461818 236.903834 
L 368.882182 236.926996 
L 369.592364 236.668853 
L 371.012727 236.565984 
L 371.722909 236.201225 
L 372.433091 236.164309 
L 373.143273 235.203035 
L 376.694182 235.235743 
L 377.404364 235.04785 
L 378.114545 234.557769 
L 378.824727 234.269505 
L 379.534909 234.305168 
L 380.955273 234.208653 
L 383.085818 234.0672 
L 383.796 233.530581 
L 385.926545 233.502792 
L 386.636727 233.578541 
L 387.346909 233.422809 
L 388.767273 233.451997 
L 389.477455 233.228948 
L 393.738545 232.890014 
L 394.448727 232.724941 
L 395.869091 232.687791 
L 396.579273 232.4812 
L 405.101455 232.008437 
L 405.811636 231.845794 
L 406.521818 231.813386 
L 407.232 231.546332 
L 407.942182 230.81035 
L 410.072727 230.708554 
L 410.782909 230.447956 
L 411.493091 229.719351 
L 412.913455 229.613832 
L 414.333818 229.476754 
L 415.754182 228.676387 
L 417.884727 228.66136 
L 418.594909 228.436045 
L 419.305091 227.991809 
L 420.015273 227.977368 
L 420.725455 227.746325 
L 421.435636 227.796312 
L 422.856 227.543468 
L 423.566182 227.553719 
L 424.276364 227.417095 
L 424.986545 226.936043 
L 426.406909 226.843028 
L 427.117091 226.826705 
L 427.827273 226.616817 
L 428.537455 226.223684 
L 429.247636 225.987927 
L 431.378182 226.089073 
L 432.798545 226.074118 
L 433.508727 225.707034 
L 434.218909 225.764773 
L 434.929091 225.519035 
L 436.349455 224.628122 
L 438.48 224.471094 
L 439.190182 224.133492 
L 439.900364 223.529208 
L 440.610545 223.337236 
L 442.030909 223.254557 
L 442.741091 222.848304 
L 443.451273 222.835563 
L 444.161455 222.575304 
L 446.292 222.521911 
L 447.002182 222.114645 
L 450.553091 222.18199 
L 451.973455 221.943778 
L 454.104 221.812486 
L 456.234545 221.413002 
L 456.944727 221.017219 
L 458.365091 221.092924 
L 460.495636 220.739305 
L 461.205818 220.349969 
L 462.626182 219.93756 
L 464.756727 220.042439 
L 468.307636 219.968616 
L 469.017818 219.526216 
L 471.148364 219.4837 
L 472.568727 219.163663 
L 473.278909 219.094449 
L 473.989091 218.760367 
L 475.409455 218.693293 
L 476.119636 218.400637 
L 476.829818 218.261729 
L 477.54 217.782015 
L 478.960364 217.584167 
L 479.670545 217.594195 
L 481.090909 217.182212 
L 482.511273 216.993151 
L 483.221455 216.979333 
L 483.931636 215.865509 
L 484.641818 215.919522 
L 487.482545 215.70196 
L 491.033455 215.622304 
L 493.874182 215.246598 
L 496.714909 215.392059 
L 497.425091 215.282969 
L 498.845455 214.081059 
L 499.555636 214.121509 
L 500.265818 213.261591 
L 502.396364 213.28659 
L 503.106545 212.701285 
L 505.947273 212.556125 
L 506.657455 211.545515 
L 507.367636 211.144192 
L 508.077818 211.095043 
L 508.788 210.797626 
L 510.918545 210.812427 
L 511.628727 210.577076 
L 513.049091 210.625682 
L 513.759273 210.239235 
L 514.469455 210.108891 
L 515.179636 209.578593 
L 515.889818 209.471328 
L 517.310182 208.440129 
L 523.701818 208.305749 
L 525.122182 207.061708 
L 526.542545 206.981497 
L 527.252727 206.874788 
L 527.962909 206.88455 
L 529.383273 206.767471 
L 531.513818 206.713259 
L 532.224 206.384538 
L 533.644364 206.446434 
L 537.905455 205.694133 
L 538.615636 204.92494 
L 541.456364 204.993862 
L 542.166545 204.432772 
L 544.297091 204.429584 
L 545.007273 204.343924 
L 545.717455 204.066106 
L 546.427636 204.050643 
L 547.137818 203.914904 
L 547.848 203.614491 
L 549.268364 203.676696 
L 550.688727 203.812707 
L 553.529455 203.777991 
L 554.239636 203.460234 
L 556.370182 203.251177 
L 557.080364 203.181341 
L 558.500727 202.755562 
L 564.182182 202.620282 
L 564.892364 202.361304 
L 565.602545 202.304648 
L 566.312727 201.87286 
L 567.733091 201.875543 
L 568.443273 201.470857 
L 572.704364 200.882738 
L 573.414545 200.40992 
L 574.124727 200.27834 
L 576.255273 200.275547 
L 576.965455 199.80087 
L 579.806182 199.645586 
L 580.516364 199.394364 
L 581.936727 199.317522 
L 582.646909 199.040256 
L 584.777455 198.909869 
L 585.487636 198.371935 
L 586.197818 198.446347 
L 586.908 198.156945 
L 587.618182 197.707027 
L 589.748727 197.494957 
L 590.458909 197.129178 
L 591.169091 197.269656 
L 591.879273 197.236711 
L 593.299636 197.315628 
L 594.72 197.245271 
L 595.430182 197.436824 
L 596.140364 197.372521 
L 596.850545 197.017001 
L 597.560727 196.83543 
L 598.981091 196.834668 
L 599.691273 195.93451 
L 600.401455 196.029262 
L 601.111636 195.788967 
L 601.821818 195.804456 
L 602.532 194.788935 
L 603.242182 194.85016 
L 603.952364 194.309156 
L 606.793091 194.116917 
L 607.503273 193.729811 
L 608.213455 193.500037 
L 611.764364 193.665675 
L 613.894909 193.797968 
L 614.605091 193.208527 
L 615.315273 193.218046 
L 616.025455 191.572237 
L 616.735636 191.619242 
L 618.156 191.102209 
L 619.576364 191.025538 
L 620.286545 190.905927 
L 620.996727 190.46831 
L 621.706909 189.609496 
L 622.417091 189.620613 
L 623.127273 189.136928 
L 624.547636 189.149394 
L 625.257818 188.879923 
L 625.968 188.839686 
L 626.678182 188.674209 
L 627.388364 188.667551 
L 628.098545 187.507214 
L 628.808727 187.42739 
L 629.518909 187.211955 
L 630.229091 186.860894 
L 631.649455 186.834329 
L 635.200364 186.018676 
L 635.910545 185.378787 
L 636.620727 185.391174 
L 637.330909 185.184069 
L 638.751273 185.09679 
L 640.171636 185.015907 
L 640.881818 184.793831 
L 642.302182 184.834037 
L 643.012364 184.501283 
L 643.722545 184.520128 
L 644.432727 184.232376 
L 645.853091 184.160624 
L 647.273455 183.542759 
L 647.983636 182.096926 
L 648.693818 181.811266 
L 650.114182 181.73955 
L 650.824364 181.2593 
L 651.534545 181.10271 
L 652.244727 181.084951 
L 652.954909 180.675138 
L 653.665091 180.453512 
L 654.375273 180.389107 
L 655.085455 180.041139 
L 656.505818 180.136552 
L 657.926182 179.579268 
L 658.636364 179.577621 
L 659.346545 179.361661 
L 661.477091 179.123733 
L 662.187273 178.872823 
L 662.897455 178.876518 
L 663.607636 178.565335 
L 664.317818 178.47266 
L 665.028 177.581849 
L 665.738182 177.529391 
L 666.448364 177.280295 
L 667.158545 177.275466 
L 667.868727 177.05982 
L 669.999273 177.000759 
L 672.129818 177.026101 
L 672.84 176.873248 
L 674.970545 176.832289 
L 675.680727 176.717149 
L 677.811273 176.624802 
L 678.521455 176.424303 
L 679.231636 176.462813 
L 679.941818 176.076969 
L 685.623273 175.424682 
L 686.333455 174.909707 
L 688.464 174.25627 
L 689.174182 173.268247 
L 689.884364 172.899749 
L 690.594545 172.832895 
L 692.014909 172.426552 
L 692.725091 172.391473 
L 693.435273 172.049467 
L 694.145455 172.084345 
L 694.855636 171.984509 
L 696.276 172.163788 
L 698.406545 170.085984 
L 699.116727 170.137227 
L 699.826909 169.882561 
L 701.957455 170.002699 
L 702.667636 169.418782 
L 703.377818 169.16892 
L 709.059273 168.899425 
L 710.479636 168.868613 
L 711.189818 168.79232 
L 711.9 168.395503 
L 712.610182 168.173157 
L 713.320364 168.225238 
L 714.740727 167.122625 
L 717.581455 167.023639 
L 718.291636 166.323645 
L 719.712 165.335488 
L 720.422182 165.330474 
L 721.842545 164.858687 
L 723.973091 164.343281 
L 725.393455 164.250051 
L 726.103636 164.453939 
L 727.524 164.1389 
L 728.234182 163.598213 
L 729.654545 163.625796 
L 730.364727 163.427914 
L 731.074909 162.723706 
L 731.785091 162.336388 
L 733.205455 162.045593 
L 734.625818 161.419669 
L 735.336 161.477233 
L 736.046182 161.177152 
L 738.886909 161.213456 
L 739.597091 160.817974 
L 740.307273 160.831751 
L 741.017455 160.323496 
L 742.437818 160.024553 
L 743.148 160.021338 
L 743.858182 158.760642 
L 744.568364 158.758307 
L 745.278545 158.56752 
L 745.988727 158.120989 
L 746.698909 157.451538 
L 747.409091 157.266281 
L 750.249818 157.271908 
L 750.96 157.204682 
L 753.090545 156.634084 
L 753.800727 156.598381 
L 755.221091 156.68467 
L 755.931273 156.694142 
L 756.641455 155.638349 
L 758.061818 155.597716 
L 758.772 155.699705 
L 759.482182 155.668852 
L 760.192364 155.283994 
L 760.902545 154.670108 
L 763.033091 154.485237 
L 765.163636 153.892656 
L 766.584 153.828984 
L 769.424727 153.791175 
L 770.134909 153.640164 
L 772.265455 153.463783 
L 776.526545 152.762939 
L 777.236727 152.470635 
L 778.657091 152.268559 
L 779.367273 152.287893 
L 780.077455 152.191629 
L 780.787636 152.240538 
L 781.497818 152.491892 
L 782.918182 152.485454 
L 783.628364 152.202912 
L 786.469091 151.867075 
L 787.179273 151.308954 
L 788.599636 151.299249 
L 789.309818 151.121181 
L 790.02 151.09938 
L 791.440364 150.653201 
L 792.860727 150.388074 
L 793.570909 150.444609 
L 794.991273 150.076563 
L 795.701455 150.14008 
L 796.411636 149.69515 
L 798.542182 149.682856 
L 799.962545 149.258813 
L 800.672727 149.227562 
L 801.382909 149.012614 
L 802.093091 149.082656 
L 802.803273 148.968238 
L 803.513455 148.419006 
L 804.223636 148.406583 
L 804.933818 148.263534 
L 806.354182 148.324877 
L 807.064364 147.725422 
L 807.774545 147.486765 
L 809.194909 147.492684 
L 809.905091 147.252042 
L 810.615273 147.203698 
L 811.325455 146.670815 
L 812.035636 146.460852 
L 813.456 146.391033 
L 814.166182 146.370379 
L 815.586545 146.006564 
L 817.006909 146.031333 
L 819.847636 145.637813 
L 820.557818 145.658667 
L 821.268 145.456545 
L 824.818909 145.351763 
L 826.239273 145.21301 
L 827.659636 145.209758 
L 829.08 144.816021 
L 829.790182 144.825529 
L 830.500364 144.517169 
L 833.341091 144.137724 
L 834.051273 143.648345 
L 835.471636 143.629726 
L 836.181818 143.616736 
L 836.892 143.294933 
L 838.312364 143.22602 
L 840.442909 143.099081 
L 841.153091 142.685823 
L 845.414182 142.723381 
L 846.124364 141.790783 
L 848.254909 141.682798 
L 848.965091 141.607444 
L 850.385455 141.204272 
L 851.805818 141.029838 
L 852.516 141.041772 
L 853.226182 140.89143 
L 853.936364 140.910216 
L 854.646545 139.947858 
L 855.356727 140.062464 
L 858.197455 139.617601 
L 858.907636 139.567702 
L 859.617818 139.214296 
L 860.328 139.128288 
L 861.748364 139.092809 
L 862.458545 139.0961 
L 863.168727 138.654165 
L 865.299273 138.546836 
L 866.009455 138.3851 
L 866.719636 138.393543 
L 868.850182 138.137475 
L 869.560364 138.069791 
L 870.270545 137.496776 
L 870.980727 137.353075 
L 871.690909 136.852523 
L 871.690909 136.852523 
" clip-path="url(#p53026fd7e1)" style="fill: none; stroke: #2ca02c; stroke-width: 1.5; stroke-linecap: square"/>
   </g>
   <g id="patch_3">
    <path d="M 126 384.48 
L 126 51.84 
" style="fill: none; stroke: #000000; stroke-width: 0.8; stroke-linejoin: miter; stroke-linecap: square"/>
   </g>
   <g id="patch_4">
    <path d="M 907.2 384.48 
L 907.2 51.84 
" style="fill: none; stroke: #000000; stroke-width: 0.8; stroke-linejoin: miter; stroke-linecap: square"/>
   </g>
   <g id="patch_5">
    <path d="M 126 384.48 
L 907.2 384.48 
" style="fill: none; stroke: #000000; stroke-width: 0.8; stroke-linejoin: miter; stroke-linecap: square"/>
   </g>
   <g id="patch_6">
    <path d="M 126 51.84 
L 907.2 51.84 
" style="fill: none; stroke: #000000; stroke-width: 0.8; stroke-linejoin: miter; stroke-linecap: square"/>
   </g>
   <g id="text_14">
    <!-- Quadratic Covariation of $X_t$ and $S_t$ -->
    <g transform="translate(414.54 45.84)scale(0.12 -0.12)">
     <defs>
      <path id="DejaVuSans-66" d="M 2375 4863 
L 2375 4384 
L 1825 4384 
Q 1516 4384 1395 4259 
Q 1275 4134 1275 3809 
L 1275 3500 
L 2222 3500 
L 2222 3053 
L 1275 3053 
L 1275 0 
L 697 0 
L 697 3053 
L 147 3053 
L 147 3500 
L 697 3500 
L 697 3744 
Q 697 4328 969 4595 
Q 1241 4863 1831 4863 
L 2375 4863 
z
" transform="scale(0.015625)"/>
      <path id="DejaVuSans-Oblique-58" d="M 878 4666 
L 1516 4666 
L 2316 2981 
L 3763 4666 
L 4500 4666 
L 2578 2438 
L 3738 0 
L 3103 0 
L 2163 1966 
L 459 0 
L -275 0 
L 1906 2509 
L 878 4666 
z
" transform="scale(0.015625)"/>
      <path id="DejaVuSans-Oblique-74" d="M 2706 3500 
L 2619 3053 
L 1472 3053 
L 1100 1153 
Q 1081 1047 1072 975 
Q 1063 903 1063 863 
Q 1063 663 1183 572 
Q 1303 481 1569 481 
L 2150 481 
L 2053 0 
L 1503 0 
Q 991 0 739 200 
Q 488 400 488 806 
Q 488 878 497 964 
Q 506 1050 525 1153 
L 897 3053 
L 409 3053 
L 500 3500 
L 978 3500 
L 1172 4494 
L 1747 4494 
L 1556 3500 
L 2706 3500 
z
" transform="scale(0.015625)"/>
      <path id="DejaVuSans-Oblique-53" d="M 3859 4513 
L 3738 3897 
Q 3422 4066 3111 4152 
Q 2800 4238 2509 4238 
Q 1944 4238 1609 3991 
Q 1275 3744 1275 3334 
Q 1275 3109 1398 2989 
Q 1522 2869 2034 2731 
L 2413 2638 
Q 3053 2472 3303 2217 
Q 3553 1963 3553 1503 
Q 3553 797 2998 353 
Q 2444 -91 1538 -91 
Q 1166 -91 791 -17 
Q 416 56 38 206 
L 166 856 
Q 513 641 861 531 
Q 1209 422 1556 422 
Q 2147 422 2503 684 
Q 2859 947 2859 1369 
Q 2859 1650 2717 1795 
Q 2575 1941 2106 2059 
L 1728 2156 
Q 1081 2325 845 2545 
Q 609 2766 609 3163 
Q 609 3859 1145 4304 
Q 1681 4750 2541 4750 
Q 2875 4750 3203 4690 
Q 3531 4631 3859 4513 
z
" transform="scale(0.015625)"/>
     </defs>
     <use xlink:href="#DejaVuSans-51" transform="translate(0 0.015625)"/>
     <use xlink:href="#DejaVuSans-75" transform="translate(78.710938 0.015625)"/>
     <use xlink:href="#DejaVuSans-61" transform="translate(142.089844 0.015625)"/>
     <use xlink:href="#DejaVuSans-64" transform="translate(203.369141 0.015625)"/>
     <use xlink:href="#DejaVuSans-72" transform="translate(266.845703 0.015625)"/>
     <use xlink:href="#DejaVuSans-61" transform="translate(307.958984 0.015625)"/>
     <use xlink:href="#DejaVuSans-74" transform="translate(369.238281 0.015625)"/>
     <use xlink:href="#DejaVuSans-69" transform="translate(408.447266 0.015625)"/>
     <use xlink:href="#DejaVuSans-63" transform="translate(436.230469 0.015625)"/>
     <use xlink:href="#DejaVuSans-20" transform="translate(491.210938 0.015625)"/>
     <use xlink:href="#DejaVuSans-43" transform="translate(522.998047 0.015625)"/>
     <use xlink:href="#DejaVuSans-6f" transform="translate(592.822266 0.015625)"/>
     <use xlink:href="#DejaVuSans-76" transform="translate(654.003906 0.015625)"/>
     <use xlink:href="#DejaVuSans-61" transform="translate(713.183594 0.015625)"/>
     <use xlink:href="#DejaVuSans-72" transform="translate(774.462891 0.015625)"/>
     <use xlink:href="#DejaVuSans-69" transform="translate(815.576172 0.015625)"/>
     <use xlink:href="#DejaVuSans-61" transform="translate(843.359375 0.015625)"/>
     <use xlink:href="#DejaVuSans-74" transform="translate(904.638672 0.015625)"/>
     <use xlink:href="#DejaVuSans-69" transform="translate(943.847656 0.015625)"/>
     <use xlink:href="#DejaVuSans-6f" transform="translate(971.630859 0.015625)"/>
     <use xlink:href="#DejaVuSans-6e" transform="translate(1032.8125 0.015625)"/>
     <use xlink:href="#DejaVuSans-20" transform="translate(1096.191406 0.015625)"/>
     <use xlink:href="#DejaVuSans-6f" transform="translate(1127.978516 0.015625)"/>
     <use xlink:href="#DejaVuSans-66" transform="translate(1189.160156 0.015625)"/>
     <use xlink:href="#DejaVuSans-20" transform="translate(1224.365234 0.015625)"/>
     <use xlink:href="#DejaVuSans-Oblique-58" transform="translate(1256.152344 0.015625)"/>
     <use xlink:href="#DejaVuSans-Oblique-74" transform="translate(1324.658203 -16.390625)scale(0.7)"/>
     <use xlink:href="#DejaVuSans-20" transform="translate(1354.838867 0.015625)"/>
     <use xlink:href="#DejaVuSans-61" transform="translate(1386.625977 0.015625)"/>
     <use xlink:href="#DejaVuSans-6e" transform="translate(1447.905273 0.015625)"/>
     <use xlink:href="#DejaVuSans-64" transform="translate(1511.28418 0.015625)"/>
     <use xlink:href="#DejaVuSans-20" transform="translate(1574.760742 0.015625)"/>
     <use xlink:href="#DejaVuSans-Oblique-53" transform="translate(1606.547852 0.015625)"/>
     <use xlink:href="#DejaVuSans-Oblique-74" transform="translate(1670.024414 -16.390625)scale(0.7)"/>
    </g>
   </g>
   <g id="legend_1">
    <g id="patch_7">
     <path d="M 133 103.874375 
L 335.1 103.874375 
Q 337.1 103.874375 337.1 101.874375 
L 337.1 58.84 
Q 337.1 56.84 335.1 56.84 
L 133 56.84 
Q 131 56.84 131 58.84 
L 131 101.874375 
Q 131 103.874375 133 103.874375 
z
" style="fill: #ffffff; opacity: 0.8; stroke: #cccccc; stroke-linejoin: miter"/>
    </g>
    <g id="line2d_15">
     <path d="M 135 64.938437 
L 145 64.938437 
L 155 64.938437 
" style="fill: none; stroke: #1f77b4; stroke-width: 1.5; stroke-linecap: square"/>
    </g>
    <g id="text_15">
     <!-- $X_t$ -->
     <g transform="translate(163 68.438437)scale(0.1 -0.1)">
      <use xlink:href="#DejaVuSans-Oblique-58" transform="translate(0 0.09375)"/>
      <use xlink:href="#DejaVuSans-Oblique-74" transform="translate(68.505859 -16.3125)scale(0.7)"/>
     </g>
    </g>
    <g id="line2d_16">
     <path d="M 135 79.616562 
L 145 79.616562 
L 155 79.616562 
" style="fill: none; stroke: #ff7f0e; stroke-width: 1.5; stroke-linecap: square"/>
    </g>
    <g id="text_16">
     <!-- $S_t$ -->
     <g transform="translate(163 83.116562)scale(0.1 -0.1)">
      <use xlink:href="#DejaVuSans-Oblique-53" transform="translate(0 0.78125)"/>
      <use xlink:href="#DejaVuSans-Oblique-74" transform="translate(63.476562 -15.625)scale(0.7)"/>
     </g>
    </g>
    <g id="line2d_17">
     <path d="M 135 94.294687 
L 145 94.294687 
L 155 94.294687 
" style="fill: none; stroke: #2ca02c; stroke-width: 1.5; stroke-linecap: square"/>
    </g>
    <g id="text_17">
     <!-- Quadratic Covariation of $X_t$ and $S_t$ -->
     <g transform="translate(163 97.794687)scale(0.1 -0.1)">
      <use xlink:href="#DejaVuSans-51" transform="translate(0 0.015625)"/>
      <use xlink:href="#DejaVuSans-75" transform="translate(78.710938 0.015625)"/>
      <use xlink:href="#DejaVuSans-61" transform="translate(142.089844 0.015625)"/>
      <use xlink:href="#DejaVuSans-64" transform="translate(203.369141 0.015625)"/>
      <use xlink:href="#DejaVuSans-72" transform="translate(266.845703 0.015625)"/>
      <use xlink:href="#DejaVuSans-61" transform="translate(307.958984 0.015625)"/>
      <use xlink:href="#DejaVuSans-74" transform="translate(369.238281 0.015625)"/>
      <use xlink:href="#DejaVuSans-69" transform="translate(408.447266 0.015625)"/>
      <use xlink:href="#DejaVuSans-63" transform="translate(436.230469 0.015625)"/>
      <use xlink:href="#DejaVuSans-20" transform="translate(491.210938 0.015625)"/>
      <use xlink:href="#DejaVuSans-43" transform="translate(522.998047 0.015625)"/>
      <use xlink:href="#DejaVuSans-6f" transform="translate(592.822266 0.015625)"/>
      <use xlink:href="#DejaVuSans-76" transform="translate(654.003906 0.015625)"/>
      <use xlink:href="#DejaVuSans-61" transform="translate(713.183594 0.015625)"/>
      <use xlink:href="#DejaVuSans-72" transform="translate(774.462891 0.015625)"/>
      <use xlink:href="#DejaVuSans-69" transform="translate(815.576172 0.015625)"/>
      <use xlink:href="#DejaVuSans-61" transform="translate(843.359375 0.015625)"/>
      <use xlink:href="#DejaVuSans-74" transform="translate(904.638672 0.015625)"/>
      <use xlink:href="#DejaVuSans-69" transform="translate(943.847656 0.015625)"/>
      <use xlink:href="#DejaVuSans-6f" transform="translate(971.630859 0.015625)"/>
      <use xlink:href="#DejaVuSans-6e" transform="translate(1032.8125 0.015625)"/>
      <use xlink:href="#DejaVuSans-20" transform="translate(1096.191406 0.015625)"/>
      <use xlink:href="#DejaVuSans-6f" transform="translate(1127.978516 0.015625)"/>
      <use xlink:href="#DejaVuSans-66" transform="translate(1189.160156 0.015625)"/>
      <use xlink:href="#DejaVuSans-20" transform="translate(1224.365234 0.015625)"/>
      <use xlink:href="#DejaVuSans-Oblique-58" transform="translate(1256.152344 0.015625)"/>
      <use xlink:href="#DejaVuSans-Oblique-74" transform="translate(1324.658203 -16.390625)scale(0.7)"/>
      <use xlink:href="#DejaVuSans-20" transform="translate(1354.838867 0.015625)"/>
      <use xlink:href="#DejaVuSans-61" transform="translate(1386.625977 0.015625)"/>
      <use xlink:href="#DejaVuSans-6e" transform="translate(1447.905273 0.015625)"/>
      <use xlink:href="#DejaVuSans-64" transform="translate(1511.28418 0.015625)"/>
      <use xlink:href="#DejaVuSans-20" transform="translate(1574.760742 0.015625)"/>
      <use xlink:href="#DejaVuSans-Oblique-53" transform="translate(1606.547852 0.015625)"/>
      <use xlink:href="#DejaVuSans-Oblique-74" transform="translate(1670.024414 -16.390625)scale(0.7)"/>
     </g>
    </g>
   </g>
  </g>
 </g>
 <defs>
  <clipPath id="p53026fd7e1">
   <rect x="126" y="51.84" width="781.2" height="332.64"/>
  </clipPath>
 </defs>
</svg>
