<?xml version="1.0" encoding="utf-8" standalone="no"?>
<!DOCTYPE svg PUBLIC "-//W3C//DTD SVG 1.1//EN"
  "http://www.w3.org/Graphics/SVG/1.1/DTD/svg11.dtd">
<svg xmlns:xlink="http://www.w3.org/1999/xlink" width="1008pt" height="432pt" viewBox="0 0 1008 432" xmlns="http://www.w3.org/2000/svg" version="1.1">
 <metadata>
  <rdf:RDF xmlns:dc="http://purl.org/dc/elements/1.1/" xmlns:cc="http://creativecommons.org/ns#" xmlns:rdf="http://www.w3.org/1999/02/22-rdf-syntax-ns#">
   <cc:Work>
    <dc:type rdf:resource="http://purl.org/dc/dcmitype/StillImage"/>
    <dc:date>2023-12-22T17:10:19.074489</dc:date>
    <dc:format>image/svg+xml</dc:format>
    <dc:creator>
     <cc:Agent>
      <dc:title>Matplotlib v3.5.2, https://matplotlib.org/</dc:title>
     </cc:Agent>
    </dc:creator>
   </cc:Work>
  </rdf:RDF>
 </metadata>
 <defs>
  <style type="text/css">*{stroke-linejoin: round; stroke-linecap: butt}</style>
 </defs>
 <g id="figure_1">
  <g id="patch_1">
   <path d="M 0 432 
L 1008 432 
L 1008 0 
L 0 0 
z
" style="fill: #ffffff"/>
  </g>
  <g id="axes_1">
   <g id="patch_2">
    <path d="M 126 384.48 
L 907.2 384.48 
L 907.2 51.84 
L 126 51.84 
z
" style="fill: #ffffff"/>
   </g>
   <g id="matplotlib.axis_1">
    <g id="xtick_1">
     <g id="line2d_1">
      <defs>
       <path id="m75e3f25b30" d="M 0 0 
L 0 3.5 
" style="stroke: #000000; stroke-width: 0.8"/>
      </defs>
      <g>
       <use xlink:href="#m75e3f25b30" x="161.509091" y="384.48" style="stroke: #000000; stroke-width: 0.8"/>
      </g>
     </g>
     <g id="text_1">
      <!-- 0.0 -->
      <g transform="translate(153.557528 399.078438)scale(0.1 -0.1)">
       <defs>
        <path id="DejaVuSans-30" d="M 2034 4250 
Q 1547 4250 1301 3770 
Q 1056 3291 1056 2328 
Q 1056 1369 1301 889 
Q 1547 409 2034 409 
Q 2525 409 2770 889 
Q 3016 1369 3016 2328 
Q 3016 3291 2770 3770 
Q 2525 4250 2034 4250 
z
M 2034 4750 
Q 2819 4750 3233 4129 
Q 3647 3509 3647 2328 
Q 3647 1150 3233 529 
Q 2819 -91 2034 -91 
Q 1250 -91 836 529 
Q 422 1150 422 2328 
Q 422 3509 836 4129 
Q 1250 4750 2034 4750 
z
" transform="scale(0.015625)"/>
        <path id="DejaVuSans-2e" d="M 684 794 
L 1344 794 
L 1344 0 
L 684 0 
L 684 794 
z
" transform="scale(0.015625)"/>
       </defs>
       <use xlink:href="#DejaVuSans-30"/>
       <use xlink:href="#DejaVuSans-2e" x="63.623047"/>
       <use xlink:href="#DejaVuSans-30" x="95.410156"/>
      </g>
     </g>
    </g>
    <g id="xtick_2">
     <g id="line2d_2">
      <g>
       <use xlink:href="#m75e3f25b30" x="303.545455" y="384.48" style="stroke: #000000; stroke-width: 0.8"/>
      </g>
     </g>
     <g id="text_2">
      <!-- 0.2 -->
      <g transform="translate(295.593892 399.078438)scale(0.1 -0.1)">
       <defs>
        <path id="DejaVuSans-32" d="M 1228 531 
L 3431 531 
L 3431 0 
L 469 0 
L 469 531 
Q 828 903 1448 1529 
Q 2069 2156 2228 2338 
Q 2531 2678 2651 2914 
Q 2772 3150 2772 3378 
Q 2772 3750 2511 3984 
Q 2250 4219 1831 4219 
Q 1534 4219 1204 4116 
Q 875 4013 500 3803 
L 500 4441 
Q 881 4594 1212 4672 
Q 1544 4750 1819 4750 
Q 2544 4750 2975 4387 
Q 3406 4025 3406 3419 
Q 3406 3131 3298 2873 
Q 3191 2616 2906 2266 
Q 2828 2175 2409 1742 
Q 1991 1309 1228 531 
z
" transform="scale(0.015625)"/>
       </defs>
       <use xlink:href="#DejaVuSans-30"/>
       <use xlink:href="#DejaVuSans-2e" x="63.623047"/>
       <use xlink:href="#DejaVuSans-32" x="95.410156"/>
      </g>
     </g>
    </g>
    <g id="xtick_3">
     <g id="line2d_3">
      <g>
       <use xlink:href="#m75e3f25b30" x="445.581818" y="384.48" style="stroke: #000000; stroke-width: 0.8"/>
      </g>
     </g>
     <g id="text_3">
      <!-- 0.4 -->
      <g transform="translate(437.630256 399.078438)scale(0.1 -0.1)">
       <defs>
        <path id="DejaVuSans-34" d="M 2419 4116 
L 825 1625 
L 2419 1625 
L 2419 4116 
z
M 2253 4666 
L 3047 4666 
L 3047 1625 
L 3713 1625 
L 3713 1100 
L 3047 1100 
L 3047 0 
L 2419 0 
L 2419 1100 
L 313 1100 
L 313 1709 
L 2253 4666 
z
" transform="scale(0.015625)"/>
       </defs>
       <use xlink:href="#DejaVuSans-30"/>
       <use xlink:href="#DejaVuSans-2e" x="63.623047"/>
       <use xlink:href="#DejaVuSans-34" x="95.410156"/>
      </g>
     </g>
    </g>
    <g id="xtick_4">
     <g id="line2d_4">
      <g>
       <use xlink:href="#m75e3f25b30" x="587.618182" y="384.48" style="stroke: #000000; stroke-width: 0.8"/>
      </g>
     </g>
     <g id="text_4">
      <!-- 0.6 -->
      <g transform="translate(579.666619 399.078438)scale(0.1 -0.1)">
       <defs>
        <path id="DejaVuSans-36" d="M 2113 2584 
Q 1688 2584 1439 2293 
Q 1191 2003 1191 1497 
Q 1191 994 1439 701 
Q 1688 409 2113 409 
Q 2538 409 2786 701 
Q 3034 994 3034 1497 
Q 3034 2003 2786 2293 
Q 2538 2584 2113 2584 
z
M 3366 4563 
L 3366 3988 
Q 3128 4100 2886 4159 
Q 2644 4219 2406 4219 
Q 1781 4219 1451 3797 
Q 1122 3375 1075 2522 
Q 1259 2794 1537 2939 
Q 1816 3084 2150 3084 
Q 2853 3084 3261 2657 
Q 3669 2231 3669 1497 
Q 3669 778 3244 343 
Q 2819 -91 2113 -91 
Q 1303 -91 875 529 
Q 447 1150 447 2328 
Q 447 3434 972 4092 
Q 1497 4750 2381 4750 
Q 2619 4750 2861 4703 
Q 3103 4656 3366 4563 
z
" transform="scale(0.015625)"/>
       </defs>
       <use xlink:href="#DejaVuSans-30"/>
       <use xlink:href="#DejaVuSans-2e" x="63.623047"/>
       <use xlink:href="#DejaVuSans-36" x="95.410156"/>
      </g>
     </g>
    </g>
    <g id="xtick_5">
     <g id="line2d_5">
      <g>
       <use xlink:href="#m75e3f25b30" x="729.654545" y="384.48" style="stroke: #000000; stroke-width: 0.8"/>
      </g>
     </g>
     <g id="text_5">
      <!-- 0.8 -->
      <g transform="translate(721.702983 399.078438)scale(0.1 -0.1)">
       <defs>
        <path id="DejaVuSans-38" d="M 2034 2216 
Q 1584 2216 1326 1975 
Q 1069 1734 1069 1313 
Q 1069 891 1326 650 
Q 1584 409 2034 409 
Q 2484 409 2743 651 
Q 3003 894 3003 1313 
Q 3003 1734 2745 1975 
Q 2488 2216 2034 2216 
z
M 1403 2484 
Q 997 2584 770 2862 
Q 544 3141 544 3541 
Q 544 4100 942 4425 
Q 1341 4750 2034 4750 
Q 2731 4750 3128 4425 
Q 3525 4100 3525 3541 
Q 3525 3141 3298 2862 
Q 3072 2584 2669 2484 
Q 3125 2378 3379 2068 
Q 3634 1759 3634 1313 
Q 3634 634 3220 271 
Q 2806 -91 2034 -91 
Q 1263 -91 848 271 
Q 434 634 434 1313 
Q 434 1759 690 2068 
Q 947 2378 1403 2484 
z
M 1172 3481 
Q 1172 3119 1398 2916 
Q 1625 2713 2034 2713 
Q 2441 2713 2670 2916 
Q 2900 3119 2900 3481 
Q 2900 3844 2670 4047 
Q 2441 4250 2034 4250 
Q 1625 4250 1398 4047 
Q 1172 3844 1172 3481 
z
" transform="scale(0.015625)"/>
       </defs>
       <use xlink:href="#DejaVuSans-30"/>
       <use xlink:href="#DejaVuSans-2e" x="63.623047"/>
       <use xlink:href="#DejaVuSans-38" x="95.410156"/>
      </g>
     </g>
    </g>
    <g id="xtick_6">
     <g id="line2d_6">
      <g>
       <use xlink:href="#m75e3f25b30" x="871.690909" y="384.48" style="stroke: #000000; stroke-width: 0.8"/>
      </g>
     </g>
     <g id="text_6">
      <!-- 1.0 -->
      <g transform="translate(863.739347 399.078438)scale(0.1 -0.1)">
       <defs>
        <path id="DejaVuSans-31" d="M 794 531 
L 1825 531 
L 1825 4091 
L 703 3866 
L 703 4441 
L 1819 4666 
L 2450 4666 
L 2450 531 
L 3481 531 
L 3481 0 
L 794 0 
L 794 531 
z
" transform="scale(0.015625)"/>
       </defs>
       <use xlink:href="#DejaVuSans-31"/>
       <use xlink:href="#DejaVuSans-2e" x="63.623047"/>
       <use xlink:href="#DejaVuSans-30" x="95.410156"/>
      </g>
     </g>
    </g>
    <g id="text_7">
     <!-- Time -->
     <g transform="translate(504.366406 412.756563)scale(0.1 -0.1)">
      <defs>
       <path id="DejaVuSans-54" d="M -19 4666 
L 3928 4666 
L 3928 4134 
L 2272 4134 
L 2272 0 
L 1638 0 
L 1638 4134 
L -19 4134 
L -19 4666 
z
" transform="scale(0.015625)"/>
       <path id="DejaVuSans-69" d="M 603 3500 
L 1178 3500 
L 1178 0 
L 603 0 
L 603 3500 
z
M 603 4863 
L 1178 4863 
L 1178 4134 
L 603 4134 
L 603 4863 
z
" transform="scale(0.015625)"/>
       <path id="DejaVuSans-6d" d="M 3328 2828 
Q 3544 3216 3844 3400 
Q 4144 3584 4550 3584 
Q 5097 3584 5394 3201 
Q 5691 2819 5691 2113 
L 5691 0 
L 5113 0 
L 5113 2094 
Q 5113 2597 4934 2840 
Q 4756 3084 4391 3084 
Q 3944 3084 3684 2787 
Q 3425 2491 3425 1978 
L 3425 0 
L 2847 0 
L 2847 2094 
Q 2847 2600 2669 2842 
Q 2491 3084 2119 3084 
Q 1678 3084 1418 2786 
Q 1159 2488 1159 1978 
L 1159 0 
L 581 0 
L 581 3500 
L 1159 3500 
L 1159 2956 
Q 1356 3278 1631 3431 
Q 1906 3584 2284 3584 
Q 2666 3584 2933 3390 
Q 3200 3197 3328 2828 
z
" transform="scale(0.015625)"/>
       <path id="DejaVuSans-65" d="M 3597 1894 
L 3597 1613 
L 953 1613 
Q 991 1019 1311 708 
Q 1631 397 2203 397 
Q 2534 397 2845 478 
Q 3156 559 3463 722 
L 3463 178 
Q 3153 47 2828 -22 
Q 2503 -91 2169 -91 
Q 1331 -91 842 396 
Q 353 884 353 1716 
Q 353 2575 817 3079 
Q 1281 3584 2069 3584 
Q 2775 3584 3186 3129 
Q 3597 2675 3597 1894 
z
M 3022 2063 
Q 3016 2534 2758 2815 
Q 2500 3097 2075 3097 
Q 1594 3097 1305 2825 
Q 1016 2553 972 2059 
L 3022 2063 
z
" transform="scale(0.015625)"/>
      </defs>
      <use xlink:href="#DejaVuSans-54"/>
      <use xlink:href="#DejaVuSans-69" x="57.958984"/>
      <use xlink:href="#DejaVuSans-6d" x="85.742188"/>
      <use xlink:href="#DejaVuSans-65" x="183.154297"/>
     </g>
    </g>
   </g>
   <g id="matplotlib.axis_2">
    <g id="ytick_1">
     <g id="line2d_7">
      <defs>
       <path id="m70b0335804" d="M 0 0 
L -3.5 0 
" style="stroke: #000000; stroke-width: 0.8"/>
      </defs>
      <g>
       <use xlink:href="#m70b0335804" x="126" y="337.066256" style="stroke: #000000; stroke-width: 0.8"/>
      </g>
     </g>
     <g id="text_8">
      <!-- −0.5 -->
      <g transform="translate(94.717187 340.865475)scale(0.1 -0.1)">
       <defs>
        <path id="DejaVuSans-2212" d="M 678 2272 
L 4684 2272 
L 4684 1741 
L 678 1741 
L 678 2272 
z
" transform="scale(0.015625)"/>
        <path id="DejaVuSans-35" d="M 691 4666 
L 3169 4666 
L 3169 4134 
L 1269 4134 
L 1269 2991 
Q 1406 3038 1543 3061 
Q 1681 3084 1819 3084 
Q 2600 3084 3056 2656 
Q 3513 2228 3513 1497 
Q 3513 744 3044 326 
Q 2575 -91 1722 -91 
Q 1428 -91 1123 -41 
Q 819 9 494 109 
L 494 744 
Q 775 591 1075 516 
Q 1375 441 1709 441 
Q 2250 441 2565 725 
Q 2881 1009 2881 1497 
Q 2881 1984 2565 2268 
Q 2250 2553 1709 2553 
Q 1456 2553 1204 2497 
Q 953 2441 691 2322 
L 691 4666 
z
" transform="scale(0.015625)"/>
       </defs>
       <use xlink:href="#DejaVuSans-2212"/>
       <use xlink:href="#DejaVuSans-30" x="83.789062"/>
       <use xlink:href="#DejaVuSans-2e" x="147.412109"/>
       <use xlink:href="#DejaVuSans-35" x="179.199219"/>
      </g>
     </g>
    </g>
    <g id="ytick_2">
     <g id="line2d_8">
      <g>
       <use xlink:href="#m70b0335804" x="126" y="273.861328" style="stroke: #000000; stroke-width: 0.8"/>
      </g>
     </g>
     <g id="text_9">
      <!-- 0.0 -->
      <g transform="translate(103.096875 277.660546)scale(0.1 -0.1)">
       <use xlink:href="#DejaVuSans-30"/>
       <use xlink:href="#DejaVuSans-2e" x="63.623047"/>
       <use xlink:href="#DejaVuSans-30" x="95.410156"/>
      </g>
     </g>
    </g>
    <g id="ytick_3">
     <g id="line2d_9">
      <g>
       <use xlink:href="#m70b0335804" x="126" y="210.656399" style="stroke: #000000; stroke-width: 0.8"/>
      </g>
     </g>
     <g id="text_10">
      <!-- 0.5 -->
      <g transform="translate(103.096875 214.455618)scale(0.1 -0.1)">
       <use xlink:href="#DejaVuSans-30"/>
       <use xlink:href="#DejaVuSans-2e" x="63.623047"/>
       <use xlink:href="#DejaVuSans-35" x="95.410156"/>
      </g>
     </g>
    </g>
    <g id="ytick_4">
     <g id="line2d_10">
      <g>
       <use xlink:href="#m70b0335804" x="126" y="147.451471" style="stroke: #000000; stroke-width: 0.8"/>
      </g>
     </g>
     <g id="text_11">
      <!-- 1.0 -->
      <g transform="translate(103.096875 151.25069)scale(0.1 -0.1)">
       <use xlink:href="#DejaVuSans-31"/>
       <use xlink:href="#DejaVuSans-2e" x="63.623047"/>
       <use xlink:href="#DejaVuSans-30" x="95.410156"/>
      </g>
     </g>
    </g>
    <g id="ytick_5">
     <g id="line2d_11">
      <g>
       <use xlink:href="#m70b0335804" x="126" y="84.246543" style="stroke: #000000; stroke-width: 0.8"/>
      </g>
     </g>
     <g id="text_12">
      <!-- 1.5 -->
      <g transform="translate(103.096875 88.045761)scale(0.1 -0.1)">
       <use xlink:href="#DejaVuSans-31"/>
       <use xlink:href="#DejaVuSans-2e" x="63.623047"/>
       <use xlink:href="#DejaVuSans-35" x="95.410156"/>
      </g>
     </g>
    </g>
    <g id="text_13">
     <!-- Quadratic Covariation -->
     <g transform="translate(88.6375 272.970156)rotate(-90)scale(0.1 -0.1)">
      <defs>
       <path id="DejaVuSans-51" d="M 2522 4238 
Q 1834 4238 1429 3725 
Q 1025 3213 1025 2328 
Q 1025 1447 1429 934 
Q 1834 422 2522 422 
Q 3209 422 3611 934 
Q 4013 1447 4013 2328 
Q 4013 3213 3611 3725 
Q 3209 4238 2522 4238 
z
M 3406 84 
L 4238 -825 
L 3475 -825 
L 2784 -78 
Q 2681 -84 2626 -87 
Q 2572 -91 2522 -91 
Q 1538 -91 948 567 
Q 359 1225 359 2328 
Q 359 3434 948 4092 
Q 1538 4750 2522 4750 
Q 3503 4750 4090 4092 
Q 4678 3434 4678 2328 
Q 4678 1516 4351 937 
Q 4025 359 3406 84 
z
" transform="scale(0.015625)"/>
       <path id="DejaVuSans-75" d="M 544 1381 
L 544 3500 
L 1119 3500 
L 1119 1403 
Q 1119 906 1312 657 
Q 1506 409 1894 409 
Q 2359 409 2629 706 
Q 2900 1003 2900 1516 
L 2900 3500 
L 3475 3500 
L 3475 0 
L 2900 0 
L 2900 538 
Q 2691 219 2414 64 
Q 2138 -91 1772 -91 
Q 1169 -91 856 284 
Q 544 659 544 1381 
z
M 1991 3584 
L 1991 3584 
z
" transform="scale(0.015625)"/>
       <path id="DejaVuSans-61" d="M 2194 1759 
Q 1497 1759 1228 1600 
Q 959 1441 959 1056 
Q 959 750 1161 570 
Q 1363 391 1709 391 
Q 2188 391 2477 730 
Q 2766 1069 2766 1631 
L 2766 1759 
L 2194 1759 
z
M 3341 1997 
L 3341 0 
L 2766 0 
L 2766 531 
Q 2569 213 2275 61 
Q 1981 -91 1556 -91 
Q 1019 -91 701 211 
Q 384 513 384 1019 
Q 384 1609 779 1909 
Q 1175 2209 1959 2209 
L 2766 2209 
L 2766 2266 
Q 2766 2663 2505 2880 
Q 2244 3097 1772 3097 
Q 1472 3097 1187 3025 
Q 903 2953 641 2809 
L 641 3341 
Q 956 3463 1253 3523 
Q 1550 3584 1831 3584 
Q 2591 3584 2966 3190 
Q 3341 2797 3341 1997 
z
" transform="scale(0.015625)"/>
       <path id="DejaVuSans-64" d="M 2906 2969 
L 2906 4863 
L 3481 4863 
L 3481 0 
L 2906 0 
L 2906 525 
Q 2725 213 2448 61 
Q 2172 -91 1784 -91 
Q 1150 -91 751 415 
Q 353 922 353 1747 
Q 353 2572 751 3078 
Q 1150 3584 1784 3584 
Q 2172 3584 2448 3432 
Q 2725 3281 2906 2969 
z
M 947 1747 
Q 947 1113 1208 752 
Q 1469 391 1925 391 
Q 2381 391 2643 752 
Q 2906 1113 2906 1747 
Q 2906 2381 2643 2742 
Q 2381 3103 1925 3103 
Q 1469 3103 1208 2742 
Q 947 2381 947 1747 
z
" transform="scale(0.015625)"/>
       <path id="DejaVuSans-72" d="M 2631 2963 
Q 2534 3019 2420 3045 
Q 2306 3072 2169 3072 
Q 1681 3072 1420 2755 
Q 1159 2438 1159 1844 
L 1159 0 
L 581 0 
L 581 3500 
L 1159 3500 
L 1159 2956 
Q 1341 3275 1631 3429 
Q 1922 3584 2338 3584 
Q 2397 3584 2469 3576 
Q 2541 3569 2628 3553 
L 2631 2963 
z
" transform="scale(0.015625)"/>
       <path id="DejaVuSans-74" d="M 1172 4494 
L 1172 3500 
L 2356 3500 
L 2356 3053 
L 1172 3053 
L 1172 1153 
Q 1172 725 1289 603 
Q 1406 481 1766 481 
L 2356 481 
L 2356 0 
L 1766 0 
Q 1100 0 847 248 
Q 594 497 594 1153 
L 594 3053 
L 172 3053 
L 172 3500 
L 594 3500 
L 594 4494 
L 1172 4494 
z
" transform="scale(0.015625)"/>
       <path id="DejaVuSans-63" d="M 3122 3366 
L 3122 2828 
Q 2878 2963 2633 3030 
Q 2388 3097 2138 3097 
Q 1578 3097 1268 2742 
Q 959 2388 959 1747 
Q 959 1106 1268 751 
Q 1578 397 2138 397 
Q 2388 397 2633 464 
Q 2878 531 3122 666 
L 3122 134 
Q 2881 22 2623 -34 
Q 2366 -91 2075 -91 
Q 1284 -91 818 406 
Q 353 903 353 1747 
Q 353 2603 823 3093 
Q 1294 3584 2113 3584 
Q 2378 3584 2631 3529 
Q 2884 3475 3122 3366 
z
" transform="scale(0.015625)"/>
       <path id="DejaVuSans-20" transform="scale(0.015625)"/>
       <path id="DejaVuSans-43" d="M 4122 4306 
L 4122 3641 
Q 3803 3938 3442 4084 
Q 3081 4231 2675 4231 
Q 1875 4231 1450 3742 
Q 1025 3253 1025 2328 
Q 1025 1406 1450 917 
Q 1875 428 2675 428 
Q 3081 428 3442 575 
Q 3803 722 4122 1019 
L 4122 359 
Q 3791 134 3420 21 
Q 3050 -91 2638 -91 
Q 1578 -91 968 557 
Q 359 1206 359 2328 
Q 359 3453 968 4101 
Q 1578 4750 2638 4750 
Q 3056 4750 3426 4639 
Q 3797 4528 4122 4306 
z
" transform="scale(0.015625)"/>
       <path id="DejaVuSans-6f" d="M 1959 3097 
Q 1497 3097 1228 2736 
Q 959 2375 959 1747 
Q 959 1119 1226 758 
Q 1494 397 1959 397 
Q 2419 397 2687 759 
Q 2956 1122 2956 1747 
Q 2956 2369 2687 2733 
Q 2419 3097 1959 3097 
z
M 1959 3584 
Q 2709 3584 3137 3096 
Q 3566 2609 3566 1747 
Q 3566 888 3137 398 
Q 2709 -91 1959 -91 
Q 1206 -91 779 398 
Q 353 888 353 1747 
Q 353 2609 779 3096 
Q 1206 3584 1959 3584 
z
" transform="scale(0.015625)"/>
       <path id="DejaVuSans-76" d="M 191 3500 
L 800 3500 
L 1894 563 
L 2988 3500 
L 3597 3500 
L 2284 0 
L 1503 0 
L 191 3500 
z
" transform="scale(0.015625)"/>
       <path id="DejaVuSans-6e" d="M 3513 2113 
L 3513 0 
L 2938 0 
L 2938 2094 
Q 2938 2591 2744 2837 
Q 2550 3084 2163 3084 
Q 1697 3084 1428 2787 
Q 1159 2491 1159 1978 
L 1159 0 
L 581 0 
L 581 3500 
L 1159 3500 
L 1159 2956 
Q 1366 3272 1645 3428 
Q 1925 3584 2291 3584 
Q 2894 3584 3203 3211 
Q 3513 2838 3513 2113 
z
" transform="scale(0.015625)"/>
      </defs>
      <use xlink:href="#DejaVuSans-51"/>
      <use xlink:href="#DejaVuSans-75" x="78.710938"/>
      <use xlink:href="#DejaVuSans-61" x="142.089844"/>
      <use xlink:href="#DejaVuSans-64" x="203.369141"/>
      <use xlink:href="#DejaVuSans-72" x="266.845703"/>
      <use xlink:href="#DejaVuSans-61" x="307.958984"/>
      <use xlink:href="#DejaVuSans-74" x="369.238281"/>
      <use xlink:href="#DejaVuSans-69" x="408.447266"/>
      <use xlink:href="#DejaVuSans-63" x="436.230469"/>
      <use xlink:href="#DejaVuSans-20" x="491.210938"/>
      <use xlink:href="#DejaVuSans-43" x="522.998047"/>
      <use xlink:href="#DejaVuSans-6f" x="592.822266"/>
      <use xlink:href="#DejaVuSans-76" x="654.003906"/>
      <use xlink:href="#DejaVuSans-61" x="713.183594"/>
      <use xlink:href="#DejaVuSans-72" x="774.462891"/>
      <use xlink:href="#DejaVuSans-69" x="815.576172"/>
      <use xlink:href="#DejaVuSans-61" x="843.359375"/>
      <use xlink:href="#DejaVuSans-74" x="904.638672"/>
      <use xlink:href="#DejaVuSans-69" x="943.847656"/>
      <use xlink:href="#DejaVuSans-6f" x="971.630859"/>
      <use xlink:href="#DejaVuSans-6e" x="1032.8125"/>
     </g>
    </g>
   </g>
   <g id="line2d_12">
    <path d="M 161.509091 147.451471 
L 162.219273 147.845066 
L 162.929455 150.872022 
L 163.639636 151.145459 
L 164.349818 153.831098 
L 165.06 151.512389 
L 165.770182 144.865539 
L 166.480364 148.527883 
L 167.900727 146.477744 
L 168.610909 145.120816 
L 170.741455 137.705623 
L 171.451636 138.268523 
L 172.161818 137.85275 
L 172.872 141.313871 
L 173.582182 145.7644 
L 174.292364 155.239648 
L 175.002545 150.624876 
L 175.712727 151.299725 
L 176.422909 151.4663 
L 177.133091 146.70793 
L 179.263636 139.404202 
L 179.973818 143.494979 
L 180.684 142.51799 
L 181.394182 144.025994 
L 182.104364 140.086127 
L 182.814545 137.690048 
L 183.524727 126.447479 
L 184.234909 122.775155 
L 184.945091 117.035349 
L 185.655273 109.964225 
L 186.365455 111.220428 
L 187.075636 110.4752 
L 187.785818 104.309775 
L 188.496 104.809393 
L 189.206182 105.841291 
L 189.916364 101.880654 
L 190.626545 101.362152 
L 191.336727 99.114096 
L 192.046909 100.166603 
L 192.757091 100.510587 
L 193.467273 96.408075 
L 194.177455 94.978159 
L 194.887636 91.127208 
L 195.597818 91.593425 
L 196.308 88.705115 
L 197.728364 99.086581 
L 198.438545 101.226514 
L 199.148727 100.670989 
L 199.858909 95.954409 
L 200.569091 97.234272 
L 201.279273 95.001996 
L 201.989455 99.584202 
L 203.409818 94.404541 
L 204.12 97.204548 
L 204.830182 103.453614 
L 205.540364 100.13685 
L 206.250545 97.847794 
L 206.960727 94.608638 
L 207.670909 98.520281 
L 208.381091 96.368353 
L 209.091273 102.586961 
L 209.801455 104.497954 
L 210.511636 107.594496 
L 211.221818 109.904154 
L 211.932 108.857057 
L 213.352364 114.006954 
L 214.062545 117.116756 
L 214.772727 111.40171 
L 215.482909 108.211224 
L 216.193091 112.694621 
L 216.903273 115.6615 
L 218.323636 120.598785 
L 219.033818 119.089455 
L 219.744 118.914051 
L 220.454182 117.597942 
L 221.164364 121.401453 
L 221.874545 121.707692 
L 222.584727 126.162958 
L 223.294909 128.628034 
L 224.005091 126.309676 
L 224.715273 116.140401 
L 225.425455 119.619058 
L 226.135636 121.314411 
L 226.845818 116.918789 
L 227.556 125.374421 
L 228.266182 127.664578 
L 228.976364 131.431084 
L 229.686545 128.853279 
L 230.396727 131.487051 
L 231.106909 133.520732 
L 231.817091 134.503434 
L 232.527273 144.129162 
L 233.237455 133.53906 
L 233.947636 136.893486 
L 234.657818 138.178362 
L 235.368 140.274079 
L 236.078182 143.400186 
L 236.788364 145.120258 
L 237.498545 144.803292 
L 238.208727 147.940285 
L 238.918909 151.737054 
L 239.629091 158.021247 
L 240.339273 162.066146 
L 241.049455 163.793996 
L 241.759636 166.225538 
L 242.469818 164.206328 
L 243.18 163.75847 
L 243.890182 167.992359 
L 244.600364 166.096009 
L 245.310545 165.317122 
L 246.020727 166.696552 
L 246.730909 164.291146 
L 247.441091 174.413922 
L 248.151273 176.50025 
L 248.861455 177.687872 
L 249.571636 182.035795 
L 250.281818 176.489118 
L 250.992 177.561325 
L 251.702182 188.157323 
L 252.412364 187.255158 
L 253.122545 185.92167 
L 253.832727 181.133986 
L 254.542909 177.185193 
L 255.253091 178.157008 
L 255.963273 182.005662 
L 256.673455 178.769125 
L 257.383636 179.579915 
L 258.093818 174.589765 
L 258.804 171.805064 
L 259.514182 171.503562 
L 260.224364 173.477411 
L 260.934545 168.251365 
L 261.644727 160.791481 
L 262.354909 165.136188 
L 263.065091 164.005146 
L 263.775273 164.865237 
L 264.485455 164.533002 
L 265.195636 160.533974 
L 265.905818 164.365988 
L 266.616 161.298675 
L 267.326182 155.269151 
L 268.036364 154.160726 
L 268.746545 155.146795 
L 269.456727 157.364906 
L 270.166909 167.661747 
L 270.877091 169.600522 
L 271.587273 173.535396 
L 272.297455 173.633482 
L 273.007636 177.254285 
L 273.717818 169.446055 
L 274.428 164.469719 
L 275.138182 157.601267 
L 275.848364 160.233874 
L 276.558545 165.678598 
L 277.978909 156.108186 
L 278.689091 154.783929 
L 279.399273 146.809454 
L 280.109455 146.592229 
L 280.819636 145.452431 
L 281.529818 146.153208 
L 282.24 141.537051 
L 282.950182 141.705829 
L 283.660364 143.83244 
L 284.370545 149.276558 
L 285.080727 149.341002 
L 285.790909 146.376643 
L 286.501091 151.90451 
L 287.211273 150.501808 
L 287.921455 148.842158 
L 288.631636 147.764683 
L 289.341818 143.684342 
L 290.052 136.976322 
L 290.762182 139.903855 
L 291.472364 141.924994 
L 292.182545 140.955158 
L 292.892727 137.898767 
L 293.602909 140.980462 
L 294.313091 139.009445 
L 295.023273 139.861595 
L 295.733455 143.631356 
L 296.443636 146.749068 
L 297.153818 157.161116 
L 297.864 157.010097 
L 298.574182 155.750341 
L 299.284364 158.184724 
L 300.704727 164.746461 
L 301.414909 164.81337 
L 302.125091 168.580971 
L 302.835273 170.224605 
L 303.545455 168.583294 
L 304.255636 165.299254 
L 304.965818 166.657188 
L 305.676 172.495274 
L 306.386182 172.820751 
L 307.096364 172.84954 
L 307.806545 174.302404 
L 308.516727 173.932807 
L 309.226909 175.151305 
L 309.937091 172.968573 
L 310.647273 182.698019 
L 312.067636 173.8251 
L 312.777818 176.880924 
L 313.488 170.972607 
L 314.198182 170.265499 
L 314.908364 169.152851 
L 315.618545 165.66356 
L 316.328727 164.115791 
L 317.749091 157.463966 
L 318.459273 160.186535 
L 319.169455 155.553236 
L 319.879636 156.188006 
L 320.589818 151.835811 
L 321.3 153.37662 
L 322.010182 153.646757 
L 322.720364 154.259242 
L 323.430545 150.59925 
L 324.140727 153.350531 
L 324.850909 158.540552 
L 325.561091 158.213051 
L 326.271273 165.673742 
L 326.981455 165.237019 
L 327.691636 170.040478 
L 328.401818 173.114035 
L 329.112 165.717951 
L 329.822182 160.111266 
L 330.532364 156.137207 
L 331.242545 154.551082 
L 331.952727 149.262893 
L 332.662909 144.949333 
L 333.373091 144.357521 
L 334.083273 149.681347 
L 334.793455 147.805212 
L 335.503636 144.962716 
L 336.924 149.710117 
L 337.634182 145.376479 
L 338.344364 144.851237 
L 339.054545 144.582822 
L 339.764727 140.845067 
L 340.474909 139.815325 
L 341.185091 140.301531 
L 341.895273 143.814204 
L 342.605455 144.348731 
L 343.315636 136.320914 
L 344.025818 134.885647 
L 344.736 135.899005 
L 345.446182 132.72328 
L 346.156364 133.067367 
L 346.866545 129.023304 
L 347.576727 132.004323 
L 348.286909 130.991336 
L 348.997091 133.423401 
L 349.707273 133.54146 
L 350.417455 133.04767 
L 351.127636 143.183222 
L 351.837818 138.196373 
L 352.548 139.161879 
L 353.258182 142.216976 
L 353.968364 143.303332 
L 354.678545 145.846761 
L 355.388727 141.183939 
L 356.098909 144.627761 
L 356.809091 140.995282 
L 357.519273 142.356912 
L 358.229455 149.515159 
L 358.939636 147.73307 
L 359.649818 152.986059 
L 360.36 153.523497 
L 361.070182 154.623371 
L 361.780364 147.72365 
L 362.490545 146.676089 
L 363.200727 147.898439 
L 363.910909 152.392144 
L 364.621091 153.60603 
L 365.331273 154.361656 
L 366.041455 156.307338 
L 366.751636 157.570254 
L 367.461818 160.922898 
L 368.172 156.486212 
L 368.882182 156.259769 
L 369.592364 158.749079 
L 370.302545 155.285711 
L 371.012727 159.631694 
L 371.722909 158.699086 
L 372.433091 163.016941 
L 373.143273 164.491197 
L 373.853455 169.581045 
L 374.563636 168.963154 
L 375.273818 176.021323 
L 375.984 174.243536 
L 376.694182 167.288352 
L 377.404364 168.460498 
L 378.114545 165.264437 
L 378.824727 168.497195 
L 379.534909 161.710396 
L 380.245091 161.140484 
L 380.955273 167.439649 
L 381.665455 166.444701 
L 382.375636 162.925955 
L 383.085818 167.672268 
L 383.796 170.538747 
L 384.506182 168.513413 
L 385.216364 168.670699 
L 385.926545 170.260183 
L 386.636727 166.854118 
L 387.346909 171.327262 
L 388.057091 173.572073 
L 388.767273 179.259712 
L 389.477455 180.446738 
L 390.187636 183.089781 
L 390.897818 179.992826 
L 391.608 182.355596 
L 392.318182 181.276589 
L 393.028364 178.573185 
L 393.738545 180.622105 
L 394.448727 180.772051 
L 395.158909 185.903552 
L 395.869091 188.729374 
L 396.579273 185.041175 
L 397.289455 185.209181 
L 397.999636 188.957277 
L 398.709818 191.668263 
L 399.42 192.259393 
L 400.130182 192.660626 
L 400.840364 195.388736 
L 401.550545 191.569868 
L 402.260727 191.292549 
L 402.970909 187.109214 
L 404.391273 173.62802 
L 405.101455 176.716758 
L 405.811636 173.020364 
L 406.521818 178.380806 
L 407.232 180.923849 
L 407.942182 178.318561 
L 408.652364 176.671643 
L 409.362545 173.44377 
L 410.072727 178.001369 
L 410.782909 179.8015 
L 411.493091 187.064951 
L 412.203273 188.545505 
L 412.913455 187.099074 
L 413.623636 188.842554 
L 414.333818 185.722752 
L 415.044 185.507438 
L 415.754182 188.970315 
L 416.464364 184.38668 
L 417.884727 179.596138 
L 418.594909 182.543118 
L 419.305091 180.703425 
L 420.015273 184.066106 
L 420.725455 185.146996 
L 421.435636 181.589104 
L 422.145818 183.386903 
L 422.856 179.888313 
L 423.566182 183.177525 
L 424.276364 181.997894 
L 424.986545 176.747537 
L 425.696727 177.542992 
L 426.406909 177.491164 
L 427.117091 179.397912 
L 427.827273 178.051225 
L 428.537455 172.40297 
L 429.247636 169.742009 
L 429.957818 177.299408 
L 430.668 172.956437 
L 431.378182 172.839237 
L 432.088364 165.013637 
L 432.798545 164.499666 
L 433.508727 167.62541 
L 434.929091 157.309359 
L 435.639273 159.30671 
L 436.349455 157.8963 
L 437.059636 158.60673 
L 437.769818 161.428725 
L 438.48 159.069109 
L 439.190182 160.146796 
L 439.900364 164.473462 
L 440.610545 162.785004 
L 441.320727 158.081338 
L 442.030909 157.747463 
L 442.741091 158.755856 
L 443.451273 157.982956 
L 444.161455 163.075231 
L 444.871636 164.317826 
L 445.581818 166.539274 
L 446.292 167.161646 
L 447.002182 171.526843 
L 447.712364 167.030967 
L 448.422545 161.340057 
L 449.132727 164.109805 
L 449.842909 173.749991 
L 450.553091 171.647959 
L 451.263273 177.14477 
L 451.973455 178.488975 
L 452.683636 175.209778 
L 453.393818 179.619764 
L 454.104 179.800634 
L 454.814182 178.200954 
L 455.524364 180.386155 
L 456.234545 180.990822 
L 456.944727 178.65915 
L 457.654909 185.025688 
L 458.365091 179.323286 
L 459.075273 178.619212 
L 459.785455 172.596321 
L 460.495636 172.4571 
L 461.205818 169.477172 
L 461.916 167.887289 
L 462.626182 171.081914 
L 463.336364 177.066523 
L 464.046545 174.761891 
L 464.756727 174.663667 
L 465.466909 177.32968 
L 466.177091 175.807995 
L 466.887273 172.908372 
L 467.597455 174.215732 
L 468.307636 175.777713 
L 469.017818 179.540345 
L 469.728 175.413134 
L 470.438182 175.780576 
L 471.148364 174.540517 
L 471.858545 180.247065 
L 472.568727 183.674199 
L 473.278909 184.817001 
L 473.989091 183.253798 
L 474.699273 180.5069 
L 475.409455 177.243028 
L 476.829818 180.459 
L 477.54 181.592929 
L 478.250182 184.198723 
L 478.960364 186.164283 
L 479.670545 181.856254 
L 480.380727 180.159054 
L 481.090909 186.258815 
L 481.801091 187.421427 
L 482.511273 194.0723 
L 483.221455 186.704258 
L 483.931636 188.731533 
L 484.641818 185.153045 
L 485.352 185.717234 
L 486.062182 179.434826 
L 486.772364 183.061783 
L 487.482545 183.525005 
L 488.902909 193.111749 
L 489.613091 184.798609 
L 490.323273 189.405173 
L 491.033455 187.601403 
L 491.743636 189.703131 
L 492.453818 193.809488 
L 493.164 191.799257 
L 493.874182 185.588923 
L 494.584364 192.779993 
L 495.294545 185.919862 
L 496.004727 181.736409 
L 496.714909 180.547913 
L 497.425091 175.252831 
L 498.135273 179.890489 
L 498.845455 181.554479 
L 499.555636 176.290801 
L 500.265818 166.91447 
L 500.976 166.146344 
L 501.686182 164.730988 
L 502.396364 169.118144 
L 503.106545 168.571484 
L 503.816727 163.636972 
L 504.526909 156.956587 
L 505.237091 160.045585 
L 505.947273 161.086202 
L 506.657455 165.952973 
L 507.367636 175.907313 
L 508.077818 170.276676 
L 508.788 173.877938 
L 509.498182 175.719664 
L 510.208364 175.495084 
L 510.918545 177.54567 
L 511.628727 172.839314 
L 512.338909 169.377184 
L 513.049091 169.876513 
L 513.759273 170.952715 
L 514.469455 165.854974 
L 515.179636 166.438177 
L 515.889818 163.905541 
L 516.6 157.723559 
L 517.310182 161.091633 
L 518.020364 158.121212 
L 520.150909 146.987051 
L 520.861091 140.685728 
L 521.571273 138.474189 
L 522.281455 134.882155 
L 522.991636 135.419656 
L 523.701818 135.19683 
L 524.412 136.685126 
L 525.122182 135.886266 
L 525.832364 142.881367 
L 526.542545 140.765293 
L 527.252727 143.842862 
L 527.962909 147.500928 
L 529.383273 147.40616 
L 530.093455 145.206481 
L 531.513818 153.898698 
L 532.224 154.282648 
L 534.354545 176.858994 
L 535.064727 178.863877 
L 535.774909 175.945791 
L 536.485091 178.308051 
L 538.615636 195.031108 
L 539.325818 193.510634 
L 540.036 191.001835 
L 540.746182 193.214303 
L 541.456364 193.865005 
L 542.166545 189.329142 
L 542.876727 188.744307 
L 543.586909 194.16733 
L 544.297091 192.177357 
L 545.007273 191.815875 
L 545.717455 192.153739 
L 546.427636 185.401894 
L 547.137818 183.992166 
L 547.848 190.50128 
L 548.558182 191.737176 
L 549.268364 192.712261 
L 549.978545 195.424814 
L 550.688727 197.588626 
L 551.398909 200.723234 
L 552.109091 201.913046 
L 552.819273 199.49858 
L 553.529455 195.89979 
L 554.239636 191.459885 
L 554.949818 194.271379 
L 555.66 198.130843 
L 556.370182 204.094018 
L 557.080364 201.455208 
L 557.790545 204.670184 
L 558.500727 202.629627 
L 559.210909 197.257973 
L 559.921091 194.988393 
L 560.631273 197.623315 
L 561.341455 196.890049 
L 562.051636 202.126382 
L 562.761818 205.914869 
L 563.472 201.604977 
L 564.182182 203.594378 
L 565.602545 208.51466 
L 566.312727 206.863085 
L 567.022909 215.063663 
L 567.733091 212.312088 
L 568.443273 219.487733 
L 569.153455 221.592081 
L 569.863636 219.30456 
L 570.573818 222.896354 
L 571.284 227.270384 
L 571.994182 225.326345 
L 572.704364 220.859136 
L 573.414545 222.281587 
L 574.124727 218.654431 
L 574.834909 216.671789 
L 575.545091 219.211254 
L 576.255273 216.838714 
L 576.965455 211.997134 
L 577.675636 215.366939 
L 578.385818 215.564768 
L 579.096 220.043043 
L 579.806182 218.994094 
L 580.516364 218.701339 
L 581.226545 221.07098 
L 581.936727 222.281435 
L 582.646909 221.133473 
L 583.357091 215.847205 
L 584.067273 222.98231 
L 584.777455 228.445335 
L 585.487636 227.822598 
L 586.197818 225.720401 
L 586.908 229.424401 
L 587.618182 221.068091 
L 588.328364 216.877076 
L 589.038545 214.242399 
L 589.748727 218.870847 
L 590.458909 214.253527 
L 591.169091 212.975141 
L 591.879273 220.465255 
L 592.589455 223.262416 
L 593.299636 217.157442 
L 594.009818 209.073135 
L 594.72 206.089663 
L 595.430182 207.225505 
L 596.140364 214.710778 
L 596.850545 212.469788 
L 597.560727 213.046354 
L 598.270909 211.16636 
L 598.981091 210.168802 
L 599.691273 215.044735 
L 601.111636 218.864896 
L 601.821818 220.359847 
L 602.532 223.8017 
L 603.242182 223.871243 
L 603.952364 229.380587 
L 604.662545 230.037951 
L 605.372727 231.524962 
L 606.082909 229.248727 
L 606.793091 221.701796 
L 607.503273 222.501535 
L 608.213455 223.937711 
L 608.923636 217.763912 
L 609.633818 222.855642 
L 610.344 219.339449 
L 611.054182 214.542534 
L 611.764364 207.947358 
L 612.474545 211.363757 
L 613.184727 210.250587 
L 613.894909 211.99844 
L 614.605091 219.022019 
L 615.315273 217.671403 
L 616.025455 223.910621 
L 616.735636 216.267339 
L 617.445818 217.166172 
L 618.156 218.491284 
L 618.866182 216.624165 
L 619.576364 216.777339 
L 620.286545 213.939467 
L 620.996727 216.372418 
L 621.706909 215.282238 
L 622.417091 206.32826 
L 623.837455 199.720644 
L 624.547636 203.867777 
L 625.257818 201.45131 
L 625.968 193.863436 
L 626.678182 196.181554 
L 627.388364 191.588149 
L 628.098545 194.449696 
L 628.808727 195.38164 
L 629.518909 193.416573 
L 630.229091 188.146094 
L 631.649455 203.092305 
L 632.359636 203.210441 
L 633.069818 207.505656 
L 633.78 210.71657 
L 634.490182 210.542997 
L 635.200364 203.888268 
L 635.910545 204.575986 
L 636.620727 201.193536 
L 637.330909 203.242171 
L 638.041091 206.765655 
L 638.751273 208.086667 
L 639.461455 209.914202 
L 640.171636 211.075509 
L 640.881818 211.427444 
L 641.592 210.233645 
L 642.302182 206.359729 
L 643.012364 198.676488 
L 643.722545 201.495278 
L 644.432727 194.507774 
L 645.142909 198.344624 
L 645.853091 198.480463 
L 646.563273 197.746529 
L 647.273455 197.641877 
L 647.983636 199.755648 
L 648.693818 203.687892 
L 649.404 205.410436 
L 650.114182 209.048223 
L 650.824364 208.329559 
L 651.534545 205.057097 
L 652.244727 206.001735 
L 652.954909 202.374028 
L 653.665091 204.006089 
L 654.375273 207.220057 
L 655.085455 204.698973 
L 655.795636 203.882029 
L 656.505818 202.409189 
L 657.216 207.13977 
L 657.926182 205.428474 
L 658.636364 209.746754 
L 659.346545 206.738937 
L 660.056727 216.017558 
L 660.766909 216.293936 
L 661.477091 221.679468 
L 662.187273 220.186543 
L 662.897455 223.943014 
L 663.607636 214.126712 
L 664.317818 215.084127 
L 665.028 217.243138 
L 665.738182 219.800313 
L 666.448364 224.319305 
L 667.158545 219.769658 
L 667.868727 217.117001 
L 668.578909 219.454466 
L 669.289091 220.810691 
L 669.999273 222.457277 
L 670.709455 223.656187 
L 671.419636 221.07034 
L 672.129818 225.559644 
L 672.84 226.032104 
L 673.550182 224.482153 
L 674.260364 231.361536 
L 674.970545 228.385289 
L 675.680727 231.263006 
L 676.390909 228.80598 
L 677.101091 231.828707 
L 677.811273 228.102431 
L 678.521455 227.325566 
L 679.231636 224.244315 
L 680.652 211.023638 
L 681.362182 218.499998 
L 682.072364 214.578204 
L 682.782545 214.074436 
L 684.202909 223.536016 
L 684.913091 226.5752 
L 685.623273 226.219894 
L 686.333455 221.559546 
L 687.043636 218.428572 
L 687.753818 214.726123 
L 688.464 219.664943 
L 689.174182 213.276818 
L 689.884364 217.779915 
L 690.594545 224.485481 
L 691.304727 229.830276 
L 692.014909 230.787045 
L 692.725091 237.853356 
L 693.435273 237.256749 
L 694.145455 235.93652 
L 694.855636 231.135449 
L 695.565818 238.444896 
L 696.276 243.255368 
L 696.986182 253.430603 
L 697.696364 257.988345 
L 698.406545 261.012478 
L 699.116727 255.967642 
L 699.826909 252.975098 
L 700.537091 252.497918 
L 701.247273 253.153565 
L 701.957455 248.952471 
L 702.667636 248.971579 
L 703.377818 256.512893 
L 704.088 258.588908 
L 704.798182 266.433343 
L 705.508364 264.500393 
L 706.218545 260.006556 
L 706.928727 251.20143 
L 707.638909 249.812724 
L 708.349091 249.285174 
L 709.059273 243.008753 
L 709.769455 245.578354 
L 710.479636 240.059905 
L 711.189818 239.181498 
L 711.9 233.987323 
L 712.610182 236.812914 
L 713.320364 237.05395 
L 714.030545 240.189282 
L 714.740727 241.246483 
L 715.450909 238.834661 
L 716.161091 230.186469 
L 716.871273 224.468322 
L 717.581455 222.057414 
L 718.291636 221.835121 
L 719.001818 231.02689 
L 720.422182 235.633848 
L 721.132364 237.553815 
L 721.842545 231.337375 
L 722.552727 234.576664 
L 723.262909 239.972447 
L 723.973091 240.3809 
L 724.683273 246.389959 
L 725.393455 240.522829 
L 726.103636 239.755996 
L 726.813818 242.803886 
L 727.524 238.721748 
L 728.234182 242.245882 
L 728.944364 239.724229 
L 729.654545 244.480941 
L 730.364727 253.107752 
L 731.074909 259.168322 
L 732.495273 265.241252 
L 733.205455 263.777235 
L 733.915636 260.555369 
L 734.625818 258.581869 
L 735.336 250.662841 
L 736.046182 249.977351 
L 736.756364 245.740618 
L 737.466545 246.253086 
L 738.176727 252.909229 
L 738.886909 252.380646 
L 740.307273 256.334129 
L 741.017455 266.744549 
L 741.727636 264.348691 
L 742.437818 261.377488 
L 743.148 265.489872 
L 743.858182 264.940572 
L 744.568364 274.782809 
L 745.278545 273.351817 
L 745.988727 275.502967 
L 746.698909 278.667845 
L 747.409091 277.092144 
L 748.119273 277.393552 
L 748.829455 269.340671 
L 749.539636 274.171441 
L 750.249818 272.091171 
L 751.670182 261.807074 
L 752.380364 264.689834 
L 753.090545 257.257531 
L 753.800727 257.815532 
L 754.510909 260.112459 
L 755.931273 257.539773 
L 756.641455 260.036441 
L 757.351636 263.775886 
L 758.061818 260.657787 
L 758.772 257.01886 
L 759.482182 250.8975 
L 760.192364 251.430845 
L 760.902545 245.312155 
L 761.612727 241.948256 
L 762.322909 242.244148 
L 763.033091 243.043602 
L 763.743273 246.211541 
L 764.453455 245.242519 
L 765.163636 245.244491 
L 765.873818 246.419041 
L 766.584 242.717435 
L 767.294182 242.271936 
L 768.004364 237.659536 
L 768.714545 239.3405 
L 769.424727 222.476007 
L 770.134909 224.597583 
L 770.845091 227.467508 
L 771.555273 228.792784 
L 772.265455 230.828677 
L 772.975636 231.499859 
L 773.685818 231.000785 
L 774.396 236.360416 
L 775.106182 238.27748 
L 775.816364 242.628931 
L 776.526545 240.797951 
L 777.236727 241.02395 
L 777.946909 241.444191 
L 778.657091 236.655304 
L 779.367273 239.211137 
L 780.077455 243.224632 
L 780.787636 246.209495 
L 781.497818 248.603663 
L 782.208 252.617945 
L 782.918182 259.712198 
L 783.628364 262.461629 
L 784.338545 256.562912 
L 785.048727 254.062187 
L 785.758909 252.133719 
L 786.469091 253.281752 
L 787.179273 255.323363 
L 787.889455 260.125213 
L 788.599636 262.476337 
L 789.309818 264.422789 
L 790.730182 253.770738 
L 791.440364 252.923194 
L 792.150545 248.78837 
L 792.860727 246.170066 
L 793.570909 247.340043 
L 794.281091 244.771088 
L 794.991273 241.542641 
L 795.701455 240.999771 
L 796.411636 239.469575 
L 797.121818 241.884516 
L 797.832 242.628823 
L 798.542182 238.475995 
L 799.252364 237.817599 
L 799.962545 239.731971 
L 800.672727 236.463406 
L 801.382909 235.100431 
L 802.803273 244.105001 
L 803.513455 250.426593 
L 804.223636 252.269699 
L 804.933818 247.066467 
L 806.354182 240.389504 
L 807.064364 241.173767 
L 807.774545 249.070886 
L 808.484727 250.298238 
L 809.194909 248.658325 
L 809.905091 252.249481 
L 810.615273 253.509518 
L 811.325455 252.003512 
L 812.035636 253.487495 
L 812.745818 260.166113 
L 813.456 263.75713 
L 814.166182 269.148861 
L 814.876364 266.932419 
L 815.586545 271.589802 
L 816.296727 266.165435 
L 817.006909 263.094731 
L 817.717091 257.213864 
L 818.427273 256.290278 
L 819.137455 258.875754 
L 821.268 274.923026 
L 821.978182 284.11407 
L 823.398545 274.195651 
L 824.108727 282.065852 
L 824.818909 286.616346 
L 825.529091 282.098556 
L 826.239273 281.040067 
L 826.949455 279.236148 
L 827.659636 280.539357 
L 828.369818 283.553525 
L 829.08 281.69936 
L 829.790182 272.358943 
L 830.500364 273.054928 
L 831.210545 284.761421 
L 831.920727 279.353259 
L 832.630909 280.439168 
L 833.341091 282.343269 
L 834.051273 282.789964 
L 834.761455 277.05692 
L 835.471636 279.852104 
L 836.181818 282.194 
L 836.892 280.207977 
L 837.602182 278.922609 
L 838.312364 278.003167 
L 839.022545 283.503813 
L 839.732727 285.684507 
L 840.442909 276.610467 
L 841.153091 277.596985 
L 841.863273 275.378904 
L 842.573455 276.692714 
L 843.283636 270.688166 
L 843.993818 276.290737 
L 844.704 273.199518 
L 845.414182 273.129511 
L 846.124364 264.902789 
L 846.834545 271.855379 
L 847.544727 268.524799 
L 848.965091 269.578759 
L 849.675273 264.393105 
L 850.385455 257.161591 
L 851.095636 259.471186 
L 851.805818 259.335911 
L 852.516 253.359384 
L 853.226182 252.972823 
L 853.936364 248.465136 
L 854.646545 258.483026 
L 855.356727 260.357926 
L 856.066909 265.441295 
L 856.777091 266.454071 
L 857.487273 257.890209 
L 858.197455 254.654259 
L 858.907636 257.867319 
L 859.617818 259.663501 
L 860.328 266.680062 
L 861.038182 268.877812 
L 861.748364 270.507061 
L 862.458545 264.500814 
L 863.168727 265.902818 
L 863.878909 268.065466 
L 864.589091 270.749094 
L 866.009455 278.84062 
L 866.719636 275.829915 
L 867.429818 277.216317 
L 868.14 275.570849 
L 868.850182 276.092039 
L 869.560364 279.146676 
L 870.270545 284.75396 
L 870.980727 283.447315 
L 871.690909 284.476545 
L 871.690909 284.476545 
" clip-path="url(#pa1750a5362)" style="fill: none; stroke: #1f77b4; stroke-width: 1.5; stroke-linecap: square"/>
   </g>
   <g id="line2d_13">
    <path d="M 161.509091 147.451471 
L 162.219273 153.696142 
L 162.929455 161.084991 
L 163.639636 158.888535 
L 164.349818 161.044134 
L 165.06 157.550312 
L 165.770182 150.121871 
L 166.480364 150.19017 
L 167.900727 134.238177 
L 168.610909 132.363406 
L 169.321091 136.393313 
L 170.741455 122.617398 
L 171.451636 119.061543 
L 172.161818 114.166424 
L 172.872 111.20399 
L 173.582182 109.975182 
L 174.292364 121.337484 
L 175.002545 118.608327 
L 175.712727 122.950407 
L 176.422909 125.722176 
L 177.133091 118.608167 
L 177.843273 119.609754 
L 178.553455 115.308629 
L 179.263636 114.946882 
L 179.973818 121.315007 
L 180.684 123.073673 
L 181.394182 124.063876 
L 182.104364 114.889319 
L 182.814545 112.411261 
L 183.524727 93.112328 
L 184.234909 92.614089 
L 184.945091 78.77245 
L 185.655273 78.661209 
L 186.365455 76.35425 
L 187.075636 76.765808 
L 187.785818 78.278646 
L 188.496 76.817248 
L 189.206182 79.835337 
L 189.916364 76.813678 
L 190.626545 75.87769 
L 192.046909 83.836171 
L 192.757091 82.471435 
L 193.467273 75.464422 
L 194.177455 74.585902 
L 194.887636 71.09978 
L 195.597818 72.847761 
L 196.308 70.240779 
L 197.018182 71.407674 
L 197.728364 74.98549 
L 198.438545 77.791087 
L 199.148727 78.417996 
L 199.858909 76.744209 
L 200.569091 76.012554 
L 201.279273 79.197405 
L 201.989455 84.388298 
L 202.699636 75.072141 
L 203.409818 72.172015 
L 205.540364 75.96446 
L 206.250545 69.249999 
L 206.960727 66.96 
L 207.670909 77.364829 
L 208.381091 70.98087 
L 209.091273 78.344046 
L 209.801455 81.010391 
L 210.511636 77.901294 
L 211.221818 86.475495 
L 211.932 74.539267 
L 212.642182 81.253132 
L 213.352364 83.405612 
L 214.062545 91.397577 
L 214.772727 74.730563 
L 215.482909 69.223254 
L 216.193091 74.626907 
L 216.903273 75.61691 
L 217.613455 75.708696 
L 218.323636 79.475453 
L 219.033818 77.58791 
L 219.744 76.052901 
L 220.454182 73.690244 
L 221.164364 75.565422 
L 221.874545 70.77143 
L 222.584727 74.70364 
L 223.294909 75.571639 
L 224.005091 79.372971 
L 224.715273 73.632807 
L 225.425455 75.632233 
L 226.135636 78.592854 
L 226.845818 73.494984 
L 227.556 74.924306 
L 228.976364 86.68364 
L 229.686545 82.705734 
L 230.396727 86.586603 
L 231.106909 86.098762 
L 231.817091 90.89853 
L 232.527273 109.071028 
L 233.237455 108.468355 
L 233.947636 103.047117 
L 234.657818 99.650172 
L 235.368 104.037004 
L 236.078182 106.057541 
L 236.788364 102.963668 
L 237.498545 98.353235 
L 238.208727 105.798188 
L 238.918909 116.850972 
L 239.629091 125.180662 
L 240.339273 126.930461 
L 241.049455 131.108206 
L 242.469818 126.126065 
L 243.18 129.819022 
L 243.890182 139.191746 
L 244.600364 144.827757 
L 245.310545 149.066691 
L 246.020727 147.541653 
L 246.730909 148.677625 
L 247.441091 158.858987 
L 248.151273 157.586615 
L 248.861455 160.961028 
L 249.571636 162.189757 
L 250.992 149.455373 
L 251.702182 154.403726 
L 252.412364 156.225337 
L 253.122545 155.29188 
L 253.832727 149.981533 
L 254.542909 147.884247 
L 255.253091 157.829658 
L 255.963273 158.65316 
L 256.673455 157.426767 
L 257.383636 155.076106 
L 258.093818 144.96225 
L 258.804 140.424956 
L 259.514182 142.222608 
L 260.224364 145.818691 
L 260.934545 139.525659 
L 261.644727 129.114006 
L 262.354909 135.921171 
L 263.065091 136.926338 
L 263.775273 136.253153 
L 264.485455 138.3894 
L 265.195636 132.319745 
L 265.905818 138.307693 
L 266.616 134.8009 
L 267.326182 128.456405 
L 268.036364 133.672436 
L 268.746545 134.252366 
L 269.456727 138.704673 
L 270.166909 155.292904 
L 270.877091 159.957908 
L 271.587273 167.37857 
L 272.297455 164.230605 
L 273.007636 164.50326 
L 273.717818 155.311722 
L 274.428 148.739014 
L 275.848364 127.573048 
L 276.558545 130.279548 
L 277.268727 126.522753 
L 277.978909 124.105082 
L 278.689091 124.001193 
L 279.399273 112.352101 
L 280.109455 110.645603 
L 280.819636 108.378523 
L 281.529818 110.612316 
L 282.24 107.224839 
L 282.950182 101.695978 
L 283.660364 105.556993 
L 284.370545 116.706105 
L 285.080727 117.360229 
L 285.790909 122.05646 
L 286.501091 132.630854 
L 287.211273 125.885023 
L 288.631636 128.634386 
L 289.341818 118.23058 
L 290.052 116.091432 
L 290.762182 121.189575 
L 291.472364 118.391159 
L 292.182545 117.482646 
L 292.892727 124.451435 
L 293.602909 125.781432 
L 294.313091 120.273389 
L 295.023273 117.845879 
L 295.733455 121.528702 
L 296.443636 121.673588 
L 297.153818 132.995238 
L 297.864 134.895526 
L 298.574182 128.065155 
L 299.284364 130.847785 
L 299.994545 132.973164 
L 300.704727 143.046322 
L 301.414909 139.975112 
L 302.125091 142.193673 
L 302.835273 139.873529 
L 303.545455 138.302206 
L 304.255636 142.923557 
L 304.965818 136.034864 
L 305.676 142.624025 
L 306.386182 146.790233 
L 307.096364 146.104558 
L 308.516727 145.652176 
L 309.226909 147.203545 
L 309.937091 145.99652 
L 310.647273 152.307588 
L 312.067636 136.077836 
L 312.777818 139.634192 
L 313.488 130.393354 
L 314.198182 128.362551 
L 314.908364 126.957496 
L 315.618545 123.884919 
L 317.038909 114.583589 
L 317.749091 113.115438 
L 318.459273 116.460997 
L 319.169455 111.137279 
L 319.879636 111.453951 
L 320.589818 108.39301 
L 322.010182 99.744078 
L 322.720364 103.174347 
L 323.430545 102.605157 
L 324.140727 110.190175 
L 324.850909 120.090121 
L 325.561091 115.372505 
L 326.271273 130.087463 
L 326.981455 124.493334 
L 327.691636 129.93542 
L 328.401818 127.845425 
L 329.112 118.108192 
L 329.822182 110.217841 
L 331.242545 101.750098 
L 331.952727 108.87598 
L 332.662909 102.82368 
L 333.373091 99.658863 
L 334.083273 108.468127 
L 334.793455 107.205089 
L 335.503636 99.145279 
L 336.213818 100.604605 
L 336.924 101.532301 
L 337.634182 105.420265 
L 338.344364 104.839231 
L 339.054545 99.187384 
L 339.764727 95.57804 
L 340.474909 97.628054 
L 341.185091 96.091329 
L 341.895273 105.698799 
L 342.605455 104.908209 
L 343.315636 102.884568 
L 344.025818 100.419035 
L 344.736 96.151501 
L 345.446182 87.932645 
L 346.156364 88.790562 
L 346.866545 85.934931 
L 347.576727 88.05538 
L 348.286909 86.76246 
L 348.997091 87.156504 
L 349.707273 95.274081 
L 350.417455 94.121192 
L 351.127636 109.44467 
L 351.837818 107.481257 
L 352.548 108.481807 
L 353.258182 111.750999 
L 353.968364 110.599761 
L 354.678545 119.066912 
L 355.388727 112.472199 
L 356.098909 116.519012 
L 356.809091 113.743716 
L 357.519273 115.087337 
L 358.229455 128.110923 
L 358.939636 120.538785 
L 359.649818 125.803076 
L 360.36 124.200432 
L 361.070182 116.473042 
L 361.780364 112.562134 
L 362.490545 111.16691 
L 363.200727 111.348797 
L 363.910909 112.498701 
L 364.621091 108.115536 
L 365.331273 104.657 
L 366.041455 106.769307 
L 366.751636 114.871299 
L 367.461818 124.487796 
L 368.172 116.367825 
L 368.882182 117.320028 
L 369.592364 117.146782 
L 370.302545 117.152808 
L 371.012727 118.965224 
L 371.722909 114.836266 
L 372.433091 119.467777 
L 373.143273 118.546411 
L 373.853455 124.339216 
L 374.563636 123.697766 
L 375.273818 125.11823 
L 375.984 118.273789 
L 376.694182 115.797407 
L 377.404364 111.861436 
L 378.114545 111.551812 
L 378.824727 113.50727 
L 379.534909 108.937016 
L 380.245091 117.384737 
L 380.955273 121.418987 
L 381.665455 120.615184 
L 382.375636 122.610953 
L 383.085818 113.730797 
L 383.796 116.088403 
L 384.506182 115.967314 
L 385.216364 114.001448 
L 385.926545 121.991691 
L 386.636727 113.551812 
L 387.346909 122.245815 
L 388.057091 124.749548 
L 388.767273 122.532496 
L 389.477455 122.977636 
L 390.187636 128.802491 
L 390.897818 127.358433 
L 391.608 125.075382 
L 392.318182 128.366984 
L 393.028364 132.311762 
L 393.738545 134.479361 
L 394.448727 134.603908 
L 395.158909 143.232496 
L 395.869091 148.799573 
L 396.579273 148.624431 
L 397.999636 158.64213 
L 398.709818 160.278801 
L 399.42 158.860705 
L 400.130182 160.510009 
L 400.840364 166.058973 
L 401.550545 165.215404 
L 402.260727 165.55017 
L 402.970909 164.385329 
L 403.681091 157.094008 
L 404.391273 152.201289 
L 405.101455 150.130859 
L 405.811636 155.486376 
L 406.521818 166.191926 
L 407.232 174.462832 
L 407.942182 179.868933 
L 408.652364 181.78539 
L 409.362545 180.384043 
L 410.072727 183.077532 
L 410.782909 189.270805 
L 411.493091 203.854924 
L 412.203273 197.77599 
L 412.913455 190.057532 
L 413.623636 195.959375 
L 414.333818 195.776198 
L 415.044 194.488314 
L 415.754182 191.606643 
L 416.464364 193.764413 
L 417.174545 190.243045 
L 417.884727 188.86895 
L 418.594909 192.994814 
L 419.305091 188.445979 
L 420.015273 192.252752 
L 420.725455 191.107736 
L 421.435636 191.808584 
L 422.145818 194.331026 
L 422.856 191.885435 
L 423.566182 192.222451 
L 424.276364 190.502288 
L 424.986545 181.765297 
L 427.827273 194.413003 
L 428.537455 195.443286 
L 429.247636 192.979162 
L 429.957818 200.787557 
L 430.668 199.502973 
L 431.378182 199.714291 
L 432.088364 195.758688 
L 432.798545 194.83573 
L 433.508727 195.43781 
L 434.218909 189.993378 
L 434.929091 182.287543 
L 435.639273 179.519525 
L 436.349455 188.971433 
L 437.059636 191.754661 
L 437.769818 193.015589 
L 438.48 187.519968 
L 439.190182 191.571961 
L 439.900364 192.090144 
L 440.610545 189.030724 
L 441.320727 186.628365 
L 442.030909 181.93346 
L 442.741091 188.261606 
L 443.451273 186.776261 
L 444.161455 192.349788 
L 444.871636 190.691656 
L 445.581818 194.229406 
L 446.292 193.276106 
L 447.002182 202.430476 
L 447.712364 201.102331 
L 448.422545 188.489582 
L 449.132727 189.411712 
L 449.842909 190.951707 
L 450.553091 186.57215 
L 451.263273 199.296348 
L 451.973455 193.094159 
L 452.683636 194.284462 
L 453.393818 194.505789 
L 454.104 189.278114 
L 454.814182 187.909823 
L 455.524364 190.117267 
L 456.234545 184.108702 
L 456.944727 179.302537 
L 457.654909 191.39253 
L 458.365091 180.339441 
L 459.075273 179.798924 
L 459.785455 174.2231 
L 460.495636 173.012926 
L 461.205818 165.530292 
L 461.916 166.81893 
L 462.626182 169.470841 
L 463.336364 176.336669 
L 464.046545 173.00114 
L 464.756727 174.966913 
L 465.466909 170.377141 
L 466.177091 169.042859 
L 466.887273 170.165513 
L 467.597455 166.105332 
L 468.307636 167.297144 
L 469.017818 172.133365 
L 470.438182 172.65118 
L 471.858545 186.647715 
L 472.568727 185.670367 
L 473.278909 191.952301 
L 473.989091 191.570743 
L 474.699273 191.022078 
L 475.409455 186.407073 
L 476.119636 183.675577 
L 476.829818 183.482754 
L 477.54 184.733484 
L 478.250182 191.004099 
L 478.960364 199.854289 
L 479.670545 203.653837 
L 480.380727 202.723323 
L 481.090909 211.834389 
L 481.801091 218.970385 
L 482.511273 227.488784 
L 483.221455 207.779419 
L 483.931636 207.66153 
L 484.641818 195.977846 
L 485.352 195.102419 
L 486.062182 190.789749 
L 486.772364 194.331914 
L 487.482545 192.40041 
L 488.192727 192.402002 
L 488.902909 190.652649 
L 489.613091 181.273473 
L 490.323273 189.484773 
L 491.743636 180.9295 
L 492.453818 193.162768 
L 493.164 191.956705 
L 493.874182 186.742695 
L 494.584364 196.663953 
L 495.294545 188.12409 
L 496.004727 185.222645 
L 496.714909 185.539092 
L 497.425091 179.916015 
L 498.135273 176.582572 
L 498.845455 186.162563 
L 499.555636 183.584723 
L 500.265818 176.426084 
L 500.976 174.388356 
L 501.686182 176.21625 
L 502.396364 186.267056 
L 503.106545 185.291458 
L 503.816727 180.444478 
L 504.526909 168.490458 
L 505.237091 174.106106 
L 505.947273 173.085315 
L 506.657455 180.577405 
L 507.367636 197.764833 
L 508.077818 192.296027 
L 508.788 188.291109 
L 509.498182 190.821095 
L 510.208364 191.420099 
L 510.918545 195.941333 
L 511.628727 196.486773 
L 512.338909 192.675244 
L 513.049091 190.871673 
L 513.759273 193.605853 
L 514.469455 187.781128 
L 515.179636 187.872511 
L 515.889818 188.618721 
L 516.6 184.049014 
L 517.310182 191.583941 
L 518.730545 177.145163 
L 519.440727 162.859826 
L 520.150909 159.811772 
L 520.861091 150.467569 
L 521.571273 151.519501 
L 522.281455 146.659309 
L 522.991636 144.008997 
L 523.701818 142.542255 
L 524.412 147.786676 
L 525.122182 144.0449 
L 525.832364 157.313078 
L 526.542545 157.328817 
L 527.252727 169.476975 
L 527.962909 178.371939 
L 528.673091 178.923384 
L 529.383273 180.933483 
L 530.093455 174.73275 
L 530.803636 177.962265 
L 531.513818 182.682127 
L 532.934182 178.683983 
L 533.644364 185.961646 
L 534.354545 203.455095 
L 535.064727 204.836144 
L 535.774909 204.955019 
L 537.195273 221.25795 
L 537.905455 225.795552 
L 538.615636 233.84936 
L 540.036 228.280466 
L 540.746182 230.01078 
L 541.456364 229.131393 
L 542.166545 219.894061 
L 542.876727 216.9218 
L 543.586909 226.206904 
L 545.007273 222.353281 
L 545.717455 226.01221 
L 547.137818 205.00801 
L 547.848 215.734134 
L 548.558182 223.483157 
L 549.978545 229.257223 
L 550.688727 233.107857 
L 551.398909 240.725951 
L 552.819273 244.560583 
L 553.529455 244.82937 
L 554.239636 250.641465 
L 554.949818 247.269988 
L 555.66 254.772139 
L 556.370182 256.884236 
L 557.080364 252.578289 
L 557.790545 254.410502 
L 558.500727 252.57714 
L 559.210909 247.477833 
L 559.921091 244.912942 
L 560.631273 248.301479 
L 561.341455 245.26452 
L 562.051636 248.449486 
L 562.761818 253.076162 
L 563.472 247.394671 
L 564.182182 248.035407 
L 564.892364 244.347592 
L 565.602545 244.174601 
L 566.312727 250.958087 
L 567.733091 257.527347 
L 568.443273 260.162571 
L 569.153455 261.085803 
L 569.863636 256.710792 
L 570.573818 261.393359 
L 571.284 262.73061 
L 571.994182 264.60686 
L 572.704364 259.544195 
L 573.414545 264.080243 
L 574.124727 263.216659 
L 574.834909 263.761735 
L 575.545091 264.119643 
L 576.965455 255.609265 
L 577.675636 255.402159 
L 578.385818 252.305348 
L 579.096 261.866379 
L 579.806182 267.003795 
L 580.516364 269.325797 
L 581.226545 274.587249 
L 581.936727 275.131572 
L 582.646909 277.160002 
L 583.357091 270.207172 
L 584.067273 274.134339 
L 584.777455 287.067247 
L 585.487636 282.474653 
L 586.197818 274.719561 
L 586.908 272.409144 
L 587.618182 264.432478 
L 588.328364 261.861456 
L 589.038545 256.391729 
L 589.748727 261.27003 
L 590.458909 248.323133 
L 591.169091 247.729439 
L 591.879273 253.983302 
L 592.589455 251.60453 
L 593.299636 242.218627 
L 594.009818 236.79791 
L 594.72 228.346701 
L 595.430182 229.141639 
L 596.140364 240.16077 
L 596.850545 233.707932 
L 597.560727 235.06546 
L 598.270909 230.259395 
L 598.981091 228.640797 
L 599.691273 231.245882 
L 600.401455 235.903794 
L 601.111636 236.696077 
L 601.821818 238.526763 
L 602.532 238.950192 
L 603.242182 234.627155 
L 603.952364 245.651084 
L 604.662545 241.093564 
L 605.372727 244.429955 
L 606.082909 245.206075 
L 606.793091 233.770285 
L 607.503273 230.816763 
L 608.923636 218.894945 
L 609.633818 228.045333 
L 610.344 225.64875 
L 611.054182 227.156564 
L 611.764364 229.181399 
L 612.474545 237.858912 
L 613.184727 236.27297 
L 613.894909 232.465028 
L 614.605091 246.904228 
L 615.315273 240.292196 
L 616.025455 245.670778 
L 616.735636 239.550242 
L 617.445818 231.214572 
L 618.156 231.326493 
L 618.866182 233.646372 
L 619.576364 237.956992 
L 620.286545 240.207161 
L 621.706909 246.418193 
L 622.417091 234.366866 
L 623.127273 226.09908 
L 623.837455 224.622227 
L 624.547636 236.215646 
L 625.257818 232.862909 
L 625.968 228.830509 
L 626.678182 233.387951 
L 627.388364 227.178045 
L 628.098545 228.532276 
L 628.808727 223.671293 
L 629.518909 221.478529 
L 630.229091 220.404634 
L 630.939273 229.269381 
L 631.649455 240.804643 
L 632.359636 239.778288 
L 633.069818 236.949239 
L 633.78 242.49749 
L 634.490182 250.951591 
L 635.200364 243.92432 
L 635.910545 232.715035 
L 636.620727 224.537223 
L 638.041091 235.467652 
L 638.751273 234.922136 
L 639.461455 232.98787 
L 640.171636 232.680517 
L 640.881818 234.534549 
L 641.592 244.873992 
L 642.302182 247.214407 
L 643.012364 238.402566 
L 643.722545 238.134387 
L 644.432727 239.783265 
L 645.142909 244.588861 
L 645.853091 244.476807 
L 646.563273 240.41317 
L 647.273455 238.300722 
L 647.983636 249.445803 
L 648.693818 255.619287 
L 649.404 257.65907 
L 650.114182 265.206633 
L 650.824364 275.002859 
L 651.534545 276.028195 
L 652.244727 270.136506 
L 652.954909 261.996468 
L 653.665091 258.835607 
L 654.375273 257.777952 
L 655.085455 254.198848 
L 655.795636 255.933617 
L 656.505818 257.045021 
L 657.216 252.56484 
L 657.926182 251.188568 
L 658.636364 250.543397 
L 659.346545 254.212145 
L 660.056727 260.968183 
L 660.766909 258.792739 
L 661.477091 265.331984 
L 662.187273 263.244976 
L 662.897455 264.966676 
L 663.607636 254.255943 
L 664.317818 248.370418 
L 665.028 253.649913 
L 665.738182 251.146508 
L 666.448364 255.44478 
L 667.158545 248.452331 
L 667.868727 246.688692 
L 668.578909 248.590141 
L 669.289091 246.290154 
L 669.999273 249.317959 
L 670.709455 254.599697 
L 671.419636 253.111203 
L 672.129818 258.261426 
L 672.84 257.161742 
L 673.550182 247.163184 
L 674.260364 254.322695 
L 674.970545 255.891987 
L 675.680727 254.08685 
L 676.390909 253.791955 
L 677.101091 259.60814 
L 677.811273 260.941127 
L 678.521455 256.135036 
L 679.231636 247.681085 
L 679.941818 242.523367 
L 680.652 240.27451 
L 681.362182 251.56212 
L 682.072364 244.194407 
L 682.782545 241.924081 
L 683.492727 247.956137 
L 684.202909 248.781268 
L 684.913091 254.389345 
L 685.623273 265.754864 
L 687.043636 255.199102 
L 687.753818 254.758462 
L 688.464 263.620416 
L 689.174182 256.55536 
L 689.884364 266.109468 
L 690.594545 269.236766 
L 691.304727 276.924062 
L 692.014909 283.237744 
L 692.725091 290.979975 
L 693.435273 288.654898 
L 694.145455 292.571029 
L 694.855636 290.605454 
L 695.565818 298.099204 
L 696.276 299.981252 
L 696.986182 312.142052 
L 697.696364 318.738904 
L 698.406545 323.3646 
L 699.116727 317.836389 
L 699.826909 316.858403 
L 700.537091 315.501888 
L 701.247273 315.812757 
L 701.957455 310.098961 
L 702.667636 305.456576 
L 703.377818 315.489056 
L 704.088 312.089701 
L 704.798182 323.572754 
L 705.508364 320.906804 
L 706.218545 315.033224 
L 706.928727 302.059595 
L 707.638909 295.444039 
L 708.349091 293.271889 
L 709.059273 284.968277 
L 709.769455 283.619521 
L 710.479636 285.965773 
L 711.189818 287.923132 
L 711.9 280.400289 
L 712.610182 285.610926 
L 713.320364 284.193973 
L 714.030545 289.424158 
L 714.740727 289.867684 
L 715.450909 295.360672 
L 716.161091 285.112526 
L 716.871273 279.957653 
L 717.581455 285.351014 
L 718.291636 288.205924 
L 719.001818 297.183523 
L 719.712 295.463029 
L 720.422182 290.89755 
L 721.132364 284.229459 
L 721.842545 282.121012 
L 722.552727 274.137762 
L 723.262909 285.2548 
L 723.973091 285.345368 
L 724.683273 283.647306 
L 725.393455 278.550481 
L 726.103636 284.869446 
L 726.813818 288.695592 
L 727.524 289.199085 
L 728.234182 298.298011 
L 728.944364 292.038019 
L 729.654545 291.33566 
L 730.364727 298.938402 
L 731.074909 308.255975 
L 731.785091 312.660834 
L 732.495273 312.810381 
L 733.205455 306.605637 
L 733.915636 310.348111 
L 735.336 296.691504 
L 736.046182 295.683314 
L 736.756364 286.874758 
L 737.466545 283.807939 
L 738.176727 287.884681 
L 738.886909 285.898918 
L 739.597091 294.658577 
L 740.307273 292.841402 
L 741.017455 302.101306 
L 741.727636 299.584362 
L 742.437818 297.739623 
L 743.148 303.46411 
L 743.858182 297.417355 
L 744.568364 305.516721 
L 745.278545 305.64764 
L 745.988727 308.251318 
L 746.698909 310.085209 
L 747.409091 307.120576 
L 748.119273 306.950057 
L 748.829455 301.139397 
L 749.539636 300.831283 
L 750.249818 304.900165 
L 751.670182 291.319328 
L 752.380364 293.305589 
L 753.090545 288.61427 
L 753.800727 292.225464 
L 754.510909 296.597919 
L 755.221091 298.333713 
L 755.931273 295.153144 
L 756.641455 295.881344 
L 757.351636 295.037416 
L 758.061818 292.357027 
L 758.772 292.662314 
L 759.482182 287.892054 
L 760.192364 286.082807 
L 761.612727 269.954884 
L 762.322909 271.060025 
L 763.033091 268.906075 
L 763.743273 269.254406 
L 764.453455 264.743002 
L 765.163636 269.256479 
L 765.873818 271.368453 
L 767.294182 262.495367 
L 768.004364 251.90575 
L 768.714545 248.655369 
L 769.424727 229.632024 
L 770.134909 230.558813 
L 770.845091 234.867456 
L 771.555273 234.356189 
L 772.265455 240.953512 
L 772.975636 246.198834 
L 773.685818 249.561189 
L 775.106182 264.826906 
L 775.816364 266.088607 
L 776.526545 254.448608 
L 777.236727 249.978876 
L 777.946909 254.999218 
L 778.657091 252.929212 
L 779.367273 259.671526 
L 780.787636 274.877666 
L 781.497818 280.086018 
L 782.208 286.446421 
L 782.918182 297.381424 
L 783.628364 300.395996 
L 784.338545 293.921961 
L 785.048727 292.937461 
L 785.758909 284.377111 
L 786.469091 280.481095 
L 787.179273 284.754633 
L 787.889455 291.493117 
L 788.599636 294.978244 
L 789.309818 301.227589 
L 790.02 299.365579 
L 790.730182 292.185579 
L 791.440364 291.100683 
L 792.150545 287.160036 
L 792.860727 284.429032 
L 793.570909 288.664976 
L 794.281091 288.646393 
L 794.991273 285.121207 
L 795.701455 285.887831 
L 796.411636 288.469801 
L 797.121818 284.809629 
L 797.832 287.673699 
L 798.542182 285.726902 
L 799.252364 283.374401 
L 799.962545 279.846026 
L 800.672727 273.315934 
L 801.382909 270.510579 
L 802.803273 286.125127 
L 803.513455 294.832232 
L 804.223636 294.053634 
L 804.933818 292.813855 
L 805.644 288.77362 
L 806.354182 294.29582 
L 807.064364 295.754658 
L 807.774545 308.735914 
L 808.484727 307.101422 
L 809.194909 306.922095 
L 809.905091 305.545487 
L 810.615273 312.564405 
L 811.325455 313.607545 
L 812.035636 318.201472 
L 812.745818 319.333674 
L 813.456 320.748724 
L 814.166182 324.144869 
L 814.876364 326.099674 
L 815.586545 340.575422 
L 816.296727 344.306332 
L 817.006909 339.230155 
L 817.717091 335.874753 
L 818.427273 338.852723 
L 819.137455 342.711904 
L 819.847636 344.077799 
L 820.557818 349.295546 
L 821.268 358.172362 
L 821.978182 369.069175 
L 822.688364 365.16712 
L 823.398545 353.956939 
L 824.108727 366.212494 
L 824.818909 369.36 
L 825.529091 358.219254 
L 826.239273 359.571189 
L 826.949455 361.39782 
L 827.659636 363.580063 
L 828.369818 362.626132 
L 829.08 359.834867 
L 829.790182 350.156644 
L 830.500364 353.244898 
L 831.210545 359.135008 
L 831.920727 354.509318 
L 832.630909 355.224672 
L 833.341091 353.829046 
L 834.051273 352.897937 
L 835.471636 339.703883 
L 836.181818 347.330033 
L 836.892 340.438803 
L 837.602182 338.385423 
L 838.312364 330.289921 
L 839.022545 332.237445 
L 839.732727 329.769537 
L 840.442909 317.359543 
L 841.863273 303.46764 
L 842.573455 303.382095 
L 843.283636 297.189835 
L 843.993818 300.093429 
L 844.704 299.667494 
L 845.414182 298.847482 
L 846.124364 290.359238 
L 846.834545 297.479854 
L 847.544727 297.767137 
L 848.254909 296.760979 
L 848.965091 294.937747 
L 849.675273 294.85259 
L 850.385455 279.554299 
L 851.095636 286.070774 
L 851.805818 296.311582 
L 852.516 296.976144 
L 853.226182 294.676336 
L 853.936364 295.478061 
L 854.646545 300.889796 
L 855.356727 301.667561 
L 856.066909 307.063642 
L 856.777091 301.455243 
L 857.487273 298.254493 
L 858.197455 298.595836 
L 858.907636 294.532315 
L 859.617818 289.084061 
L 860.328 291.051452 
L 861.038182 293.465897 
L 861.748364 296.340122 
L 862.458545 291.032593 
L 863.168727 293.646232 
L 863.878909 297.61014 
L 864.589091 302.528134 
L 865.299273 302.169701 
L 866.009455 303.027158 
L 866.719636 301.394265 
L 867.429818 301.582077 
L 868.14 294.108782 
L 868.850182 291.140819 
L 869.560364 291.966933 
L 870.270545 296.842692 
L 870.980727 297.939129 
L 871.690909 303.092917 
L 871.690909 303.092917 
" clip-path="url(#pa1750a5362)" style="fill: none; stroke: #ff7f0e; stroke-width: 1.5; stroke-linecap: square"/>
   </g>
   <g id="line2d_14">
    <path d="M 162.219273 273.841884 
L 162.929455 273.664954 
L 164.349818 273.623908 
L 165.06 273.559822 
L 165.770182 273.169221 
L 167.190545 273.106933 
L 168.610909 273.017795 
L 169.321091 273.094505 
L 171.451636 272.835619 
L 172.872 272.900631 
L 173.582182 272.943893 
L 174.292364 272.092214 
L 175.712727 271.969402 
L 176.422909 271.96575 
L 177.133091 271.697961 
L 177.843273 271.717785 
L 180.684 271.425777 
L 181.394182 271.413964 
L 182.104364 271.128017 
L 182.814545 271.081046 
L 183.524727 269.364648 
L 184.234909 269.350174 
L 184.945091 268.721676 
L 187.075636 268.740805 
L 188.496 268.820367 
L 192.757091 268.746462 
L 193.467273 268.519056 
L 195.597818 268.39647 
L 200.569091 268.049807 
L 201.279273 268.106048 
L 202.699636 267.713559 
L 206.960727 267.417233 
L 207.670909 267.095265 
L 208.381091 266.986588 
L 209.091273 266.624364 
L 209.801455 266.584055 
L 210.511636 266.660216 
L 212.642182 266.266264 
L 213.352364 266.22295 
L 214.062545 266.02634 
L 214.772727 265.272817 
L 216.903273 264.918929 
L 219.744 264.815205 
L 224.005091 264.659999 
L 224.715273 264.198221 
L 226.845818 263.926225 
L 231.817091 263.354292 
L 232.527273 261.970512 
L 233.237455 261.920022 
L 234.657818 262.098408 
L 236.078182 261.975713 
L 237.498545 262.006251 
L 238.208727 261.821496 
L 239.629091 261.075429 
L 241.759636 261.009191 
L 243.18 260.981602 
L 243.890182 260.667678 
L 245.310545 260.778346 
L 246.730909 260.816604 
L 247.441091 260.001291 
L 248.861455 259.990588 
L 249.571636 259.948325 
L 250.281818 259.669339 
L 250.992 259.723423 
L 251.702182 259.308639 
L 253.122545 259.311793 
L 253.832727 259.110667 
L 256.673455 258.912221 
L 257.383636 258.927298 
L 258.093818 258.528044 
L 259.514182 258.432379 
L 260.224364 258.376227 
L 260.934545 258.11606 
L 261.644727 257.501633 
L 262.354909 257.26767 
L 264.485455 257.286859 
L 265.905818 256.913323 
L 266.616 256.828231 
L 267.326182 256.52561 
L 268.746545 256.566823 
L 269.456727 256.488699 
L 270.166909 255.137488 
L 270.877091 255.06594 
L 271.587273 254.83495 
L 273.007636 254.829583 
L 273.717818 254.261829 
L 274.428 254.003084 
L 275.138182 253.447987 
L 275.848364 253.676026 
L 277.978909 253.328504 
L 278.689091 253.327416 
L 279.399273 252.592541 
L 281.529818 252.556784 
L 282.24 252.433082 
L 283.660364 252.375509 
L 284.370545 251.895348 
L 285.790909 252.005143 
L 286.501091 251.542728 
L 287.921455 251.486516 
L 288.631636 251.497848 
L 289.341818 251.162027 
L 290.762182 250.930443 
L 293.602909 251.104287 
L 295.733455 250.92494 
L 296.443636 250.921367 
L 297.153818 249.988832 
L 298.574182 249.923034 
L 299.994545 249.810053 
L 300.704727 249.568663 
L 304.255636 249.63399 
L 304.965818 249.70799 
L 305.676 249.403678 
L 309.937091 249.358708 
L 310.647273 248.872962 
L 312.067636 248.303398 
L 312.777818 248.217427 
L 313.488 247.785516 
L 315.618545 247.676977 
L 318.459273 247.388786 
L 319.169455 247.193656 
L 323.430545 247.117387 
L 324.140727 246.952301 
L 324.850909 246.545838 
L 325.561091 246.533616 
L 326.271273 245.665141 
L 326.981455 245.645815 
L 327.691636 245.43902 
L 328.401818 245.489837 
L 329.112 244.920123 
L 329.822182 244.570161 
L 331.242545 244.381723 
L 331.952727 244.679824 
L 332.662909 244.473298 
L 333.373091 244.458481 
L 334.083273 244.087474 
L 334.793455 244.068728 
L 335.503636 243.887493 
L 336.924 243.842478 
L 337.634182 243.975767 
L 339.054545 243.961352 
L 339.764727 243.854629 
L 341.185091 243.877239 
L 341.895273 243.610267 
L 342.605455 243.61361 
L 344.025818 243.457102 
L 344.736 243.491313 
L 345.446182 243.284835 
L 346.866545 243.191143 
L 348.997091 243.123196 
L 350.417455 243.111112 
L 351.127636 241.882474 
L 353.258182 241.718365 
L 353.968364 241.728259 
L 356.809091 241.124641 
L 357.519273 241.110168 
L 358.229455 240.372677 
L 360.36 240.053982 
L 361.070182 240.121217 
L 361.780364 239.907752 
L 366.751636 239.802861 
L 368.172 239.26282 
L 371.722909 239.17533 
L 372.433091 239.017128 
L 373.143273 239.027874 
L 373.853455 238.794629 
L 375.273818 238.712181 
L 377.404364 238.516167 
L 378.824727 238.45833 
L 379.534909 238.212959 
L 380.245091 238.251045 
L 380.955273 238.050013 
L 382.375636 238.09924 
L 383.085818 238.432664 
L 385.926545 238.279239 
L 388.057091 237.699722 
L 389.477455 237.795295 
L 390.897818 237.638127 
L 394.448727 237.757979 
L 395.158909 237.407708 
L 395.869091 237.28326 
L 397.289455 237.271499 
L 397.999636 237.122838 
L 402.970909 236.906081 
L 404.391273 236.260568 
L 405.811636 236.46776 
L 406.521818 236.013789 
L 407.232 235.847399 
L 408.652364 235.983786 
L 410.072727 235.850892 
L 410.782909 235.762697 
L 411.493091 234.9247 
L 412.203273 234.995899 
L 414.333818 234.82166 
L 415.754182 234.898407 
L 416.464364 234.976648 
L 420.725455 234.629029 
L 422.145818 234.612881 
L 424.276364 234.520374 
L 424.986545 234.157489 
L 427.827273 234.127583 
L 429.247636 234.121747 
L 429.957818 233.654923 
L 431.378182 233.610986 
L 432.088364 233.366108 
L 433.508727 233.347468 
L 434.929091 232.806844 
L 437.769818 232.912248 
L 439.190182 232.77512 
L 442.030909 232.614728 
L 443.451273 232.555166 
L 444.161455 232.330643 
L 446.292 232.289465 
L 447.002182 231.973346 
L 447.712364 231.926109 
L 448.422545 231.358289 
L 449.842909 231.220643 
L 450.553091 231.147816 
L 451.263273 230.594517 
L 453.393818 230.683625 
L 456.234545 230.664372 
L 456.944727 230.575721 
L 458.365091 229.468207 
L 459.075273 229.465197 
L 459.785455 229.199533 
L 460.495636 229.1982 
L 461.205818 229.021808 
L 462.626182 228.970996 
L 463.336364 228.645948 
L 464.756727 228.586664 
L 465.466909 228.683463 
L 471.148364 228.65113 
L 471.858545 228.329768 
L 473.278909 228.299473 
L 474.699273 228.282832 
L 475.409455 228.163674 
L 477.54 228.188707 
L 478.960364 227.921833 
L 479.670545 228.051321 
L 480.380727 228.038827 
L 481.090909 227.599183 
L 481.801091 227.533553 
L 482.511273 227.085369 
L 483.221455 225.936571 
L 483.931636 225.938462 
L 484.641818 225.607713 
L 485.352 225.61162 
L 486.772364 225.295654 
L 488.902909 225.363975 
L 489.613091 224.747169 
L 490.323273 224.447937 
L 491.033455 224.388001 
L 491.743636 224.460408 
L 492.453818 224.063017 
L 493.164 224.043837 
L 493.874182 223.78768 
L 495.294545 222.759841 
L 497.425091 222.431254 
L 498.135273 222.55355 
L 499.555636 222.320103 
L 500.265818 221.789118 
L 501.686182 221.797202 
L 502.396364 221.44838 
L 503.106545 221.444162 
L 503.816727 221.254956 
L 504.526909 220.623221 
L 505.237091 220.485995 
L 505.947273 220.494399 
L 506.657455 220.205954 
L 507.367636 218.852503 
L 508.077818 218.608908 
L 508.788 218.723003 
L 513.759273 218.513627 
L 514.469455 218.278733 
L 515.889818 218.293262 
L 518.730545 217.498101 
L 519.440727 217.044509 
L 520.150909 216.957943 
L 520.861091 216.49215 
L 521.571273 216.510554 
L 522.281455 216.372447 
L 524.412 216.319386 
L 525.122182 216.295739 
L 525.832364 215.561522 
L 526.542545 215.561786 
L 527.962909 215.008623 
L 530.093455 214.90172 
L 532.224 214.631454 
L 532.934182 214.75036 
L 533.644364 214.313151 
L 534.354545 213.248052 
L 536.485091 213.085431 
L 537.195273 212.722409 
L 537.905455 212.552206 
L 538.615636 212.127785 
L 541.456364 212.013778 
L 542.166545 211.682322 
L 542.876727 211.668571 
L 543.586909 211.270237 
L 545.717455 211.225204 
L 546.427636 210.636033 
L 547.137818 210.524807 
L 547.848 209.972496 
L 552.109091 209.539565 
L 553.529455 209.582523 
L 554.239636 209.786661 
L 554.949818 209.861647 
L 555.66 209.632596 
L 557.790545 209.396476 
L 558.500727 209.366881 
L 559.210909 209.150191 
L 562.051636 208.883961 
L 564.182182 208.541508 
L 566.312727 208.707545 
L 567.022909 208.480921 
L 567.733091 208.547875 
L 568.443273 208.398286 
L 569.863636 208.303747 
L 571.284 208.124425 
L 571.994182 208.15328 
L 572.704364 207.97437 
L 574.834909 207.907097 
L 576.255273 207.817026 
L 576.965455 207.660206 
L 578.385818 207.670573 
L 579.096 207.331858 
L 580.516364 207.379866 
L 581.936727 207.276024 
L 582.646909 207.294445 
L 584.067273 206.782022 
L 584.777455 206.223104 
L 586.908 206.139211 
L 587.618182 205.611914 
L 589.038545 205.412672 
L 589.748727 205.234055 
L 590.458909 204.761149 
L 591.169091 204.755145 
L 591.879273 204.384587 
L 592.589455 204.437224 
L 594.009818 203.637259 
L 594.72 203.437797 
L 595.430182 203.430655 
L 596.140364 202.778164 
L 597.560727 202.657577 
L 601.111636 202.386498 
L 603.242182 202.355697 
L 603.952364 201.875239 
L 606.082909 201.873668 
L 606.793091 201.190927 
L 608.213455 201.276427 
L 609.633818 200.612818 
L 610.344 200.546155 
L 611.764364 200.709014 
L 612.474545 200.474492 
L 613.894909 200.513178 
L 614.605091 199.710908 
L 615.315273 199.640262 
L 616.735636 199.004718 
L 618.866182 199.09708 
L 621.706909 199.111078 
L 622.417091 198.257447 
L 623.127273 198.033691 
L 623.837455 197.996463 
L 624.547636 197.616117 
L 625.257818 197.552025 
L 625.968 197.309977 
L 626.678182 197.226402 
L 627.388364 197.00075 
L 630.229091 196.92707 
L 631.649455 195.727577 
L 634.490182 195.695341 
L 635.200364 195.325397 
L 635.910545 195.386379 
L 636.620727 195.167559 
L 638.751273 194.935891 
L 642.302182 195.130885 
L 643.012364 194.595297 
L 647.273455 194.521338 
L 648.693818 194.142936 
L 649.404 194.11514 
L 650.114182 193.897939 
L 652.244727 194.024203 
L 652.954909 193.790601 
L 654.375273 193.858301 
L 655.795636 193.798131 
L 656.505818 193.811081 
L 657.216 193.978741 
L 658.636364 193.982149 
L 659.346545 194.069444 
L 660.056727 193.573543 
L 660.766909 193.578299 
L 661.477091 193.299703 
L 662.897455 193.223892 
L 663.607636 192.392155 
L 664.317818 192.436731 
L 665.028 192.34656 
L 665.738182 192.397202 
L 667.868727 191.954868 
L 672.84 191.645608 
L 673.550182 191.523013 
L 674.260364 191.133383 
L 676.390909 191.205693 
L 677.101091 191.066616 
L 678.521455 191.076373 
L 680.652 190.474054 
L 681.362182 189.806461 
L 682.072364 189.577882 
L 682.782545 189.568835 
L 683.492727 189.333449 
L 685.623273 189.201002 
L 687.043636 188.871683 
L 687.753818 188.858777 
L 689.884364 187.815162 
L 690.594545 187.649271 
L 691.304727 187.324241 
L 692.014909 187.276454 
L 692.725091 186.843663 
L 694.855636 186.798937 
L 695.565818 186.365623 
L 696.276 186.294002 
L 696.986182 185.315131 
L 697.696364 185.07728 
L 700.537091 184.717722 
L 701.247273 184.71611 
L 701.957455 184.526218 
L 702.667636 184.52692 
L 703.377818 183.928406 
L 704.088 183.984233 
L 704.798182 183.271646 
L 705.508364 183.23088 
L 706.218545 183.022076 
L 706.928727 182.118393 
L 708.349091 182.036651 
L 709.059273 181.624365 
L 711.189818 181.76781 
L 711.9 181.458697 
L 712.610182 181.342225 
L 713.320364 181.344927 
L 714.030545 181.215203 
L 715.450909 181.316297 
L 716.161091 180.615181 
L 716.871273 180.382001 
L 718.291636 180.489884 
L 719.001818 179.837087 
L 720.422182 179.951267 
L 721.132364 180.052545 
L 721.842545 179.948858 
L 722.552727 180.153431 
L 723.262909 179.678902 
L 724.683273 179.759329 
L 725.393455 179.522768 
L 726.103636 179.5611 
L 729.654545 179.132994 
L 731.074909 178.167427 
L 732.495273 178.050297 
L 733.205455 177.978437 
L 733.915636 178.073823 
L 734.625818 177.96786 
L 735.336 177.537528 
L 736.046182 177.532061 
L 736.756364 177.236835 
L 737.466545 177.249268 
L 738.176727 177.034606 
L 738.886909 177.026303 
L 739.597091 176.887588 
L 740.307273 176.915644 
L 741.017455 176.153049 
L 742.437818 176.061986 
L 743.148 175.875756 
L 743.858182 175.84948 
L 744.568364 175.218866 
L 746.698909 175.130126 
L 748.119273 175.093578 
L 748.829455 174.723413 
L 750.249818 174.802148 
L 751.670182 174.249446 
L 752.380364 174.20415 
L 753.090545 173.928322 
L 758.772 173.771858 
L 759.482182 173.54086 
L 760.192364 173.548493 
L 760.902545 173.133288 
L 761.612727 172.932377 
L 765.873818 172.880405 
L 766.584 172.739458 
L 767.294182 172.725151 
L 768.004364 172.33876 
L 768.714545 172.381983 
L 769.424727 169.844055 
L 771.555273 169.73604 
L 772.975636 169.601937 
L 773.685818 169.615212 
L 774.396 169.288505 
L 776.526545 168.96182 
L 778.657091 168.874702 
L 779.367273 168.738382 
L 780.787636 168.31332 
L 782.208 168.012694 
L 782.918182 167.39901 
L 783.628364 167.333443 
L 784.338545 167.031342 
L 787.179273 166.847634 
L 787.889455 166.591664 
L 790.02 166.357143 
L 790.730182 166.035429 
L 791.440364 166.028155 
L 792.860727 165.842691 
L 796.411636 165.747624 
L 797.832 165.800684 
L 799.252364 165.724475 
L 799.962545 165.777909 
L 800.672727 165.609061 
L 801.382909 165.578813 
L 802.803273 165.021384 
L 803.513455 164.585953 
L 804.933818 164.546274 
L 805.644 164.434655 
L 806.354182 164.573775 
L 807.064364 164.564725 
L 807.774545 163.753755 
L 811.325455 163.74887 
L 814.876364 163.484344 
L 815.586545 162.951007 
L 816.296727 163.111104 
L 818.427273 162.853452 
L 819.847636 162.716128 
L 820.557818 162.495633 
L 821.268 162.12336 
L 821.978182 161.331071 
L 822.688364 161.168576 
L 823.398545 160.755829 
L 824.108727 159.992806 
L 824.818909 159.879502 
L 825.529091 159.48134 
L 829.08 159.478034 
L 829.790182 158.762911 
L 830.500364 158.745907 
L 831.210545 158.200439 
L 831.920727 158.002539 
L 834.051273 158.020707 
L 834.761455 157.737342 
L 835.471636 157.890934 
L 836.892 157.641382 
L 839.732727 157.519449 
L 840.442909 156.628626 
L 841.153091 156.685535 
L 841.863273 156.569731 
L 842.573455 156.57062 
L 843.283636 156.276483 
L 843.993818 156.147794 
L 845.414182 156.136924 
L 846.124364 155.584511 
L 846.834545 155.192875 
L 849.675273 155.208626 
L 850.385455 154.333458 
L 851.095636 154.214398 
L 853.936364 154.278333 
L 854.646545 153.849457 
L 855.356727 153.837921 
L 856.066909 153.620926 
L 856.777091 153.66586 
L 857.487273 153.449019 
L 858.907636 153.561043 
L 859.617818 153.638458 
L 861.038182 153.487278 
L 861.748364 153.450233 
L 862.458545 153.198051 
L 863.878909 153.101248 
L 864.589091 152.996841 
L 867.429818 152.937096 
L 868.850182 152.852054 
L 869.560364 152.832091 
L 870.270545 152.615812 
L 871.690909 152.585183 
L 871.690909 152.585183 
" clip-path="url(#pa1750a5362)" style="fill: none; stroke: #2ca02c; stroke-width: 1.5; stroke-linecap: square"/>
   </g>
   <g id="patch_3">
    <path d="M 126 384.48 
L 126 51.84 
" style="fill: none; stroke: #000000; stroke-width: 0.8; stroke-linejoin: miter; stroke-linecap: square"/>
   </g>
   <g id="patch_4">
    <path d="M 907.2 384.48 
L 907.2 51.84 
" style="fill: none; stroke: #000000; stroke-width: 0.8; stroke-linejoin: miter; stroke-linecap: square"/>
   </g>
   <g id="patch_5">
    <path d="M 126 384.48 
L 907.2 384.48 
" style="fill: none; stroke: #000000; stroke-width: 0.8; stroke-linejoin: miter; stroke-linecap: square"/>
   </g>
   <g id="patch_6">
    <path d="M 126 51.84 
L 907.2 51.84 
" style="fill: none; stroke: #000000; stroke-width: 0.8; stroke-linejoin: miter; stroke-linecap: square"/>
   </g>
   <g id="text_14">
    <!-- Quadratic Covariation of $X_t$ and $S_t$ -->
    <g transform="translate(414.54 45.84)scale(0.12 -0.12)">
     <defs>
      <path id="DejaVuSans-66" d="M 2375 4863 
L 2375 4384 
L 1825 4384 
Q 1516 4384 1395 4259 
Q 1275 4134 1275 3809 
L 1275 3500 
L 2222 3500 
L 2222 3053 
L 1275 3053 
L 1275 0 
L 697 0 
L 697 3053 
L 147 3053 
L 147 3500 
L 697 3500 
L 697 3744 
Q 697 4328 969 4595 
Q 1241 4863 1831 4863 
L 2375 4863 
z
" transform="scale(0.015625)"/>
      <path id="DejaVuSans-Oblique-58" d="M 878 4666 
L 1516 4666 
L 2316 2981 
L 3763 4666 
L 4500 4666 
L 2578 2438 
L 3738 0 
L 3103 0 
L 2163 1966 
L 459 0 
L -275 0 
L 1906 2509 
L 878 4666 
z
" transform="scale(0.015625)"/>
      <path id="DejaVuSans-Oblique-74" d="M 2706 3500 
L 2619 3053 
L 1472 3053 
L 1100 1153 
Q 1081 1047 1072 975 
Q 1063 903 1063 863 
Q 1063 663 1183 572 
Q 1303 481 1569 481 
L 2150 481 
L 2053 0 
L 1503 0 
Q 991 0 739 200 
Q 488 400 488 806 
Q 488 878 497 964 
Q 506 1050 525 1153 
L 897 3053 
L 409 3053 
L 500 3500 
L 978 3500 
L 1172 4494 
L 1747 4494 
L 1556 3500 
L 2706 3500 
z
" transform="scale(0.015625)"/>
      <path id="DejaVuSans-Oblique-53" d="M 3859 4513 
L 3738 3897 
Q 3422 4066 3111 4152 
Q 2800 4238 2509 4238 
Q 1944 4238 1609 3991 
Q 1275 3744 1275 3334 
Q 1275 3109 1398 2989 
Q 1522 2869 2034 2731 
L 2413 2638 
Q 3053 2472 3303 2217 
Q 3553 1963 3553 1503 
Q 3553 797 2998 353 
Q 2444 -91 1538 -91 
Q 1166 -91 791 -17 
Q 416 56 38 206 
L 166 856 
Q 513 641 861 531 
Q 1209 422 1556 422 
Q 2147 422 2503 684 
Q 2859 947 2859 1369 
Q 2859 1650 2717 1795 
Q 2575 1941 2106 2059 
L 1728 2156 
Q 1081 2325 845 2545 
Q 609 2766 609 3163 
Q 609 3859 1145 4304 
Q 1681 4750 2541 4750 
Q 2875 4750 3203 4690 
Q 3531 4631 3859 4513 
z
" transform="scale(0.015625)"/>
     </defs>
     <use xlink:href="#DejaVuSans-51" transform="translate(0 0.015625)"/>
     <use xlink:href="#DejaVuSans-75" transform="translate(78.710938 0.015625)"/>
     <use xlink:href="#DejaVuSans-61" transform="translate(142.089844 0.015625)"/>
     <use xlink:href="#DejaVuSans-64" transform="translate(203.369141 0.015625)"/>
     <use xlink:href="#DejaVuSans-72" transform="translate(266.845703 0.015625)"/>
     <use xlink:href="#DejaVuSans-61" transform="translate(307.958984 0.015625)"/>
     <use xlink:href="#DejaVuSans-74" transform="translate(369.238281 0.015625)"/>
     <use xlink:href="#DejaVuSans-69" transform="translate(408.447266 0.015625)"/>
     <use xlink:href="#DejaVuSans-63" transform="translate(436.230469 0.015625)"/>
     <use xlink:href="#DejaVuSans-20" transform="translate(491.210938 0.015625)"/>
     <use xlink:href="#DejaVuSans-43" transform="translate(522.998047 0.015625)"/>
     <use xlink:href="#DejaVuSans-6f" transform="translate(592.822266 0.015625)"/>
     <use xlink:href="#DejaVuSans-76" transform="translate(654.003906 0.015625)"/>
     <use xlink:href="#DejaVuSans-61" transform="translate(713.183594 0.015625)"/>
     <use xlink:href="#DejaVuSans-72" transform="translate(774.462891 0.015625)"/>
     <use xlink:href="#DejaVuSans-69" transform="translate(815.576172 0.015625)"/>
     <use xlink:href="#DejaVuSans-61" transform="translate(843.359375 0.015625)"/>
     <use xlink:href="#DejaVuSans-74" transform="translate(904.638672 0.015625)"/>
     <use xlink:href="#DejaVuSans-69" transform="translate(943.847656 0.015625)"/>
     <use xlink:href="#DejaVuSans-6f" transform="translate(971.630859 0.015625)"/>
     <use xlink:href="#DejaVuSans-6e" transform="translate(1032.8125 0.015625)"/>
     <use xlink:href="#DejaVuSans-20" transform="translate(1096.191406 0.015625)"/>
     <use xlink:href="#DejaVuSans-6f" transform="translate(1127.978516 0.015625)"/>
     <use xlink:href="#DejaVuSans-66" transform="translate(1189.160156 0.015625)"/>
     <use xlink:href="#DejaVuSans-20" transform="translate(1224.365234 0.015625)"/>
     <use xlink:href="#DejaVuSans-Oblique-58" transform="translate(1256.152344 0.015625)"/>
     <use xlink:href="#DejaVuSans-Oblique-74" transform="translate(1324.658203 -16.390625)scale(0.7)"/>
     <use xlink:href="#DejaVuSans-20" transform="translate(1354.838867 0.015625)"/>
     <use xlink:href="#DejaVuSans-61" transform="translate(1386.625977 0.015625)"/>
     <use xlink:href="#DejaVuSans-6e" transform="translate(1447.905273 0.015625)"/>
     <use xlink:href="#DejaVuSans-64" transform="translate(1511.28418 0.015625)"/>
     <use xlink:href="#DejaVuSans-20" transform="translate(1574.760742 0.015625)"/>
     <use xlink:href="#DejaVuSans-Oblique-53" transform="translate(1606.547852 0.015625)"/>
     <use xlink:href="#DejaVuSans-Oblique-74" transform="translate(1670.024414 -16.390625)scale(0.7)"/>
    </g>
   </g>
   <g id="legend_1">
    <g id="patch_7">
     <path d="M 698.1 103.874375 
L 900.2 103.874375 
Q 902.2 103.874375 902.2 101.874375 
L 902.2 58.84 
Q 902.2 56.84 900.2 56.84 
L 698.1 56.84 
Q 696.1 56.84 696.1 58.84 
L 696.1 101.874375 
Q 696.1 103.874375 698.1 103.874375 
z
" style="fill: #ffffff; opacity: 0.8; stroke: #cccccc; stroke-linejoin: miter"/>
    </g>
    <g id="line2d_15">
     <path d="M 700.1 64.938437 
L 710.1 64.938437 
L 720.1 64.938437 
" style="fill: none; stroke: #1f77b4; stroke-width: 1.5; stroke-linecap: square"/>
    </g>
    <g id="text_15">
     <!-- $X_t$ -->
     <g transform="translate(728.1 68.438437)scale(0.1 -0.1)">
      <use xlink:href="#DejaVuSans-Oblique-58" transform="translate(0 0.09375)"/>
      <use xlink:href="#DejaVuSans-Oblique-74" transform="translate(68.505859 -16.3125)scale(0.7)"/>
     </g>
    </g>
    <g id="line2d_16">
     <path d="M 700.1 79.616562 
L 710.1 79.616562 
L 720.1 79.616562 
" style="fill: none; stroke: #ff7f0e; stroke-width: 1.5; stroke-linecap: square"/>
    </g>
    <g id="text_16">
     <!-- $S_t$ -->
     <g transform="translate(728.1 83.116562)scale(0.1 -0.1)">
      <use xlink:href="#DejaVuSans-Oblique-53" transform="translate(0 0.78125)"/>
      <use xlink:href="#DejaVuSans-Oblique-74" transform="translate(63.476562 -15.625)scale(0.7)"/>
     </g>
    </g>
    <g id="line2d_17">
     <path d="M 700.1 94.294687 
L 710.1 94.294687 
L 720.1 94.294687 
" style="fill: none; stroke: #2ca02c; stroke-width: 1.5; stroke-linecap: square"/>
    </g>
    <g id="text_17">
     <!-- Quadratic Covariation of $X_t$ and $S_t$ -->
     <g transform="translate(728.1 97.794687)scale(0.1 -0.1)">
      <use xlink:href="#DejaVuSans-51" transform="translate(0 0.015625)"/>
      <use xlink:href="#DejaVuSans-75" transform="translate(78.710938 0.015625)"/>
      <use xlink:href="#DejaVuSans-61" transform="translate(142.089844 0.015625)"/>
      <use xlink:href="#DejaVuSans-64" transform="translate(203.369141 0.015625)"/>
      <use xlink:href="#DejaVuSans-72" transform="translate(266.845703 0.015625)"/>
      <use xlink:href="#DejaVuSans-61" transform="translate(307.958984 0.015625)"/>
      <use xlink:href="#DejaVuSans-74" transform="translate(369.238281 0.015625)"/>
      <use xlink:href="#DejaVuSans-69" transform="translate(408.447266 0.015625)"/>
      <use xlink:href="#DejaVuSans-63" transform="translate(436.230469 0.015625)"/>
      <use xlink:href="#DejaVuSans-20" transform="translate(491.210938 0.015625)"/>
      <use xlink:href="#DejaVuSans-43" transform="translate(522.998047 0.015625)"/>
      <use xlink:href="#DejaVuSans-6f" transform="translate(592.822266 0.015625)"/>
      <use xlink:href="#DejaVuSans-76" transform="translate(654.003906 0.015625)"/>
      <use xlink:href="#DejaVuSans-61" transform="translate(713.183594 0.015625)"/>
      <use xlink:href="#DejaVuSans-72" transform="translate(774.462891 0.015625)"/>
      <use xlink:href="#DejaVuSans-69" transform="translate(815.576172 0.015625)"/>
      <use xlink:href="#DejaVuSans-61" transform="translate(843.359375 0.015625)"/>
      <use xlink:href="#DejaVuSans-74" transform="translate(904.638672 0.015625)"/>
      <use xlink:href="#DejaVuSans-69" transform="translate(943.847656 0.015625)"/>
      <use xlink:href="#DejaVuSans-6f" transform="translate(971.630859 0.015625)"/>
      <use xlink:href="#DejaVuSans-6e" transform="translate(1032.8125 0.015625)"/>
      <use xlink:href="#DejaVuSans-20" transform="translate(1096.191406 0.015625)"/>
      <use xlink:href="#DejaVuSans-6f" transform="translate(1127.978516 0.015625)"/>
      <use xlink:href="#DejaVuSans-66" transform="translate(1189.160156 0.015625)"/>
      <use xlink:href="#DejaVuSans-20" transform="translate(1224.365234 0.015625)"/>
      <use xlink:href="#DejaVuSans-Oblique-58" transform="translate(1256.152344 0.015625)"/>
      <use xlink:href="#DejaVuSans-Oblique-74" transform="translate(1324.658203 -16.390625)scale(0.7)"/>
      <use xlink:href="#DejaVuSans-20" transform="translate(1354.838867 0.015625)"/>
      <use xlink:href="#DejaVuSans-61" transform="translate(1386.625977 0.015625)"/>
      <use xlink:href="#DejaVuSans-6e" transform="translate(1447.905273 0.015625)"/>
      <use xlink:href="#DejaVuSans-64" transform="translate(1511.28418 0.015625)"/>
      <use xlink:href="#DejaVuSans-20" transform="translate(1574.760742 0.015625)"/>
      <use xlink:href="#DejaVuSans-Oblique-53" transform="translate(1606.547852 0.015625)"/>
      <use xlink:href="#DejaVuSans-Oblique-74" transform="translate(1670.024414 -16.390625)scale(0.7)"/>
     </g>
    </g>
   </g>
  </g>
 </g>
 <defs>
  <clipPath id="pa1750a5362">
   <rect x="126" y="51.84" width="781.2" height="332.64"/>
  </clipPath>
 </defs>
</svg>
