<?xml version="1.0" encoding="utf-8" standalone="no"?>
<!DOCTYPE svg PUBLIC "-//W3C//DTD SVG 1.1//EN"
  "http://www.w3.org/Graphics/SVG/1.1/DTD/svg11.dtd">
<svg xmlns:xlink="http://www.w3.org/1999/xlink" width="1008pt" height="432pt" viewBox="0 0 1008 432" xmlns="http://www.w3.org/2000/svg" version="1.1">
 <metadata>
  <rdf:RDF xmlns:dc="http://purl.org/dc/elements/1.1/" xmlns:cc="http://creativecommons.org/ns#" xmlns:rdf="http://www.w3.org/1999/02/22-rdf-syntax-ns#">
   <cc:Work>
    <dc:type rdf:resource="http://purl.org/dc/dcmitype/StillImage"/>
    <dc:date>2023-12-22T17:10:38.301889</dc:date>
    <dc:format>image/svg+xml</dc:format>
    <dc:creator>
     <cc:Agent>
      <dc:title>Matplotlib v3.5.2, https://matplotlib.org/</dc:title>
     </cc:Agent>
    </dc:creator>
   </cc:Work>
  </rdf:RDF>
 </metadata>
 <defs>
  <style type="text/css">*{stroke-linejoin: round; stroke-linecap: butt}</style>
 </defs>
 <g id="figure_1">
  <g id="patch_1">
   <path d="M 0 432 
L 1008 432 
L 1008 0 
L 0 0 
z
" style="fill: #ffffff"/>
  </g>
  <g id="axes_1">
   <g id="patch_2">
    <path d="M 126 384.48 
L 907.2 384.48 
L 907.2 51.84 
L 126 51.84 
z
" style="fill: #ffffff"/>
   </g>
   <g id="matplotlib.axis_1">
    <g id="xtick_1">
     <g id="line2d_1">
      <defs>
       <path id="m7df0bc7ccc" d="M 0 0 
L 0 3.5 
" style="stroke: #000000; stroke-width: 0.8"/>
      </defs>
      <g>
       <use xlink:href="#m7df0bc7ccc" x="161.509091" y="384.48" style="stroke: #000000; stroke-width: 0.8"/>
      </g>
     </g>
     <g id="text_1">
      <!-- 0.0 -->
      <g transform="translate(153.557528 399.078438)scale(0.1 -0.1)">
       <defs>
        <path id="DejaVuSans-30" d="M 2034 4250 
Q 1547 4250 1301 3770 
Q 1056 3291 1056 2328 
Q 1056 1369 1301 889 
Q 1547 409 2034 409 
Q 2525 409 2770 889 
Q 3016 1369 3016 2328 
Q 3016 3291 2770 3770 
Q 2525 4250 2034 4250 
z
M 2034 4750 
Q 2819 4750 3233 4129 
Q 3647 3509 3647 2328 
Q 3647 1150 3233 529 
Q 2819 -91 2034 -91 
Q 1250 -91 836 529 
Q 422 1150 422 2328 
Q 422 3509 836 4129 
Q 1250 4750 2034 4750 
z
" transform="scale(0.015625)"/>
        <path id="DejaVuSans-2e" d="M 684 794 
L 1344 794 
L 1344 0 
L 684 0 
L 684 794 
z
" transform="scale(0.015625)"/>
       </defs>
       <use xlink:href="#DejaVuSans-30"/>
       <use xlink:href="#DejaVuSans-2e" x="63.623047"/>
       <use xlink:href="#DejaVuSans-30" x="95.410156"/>
      </g>
     </g>
    </g>
    <g id="xtick_2">
     <g id="line2d_2">
      <g>
       <use xlink:href="#m7df0bc7ccc" x="303.545455" y="384.48" style="stroke: #000000; stroke-width: 0.8"/>
      </g>
     </g>
     <g id="text_2">
      <!-- 0.2 -->
      <g transform="translate(295.593892 399.078438)scale(0.1 -0.1)">
       <defs>
        <path id="DejaVuSans-32" d="M 1228 531 
L 3431 531 
L 3431 0 
L 469 0 
L 469 531 
Q 828 903 1448 1529 
Q 2069 2156 2228 2338 
Q 2531 2678 2651 2914 
Q 2772 3150 2772 3378 
Q 2772 3750 2511 3984 
Q 2250 4219 1831 4219 
Q 1534 4219 1204 4116 
Q 875 4013 500 3803 
L 500 4441 
Q 881 4594 1212 4672 
Q 1544 4750 1819 4750 
Q 2544 4750 2975 4387 
Q 3406 4025 3406 3419 
Q 3406 3131 3298 2873 
Q 3191 2616 2906 2266 
Q 2828 2175 2409 1742 
Q 1991 1309 1228 531 
z
" transform="scale(0.015625)"/>
       </defs>
       <use xlink:href="#DejaVuSans-30"/>
       <use xlink:href="#DejaVuSans-2e" x="63.623047"/>
       <use xlink:href="#DejaVuSans-32" x="95.410156"/>
      </g>
     </g>
    </g>
    <g id="xtick_3">
     <g id="line2d_3">
      <g>
       <use xlink:href="#m7df0bc7ccc" x="445.581818" y="384.48" style="stroke: #000000; stroke-width: 0.8"/>
      </g>
     </g>
     <g id="text_3">
      <!-- 0.4 -->
      <g transform="translate(437.630256 399.078438)scale(0.1 -0.1)">
       <defs>
        <path id="DejaVuSans-34" d="M 2419 4116 
L 825 1625 
L 2419 1625 
L 2419 4116 
z
M 2253 4666 
L 3047 4666 
L 3047 1625 
L 3713 1625 
L 3713 1100 
L 3047 1100 
L 3047 0 
L 2419 0 
L 2419 1100 
L 313 1100 
L 313 1709 
L 2253 4666 
z
" transform="scale(0.015625)"/>
       </defs>
       <use xlink:href="#DejaVuSans-30"/>
       <use xlink:href="#DejaVuSans-2e" x="63.623047"/>
       <use xlink:href="#DejaVuSans-34" x="95.410156"/>
      </g>
     </g>
    </g>
    <g id="xtick_4">
     <g id="line2d_4">
      <g>
       <use xlink:href="#m7df0bc7ccc" x="587.618182" y="384.48" style="stroke: #000000; stroke-width: 0.8"/>
      </g>
     </g>
     <g id="text_4">
      <!-- 0.6 -->
      <g transform="translate(579.666619 399.078438)scale(0.1 -0.1)">
       <defs>
        <path id="DejaVuSans-36" d="M 2113 2584 
Q 1688 2584 1439 2293 
Q 1191 2003 1191 1497 
Q 1191 994 1439 701 
Q 1688 409 2113 409 
Q 2538 409 2786 701 
Q 3034 994 3034 1497 
Q 3034 2003 2786 2293 
Q 2538 2584 2113 2584 
z
M 3366 4563 
L 3366 3988 
Q 3128 4100 2886 4159 
Q 2644 4219 2406 4219 
Q 1781 4219 1451 3797 
Q 1122 3375 1075 2522 
Q 1259 2794 1537 2939 
Q 1816 3084 2150 3084 
Q 2853 3084 3261 2657 
Q 3669 2231 3669 1497 
Q 3669 778 3244 343 
Q 2819 -91 2113 -91 
Q 1303 -91 875 529 
Q 447 1150 447 2328 
Q 447 3434 972 4092 
Q 1497 4750 2381 4750 
Q 2619 4750 2861 4703 
Q 3103 4656 3366 4563 
z
" transform="scale(0.015625)"/>
       </defs>
       <use xlink:href="#DejaVuSans-30"/>
       <use xlink:href="#DejaVuSans-2e" x="63.623047"/>
       <use xlink:href="#DejaVuSans-36" x="95.410156"/>
      </g>
     </g>
    </g>
    <g id="xtick_5">
     <g id="line2d_5">
      <g>
       <use xlink:href="#m7df0bc7ccc" x="729.654545" y="384.48" style="stroke: #000000; stroke-width: 0.8"/>
      </g>
     </g>
     <g id="text_5">
      <!-- 0.8 -->
      <g transform="translate(721.702983 399.078438)scale(0.1 -0.1)">
       <defs>
        <path id="DejaVuSans-38" d="M 2034 2216 
Q 1584 2216 1326 1975 
Q 1069 1734 1069 1313 
Q 1069 891 1326 650 
Q 1584 409 2034 409 
Q 2484 409 2743 651 
Q 3003 894 3003 1313 
Q 3003 1734 2745 1975 
Q 2488 2216 2034 2216 
z
M 1403 2484 
Q 997 2584 770 2862 
Q 544 3141 544 3541 
Q 544 4100 942 4425 
Q 1341 4750 2034 4750 
Q 2731 4750 3128 4425 
Q 3525 4100 3525 3541 
Q 3525 3141 3298 2862 
Q 3072 2584 2669 2484 
Q 3125 2378 3379 2068 
Q 3634 1759 3634 1313 
Q 3634 634 3220 271 
Q 2806 -91 2034 -91 
Q 1263 -91 848 271 
Q 434 634 434 1313 
Q 434 1759 690 2068 
Q 947 2378 1403 2484 
z
M 1172 3481 
Q 1172 3119 1398 2916 
Q 1625 2713 2034 2713 
Q 2441 2713 2670 2916 
Q 2900 3119 2900 3481 
Q 2900 3844 2670 4047 
Q 2441 4250 2034 4250 
Q 1625 4250 1398 4047 
Q 1172 3844 1172 3481 
z
" transform="scale(0.015625)"/>
       </defs>
       <use xlink:href="#DejaVuSans-30"/>
       <use xlink:href="#DejaVuSans-2e" x="63.623047"/>
       <use xlink:href="#DejaVuSans-38" x="95.410156"/>
      </g>
     </g>
    </g>
    <g id="xtick_6">
     <g id="line2d_6">
      <g>
       <use xlink:href="#m7df0bc7ccc" x="871.690909" y="384.48" style="stroke: #000000; stroke-width: 0.8"/>
      </g>
     </g>
     <g id="text_6">
      <!-- 1.0 -->
      <g transform="translate(863.739347 399.078438)scale(0.1 -0.1)">
       <defs>
        <path id="DejaVuSans-31" d="M 794 531 
L 1825 531 
L 1825 4091 
L 703 3866 
L 703 4441 
L 1819 4666 
L 2450 4666 
L 2450 531 
L 3481 531 
L 3481 0 
L 794 0 
L 794 531 
z
" transform="scale(0.015625)"/>
       </defs>
       <use xlink:href="#DejaVuSans-31"/>
       <use xlink:href="#DejaVuSans-2e" x="63.623047"/>
       <use xlink:href="#DejaVuSans-30" x="95.410156"/>
      </g>
     </g>
    </g>
    <g id="text_7">
     <!-- Time -->
     <g transform="translate(504.366406 412.756563)scale(0.1 -0.1)">
      <defs>
       <path id="DejaVuSans-54" d="M -19 4666 
L 3928 4666 
L 3928 4134 
L 2272 4134 
L 2272 0 
L 1638 0 
L 1638 4134 
L -19 4134 
L -19 4666 
z
" transform="scale(0.015625)"/>
       <path id="DejaVuSans-69" d="M 603 3500 
L 1178 3500 
L 1178 0 
L 603 0 
L 603 3500 
z
M 603 4863 
L 1178 4863 
L 1178 4134 
L 603 4134 
L 603 4863 
z
" transform="scale(0.015625)"/>
       <path id="DejaVuSans-6d" d="M 3328 2828 
Q 3544 3216 3844 3400 
Q 4144 3584 4550 3584 
Q 5097 3584 5394 3201 
Q 5691 2819 5691 2113 
L 5691 0 
L 5113 0 
L 5113 2094 
Q 5113 2597 4934 2840 
Q 4756 3084 4391 3084 
Q 3944 3084 3684 2787 
Q 3425 2491 3425 1978 
L 3425 0 
L 2847 0 
L 2847 2094 
Q 2847 2600 2669 2842 
Q 2491 3084 2119 3084 
Q 1678 3084 1418 2786 
Q 1159 2488 1159 1978 
L 1159 0 
L 581 0 
L 581 3500 
L 1159 3500 
L 1159 2956 
Q 1356 3278 1631 3431 
Q 1906 3584 2284 3584 
Q 2666 3584 2933 3390 
Q 3200 3197 3328 2828 
z
" transform="scale(0.015625)"/>
       <path id="DejaVuSans-65" d="M 3597 1894 
L 3597 1613 
L 953 1613 
Q 991 1019 1311 708 
Q 1631 397 2203 397 
Q 2534 397 2845 478 
Q 3156 559 3463 722 
L 3463 178 
Q 3153 47 2828 -22 
Q 2503 -91 2169 -91 
Q 1331 -91 842 396 
Q 353 884 353 1716 
Q 353 2575 817 3079 
Q 1281 3584 2069 3584 
Q 2775 3584 3186 3129 
Q 3597 2675 3597 1894 
z
M 3022 2063 
Q 3016 2534 2758 2815 
Q 2500 3097 2075 3097 
Q 1594 3097 1305 2825 
Q 1016 2553 972 2059 
L 3022 2063 
z
" transform="scale(0.015625)"/>
      </defs>
      <use xlink:href="#DejaVuSans-54"/>
      <use xlink:href="#DejaVuSans-69" x="57.958984"/>
      <use xlink:href="#DejaVuSans-6d" x="85.742188"/>
      <use xlink:href="#DejaVuSans-65" x="183.154297"/>
     </g>
    </g>
   </g>
   <g id="matplotlib.axis_2">
    <g id="ytick_1">
     <g id="line2d_7">
      <defs>
       <path id="m2b104faaa8" d="M 0 0 
L -3.5 0 
" style="stroke: #000000; stroke-width: 0.8"/>
      </defs>
      <g>
       <use xlink:href="#m2b104faaa8" x="126" y="363.136866" style="stroke: #000000; stroke-width: 0.8"/>
      </g>
     </g>
     <g id="text_8">
      <!-- −0.2 -->
      <g transform="translate(94.717187 366.936085)scale(0.1 -0.1)">
       <defs>
        <path id="DejaVuSans-2212" d="M 678 2272 
L 4684 2272 
L 4684 1741 
L 678 1741 
L 678 2272 
z
" transform="scale(0.015625)"/>
       </defs>
       <use xlink:href="#DejaVuSans-2212"/>
       <use xlink:href="#DejaVuSans-30" x="83.789062"/>
       <use xlink:href="#DejaVuSans-2e" x="147.412109"/>
       <use xlink:href="#DejaVuSans-32" x="179.199219"/>
      </g>
     </g>
    </g>
    <g id="ytick_2">
     <g id="line2d_8">
      <g>
       <use xlink:href="#m2b104faaa8" x="126" y="322.529805" style="stroke: #000000; stroke-width: 0.8"/>
      </g>
     </g>
     <g id="text_9">
      <!-- 0.0 -->
      <g transform="translate(103.096875 326.329023)scale(0.1 -0.1)">
       <use xlink:href="#DejaVuSans-30"/>
       <use xlink:href="#DejaVuSans-2e" x="63.623047"/>
       <use xlink:href="#DejaVuSans-30" x="95.410156"/>
      </g>
     </g>
    </g>
    <g id="ytick_3">
     <g id="line2d_9">
      <g>
       <use xlink:href="#m2b104faaa8" x="126" y="281.922743" style="stroke: #000000; stroke-width: 0.8"/>
      </g>
     </g>
     <g id="text_10">
      <!-- 0.2 -->
      <g transform="translate(103.096875 285.721962)scale(0.1 -0.1)">
       <use xlink:href="#DejaVuSans-30"/>
       <use xlink:href="#DejaVuSans-2e" x="63.623047"/>
       <use xlink:href="#DejaVuSans-32" x="95.410156"/>
      </g>
     </g>
    </g>
    <g id="ytick_4">
     <g id="line2d_10">
      <g>
       <use xlink:href="#m2b104faaa8" x="126" y="241.315682" style="stroke: #000000; stroke-width: 0.8"/>
      </g>
     </g>
     <g id="text_11">
      <!-- 0.4 -->
      <g transform="translate(103.096875 245.1149)scale(0.1 -0.1)">
       <use xlink:href="#DejaVuSans-30"/>
       <use xlink:href="#DejaVuSans-2e" x="63.623047"/>
       <use xlink:href="#DejaVuSans-34" x="95.410156"/>
      </g>
     </g>
    </g>
    <g id="ytick_5">
     <g id="line2d_11">
      <g>
       <use xlink:href="#m2b104faaa8" x="126" y="200.70862" style="stroke: #000000; stroke-width: 0.8"/>
      </g>
     </g>
     <g id="text_12">
      <!-- 0.6 -->
      <g transform="translate(103.096875 204.507839)scale(0.1 -0.1)">
       <use xlink:href="#DejaVuSans-30"/>
       <use xlink:href="#DejaVuSans-2e" x="63.623047"/>
       <use xlink:href="#DejaVuSans-36" x="95.410156"/>
      </g>
     </g>
    </g>
    <g id="ytick_6">
     <g id="line2d_12">
      <g>
       <use xlink:href="#m2b104faaa8" x="126" y="160.101559" style="stroke: #000000; stroke-width: 0.8"/>
      </g>
     </g>
     <g id="text_13">
      <!-- 0.8 -->
      <g transform="translate(103.096875 163.900778)scale(0.1 -0.1)">
       <use xlink:href="#DejaVuSans-30"/>
       <use xlink:href="#DejaVuSans-2e" x="63.623047"/>
       <use xlink:href="#DejaVuSans-38" x="95.410156"/>
      </g>
     </g>
    </g>
    <g id="ytick_7">
     <g id="line2d_13">
      <g>
       <use xlink:href="#m2b104faaa8" x="126" y="119.494497" style="stroke: #000000; stroke-width: 0.8"/>
      </g>
     </g>
     <g id="text_14">
      <!-- 1.0 -->
      <g transform="translate(103.096875 123.293716)scale(0.1 -0.1)">
       <use xlink:href="#DejaVuSans-31"/>
       <use xlink:href="#DejaVuSans-2e" x="63.623047"/>
       <use xlink:href="#DejaVuSans-30" x="95.410156"/>
      </g>
     </g>
    </g>
    <g id="ytick_8">
     <g id="line2d_14">
      <g>
       <use xlink:href="#m2b104faaa8" x="126" y="78.887436" style="stroke: #000000; stroke-width: 0.8"/>
      </g>
     </g>
     <g id="text_15">
      <!-- 1.2 -->
      <g transform="translate(103.096875 82.686655)scale(0.1 -0.1)">
       <use xlink:href="#DejaVuSans-31"/>
       <use xlink:href="#DejaVuSans-2e" x="63.623047"/>
       <use xlink:href="#DejaVuSans-32" x="95.410156"/>
      </g>
     </g>
    </g>
    <g id="text_16">
     <!-- Quadratic Covariation -->
     <g transform="translate(88.6375 272.970156)rotate(-90)scale(0.1 -0.1)">
      <defs>
       <path id="DejaVuSans-51" d="M 2522 4238 
Q 1834 4238 1429 3725 
Q 1025 3213 1025 2328 
Q 1025 1447 1429 934 
Q 1834 422 2522 422 
Q 3209 422 3611 934 
Q 4013 1447 4013 2328 
Q 4013 3213 3611 3725 
Q 3209 4238 2522 4238 
z
M 3406 84 
L 4238 -825 
L 3475 -825 
L 2784 -78 
Q 2681 -84 2626 -87 
Q 2572 -91 2522 -91 
Q 1538 -91 948 567 
Q 359 1225 359 2328 
Q 359 3434 948 4092 
Q 1538 4750 2522 4750 
Q 3503 4750 4090 4092 
Q 4678 3434 4678 2328 
Q 4678 1516 4351 937 
Q 4025 359 3406 84 
z
" transform="scale(0.015625)"/>
       <path id="DejaVuSans-75" d="M 544 1381 
L 544 3500 
L 1119 3500 
L 1119 1403 
Q 1119 906 1312 657 
Q 1506 409 1894 409 
Q 2359 409 2629 706 
Q 2900 1003 2900 1516 
L 2900 3500 
L 3475 3500 
L 3475 0 
L 2900 0 
L 2900 538 
Q 2691 219 2414 64 
Q 2138 -91 1772 -91 
Q 1169 -91 856 284 
Q 544 659 544 1381 
z
M 1991 3584 
L 1991 3584 
z
" transform="scale(0.015625)"/>
       <path id="DejaVuSans-61" d="M 2194 1759 
Q 1497 1759 1228 1600 
Q 959 1441 959 1056 
Q 959 750 1161 570 
Q 1363 391 1709 391 
Q 2188 391 2477 730 
Q 2766 1069 2766 1631 
L 2766 1759 
L 2194 1759 
z
M 3341 1997 
L 3341 0 
L 2766 0 
L 2766 531 
Q 2569 213 2275 61 
Q 1981 -91 1556 -91 
Q 1019 -91 701 211 
Q 384 513 384 1019 
Q 384 1609 779 1909 
Q 1175 2209 1959 2209 
L 2766 2209 
L 2766 2266 
Q 2766 2663 2505 2880 
Q 2244 3097 1772 3097 
Q 1472 3097 1187 3025 
Q 903 2953 641 2809 
L 641 3341 
Q 956 3463 1253 3523 
Q 1550 3584 1831 3584 
Q 2591 3584 2966 3190 
Q 3341 2797 3341 1997 
z
" transform="scale(0.015625)"/>
       <path id="DejaVuSans-64" d="M 2906 2969 
L 2906 4863 
L 3481 4863 
L 3481 0 
L 2906 0 
L 2906 525 
Q 2725 213 2448 61 
Q 2172 -91 1784 -91 
Q 1150 -91 751 415 
Q 353 922 353 1747 
Q 353 2572 751 3078 
Q 1150 3584 1784 3584 
Q 2172 3584 2448 3432 
Q 2725 3281 2906 2969 
z
M 947 1747 
Q 947 1113 1208 752 
Q 1469 391 1925 391 
Q 2381 391 2643 752 
Q 2906 1113 2906 1747 
Q 2906 2381 2643 2742 
Q 2381 3103 1925 3103 
Q 1469 3103 1208 2742 
Q 947 2381 947 1747 
z
" transform="scale(0.015625)"/>
       <path id="DejaVuSans-72" d="M 2631 2963 
Q 2534 3019 2420 3045 
Q 2306 3072 2169 3072 
Q 1681 3072 1420 2755 
Q 1159 2438 1159 1844 
L 1159 0 
L 581 0 
L 581 3500 
L 1159 3500 
L 1159 2956 
Q 1341 3275 1631 3429 
Q 1922 3584 2338 3584 
Q 2397 3584 2469 3576 
Q 2541 3569 2628 3553 
L 2631 2963 
z
" transform="scale(0.015625)"/>
       <path id="DejaVuSans-74" d="M 1172 4494 
L 1172 3500 
L 2356 3500 
L 2356 3053 
L 1172 3053 
L 1172 1153 
Q 1172 725 1289 603 
Q 1406 481 1766 481 
L 2356 481 
L 2356 0 
L 1766 0 
Q 1100 0 847 248 
Q 594 497 594 1153 
L 594 3053 
L 172 3053 
L 172 3500 
L 594 3500 
L 594 4494 
L 1172 4494 
z
" transform="scale(0.015625)"/>
       <path id="DejaVuSans-63" d="M 3122 3366 
L 3122 2828 
Q 2878 2963 2633 3030 
Q 2388 3097 2138 3097 
Q 1578 3097 1268 2742 
Q 959 2388 959 1747 
Q 959 1106 1268 751 
Q 1578 397 2138 397 
Q 2388 397 2633 464 
Q 2878 531 3122 666 
L 3122 134 
Q 2881 22 2623 -34 
Q 2366 -91 2075 -91 
Q 1284 -91 818 406 
Q 353 903 353 1747 
Q 353 2603 823 3093 
Q 1294 3584 2113 3584 
Q 2378 3584 2631 3529 
Q 2884 3475 3122 3366 
z
" transform="scale(0.015625)"/>
       <path id="DejaVuSans-20" transform="scale(0.015625)"/>
       <path id="DejaVuSans-43" d="M 4122 4306 
L 4122 3641 
Q 3803 3938 3442 4084 
Q 3081 4231 2675 4231 
Q 1875 4231 1450 3742 
Q 1025 3253 1025 2328 
Q 1025 1406 1450 917 
Q 1875 428 2675 428 
Q 3081 428 3442 575 
Q 3803 722 4122 1019 
L 4122 359 
Q 3791 134 3420 21 
Q 3050 -91 2638 -91 
Q 1578 -91 968 557 
Q 359 1206 359 2328 
Q 359 3453 968 4101 
Q 1578 4750 2638 4750 
Q 3056 4750 3426 4639 
Q 3797 4528 4122 4306 
z
" transform="scale(0.015625)"/>
       <path id="DejaVuSans-6f" d="M 1959 3097 
Q 1497 3097 1228 2736 
Q 959 2375 959 1747 
Q 959 1119 1226 758 
Q 1494 397 1959 397 
Q 2419 397 2687 759 
Q 2956 1122 2956 1747 
Q 2956 2369 2687 2733 
Q 2419 3097 1959 3097 
z
M 1959 3584 
Q 2709 3584 3137 3096 
Q 3566 2609 3566 1747 
Q 3566 888 3137 398 
Q 2709 -91 1959 -91 
Q 1206 -91 779 398 
Q 353 888 353 1747 
Q 353 2609 779 3096 
Q 1206 3584 1959 3584 
z
" transform="scale(0.015625)"/>
       <path id="DejaVuSans-76" d="M 191 3500 
L 800 3500 
L 1894 563 
L 2988 3500 
L 3597 3500 
L 2284 0 
L 1503 0 
L 191 3500 
z
" transform="scale(0.015625)"/>
       <path id="DejaVuSans-6e" d="M 3513 2113 
L 3513 0 
L 2938 0 
L 2938 2094 
Q 2938 2591 2744 2837 
Q 2550 3084 2163 3084 
Q 1697 3084 1428 2787 
Q 1159 2491 1159 1978 
L 1159 0 
L 581 0 
L 581 3500 
L 1159 3500 
L 1159 2956 
Q 1366 3272 1645 3428 
Q 1925 3584 2291 3584 
Q 2894 3584 3203 3211 
Q 3513 2838 3513 2113 
z
" transform="scale(0.015625)"/>
      </defs>
      <use xlink:href="#DejaVuSans-51"/>
      <use xlink:href="#DejaVuSans-75" x="78.710938"/>
      <use xlink:href="#DejaVuSans-61" x="142.089844"/>
      <use xlink:href="#DejaVuSans-64" x="203.369141"/>
      <use xlink:href="#DejaVuSans-72" x="266.845703"/>
      <use xlink:href="#DejaVuSans-61" x="307.958984"/>
      <use xlink:href="#DejaVuSans-74" x="369.238281"/>
      <use xlink:href="#DejaVuSans-69" x="408.447266"/>
      <use xlink:href="#DejaVuSans-63" x="436.230469"/>
      <use xlink:href="#DejaVuSans-20" x="491.210938"/>
      <use xlink:href="#DejaVuSans-43" x="522.998047"/>
      <use xlink:href="#DejaVuSans-6f" x="592.822266"/>
      <use xlink:href="#DejaVuSans-76" x="654.003906"/>
      <use xlink:href="#DejaVuSans-61" x="713.183594"/>
      <use xlink:href="#DejaVuSans-72" x="774.462891"/>
      <use xlink:href="#DejaVuSans-69" x="815.576172"/>
      <use xlink:href="#DejaVuSans-61" x="843.359375"/>
      <use xlink:href="#DejaVuSans-74" x="904.638672"/>
      <use xlink:href="#DejaVuSans-69" x="943.847656"/>
      <use xlink:href="#DejaVuSans-6f" x="971.630859"/>
      <use xlink:href="#DejaVuSans-6e" x="1032.8125"/>
     </g>
    </g>
   </g>
   <g id="line2d_15">
    <path d="M 161.509091 119.494497 
L 162.219273 117.356997 
L 162.929455 120.257409 
L 163.639636 125.133855 
L 164.349818 134.928893 
L 165.06 135.536844 
L 165.770182 134.231524 
L 166.480364 137.773396 
L 167.190545 139.41746 
L 167.900727 130.470162 
L 168.610909 130.691053 
L 169.321091 137.82905 
L 170.031273 141.889233 
L 170.741455 141.631494 
L 171.451636 130.6717 
L 172.161818 136.532354 
L 172.872 135.067833 
L 173.582182 124.244498 
L 175.002545 113.220534 
L 175.712727 118.712566 
L 176.422909 121.005532 
L 177.133091 113.186421 
L 177.843273 106.843314 
L 178.553455 107.447225 
L 179.263636 105.308206 
L 179.973818 109.249745 
L 180.684 115.965467 
L 181.394182 124.849476 
L 182.104364 130.751222 
L 182.814545 129.614749 
L 185.655273 109.218702 
L 186.365455 108.948675 
L 187.075636 114.749971 
L 187.785818 114.067437 
L 188.496 114.897161 
L 189.206182 116.285788 
L 189.916364 119.006822 
L 190.626545 113.816618 
L 191.336727 113.060707 
L 192.046909 113.475409 
L 192.757091 108.286679 
L 193.467273 106.584854 
L 194.177455 110.477089 
L 194.887636 113.324934 
L 195.597818 114.571761 
L 196.308 109.710281 
L 197.018182 116.86954 
L 197.728364 106.943163 
L 198.438545 108.475537 
L 199.148727 110.334492 
L 199.858909 121.670313 
L 200.569091 136.001436 
L 201.279273 132.624484 
L 201.989455 134.803364 
L 203.409818 158.829694 
L 204.12 162.720363 
L 204.830182 170.431891 
L 205.540364 180.759286 
L 206.250545 181.821322 
L 206.960727 184.949481 
L 207.670909 180.753635 
L 208.381091 182.567461 
L 209.091273 188.778783 
L 209.801455 199.488223 
L 210.511636 197.120108 
L 211.221818 197.023317 
L 211.932 194.711074 
L 212.642182 195.535057 
L 213.352364 205.42948 
L 214.062545 207.164723 
L 214.772727 210.531558 
L 215.482909 217.592585 
L 216.193091 217.027182 
L 216.903273 208.593816 
L 217.613455 210.728198 
L 218.323636 214.383017 
L 219.033818 206.59594 
L 219.744 211.292856 
L 220.454182 205.231996 
L 221.164364 212.255657 
L 221.874545 213.097882 
L 222.584727 206.109816 
L 223.294909 206.374289 
L 224.005091 206.492485 
L 224.715273 203.458684 
L 225.425455 210.486994 
L 226.135636 210.452136 
L 226.845818 213.863573 
L 227.556 207.230456 
L 228.266182 205.186002 
L 228.976364 206.131725 
L 229.686545 200.780574 
L 230.396727 193.987997 
L 231.106909 205.404015 
L 231.817091 203.920427 
L 232.527273 210.356638 
L 233.237455 206.41409 
L 233.947636 208.218343 
L 234.657818 211.298284 
L 235.368 215.376297 
L 236.078182 216.679814 
L 236.788364 208.417568 
L 237.498545 214.253331 
L 238.208727 206.475199 
L 238.918909 195.600248 
L 239.629091 193.128051 
L 240.339273 203.937011 
L 242.469818 187.673112 
L 243.18 191.162604 
L 243.890182 191.276305 
L 244.600364 194.491539 
L 245.310545 200.697233 
L 246.020727 200.757128 
L 246.730909 202.358048 
L 247.441091 200.091825 
L 248.151273 203.087787 
L 248.861455 196.817238 
L 249.571636 197.500413 
L 250.281818 188.559012 
L 250.992 174.89661 
L 251.702182 175.228586 
L 252.412364 172.743947 
L 253.122545 179.305184 
L 254.542909 162.267077 
L 255.253091 169.37696 
L 255.963273 182.314045 
L 256.673455 186.019347 
L 257.383636 198.55381 
L 258.093818 198.539714 
L 258.804 195.815146 
L 259.514182 202.591821 
L 260.224364 189.240008 
L 260.934545 189.751434 
L 261.644727 177.528048 
L 262.354909 183.716916 
L 263.065091 178.641846 
L 263.775273 184.716649 
L 264.485455 187.254311 
L 265.195636 198.492738 
L 265.905818 197.310623 
L 266.616 198.130571 
L 267.326182 204.280392 
L 268.036364 201.960008 
L 268.746545 201.480086 
L 269.456727 204.085617 
L 270.166909 204.994599 
L 270.877091 202.698859 
L 271.587273 211.154626 
L 272.297455 214.926687 
L 273.007636 205.929833 
L 273.717818 210.485001 
L 274.428 223.984781 
L 275.138182 214.469873 
L 275.848364 208.285788 
L 276.558545 212.775954 
L 277.268727 205.665442 
L 277.978909 205.266033 
L 278.689091 205.33151 
L 279.399273 206.749937 
L 280.109455 217.351686 
L 280.819636 216.599184 
L 281.529818 225.127002 
L 282.24 228.839791 
L 282.950182 225.185279 
L 283.660364 227.432366 
L 284.370545 220.3037 
L 285.080727 227.331959 
L 285.790909 228.942432 
L 286.501091 226.564418 
L 287.211273 224.667249 
L 288.631636 225.976867 
L 289.341818 231.815742 
L 290.052 242.478395 
L 290.762182 237.352725 
L 291.472364 238.111704 
L 292.182545 242.894789 
L 292.892727 231.58398 
L 293.602909 229.670311 
L 294.313091 228.802037 
L 295.023273 224.145767 
L 295.733455 224.980715 
L 296.443636 220.859597 
L 297.153818 215.083096 
L 297.864 220.305229 
L 298.574182 229.779886 
L 299.284364 226.719551 
L 299.994545 235.43981 
L 300.704727 231.526421 
L 301.414909 232.436795 
L 302.125091 240.795121 
L 302.835273 238.928928 
L 303.545455 247.667843 
L 304.255636 235.951214 
L 304.965818 238.156054 
L 305.676 241.690865 
L 306.386182 238.427667 
L 307.096364 240.852999 
L 307.806545 235.439635 
L 308.516727 237.579393 
L 309.226909 227.17696 
L 309.937091 222.958109 
L 310.647273 206.560161 
L 311.357455 208.764133 
L 312.067636 204.373507 
L 312.777818 205.601276 
L 313.488 207.93227 
L 314.908364 217.0712 
L 315.618545 219.761276 
L 316.328727 223.100844 
L 317.038909 227.589794 
L 317.749091 225.217813 
L 318.459273 218.444657 
L 319.169455 217.654516 
L 319.879636 210.367715 
L 320.589818 206.383583 
L 321.3 212.023855 
L 322.010182 211.485812 
L 322.720364 217.233501 
L 323.430545 219.233581 
L 324.140727 217.899718 
L 324.850909 227.18514 
L 326.271273 233.868095 
L 326.981455 228.689684 
L 327.691636 234.33416 
L 328.401818 247.440456 
L 329.112 245.572281 
L 329.822182 247.05277 
L 330.532364 244.214376 
L 331.242545 249.766915 
L 331.952727 252.163237 
L 332.662909 259.160808 
L 333.373091 269.277708 
L 334.083273 270.738356 
L 334.793455 282.836756 
L 335.503636 279.789576 
L 336.213818 285.340659 
L 336.924 284.448007 
L 337.634182 282.876744 
L 338.344364 272.692506 
L 339.054545 286.619034 
L 339.764727 283.162502 
L 340.474909 280.410419 
L 341.185091 296.054707 
L 341.895273 303.063698 
L 342.605455 295.984459 
L 343.315636 303.921776 
L 344.025818 302.813884 
L 344.736 287.963036 
L 345.446182 293.675896 
L 346.156364 293.029825 
L 346.866545 305.870412 
L 348.286909 318.820926 
L 348.997091 316.767615 
L 349.707273 309.297135 
L 350.417455 304.133376 
L 351.127636 297.900238 
L 351.837818 298.168921 
L 352.548 297.682645 
L 353.258182 300.808581 
L 353.968364 301.776623 
L 354.678545 309.309478 
L 355.388727 301.418791 
L 356.098909 299.855343 
L 356.809091 287.833407 
L 357.519273 273.870616 
L 358.229455 265.018129 
L 358.939636 268.079183 
L 359.649818 272.713377 
L 360.36 276.19207 
L 361.070182 275.345164 
L 361.780364 290.544269 
L 362.490545 294.217143 
L 363.200727 298.892901 
L 363.910909 302.364069 
L 364.621091 293.880329 
L 365.331273 291.705742 
L 366.041455 289.894163 
L 366.751636 296.266213 
L 367.461818 288.84716 
L 368.172 274.626637 
L 368.882182 262.780848 
L 369.592364 262.959422 
L 370.302545 264.779158 
L 371.012727 261.974874 
L 371.722909 276.637376 
L 372.433091 273.51722 
L 373.143273 273.79444 
L 373.853455 280.103113 
L 374.563636 282.632312 
L 375.273818 286.295026 
L 375.984 281.723216 
L 376.694182 281.096437 
L 378.114545 280.602239 
L 378.824727 292.203457 
L 380.245091 308.319184 
L 380.955273 303.90214 
L 381.665455 304.664084 
L 382.375636 306.060717 
L 383.085818 302.108356 
L 383.796 296.23243 
L 384.506182 291.365384 
L 385.216364 288.260649 
L 385.926545 285.977118 
L 386.636727 281.036747 
L 387.346909 287.867124 
L 388.057091 287.337811 
L 388.767273 297.173154 
L 389.477455 298.329674 
L 390.187636 297.983003 
L 390.897818 296.693362 
L 391.608 290.292995 
L 392.318182 288.897429 
L 393.028364 288.941466 
L 393.738545 285.003833 
L 394.448727 275.037616 
L 395.158909 275.125378 
L 395.869091 277.131621 
L 396.579273 282.516022 
L 397.999636 273.14198 
L 398.709818 265.290034 
L 399.42 265.023768 
L 400.130182 272.250005 
L 400.840364 264.446738 
L 401.550545 248.852514 
L 402.260727 251.711001 
L 402.970909 259.960536 
L 403.681091 265.068314 
L 404.391273 272.789569 
L 405.101455 279.129965 
L 406.521818 268.253087 
L 407.232 272.5088 
L 407.942182 279.405363 
L 409.362545 273.427023 
L 410.072727 266.629451 
L 410.782909 272.360673 
L 411.493091 271.114741 
L 412.203273 263.923761 
L 412.913455 258.227416 
L 413.623636 255.12197 
L 414.333818 236.948351 
L 415.044 227.684861 
L 415.754182 222.326587 
L 416.464364 215.222952 
L 417.174545 215.772974 
L 417.884727 226.204759 
L 418.594909 223.490726 
L 419.305091 225.63741 
L 420.015273 227.4146 
L 420.725455 231.359177 
L 421.435636 237.965554 
L 422.145818 227.411981 
L 422.856 230.146041 
L 423.566182 235.619863 
L 424.276364 242.530955 
L 424.986545 237.294057 
L 425.696727 229.909023 
L 426.406909 232.820042 
L 427.117091 222.151444 
L 427.827273 220.951009 
L 428.537455 212.95462 
L 429.247636 208.366232 
L 429.957818 205.334755 
L 430.668 219.59372 
L 431.378182 219.635791 
L 432.088364 237.335872 
L 432.798545 236.745426 
L 433.508727 233.019837 
L 434.218909 238.601301 
L 434.929091 232.077825 
L 435.639273 227.904735 
L 436.349455 225.018256 
L 437.059636 229.029935 
L 437.769818 230.367559 
L 438.48 224.8596 
L 439.900364 209.998372 
L 440.610545 217.932559 
L 441.320727 218.577114 
L 442.030909 218.222585 
L 442.741091 230.00114 
L 443.451273 228.002052 
L 444.161455 220.943062 
L 444.871636 225.962134 
L 445.581818 227.039143 
L 446.292 224.60164 
L 447.002182 225.203085 
L 447.712364 224.317044 
L 448.422545 220.041823 
L 449.132727 226.470846 
L 449.842909 215.928147 
L 450.553091 216.931372 
L 451.263273 209.760888 
L 451.973455 206.843682 
L 452.683636 200.353942 
L 453.393818 202.11576 
L 454.104 210.112925 
L 454.814182 196.591735 
L 455.524364 209.135421 
L 456.234545 208.827597 
L 456.944727 219.202662 
L 457.654909 213.441951 
L 458.365091 220.456635 
L 459.075273 208.749904 
L 459.785455 199.698983 
L 460.495636 194.378913 
L 461.205818 190.370818 
L 461.916 189.303962 
L 462.626182 181.582162 
L 463.336364 197.516301 
L 464.046545 194.764416 
L 464.756727 194.970792 
L 465.466909 190.13178 
L 466.177091 187.621201 
L 466.887273 179.451313 
L 467.597455 169.804109 
L 468.307636 161.838714 
L 469.017818 152.037621 
L 469.728 147.472476 
L 470.438182 149.257976 
L 471.148364 151.707847 
L 471.858545 142.999114 
L 472.568727 148.093134 
L 473.278909 149.271787 
L 473.989091 144.551183 
L 474.699273 147.46315 
L 475.409455 142.615621 
L 476.119636 148.029959 
L 476.829818 144.695469 
L 477.54 148.877837 
L 478.250182 149.079026 
L 478.960364 149.760793 
L 479.670545 146.407661 
L 480.380727 134.641997 
L 481.090909 143.100287 
L 481.801091 137.780703 
L 482.511273 134.815446 
L 483.221455 143.624979 
L 483.931636 139.656945 
L 484.641818 146.175479 
L 486.062182 143.325603 
L 486.772364 133.03054 
L 487.482545 139.592146 
L 488.192727 133.378443 
L 488.902909 132.26704 
L 489.613091 130.416513 
L 490.323273 134.420722 
L 491.033455 142.829799 
L 491.743636 138.115518 
L 492.453818 132.541401 
L 493.164 130.403816 
L 493.874182 134.073698 
L 494.584364 138.771892 
L 495.294545 136.915515 
L 496.714909 126.432151 
L 497.425091 127.967431 
L 498.135273 121.34555 
L 498.845455 120.554368 
L 499.555636 131.525237 
L 500.265818 127.461242 
L 500.976 132.960748 
L 501.686182 129.503456 
L 502.396364 132.595854 
L 503.106545 135.13986 
L 503.816727 140.367859 
L 504.526909 139.172377 
L 505.237091 135.964847 
L 505.947273 142.376427 
L 506.657455 146.485977 
L 507.367636 151.942365 
L 508.077818 151.597768 
L 508.788 150.713037 
L 509.498182 156.671364 
L 510.208364 157.401993 
L 510.918545 159.497642 
L 511.628727 162.006966 
L 512.338909 168.771974 
L 513.049091 170.248277 
L 513.759273 166.840114 
L 514.469455 160.755819 
L 515.179636 159.329202 
L 515.889818 156.703593 
L 516.6 157.522822 
L 518.020364 168.602576 
L 518.730545 161.44661 
L 520.150909 153.178969 
L 520.861091 166.889931 
L 521.571273 163.511717 
L 522.281455 162.399415 
L 522.991636 155.333199 
L 523.701818 157.061062 
L 524.412 149.008848 
L 525.122182 146.917451 
L 525.832364 157.464509 
L 526.542545 159.202532 
L 527.252727 162.509958 
L 527.962909 159.776637 
L 528.673091 151.960912 
L 529.383273 150.603115 
L 530.093455 151.486959 
L 530.803636 156.751521 
L 531.513818 157.107893 
L 532.934182 169.997547 
L 533.644364 166.869417 
L 534.354545 157.35702 
L 535.064727 156.128748 
L 535.774909 158.767641 
L 536.485091 159.019437 
L 537.195273 154.542752 
L 537.905455 152.740804 
L 538.615636 161.736806 
L 539.325818 161.397501 
L 540.036 150.821996 
L 540.746182 148.363628 
L 542.166545 153.564165 
L 542.876727 160.888824 
L 543.586909 161.67487 
L 544.297091 154.197403 
L 545.007273 154.388134 
L 545.717455 154.342674 
L 546.427636 161.267079 
L 547.137818 156.449624 
L 547.848 162.890729 
L 548.558182 161.13806 
L 549.268364 162.984954 
L 549.978545 163.699333 
L 550.688727 155.079104 
L 551.398909 155.039533 
L 552.109091 150.326841 
L 552.819273 150.249875 
L 553.529455 141.41256 
L 554.239636 146.877431 
L 554.949818 144.042973 
L 555.66 144.614912 
L 556.370182 145.9065 
L 557.080364 144.351731 
L 557.790545 154.73936 
L 558.500727 152.788001 
L 559.210909 149.130612 
L 559.921091 143.746145 
L 560.631273 136.877647 
L 561.341455 137.575387 
L 562.051636 141.850416 
L 562.761818 132.334584 
L 563.472 130.410083 
L 564.182182 130.032675 
L 564.892364 134.585279 
L 565.602545 133.006369 
L 566.312727 133.111632 
L 567.022909 135.645738 
L 567.733091 140.783179 
L 568.443273 149.220294 
L 569.153455 149.457435 
L 569.863636 152.040687 
L 570.573818 161.674046 
L 571.284 152.322849 
L 571.994182 150.888299 
L 572.704364 153.363446 
L 573.414545 152.796585 
L 574.124727 148.949299 
L 574.834909 149.54047 
L 575.545091 144.471072 
L 576.255273 142.481337 
L 577.675636 154.016995 
L 578.385818 161.299702 
L 579.096 160.811115 
L 579.806182 163.263737 
L 580.516364 162.911715 
L 581.226545 162.35294 
L 581.936727 161.356746 
L 582.646909 146.243525 
L 583.357091 143.450401 
L 584.067273 137.72597 
L 584.777455 133.475982 
L 585.487636 135.173312 
L 586.197818 142.468924 
L 586.908 143.945931 
L 587.618182 141.827737 
L 588.328364 149.069699 
L 589.038545 164.015864 
L 589.748727 170.05325 
L 590.458909 166.398752 
L 591.169091 157.7724 
L 592.589455 134.821029 
L 593.299636 138.535553 
L 594.009818 141.088791 
L 594.72 138.49806 
L 595.430182 131.821363 
L 596.140364 138.162747 
L 596.850545 131.795841 
L 597.560727 135.978016 
L 598.270909 142.341463 
L 598.981091 144.092941 
L 599.691273 139.823784 
L 600.401455 150.618664 
L 601.111636 151.540244 
L 601.821818 142.657741 
L 602.532 141.70211 
L 603.242182 134.86375 
L 603.952364 137.51054 
L 604.662545 143.312569 
L 605.372727 131.762276 
L 606.082909 134.579947 
L 606.793091 132.695091 
L 607.503273 128.254061 
L 608.213455 130.659813 
L 608.923636 129.010808 
L 610.344 135.694292 
L 611.054182 134.43078 
L 611.764364 135.922643 
L 612.474545 137.130026 
L 613.184727 125.456179 
L 613.894909 125.38889 
L 614.605091 138.93149 
L 615.315273 143.152125 
L 616.025455 144.345865 
L 616.735636 142.062625 
L 617.445818 146.811929 
L 618.156 142.447878 
L 618.866182 151.417298 
L 619.576364 155.900983 
L 620.286545 150.497722 
L 621.706909 147.121812 
L 622.417091 146.347133 
L 623.127273 139.884938 
L 623.837455 141.005303 
L 624.547636 150.731293 
L 625.257818 154.951614 
L 625.968 147.946928 
L 626.678182 157.400507 
L 627.388364 152.973081 
L 628.098545 151.26394 
L 628.808727 156.853187 
L 629.518909 138.415355 
L 630.229091 138.420376 
L 630.939273 136.424828 
L 631.649455 138.70626 
L 632.359636 139.709286 
L 633.069818 142.008966 
L 633.78 138.217851 
L 634.490182 130.077869 
L 635.200364 145.284185 
L 635.910545 140.756538 
L 636.620727 150.951866 
L 637.330909 147.051098 
L 638.041091 141.70157 
L 638.751273 141.329899 
L 639.461455 132.418858 
L 640.171636 132.73182 
L 641.592 123.023309 
L 642.302182 127.962346 
L 643.012364 123.457836 
L 643.722545 128.401575 
L 644.432727 129.432972 
L 645.142909 124.429139 
L 645.853091 122.257645 
L 646.563273 130.182016 
L 647.273455 116.819717 
L 647.983636 113.892531 
L 648.693818 114.293231 
L 649.404 119.95715 
L 650.114182 129.274293 
L 650.824364 148.280185 
L 651.534545 141.772436 
L 652.244727 138.267841 
L 652.954909 137.34824 
L 653.665091 140.20868 
L 654.375273 144.298239 
L 655.795636 128.155126 
L 656.505818 138.815718 
L 657.216 137.380562 
L 657.926182 129.738176 
L 658.636364 128.494537 
L 659.346545 118.896712 
L 660.056727 127.621398 
L 660.766909 118.995912 
L 661.477091 115.272929 
L 662.187273 112.335891 
L 662.897455 115.188445 
L 663.607636 115.523585 
L 664.317818 113.316869 
L 665.028 102.992562 
L 666.448364 132.770943 
L 667.158545 133.313792 
L 667.868727 135.182065 
L 668.578909 138.736721 
L 669.289091 139.417985 
L 669.999273 142.927 
L 670.709455 149.823755 
L 671.419636 150.130964 
L 672.129818 148.053812 
L 672.84 150.435901 
L 673.550182 136.665081 
L 674.260364 131.834495 
L 674.970545 129.856438 
L 675.680727 135.895943 
L 676.390909 127.766728 
L 677.101091 127.3598 
L 677.811273 132.517106 
L 678.521455 135.093896 
L 679.231636 144.803583 
L 679.941818 152.808755 
L 680.652 151.788628 
L 681.362182 153.791588 
L 682.072364 153.944661 
L 682.782545 156.09945 
L 683.492727 154.264927 
L 684.202909 160.598371 
L 684.913091 161.557282 
L 685.623273 168.89914 
L 686.333455 161.657541 
L 687.043636 163.679662 
L 687.753818 163.478777 
L 688.464 158.226457 
L 689.174182 146.828409 
L 689.884364 152.177121 
L 690.594545 151.19316 
L 691.304727 157.451045 
L 692.014909 162.079718 
L 692.725091 174.821442 
L 693.435273 175.106824 
L 694.145455 173.759656 
L 694.855636 180.662222 
L 695.565818 182.94115 
L 696.986182 198.916575 
L 697.696364 197.668665 
L 698.406545 198.144511 
L 699.116727 196.571003 
L 699.826909 196.314321 
L 700.537091 200.190832 
L 701.247273 191.991234 
L 701.957455 193.358312 
L 702.667636 192.481661 
L 703.377818 198.043231 
L 704.088 196.42847 
L 704.798182 192.560785 
L 705.508364 202.311752 
L 706.218545 209.160391 
L 706.928727 204.179305 
L 707.638909 215.369042 
L 708.349091 218.657651 
L 709.059273 214.956147 
L 709.769455 220.414892 
L 710.479636 220.161349 
L 711.189818 230.125078 
L 711.9 231.047782 
L 712.610182 234.647747 
L 713.320364 238.833573 
L 714.030545 235.368509 
L 714.740727 226.743505 
L 715.450909 230.68394 
L 716.161091 233.637081 
L 716.871273 237.17558 
L 717.581455 232.275046 
L 718.291636 231.216673 
L 719.001818 237.683159 
L 719.712 252.500715 
L 720.422182 249.791453 
L 721.132364 248.761324 
L 722.552727 249.931613 
L 723.262909 248.492258 
L 723.973091 250.308766 
L 724.683273 248.113548 
L 725.393455 249.708942 
L 726.103636 254.714211 
L 726.813818 245.385128 
L 727.524 249.312018 
L 728.234182 254.789196 
L 728.944364 249.134317 
L 729.654545 253.576706 
L 730.364727 269.937277 
L 731.074909 268.967289 
L 731.785091 262.529988 
L 732.495273 260.913324 
L 733.205455 262.972551 
L 733.915636 257.875342 
L 735.336 249.33725 
L 736.046182 249.040629 
L 736.756364 250.27966 
L 737.466545 252.075928 
L 738.176727 263.979731 
L 738.886909 260.038129 
L 739.597091 268.433258 
L 740.307273 263.494091 
L 741.017455 267.093312 
L 741.727636 264.469077 
L 742.437818 263.331773 
L 743.148 267.296541 
L 744.568364 272.095332 
L 745.278545 280.984951 
L 745.988727 276.037224 
L 746.698909 281.706576 
L 747.409091 274.784583 
L 748.119273 287.963703 
L 749.539636 279.339462 
L 750.249818 291.533278 
L 750.96 287.591033 
L 751.670182 287.802087 
L 752.380364 290.052124 
L 753.090545 290.558783 
L 753.800727 287.476201 
L 754.510909 282.605876 
L 755.221091 270.339513 
L 755.931273 270.046856 
L 756.641455 280.148498 
L 757.351636 283.378469 
L 758.061818 282.89556 
L 758.772 282.159661 
L 759.482182 281.908545 
L 760.192364 284.575301 
L 760.902545 281.426808 
L 761.612727 281.754301 
L 762.322909 276.44385 
L 763.033091 269.269043 
L 763.743273 267.469515 
L 765.163636 266.338975 
L 765.873818 261.579073 
L 767.294182 260.792353 
L 768.004364 258.57365 
L 768.714545 260.595269 
L 769.424727 264.263227 
L 770.134909 264.654559 
L 771.555273 257.1735 
L 772.265455 256.321145 
L 772.975636 250.493883 
L 773.685818 250.199764 
L 774.396 251.040564 
L 775.816364 232.081774 
L 776.526545 236.657223 
L 777.946909 240.809736 
L 778.657091 233.862143 
L 780.077455 238.737784 
L 780.787636 234.241336 
L 781.497818 242.658621 
L 782.208 253.632039 
L 782.918182 250.731305 
L 783.628364 249.147987 
L 784.338545 245.07589 
L 785.048727 248.051461 
L 786.469091 235.04285 
L 787.179273 227.712859 
L 787.889455 229.630136 
L 788.599636 220.11333 
L 789.309818 223.932802 
L 790.02 220.696916 
L 790.730182 226.737015 
L 791.440364 224.103253 
L 792.150545 220.854473 
L 792.860727 218.651283 
L 793.570909 222.360583 
L 794.281091 208.306534 
L 794.991273 206.019976 
L 796.411636 193.482169 
L 797.121818 193.012799 
L 797.832 183.526346 
L 798.542182 191.492806 
L 799.252364 201.401063 
L 799.962545 191.06681 
L 800.672727 187.128025 
L 801.382909 193.589199 
L 802.093091 195.013174 
L 802.803273 195.206477 
L 803.513455 194.323408 
L 804.223636 203.056904 
L 804.933818 205.258032 
L 806.354182 218.810571 
L 807.064364 214.926856 
L 807.774545 218.007502 
L 808.484727 223.80845 
L 809.194909 228.076918 
L 809.905091 222.972537 
L 810.615273 224.866166 
L 811.325455 223.170272 
L 812.035636 211.529508 
L 812.745818 207.119482 
L 813.456 212.337911 
L 814.166182 210.960338 
L 814.876364 206.564403 
L 815.586545 210.412002 
L 816.296727 217.094708 
L 817.006909 213.713916 
L 817.717091 217.859901 
L 818.427273 225.18524 
L 819.137455 208.578384 
L 819.847636 209.639577 
L 820.557818 207.377127 
L 821.268 190.587386 
L 821.978182 193.71007 
L 822.688364 185.989757 
L 823.398545 181.532429 
L 824.108727 181.835036 
L 824.818909 178.290157 
L 825.529091 175.549574 
L 826.949455 173.165754 
L 827.659636 179.686846 
L 828.369818 179.167862 
L 829.08 176.108703 
L 829.790182 183.626858 
L 830.500364 175.748532 
L 831.210545 174.448784 
L 831.920727 175.320541 
L 832.630909 171.822277 
L 833.341091 169.505576 
L 834.761455 160.927951 
L 835.471636 157.648446 
L 836.181818 156.746235 
L 836.892 162.097803 
L 838.312364 190.706247 
L 839.022545 193.859914 
L 839.732727 195.654136 
L 840.442909 183.493414 
L 841.153091 194.983487 
L 841.863273 215.3299 
L 842.573455 222.657209 
L 843.283636 234.672265 
L 843.993818 235.597084 
L 845.414182 228.905029 
L 846.124364 224.51529 
L 846.834545 235.87728 
L 847.544727 236.501493 
L 848.254909 243.155766 
L 848.965091 232.120948 
L 849.675273 235.858315 
L 850.385455 233.67078 
L 851.095636 240.786409 
L 851.805818 233.664685 
L 852.516 228.095954 
L 853.226182 224.970248 
L 853.936364 233.066198 
L 854.646545 239.80026 
L 855.356727 235.335083 
L 856.066909 232.788989 
L 856.777091 246.632713 
L 857.487273 244.320034 
L 858.197455 236.324858 
L 858.907636 234.477573 
L 859.617818 244.938492 
L 860.328 242.447276 
L 861.038182 240.397897 
L 861.748364 237.129475 
L 862.458545 230.827452 
L 863.168727 239.149233 
L 863.878909 235.948925 
L 864.589091 227.195814 
L 865.299273 235.891274 
L 866.009455 238.134544 
L 866.719636 244.350365 
L 867.429818 245.759776 
L 868.14 224.682063 
L 868.850182 219.335289 
L 870.270545 210.460136 
L 870.980727 209.507292 
L 871.690909 202.503338 
L 871.690909 202.503338 
" clip-path="url(#p3a8452e5af)" style="fill: none; stroke: #1f77b4; stroke-width: 1.5; stroke-linecap: square"/>
   </g>
   <g id="line2d_16">
    <path d="M 161.509091 119.494497 
L 162.219273 116.09631 
L 164.349818 135.147316 
L 165.06 137.490577 
L 165.770182 133.832797 
L 166.480364 138.6243 
L 167.190545 151.315392 
L 167.900727 142.507186 
L 168.610909 126.264281 
L 169.321091 132.721927 
L 170.031273 137.910569 
L 170.741455 133.506631 
L 171.451636 124.063577 
L 172.161818 128.883186 
L 172.872 118.464891 
L 173.582182 96.314945 
L 174.292364 89.658698 
L 175.002545 94.682381 
L 175.712727 98.604508 
L 176.422909 96.645724 
L 177.133091 89.223758 
L 177.843273 78.803536 
L 178.553455 77.179602 
L 179.263636 76.658181 
L 179.973818 86.995304 
L 180.684 84.209372 
L 181.394182 99.852334 
L 182.104364 89.974545 
L 182.814545 93.058772 
L 183.524727 85.832282 
L 184.234909 82.44571 
L 184.945091 85.077054 
L 185.655273 79.296325 
L 186.365455 66.96 
L 187.075636 71.535771 
L 187.785818 75.166972 
L 188.496 67.534667 
L 189.206182 79.166313 
L 189.916364 78.788478 
L 190.626545 76.970419 
L 191.336727 86.379397 
L 192.046909 86.721112 
L 192.757091 76.991503 
L 193.467273 88.519647 
L 194.177455 86.615984 
L 194.887636 82.817227 
L 195.597818 80.282998 
L 196.308 84.482524 
L 197.018182 95.730944 
L 197.728364 92.300349 
L 198.438545 96.171897 
L 199.148727 99.277669 
L 199.858909 113.581464 
L 200.569091 120.833119 
L 201.279273 119.433829 
L 201.989455 126.20124 
L 203.409818 149.911423 
L 204.12 169.117317 
L 204.830182 168.725901 
L 205.540364 181.611108 
L 206.250545 171.131178 
L 206.960727 163.323665 
L 208.381091 168.770658 
L 209.091273 170.522376 
L 209.801455 190.783817 
L 210.511636 192.715285 
L 211.221818 190.82915 
L 211.932 189.364015 
L 212.642182 190.494343 
L 214.062545 204.765923 
L 214.772727 208.12637 
L 215.482909 209.478257 
L 216.193091 206.412142 
L 216.903273 199.623161 
L 217.613455 198.612203 
L 218.323636 195.234862 
L 219.033818 196.906508 
L 219.744 202.182842 
L 220.454182 201.910381 
L 221.164364 211.195402 
L 221.874545 214.99612 
L 222.584727 194.261682 
L 223.294909 192.64874 
L 224.005091 192.351449 
L 224.715273 187.079847 
L 225.425455 193.649373 
L 226.135636 202.494584 
L 226.845818 214.150519 
L 227.556 204.431672 
L 228.266182 204.209305 
L 228.976364 215.575208 
L 229.686545 224.136118 
L 230.396727 220.48913 
L 232.527273 250.665572 
L 233.237455 242.816138 
L 233.947636 256.924352 
L 234.657818 256.212485 
L 235.368 249.791319 
L 236.078182 234.820722 
L 236.788364 234.069237 
L 237.498545 235.349915 
L 238.208727 226.291954 
L 238.918909 228.358058 
L 239.629091 228.96603 
L 240.339273 234.213617 
L 241.759636 209.759349 
L 242.469818 202.692528 
L 243.18 209.985826 
L 243.890182 205.550115 
L 245.310545 232.891379 
L 246.020727 235.987622 
L 246.730909 231.878232 
L 247.441091 230.634575 
L 248.151273 237.45342 
L 248.861455 232.009019 
L 249.571636 236.215821 
L 250.281818 225.733692 
L 250.992 210.252216 
L 251.702182 207.27072 
L 252.412364 202.601788 
L 253.122545 199.540771 
L 253.832727 190.914946 
L 254.542909 173.807189 
L 255.253091 179.171318 
L 255.963273 190.475123 
L 257.383636 208.702066 
L 258.093818 218.787804 
L 258.804 215.402419 
L 259.514182 225.974764 
L 260.224364 210.392854 
L 260.934545 218.207555 
L 261.644727 203.088089 
L 262.354909 210.392764 
L 263.065091 199.6044 
L 263.775273 206.320265 
L 264.485455 200.839967 
L 265.195636 204.297382 
L 265.905818 193.995099 
L 266.616 199.516066 
L 267.326182 197.337163 
L 268.036364 198.072747 
L 268.746545 206.616657 
L 269.456727 207.749232 
L 270.166909 196.002567 
L 270.877091 195.757617 
L 271.587273 209.893208 
L 272.297455 218.805499 
L 273.007636 205.262646 
L 273.717818 211.537729 
L 274.428 222.865567 
L 275.138182 202.709096 
L 276.558545 210.23741 
L 277.268727 213.930339 
L 277.978909 211.903795 
L 278.689091 212.883748 
L 279.399273 216.753695 
L 280.109455 233.135235 
L 280.819636 229.247505 
L 281.529818 228.407441 
L 282.24 234.943777 
L 282.950182 237.437544 
L 283.660364 236.611076 
L 284.370545 233.978626 
L 285.080727 225.204921 
L 285.790909 223.191328 
L 286.501091 223.83581 
L 287.211273 230.31447 
L 287.921455 232.59064 
L 288.631636 232.315098 
L 289.341818 246.855636 
L 290.052 255.131447 
L 290.762182 246.738076 
L 291.472364 248.822172 
L 292.182545 255.158408 
L 292.892727 241.389493 
L 293.602909 237.372448 
L 294.313091 235.042379 
L 296.443636 193.134299 
L 297.153818 192.130331 
L 297.864 206.822347 
L 298.574182 217.654903 
L 299.284364 209.199705 
L 299.994545 210.400949 
L 300.704727 209.284893 
L 301.414909 214.927366 
L 302.125091 222.559447 
L 302.835273 217.916463 
L 303.545455 235.575426 
L 304.255636 219.454936 
L 304.965818 222.925419 
L 305.676 227.230894 
L 306.386182 228.866601 
L 307.096364 236.164071 
L 307.806545 236.772784 
L 308.516727 236.01869 
L 309.226909 226.503581 
L 309.937091 230.860093 
L 310.647273 212.456018 
L 311.357455 216.562522 
L 312.067636 218.280768 
L 312.777818 219.632858 
L 313.488 223.943666 
L 314.198182 231.937202 
L 314.908364 232.930516 
L 315.618545 233.63985 
L 316.328727 244.35392 
L 317.038909 247.141426 
L 317.749091 258.750987 
L 318.459273 248.852909 
L 319.169455 242.385196 
L 319.879636 243.418779 
L 320.589818 237.549655 
L 321.3 246.23969 
L 322.010182 245.428339 
L 322.720364 252.944653 
L 323.430545 246.151878 
L 324.140727 246.692865 
L 324.850909 257.622032 
L 325.561091 257.739192 
L 326.271273 269.500538 
L 326.981455 256.416073 
L 327.691636 264.417564 
L 328.401818 278.442173 
L 329.112 284.569635 
L 329.822182 294.260129 
L 330.532364 292.029097 
L 331.242545 293.181185 
L 331.952727 286.411763 
L 332.662909 289.585729 
L 333.373091 302.212528 
L 334.083273 299.860977 
L 334.793455 316.760477 
L 335.503636 313.664273 
L 336.213818 324.883081 
L 336.924 324.145427 
L 337.634182 324.522111 
L 338.344364 304.847718 
L 339.054545 313.953941 
L 339.764727 313.155075 
L 340.474909 308.512301 
L 341.185091 314.823555 
L 341.895273 318.616216 
L 342.605455 312.508272 
L 343.315636 328.736457 
L 344.025818 328.622282 
L 344.736 314.785039 
L 345.446182 335.519693 
L 346.156364 331.843625 
L 346.866545 351.318521 
L 347.576727 366.392051 
L 348.286909 369.36 
L 348.997091 367.502887 
L 350.417455 353.492334 
L 351.127636 331.720326 
L 351.837818 325.362396 
L 352.548 336.27551 
L 353.258182 340.024991 
L 353.968364 336.694658 
L 354.678545 343.903929 
L 355.388727 338.528561 
L 356.098909 338.163808 
L 356.809091 318.241035 
L 358.229455 287.983312 
L 358.939636 299.393786 
L 359.649818 296.877741 
L 360.36 297.431483 
L 361.070182 302.603417 
L 361.780364 318.667244 
L 362.490545 325.055724 
L 363.200727 324.717872 
L 363.910909 324.530294 
L 365.331273 307.657423 
L 366.041455 323.72301 
L 366.751636 334.6382 
L 367.461818 321.544452 
L 368.172 305.927241 
L 368.882182 286.977584 
L 369.592364 282.226182 
L 370.302545 280.11849 
L 371.012727 275.930685 
L 371.722909 293.065267 
L 372.433091 290.517559 
L 373.143273 289.532603 
L 373.853455 289.178713 
L 374.563636 294.741589 
L 375.273818 296.895812 
L 375.984 283.627774 
L 376.694182 288.223005 
L 377.404364 288.474781 
L 378.114545 295.341277 
L 378.824727 304.323299 
L 379.534909 309.039969 
L 380.245091 307.832426 
L 380.955273 311.792349 
L 381.665455 300.938707 
L 382.375636 295.219835 
L 383.085818 303.465902 
L 383.796 291.902098 
L 384.506182 293.976254 
L 385.216364 297.664763 
L 385.926545 306.705316 
L 386.636727 298.172874 
L 387.346909 311.419761 
L 388.057091 312.640251 
L 388.767273 324.291178 
L 389.477455 314.52925 
L 390.187636 308.077923 
L 390.897818 308.39285 
L 391.608 304.523635 
L 392.318182 301.765527 
L 393.028364 294.463332 
L 393.738545 294.227988 
L 394.448727 275.15296 
L 395.158909 271.663782 
L 395.869091 254.791067 
L 396.579273 253.161544 
L 397.289455 251.21715 
L 397.999636 249.663698 
L 398.709818 249.271609 
L 400.130182 268.492174 
L 400.840364 262.764618 
L 401.550545 241.551775 
L 402.260727 238.214927 
L 402.970909 238.163852 
L 403.681091 251.021638 
L 404.391273 255.20349 
L 405.101455 269.07111 
L 405.811636 256.218156 
L 406.521818 255.250024 
L 407.232 273.405391 
L 407.942182 276.450797 
L 408.652364 285.873366 
L 409.362545 280.466378 
L 410.072727 264.465709 
L 410.782909 259.683145 
L 411.493091 257.51251 
L 412.203273 248.358273 
L 412.913455 234.155529 
L 413.623636 237.073489 
L 415.044 198.921374 
L 415.754182 197.769645 
L 416.464364 187.49962 
L 417.174545 201.944513 
L 417.884727 209.988051 
L 418.594909 206.379627 
L 419.305091 210.531226 
L 420.015273 224.340497 
L 420.725455 229.776093 
L 421.435636 244.334067 
L 422.145818 242.163177 
L 422.856 243.442435 
L 423.566182 247.024831 
L 424.276364 253.179141 
L 424.986545 251.102173 
L 425.696727 225.760617 
L 426.406909 230.835314 
L 427.117091 227.104724 
L 427.827273 228.235458 
L 428.537455 228.345606 
L 429.247636 236.57712 
L 429.957818 228.734824 
L 430.668 242.756468 
L 431.378182 243.55228 
L 432.088364 264.436956 
L 432.798545 259.384816 
L 433.508727 260.119501 
L 434.218909 260.485018 
L 434.929091 255.695616 
L 435.639273 259.270373 
L 436.349455 272.863336 
L 437.059636 277.719247 
L 437.769818 283.936744 
L 438.48 281.093231 
L 439.190182 275.045375 
L 439.900364 264.398814 
L 440.610545 271.455366 
L 441.320727 267.086085 
L 442.030909 271.677108 
L 442.741091 295.568894 
L 443.451273 293.715509 
L 444.161455 281.67567 
L 444.871636 292.175197 
L 445.581818 296.674757 
L 446.292 295.810455 
L 447.002182 299.279219 
L 447.712364 290.904999 
L 448.422545 284.273296 
L 449.132727 289.954217 
L 449.842909 269.107363 
L 450.553091 272.847677 
L 451.263273 270.324669 
L 451.973455 273.442916 
L 453.393818 260.525249 
L 454.104 271.972927 
L 454.814182 262.620534 
L 456.234545 291.36312 
L 456.944727 304.72366 
L 457.654909 295.037645 
L 458.365091 298.097223 
L 459.075273 276.861684 
L 459.785455 261.882374 
L 460.495636 253.6551 
L 461.205818 250.197692 
L 461.916 248.731064 
L 462.626182 242.922811 
L 463.336364 260.187043 
L 464.046545 258.425107 
L 464.756727 260.625475 
L 465.466909 261.908601 
L 466.177091 254.688795 
L 466.887273 240.310258 
L 467.597455 222.445961 
L 468.307636 226.012569 
L 469.728 194.240228 
L 470.438182 191.916685 
L 471.148364 200.460815 
L 471.858545 199.719495 
L 472.568727 200.871009 
L 473.278909 209.517621 
L 473.989091 212.80936 
L 474.699273 222.984163 
L 475.409455 217.787869 
L 476.119636 231.104159 
L 477.54 217.881102 
L 478.250182 221.47743 
L 478.960364 226.855058 
L 479.670545 228.850868 
L 480.380727 224.038822 
L 481.090909 226.795191 
L 481.801091 224.756006 
L 482.511273 218.769352 
L 483.221455 223.982956 
L 483.931636 211.964075 
L 484.641818 225.09818 
L 485.352 214.397778 
L 486.062182 214.067979 
L 486.772364 215.28643 
L 487.482545 212.630895 
L 488.192727 205.523653 
L 488.902909 188.878475 
L 489.613091 196.340191 
L 490.323273 207.713136 
L 491.033455 226.243298 
L 491.743636 227.842791 
L 492.453818 211.012026 
L 493.164 215.109673 
L 493.874182 217.542063 
L 494.584364 217.267893 
L 495.294545 218.113391 
L 496.004727 212.127123 
L 496.714909 211.542706 
L 498.135273 198.740927 
L 498.845455 195.327626 
L 499.555636 209.710504 
L 500.265818 204.26897 
L 500.976 208.279942 
L 501.686182 201.234631 
L 502.396364 204.722236 
L 503.106545 206.712535 
L 503.816727 209.665043 
L 504.526909 207.005557 
L 505.237091 202.579466 
L 505.947273 221.503462 
L 506.657455 222.59089 
L 507.367636 221.002357 
L 508.077818 214.558251 
L 508.788 202.623064 
L 509.498182 207.66664 
L 510.208364 198.104052 
L 510.918545 205.069636 
L 511.628727 203.927587 
L 512.338909 210.538717 
L 513.049091 211.879752 
L 513.759273 193.758149 
L 514.469455 202.974689 
L 515.179636 206.269323 
L 515.889818 199.881501 
L 516.6 197.770989 
L 517.310182 218.045776 
L 518.020364 222.659117 
L 519.440727 201.787234 
L 520.150909 196.619356 
L 520.861091 205.632668 
L 521.571273 208.860099 
L 522.281455 217.258299 
L 522.991636 212.485503 
L 523.701818 212.431213 
L 524.412 204.905784 
L 525.122182 195.251852 
L 525.832364 213.415786 
L 526.542545 217.478933 
L 527.252727 219.490735 
L 527.962909 214.788555 
L 528.673091 211.07021 
L 529.383273 218.988853 
L 530.093455 221.550336 
L 530.803636 235.713795 
L 531.513818 231.338779 
L 532.224 251.122497 
L 532.934182 253.57487 
L 533.644364 264.204734 
L 534.354545 247.364891 
L 535.064727 249.144465 
L 535.774909 259.744678 
L 536.485091 260.25119 
L 537.195273 258.659443 
L 538.615636 276.00323 
L 539.325818 277.277675 
L 540.036 279.7002 
L 540.746182 259.142195 
L 541.456364 257.758166 
L 542.876727 269.293925 
L 543.586909 268.102087 
L 544.297091 253.037748 
L 545.007273 252.747937 
L 545.717455 256.013642 
L 546.427636 253.086588 
L 547.137818 251.622636 
L 547.848 260.908197 
L 548.558182 264.18936 
L 549.268364 269.238798 
L 549.978545 275.77877 
L 551.398909 263.453252 
L 552.109091 261.915004 
L 552.819273 261.458677 
L 553.529455 261.273909 
L 554.239636 272.429234 
L 554.949818 256.95847 
L 555.66 264.642118 
L 556.370182 270.056591 
L 557.080364 261.054933 
L 557.790545 261.177497 
L 558.500727 252.624932 
L 559.210909 237.467938 
L 559.921091 231.984125 
L 560.631273 219.373474 
L 561.341455 221.095818 
L 562.051636 225.538655 
L 563.472 213.545459 
L 564.182182 215.825155 
L 564.892364 219.449168 
L 565.602545 217.409884 
L 566.312727 216.955295 
L 567.022909 233.78572 
L 567.733091 242.609526 
L 568.443273 247.893717 
L 569.153455 245.634523 
L 569.863636 248.446621 
L 570.573818 262.731326 
L 571.284 240.052384 
L 571.994182 229.302385 
L 572.704364 237.737301 
L 573.414545 236.553471 
L 574.124727 233.64148 
L 574.834909 241.718613 
L 575.545091 246.78342 
L 576.255273 244.518008 
L 577.675636 273.779945 
L 579.096 291.612791 
L 579.806182 292.34648 
L 580.516364 299.921766 
L 581.226545 301.818746 
L 581.936727 296.541373 
L 582.646909 287.380584 
L 583.357091 288.442518 
L 584.067273 275.363933 
L 584.777455 274.152511 
L 585.487636 275.004961 
L 586.197818 287.479923 
L 586.908 284.347635 
L 587.618182 291.422072 
L 588.328364 306.846181 
L 589.038545 334.264 
L 589.748727 332.783127 
L 590.458909 329.876975 
L 591.169091 323.09552 
L 591.879273 305.140829 
L 592.589455 304.567911 
L 593.299636 309.153459 
L 594.009818 305.69324 
L 596.140364 285.763468 
L 596.850545 273.960952 
L 597.560727 286.212661 
L 598.270909 287.213503 
L 598.981091 277.429161 
L 599.691273 271.331186 
L 600.401455 273.061194 
L 601.111636 289.256702 
L 601.821818 267.347109 
L 602.532 272.176766 
L 603.242182 265.694428 
L 603.952364 269.734754 
L 604.662545 269.981218 
L 605.372727 259.422092 
L 606.082909 255.287494 
L 606.793091 253.238428 
L 607.503273 254.25826 
L 608.923636 264.339572 
L 609.633818 264.485638 
L 610.344 256.69431 
L 611.054182 253.303226 
L 611.764364 259.929136 
L 612.474545 265.039089 
L 613.184727 252.188702 
L 613.894909 252.484691 
L 614.605091 272.00476 
L 615.315273 281.914405 
L 616.025455 274.433271 
L 616.735636 261.081926 
L 617.445818 269.817918 
L 618.156 262.941446 
L 618.866182 270.16994 
L 620.286545 249.522376 
L 620.996727 256.841845 
L 621.706909 255.612091 
L 622.417091 274.01959 
L 623.127273 264.504142 
L 623.837455 262.524881 
L 624.547636 269.409123 
L 625.257818 266.456592 
L 625.968 259.479913 
L 626.678182 265.81815 
L 627.388364 249.9294 
L 628.098545 241.450284 
L 628.808727 250.691559 
L 629.518909 234.327348 
L 630.229091 244.102799 
L 630.939273 244.844094 
L 631.649455 249.551144 
L 632.359636 248.300208 
L 633.78 235.72656 
L 634.490182 231.015025 
L 635.200364 244.314839 
L 635.910545 240.832946 
L 636.620727 247.319899 
L 637.330909 236.574541 
L 638.041091 222.671275 
L 638.751273 224.241495 
L 639.461455 206.126665 
L 640.171636 207.284361 
L 640.881818 211.676027 
L 641.592 199.387213 
L 642.302182 207.76093 
L 643.012364 205.713546 
L 643.722545 213.372127 
L 644.432727 202.962177 
L 645.142909 182.837893 
L 645.853091 180.67428 
L 646.563273 193.577695 
L 647.273455 173.873796 
L 647.983636 169.658736 
L 648.693818 168.835532 
L 649.404 190.578434 
L 650.824364 216.830842 
L 651.534545 205.931696 
L 652.244727 206.248395 
L 652.954909 208.52191 
L 653.665091 216.718771 
L 654.375273 226.520923 
L 655.085455 227.760194 
L 655.795636 219.591647 
L 656.505818 239.266237 
L 657.216 235.153318 
L 657.926182 222.122514 
L 658.636364 211.669947 
L 659.346545 195.898442 
L 660.056727 198.02942 
L 660.766909 191.946751 
L 661.477091 183.546464 
L 662.187273 182.675962 
L 662.897455 195.459843 
L 663.607636 181.06996 
L 664.317818 181.468756 
L 665.028 169.851111 
L 665.738182 178.345649 
L 666.448364 196.022534 
L 667.158545 193.149021 
L 667.868727 198.672709 
L 668.578909 205.209101 
L 669.289091 200.476696 
L 669.999273 194.379018 
L 671.419636 195.157349 
L 672.129818 197.647537 
L 672.84 210.460635 
L 673.550182 197.293345 
L 674.260364 197.984805 
L 674.970545 191.933858 
L 676.390909 172.539883 
L 677.101091 163.374703 
L 677.811273 173.350495 
L 678.521455 172.356265 
L 679.231636 184.906749 
L 679.941818 203.402568 
L 680.652 202.078535 
L 681.362182 203.117337 
L 682.072364 202.505809 
L 682.782545 203.195464 
L 683.492727 198.685858 
L 684.202909 202.684183 
L 684.913091 195.588336 
L 685.623273 209.508829 
L 686.333455 191.54723 
L 687.043636 192.628656 
L 687.753818 183.26869 
L 688.464 175.76928 
L 689.174182 159.122777 
L 690.594545 166.037386 
L 691.304727 184.737477 
L 692.014909 187.448937 
L 693.435273 176.616124 
L 694.145455 175.541591 
L 694.855636 183.301872 
L 695.565818 204.089924 
L 696.276 210.072358 
L 696.986182 206.589055 
L 697.696364 207.649164 
L 698.406545 203.565741 
L 699.116727 195.409423 
L 699.826909 203.415182 
L 700.537091 215.826648 
L 701.247273 210.938304 
L 701.957455 208.611412 
L 702.667636 194.832149 
L 703.377818 192.667272 
L 704.088 192.896032 
L 704.798182 187.507326 
L 705.508364 196.861457 
L 706.218545 210.344711 
L 706.928727 208.245827 
L 707.638909 208.536455 
L 708.349091 214.235164 
L 709.059273 210.092489 
L 709.769455 217.801733 
L 710.479636 209.411239 
L 711.189818 215.252083 
L 711.9 214.815615 
L 712.610182 216.982415 
L 714.030545 233.122545 
L 714.740727 224.688907 
L 715.450909 231.776339 
L 716.161091 246.569326 
L 716.871273 256.814549 
L 717.581455 249.452584 
L 718.291636 245.690524 
L 719.001818 254.781496 
L 719.712 277.692788 
L 720.422182 277.526424 
L 721.132364 279.070927 
L 721.842545 283.447448 
L 722.552727 280.968187 
L 723.262909 282.676183 
L 723.973091 281.230087 
L 724.683273 277.684181 
L 725.393455 277.496911 
L 726.103636 287.249727 
L 726.813818 264.68769 
L 727.524 271.560948 
L 728.234182 272.443422 
L 728.944364 269.912515 
L 729.654545 276.767874 
L 730.364727 303.510832 
L 732.495273 286.650358 
L 733.205455 292.232007 
L 733.915636 290.156392 
L 734.625818 292.758281 
L 735.336 274.679135 
L 736.046182 277.036007 
L 736.756364 268.790373 
L 737.466545 270.270431 
L 738.176727 275.270783 
L 738.886909 272.466929 
L 739.597091 275.767463 
L 740.307273 268.827922 
L 741.017455 263.305907 
L 741.727636 270.16835 
L 742.437818 263.323503 
L 743.148 261.517551 
L 743.858182 270.327742 
L 744.568364 280.819319 
L 745.278545 284.553012 
L 745.988727 278.890024 
L 746.698909 286.571322 
L 747.409091 278.611753 
L 748.119273 293.743788 
L 748.829455 302.977609 
L 749.539636 293.04763 
L 750.249818 312.207688 
L 750.96 309.93746 
L 751.670182 324.736502 
L 753.090545 326.497211 
L 753.800727 323.649215 
L 754.510909 316.274709 
L 755.221091 307.733918 
L 755.931273 313.444783 
L 756.641455 326.779995 
L 757.351636 329.813594 
L 758.061818 323.144449 
L 760.192364 338.798056 
L 760.902545 334.302874 
L 761.612727 333.578283 
L 762.322909 327.623285 
L 763.033091 313.251726 
L 763.743273 313.517387 
L 764.453455 314.464751 
L 765.163636 311.79688 
L 765.873818 321.575535 
L 766.584 339.724937 
L 767.294182 346.142657 
L 768.004364 338.051388 
L 769.424727 352.783288 
L 770.134909 357.363248 
L 770.845091 351.242579 
L 772.265455 346.972681 
L 772.975636 341.145461 
L 773.685818 329.418184 
L 774.396 331.625441 
L 775.106182 305.290858 
L 775.816364 301.545612 
L 776.526545 301.786132 
L 777.236727 296.232491 
L 777.946909 293.275405 
L 778.657091 278.147106 
L 780.077455 300.684323 
L 780.787636 298.19122 
L 781.497818 304.565537 
L 782.208 325.506281 
L 782.918182 323.13733 
L 783.628364 317.190487 
L 784.338545 322.988478 
L 785.048727 324.592174 
L 785.758909 318.322184 
L 786.469091 323.803843 
L 787.179273 323.679089 
L 787.889455 317.872671 
L 788.599636 300.39347 
L 790.02 292.833627 
L 790.730182 299.165073 
L 791.440364 286.707253 
L 792.150545 270.246434 
L 792.860727 268.637673 
L 793.570909 273.104246 
L 794.281091 262.449425 
L 794.991273 256.029311 
L 795.701455 246.463395 
L 796.411636 243.655876 
L 797.121818 244.642195 
L 797.832 233.7784 
L 798.542182 228.859731 
L 799.252364 229.049682 
L 799.962545 233.67505 
L 800.672727 222.693486 
L 801.382909 229.550519 
L 802.093091 225.38993 
L 802.803273 231.622563 
L 803.513455 225.975067 
L 804.223636 230.906531 
L 804.933818 223.909712 
L 805.644 223.992101 
L 806.354182 237.026577 
L 807.064364 234.480768 
L 807.774545 223.556305 
L 808.484727 240.534834 
L 809.194909 246.183666 
L 809.905091 240.767587 
L 810.615273 260.575585 
L 811.325455 253.2118 
L 812.035636 255.773496 
L 812.745818 252.631259 
L 813.456 272.01923 
L 814.166182 282.248752 
L 814.876364 275.226067 
L 815.586545 275.568894 
L 816.296727 279.730611 
L 817.006909 276.342231 
L 817.717091 293.006503 
L 818.427273 301.099812 
L 819.137455 285.049906 
L 819.847636 279.211071 
L 820.557818 267.295112 
L 821.268 243.78126 
L 821.978182 246.205764 
L 822.688364 237.877464 
L 823.398545 233.219441 
L 824.108727 237.263792 
L 824.818909 226.430622 
L 825.529091 230.888606 
L 826.239273 240.052513 
L 826.949455 242.035501 
L 827.659636 234.792236 
L 828.369818 232.377901 
L 829.08 231.516451 
L 829.790182 231.60187 
L 830.500364 217.349245 
L 831.210545 212.379437 
L 831.920727 213.409298 
L 832.630909 217.895781 
L 834.051273 206.781126 
L 834.761455 197.297526 
L 835.471636 190.829841 
L 836.181818 182.811546 
L 836.892 187.495726 
L 837.602182 201.570185 
L 839.022545 233.913282 
L 839.732727 237.418506 
L 840.442909 225.949469 
L 841.153091 234.940137 
L 841.863273 268.427147 
L 842.573455 277.339195 
L 843.283636 290.436548 
L 843.993818 294.163779 
L 844.704 296.692153 
L 846.124364 292.848572 
L 846.834545 308.232076 
L 847.544727 293.935403 
L 848.254909 308.664279 
L 848.965091 298.137097 
L 849.675273 292.191309 
L 850.385455 289.064758 
L 851.095636 288.392828 
L 851.805818 294.302071 
L 852.516 285.512833 
L 853.226182 281.06819 
L 853.936364 286.072501 
L 854.646545 295.886564 
L 855.356727 293.959893 
L 856.066909 289.444293 
L 856.777091 306.898598 
L 857.487273 300.444863 
L 858.197455 295.821316 
L 858.907636 304.934304 
L 860.328 311.696678 
L 861.038182 304.420457 
L 861.748364 295.959124 
L 862.458545 283.307117 
L 863.168727 301.145307 
L 863.878909 297.052353 
L 864.589091 285.571736 
L 865.299273 283.637748 
L 866.009455 283.456637 
L 866.719636 287.066816 
L 867.429818 283.557361 
L 868.14 272.398022 
L 868.850182 267.608113 
L 869.560364 261.872071 
L 870.270545 258.348129 
L 870.980727 260.116868 
L 871.690909 245.036157 
L 871.690909 245.036157 
" clip-path="url(#p3a8452e5af)" style="fill: none; stroke: #ff7f0e; stroke-width: 1.5; stroke-linecap: square"/>
   </g>
   <g id="line2d_17">
    <path d="M 162.219273 322.494029 
L 163.639636 322.259179 
L 164.349818 321.94192 
L 166.480364 321.827802 
L 167.190545 321.725036 
L 167.900727 321.336879 
L 168.610909 321.35455 
L 169.321091 321.127523 
L 170.741455 321.018173 
L 171.451636 320.508439 
L 172.872 320.294172 
L 173.582182 319.11341 
L 174.292364 318.92078 
L 175.002545 319.04816 
L 175.712727 318.942068 
L 176.422909 318.964189 
L 177.843273 318.352819 
L 179.263636 318.352156 
L 179.973818 318.151481 
L 180.684 318.24363 
L 181.394182 317.559157 
L 182.104364 317.84628 
L 182.814545 317.863544 
L 184.234909 317.575897 
L 184.945091 317.628723 
L 185.655273 317.483784 
L 186.365455 317.467377 
L 187.075636 317.336634 
L 189.916364 317.305542 
L 191.336727 317.294097 
L 192.046909 317.293399 
L 192.757091 317.044751 
L 194.887636 317.231156 
L 196.308 317.347272 
L 197.018182 316.950639 
L 197.728364 316.782918 
L 199.148727 316.725262 
L 199.858909 315.926656 
L 200.569091 315.414802 
L 201.989455 315.318904 
L 203.409818 313.915849 
L 204.12 313.547815 
L 204.830182 313.562682 
L 205.540364 312.907276 
L 208.381091 313.112816 
L 209.091273 313.059227 
L 209.801455 311.990503 
L 212.642182 311.990859 
L 213.352364 311.619415 
L 216.193091 311.451307 
L 216.903273 311.169317 
L 220.454182 311.17466 
L 221.164364 310.85346 
L 221.874545 310.837694 
L 222.584727 310.124057 
L 224.715273 310.047561 
L 225.425455 309.820149 
L 226.135636 309.821668 
L 226.845818 309.625823 
L 227.556 309.30831 
L 228.976364 309.253129 
L 229.686545 309.478759 
L 230.396727 309.356748 
L 231.106909 308.814896 
L 231.817091 308.889067 
L 232.527273 308.55974 
L 233.947636 308.281948 
L 234.657818 308.292747 
L 236.078182 308.517831 
L 237.498545 308.45044 
L 238.208727 308.103437 
L 239.629091 308.221504 
L 241.049455 307.597074 
L 241.759636 307.249768 
L 243.18 306.958797 
L 243.890182 306.961281 
L 244.600364 306.742487 
L 245.310545 306.329106 
L 248.151273 306.246095 
L 248.861455 306.07795 
L 249.571636 306.063795 
L 250.281818 305.602176 
L 250.992 304.560416 
L 253.122545 304.607074 
L 253.832727 304.235995 
L 254.542909 303.536331 
L 255.253091 303.34849 
L 255.963273 302.62823 
L 256.673455 302.470178 
L 257.383636 301.879597 
L 258.804 301.834868 
L 259.514182 301.481996 
L 260.224364 300.457314 
L 260.934545 300.437629 
L 261.644727 299.527388 
L 263.775273 298.834125 
L 264.485455 298.902621 
L 265.195636 298.711246 
L 266.616 298.628968 
L 268.746545 298.723568 
L 270.877091 298.758853 
L 271.587273 298.170151 
L 272.297455 298.004576 
L 273.007636 297.404468 
L 273.717818 297.263684 
L 274.428 296.510498 
L 275.138182 295.565899 
L 275.848364 295.673523 
L 276.558545 295.585177 
L 277.268727 295.714507 
L 279.399273 295.683168 
L 280.109455 294.827785 
L 284.370545 294.690741 
L 285.080727 294.994451 
L 288.631636 295.071822 
L 290.052 294.219052 
L 290.762182 294.007159 
L 291.472364 293.999369 
L 292.182545 293.8501 
L 292.892727 293.083053 
L 294.313091 293.035227 
L 295.023273 292.703469 
L 295.733455 292.765823 
L 296.443636 292.516583 
L 297.153818 292.48802 
L 297.864 292.110136 
L 298.574182 291.604634 
L 299.994545 291.425597 
L 301.414909 291.378786 
L 302.125091 291.064597 
L 302.835273 291.021921 
L 303.545455 290.261855 
L 304.255636 289.331585 
L 308.516727 289.182235 
L 309.226909 288.694732 
L 309.937091 288.785256 
L 310.647273 287.298869 
L 312.067636 287.291449 
L 313.488 287.233782 
L 314.198182 287.064393 
L 315.618545 287.031333 
L 316.328727 286.855106 
L 317.038909 286.793476 
L 317.749091 286.929106 
L 318.459273 286.598911 
L 320.589818 286.495667 
L 321.3 286.25426 
L 322.010182 286.25211 
L 322.720364 286.039332 
L 324.140727 286.109801 
L 324.850909 285.609977 
L 325.561091 285.607992 
L 326.271273 285.420062 
L 327.691636 284.863898 
L 328.401818 283.958584 
L 329.112 284.014965 
L 331.242545 283.881607 
L 331.952727 283.961503 
L 332.662909 283.852113 
L 333.373091 283.222942 
L 334.083273 283.239859 
L 334.793455 282.232857 
L 335.503636 282.186389 
L 336.213818 281.879661 
L 337.634182 281.879333 
L 338.344364 280.892467 
L 339.054545 280.267856 
L 340.474909 280.191324 
L 341.185091 279.705029 
L 342.605455 279.361137 
L 343.315636 278.726724 
L 344.025818 278.726101 
L 344.736 277.713987 
L 345.446182 277.13057 
L 346.156364 277.118873 
L 346.866545 275.88722 
L 347.576727 275.429999 
L 349.707273 275.070374 
L 350.417455 274.881018 
L 351.127636 274.212622 
L 353.968364 274.205325 
L 355.388727 273.728946 
L 356.098909 273.726137 
L 357.519273 271.425325 
L 358.229455 270.81689 
L 358.939636 270.644861 
L 361.070182 270.714374 
L 361.780364 269.511845 
L 362.490545 269.396279 
L 363.910909 269.407266 
L 364.621091 269.064261 
L 365.331273 268.971467 
L 366.041455 269.114812 
L 366.751636 268.77225 
L 367.461818 268.293795 
L 368.882182 266.094382 
L 371.012727 266.05961 
L 371.722909 264.822211 
L 375.273818 264.687241 
L 375.984 264.388481 
L 378.114545 264.410687 
L 378.824727 263.897464 
L 379.534909 263.713564 
L 382.375636 263.928549 
L 383.085818 264.08907 
L 383.796 263.754408 
L 385.926545 263.962211 
L 386.636727 263.754595 
L 387.346909 263.308952 
L 388.057091 263.312134 
L 388.767273 262.747745 
L 390.187636 262.792335 
L 390.897818 262.794335 
L 392.318182 262.653406 
L 393.738545 262.650426 
L 394.448727 261.714107 
L 395.158909 261.715615 
L 395.869091 261.882338 
L 397.289455 261.879373 
L 399.42 261.841282 
L 400.130182 261.480148 
L 400.840364 261.26002 
L 401.550545 259.630758 
L 402.970909 259.679812 
L 403.681091 259.356347 
L 404.391273 259.197315 
L 405.811636 258.397485 
L 406.521818 258.373247 
L 407.232 257.992702 
L 407.942182 257.889258 
L 408.652364 258.028879 
L 409.362545 257.949791 
L 410.072727 257.414092 
L 410.782909 257.549093 
L 411.493091 257.535773 
L 412.913455 256.813082 
L 413.623636 256.857713 
L 414.333818 255.199148 
L 415.044 254.303864 
L 415.754182 254.273469 
L 416.464364 253.914149 
L 417.174545 253.875018 
L 417.884727 253.461748 
L 420.015273 253.248744 
L 420.725455 253.143141 
L 421.435636 252.669453 
L 424.986545 252.179747 
L 425.696727 251.257995 
L 426.406909 251.185237 
L 427.117091 250.989211 
L 428.537455 251.000234 
L 429.247636 251.186258 
L 429.957818 251.069166 
L 430.668 250.08444 
L 431.378182 250.084275 
L 432.088364 248.263605 
L 435.639273 248.171937 
L 436.349455 248.365183 
L 439.190182 247.917926 
L 440.610545 247.273434 
L 442.030909 247.295321 
L 442.741091 245.909302 
L 443.451273 245.891054 
L 444.161455 245.472461 
L 444.871636 245.212911 
L 448.422545 244.992206 
L 449.132727 244.812322 
L 449.842909 243.72984 
L 451.973455 243.667057 
L 452.683636 243.458046 
L 453.393818 243.513396 
L 454.104 243.062495 
L 454.814182 242.43967 
L 455.524364 241.495705 
L 456.234545 241.516117 
L 456.944727 240.833396 
L 457.654909 240.558575 
L 458.365091 240.45287 
L 459.075273 239.228458 
L 459.785455 238.56071 
L 460.495636 238.345133 
L 462.626182 238.048276 
L 463.336364 236.693385 
L 466.177091 236.608574 
L 466.887273 236.03 
L 467.597455 235.181179 
L 468.307636 235.321103 
L 469.017818 234.600986 
L 469.728 234.222017 
L 470.438182 234.24245 
L 471.858545 234.107558 
L 474.699273 233.959077 
L 475.409455 233.835013 
L 476.119636 233.479908 
L 476.829818 233.372508 
L 477.54 233.510183 
L 479.670545 233.521523 
L 480.380727 233.24267 
L 483.221455 232.760768 
L 483.931636 232.525876 
L 484.641818 232.1042 
L 486.062182 232.029553 
L 487.482545 232.177156 
L 488.192727 231.959646 
L 488.902909 231.868531 
L 489.613091 231.936539 
L 490.323273 231.712245 
L 491.033455 230.944785 
L 491.743636 230.981924 
L 492.453818 230.519853 
L 493.874182 230.519028 
L 495.294545 230.533102 
L 496.004727 230.383899 
L 497.425091 230.418813 
L 498.135273 230.219206 
L 498.845455 230.205905 
L 499.555636 229.428736 
L 502.396364 229.038087 
L 505.237091 228.851542 
L 505.947273 228.253948 
L 511.628727 228.040303 
L 512.338909 227.820025 
L 513.049091 227.810274 
L 513.759273 227.506083 
L 514.469455 227.782273 
L 515.889818 227.722816 
L 516.6 227.731332 
L 517.310182 227.149353 
L 518.020364 227.030024 
L 518.730545 226.648202 
L 520.150909 226.344899 
L 520.861091 225.736231 
L 522.281455 225.835939 
L 522.991636 225.669832 
L 523.701818 225.670294 
L 524.412 225.371842 
L 525.122182 225.2724 
L 525.832364 224.328839 
L 527.962909 224.197984 
L 528.673091 224.054848 
L 530.093455 224.096654 
L 530.803636 223.729405 
L 531.513818 223.737084 
L 532.224 223.075705 
L 532.934182 223.002001 
L 533.644364 223.165773 
L 534.354545 222.376811 
L 535.064727 222.387576 
L 535.774909 222.249803 
L 537.905455 222.286895 
L 538.615636 221.881959 
L 539.325818 221.884088 
L 540.036 222.010271 
L 540.746182 221.761352 
L 542.166545 221.696738 
L 542.876727 221.501691 
L 543.586909 221.506305 
L 544.297091 220.95151 
L 547.137818 221.017603 
L 547.848 220.723028 
L 549.268364 220.70542 
L 549.978545 220.682409 
L 550.688727 220.42427 
L 553.529455 220.379133 
L 554.949818 219.8629 
L 558.500727 219.649411 
L 559.210909 219.37638 
L 559.921091 219.23095 
L 560.631273 218.804343 
L 562.051636 218.704878 
L 562.761818 218.420428 
L 565.602545 218.271395 
L 566.312727 218.271631 
L 568.443273 217.618714 
L 569.863636 217.585574 
L 570.573818 216.907811 
L 571.284 215.863287 
L 574.124727 215.626021 
L 574.834909 215.602503 
L 575.545091 215.728962 
L 576.255273 215.706761 
L 577.675636 214.876914 
L 578.385818 214.559248 
L 581.936727 214.564448 
L 582.646909 213.882551 
L 583.357091 213.89716 
L 584.067273 213.528419 
L 585.487636 213.495935 
L 586.197818 213.047676 
L 587.618182 213.144267 
L 588.328364 212.594112 
L 589.038545 210.575787 
L 590.458909 210.567513 
L 591.169091 210.27939 
L 591.879273 209.302837 
L 594.72 209.14827 
L 595.430182 208.972295 
L 596.140364 209.230371 
L 597.560727 208.607896 
L 598.270909 208.576528 
L 598.981091 208.660933 
L 601.111636 208.367221 
L 601.821818 207.408707 
L 602.532 207.431439 
L 603.242182 207.21311 
L 604.662545 207.153397 
L 605.372727 206.552708 
L 607.503273 206.613372 
L 608.923636 206.592553 
L 609.633818 206.590193 
L 610.344 206.720763 
L 612.474545 206.620586 
L 613.184727 205.881732 
L 613.894909 205.88183 
L 614.605091 204.579828 
L 615.315273 204.373829 
L 616.025455 204.417814 
L 618.156 203.91552 
L 618.866182 203.596189 
L 619.576364 203.834203 
L 620.286545 203.571551 
L 622.417091 203.689532 
L 623.127273 203.386675 
L 623.837455 203.397596 
L 624.547636 203.067821 
L 625.257818 203.129193 
L 626.678182 202.593382 
L 627.388364 202.246909 
L 628.098545 202.175532 
L 628.808727 201.921134 
L 629.518909 200.435084 
L 633.78 200.353322 
L 634.490182 200.16443 
L 635.200364 199.168341 
L 635.910545 199.090696 
L 638.041091 198.192194 
L 638.751273 198.195068 
L 639.461455 197.400024 
L 640.881818 197.506515 
L 642.302182 197.018181 
L 643.012364 196.972758 
L 643.722545 196.786278 
L 644.432727 196.839159 
L 645.142909 196.343194 
L 645.853091 196.320053 
L 646.563273 195.816439 
L 647.273455 194.519673 
L 648.693818 194.460528 
L 650.114182 193.221376 
L 650.824364 192.054366 
L 651.534545 191.705023 
L 652.954909 191.720787 
L 655.085455 191.455654 
L 655.795636 191.121143 
L 656.505818 190.088107 
L 657.216 190.059035 
L 657.926182 189.568547 
L 658.636364 189.504522 
L 659.346545 188.758976 
L 660.056727 188.667406 
L 661.477091 188.254964 
L 662.187273 188.242372 
L 662.897455 188.062764 
L 664.317818 188.090851 
L 665.738182 186.839428 
L 666.448364 185.621661 
L 667.868727 185.578516 
L 668.578909 185.46408 
L 672.84 185.448595 
L 673.550182 184.555527 
L 674.970545 184.513027 
L 675.680727 184.780638 
L 676.390909 184.36434 
L 677.101091 184.345971 
L 677.811273 184.092575 
L 678.521455 184.105193 
L 679.941818 182.775752 
L 683.492727 182.711247 
L 684.202909 182.586524 
L 684.913091 182.620037 
L 685.623273 182.116665 
L 686.333455 181.476034 
L 687.753818 181.456003 
L 688.464 181.262001 
L 689.174182 180.327495 
L 690.594545 180.260183 
L 691.304727 179.683815 
L 692.014909 179.622001 
L 692.725091 179.969877 
L 694.145455 179.970183 
L 696.276 179.221418 
L 696.986182 179.348995 
L 699.826909 179.311991 
L 701.247273 178.877606 
L 704.088 178.894898 
L 704.798182 178.792247 
L 706.218545 177.888198 
L 709.059273 177.652861 
L 709.769455 177.445593 
L 710.479636 177.435115 
L 711.189818 177.148482 
L 712.610182 177.112047 
L 713.320364 176.942901 
L 714.030545 177.078334 
L 714.740727 176.72007 
L 716.161091 176.367357 
L 717.581455 176.011112 
L 718.291636 175.991501 
L 719.001818 175.701962 
L 719.712 174.029892 
L 725.393455 174.020268 
L 726.103636 173.77984 
L 726.813818 172.743157 
L 728.234182 172.586416 
L 729.654545 172.365932 
L 730.364727 170.210986 
L 731.074909 170.18472 
L 731.785091 169.98361 
L 734.625818 169.887876 
L 735.336 169.495547 
L 737.466545 169.536216 
L 738.176727 169.243049 
L 739.597091 169.052146 
L 740.307273 168.88333 
L 741.727636 169.069916 
L 744.568364 168.837292 
L 746.698909 168.321333 
L 747.409091 168.04997 
L 748.119273 167.067743 
L 748.829455 167.255324 
L 749.539636 167.035257 
L 750.249818 165.88455 
L 754.510909 165.593699 
L 755.221091 165.077708 
L 755.931273 165.08594 
L 756.641455 164.422471 
L 758.772 164.377262 
L 760.192364 164.322513 
L 762.322909 164.098219 
L 763.033091 163.590361 
L 765.163636 163.587037 
L 765.873818 163.816285 
L 767.294182 163.863222 
L 771.555273 163.400573 
L 772.265455 163.392332 
L 772.975636 163.225087 
L 774.396 163.198958 
L 775.106182 161.875546 
L 775.816364 161.71404 
L 777.946909 161.796674 
L 778.657091 161.279004 
L 781.497818 160.688559 
L 782.208 159.556778 
L 783.628364 159.476558 
L 784.338545 159.592844 
L 785.048727 159.569341 
L 785.758909 159.378536 
L 786.469091 159.562935 
L 787.889455 159.613261 
L 788.599636 158.793965 
L 789.309818 158.863092 
L 790.02 158.801171 
L 792.150545 158.187824 
L 793.570909 158.088766 
L 794.281091 157.351243 
L 794.991273 157.27894 
L 795.701455 156.975916 
L 797.121818 156.893762 
L 797.832 156.386171 
L 798.542182 156.579164 
L 799.252364 156.569894 
L 799.962545 156.80532 
L 801.382909 156.374072 
L 803.513455 156.372756 
L 804.223636 156.16063 
L 805.644 156.233808 
L 806.354182 155.787109 
L 807.064364 155.738412 
L 807.774545 155.904168 
L 808.484727 155.419073 
L 811.325455 154.917905 
L 812.035636 155.064776 
L 812.745818 154.996525 
L 813.456 154.498214 
L 814.166182 154.56762 
L 814.876364 154.415572 
L 815.586545 154.409075 
L 817.006909 154.215675 
L 818.427273 153.583391 
L 819.137455 152.270622 
L 819.847636 152.30114 
L 820.557818 152.168358 
L 821.268 150.223911 
L 821.978182 150.186622 
L 822.688364 149.869943 
L 824.818909 149.572514 
L 826.949455 149.700023 
L 827.659636 149.932663 
L 829.790182 149.910349 
L 830.500364 149.357308 
L 831.920727 149.321071 
L 832.630909 149.398373 
L 834.051273 149.218692 
L 835.471636 148.91284 
L 836.892 148.753745 
L 837.602182 147.830408 
L 838.312364 146.540949 
L 839.022545 146.304561 
L 839.732727 146.273585 
L 840.442909 145.586652 
L 841.153091 145.077856 
L 841.863273 141.722083 
L 842.573455 141.400457 
L 843.283636 140.625393 
L 846.124364 140.571947 
L 846.834545 139.711076 
L 847.544727 139.755029 
L 848.965091 138.700161 
L 849.675273 138.809608 
L 851.095636 138.799471 
L 851.805818 139.006745 
L 852.516 138.765679 
L 853.226182 138.697254 
L 853.936364 138.497709 
L 854.646545 138.172207 
L 856.066909 138.073209 
L 856.777091 136.883108 
L 861.748364 136.358136 
L 862.458545 135.96543 
L 863.168727 135.234298 
L 863.878909 135.169784 
L 864.589091 134.67484 
L 866.009455 134.759668 
L 866.719636 134.649145 
L 867.429818 134.673506 
L 868.14 133.515021 
L 870.270545 133.190042 
L 870.980727 133.198342 
L 871.690909 132.678114 
L 871.690909 132.678114 
" clip-path="url(#p3a8452e5af)" style="fill: none; stroke: #2ca02c; stroke-width: 1.5; stroke-linecap: square"/>
   </g>
   <g id="patch_3">
    <path d="M 126 384.48 
L 126 51.84 
" style="fill: none; stroke: #000000; stroke-width: 0.8; stroke-linejoin: miter; stroke-linecap: square"/>
   </g>
   <g id="patch_4">
    <path d="M 907.2 384.48 
L 907.2 51.84 
" style="fill: none; stroke: #000000; stroke-width: 0.8; stroke-linejoin: miter; stroke-linecap: square"/>
   </g>
   <g id="patch_5">
    <path d="M 126 384.48 
L 907.2 384.48 
" style="fill: none; stroke: #000000; stroke-width: 0.8; stroke-linejoin: miter; stroke-linecap: square"/>
   </g>
   <g id="patch_6">
    <path d="M 126 51.84 
L 907.2 51.84 
" style="fill: none; stroke: #000000; stroke-width: 0.8; stroke-linejoin: miter; stroke-linecap: square"/>
   </g>
   <g id="text_17">
    <!-- Quadratic Covariation of $X_t$ and $S_t$ -->
    <g transform="translate(414.54 45.84)scale(0.12 -0.12)">
     <defs>
      <path id="DejaVuSans-66" d="M 2375 4863 
L 2375 4384 
L 1825 4384 
Q 1516 4384 1395 4259 
Q 1275 4134 1275 3809 
L 1275 3500 
L 2222 3500 
L 2222 3053 
L 1275 3053 
L 1275 0 
L 697 0 
L 697 3053 
L 147 3053 
L 147 3500 
L 697 3500 
L 697 3744 
Q 697 4328 969 4595 
Q 1241 4863 1831 4863 
L 2375 4863 
z
" transform="scale(0.015625)"/>
      <path id="DejaVuSans-Oblique-58" d="M 878 4666 
L 1516 4666 
L 2316 2981 
L 3763 4666 
L 4500 4666 
L 2578 2438 
L 3738 0 
L 3103 0 
L 2163 1966 
L 459 0 
L -275 0 
L 1906 2509 
L 878 4666 
z
" transform="scale(0.015625)"/>
      <path id="DejaVuSans-Oblique-74" d="M 2706 3500 
L 2619 3053 
L 1472 3053 
L 1100 1153 
Q 1081 1047 1072 975 
Q 1063 903 1063 863 
Q 1063 663 1183 572 
Q 1303 481 1569 481 
L 2150 481 
L 2053 0 
L 1503 0 
Q 991 0 739 200 
Q 488 400 488 806 
Q 488 878 497 964 
Q 506 1050 525 1153 
L 897 3053 
L 409 3053 
L 500 3500 
L 978 3500 
L 1172 4494 
L 1747 4494 
L 1556 3500 
L 2706 3500 
z
" transform="scale(0.015625)"/>
      <path id="DejaVuSans-Oblique-53" d="M 3859 4513 
L 3738 3897 
Q 3422 4066 3111 4152 
Q 2800 4238 2509 4238 
Q 1944 4238 1609 3991 
Q 1275 3744 1275 3334 
Q 1275 3109 1398 2989 
Q 1522 2869 2034 2731 
L 2413 2638 
Q 3053 2472 3303 2217 
Q 3553 1963 3553 1503 
Q 3553 797 2998 353 
Q 2444 -91 1538 -91 
Q 1166 -91 791 -17 
Q 416 56 38 206 
L 166 856 
Q 513 641 861 531 
Q 1209 422 1556 422 
Q 2147 422 2503 684 
Q 2859 947 2859 1369 
Q 2859 1650 2717 1795 
Q 2575 1941 2106 2059 
L 1728 2156 
Q 1081 2325 845 2545 
Q 609 2766 609 3163 
Q 609 3859 1145 4304 
Q 1681 4750 2541 4750 
Q 2875 4750 3203 4690 
Q 3531 4631 3859 4513 
z
" transform="scale(0.015625)"/>
     </defs>
     <use xlink:href="#DejaVuSans-51" transform="translate(0 0.015625)"/>
     <use xlink:href="#DejaVuSans-75" transform="translate(78.710938 0.015625)"/>
     <use xlink:href="#DejaVuSans-61" transform="translate(142.089844 0.015625)"/>
     <use xlink:href="#DejaVuSans-64" transform="translate(203.369141 0.015625)"/>
     <use xlink:href="#DejaVuSans-72" transform="translate(266.845703 0.015625)"/>
     <use xlink:href="#DejaVuSans-61" transform="translate(307.958984 0.015625)"/>
     <use xlink:href="#DejaVuSans-74" transform="translate(369.238281 0.015625)"/>
     <use xlink:href="#DejaVuSans-69" transform="translate(408.447266 0.015625)"/>
     <use xlink:href="#DejaVuSans-63" transform="translate(436.230469 0.015625)"/>
     <use xlink:href="#DejaVuSans-20" transform="translate(491.210938 0.015625)"/>
     <use xlink:href="#DejaVuSans-43" transform="translate(522.998047 0.015625)"/>
     <use xlink:href="#DejaVuSans-6f" transform="translate(592.822266 0.015625)"/>
     <use xlink:href="#DejaVuSans-76" transform="translate(654.003906 0.015625)"/>
     <use xlink:href="#DejaVuSans-61" transform="translate(713.183594 0.015625)"/>
     <use xlink:href="#DejaVuSans-72" transform="translate(774.462891 0.015625)"/>
     <use xlink:href="#DejaVuSans-69" transform="translate(815.576172 0.015625)"/>
     <use xlink:href="#DejaVuSans-61" transform="translate(843.359375 0.015625)"/>
     <use xlink:href="#DejaVuSans-74" transform="translate(904.638672 0.015625)"/>
     <use xlink:href="#DejaVuSans-69" transform="translate(943.847656 0.015625)"/>
     <use xlink:href="#DejaVuSans-6f" transform="translate(971.630859 0.015625)"/>
     <use xlink:href="#DejaVuSans-6e" transform="translate(1032.8125 0.015625)"/>
     <use xlink:href="#DejaVuSans-20" transform="translate(1096.191406 0.015625)"/>
     <use xlink:href="#DejaVuSans-6f" transform="translate(1127.978516 0.015625)"/>
     <use xlink:href="#DejaVuSans-66" transform="translate(1189.160156 0.015625)"/>
     <use xlink:href="#DejaVuSans-20" transform="translate(1224.365234 0.015625)"/>
     <use xlink:href="#DejaVuSans-Oblique-58" transform="translate(1256.152344 0.015625)"/>
     <use xlink:href="#DejaVuSans-Oblique-74" transform="translate(1324.658203 -16.390625)scale(0.7)"/>
     <use xlink:href="#DejaVuSans-20" transform="translate(1354.838867 0.015625)"/>
     <use xlink:href="#DejaVuSans-61" transform="translate(1386.625977 0.015625)"/>
     <use xlink:href="#DejaVuSans-6e" transform="translate(1447.905273 0.015625)"/>
     <use xlink:href="#DejaVuSans-64" transform="translate(1511.28418 0.015625)"/>
     <use xlink:href="#DejaVuSans-20" transform="translate(1574.760742 0.015625)"/>
     <use xlink:href="#DejaVuSans-Oblique-53" transform="translate(1606.547852 0.015625)"/>
     <use xlink:href="#DejaVuSans-Oblique-74" transform="translate(1670.024414 -16.390625)scale(0.7)"/>
    </g>
   </g>
   <g id="legend_1">
    <g id="patch_7">
     <path d="M 698.1 103.874375 
L 900.2 103.874375 
Q 902.2 103.874375 902.2 101.874375 
L 902.2 58.84 
Q 902.2 56.84 900.2 56.84 
L 698.1 56.84 
Q 696.1 56.84 696.1 58.84 
L 696.1 101.874375 
Q 696.1 103.874375 698.1 103.874375 
z
" style="fill: #ffffff; opacity: 0.8; stroke: #cccccc; stroke-linejoin: miter"/>
    </g>
    <g id="line2d_18">
     <path d="M 700.1 64.938437 
L 710.1 64.938437 
L 720.1 64.938437 
" style="fill: none; stroke: #1f77b4; stroke-width: 1.5; stroke-linecap: square"/>
    </g>
    <g id="text_18">
     <!-- $X_t$ -->
     <g transform="translate(728.1 68.438437)scale(0.1 -0.1)">
      <use xlink:href="#DejaVuSans-Oblique-58" transform="translate(0 0.09375)"/>
      <use xlink:href="#DejaVuSans-Oblique-74" transform="translate(68.505859 -16.3125)scale(0.7)"/>
     </g>
    </g>
    <g id="line2d_19">
     <path d="M 700.1 79.616562 
L 710.1 79.616562 
L 720.1 79.616562 
" style="fill: none; stroke: #ff7f0e; stroke-width: 1.5; stroke-linecap: square"/>
    </g>
    <g id="text_19">
     <!-- $S_t$ -->
     <g transform="translate(728.1 83.116562)scale(0.1 -0.1)">
      <use xlink:href="#DejaVuSans-Oblique-53" transform="translate(0 0.78125)"/>
      <use xlink:href="#DejaVuSans-Oblique-74" transform="translate(63.476562 -15.625)scale(0.7)"/>
     </g>
    </g>
    <g id="line2d_20">
     <path d="M 700.1 94.294687 
L 710.1 94.294687 
L 720.1 94.294687 
" style="fill: none; stroke: #2ca02c; stroke-width: 1.5; stroke-linecap: square"/>
    </g>
    <g id="text_20">
     <!-- Quadratic Covariation of $X_t$ and $S_t$ -->
     <g transform="translate(728.1 97.794687)scale(0.1 -0.1)">
      <use xlink:href="#DejaVuSans-51" transform="translate(0 0.015625)"/>
      <use xlink:href="#DejaVuSans-75" transform="translate(78.710938 0.015625)"/>
      <use xlink:href="#DejaVuSans-61" transform="translate(142.089844 0.015625)"/>
      <use xlink:href="#DejaVuSans-64" transform="translate(203.369141 0.015625)"/>
      <use xlink:href="#DejaVuSans-72" transform="translate(266.845703 0.015625)"/>
      <use xlink:href="#DejaVuSans-61" transform="translate(307.958984 0.015625)"/>
      <use xlink:href="#DejaVuSans-74" transform="translate(369.238281 0.015625)"/>
      <use xlink:href="#DejaVuSans-69" transform="translate(408.447266 0.015625)"/>
      <use xlink:href="#DejaVuSans-63" transform="translate(436.230469 0.015625)"/>
      <use xlink:href="#DejaVuSans-20" transform="translate(491.210938 0.015625)"/>
      <use xlink:href="#DejaVuSans-43" transform="translate(522.998047 0.015625)"/>
      <use xlink:href="#DejaVuSans-6f" transform="translate(592.822266 0.015625)"/>
      <use xlink:href="#DejaVuSans-76" transform="translate(654.003906 0.015625)"/>
      <use xlink:href="#DejaVuSans-61" transform="translate(713.183594 0.015625)"/>
      <use xlink:href="#DejaVuSans-72" transform="translate(774.462891 0.015625)"/>
      <use xlink:href="#DejaVuSans-69" transform="translate(815.576172 0.015625)"/>
      <use xlink:href="#DejaVuSans-61" transform="translate(843.359375 0.015625)"/>
      <use xlink:href="#DejaVuSans-74" transform="translate(904.638672 0.015625)"/>
      <use xlink:href="#DejaVuSans-69" transform="translate(943.847656 0.015625)"/>
      <use xlink:href="#DejaVuSans-6f" transform="translate(971.630859 0.015625)"/>
      <use xlink:href="#DejaVuSans-6e" transform="translate(1032.8125 0.015625)"/>
      <use xlink:href="#DejaVuSans-20" transform="translate(1096.191406 0.015625)"/>
      <use xlink:href="#DejaVuSans-6f" transform="translate(1127.978516 0.015625)"/>
      <use xlink:href="#DejaVuSans-66" transform="translate(1189.160156 0.015625)"/>
      <use xlink:href="#DejaVuSans-20" transform="translate(1224.365234 0.015625)"/>
      <use xlink:href="#DejaVuSans-Oblique-58" transform="translate(1256.152344 0.015625)"/>
      <use xlink:href="#DejaVuSans-Oblique-74" transform="translate(1324.658203 -16.390625)scale(0.7)"/>
      <use xlink:href="#DejaVuSans-20" transform="translate(1354.838867 0.015625)"/>
      <use xlink:href="#DejaVuSans-61" transform="translate(1386.625977 0.015625)"/>
      <use xlink:href="#DejaVuSans-6e" transform="translate(1447.905273 0.015625)"/>
      <use xlink:href="#DejaVuSans-64" transform="translate(1511.28418 0.015625)"/>
      <use xlink:href="#DejaVuSans-20" transform="translate(1574.760742 0.015625)"/>
      <use xlink:href="#DejaVuSans-Oblique-53" transform="translate(1606.547852 0.015625)"/>
      <use xlink:href="#DejaVuSans-Oblique-74" transform="translate(1670.024414 -16.390625)scale(0.7)"/>
     </g>
    </g>
   </g>
  </g>
 </g>
 <defs>
  <clipPath id="p3a8452e5af">
   <rect x="126" y="51.84" width="781.2" height="332.64"/>
  </clipPath>
 </defs>
</svg>
