<?xml version="1.0" encoding="utf-8" standalone="no"?>
<!DOCTYPE svg PUBLIC "-//W3C//DTD SVG 1.1//EN"
  "http://www.w3.org/Graphics/SVG/1.1/DTD/svg11.dtd">
<svg xmlns:xlink="http://www.w3.org/1999/xlink" width="1008pt" height="432pt" viewBox="0 0 1008 432" xmlns="http://www.w3.org/2000/svg" version="1.1">
 <metadata>
  <rdf:RDF xmlns:dc="http://purl.org/dc/elements/1.1/" xmlns:cc="http://creativecommons.org/ns#" xmlns:rdf="http://www.w3.org/1999/02/22-rdf-syntax-ns#">
   <cc:Work>
    <dc:type rdf:resource="http://purl.org/dc/dcmitype/StillImage"/>
    <dc:date>2023-12-22T17:10:29.621872</dc:date>
    <dc:format>image/svg+xml</dc:format>
    <dc:creator>
     <cc:Agent>
      <dc:title>Matplotlib v3.5.2, https://matplotlib.org/</dc:title>
     </cc:Agent>
    </dc:creator>
   </cc:Work>
  </rdf:RDF>
 </metadata>
 <defs>
  <style type="text/css">*{stroke-linejoin: round; stroke-linecap: butt}</style>
 </defs>
 <g id="figure_1">
  <g id="patch_1">
   <path d="M 0 432 
L 1008 432 
L 1008 0 
L 0 0 
z
" style="fill: #ffffff"/>
  </g>
  <g id="axes_1">
   <g id="patch_2">
    <path d="M 126 384.48 
L 907.2 384.48 
L 907.2 51.84 
L 126 51.84 
z
" style="fill: #ffffff"/>
   </g>
   <g id="matplotlib.axis_1">
    <g id="xtick_1">
     <g id="line2d_1">
      <defs>
       <path id="m2fb828a09b" d="M 0 0 
L 0 3.5 
" style="stroke: #000000; stroke-width: 0.8"/>
      </defs>
      <g>
       <use xlink:href="#m2fb828a09b" x="161.509091" y="384.48" style="stroke: #000000; stroke-width: 0.8"/>
      </g>
     </g>
     <g id="text_1">
      <!-- 0.0 -->
      <g transform="translate(153.557528 399.078438)scale(0.1 -0.1)">
       <defs>
        <path id="DejaVuSans-30" d="M 2034 4250 
Q 1547 4250 1301 3770 
Q 1056 3291 1056 2328 
Q 1056 1369 1301 889 
Q 1547 409 2034 409 
Q 2525 409 2770 889 
Q 3016 1369 3016 2328 
Q 3016 3291 2770 3770 
Q 2525 4250 2034 4250 
z
M 2034 4750 
Q 2819 4750 3233 4129 
Q 3647 3509 3647 2328 
Q 3647 1150 3233 529 
Q 2819 -91 2034 -91 
Q 1250 -91 836 529 
Q 422 1150 422 2328 
Q 422 3509 836 4129 
Q 1250 4750 2034 4750 
z
" transform="scale(0.015625)"/>
        <path id="DejaVuSans-2e" d="M 684 794 
L 1344 794 
L 1344 0 
L 684 0 
L 684 794 
z
" transform="scale(0.015625)"/>
       </defs>
       <use xlink:href="#DejaVuSans-30"/>
       <use xlink:href="#DejaVuSans-2e" x="63.623047"/>
       <use xlink:href="#DejaVuSans-30" x="95.410156"/>
      </g>
     </g>
    </g>
    <g id="xtick_2">
     <g id="line2d_2">
      <g>
       <use xlink:href="#m2fb828a09b" x="303.545455" y="384.48" style="stroke: #000000; stroke-width: 0.8"/>
      </g>
     </g>
     <g id="text_2">
      <!-- 0.2 -->
      <g transform="translate(295.593892 399.078438)scale(0.1 -0.1)">
       <defs>
        <path id="DejaVuSans-32" d="M 1228 531 
L 3431 531 
L 3431 0 
L 469 0 
L 469 531 
Q 828 903 1448 1529 
Q 2069 2156 2228 2338 
Q 2531 2678 2651 2914 
Q 2772 3150 2772 3378 
Q 2772 3750 2511 3984 
Q 2250 4219 1831 4219 
Q 1534 4219 1204 4116 
Q 875 4013 500 3803 
L 500 4441 
Q 881 4594 1212 4672 
Q 1544 4750 1819 4750 
Q 2544 4750 2975 4387 
Q 3406 4025 3406 3419 
Q 3406 3131 3298 2873 
Q 3191 2616 2906 2266 
Q 2828 2175 2409 1742 
Q 1991 1309 1228 531 
z
" transform="scale(0.015625)"/>
       </defs>
       <use xlink:href="#DejaVuSans-30"/>
       <use xlink:href="#DejaVuSans-2e" x="63.623047"/>
       <use xlink:href="#DejaVuSans-32" x="95.410156"/>
      </g>
     </g>
    </g>
    <g id="xtick_3">
     <g id="line2d_3">
      <g>
       <use xlink:href="#m2fb828a09b" x="445.581818" y="384.48" style="stroke: #000000; stroke-width: 0.8"/>
      </g>
     </g>
     <g id="text_3">
      <!-- 0.4 -->
      <g transform="translate(437.630256 399.078438)scale(0.1 -0.1)">
       <defs>
        <path id="DejaVuSans-34" d="M 2419 4116 
L 825 1625 
L 2419 1625 
L 2419 4116 
z
M 2253 4666 
L 3047 4666 
L 3047 1625 
L 3713 1625 
L 3713 1100 
L 3047 1100 
L 3047 0 
L 2419 0 
L 2419 1100 
L 313 1100 
L 313 1709 
L 2253 4666 
z
" transform="scale(0.015625)"/>
       </defs>
       <use xlink:href="#DejaVuSans-30"/>
       <use xlink:href="#DejaVuSans-2e" x="63.623047"/>
       <use xlink:href="#DejaVuSans-34" x="95.410156"/>
      </g>
     </g>
    </g>
    <g id="xtick_4">
     <g id="line2d_4">
      <g>
       <use xlink:href="#m2fb828a09b" x="587.618182" y="384.48" style="stroke: #000000; stroke-width: 0.8"/>
      </g>
     </g>
     <g id="text_4">
      <!-- 0.6 -->
      <g transform="translate(579.666619 399.078438)scale(0.1 -0.1)">
       <defs>
        <path id="DejaVuSans-36" d="M 2113 2584 
Q 1688 2584 1439 2293 
Q 1191 2003 1191 1497 
Q 1191 994 1439 701 
Q 1688 409 2113 409 
Q 2538 409 2786 701 
Q 3034 994 3034 1497 
Q 3034 2003 2786 2293 
Q 2538 2584 2113 2584 
z
M 3366 4563 
L 3366 3988 
Q 3128 4100 2886 4159 
Q 2644 4219 2406 4219 
Q 1781 4219 1451 3797 
Q 1122 3375 1075 2522 
Q 1259 2794 1537 2939 
Q 1816 3084 2150 3084 
Q 2853 3084 3261 2657 
Q 3669 2231 3669 1497 
Q 3669 778 3244 343 
Q 2819 -91 2113 -91 
Q 1303 -91 875 529 
Q 447 1150 447 2328 
Q 447 3434 972 4092 
Q 1497 4750 2381 4750 
Q 2619 4750 2861 4703 
Q 3103 4656 3366 4563 
z
" transform="scale(0.015625)"/>
       </defs>
       <use xlink:href="#DejaVuSans-30"/>
       <use xlink:href="#DejaVuSans-2e" x="63.623047"/>
       <use xlink:href="#DejaVuSans-36" x="95.410156"/>
      </g>
     </g>
    </g>
    <g id="xtick_5">
     <g id="line2d_5">
      <g>
       <use xlink:href="#m2fb828a09b" x="729.654545" y="384.48" style="stroke: #000000; stroke-width: 0.8"/>
      </g>
     </g>
     <g id="text_5">
      <!-- 0.8 -->
      <g transform="translate(721.702983 399.078438)scale(0.1 -0.1)">
       <defs>
        <path id="DejaVuSans-38" d="M 2034 2216 
Q 1584 2216 1326 1975 
Q 1069 1734 1069 1313 
Q 1069 891 1326 650 
Q 1584 409 2034 409 
Q 2484 409 2743 651 
Q 3003 894 3003 1313 
Q 3003 1734 2745 1975 
Q 2488 2216 2034 2216 
z
M 1403 2484 
Q 997 2584 770 2862 
Q 544 3141 544 3541 
Q 544 4100 942 4425 
Q 1341 4750 2034 4750 
Q 2731 4750 3128 4425 
Q 3525 4100 3525 3541 
Q 3525 3141 3298 2862 
Q 3072 2584 2669 2484 
Q 3125 2378 3379 2068 
Q 3634 1759 3634 1313 
Q 3634 634 3220 271 
Q 2806 -91 2034 -91 
Q 1263 -91 848 271 
Q 434 634 434 1313 
Q 434 1759 690 2068 
Q 947 2378 1403 2484 
z
M 1172 3481 
Q 1172 3119 1398 2916 
Q 1625 2713 2034 2713 
Q 2441 2713 2670 2916 
Q 2900 3119 2900 3481 
Q 2900 3844 2670 4047 
Q 2441 4250 2034 4250 
Q 1625 4250 1398 4047 
Q 1172 3844 1172 3481 
z
" transform="scale(0.015625)"/>
       </defs>
       <use xlink:href="#DejaVuSans-30"/>
       <use xlink:href="#DejaVuSans-2e" x="63.623047"/>
       <use xlink:href="#DejaVuSans-38" x="95.410156"/>
      </g>
     </g>
    </g>
    <g id="xtick_6">
     <g id="line2d_6">
      <g>
       <use xlink:href="#m2fb828a09b" x="871.690909" y="384.48" style="stroke: #000000; stroke-width: 0.8"/>
      </g>
     </g>
     <g id="text_6">
      <!-- 1.0 -->
      <g transform="translate(863.739347 399.078438)scale(0.1 -0.1)">
       <defs>
        <path id="DejaVuSans-31" d="M 794 531 
L 1825 531 
L 1825 4091 
L 703 3866 
L 703 4441 
L 1819 4666 
L 2450 4666 
L 2450 531 
L 3481 531 
L 3481 0 
L 794 0 
L 794 531 
z
" transform="scale(0.015625)"/>
       </defs>
       <use xlink:href="#DejaVuSans-31"/>
       <use xlink:href="#DejaVuSans-2e" x="63.623047"/>
       <use xlink:href="#DejaVuSans-30" x="95.410156"/>
      </g>
     </g>
    </g>
    <g id="text_7">
     <!-- Time -->
     <g transform="translate(504.366406 412.756563)scale(0.1 -0.1)">
      <defs>
       <path id="DejaVuSans-54" d="M -19 4666 
L 3928 4666 
L 3928 4134 
L 2272 4134 
L 2272 0 
L 1638 0 
L 1638 4134 
L -19 4134 
L -19 4666 
z
" transform="scale(0.015625)"/>
       <path id="DejaVuSans-69" d="M 603 3500 
L 1178 3500 
L 1178 0 
L 603 0 
L 603 3500 
z
M 603 4863 
L 1178 4863 
L 1178 4134 
L 603 4134 
L 603 4863 
z
" transform="scale(0.015625)"/>
       <path id="DejaVuSans-6d" d="M 3328 2828 
Q 3544 3216 3844 3400 
Q 4144 3584 4550 3584 
Q 5097 3584 5394 3201 
Q 5691 2819 5691 2113 
L 5691 0 
L 5113 0 
L 5113 2094 
Q 5113 2597 4934 2840 
Q 4756 3084 4391 3084 
Q 3944 3084 3684 2787 
Q 3425 2491 3425 1978 
L 3425 0 
L 2847 0 
L 2847 2094 
Q 2847 2600 2669 2842 
Q 2491 3084 2119 3084 
Q 1678 3084 1418 2786 
Q 1159 2488 1159 1978 
L 1159 0 
L 581 0 
L 581 3500 
L 1159 3500 
L 1159 2956 
Q 1356 3278 1631 3431 
Q 1906 3584 2284 3584 
Q 2666 3584 2933 3390 
Q 3200 3197 3328 2828 
z
" transform="scale(0.015625)"/>
       <path id="DejaVuSans-65" d="M 3597 1894 
L 3597 1613 
L 953 1613 
Q 991 1019 1311 708 
Q 1631 397 2203 397 
Q 2534 397 2845 478 
Q 3156 559 3463 722 
L 3463 178 
Q 3153 47 2828 -22 
Q 2503 -91 2169 -91 
Q 1331 -91 842 396 
Q 353 884 353 1716 
Q 353 2575 817 3079 
Q 1281 3584 2069 3584 
Q 2775 3584 3186 3129 
Q 3597 2675 3597 1894 
z
M 3022 2063 
Q 3016 2534 2758 2815 
Q 2500 3097 2075 3097 
Q 1594 3097 1305 2825 
Q 1016 2553 972 2059 
L 3022 2063 
z
" transform="scale(0.015625)"/>
      </defs>
      <use xlink:href="#DejaVuSans-54"/>
      <use xlink:href="#DejaVuSans-69" x="57.958984"/>
      <use xlink:href="#DejaVuSans-6d" x="85.742188"/>
      <use xlink:href="#DejaVuSans-65" x="183.154297"/>
     </g>
    </g>
   </g>
   <g id="matplotlib.axis_2">
    <g id="ytick_1">
     <g id="line2d_7">
      <defs>
       <path id="mac19153cff" d="M 0 0 
L -3.5 0 
" style="stroke: #000000; stroke-width: 0.8"/>
      </defs>
      <g>
       <use xlink:href="#mac19153cff" x="126" y="369.521821" style="stroke: #000000; stroke-width: 0.8"/>
      </g>
     </g>
     <g id="text_8">
      <!-- 0.00 -->
      <g transform="translate(96.734375 373.32104)scale(0.1 -0.1)">
       <use xlink:href="#DejaVuSans-30"/>
       <use xlink:href="#DejaVuSans-2e" x="63.623047"/>
       <use xlink:href="#DejaVuSans-30" x="95.410156"/>
       <use xlink:href="#DejaVuSans-30" x="159.033203"/>
      </g>
     </g>
    </g>
    <g id="ytick_2">
     <g id="line2d_8">
      <g>
       <use xlink:href="#mac19153cff" x="126" y="331.539651" style="stroke: #000000; stroke-width: 0.8"/>
      </g>
     </g>
     <g id="text_9">
      <!-- 0.25 -->
      <g transform="translate(96.734375 335.33887)scale(0.1 -0.1)">
       <defs>
        <path id="DejaVuSans-35" d="M 691 4666 
L 3169 4666 
L 3169 4134 
L 1269 4134 
L 1269 2991 
Q 1406 3038 1543 3061 
Q 1681 3084 1819 3084 
Q 2600 3084 3056 2656 
Q 3513 2228 3513 1497 
Q 3513 744 3044 326 
Q 2575 -91 1722 -91 
Q 1428 -91 1123 -41 
Q 819 9 494 109 
L 494 744 
Q 775 591 1075 516 
Q 1375 441 1709 441 
Q 2250 441 2565 725 
Q 2881 1009 2881 1497 
Q 2881 1984 2565 2268 
Q 2250 2553 1709 2553 
Q 1456 2553 1204 2497 
Q 953 2441 691 2322 
L 691 4666 
z
" transform="scale(0.015625)"/>
       </defs>
       <use xlink:href="#DejaVuSans-30"/>
       <use xlink:href="#DejaVuSans-2e" x="63.623047"/>
       <use xlink:href="#DejaVuSans-32" x="95.410156"/>
       <use xlink:href="#DejaVuSans-35" x="159.033203"/>
      </g>
     </g>
    </g>
    <g id="ytick_3">
     <g id="line2d_9">
      <g>
       <use xlink:href="#mac19153cff" x="126" y="293.557481" style="stroke: #000000; stroke-width: 0.8"/>
      </g>
     </g>
     <g id="text_10">
      <!-- 0.50 -->
      <g transform="translate(96.734375 297.3567)scale(0.1 -0.1)">
       <use xlink:href="#DejaVuSans-30"/>
       <use xlink:href="#DejaVuSans-2e" x="63.623047"/>
       <use xlink:href="#DejaVuSans-35" x="95.410156"/>
       <use xlink:href="#DejaVuSans-30" x="159.033203"/>
      </g>
     </g>
    </g>
    <g id="ytick_4">
     <g id="line2d_10">
      <g>
       <use xlink:href="#mac19153cff" x="126" y="255.575311" style="stroke: #000000; stroke-width: 0.8"/>
      </g>
     </g>
     <g id="text_11">
      <!-- 0.75 -->
      <g transform="translate(96.734375 259.374529)scale(0.1 -0.1)">
       <defs>
        <path id="DejaVuSans-37" d="M 525 4666 
L 3525 4666 
L 3525 4397 
L 1831 0 
L 1172 0 
L 2766 4134 
L 525 4134 
L 525 4666 
z
" transform="scale(0.015625)"/>
       </defs>
       <use xlink:href="#DejaVuSans-30"/>
       <use xlink:href="#DejaVuSans-2e" x="63.623047"/>
       <use xlink:href="#DejaVuSans-37" x="95.410156"/>
       <use xlink:href="#DejaVuSans-35" x="159.033203"/>
      </g>
     </g>
    </g>
    <g id="ytick_5">
     <g id="line2d_11">
      <g>
       <use xlink:href="#mac19153cff" x="126" y="217.59314" style="stroke: #000000; stroke-width: 0.8"/>
      </g>
     </g>
     <g id="text_12">
      <!-- 1.00 -->
      <g transform="translate(96.734375 221.392359)scale(0.1 -0.1)">
       <use xlink:href="#DejaVuSans-31"/>
       <use xlink:href="#DejaVuSans-2e" x="63.623047"/>
       <use xlink:href="#DejaVuSans-30" x="95.410156"/>
       <use xlink:href="#DejaVuSans-30" x="159.033203"/>
      </g>
     </g>
    </g>
    <g id="ytick_6">
     <g id="line2d_12">
      <g>
       <use xlink:href="#mac19153cff" x="126" y="179.61097" style="stroke: #000000; stroke-width: 0.8"/>
      </g>
     </g>
     <g id="text_13">
      <!-- 1.25 -->
      <g transform="translate(96.734375 183.410189)scale(0.1 -0.1)">
       <use xlink:href="#DejaVuSans-31"/>
       <use xlink:href="#DejaVuSans-2e" x="63.623047"/>
       <use xlink:href="#DejaVuSans-32" x="95.410156"/>
       <use xlink:href="#DejaVuSans-35" x="159.033203"/>
      </g>
     </g>
    </g>
    <g id="ytick_7">
     <g id="line2d_13">
      <g>
       <use xlink:href="#mac19153cff" x="126" y="141.6288" style="stroke: #000000; stroke-width: 0.8"/>
      </g>
     </g>
     <g id="text_14">
      <!-- 1.50 -->
      <g transform="translate(96.734375 145.428019)scale(0.1 -0.1)">
       <use xlink:href="#DejaVuSans-31"/>
       <use xlink:href="#DejaVuSans-2e" x="63.623047"/>
       <use xlink:href="#DejaVuSans-35" x="95.410156"/>
       <use xlink:href="#DejaVuSans-30" x="159.033203"/>
      </g>
     </g>
    </g>
    <g id="ytick_8">
     <g id="line2d_14">
      <g>
       <use xlink:href="#mac19153cff" x="126" y="103.64663" style="stroke: #000000; stroke-width: 0.8"/>
      </g>
     </g>
     <g id="text_15">
      <!-- 1.75 -->
      <g transform="translate(96.734375 107.445848)scale(0.1 -0.1)">
       <use xlink:href="#DejaVuSans-31"/>
       <use xlink:href="#DejaVuSans-2e" x="63.623047"/>
       <use xlink:href="#DejaVuSans-37" x="95.410156"/>
       <use xlink:href="#DejaVuSans-35" x="159.033203"/>
      </g>
     </g>
    </g>
    <g id="ytick_9">
     <g id="line2d_15">
      <g>
       <use xlink:href="#mac19153cff" x="126" y="65.664459" style="stroke: #000000; stroke-width: 0.8"/>
      </g>
     </g>
     <g id="text_16">
      <!-- 2.00 -->
      <g transform="translate(96.734375 69.463678)scale(0.1 -0.1)">
       <use xlink:href="#DejaVuSans-32"/>
       <use xlink:href="#DejaVuSans-2e" x="63.623047"/>
       <use xlink:href="#DejaVuSans-30" x="95.410156"/>
       <use xlink:href="#DejaVuSans-30" x="159.033203"/>
      </g>
     </g>
    </g>
    <g id="text_17">
     <!-- Quadratic Covariation -->
     <g transform="translate(90.654687 272.970156)rotate(-90)scale(0.1 -0.1)">
      <defs>
       <path id="DejaVuSans-51" d="M 2522 4238 
Q 1834 4238 1429 3725 
Q 1025 3213 1025 2328 
Q 1025 1447 1429 934 
Q 1834 422 2522 422 
Q 3209 422 3611 934 
Q 4013 1447 4013 2328 
Q 4013 3213 3611 3725 
Q 3209 4238 2522 4238 
z
M 3406 84 
L 4238 -825 
L 3475 -825 
L 2784 -78 
Q 2681 -84 2626 -87 
Q 2572 -91 2522 -91 
Q 1538 -91 948 567 
Q 359 1225 359 2328 
Q 359 3434 948 4092 
Q 1538 4750 2522 4750 
Q 3503 4750 4090 4092 
Q 4678 3434 4678 2328 
Q 4678 1516 4351 937 
Q 4025 359 3406 84 
z
" transform="scale(0.015625)"/>
       <path id="DejaVuSans-75" d="M 544 1381 
L 544 3500 
L 1119 3500 
L 1119 1403 
Q 1119 906 1312 657 
Q 1506 409 1894 409 
Q 2359 409 2629 706 
Q 2900 1003 2900 1516 
L 2900 3500 
L 3475 3500 
L 3475 0 
L 2900 0 
L 2900 538 
Q 2691 219 2414 64 
Q 2138 -91 1772 -91 
Q 1169 -91 856 284 
Q 544 659 544 1381 
z
M 1991 3584 
L 1991 3584 
z
" transform="scale(0.015625)"/>
       <path id="DejaVuSans-61" d="M 2194 1759 
Q 1497 1759 1228 1600 
Q 959 1441 959 1056 
Q 959 750 1161 570 
Q 1363 391 1709 391 
Q 2188 391 2477 730 
Q 2766 1069 2766 1631 
L 2766 1759 
L 2194 1759 
z
M 3341 1997 
L 3341 0 
L 2766 0 
L 2766 531 
Q 2569 213 2275 61 
Q 1981 -91 1556 -91 
Q 1019 -91 701 211 
Q 384 513 384 1019 
Q 384 1609 779 1909 
Q 1175 2209 1959 2209 
L 2766 2209 
L 2766 2266 
Q 2766 2663 2505 2880 
Q 2244 3097 1772 3097 
Q 1472 3097 1187 3025 
Q 903 2953 641 2809 
L 641 3341 
Q 956 3463 1253 3523 
Q 1550 3584 1831 3584 
Q 2591 3584 2966 3190 
Q 3341 2797 3341 1997 
z
" transform="scale(0.015625)"/>
       <path id="DejaVuSans-64" d="M 2906 2969 
L 2906 4863 
L 3481 4863 
L 3481 0 
L 2906 0 
L 2906 525 
Q 2725 213 2448 61 
Q 2172 -91 1784 -91 
Q 1150 -91 751 415 
Q 353 922 353 1747 
Q 353 2572 751 3078 
Q 1150 3584 1784 3584 
Q 2172 3584 2448 3432 
Q 2725 3281 2906 2969 
z
M 947 1747 
Q 947 1113 1208 752 
Q 1469 391 1925 391 
Q 2381 391 2643 752 
Q 2906 1113 2906 1747 
Q 2906 2381 2643 2742 
Q 2381 3103 1925 3103 
Q 1469 3103 1208 2742 
Q 947 2381 947 1747 
z
" transform="scale(0.015625)"/>
       <path id="DejaVuSans-72" d="M 2631 2963 
Q 2534 3019 2420 3045 
Q 2306 3072 2169 3072 
Q 1681 3072 1420 2755 
Q 1159 2438 1159 1844 
L 1159 0 
L 581 0 
L 581 3500 
L 1159 3500 
L 1159 2956 
Q 1341 3275 1631 3429 
Q 1922 3584 2338 3584 
Q 2397 3584 2469 3576 
Q 2541 3569 2628 3553 
L 2631 2963 
z
" transform="scale(0.015625)"/>
       <path id="DejaVuSans-74" d="M 1172 4494 
L 1172 3500 
L 2356 3500 
L 2356 3053 
L 1172 3053 
L 1172 1153 
Q 1172 725 1289 603 
Q 1406 481 1766 481 
L 2356 481 
L 2356 0 
L 1766 0 
Q 1100 0 847 248 
Q 594 497 594 1153 
L 594 3053 
L 172 3053 
L 172 3500 
L 594 3500 
L 594 4494 
L 1172 4494 
z
" transform="scale(0.015625)"/>
       <path id="DejaVuSans-63" d="M 3122 3366 
L 3122 2828 
Q 2878 2963 2633 3030 
Q 2388 3097 2138 3097 
Q 1578 3097 1268 2742 
Q 959 2388 959 1747 
Q 959 1106 1268 751 
Q 1578 397 2138 397 
Q 2388 397 2633 464 
Q 2878 531 3122 666 
L 3122 134 
Q 2881 22 2623 -34 
Q 2366 -91 2075 -91 
Q 1284 -91 818 406 
Q 353 903 353 1747 
Q 353 2603 823 3093 
Q 1294 3584 2113 3584 
Q 2378 3584 2631 3529 
Q 2884 3475 3122 3366 
z
" transform="scale(0.015625)"/>
       <path id="DejaVuSans-20" transform="scale(0.015625)"/>
       <path id="DejaVuSans-43" d="M 4122 4306 
L 4122 3641 
Q 3803 3938 3442 4084 
Q 3081 4231 2675 4231 
Q 1875 4231 1450 3742 
Q 1025 3253 1025 2328 
Q 1025 1406 1450 917 
Q 1875 428 2675 428 
Q 3081 428 3442 575 
Q 3803 722 4122 1019 
L 4122 359 
Q 3791 134 3420 21 
Q 3050 -91 2638 -91 
Q 1578 -91 968 557 
Q 359 1206 359 2328 
Q 359 3453 968 4101 
Q 1578 4750 2638 4750 
Q 3056 4750 3426 4639 
Q 3797 4528 4122 4306 
z
" transform="scale(0.015625)"/>
       <path id="DejaVuSans-6f" d="M 1959 3097 
Q 1497 3097 1228 2736 
Q 959 2375 959 1747 
Q 959 1119 1226 758 
Q 1494 397 1959 397 
Q 2419 397 2687 759 
Q 2956 1122 2956 1747 
Q 2956 2369 2687 2733 
Q 2419 3097 1959 3097 
z
M 1959 3584 
Q 2709 3584 3137 3096 
Q 3566 2609 3566 1747 
Q 3566 888 3137 398 
Q 2709 -91 1959 -91 
Q 1206 -91 779 398 
Q 353 888 353 1747 
Q 353 2609 779 3096 
Q 1206 3584 1959 3584 
z
" transform="scale(0.015625)"/>
       <path id="DejaVuSans-76" d="M 191 3500 
L 800 3500 
L 1894 563 
L 2988 3500 
L 3597 3500 
L 2284 0 
L 1503 0 
L 191 3500 
z
" transform="scale(0.015625)"/>
       <path id="DejaVuSans-6e" d="M 3513 2113 
L 3513 0 
L 2938 0 
L 2938 2094 
Q 2938 2591 2744 2837 
Q 2550 3084 2163 3084 
Q 1697 3084 1428 2787 
Q 1159 2491 1159 1978 
L 1159 0 
L 581 0 
L 581 3500 
L 1159 3500 
L 1159 2956 
Q 1366 3272 1645 3428 
Q 1925 3584 2291 3584 
Q 2894 3584 3203 3211 
Q 3513 2838 3513 2113 
z
" transform="scale(0.015625)"/>
      </defs>
      <use xlink:href="#DejaVuSans-51"/>
      <use xlink:href="#DejaVuSans-75" x="78.710938"/>
      <use xlink:href="#DejaVuSans-61" x="142.089844"/>
      <use xlink:href="#DejaVuSans-64" x="203.369141"/>
      <use xlink:href="#DejaVuSans-72" x="266.845703"/>
      <use xlink:href="#DejaVuSans-61" x="307.958984"/>
      <use xlink:href="#DejaVuSans-74" x="369.238281"/>
      <use xlink:href="#DejaVuSans-69" x="408.447266"/>
      <use xlink:href="#DejaVuSans-63" x="436.230469"/>
      <use xlink:href="#DejaVuSans-20" x="491.210938"/>
      <use xlink:href="#DejaVuSans-43" x="522.998047"/>
      <use xlink:href="#DejaVuSans-6f" x="592.822266"/>
      <use xlink:href="#DejaVuSans-76" x="654.003906"/>
      <use xlink:href="#DejaVuSans-61" x="713.183594"/>
      <use xlink:href="#DejaVuSans-72" x="774.462891"/>
      <use xlink:href="#DejaVuSans-69" x="815.576172"/>
      <use xlink:href="#DejaVuSans-61" x="843.359375"/>
      <use xlink:href="#DejaVuSans-74" x="904.638672"/>
      <use xlink:href="#DejaVuSans-69" x="943.847656"/>
      <use xlink:href="#DejaVuSans-6f" x="971.630859"/>
      <use xlink:href="#DejaVuSans-6e" x="1032.8125"/>
     </g>
    </g>
   </g>
   <g id="line2d_16">
    <path d="M 161.509091 217.59314 
L 162.219273 222.228321 
L 162.929455 229.581156 
L 163.639636 224.961092 
L 164.349818 225.964174 
L 165.06 217.52156 
L 165.770182 223.771122 
L 166.480364 225.420617 
L 167.190545 223.246273 
L 167.900727 218.152375 
L 168.610909 221.346893 
L 169.321091 219.617621 
L 170.741455 222.414183 
L 171.451636 224.81261 
L 172.161818 226.107166 
L 172.872 228.676264 
L 173.582182 220.926978 
L 174.292364 217.690778 
L 175.002545 219.103255 
L 175.712727 224.116648 
L 177.133091 231.164036 
L 177.843273 235.587464 
L 178.553455 232.625712 
L 179.263636 239.111688 
L 179.973818 230.623169 
L 181.394182 224.757241 
L 182.104364 228.325936 
L 182.814545 224.249964 
L 183.524727 225.785663 
L 184.234909 238.934634 
L 184.945091 241.021871 
L 185.655273 237.600093 
L 186.365455 243.845283 
L 187.075636 241.574894 
L 187.785818 241.32132 
L 188.496 246.449371 
L 189.206182 248.564854 
L 189.916364 247.5071 
L 190.626545 253.115911 
L 191.336727 252.042455 
L 192.046909 245.056269 
L 192.757091 250.433682 
L 193.467273 249.408714 
L 194.177455 242.097221 
L 194.887636 246.074896 
L 195.597818 247.100756 
L 196.308 248.521964 
L 197.018182 244.231954 
L 197.728364 242.337893 
L 198.438545 247.648254 
L 199.148727 249.40748 
L 199.858909 250.131693 
L 200.569091 250.54674 
L 201.279273 248.022252 
L 201.989455 243.440108 
L 202.699636 247.45225 
L 203.409818 255.359796 
L 204.12 256.350381 
L 204.830182 259.743617 
L 205.540364 258.261975 
L 206.960727 259.956901 
L 207.670909 258.286187 
L 208.381091 253.777321 
L 209.091273 257.362024 
L 209.801455 263.46469 
L 210.511636 251.668917 
L 211.221818 248.072297 
L 212.642182 250.359101 
L 213.352364 249.328812 
L 214.062545 246.934767 
L 214.772727 255.083398 
L 215.482909 259.916254 
L 216.193091 262.760553 
L 216.903273 269.15509 
L 217.613455 271.868927 
L 218.323636 269.285011 
L 219.033818 263.349776 
L 219.744 261.41633 
L 220.454182 255.84149 
L 221.164364 253.440912 
L 221.874545 253.028624 
L 222.584727 250.858163 
L 223.294909 245.209459 
L 224.005091 246.624079 
L 224.715273 242.234721 
L 225.425455 242.386287 
L 226.135636 251.393713 
L 226.845818 250.58171 
L 227.556 249.48818 
L 228.266182 256.361515 
L 228.976364 255.328788 
L 229.686545 264.476981 
L 230.396727 271.67131 
L 231.106909 271.378992 
L 231.817091 269.158655 
L 232.527273 277.042112 
L 233.237455 273.063732 
L 233.947636 264.98355 
L 234.657818 269.795836 
L 235.368 272.47992 
L 237.498545 278.616111 
L 238.208727 277.059449 
L 238.918909 278.726934 
L 240.339273 277.476443 
L 241.049455 278.070548 
L 241.759636 279.69866 
L 242.469818 275.04954 
L 243.18 279.461922 
L 243.890182 270.333472 
L 244.600364 286.26984 
L 245.310545 293.434755 
L 246.020727 292.025683 
L 246.730909 299.195646 
L 247.441091 301.884941 
L 248.151273 298.891571 
L 248.861455 297.11411 
L 249.571636 303.958095 
L 250.281818 301.520317 
L 250.992 304.758432 
L 252.412364 298.192451 
L 253.122545 299.675732 
L 254.542909 287.043494 
L 255.253091 287.149621 
L 255.963273 283.408879 
L 256.673455 291.928843 
L 257.383636 294.387144 
L 258.093818 299.201088 
L 258.804 293.604248 
L 259.514182 294.011325 
L 260.224364 300.268066 
L 260.934545 296.135424 
L 261.644727 302.934335 
L 262.354909 315.303734 
L 263.065091 307.738854 
L 264.485455 317.063043 
L 265.195636 308.689621 
L 265.905818 305.391546 
L 267.326182 294.51701 
L 268.036364 291.306989 
L 268.746545 283.254992 
L 269.456727 281.602673 
L 270.166909 278.034568 
L 270.877091 282.023293 
L 271.587273 276.642129 
L 272.297455 282.512718 
L 273.007636 283.191902 
L 273.717818 280.858839 
L 274.428 273.11236 
L 275.138182 273.515727 
L 275.848364 273.248539 
L 276.558545 282.227209 
L 277.268727 273.415017 
L 277.978909 275.971623 
L 278.689091 273.085967 
L 279.399273 281.61246 
L 280.109455 277.894846 
L 280.819636 275.301753 
L 282.24 276.581432 
L 282.950182 268.324758 
L 283.660364 270.138667 
L 284.370545 279.290752 
L 285.080727 283.471605 
L 285.790909 284.484458 
L 286.501091 277.36669 
L 287.211273 275.877775 
L 287.921455 273.838389 
L 288.631636 273.668548 
L 289.341818 268.606087 
L 290.052 271.502864 
L 290.762182 265.474127 
L 291.472364 264.901621 
L 292.182545 269.515971 
L 292.892727 281.837296 
L 293.602909 282.146404 
L 294.313091 281.460127 
L 295.023273 283.999433 
L 295.733455 277.343211 
L 296.443636 278.282921 
L 297.153818 280.217413 
L 297.864 283.900419 
L 298.574182 286.298989 
L 299.284364 285.505808 
L 299.994545 280.651803 
L 300.704727 274.789408 
L 301.414909 280.602936 
L 302.125091 279.096418 
L 303.545455 290.080487 
L 304.255636 297.339523 
L 304.965818 297.539049 
L 305.676 301.867646 
L 306.386182 302.766699 
L 307.096364 304.706765 
L 307.806545 301.243503 
L 308.516727 295.686216 
L 309.226909 299.511604 
L 309.937091 296.348401 
L 310.647273 300.451055 
L 311.357455 301.472925 
L 312.067636 298.113155 
L 312.777818 295.74418 
L 313.488 291.244374 
L 314.198182 296.736362 
L 314.908364 291.090327 
L 315.618545 292.258661 
L 316.328727 290.83503 
L 317.038909 284.252827 
L 318.459273 273.836057 
L 319.169455 277.409646 
L 319.879636 278.142314 
L 320.589818 275.362635 
L 321.3 275.517437 
L 322.010182 274.141602 
L 322.720364 275.676035 
L 323.430545 268.551485 
L 324.140727 270.948215 
L 324.850909 271.313875 
L 325.561091 273.858647 
L 326.271273 286.845233 
L 326.981455 287.798927 
L 327.691636 290.225338 
L 328.401818 291.731139 
L 329.112 285.824095 
L 329.822182 282.279357 
L 330.532364 278.00232 
L 331.242545 282.691988 
L 331.952727 270.745181 
L 332.662909 261.429612 
L 333.373091 255.751773 
L 334.083273 259.912616 
L 334.793455 264.90442 
L 335.503636 256.740657 
L 336.213818 256.155541 
L 336.924 255.836556 
L 337.634182 252.230931 
L 338.344364 257.323752 
L 339.764727 247.466515 
L 340.474909 242.86377 
L 341.185091 233.945439 
L 341.895273 237.371494 
L 342.605455 247.586467 
L 343.315636 241.331895 
L 344.736 248.81925 
L 345.446182 243.737028 
L 347.576727 254.859873 
L 348.286909 258.111614 
L 348.997091 258.297038 
L 349.707273 256.913589 
L 350.417455 252.209961 
L 351.127636 260.320568 
L 351.837818 255.174295 
L 352.548 248.752706 
L 353.258182 256.509545 
L 353.968364 262.950535 
L 354.678545 259.568729 
L 355.388727 257.705632 
L 356.098909 248.183159 
L 356.809091 248.365286 
L 357.519273 250.490513 
L 358.229455 245.975127 
L 358.939636 244.467549 
L 360.36 235.228289 
L 362.490545 224.454274 
L 363.200727 225.02532 
L 363.910909 220.987895 
L 364.621091 219.017766 
L 365.331273 221.313917 
L 366.041455 224.397706 
L 366.751636 228.712147 
L 368.172 229.858958 
L 368.882182 229.026871 
L 369.592364 229.249653 
L 370.302545 225.640405 
L 371.012727 231.754243 
L 371.722909 232.325715 
L 372.433091 235.884937 
L 373.143273 238.137318 
L 373.853455 233.105198 
L 374.563636 234.788513 
L 375.273818 228.707872 
L 375.984 230.930745 
L 376.694182 235.298035 
L 377.404364 241.689048 
L 378.114545 235.306929 
L 378.824727 234.080704 
L 379.534909 243.972422 
L 380.245091 246.78144 
L 380.955273 245.21726 
L 381.665455 247.199623 
L 382.375636 247.52098 
L 383.085818 243.076188 
L 384.506182 248.987427 
L 385.216364 240.733142 
L 385.926545 240.101782 
L 386.636727 237.428631 
L 387.346909 237.434275 
L 388.057091 233.982663 
L 388.767273 238.418475 
L 389.477455 241.502776 
L 390.187636 246.555186 
L 390.897818 247.413607 
L 391.608 253.750863 
L 392.318182 254.042044 
L 393.028364 255.854891 
L 393.738545 251.209273 
L 394.448727 249.515099 
L 395.158909 251.65837 
L 395.869091 250.681782 
L 396.579273 249.993538 
L 397.289455 250.623194 
L 397.999636 245.306769 
L 398.709818 243.748067 
L 399.42 237.809761 
L 401.550545 217.262199 
L 402.260727 212.879886 
L 402.970909 219.019851 
L 403.681091 224.067171 
L 404.391273 232.238486 
L 405.101455 227.987924 
L 405.811636 222.252161 
L 406.521818 212.958146 
L 407.232 208.625864 
L 407.942182 202.714963 
L 408.652364 207.198531 
L 409.362545 207.013272 
L 410.072727 206.24696 
L 410.782909 204.562116 
L 411.493091 201.864299 
L 412.203273 210.988674 
L 412.913455 217.413099 
L 413.623636 222.647122 
L 414.333818 215.876827 
L 415.044 221.210646 
L 415.754182 212.680428 
L 416.464364 218.126322 
L 417.174545 216.077183 
L 417.884727 225.559269 
L 418.594909 222.200156 
L 419.305091 221.383729 
L 420.015273 219.168501 
L 420.725455 225.828015 
L 421.435636 224.154875 
L 422.145818 224.899518 
L 422.856 226.765412 
L 423.566182 235.331077 
L 424.276364 235.91047 
L 424.986545 236.090827 
L 425.696727 234.49026 
L 426.406909 241.455367 
L 427.827273 251.656649 
L 429.247636 250.596852 
L 429.957818 250.27171 
L 430.668 240.901675 
L 431.378182 233.372366 
L 432.798545 243.260241 
L 433.508727 249.577538 
L 434.218909 252.779713 
L 434.929091 252.061304 
L 435.639273 251.612607 
L 436.349455 249.812946 
L 437.059636 257.554135 
L 437.769818 255.893944 
L 439.190182 261.519641 
L 439.900364 265.048528 
L 441.320727 261.666037 
L 442.030909 270.171105 
L 442.741091 268.715216 
L 443.451273 279.365942 
L 444.161455 282.058134 
L 444.871636 288.673093 
L 445.581818 288.093533 
L 446.292 285.40216 
L 447.002182 287.866073 
L 447.712364 292.198089 
L 448.422545 292.072917 
L 449.132727 285.777763 
L 449.842909 287.855084 
L 450.553091 281.527418 
L 451.263273 289.5865 
L 451.973455 289.088477 
L 452.683636 295.660453 
L 453.393818 293.902512 
L 454.104 290.872796 
L 455.524364 294.444421 
L 456.234545 297.327989 
L 456.944727 301.186139 
L 458.365091 299.429916 
L 459.075273 300.733267 
L 459.785455 300.869522 
L 460.495636 305.770364 
L 461.205818 309.103903 
L 461.916 313.878062 
L 462.626182 314.540025 
L 463.336364 310.830729 
L 464.046545 308.601534 
L 464.756727 308.355418 
L 465.466909 308.574003 
L 466.177091 306.933381 
L 466.887273 308.992704 
L 468.307636 302.328711 
L 469.017818 301.136079 
L 469.728 295.927081 
L 470.438182 282.900075 
L 471.148364 283.432444 
L 471.858545 286.266624 
L 472.568727 286.364939 
L 473.278909 281.587472 
L 473.989091 275.134039 
L 474.699273 281.389739 
L 475.409455 281.218759 
L 476.119636 278.697791 
L 476.829818 285.168827 
L 477.54 287.720366 
L 478.250182 287.758509 
L 478.960364 289.697435 
L 479.670545 289.556467 
L 480.380727 293.006202 
L 481.090909 291.284364 
L 481.801091 289.156172 
L 482.511273 283.471707 
L 483.931636 289.579852 
L 484.641818 291.242491 
L 485.352 289.020139 
L 486.062182 286.182828 
L 486.772364 288.124601 
L 487.482545 290.867833 
L 488.192727 294.143599 
L 488.902909 297.969154 
L 489.613091 299.62126 
L 490.323273 304.233054 
L 491.033455 301.211779 
L 491.743636 306.812344 
L 492.453818 310.649284 
L 493.164 311.275399 
L 493.874182 310.927786 
L 494.584364 302.040791 
L 495.294545 303.208336 
L 496.004727 301.377926 
L 497.425091 305.536349 
L 498.135273 299.095311 
L 498.845455 304.036726 
L 499.555636 300.698734 
L 500.265818 303.617612 
L 500.976 302.400511 
L 501.686182 294.50253 
L 502.396364 293.169663 
L 503.816727 304.339335 
L 504.526909 304.9477 
L 505.237091 310.793648 
L 505.947273 312.048738 
L 506.657455 314.025733 
L 507.367636 319.198804 
L 508.077818 328.386609 
L 508.788 323.760849 
L 509.498182 327.826294 
L 510.208364 324.249077 
L 510.918545 332.431795 
L 512.338909 319.664773 
L 513.049091 325.043649 
L 513.759273 322.391831 
L 514.469455 317.991464 
L 515.179636 319.115064 
L 515.889818 322.691572 
L 516.6 329.852736 
L 517.310182 331.801184 
L 518.020364 334.983886 
L 518.730545 336.998599 
L 519.440727 336.429141 
L 520.150909 343.392947 
L 520.861091 348.049217 
L 521.571273 350.572824 
L 522.281455 343.668713 
L 522.991636 345.571892 
L 523.701818 348.369913 
L 524.412 349.124667 
L 525.122182 354.669828 
L 525.832364 349.672053 
L 526.542545 345.990225 
L 527.252727 343.804858 
L 527.962909 349.191149 
L 528.673091 349.690567 
L 529.383273 347.362846 
L 530.093455 344.466533 
L 530.803636 333.871994 
L 531.513818 332.561784 
L 532.224 336.850823 
L 532.934182 327.986565 
L 533.644364 327.235077 
L 534.354545 331.427325 
L 535.064727 334.701986 
L 535.774909 330.486669 
L 536.485091 332.53766 
L 537.195273 331.723128 
L 537.905455 326.247918 
L 538.615636 318.160154 
L 539.325818 322.878497 
L 540.036 320.000435 
L 540.746182 313.493876 
L 541.456364 315.991698 
L 542.166545 321.55 
L 542.876727 322.735899 
L 543.586909 317.909467 
L 544.297091 315.067881 
L 545.007273 325.005787 
L 545.717455 332.128148 
L 546.427636 322.265413 
L 547.137818 324.582947 
L 547.848 322.217203 
L 548.558182 323.113386 
L 549.268364 313.705147 
L 549.978545 309.494369 
L 550.688727 307.372189 
L 551.398909 308.581357 
L 552.109091 301.937325 
L 552.819273 308.357712 
L 553.529455 301.308685 
L 554.239636 302.49325 
L 554.949818 304.078529 
L 555.66 304.098613 
L 556.370182 295.039054 
L 557.080364 289.101296 
L 557.790545 287.932639 
L 558.500727 285.36563 
L 559.210909 285.621861 
L 559.921091 282.81031 
L 560.631273 283.518229 
L 561.341455 283.956623 
L 562.051636 277.526518 
L 562.761818 278.041604 
L 563.472 281.966121 
L 564.182182 279.521101 
L 564.892364 278.279863 
L 565.602545 269.703744 
L 566.312727 269.108716 
L 567.022909 263.919414 
L 567.733091 268.453132 
L 568.443273 260.552297 
L 569.153455 263.573904 
L 569.863636 261.04146 
L 571.284 253.175611 
L 571.994182 260.514119 
L 572.704364 259.447642 
L 573.414545 254.951998 
L 574.124727 253.163698 
L 574.834909 251.934947 
L 575.545091 244.010522 
L 576.255273 248.624799 
L 576.965455 241.149539 
L 577.675636 250.370584 
L 578.385818 247.23446 
L 579.096 248.476524 
L 579.806182 246.351718 
L 580.516364 252.437792 
L 581.226545 252.29601 
L 582.646909 263.526558 
L 583.357091 262.048416 
L 584.067273 273.491012 
L 584.777455 269.546371 
L 585.487636 273.121709 
L 586.197818 280.288244 
L 586.908 285.993501 
L 587.618182 274.684025 
L 588.328364 274.20789 
L 589.038545 286.748097 
L 589.748727 284.591181 
L 590.458909 278.267949 
L 591.879273 268.399048 
L 592.589455 265.282094 
L 593.299636 261.511846 
L 594.009818 263.195839 
L 594.72 276.052911 
L 595.430182 277.737572 
L 596.140364 286.587978 
L 596.850545 280.579603 
L 597.560727 277.489995 
L 598.981091 283.550031 
L 599.691273 282.025451 
L 601.111636 292.039315 
L 601.821818 285.592385 
L 602.532 290.795501 
L 603.242182 295.028591 
L 603.952364 292.516102 
L 604.662545 291.265677 
L 605.372727 297.311515 
L 606.082909 292.230516 
L 606.793091 291.351817 
L 607.503273 286.297607 
L 608.213455 282.111392 
L 608.923636 282.512933 
L 609.633818 289.981861 
L 610.344 288.616136 
L 611.054182 286.904403 
L 611.764364 287.715195 
L 612.474545 292.172817 
L 613.184727 293.651331 
L 613.894909 296.350353 
L 614.605091 298.424337 
L 615.315273 298.05208 
L 616.025455 296.289434 
L 616.735636 295.228844 
L 617.445818 299.927435 
L 618.156 294.122006 
L 618.866182 285.63692 
L 620.286545 288.59625 
L 620.996727 291.480324 
L 621.706909 297.095114 
L 622.417091 301.628373 
L 623.837455 303.844338 
L 625.257818 295.991887 
L 625.968 301.003866 
L 626.678182 293.467102 
L 627.388364 293.279323 
L 628.098545 290.078749 
L 628.808727 296.918636 
L 629.518909 292.338387 
L 630.229091 297.046053 
L 630.939273 296.884645 
L 631.649455 301.524368 
L 632.359636 301.321289 
L 633.069818 303.726026 
L 634.490182 315.150646 
L 635.200364 311.740006 
L 635.910545 304.715309 
L 636.620727 304.588345 
L 637.330909 307.989783 
L 638.041091 312.171088 
L 638.751273 319.060402 
L 639.461455 315.457001 
L 640.171636 321.671186 
L 640.881818 316.292446 
L 641.592 322.339567 
L 642.302182 319.584508 
L 643.012364 319.740547 
L 643.722545 322.054965 
L 644.432727 322.682692 
L 645.142909 315.39272 
L 645.853091 318.52995 
L 646.563273 313.810812 
L 647.273455 312.086221 
L 647.983636 307.520772 
L 648.693818 316.047275 
L 649.404 310.827266 
L 650.114182 309.366686 
L 650.824364 310.902992 
L 651.534545 310.717794 
L 652.244727 315.372379 
L 652.954909 306.795667 
L 653.665091 300.514144 
L 654.375273 301.45363 
L 655.085455 304.611904 
L 655.795636 303.422713 
L 656.505818 301.878407 
L 657.216 297.754442 
L 657.926182 297.888048 
L 658.636364 303.426806 
L 659.346545 303.572894 
L 660.056727 293.001671 
L 660.766909 298.776858 
L 661.477091 295.414151 
L 662.187273 302.137108 
L 662.897455 303.31652 
L 663.607636 315.043677 
L 664.317818 301.21715 
L 665.028 303.770941 
L 665.738182 293.388453 
L 666.448364 293.644374 
L 667.158545 292.367005 
L 667.868727 286.081348 
L 668.578909 287.523884 
L 669.289091 286.447858 
L 669.999273 290.76848 
L 670.709455 289.529386 
L 671.419636 281.669851 
L 672.129818 279.134139 
L 672.84 277.816917 
L 673.550182 275.53382 
L 674.260364 269.410187 
L 674.970545 268.645575 
L 675.680727 267.517087 
L 676.390909 268.201764 
L 677.811273 285.90591 
L 678.521455 287.875987 
L 679.231636 283.716525 
L 679.941818 286.921651 
L 680.652 284.086696 
L 681.362182 282.923762 
L 682.072364 279.985341 
L 682.782545 281.917235 
L 683.492727 270.440807 
L 684.202909 266.521006 
L 684.913091 269.70582 
L 685.623273 272.291708 
L 686.333455 268.952333 
L 687.043636 268.765077 
L 687.753818 264.418123 
L 688.464 260.969237 
L 689.174182 251.912333 
L 689.884364 248.555746 
L 690.594545 245.81972 
L 691.304727 247.698041 
L 692.014909 249.093025 
L 692.725091 262.795845 
L 693.435273 253.583482 
L 694.855636 257.820069 
L 695.565818 253.316915 
L 696.276 256.673428 
L 696.986182 250.297642 
L 697.696364 240.606018 
L 699.116727 253.942515 
L 699.826909 256.399554 
L 700.537091 249.784959 
L 701.247273 244.707199 
L 701.957455 241.812229 
L 702.667636 242.032457 
L 703.377818 247.76047 
L 704.088 251.332439 
L 704.798182 259.417398 
L 705.508364 263.668578 
L 706.218545 270.661261 
L 706.928727 268.904476 
L 707.638909 263.761621 
L 708.349091 262.987611 
L 709.059273 252.028638 
L 709.769455 253.479474 
L 711.189818 240.357078 
L 711.9 248.567671 
L 712.610182 248.6334 
L 713.320364 247.961781 
L 714.030545 240.034784 
L 714.740727 243.318724 
L 715.450909 249.531229 
L 716.161091 254.746004 
L 716.871273 246.815868 
L 718.291636 254.305989 
L 719.001818 264.332737 
L 719.712 263.352389 
L 720.422182 265.900049 
L 721.132364 257.934038 
L 721.842545 259.650285 
L 722.552727 259.139398 
L 723.262909 251.019346 
L 723.973091 252.708951 
L 724.683273 252.096265 
L 725.393455 258.62524 
L 726.103636 257.015187 
L 726.813818 253.157453 
L 727.524 261.179899 
L 728.234182 265.801608 
L 728.944364 250.579056 
L 730.364727 244.093052 
L 731.074909 248.916783 
L 731.785091 246.685845 
L 733.915636 223.10074 
L 734.625818 225.582761 
L 735.336 222.573921 
L 736.046182 216.952016 
L 736.756364 223.251571 
L 737.466545 227.039938 
L 738.176727 218.055378 
L 738.886909 218.47773 
L 739.597091 217.701471 
L 740.307273 213.576331 
L 741.017455 216.40958 
L 742.437818 212.841837 
L 743.148 220.813785 
L 743.858182 218.598483 
L 744.568364 217.551118 
L 745.278545 213.464021 
L 745.988727 221.440094 
L 746.698909 219.820657 
L 747.409091 213.751091 
L 748.119273 217.371748 
L 748.829455 217.426001 
L 749.539636 216.466477 
L 750.249818 211.393524 
L 750.96 210.373842 
L 751.670182 213.332499 
L 752.380364 213.916104 
L 753.090545 209.250544 
L 753.800727 217.907398 
L 754.510909 207.674279 
L 755.221091 202.053456 
L 755.931273 201.554231 
L 756.641455 201.881697 
L 757.351636 206.195402 
L 758.061818 207.362537 
L 758.772 209.355872 
L 759.482182 207.865238 
L 760.192364 212.978846 
L 760.902545 210.01834 
L 761.612727 208.266896 
L 762.322909 206.159106 
L 763.033091 202.77776 
L 763.743273 200.311687 
L 764.453455 193.892685 
L 765.163636 193.970598 
L 765.873818 199.436392 
L 766.584 200.941397 
L 767.294182 198.238617 
L 768.714545 190.901664 
L 769.424727 185.552829 
L 770.845091 196.96347 
L 771.555273 195.445481 
L 772.265455 183.719924 
L 772.975636 179.504556 
L 773.685818 176.314972 
L 774.396 169.145776 
L 775.106182 170.470161 
L 775.816364 176.410068 
L 776.526545 169.076944 
L 777.236727 176.380355 
L 777.946909 176.975382 
L 778.657091 184.036163 
L 779.367273 183.86312 
L 780.077455 184.233459 
L 780.787636 181.609659 
L 781.497818 184.304855 
L 782.208 194.648253 
L 782.918182 193.73526 
L 783.628364 199.552323 
L 784.338545 202.120654 
L 785.048727 200.47117 
L 785.758909 204.827605 
L 786.469091 207.211027 
L 787.179273 197.152262 
L 787.889455 194.190663 
L 788.599636 192.554971 
L 789.309818 192.129611 
L 790.02 192.181304 
L 791.440364 189.414878 
L 792.860727 189.742736 
L 793.570909 190.724415 
L 794.281091 187.416557 
L 794.991273 179.924003 
L 795.701455 179.634901 
L 796.411636 171.383999 
L 797.121818 172.562117 
L 797.832 164.032812 
L 798.542182 163.797274 
L 799.252364 153.109687 
L 799.962545 147.021251 
L 800.672727 139.049858 
L 801.382909 149.575241 
L 802.093091 144.100416 
L 802.803273 146.813735 
L 803.513455 151.425049 
L 804.223636 163.709151 
L 804.933818 160.804645 
L 805.644 155.108722 
L 806.354182 147.980487 
L 807.064364 146.401868 
L 807.774545 152.365118 
L 808.484727 162.478837 
L 809.194909 166.308572 
L 809.905091 164.045663 
L 810.615273 172.620757 
L 811.325455 168.145398 
L 812.035636 165.900603 
L 812.745818 161.563884 
L 813.456 149.724459 
L 814.166182 150.689312 
L 814.876364 151.081431 
L 815.586545 141.962532 
L 816.296727 137.813796 
L 817.006909 138.787866 
L 817.717091 136.036384 
L 818.427273 134.634252 
L 819.137455 137.259094 
L 819.847636 139.331355 
L 820.557818 134.916326 
L 821.268 129.560444 
L 821.978182 121.797627 
L 822.688364 122.188757 
L 823.398545 123.191926 
L 824.108727 119.117874 
L 824.818909 115.865668 
L 825.529091 114.378445 
L 826.239273 108.079303 
L 826.949455 114.82846 
L 827.659636 120.302494 
L 828.369818 118.792861 
L 829.08 119.465536 
L 829.790182 115.618085 
L 830.500364 113.432483 
L 831.210545 115.887792 
L 831.920727 122.109132 
L 832.630909 125.993198 
L 833.341091 128.115073 
L 834.051273 129.40727 
L 834.761455 134.581607 
L 835.471636 142.582347 
L 836.181818 145.858469 
L 836.892 136.854173 
L 837.602182 134.956349 
L 838.312364 134.599169 
L 839.022545 142.434476 
L 839.732727 141.626491 
L 841.153091 147.120302 
L 842.573455 129.854071 
L 843.283636 139.730514 
L 843.993818 133.468599 
L 844.704 133.046658 
L 845.414182 127.522915 
L 846.124364 128.505581 
L 846.834545 123.35484 
L 847.544727 121.946509 
L 848.254909 124.852116 
L 849.675273 125.251738 
L 850.385455 124.269851 
L 851.095636 129.715495 
L 851.805818 133.669103 
L 852.516 132.993545 
L 853.226182 139.232067 
L 853.936364 139.195281 
L 854.646545 141.130829 
L 855.356727 139.594003 
L 856.066909 133.275151 
L 856.777091 133.833551 
L 858.197455 132.366523 
L 858.907636 137.060655 
L 859.617818 127.797066 
L 860.328 128.376166 
L 861.038182 126.623 
L 861.748364 134.526106 
L 862.458545 138.20023 
L 863.168727 140.109011 
L 863.878909 139.866885 
L 864.589091 139.778818 
L 865.299273 139.870928 
L 866.719636 148.275911 
L 867.429818 146.106683 
L 868.14 142.477072 
L 868.850182 150.231214 
L 869.560364 147.965511 
L 870.270545 148.886563 
L 870.980727 143.755994 
L 871.690909 145.054886 
L 871.690909 145.054886 
" clip-path="url(#p3ede1d2fa3)" style="fill: none; stroke: #1f77b4; stroke-width: 1.5; stroke-linecap: square"/>
   </g>
   <g id="line2d_17">
    <path d="M 161.509091 217.59314 
L 162.219273 222.897201 
L 162.929455 237.249386 
L 163.639636 233.624034 
L 164.349818 227.910696 
L 165.06 223.528081 
L 165.770182 236.657728 
L 166.480364 238.946628 
L 167.190545 235.804011 
L 167.900727 235.738114 
L 168.610909 238.734242 
L 169.321091 232.035756 
L 170.031273 235.092952 
L 170.741455 239.841903 
L 171.451636 249.90661 
L 172.161818 249.879846 
L 172.872 254.188841 
L 173.582182 240.350858 
L 174.292364 248.389448 
L 175.002545 246.954085 
L 175.712727 249.236334 
L 176.422909 258.140979 
L 177.133091 255.365589 
L 177.843273 259.821881 
L 178.553455 259.34791 
L 179.263636 269.273448 
L 180.684 253.163875 
L 181.394182 249.360693 
L 182.104364 259.395005 
L 182.814545 258.057986 
L 183.524727 264.551184 
L 184.234909 277.498397 
L 184.945091 277.793204 
L 185.655273 265.984495 
L 186.365455 274.503809 
L 187.075636 263.112049 
L 187.785818 257.084763 
L 188.496 260.712419 
L 189.206182 263.467726 
L 189.916364 259.12023 
L 190.626545 259.110581 
L 191.336727 249.732286 
L 192.046909 237.877279 
L 192.757091 248.077661 
L 193.467273 240.563237 
L 194.177455 228.992008 
L 195.597818 247.460869 
L 196.308 249.025469 
L 197.728364 240.067115 
L 198.438545 247.975601 
L 199.148727 250.044095 
L 199.858909 246.982277 
L 200.569091 241.720431 
L 201.989455 237.684656 
L 202.699636 241.512972 
L 203.409818 248.164481 
L 204.12 246.375938 
L 204.830182 243.464006 
L 205.540364 241.538206 
L 206.250545 238.899446 
L 206.960727 246.147444 
L 207.670909 242.121107 
L 208.381091 241.452293 
L 209.091273 244.349818 
L 209.801455 251.219558 
L 210.511636 241.111473 
L 211.221818 234.656366 
L 211.932 231.63436 
L 212.642182 222.09577 
L 213.352364 220.406256 
L 214.062545 213.903963 
L 214.772727 220.356079 
L 215.482909 223.202895 
L 216.903273 239.665689 
L 217.613455 237.187938 
L 218.323636 233.637317 
L 219.033818 231.231864 
L 219.744 228.348971 
L 221.164364 218.136656 
L 221.874545 213.663151 
L 222.584727 213.064114 
L 223.294909 210.57972 
L 224.005091 203.135001 
L 224.715273 202.922727 
L 225.425455 199.015095 
L 226.135636 209.309669 
L 226.845818 202.60044 
L 227.556 193.305228 
L 228.976364 208.131405 
L 230.396727 229.235656 
L 231.106909 228.260155 
L 231.817091 227.610996 
L 232.527273 238.608904 
L 233.237455 231.780352 
L 233.947636 230.726134 
L 234.657818 224.357345 
L 235.368 238.033576 
L 236.078182 244.996603 
L 236.788364 246.386003 
L 237.498545 246.576291 
L 238.208727 242.041212 
L 238.918909 246.438608 
L 239.629091 242.065195 
L 240.339273 236.65983 
L 241.049455 243.809704 
L 241.759636 241.869711 
L 242.469818 243.696807 
L 243.18 247.989299 
L 243.890182 241.128256 
L 244.600364 260.50085 
L 245.310545 268.833358 
L 246.020727 258.790587 
L 246.730909 258.380492 
L 247.441091 262.764852 
L 248.151273 257.147471 
L 248.861455 256.55199 
L 249.571636 274.817067 
L 250.281818 278.515399 
L 250.992 277.393059 
L 251.702182 272.406493 
L 252.412364 272.949843 
L 253.122545 271.294448 
L 253.832727 268.742997 
L 254.542909 262.08351 
L 255.253091 264.928729 
L 255.963273 261.975553 
L 258.093818 290.161535 
L 258.804 278.47795 
L 260.224364 278.004999 
L 260.934545 273.389071 
L 261.644727 276.889388 
L 262.354909 287.626208 
L 263.065091 288.364533 
L 264.485455 306.174157 
L 265.195636 296.970847 
L 265.905818 295.401633 
L 266.616 286.435521 
L 268.036364 281.862645 
L 268.746545 276.979865 
L 269.456727 286.976483 
L 270.166909 278.966842 
L 270.877091 286.652411 
L 271.587273 278.708658 
L 272.297455 278.333828 
L 273.007636 284.937354 
L 274.428 266.237696 
L 275.138182 265.376984 
L 275.848364 260.756007 
L 276.558545 276.635859 
L 277.268727 266.183087 
L 277.978909 268.862993 
L 278.689091 270.010937 
L 279.399273 289.789774 
L 280.109455 295.291359 
L 280.819636 293.69959 
L 281.529818 298.58083 
L 282.24 301.972817 
L 282.950182 292.750943 
L 283.660364 296.673437 
L 284.370545 314.858056 
L 285.080727 315.882561 
L 285.790909 312.265178 
L 286.501091 305.677979 
L 287.211273 307.208026 
L 287.921455 305.855174 
L 288.631636 308.824643 
L 289.341818 301.890886 
L 290.052 302.379059 
L 290.762182 298.804272 
L 291.472364 294.230933 
L 292.182545 293.596457 
L 292.892727 317.928566 
L 293.602909 315.638788 
L 294.313091 317.397671 
L 295.023273 320.887572 
L 295.733455 309.996883 
L 296.443636 312.677097 
L 297.864 313.507207 
L 298.574182 310.910492 
L 299.284364 316.639262 
L 299.994545 309.510619 
L 300.704727 303.920715 
L 301.414909 312.986134 
L 302.125091 310.430152 
L 302.835273 320.952987 
L 303.545455 321.006962 
L 304.255636 326.048525 
L 304.965818 322.658102 
L 305.676 326.61079 
L 306.386182 327.23644 
L 307.096364 330.733713 
L 307.806545 329.022777 
L 308.516727 323.15939 
L 309.226909 325.827625 
L 310.647273 322.003188 
L 311.357455 333.294831 
L 312.067636 334.686478 
L 312.777818 343.743838 
L 313.488 338.137731 
L 314.198182 353.562539 
L 314.908364 337.637617 
L 315.618545 338.891013 
L 317.038909 319.879212 
L 317.749091 313.865708 
L 318.459273 311.553486 
L 319.169455 308.835319 
L 319.879636 307.138298 
L 320.589818 308.371007 
L 321.3 313.1072 
L 322.010182 307.688985 
L 322.720364 312.772712 
L 323.430545 303.246249 
L 324.140727 300.667397 
L 324.850909 299.985757 
L 325.561091 298.5175 
L 326.271273 320.14238 
L 326.981455 316.004451 
L 327.691636 320.050851 
L 328.401818 311.269934 
L 329.112 304.600066 
L 329.822182 299.758155 
L 330.532364 293.175573 
L 331.242545 301.16981 
L 331.952727 288.453 
L 332.662909 282.314685 
L 333.373091 277.437492 
L 334.083273 276.76425 
L 334.793455 283.735687 
L 335.503636 281.108337 
L 336.213818 277.984496 
L 336.924 283.769766 
L 337.634182 284.888582 
L 338.344364 293.940949 
L 339.054545 299.750062 
L 339.764727 293.776919 
L 340.474909 281.2422 
L 341.185091 277.348023 
L 341.895273 281.344401 
L 342.605455 292.01612 
L 343.315636 276.230584 
L 344.025818 276.03647 
L 344.736 281.948954 
L 345.446182 274.525566 
L 346.866545 292.360245 
L 347.576727 297.674405 
L 348.286909 308.158726 
L 348.997091 308.457595 
L 350.417455 291.385406 
L 351.127636 299.821715 
L 351.837818 285.497871 
L 352.548 274.401905 
L 353.258182 275.058539 
L 353.968364 276.095382 
L 354.678545 267.940148 
L 355.388727 261.825747 
L 356.098909 252.630375 
L 356.809091 250.145342 
L 357.519273 254.728325 
L 358.229455 247.1718 
L 358.939636 249.513612 
L 359.649818 247.645053 
L 360.36 246.439624 
L 361.070182 248.15824 
L 362.490545 237.750935 
L 363.200727 239.377487 
L 364.621091 222.459376 
L 365.331273 222.905194 
L 366.041455 221.73996 
L 366.751636 221.990087 
L 367.461818 235.549109 
L 368.172 228.529103 
L 368.882182 228.666863 
L 369.592364 227.409646 
L 370.302545 229.69258 
L 371.012727 236.202175 
L 371.722909 233.726721 
L 373.143273 243.731168 
L 373.853455 238.710702 
L 374.563636 237.5133 
L 375.273818 227.659648 
L 375.984 219.759524 
L 376.694182 220.201555 
L 377.404364 224.242594 
L 378.114545 223.943119 
L 378.824727 214.899409 
L 379.534909 221.985552 
L 380.245091 224.909769 
L 380.955273 224.074836 
L 381.665455 230.682338 
L 382.375636 228.155504 
L 383.085818 220.334961 
L 383.796 215.794813 
L 384.506182 216.556196 
L 385.216364 200.637116 
L 385.926545 198.548728 
L 386.636727 197.081944 
L 387.346909 201.301386 
L 388.057091 201.451601 
L 388.767273 204.976622 
L 389.477455 211.864498 
L 390.187636 212.882361 
L 390.897818 211.180883 
L 391.608 218.346067 
L 392.318182 219.492195 
L 393.028364 228.985287 
L 393.738545 215.054765 
L 394.448727 217.885626 
L 395.158909 225.980576 
L 395.869091 226.215227 
L 396.579273 217.322074 
L 397.289455 227.252794 
L 397.999636 228.671191 
L 398.709818 229.17917 
L 399.42 229.835024 
L 400.130182 221.71355 
L 400.840364 216.897017 
L 401.550545 208.624306 
L 402.260727 196.41258 
L 402.970909 208.196 
L 404.391273 222.760746 
L 405.101455 220.471169 
L 405.811636 228.403843 
L 406.521818 211.715343 
L 407.232 212.522423 
L 407.942182 207.527365 
L 408.652364 215.796485 
L 409.362545 213.984447 
L 410.072727 214.933434 
L 410.782909 217.00473 
L 411.493091 209.705067 
L 412.203273 218.038374 
L 412.913455 222.821941 
L 413.623636 235.60687 
L 414.333818 236.010885 
L 415.044 241.126859 
L 415.754182 233.05422 
L 416.464364 242.701399 
L 417.174545 239.816858 
L 417.884727 245.621754 
L 418.594909 248.350093 
L 419.305091 244.836581 
L 420.015273 243.390723 
L 420.725455 254.589511 
L 421.435636 254.022871 
L 422.145818 250.979183 
L 422.856 251.914668 
L 423.566182 258.304505 
L 424.276364 253.210439 
L 424.986545 255.298892 
L 425.696727 250.735053 
L 426.406909 257.291948 
L 427.117091 261.644885 
L 427.827273 264.916002 
L 428.537455 259.110127 
L 429.247636 264.581057 
L 429.957818 265.020403 
L 430.668 254.500295 
L 431.378182 239.863198 
L 432.088364 239.516144 
L 432.798545 246.379244 
L 433.508727 251.448333 
L 434.218909 248.681446 
L 434.929091 250.210819 
L 435.639273 242.286762 
L 436.349455 238.924672 
L 437.059636 242.66648 
L 437.769818 243.709184 
L 438.48 245.034194 
L 439.190182 237.392322 
L 439.900364 235.375322 
L 440.610545 237.927435 
L 441.320727 239.082131 
L 442.030909 244.42146 
L 442.741091 252.074589 
L 443.451273 262.780888 
L 444.161455 261.053011 
L 444.871636 263.00355 
L 445.581818 260.854263 
L 446.292 266.257026 
L 447.002182 264.81674 
L 447.712364 263.907205 
L 448.422545 261.976553 
L 449.132727 270.143269 
L 449.842909 276.398905 
L 450.553091 275.242673 
L 451.263273 277.765266 
L 451.973455 276.580632 
L 452.683636 288.788532 
L 453.393818 287.252738 
L 454.104 286.46274 
L 454.814182 278.075569 
L 455.524364 288.812903 
L 456.234545 281.596868 
L 456.944727 287.765346 
L 457.654909 285.849744 
L 458.365091 281.904321 
L 459.075273 291.48732 
L 459.785455 292.412845 
L 460.495636 296.109233 
L 461.205818 297.168037 
L 461.916 315.145611 
L 463.336364 305.082418 
L 464.046545 301.321082 
L 464.756727 299.087027 
L 465.466909 294.795953 
L 466.177091 295.293643 
L 466.887273 298.581862 
L 467.597455 288.162153 
L 468.307636 292.678777 
L 469.017818 290.239688 
L 469.728 288.328757 
L 470.438182 278.486421 
L 471.148364 283.582132 
L 471.858545 282.823077 
L 472.568727 282.290636 
L 473.278909 282.160925 
L 473.989091 265.505559 
L 474.699273 274.186747 
L 475.409455 277.801284 
L 476.119636 285.566949 
L 476.829818 290.10571 
L 477.54 299.101889 
L 478.250182 299.127841 
L 478.960364 295.612315 
L 479.670545 304.364208 
L 480.380727 308.320434 
L 481.090909 308.845471 
L 481.801091 312.478328 
L 482.511273 295.743469 
L 483.221455 289.674857 
L 483.931636 294.813264 
L 484.641818 308.276869 
L 485.352 300.82833 
L 486.062182 297.599321 
L 486.772364 296.522525 
L 487.482545 298.614219 
L 488.192727 298.881273 
L 488.902909 303.228943 
L 489.613091 293.906418 
L 490.323273 298.121429 
L 491.743636 304.946163 
L 492.453818 317.207024 
L 493.164 319.278076 
L 493.874182 323.319174 
L 494.584364 309.864048 
L 495.294545 293.155427 
L 496.004727 285.103064 
L 496.714909 293.880134 
L 497.425091 293.239067 
L 498.135273 285.815009 
L 498.845455 296.256825 
L 499.555636 292.850016 
L 500.265818 299.947225 
L 500.976 298.14484 
L 501.686182 279.866346 
L 502.396364 274.459863 
L 503.106545 273.256235 
L 503.816727 292.274962 
L 504.526909 299.321921 
L 505.237091 301.610617 
L 505.947273 307.955179 
L 506.657455 312.524313 
L 507.367636 314.734444 
L 508.077818 323.684556 
L 508.788 312.15281 
L 510.208364 311.383458 
L 510.918545 318.449806 
L 511.628727 311.171843 
L 512.338909 306.511704 
L 513.049091 314.413207 
L 513.759273 314.312877 
L 514.469455 303.18688 
L 515.179636 298.931928 
L 515.889818 304.631105 
L 517.310182 323.737967 
L 518.020364 328.571176 
L 518.730545 326.603979 
L 519.440727 320.858872 
L 520.150909 332.734435 
L 520.861091 337.386424 
L 521.571273 337.091643 
L 522.281455 332.638073 
L 522.991636 338.485996 
L 523.701818 339.577897 
L 524.412 332.928997 
L 525.122182 346.701431 
L 525.832364 347.275864 
L 526.542545 346.906901 
L 527.252727 347.561262 
L 527.962909 347.153835 
L 528.673091 346.202227 
L 529.383273 346.350967 
L 530.093455 352.370917 
L 531.513818 332.756507 
L 532.224 332.811528 
L 532.934182 312.517678 
L 533.644364 316.337628 
L 534.354545 319.395043 
L 535.064727 325.550869 
L 536.485091 334.070112 
L 537.195273 331.91765 
L 537.905455 325.679975 
L 538.615636 317.040604 
L 539.325818 320.029545 
L 540.036 307.250436 
L 540.746182 299.380191 
L 541.456364 293.40693 
L 542.166545 302.268253 
L 542.876727 307.627832 
L 543.586909 298.154959 
L 544.297091 300.170099 
L 545.007273 319.315971 
L 545.717455 321.61064 
L 546.427636 308.877302 
L 547.137818 308.912659 
L 547.848 303.725859 
L 548.558182 306.935769 
L 550.688727 280.585289 
L 551.398909 287.984854 
L 552.109091 280.955518 
L 552.819273 288.707775 
L 553.529455 290.499471 
L 554.949818 281.054632 
L 555.66 282.401505 
L 556.370182 263.894942 
L 557.080364 262.728478 
L 557.790545 253.695547 
L 558.500727 252.347945 
L 559.210909 254.169598 
L 559.921091 245.440975 
L 560.631273 233.504573 
L 561.341455 234.431489 
L 562.761818 229.072637 
L 563.472 233.940804 
L 564.892364 235.754184 
L 565.602545 228.420983 
L 566.312727 226.294414 
L 567.022909 217.507111 
L 567.733091 223.791773 
L 568.443273 215.409196 
L 569.153455 213.800659 
L 569.863636 201.261555 
L 570.573818 197.751237 
L 571.284 184.625023 
L 571.994182 194.610293 
L 572.704364 194.36461 
L 573.414545 184.965581 
L 574.124727 186.252445 
L 574.834909 195.236495 
L 575.545091 185.959068 
L 576.255273 184.893983 
L 576.965455 182.381173 
L 577.675636 194.887218 
L 578.385818 181.989107 
L 579.096 184.419385 
L 579.806182 185.614918 
L 580.516364 192.803958 
L 581.226545 189.350718 
L 581.936727 190.627746 
L 582.646909 197.553673 
L 583.357091 200.665797 
L 584.067273 212.943028 
L 584.777455 209.529619 
L 585.487636 212.767506 
L 586.197818 224.768332 
L 586.908 229.165868 
L 587.618182 215.682293 
L 588.328364 208.580738 
L 589.038545 219.545964 
L 589.748727 217.108216 
L 590.458909 206.295913 
L 591.169091 210.087949 
L 591.879273 195.65229 
L 592.589455 196.898536 
L 593.299636 191.213178 
L 594.009818 202.036356 
L 594.72 214.559166 
L 595.430182 204.693838 
L 596.140364 210.755348 
L 596.850545 197.298305 
L 597.560727 186.335451 
L 598.270909 193.794116 
L 598.981091 197.923103 
L 599.691273 203.420261 
L 600.401455 211.563034 
L 601.111636 227.314755 
L 601.821818 223.185543 
L 602.532 227.038216 
L 603.242182 226.483678 
L 603.952364 228.300206 
L 604.662545 222.807374 
L 605.372727 230.703193 
L 606.082909 222.620691 
L 606.793091 227.806006 
L 607.503273 229.183054 
L 608.213455 227.178953 
L 608.923636 227.078855 
L 609.633818 238.692647 
L 610.344 236.894401 
L 611.054182 236.132102 
L 611.764364 231.334192 
L 613.184727 256.794684 
L 613.894909 266.99482 
L 614.605091 269.946953 
L 615.315273 262.470399 
L 616.025455 250.669595 
L 616.735636 242.704586 
L 617.445818 248.55089 
L 618.156 247.203463 
L 618.866182 243.472975 
L 619.576364 238.572843 
L 620.286545 242.780381 
L 620.996727 246.19162 
L 621.706909 253.995836 
L 622.417091 252.252081 
L 623.127273 252.783231 
L 623.837455 249.322204 
L 625.257818 239.719026 
L 625.968 246.911241 
L 626.678182 232.460375 
L 627.388364 225.664233 
L 628.098545 216.681904 
L 628.808727 228.243376 
L 629.518909 231.638825 
L 630.229091 231.378803 
L 630.939273 233.285869 
L 632.359636 222.586805 
L 633.069818 220.945266 
L 633.78 226.678607 
L 634.490182 226.723374 
L 635.200364 225.477278 
L 635.910545 223.289079 
L 636.620727 220.425335 
L 638.041091 231.762737 
L 638.751273 242.271465 
L 639.461455 231.397278 
L 640.171636 243.025744 
L 640.881818 235.094917 
L 641.592 241.081739 
L 642.302182 241.714827 
L 643.012364 241.736352 
L 643.722545 245.826399 
L 644.432727 249.147684 
L 645.142909 241.001855 
L 645.853091 251.762951 
L 646.563273 249.186047 
L 647.273455 241.62012 
L 647.983636 235.665607 
L 648.693818 250.776612 
L 649.404 249.367745 
L 650.114182 249.948315 
L 650.824364 255.789521 
L 651.534545 252.188999 
L 652.244727 253.060872 
L 652.954909 251.150705 
L 653.665091 245.863066 
L 654.375273 251.194902 
L 655.085455 261.429226 
L 656.505818 255.219016 
L 657.216 246.166851 
L 657.926182 244.497826 
L 658.636364 250.174143 
L 659.346545 253.20899 
L 660.056727 247.796908 
L 660.766909 256.797892 
L 661.477091 257.017696 
L 662.187273 274.210875 
L 662.897455 281.293604 
L 663.607636 295.697851 
L 664.317818 280.588446 
L 665.028 287.664661 
L 665.738182 269.650004 
L 666.448364 273.302364 
L 667.158545 273.843936 
L 667.868727 267.924297 
L 668.578909 267.527855 
L 669.289091 264.711846 
L 669.999273 269.036606 
L 670.709455 265.305459 
L 671.419636 258.405324 
L 672.84 265.987004 
L 674.260364 249.323943 
L 674.970545 244.975503 
L 675.680727 252.536989 
L 676.390909 256.10007 
L 677.101091 261.744633 
L 677.811273 263.799065 
L 678.521455 272.702196 
L 679.231636 267.753519 
L 679.941818 268.469535 
L 680.652 263.494248 
L 681.362182 257.071888 
L 682.072364 252.215426 
L 682.782545 257.199262 
L 683.492727 240.08433 
L 684.202909 235.520896 
L 684.913091 238.484483 
L 685.623273 240.539565 
L 686.333455 230.187345 
L 687.043636 240.031273 
L 687.753818 230.67108 
L 688.464 236.457338 
L 689.174182 221.268217 
L 689.884364 224.516168 
L 690.594545 216.075124 
L 692.014909 225.269639 
L 692.725091 243.460863 
L 693.435273 235.705409 
L 694.145455 232.126864 
L 694.855636 238.858976 
L 696.276 236.382865 
L 696.986182 228.482839 
L 697.696364 221.921994 
L 698.406545 229.003469 
L 699.116727 233.230948 
L 699.826909 243.292903 
L 700.537091 240.194679 
L 701.247273 233.236319 
L 701.957455 224.41214 
L 702.667636 225.79738 
L 703.377818 231.293319 
L 704.088 227.881963 
L 704.798182 242.050872 
L 705.508364 245.636111 
L 706.218545 251.185599 
L 706.928727 253.675322 
L 707.638909 250.969396 
L 708.349091 250.777433 
L 709.059273 237.169777 
L 709.769455 238.724862 
L 710.479636 236.403416 
L 711.189818 224.424506 
L 711.9 236.34898 
L 712.610182 238.730238 
L 713.320364 230.91359 
L 714.030545 217.009293 
L 714.740727 222.801854 
L 715.450909 223.222817 
L 716.161091 228.319246 
L 716.871273 211.513967 
L 717.581455 222.310969 
L 718.291636 219.085464 
L 719.001818 238.332815 
L 719.712 243.838924 
L 720.422182 255.300592 
L 721.132364 242.213 
L 721.842545 244.261792 
L 722.552727 244.217469 
L 723.262909 239.541785 
L 723.973091 236.708062 
L 724.683273 236.627324 
L 725.393455 239.232905 
L 726.103636 243.386411 
L 726.813818 236.601577 
L 727.524 243.573655 
L 728.234182 248.601375 
L 728.944364 234.071658 
L 731.074909 224.391191 
L 731.785091 219.579817 
L 733.205455 200.651112 
L 733.915636 191.733455 
L 734.625818 191.593862 
L 735.336 188.219213 
L 736.046182 184.30281 
L 736.756364 186.712193 
L 737.466545 190.724302 
L 738.176727 182.719601 
L 739.597091 177.794283 
L 740.307273 173.174777 
L 741.017455 171.632249 
L 741.727636 169.343205 
L 742.437818 163.645346 
L 743.148 173.982589 
L 743.858182 168.337657 
L 744.568364 163.838327 
L 745.278545 154.067705 
L 745.988727 168.08167 
L 746.698909 169.294365 
L 747.409091 171.837722 
L 748.119273 188.252487 
L 748.829455 192.434827 
L 749.539636 186.626582 
L 750.249818 170.304518 
L 750.96 164.981058 
L 751.670182 171.850071 
L 752.380364 172.33315 
L 753.090545 168.596985 
L 753.800727 181.302405 
L 754.510909 175.279102 
L 755.221091 173.227134 
L 755.931273 171.687348 
L 756.641455 167.784701 
L 757.351636 160.719975 
L 758.061818 163.549239 
L 758.772 164.891258 
L 759.482182 161.327354 
L 760.192364 170.764337 
L 761.612727 180.225538 
L 762.322909 183.007752 
L 763.033091 182.754313 
L 763.743273 177.973088 
L 764.453455 174.531583 
L 765.163636 178.618813 
L 765.873818 193.349244 
L 766.584 192.26799 
L 767.294182 199.41278 
L 768.004364 200.186849 
L 768.714545 193.264556 
L 769.424727 191.348091 
L 770.134909 202.544233 
L 770.845091 222.249949 
L 771.555273 222.685529 
L 772.265455 207.40077 
L 772.975636 207.135977 
L 773.685818 211.266416 
L 774.396 202.229984 
L 775.106182 197.561966 
L 775.816364 198.761988 
L 776.526545 193.33107 
L 777.236727 204.79247 
L 777.946909 208.811802 
L 778.657091 203.856243 
L 779.367273 202.634237 
L 780.077455 202.452814 
L 780.787636 201.230663 
L 781.497818 203.666006 
L 782.208 212.980825 
L 782.918182 219.06715 
L 783.628364 227.310074 
L 784.338545 224.695884 
L 785.048727 230.888932 
L 785.758909 234.202489 
L 786.469091 235.738911 
L 787.179273 231.764323 
L 788.599636 216.752372 
L 789.309818 219.382217 
L 790.02 217.78565 
L 790.730182 221.18354 
L 791.440364 220.630306 
L 792.150545 224.234451 
L 792.860727 228.760592 
L 794.281091 219.405853 
L 794.991273 210.824775 
L 795.701455 206.648617 
L 796.411636 190.978412 
L 797.121818 191.658826 
L 797.832 191.341606 
L 798.542182 192.325693 
L 799.252364 175.878409 
L 800.672727 152.328436 
L 801.382909 159.954648 
L 802.803273 143.833686 
L 803.513455 148.841768 
L 804.223636 164.455504 
L 804.933818 156.200916 
L 805.644 150.692 
L 806.354182 149.129061 
L 807.064364 157.877076 
L 807.774545 163.160503 
L 808.484727 177.936689 
L 809.194909 183.499831 
L 809.905091 180.472993 
L 810.615273 194.655073 
L 811.325455 184.765269 
L 812.035636 176.459856 
L 813.456 157.487459 
L 814.166182 151.292336 
L 814.876364 149.554799 
L 815.586545 145.370142 
L 816.296727 145.030412 
L 817.006909 153.392158 
L 817.717091 155.102322 
L 818.427273 148.429138 
L 819.137455 155.888782 
L 819.847636 160.704958 
L 820.557818 154.037053 
L 821.268 149.975475 
L 821.978182 134.701392 
L 822.688364 135.477457 
L 823.398545 137.27896 
L 824.108727 128.582333 
L 824.818909 133.030599 
L 825.529091 127.371218 
L 826.239273 119.119337 
L 826.949455 125.349786 
L 827.659636 124.194682 
L 828.369818 116.540303 
L 829.08 114.195792 
L 829.790182 112.316775 
L 830.500364 116.698617 
L 831.920727 129.925138 
L 832.630909 133.372522 
L 833.341091 130.425278 
L 834.051273 128.734658 
L 834.761455 128.304055 
L 835.471636 134.975849 
L 836.181818 138.847466 
L 836.892 136.156703 
L 837.602182 140.038039 
L 838.312364 142.455393 
L 839.022545 151.915994 
L 839.732727 153.392302 
L 840.442909 156.985172 
L 841.153091 151.076904 
L 841.863273 147.688483 
L 842.573455 141.925577 
L 843.283636 155.349717 
L 844.704 143.112888 
L 845.414182 135.190168 
L 846.124364 136.83739 
L 846.834545 128.4013 
L 847.544727 130.91009 
L 848.254909 120.191636 
L 848.965091 111.732221 
L 849.675273 100.535617 
L 850.385455 95.71641 
L 851.095636 111.863854 
L 851.805818 120.425948 
L 852.516 111.531217 
L 853.226182 113.440743 
L 853.936364 100.889867 
L 854.646545 104.5678 
L 855.356727 100.358654 
L 856.066909 89.227657 
L 856.777091 83.97421 
L 857.487273 93.505675 
L 858.197455 89.29166 
L 858.907636 90.659677 
L 859.617818 69.187122 
L 860.328 71.948389 
L 861.038182 66.96 
L 861.748364 76.168308 
L 862.458545 75.10837 
L 863.168727 75.396622 
L 863.878909 74.430049 
L 864.589091 77.674371 
L 865.299273 72.032176 
L 866.009455 72.359765 
L 866.719636 83.009781 
L 867.429818 76.849011 
L 868.14 74.214785 
L 868.850182 88.397251 
L 869.560364 91.480103 
L 870.270545 107.52823 
L 870.980727 102.277697 
L 871.690909 101.33244 
L 871.690909 101.33244 
" clip-path="url(#p3ede1d2fa3)" style="fill: none; stroke: #ff7f0e; stroke-width: 1.5; stroke-linecap: square"/>
   </g>
   <g id="line2d_18">
    <path d="M 162.219273 369.36 
L 162.929455 368.665403 
L 163.639636 368.555158 
L 164.349818 368.592879 
L 165.06 368.349339 
L 165.770182 367.809253 
L 170.741455 367.527495 
L 171.451636 367.368608 
L 172.872 367.295971 
L 173.582182 366.59015 
L 174.292364 366.761378 
L 175.712727 366.699412 
L 176.422909 366.494846 
L 177.133091 366.559826 
L 177.843273 366.430081 
L 178.553455 366.420841 
L 179.973818 365.53605 
L 182.104364 365.071703 
L 183.524727 364.9702 
L 184.234909 363.849657 
L 184.945091 363.845607 
L 187.075636 363.059217 
L 187.785818 363.049157 
L 189.206182 362.888347 
L 191.336727 362.792173 
L 192.046909 362.24704 
L 192.757091 361.886005 
L 193.467273 361.83531 
L 194.177455 361.27845 
L 194.887636 361.043521 
L 197.728364 360.784261 
L 198.438545 360.507836 
L 202.699636 360.315515 
L 203.409818 359.969319 
L 207.670909 359.959308 
L 209.091273 359.871093 
L 209.801455 359.59515 
L 210.511636 358.810356 
L 211.221818 358.657544 
L 213.352364 358.739925 
L 214.062545 358.637464 
L 214.772727 358.291407 
L 216.193091 358.039979 
L 216.903273 357.708745 
L 218.323636 357.692617 
L 221.874545 357.273567 
L 225.425455 357.239724 
L 226.135636 356.629387 
L 227.556 356.526625 
L 228.266182 356.165209 
L 228.976364 356.211686 
L 229.686545 355.534693 
L 230.396727 355.067738 
L 231.817091 355.056374 
L 232.527273 354.485701 
L 233.237455 354.30689 
L 233.947636 354.250822 
L 234.657818 354.452551 
L 235.368 354.210937 
L 236.788364 354.100854 
L 239.629091 353.985059 
L 241.759636 353.956234 
L 242.469818 354.012144 
L 243.18 353.887479 
L 243.890182 353.475242 
L 244.600364 351.443178 
L 245.310545 351.050219 
L 246.020727 350.957077 
L 247.441091 350.898823 
L 248.861455 350.78118 
L 249.571636 349.958387 
L 250.992 350.041649 
L 251.702182 349.925941 
L 253.832727 349.847495 
L 254.542909 349.569101 
L 255.963273 349.494401 
L 256.673455 348.968056 
L 258.093818 348.534819 
L 258.804 348.104412 
L 260.224364 348.114051 
L 261.644727 347.831851 
L 262.354909 346.957704 
L 263.065091 346.994467 
L 264.485455 346.447928 
L 265.195636 345.940695 
L 265.905818 345.906631 
L 266.616 345.572099 
L 268.036364 345.446261 
L 268.746545 345.18748 
L 269.456727 345.2962 
L 272.297455 344.639438 
L 273.717818 344.472991 
L 274.428 343.974178 
L 275.848364 343.968336 
L 276.558545 343.02987 
L 277.268727 342.423587 
L 278.689091 342.400293 
L 279.399273 341.290272 
L 280.109455 341.424893 
L 282.24 341.363167 
L 282.950182 340.861998 
L 283.660364 340.815167 
L 284.370545 339.719737 
L 285.790909 339.71566 
L 286.501091 339.407054 
L 288.631636 339.407208 
L 289.341818 339.176166 
L 290.052 339.166858 
L 290.762182 339.025006 
L 292.182545 339.027043 
L 292.892727 337.053723 
L 295.023273 337.007997 
L 295.733455 336.53086 
L 298.574182 336.540528 
L 299.284364 336.570436 
L 302.835273 335.357154 
L 303.545455 335.355291 
L 304.255636 335.114409 
L 304.965818 335.118862 
L 306.386182 335.002543 
L 307.806545 334.918883 
L 308.516727 334.704411 
L 309.937091 334.60009 
L 310.647273 334.655197 
L 312.067636 334.610025 
L 312.777818 334.751253 
L 313.488 334.585212 
L 314.908364 333.435821 
L 316.328727 333.331242 
L 317.038909 332.946529 
L 317.749091 332.733534 
L 318.459273 332.656897 
L 320.589818 332.75157 
L 322.720364 332.646334 
L 323.430545 332.1996 
L 325.561091 332.266515 
L 326.271273 330.41806 
L 328.401818 330.466441 
L 329.112 330.207114 
L 330.532364 329.908834 
L 331.242545 329.662072 
L 331.952727 328.662094 
L 332.662909 328.285721 
L 333.373091 328.103451 
L 334.083273 328.121889 
L 335.503636 327.751656 
L 337.634182 327.778324 
L 338.344364 327.474878 
L 339.054545 327.672868 
L 339.764727 327.488907 
L 340.474909 327.109163 
L 341.185091 326.880571 
L 341.895273 326.790451 
L 343.315636 325.423079 
L 344.025818 325.428212 
L 344.736 325.293172 
L 346.866545 324.592447 
L 350.417455 323.910994 
L 352.548 322.506442 
L 353.968364 322.42896 
L 355.388727 322.172451 
L 356.098909 321.59611 
L 357.519273 321.534981 
L 358.229455 321.310397 
L 359.649818 321.275173 
L 363.200727 321.023395 
L 364.621091 320.689135 
L 370.302545 320.727429 
L 371.012727 320.465473 
L 371.722909 320.474785 
L 373.853455 320.117475 
L 374.563636 320.130742 
L 375.273818 319.736369 
L 375.984 319.851956 
L 376.694182 319.839249 
L 377.404364 319.669259 
L 378.824727 319.583687 
L 379.534909 319.122325 
L 384.506182 318.827285 
L 385.216364 317.962402 
L 388.767273 317.828253 
L 390.187636 317.654573 
L 390.897818 317.664186 
L 391.608 317.365312 
L 393.028364 317.249842 
L 393.738545 316.823879 
L 394.448727 316.855447 
L 395.158909 316.74125 
L 399.42 316.741795 
L 400.130182 316.373785 
L 400.840364 316.150851 
L 404.391273 314.330426 
L 405.101455 314.266369 
L 405.811636 314.565851 
L 406.521818 313.544957 
L 407.232 313.567971 
L 408.652364 313.129604 
L 411.493091 313.02553 
L 412.203273 312.525057 
L 412.913455 312.32278 
L 413.623636 311.882333 
L 414.333818 311.900337 
L 415.044 311.720728 
L 416.464364 310.921676 
L 417.174545 310.882771 
L 417.884727 310.520479 
L 419.305091 310.561921 
L 420.015273 310.54084 
L 420.725455 310.049962 
L 422.856 310.04715 
L 423.566182 309.686894 
L 425.696727 309.655762 
L 426.406909 309.355164 
L 427.827273 309.096911 
L 429.957818 309.09619 
L 431.378182 307.721986 
L 432.088364 307.733057 
L 433.508727 307.294542 
L 434.929091 307.360091 
L 436.349455 307.296863 
L 437.059636 307.106208 
L 439.190182 307.245542 
L 441.320727 307.334223 
L 442.030909 307.035323 
L 442.741091 307.108661 
L 443.451273 306.358113 
L 444.161455 306.388731 
L 445.581818 306.295606 
L 447.002182 306.414672 
L 448.422545 306.439015 
L 449.132727 306.777403 
L 451.973455 306.506019 
L 452.683636 305.977942 
L 454.104 305.944418 
L 454.814182 306.039857 
L 455.524364 305.909619 
L 456.234545 306.046578 
L 456.944727 305.889932 
L 459.785455 305.772544 
L 461.205818 305.630076 
L 461.916 305.065155 
L 462.626182 305.086933 
L 464.046545 304.908088 
L 466.887273 304.871446 
L 467.597455 304.628317 
L 469.017818 304.701892 
L 469.728 304.636374 
L 470.438182 303.792451 
L 473.278909 303.785021 
L 473.989091 303.077555 
L 474.699273 302.720105 
L 475.409455 302.724173 
L 476.119636 302.85303 
L 477.54 302.508627 
L 481.801091 302.528614 
L 482.511273 301.902474 
L 483.221455 302.019047 
L 486.062182 301.59457 
L 488.192727 301.564806 
L 488.902909 301.455332 
L 489.613091 301.556707 
L 490.323273 301.428761 
L 491.033455 301.49228 
L 491.743636 301.358445 
L 492.453818 301.048798 
L 493.874182 301.049509 
L 494.584364 300.262458 
L 495.294545 300.390861 
L 497.425091 300.171809 
L 498.845455 299.51745 
L 500.976 299.291808 
L 501.686182 298.341604 
L 503.106545 298.337012 
L 503.816727 297.615672 
L 505.947273 297.446977 
L 507.367636 297.312267 
L 508.077818 296.771013 
L 508.788 296.419907 
L 510.208364 296.422723 
L 511.628727 295.741812 
L 513.049091 295.262763 
L 513.759273 295.261011 
L 514.469455 294.938765 
L 515.179636 294.970233 
L 515.889818 294.83607 
L 516.6 294.385329 
L 518.020364 294.161679 
L 519.440727 294.166232 
L 520.150909 293.621904 
L 520.861091 293.479331 
L 521.571273 293.484227 
L 522.281455 293.281843 
L 523.701818 293.188478 
L 524.412 293.221509 
L 525.122182 292.718836 
L 530.093455 292.872817 
L 530.803636 292.145498 
L 532.224 292.064739 
L 532.934182 290.880697 
L 534.354545 290.815227 
L 535.064727 290.682545 
L 535.774909 290.797294 
L 537.195273 290.726578 
L 537.905455 290.501785 
L 538.615636 290.041877 
L 539.325818 289.949051 
L 540.746182 289.369916 
L 541.456364 289.468121 
L 542.166545 289.14393 
L 542.876727 289.102095 
L 543.586909 288.801163 
L 544.297091 288.838853 
L 545.007273 287.58649 
L 545.717455 287.478917 
L 546.427636 286.652308 
L 548.558182 286.552069 
L 549.268364 286.016926 
L 550.688727 285.657137 
L 551.398909 285.598245 
L 552.819273 284.963239 
L 554.949818 285.133019 
L 555.66 285.132841 
L 556.370182 284.029288 
L 564.892364 283.579065 
L 565.602545 283.165118 
L 566.312727 283.15679 
L 568.443273 282.233184 
L 569.153455 282.265175 
L 569.863636 282.056165 
L 570.573818 281.965236 
L 571.284 281.625662 
L 571.994182 281.14335 
L 572.704364 281.141625 
L 573.414545 280.863503 
L 574.834909 280.951311 
L 575.545091 280.467411 
L 576.255273 280.499759 
L 576.965455 280.376123 
L 577.675636 279.61709 
L 578.385818 279.350846 
L 579.806182 279.347698 
L 580.516364 279.059714 
L 581.936727 279.007121 
L 582.646909 278.762919 
L 583.357091 278.793197 
L 584.067273 277.868531 
L 585.487636 277.703708 
L 586.197818 277.137625 
L 586.908 276.972488 
L 587.618182 275.968779 
L 588.328364 275.946523 
L 589.038545 275.041452 
L 589.748727 275.006844 
L 590.458909 274.556838 
L 591.169091 274.681016 
L 591.879273 274.216038 
L 592.589455 274.241606 
L 594.009818 273.980553 
L 594.72 272.920801 
L 595.430182 273.030193 
L 596.140364 272.677088 
L 596.850545 272.144897 
L 598.270909 271.772157 
L 598.981091 271.69039 
L 599.691273 271.745553 
L 600.401455 271.4967 
L 601.111636 270.93987 
L 602.532 270.632709 
L 604.662545 270.632992 
L 606.082909 270.048481 
L 608.923636 270.069325 
L 609.633818 269.498382 
L 611.764364 269.499233 
L 612.474545 269.104668 
L 616.025455 268.611031 
L 616.735636 268.555428 
L 617.445818 268.374624 
L 618.156 268.323137 
L 618.866182 268.114792 
L 620.286545 268.119962 
L 620.996727 268.055206 
L 621.706909 267.766788 
L 623.837455 267.838397 
L 625.257818 267.59039 
L 625.968 267.353126 
L 626.678182 266.636258 
L 627.388364 266.627858 
L 628.098545 266.438634 
L 628.808727 265.918132 
L 630.229091 266.028553 
L 630.939273 266.030579 
L 631.649455 266.187794 
L 633.069818 266.206357 
L 633.78 265.98748 
L 635.200364 265.957849 
L 638.041091 265.570451 
L 638.751273 265.093925 
L 639.461455 264.836014 
L 640.171636 264.360387 
L 641.592 263.841322 
L 644.432727 263.776751 
L 645.142909 263.385891 
L 645.853091 263.163681 
L 647.983636 262.818823 
L 648.693818 261.970767 
L 652.954909 261.729942 
L 653.665091 261.511324 
L 654.375273 261.478353 
L 655.085455 261.265603 
L 656.505818 261.210108 
L 657.216 260.964395 
L 657.926182 260.965863 
L 658.636364 260.758926 
L 659.346545 260.756007 
L 660.766909 260.037284 
L 661.477091 260.042149 
L 662.187273 259.281338 
L 662.897455 259.226355 
L 663.607636 258.114512 
L 664.317818 256.739455 
L 665.028 256.62051 
L 665.738182 255.389426 
L 667.158545 255.387827 
L 667.868727 255.142917 
L 669.289091 255.126737 
L 670.709455 254.973317 
L 671.419636 254.616361 
L 672.84 254.714076 
L 673.550182 254.588766 
L 674.260364 254.253246 
L 676.390909 254.271469 
L 677.101091 253.946853 
L 679.941818 253.559564 
L 682.782545 253.260266 
L 683.492727 251.967433 
L 684.913091 251.787571 
L 685.623273 251.752593 
L 686.333455 251.525052 
L 687.043636 251.537185 
L 687.753818 251.269373 
L 688.464 251.400725 
L 689.174182 250.495258 
L 689.884364 250.567016 
L 691.304727 250.357668 
L 692.014909 250.315828 
L 692.725091 248.675117 
L 693.435273 248.204856 
L 694.145455 248.257545 
L 695.565818 248.129702 
L 696.276 248.155161 
L 699.116727 246.91645 
L 703.377818 246.008915 
L 704.088 246.089119 
L 704.798182 245.335113 
L 705.508364 245.234793 
L 706.218545 244.979372 
L 706.928727 245.008161 
L 708.349091 244.915586 
L 709.059273 243.934034 
L 710.479636 243.812403 
L 711.189818 243.328762 
L 711.9 242.684335 
L 713.320364 242.64875 
L 714.030545 241.923283 
L 716.161091 241.605934 
L 716.871273 240.728758 
L 717.581455 240.456481 
L 718.291636 240.534158 
L 719.001818 239.263902 
L 719.712 239.299431 
L 720.422182 239.107233 
L 721.132364 238.421017 
L 722.552727 238.397724 
L 723.262909 238.147825 
L 724.683273 238.179014 
L 725.393455 238.067042 
L 726.103636 238.111058 
L 726.813818 237.938779 
L 727.524 237.570625 
L 728.234182 237.417681 
L 728.944364 235.961871 
L 730.364727 235.825551 
L 731.074909 235.929938 
L 731.785091 235.859287 
L 733.915636 234.419876 
L 735.336 234.355324 
L 737.466545 234.010458 
L 738.176727 233.537086 
L 739.597091 233.530054 
L 740.307273 233.404626 
L 741.727636 233.407023 
L 742.437818 233.338857 
L 743.148 232.796444 
L 744.568364 232.683117 
L 745.278545 232.420274 
L 745.988727 231.684557 
L 747.409091 231.799091 
L 748.119273 231.407906 
L 749.539636 231.36973 
L 750.249818 230.82473 
L 752.380364 230.653379 
L 753.090545 230.538645 
L 753.800727 229.814694 
L 754.510909 229.408996 
L 755.931273 229.328021 
L 756.641455 229.336433 
L 757.351636 229.537021 
L 759.482182 229.462712 
L 760.192364 229.145082 
L 762.322909 229.329852 
L 763.743273 229.246604 
L 764.453455 229.1012 
L 765.163636 229.099104 
L 765.873818 228.569161 
L 766.584 228.579872 
L 768.004364 228.724733 
L 769.424727 228.481757 
L 770.134909 228.049578 
L 770.845091 227.330229 
L 771.555273 227.334581 
L 772.265455 226.154934 
L 773.685818 226.234301 
L 774.396 225.807891 
L 775.816364 225.801666 
L 776.526545 225.539532 
L 777.236727 224.988568 
L 777.946909 224.972826 
L 778.657091 225.203132 
L 781.497818 225.137874 
L 782.208 224.503715 
L 782.918182 224.54029 
L 783.628364 224.224684 
L 785.048727 224.336114 
L 787.179273 223.953851 
L 788.599636 223.726307 
L 794.281091 223.677866 
L 794.991273 223.25468 
L 795.701455 223.246733 
L 796.411636 222.39572 
L 798.542182 222.37416 
L 799.252364 221.217158 
L 799.962545 220.770251 
L 801.382909 219.591421 
L 802.093091 219.300607 
L 802.803273 219.444386 
L 803.513455 219.292382 
L 804.223636 218.029943 
L 806.354182 217.592271 
L 807.064364 217.683168 
L 807.774545 217.475791 
L 808.484727 216.492158 
L 809.905091 216.306841 
L 810.615273 215.506382 
L 811.325455 215.215059 
L 812.035636 215.092344 
L 812.745818 214.804107 
L 813.456 214.112534 
L 814.876364 214.156362 
L 815.586545 213.905195 
L 818.427273 213.811693 
L 821.268 213.280173 
L 821.978182 212.499742 
L 823.398545 212.485849 
L 824.108727 212.252644 
L 824.818909 212.347864 
L 825.529091 212.292465 
L 826.949455 211.673556 
L 827.659636 211.715174 
L 829.08 211.649498 
L 831.210545 211.558285 
L 831.920727 211.28694 
L 832.630909 211.198808 
L 834.761455 211.269014 
L 835.471636 210.91767 
L 837.602182 210.723196 
L 838.312364 210.728879 
L 839.022545 210.240974 
L 841.153091 210.301495 
L 842.573455 209.788421 
L 843.283636 208.915757 
L 843.993818 208.66657 
L 844.704 208.649376 
L 845.414182 208.361326 
L 846.124364 208.350672 
L 846.834545 208.064668 
L 847.544727 208.087924 
L 848.254909 208.292913 
L 850.385455 208.288382 
L 851.095636 207.709602 
L 851.805818 207.486793 
L 855.356727 207.27636 
L 856.066909 206.813412 
L 858.907636 206.815104 
L 859.617818 205.505852 
L 861.038182 205.437764 
L 861.748364 204.958762 
L 865.299273 204.984534 
L 866.009455 204.975941 
L 866.719636 204.666137 
L 868.14 204.515241 
L 868.850182 203.791396 
L 869.560364 203.837371 
L 871.690909 203.570854 
L 871.690909 203.570854 
" clip-path="url(#p3ede1d2fa3)" style="fill: none; stroke: #2ca02c; stroke-width: 1.5; stroke-linecap: square"/>
   </g>
   <g id="patch_3">
    <path d="M 126 384.48 
L 126 51.84 
" style="fill: none; stroke: #000000; stroke-width: 0.8; stroke-linejoin: miter; stroke-linecap: square"/>
   </g>
   <g id="patch_4">
    <path d="M 907.2 384.48 
L 907.2 51.84 
" style="fill: none; stroke: #000000; stroke-width: 0.8; stroke-linejoin: miter; stroke-linecap: square"/>
   </g>
   <g id="patch_5">
    <path d="M 126 384.48 
L 907.2 384.48 
" style="fill: none; stroke: #000000; stroke-width: 0.8; stroke-linejoin: miter; stroke-linecap: square"/>
   </g>
   <g id="patch_6">
    <path d="M 126 51.84 
L 907.2 51.84 
" style="fill: none; stroke: #000000; stroke-width: 0.8; stroke-linejoin: miter; stroke-linecap: square"/>
   </g>
   <g id="text_18">
    <!-- Quadratic Covariation of $X_t$ and $S_t$ -->
    <g transform="translate(414.54 45.84)scale(0.12 -0.12)">
     <defs>
      <path id="DejaVuSans-66" d="M 2375 4863 
L 2375 4384 
L 1825 4384 
Q 1516 4384 1395 4259 
Q 1275 4134 1275 3809 
L 1275 3500 
L 2222 3500 
L 2222 3053 
L 1275 3053 
L 1275 0 
L 697 0 
L 697 3053 
L 147 3053 
L 147 3500 
L 697 3500 
L 697 3744 
Q 697 4328 969 4595 
Q 1241 4863 1831 4863 
L 2375 4863 
z
" transform="scale(0.015625)"/>
      <path id="DejaVuSans-Oblique-58" d="M 878 4666 
L 1516 4666 
L 2316 2981 
L 3763 4666 
L 4500 4666 
L 2578 2438 
L 3738 0 
L 3103 0 
L 2163 1966 
L 459 0 
L -275 0 
L 1906 2509 
L 878 4666 
z
" transform="scale(0.015625)"/>
      <path id="DejaVuSans-Oblique-74" d="M 2706 3500 
L 2619 3053 
L 1472 3053 
L 1100 1153 
Q 1081 1047 1072 975 
Q 1063 903 1063 863 
Q 1063 663 1183 572 
Q 1303 481 1569 481 
L 2150 481 
L 2053 0 
L 1503 0 
Q 991 0 739 200 
Q 488 400 488 806 
Q 488 878 497 964 
Q 506 1050 525 1153 
L 897 3053 
L 409 3053 
L 500 3500 
L 978 3500 
L 1172 4494 
L 1747 4494 
L 1556 3500 
L 2706 3500 
z
" transform="scale(0.015625)"/>
      <path id="DejaVuSans-Oblique-53" d="M 3859 4513 
L 3738 3897 
Q 3422 4066 3111 4152 
Q 2800 4238 2509 4238 
Q 1944 4238 1609 3991 
Q 1275 3744 1275 3334 
Q 1275 3109 1398 2989 
Q 1522 2869 2034 2731 
L 2413 2638 
Q 3053 2472 3303 2217 
Q 3553 1963 3553 1503 
Q 3553 797 2998 353 
Q 2444 -91 1538 -91 
Q 1166 -91 791 -17 
Q 416 56 38 206 
L 166 856 
Q 513 641 861 531 
Q 1209 422 1556 422 
Q 2147 422 2503 684 
Q 2859 947 2859 1369 
Q 2859 1650 2717 1795 
Q 2575 1941 2106 2059 
L 1728 2156 
Q 1081 2325 845 2545 
Q 609 2766 609 3163 
Q 609 3859 1145 4304 
Q 1681 4750 2541 4750 
Q 2875 4750 3203 4690 
Q 3531 4631 3859 4513 
z
" transform="scale(0.015625)"/>
     </defs>
     <use xlink:href="#DejaVuSans-51" transform="translate(0 0.015625)"/>
     <use xlink:href="#DejaVuSans-75" transform="translate(78.710938 0.015625)"/>
     <use xlink:href="#DejaVuSans-61" transform="translate(142.089844 0.015625)"/>
     <use xlink:href="#DejaVuSans-64" transform="translate(203.369141 0.015625)"/>
     <use xlink:href="#DejaVuSans-72" transform="translate(266.845703 0.015625)"/>
     <use xlink:href="#DejaVuSans-61" transform="translate(307.958984 0.015625)"/>
     <use xlink:href="#DejaVuSans-74" transform="translate(369.238281 0.015625)"/>
     <use xlink:href="#DejaVuSans-69" transform="translate(408.447266 0.015625)"/>
     <use xlink:href="#DejaVuSans-63" transform="translate(436.230469 0.015625)"/>
     <use xlink:href="#DejaVuSans-20" transform="translate(491.210938 0.015625)"/>
     <use xlink:href="#DejaVuSans-43" transform="translate(522.998047 0.015625)"/>
     <use xlink:href="#DejaVuSans-6f" transform="translate(592.822266 0.015625)"/>
     <use xlink:href="#DejaVuSans-76" transform="translate(654.003906 0.015625)"/>
     <use xlink:href="#DejaVuSans-61" transform="translate(713.183594 0.015625)"/>
     <use xlink:href="#DejaVuSans-72" transform="translate(774.462891 0.015625)"/>
     <use xlink:href="#DejaVuSans-69" transform="translate(815.576172 0.015625)"/>
     <use xlink:href="#DejaVuSans-61" transform="translate(843.359375 0.015625)"/>
     <use xlink:href="#DejaVuSans-74" transform="translate(904.638672 0.015625)"/>
     <use xlink:href="#DejaVuSans-69" transform="translate(943.847656 0.015625)"/>
     <use xlink:href="#DejaVuSans-6f" transform="translate(971.630859 0.015625)"/>
     <use xlink:href="#DejaVuSans-6e" transform="translate(1032.8125 0.015625)"/>
     <use xlink:href="#DejaVuSans-20" transform="translate(1096.191406 0.015625)"/>
     <use xlink:href="#DejaVuSans-6f" transform="translate(1127.978516 0.015625)"/>
     <use xlink:href="#DejaVuSans-66" transform="translate(1189.160156 0.015625)"/>
     <use xlink:href="#DejaVuSans-20" transform="translate(1224.365234 0.015625)"/>
     <use xlink:href="#DejaVuSans-Oblique-58" transform="translate(1256.152344 0.015625)"/>
     <use xlink:href="#DejaVuSans-Oblique-74" transform="translate(1324.658203 -16.390625)scale(0.7)"/>
     <use xlink:href="#DejaVuSans-20" transform="translate(1354.838867 0.015625)"/>
     <use xlink:href="#DejaVuSans-61" transform="translate(1386.625977 0.015625)"/>
     <use xlink:href="#DejaVuSans-6e" transform="translate(1447.905273 0.015625)"/>
     <use xlink:href="#DejaVuSans-64" transform="translate(1511.28418 0.015625)"/>
     <use xlink:href="#DejaVuSans-20" transform="translate(1574.760742 0.015625)"/>
     <use xlink:href="#DejaVuSans-Oblique-53" transform="translate(1606.547852 0.015625)"/>
     <use xlink:href="#DejaVuSans-Oblique-74" transform="translate(1670.024414 -16.390625)scale(0.7)"/>
    </g>
   </g>
   <g id="legend_1">
    <g id="patch_7">
     <path d="M 133 103.874375 
L 335.1 103.874375 
Q 337.1 103.874375 337.1 101.874375 
L 337.1 58.84 
Q 337.1 56.84 335.1 56.84 
L 133 56.84 
Q 131 56.84 131 58.84 
L 131 101.874375 
Q 131 103.874375 133 103.874375 
z
" style="fill: #ffffff; opacity: 0.8; stroke: #cccccc; stroke-linejoin: miter"/>
    </g>
    <g id="line2d_19">
     <path d="M 135 64.938437 
L 145 64.938437 
L 155 64.938437 
" style="fill: none; stroke: #1f77b4; stroke-width: 1.5; stroke-linecap: square"/>
    </g>
    <g id="text_19">
     <!-- $X_t$ -->
     <g transform="translate(163 68.438437)scale(0.1 -0.1)">
      <use xlink:href="#DejaVuSans-Oblique-58" transform="translate(0 0.09375)"/>
      <use xlink:href="#DejaVuSans-Oblique-74" transform="translate(68.505859 -16.3125)scale(0.7)"/>
     </g>
    </g>
    <g id="line2d_20">
     <path d="M 135 79.616562 
L 145 79.616562 
L 155 79.616562 
" style="fill: none; stroke: #ff7f0e; stroke-width: 1.5; stroke-linecap: square"/>
    </g>
    <g id="text_20">
     <!-- $S_t$ -->
     <g transform="translate(163 83.116562)scale(0.1 -0.1)">
      <use xlink:href="#DejaVuSans-Oblique-53" transform="translate(0 0.78125)"/>
      <use xlink:href="#DejaVuSans-Oblique-74" transform="translate(63.476562 -15.625)scale(0.7)"/>
     </g>
    </g>
    <g id="line2d_21">
     <path d="M 135 94.294687 
L 145 94.294687 
L 155 94.294687 
" style="fill: none; stroke: #2ca02c; stroke-width: 1.5; stroke-linecap: square"/>
    </g>
    <g id="text_21">
     <!-- Quadratic Covariation of $X_t$ and $S_t$ -->
     <g transform="translate(163 97.794687)scale(0.1 -0.1)">
      <use xlink:href="#DejaVuSans-51" transform="translate(0 0.015625)"/>
      <use xlink:href="#DejaVuSans-75" transform="translate(78.710938 0.015625)"/>
      <use xlink:href="#DejaVuSans-61" transform="translate(142.089844 0.015625)"/>
      <use xlink:href="#DejaVuSans-64" transform="translate(203.369141 0.015625)"/>
      <use xlink:href="#DejaVuSans-72" transform="translate(266.845703 0.015625)"/>
      <use xlink:href="#DejaVuSans-61" transform="translate(307.958984 0.015625)"/>
      <use xlink:href="#DejaVuSans-74" transform="translate(369.238281 0.015625)"/>
      <use xlink:href="#DejaVuSans-69" transform="translate(408.447266 0.015625)"/>
      <use xlink:href="#DejaVuSans-63" transform="translate(436.230469 0.015625)"/>
      <use xlink:href="#DejaVuSans-20" transform="translate(491.210938 0.015625)"/>
      <use xlink:href="#DejaVuSans-43" transform="translate(522.998047 0.015625)"/>
      <use xlink:href="#DejaVuSans-6f" transform="translate(592.822266 0.015625)"/>
      <use xlink:href="#DejaVuSans-76" transform="translate(654.003906 0.015625)"/>
      <use xlink:href="#DejaVuSans-61" transform="translate(713.183594 0.015625)"/>
      <use xlink:href="#DejaVuSans-72" transform="translate(774.462891 0.015625)"/>
      <use xlink:href="#DejaVuSans-69" transform="translate(815.576172 0.015625)"/>
      <use xlink:href="#DejaVuSans-61" transform="translate(843.359375 0.015625)"/>
      <use xlink:href="#DejaVuSans-74" transform="translate(904.638672 0.015625)"/>
      <use xlink:href="#DejaVuSans-69" transform="translate(943.847656 0.015625)"/>
      <use xlink:href="#DejaVuSans-6f" transform="translate(971.630859 0.015625)"/>
      <use xlink:href="#DejaVuSans-6e" transform="translate(1032.8125 0.015625)"/>
      <use xlink:href="#DejaVuSans-20" transform="translate(1096.191406 0.015625)"/>
      <use xlink:href="#DejaVuSans-6f" transform="translate(1127.978516 0.015625)"/>
      <use xlink:href="#DejaVuSans-66" transform="translate(1189.160156 0.015625)"/>
      <use xlink:href="#DejaVuSans-20" transform="translate(1224.365234 0.015625)"/>
      <use xlink:href="#DejaVuSans-Oblique-58" transform="translate(1256.152344 0.015625)"/>
      <use xlink:href="#DejaVuSans-Oblique-74" transform="translate(1324.658203 -16.390625)scale(0.7)"/>
      <use xlink:href="#DejaVuSans-20" transform="translate(1354.838867 0.015625)"/>
      <use xlink:href="#DejaVuSans-61" transform="translate(1386.625977 0.015625)"/>
      <use xlink:href="#DejaVuSans-6e" transform="translate(1447.905273 0.015625)"/>
      <use xlink:href="#DejaVuSans-64" transform="translate(1511.28418 0.015625)"/>
      <use xlink:href="#DejaVuSans-20" transform="translate(1574.760742 0.015625)"/>
      <use xlink:href="#DejaVuSans-Oblique-53" transform="translate(1606.547852 0.015625)"/>
      <use xlink:href="#DejaVuSans-Oblique-74" transform="translate(1670.024414 -16.390625)scale(0.7)"/>
     </g>
    </g>
   </g>
  </g>
 </g>
 <defs>
  <clipPath id="p3ede1d2fa3">
   <rect x="126" y="51.84" width="781.2" height="332.64"/>
  </clipPath>
 </defs>
</svg>
