<?xml version="1.0" encoding="utf-8" standalone="no"?>
<!DOCTYPE svg PUBLIC "-//W3C//DTD SVG 1.1//EN"
  "http://www.w3.org/Graphics/SVG/1.1/DTD/svg11.dtd">
<svg xmlns:xlink="http://www.w3.org/1999/xlink" width="1008pt" height="432pt" viewBox="0 0 1008 432" xmlns="http://www.w3.org/2000/svg" version="1.1">
 <metadata>
  <rdf:RDF xmlns:dc="http://purl.org/dc/elements/1.1/" xmlns:cc="http://creativecommons.org/ns#" xmlns:rdf="http://www.w3.org/1999/02/22-rdf-syntax-ns#">
   <cc:Work>
    <dc:type rdf:resource="http://purl.org/dc/dcmitype/StillImage"/>
    <dc:date>2023-12-22T17:10:12.980601</dc:date>
    <dc:format>image/svg+xml</dc:format>
    <dc:creator>
     <cc:Agent>
      <dc:title>Matplotlib v3.5.2, https://matplotlib.org/</dc:title>
     </cc:Agent>
    </dc:creator>
   </cc:Work>
  </rdf:RDF>
 </metadata>
 <defs>
  <style type="text/css">*{stroke-linejoin: round; stroke-linecap: butt}</style>
 </defs>
 <g id="figure_1">
  <g id="patch_1">
   <path d="M 0 432 
L 1008 432 
L 1008 0 
L 0 0 
z
" style="fill: #ffffff"/>
  </g>
  <g id="axes_1">
   <g id="patch_2">
    <path d="M 126 384.48 
L 907.2 384.48 
L 907.2 51.84 
L 126 51.84 
z
" style="fill: #ffffff"/>
   </g>
   <g id="matplotlib.axis_1">
    <g id="xtick_1">
     <g id="line2d_1">
      <defs>
       <path id="m6d8ee40d1b" d="M 0 0 
L 0 3.5 
" style="stroke: #000000; stroke-width: 0.8"/>
      </defs>
      <g>
       <use xlink:href="#m6d8ee40d1b" x="161.509091" y="384.48" style="stroke: #000000; stroke-width: 0.8"/>
      </g>
     </g>
     <g id="text_1">
      <!-- 0.0 -->
      <g transform="translate(153.557528 399.078438)scale(0.1 -0.1)">
       <defs>
        <path id="DejaVuSans-30" d="M 2034 4250 
Q 1547 4250 1301 3770 
Q 1056 3291 1056 2328 
Q 1056 1369 1301 889 
Q 1547 409 2034 409 
Q 2525 409 2770 889 
Q 3016 1369 3016 2328 
Q 3016 3291 2770 3770 
Q 2525 4250 2034 4250 
z
M 2034 4750 
Q 2819 4750 3233 4129 
Q 3647 3509 3647 2328 
Q 3647 1150 3233 529 
Q 2819 -91 2034 -91 
Q 1250 -91 836 529 
Q 422 1150 422 2328 
Q 422 3509 836 4129 
Q 1250 4750 2034 4750 
z
" transform="scale(0.015625)"/>
        <path id="DejaVuSans-2e" d="M 684 794 
L 1344 794 
L 1344 0 
L 684 0 
L 684 794 
z
" transform="scale(0.015625)"/>
       </defs>
       <use xlink:href="#DejaVuSans-30"/>
       <use xlink:href="#DejaVuSans-2e" x="63.623047"/>
       <use xlink:href="#DejaVuSans-30" x="95.410156"/>
      </g>
     </g>
    </g>
    <g id="xtick_2">
     <g id="line2d_2">
      <g>
       <use xlink:href="#m6d8ee40d1b" x="303.545455" y="384.48" style="stroke: #000000; stroke-width: 0.8"/>
      </g>
     </g>
     <g id="text_2">
      <!-- 0.2 -->
      <g transform="translate(295.593892 399.078438)scale(0.1 -0.1)">
       <defs>
        <path id="DejaVuSans-32" d="M 1228 531 
L 3431 531 
L 3431 0 
L 469 0 
L 469 531 
Q 828 903 1448 1529 
Q 2069 2156 2228 2338 
Q 2531 2678 2651 2914 
Q 2772 3150 2772 3378 
Q 2772 3750 2511 3984 
Q 2250 4219 1831 4219 
Q 1534 4219 1204 4116 
Q 875 4013 500 3803 
L 500 4441 
Q 881 4594 1212 4672 
Q 1544 4750 1819 4750 
Q 2544 4750 2975 4387 
Q 3406 4025 3406 3419 
Q 3406 3131 3298 2873 
Q 3191 2616 2906 2266 
Q 2828 2175 2409 1742 
Q 1991 1309 1228 531 
z
" transform="scale(0.015625)"/>
       </defs>
       <use xlink:href="#DejaVuSans-30"/>
       <use xlink:href="#DejaVuSans-2e" x="63.623047"/>
       <use xlink:href="#DejaVuSans-32" x="95.410156"/>
      </g>
     </g>
    </g>
    <g id="xtick_3">
     <g id="line2d_3">
      <g>
       <use xlink:href="#m6d8ee40d1b" x="445.581818" y="384.48" style="stroke: #000000; stroke-width: 0.8"/>
      </g>
     </g>
     <g id="text_3">
      <!-- 0.4 -->
      <g transform="translate(437.630256 399.078438)scale(0.1 -0.1)">
       <defs>
        <path id="DejaVuSans-34" d="M 2419 4116 
L 825 1625 
L 2419 1625 
L 2419 4116 
z
M 2253 4666 
L 3047 4666 
L 3047 1625 
L 3713 1625 
L 3713 1100 
L 3047 1100 
L 3047 0 
L 2419 0 
L 2419 1100 
L 313 1100 
L 313 1709 
L 2253 4666 
z
" transform="scale(0.015625)"/>
       </defs>
       <use xlink:href="#DejaVuSans-30"/>
       <use xlink:href="#DejaVuSans-2e" x="63.623047"/>
       <use xlink:href="#DejaVuSans-34" x="95.410156"/>
      </g>
     </g>
    </g>
    <g id="xtick_4">
     <g id="line2d_4">
      <g>
       <use xlink:href="#m6d8ee40d1b" x="587.618182" y="384.48" style="stroke: #000000; stroke-width: 0.8"/>
      </g>
     </g>
     <g id="text_4">
      <!-- 0.6 -->
      <g transform="translate(579.666619 399.078438)scale(0.1 -0.1)">
       <defs>
        <path id="DejaVuSans-36" d="M 2113 2584 
Q 1688 2584 1439 2293 
Q 1191 2003 1191 1497 
Q 1191 994 1439 701 
Q 1688 409 2113 409 
Q 2538 409 2786 701 
Q 3034 994 3034 1497 
Q 3034 2003 2786 2293 
Q 2538 2584 2113 2584 
z
M 3366 4563 
L 3366 3988 
Q 3128 4100 2886 4159 
Q 2644 4219 2406 4219 
Q 1781 4219 1451 3797 
Q 1122 3375 1075 2522 
Q 1259 2794 1537 2939 
Q 1816 3084 2150 3084 
Q 2853 3084 3261 2657 
Q 3669 2231 3669 1497 
Q 3669 778 3244 343 
Q 2819 -91 2113 -91 
Q 1303 -91 875 529 
Q 447 1150 447 2328 
Q 447 3434 972 4092 
Q 1497 4750 2381 4750 
Q 2619 4750 2861 4703 
Q 3103 4656 3366 4563 
z
" transform="scale(0.015625)"/>
       </defs>
       <use xlink:href="#DejaVuSans-30"/>
       <use xlink:href="#DejaVuSans-2e" x="63.623047"/>
       <use xlink:href="#DejaVuSans-36" x="95.410156"/>
      </g>
     </g>
    </g>
    <g id="xtick_5">
     <g id="line2d_5">
      <g>
       <use xlink:href="#m6d8ee40d1b" x="729.654545" y="384.48" style="stroke: #000000; stroke-width: 0.8"/>
      </g>
     </g>
     <g id="text_5">
      <!-- 0.8 -->
      <g transform="translate(721.702983 399.078438)scale(0.1 -0.1)">
       <defs>
        <path id="DejaVuSans-38" d="M 2034 2216 
Q 1584 2216 1326 1975 
Q 1069 1734 1069 1313 
Q 1069 891 1326 650 
Q 1584 409 2034 409 
Q 2484 409 2743 651 
Q 3003 894 3003 1313 
Q 3003 1734 2745 1975 
Q 2488 2216 2034 2216 
z
M 1403 2484 
Q 997 2584 770 2862 
Q 544 3141 544 3541 
Q 544 4100 942 4425 
Q 1341 4750 2034 4750 
Q 2731 4750 3128 4425 
Q 3525 4100 3525 3541 
Q 3525 3141 3298 2862 
Q 3072 2584 2669 2484 
Q 3125 2378 3379 2068 
Q 3634 1759 3634 1313 
Q 3634 634 3220 271 
Q 2806 -91 2034 -91 
Q 1263 -91 848 271 
Q 434 634 434 1313 
Q 434 1759 690 2068 
Q 947 2378 1403 2484 
z
M 1172 3481 
Q 1172 3119 1398 2916 
Q 1625 2713 2034 2713 
Q 2441 2713 2670 2916 
Q 2900 3119 2900 3481 
Q 2900 3844 2670 4047 
Q 2441 4250 2034 4250 
Q 1625 4250 1398 4047 
Q 1172 3844 1172 3481 
z
" transform="scale(0.015625)"/>
       </defs>
       <use xlink:href="#DejaVuSans-30"/>
       <use xlink:href="#DejaVuSans-2e" x="63.623047"/>
       <use xlink:href="#DejaVuSans-38" x="95.410156"/>
      </g>
     </g>
    </g>
    <g id="xtick_6">
     <g id="line2d_6">
      <g>
       <use xlink:href="#m6d8ee40d1b" x="871.690909" y="384.48" style="stroke: #000000; stroke-width: 0.8"/>
      </g>
     </g>
     <g id="text_6">
      <!-- 1.0 -->
      <g transform="translate(863.739347 399.078438)scale(0.1 -0.1)">
       <defs>
        <path id="DejaVuSans-31" d="M 794 531 
L 1825 531 
L 1825 4091 
L 703 3866 
L 703 4441 
L 1819 4666 
L 2450 4666 
L 2450 531 
L 3481 531 
L 3481 0 
L 794 0 
L 794 531 
z
" transform="scale(0.015625)"/>
       </defs>
       <use xlink:href="#DejaVuSans-31"/>
       <use xlink:href="#DejaVuSans-2e" x="63.623047"/>
       <use xlink:href="#DejaVuSans-30" x="95.410156"/>
      </g>
     </g>
    </g>
    <g id="text_7">
     <!-- Time -->
     <g transform="translate(504.366406 412.756563)scale(0.1 -0.1)">
      <defs>
       <path id="DejaVuSans-54" d="M -19 4666 
L 3928 4666 
L 3928 4134 
L 2272 4134 
L 2272 0 
L 1638 0 
L 1638 4134 
L -19 4134 
L -19 4666 
z
" transform="scale(0.015625)"/>
       <path id="DejaVuSans-69" d="M 603 3500 
L 1178 3500 
L 1178 0 
L 603 0 
L 603 3500 
z
M 603 4863 
L 1178 4863 
L 1178 4134 
L 603 4134 
L 603 4863 
z
" transform="scale(0.015625)"/>
       <path id="DejaVuSans-6d" d="M 3328 2828 
Q 3544 3216 3844 3400 
Q 4144 3584 4550 3584 
Q 5097 3584 5394 3201 
Q 5691 2819 5691 2113 
L 5691 0 
L 5113 0 
L 5113 2094 
Q 5113 2597 4934 2840 
Q 4756 3084 4391 3084 
Q 3944 3084 3684 2787 
Q 3425 2491 3425 1978 
L 3425 0 
L 2847 0 
L 2847 2094 
Q 2847 2600 2669 2842 
Q 2491 3084 2119 3084 
Q 1678 3084 1418 2786 
Q 1159 2488 1159 1978 
L 1159 0 
L 581 0 
L 581 3500 
L 1159 3500 
L 1159 2956 
Q 1356 3278 1631 3431 
Q 1906 3584 2284 3584 
Q 2666 3584 2933 3390 
Q 3200 3197 3328 2828 
z
" transform="scale(0.015625)"/>
       <path id="DejaVuSans-65" d="M 3597 1894 
L 3597 1613 
L 953 1613 
Q 991 1019 1311 708 
Q 1631 397 2203 397 
Q 2534 397 2845 478 
Q 3156 559 3463 722 
L 3463 178 
Q 3153 47 2828 -22 
Q 2503 -91 2169 -91 
Q 1331 -91 842 396 
Q 353 884 353 1716 
Q 353 2575 817 3079 
Q 1281 3584 2069 3584 
Q 2775 3584 3186 3129 
Q 3597 2675 3597 1894 
z
M 3022 2063 
Q 3016 2534 2758 2815 
Q 2500 3097 2075 3097 
Q 1594 3097 1305 2825 
Q 1016 2553 972 2059 
L 3022 2063 
z
" transform="scale(0.015625)"/>
      </defs>
      <use xlink:href="#DejaVuSans-54"/>
      <use xlink:href="#DejaVuSans-69" x="57.958984"/>
      <use xlink:href="#DejaVuSans-6d" x="85.742188"/>
      <use xlink:href="#DejaVuSans-65" x="183.154297"/>
     </g>
    </g>
   </g>
   <g id="matplotlib.axis_2">
    <g id="ytick_1">
     <g id="line2d_7">
      <defs>
       <path id="md1fc11a4c7" d="M 0 0 
L -3.5 0 
" style="stroke: #000000; stroke-width: 0.8"/>
      </defs>
      <g>
       <use xlink:href="#md1fc11a4c7" x="126" y="355.048451" style="stroke: #000000; stroke-width: 0.8"/>
      </g>
     </g>
     <g id="text_8">
      <!-- −1.0 -->
      <g transform="translate(94.717187 358.84767)scale(0.1 -0.1)">
       <defs>
        <path id="DejaVuSans-2212" d="M 678 2272 
L 4684 2272 
L 4684 1741 
L 678 1741 
L 678 2272 
z
" transform="scale(0.015625)"/>
       </defs>
       <use xlink:href="#DejaVuSans-2212"/>
       <use xlink:href="#DejaVuSans-31" x="83.789062"/>
       <use xlink:href="#DejaVuSans-2e" x="147.412109"/>
       <use xlink:href="#DejaVuSans-30" x="179.199219"/>
      </g>
     </g>
    </g>
    <g id="ytick_2">
     <g id="line2d_8">
      <g>
       <use xlink:href="#md1fc11a4c7" x="126" y="291.047059" style="stroke: #000000; stroke-width: 0.8"/>
      </g>
     </g>
     <g id="text_9">
      <!-- −0.5 -->
      <g transform="translate(94.717187 294.846278)scale(0.1 -0.1)">
       <defs>
        <path id="DejaVuSans-35" d="M 691 4666 
L 3169 4666 
L 3169 4134 
L 1269 4134 
L 1269 2991 
Q 1406 3038 1543 3061 
Q 1681 3084 1819 3084 
Q 2600 3084 3056 2656 
Q 3513 2228 3513 1497 
Q 3513 744 3044 326 
Q 2575 -91 1722 -91 
Q 1428 -91 1123 -41 
Q 819 9 494 109 
L 494 744 
Q 775 591 1075 516 
Q 1375 441 1709 441 
Q 2250 441 2565 725 
Q 2881 1009 2881 1497 
Q 2881 1984 2565 2268 
Q 2250 2553 1709 2553 
Q 1456 2553 1204 2497 
Q 953 2441 691 2322 
L 691 4666 
z
" transform="scale(0.015625)"/>
       </defs>
       <use xlink:href="#DejaVuSans-2212"/>
       <use xlink:href="#DejaVuSans-30" x="83.789062"/>
       <use xlink:href="#DejaVuSans-2e" x="147.412109"/>
       <use xlink:href="#DejaVuSans-35" x="179.199219"/>
      </g>
     </g>
    </g>
    <g id="ytick_3">
     <g id="line2d_9">
      <g>
       <use xlink:href="#md1fc11a4c7" x="126" y="227.045666" style="stroke: #000000; stroke-width: 0.8"/>
      </g>
     </g>
     <g id="text_10">
      <!-- 0.0 -->
      <g transform="translate(103.096875 230.844885)scale(0.1 -0.1)">
       <use xlink:href="#DejaVuSans-30"/>
       <use xlink:href="#DejaVuSans-2e" x="63.623047"/>
       <use xlink:href="#DejaVuSans-30" x="95.410156"/>
      </g>
     </g>
    </g>
    <g id="ytick_4">
     <g id="line2d_10">
      <g>
       <use xlink:href="#md1fc11a4c7" x="126" y="163.044274" style="stroke: #000000; stroke-width: 0.8"/>
      </g>
     </g>
     <g id="text_11">
      <!-- 0.5 -->
      <g transform="translate(103.096875 166.843493)scale(0.1 -0.1)">
       <use xlink:href="#DejaVuSans-30"/>
       <use xlink:href="#DejaVuSans-2e" x="63.623047"/>
       <use xlink:href="#DejaVuSans-35" x="95.410156"/>
      </g>
     </g>
    </g>
    <g id="ytick_5">
     <g id="line2d_11">
      <g>
       <use xlink:href="#md1fc11a4c7" x="126" y="99.042881" style="stroke: #000000; stroke-width: 0.8"/>
      </g>
     </g>
     <g id="text_12">
      <!-- 1.0 -->
      <g transform="translate(103.096875 102.8421)scale(0.1 -0.1)">
       <use xlink:href="#DejaVuSans-31"/>
       <use xlink:href="#DejaVuSans-2e" x="63.623047"/>
       <use xlink:href="#DejaVuSans-30" x="95.410156"/>
      </g>
     </g>
    </g>
    <g id="text_13">
     <!-- Quadratic Covariation -->
     <g transform="translate(88.6375 272.970156)rotate(-90)scale(0.1 -0.1)">
      <defs>
       <path id="DejaVuSans-51" d="M 2522 4238 
Q 1834 4238 1429 3725 
Q 1025 3213 1025 2328 
Q 1025 1447 1429 934 
Q 1834 422 2522 422 
Q 3209 422 3611 934 
Q 4013 1447 4013 2328 
Q 4013 3213 3611 3725 
Q 3209 4238 2522 4238 
z
M 3406 84 
L 4238 -825 
L 3475 -825 
L 2784 -78 
Q 2681 -84 2626 -87 
Q 2572 -91 2522 -91 
Q 1538 -91 948 567 
Q 359 1225 359 2328 
Q 359 3434 948 4092 
Q 1538 4750 2522 4750 
Q 3503 4750 4090 4092 
Q 4678 3434 4678 2328 
Q 4678 1516 4351 937 
Q 4025 359 3406 84 
z
" transform="scale(0.015625)"/>
       <path id="DejaVuSans-75" d="M 544 1381 
L 544 3500 
L 1119 3500 
L 1119 1403 
Q 1119 906 1312 657 
Q 1506 409 1894 409 
Q 2359 409 2629 706 
Q 2900 1003 2900 1516 
L 2900 3500 
L 3475 3500 
L 3475 0 
L 2900 0 
L 2900 538 
Q 2691 219 2414 64 
Q 2138 -91 1772 -91 
Q 1169 -91 856 284 
Q 544 659 544 1381 
z
M 1991 3584 
L 1991 3584 
z
" transform="scale(0.015625)"/>
       <path id="DejaVuSans-61" d="M 2194 1759 
Q 1497 1759 1228 1600 
Q 959 1441 959 1056 
Q 959 750 1161 570 
Q 1363 391 1709 391 
Q 2188 391 2477 730 
Q 2766 1069 2766 1631 
L 2766 1759 
L 2194 1759 
z
M 3341 1997 
L 3341 0 
L 2766 0 
L 2766 531 
Q 2569 213 2275 61 
Q 1981 -91 1556 -91 
Q 1019 -91 701 211 
Q 384 513 384 1019 
Q 384 1609 779 1909 
Q 1175 2209 1959 2209 
L 2766 2209 
L 2766 2266 
Q 2766 2663 2505 2880 
Q 2244 3097 1772 3097 
Q 1472 3097 1187 3025 
Q 903 2953 641 2809 
L 641 3341 
Q 956 3463 1253 3523 
Q 1550 3584 1831 3584 
Q 2591 3584 2966 3190 
Q 3341 2797 3341 1997 
z
" transform="scale(0.015625)"/>
       <path id="DejaVuSans-64" d="M 2906 2969 
L 2906 4863 
L 3481 4863 
L 3481 0 
L 2906 0 
L 2906 525 
Q 2725 213 2448 61 
Q 2172 -91 1784 -91 
Q 1150 -91 751 415 
Q 353 922 353 1747 
Q 353 2572 751 3078 
Q 1150 3584 1784 3584 
Q 2172 3584 2448 3432 
Q 2725 3281 2906 2969 
z
M 947 1747 
Q 947 1113 1208 752 
Q 1469 391 1925 391 
Q 2381 391 2643 752 
Q 2906 1113 2906 1747 
Q 2906 2381 2643 2742 
Q 2381 3103 1925 3103 
Q 1469 3103 1208 2742 
Q 947 2381 947 1747 
z
" transform="scale(0.015625)"/>
       <path id="DejaVuSans-72" d="M 2631 2963 
Q 2534 3019 2420 3045 
Q 2306 3072 2169 3072 
Q 1681 3072 1420 2755 
Q 1159 2438 1159 1844 
L 1159 0 
L 581 0 
L 581 3500 
L 1159 3500 
L 1159 2956 
Q 1341 3275 1631 3429 
Q 1922 3584 2338 3584 
Q 2397 3584 2469 3576 
Q 2541 3569 2628 3553 
L 2631 2963 
z
" transform="scale(0.015625)"/>
       <path id="DejaVuSans-74" d="M 1172 4494 
L 1172 3500 
L 2356 3500 
L 2356 3053 
L 1172 3053 
L 1172 1153 
Q 1172 725 1289 603 
Q 1406 481 1766 481 
L 2356 481 
L 2356 0 
L 1766 0 
Q 1100 0 847 248 
Q 594 497 594 1153 
L 594 3053 
L 172 3053 
L 172 3500 
L 594 3500 
L 594 4494 
L 1172 4494 
z
" transform="scale(0.015625)"/>
       <path id="DejaVuSans-63" d="M 3122 3366 
L 3122 2828 
Q 2878 2963 2633 3030 
Q 2388 3097 2138 3097 
Q 1578 3097 1268 2742 
Q 959 2388 959 1747 
Q 959 1106 1268 751 
Q 1578 397 2138 397 
Q 2388 397 2633 464 
Q 2878 531 3122 666 
L 3122 134 
Q 2881 22 2623 -34 
Q 2366 -91 2075 -91 
Q 1284 -91 818 406 
Q 353 903 353 1747 
Q 353 2603 823 3093 
Q 1294 3584 2113 3584 
Q 2378 3584 2631 3529 
Q 2884 3475 3122 3366 
z
" transform="scale(0.015625)"/>
       <path id="DejaVuSans-20" transform="scale(0.015625)"/>
       <path id="DejaVuSans-43" d="M 4122 4306 
L 4122 3641 
Q 3803 3938 3442 4084 
Q 3081 4231 2675 4231 
Q 1875 4231 1450 3742 
Q 1025 3253 1025 2328 
Q 1025 1406 1450 917 
Q 1875 428 2675 428 
Q 3081 428 3442 575 
Q 3803 722 4122 1019 
L 4122 359 
Q 3791 134 3420 21 
Q 3050 -91 2638 -91 
Q 1578 -91 968 557 
Q 359 1206 359 2328 
Q 359 3453 968 4101 
Q 1578 4750 2638 4750 
Q 3056 4750 3426 4639 
Q 3797 4528 4122 4306 
z
" transform="scale(0.015625)"/>
       <path id="DejaVuSans-6f" d="M 1959 3097 
Q 1497 3097 1228 2736 
Q 959 2375 959 1747 
Q 959 1119 1226 758 
Q 1494 397 1959 397 
Q 2419 397 2687 759 
Q 2956 1122 2956 1747 
Q 2956 2369 2687 2733 
Q 2419 3097 1959 3097 
z
M 1959 3584 
Q 2709 3584 3137 3096 
Q 3566 2609 3566 1747 
Q 3566 888 3137 398 
Q 2709 -91 1959 -91 
Q 1206 -91 779 398 
Q 353 888 353 1747 
Q 353 2609 779 3096 
Q 1206 3584 1959 3584 
z
" transform="scale(0.015625)"/>
       <path id="DejaVuSans-76" d="M 191 3500 
L 800 3500 
L 1894 563 
L 2988 3500 
L 3597 3500 
L 2284 0 
L 1503 0 
L 191 3500 
z
" transform="scale(0.015625)"/>
       <path id="DejaVuSans-6e" d="M 3513 2113 
L 3513 0 
L 2938 0 
L 2938 2094 
Q 2938 2591 2744 2837 
Q 2550 3084 2163 3084 
Q 1697 3084 1428 2787 
Q 1159 2491 1159 1978 
L 1159 0 
L 581 0 
L 581 3500 
L 1159 3500 
L 1159 2956 
Q 1366 3272 1645 3428 
Q 1925 3584 2291 3584 
Q 2894 3584 3203 3211 
Q 3513 2838 3513 2113 
z
" transform="scale(0.015625)"/>
      </defs>
      <use xlink:href="#DejaVuSans-51"/>
      <use xlink:href="#DejaVuSans-75" x="78.710938"/>
      <use xlink:href="#DejaVuSans-61" x="142.089844"/>
      <use xlink:href="#DejaVuSans-64" x="203.369141"/>
      <use xlink:href="#DejaVuSans-72" x="266.845703"/>
      <use xlink:href="#DejaVuSans-61" x="307.958984"/>
      <use xlink:href="#DejaVuSans-74" x="369.238281"/>
      <use xlink:href="#DejaVuSans-69" x="408.447266"/>
      <use xlink:href="#DejaVuSans-63" x="436.230469"/>
      <use xlink:href="#DejaVuSans-20" x="491.210938"/>
      <use xlink:href="#DejaVuSans-43" x="522.998047"/>
      <use xlink:href="#DejaVuSans-6f" x="592.822266"/>
      <use xlink:href="#DejaVuSans-76" x="654.003906"/>
      <use xlink:href="#DejaVuSans-61" x="713.183594"/>
      <use xlink:href="#DejaVuSans-72" x="774.462891"/>
      <use xlink:href="#DejaVuSans-69" x="815.576172"/>
      <use xlink:href="#DejaVuSans-61" x="843.359375"/>
      <use xlink:href="#DejaVuSans-74" x="904.638672"/>
      <use xlink:href="#DejaVuSans-69" x="943.847656"/>
      <use xlink:href="#DejaVuSans-6f" x="971.630859"/>
      <use xlink:href="#DejaVuSans-6e" x="1032.8125"/>
     </g>
    </g>
   </g>
   <g id="line2d_12">
    <path d="M 161.509091 99.042881 
L 162.219273 96.659767 
L 162.929455 93.07903 
L 163.639636 95.206048 
L 164.349818 94.389809 
L 165.06 88.616892 
L 165.770182 83.790704 
L 166.480364 82.182318 
L 167.190545 81.714986 
L 167.900727 85.817807 
L 168.610909 87.972411 
L 169.321091 89.749176 
L 170.031273 94.310087 
L 170.741455 86.820395 
L 171.451636 90.326524 
L 172.161818 98.049901 
L 172.872 108.893332 
L 173.582182 100.801749 
L 174.292364 108.44568 
L 175.002545 102.633181 
L 175.712727 104.44764 
L 176.422909 98.680812 
L 177.133091 94.279685 
L 177.843273 95.936642 
L 178.553455 98.325734 
L 179.263636 99.781549 
L 179.973818 94.297514 
L 180.684 93.258004 
L 181.394182 97.676942 
L 182.104364 95.094593 
L 182.814545 102.1889 
L 183.524727 103.422982 
L 184.234909 104.077256 
L 184.945091 105.392316 
L 185.655273 104.107942 
L 186.365455 104.332825 
L 187.075636 102.183747 
L 187.785818 105.566521 
L 188.496 103.880129 
L 189.206182 99.949641 
L 189.916364 100.897672 
L 190.626545 104.334347 
L 191.336727 110.304151 
L 192.046909 107.98716 
L 192.757091 114.231877 
L 194.177455 114.856824 
L 194.887636 110.47359 
L 195.597818 103.913073 
L 196.308 102.957527 
L 197.018182 102.572627 
L 197.728364 113.858043 
L 198.438545 111.511364 
L 199.148727 114.752261 
L 199.858909 113.695289 
L 200.569091 116.27456 
L 201.279273 121.502843 
L 201.989455 114.919256 
L 202.699636 118.666752 
L 203.409818 118.181491 
L 204.12 117.33758 
L 204.830182 120.315243 
L 205.540364 116.056174 
L 206.250545 117.490302 
L 206.960727 112.564136 
L 207.670909 116.563584 
L 208.381091 115.108222 
L 209.091273 109.625789 
L 209.801455 111.995242 
L 210.511636 116.217698 
L 211.221818 114.652988 
L 211.932 118.622673 
L 212.642182 119.049363 
L 213.352364 119.968623 
L 214.062545 120.072823 
L 214.772727 119.207557 
L 215.482909 123.122451 
L 216.193091 120.308017 
L 216.903273 120.690086 
L 217.613455 116.984795 
L 218.323636 115.85255 
L 219.033818 121.166317 
L 219.744 121.867637 
L 221.164364 132.445548 
L 221.874545 135.566481 
L 222.584727 132.937605 
L 223.294909 133.593646 
L 224.005091 128.963163 
L 224.715273 125.974532 
L 225.425455 125.502273 
L 226.135636 129.105378 
L 226.845818 124.885404 
L 227.556 122.641295 
L 228.266182 122.09246 
L 228.976364 126.366249 
L 230.396727 123.965459 
L 231.106909 123.768062 
L 231.817091 128.301841 
L 232.527273 125.385208 
L 233.237455 121.720502 
L 233.947636 117.152023 
L 235.368 122.922665 
L 236.078182 128.906577 
L 236.788364 128.151171 
L 237.498545 128.432207 
L 238.918909 130.470591 
L 239.629091 131.938982 
L 240.339273 132.028556 
L 241.049455 132.50606 
L 241.759636 138.456499 
L 242.469818 140.416456 
L 243.18 138.434118 
L 243.890182 132.898275 
L 244.600364 126.135958 
L 245.310545 124.089918 
L 246.020727 129.077437 
L 246.730909 125.533054 
L 247.441091 125.373447 
L 248.151273 127.933466 
L 248.861455 129.172982 
L 249.571636 127.74847 
L 250.281818 125.210165 
L 250.992 131.802254 
L 251.702182 135.996858 
L 252.412364 135.573555 
L 253.122545 133.376114 
L 253.832727 128.343896 
L 254.542909 121.39333 
L 255.253091 123.07544 
L 255.963273 121.423674 
L 256.673455 124.112118 
L 257.383636 117.44279 
L 258.093818 120.146473 
L 258.804 112.913307 
L 259.514182 116.893094 
L 260.224364 114.604045 
L 260.934545 118.867438 
L 261.644727 113.904301 
L 262.354909 112.238923 
L 263.065091 115.088348 
L 263.775273 111.685231 
L 264.485455 113.22897 
L 265.195636 120.963736 
L 265.905818 120.577725 
L 266.616 121.133375 
L 268.036364 107.244094 
L 268.746545 112.761963 
L 269.456727 110.378938 
L 270.166909 110.772144 
L 270.877091 116.855143 
L 271.587273 113.240968 
L 272.297455 108.766867 
L 273.007636 108.082626 
L 273.717818 108.778859 
L 274.428 110.494078 
L 275.138182 113.91813 
L 275.848364 108.009202 
L 276.558545 108.921897 
L 277.268727 103.173086 
L 277.978909 101.993523 
L 278.689091 98.351692 
L 279.399273 99.108043 
L 280.109455 108.450251 
L 280.819636 113.883908 
L 281.529818 121.421201 
L 282.950182 107.875583 
L 283.660364 110.324336 
L 284.370545 110.23408 
L 285.080727 116.043872 
L 285.790909 110.526331 
L 286.501091 112.869127 
L 287.211273 112.024867 
L 287.921455 105.609507 
L 288.631636 110.270476 
L 289.341818 105.705854 
L 290.052 107.511829 
L 290.762182 111.369781 
L 291.472364 107.447239 
L 292.182545 102.52221 
L 292.892727 100.61906 
L 293.602909 95.169183 
L 294.313091 92.141943 
L 295.023273 95.595738 
L 295.733455 100.421439 
L 296.443636 101.006814 
L 297.153818 102.804303 
L 297.864 107.252092 
L 298.574182 104.788013 
L 299.284364 104.251119 
L 299.994545 114.93375 
L 300.704727 114.680254 
L 301.414909 114.235267 
L 302.125091 112.162741 
L 302.835273 113.737019 
L 303.545455 112.743474 
L 304.255636 107.579959 
L 304.965818 105.281611 
L 305.676 100.617547 
L 307.096364 98.647086 
L 307.806545 100.317381 
L 309.226909 108.56472 
L 309.937091 108.605491 
L 310.647273 106.891944 
L 311.357455 105.634804 
L 312.067636 107.195708 
L 312.777818 96.744661 
L 313.488 94.588638 
L 314.198182 100.773847 
L 314.908364 97.754217 
L 315.618545 98.557675 
L 317.038909 89.732833 
L 317.749091 87.793351 
L 318.459273 82.485111 
L 319.169455 80.485547 
L 319.879636 78.839314 
L 320.589818 77.698405 
L 321.3 79.020926 
L 322.010182 69.929206 
L 322.720364 66.96 
L 323.430545 69.768428 
L 324.140727 78.059292 
L 324.850909 84.310363 
L 325.561091 87.536545 
L 326.271273 91.53877 
L 326.981455 88.391396 
L 327.691636 90.563414 
L 328.401818 91.807879 
L 329.112 93.589714 
L 329.822182 92.373285 
L 330.532364 92.806797 
L 331.242545 91.248249 
L 331.952727 92.228246 
L 332.662909 89.563363 
L 333.373091 89.732075 
L 334.083273 79.72729 
L 334.793455 77.389852 
L 335.503636 80.383778 
L 336.213818 88.742609 
L 336.924 89.566524 
L 337.634182 92.011203 
L 338.344364 85.696904 
L 339.054545 87.334023 
L 340.474909 79.078433 
L 341.185091 79.390098 
L 341.895273 84.167301 
L 342.605455 81.084582 
L 343.315636 83.211714 
L 344.025818 78.510428 
L 344.736 78.126589 
L 345.446182 77.031319 
L 346.156364 77.390057 
L 346.866545 78.41588 
L 347.576727 74.634616 
L 348.286909 71.638282 
L 348.997091 76.541927 
L 349.707273 82.876125 
L 350.417455 76.613244 
L 351.127636 78.979484 
L 351.837818 74.780466 
L 352.548 73.659334 
L 353.258182 78.703233 
L 353.968364 82.900565 
L 354.678545 81.661369 
L 355.388727 75.943051 
L 356.098909 76.217149 
L 356.809091 76.660665 
L 357.519273 74.234484 
L 358.229455 77.940063 
L 358.939636 76.299227 
L 359.649818 73.52987 
L 360.36 71.62697 
L 361.070182 72.520633 
L 361.780364 77.009208 
L 362.490545 78.071973 
L 363.200727 88.266209 
L 363.910909 90.841308 
L 364.621091 87.792601 
L 365.331273 89.812851 
L 366.041455 87.807643 
L 366.751636 85.253546 
L 367.461818 82.010688 
L 368.172 83.236711 
L 368.882182 85.48112 
L 369.592364 92.742856 
L 370.302545 98.127293 
L 371.722909 103.027448 
L 372.433091 99.095288 
L 373.143273 102.624769 
L 373.853455 98.416267 
L 375.984 102.904446 
L 376.694182 106.922128 
L 378.824727 111.560181 
L 379.534909 118.271447 
L 380.245091 114.907693 
L 380.955273 119.867268 
L 381.665455 116.139267 
L 383.796 109.128516 
L 385.216364 100.803791 
L 385.926545 103.947269 
L 386.636727 102.88929 
L 387.346909 102.492505 
L 388.057091 99.954689 
L 388.767273 96.745217 
L 389.477455 98.59312 
L 390.897818 104.406545 
L 391.608 96.790157 
L 392.318182 96.925666 
L 393.028364 94.982714 
L 393.738545 89.320481 
L 394.448727 93.7849 
L 395.158909 93.901014 
L 395.869091 82.403526 
L 396.579273 86.550192 
L 397.289455 88.932109 
L 397.999636 84.061055 
L 398.709818 86.329891 
L 399.42 86.380676 
L 400.130182 95.097682 
L 400.840364 93.500157 
L 401.550545 95.402152 
L 402.260727 92.785172 
L 402.970909 100.748187 
L 403.681091 100.871494 
L 405.101455 112.235833 
L 405.811636 110.783324 
L 406.521818 107.960293 
L 407.232 101.060776 
L 407.942182 95.405439 
L 408.652364 96.424663 
L 409.362545 94.637302 
L 410.072727 96.039068 
L 410.782909 101.98747 
L 411.493091 99.803735 
L 412.203273 94.692606 
L 412.913455 96.929716 
L 413.623636 98.164667 
L 414.333818 96.369304 
L 415.044 93.560929 
L 416.464364 87.123538 
L 417.174545 93.710019 
L 417.884727 94.002317 
L 418.594909 100.752473 
L 419.305091 97.56301 
L 420.015273 96.174821 
L 420.725455 97.720565 
L 421.435636 107.447271 
L 422.856 117.4393 
L 423.566182 123.387845 
L 424.276364 125.769871 
L 424.986545 126.935166 
L 426.406909 121.843379 
L 427.117091 117.078203 
L 427.827273 115.037168 
L 428.537455 111.267206 
L 429.247636 113.184458 
L 430.668 121.136615 
L 431.378182 120.647044 
L 432.088364 116.087726 
L 432.798545 119.214991 
L 433.508727 121.566177 
L 434.929091 129.23829 
L 435.639273 120.993723 
L 436.349455 117.077985 
L 437.059636 121.731198 
L 437.769818 120.261805 
L 438.48 120.939437 
L 439.190182 123.595386 
L 439.900364 129.84653 
L 440.610545 128.368121 
L 441.320727 132.843395 
L 442.030909 135.942114 
L 442.741091 130.076143 
L 443.451273 134.229988 
L 444.161455 137.721853 
L 444.871636 129.057618 
L 445.581818 126.322931 
L 446.292 128.023013 
L 447.002182 126.415121 
L 447.712364 130.578336 
L 448.422545 127.435359 
L 449.132727 120.503411 
L 449.842909 126.976782 
L 450.553091 122.754141 
L 451.263273 116.777143 
L 451.973455 124.5094 
L 452.683636 124.980248 
L 453.393818 120.103317 
L 454.104 122.774815 
L 454.814182 121.489701 
L 455.524364 118.691097 
L 456.234545 120.89452 
L 456.944727 120.479594 
L 457.654909 124.547879 
L 458.365091 119.746708 
L 459.075273 118.208496 
L 459.785455 120.729524 
L 460.495636 122.683252 
L 461.205818 122.301946 
L 461.916 122.801349 
L 462.626182 124.939837 
L 463.336364 125.430634 
L 464.046545 121.871817 
L 464.756727 119.056088 
L 465.466909 122.351569 
L 466.177091 123.253604 
L 466.887273 125.262711 
L 467.597455 127.966389 
L 468.307636 125.525045 
L 469.728 123.410554 
L 470.438182 121.782422 
L 471.148364 117.9168 
L 471.858545 112.788167 
L 472.568727 111.761135 
L 473.278909 106.766264 
L 473.989091 103.952865 
L 474.699273 102.431137 
L 475.409455 102.794006 
L 476.119636 102.262165 
L 476.829818 102.91644 
L 478.250182 105.817727 
L 478.960364 107.468503 
L 479.670545 110.382827 
L 480.380727 108.228121 
L 481.090909 105.257055 
L 481.801091 110.388285 
L 482.511273 108.15381 
L 483.221455 106.984836 
L 483.931636 109.203567 
L 484.641818 109.999941 
L 486.062182 119.885154 
L 486.772364 114.016162 
L 487.482545 105.512514 
L 488.192727 104.208694 
L 488.902909 105.074439 
L 489.613091 106.748366 
L 490.323273 103.155622 
L 491.033455 103.980832 
L 491.743636 98.228395 
L 492.453818 94.250348 
L 493.164 93.910719 
L 493.874182 100.362315 
L 494.584364 96.073405 
L 495.294545 97.052696 
L 496.004727 99.594533 
L 496.714909 104.518029 
L 497.425091 108.421993 
L 498.135273 109.391617 
L 498.845455 108.826604 
L 499.555636 109.037251 
L 500.265818 106.83363 
L 500.976 103.56641 
L 502.396364 119.112561 
L 503.106545 124.049975 
L 503.816727 120.02994 
L 504.526909 121.411981 
L 505.237091 120.127384 
L 505.947273 123.877917 
L 506.657455 114.739641 
L 507.367636 108.804341 
L 508.077818 98.107357 
L 508.788 101.120743 
L 509.498182 96.586563 
L 510.208364 100.358114 
L 510.918545 95.810912 
L 511.628727 98.991842 
L 512.338909 97.910217 
L 513.049091 97.33251 
L 513.759273 97.053393 
L 514.469455 94.759578 
L 515.179636 101.624185 
L 515.889818 107.015332 
L 516.6 106.303521 
L 517.310182 114.312114 
L 518.020364 118.379664 
L 518.730545 120.935692 
L 519.440727 121.944289 
L 520.150909 122.319226 
L 520.861091 123.634415 
L 521.571273 125.706995 
L 522.281455 120.292782 
L 522.991636 124.142577 
L 523.701818 127.082386 
L 524.412 133.097661 
L 525.122182 125.358594 
L 525.832364 127.127636 
L 526.542545 129.848342 
L 527.252727 137.032959 
L 527.962909 131.824266 
L 528.673091 128.29732 
L 529.383273 132.849821 
L 530.093455 132.403442 
L 530.803636 140.545059 
L 531.513818 144.742828 
L 532.224 152.288724 
L 533.644364 159.122836 
L 534.354545 167.059942 
L 535.064727 166.482645 
L 535.774909 170.485643 
L 536.485091 168.680093 
L 537.195273 168.965766 
L 537.905455 171.670788 
L 538.615636 172.307801 
L 539.325818 172.397489 
L 540.036 172.301471 
L 540.746182 169.731303 
L 542.166545 185.275617 
L 542.876727 186.550604 
L 543.586909 187.287765 
L 544.297091 190.84563 
L 545.007273 191.030932 
L 545.717455 191.610119 
L 546.427636 192.431622 
L 547.137818 188.0913 
L 547.848 185.642802 
L 549.268364 201.312741 
L 549.978545 202.930474 
L 550.688727 202.896391 
L 551.398909 205.648633 
L 552.109091 206.52445 
L 552.819273 204.509509 
L 553.529455 205.046783 
L 554.239636 202.486093 
L 554.949818 201.377118 
L 555.66 203.460378 
L 556.370182 201.957149 
L 557.080364 195.221484 
L 557.790545 192.358166 
L 558.500727 190.858744 
L 559.210909 191.765548 
L 559.921091 193.095845 
L 560.631273 195.367626 
L 561.341455 202.419559 
L 562.051636 199.212269 
L 562.761818 203.853484 
L 563.472 199.685343 
L 564.182182 205.030656 
L 564.892364 201.402108 
L 565.602545 194.447723 
L 566.312727 199.806121 
L 567.022909 197.904032 
L 567.733091 200.13901 
L 569.153455 211.359372 
L 569.863636 204.983569 
L 570.573818 204.765512 
L 571.284 214.342631 
L 571.994182 213.662081 
L 572.704364 219.013398 
L 573.414545 217.703195 
L 574.124727 214.087928 
L 574.834909 216.65731 
L 575.545091 217.698468 
L 576.255273 222.540811 
L 576.965455 225.044384 
L 577.675636 225.711138 
L 578.385818 220.148887 
L 579.096 220.686075 
L 579.806182 217.491934 
L 580.516364 218.436622 
L 581.226545 217.371258 
L 581.936727 220.78297 
L 582.646909 212.867983 
L 583.357091 207.996153 
L 584.067273 202.174833 
L 584.777455 200.016141 
L 585.487636 200.824098 
L 586.197818 205.683577 
L 586.908 202.470909 
L 587.618182 205.725214 
L 588.328364 204.505965 
L 589.038545 207.487579 
L 589.748727 213.138251 
L 590.458909 215.127512 
L 591.169091 220.521941 
L 591.879273 224.781792 
L 592.589455 232.140503 
L 594.009818 226.886214 
L 594.72 221.713332 
L 595.430182 227.109575 
L 596.140364 228.837491 
L 596.850545 232.767897 
L 597.560727 230.537893 
L 598.270909 239.266902 
L 598.981091 238.577128 
L 599.691273 238.7821 
L 600.401455 238.847713 
L 601.111636 236.362591 
L 601.821818 235.824475 
L 602.532 243.244297 
L 603.242182 237.945525 
L 603.952364 238.72546 
L 604.662545 237.312884 
L 605.372727 236.642875 
L 606.082909 231.290393 
L 606.793091 236.288912 
L 607.503273 233.576461 
L 608.213455 233.746237 
L 608.923636 235.240603 
L 609.633818 230.023841 
L 610.344 229.469768 
L 611.054182 226.133198 
L 611.764364 233.750073 
L 613.184727 235.628847 
L 613.894909 240.042243 
L 614.605091 231.956071 
L 615.315273 233.027011 
L 616.025455 230.905433 
L 616.735636 227.001929 
L 617.445818 230.389589 
L 618.866182 244.634483 
L 619.576364 241.77371 
L 620.286545 245.830666 
L 620.996727 241.739274 
L 621.706909 243.076869 
L 622.417091 239.211174 
L 623.127273 240.827412 
L 623.837455 236.657736 
L 624.547636 240.293787 
L 625.257818 247.876383 
L 626.678182 257.776774 
L 627.388364 256.513697 
L 628.098545 252.811938 
L 628.808727 251.072327 
L 629.518909 250.786455 
L 630.939273 266.023611 
L 631.649455 261.920377 
L 632.359636 262.975517 
L 633.069818 260.8814 
L 633.78 266.417483 
L 634.490182 264.913804 
L 635.200364 266.260003 
L 635.910545 261.649036 
L 636.620727 256.295743 
L 637.330909 254.248918 
L 638.041091 243.697983 
L 638.751273 246.939328 
L 640.171636 237.147339 
L 640.881818 242.318974 
L 641.592 240.37852 
L 643.012364 231.217604 
L 643.722545 230.817659 
L 644.432727 235.515079 
L 645.142909 232.649459 
L 645.853091 228.758417 
L 646.563273 238.706583 
L 647.273455 242.829763 
L 647.983636 241.310698 
L 648.693818 237.461839 
L 649.404 229.960874 
L 650.114182 232.716541 
L 650.824364 230.021052 
L 651.534545 224.55259 
L 652.244727 222.795701 
L 652.954909 225.057503 
L 653.665091 224.208042 
L 654.375273 219.119518 
L 655.085455 221.174277 
L 655.795636 219.502987 
L 656.505818 220.181516 
L 657.216 218.995623 
L 657.926182 219.273502 
L 658.636364 219.823011 
L 659.346545 221.058171 
L 660.056727 223.085041 
L 660.766909 227.375227 
L 661.477091 223.765018 
L 662.187273 216.750544 
L 662.897455 218.515761 
L 663.607636 218.507616 
L 664.317818 214.498522 
L 665.028 209.709217 
L 665.738182 208.322633 
L 666.448364 206.136991 
L 667.158545 207.146925 
L 667.868727 207.350154 
L 668.578909 215.153573 
L 669.289091 210.616372 
L 669.999273 212.133241 
L 671.419636 210.541835 
L 672.129818 203.032168 
L 672.84 199.947722 
L 673.550182 200.403141 
L 674.260364 200.700213 
L 675.680727 193.701221 
L 676.390909 193.955861 
L 677.811273 205.815818 
L 678.521455 199.721354 
L 679.231636 197.334136 
L 679.941818 199.28443 
L 680.652 195.503078 
L 682.072364 183.008113 
L 682.782545 176.546556 
L 683.492727 177.371331 
L 684.202909 184.870468 
L 684.913091 189.575891 
L 685.623273 191.622812 
L 686.333455 192.468459 
L 687.043636 197.276655 
L 687.753818 198.162456 
L 688.464 193.983176 
L 689.174182 187.517287 
L 689.884364 186.297321 
L 690.594545 186.754398 
L 691.304727 191.337085 
L 692.725091 195.121618 
L 693.435273 196.521522 
L 694.145455 196.337007 
L 694.855636 198.506252 
L 695.565818 197.812621 
L 696.986182 208.651411 
L 697.696364 209.979447 
L 698.406545 202.584284 
L 699.826909 199.189935 
L 700.537091 200.966579 
L 701.247273 201.03655 
L 701.957455 206.59645 
L 702.667636 199.772246 
L 703.377818 203.948835 
L 704.088 205.734405 
L 704.798182 208.822441 
L 705.508364 207.677386 
L 706.218545 203.169351 
L 706.928727 201.489236 
L 707.638909 198.157808 
L 708.349091 192.66153 
L 709.059273 190.068995 
L 709.769455 194.015418 
L 710.479636 189.700148 
L 711.189818 190.513297 
L 711.9 199.019786 
L 712.610182 199.111758 
L 713.320364 204.290478 
L 714.030545 200.552328 
L 714.740727 204.625812 
L 715.450909 209.984075 
L 716.161091 208.582461 
L 717.581455 197.405186 
L 718.291636 199.245531 
L 719.001818 204.54795 
L 719.712 204.293228 
L 720.422182 205.812143 
L 721.132364 206.451854 
L 721.842545 205.162575 
L 722.552727 206.893261 
L 723.262909 215.128641 
L 724.683273 205.224458 
L 725.393455 202.96693 
L 726.813818 193.058571 
L 727.524 197.234223 
L 728.234182 194.992614 
L 729.654545 202.573369 
L 730.364727 194.578327 
L 731.074909 199.026612 
L 731.785091 195.790341 
L 732.495273 198.243109 
L 733.205455 202.366923 
L 733.915636 199.539524 
L 734.625818 194.136703 
L 735.336 197.649318 
L 736.046182 196.604553 
L 736.756364 200.011431 
L 737.466545 196.444527 
L 738.176727 197.609365 
L 738.886909 196.178246 
L 740.307273 202.877892 
L 741.017455 203.014389 
L 741.727636 205.562208 
L 742.437818 204.914496 
L 743.148 201.172872 
L 743.858182 200.055058 
L 744.568364 197.142533 
L 745.278545 189.809332 
L 745.988727 185.392525 
L 746.698909 190.401619 
L 747.409091 189.473355 
L 748.119273 193.02431 
L 748.829455 185.228571 
L 749.539636 190.648523 
L 750.249818 190.443587 
L 750.96 187.338485 
L 751.670182 186.516626 
L 752.380364 185.89275 
L 753.090545 186.532194 
L 753.800727 181.072425 
L 754.510909 181.087002 
L 755.221091 187.186437 
L 755.931273 187.607779 
L 756.641455 194.552642 
L 757.351636 188.489334 
L 758.061818 201.033676 
L 758.772 207.512425 
L 759.482182 209.219366 
L 760.192364 201.997373 
L 760.902545 197.471232 
L 761.612727 194.645376 
L 762.322909 195.17941 
L 763.033091 191.277558 
L 763.743273 193.034572 
L 764.453455 188.805968 
L 765.163636 188.98221 
L 766.584 197.378397 
L 767.294182 197.753182 
L 768.004364 202.931227 
L 769.424727 205.999027 
L 770.134909 203.095695 
L 770.845091 201.601772 
L 772.265455 183.163749 
L 772.975636 183.790308 
L 773.685818 188.611943 
L 774.396 190.382608 
L 775.816364 185.839519 
L 777.236727 179.442887 
L 777.946909 186.671377 
L 778.657091 179.508205 
L 779.367273 189.754614 
L 780.077455 186.841181 
L 780.787636 190.15387 
L 781.497818 191.141482 
L 782.208 194.246078 
L 782.918182 184.964245 
L 783.628364 185.962093 
L 784.338545 189.696052 
L 785.048727 191.797312 
L 785.758909 191.854806 
L 786.469091 182.587752 
L 787.179273 180.711603 
L 787.889455 183.517724 
L 788.599636 181.714602 
L 789.309818 178.414441 
L 790.02 182.580356 
L 790.730182 185.409977 
L 791.440364 185.392904 
L 792.150545 174.053603 
L 792.860727 174.904906 
L 793.570909 174.659296 
L 794.991273 180.08111 
L 795.701455 183.863987 
L 796.411636 185.089281 
L 797.121818 187.453616 
L 797.832 186.816797 
L 798.542182 186.552654 
L 799.252364 191.294091 
L 799.962545 189.502843 
L 800.672727 193.72335 
L 801.382909 194.016087 
L 802.093091 189.752123 
L 802.803273 182.246792 
L 803.513455 188.64113 
L 804.223636 188.197744 
L 804.933818 189.118763 
L 805.644 187.231551 
L 806.354182 184.618402 
L 807.064364 189.859837 
L 807.774545 196.083967 
L 808.484727 199.318855 
L 809.194909 191.297593 
L 809.905091 194.805604 
L 810.615273 195.687052 
L 811.325455 198.092468 
L 812.035636 196.70033 
L 813.456 203.368921 
L 814.166182 200.585121 
L 814.876364 194.912474 
L 815.586545 191.916403 
L 816.296727 192.050835 
L 817.006909 189.855754 
L 817.717091 190.657459 
L 818.427273 186.607485 
L 819.137455 187.036471 
L 819.847636 183.35859 
L 820.557818 188.705168 
L 821.268 182.335387 
L 821.978182 183.456485 
L 822.688364 186.084549 
L 823.398545 187.136751 
L 824.108727 191.484617 
L 824.818909 187.310863 
L 825.529091 196.519825 
L 826.239273 196.113538 
L 826.949455 199.070791 
L 827.659636 204.104467 
L 828.369818 194.78854 
L 829.08 192.849774 
L 829.790182 199.096951 
L 830.500364 196.375103 
L 831.210545 202.094378 
L 831.920727 198.374725 
L 832.630909 191.752354 
L 833.341091 183.58137 
L 834.051273 177.14173 
L 834.761455 173.046211 
L 835.471636 177.59662 
L 836.181818 179.442801 
L 836.892 183.958722 
L 837.602182 183.934856 
L 838.312364 184.226298 
L 839.022545 181.401807 
L 839.732727 181.450703 
L 840.442909 183.023222 
L 841.153091 176.30022 
L 842.573455 183.574193 
L 843.283636 176.013472 
L 843.993818 180.677858 
L 844.704 182.993585 
L 845.414182 183.036452 
L 846.124364 179.012588 
L 847.544727 187.712007 
L 848.254909 187.652925 
L 848.965091 186.639033 
L 849.675273 191.950789 
L 851.095636 181.115045 
L 851.805818 174.306783 
L 852.516 185.356569 
L 853.226182 190.292343 
L 853.936364 191.012555 
L 856.066909 192.676374 
L 856.777091 197.446979 
L 857.487273 199.574459 
L 858.197455 203.076935 
L 858.907636 204.766799 
L 859.617818 205.954085 
L 860.328 208.598104 
L 861.038182 209.485697 
L 861.748364 215.660229 
L 862.458545 211.403178 
L 863.168727 206.239748 
L 863.878909 206.241828 
L 864.589091 209.220705 
L 865.299273 212.962147 
L 866.009455 212.473237 
L 866.719636 210.903938 
L 867.429818 214.137595 
L 868.14 215.004372 
L 869.560364 225.703779 
L 870.270545 229.707711 
L 870.980727 227.718866 
L 871.690909 226.791548 
L 871.690909 226.791548 
" clip-path="url(#p1aea6ea92b)" style="fill: none; stroke: #1f77b4; stroke-width: 1.5; stroke-linecap: square"/>
   </g>
   <g id="line2d_13">
    <path d="M 161.509091 99.042881 
L 162.219273 100.427616 
L 162.929455 97.963739 
L 163.639636 100.394693 
L 164.349818 98.690814 
L 165.06 92.534105 
L 166.480364 96.910932 
L 167.190545 95.417614 
L 167.900727 114.157897 
L 168.610909 119.590547 
L 169.321091 117.873568 
L 170.031273 121.892367 
L 170.741455 113.024239 
L 171.451636 114.668243 
L 172.161818 126.498584 
L 172.872 134.315101 
L 173.582182 128.351816 
L 174.292364 144.512108 
L 175.002545 141.908699 
L 175.712727 136.860302 
L 176.422909 134.26723 
L 177.133091 121.966316 
L 177.843273 119.950553 
L 178.553455 119.493333 
L 179.263636 122.05073 
L 179.973818 115.328867 
L 180.684 119.208442 
L 181.394182 118.015797 
L 182.104364 113.599657 
L 182.814545 124.822108 
L 183.524727 127.479511 
L 184.234909 133.567316 
L 184.945091 138.294286 
L 185.655273 135.163195 
L 186.365455 137.371877 
L 187.075636 130.190493 
L 187.785818 134.990354 
L 188.496 130.476406 
L 189.206182 119.538287 
L 189.916364 112.604885 
L 190.626545 114.857943 
L 191.336727 126.45575 
L 192.046909 117.410671 
L 192.757091 117.217254 
L 194.177455 120.542329 
L 194.887636 118.621226 
L 195.597818 108.860882 
L 196.308 108.307424 
L 197.018182 101.913769 
L 197.728364 114.526606 
L 198.438545 116.149708 
L 199.148727 130.052779 
L 199.858909 130.623851 
L 201.279273 145.696991 
L 201.989455 133.4192 
L 202.699636 147.610865 
L 203.409818 148.499345 
L 204.12 144.524781 
L 204.830182 149.693345 
L 205.540364 145.565166 
L 206.250545 144.350577 
L 206.960727 144.906087 
L 207.670909 157.67336 
L 208.381091 158.582479 
L 209.091273 146.066046 
L 209.801455 151.545729 
L 210.511636 159.907072 
L 211.221818 151.645915 
L 211.932 152.048733 
L 212.642182 159.298193 
L 213.352364 159.045202 
L 214.062545 160.497266 
L 214.772727 161.177505 
L 215.482909 158.223767 
L 216.193091 152.0398 
L 217.613455 144.268439 
L 218.323636 146.996511 
L 219.033818 146.655326 
L 219.744 147.849942 
L 220.454182 160.570248 
L 221.164364 167.574662 
L 221.874545 176.138237 
L 222.584727 168.912917 
L 223.294909 172.721093 
L 224.005091 160.239834 
L 224.715273 164.810562 
L 225.425455 162.661614 
L 226.135636 161.801941 
L 226.845818 161.548121 
L 227.556 158.592932 
L 228.266182 157.978623 
L 228.976364 158.658422 
L 229.686545 155.218688 
L 230.396727 155.779338 
L 231.106909 161.134003 
L 231.817091 168.081681 
L 232.527273 161.110003 
L 233.237455 159.659257 
L 233.947636 150.265661 
L 234.657818 157.122213 
L 235.368 151.709296 
L 236.078182 159.597898 
L 236.788364 166.142789 
L 238.208727 177.231385 
L 238.918909 170.774023 
L 239.629091 167.006768 
L 240.339273 167.536823 
L 241.049455 170.912738 
L 241.759636 176.195843 
L 242.469818 183.068376 
L 243.18 185.149527 
L 243.890182 178.289565 
L 244.600364 166.95333 
L 245.310545 164.783423 
L 246.020727 167.913575 
L 246.730909 161.053068 
L 247.441091 151.961171 
L 248.151273 154.735299 
L 248.861455 161.394639 
L 249.571636 160.862426 
L 250.281818 158.133173 
L 250.992 166.24452 
L 251.702182 168.377976 
L 252.412364 171.748398 
L 253.122545 166.096823 
L 253.832727 162.472204 
L 254.542909 155.208939 
L 255.253091 160.96837 
L 255.963273 158.542342 
L 256.673455 160.594114 
L 257.383636 155.912435 
L 258.804 148.240788 
L 259.514182 149.928319 
L 260.224364 149.519271 
L 260.934545 152.366348 
L 261.644727 151.963237 
L 262.354909 151.172494 
L 263.065091 154.763528 
L 263.775273 152.533623 
L 264.485455 158.121591 
L 265.195636 165.33123 
L 265.905818 163.670655 
L 266.616 161.085755 
L 267.326182 154.419548 
L 268.036364 154.823525 
L 268.746545 155.762559 
L 269.456727 153.322911 
L 270.166909 155.576207 
L 270.877091 158.91192 
L 271.587273 153.207321 
L 272.297455 148.482963 
L 273.007636 149.728332 
L 273.717818 156.396974 
L 274.428 161.805642 
L 275.138182 162.886695 
L 275.848364 161.618065 
L 276.558545 148.286007 
L 277.268727 143.829125 
L 277.978909 137.423902 
L 278.689091 125.880686 
L 279.399273 124.103868 
L 280.109455 133.417829 
L 280.819636 136.70899 
L 281.529818 148.407487 
L 282.24 145.05567 
L 282.950182 149.063833 
L 283.660364 147.405908 
L 284.370545 147.734712 
L 285.080727 156.792645 
L 285.790909 149.863547 
L 286.501091 151.082889 
L 287.921455 143.838028 
L 288.631636 149.017479 
L 289.341818 146.567414 
L 290.052 151.63623 
L 290.762182 152.699939 
L 292.182545 125.84951 
L 292.892727 120.200914 
L 293.602909 120.087113 
L 294.313091 117.444325 
L 295.023273 115.49192 
L 295.733455 125.733251 
L 296.443636 122.202826 
L 297.153818 132.845483 
L 297.864 136.147089 
L 298.574182 140.626354 
L 299.284364 139.407953 
L 299.994545 147.797281 
L 300.704727 153.748543 
L 301.414909 152.746361 
L 302.125091 149.628943 
L 302.835273 157.963177 
L 303.545455 163.28176 
L 304.255636 159.233075 
L 304.965818 165.163505 
L 305.676 164.127131 
L 306.386182 163.839537 
L 307.096364 161.036445 
L 307.806545 172.798611 
L 308.516727 180.227138 
L 309.226909 176.855818 
L 310.647273 168.02164 
L 311.357455 159.706487 
L 312.067636 163.750286 
L 312.777818 155.111392 
L 313.488 156.921024 
L 314.198182 157.943672 
L 314.908364 152.064842 
L 315.618545 147.354012 
L 316.328727 143.572687 
L 317.038909 137.764437 
L 317.749091 137.355366 
L 318.459273 140.155732 
L 319.169455 137.032537 
L 319.879636 131.090851 
L 320.589818 128.21779 
L 321.3 137.467023 
L 322.010182 125.739326 
L 322.720364 121.091317 
L 323.430545 123.981616 
L 324.140727 129.383543 
L 324.850909 133.515871 
L 325.561091 135.94485 
L 326.981455 141.836421 
L 327.691636 144.441957 
L 328.401818 144.103422 
L 329.112 146.36705 
L 329.822182 158.515823 
L 330.532364 159.827782 
L 331.242545 153.371395 
L 331.952727 153.988613 
L 332.662909 141.805137 
L 333.373091 139.294675 
L 334.083273 127.739349 
L 334.793455 123.000796 
L 336.213818 141.520673 
L 336.924 145.212725 
L 337.634182 146.401824 
L 338.344364 134.63249 
L 339.054545 133.915955 
L 339.764727 127.533822 
L 340.474909 128.337618 
L 341.185091 131.160943 
L 341.895273 144.371972 
L 342.605455 141.298134 
L 343.315636 144.081202 
L 344.025818 140.917727 
L 344.736 141.096529 
L 345.446182 143.100918 
L 346.156364 147.434495 
L 346.866545 149.214211 
L 348.286909 142.041803 
L 348.997091 146.510688 
L 349.707273 155.320051 
L 350.417455 153.990498 
L 351.127636 154.725896 
L 351.837818 147.709359 
L 352.548 146.734559 
L 353.258182 155.034811 
L 353.968364 155.730531 
L 355.388727 145.432975 
L 356.098909 151.200398 
L 356.809091 153.441917 
L 357.519273 152.273443 
L 358.229455 154.8344 
L 358.939636 149.417061 
L 359.649818 147.877142 
L 360.36 145.396928 
L 361.070182 135.300289 
L 361.780364 138.39737 
L 363.200727 150.636874 
L 363.910909 142.06274 
L 364.621091 139.521068 
L 365.331273 144.117922 
L 366.041455 142.050934 
L 366.751636 129.846893 
L 367.461818 132.788951 
L 368.172 132.582113 
L 368.882182 140.365444 
L 369.592364 152.12385 
L 371.012727 161.230331 
L 371.722909 154.973998 
L 372.433091 153.613333 
L 373.143273 163.254711 
L 373.853455 156.758585 
L 374.563636 157.000334 
L 375.273818 160.92092 
L 376.694182 174.886705 
L 377.404364 166.589575 
L 378.114545 166.474827 
L 378.824727 171.493664 
L 379.534909 177.936474 
L 380.245091 169.023193 
L 380.955273 175.057427 
L 381.665455 170.089995 
L 382.375636 169.976646 
L 383.085818 166.121471 
L 383.796 161.590827 
L 384.506182 163.0768 
L 385.216364 160.186366 
L 385.926545 155.600455 
L 386.636727 160.667619 
L 387.346909 160.436538 
L 388.057091 164.683004 
L 388.767273 162.470923 
L 390.187636 171.789062 
L 390.897818 181.371628 
L 391.608 181.626647 
L 392.318182 183.554613 
L 393.028364 176.473217 
L 393.738545 173.209175 
L 394.448727 184.02071 
L 395.158909 190.455992 
L 395.869091 176.683679 
L 396.579273 174.985839 
L 397.289455 178.662608 
L 397.999636 178.278317 
L 398.709818 180.757765 
L 399.42 180.733514 
L 400.130182 183.438346 
L 400.840364 180.379941 
L 401.550545 186.389518 
L 402.260727 185.710925 
L 402.970909 191.31968 
L 403.681091 189.854505 
L 404.391273 190.590719 
L 405.101455 197.244135 
L 405.811636 198.084301 
L 406.521818 194.445191 
L 407.232 187.839301 
L 407.942182 186.127494 
L 408.652364 187.053341 
L 409.362545 182.360591 
L 410.782909 185.250201 
L 411.493091 181.582953 
L 412.203273 176.319392 
L 412.913455 172.169954 
L 413.623636 170.711556 
L 414.333818 167.825854 
L 415.044 165.670204 
L 415.754182 162.726095 
L 416.464364 163.493171 
L 417.174545 172.713343 
L 417.884727 177.050655 
L 418.594909 185.362546 
L 420.015273 173.803746 
L 420.725455 178.756946 
L 421.435636 189.257362 
L 422.145818 184.722209 
L 422.856 190.997129 
L 423.566182 198.387078 
L 424.276364 200.906116 
L 424.986545 195.261629 
L 425.696727 191.002109 
L 426.406909 191.021259 
L 427.117091 185.792337 
L 427.827273 182.36491 
L 428.537455 175.621097 
L 429.247636 174.676592 
L 429.957818 175.902392 
L 430.668 183.752696 
L 431.378182 189.089006 
L 432.088364 185.383789 
L 432.798545 191.603448 
L 433.508727 189.422713 
L 434.218909 190.876722 
L 434.929091 193.8868 
L 435.639273 189.654437 
L 436.349455 190.079211 
L 437.059636 198.029209 
L 437.769818 194.628652 
L 438.48 206.293514 
L 439.190182 206.942227 
L 439.900364 213.51492 
L 440.610545 214.42971 
L 441.320727 209.854629 
L 442.030909 209.962781 
L 442.741091 203.925248 
L 443.451273 205.010831 
L 444.161455 210.275657 
L 444.871636 202.433934 
L 445.581818 204.054863 
L 446.292 199.601897 
L 447.002182 192.264298 
L 447.712364 200.939037 
L 448.422545 195.685384 
L 449.132727 184.631263 
L 449.842909 189.888954 
L 450.553091 183.305875 
L 451.263273 178.090562 
L 451.973455 184.572197 
L 452.683636 182.989427 
L 453.393818 172.581492 
L 454.104 178.859037 
L 454.814182 179.743668 
L 455.524364 183.977655 
L 456.234545 189.653426 
L 456.944727 187.109588 
L 457.654909 191.744009 
L 458.365091 186.092293 
L 459.075273 182.408835 
L 459.785455 185.739906 
L 460.495636 183.434983 
L 461.205818 184.765607 
L 461.916 191.158978 
L 463.336364 189.111982 
L 464.046545 179.402072 
L 464.756727 180.349954 
L 465.466909 183.007884 
L 466.177091 173.342106 
L 466.887273 171.862902 
L 467.597455 176.100402 
L 468.307636 173.326318 
L 469.017818 168.252219 
L 469.728 172.85768 
L 470.438182 168.785431 
L 471.148364 160.39668 
L 471.858545 157.818355 
L 472.568727 159.02517 
L 473.278909 148.545654 
L 473.989091 145.764395 
L 474.699273 134.47297 
L 475.409455 137.039192 
L 477.54 147.429014 
L 478.250182 146.491694 
L 478.960364 151.276356 
L 479.670545 161.910643 
L 480.380727 158.961583 
L 481.090909 154.351706 
L 481.801091 159.568472 
L 482.511273 156.047212 
L 483.221455 161.698054 
L 483.931636 165.566708 
L 484.641818 166.198329 
L 486.062182 185.167883 
L 486.772364 180.633799 
L 487.482545 166.122346 
L 488.192727 164.260883 
L 490.323273 173.778945 
L 491.033455 182.216916 
L 491.743636 174.484299 
L 492.453818 171.451633 
L 493.164 176.55204 
L 493.874182 182.959421 
L 494.584364 177.179031 
L 495.294545 174.344311 
L 496.004727 178.024427 
L 496.714909 188.141089 
L 497.425091 193.154717 
L 498.135273 201.869591 
L 498.845455 204.926832 
L 499.555636 202.765568 
L 500.265818 194.723487 
L 500.976 194.117123 
L 501.686182 204.509398 
L 502.396364 220.300354 
L 503.106545 222.462391 
L 503.816727 225.788185 
L 504.526909 228.132989 
L 505.237091 228.141325 
L 505.947273 233.859819 
L 506.657455 227.20717 
L 507.367636 218.935818 
L 508.077818 212.708164 
L 508.788 218.964219 
L 509.498182 217.501287 
L 510.208364 214.924137 
L 510.918545 211.410758 
L 511.628727 218.446306 
L 512.338909 216.755323 
L 513.759273 215.235769 
L 514.469455 214.916646 
L 515.179636 221.457928 
L 515.889818 231.973918 
L 516.6 234.877276 
L 517.310182 244.813156 
L 518.020364 237.295479 
L 518.730545 233.578804 
L 519.440727 234.753799 
L 520.861091 239.627472 
L 521.571273 238.535194 
L 522.281455 231.972698 
L 522.991636 244.006528 
L 523.701818 246.626283 
L 524.412 254.107962 
L 525.122182 249.244523 
L 525.832364 245.197907 
L 526.542545 247.07195 
L 527.252727 250.872942 
L 527.962909 251.467082 
L 528.673091 248.563961 
L 529.383273 246.214493 
L 530.093455 242.572557 
L 530.803636 253.119812 
L 531.513818 254.807047 
L 532.224 258.108708 
L 532.934182 259.426163 
L 533.644364 256.455529 
L 534.354545 257.025577 
L 535.064727 250.073304 
L 535.774909 261.661569 
L 536.485091 257.782413 
L 537.195273 265.628229 
L 537.905455 271.123339 
L 538.615636 271.424649 
L 539.325818 270.458518 
L 540.036 272.337876 
L 540.746182 274.587462 
L 541.456364 282.434031 
L 542.166545 295.223699 
L 542.876727 296.217445 
L 543.586909 292.985279 
L 544.297091 298.352563 
L 545.007273 295.373863 
L 545.717455 296.742009 
L 546.427636 292.840808 
L 547.137818 285.306844 
L 547.848 287.305291 
L 548.558182 301.042994 
L 549.978545 308.502848 
L 550.688727 314.5326 
L 551.398909 323.214761 
L 552.109091 322.739376 
L 552.819273 317.277118 
L 553.529455 310.697514 
L 554.239636 319.40105 
L 555.66 316.38198 
L 556.370182 315.435474 
L 557.080364 310.604605 
L 557.790545 318.347428 
L 558.500727 314.530112 
L 559.210909 316.571873 
L 559.921091 320.227264 
L 560.631273 320.376689 
L 561.341455 319.805629 
L 562.051636 311.09277 
L 562.761818 315.094916 
L 563.472 314.587887 
L 564.182182 316.410418 
L 564.892364 317.379125 
L 565.602545 312.745002 
L 566.312727 321.042022 
L 567.022909 320.252899 
L 567.733091 319.048621 
L 568.443273 325.875301 
L 569.153455 330.97359 
L 569.863636 330.505603 
L 570.573818 330.271988 
L 571.994182 336.845525 
L 572.704364 342.9337 
L 573.414545 347.017543 
L 574.124727 342.69203 
L 574.834909 344.323046 
L 575.545091 347.475981 
L 576.255273 352.30685 
L 576.965455 358.747362 
L 577.675636 359.340117 
L 578.385818 348.496008 
L 579.096 346.347458 
L 579.806182 340.536368 
L 580.516364 333.057864 
L 581.226545 334.897752 
L 581.936727 333.57016 
L 583.357091 326.254176 
L 584.067273 318.525066 
L 584.777455 318.062979 
L 585.487636 317.03775 
L 586.197818 320.56723 
L 586.908 321.274451 
L 587.618182 323.126123 
L 588.328364 325.961682 
L 589.038545 325.143796 
L 589.748727 328.053894 
L 590.458909 339.207297 
L 591.169091 348.384496 
L 591.879273 350.88571 
L 592.589455 354.969849 
L 593.299636 351.825481 
L 594.009818 347.540921 
L 594.72 340.847783 
L 595.430182 354.318531 
L 596.140364 350.818384 
L 596.850545 356.190686 
L 597.560727 354.959021 
L 598.270909 366.074506 
L 598.981091 362.894366 
L 599.691273 362.454662 
L 600.401455 364.282183 
L 601.111636 360.373746 
L 601.821818 355.712462 
L 602.532 359.879343 
L 603.242182 355.147948 
L 603.952364 352.82069 
L 604.662545 347.941423 
L 605.372727 347.377178 
L 606.082909 339.01799 
L 606.793091 338.158384 
L 607.503273 337.492719 
L 608.213455 336.640363 
L 608.923636 335.190133 
L 609.633818 327.788141 
L 610.344 325.896536 
L 611.054182 320.863079 
L 611.764364 322.952177 
L 612.474545 317.751505 
L 613.184727 317.545634 
L 613.894909 318.162418 
L 614.605091 313.967545 
L 615.315273 321.147441 
L 616.025455 319.741144 
L 616.735636 312.402576 
L 617.445818 320.094385 
L 618.156 329.841488 
L 618.866182 327.334914 
L 619.576364 325.654561 
L 620.286545 326.188632 
L 620.996727 329.912405 
L 621.706909 328.635908 
L 622.417091 324.781249 
L 623.127273 330.53598 
L 623.837455 331.275499 
L 624.547636 337.008461 
L 625.257818 344.131959 
L 625.968 347.803867 
L 626.678182 352.484362 
L 627.388364 345.142025 
L 628.098545 335.515323 
L 628.808727 333.960072 
L 629.518909 338.322266 
L 630.229091 346.259966 
L 630.939273 357.144224 
L 631.649455 350.120773 
L 632.359636 350.337791 
L 633.069818 351.277447 
L 633.78 359.899829 
L 634.490182 359.777406 
L 635.200364 362.443996 
L 635.910545 360.377475 
L 636.620727 359.338917 
L 637.330909 350.485566 
L 638.041091 335.767138 
L 638.751273 333.034255 
L 639.461455 326.211158 
L 640.171636 321.749978 
L 640.881818 323.090379 
L 641.592 322.093153 
L 643.012364 313.882629 
L 643.722545 310.900689 
L 644.432727 318.707704 
L 645.142909 318.747334 
L 645.853091 319.128568 
L 646.563273 323.898997 
L 647.273455 324.916641 
L 647.983636 326.340012 
L 648.693818 331.530845 
L 649.404 323.171149 
L 650.114182 332.888337 
L 650.824364 330.329441 
L 651.534545 324.851211 
L 652.244727 322.565517 
L 652.954909 327.169287 
L 653.665091 325.97549 
L 654.375273 318.891353 
L 655.085455 318.672801 
L 655.795636 315.287362 
L 657.216 307.092992 
L 657.926182 307.606907 
L 658.636364 308.548262 
L 659.346545 311.797523 
L 660.056727 317.610062 
L 660.766909 315.833163 
L 661.477091 309.173789 
L 662.187273 297.953298 
L 662.897455 299.63315 
L 663.607636 294.497885 
L 664.317818 294.84156 
L 665.028 289.988067 
L 666.448364 276.315722 
L 667.158545 273.970025 
L 667.868727 272.168833 
L 668.578909 280.166989 
L 669.289091 275.286646 
L 669.999273 274.876456 
L 670.709455 279.068284 
L 671.419636 277.036746 
L 672.129818 265.380503 
L 672.84 260.325757 
L 673.550182 260.469689 
L 674.260364 262.899555 
L 674.970545 265.939391 
L 675.680727 265.395527 
L 676.390909 274.380669 
L 677.101091 279.854283 
L 677.811273 286.844597 
L 678.521455 278.660471 
L 679.231636 275.419896 
L 680.652 278.011944 
L 681.362182 274.991203 
L 682.782545 257.579936 
L 683.492727 251.184538 
L 684.202909 252.901301 
L 684.913091 261.645963 
L 685.623273 266.415395 
L 686.333455 266.541545 
L 687.043636 268.635625 
L 687.753818 269.525919 
L 688.464 271.041475 
L 689.174182 272.018206 
L 689.884364 271.2318 
L 690.594545 271.980655 
L 691.304727 278.398728 
L 692.014909 282.306522 
L 692.725091 287.587476 
L 693.435273 290.885902 
L 694.145455 290.357114 
L 695.565818 296.281416 
L 696.276 302.19221 
L 696.986182 298.864554 
L 697.696364 296.453996 
L 698.406545 287.417958 
L 699.116727 288.344855 
L 699.826909 282.000349 
L 700.537091 278.103882 
L 701.247273 278.166646 
L 701.957455 286.560883 
L 702.667636 286.489735 
L 703.377818 289.746697 
L 704.088 290.111726 
L 704.798182 298.300345 
L 705.508364 292.796097 
L 706.218545 288.270803 
L 706.928727 290.141954 
L 707.638909 287.651896 
L 708.349091 279.061567 
L 709.059273 282.204688 
L 709.769455 291.005838 
L 710.479636 288.872412 
L 711.189818 292.359654 
L 711.9 296.433356 
L 712.610182 295.8786 
L 713.320364 299.741481 
L 714.030545 293.212564 
L 714.740727 299.526989 
L 715.450909 309.167449 
L 716.161091 313.254529 
L 716.871273 306.991291 
L 717.581455 302.995643 
L 718.291636 297.616803 
L 719.001818 305.969645 
L 719.712 308.32463 
L 720.422182 304.249702 
L 721.132364 305.06534 
L 721.842545 305.315047 
L 722.552727 308.516954 
L 723.262909 314.638287 
L 723.973091 318.687451 
L 724.683273 309.014315 
L 725.393455 310.544668 
L 726.103636 304.298729 
L 726.813818 293.06574 
L 727.524 295.878634 
L 728.234182 295.744317 
L 728.944364 295.970331 
L 729.654545 305.394715 
L 730.364727 295.682442 
L 731.074909 298.785451 
L 731.785091 292.732839 
L 732.495273 285.485898 
L 733.205455 284.563617 
L 733.915636 278.671759 
L 734.625818 276.014361 
L 735.336 285.406265 
L 736.046182 290.044697 
L 736.756364 291.29827 
L 737.466545 286.402123 
L 738.176727 286.439873 
L 738.886909 287.702972 
L 739.597091 294.95768 
L 740.307273 299.801325 
L 741.017455 301.990476 
L 741.727636 311.431346 
L 742.437818 310.885387 
L 743.148 315.934182 
L 743.858182 316.909431 
L 744.568364 317.616859 
L 745.278545 311.649217 
L 745.988727 301.066167 
L 746.698909 309.505712 
L 747.409091 304.524913 
L 748.119273 306.254688 
L 748.829455 301.261011 
L 749.539636 308.419207 
L 750.249818 316.917895 
L 750.96 311.060809 
L 752.380364 314.92359 
L 753.090545 313.080588 
L 753.800727 305.864361 
L 754.510909 300.13355 
L 755.221091 311.363371 
L 755.931273 315.324111 
L 756.641455 327.460712 
L 757.351636 322.346402 
L 758.061818 338.600818 
L 758.772 345.513056 
L 759.482182 349.714557 
L 760.192364 333.956162 
L 760.902545 331.382493 
L 761.612727 323.942261 
L 762.322909 333.482055 
L 763.033091 331.395895 
L 763.743273 330.367372 
L 764.453455 323.750143 
L 765.163636 323.7021 
L 765.873818 330.315756 
L 766.584 334.18203 
L 767.294182 329.642298 
L 768.004364 336.963326 
L 768.714545 332.979212 
L 769.424727 337.120625 
L 770.134909 329.615632 
L 770.845091 328.058785 
L 771.555273 321.420637 
L 772.265455 312.492781 
L 772.975636 317.72753 
L 773.685818 319.148909 
L 774.396 326.668743 
L 775.816364 331.695853 
L 776.526545 330.026174 
L 777.236727 325.933501 
L 777.946909 340.267568 
L 778.657091 326.29273 
L 779.367273 344.771289 
L 780.077455 347.28406 
L 780.787636 354.351524 
L 782.208 350.513541 
L 782.918182 340.216867 
L 783.628364 342.257408 
L 784.338545 346.727848 
L 785.048727 343.154444 
L 785.758909 344.582777 
L 786.469091 332.400851 
L 787.179273 326.630216 
L 787.889455 325.075706 
L 788.599636 324.988011 
L 789.309818 325.545213 
L 790.730182 338.432241 
L 791.440364 337.81852 
L 792.150545 325.784274 
L 792.860727 329.175522 
L 793.570909 323.499591 
L 794.281091 325.33027 
L 794.991273 334.559003 
L 795.701455 334.969155 
L 796.411636 336.534866 
L 797.832 332.013714 
L 798.542182 324.68966 
L 799.252364 327.888877 
L 799.962545 327.588621 
L 800.672727 331.160571 
L 801.382909 333.242261 
L 802.093091 329.288416 
L 802.803273 318.726258 
L 803.513455 329.443093 
L 804.223636 327.212929 
L 804.933818 327.358878 
L 805.644 320.506729 
L 806.354182 320.474337 
L 807.064364 323.972777 
L 807.774545 319.967444 
L 808.484727 320.263667 
L 809.194909 311.327321 
L 809.905091 312.996516 
L 810.615273 310.135325 
L 811.325455 313.516505 
L 812.035636 302.488416 
L 812.745818 310.087219 
L 813.456 307.41221 
L 814.166182 301.107863 
L 814.876364 302.610923 
L 815.586545 304.750841 
L 816.296727 307.752956 
L 817.006909 303.672204 
L 817.717091 307.857131 
L 818.427273 304.334617 
L 819.137455 306.813586 
L 819.847636 304.999775 
L 821.268 302.078383 
L 821.978182 306.385796 
L 822.688364 304.239419 
L 823.398545 305.131093 
L 824.108727 312.968306 
L 825.529091 315.270601 
L 826.239273 315.764266 
L 826.949455 312.626176 
L 827.659636 326.177509 
L 828.369818 318.645796 
L 829.08 318.589957 
L 829.790182 320.116221 
L 830.500364 324.395714 
L 831.210545 338.225404 
L 831.920727 333.434562 
L 832.630909 327.185976 
L 833.341091 318.899022 
L 834.051273 312.170304 
L 834.761455 309.534878 
L 835.471636 315.773863 
L 836.181818 315.586999 
L 836.892 324.079743 
L 837.602182 324.713799 
L 838.312364 320.242682 
L 839.022545 320.65908 
L 839.732727 320.728349 
L 840.442909 327.046265 
L 841.153091 321.455372 
L 841.863273 326.704787 
L 842.573455 330.326349 
L 843.283636 324.721804 
L 843.993818 326.548032 
L 844.704 330.627321 
L 845.414182 327.554618 
L 846.124364 314.549225 
L 846.834545 323.267515 
L 847.544727 322.197958 
L 848.254909 323.472818 
L 848.965091 326.654932 
L 849.675273 326.867699 
L 850.385455 323.731698 
L 851.095636 318.479429 
L 851.805818 311.323247 
L 852.516 328.648181 
L 853.226182 330.060505 
L 853.936364 336.539196 
L 854.646545 338.000498 
L 855.356727 338.020559 
L 856.066909 334.519177 
L 856.777091 336.042812 
L 857.487273 335.735405 
L 858.197455 333.748733 
L 858.907636 335.119827 
L 859.617818 341.230727 
L 860.328 339.624125 
L 861.038182 343.827584 
L 861.748364 350.920642 
L 862.458545 345.941904 
L 863.168727 335.940711 
L 863.878909 334.674115 
L 864.589091 349.731921 
L 865.299273 348.793972 
L 866.009455 350.042557 
L 866.719636 342.94577 
L 867.429818 351.74181 
L 868.14 348.970309 
L 868.850182 358.834565 
L 869.560364 358.123246 
L 870.270545 362.315833 
L 870.980727 361.250321 
L 871.690909 369.36 
L 871.690909 369.36 
" clip-path="url(#p1aea6ea92b)" style="fill: none; stroke: #ff7f0e; stroke-width: 1.5; stroke-linecap: square"/>
   </g>
   <g id="line2d_14">
    <path d="M 162.219273 227.071447 
L 164.349818 226.951262 
L 165.06 226.673595 
L 166.480364 226.786113 
L 167.190545 226.780661 
L 167.900727 226.179986 
L 168.610909 226.088541 
L 169.321091 226.112374 
L 170.031273 225.969179 
L 170.741455 225.450288 
L 171.451636 225.405257 
L 172.872 224.029286 
L 173.582182 223.652322 
L 174.292364 222.687279 
L 175.002545 222.569061 
L 175.712727 222.640623 
L 176.422909 222.523798 
L 177.133091 222.100855 
L 179.263636 222.106397 
L 179.973818 221.818411 
L 182.104364 221.801998 
L 182.814545 221.180015 
L 187.075636 220.918846 
L 188.496 220.732529 
L 189.206182 220.39666 
L 189.916364 220.448011 
L 190.626545 220.38752 
L 191.336727 219.846621 
L 192.046909 219.682895 
L 194.887636 219.618412 
L 195.597818 219.118166 
L 197.018182 219.094809 
L 197.728364 217.982793 
L 198.438545 218.012549 
L 199.148727 217.660538 
L 199.858909 217.665254 
L 200.569091 217.508383 
L 201.279273 217.210703 
L 201.989455 216.579217 
L 202.699636 216.163733 
L 204.12 216.140897 
L 205.540364 215.883305 
L 206.960727 215.918292 
L 207.670909 215.519379 
L 208.381091 215.529715 
L 209.091273 214.993629 
L 209.801455 214.892195 
L 210.511636 214.616377 
L 211.932 214.5029 
L 214.772727 214.483968 
L 215.482909 214.574306 
L 216.193091 214.438338 
L 216.903273 214.44983 
L 217.613455 214.336323 
L 219.744 214.368073 
L 220.454182 213.873044 
L 221.874545 213.358004 
L 222.584727 213.209613 
L 223.294909 213.190095 
L 224.005091 212.738587 
L 224.715273 212.845306 
L 231.106909 212.755679 
L 232.527273 212.350742 
L 233.237455 212.309207 
L 233.947636 211.973945 
L 234.657818 211.806567 
L 235.368 211.918456 
L 236.078182 211.549678 
L 237.498545 211.576475 
L 238.918909 211.590488 
L 241.049455 211.620739 
L 241.759636 211.375145 
L 242.469818 211.269914 
L 243.18 211.302144 
L 243.890182 211.005465 
L 244.600364 210.406578 
L 246.020727 210.24993 
L 246.730909 210.059963 
L 249.571636 209.922736 
L 250.281818 209.868615 
L 250.992 209.450884 
L 253.832727 209.1526 
L 254.542909 208.758204 
L 261.644727 208.051757 
L 263.065091 207.961531 
L 264.485455 207.834854 
L 265.195636 207.3992 
L 266.616 207.405413 
L 267.326182 207.042079 
L 268.746545 207.023416 
L 270.877091 206.812554 
L 272.297455 206.486353 
L 273.717818 206.456738 
L 275.848364 206.296781 
L 276.558545 206.391843 
L 277.268727 206.191677 
L 277.978909 206.132652 
L 278.689091 205.804234 
L 279.399273 205.814733 
L 280.109455 205.134959 
L 280.819636 204.99525 
L 281.529818 204.306398 
L 282.24 204.114774 
L 282.950182 204.309782 
L 284.370545 204.341731 
L 285.790909 203.631932 
L 287.211273 203.585217 
L 289.341818 203.131533 
L 290.762182 203.027958 
L 292.182545 202.100335 
L 294.313091 201.949005 
L 295.023273 202.001685 
L 295.733455 201.615587 
L 296.443636 201.631732 
L 297.864 201.367559 
L 299.284364 201.448675 
L 299.994545 200.748533 
L 302.125091 200.70636 
L 302.835273 200.603859 
L 303.545455 200.645142 
L 304.255636 200.481821 
L 304.965818 200.588305 
L 307.806545 200.374486 
L 308.516727 200.139602 
L 309.937091 200.251598 
L 312.067636 200.060231 
L 312.777818 199.354891 
L 314.198182 199.335956 
L 314.908364 199.197273 
L 315.618545 199.226842 
L 317.749091 198.887124 
L 318.459273 199.003255 
L 321.3 198.75688 
L 322.010182 197.923891 
L 323.430545 197.752659 
L 324.140727 197.402771 
L 324.850909 197.200967 
L 327.691636 197.065039 
L 331.952727 197.06449 
L 332.662909 196.810843 
L 333.373091 196.814152 
L 334.083273 195.91098 
L 334.793455 195.82445 
L 335.503636 195.611964 
L 336.213818 194.995826 
L 337.634182 194.949352 
L 338.344364 194.368777 
L 339.054545 194.377942 
L 339.764727 194.178652 
L 341.185091 194.198519 
L 341.895273 193.705469 
L 344.736 193.469541 
L 346.866545 193.460283 
L 348.997091 193.09733 
L 349.707273 192.6614 
L 351.127636 192.582754 
L 351.837818 192.352582 
L 352.548 192.344045 
L 353.258182 192.016976 
L 354.678545 191.943114 
L 355.388727 191.718656 
L 358.229455 191.602254 
L 360.36 191.462624 
L 361.070182 191.533114 
L 362.490545 191.371928 
L 363.200727 190.901554 
L 363.910909 191.074044 
L 366.041455 190.908576 
L 366.751636 190.665063 
L 368.172 190.741579 
L 368.882182 190.605106 
L 369.592364 189.938039 
L 370.302545 189.735312 
L 371.012727 189.650798 
L 371.722909 189.766965 
L 372.433091 189.725167 
L 373.853455 189.245739 
L 375.273818 189.196438 
L 375.984 189.112636 
L 376.694182 188.901969 
L 378.114545 188.998834 
L 378.824727 188.940778 
L 380.245091 188.368747 
L 381.665455 187.990272 
L 383.085818 187.925254 
L 383.796 187.835558 
L 384.506182 187.881817 
L 385.216364 187.783816 
L 386.636727 187.938318 
L 389.477455 187.899001 
L 391.608 187.594917 
L 393.028364 187.485388 
L 393.738545 187.341002 
L 394.448727 186.963923 
L 395.158909 186.958085 
L 395.869091 185.721026 
L 396.579273 185.776028 
L 398.709818 185.649037 
L 399.42 185.649047 
L 400.130182 185.464847 
L 402.260727 185.323507 
L 402.970909 184.974588 
L 404.391273 184.940866 
L 405.101455 184.667677 
L 406.521818 184.596952 
L 407.232 184.240886 
L 409.362545 184.092357 
L 411.493091 183.948323 
L 412.203273 183.73815 
L 413.623636 183.82474 
L 416.464364 183.675966 
L 417.174545 183.201535 
L 417.884727 183.19163 
L 418.594909 182.753308 
L 420.015273 182.547896 
L 420.725455 182.488081 
L 421.435636 181.690173 
L 422.145818 181.85611 
L 423.566182 181.252451 
L 425.696727 181.176118 
L 426.406909 181.176517 
L 427.117091 180.981859 
L 427.827273 180.927208 
L 428.537455 180.728588 
L 429.957818 180.702605 
L 430.668 180.471905 
L 431.378182 180.492315 
L 432.798545 180.208385 
L 434.218909 180.20472 
L 434.929091 180.114816 
L 435.639273 179.842213 
L 436.349455 179.855207 
L 437.059636 179.566205 
L 439.190182 179.451956 
L 439.900364 179.130972 
L 440.610545 179.141538 
L 441.320727 179.301494 
L 442.030909 179.298875 
L 442.741091 179.022194 
L 444.161455 178.843343 
L 444.871636 178.312554 
L 447.002182 178.314156 
L 447.712364 178.032015 
L 448.422545 177.903017 
L 449.132727 177.304385 
L 451.973455 176.186264 
L 452.683636 176.192086 
L 453.393818 175.795542 
L 454.104 175.664526 
L 456.944727 175.660029 
L 459.075273 175.256484 
L 460.495636 175.226058 
L 463.336364 175.226756 
L 464.046545 174.956795 
L 466.887273 175.000549 
L 469.017818 174.813076 
L 470.438182 174.79646 
L 471.148364 174.543124 
L 471.858545 174.439819 
L 472.568727 174.449502 
L 473.278909 174.040575 
L 476.829818 173.837341 
L 478.960364 173.740126 
L 479.670545 173.498008 
L 481.090909 173.341366 
L 481.801091 173.132242 
L 482.511273 173.070773 
L 483.221455 173.122379 
L 484.641818 173.051392 
L 486.062182 172.320029 
L 486.772364 172.112139 
L 487.482545 171.148095 
L 491.033455 171.098034 
L 491.743636 170.75053 
L 493.164 170.669815 
L 493.874182 170.34687 
L 494.584364 170.15319 
L 496.004727 170.101798 
L 496.714909 169.712671 
L 498.135273 169.493745 
L 499.555636 169.510797 
L 500.265818 169.372349 
L 500.976 169.356872 
L 501.686182 168.748235 
L 502.396364 167.755215 
L 503.106545 167.671819 
L 503.816727 167.776268 
L 505.237091 167.751035 
L 505.947273 167.583481 
L 508.077818 166.204575 
L 509.498182 166.005477 
L 510.208364 166.081412 
L 512.338909 165.767476 
L 514.469455 165.756598 
L 515.889818 164.962892 
L 516.6 164.979037 
L 517.310182 164.357391 
L 518.020364 164.596281 
L 519.440727 164.661239 
L 521.571273 164.647298 
L 522.991636 164.007792 
L 523.701818 163.947625 
L 525.122182 163.301992 
L 526.542545 163.318084 
L 527.252727 163.10474 
L 530.093455 163.119785 
L 530.803636 162.448927 
L 531.513818 162.393595 
L 532.224 162.198959 
L 532.934182 162.165173 
L 533.644364 162.247594 
L 535.064727 162.180892 
L 535.774909 161.818495 
L 539.325818 161.62932 
L 540.746182 161.675899 
L 541.456364 161.211509 
L 542.166545 160.415307 
L 546.427636 160.297997 
L 547.137818 160.042535 
L 547.848 160.080762 
L 548.558182 159.215428 
L 549.268364 158.979988 
L 553.529455 158.69559 
L 554.239636 158.869704 
L 556.370182 158.872703 
L 557.080364 158.618497 
L 557.790545 158.791697 
L 560.631273 158.691875 
L 561.341455 158.723336 
L 562.761818 158.359911 
L 564.892364 158.294753 
L 566.312727 157.695655 
L 567.733091 157.704956 
L 569.153455 157.177724 
L 570.573818 157.154015 
L 571.284 156.910915 
L 571.994182 156.92859 
L 572.704364 156.674066 
L 573.414545 156.715867 
L 574.834909 156.56096 
L 575.545091 156.535314 
L 576.965455 156.226594 
L 577.675636 156.223507 
L 578.385818 155.752285 
L 579.096 155.761302 
L 579.806182 155.616294 
L 581.936727 155.722185 
L 584.067273 155.006162 
L 585.487636 155.00484 
L 586.197818 154.870847 
L 589.038545 154.887582 
L 590.458909 154.585783 
L 591.169091 154.199028 
L 591.879273 154.115789 
L 592.589455 153.880997 
L 594.009818 153.730163 
L 594.72 153.459678 
L 595.430182 152.891789 
L 596.140364 152.939037 
L 596.850545 152.774077 
L 597.560727 152.75262 
L 598.270909 151.994612 
L 601.821818 151.881766 
L 603.242182 151.444368 
L 605.372727 151.40175 
L 606.082909 151.052207 
L 608.923636 151.08973 
L 609.633818 150.788062 
L 610.344 150.779874 
L 611.764364 150.524357 
L 613.894909 150.543544 
L 614.605091 150.278546 
L 616.025455 150.195167 
L 617.445818 149.767806 
L 618.156 149.233147 
L 618.866182 149.374599 
L 620.286545 149.320118 
L 621.706909 149.452481 
L 623.127273 149.263407 
L 623.837455 149.287497 
L 624.547636 149.124646 
L 625.257818 148.702666 
L 628.808727 148.010231 
L 629.518909 148.019973 
L 630.939273 146.911908 
L 631.649455 146.686765 
L 633.069818 146.700349 
L 633.78 146.327434 
L 635.910545 146.22351 
L 637.330909 146.038507 
L 638.041091 144.825305 
L 638.751273 144.894508 
L 640.171636 144.469419 
L 642.302182 144.24537 
L 643.012364 144.106637 
L 643.722545 144.09732 
L 644.432727 143.810819 
L 645.853091 143.823295 
L 646.563273 143.452545 
L 647.983636 143.436657 
L 648.693818 143.592738 
L 649.404 143.10286 
L 650.114182 142.893666 
L 650.824364 142.839781 
L 651.534545 142.605743 
L 653.665091 142.4851 
L 654.375273 142.203483 
L 658.636364 142.141848 
L 660.766909 142.07801 
L 661.477091 141.890188 
L 662.187273 141.275312 
L 665.028 141.080987 
L 667.158545 140.911078 
L 667.868727 140.913938 
L 668.578909 140.426347 
L 669.289091 140.253358 
L 671.419636 140.269041 
L 672.129818 139.585193 
L 672.84 139.46339 
L 676.390909 139.506996 
L 677.811273 138.932088 
L 678.521455 138.542426 
L 679.941818 138.460618 
L 680.652 138.495752 
L 681.362182 138.336754 
L 682.782545 137.509698 
L 683.492727 137.550906 
L 684.202909 137.450328 
L 684.913091 137.128872 
L 687.043636 136.973109 
L 688.464 137.01643 
L 690.594545 137.0556 
L 691.304727 136.825823 
L 694.855636 136.602379 
L 695.565818 136.618169 
L 696.276 136.363659 
L 696.986182 136.502148 
L 697.696364 136.527158 
L 698.406545 136.005115 
L 701.247273 135.989679 
L 701.957455 135.625069 
L 704.088 135.509913 
L 704.798182 135.312364 
L 707.638909 135.063506 
L 708.349091 134.694648 
L 709.059273 134.758308 
L 709.769455 134.486962 
L 711.189818 134.392886 
L 711.9 134.122166 
L 712.610182 134.122565 
L 714.740727 133.574666 
L 715.450909 133.171111 
L 716.161091 133.215864 
L 716.871273 132.925608 
L 717.581455 132.761875 
L 718.291636 132.839209 
L 719.001818 132.493199 
L 722.552727 132.501386 
L 723.262909 132.107555 
L 723.973091 132.26324 
L 724.683273 131.886704 
L 725.393455 131.913694 
L 726.103636 131.683827 
L 726.813818 131.227715 
L 728.234182 131.133602 
L 728.944364 131.127216 
L 729.654545 130.835352 
L 730.364727 130.228724 
L 731.785091 129.967863 
L 733.205455 130.13644 
L 736.046182 129.674262 
L 738.886909 129.51824 
L 740.307273 129.199212 
L 741.017455 129.196877 
L 741.727636 129.008962 
L 742.437818 129.0062 
L 743.148 129.15378 
L 744.568364 129.178393 
L 746.698909 128.141075 
L 748.119273 128.056968 
L 749.539636 127.449743 
L 750.249818 127.46335 
L 750.96 127.321268 
L 753.090545 127.352211 
L 753.800727 127.044414 
L 754.510909 127.045066 
L 755.221091 126.509956 
L 755.931273 126.496919 
L 756.641455 125.838441 
L 757.351636 125.596183 
L 758.061818 124.003242 
L 758.772 123.653385 
L 759.482182 123.597357 
L 760.192364 122.708259 
L 767.294182 121.813146 
L 768.004364 121.516991 
L 769.424727 121.513016 
L 770.134909 121.34279 
L 770.845091 121.32462 
L 772.265455 120.210187 
L 777.236727 119.96776 
L 778.657091 118.376249 
L 779.367273 116.897071 
L 780.077455 116.954264 
L 780.787636 116.771359 
L 782.208 116.834407 
L 782.918182 116.087767 
L 783.628364 116.07186 
L 784.338545 115.941453 
L 785.758909 115.999471 
L 786.469091 115.117533 
L 787.179273 115.032952 
L 789.309818 115.080161 
L 790.730182 114.729547 
L 791.440364 114.729465 
L 792.150545 113.663395 
L 794.281091 113.592518 
L 794.991273 113.390317 
L 799.962545 113.256944 
L 800.672727 113.13917 
L 801.382909 113.134409 
L 802.093091 113.002701 
L 803.513455 111.848042 
L 806.354182 111.737581 
L 807.064364 111.594327 
L 807.774545 111.789087 
L 808.484727 111.7816 
L 809.194909 111.221607 
L 812.035636 111.012085 
L 812.745818 110.801189 
L 813.456 110.866308 
L 814.166182 110.729202 
L 816.296727 110.842747 
L 819.847636 110.574681 
L 820.557818 110.631341 
L 821.978182 110.515742 
L 823.398545 110.55248 
L 824.108727 110.286274 
L 824.818909 110.327465 
L 826.239273 110.254282 
L 826.949455 110.326782 
L 828.369818 109.245728 
L 830.500364 109.261392 
L 831.210545 108.643469 
L 831.920727 108.504251 
L 832.630909 108.180974 
L 833.341091 107.651981 
L 834.051273 107.313468 
L 834.761455 107.229146 
L 835.471636 107.007355 
L 836.181818 107.01005 
L 836.892 106.710427 
L 840.442909 106.652271 
L 841.153091 106.358625 
L 842.573455 106.104466 
L 843.283636 105.773423 
L 845.414182 105.634105 
L 846.834545 104.914388 
L 849.675273 104.965903 
L 851.095636 104.610235 
L 851.805818 104.229609 
L 852.516 102.734042 
L 854.646545 102.636927 
L 861.038182 102.58268 
L 861.748364 102.240529 
L 862.458545 102.074949 
L 863.168727 101.671516 
L 863.878909 101.671537 
L 864.589091 101.321112 
L 866.009455 101.353297 
L 866.719636 101.266291 
L 867.429818 101.044082 
L 868.14 101.062849 
L 868.850182 100.637159 
L 869.560364 100.665919 
L 870.270545 100.534775 
L 871.690909 100.57697 
L 871.690909 100.57697 
" clip-path="url(#p1aea6ea92b)" style="fill: none; stroke: #2ca02c; stroke-width: 1.5; stroke-linecap: square"/>
   </g>
   <g id="patch_3">
    <path d="M 126 384.48 
L 126 51.84 
" style="fill: none; stroke: #000000; stroke-width: 0.8; stroke-linejoin: miter; stroke-linecap: square"/>
   </g>
   <g id="patch_4">
    <path d="M 907.2 384.48 
L 907.2 51.84 
" style="fill: none; stroke: #000000; stroke-width: 0.8; stroke-linejoin: miter; stroke-linecap: square"/>
   </g>
   <g id="patch_5">
    <path d="M 126 384.48 
L 907.2 384.48 
" style="fill: none; stroke: #000000; stroke-width: 0.8; stroke-linejoin: miter; stroke-linecap: square"/>
   </g>
   <g id="patch_6">
    <path d="M 126 51.84 
L 907.2 51.84 
" style="fill: none; stroke: #000000; stroke-width: 0.8; stroke-linejoin: miter; stroke-linecap: square"/>
   </g>
   <g id="text_14">
    <!-- Quadratic Covariation of $X_t$ and $S_t$ -->
    <g transform="translate(414.54 45.84)scale(0.12 -0.12)">
     <defs>
      <path id="DejaVuSans-66" d="M 2375 4863 
L 2375 4384 
L 1825 4384 
Q 1516 4384 1395 4259 
Q 1275 4134 1275 3809 
L 1275 3500 
L 2222 3500 
L 2222 3053 
L 1275 3053 
L 1275 0 
L 697 0 
L 697 3053 
L 147 3053 
L 147 3500 
L 697 3500 
L 697 3744 
Q 697 4328 969 4595 
Q 1241 4863 1831 4863 
L 2375 4863 
z
" transform="scale(0.015625)"/>
      <path id="DejaVuSans-Oblique-58" d="M 878 4666 
L 1516 4666 
L 2316 2981 
L 3763 4666 
L 4500 4666 
L 2578 2438 
L 3738 0 
L 3103 0 
L 2163 1966 
L 459 0 
L -275 0 
L 1906 2509 
L 878 4666 
z
" transform="scale(0.015625)"/>
      <path id="DejaVuSans-Oblique-74" d="M 2706 3500 
L 2619 3053 
L 1472 3053 
L 1100 1153 
Q 1081 1047 1072 975 
Q 1063 903 1063 863 
Q 1063 663 1183 572 
Q 1303 481 1569 481 
L 2150 481 
L 2053 0 
L 1503 0 
Q 991 0 739 200 
Q 488 400 488 806 
Q 488 878 497 964 
Q 506 1050 525 1153 
L 897 3053 
L 409 3053 
L 500 3500 
L 978 3500 
L 1172 4494 
L 1747 4494 
L 1556 3500 
L 2706 3500 
z
" transform="scale(0.015625)"/>
      <path id="DejaVuSans-Oblique-53" d="M 3859 4513 
L 3738 3897 
Q 3422 4066 3111 4152 
Q 2800 4238 2509 4238 
Q 1944 4238 1609 3991 
Q 1275 3744 1275 3334 
Q 1275 3109 1398 2989 
Q 1522 2869 2034 2731 
L 2413 2638 
Q 3053 2472 3303 2217 
Q 3553 1963 3553 1503 
Q 3553 797 2998 353 
Q 2444 -91 1538 -91 
Q 1166 -91 791 -17 
Q 416 56 38 206 
L 166 856 
Q 513 641 861 531 
Q 1209 422 1556 422 
Q 2147 422 2503 684 
Q 2859 947 2859 1369 
Q 2859 1650 2717 1795 
Q 2575 1941 2106 2059 
L 1728 2156 
Q 1081 2325 845 2545 
Q 609 2766 609 3163 
Q 609 3859 1145 4304 
Q 1681 4750 2541 4750 
Q 2875 4750 3203 4690 
Q 3531 4631 3859 4513 
z
" transform="scale(0.015625)"/>
     </defs>
     <use xlink:href="#DejaVuSans-51" transform="translate(0 0.015625)"/>
     <use xlink:href="#DejaVuSans-75" transform="translate(78.710938 0.015625)"/>
     <use xlink:href="#DejaVuSans-61" transform="translate(142.089844 0.015625)"/>
     <use xlink:href="#DejaVuSans-64" transform="translate(203.369141 0.015625)"/>
     <use xlink:href="#DejaVuSans-72" transform="translate(266.845703 0.015625)"/>
     <use xlink:href="#DejaVuSans-61" transform="translate(307.958984 0.015625)"/>
     <use xlink:href="#DejaVuSans-74" transform="translate(369.238281 0.015625)"/>
     <use xlink:href="#DejaVuSans-69" transform="translate(408.447266 0.015625)"/>
     <use xlink:href="#DejaVuSans-63" transform="translate(436.230469 0.015625)"/>
     <use xlink:href="#DejaVuSans-20" transform="translate(491.210938 0.015625)"/>
     <use xlink:href="#DejaVuSans-43" transform="translate(522.998047 0.015625)"/>
     <use xlink:href="#DejaVuSans-6f" transform="translate(592.822266 0.015625)"/>
     <use xlink:href="#DejaVuSans-76" transform="translate(654.003906 0.015625)"/>
     <use xlink:href="#DejaVuSans-61" transform="translate(713.183594 0.015625)"/>
     <use xlink:href="#DejaVuSans-72" transform="translate(774.462891 0.015625)"/>
     <use xlink:href="#DejaVuSans-69" transform="translate(815.576172 0.015625)"/>
     <use xlink:href="#DejaVuSans-61" transform="translate(843.359375 0.015625)"/>
     <use xlink:href="#DejaVuSans-74" transform="translate(904.638672 0.015625)"/>
     <use xlink:href="#DejaVuSans-69" transform="translate(943.847656 0.015625)"/>
     <use xlink:href="#DejaVuSans-6f" transform="translate(971.630859 0.015625)"/>
     <use xlink:href="#DejaVuSans-6e" transform="translate(1032.8125 0.015625)"/>
     <use xlink:href="#DejaVuSans-20" transform="translate(1096.191406 0.015625)"/>
     <use xlink:href="#DejaVuSans-6f" transform="translate(1127.978516 0.015625)"/>
     <use xlink:href="#DejaVuSans-66" transform="translate(1189.160156 0.015625)"/>
     <use xlink:href="#DejaVuSans-20" transform="translate(1224.365234 0.015625)"/>
     <use xlink:href="#DejaVuSans-Oblique-58" transform="translate(1256.152344 0.015625)"/>
     <use xlink:href="#DejaVuSans-Oblique-74" transform="translate(1324.658203 -16.390625)scale(0.7)"/>
     <use xlink:href="#DejaVuSans-20" transform="translate(1354.838867 0.015625)"/>
     <use xlink:href="#DejaVuSans-61" transform="translate(1386.625977 0.015625)"/>
     <use xlink:href="#DejaVuSans-6e" transform="translate(1447.905273 0.015625)"/>
     <use xlink:href="#DejaVuSans-64" transform="translate(1511.28418 0.015625)"/>
     <use xlink:href="#DejaVuSans-20" transform="translate(1574.760742 0.015625)"/>
     <use xlink:href="#DejaVuSans-Oblique-53" transform="translate(1606.547852 0.015625)"/>
     <use xlink:href="#DejaVuSans-Oblique-74" transform="translate(1670.024414 -16.390625)scale(0.7)"/>
    </g>
   </g>
   <g id="legend_1">
    <g id="patch_7">
     <path d="M 133 379.48 
L 335.1 379.48 
Q 337.1 379.48 337.1 377.48 
L 337.1 334.445625 
Q 337.1 332.445625 335.1 332.445625 
L 133 332.445625 
Q 131 332.445625 131 334.445625 
L 131 377.48 
Q 131 379.48 133 379.48 
z
" style="fill: #ffffff; opacity: 0.8; stroke: #cccccc; stroke-linejoin: miter"/>
    </g>
    <g id="line2d_15">
     <path d="M 135 340.544062 
L 145 340.544062 
L 155 340.544062 
" style="fill: none; stroke: #1f77b4; stroke-width: 1.5; stroke-linecap: square"/>
    </g>
    <g id="text_15">
     <!-- $X_t$ -->
     <g transform="translate(163 344.044062)scale(0.1 -0.1)">
      <use xlink:href="#DejaVuSans-Oblique-58" transform="translate(0 0.09375)"/>
      <use xlink:href="#DejaVuSans-Oblique-74" transform="translate(68.505859 -16.3125)scale(0.7)"/>
     </g>
    </g>
    <g id="line2d_16">
     <path d="M 135 355.222188 
L 145 355.222188 
L 155 355.222188 
" style="fill: none; stroke: #ff7f0e; stroke-width: 1.5; stroke-linecap: square"/>
    </g>
    <g id="text_16">
     <!-- $S_t$ -->
     <g transform="translate(163 358.722188)scale(0.1 -0.1)">
      <use xlink:href="#DejaVuSans-Oblique-53" transform="translate(0 0.78125)"/>
      <use xlink:href="#DejaVuSans-Oblique-74" transform="translate(63.476562 -15.625)scale(0.7)"/>
     </g>
    </g>
    <g id="line2d_17">
     <path d="M 135 369.900312 
L 145 369.900312 
L 155 369.900312 
" style="fill: none; stroke: #2ca02c; stroke-width: 1.5; stroke-linecap: square"/>
    </g>
    <g id="text_17">
     <!-- Quadratic Covariation of $X_t$ and $S_t$ -->
     <g transform="translate(163 373.400312)scale(0.1 -0.1)">
      <use xlink:href="#DejaVuSans-51" transform="translate(0 0.015625)"/>
      <use xlink:href="#DejaVuSans-75" transform="translate(78.710938 0.015625)"/>
      <use xlink:href="#DejaVuSans-61" transform="translate(142.089844 0.015625)"/>
      <use xlink:href="#DejaVuSans-64" transform="translate(203.369141 0.015625)"/>
      <use xlink:href="#DejaVuSans-72" transform="translate(266.845703 0.015625)"/>
      <use xlink:href="#DejaVuSans-61" transform="translate(307.958984 0.015625)"/>
      <use xlink:href="#DejaVuSans-74" transform="translate(369.238281 0.015625)"/>
      <use xlink:href="#DejaVuSans-69" transform="translate(408.447266 0.015625)"/>
      <use xlink:href="#DejaVuSans-63" transform="translate(436.230469 0.015625)"/>
      <use xlink:href="#DejaVuSans-20" transform="translate(491.210938 0.015625)"/>
      <use xlink:href="#DejaVuSans-43" transform="translate(522.998047 0.015625)"/>
      <use xlink:href="#DejaVuSans-6f" transform="translate(592.822266 0.015625)"/>
      <use xlink:href="#DejaVuSans-76" transform="translate(654.003906 0.015625)"/>
      <use xlink:href="#DejaVuSans-61" transform="translate(713.183594 0.015625)"/>
      <use xlink:href="#DejaVuSans-72" transform="translate(774.462891 0.015625)"/>
      <use xlink:href="#DejaVuSans-69" transform="translate(815.576172 0.015625)"/>
      <use xlink:href="#DejaVuSans-61" transform="translate(843.359375 0.015625)"/>
      <use xlink:href="#DejaVuSans-74" transform="translate(904.638672 0.015625)"/>
      <use xlink:href="#DejaVuSans-69" transform="translate(943.847656 0.015625)"/>
      <use xlink:href="#DejaVuSans-6f" transform="translate(971.630859 0.015625)"/>
      <use xlink:href="#DejaVuSans-6e" transform="translate(1032.8125 0.015625)"/>
      <use xlink:href="#DejaVuSans-20" transform="translate(1096.191406 0.015625)"/>
      <use xlink:href="#DejaVuSans-6f" transform="translate(1127.978516 0.015625)"/>
      <use xlink:href="#DejaVuSans-66" transform="translate(1189.160156 0.015625)"/>
      <use xlink:href="#DejaVuSans-20" transform="translate(1224.365234 0.015625)"/>
      <use xlink:href="#DejaVuSans-Oblique-58" transform="translate(1256.152344 0.015625)"/>
      <use xlink:href="#DejaVuSans-Oblique-74" transform="translate(1324.658203 -16.390625)scale(0.7)"/>
      <use xlink:href="#DejaVuSans-20" transform="translate(1354.838867 0.015625)"/>
      <use xlink:href="#DejaVuSans-61" transform="translate(1386.625977 0.015625)"/>
      <use xlink:href="#DejaVuSans-6e" transform="translate(1447.905273 0.015625)"/>
      <use xlink:href="#DejaVuSans-64" transform="translate(1511.28418 0.015625)"/>
      <use xlink:href="#DejaVuSans-20" transform="translate(1574.760742 0.015625)"/>
      <use xlink:href="#DejaVuSans-Oblique-53" transform="translate(1606.547852 0.015625)"/>
      <use xlink:href="#DejaVuSans-Oblique-74" transform="translate(1670.024414 -16.390625)scale(0.7)"/>
     </g>
    </g>
   </g>
  </g>
 </g>
 <defs>
  <clipPath id="p1aea6ea92b">
   <rect x="126" y="51.84" width="781.2" height="332.64"/>
  </clipPath>
 </defs>
</svg>
