<?xml version="1.0" encoding="utf-8" standalone="no"?>
<!DOCTYPE svg PUBLIC "-//W3C//DTD SVG 1.1//EN"
  "http://www.w3.org/Graphics/SVG/1.1/DTD/svg11.dtd">
<svg xmlns:xlink="http://www.w3.org/1999/xlink" width="1008pt" height="432pt" viewBox="0 0 1008 432" xmlns="http://www.w3.org/2000/svg" version="1.1">
 <metadata>
  <rdf:RDF xmlns:dc="http://purl.org/dc/elements/1.1/" xmlns:cc="http://creativecommons.org/ns#" xmlns:rdf="http://www.w3.org/1999/02/22-rdf-syntax-ns#">
   <cc:Work>
    <dc:type rdf:resource="http://purl.org/dc/dcmitype/StillImage"/>
    <dc:date>2023-12-22T17:10:43.761531</dc:date>
    <dc:format>image/svg+xml</dc:format>
    <dc:creator>
     <cc:Agent>
      <dc:title>Matplotlib v3.5.2, https://matplotlib.org/</dc:title>
     </cc:Agent>
    </dc:creator>
   </cc:Work>
  </rdf:RDF>
 </metadata>
 <defs>
  <style type="text/css">*{stroke-linejoin: round; stroke-linecap: butt}</style>
 </defs>
 <g id="figure_1">
  <g id="patch_1">
   <path d="M 0 432 
L 1008 432 
L 1008 0 
L 0 0 
z
" style="fill: #ffffff"/>
  </g>
  <g id="axes_1">
   <g id="patch_2">
    <path d="M 126 384.48 
L 907.2 384.48 
L 907.2 51.84 
L 126 51.84 
z
" style="fill: #ffffff"/>
   </g>
   <g id="matplotlib.axis_1">
    <g id="xtick_1">
     <g id="line2d_1">
      <defs>
       <path id="m430f41f6df" d="M 0 0 
L 0 3.5 
" style="stroke: #000000; stroke-width: 0.8"/>
      </defs>
      <g>
       <use xlink:href="#m430f41f6df" x="161.509091" y="384.48" style="stroke: #000000; stroke-width: 0.8"/>
      </g>
     </g>
     <g id="text_1">
      <!-- 0.0 -->
      <g transform="translate(153.557528 399.078438)scale(0.1 -0.1)">
       <defs>
        <path id="DejaVuSans-30" d="M 2034 4250 
Q 1547 4250 1301 3770 
Q 1056 3291 1056 2328 
Q 1056 1369 1301 889 
Q 1547 409 2034 409 
Q 2525 409 2770 889 
Q 3016 1369 3016 2328 
Q 3016 3291 2770 3770 
Q 2525 4250 2034 4250 
z
M 2034 4750 
Q 2819 4750 3233 4129 
Q 3647 3509 3647 2328 
Q 3647 1150 3233 529 
Q 2819 -91 2034 -91 
Q 1250 -91 836 529 
Q 422 1150 422 2328 
Q 422 3509 836 4129 
Q 1250 4750 2034 4750 
z
" transform="scale(0.015625)"/>
        <path id="DejaVuSans-2e" d="M 684 794 
L 1344 794 
L 1344 0 
L 684 0 
L 684 794 
z
" transform="scale(0.015625)"/>
       </defs>
       <use xlink:href="#DejaVuSans-30"/>
       <use xlink:href="#DejaVuSans-2e" x="63.623047"/>
       <use xlink:href="#DejaVuSans-30" x="95.410156"/>
      </g>
     </g>
    </g>
    <g id="xtick_2">
     <g id="line2d_2">
      <g>
       <use xlink:href="#m430f41f6df" x="303.545455" y="384.48" style="stroke: #000000; stroke-width: 0.8"/>
      </g>
     </g>
     <g id="text_2">
      <!-- 0.2 -->
      <g transform="translate(295.593892 399.078438)scale(0.1 -0.1)">
       <defs>
        <path id="DejaVuSans-32" d="M 1228 531 
L 3431 531 
L 3431 0 
L 469 0 
L 469 531 
Q 828 903 1448 1529 
Q 2069 2156 2228 2338 
Q 2531 2678 2651 2914 
Q 2772 3150 2772 3378 
Q 2772 3750 2511 3984 
Q 2250 4219 1831 4219 
Q 1534 4219 1204 4116 
Q 875 4013 500 3803 
L 500 4441 
Q 881 4594 1212 4672 
Q 1544 4750 1819 4750 
Q 2544 4750 2975 4387 
Q 3406 4025 3406 3419 
Q 3406 3131 3298 2873 
Q 3191 2616 2906 2266 
Q 2828 2175 2409 1742 
Q 1991 1309 1228 531 
z
" transform="scale(0.015625)"/>
       </defs>
       <use xlink:href="#DejaVuSans-30"/>
       <use xlink:href="#DejaVuSans-2e" x="63.623047"/>
       <use xlink:href="#DejaVuSans-32" x="95.410156"/>
      </g>
     </g>
    </g>
    <g id="xtick_3">
     <g id="line2d_3">
      <g>
       <use xlink:href="#m430f41f6df" x="445.581818" y="384.48" style="stroke: #000000; stroke-width: 0.8"/>
      </g>
     </g>
     <g id="text_3">
      <!-- 0.4 -->
      <g transform="translate(437.630256 399.078438)scale(0.1 -0.1)">
       <defs>
        <path id="DejaVuSans-34" d="M 2419 4116 
L 825 1625 
L 2419 1625 
L 2419 4116 
z
M 2253 4666 
L 3047 4666 
L 3047 1625 
L 3713 1625 
L 3713 1100 
L 3047 1100 
L 3047 0 
L 2419 0 
L 2419 1100 
L 313 1100 
L 313 1709 
L 2253 4666 
z
" transform="scale(0.015625)"/>
       </defs>
       <use xlink:href="#DejaVuSans-30"/>
       <use xlink:href="#DejaVuSans-2e" x="63.623047"/>
       <use xlink:href="#DejaVuSans-34" x="95.410156"/>
      </g>
     </g>
    </g>
    <g id="xtick_4">
     <g id="line2d_4">
      <g>
       <use xlink:href="#m430f41f6df" x="587.618182" y="384.48" style="stroke: #000000; stroke-width: 0.8"/>
      </g>
     </g>
     <g id="text_4">
      <!-- 0.6 -->
      <g transform="translate(579.666619 399.078438)scale(0.1 -0.1)">
       <defs>
        <path id="DejaVuSans-36" d="M 2113 2584 
Q 1688 2584 1439 2293 
Q 1191 2003 1191 1497 
Q 1191 994 1439 701 
Q 1688 409 2113 409 
Q 2538 409 2786 701 
Q 3034 994 3034 1497 
Q 3034 2003 2786 2293 
Q 2538 2584 2113 2584 
z
M 3366 4563 
L 3366 3988 
Q 3128 4100 2886 4159 
Q 2644 4219 2406 4219 
Q 1781 4219 1451 3797 
Q 1122 3375 1075 2522 
Q 1259 2794 1537 2939 
Q 1816 3084 2150 3084 
Q 2853 3084 3261 2657 
Q 3669 2231 3669 1497 
Q 3669 778 3244 343 
Q 2819 -91 2113 -91 
Q 1303 -91 875 529 
Q 447 1150 447 2328 
Q 447 3434 972 4092 
Q 1497 4750 2381 4750 
Q 2619 4750 2861 4703 
Q 3103 4656 3366 4563 
z
" transform="scale(0.015625)"/>
       </defs>
       <use xlink:href="#DejaVuSans-30"/>
       <use xlink:href="#DejaVuSans-2e" x="63.623047"/>
       <use xlink:href="#DejaVuSans-36" x="95.410156"/>
      </g>
     </g>
    </g>
    <g id="xtick_5">
     <g id="line2d_5">
      <g>
       <use xlink:href="#m430f41f6df" x="729.654545" y="384.48" style="stroke: #000000; stroke-width: 0.8"/>
      </g>
     </g>
     <g id="text_5">
      <!-- 0.8 -->
      <g transform="translate(721.702983 399.078438)scale(0.1 -0.1)">
       <defs>
        <path id="DejaVuSans-38" d="M 2034 2216 
Q 1584 2216 1326 1975 
Q 1069 1734 1069 1313 
Q 1069 891 1326 650 
Q 1584 409 2034 409 
Q 2484 409 2743 651 
Q 3003 894 3003 1313 
Q 3003 1734 2745 1975 
Q 2488 2216 2034 2216 
z
M 1403 2484 
Q 997 2584 770 2862 
Q 544 3141 544 3541 
Q 544 4100 942 4425 
Q 1341 4750 2034 4750 
Q 2731 4750 3128 4425 
Q 3525 4100 3525 3541 
Q 3525 3141 3298 2862 
Q 3072 2584 2669 2484 
Q 3125 2378 3379 2068 
Q 3634 1759 3634 1313 
Q 3634 634 3220 271 
Q 2806 -91 2034 -91 
Q 1263 -91 848 271 
Q 434 634 434 1313 
Q 434 1759 690 2068 
Q 947 2378 1403 2484 
z
M 1172 3481 
Q 1172 3119 1398 2916 
Q 1625 2713 2034 2713 
Q 2441 2713 2670 2916 
Q 2900 3119 2900 3481 
Q 2900 3844 2670 4047 
Q 2441 4250 2034 4250 
Q 1625 4250 1398 4047 
Q 1172 3844 1172 3481 
z
" transform="scale(0.015625)"/>
       </defs>
       <use xlink:href="#DejaVuSans-30"/>
       <use xlink:href="#DejaVuSans-2e" x="63.623047"/>
       <use xlink:href="#DejaVuSans-38" x="95.410156"/>
      </g>
     </g>
    </g>
    <g id="xtick_6">
     <g id="line2d_6">
      <g>
       <use xlink:href="#m430f41f6df" x="871.690909" y="384.48" style="stroke: #000000; stroke-width: 0.8"/>
      </g>
     </g>
     <g id="text_6">
      <!-- 1.0 -->
      <g transform="translate(863.739347 399.078438)scale(0.1 -0.1)">
       <defs>
        <path id="DejaVuSans-31" d="M 794 531 
L 1825 531 
L 1825 4091 
L 703 3866 
L 703 4441 
L 1819 4666 
L 2450 4666 
L 2450 531 
L 3481 531 
L 3481 0 
L 794 0 
L 794 531 
z
" transform="scale(0.015625)"/>
       </defs>
       <use xlink:href="#DejaVuSans-31"/>
       <use xlink:href="#DejaVuSans-2e" x="63.623047"/>
       <use xlink:href="#DejaVuSans-30" x="95.410156"/>
      </g>
     </g>
    </g>
    <g id="text_7">
     <!-- Time -->
     <g transform="translate(504.366406 412.756563)scale(0.1 -0.1)">
      <defs>
       <path id="DejaVuSans-54" d="M -19 4666 
L 3928 4666 
L 3928 4134 
L 2272 4134 
L 2272 0 
L 1638 0 
L 1638 4134 
L -19 4134 
L -19 4666 
z
" transform="scale(0.015625)"/>
       <path id="DejaVuSans-69" d="M 603 3500 
L 1178 3500 
L 1178 0 
L 603 0 
L 603 3500 
z
M 603 4863 
L 1178 4863 
L 1178 4134 
L 603 4134 
L 603 4863 
z
" transform="scale(0.015625)"/>
       <path id="DejaVuSans-6d" d="M 3328 2828 
Q 3544 3216 3844 3400 
Q 4144 3584 4550 3584 
Q 5097 3584 5394 3201 
Q 5691 2819 5691 2113 
L 5691 0 
L 5113 0 
L 5113 2094 
Q 5113 2597 4934 2840 
Q 4756 3084 4391 3084 
Q 3944 3084 3684 2787 
Q 3425 2491 3425 1978 
L 3425 0 
L 2847 0 
L 2847 2094 
Q 2847 2600 2669 2842 
Q 2491 3084 2119 3084 
Q 1678 3084 1418 2786 
Q 1159 2488 1159 1978 
L 1159 0 
L 581 0 
L 581 3500 
L 1159 3500 
L 1159 2956 
Q 1356 3278 1631 3431 
Q 1906 3584 2284 3584 
Q 2666 3584 2933 3390 
Q 3200 3197 3328 2828 
z
" transform="scale(0.015625)"/>
       <path id="DejaVuSans-65" d="M 3597 1894 
L 3597 1613 
L 953 1613 
Q 991 1019 1311 708 
Q 1631 397 2203 397 
Q 2534 397 2845 478 
Q 3156 559 3463 722 
L 3463 178 
Q 3153 47 2828 -22 
Q 2503 -91 2169 -91 
Q 1331 -91 842 396 
Q 353 884 353 1716 
Q 353 2575 817 3079 
Q 1281 3584 2069 3584 
Q 2775 3584 3186 3129 
Q 3597 2675 3597 1894 
z
M 3022 2063 
Q 3016 2534 2758 2815 
Q 2500 3097 2075 3097 
Q 1594 3097 1305 2825 
Q 1016 2553 972 2059 
L 3022 2063 
z
" transform="scale(0.015625)"/>
      </defs>
      <use xlink:href="#DejaVuSans-54"/>
      <use xlink:href="#DejaVuSans-69" x="57.958984"/>
      <use xlink:href="#DejaVuSans-6d" x="85.742188"/>
      <use xlink:href="#DejaVuSans-65" x="183.154297"/>
     </g>
    </g>
   </g>
   <g id="matplotlib.axis_2">
    <g id="ytick_1">
     <g id="line2d_7">
      <defs>
       <path id="m50caf164d2" d="M 0 0 
L -3.5 0 
" style="stroke: #000000; stroke-width: 0.8"/>
      </defs>
      <g>
       <use xlink:href="#m50caf164d2" x="126" y="369.674869" style="stroke: #000000; stroke-width: 0.8"/>
      </g>
     </g>
     <g id="text_8">
      <!-- 0.0 -->
      <g transform="translate(103.096875 373.474088)scale(0.1 -0.1)">
       <use xlink:href="#DejaVuSans-30"/>
       <use xlink:href="#DejaVuSans-2e" x="63.623047"/>
       <use xlink:href="#DejaVuSans-30" x="95.410156"/>
      </g>
     </g>
    </g>
    <g id="ytick_2">
     <g id="line2d_8">
      <g>
       <use xlink:href="#m50caf164d2" x="126" y="299.69887" style="stroke: #000000; stroke-width: 0.8"/>
      </g>
     </g>
     <g id="text_9">
      <!-- 0.5 -->
      <g transform="translate(103.096875 303.498088)scale(0.1 -0.1)">
       <defs>
        <path id="DejaVuSans-35" d="M 691 4666 
L 3169 4666 
L 3169 4134 
L 1269 4134 
L 1269 2991 
Q 1406 3038 1543 3061 
Q 1681 3084 1819 3084 
Q 2600 3084 3056 2656 
Q 3513 2228 3513 1497 
Q 3513 744 3044 326 
Q 2575 -91 1722 -91 
Q 1428 -91 1123 -41 
Q 819 9 494 109 
L 494 744 
Q 775 591 1075 516 
Q 1375 441 1709 441 
Q 2250 441 2565 725 
Q 2881 1009 2881 1497 
Q 2881 1984 2565 2268 
Q 2250 2553 1709 2553 
Q 1456 2553 1204 2497 
Q 953 2441 691 2322 
L 691 4666 
z
" transform="scale(0.015625)"/>
       </defs>
       <use xlink:href="#DejaVuSans-30"/>
       <use xlink:href="#DejaVuSans-2e" x="63.623047"/>
       <use xlink:href="#DejaVuSans-35" x="95.410156"/>
      </g>
     </g>
    </g>
    <g id="ytick_3">
     <g id="line2d_9">
      <g>
       <use xlink:href="#m50caf164d2" x="126" y="229.72287" style="stroke: #000000; stroke-width: 0.8"/>
      </g>
     </g>
     <g id="text_10">
      <!-- 1.0 -->
      <g transform="translate(103.096875 233.522089)scale(0.1 -0.1)">
       <use xlink:href="#DejaVuSans-31"/>
       <use xlink:href="#DejaVuSans-2e" x="63.623047"/>
       <use xlink:href="#DejaVuSans-30" x="95.410156"/>
      </g>
     </g>
    </g>
    <g id="ytick_4">
     <g id="line2d_10">
      <g>
       <use xlink:href="#m50caf164d2" x="126" y="159.746871" style="stroke: #000000; stroke-width: 0.8"/>
      </g>
     </g>
     <g id="text_11">
      <!-- 1.5 -->
      <g transform="translate(103.096875 163.54609)scale(0.1 -0.1)">
       <use xlink:href="#DejaVuSans-31"/>
       <use xlink:href="#DejaVuSans-2e" x="63.623047"/>
       <use xlink:href="#DejaVuSans-35" x="95.410156"/>
      </g>
     </g>
    </g>
    <g id="ytick_5">
     <g id="line2d_11">
      <g>
       <use xlink:href="#m50caf164d2" x="126" y="89.770872" style="stroke: #000000; stroke-width: 0.8"/>
      </g>
     </g>
     <g id="text_12">
      <!-- 2.0 -->
      <g transform="translate(103.096875 93.57009)scale(0.1 -0.1)">
       <use xlink:href="#DejaVuSans-32"/>
       <use xlink:href="#DejaVuSans-2e" x="63.623047"/>
       <use xlink:href="#DejaVuSans-30" x="95.410156"/>
      </g>
     </g>
    </g>
    <g id="text_13">
     <!-- Quadratic Covariation -->
     <g transform="translate(97.017187 272.970156)rotate(-90)scale(0.1 -0.1)">
      <defs>
       <path id="DejaVuSans-51" d="M 2522 4238 
Q 1834 4238 1429 3725 
Q 1025 3213 1025 2328 
Q 1025 1447 1429 934 
Q 1834 422 2522 422 
Q 3209 422 3611 934 
Q 4013 1447 4013 2328 
Q 4013 3213 3611 3725 
Q 3209 4238 2522 4238 
z
M 3406 84 
L 4238 -825 
L 3475 -825 
L 2784 -78 
Q 2681 -84 2626 -87 
Q 2572 -91 2522 -91 
Q 1538 -91 948 567 
Q 359 1225 359 2328 
Q 359 3434 948 4092 
Q 1538 4750 2522 4750 
Q 3503 4750 4090 4092 
Q 4678 3434 4678 2328 
Q 4678 1516 4351 937 
Q 4025 359 3406 84 
z
" transform="scale(0.015625)"/>
       <path id="DejaVuSans-75" d="M 544 1381 
L 544 3500 
L 1119 3500 
L 1119 1403 
Q 1119 906 1312 657 
Q 1506 409 1894 409 
Q 2359 409 2629 706 
Q 2900 1003 2900 1516 
L 2900 3500 
L 3475 3500 
L 3475 0 
L 2900 0 
L 2900 538 
Q 2691 219 2414 64 
Q 2138 -91 1772 -91 
Q 1169 -91 856 284 
Q 544 659 544 1381 
z
M 1991 3584 
L 1991 3584 
z
" transform="scale(0.015625)"/>
       <path id="DejaVuSans-61" d="M 2194 1759 
Q 1497 1759 1228 1600 
Q 959 1441 959 1056 
Q 959 750 1161 570 
Q 1363 391 1709 391 
Q 2188 391 2477 730 
Q 2766 1069 2766 1631 
L 2766 1759 
L 2194 1759 
z
M 3341 1997 
L 3341 0 
L 2766 0 
L 2766 531 
Q 2569 213 2275 61 
Q 1981 -91 1556 -91 
Q 1019 -91 701 211 
Q 384 513 384 1019 
Q 384 1609 779 1909 
Q 1175 2209 1959 2209 
L 2766 2209 
L 2766 2266 
Q 2766 2663 2505 2880 
Q 2244 3097 1772 3097 
Q 1472 3097 1187 3025 
Q 903 2953 641 2809 
L 641 3341 
Q 956 3463 1253 3523 
Q 1550 3584 1831 3584 
Q 2591 3584 2966 3190 
Q 3341 2797 3341 1997 
z
" transform="scale(0.015625)"/>
       <path id="DejaVuSans-64" d="M 2906 2969 
L 2906 4863 
L 3481 4863 
L 3481 0 
L 2906 0 
L 2906 525 
Q 2725 213 2448 61 
Q 2172 -91 1784 -91 
Q 1150 -91 751 415 
Q 353 922 353 1747 
Q 353 2572 751 3078 
Q 1150 3584 1784 3584 
Q 2172 3584 2448 3432 
Q 2725 3281 2906 2969 
z
M 947 1747 
Q 947 1113 1208 752 
Q 1469 391 1925 391 
Q 2381 391 2643 752 
Q 2906 1113 2906 1747 
Q 2906 2381 2643 2742 
Q 2381 3103 1925 3103 
Q 1469 3103 1208 2742 
Q 947 2381 947 1747 
z
" transform="scale(0.015625)"/>
       <path id="DejaVuSans-72" d="M 2631 2963 
Q 2534 3019 2420 3045 
Q 2306 3072 2169 3072 
Q 1681 3072 1420 2755 
Q 1159 2438 1159 1844 
L 1159 0 
L 581 0 
L 581 3500 
L 1159 3500 
L 1159 2956 
Q 1341 3275 1631 3429 
Q 1922 3584 2338 3584 
Q 2397 3584 2469 3576 
Q 2541 3569 2628 3553 
L 2631 2963 
z
" transform="scale(0.015625)"/>
       <path id="DejaVuSans-74" d="M 1172 4494 
L 1172 3500 
L 2356 3500 
L 2356 3053 
L 1172 3053 
L 1172 1153 
Q 1172 725 1289 603 
Q 1406 481 1766 481 
L 2356 481 
L 2356 0 
L 1766 0 
Q 1100 0 847 248 
Q 594 497 594 1153 
L 594 3053 
L 172 3053 
L 172 3500 
L 594 3500 
L 594 4494 
L 1172 4494 
z
" transform="scale(0.015625)"/>
       <path id="DejaVuSans-63" d="M 3122 3366 
L 3122 2828 
Q 2878 2963 2633 3030 
Q 2388 3097 2138 3097 
Q 1578 3097 1268 2742 
Q 959 2388 959 1747 
Q 959 1106 1268 751 
Q 1578 397 2138 397 
Q 2388 397 2633 464 
Q 2878 531 3122 666 
L 3122 134 
Q 2881 22 2623 -34 
Q 2366 -91 2075 -91 
Q 1284 -91 818 406 
Q 353 903 353 1747 
Q 353 2603 823 3093 
Q 1294 3584 2113 3584 
Q 2378 3584 2631 3529 
Q 2884 3475 3122 3366 
z
" transform="scale(0.015625)"/>
       <path id="DejaVuSans-20" transform="scale(0.015625)"/>
       <path id="DejaVuSans-43" d="M 4122 4306 
L 4122 3641 
Q 3803 3938 3442 4084 
Q 3081 4231 2675 4231 
Q 1875 4231 1450 3742 
Q 1025 3253 1025 2328 
Q 1025 1406 1450 917 
Q 1875 428 2675 428 
Q 3081 428 3442 575 
Q 3803 722 4122 1019 
L 4122 359 
Q 3791 134 3420 21 
Q 3050 -91 2638 -91 
Q 1578 -91 968 557 
Q 359 1206 359 2328 
Q 359 3453 968 4101 
Q 1578 4750 2638 4750 
Q 3056 4750 3426 4639 
Q 3797 4528 4122 4306 
z
" transform="scale(0.015625)"/>
       <path id="DejaVuSans-6f" d="M 1959 3097 
Q 1497 3097 1228 2736 
Q 959 2375 959 1747 
Q 959 1119 1226 758 
Q 1494 397 1959 397 
Q 2419 397 2687 759 
Q 2956 1122 2956 1747 
Q 2956 2369 2687 2733 
Q 2419 3097 1959 3097 
z
M 1959 3584 
Q 2709 3584 3137 3096 
Q 3566 2609 3566 1747 
Q 3566 888 3137 398 
Q 2709 -91 1959 -91 
Q 1206 -91 779 398 
Q 353 888 353 1747 
Q 353 2609 779 3096 
Q 1206 3584 1959 3584 
z
" transform="scale(0.015625)"/>
       <path id="DejaVuSans-76" d="M 191 3500 
L 800 3500 
L 1894 563 
L 2988 3500 
L 3597 3500 
L 2284 0 
L 1503 0 
L 191 3500 
z
" transform="scale(0.015625)"/>
       <path id="DejaVuSans-6e" d="M 3513 2113 
L 3513 0 
L 2938 0 
L 2938 2094 
Q 2938 2591 2744 2837 
Q 2550 3084 2163 3084 
Q 1697 3084 1428 2787 
Q 1159 2491 1159 1978 
L 1159 0 
L 581 0 
L 581 3500 
L 1159 3500 
L 1159 2956 
Q 1366 3272 1645 3428 
Q 1925 3584 2291 3584 
Q 2894 3584 3203 3211 
Q 3513 2838 3513 2113 
z
" transform="scale(0.015625)"/>
      </defs>
      <use xlink:href="#DejaVuSans-51"/>
      <use xlink:href="#DejaVuSans-75" x="78.710938"/>
      <use xlink:href="#DejaVuSans-61" x="142.089844"/>
      <use xlink:href="#DejaVuSans-64" x="203.369141"/>
      <use xlink:href="#DejaVuSans-72" x="266.845703"/>
      <use xlink:href="#DejaVuSans-61" x="307.958984"/>
      <use xlink:href="#DejaVuSans-74" x="369.238281"/>
      <use xlink:href="#DejaVuSans-69" x="408.447266"/>
      <use xlink:href="#DejaVuSans-63" x="436.230469"/>
      <use xlink:href="#DejaVuSans-20" x="491.210938"/>
      <use xlink:href="#DejaVuSans-43" x="522.998047"/>
      <use xlink:href="#DejaVuSans-6f" x="592.822266"/>
      <use xlink:href="#DejaVuSans-76" x="654.003906"/>
      <use xlink:href="#DejaVuSans-61" x="713.183594"/>
      <use xlink:href="#DejaVuSans-72" x="774.462891"/>
      <use xlink:href="#DejaVuSans-69" x="815.576172"/>
      <use xlink:href="#DejaVuSans-61" x="843.359375"/>
      <use xlink:href="#DejaVuSans-74" x="904.638672"/>
      <use xlink:href="#DejaVuSans-69" x="943.847656"/>
      <use xlink:href="#DejaVuSans-6f" x="971.630859"/>
      <use xlink:href="#DejaVuSans-6e" x="1032.8125"/>
     </g>
    </g>
   </g>
   <g id="line2d_12">
    <path d="M 161.509091 229.72287 
L 163.639636 212.584336 
L 164.349818 209.488281 
L 165.06 211.819734 
L 165.770182 216.8526 
L 166.480364 223.924299 
L 167.190545 226.005604 
L 167.900727 226.212189 
L 169.321091 230.986256 
L 170.031273 225.493422 
L 170.741455 217.92816 
L 171.451636 214.307409 
L 172.161818 212.241169 
L 172.872 213.015352 
L 173.582182 219.008906 
L 174.292364 228.327371 
L 175.002545 218.731048 
L 175.712727 212.781208 
L 176.422909 216.033665 
L 177.133091 209.559866 
L 177.843273 214.870777 
L 178.553455 216.987324 
L 179.263636 217.33275 
L 179.973818 219.650092 
L 180.684 214.136748 
L 181.394182 205.415851 
L 182.104364 204.094284 
L 182.814545 207.712667 
L 183.524727 208.176133 
L 184.234909 208.809334 
L 184.945091 213.293878 
L 185.655273 219.718437 
L 186.365455 216.749241 
L 187.075636 221.34774 
L 187.785818 220.090485 
L 188.496 218.596616 
L 189.206182 222.204729 
L 189.916364 226.694242 
L 190.626545 227.278195 
L 191.336727 224.209772 
L 192.757091 224.63777 
L 193.467273 230.263227 
L 194.177455 233.470901 
L 194.887636 234.822748 
L 195.597818 234.668123 
L 196.308 234.058192 
L 197.018182 231.978493 
L 197.728364 229.018924 
L 198.438545 229.292205 
L 199.858909 224.861341 
L 200.569091 229.101705 
L 201.279273 223.808985 
L 201.989455 226.522409 
L 202.699636 228.324236 
L 203.409818 231.224098 
L 204.12 231.960027 
L 204.830182 232.158033 
L 205.540364 231.560523 
L 206.250545 234.071447 
L 206.960727 239.714576 
L 207.670909 237.896802 
L 208.381091 240.516608 
L 209.091273 235.916812 
L 209.801455 239.953937 
L 210.511636 232.296508 
L 211.221818 231.248632 
L 211.932 222.270311 
L 212.642182 225.339025 
L 213.352364 229.690255 
L 214.062545 224.914166 
L 214.772727 225.925867 
L 215.482909 228.988585 
L 216.193091 230.3036 
L 216.903273 233.167258 
L 217.613455 234.295903 
L 218.323636 235.051263 
L 219.033818 236.580423 
L 219.744 233.846174 
L 220.454182 234.678751 
L 221.164364 232.589157 
L 221.874545 219.682143 
L 222.584727 223.829899 
L 223.294909 222.321684 
L 224.005091 223.380534 
L 224.715273 220.055996 
L 225.425455 218.22827 
L 226.135636 221.203793 
L 226.845818 221.946606 
L 227.556 229.928293 
L 228.266182 217.326304 
L 228.976364 220.014278 
L 229.686545 213.00101 
L 230.396727 212.277746 
L 231.106909 206.45159 
L 231.817091 204.325994 
L 232.527273 203.839946 
L 233.237455 208.295301 
L 233.947636 203.143264 
L 234.657818 203.86697 
L 235.368 204.000941 
L 236.078182 199.530874 
L 236.788364 199.030233 
L 237.498545 195.571577 
L 238.208727 195.21697 
L 238.918909 189.804466 
L 239.629091 193.455247 
L 240.339273 191.984333 
L 241.049455 189.000023 
L 241.759636 193.67365 
L 242.469818 196.886269 
L 243.890182 200.015078 
L 244.600364 205.149318 
L 245.310545 203.897313 
L 246.020727 201.70052 
L 246.730909 203.179569 
L 247.441091 198.681311 
L 248.151273 199.016956 
L 248.861455 205.494827 
L 249.571636 200.279818 
L 250.281818 192.946153 
L 250.992 197.916203 
L 251.702182 200.183926 
L 252.412364 202.882622 
L 253.122545 202.533159 
L 253.832727 207.258277 
L 254.542909 205.626734 
L 255.253091 212.932296 
L 255.963273 209.283773 
L 256.673455 210.948281 
L 257.383636 204.191395 
L 258.093818 202.974457 
L 258.804 207.136455 
L 259.514182 204.239155 
L 260.224364 202.629461 
L 260.934545 200.623311 
L 261.644727 200.157344 
L 262.354909 193.246224 
L 263.065091 195.329037 
L 263.775273 191.961961 
L 264.485455 184.369919 
L 265.195636 182.050909 
L 265.905818 172.088257 
L 266.616 171.532872 
L 267.326182 168.664408 
L 268.746545 174.182043 
L 269.456727 177.111249 
L 270.166909 182.855174 
L 270.877091 183.931826 
L 271.587273 177.82796 
L 272.297455 177.615944 
L 273.007636 177.600433 
L 273.717818 177.145937 
L 274.428 182.470823 
L 275.138182 181.561822 
L 275.848364 179.191788 
L 276.558545 180.687919 
L 277.268727 181.34794 
L 277.978909 179.808062 
L 278.689091 176.625796 
L 279.399273 185.852816 
L 280.109455 192.943687 
L 280.819636 186.276606 
L 281.529818 184.294346 
L 282.24 182.845644 
L 282.950182 182.823474 
L 283.660364 177.791712 
L 284.370545 181.907031 
L 285.080727 185.074929 
L 285.790909 189.358865 
L 286.501091 183.283668 
L 287.211273 180.073979 
L 287.921455 184.040043 
L 288.631636 180.16181 
L 289.341818 177.176451 
L 290.052 182.497878 
L 290.762182 180.225511 
L 291.472364 190.450508 
L 292.182545 185.283193 
L 292.892727 187.390204 
L 293.602909 181.876722 
L 294.313091 179.765338 
L 295.023273 180.216429 
L 295.733455 185.24246 
L 296.443636 179.525476 
L 297.864 170.942229 
L 298.574182 177.927566 
L 299.284364 172.42914 
L 299.994545 172.985497 
L 301.414909 159.034607 
L 302.125091 156.381679 
L 302.835273 159.7515 
L 303.545455 172.026515 
L 304.255636 175.140181 
L 304.965818 174.880556 
L 305.676 168.492217 
L 306.386182 168.658922 
L 307.806545 162.583622 
L 308.516727 167.988459 
L 309.937091 174.915695 
L 310.647273 175.59963 
L 311.357455 177.971168 
L 312.067636 179.192567 
L 312.777818 172.599768 
L 313.488 174.217971 
L 314.198182 167.835338 
L 314.908364 166.76638 
L 315.618545 166.086633 
L 317.038909 159.836306 
L 317.749091 164.82455 
L 318.459273 160.468748 
L 319.169455 161.173561 
L 319.879636 156.943089 
L 320.589818 160.462549 
L 321.3 157.922355 
L 322.010182 163.153893 
L 322.720364 159.519252 
L 323.430545 159.165248 
L 324.140727 161.764493 
L 324.850909 163.324388 
L 325.561091 161.675068 
L 326.271273 170.537953 
L 326.981455 170.508509 
L 327.691636 175.375208 
L 328.401818 166.536777 
L 329.112 170.479334 
L 329.822182 171.474204 
L 330.532364 167.368551 
L 331.952727 173.160233 
L 332.662909 179.582093 
L 333.373091 189.672647 
L 334.083273 184.63393 
L 334.793455 188.365625 
L 335.503636 184.27094 
L 336.213818 185.558257 
L 336.924 190.280967 
L 337.634182 185.10414 
L 338.344364 182.003991 
L 339.054545 170.836447 
L 339.764727 170.202087 
L 340.474909 166.384404 
L 341.185091 166.926593 
L 341.895273 175.818126 
L 342.605455 173.561952 
L 343.315636 177.007178 
L 344.025818 177.451826 
L 344.736 179.60044 
L 345.446182 180.730779 
L 346.156364 172.75244 
L 346.866545 167.903955 
L 347.576727 169.85093 
L 348.286909 165.386232 
L 348.997091 168.166461 
L 349.707273 167.898707 
L 350.417455 160.032528 
L 351.127636 157.44575 
L 351.837818 161.453198 
L 352.548 169.615074 
L 353.258182 165.086221 
L 353.968364 163.037446 
L 354.678545 170.404277 
L 355.388727 176.07724 
L 356.809091 183.279721 
L 357.519273 176.014738 
L 358.939636 173.199922 
L 359.649818 182.261453 
L 360.36 183.056825 
L 361.070182 184.095989 
L 362.490545 176.304059 
L 363.910909 171.057021 
L 364.621091 176.321844 
L 365.331273 170.861132 
L 366.041455 169.298666 
L 366.751636 168.920407 
L 367.461818 175.99114 
L 368.172 177.723129 
L 368.882182 177.124724 
L 369.592364 180.585919 
L 371.012727 179.027106 
L 371.722909 171.478402 
L 372.433091 174.495718 
L 373.143273 178.393369 
L 373.853455 176.91841 
L 374.563636 176.672289 
L 375.273818 181.406199 
L 375.984 179.949393 
L 376.694182 186.441143 
L 377.404364 181.669749 
L 378.114545 184.23068 
L 379.534909 187.841295 
L 380.245091 190.291174 
L 380.955273 193.317058 
L 381.665455 191.997638 
L 382.375636 192.737879 
L 383.085818 191.814392 
L 384.506182 179.380871 
L 385.216364 181.270417 
L 385.926545 178.355384 
L 386.636727 184.235557 
L 387.346909 182.285398 
L 388.767273 195.382653 
L 389.477455 192.863153 
L 390.897818 198.365038 
L 391.608 195.979746 
L 392.318182 194.107796 
L 393.028364 191.829993 
L 393.738545 190.473041 
L 394.448727 189.882573 
L 395.158909 189.489839 
L 396.579273 193.204232 
L 397.289455 195.922913 
L 397.999636 200.649551 
L 398.709818 206.814642 
L 399.42 204.810931 
L 400.130182 204.356032 
L 400.840364 203.260812 
L 401.550545 200.579017 
L 402.260727 204.597953 
L 402.970909 206.141277 
L 403.681091 206.788266 
L 404.391273 203.058953 
L 405.101455 200.171431 
L 405.811636 201.719806 
L 406.521818 200.174649 
L 407.232 204.148268 
L 407.942182 198.975327 
L 408.652364 200.851658 
L 409.362545 200.428458 
L 410.072727 198.536521 
L 410.782909 201.013533 
L 411.493091 198.784731 
L 412.203273 202.050928 
L 412.913455 203.033364 
L 414.333818 201.293841 
L 415.044 201.185654 
L 415.754182 209.529774 
L 416.464364 213.169962 
L 417.174545 212.631802 
L 417.884727 217.693989 
L 418.594909 215.419383 
L 419.305091 215.953849 
L 420.015273 221.814793 
L 420.725455 219.382834 
L 421.435636 228.127575 
L 422.145818 228.846376 
L 422.856 226.427127 
L 423.566182 235.26249 
L 424.276364 238.278777 
L 424.986545 242.949697 
L 425.696727 239.358434 
L 426.406909 239.610544 
L 427.117091 240.902357 
L 427.827273 235.749983 
L 428.537455 232.035224 
L 429.247636 230.510541 
L 429.957818 230.526633 
L 430.668 230.979937 
L 431.378182 235.021733 
L 432.088364 236.42299 
L 433.508727 246.127183 
L 434.218909 246.700318 
L 434.929091 244.969474 
L 435.639273 248.916649 
L 436.349455 249.316434 
L 437.059636 255.37209 
L 437.769818 256.945419 
L 438.48 262.641787 
L 439.190182 259.848676 
L 439.900364 259.778742 
L 440.610545 252.304576 
L 441.320727 256.762247 
L 442.030909 252.081654 
L 442.741091 248.538736 
L 443.451273 251.429259 
L 444.161455 252.611967 
L 444.871636 247.226178 
L 445.581818 255.878369 
L 446.292 251.597923 
L 447.002182 254.029217 
L 448.422545 251.721452 
L 449.132727 255.016309 
L 449.842909 247.193155 
L 450.553091 248.685379 
L 451.263273 246.645593 
L 451.973455 245.178862 
L 452.683636 252.562214 
L 453.393818 251.444946 
L 454.104 258.118477 
L 454.814182 250.80658 
L 455.524364 253.621736 
L 456.234545 255.665266 
L 456.944727 249.225398 
L 457.654909 253.598356 
L 458.365091 247.882357 
L 459.075273 248.371081 
L 459.785455 247.191561 
L 460.495636 243.055876 
L 461.205818 243.649395 
L 461.916 250.267245 
L 462.626182 247.255922 
L 463.336364 249.322291 
L 464.046545 250.741925 
L 464.756727 244.113914 
L 466.177091 252.109562 
L 466.887273 242.122004 
L 467.597455 234.260425 
L 468.307636 230.745969 
L 469.017818 239.186785 
L 469.728 237.408344 
L 470.438182 242.565037 
L 471.148364 243.308587 
L 471.858545 240.097045 
L 472.568727 236.356066 
L 473.278909 242.775789 
L 473.989091 242.766018 
L 474.699273 239.40888 
L 475.409455 236.903346 
L 476.119636 237.176436 
L 476.829818 236.004855 
L 477.54 231.527053 
L 478.250182 235.544556 
L 478.960364 234.667466 
L 479.670545 231.523039 
L 480.380727 234.077678 
L 481.090909 232.800513 
L 481.801091 232.00654 
L 482.511273 227.527837 
L 483.221455 228.086441 
L 483.931636 224.904413 
L 484.641818 222.548575 
L 485.352 227.938691 
L 486.062182 227.769848 
L 486.772364 229.744219 
L 487.482545 226.200222 
L 488.192727 223.926984 
L 488.902909 222.907893 
L 489.613091 223.327684 
L 490.323273 227.255799 
L 491.033455 227.561023 
L 491.743636 227.627576 
L 492.453818 225.526019 
L 493.164 225.011406 
L 493.874182 220.608488 
L 494.584364 213.952081 
L 495.294545 218.090361 
L 496.004727 219.877706 
L 496.714909 224.697392 
L 497.425091 216.525526 
L 498.135273 220.801906 
L 498.845455 228.854105 
L 499.555636 225.983525 
L 500.265818 227.726234 
L 500.976 228.723186 
L 501.686182 227.172445 
L 502.396364 227.90064 
L 503.106545 225.021699 
L 503.816727 224.371566 
L 505.237091 216.543069 
L 505.947273 206.839662 
L 506.657455 200.135118 
L 507.367636 207.978825 
L 508.077818 208.778848 
L 508.788 199.653249 
L 509.498182 195.851066 
L 510.208364 196.674851 
L 510.918545 201.263705 
L 511.628727 204.464785 
L 512.338909 202.770518 
L 513.049091 206.539343 
L 513.759273 206.988629 
L 514.469455 207.193476 
L 515.179636 207.26788 
L 515.889818 213.259789 
L 516.6 212.685926 
L 517.310182 213.624704 
L 518.020364 211.146673 
L 518.730545 214.700448 
L 519.440727 203.912135 
L 520.150909 212.726524 
L 520.861091 212.236249 
L 521.571273 213.145141 
L 522.281455 220.022847 
L 522.991636 219.601428 
L 523.701818 217.042845 
L 524.412 227.295858 
L 525.122182 217.638827 
L 525.832364 221.739358 
L 526.542545 221.748657 
L 527.252727 222.398522 
L 527.962909 218.933501 
L 528.673091 219.57876 
L 529.383273 221.131872 
L 530.093455 227.198749 
L 530.803636 240.190764 
L 531.513818 231.1238 
L 532.224 230.014646 
L 532.934182 235.951962 
L 533.644364 231.630228 
L 534.354545 235.842669 
L 535.064727 232.289014 
L 535.774909 239.388036 
L 536.485091 238.447978 
L 537.195273 239.984679 
L 537.905455 243.628963 
L 538.615636 239.293212 
L 539.325818 246.203057 
L 540.036 242.434431 
L 540.746182 241.400568 
L 541.456364 239.657213 
L 542.166545 239.333032 
L 542.876727 239.644025 
L 543.586909 240.693115 
L 544.297091 237.608905 
L 545.007273 229.037746 
L 545.717455 227.42553 
L 547.137818 236.200395 
L 547.848 233.705774 
L 548.558182 229.249286 
L 549.268364 229.342996 
L 549.978545 230.164032 
L 550.688727 233.270666 
L 551.398909 232.22959 
L 552.109091 226.628112 
L 552.819273 224.368389 
L 553.529455 226.456121 
L 554.239636 227.213088 
L 554.949818 243.617742 
L 555.66 236.290812 
L 556.370182 233.811179 
L 557.080364 230.111342 
L 557.790545 223.867785 
L 558.500727 224.783044 
L 559.210909 217.060064 
L 559.921091 224.403845 
L 560.631273 224.636065 
L 561.341455 223.343891 
L 562.051636 226.643271 
L 562.761818 221.260777 
L 563.472 220.013031 
L 564.182182 221.506803 
L 564.892364 221.937514 
L 565.602545 225.820527 
L 566.312727 227.905787 
L 567.022909 225.613827 
L 567.733091 219.908687 
L 568.443273 221.447717 
L 569.153455 220.960538 
L 569.863636 213.217485 
L 570.573818 214.576918 
L 571.284 221.397297 
L 571.994182 221.753534 
L 572.704364 216.276082 
L 573.414545 213.626231 
L 574.124727 214.183556 
L 574.834909 217.71628 
L 575.545091 222.244853 
L 576.255273 219.342776 
L 576.965455 219.253085 
L 577.675636 215.335895 
L 578.385818 215.140737 
L 579.096 212.709669 
L 579.806182 207.626475 
L 580.516364 210.911685 
L 581.226545 217.471154 
L 581.936727 212.218405 
L 582.646909 205.703927 
L 583.357091 203.960438 
L 584.067273 206.817781 
L 584.777455 207.820516 
L 585.487636 213.655449 
L 586.197818 226.92454 
L 586.908 227.689295 
L 587.618182 222.53419 
L 589.038545 216.512721 
L 589.748727 214.557277 
L 590.458909 205.208322 
L 591.169091 203.211452 
L 591.879273 204.5753 
L 592.589455 208.234112 
L 593.299636 210.241666 
L 594.009818 209.732094 
L 594.72 202.352042 
L 595.430182 205.649473 
L 596.140364 200.005737 
L 596.850545 209.988792 
L 597.560727 210.489633 
L 598.270909 206.356749 
L 598.981091 204.078003 
L 599.691273 206.704531 
L 600.401455 202.878362 
L 601.111636 205.08151 
L 601.821818 200.142471 
L 602.532 198.550577 
L 603.952364 186.164261 
L 604.662545 188.110828 
L 605.372727 191.328528 
L 606.082909 197.878841 
L 606.793091 189.259228 
L 607.503273 187.768323 
L 608.213455 189.113246 
L 608.923636 189.036223 
L 609.633818 178.062868 
L 610.344 172.563099 
L 611.054182 175.192207 
L 611.764364 172.453159 
L 612.474545 168.015904 
L 613.184727 170.803651 
L 613.894909 165.244051 
L 614.605091 165.133275 
L 615.315273 164.140622 
L 616.025455 164.839731 
L 616.735636 159.763248 
L 617.445818 156.102323 
L 618.156 153.935289 
L 618.866182 157.745268 
L 619.576364 157.464221 
L 620.286545 157.602569 
L 620.996727 152.177869 
L 621.706909 150.351734 
L 622.417091 161.675753 
L 623.127273 169.236157 
L 624.547636 163.674043 
L 625.257818 161.742712 
L 625.968 163.260464 
L 627.388364 158.05909 
L 628.098545 163.265997 
L 628.808727 170.279739 
L 629.518909 171.770922 
L 630.229091 166.249401 
L 630.939273 163.101187 
L 631.649455 163.484883 
L 632.359636 162.32516 
L 633.78 176.014637 
L 634.490182 181.979122 
L 635.200364 181.423877 
L 635.910545 181.857472 
L 636.620727 187.59571 
L 638.041091 177.558979 
L 638.751273 180.580481 
L 639.461455 174.088391 
L 640.171636 175.206787 
L 640.881818 177.367895 
L 641.592 171.70494 
L 642.302182 171.199954 
L 643.012364 170.051699 
L 643.722545 167.874954 
L 644.432727 163.718074 
L 645.142909 153.768295 
L 645.853091 151.55295 
L 646.563273 151.509432 
L 647.273455 147.844417 
L 647.983636 149.991257 
L 648.693818 152.717872 
L 649.404 150.795202 
L 650.114182 158.232858 
L 650.824364 149.125074 
L 651.534545 144.353573 
L 652.244727 147.077882 
L 652.954909 147.899694 
L 653.665091 144.012704 
L 654.375273 143.658851 
L 655.085455 135.252876 
L 655.795636 131.081924 
L 656.505818 130.083173 
L 657.216 135.305828 
L 657.926182 133.293181 
L 659.346545 139.43499 
L 660.056727 137.015438 
L 660.766909 130.803115 
L 661.477091 123.328221 
L 662.187273 119.102424 
L 662.897455 119.045939 
L 663.607636 118.852402 
L 664.317818 124.741133 
L 665.028 121.679045 
L 665.738182 112.868667 
L 666.448364 112.83663 
L 667.158545 121.763117 
L 667.868727 123.107658 
L 668.578909 127.522342 
L 669.289091 128.045364 
L 669.999273 129.909071 
L 670.709455 128.299073 
L 671.419636 130.800018 
L 672.129818 123.770088 
L 672.84 132.430339 
L 673.550182 135.134652 
L 674.260364 136.273201 
L 674.970545 137.948784 
L 675.680727 144.352058 
L 676.390909 139.478027 
L 677.101091 139.513714 
L 677.811273 128.662341 
L 678.521455 128.981718 
L 679.231636 127.979368 
L 679.941818 129.161942 
L 680.652 135.49026 
L 681.362182 128.194659 
L 682.072364 129.291834 
L 682.782545 127.093177 
L 683.492727 130.131463 
L 684.202909 127.143718 
L 684.913091 128.894955 
L 685.623273 138.981329 
L 686.333455 140.673265 
L 687.043636 126.11853 
L 687.753818 124.29645 
L 688.464 119.347692 
L 689.174182 117.625307 
L 689.884364 117.427998 
L 690.594545 118.901632 
L 691.304727 110.946269 
L 692.014909 105.588019 
L 692.725091 113.126094 
L 693.435273 102.15867 
L 694.855636 104.768919 
L 695.565818 104.803142 
L 696.276 106.219112 
L 696.986182 117.189742 
L 697.696364 121.62408 
L 698.406545 121.297147 
L 699.116727 122.233127 
L 699.826909 124.194498 
L 700.537091 132.104665 
L 701.247273 133.159111 
L 701.957455 131.160768 
L 702.667636 134.059346 
L 703.377818 146.517936 
L 704.088 137.744011 
L 704.798182 140.34323 
L 705.508364 127.980678 
L 706.218545 124.733356 
L 706.928727 119.206022 
L 707.638909 116.537983 
L 708.349091 107.972246 
L 709.059273 102.188159 
L 709.769455 98.518528 
L 710.479636 99.907055 
L 711.189818 98.519684 
L 711.9 97.804456 
L 712.610182 99.09097 
L 713.320364 94.517819 
L 714.030545 93.901172 
L 714.740727 90.961078 
L 715.450909 97.834457 
L 716.161091 98.674448 
L 716.871273 102.757871 
L 717.581455 96.877032 
L 718.291636 97.532561 
L 719.001818 104.524397 
L 719.712 109.946688 
L 721.132364 124.458486 
L 721.842545 123.599036 
L 722.552727 119.752521 
L 723.262909 118.846988 
L 723.973091 126.995656 
L 724.683273 131.972169 
L 725.393455 131.491913 
L 726.103636 126.238057 
L 726.813818 122.794729 
L 727.524 118.482065 
L 728.234182 115.259035 
L 728.944364 112.732139 
L 729.654545 103.544789 
L 730.364727 102.123105 
L 731.074909 104.708963 
L 731.785091 101.175973 
L 733.205455 112.977362 
L 733.915636 114.493153 
L 734.625818 113.918403 
L 735.336 118.776253 
L 736.046182 115.93205 
L 736.756364 113.906445 
L 737.466545 117.840687 
L 738.176727 119.400518 
L 738.886909 121.741995 
L 739.597091 120.23504 
L 740.307273 118.181678 
L 741.727636 132.073009 
L 742.437818 134.633552 
L 743.148 130.804861 
L 743.858182 128.700843 
L 744.568364 139.314869 
L 745.278545 140.603213 
L 745.988727 140.813681 
L 746.698909 143.71772 
L 747.409091 141.354026 
L 748.119273 140.194724 
L 748.829455 138.747423 
L 749.539636 141.201409 
L 750.249818 140.226283 
L 750.96 134.766265 
L 751.670182 137.783694 
L 752.380364 134.587402 
L 753.090545 141.881528 
L 753.800727 138.850259 
L 754.510909 143.016637 
L 755.221091 141.952502 
L 755.931273 147.913427 
L 756.641455 148.01756 
L 757.351636 146.543262 
L 758.061818 151.226853 
L 758.772 152.881004 
L 760.192364 150.480011 
L 760.902545 148.591188 
L 761.612727 156.018474 
L 762.322909 158.20933 
L 763.033091 163.28078 
L 763.743273 159.241571 
L 764.453455 165.270798 
L 765.163636 162.327695 
L 765.873818 161.141447 
L 766.584 153.859877 
L 767.294182 154.927641 
L 768.004364 156.723366 
L 768.714545 163.188946 
L 769.424727 162.037079 
L 770.134909 166.831057 
L 770.845091 174.821945 
L 771.555273 174.152939 
L 772.265455 172.024873 
L 772.975636 171.757308 
L 773.685818 169.479078 
L 775.106182 162.339324 
L 775.816364 166.499173 
L 776.526545 168.069192 
L 777.236727 167.017896 
L 777.946909 174.826238 
L 778.657091 174.285402 
L 779.367273 176.070568 
L 780.077455 181.20792 
L 780.787636 184.113917 
L 781.497818 189.553802 
L 782.208 193.476325 
L 782.918182 185.592023 
L 783.628364 188.449025 
L 784.338545 181.639268 
L 785.048727 183.395711 
L 785.758909 180.340976 
L 786.469091 174.841512 
L 787.179273 179.020817 
L 787.889455 181.90187 
L 788.599636 179.241179 
L 789.309818 179.45015 
L 790.02 172.660427 
L 790.730182 179.585017 
L 791.440364 178.932607 
L 792.150545 180.244088 
L 792.860727 180.110938 
L 793.570909 180.339165 
L 794.281091 179.370755 
L 794.991273 184.302228 
L 795.701455 195.299291 
L 796.411636 189.963649 
L 797.121818 189.375334 
L 797.832 187.978677 
L 798.542182 188.4257 
L 799.252364 183.065753 
L 799.962545 181.838258 
L 800.672727 184.307043 
L 801.382909 177.31016 
L 802.093091 176.797143 
L 802.803273 176.438315 
L 803.513455 175.511474 
L 804.223636 178.672774 
L 804.933818 179.927853 
L 805.644 170.246189 
L 806.354182 165.221033 
L 807.064364 166.201819 
L 807.774545 162.571572 
L 809.194909 157.232912 
L 809.905091 148.340948 
L 810.615273 145.894086 
L 811.325455 133.365027 
L 812.035636 133.10953 
L 812.745818 126.3989 
L 813.456 138.780771 
L 815.586545 122.403721 
L 816.296727 126.466517 
L 817.006909 124.197071 
L 817.717091 128.780453 
L 818.427273 129.854068 
L 819.137455 140.217478 
L 819.847636 143.532675 
L 820.557818 145.190311 
L 821.268 152.510433 
L 821.978182 148.607951 
L 822.688364 152.309194 
L 823.398545 156.665324 
L 824.108727 152.649063 
L 824.818909 154.905858 
L 825.529091 154.473491 
L 826.239273 151.873543 
L 826.949455 157.688023 
L 827.659636 156.605298 
L 828.369818 156.907946 
L 829.08 158.559249 
L 829.790182 162.327996 
L 830.500364 164.583751 
L 831.210545 161.876662 
L 831.920727 159.702257 
L 833.341091 170.97439 
L 834.051273 172.826197 
L 834.761455 167.444345 
L 835.471636 170.143493 
L 836.181818 169.616705 
L 836.892 168.162583 
L 837.602182 176.918656 
L 838.312364 177.52097 
L 839.022545 177.568619 
L 839.732727 175.938772 
L 840.442909 174.803669 
L 841.153091 177.003424 
L 841.863273 174.415812 
L 842.573455 182.146142 
L 843.283636 182.511816 
L 843.993818 179.529621 
L 844.704 177.659031 
L 845.414182 181.86307 
L 846.124364 182.267749 
L 846.834545 183.741453 
L 847.544727 187.855784 
L 848.254909 188.346954 
L 848.965091 182.066977 
L 849.675273 182.603292 
L 850.385455 179.306518 
L 851.095636 177.845761 
L 851.805818 178.475959 
L 852.516 182.969769 
L 853.226182 193.071122 
L 854.646545 199.657474 
L 855.356727 196.656035 
L 856.066909 197.16688 
L 856.777091 198.754037 
L 857.487273 210.450668 
L 858.197455 211.881114 
L 858.907636 212.266487 
L 859.617818 210.450597 
L 860.328 209.950297 
L 861.038182 215.774585 
L 861.748364 223.583424 
L 862.458545 221.46582 
L 863.168727 224.348891 
L 863.878909 222.160942 
L 864.589091 220.664364 
L 865.299273 212.473068 
L 866.009455 216.144188 
L 866.719636 218.429127 
L 867.429818 221.34972 
L 868.14 223.265779 
L 868.850182 213.364525 
L 869.560364 211.329 
L 870.270545 211.288028 
L 870.980727 209.86457 
L 871.690909 212.77948 
L 871.690909 212.77948 
" clip-path="url(#p569ac6176d)" style="fill: none; stroke: #1f77b4; stroke-width: 1.5; stroke-linecap: square"/>
   </g>
   <g id="line2d_13">
    <path d="M 161.509091 229.72287 
L 162.219273 222.286265 
L 162.929455 219.645365 
L 163.639636 214.188379 
L 164.349818 216.061483 
L 165.06 208.424672 
L 166.480364 222.740198 
L 167.190545 228.1827 
L 167.900727 220.532226 
L 168.610909 226.25456 
L 169.321091 225.44341 
L 170.031273 226.888191 
L 170.741455 222.093774 
L 171.451636 221.960328 
L 172.161818 204.37664 
L 172.872 201.548914 
L 173.582182 210.287065 
L 174.292364 215.249928 
L 175.712727 198.359351 
L 176.422909 201.21133 
L 177.133091 192.706702 
L 177.843273 193.360665 
L 178.553455 197.894338 
L 179.263636 196.704883 
L 179.973818 196.078918 
L 180.684 194.547486 
L 181.394182 185.188589 
L 182.104364 182.880989 
L 182.814545 182.266928 
L 183.524727 182.403514 
L 184.234909 187.102943 
L 184.945091 184.209974 
L 185.655273 193.519976 
L 186.365455 195.955566 
L 187.075636 194.321363 
L 187.785818 195.142698 
L 188.496 191.327523 
L 189.206182 198.14148 
L 189.916364 197.062948 
L 190.626545 197.706113 
L 191.336727 191.41462 
L 192.046909 195.351436 
L 192.757091 192.674995 
L 193.467273 197.467226 
L 194.887636 202.373472 
L 195.597818 206.032511 
L 196.308 203.719118 
L 197.018182 195.408756 
L 197.728364 198.966564 
L 198.438545 199.96851 
L 199.148727 197.725077 
L 199.858909 187.297508 
L 200.569091 191.090149 
L 201.279273 179.878872 
L 201.989455 180.877389 
L 202.699636 181.433622 
L 203.409818 187.705634 
L 204.12 192.295826 
L 204.830182 189.913238 
L 205.540364 194.583833 
L 206.250545 196.83556 
L 206.960727 196.842751 
L 207.670909 199.836533 
L 208.381091 206.590331 
L 209.091273 195.961358 
L 209.801455 194.577962 
L 210.511636 191.761011 
L 211.221818 191.337318 
L 211.932 178.767313 
L 212.642182 185.759939 
L 213.352364 191.267172 
L 214.062545 186.577647 
L 214.772727 195.290036 
L 215.482909 191.751348 
L 216.193091 200.278778 
L 216.903273 198.872386 
L 217.613455 201.736228 
L 219.033818 197.477168 
L 219.744 197.855723 
L 220.454182 200.465775 
L 221.164364 206.693547 
L 221.874545 198.460337 
L 222.584727 203.428242 
L 223.294909 202.201855 
L 224.005091 195.571605 
L 224.715273 192.076771 
L 225.425455 197.531232 
L 226.135636 199.782399 
L 226.845818 200.540812 
L 227.556 199.41074 
L 228.266182 188.747529 
L 228.976364 196.558881 
L 229.686545 188.439961 
L 230.396727 185.173449 
L 231.106909 182.930588 
L 231.817091 178.327138 
L 232.527273 181.636169 
L 233.237455 191.958825 
L 233.947636 179.706282 
L 234.657818 184.571581 
L 235.368 185.544669 
L 236.078182 174.95575 
L 236.788364 178.682763 
L 237.498545 175.417242 
L 238.208727 172.705378 
L 238.918909 166.17654 
L 239.629091 169.703043 
L 240.339273 168.646975 
L 241.049455 170.687972 
L 241.759636 170.882252 
L 242.469818 175.312167 
L 243.890182 163.396235 
L 244.600364 168.10443 
L 245.310545 169.282466 
L 246.020727 171.591942 
L 246.730909 180.032195 
L 247.441091 166.571596 
L 248.151273 170.253284 
L 248.861455 174.632859 
L 249.571636 175.904523 
L 250.281818 165.416987 
L 250.992 173.599512 
L 251.702182 177.355944 
L 252.412364 181.916989 
L 253.122545 179.112509 
L 253.832727 185.248891 
L 254.542909 179.748612 
L 255.253091 186.061431 
L 255.963273 180.647286 
L 256.673455 179.353792 
L 257.383636 182.22972 
L 258.093818 181.594553 
L 258.804 196.35817 
L 259.514182 201.600416 
L 260.224364 202.699847 
L 260.934545 198.694926 
L 261.644727 201.821579 
L 262.354909 194.853462 
L 263.065091 200.729006 
L 263.775273 204.839111 
L 264.485455 194.667801 
L 265.195636 187.311292 
L 265.905818 176.999727 
L 266.616 179.546187 
L 267.326182 181.513559 
L 268.036364 174.648852 
L 268.746545 177.004822 
L 269.456727 178.754602 
L 270.166909 183.462141 
L 270.877091 184.429178 
L 271.587273 175.046638 
L 272.297455 179.097501 
L 273.007636 179.599605 
L 273.717818 172.229537 
L 274.428 180.488827 
L 275.138182 184.973 
L 275.848364 184.301892 
L 276.558545 181.151315 
L 277.268727 192.130494 
L 277.978909 193.059878 
L 278.689091 189.44147 
L 279.399273 193.229306 
L 280.109455 197.821362 
L 280.819636 184.55418 
L 281.529818 185.156961 
L 282.24 187.240227 
L 282.950182 184.240096 
L 283.660364 179.433617 
L 284.370545 179.00488 
L 285.790909 197.009821 
L 286.501091 191.858292 
L 287.211273 185.31432 
L 287.921455 198.362016 
L 288.631636 188.510794 
L 289.341818 188.910224 
L 290.052 199.015026 
L 290.762182 199.624777 
L 291.472364 217.019507 
L 292.182545 219.155414 
L 292.892727 220.916197 
L 293.602909 207.731919 
L 294.313091 201.664232 
L 295.023273 199.374177 
L 295.733455 206.396503 
L 296.443636 204.02292 
L 297.153818 199.016336 
L 297.864 189.10063 
L 298.574182 197.564934 
L 299.284364 181.867493 
L 299.994545 182.01049 
L 300.704727 182.625691 
L 301.414909 178.040621 
L 302.125091 177.040239 
L 302.835273 180.138457 
L 303.545455 196.747662 
L 304.255636 199.815929 
L 304.965818 198.555771 
L 305.676 193.795292 
L 306.386182 199.542804 
L 307.096364 202.645891 
L 307.806545 198.991937 
L 308.516727 210.405475 
L 309.226909 217.164517 
L 309.937091 219.56696 
L 310.647273 217.441018 
L 311.357455 216.827118 
L 312.067636 214.287649 
L 312.777818 210.523701 
L 313.488 207.739963 
L 314.198182 200.418479 
L 314.908364 197.553672 
L 315.618545 199.029341 
L 316.328727 190.094347 
L 317.038909 184.523829 
L 317.749091 196.117999 
L 318.459273 196.48092 
L 319.169455 202.353581 
L 319.879636 190.147218 
L 320.589818 204.118222 
L 321.3 198.905229 
L 322.010182 204.264368 
L 322.720364 196.81642 
L 323.430545 191.926916 
L 324.140727 193.520881 
L 324.850909 201.62098 
L 325.561091 201.208495 
L 326.271273 203.252922 
L 326.981455 204.606575 
L 327.691636 213.891515 
L 328.401818 204.661808 
L 329.112 207.351988 
L 329.822182 212.753913 
L 330.532364 207.314615 
L 331.242545 199.569518 
L 331.952727 204.356125 
L 332.662909 211.351998 
L 333.373091 224.525416 
L 334.083273 210.330925 
L 334.793455 214.861093 
L 335.503636 208.456955 
L 336.213818 210.794298 
L 336.924 218.559318 
L 337.634182 219.359556 
L 338.344364 214.270176 
L 339.054545 206.383677 
L 339.764727 204.315872 
L 340.474909 201.030489 
L 341.185091 202.399369 
L 341.895273 207.497979 
L 342.605455 202.338896 
L 343.315636 194.064601 
L 344.025818 194.786953 
L 344.736 193.614567 
L 345.446182 197.770322 
L 346.156364 190.803263 
L 346.866545 196.783843 
L 347.576727 205.554549 
L 348.286909 206.29807 
L 348.997091 210.85898 
L 350.417455 207.027638 
L 351.127636 201.890767 
L 351.837818 209.282776 
L 352.548 212.202445 
L 353.258182 208.072213 
L 353.968364 213.462007 
L 354.678545 215.467697 
L 355.388727 216.419449 
L 356.098909 229.034072 
L 356.809091 227.192886 
L 358.229455 217.989889 
L 358.939636 220.331383 
L 359.649818 230.743999 
L 360.36 235.677857 
L 361.070182 231.758065 
L 361.780364 221.636029 
L 362.490545 222.45287 
L 363.200727 214.493301 
L 363.910909 218.592552 
L 364.621091 225.698572 
L 365.331273 218.464934 
L 366.041455 219.860102 
L 366.751636 210.303373 
L 367.461818 208.071098 
L 368.172 215.207041 
L 368.882182 213.683501 
L 369.592364 216.413218 
L 370.302545 216.647886 
L 371.012727 219.882354 
L 371.722909 215.117833 
L 372.433091 218.990099 
L 373.143273 223.558571 
L 373.853455 220.3046 
L 374.563636 221.763916 
L 375.273818 224.81116 
L 375.984 223.589113 
L 376.694182 238.693061 
L 377.404364 238.940701 
L 378.114545 243.686202 
L 378.824727 238.916971 
L 380.245091 240.518904 
L 380.955273 238.713335 
L 381.665455 230.207018 
L 382.375636 231.16573 
L 383.085818 231.427773 
L 383.796 231.969512 
L 384.506182 226.227995 
L 385.216364 227.922148 
L 385.926545 222.866997 
L 386.636727 236.295712 
L 387.346909 234.009566 
L 388.767273 247.105838 
L 389.477455 242.733784 
L 390.187636 234.175216 
L 390.897818 231.864138 
L 391.608 227.408428 
L 392.318182 225.371811 
L 393.028364 225.4473 
L 393.738545 214.259099 
L 394.448727 214.277435 
L 395.158909 211.076344 
L 395.869091 214.136657 
L 396.579273 213.838699 
L 397.289455 218.84782 
L 397.999636 221.147182 
L 398.709818 218.80864 
L 400.130182 232.407739 
L 400.840364 230.215713 
L 401.550545 227.237295 
L 402.260727 238.371833 
L 402.970909 242.16144 
L 403.681091 243.932753 
L 404.391273 237.767015 
L 405.101455 236.828373 
L 405.811636 240.773423 
L 406.521818 244.068016 
L 407.232 249.392118 
L 407.942182 245.275996 
L 408.652364 241.862065 
L 409.362545 236.632634 
L 410.072727 234.569639 
L 410.782909 243.120863 
L 411.493091 237.071753 
L 412.203273 237.327296 
L 412.913455 233.374194 
L 413.623636 226.247811 
L 414.333818 228.045412 
L 415.044 228.849789 
L 415.754182 236.718341 
L 416.464364 238.817141 
L 417.174545 236.270905 
L 417.884727 233.002977 
L 418.594909 224.665026 
L 419.305091 228.594687 
L 420.015273 239.595814 
L 420.725455 234.226761 
L 421.435636 246.665047 
L 422.145818 243.490682 
L 422.856 240.963087 
L 423.566182 252.107789 
L 424.276364 257.667125 
L 424.986545 257.785895 
L 425.696727 255.545192 
L 426.406909 258.441666 
L 427.117091 258.171943 
L 427.827273 245.186684 
L 429.247636 239.71829 
L 429.957818 239.504125 
L 430.668 244.031521 
L 431.378182 250.920299 
L 432.088364 247.747774 
L 432.798545 243.368183 
L 433.508727 243.856434 
L 434.218909 244.161825 
L 434.929091 238.667637 
L 435.639273 240.011098 
L 436.349455 239.910015 
L 437.059636 246.883981 
L 437.769818 242.897906 
L 438.48 244.390035 
L 439.190182 244.108468 
L 439.900364 246.710593 
L 440.610545 235.010461 
L 441.320727 237.390897 
L 442.030909 229.381051 
L 442.741091 234.284606 
L 443.451273 235.786458 
L 444.161455 234.639604 
L 444.871636 216.200218 
L 445.581818 227.43018 
L 446.292 236.411752 
L 447.712364 246.273654 
L 449.132727 251.064453 
L 449.842909 240.681232 
L 450.553091 236.301544 
L 451.263273 233.969845 
L 451.973455 234.16984 
L 452.683636 246.816368 
L 454.104 258.252797 
L 454.814182 251.046575 
L 455.524364 254.323814 
L 456.234545 256.462989 
L 456.944727 244.522186 
L 457.654909 247.62522 
L 458.365091 238.921027 
L 459.075273 243.808744 
L 459.785455 246.976013 
L 460.495636 242.757758 
L 461.205818 234.608056 
L 461.916 240.412677 
L 462.626182 239.420377 
L 463.336364 241.321109 
L 464.046545 240.245682 
L 464.756727 238.409476 
L 465.466909 232.160651 
L 466.177091 230.083711 
L 467.597455 208.697027 
L 468.307636 201.380435 
L 469.017818 213.773553 
L 469.728 224.162472 
L 470.438182 225.099451 
L 471.148364 224.763178 
L 471.858545 227.21907 
L 472.568727 227.313353 
L 473.278909 229.203349 
L 473.989091 225.941423 
L 474.699273 224.303014 
L 475.409455 223.809523 
L 476.119636 221.029467 
L 476.829818 220.966431 
L 477.54 223.791124 
L 478.250182 221.549904 
L 478.960364 220.30253 
L 479.670545 222.421546 
L 480.380727 223.151961 
L 481.090909 227.026446 
L 481.801091 235.70545 
L 482.511273 232.751999 
L 483.221455 232.716141 
L 483.931636 234.768322 
L 484.641818 236.117744 
L 485.352 233.86663 
L 486.062182 233.055942 
L 486.772364 234.805781 
L 487.482545 228.409268 
L 488.192727 228.646048 
L 488.902909 227.900303 
L 489.613091 222.926643 
L 490.323273 219.222398 
L 491.033455 225.554547 
L 491.743636 220.95199 
L 492.453818 219.612156 
L 493.164 214.149816 
L 493.874182 206.882257 
L 494.584364 197.598032 
L 495.294545 200.878371 
L 496.004727 205.644814 
L 496.714909 206.636624 
L 497.425091 201.875076 
L 498.135273 216.499745 
L 498.845455 226.923191 
L 499.555636 213.451959 
L 500.265818 214.687848 
L 500.976 205.896454 
L 501.686182 209.231084 
L 502.396364 206.970439 
L 503.106545 203.111659 
L 503.816727 200.19829 
L 504.526909 196.602781 
L 505.237091 191.741669 
L 506.657455 178.790481 
L 507.367636 185.873206 
L 508.077818 186.853269 
L 509.498182 157.380619 
L 510.208364 157.068929 
L 510.918545 165.976964 
L 511.628727 172.048789 
L 512.338909 176.296997 
L 513.049091 182.017184 
L 513.759273 171.845461 
L 514.469455 170.377386 
L 515.179636 179.820227 
L 515.889818 184.498618 
L 516.6 179.705232 
L 517.310182 183.271855 
L 518.730545 174.103398 
L 519.440727 160.133691 
L 520.150909 170.529044 
L 520.861091 169.744988 
L 521.571273 171.381929 
L 522.281455 183.309463 
L 522.991636 180.899647 
L 523.701818 183.541808 
L 524.412 189.349605 
L 525.122182 186.589242 
L 525.832364 194.565572 
L 526.542545 192.292231 
L 527.252727 201.344047 
L 527.962909 191.964609 
L 528.673091 201.110783 
L 529.383273 196.743213 
L 530.093455 196.65847 
L 530.803636 213.363677 
L 531.513818 209.185098 
L 532.224 202.988073 
L 532.934182 213.232234 
L 533.644364 211.345608 
L 534.354545 203.636567 
L 535.064727 194.02032 
L 535.774909 205.521346 
L 536.485091 205.046544 
L 537.195273 209.889313 
L 537.905455 211.382457 
L 538.615636 201.811979 
L 539.325818 209.531551 
L 540.036 204.509264 
L 540.746182 193.446806 
L 541.456364 192.514711 
L 542.166545 195.91747 
L 542.876727 192.457658 
L 543.586909 189.624088 
L 544.297091 187.820021 
L 545.007273 180.337932 
L 546.427636 187.330431 
L 547.137818 189.370554 
L 547.848 188.131475 
L 548.558182 186.10266 
L 549.268364 193.896914 
L 549.978545 190.537883 
L 550.688727 192.155702 
L 551.398909 196.08629 
L 552.109091 197.105329 
L 552.819273 200.575924 
L 553.529455 198.836162 
L 554.239636 203.617394 
L 554.949818 218.139584 
L 555.66 208.432992 
L 556.370182 203.078163 
L 557.080364 196.818438 
L 557.790545 193.851085 
L 559.210909 176.209233 
L 559.921091 187.633931 
L 560.631273 189.472014 
L 561.341455 189.490106 
L 562.051636 204.434466 
L 562.761818 197.843708 
L 563.472 188.654655 
L 564.182182 191.906152 
L 564.892364 202.692069 
L 565.602545 206.784499 
L 566.312727 205.080118 
L 567.022909 200.516418 
L 567.733091 194.815343 
L 568.443273 191.65716 
L 569.153455 186.254794 
L 569.863636 182.217943 
L 570.573818 180.826873 
L 571.284 185.202075 
L 571.994182 181.695485 
L 572.704364 181.885112 
L 573.414545 178.930989 
L 574.124727 179.326204 
L 575.545091 183.206335 
L 576.255273 185.570786 
L 576.965455 187.094102 
L 577.675636 193.439394 
L 578.385818 193.450031 
L 579.096 188.442188 
L 579.806182 185.295644 
L 580.516364 193.141122 
L 581.226545 205.1292 
L 581.936727 195.591926 
L 582.646909 191.561786 
L 583.357091 191.75337 
L 584.067273 191.19516 
L 585.487636 202.251433 
L 586.197818 217.305812 
L 586.908 217.502355 
L 587.618182 207.716101 
L 588.328364 206.208491 
L 589.038545 206.697298 
L 589.748727 206.114528 
L 590.458909 192.742776 
L 591.169091 184.11397 
L 591.879273 182.662579 
L 592.589455 185.804944 
L 594.009818 196.569974 
L 594.72 188.163512 
L 595.430182 191.702833 
L 596.140364 181.050818 
L 596.850545 190.906439 
L 597.560727 186.970127 
L 598.270909 181.639227 
L 598.981091 177.460526 
L 599.691273 172.425548 
L 600.401455 159.742653 
L 601.111636 158.534579 
L 601.821818 154.520004 
L 602.532 151.924866 
L 603.242182 143.054972 
L 603.952364 138.926765 
L 604.662545 148.40676 
L 605.372727 152.605072 
L 606.082909 163.922199 
L 606.793091 155.236039 
L 607.503273 162.631914 
L 608.213455 164.595819 
L 608.923636 162.446109 
L 609.633818 153.658959 
L 610.344 142.466651 
L 611.054182 139.283815 
L 611.764364 146.130099 
L 612.474545 132.999527 
L 613.184727 144.998734 
L 613.894909 137.261242 
L 614.605091 141.12056 
L 615.315273 136.125321 
L 616.025455 126.867449 
L 616.735636 124.652911 
L 617.445818 121.866864 
L 618.156 115.160407 
L 618.866182 119.270624 
L 619.576364 126.25061 
L 620.286545 130.10194 
L 621.706909 124.594366 
L 623.127273 142.333272 
L 623.837455 144.221573 
L 624.547636 142.030883 
L 625.257818 132.923375 
L 625.968 137.446697 
L 626.678182 136.626324 
L 627.388364 132.2907 
L 628.098545 142.518351 
L 628.808727 147.830232 
L 629.518909 152.166498 
L 630.229091 134.522456 
L 630.939273 138.173019 
L 631.649455 140.059206 
L 632.359636 144.122658 
L 633.069818 152.472072 
L 633.78 157.034854 
L 634.490182 156.664495 
L 635.200364 154.676329 
L 635.910545 155.577998 
L 636.620727 162.533495 
L 637.330909 153.797339 
L 638.041091 149.288545 
L 638.751273 148.855276 
L 639.461455 140.414516 
L 640.171636 138.6341 
L 640.881818 144.202671 
L 641.592 144.314853 
L 642.302182 149.123965 
L 643.012364 151.547492 
L 643.722545 146.406935 
L 644.432727 146.435168 
L 645.142909 133.775288 
L 645.853091 124.635078 
L 646.563273 128.752951 
L 647.273455 120.365381 
L 647.983636 117.138195 
L 648.693818 124.966035 
L 649.404 118.96179 
L 650.114182 116.052788 
L 650.824364 110.632456 
L 651.534545 103.158773 
L 652.244727 100.000976 
L 652.954909 98.065785 
L 653.665091 93.837058 
L 654.375273 103.997809 
L 655.085455 98.02816 
L 655.795636 97.938636 
L 656.505818 94.640348 
L 657.216 104.713571 
L 657.926182 99.055323 
L 658.636364 109.67056 
L 659.346545 112.997168 
L 660.056727 108.815749 
L 660.766909 96.82668 
L 661.477091 87.434876 
L 662.187273 83.251523 
L 662.897455 91.603219 
L 663.607636 84.197447 
L 664.317818 89.814557 
L 665.028 85.962177 
L 665.738182 86.523746 
L 666.448364 88.171764 
L 667.158545 93.436364 
L 667.868727 88.518651 
L 668.578909 90.923722 
L 669.289091 89.618079 
L 669.999273 92.321769 
L 670.709455 90.511584 
L 671.419636 90.540449 
L 672.129818 79.497362 
L 672.84 87.078165 
L 673.550182 90.423243 
L 674.260364 87.005193 
L 674.970545 91.726305 
L 675.680727 98.104607 
L 676.390909 102.556229 
L 677.101091 105.056258 
L 677.811273 100.119145 
L 678.521455 99.837898 
L 679.231636 97.248588 
L 679.941818 106.519361 
L 680.652 111.226434 
L 681.362182 103.349294 
L 682.072364 103.622127 
L 682.782545 106.053606 
L 683.492727 113.285368 
L 684.202909 107.614367 
L 684.913091 111.863986 
L 685.623273 125.004123 
L 686.333455 122.176202 
L 687.043636 105.660374 
L 687.753818 103.779011 
L 688.464 97.751389 
L 689.174182 89.985929 
L 689.884364 96.390563 
L 690.594545 91.997756 
L 691.304727 80.308005 
L 692.014909 76.364952 
L 692.725091 84.674697 
L 693.435273 79.858244 
L 694.145455 79.267898 
L 694.855636 85.920456 
L 695.565818 89.334698 
L 696.986182 108.044863 
L 697.696364 124.509023 
L 698.406545 129.44843 
L 699.116727 121.987313 
L 700.537091 127.867686 
L 701.247273 123.097852 
L 701.957455 125.323593 
L 703.377818 144.322742 
L 704.088 141.48801 
L 704.798182 148.798639 
L 705.508364 138.698197 
L 706.218545 131.840333 
L 706.928727 121.376625 
L 707.638909 114.489676 
L 708.349091 97.626528 
L 709.059273 87.588413 
L 709.769455 86.765996 
L 710.479636 86.818714 
L 711.189818 87.085239 
L 711.9 78.045711 
L 712.610182 83.791769 
L 713.320364 76.479226 
L 714.030545 66.96 
L 714.740727 68.462142 
L 715.450909 74.243706 
L 716.871273 81.677161 
L 717.581455 77.569916 
L 718.291636 75.171674 
L 719.001818 87.657133 
L 719.712 87.458803 
L 720.422182 94.527404 
L 722.552727 110.679813 
L 723.262909 107.275711 
L 723.973091 105.820324 
L 724.683273 113.041597 
L 725.393455 117.542754 
L 726.103636 107.330053 
L 726.813818 103.909331 
L 727.524 97.215926 
L 728.234182 95.596662 
L 728.944364 93.239798 
L 729.654545 88.492968 
L 730.364727 93.457152 
L 731.074909 97.190579 
L 731.785091 95.346421 
L 732.495273 102.174664 
L 733.205455 113.914835 
L 733.915636 119.841277 
L 734.625818 116.201305 
L 735.336 123.424278 
L 736.046182 114.215074 
L 736.756364 118.149979 
L 738.176727 129.408788 
L 738.886909 124.03109 
L 739.597091 120.277806 
L 740.307273 120.322445 
L 741.017455 124.065077 
L 741.727636 138.90674 
L 742.437818 141.076748 
L 743.148 136.417299 
L 743.858182 132.662343 
L 745.278545 154.308046 
L 745.988727 147.612145 
L 746.698909 157.627317 
L 747.409091 161.267339 
L 748.119273 152.641602 
L 748.829455 149.152757 
L 749.539636 146.508095 
L 750.249818 147.056009 
L 751.670182 149.052815 
L 752.380364 140.82605 
L 753.090545 142.718237 
L 753.800727 136.334211 
L 754.510909 141.700756 
L 755.221091 139.368528 
L 755.931273 149.697756 
L 756.641455 150.558108 
L 757.351636 147.64612 
L 758.061818 150.4275 
L 758.772 150.139682 
L 759.482182 146.815946 
L 760.192364 148.277934 
L 761.612727 163.767076 
L 762.322909 160.4821 
L 763.033091 159.063764 
L 763.743273 160.12067 
L 764.453455 168.290116 
L 765.163636 165.574496 
L 765.873818 166.555357 
L 766.584 158.945288 
L 767.294182 154.461462 
L 768.714545 160.24614 
L 769.424727 160.986088 
L 770.845091 178.770074 
L 771.555273 173.006233 
L 772.265455 162.667051 
L 772.975636 164.160676 
L 773.685818 163.019535 
L 774.396 157.194711 
L 775.106182 156.720202 
L 775.816364 159.699208 
L 776.526545 163.6377 
L 777.236727 161.073156 
L 777.946909 169.548502 
L 778.657091 166.388428 
L 779.367273 169.582354 
L 780.077455 161.930637 
L 781.497818 182.216689 
L 782.208 182.346517 
L 782.918182 175.079777 
L 783.628364 176.045894 
L 784.338545 161.139856 
L 785.048727 156.485302 
L 785.758909 156.941923 
L 786.469091 159.042685 
L 787.179273 156.342554 
L 787.889455 160.881331 
L 788.599636 163.989239 
L 789.309818 158.137771 
L 790.02 149.759362 
L 790.730182 159.824982 
L 791.440364 167.803848 
L 792.150545 164.006238 
L 792.860727 171.486772 
L 793.570909 173.49295 
L 795.701455 195.547173 
L 796.411636 186.556213 
L 797.121818 192.28029 
L 797.832 183.141264 
L 798.542182 186.445616 
L 799.252364 183.928556 
L 799.962545 180.238032 
L 800.672727 184.564558 
L 801.382909 183.17157 
L 802.093091 183.598193 
L 802.803273 181.141512 
L 803.513455 177.316833 
L 804.223636 171.187566 
L 804.933818 172.340087 
L 805.644 161.693679 
L 806.354182 158.568752 
L 807.774545 150.687131 
L 808.484727 147.249984 
L 809.194909 148.874481 
L 809.905091 137.243353 
L 810.615273 136.762032 
L 811.325455 121.837053 
L 812.035636 116.080403 
L 812.745818 102.503897 
L 813.456 111.783335 
L 814.166182 111.037884 
L 814.876364 112.971953 
L 815.586545 111.939954 
L 816.296727 112.464437 
L 817.006909 114.270676 
L 817.717091 122.91031 
L 818.427273 111.679538 
L 819.137455 117.776899 
L 819.847636 120.347646 
L 820.557818 120.973754 
L 821.268 127.288005 
L 821.978182 120.178666 
L 822.688364 125.250722 
L 823.398545 128.657815 
L 824.108727 130.4718 
L 824.818909 125.980789 
L 825.529091 125.587964 
L 826.239273 118.488889 
L 826.949455 125.846356 
L 827.659636 127.515718 
L 828.369818 130.124879 
L 829.08 131.344944 
L 829.790182 130.637499 
L 830.500364 132.147208 
L 831.210545 138.996105 
L 831.920727 133.468251 
L 833.341091 147.046597 
L 834.051273 145.04986 
L 834.761455 131.968172 
L 835.471636 138.572577 
L 836.181818 140.482682 
L 836.892 139.138314 
L 837.602182 148.564044 
L 838.312364 150.15753 
L 839.022545 152.055438 
L 839.732727 152.852317 
L 840.442909 150.47401 
L 841.153091 154.018934 
L 841.863273 153.428893 
L 842.573455 157.673494 
L 843.283636 167.299842 
L 843.993818 168.865193 
L 844.704 159.230595 
L 845.414182 158.678108 
L 846.124364 164.960363 
L 846.834545 163.026543 
L 847.544727 171.694354 
L 848.254909 170.131429 
L 848.965091 163.767715 
L 849.675273 162.496155 
L 850.385455 155.375706 
L 851.095636 151.528853 
L 852.516 141.445521 
L 853.226182 141.553611 
L 853.936364 144.573969 
L 854.646545 139.633836 
L 855.356727 138.212044 
L 856.066909 142.178301 
L 856.777091 133.617701 
L 857.487273 148.218454 
L 858.197455 152.90352 
L 859.617818 144.979297 
L 860.328 141.897826 
L 861.748364 161.279086 
L 862.458545 156.030696 
L 863.168727 159.147891 
L 863.878909 157.35958 
L 865.299273 147.238692 
L 866.719636 158.957139 
L 867.429818 170.382117 
L 868.850182 165.6837 
L 869.560364 161.787658 
L 870.270545 166.989355 
L 870.980727 160.395351 
L 871.690909 157.670532 
L 871.690909 157.670532 
" clip-path="url(#p569ac6176d)" style="fill: none; stroke: #ff7f0e; stroke-width: 1.5; stroke-linecap: square"/>
   </g>
   <g id="line2d_14">
    <path d="M 162.219273 369.36 
L 164.349818 369.077258 
L 165.06 369.20448 
L 167.190545 368.504116 
L 167.900727 368.515409 
L 168.610909 368.410034 
L 170.031273 368.479472 
L 170.741455 368.220304 
L 171.451636 368.216852 
L 172.161818 367.957248 
L 172.872 367.97289 
L 174.292364 367.268228 
L 175.002545 366.663055 
L 175.712727 366.320194 
L 176.422909 366.253914 
L 177.133091 365.860513 
L 180.684 365.720103 
L 181.394182 365.136917 
L 184.234909 365.109288 
L 184.945091 365.201989 
L 185.655273 364.774609 
L 187.785818 364.887357 
L 188.496 364.846633 
L 189.206182 364.670962 
L 190.626545 364.702876 
L 191.336727 364.564936 
L 192.757091 364.560419 
L 193.467273 364.367792 
L 195.597818 364.28985 
L 196.308 364.279768 
L 197.018182 364.156276 
L 198.438545 364.229556 
L 199.148727 364.193251 
L 200.569091 363.91695 
L 201.279273 363.49296 
L 208.381091 363.207425 
L 209.091273 362.858083 
L 209.801455 362.897989 
L 210.511636 362.74386 
L 211.221818 362.740688 
L 211.932 361.934286 
L 214.772727 361.386716 
L 215.482909 361.464157 
L 216.903273 361.412809 
L 219.033818 361.425182 
L 221.164364 361.510036 
L 221.874545 360.750732 
L 222.584727 360.603498 
L 226.845818 360.576772 
L 227.556 360.641222 
L 228.266182 359.681052 
L 228.976364 359.531024 
L 229.686545 359.124169 
L 231.106909 359.013918 
L 232.527273 358.955493 
L 233.237455 358.626872 
L 233.947636 358.175821 
L 235.368 358.14973 
L 236.078182 357.81152 
L 237.498545 357.744151 
L 238.208727 357.73728 
L 238.918909 357.484784 
L 240.339273 357.381692 
L 241.759636 357.418726 
L 242.469818 357.317037 
L 243.890182 357.450346 
L 244.600364 357.277623 
L 246.730909 357.235214 
L 247.441091 356.802571 
L 248.151273 356.793741 
L 248.861455 356.591027 
L 249.571636 356.638413 
L 250.281818 356.088852 
L 250.992 355.79827 
L 253.122545 355.642449 
L 253.832727 355.43527 
L 254.542909 355.371148 
L 255.253091 355.041616 
L 255.963273 354.90047 
L 256.673455 354.915854 
L 257.383636 355.054704 
L 258.093818 355.049181 
L 258.804 354.610129 
L 260.224364 354.7313 
L 261.644727 354.684302 
L 262.354909 354.340202 
L 263.065091 354.25276 
L 263.775273 354.351644 
L 264.485455 353.799876 
L 265.195636 353.677978 
L 265.905818 352.943937 
L 267.326182 352.994366 
L 268.036364 353.123194 
L 269.456727 353.0379 
L 270.166909 352.844693 
L 270.877091 352.837253 
L 271.587273 352.428043 
L 273.717818 352.410301 
L 274.428 352.096052 
L 276.558545 352.147493 
L 278.689091 352.023664 
L 280.109455 351.541269 
L 280.819636 350.909243 
L 282.950182 350.93887 
L 283.660364 350.76606 
L 284.370545 350.778667 
L 287.211273 349.929868 
L 288.631636 349.287123 
L 289.341818 349.295644 
L 290.052 348.911427 
L 290.762182 348.921327 
L 291.472364 347.650455 
L 292.892727 347.702808 
L 293.602909 347.183407 
L 296.443636 346.750098 
L 297.153818 346.607849 
L 298.574182 345.858976 
L 299.284364 345.242256 
L 300.704727 345.270701 
L 301.414909 345.02988 
L 302.835273 344.936317 
L 303.545455 343.479544 
L 307.806545 343.162091 
L 308.516727 342.721309 
L 309.226909 342.539889 
L 310.647273 342.495848 
L 312.067636 342.528414 
L 312.777818 342.351103 
L 313.488 342.38329 
L 314.198182 342.049388 
L 315.618545 342.034674 
L 317.038909 341.714136 
L 317.749091 341.30089 
L 319.169455 341.282611 
L 320.589818 340.562299 
L 322.010182 340.267351 
L 322.720364 340.073923 
L 325.561091 339.936807 
L 326.271273 339.807338 
L 326.981455 339.807622 
L 327.691636 339.484747 
L 328.401818 338.901861 
L 330.532364 338.628108 
L 331.242545 338.787753 
L 331.952727 338.68833 
L 332.662909 338.367317 
L 333.373091 337.417512 
L 334.083273 336.906465 
L 338.344364 336.231633 
L 339.054545 335.602325 
L 341.185091 335.498029 
L 341.895273 335.1741 
L 342.605455 335.090931 
L 343.315636 335.29462 
L 345.446182 335.27676 
L 346.156364 334.879584 
L 346.866545 335.086775 
L 347.576727 334.964759 
L 348.286909 334.988479 
L 351.837818 334.479093 
L 353.258182 334.175166 
L 353.968364 334.254068 
L 355.388727 334.109912 
L 356.098909 333.772269 
L 356.809091 333.817742 
L 357.519273 333.581603 
L 358.939636 333.560991 
L 359.649818 332.886801 
L 361.070182 332.887866 
L 361.780364 332.589054 
L 362.490545 332.610418 
L 363.200727 332.448357 
L 363.910909 332.518582 
L 365.331273 331.969017 
L 368.882182 331.976717 
L 370.302545 331.910502 
L 371.012727 331.928693 
L 371.722909 331.671705 
L 375.273818 331.326188 
L 375.984 331.313467 
L 376.694182 330.612862 
L 380.955273 330.606666 
L 382.375636 330.521401 
L 383.796 330.548531 
L 384.506182 330.30766 
L 385.926545 330.179494 
L 386.636727 329.615278 
L 387.346909 329.583422 
L 388.767273 328.969982 
L 389.477455 328.891273 
L 390.187636 329.060658 
L 390.897818 329.105774 
L 392.318182 329.002591 
L 394.448727 328.895418 
L 397.289455 328.751595 
L 397.999636 328.673938 
L 400.130182 328.890966 
L 401.550545 328.816739 
L 402.260727 328.496993 
L 407.232 328.104912 
L 407.942182 327.95277 
L 409.362545 327.982728 
L 410.072727 327.954839 
L 411.493091 327.707156 
L 415.044 327.699541 
L 415.754182 327.230408 
L 417.174545 327.166026 
L 417.884727 327.28423 
L 418.594909 327.148715 
L 419.305091 327.133708 
L 420.015273 326.673001 
L 420.725455 326.579702 
L 421.435636 325.80251 
L 422.856 325.775121 
L 423.566182 325.07154 
L 424.276364 324.951724 
L 427.117091 324.887534 
L 427.827273 324.409478 
L 429.247636 324.304604 
L 430.668 324.289964 
L 431.378182 324.091017 
L 432.088364 324.122782 
L 432.798545 324.286501 
L 436.349455 324.164096 
L 437.059636 323.862336 
L 438.48 323.846414 
L 439.900364 323.842095 
L 440.610545 323.217247 
L 441.320727 323.141427 
L 442.030909 322.873543 
L 442.741091 322.997678 
L 444.161455 322.976351 
L 445.581818 321.572481 
L 446.292 321.847183 
L 447.002182 321.754343 
L 449.132727 321.7546 
L 449.842909 321.17419 
L 451.263273 321.186904 
L 451.973455 321.189 
L 452.683636 320.521815 
L 453.393818 320.571061 
L 454.104 320.319867 
L 454.814182 319.943373 
L 456.234545 319.846215 
L 456.944727 319.296761 
L 457.654909 319.199803 
L 458.365091 318.844302 
L 461.205818 318.763836 
L 461.916 318.489356 
L 464.756727 318.363888 
L 465.466909 318.552387 
L 466.177091 318.608394 
L 467.597455 317.246817 
L 468.307636 317.063083 
L 469.017818 316.315627 
L 469.728 316.447644 
L 471.148364 316.414907 
L 472.568727 316.473783 
L 473.989091 316.38686 
L 476.119636 316.344148 
L 477.54 316.433997 
L 479.670545 316.538127 
L 481.090909 316.560151 
L 481.801091 316.609389 
L 483.221455 316.515017 
L 486.772364 316.645427 
L 487.482545 316.483448 
L 493.164 316.548926 
L 493.874182 316.320287 
L 494.584364 315.87871 
L 497.425091 315.408655 
L 498.135273 314.961783 
L 498.845455 314.362065 
L 499.555636 314.085754 
L 500.976 314.132991 
L 502.396364 314.181703 
L 505.237091 313.853773 
L 506.657455 313.101389 
L 507.367636 312.704433 
L 508.077818 312.69883 
L 508.788 311.685436 
L 509.498182 311.306961 
L 510.208364 311.308795 
L 510.918545 311.016712 
L 511.628727 310.877833 
L 512.338909 310.929262 
L 513.049091 310.775221 
L 515.179636 310.805003 
L 515.889818 310.604703 
L 518.730545 310.598768 
L 519.440727 309.521902 
L 520.150909 308.867187 
L 521.571273 308.85381 
L 522.281455 308.267651 
L 523.701818 308.308698 
L 524.412 307.883214 
L 525.832364 307.459039 
L 527.252727 307.417158 
L 527.962909 307.184936 
L 529.383273 307.191236 
L 530.093455 307.194909 
L 530.803636 305.644133 
L 531.513818 305.373418 
L 532.224 305.324305 
L 532.934182 304.889708 
L 533.644364 304.831448 
L 534.354545 305.063484 
L 535.064727 304.819309 
L 535.774909 304.235923 
L 537.905455 304.140678 
L 540.036 303.327804 
L 541.456364 303.234472 
L 544.297091 303.231525 
L 545.007273 302.773296 
L 545.717455 302.810903 
L 547.137818 302.628624 
L 551.398909 302.549748 
L 554.239636 302.646664 
L 554.949818 300.944427 
L 555.66 300.436256 
L 558.500727 300.099882 
L 559.921091 299.002476 
L 561.341455 298.999593 
L 562.761818 298.393801 
L 565.602545 298.130431 
L 567.022909 298.081087 
L 567.733091 297.848683 
L 569.153455 297.864607 
L 569.863636 297.641262 
L 570.573818 297.654774 
L 571.284 297.441555 
L 574.124727 297.400395 
L 576.255273 297.336823 
L 576.965455 297.337799 
L 577.675636 297.5154 
L 579.096 297.428425 
L 580.516364 297.129976 
L 581.226545 296.568102 
L 581.936727 296.210144 
L 582.646909 296.02255 
L 584.777455 295.997727 
L 585.487636 295.761415 
L 586.197818 294.334083 
L 586.908 294.333009 
L 587.618182 293.972535 
L 589.748727 293.940241 
L 590.458909 293.046993 
L 591.169091 292.923875 
L 592.589455 292.855867 
L 594.009818 292.801732 
L 594.72 292.358436 
L 595.430182 292.275045 
L 596.140364 291.84549 
L 596.850545 291.142469 
L 597.560727 291.156556 
L 598.981091 290.931091 
L 599.691273 291.025584 
L 600.401455 290.678845 
L 601.111636 290.697862 
L 602.532 290.526666 
L 603.242182 290.104974 
L 605.372727 289.707493 
L 606.793091 288.642828 
L 608.213455 288.702743 
L 608.923636 288.70156 
L 609.633818 288.012577 
L 610.344 287.572747 
L 611.764364 287.76653 
L 612.474545 287.350218 
L 613.894909 286.803829 
L 616.735636 286.737372 
L 621.706909 286.316272 
L 622.417091 285.606003 
L 623.127273 285.121928 
L 624.547636 285.118582 
L 625.968 284.943844 
L 627.388364 284.845696 
L 628.808727 284.19897 
L 629.518909 284.152767 
L 630.229091 283.456657 
L 631.649455 283.533605 
L 632.359636 283.567277 
L 633.069818 283.145313 
L 633.78 282.929597 
L 635.910545 282.934699 
L 638.041091 282.184684 
L 638.751273 282.194038 
L 639.461455 281.802489 
L 643.012364 281.772504 
L 644.432727 281.693389 
L 645.142909 280.793344 
L 645.853091 280.648661 
L 646.563273 280.649942 
L 647.273455 280.430291 
L 647.983636 280.479795 
L 649.404 280.244803 
L 650.114182 280.3994 
L 651.534545 279.791849 
L 652.954909 279.864683 
L 653.665091 279.747235 
L 654.375273 279.772925 
L 655.085455 279.414369 
L 656.505818 279.388163 
L 657.216 279.012255 
L 657.926182 278.930884 
L 658.636364 278.682716 
L 660.056727 278.542209 
L 661.477091 277.508406 
L 662.187273 277.382091 
L 663.607636 277.375221 
L 664.317818 277.138871 
L 665.028 277.054583 
L 666.448364 277.090312 
L 667.158545 276.754523 
L 667.868727 276.801768 
L 669.289091 276.730781 
L 671.419636 276.673437 
L 672.84 275.64963 
L 674.970545 275.556276 
L 675.680727 275.264447 
L 676.390909 275.419481 
L 677.101091 275.418844 
L 677.811273 275.036038 
L 679.941818 274.939798 
L 680.652 274.726955 
L 681.362182 274.316325 
L 682.782545 274.352385 
L 684.202909 274.07432 
L 684.913091 274.021144 
L 685.623273 273.074131 
L 686.333455 273.108319 
L 687.043636 271.390705 
L 687.753818 271.366211 
L 688.464 271.153072 
L 689.884364 271.066532 
L 690.594545 271.112787 
L 691.304727 270.4483 
L 692.014909 270.297335 
L 693.435273 269.472312 
L 695.565818 269.417428 
L 696.276 269.325562 
L 696.986182 268.570654 
L 697.696364 268.048992 
L 699.826909 268.07155 
L 700.537091 267.895987 
L 701.957455 267.963705 
L 702.667636 267.76489 
L 703.377818 266.928118 
L 704.798182 266.614627 
L 705.508364 265.722412 
L 706.218545 265.563288 
L 706.928727 265.150029 
L 707.638909 265.018737 
L 708.349091 263.986631 
L 709.059273 263.571765 
L 712.610182 263.453302 
L 713.320364 263.214353 
L 714.740727 263.203967 
L 715.450909 262.920021 
L 716.871273 262.795301 
L 717.581455 262.622713 
L 718.291636 262.633946 
L 719.001818 262.010187 
L 719.712 262.017871 
L 721.132364 261.364019 
L 721.842545 261.395197 
L 722.552727 261.546326 
L 723.973091 261.60904 
L 724.683273 261.352261 
L 725.393455 261.367707 
L 726.103636 260.984318 
L 726.813818 260.900156 
L 727.524 260.693896 
L 728.944364 260.614051 
L 729.654545 260.302439 
L 730.364727 260.352867 
L 731.785091 260.237331 
L 732.495273 259.965614 
L 733.205455 259.442807 
L 734.625818 259.36367 
L 736.046182 258.925799 
L 736.756364 258.982751 
L 738.176727 258.754892 
L 738.886909 258.844864 
L 741.017455 258.628061 
L 741.727636 257.856988 
L 743.858182 257.633365 
L 744.568364 256.765447 
L 746.698909 256.473786 
L 747.409091 256.535264 
L 748.829455 256.427732 
L 750.96 256.518474 
L 751.670182 256.497832 
L 753.090545 256.211326 
L 755.221091 255.895557 
L 755.931273 255.455608 
L 757.351636 255.424292 
L 758.772 255.334613 
L 760.192364 255.318826 
L 760.902545 255.430186 
L 761.612727 255.046067 
L 763.743273 255.179391 
L 764.453455 254.827446 
L 765.873818 254.778652 
L 766.584 254.382707 
L 768.004364 254.381347 
L 768.714545 254.242174 
L 769.424727 254.248264 
L 770.134909 253.947615 
L 770.845091 253.433337 
L 771.555273 253.405784 
L 772.265455 253.24857 
L 773.685818 253.232849 
L 774.396 253.092176 
L 776.526545 252.946699 
L 777.236727 252.927435 
L 777.946909 252.45457 
L 779.367273 252.401617 
L 780.077455 252.682496 
L 780.787636 252.460172 
L 781.497818 252.087841 
L 782.208 252.084202 
L 782.918182 251.674824 
L 783.628364 251.655102 
L 784.338545 250.929807 
L 787.179273 251.161372 
L 787.889455 251.067937 
L 789.309818 251.13576 
L 790.730182 250.231254 
L 794.281091 250.357735 
L 794.991273 250.115767 
L 795.701455 249.488505 
L 796.411636 249.145727 
L 797.121818 249.169789 
L 799.252364 248.971632 
L 803.513455 248.763235 
L 804.223636 248.901686 
L 804.933818 248.89135 
L 805.644 248.154848 
L 806.354182 248.042644 
L 807.064364 248.070875 
L 808.484727 247.905018 
L 809.194909 247.935836 
L 809.905091 247.196843 
L 810.615273 247.188428 
L 811.325455 245.852284 
L 812.035636 245.841775 
L 812.745818 245.190788 
L 813.456 244.369815 
L 816.296727 244.347024 
L 817.006909 244.376314 
L 817.717091 244.093369 
L 818.427273 244.179524 
L 819.137455 243.728016 
L 820.557818 243.659704 
L 821.268 243.32944 
L 822.688364 242.997062 
L 823.398545 242.891013 
L 825.529091 243.014276 
L 826.239273 242.882393 
L 826.949455 242.576718 
L 831.920727 242.610905 
L 833.341091 242.063669 
L 834.051273 242.090089 
L 834.761455 241.587033 
L 835.471636 241.459659 
L 836.892 241.45288 
L 837.602182 240.863161 
L 841.863273 240.779019 
L 842.573455 240.544566 
L 846.834545 240.442788 
L 847.544727 240.18797 
L 848.254909 240.193456 
L 848.965091 239.907901 
L 849.675273 239.912774 
L 850.385455 239.745041 
L 851.805818 239.729208 
L 852.516 239.879565 
L 856.066909 239.882819 
L 856.777091 239.979902 
L 857.487273 238.759629 
L 860.328 238.662835 
L 861.038182 238.284798 
L 861.748364 237.710239 
L 865.299273 237.205118 
L 867.429818 236.72143 
L 868.14 236.751806 
L 868.850182 236.576375 
L 870.980727 236.454164 
L 871.690909 236.510917 
L 871.690909 236.510917 
" clip-path="url(#p569ac6176d)" style="fill: none; stroke: #2ca02c; stroke-width: 1.5; stroke-linecap: square"/>
   </g>
   <g id="patch_3">
    <path d="M 126 384.48 
L 126 51.84 
" style="fill: none; stroke: #000000; stroke-width: 0.8; stroke-linejoin: miter; stroke-linecap: square"/>
   </g>
   <g id="patch_4">
    <path d="M 907.2 384.48 
L 907.2 51.84 
" style="fill: none; stroke: #000000; stroke-width: 0.8; stroke-linejoin: miter; stroke-linecap: square"/>
   </g>
   <g id="patch_5">
    <path d="M 126 384.48 
L 907.2 384.48 
" style="fill: none; stroke: #000000; stroke-width: 0.8; stroke-linejoin: miter; stroke-linecap: square"/>
   </g>
   <g id="patch_6">
    <path d="M 126 51.84 
L 907.2 51.84 
" style="fill: none; stroke: #000000; stroke-width: 0.8; stroke-linejoin: miter; stroke-linecap: square"/>
   </g>
   <g id="text_14">
    <!-- Quadratic Covariation of $X_t$ and $S_t$ -->
    <g transform="translate(414.54 45.84)scale(0.12 -0.12)">
     <defs>
      <path id="DejaVuSans-66" d="M 2375 4863 
L 2375 4384 
L 1825 4384 
Q 1516 4384 1395 4259 
Q 1275 4134 1275 3809 
L 1275 3500 
L 2222 3500 
L 2222 3053 
L 1275 3053 
L 1275 0 
L 697 0 
L 697 3053 
L 147 3053 
L 147 3500 
L 697 3500 
L 697 3744 
Q 697 4328 969 4595 
Q 1241 4863 1831 4863 
L 2375 4863 
z
" transform="scale(0.015625)"/>
      <path id="DejaVuSans-Oblique-58" d="M 878 4666 
L 1516 4666 
L 2316 2981 
L 3763 4666 
L 4500 4666 
L 2578 2438 
L 3738 0 
L 3103 0 
L 2163 1966 
L 459 0 
L -275 0 
L 1906 2509 
L 878 4666 
z
" transform="scale(0.015625)"/>
      <path id="DejaVuSans-Oblique-74" d="M 2706 3500 
L 2619 3053 
L 1472 3053 
L 1100 1153 
Q 1081 1047 1072 975 
Q 1063 903 1063 863 
Q 1063 663 1183 572 
Q 1303 481 1569 481 
L 2150 481 
L 2053 0 
L 1503 0 
Q 991 0 739 200 
Q 488 400 488 806 
Q 488 878 497 964 
Q 506 1050 525 1153 
L 897 3053 
L 409 3053 
L 500 3500 
L 978 3500 
L 1172 4494 
L 1747 4494 
L 1556 3500 
L 2706 3500 
z
" transform="scale(0.015625)"/>
      <path id="DejaVuSans-Oblique-53" d="M 3859 4513 
L 3738 3897 
Q 3422 4066 3111 4152 
Q 2800 4238 2509 4238 
Q 1944 4238 1609 3991 
Q 1275 3744 1275 3334 
Q 1275 3109 1398 2989 
Q 1522 2869 2034 2731 
L 2413 2638 
Q 3053 2472 3303 2217 
Q 3553 1963 3553 1503 
Q 3553 797 2998 353 
Q 2444 -91 1538 -91 
Q 1166 -91 791 -17 
Q 416 56 38 206 
L 166 856 
Q 513 641 861 531 
Q 1209 422 1556 422 
Q 2147 422 2503 684 
Q 2859 947 2859 1369 
Q 2859 1650 2717 1795 
Q 2575 1941 2106 2059 
L 1728 2156 
Q 1081 2325 845 2545 
Q 609 2766 609 3163 
Q 609 3859 1145 4304 
Q 1681 4750 2541 4750 
Q 2875 4750 3203 4690 
Q 3531 4631 3859 4513 
z
" transform="scale(0.015625)"/>
     </defs>
     <use xlink:href="#DejaVuSans-51" transform="translate(0 0.015625)"/>
     <use xlink:href="#DejaVuSans-75" transform="translate(78.710938 0.015625)"/>
     <use xlink:href="#DejaVuSans-61" transform="translate(142.089844 0.015625)"/>
     <use xlink:href="#DejaVuSans-64" transform="translate(203.369141 0.015625)"/>
     <use xlink:href="#DejaVuSans-72" transform="translate(266.845703 0.015625)"/>
     <use xlink:href="#DejaVuSans-61" transform="translate(307.958984 0.015625)"/>
     <use xlink:href="#DejaVuSans-74" transform="translate(369.238281 0.015625)"/>
     <use xlink:href="#DejaVuSans-69" transform="translate(408.447266 0.015625)"/>
     <use xlink:href="#DejaVuSans-63" transform="translate(436.230469 0.015625)"/>
     <use xlink:href="#DejaVuSans-20" transform="translate(491.210938 0.015625)"/>
     <use xlink:href="#DejaVuSans-43" transform="translate(522.998047 0.015625)"/>
     <use xlink:href="#DejaVuSans-6f" transform="translate(592.822266 0.015625)"/>
     <use xlink:href="#DejaVuSans-76" transform="translate(654.003906 0.015625)"/>
     <use xlink:href="#DejaVuSans-61" transform="translate(713.183594 0.015625)"/>
     <use xlink:href="#DejaVuSans-72" transform="translate(774.462891 0.015625)"/>
     <use xlink:href="#DejaVuSans-69" transform="translate(815.576172 0.015625)"/>
     <use xlink:href="#DejaVuSans-61" transform="translate(843.359375 0.015625)"/>
     <use xlink:href="#DejaVuSans-74" transform="translate(904.638672 0.015625)"/>
     <use xlink:href="#DejaVuSans-69" transform="translate(943.847656 0.015625)"/>
     <use xlink:href="#DejaVuSans-6f" transform="translate(971.630859 0.015625)"/>
     <use xlink:href="#DejaVuSans-6e" transform="translate(1032.8125 0.015625)"/>
     <use xlink:href="#DejaVuSans-20" transform="translate(1096.191406 0.015625)"/>
     <use xlink:href="#DejaVuSans-6f" transform="translate(1127.978516 0.015625)"/>
     <use xlink:href="#DejaVuSans-66" transform="translate(1189.160156 0.015625)"/>
     <use xlink:href="#DejaVuSans-20" transform="translate(1224.365234 0.015625)"/>
     <use xlink:href="#DejaVuSans-Oblique-58" transform="translate(1256.152344 0.015625)"/>
     <use xlink:href="#DejaVuSans-Oblique-74" transform="translate(1324.658203 -16.390625)scale(0.7)"/>
     <use xlink:href="#DejaVuSans-20" transform="translate(1354.838867 0.015625)"/>
     <use xlink:href="#DejaVuSans-61" transform="translate(1386.625977 0.015625)"/>
     <use xlink:href="#DejaVuSans-6e" transform="translate(1447.905273 0.015625)"/>
     <use xlink:href="#DejaVuSans-64" transform="translate(1511.28418 0.015625)"/>
     <use xlink:href="#DejaVuSans-20" transform="translate(1574.760742 0.015625)"/>
     <use xlink:href="#DejaVuSans-Oblique-53" transform="translate(1606.547852 0.015625)"/>
     <use xlink:href="#DejaVuSans-Oblique-74" transform="translate(1670.024414 -16.390625)scale(0.7)"/>
    </g>
   </g>
   <g id="legend_1">
    <g id="patch_7">
     <path d="M 133 103.874375 
L 335.1 103.874375 
Q 337.1 103.874375 337.1 101.874375 
L 337.1 58.84 
Q 337.1 56.84 335.1 56.84 
L 133 56.84 
Q 131 56.84 131 58.84 
L 131 101.874375 
Q 131 103.874375 133 103.874375 
z
" style="fill: #ffffff; opacity: 0.8; stroke: #cccccc; stroke-linejoin: miter"/>
    </g>
    <g id="line2d_15">
     <path d="M 135 64.938437 
L 145 64.938437 
L 155 64.938437 
" style="fill: none; stroke: #1f77b4; stroke-width: 1.5; stroke-linecap: square"/>
    </g>
    <g id="text_15">
     <!-- $X_t$ -->
     <g transform="translate(163 68.438437)scale(0.1 -0.1)">
      <use xlink:href="#DejaVuSans-Oblique-58" transform="translate(0 0.09375)"/>
      <use xlink:href="#DejaVuSans-Oblique-74" transform="translate(68.505859 -16.3125)scale(0.7)"/>
     </g>
    </g>
    <g id="line2d_16">
     <path d="M 135 79.616562 
L 145 79.616562 
L 155 79.616562 
" style="fill: none; stroke: #ff7f0e; stroke-width: 1.5; stroke-linecap: square"/>
    </g>
    <g id="text_16">
     <!-- $S_t$ -->
     <g transform="translate(163 83.116562)scale(0.1 -0.1)">
      <use xlink:href="#DejaVuSans-Oblique-53" transform="translate(0 0.78125)"/>
      <use xlink:href="#DejaVuSans-Oblique-74" transform="translate(63.476562 -15.625)scale(0.7)"/>
     </g>
    </g>
    <g id="line2d_17">
     <path d="M 135 94.294687 
L 145 94.294687 
L 155 94.294687 
" style="fill: none; stroke: #2ca02c; stroke-width: 1.5; stroke-linecap: square"/>
    </g>
    <g id="text_17">
     <!-- Quadratic Covariation of $X_t$ and $S_t$ -->
     <g transform="translate(163 97.794687)scale(0.1 -0.1)">
      <use xlink:href="#DejaVuSans-51" transform="translate(0 0.015625)"/>
      <use xlink:href="#DejaVuSans-75" transform="translate(78.710938 0.015625)"/>
      <use xlink:href="#DejaVuSans-61" transform="translate(142.089844 0.015625)"/>
      <use xlink:href="#DejaVuSans-64" transform="translate(203.369141 0.015625)"/>
      <use xlink:href="#DejaVuSans-72" transform="translate(266.845703 0.015625)"/>
      <use xlink:href="#DejaVuSans-61" transform="translate(307.958984 0.015625)"/>
      <use xlink:href="#DejaVuSans-74" transform="translate(369.238281 0.015625)"/>
      <use xlink:href="#DejaVuSans-69" transform="translate(408.447266 0.015625)"/>
      <use xlink:href="#DejaVuSans-63" transform="translate(436.230469 0.015625)"/>
      <use xlink:href="#DejaVuSans-20" transform="translate(491.210938 0.015625)"/>
      <use xlink:href="#DejaVuSans-43" transform="translate(522.998047 0.015625)"/>
      <use xlink:href="#DejaVuSans-6f" transform="translate(592.822266 0.015625)"/>
      <use xlink:href="#DejaVuSans-76" transform="translate(654.003906 0.015625)"/>
      <use xlink:href="#DejaVuSans-61" transform="translate(713.183594 0.015625)"/>
      <use xlink:href="#DejaVuSans-72" transform="translate(774.462891 0.015625)"/>
      <use xlink:href="#DejaVuSans-69" transform="translate(815.576172 0.015625)"/>
      <use xlink:href="#DejaVuSans-61" transform="translate(843.359375 0.015625)"/>
      <use xlink:href="#DejaVuSans-74" transform="translate(904.638672 0.015625)"/>
      <use xlink:href="#DejaVuSans-69" transform="translate(943.847656 0.015625)"/>
      <use xlink:href="#DejaVuSans-6f" transform="translate(971.630859 0.015625)"/>
      <use xlink:href="#DejaVuSans-6e" transform="translate(1032.8125 0.015625)"/>
      <use xlink:href="#DejaVuSans-20" transform="translate(1096.191406 0.015625)"/>
      <use xlink:href="#DejaVuSans-6f" transform="translate(1127.978516 0.015625)"/>
      <use xlink:href="#DejaVuSans-66" transform="translate(1189.160156 0.015625)"/>
      <use xlink:href="#DejaVuSans-20" transform="translate(1224.365234 0.015625)"/>
      <use xlink:href="#DejaVuSans-Oblique-58" transform="translate(1256.152344 0.015625)"/>
      <use xlink:href="#DejaVuSans-Oblique-74" transform="translate(1324.658203 -16.390625)scale(0.7)"/>
      <use xlink:href="#DejaVuSans-20" transform="translate(1354.838867 0.015625)"/>
      <use xlink:href="#DejaVuSans-61" transform="translate(1386.625977 0.015625)"/>
      <use xlink:href="#DejaVuSans-6e" transform="translate(1447.905273 0.015625)"/>
      <use xlink:href="#DejaVuSans-64" transform="translate(1511.28418 0.015625)"/>
      <use xlink:href="#DejaVuSans-20" transform="translate(1574.760742 0.015625)"/>
      <use xlink:href="#DejaVuSans-Oblique-53" transform="translate(1606.547852 0.015625)"/>
      <use xlink:href="#DejaVuSans-Oblique-74" transform="translate(1670.024414 -16.390625)scale(0.7)"/>
     </g>
    </g>
   </g>
  </g>
 </g>
 <defs>
  <clipPath id="p569ac6176d">
   <rect x="126" y="51.84" width="781.2" height="332.64"/>
  </clipPath>
 </defs>
</svg>
