<?xml version="1.0" encoding="utf-8" standalone="no"?>
<!DOCTYPE svg PUBLIC "-//W3C//DTD SVG 1.1//EN"
  "http://www.w3.org/Graphics/SVG/1.1/DTD/svg11.dtd">
<svg xmlns:xlink="http://www.w3.org/1999/xlink" width="1008pt" height="432pt" viewBox="0 0 1008 432" xmlns="http://www.w3.org/2000/svg" version="1.1">
 <metadata>
  <rdf:RDF xmlns:dc="http://purl.org/dc/elements/1.1/" xmlns:cc="http://creativecommons.org/ns#" xmlns:rdf="http://www.w3.org/1999/02/22-rdf-syntax-ns#">
   <cc:Work>
    <dc:type rdf:resource="http://purl.org/dc/dcmitype/StillImage"/>
    <dc:date>2023-12-22T17:12:27.983670</dc:date>
    <dc:format>image/svg+xml</dc:format>
    <dc:creator>
     <cc:Agent>
      <dc:title>Matplotlib v3.5.2, https://matplotlib.org/</dc:title>
     </cc:Agent>
    </dc:creator>
   </cc:Work>
  </rdf:RDF>
 </metadata>
 <defs>
  <style type="text/css">*{stroke-linejoin: round; stroke-linecap: butt}</style>
 </defs>
 <g id="figure_1">
  <g id="patch_1">
   <path d="M 0 432 
L 1008 432 
L 1008 0 
L 0 0 
z
" style="fill: #ffffff"/>
  </g>
  <g id="axes_1">
   <g id="patch_2">
    <path d="M 126 384.48 
L 907.2 384.48 
L 907.2 51.84 
L 126 51.84 
z
" style="fill: #ffffff"/>
   </g>
   <g id="matplotlib.axis_1">
    <g id="xtick_1">
     <g id="line2d_1">
      <defs>
       <path id="m63bdf96593" d="M 0 0 
L 0 3.5 
" style="stroke: #000000; stroke-width: 0.8"/>
      </defs>
      <g>
       <use xlink:href="#m63bdf96593" x="161.509091" y="384.48" style="stroke: #000000; stroke-width: 0.8"/>
      </g>
     </g>
     <g id="text_1">
      <!-- 0.0 -->
      <g transform="translate(153.557528 399.078438)scale(0.1 -0.1)">
       <defs>
        <path id="DejaVuSans-30" d="M 2034 4250 
Q 1547 4250 1301 3770 
Q 1056 3291 1056 2328 
Q 1056 1369 1301 889 
Q 1547 409 2034 409 
Q 2525 409 2770 889 
Q 3016 1369 3016 2328 
Q 3016 3291 2770 3770 
Q 2525 4250 2034 4250 
z
M 2034 4750 
Q 2819 4750 3233 4129 
Q 3647 3509 3647 2328 
Q 3647 1150 3233 529 
Q 2819 -91 2034 -91 
Q 1250 -91 836 529 
Q 422 1150 422 2328 
Q 422 3509 836 4129 
Q 1250 4750 2034 4750 
z
" transform="scale(0.015625)"/>
        <path id="DejaVuSans-2e" d="M 684 794 
L 1344 794 
L 1344 0 
L 684 0 
L 684 794 
z
" transform="scale(0.015625)"/>
       </defs>
       <use xlink:href="#DejaVuSans-30"/>
       <use xlink:href="#DejaVuSans-2e" x="63.623047"/>
       <use xlink:href="#DejaVuSans-30" x="95.410156"/>
      </g>
     </g>
    </g>
    <g id="xtick_2">
     <g id="line2d_2">
      <g>
       <use xlink:href="#m63bdf96593" x="303.545455" y="384.48" style="stroke: #000000; stroke-width: 0.8"/>
      </g>
     </g>
     <g id="text_2">
      <!-- 0.2 -->
      <g transform="translate(295.593892 399.078438)scale(0.1 -0.1)">
       <defs>
        <path id="DejaVuSans-32" d="M 1228 531 
L 3431 531 
L 3431 0 
L 469 0 
L 469 531 
Q 828 903 1448 1529 
Q 2069 2156 2228 2338 
Q 2531 2678 2651 2914 
Q 2772 3150 2772 3378 
Q 2772 3750 2511 3984 
Q 2250 4219 1831 4219 
Q 1534 4219 1204 4116 
Q 875 4013 500 3803 
L 500 4441 
Q 881 4594 1212 4672 
Q 1544 4750 1819 4750 
Q 2544 4750 2975 4387 
Q 3406 4025 3406 3419 
Q 3406 3131 3298 2873 
Q 3191 2616 2906 2266 
Q 2828 2175 2409 1742 
Q 1991 1309 1228 531 
z
" transform="scale(0.015625)"/>
       </defs>
       <use xlink:href="#DejaVuSans-30"/>
       <use xlink:href="#DejaVuSans-2e" x="63.623047"/>
       <use xlink:href="#DejaVuSans-32" x="95.410156"/>
      </g>
     </g>
    </g>
    <g id="xtick_3">
     <g id="line2d_3">
      <g>
       <use xlink:href="#m63bdf96593" x="445.581818" y="384.48" style="stroke: #000000; stroke-width: 0.8"/>
      </g>
     </g>
     <g id="text_3">
      <!-- 0.4 -->
      <g transform="translate(437.630256 399.078438)scale(0.1 -0.1)">
       <defs>
        <path id="DejaVuSans-34" d="M 2419 4116 
L 825 1625 
L 2419 1625 
L 2419 4116 
z
M 2253 4666 
L 3047 4666 
L 3047 1625 
L 3713 1625 
L 3713 1100 
L 3047 1100 
L 3047 0 
L 2419 0 
L 2419 1100 
L 313 1100 
L 313 1709 
L 2253 4666 
z
" transform="scale(0.015625)"/>
       </defs>
       <use xlink:href="#DejaVuSans-30"/>
       <use xlink:href="#DejaVuSans-2e" x="63.623047"/>
       <use xlink:href="#DejaVuSans-34" x="95.410156"/>
      </g>
     </g>
    </g>
    <g id="xtick_4">
     <g id="line2d_4">
      <g>
       <use xlink:href="#m63bdf96593" x="587.618182" y="384.48" style="stroke: #000000; stroke-width: 0.8"/>
      </g>
     </g>
     <g id="text_4">
      <!-- 0.6 -->
      <g transform="translate(579.666619 399.078438)scale(0.1 -0.1)">
       <defs>
        <path id="DejaVuSans-36" d="M 2113 2584 
Q 1688 2584 1439 2293 
Q 1191 2003 1191 1497 
Q 1191 994 1439 701 
Q 1688 409 2113 409 
Q 2538 409 2786 701 
Q 3034 994 3034 1497 
Q 3034 2003 2786 2293 
Q 2538 2584 2113 2584 
z
M 3366 4563 
L 3366 3988 
Q 3128 4100 2886 4159 
Q 2644 4219 2406 4219 
Q 1781 4219 1451 3797 
Q 1122 3375 1075 2522 
Q 1259 2794 1537 2939 
Q 1816 3084 2150 3084 
Q 2853 3084 3261 2657 
Q 3669 2231 3669 1497 
Q 3669 778 3244 343 
Q 2819 -91 2113 -91 
Q 1303 -91 875 529 
Q 447 1150 447 2328 
Q 447 3434 972 4092 
Q 1497 4750 2381 4750 
Q 2619 4750 2861 4703 
Q 3103 4656 3366 4563 
z
" transform="scale(0.015625)"/>
       </defs>
       <use xlink:href="#DejaVuSans-30"/>
       <use xlink:href="#DejaVuSans-2e" x="63.623047"/>
       <use xlink:href="#DejaVuSans-36" x="95.410156"/>
      </g>
     </g>
    </g>
    <g id="xtick_5">
     <g id="line2d_5">
      <g>
       <use xlink:href="#m63bdf96593" x="729.654545" y="384.48" style="stroke: #000000; stroke-width: 0.8"/>
      </g>
     </g>
     <g id="text_5">
      <!-- 0.8 -->
      <g transform="translate(721.702983 399.078438)scale(0.1 -0.1)">
       <defs>
        <path id="DejaVuSans-38" d="M 2034 2216 
Q 1584 2216 1326 1975 
Q 1069 1734 1069 1313 
Q 1069 891 1326 650 
Q 1584 409 2034 409 
Q 2484 409 2743 651 
Q 3003 894 3003 1313 
Q 3003 1734 2745 1975 
Q 2488 2216 2034 2216 
z
M 1403 2484 
Q 997 2584 770 2862 
Q 544 3141 544 3541 
Q 544 4100 942 4425 
Q 1341 4750 2034 4750 
Q 2731 4750 3128 4425 
Q 3525 4100 3525 3541 
Q 3525 3141 3298 2862 
Q 3072 2584 2669 2484 
Q 3125 2378 3379 2068 
Q 3634 1759 3634 1313 
Q 3634 634 3220 271 
Q 2806 -91 2034 -91 
Q 1263 -91 848 271 
Q 434 634 434 1313 
Q 434 1759 690 2068 
Q 947 2378 1403 2484 
z
M 1172 3481 
Q 1172 3119 1398 2916 
Q 1625 2713 2034 2713 
Q 2441 2713 2670 2916 
Q 2900 3119 2900 3481 
Q 2900 3844 2670 4047 
Q 2441 4250 2034 4250 
Q 1625 4250 1398 4047 
Q 1172 3844 1172 3481 
z
" transform="scale(0.015625)"/>
       </defs>
       <use xlink:href="#DejaVuSans-30"/>
       <use xlink:href="#DejaVuSans-2e" x="63.623047"/>
       <use xlink:href="#DejaVuSans-38" x="95.410156"/>
      </g>
     </g>
    </g>
    <g id="xtick_6">
     <g id="line2d_6">
      <g>
       <use xlink:href="#m63bdf96593" x="871.690909" y="384.48" style="stroke: #000000; stroke-width: 0.8"/>
      </g>
     </g>
     <g id="text_6">
      <!-- 1.0 -->
      <g transform="translate(863.739347 399.078438)scale(0.1 -0.1)">
       <defs>
        <path id="DejaVuSans-31" d="M 794 531 
L 1825 531 
L 1825 4091 
L 703 3866 
L 703 4441 
L 1819 4666 
L 2450 4666 
L 2450 531 
L 3481 531 
L 3481 0 
L 794 0 
L 794 531 
z
" transform="scale(0.015625)"/>
       </defs>
       <use xlink:href="#DejaVuSans-31"/>
       <use xlink:href="#DejaVuSans-2e" x="63.623047"/>
       <use xlink:href="#DejaVuSans-30" x="95.410156"/>
      </g>
     </g>
    </g>
    <g id="text_7">
     <!-- Time -->
     <g transform="translate(504.366406 412.756563)scale(0.1 -0.1)">
      <defs>
       <path id="DejaVuSans-54" d="M -19 4666 
L 3928 4666 
L 3928 4134 
L 2272 4134 
L 2272 0 
L 1638 0 
L 1638 4134 
L -19 4134 
L -19 4666 
z
" transform="scale(0.015625)"/>
       <path id="DejaVuSans-69" d="M 603 3500 
L 1178 3500 
L 1178 0 
L 603 0 
L 603 3500 
z
M 603 4863 
L 1178 4863 
L 1178 4134 
L 603 4134 
L 603 4863 
z
" transform="scale(0.015625)"/>
       <path id="DejaVuSans-6d" d="M 3328 2828 
Q 3544 3216 3844 3400 
Q 4144 3584 4550 3584 
Q 5097 3584 5394 3201 
Q 5691 2819 5691 2113 
L 5691 0 
L 5113 0 
L 5113 2094 
Q 5113 2597 4934 2840 
Q 4756 3084 4391 3084 
Q 3944 3084 3684 2787 
Q 3425 2491 3425 1978 
L 3425 0 
L 2847 0 
L 2847 2094 
Q 2847 2600 2669 2842 
Q 2491 3084 2119 3084 
Q 1678 3084 1418 2786 
Q 1159 2488 1159 1978 
L 1159 0 
L 581 0 
L 581 3500 
L 1159 3500 
L 1159 2956 
Q 1356 3278 1631 3431 
Q 1906 3584 2284 3584 
Q 2666 3584 2933 3390 
Q 3200 3197 3328 2828 
z
" transform="scale(0.015625)"/>
       <path id="DejaVuSans-65" d="M 3597 1894 
L 3597 1613 
L 953 1613 
Q 991 1019 1311 708 
Q 1631 397 2203 397 
Q 2534 397 2845 478 
Q 3156 559 3463 722 
L 3463 178 
Q 3153 47 2828 -22 
Q 2503 -91 2169 -91 
Q 1331 -91 842 396 
Q 353 884 353 1716 
Q 353 2575 817 3079 
Q 1281 3584 2069 3584 
Q 2775 3584 3186 3129 
Q 3597 2675 3597 1894 
z
M 3022 2063 
Q 3016 2534 2758 2815 
Q 2500 3097 2075 3097 
Q 1594 3097 1305 2825 
Q 1016 2553 972 2059 
L 3022 2063 
z
" transform="scale(0.015625)"/>
      </defs>
      <use xlink:href="#DejaVuSans-54"/>
      <use xlink:href="#DejaVuSans-69" x="57.958984"/>
      <use xlink:href="#DejaVuSans-6d" x="85.742188"/>
      <use xlink:href="#DejaVuSans-65" x="183.154297"/>
     </g>
    </g>
   </g>
   <g id="matplotlib.axis_2">
    <g id="ytick_1">
     <g id="line2d_7">
      <defs>
       <path id="meed8374658" d="M 0 0 
L -3.5 0 
" style="stroke: #000000; stroke-width: 0.8"/>
      </defs>
      <g>
       <use xlink:href="#meed8374658" x="126" y="361.141644" style="stroke: #000000; stroke-width: 0.8"/>
      </g>
     </g>
     <g id="text_8">
      <!-- 0.0 -->
      <g transform="translate(103.096875 364.940863)scale(0.1 -0.1)">
       <use xlink:href="#DejaVuSans-30"/>
       <use xlink:href="#DejaVuSans-2e" x="63.623047"/>
       <use xlink:href="#DejaVuSans-30" x="95.410156"/>
      </g>
     </g>
    </g>
    <g id="ytick_2">
     <g id="line2d_8">
      <g>
       <use xlink:href="#meed8374658" x="126" y="308.913894" style="stroke: #000000; stroke-width: 0.8"/>
      </g>
     </g>
     <g id="text_9">
      <!-- 0.5 -->
      <g transform="translate(103.096875 312.713113)scale(0.1 -0.1)">
       <defs>
        <path id="DejaVuSans-35" d="M 691 4666 
L 3169 4666 
L 3169 4134 
L 1269 4134 
L 1269 2991 
Q 1406 3038 1543 3061 
Q 1681 3084 1819 3084 
Q 2600 3084 3056 2656 
Q 3513 2228 3513 1497 
Q 3513 744 3044 326 
Q 2575 -91 1722 -91 
Q 1428 -91 1123 -41 
Q 819 9 494 109 
L 494 744 
Q 775 591 1075 516 
Q 1375 441 1709 441 
Q 2250 441 2565 725 
Q 2881 1009 2881 1497 
Q 2881 1984 2565 2268 
Q 2250 2553 1709 2553 
Q 1456 2553 1204 2497 
Q 953 2441 691 2322 
L 691 4666 
z
" transform="scale(0.015625)"/>
       </defs>
       <use xlink:href="#DejaVuSans-30"/>
       <use xlink:href="#DejaVuSans-2e" x="63.623047"/>
       <use xlink:href="#DejaVuSans-35" x="95.410156"/>
      </g>
     </g>
    </g>
    <g id="ytick_3">
     <g id="line2d_9">
      <g>
       <use xlink:href="#meed8374658" x="126" y="256.686144" style="stroke: #000000; stroke-width: 0.8"/>
      </g>
     </g>
     <g id="text_10">
      <!-- 1.0 -->
      <g transform="translate(103.096875 260.485363)scale(0.1 -0.1)">
       <use xlink:href="#DejaVuSans-31"/>
       <use xlink:href="#DejaVuSans-2e" x="63.623047"/>
       <use xlink:href="#DejaVuSans-30" x="95.410156"/>
      </g>
     </g>
    </g>
    <g id="ytick_4">
     <g id="line2d_10">
      <g>
       <use xlink:href="#meed8374658" x="126" y="204.458395" style="stroke: #000000; stroke-width: 0.8"/>
      </g>
     </g>
     <g id="text_11">
      <!-- 1.5 -->
      <g transform="translate(103.096875 208.257613)scale(0.1 -0.1)">
       <use xlink:href="#DejaVuSans-31"/>
       <use xlink:href="#DejaVuSans-2e" x="63.623047"/>
       <use xlink:href="#DejaVuSans-35" x="95.410156"/>
      </g>
     </g>
    </g>
    <g id="ytick_5">
     <g id="line2d_11">
      <g>
       <use xlink:href="#meed8374658" x="126" y="152.230645" style="stroke: #000000; stroke-width: 0.8"/>
      </g>
     </g>
     <g id="text_12">
      <!-- 2.0 -->
      <g transform="translate(103.096875 156.029864)scale(0.1 -0.1)">
       <use xlink:href="#DejaVuSans-32"/>
       <use xlink:href="#DejaVuSans-2e" x="63.623047"/>
       <use xlink:href="#DejaVuSans-30" x="95.410156"/>
      </g>
     </g>
    </g>
    <g id="ytick_6">
     <g id="line2d_12">
      <g>
       <use xlink:href="#meed8374658" x="126" y="100.002895" style="stroke: #000000; stroke-width: 0.8"/>
      </g>
     </g>
     <g id="text_13">
      <!-- 2.5 -->
      <g transform="translate(103.096875 103.802114)scale(0.1 -0.1)">
       <use xlink:href="#DejaVuSans-32"/>
       <use xlink:href="#DejaVuSans-2e" x="63.623047"/>
       <use xlink:href="#DejaVuSans-35" x="95.410156"/>
      </g>
     </g>
    </g>
    <g id="text_14">
     <!-- Quadratic Covariation -->
     <g transform="translate(97.017187 272.970156)rotate(-90)scale(0.1 -0.1)">
      <defs>
       <path id="DejaVuSans-51" d="M 2522 4238 
Q 1834 4238 1429 3725 
Q 1025 3213 1025 2328 
Q 1025 1447 1429 934 
Q 1834 422 2522 422 
Q 3209 422 3611 934 
Q 4013 1447 4013 2328 
Q 4013 3213 3611 3725 
Q 3209 4238 2522 4238 
z
M 3406 84 
L 4238 -825 
L 3475 -825 
L 2784 -78 
Q 2681 -84 2626 -87 
Q 2572 -91 2522 -91 
Q 1538 -91 948 567 
Q 359 1225 359 2328 
Q 359 3434 948 4092 
Q 1538 4750 2522 4750 
Q 3503 4750 4090 4092 
Q 4678 3434 4678 2328 
Q 4678 1516 4351 937 
Q 4025 359 3406 84 
z
" transform="scale(0.015625)"/>
       <path id="DejaVuSans-75" d="M 544 1381 
L 544 3500 
L 1119 3500 
L 1119 1403 
Q 1119 906 1312 657 
Q 1506 409 1894 409 
Q 2359 409 2629 706 
Q 2900 1003 2900 1516 
L 2900 3500 
L 3475 3500 
L 3475 0 
L 2900 0 
L 2900 538 
Q 2691 219 2414 64 
Q 2138 -91 1772 -91 
Q 1169 -91 856 284 
Q 544 659 544 1381 
z
M 1991 3584 
L 1991 3584 
z
" transform="scale(0.015625)"/>
       <path id="DejaVuSans-61" d="M 2194 1759 
Q 1497 1759 1228 1600 
Q 959 1441 959 1056 
Q 959 750 1161 570 
Q 1363 391 1709 391 
Q 2188 391 2477 730 
Q 2766 1069 2766 1631 
L 2766 1759 
L 2194 1759 
z
M 3341 1997 
L 3341 0 
L 2766 0 
L 2766 531 
Q 2569 213 2275 61 
Q 1981 -91 1556 -91 
Q 1019 -91 701 211 
Q 384 513 384 1019 
Q 384 1609 779 1909 
Q 1175 2209 1959 2209 
L 2766 2209 
L 2766 2266 
Q 2766 2663 2505 2880 
Q 2244 3097 1772 3097 
Q 1472 3097 1187 3025 
Q 903 2953 641 2809 
L 641 3341 
Q 956 3463 1253 3523 
Q 1550 3584 1831 3584 
Q 2591 3584 2966 3190 
Q 3341 2797 3341 1997 
z
" transform="scale(0.015625)"/>
       <path id="DejaVuSans-64" d="M 2906 2969 
L 2906 4863 
L 3481 4863 
L 3481 0 
L 2906 0 
L 2906 525 
Q 2725 213 2448 61 
Q 2172 -91 1784 -91 
Q 1150 -91 751 415 
Q 353 922 353 1747 
Q 353 2572 751 3078 
Q 1150 3584 1784 3584 
Q 2172 3584 2448 3432 
Q 2725 3281 2906 2969 
z
M 947 1747 
Q 947 1113 1208 752 
Q 1469 391 1925 391 
Q 2381 391 2643 752 
Q 2906 1113 2906 1747 
Q 2906 2381 2643 2742 
Q 2381 3103 1925 3103 
Q 1469 3103 1208 2742 
Q 947 2381 947 1747 
z
" transform="scale(0.015625)"/>
       <path id="DejaVuSans-72" d="M 2631 2963 
Q 2534 3019 2420 3045 
Q 2306 3072 2169 3072 
Q 1681 3072 1420 2755 
Q 1159 2438 1159 1844 
L 1159 0 
L 581 0 
L 581 3500 
L 1159 3500 
L 1159 2956 
Q 1341 3275 1631 3429 
Q 1922 3584 2338 3584 
Q 2397 3584 2469 3576 
Q 2541 3569 2628 3553 
L 2631 2963 
z
" transform="scale(0.015625)"/>
       <path id="DejaVuSans-74" d="M 1172 4494 
L 1172 3500 
L 2356 3500 
L 2356 3053 
L 1172 3053 
L 1172 1153 
Q 1172 725 1289 603 
Q 1406 481 1766 481 
L 2356 481 
L 2356 0 
L 1766 0 
Q 1100 0 847 248 
Q 594 497 594 1153 
L 594 3053 
L 172 3053 
L 172 3500 
L 594 3500 
L 594 4494 
L 1172 4494 
z
" transform="scale(0.015625)"/>
       <path id="DejaVuSans-63" d="M 3122 3366 
L 3122 2828 
Q 2878 2963 2633 3030 
Q 2388 3097 2138 3097 
Q 1578 3097 1268 2742 
Q 959 2388 959 1747 
Q 959 1106 1268 751 
Q 1578 397 2138 397 
Q 2388 397 2633 464 
Q 2878 531 3122 666 
L 3122 134 
Q 2881 22 2623 -34 
Q 2366 -91 2075 -91 
Q 1284 -91 818 406 
Q 353 903 353 1747 
Q 353 2603 823 3093 
Q 1294 3584 2113 3584 
Q 2378 3584 2631 3529 
Q 2884 3475 3122 3366 
z
" transform="scale(0.015625)"/>
       <path id="DejaVuSans-20" transform="scale(0.015625)"/>
       <path id="DejaVuSans-43" d="M 4122 4306 
L 4122 3641 
Q 3803 3938 3442 4084 
Q 3081 4231 2675 4231 
Q 1875 4231 1450 3742 
Q 1025 3253 1025 2328 
Q 1025 1406 1450 917 
Q 1875 428 2675 428 
Q 3081 428 3442 575 
Q 3803 722 4122 1019 
L 4122 359 
Q 3791 134 3420 21 
Q 3050 -91 2638 -91 
Q 1578 -91 968 557 
Q 359 1206 359 2328 
Q 359 3453 968 4101 
Q 1578 4750 2638 4750 
Q 3056 4750 3426 4639 
Q 3797 4528 4122 4306 
z
" transform="scale(0.015625)"/>
       <path id="DejaVuSans-6f" d="M 1959 3097 
Q 1497 3097 1228 2736 
Q 959 2375 959 1747 
Q 959 1119 1226 758 
Q 1494 397 1959 397 
Q 2419 397 2687 759 
Q 2956 1122 2956 1747 
Q 2956 2369 2687 2733 
Q 2419 3097 1959 3097 
z
M 1959 3584 
Q 2709 3584 3137 3096 
Q 3566 2609 3566 1747 
Q 3566 888 3137 398 
Q 2709 -91 1959 -91 
Q 1206 -91 779 398 
Q 353 888 353 1747 
Q 353 2609 779 3096 
Q 1206 3584 1959 3584 
z
" transform="scale(0.015625)"/>
       <path id="DejaVuSans-76" d="M 191 3500 
L 800 3500 
L 1894 563 
L 2988 3500 
L 3597 3500 
L 2284 0 
L 1503 0 
L 191 3500 
z
" transform="scale(0.015625)"/>
       <path id="DejaVuSans-6e" d="M 3513 2113 
L 3513 0 
L 2938 0 
L 2938 2094 
Q 2938 2591 2744 2837 
Q 2550 3084 2163 3084 
Q 1697 3084 1428 2787 
Q 1159 2491 1159 1978 
L 1159 0 
L 581 0 
L 581 3500 
L 1159 3500 
L 1159 2956 
Q 1366 3272 1645 3428 
Q 1925 3584 2291 3584 
Q 2894 3584 3203 3211 
Q 3513 2838 3513 2113 
z
" transform="scale(0.015625)"/>
      </defs>
      <use xlink:href="#DejaVuSans-51"/>
      <use xlink:href="#DejaVuSans-75" x="78.710938"/>
      <use xlink:href="#DejaVuSans-61" x="142.089844"/>
      <use xlink:href="#DejaVuSans-64" x="203.369141"/>
      <use xlink:href="#DejaVuSans-72" x="266.845703"/>
      <use xlink:href="#DejaVuSans-61" x="307.958984"/>
      <use xlink:href="#DejaVuSans-74" x="369.238281"/>
      <use xlink:href="#DejaVuSans-69" x="408.447266"/>
      <use xlink:href="#DejaVuSans-63" x="436.230469"/>
      <use xlink:href="#DejaVuSans-20" x="491.210938"/>
      <use xlink:href="#DejaVuSans-43" x="522.998047"/>
      <use xlink:href="#DejaVuSans-6f" x="592.822266"/>
      <use xlink:href="#DejaVuSans-76" x="654.003906"/>
      <use xlink:href="#DejaVuSans-61" x="713.183594"/>
      <use xlink:href="#DejaVuSans-72" x="774.462891"/>
      <use xlink:href="#DejaVuSans-69" x="815.576172"/>
      <use xlink:href="#DejaVuSans-61" x="843.359375"/>
      <use xlink:href="#DejaVuSans-74" x="904.638672"/>
      <use xlink:href="#DejaVuSans-69" x="943.847656"/>
      <use xlink:href="#DejaVuSans-6f" x="971.630859"/>
      <use xlink:href="#DejaVuSans-6e" x="1032.8125"/>
     </g>
    </g>
   </g>
   <g id="line2d_13">
    <path d="M 161.509091 152.230645 
L 162.219273 153.570189 
L 162.929455 152.413891 
L 163.639636 157.853173 
L 165.06 160.041901 
L 165.770182 162.478871 
L 166.480364 158.926846 
L 167.190545 162.334424 
L 167.900727 159.709804 
L 168.610909 156.599896 
L 169.321091 154.038854 
L 170.031273 146.2274 
L 170.741455 146.675672 
L 171.451636 143.012994 
L 172.161818 142.217107 
L 172.872 147.893931 
L 173.582182 148.679318 
L 174.292364 142.477839 
L 175.002545 140.666204 
L 175.712727 139.787141 
L 176.422909 140.941115 
L 177.133091 141.083884 
L 177.843273 139.286211 
L 178.553455 136.78161 
L 179.263636 138.664496 
L 179.973818 139.515193 
L 180.684 143.773865 
L 182.104364 145.767042 
L 182.814545 145.766219 
L 183.524727 145.911268 
L 184.234909 142.115417 
L 184.945091 142.516473 
L 185.655273 138.30218 
L 186.365455 131.413221 
L 187.075636 132.096431 
L 187.785818 131.163232 
L 188.496 124.709975 
L 189.206182 126.259036 
L 189.916364 126.2335 
L 190.626545 129.054116 
L 191.336727 127.22014 
L 192.046909 125.927236 
L 192.757091 126.064883 
L 193.467273 127.278692 
L 194.177455 124.63081 
L 194.887636 127.14904 
L 196.308 118.308755 
L 197.018182 117.885354 
L 197.728364 118.287145 
L 198.438545 118.372188 
L 199.148727 116.051155 
L 199.858909 109.752644 
L 200.569091 114.519794 
L 201.279273 114.056072 
L 201.989455 112.111585 
L 202.699636 106.104953 
L 203.409818 104.155149 
L 204.12 106.295449 
L 204.830182 109.078541 
L 205.540364 107.310509 
L 206.250545 107.098561 
L 206.960727 105.035516 
L 207.670909 104.301323 
L 208.381091 105.181995 
L 209.091273 102.189129 
L 209.801455 101.360839 
L 210.511636 105.41832 
L 211.221818 102.848898 
L 211.932 102.144801 
L 212.642182 98.422883 
L 213.352364 98.852174 
L 214.062545 102.073152 
L 214.772727 98.145407 
L 215.482909 95.89867 
L 216.193091 95.104318 
L 216.903273 99.72923 
L 217.613455 99.291999 
L 218.323636 98.529261 
L 219.744 101.231687 
L 220.454182 104.522373 
L 221.164364 109.803677 
L 221.874545 108.735235 
L 222.584727 106.562431 
L 223.294909 112.443789 
L 224.005091 113.762434 
L 224.715273 112.226373 
L 225.425455 112.607513 
L 226.135636 113.337792 
L 226.845818 108.206355 
L 227.556 110.920944 
L 228.266182 109.539189 
L 228.976364 112.371105 
L 229.686545 112.006882 
L 230.396727 113.961742 
L 231.106909 115.488479 
L 231.817091 117.535556 
L 232.527273 120.836009 
L 233.237455 122.952837 
L 233.947636 124.158408 
L 234.657818 122.059449 
L 235.368 126.865971 
L 236.078182 126.095011 
L 236.788364 126.352914 
L 237.498545 133.059914 
L 238.208727 127.628683 
L 238.918909 130.648754 
L 239.629091 130.180827 
L 240.339273 131.435255 
L 241.049455 126.483395 
L 241.759636 128.878068 
L 242.469818 129.346618 
L 243.18 130.748802 
L 244.600364 126.390278 
L 245.310545 131.629065 
L 246.730909 134.493764 
L 247.441091 134.366126 
L 248.151273 136.271383 
L 248.861455 136.758423 
L 249.571636 138.127509 
L 250.281818 143.011691 
L 250.992 147.043398 
L 251.702182 147.63774 
L 252.412364 149.949326 
L 253.122545 153.842312 
L 253.832727 153.123857 
L 254.542909 155.071851 
L 255.253091 155.908832 
L 255.963273 159.803925 
L 256.673455 161.182021 
L 257.383636 163.940128 
L 258.093818 165.69851 
L 258.804 172.111001 
L 259.514182 169.631324 
L 260.224364 172.775873 
L 260.934545 171.466288 
L 261.644727 169.916182 
L 262.354909 170.17754 
L 263.065091 167.529009 
L 263.775273 167.021002 
L 264.485455 169.892755 
L 265.195636 166.64805 
L 265.905818 176.75576 
L 266.616 173.297951 
L 267.326182 173.419225 
L 268.036364 174.260975 
L 268.746545 171.88421 
L 269.456727 172.617514 
L 270.166909 178.160693 
L 270.877091 181.108756 
L 272.297455 185.528584 
L 273.007636 182.20604 
L 273.717818 184.188121 
L 274.428 187.571401 
L 275.138182 189.500013 
L 275.848364 188.40009 
L 276.558545 197.000068 
L 277.268727 198.755096 
L 277.978909 194.819148 
L 278.689091 187.706064 
L 279.399273 189.997038 
L 280.109455 193.528209 
L 280.819636 190.998934 
L 281.529818 189.259695 
L 282.950182 191.405214 
L 283.660364 192.649012 
L 284.370545 196.069868 
L 285.080727 196.948836 
L 285.790909 195.085669 
L 286.501091 192.255847 
L 288.631636 195.5443 
L 289.341818 182.851959 
L 290.052 180.172058 
L 290.762182 178.382257 
L 291.472364 179.384753 
L 292.182545 178.912085 
L 292.892727 177.692872 
L 293.602909 180.316803 
L 294.313091 179.957697 
L 295.733455 175.760922 
L 296.443636 176.410836 
L 297.153818 178.226708 
L 297.864 167.51324 
L 298.574182 170.269659 
L 299.284364 168.014332 
L 299.994545 168.650944 
L 300.704727 168.130417 
L 301.414909 162.516931 
L 302.125091 167.84796 
L 302.835273 168.338392 
L 303.545455 169.188194 
L 304.255636 168.737766 
L 304.965818 166.310614 
L 305.676 165.373362 
L 306.386182 167.262223 
L 307.096364 167.929838 
L 307.806545 166.34572 
L 308.516727 162.277264 
L 309.226909 161.506766 
L 309.937091 160.294442 
L 310.647273 160.025996 
L 311.357455 154.434284 
L 312.067636 157.01806 
L 312.777818 163.470936 
L 313.488 162.115472 
L 314.198182 164.556895 
L 314.908364 164.143077 
L 315.618545 159.586337 
L 316.328727 146.184013 
L 317.038909 148.514704 
L 317.749091 146.419173 
L 318.459273 143.86571 
L 319.169455 152.434597 
L 319.879636 146.644228 
L 320.589818 146.793667 
L 321.3 146.077401 
L 322.010182 146.297972 
L 322.720364 140.799096 
L 323.430545 145.169525 
L 324.140727 140.755662 
L 324.850909 141.174392 
L 326.271273 133.799389 
L 326.981455 133.454125 
L 327.691636 135.741344 
L 328.401818 135.424613 
L 329.112 136.513192 
L 329.822182 138.296847 
L 330.532364 134.402942 
L 331.242545 138.619779 
L 331.952727 137.478209 
L 332.662909 131.721016 
L 333.373091 135.364879 
L 334.083273 132.386184 
L 334.793455 137.650093 
L 335.503636 135.414195 
L 336.213818 135.066533 
L 336.924 129.456943 
L 337.634182 127.868729 
L 338.344364 129.82258 
L 339.054545 126.187634 
L 339.764727 129.758975 
L 340.474909 127.072565 
L 341.185091 122.863415 
L 341.895273 121.726337 
L 342.605455 121.336135 
L 343.315636 129.673306 
L 344.025818 124.930847 
L 344.736 124.167398 
L 345.446182 128.322868 
L 346.156364 121.796102 
L 346.866545 123.703348 
L 347.576727 119.292424 
L 348.286909 118.238363 
L 348.997091 114.355415 
L 349.707273 113.964127 
L 350.417455 118.411272 
L 351.127636 116.413914 
L 351.837818 115.190232 
L 352.548 117.305764 
L 353.258182 118.229333 
L 353.968364 120.200789 
L 354.678545 117.042772 
L 355.388727 118.080641 
L 356.098909 119.740837 
L 356.809091 119.577578 
L 358.229455 117.371109 
L 358.939636 119.544258 
L 360.36 112.196806 
L 361.070182 107.202992 
L 362.490545 112.56074 
L 363.200727 119.016132 
L 364.621091 124.012974 
L 365.331273 125.336991 
L 366.041455 129.15065 
L 367.461818 130.874345 
L 368.172 131.629974 
L 368.882182 135.935318 
L 369.592364 145.684879 
L 370.302545 147.651134 
L 371.012727 144.535797 
L 372.433091 146.557498 
L 373.143273 144.030152 
L 373.853455 145.607037 
L 374.563636 143.105403 
L 375.273818 146.93042 
L 375.984 149.762837 
L 376.694182 143.578506 
L 377.404364 140.939104 
L 378.824727 148.037713 
L 379.534909 147.557326 
L 380.245091 153.751036 
L 380.955273 154.491673 
L 381.665455 153.439923 
L 382.375636 154.115156 
L 383.085818 155.04779 
L 383.796 151.39319 
L 384.506182 152.529516 
L 385.216364 150.885276 
L 385.926545 156.826819 
L 386.636727 151.341 
L 387.346909 152.367266 
L 388.057091 153.592058 
L 388.767273 153.892702 
L 389.477455 158.586408 
L 390.187636 160.125746 
L 390.897818 158.846524 
L 391.608 160.327231 
L 392.318182 155.858294 
L 393.028364 155.279335 
L 394.448727 158.285601 
L 395.869091 165.78826 
L 396.579273 165.502716 
L 397.289455 167.978453 
L 397.999636 169.865063 
L 398.709818 164.311439 
L 399.42 160.424317 
L 400.130182 161.468185 
L 400.840364 160.287331 
L 401.550545 154.575923 
L 402.260727 155.635396 
L 402.970909 151.883869 
L 403.681091 149.347198 
L 404.391273 150.510652 
L 405.101455 155.431823 
L 405.811636 153.428418 
L 406.521818 161.890289 
L 407.232 165.454626 
L 407.942182 165.812722 
L 408.652364 166.44601 
L 410.072727 176.780857 
L 411.493091 180.82355 
L 412.203273 183.617574 
L 413.623636 176.814796 
L 414.333818 180.133215 
L 415.044 179.447315 
L 415.754182 180.288502 
L 416.464364 184.052799 
L 417.174545 180.035649 
L 417.884727 181.446486 
L 418.594909 184.584335 
L 419.305091 183.225037 
L 420.015273 179.411841 
L 420.725455 176.326665 
L 421.435636 177.906998 
L 422.856 181.94186 
L 423.566182 184.933403 
L 425.696727 196.382021 
L 426.406909 195.280688 
L 427.117091 192.794791 
L 427.827273 191.436385 
L 428.537455 196.033371 
L 429.247636 194.983805 
L 429.957818 197.485685 
L 430.668 198.361206 
L 431.378182 194.396234 
L 432.088364 199.976997 
L 432.798545 201.117542 
L 433.508727 203.21357 
L 434.218909 200.788895 
L 434.929091 199.583309 
L 435.639273 200.393662 
L 436.349455 198.488777 
L 437.059636 206.524834 
L 437.769818 208.498524 
L 438.48 210.96745 
L 439.190182 217.60402 
L 439.900364 214.252719 
L 440.610545 213.426643 
L 441.320727 213.743715 
L 442.030909 216.560787 
L 442.741091 213.233313 
L 443.451273 211.622523 
L 444.161455 210.514876 
L 444.871636 207.92486 
L 445.581818 203.544391 
L 446.292 206.233881 
L 447.002182 212.088282 
L 447.712364 209.40926 
L 448.422545 205.898538 
L 449.132727 207.043234 
L 449.842909 218.166045 
L 450.553091 220.223565 
L 451.263273 215.84954 
L 451.973455 214.982356 
L 452.683636 217.711945 
L 453.393818 218.254546 
L 454.104 219.834029 
L 454.814182 213.719343 
L 455.524364 210.637078 
L 456.234545 208.078148 
L 456.944727 206.481331 
L 457.654909 208.549007 
L 459.075273 214.479712 
L 459.785455 216.137056 
L 460.495636 223.415109 
L 461.205818 218.010232 
L 461.916 217.465851 
L 462.626182 222.120713 
L 463.336364 217.484404 
L 464.046545 216.046979 
L 464.756727 215.309557 
L 465.466909 211.496724 
L 466.177091 212.013711 
L 466.887273 210.285757 
L 467.597455 209.636916 
L 468.307636 214.893616 
L 469.017818 215.257313 
L 469.728 216.663769 
L 470.438182 215.582974 
L 471.148364 212.537514 
L 471.858545 212.190695 
L 472.568727 218.151709 
L 473.278909 218.414421 
L 473.989091 218.886784 
L 474.699273 218.799526 
L 475.409455 220.905487 
L 476.119636 223.739629 
L 476.829818 224.919145 
L 477.54 224.894687 
L 478.250182 226.871845 
L 478.960364 233.496269 
L 479.670545 237.124858 
L 480.380727 235.059772 
L 481.090909 234.317838 
L 481.801091 229.793689 
L 482.511273 226.812528 
L 483.221455 227.524813 
L 483.931636 232.887701 
L 484.641818 233.891382 
L 485.352 230.186247 
L 486.062182 230.068144 
L 486.772364 238.241501 
L 487.482545 239.249308 
L 488.192727 238.334701 
L 488.902909 241.246477 
L 489.613091 245.287656 
L 490.323273 238.639763 
L 491.033455 238.569223 
L 491.743636 237.960483 
L 492.453818 238.180946 
L 493.164 235.352726 
L 493.874182 238.099592 
L 494.584364 244.878819 
L 495.294545 247.973013 
L 496.004727 248.297839 
L 496.714909 250.262581 
L 497.425091 248.714352 
L 498.845455 255.333606 
L 499.555636 253.956938 
L 500.976 246.692677 
L 501.686182 252.467077 
L 502.396364 255.253479 
L 503.106545 258.726932 
L 503.816727 254.017376 
L 504.526909 258.124958 
L 505.237091 265.123247 
L 505.947273 266.183348 
L 506.657455 259.986346 
L 507.367636 256.683242 
L 508.077818 261.770039 
L 508.788 255.892136 
L 509.498182 253.66854 
L 510.208364 261.286269 
L 510.918545 260.203315 
L 511.628727 255.30039 
L 512.338909 255.268163 
L 513.049091 255.580938 
L 514.469455 250.701405 
L 515.179636 251.404593 
L 515.889818 249.961345 
L 516.6 247.380368 
L 517.310182 241.907249 
L 518.020364 242.824626 
L 518.730545 245.427289 
L 519.440727 246.744921 
L 520.150909 246.011084 
L 520.861091 244.437403 
L 521.571273 246.819442 
L 522.281455 244.639966 
L 522.991636 246.770178 
L 523.701818 250.843551 
L 524.412 246.742286 
L 525.122182 245.985522 
L 525.832364 242.144108 
L 527.252727 247.574113 
L 527.962909 243.251668 
L 528.673091 243.376153 
L 529.383273 240.030757 
L 530.093455 237.470148 
L 530.803636 229.422342 
L 531.513818 228.74112 
L 532.224 233.028955 
L 532.934182 238.440049 
L 533.644364 240.231524 
L 534.354545 238.109233 
L 535.064727 234.004472 
L 535.774909 235.496407 
L 536.485091 234.50127 
L 537.195273 233.919771 
L 537.905455 237.348092 
L 538.615636 234.783218 
L 539.325818 231.759663 
L 540.036 227.422201 
L 540.746182 227.848748 
L 541.456364 226.759452 
L 542.166545 227.8352 
L 542.876727 224.845844 
L 543.586909 228.18329 
L 544.297091 230.28173 
L 545.007273 229.945701 
L 545.717455 226.926107 
L 546.427636 227.704177 
L 547.137818 224.813588 
L 547.848 223.836475 
L 548.558182 222.586643 
L 549.978545 218.238974 
L 550.688727 218.691035 
L 551.398909 221.13102 
L 552.109091 213.250616 
L 552.819273 215.724274 
L 553.529455 214.456882 
L 554.239636 210.063292 
L 554.949818 209.377746 
L 555.66 209.53162 
L 556.370182 213.075853 
L 557.080364 215.20706 
L 557.790545 220.687063 
L 558.500727 222.982319 
L 559.210909 219.163872 
L 559.921091 217.984876 
L 560.631273 212.69059 
L 561.341455 211.772757 
L 562.051636 209.335187 
L 562.761818 211.839852 
L 563.472 211.066895 
L 564.182182 206.192153 
L 564.892364 207.943462 
L 565.602545 208.96868 
L 566.312727 205.357815 
L 567.022909 209.27139 
L 567.733091 206.614511 
L 568.443273 204.806153 
L 569.153455 204.699774 
L 569.863636 207.670178 
L 570.573818 213.016497 
L 571.284 213.528777 
L 571.994182 215.836043 
L 572.704364 220.73926 
L 574.124727 217.987779 
L 574.834909 219.030543 
L 575.545091 218.524031 
L 576.255273 219.379506 
L 576.965455 221.695873 
L 577.675636 228.130285 
L 578.385818 227.577265 
L 579.096 229.104165 
L 579.806182 234.482674 
L 580.516364 232.664772 
L 581.226545 231.884537 
L 581.936727 228.069588 
L 582.646909 228.012174 
L 583.357091 226.83301 
L 584.067273 234.386387 
L 584.777455 233.203564 
L 585.487636 234.441263 
L 586.197818 236.409745 
L 586.908 233.431334 
L 588.328364 231.171657 
L 589.038545 227.80189 
L 589.748727 226.469172 
L 590.458909 223.425859 
L 591.169091 223.046399 
L 591.879273 224.566592 
L 592.589455 229.314471 
L 593.299636 228.344084 
L 594.72 223.269589 
L 595.430182 223.254551 
L 596.140364 223.721495 
L 596.850545 227.802843 
L 597.560727 226.458569 
L 598.270909 226.219966 
L 598.981091 222.436895 
L 599.691273 217.595629 
L 600.401455 217.839745 
L 601.111636 219.34818 
L 601.821818 218.263817 
L 602.532 219.213574 
L 603.242182 217.922211 
L 603.952364 215.591225 
L 604.662545 213.726915 
L 605.372727 213.508023 
L 606.082909 210.764653 
L 606.793091 210.515843 
L 607.503273 210.010026 
L 608.213455 208.352616 
L 608.923636 208.899088 
L 609.633818 212.343803 
L 610.344 210.444202 
L 611.054182 204.951868 
L 611.764364 204.278046 
L 612.474545 205.720074 
L 613.184727 209.132036 
L 613.894909 208.184567 
L 614.605091 210.511845 
L 615.315273 208.953485 
L 616.025455 213.265211 
L 616.735636 210.319222 
L 617.445818 208.733081 
L 618.156 213.125955 
L 618.866182 212.978804 
L 619.576364 211.593464 
L 620.286545 213.554717 
L 620.996727 212.065064 
L 621.706909 203.517917 
L 622.417091 205.834032 
L 623.127273 206.106974 
L 623.837455 205.156818 
L 624.547636 201.074037 
L 625.257818 200.506412 
L 625.968 202.566464 
L 626.678182 206.790847 
L 627.388364 204.468881 
L 628.098545 201.597791 
L 628.808727 202.255188 
L 629.518909 207.80492 
L 630.229091 203.723835 
L 631.649455 210.682254 
L 632.359636 211.462399 
L 633.069818 206.94726 
L 633.78 210.839232 
L 634.490182 207.033887 
L 635.200364 208.182493 
L 635.910545 209.839826 
L 636.620727 214.396129 
L 637.330909 213.754391 
L 638.751273 211.906115 
L 639.461455 210.927382 
L 640.171636 213.803118 
L 640.881818 219.308472 
L 641.592 218.15634 
L 642.302182 215.71731 
L 643.012364 216.004882 
L 644.432727 219.864764 
L 645.142909 222.91505 
L 645.853091 223.605027 
L 646.563273 220.604358 
L 647.273455 224.32927 
L 647.983636 226.979739 
L 648.693818 225.642207 
L 650.114182 226.976082 
L 650.824364 223.844216 
L 651.534545 223.216394 
L 652.244727 225.983693 
L 652.954909 233.212885 
L 653.665091 230.731402 
L 655.085455 234.099188 
L 655.795636 233.651158 
L 656.505818 232.878659 
L 657.216 228.886075 
L 657.926182 236.596018 
L 658.636364 236.805456 
L 659.346545 230.898805 
L 660.056727 231.28434 
L 660.766909 234.202457 
L 661.477091 234.217139 
L 662.187273 234.703574 
L 662.897455 232.21358 
L 663.607636 231.203984 
L 664.317818 235.513614 
L 665.028 232.861586 
L 665.738182 227.129914 
L 666.448364 228.20229 
L 667.158545 229.700637 
L 667.868727 231.693866 
L 668.578909 230.263138 
L 669.289091 226.512577 
L 669.999273 224.420354 
L 670.709455 227.122558 
L 671.419636 227.193312 
L 672.129818 235.494569 
L 672.84 236.74851 
L 673.550182 237.702915 
L 674.260364 235.112797 
L 674.970545 237.025863 
L 675.680727 236.760395 
L 676.390909 236.147073 
L 677.101091 238.281688 
L 677.811273 240.974846 
L 678.521455 234.057238 
L 679.231636 232.010803 
L 679.941818 231.058024 
L 680.652 230.671396 
L 681.362182 232.981404 
L 682.072364 238.650431 
L 682.782545 240.030122 
L 683.492727 241.989991 
L 684.202909 246.103736 
L 684.913091 241.492106 
L 685.623273 242.505391 
L 686.333455 241.711497 
L 687.043636 236.841192 
L 688.464 252.044926 
L 689.174182 251.155156 
L 689.884364 251.107351 
L 690.594545 252.008777 
L 691.304727 244.474152 
L 692.014909 243.353113 
L 692.725091 243.104786 
L 693.435273 244.255189 
L 694.145455 250.347901 
L 694.855636 247.62142 
L 695.565818 246.984783 
L 696.276 247.661125 
L 696.986182 253.728074 
L 697.696364 253.496543 
L 698.406545 252.81913 
L 699.826909 243.487258 
L 700.537091 244.708601 
L 701.247273 247.333046 
L 701.957455 253.056422 
L 702.667636 253.167086 
L 704.088 244.569859 
L 704.798182 245.101684 
L 705.508364 247.014296 
L 706.218545 246.974849 
L 706.928727 245.306722 
L 707.638909 242.071137 
L 708.349091 242.740815 
L 709.059273 241.480525 
L 709.769455 244.389222 
L 710.479636 240.237426 
L 711.9 238.051833 
L 712.610182 234.427131 
L 713.320364 229.226527 
L 714.030545 227.258776 
L 714.740727 224.087701 
L 715.450909 217.130469 
L 716.161091 218.697275 
L 716.871273 212.749083 
L 717.581455 210.855012 
L 718.291636 214.755799 
L 719.001818 214.023778 
L 719.712 212.549659 
L 720.422182 216.384339 
L 721.132364 218.217995 
L 721.842545 216.728994 
L 722.552727 213.990521 
L 723.262909 210.165421 
L 723.973091 208.575961 
L 724.683273 203.562763 
L 725.393455 202.414807 
L 726.103636 203.850963 
L 726.813818 203.576802 
L 727.524 202.812291 
L 728.234182 202.900075 
L 728.944364 202.668671 
L 729.654545 206.927419 
L 730.364727 209.604659 
L 731.074909 208.046156 
L 731.785091 214.001033 
L 732.495273 211.698118 
L 733.205455 215.330118 
L 733.915636 216.37516 
L 734.625818 216.109745 
L 735.336 215.15612 
L 736.046182 213.129163 
L 736.756364 207.637329 
L 737.466545 207.183854 
L 738.176727 202.860404 
L 738.886909 199.842812 
L 739.597091 202.427711 
L 740.307273 205.861765 
L 741.017455 204.720505 
L 741.727636 207.018439 
L 742.437818 207.576556 
L 743.148 209.342825 
L 743.858182 211.658677 
L 744.568364 212.019728 
L 745.278545 207.038142 
L 745.988727 205.50899 
L 746.698909 211.828493 
L 747.409091 209.048265 
L 748.119273 211.275077 
L 748.829455 204.747862 
L 749.539636 202.18299 
L 750.249818 196.824605 
L 750.96 196.095456 
L 751.670182 197.370078 
L 752.380364 196.444219 
L 753.090545 191.905182 
L 753.800727 189.373904 
L 754.510909 192.258537 
L 755.221091 189.340142 
L 755.931273 186.897385 
L 756.641455 178.660053 
L 758.061818 174.442737 
L 758.772 174.989536 
L 759.482182 178.124617 
L 760.192364 176.966888 
L 760.902545 174.621787 
L 761.612727 180.028035 
L 762.322909 171.542573 
L 763.033091 172.788685 
L 763.743273 175.094429 
L 764.453455 175.14065 
L 765.163636 181.666875 
L 765.873818 179.510638 
L 766.584 178.790612 
L 767.294182 177.308719 
L 768.004364 176.653222 
L 768.714545 172.089503 
L 769.424727 170.296787 
L 770.134909 173.044127 
L 770.845091 175.132759 
L 771.555273 176.678934 
L 772.265455 179.325664 
L 772.975636 177.35741 
L 773.685818 176.552428 
L 774.396 177.350634 
L 775.106182 175.373 
L 775.816364 178.463487 
L 776.526545 177.515353 
L 777.236727 177.289327 
L 777.946909 174.833044 
L 778.657091 178.511189 
L 779.367273 181.421573 
L 780.077455 181.264375 
L 780.787636 180.988949 
L 781.497818 182.700597 
L 782.208 186.323447 
L 782.918182 194.42068 
L 783.628364 190.970736 
L 784.338545 188.446856 
L 785.048727 187.549054 
L 785.758909 181.70205 
L 786.469091 182.742119 
L 787.179273 178.239119 
L 787.889455 181.349333 
L 788.599636 179.678715 
L 789.309818 188.416351 
L 790.02 184.171135 
L 790.730182 175.409301 
L 791.440364 180.923434 
L 792.150545 181.455561 
L 792.860727 180.513493 
L 793.570909 179.984918 
L 794.281091 180.17445 
L 794.991273 170.583132 
L 795.701455 175.329819 
L 797.121818 182.055391 
L 797.832 186.381614 
L 798.542182 186.336332 
L 799.252364 190.890679 
L 799.962545 190.689942 
L 800.672727 188.293155 
L 801.382909 192.714896 
L 802.093091 192.112289 
L 802.803273 191.97144 
L 803.513455 197.991556 
L 804.223636 195.461358 
L 804.933818 198.812953 
L 805.644 198.915085 
L 806.354182 200.252808 
L 807.064364 194.602385 
L 808.484727 190.244071 
L 809.194909 188.904093 
L 809.905091 190.542549 
L 810.615273 186.739901 
L 811.325455 186.450108 
L 812.035636 184.345563 
L 812.745818 187.225595 
L 813.456 189.358839 
L 814.166182 187.640699 
L 814.876364 187.648411 
L 815.586545 190.759554 
L 816.296727 189.499013 
L 817.006909 191.963175 
L 817.717091 193.563774 
L 818.427273 192.277379 
L 819.137455 192.052996 
L 819.847636 188.773625 
L 820.557818 184.966694 
L 821.268 183.896364 
L 821.978182 183.690139 
L 822.688364 189.648727 
L 823.398545 191.545355 
L 824.108727 191.227313 
L 824.818909 191.091336 
L 825.529091 190.699441 
L 826.239273 192.252608 
L 826.949455 193.148487 
L 827.659636 193.771818 
L 828.369818 193.377626 
L 829.08 192.179123 
L 830.500364 192.053878 
L 831.210545 191.695817 
L 831.920727 193.750495 
L 832.630909 186.580378 
L 833.341091 189.036639 
L 834.761455 192.336456 
L 835.471636 189.451624 
L 836.181818 192.70353 
L 836.892 196.904956 
L 837.602182 202.985401 
L 838.312364 200.892165 
L 839.022545 204.457095 
L 839.732727 202.100542 
L 840.442909 207.373844 
L 841.153091 205.126959 
L 842.573455 199.790986 
L 843.283636 202.250878 
L 843.993818 202.273049 
L 844.704 200.612313 
L 845.414182 196.480234 
L 846.124364 195.844893 
L 847.544727 193.274124 
L 848.254909 194.133918 
L 848.965091 195.931001 
L 849.675273 193.276321 
L 850.385455 195.939001 
L 851.095636 195.777488 
L 851.805818 192.612805 
L 852.516 192.071695 
L 853.226182 191.146203 
L 853.936364 188.674712 
L 854.646545 191.094107 
L 855.356727 191.955788 
L 856.066909 192.217945 
L 856.777091 194.568572 
L 857.487273 192.983137 
L 858.197455 190.591945 
L 858.907636 183.307856 
L 859.617818 184.28956 
L 860.328 186.559271 
L 861.038182 190.219939 
L 861.748364 191.030805 
L 862.458545 191.107425 
L 863.168727 190.166141 
L 863.878909 190.612003 
L 864.589091 185.097558 
L 865.299273 184.951537 
L 866.009455 186.274319 
L 867.429818 192.442134 
L 868.14 190.159948 
L 868.850182 192.895213 
L 869.560364 197.781731 
L 870.270545 197.890665 
L 870.980727 191.800456 
L 871.690909 193.679228 
L 871.690909 193.679228 
" clip-path="url(#pc9913a1802)" style="fill: none; stroke: #1f77b4; stroke-width: 1.5; stroke-linecap: square"/>
   </g>
   <g id="line2d_14">
    <path d="M 161.509091 152.230645 
L 162.219273 155.531353 
L 162.929455 157.772775 
L 163.639636 168.063778 
L 164.349818 166.162396 
L 165.06 162.455351 
L 165.770182 166.081159 
L 166.480364 159.685479 
L 167.190545 162.949276 
L 167.900727 157.156852 
L 168.610909 155.724714 
L 169.321091 151.068946 
L 170.031273 144.215503 
L 170.741455 146.521315 
L 171.451636 140.061176 
L 172.161818 137.728269 
L 172.872 146.851848 
L 173.582182 152.090123 
L 174.292364 144.334666 
L 175.002545 143.155356 
L 175.712727 141.270114 
L 176.422909 148.055366 
L 177.133091 145.381224 
L 177.843273 145.824176 
L 178.553455 145.139809 
L 179.263636 147.271793 
L 179.973818 146.865896 
L 180.684 148.717081 
L 181.394182 146.78372 
L 182.104364 155.111725 
L 182.814545 154.119079 
L 183.524727 150.661821 
L 184.234909 142.462141 
L 184.945091 142.013831 
L 185.655273 138.722393 
L 186.365455 131.445808 
L 187.075636 131.24389 
L 187.785818 130.455396 
L 188.496 122.553012 
L 189.206182 126.235593 
L 189.916364 124.415051 
L 190.626545 127.954522 
L 191.336727 124.446394 
L 192.046909 125.066859 
L 192.757091 122.92656 
L 193.467273 125.820243 
L 194.177455 120.543092 
L 194.887636 121.918708 
L 195.597818 114.411726 
L 196.308 104.831383 
L 197.018182 100.676127 
L 197.728364 101.851997 
L 198.438545 105.676408 
L 199.148727 101.685649 
L 199.858909 89.885785 
L 200.569091 97.684776 
L 201.279273 98.272232 
L 201.989455 100.827502 
L 202.699636 89.424288 
L 203.409818 91.226256 
L 204.830182 99.558279 
L 205.540364 96.415402 
L 206.250545 90.883933 
L 206.960727 89.399278 
L 207.670909 87.52627 
L 208.381091 86.513681 
L 209.091273 89.506468 
L 209.801455 91.869838 
L 210.511636 96.11972 
L 211.932 87.162441 
L 212.642182 85.014514 
L 213.352364 78.263569 
L 214.062545 79.971342 
L 215.482909 66.96 
L 216.193091 69.170154 
L 216.903273 70.397945 
L 217.613455 70.264037 
L 218.323636 67.828014 
L 219.033818 71.19712 
L 219.744 68.476469 
L 220.454182 75.176419 
L 221.164364 70.152206 
L 221.874545 69.507976 
L 222.584727 71.476312 
L 223.294909 78.929563 
L 224.005091 82.706998 
L 224.715273 76.578394 
L 225.425455 75.542883 
L 226.135636 74.180657 
L 227.556 82.430237 
L 228.266182 83.468362 
L 228.976364 88.345191 
L 229.686545 90.859107 
L 230.396727 94.295331 
L 231.106909 93.796854 
L 231.817091 97.662572 
L 232.527273 103.119832 
L 233.237455 110.833548 
L 233.947636 111.117547 
L 234.657818 106.61939 
L 235.368 108.636122 
L 236.078182 108.619652 
L 236.788364 109.011985 
L 237.498545 113.989608 
L 238.208727 110.357902 
L 238.918909 113.013283 
L 239.629091 116.601027 
L 240.339273 112.120783 
L 241.049455 105.526643 
L 241.759636 113.095785 
L 242.469818 113.618823 
L 243.18 121.143203 
L 243.890182 123.628142 
L 244.600364 118.216017 
L 245.310545 123.213881 
L 246.020727 122.706496 
L 246.730909 128.679569 
L 247.441091 129.604558 
L 248.151273 131.880818 
L 248.861455 132.973398 
L 249.571636 134.625434 
L 250.281818 138.724507 
L 250.992 134.763954 
L 251.702182 138.019703 
L 252.412364 143.62233 
L 253.122545 147.642624 
L 253.832727 149.585301 
L 254.542909 142.615604 
L 255.253091 143.065914 
L 255.963273 149.975994 
L 256.673455 149.910907 
L 257.383636 153.821984 
L 258.093818 160.02172 
L 258.804 167.492456 
L 259.514182 162.83523 
L 260.224364 166.280144 
L 261.644727 163.007261 
L 262.354909 159.833081 
L 263.065091 157.233156 
L 263.775273 157.134177 
L 264.485455 163.648351 
L 265.195636 159.354637 
L 265.905818 171.149256 
L 266.616 174.285671 
L 267.326182 171.179491 
L 268.036364 171.579447 
L 268.746545 171.336223 
L 270.166909 171.847287 
L 270.877091 174.260509 
L 271.587273 180.597202 
L 272.297455 188.069492 
L 273.007636 185.06847 
L 274.428 189.720911 
L 275.138182 191.013488 
L 275.848364 187.818454 
L 276.558545 194.688235 
L 277.268727 189.692212 
L 277.978909 192.240553 
L 278.689091 187.5057 
L 279.399273 189.097729 
L 280.109455 192.623327 
L 280.819636 188.991519 
L 281.529818 189.777786 
L 282.24 190.937559 
L 283.660364 189.32514 
L 284.370545 193.662112 
L 285.080727 195.772009 
L 285.790909 200.258914 
L 286.501091 194.860581 
L 287.921455 189.006397 
L 288.631636 194.765645 
L 289.341818 180.060166 
L 290.762182 171.673001 
L 291.472364 173.856284 
L 292.182545 171.290023 
L 292.892727 164.938373 
L 293.602909 171.136567 
L 294.313091 165.716288 
L 295.023273 164.299096 
L 295.733455 159.846926 
L 296.443636 161.075592 
L 297.153818 164.35619 
L 297.864 152.812547 
L 298.574182 153.77007 
L 299.284364 149.226733 
L 299.994545 153.778786 
L 300.704727 159.136645 
L 301.414909 151.54536 
L 302.125091 161.526572 
L 303.545455 167.85509 
L 304.255636 169.596905 
L 304.965818 169.472159 
L 305.676 168.34284 
L 306.386182 167.424773 
L 307.096364 168.723605 
L 307.806545 165.395559 
L 308.516727 165.109791 
L 309.226909 161.688514 
L 309.937091 162.3737 
L 310.647273 163.617629 
L 311.357455 160.636209 
L 312.777818 179.83093 
L 313.488 176.601538 
L 314.198182 179.394674 
L 314.908364 177.99635 
L 315.618545 174.395573 
L 316.328727 158.856147 
L 317.038909 159.670268 
L 318.459273 154.441373 
L 319.169455 161.280442 
L 319.879636 153.598478 
L 320.589818 150.297488 
L 321.3 143.065072 
L 322.010182 142.577656 
L 322.720364 141.612389 
L 323.430545 149.615846 
L 324.140727 137.400262 
L 324.850909 137.163632 
L 326.271273 138.698791 
L 326.981455 134.773628 
L 327.691636 137.235039 
L 328.401818 136.790381 
L 329.112 134.398056 
L 329.822182 134.472088 
L 330.532364 132.735908 
L 331.242545 137.370844 
L 331.952727 138.001442 
L 332.662909 134.658515 
L 333.373091 140.27909 
L 334.083273 137.423103 
L 334.793455 139.534139 
L 335.503636 133.181778 
L 336.213818 139.027325 
L 336.924 134.323198 
L 337.634182 135.58919 
L 338.344364 135.832949 
L 339.054545 131.60219 
L 339.764727 142.461255 
L 340.474909 139.269793 
L 341.185091 139.500628 
L 341.895273 144.918346 
L 342.605455 140.859117 
L 343.315636 144.690146 
L 344.025818 140.472046 
L 344.736 145.996192 
L 345.446182 153.094829 
L 346.156364 149.135859 
L 347.576727 139.533901 
L 348.286909 139.097844 
L 348.997091 141.240505 
L 349.707273 141.755813 
L 350.417455 148.584622 
L 351.127636 147.681062 
L 351.837818 143.540415 
L 352.548 144.612312 
L 353.258182 147.237999 
L 353.968364 151.642343 
L 354.678545 145.270014 
L 355.388727 147.965657 
L 356.098909 153.195608 
L 356.809091 151.942119 
L 357.519273 153.97379 
L 358.229455 154.465954 
L 358.939636 153.667799 
L 359.649818 146.207652 
L 360.36 143.566384 
L 361.070182 137.32812 
L 361.780364 137.219011 
L 362.490545 138.972601 
L 363.200727 143.727931 
L 363.910909 141.935016 
L 364.621091 145.453139 
L 365.331273 143.575466 
L 366.041455 149.601694 
L 366.751636 147.251297 
L 367.461818 150.170963 
L 368.172 149.625363 
L 368.882182 160.399414 
L 369.592364 167.408129 
L 370.302545 167.904874 
L 371.012727 162.818615 
L 371.722909 164.251213 
L 372.433091 164.84618 
L 373.143273 152.856311 
L 373.853455 155.376464 
L 374.563636 151.285505 
L 375.273818 153.329336 
L 375.984 153.788107 
L 376.694182 148.532725 
L 377.404364 145.712933 
L 378.114545 150.698623 
L 378.824727 151.737998 
L 379.534909 147.92856 
L 380.245091 150.394626 
L 380.955273 151.556626 
L 381.665455 156.606501 
L 382.375636 157.459069 
L 383.085818 155.306219 
L 383.796 150.342691 
L 384.506182 154.326121 
L 385.216364 155.604139 
L 385.926545 162.72455 
L 386.636727 153.037136 
L 387.346909 151.918656 
L 388.057091 151.694602 
L 388.767273 160.311219 
L 389.477455 170.464141 
L 390.187636 168.247122 
L 390.897818 170.525909 
L 391.608 168.533652 
L 392.318182 168.25221 
L 393.028364 175.288147 
L 393.738545 170.632251 
L 394.448727 175.149648 
L 395.158909 174.819837 
L 395.869091 185.269707 
L 396.579273 182.716341 
L 397.289455 190.614281 
L 397.999636 193.109851 
L 398.709818 188.843266 
L 399.42 181.624251 
L 400.130182 188.73929 
L 400.840364 184.700887 
L 401.550545 179.28126 
L 402.260727 178.806444 
L 402.970909 177.093051 
L 403.681091 174.167966 
L 404.391273 169.49829 
L 405.101455 174.19771 
L 405.811636 170.597259 
L 406.521818 185.561671 
L 407.232 183.138808 
L 407.942182 178.04338 
L 408.652364 179.960248 
L 409.362545 184.934368 
L 410.072727 184.717885 
L 410.782909 190.480006 
L 411.493091 192.50321 
L 412.203273 195.368442 
L 412.913455 196.77543 
L 413.623636 188.414819 
L 414.333818 197.192371 
L 415.754182 198.186245 
L 416.464364 201.689284 
L 417.174545 199.924405 
L 417.884727 200.056946 
L 418.594909 200.3998 
L 419.305091 199.694244 
L 420.015273 197.04304 
L 420.725455 192.362257 
L 421.435636 195.082214 
L 422.145818 196.239231 
L 422.856 198.806453 
L 423.566182 203.939513 
L 424.276364 206.455127 
L 424.986545 213.290511 
L 425.696727 218.248233 
L 427.827273 209.568853 
L 428.537455 212.303659 
L 429.957818 204.613448 
L 430.668 210.394715 
L 431.378182 201.428708 
L 432.088364 209.579588 
L 432.798545 207.188036 
L 433.508727 209.935032 
L 434.929091 197.845741 
L 435.639273 198.185931 
L 436.349455 193.301918 
L 437.059636 199.070037 
L 437.769818 199.720305 
L 438.48 201.183015 
L 439.190182 206.410238 
L 439.900364 205.431174 
L 440.610545 195.796413 
L 441.320727 197.155857 
L 442.030909 200.136806 
L 442.741091 201.520975 
L 443.451273 197.632135 
L 444.161455 197.645731 
L 445.581818 186.571808 
L 446.292 192.997358 
L 447.002182 201.395922 
L 447.712364 197.661262 
L 448.422545 190.695681 
L 449.132727 191.674482 
L 449.842909 204.975371 
L 450.553091 203.853631 
L 451.263273 202.219529 
L 451.973455 199.79745 
L 452.683636 198.281081 
L 453.393818 203.176153 
L 454.104 209.120903 
L 454.814182 206.612335 
L 455.524364 205.711124 
L 456.234545 209.21225 
L 456.944727 205.977626 
L 457.654909 206.843692 
L 458.365091 207.428734 
L 459.075273 205.978333 
L 459.785455 206.344334 
L 460.495636 217.024555 
L 461.205818 212.212672 
L 461.916 209.977048 
L 462.626182 215.80835 
L 463.336364 209.04191 
L 464.046545 209.196118 
L 464.756727 210.331308 
L 465.466909 209.476762 
L 466.177091 211.68978 
L 466.887273 208.555121 
L 467.597455 207.071438 
L 468.307636 211.963477 
L 469.017818 212.871349 
L 469.728 214.60616 
L 470.438182 209.408121 
L 471.148364 202.723933 
L 471.858545 201.642583 
L 472.568727 205.956464 
L 473.278909 206.789514 
L 473.989091 208.945904 
L 474.699273 208.213976 
L 475.409455 206.346829 
L 476.119636 209.751306 
L 476.829818 210.316632 
L 477.54 217.998248 
L 478.250182 219.497218 
L 478.960364 228.408242 
L 479.670545 232.878814 
L 480.380727 230.103302 
L 481.090909 231.933321 
L 481.801091 225.563356 
L 482.511273 226.437554 
L 483.221455 229.028871 
L 483.931636 232.101841 
L 484.641818 231.972587 
L 485.352 233.610652 
L 486.772364 244.053623 
L 487.482545 246.105268 
L 488.192727 252.565786 
L 488.902909 257.558898 
L 489.613091 266.157262 
L 490.323273 262.362645 
L 491.033455 259.649971 
L 491.743636 262.210534 
L 492.453818 268.228254 
L 493.164 265.0883 
L 493.874182 270.50288 
L 494.584364 279.247956 
L 495.294545 278.633129 
L 496.004727 279.064525 
L 497.425091 285.496749 
L 498.135273 287.472335 
L 498.845455 289.003979 
L 499.555636 284.524246 
L 500.265818 281.948034 
L 500.976 277.71204 
L 501.686182 284.807001 
L 502.396364 289.873993 
L 503.106545 293.656681 
L 503.816727 287.069813 
L 504.526909 286.473745 
L 505.237091 294.949587 
L 505.947273 290.360931 
L 506.657455 286.834486 
L 507.367636 282.136408 
L 508.077818 286.12683 
L 508.788 284.370899 
L 509.498182 285.853209 
L 510.208364 291.566685 
L 510.918545 288.230112 
L 511.628727 281.010505 
L 512.338909 284.806981 
L 513.049091 286.905043 
L 513.759273 287.016652 
L 514.469455 280.74617 
L 515.179636 285.008797 
L 515.889818 284.903077 
L 516.6 282.281027 
L 517.310182 275.375048 
L 518.020364 280.930169 
L 518.730545 281.858163 
L 519.440727 284.020397 
L 520.150909 283.947691 
L 520.861091 279.003614 
L 522.281455 287.047884 
L 522.991636 289.233733 
L 523.701818 292.704697 
L 524.412 293.814454 
L 525.122182 292.570972 
L 525.832364 290.014864 
L 526.542545 294.350399 
L 527.252727 296.049269 
L 527.962909 293.449234 
L 528.673091 292.743769 
L 529.383273 290.553318 
L 530.093455 291.310051 
L 530.803636 294.192328 
L 531.513818 288.918199 
L 532.224 292.283453 
L 532.934182 301.389597 
L 533.644364 303.256444 
L 534.354545 299.415048 
L 535.064727 290.35426 
L 535.774909 294.564704 
L 536.485091 293.678975 
L 537.195273 296.152581 
L 537.905455 303.443654 
L 538.615636 301.191954 
L 540.036 292.346006 
L 540.746182 297.158722 
L 541.456364 296.401179 
L 542.166545 295.030023 
L 542.876727 295.505252 
L 543.586909 303.840312 
L 544.297091 307.92878 
L 545.007273 303.673482 
L 545.717455 304.136979 
L 546.427636 304.96003 
L 547.137818 300.318271 
L 547.848 291.120167 
L 548.558182 284.22683 
L 549.268364 280.457059 
L 549.978545 285.236965 
L 550.688727 288.429023 
L 551.398909 290.082251 
L 552.109091 284.611169 
L 552.819273 293.143703 
L 553.529455 295.613664 
L 554.239636 292.383851 
L 554.949818 291.158602 
L 555.66 292.34517 
L 557.080364 302.906891 
L 557.790545 316.094303 
L 558.500727 312.249117 
L 559.210909 312.190958 
L 559.921091 309.124845 
L 560.631273 298.30504 
L 561.341455 293.380685 
L 562.051636 291.254096 
L 562.761818 293.351837 
L 564.182182 287.86434 
L 564.892364 291.036402 
L 565.602545 288.888573 
L 566.312727 288.641479 
L 567.022909 293.956166 
L 567.733091 290.88739 
L 568.443273 293.615498 
L 569.153455 294.582487 
L 569.863636 301.588867 
L 570.573818 316.404629 
L 571.284 312.862599 
L 571.994182 314.414784 
L 572.704364 317.494668 
L 573.414545 316.288145 
L 574.834909 310.808079 
L 575.545091 309.972801 
L 576.255273 314.637177 
L 577.675636 334.156957 
L 578.385818 331.644101 
L 579.096 332.282991 
L 579.806182 338.620587 
L 580.516364 340.630608 
L 581.226545 341.272041 
L 581.936727 338.049451 
L 582.646909 339.015002 
L 584.067273 356.497789 
L 584.777455 354.564565 
L 585.487636 356.82081 
L 586.197818 357.80312 
L 586.908 353.926538 
L 587.618182 355.339779 
L 588.328364 352.431397 
L 589.038545 345.768116 
L 590.458909 345.806767 
L 591.169091 346.42077 
L 591.879273 354.658537 
L 592.589455 365.585425 
L 593.299636 364.942455 
L 594.009818 363.445845 
L 594.72 363.2574 
L 595.430182 369.36 
L 596.140364 363.106096 
L 596.850545 366.820229 
L 598.981091 359.245762 
L 599.691273 358.866654 
L 600.401455 362.040725 
L 601.111636 359.855452 
L 601.821818 356.201746 
L 602.532 357.5426 
L 603.242182 355.021705 
L 603.952364 358.174273 
L 604.662545 358.822219 
L 605.372727 357.422391 
L 606.082909 352.728688 
L 606.793091 350.184335 
L 607.503273 354.769269 
L 608.213455 352.655316 
L 608.923636 351.0152 
L 609.633818 347.136505 
L 610.344 351.315113 
L 611.764364 340.553438 
L 612.474545 343.207259 
L 613.184727 348.041346 
L 613.894909 349.805178 
L 614.605091 348.472811 
L 615.315273 348.962046 
L 616.025455 356.748919 
L 616.735636 354.084821 
L 617.445818 355.020599 
L 618.156 359.108442 
L 618.866182 364.342053 
L 619.576364 365.943548 
L 620.286545 369.160912 
L 620.996727 366.656894 
L 621.706909 354.157005 
L 622.417091 350.400294 
L 623.127273 349.564307 
L 623.837455 352.196789 
L 624.547636 350.014167 
L 625.257818 351.518768 
L 625.968 350.970923 
L 626.678182 350.639619 
L 627.388364 346.568368 
L 628.098545 340.58581 
L 628.808727 340.978604 
L 629.518909 347.261784 
L 630.229091 338.995324 
L 630.939273 338.083305 
L 631.649455 333.753572 
L 632.359636 332.080937 
L 633.069818 325.689095 
L 633.78 327.37831 
L 634.490182 321.935531 
L 635.910545 324.087743 
L 636.620727 327.45202 
L 638.041091 320.128594 
L 638.751273 320.187506 
L 639.461455 319.201653 
L 640.171636 322.780098 
L 640.881818 329.739066 
L 642.302182 323.141094 
L 643.012364 326.994671 
L 643.722545 326.556105 
L 644.432727 332.564211 
L 645.142909 334.987777 
L 645.853091 330.184023 
L 646.563273 329.752085 
L 647.983636 334.290327 
L 649.404 327.818719 
L 650.114182 319.679195 
L 650.824364 315.452273 
L 651.534545 315.377979 
L 652.244727 316.059733 
L 652.954909 324.024913 
L 653.665091 315.945028 
L 654.375273 315.762048 
L 655.085455 322.162857 
L 655.795636 320.214953 
L 656.505818 319.734762 
L 657.216 313.576828 
L 657.926182 325.329158 
L 658.636364 330.305667 
L 660.056727 319.747161 
L 660.766909 311.708321 
L 661.477091 316.098449 
L 662.187273 318.92188 
L 662.897455 310.23357 
L 663.607636 308.193491 
L 664.317818 313.268406 
L 665.028 311.496611 
L 665.738182 297.536826 
L 666.448364 305.204747 
L 667.158545 307.165965 
L 667.868727 313.063464 
L 668.578909 312.363586 
L 669.289091 308.116134 
L 669.999273 308.220388 
L 670.709455 309.501945 
L 671.419636 311.465443 
L 672.129818 319.231529 
L 672.84 324.913634 
L 673.550182 325.255145 
L 674.260364 322.780789 
L 674.970545 324.701824 
L 675.680727 320.535122 
L 676.390909 319.679163 
L 677.101091 321.160589 
L 677.811273 321.596381 
L 678.521455 318.613675 
L 679.231636 324.040764 
L 679.941818 317.939587 
L 680.652 316.803569 
L 681.362182 321.410215 
L 682.072364 331.224079 
L 682.782545 326.682456 
L 683.492727 330.539642 
L 684.202909 336.071955 
L 684.913091 330.153029 
L 685.623273 327.093805 
L 686.333455 326.743527 
L 687.043636 322.575554 
L 687.753818 323.550451 
L 688.464 329.835525 
L 689.884364 338.9976 
L 690.594545 340.036022 
L 691.304727 333.180219 
L 692.014909 332.935269 
L 692.725091 329.450725 
L 693.435273 330.865391 
L 694.145455 335.805674 
L 695.565818 329.156886 
L 696.276 325.214078 
L 696.986182 323.956844 
L 697.696364 321.890753 
L 699.826909 301.219383 
L 700.537091 304.916003 
L 701.247273 314.177557 
L 701.957455 315.293849 
L 702.667636 314.664448 
L 703.377818 304.905976 
L 704.088 303.061577 
L 704.798182 301.737333 
L 705.508364 301.995223 
L 706.928727 298.73983 
L 707.638909 291.910541 
L 708.349091 288.577234 
L 709.059273 288.6074 
L 709.769455 294.13864 
L 710.479636 285.436568 
L 711.189818 283.597903 
L 711.9 282.6296 
L 712.610182 279.257563 
L 713.320364 266.634139 
L 714.030545 265.260491 
L 714.740727 258.076688 
L 715.450909 247.531192 
L 716.161091 248.225123 
L 716.871273 243.124314 
L 717.581455 242.963801 
L 718.291636 250.492576 
L 719.001818 250.967689 
L 719.712 252.851538 
L 720.422182 258.855908 
L 721.132364 263.367662 
L 721.842545 265.10343 
L 722.552727 255.459603 
L 723.262909 255.559864 
L 723.973091 253.760905 
L 724.683273 251.495164 
L 725.393455 245.217633 
L 726.103636 248.106704 
L 726.813818 250.449783 
L 727.524 253.720039 
L 728.234182 255.603723 
L 728.944364 257.117124 
L 729.654545 255.1694 
L 730.364727 257.329498 
L 731.074909 251.183113 
L 731.785091 253.295748 
L 732.495273 249.328159 
L 733.205455 249.583344 
L 733.915636 253.691457 
L 734.625818 255.339122 
L 735.336 255.91746 
L 736.046182 256.868881 
L 736.756364 253.175527 
L 737.466545 253.111082 
L 738.176727 252.924145 
L 738.886909 255.684173 
L 739.597091 255.012052 
L 740.307273 260.805096 
L 741.017455 259.765995 
L 741.727636 271.007045 
L 742.437818 265.327053 
L 743.148 265.313565 
L 743.858182 263.414079 
L 744.568364 268.242705 
L 745.278545 263.816083 
L 745.988727 260.789193 
L 746.698909 269.815612 
L 747.409091 262.655508 
L 748.119273 260.852559 
L 748.829455 262.623192 
L 749.539636 262.304654 
L 750.249818 257.041607 
L 750.96 250.777506 
L 751.670182 252.075613 
L 752.380364 255.214097 
L 753.090545 251.912061 
L 753.800727 244.488139 
L 754.510909 247.616665 
L 755.931273 239.381412 
L 756.641455 234.165921 
L 757.351636 229.786859 
L 758.061818 223.416578 
L 758.772 218.211311 
L 759.482182 218.43666 
L 760.902545 212.821581 
L 761.612727 219.846482 
L 762.322909 209.337347 
L 763.743273 217.074666 
L 765.163636 231.034752 
L 765.873818 222.68063 
L 766.584 220.328033 
L 767.294182 218.557762 
L 768.004364 213.841127 
L 768.714545 210.88723 
L 769.424727 212.867282 
L 770.134909 213.179409 
L 770.845091 211.314107 
L 771.555273 216.353471 
L 772.265455 218.005444 
L 772.975636 215.500275 
L 773.685818 218.061164 
L 775.106182 216.573856 
L 775.816364 221.602676 
L 776.526545 220.6154 
L 777.236727 222.415777 
L 777.946909 217.558113 
L 778.657091 217.492163 
L 779.367273 224.065265 
L 780.077455 220.202306 
L 780.787636 214.441429 
L 781.497818 222.110518 
L 782.208 227.620635 
L 782.918182 240.283458 
L 783.628364 238.978885 
L 784.338545 240.682491 
L 785.048727 236.326503 
L 785.758909 227.887429 
L 786.469091 228.767698 
L 787.179273 219.675577 
L 787.889455 227.498838 
L 788.599636 221.150754 
L 789.309818 231.216633 
L 790.02 230.250418 
L 790.730182 224.143871 
L 791.440364 227.288559 
L 792.150545 223.77224 
L 792.860727 226.851526 
L 793.570909 226.913801 
L 794.281091 225.964232 
L 794.991273 220.180384 
L 795.701455 225.231475 
L 796.411636 227.843504 
L 797.121818 232.40248 
L 797.832 231.558549 
L 798.542182 230.039658 
L 799.252364 229.452001 
L 799.962545 226.447924 
L 800.672727 219.435413 
L 801.382909 226.555616 
L 802.093091 222.164634 
L 802.803273 218.759709 
L 803.513455 218.028803 
L 804.223636 212.099454 
L 804.933818 211.143632 
L 805.644 210.46501 
L 806.354182 211.43318 
L 807.064364 209.213186 
L 807.774545 206.396752 
L 808.484727 201.432303 
L 809.194909 192.607562 
L 809.905091 194.507254 
L 811.325455 186.702959 
L 812.035636 184.059303 
L 812.745818 186.875472 
L 813.456 188.481759 
L 814.876364 191.950269 
L 815.586545 200.273526 
L 816.296727 193.109157 
L 817.006909 193.778931 
L 817.717091 198.48702 
L 818.427273 196.994577 
L 819.137455 195.995671 
L 819.847636 199.17341 
L 820.557818 193.970542 
L 821.268 191.079742 
L 821.978182 190.261081 
L 822.688364 190.45109 
L 823.398545 193.289889 
L 824.108727 190.831196 
L 824.818909 189.72943 
L 825.529091 190.343543 
L 826.239273 191.857642 
L 826.949455 187.440487 
L 827.659636 193.033379 
L 828.369818 186.114663 
L 829.08 184.479796 
L 829.790182 187.172336 
L 830.500364 183.514386 
L 831.210545 180.628744 
L 831.920727 179.347684 
L 832.630909 172.122687 
L 833.341091 176.520764 
L 834.051273 184.837461 
L 834.761455 182.792653 
L 835.471636 178.560131 
L 836.181818 188.235753 
L 836.892 194.309457 
L 837.602182 199.194631 
L 838.312364 205.594524 
L 839.022545 209.289754 
L 839.732727 205.748765 
L 840.442909 209.290602 
L 841.153091 206.510021 
L 841.863273 204.561452 
L 842.573455 202.080062 
L 843.283636 205.379474 
L 846.124364 186.125997 
L 846.834545 187.661834 
L 848.254909 176.226285 
L 848.965091 180.968196 
L 849.675273 182.862454 
L 850.385455 182.241265 
L 851.095636 180.135637 
L 851.805818 175.942234 
L 852.516 175.669575 
L 853.226182 171.189741 
L 853.936364 175.749753 
L 855.356727 185.91169 
L 856.066909 184.817514 
L 856.777091 187.777249 
L 857.487273 184.841033 
L 858.197455 180.585215 
L 858.907636 172.081304 
L 859.617818 172.140362 
L 860.328 176.294631 
L 861.038182 176.104003 
L 861.748364 180.81059 
L 862.458545 184.050934 
L 863.168727 182.098198 
L 863.878909 182.83845 
L 864.589091 179.403074 
L 865.299273 177.349094 
L 866.009455 180.499635 
L 867.429818 191.623936 
L 868.14 182.208207 
L 868.850182 186.571203 
L 869.560364 192.639165 
L 870.270545 188.074625 
L 870.980727 178.959252 
L 871.690909 178.478721 
L 871.690909 178.478721 
" clip-path="url(#pc9913a1802)" style="fill: none; stroke: #ff7f0e; stroke-width: 1.5; stroke-linecap: square"/>
   </g>
   <g id="line2d_15">
    <path d="M 162.219273 361.099315 
L 162.929455 361.124127 
L 163.639636 360.588247 
L 165.770182 360.562549 
L 167.190545 360.238591 
L 168.610909 360.050408 
L 169.321091 359.936258 
L 170.031273 359.423739 
L 170.741455 359.413844 
L 171.451636 359.187322 
L 172.161818 359.169547 
L 172.872 358.67371 
L 173.582182 358.634324 
L 174.292364 358.173885 
L 183.524727 357.898274 
L 184.234909 357.600303 
L 184.945091 357.602024 
L 185.655273 357.46923 
L 186.365455 356.989331 
L 187.785818 356.983607 
L 188.496 356.495398 
L 192.046909 356.29085 
L 193.467273 356.260045 
L 195.597818 355.764782 
L 196.308 355.372986 
L 199.148727 355.25983 
L 199.858909 354.548316 
L 200.569091 354.192385 
L 201.989455 354.242561 
L 202.699636 353.586828 
L 203.409818 353.620464 
L 206.250545 353.360321 
L 208.381091 353.32637 
L 209.801455 353.430861 
L 211.221818 353.152181 
L 214.062545 353.021483 
L 215.482909 352.638366 
L 217.613455 352.60025 
L 219.744 352.566607 
L 220.454182 352.355537 
L 221.164364 352.609562 
L 222.584727 352.643917 
L 223.294909 352.224262 
L 226.135636 352.099754 
L 226.845818 352.30994 
L 227.556 352.206741 
L 228.266182 352.220474 
L 228.976364 352.088257 
L 231.106909 352.04 
L 232.527273 351.79181 
L 233.237455 351.635489 
L 234.657818 351.541824 
L 236.078182 351.448902 
L 236.788364 351.447933 
L 237.498545 351.128324 
L 238.918909 350.862718 
L 240.339273 350.932594 
L 241.049455 350.619989 
L 241.759636 350.446465 
L 243.890182 350.39305 
L 244.600364 350.275983 
L 245.310545 350.025324 
L 247.441091 349.954211 
L 250.992 349.847145 
L 252.412364 349.704635 
L 253.122545 349.554801 
L 253.832727 349.568163 
L 254.542909 349.698141 
L 255.253091 349.694533 
L 255.963273 349.43686 
L 257.383636 349.334448 
L 258.093818 349.230083 
L 258.804 348.771456 
L 260.934545 348.537641 
L 263.775273 348.453751 
L 265.195636 348.141284 
L 265.905818 346.99997 
L 267.326182 347.107401 
L 270.877091 347.014394 
L 273.717818 346.58021 
L 275.848364 346.451787 
L 276.558545 345.886188 
L 277.978909 346.066152 
L 278.689091 345.743724 
L 280.109455 345.589622 
L 281.529818 345.514774 
L 285.790909 345.441744 
L 286.501091 345.295496 
L 288.631636 345.285154 
L 289.341818 343.498298 
L 290.762182 343.318665 
L 292.892727 343.211962 
L 293.602909 343.056263 
L 297.153818 342.86042 
L 297.864 341.676447 
L 300.704727 341.55204 
L 302.125091 340.634676 
L 311.357455 340.361358 
L 312.067636 340.129163 
L 312.777818 339.52328 
L 315.618545 339.253471 
L 316.328727 337.259661 
L 318.459273 337.125319 
L 319.879636 336.138443 
L 322.010182 336.094601 
L 322.720364 336.043786 
L 323.430545 335.708921 
L 324.140727 335.19274 
L 330.532364 335.138494 
L 331.242545 334.951383 
L 331.952727 334.958274 
L 334.083273 334.496512 
L 337.634182 334.040234 
L 338.344364 334.035674 
L 339.054545 333.888448 
L 339.764727 333.517176 
L 341.185091 333.444399 
L 342.605455 333.488211 
L 344.025818 332.990927 
L 344.736 333.031302 
L 346.156364 332.501531 
L 346.866545 332.587774 
L 347.576727 332.381762 
L 349.707273 332.458941 
L 350.417455 332.168208 
L 353.968364 331.974373 
L 354.678545 331.781717 
L 358.939636 331.711938 
L 359.649818 331.453334 
L 360.36 331.359105 
L 361.070182 331.060866 
L 362.490545 331.019126 
L 363.200727 330.725245 
L 363.910909 330.766982 
L 366.751636 330.50463 
L 368.172 330.485571 
L 368.882182 330.041496 
L 369.592364 329.387324 
L 370.302545 329.377973 
L 371.012727 329.226278 
L 372.433091 329.207091 
L 373.143273 328.916991 
L 375.984 328.693688 
L 376.694182 328.382541 
L 381.665455 327.985252 
L 383.085818 327.998962 
L 383.796 327.825303 
L 385.216364 327.802086 
L 386.636727 326.888303 
L 388.767273 326.877119 
L 389.477455 326.420898 
L 393.738545 326.598944 
L 395.158909 326.541609 
L 395.869091 326.179488 
L 396.579273 326.172508 
L 397.289455 325.985317 
L 397.999636 325.940243 
L 400.130182 325.373654 
L 400.840364 325.328 
L 401.550545 325.031667 
L 402.970909 324.974946 
L 403.681091 324.903911 
L 404.391273 324.955923 
L 405.101455 324.734521 
L 405.811636 324.665466 
L 406.521818 323.453209 
L 407.942182 323.553353 
L 408.652364 323.541732 
L 409.362545 323.307325 
L 410.072727 323.318542 
L 412.203273 323.090634 
L 412.913455 323.134869 
L 414.333818 322.574379 
L 415.754182 322.574654 
L 417.174545 322.38054 
L 420.015273 322.262486 
L 421.435636 322.083084 
L 422.856 322.012468 
L 426.406909 321.310784 
L 429.247636 321.048367 
L 429.957818 321.134355 
L 430.668 321.085897 
L 432.088364 320.310083 
L 433.508727 320.281074 
L 434.929091 320.075788 
L 436.349455 319.984082 
L 437.059636 319.540325 
L 438.48 319.493465 
L 439.190182 319.161354 
L 444.871636 318.810964 
L 446.292 318.422183 
L 447.002182 317.95147 
L 447.712364 317.855685 
L 448.422545 317.621574 
L 449.132727 317.610848 
L 449.842909 316.194519 
L 451.263273 316.148188 
L 454.104 316.052386 
L 454.814182 315.905538 
L 455.524364 315.878945 
L 456.234545 315.964715 
L 458.365091 315.881455 
L 459.785455 315.916674 
L 460.495636 315.172518 
L 461.205818 314.923535 
L 461.916 314.911884 
L 463.336364 314.351691 
L 467.597455 314.25861 
L 468.307636 314.012419 
L 470.438182 313.932116 
L 471.148364 313.737235 
L 471.858545 313.733644 
L 472.568727 313.487462 
L 478.250182 313.387318 
L 478.960364 312.822193 
L 480.380727 312.612022 
L 481.090909 312.62502 
L 481.801091 312.349126 
L 483.221455 312.356405 
L 483.931636 312.198635 
L 486.062182 312.2639 
L 486.772364 311.856455 
L 488.902909 311.754042 
L 490.323273 311.179886 
L 493.164 311.095259 
L 493.874182 310.952871 
L 494.584364 310.385311 
L 497.425091 310.392681 
L 500.976 309.984929 
L 501.686182 309.592712 
L 503.106545 309.331762 
L 503.816727 309.034782 
L 504.526909 309.058222 
L 505.237091 308.490359 
L 505.947273 308.536928 
L 508.077818 307.984826 
L 508.788 307.886017 
L 509.498182 307.917572 
L 510.208364 307.500899 
L 510.918545 307.466307 
L 511.628727 307.127434 
L 513.759273 307.124915 
L 514.469455 306.977647 
L 516.6 306.882702 
L 517.310182 306.520852 
L 521.571273 306.253023 
L 522.281455 306.335184 
L 527.252727 305.938519 
L 528.673091 305.831768 
L 530.093455 305.780165 
L 530.803636 306.002231 
L 532.224 305.829694 
L 532.934182 305.357969 
L 534.354545 305.247904 
L 535.064727 304.891844 
L 536.485091 304.823268 
L 537.195273 304.837039 
L 537.905455 304.597739 
L 539.325818 304.41139 
L 540.036 304.232079 
L 542.876727 304.232247 
L 543.586909 303.965935 
L 545.007273 303.870111 
L 546.427636 303.877379 
L 548.558182 303.580405 
L 549.268364 303.495664 
L 550.688727 303.57335 
L 551.398909 303.534732 
L 552.109091 303.121979 
L 552.819273 302.919916 
L 553.529455 302.949885 
L 554.239636 302.814033 
L 555.66 302.804244 
L 557.080364 302.51583 
L 557.790545 301.823985 
L 559.210909 301.906351 
L 559.921091 301.871743 
L 560.631273 301.323346 
L 566.312727 300.983347 
L 567.022909 300.784225 
L 567.733091 300.706169 
L 569.153455 300.754383 
L 569.863636 300.555143 
L 570.573818 299.796832 
L 571.994182 299.779917 
L 572.704364 299.635345 
L 576.255273 299.570605 
L 576.965455 299.353921 
L 577.675636 298.753417 
L 579.096 298.730774 
L 579.806182 298.404446 
L 581.226545 298.444219 
L 581.936727 298.326522 
L 583.357091 298.43168 
L 584.067273 297.837673 
L 588.328364 297.643039 
L 589.038545 297.42808 
L 591.169091 297.431723 
L 591.879273 297.311835 
L 592.589455 296.815169 
L 596.140364 296.798131 
L 597.560727 296.619194 
L 602.532 296.47376 
L 603.952364 296.512946 
L 605.372727 296.521577 
L 606.082909 296.398304 
L 608.923636 296.389484 
L 610.344 296.593386 
L 611.054182 296.293478 
L 612.474545 296.224214 
L 613.184727 296.066312 
L 615.315273 296.119295 
L 616.025455 295.797868 
L 618.866182 295.5724 
L 620.286545 295.533231 
L 620.996727 295.49752 
L 621.706909 294.474708 
L 623.127273 294.560191 
L 624.547636 294.498826 
L 627.388364 294.440704 
L 628.098545 294.276266 
L 628.808727 294.273794 
L 630.229091 293.616997 
L 632.359636 293.801481 
L 633.069818 293.525191 
L 633.78 293.462251 
L 634.490182 293.263969 
L 635.910545 293.235045 
L 636.620727 293.088297 
L 640.171636 292.927522 
L 640.881818 292.560748 
L 652.244727 292.0243 
L 652.954909 291.473043 
L 653.665091 291.281095 
L 654.375273 291.283814 
L 655.795636 291.164212 
L 656.505818 291.160661 
L 657.216 290.925287 
L 657.926182 290.057838 
L 658.636364 290.04786 
L 659.346545 289.742738 
L 660.056727 289.761792 
L 660.766909 289.986369 
L 662.187273 289.972604 
L 662.897455 289.765493 
L 663.607636 289.745775 
L 664.317818 289.536394 
L 665.028 289.49141 
L 665.738182 288.72541 
L 669.999273 288.346013 
L 671.419636 288.31153 
L 672.129818 287.694346 
L 674.970545 287.526476 
L 677.811273 287.469351 
L 678.521455 287.27182 
L 679.231636 287.378144 
L 681.362182 287.216414 
L 682.072364 286.683794 
L 682.782545 286.743782 
L 683.492727 286.67141 
L 684.913091 286.192217 
L 686.333455 286.219231 
L 687.043636 286.024896 
L 687.753818 285.958355 
L 688.464 285.472535 
L 690.594545 285.506887 
L 691.304727 285.012361 
L 693.435273 284.985868 
L 694.145455 284.69771 
L 695.565818 284.593296 
L 698.406545 284.642334 
L 699.826909 284.027881 
L 700.537091 283.984659 
L 701.247273 283.751962 
L 702.667636 283.691464 
L 703.377818 283.308538 
L 704.798182 283.235852 
L 706.928727 283.203718 
L 707.638909 282.992176 
L 709.059273 283.013911 
L 709.769455 282.859886 
L 710.479636 282.514005 
L 712.610182 282.366726 
L 713.320364 281.738234 
L 714.030545 281.712357 
L 714.740727 281.49427 
L 715.450909 280.79189 
L 716.161091 280.781481 
L 716.871273 280.491017 
L 717.581455 280.488106 
L 718.291636 280.206952 
L 719.712 280.236867 
L 720.422182 280.01644 
L 726.103636 279.467998 
L 731.074909 279.432193 
L 732.495273 279.224281 
L 736.046182 279.202237 
L 736.756364 279.008056 
L 740.307273 278.905954 
L 741.017455 278.894601 
L 741.727636 278.647308 
L 744.568364 278.703307 
L 745.278545 278.492197 
L 745.988727 278.447886 
L 746.698909 277.901792 
L 747.409091 277.711216 
L 749.539636 277.852474 
L 750.249818 277.582489 
L 753.090545 277.407253 
L 754.510909 277.140951 
L 755.931273 276.930716 
L 756.641455 276.519424 
L 758.772 276.332232 
L 760.902545 276.230538 
L 761.612727 275.866954 
L 762.322909 275.013242 
L 764.453455 274.878821 
L 765.163636 274.424466 
L 765.873818 274.252015 
L 768.004364 274.181085 
L 768.714545 274.052027 
L 770.845091 274.115098 
L 772.975636 273.951441 
L 775.106182 273.961589 
L 775.816364 273.812803 
L 778.657091 273.695831 
L 779.367273 273.512688 
L 780.787636 273.491685 
L 782.208 273.174908 
L 782.918182 272.193305 
L 785.048727 272.15394 
L 785.758909 271.681555 
L 786.469091 271.67279 
L 787.179273 271.280835 
L 787.889455 271.047894 
L 788.599636 270.946365 
L 789.309818 270.104361 
L 790.02 270.065092 
L 790.730182 269.552869 
L 791.440364 269.386863 
L 794.281091 269.434586 
L 794.991273 268.903501 
L 795.701455 268.673968 
L 798.542182 268.472837 
L 799.962545 268.492686 
L 800.672727 268.33178 
L 801.382909 268.030373 
L 807.774545 267.7423 
L 810.615273 267.346224 
L 812.745818 267.204616 
L 814.876364 267.202797 
L 815.586545 266.954894 
L 817.717091 266.780492 
L 819.137455 266.759967 
L 819.847636 266.859732 
L 820.557818 266.670111 
L 825.529091 266.569873 
L 831.210545 266.499647 
L 831.920727 266.524846 
L 832.630909 266.028902 
L 834.051273 265.801551 
L 834.761455 265.835677 
L 835.471636 265.718784 
L 837.602182 264.888895 
L 838.312364 265.017145 
L 841.153091 264.572529 
L 844.704 264.318027 
L 845.414182 264.092631 
L 849.675273 264.018649 
L 851.095636 264.031228 
L 851.805818 263.90418 
L 856.066909 263.810513 
L 858.197455 263.601918 
L 858.907636 263.008907 
L 861.038182 262.924765 
L 866.009455 262.640965 
L 868.850182 261.991768 
L 869.560364 261.707903 
L 870.270545 261.712664 
L 870.980727 261.181198 
L 871.690909 261.189841 
L 871.690909 261.189841 
" clip-path="url(#pc9913a1802)" style="fill: none; stroke: #2ca02c; stroke-width: 1.5; stroke-linecap: square"/>
   </g>
   <g id="patch_3">
    <path d="M 126 384.48 
L 126 51.84 
" style="fill: none; stroke: #000000; stroke-width: 0.8; stroke-linejoin: miter; stroke-linecap: square"/>
   </g>
   <g id="patch_4">
    <path d="M 907.2 384.48 
L 907.2 51.84 
" style="fill: none; stroke: #000000; stroke-width: 0.8; stroke-linejoin: miter; stroke-linecap: square"/>
   </g>
   <g id="patch_5">
    <path d="M 126 384.48 
L 907.2 384.48 
" style="fill: none; stroke: #000000; stroke-width: 0.8; stroke-linejoin: miter; stroke-linecap: square"/>
   </g>
   <g id="patch_6">
    <path d="M 126 51.84 
L 907.2 51.84 
" style="fill: none; stroke: #000000; stroke-width: 0.8; stroke-linejoin: miter; stroke-linecap: square"/>
   </g>
   <g id="text_15">
    <!-- Quadratic Covariation of $X_t$ and $S_t$ -->
    <g transform="translate(414.54 45.84)scale(0.12 -0.12)">
     <defs>
      <path id="DejaVuSans-66" d="M 2375 4863 
L 2375 4384 
L 1825 4384 
Q 1516 4384 1395 4259 
Q 1275 4134 1275 3809 
L 1275 3500 
L 2222 3500 
L 2222 3053 
L 1275 3053 
L 1275 0 
L 697 0 
L 697 3053 
L 147 3053 
L 147 3500 
L 697 3500 
L 697 3744 
Q 697 4328 969 4595 
Q 1241 4863 1831 4863 
L 2375 4863 
z
" transform="scale(0.015625)"/>
      <path id="DejaVuSans-Oblique-58" d="M 878 4666 
L 1516 4666 
L 2316 2981 
L 3763 4666 
L 4500 4666 
L 2578 2438 
L 3738 0 
L 3103 0 
L 2163 1966 
L 459 0 
L -275 0 
L 1906 2509 
L 878 4666 
z
" transform="scale(0.015625)"/>
      <path id="DejaVuSans-Oblique-74" d="M 2706 3500 
L 2619 3053 
L 1472 3053 
L 1100 1153 
Q 1081 1047 1072 975 
Q 1063 903 1063 863 
Q 1063 663 1183 572 
Q 1303 481 1569 481 
L 2150 481 
L 2053 0 
L 1503 0 
Q 991 0 739 200 
Q 488 400 488 806 
Q 488 878 497 964 
Q 506 1050 525 1153 
L 897 3053 
L 409 3053 
L 500 3500 
L 978 3500 
L 1172 4494 
L 1747 4494 
L 1556 3500 
L 2706 3500 
z
" transform="scale(0.015625)"/>
      <path id="DejaVuSans-Oblique-53" d="M 3859 4513 
L 3738 3897 
Q 3422 4066 3111 4152 
Q 2800 4238 2509 4238 
Q 1944 4238 1609 3991 
Q 1275 3744 1275 3334 
Q 1275 3109 1398 2989 
Q 1522 2869 2034 2731 
L 2413 2638 
Q 3053 2472 3303 2217 
Q 3553 1963 3553 1503 
Q 3553 797 2998 353 
Q 2444 -91 1538 -91 
Q 1166 -91 791 -17 
Q 416 56 38 206 
L 166 856 
Q 513 641 861 531 
Q 1209 422 1556 422 
Q 2147 422 2503 684 
Q 2859 947 2859 1369 
Q 2859 1650 2717 1795 
Q 2575 1941 2106 2059 
L 1728 2156 
Q 1081 2325 845 2545 
Q 609 2766 609 3163 
Q 609 3859 1145 4304 
Q 1681 4750 2541 4750 
Q 2875 4750 3203 4690 
Q 3531 4631 3859 4513 
z
" transform="scale(0.015625)"/>
     </defs>
     <use xlink:href="#DejaVuSans-51" transform="translate(0 0.015625)"/>
     <use xlink:href="#DejaVuSans-75" transform="translate(78.710938 0.015625)"/>
     <use xlink:href="#DejaVuSans-61" transform="translate(142.089844 0.015625)"/>
     <use xlink:href="#DejaVuSans-64" transform="translate(203.369141 0.015625)"/>
     <use xlink:href="#DejaVuSans-72" transform="translate(266.845703 0.015625)"/>
     <use xlink:href="#DejaVuSans-61" transform="translate(307.958984 0.015625)"/>
     <use xlink:href="#DejaVuSans-74" transform="translate(369.238281 0.015625)"/>
     <use xlink:href="#DejaVuSans-69" transform="translate(408.447266 0.015625)"/>
     <use xlink:href="#DejaVuSans-63" transform="translate(436.230469 0.015625)"/>
     <use xlink:href="#DejaVuSans-20" transform="translate(491.210938 0.015625)"/>
     <use xlink:href="#DejaVuSans-43" transform="translate(522.998047 0.015625)"/>
     <use xlink:href="#DejaVuSans-6f" transform="translate(592.822266 0.015625)"/>
     <use xlink:href="#DejaVuSans-76" transform="translate(654.003906 0.015625)"/>
     <use xlink:href="#DejaVuSans-61" transform="translate(713.183594 0.015625)"/>
     <use xlink:href="#DejaVuSans-72" transform="translate(774.462891 0.015625)"/>
     <use xlink:href="#DejaVuSans-69" transform="translate(815.576172 0.015625)"/>
     <use xlink:href="#DejaVuSans-61" transform="translate(843.359375 0.015625)"/>
     <use xlink:href="#DejaVuSans-74" transform="translate(904.638672 0.015625)"/>
     <use xlink:href="#DejaVuSans-69" transform="translate(943.847656 0.015625)"/>
     <use xlink:href="#DejaVuSans-6f" transform="translate(971.630859 0.015625)"/>
     <use xlink:href="#DejaVuSans-6e" transform="translate(1032.8125 0.015625)"/>
     <use xlink:href="#DejaVuSans-20" transform="translate(1096.191406 0.015625)"/>
     <use xlink:href="#DejaVuSans-6f" transform="translate(1127.978516 0.015625)"/>
     <use xlink:href="#DejaVuSans-66" transform="translate(1189.160156 0.015625)"/>
     <use xlink:href="#DejaVuSans-20" transform="translate(1224.365234 0.015625)"/>
     <use xlink:href="#DejaVuSans-Oblique-58" transform="translate(1256.152344 0.015625)"/>
     <use xlink:href="#DejaVuSans-Oblique-74" transform="translate(1324.658203 -16.390625)scale(0.7)"/>
     <use xlink:href="#DejaVuSans-20" transform="translate(1354.838867 0.015625)"/>
     <use xlink:href="#DejaVuSans-61" transform="translate(1386.625977 0.015625)"/>
     <use xlink:href="#DejaVuSans-6e" transform="translate(1447.905273 0.015625)"/>
     <use xlink:href="#DejaVuSans-64" transform="translate(1511.28418 0.015625)"/>
     <use xlink:href="#DejaVuSans-20" transform="translate(1574.760742 0.015625)"/>
     <use xlink:href="#DejaVuSans-Oblique-53" transform="translate(1606.547852 0.015625)"/>
     <use xlink:href="#DejaVuSans-Oblique-74" transform="translate(1670.024414 -16.390625)scale(0.7)"/>
    </g>
   </g>
   <g id="legend_1">
    <g id="patch_7">
     <path d="M 698.1 103.874375 
L 900.2 103.874375 
Q 902.2 103.874375 902.2 101.874375 
L 902.2 58.84 
Q 902.2 56.84 900.2 56.84 
L 698.1 56.84 
Q 696.1 56.84 696.1 58.84 
L 696.1 101.874375 
Q 696.1 103.874375 698.1 103.874375 
z
" style="fill: #ffffff; opacity: 0.8; stroke: #cccccc; stroke-linejoin: miter"/>
    </g>
    <g id="line2d_16">
     <path d="M 700.1 64.938437 
L 710.1 64.938437 
L 720.1 64.938437 
" style="fill: none; stroke: #1f77b4; stroke-width: 1.5; stroke-linecap: square"/>
    </g>
    <g id="text_16">
     <!-- $X_t$ -->
     <g transform="translate(728.1 68.438437)scale(0.1 -0.1)">
      <use xlink:href="#DejaVuSans-Oblique-58" transform="translate(0 0.09375)"/>
      <use xlink:href="#DejaVuSans-Oblique-74" transform="translate(68.505859 -16.3125)scale(0.7)"/>
     </g>
    </g>
    <g id="line2d_17">
     <path d="M 700.1 79.616562 
L 710.1 79.616562 
L 720.1 79.616562 
" style="fill: none; stroke: #ff7f0e; stroke-width: 1.5; stroke-linecap: square"/>
    </g>
    <g id="text_17">
     <!-- $S_t$ -->
     <g transform="translate(728.1 83.116562)scale(0.1 -0.1)">
      <use xlink:href="#DejaVuSans-Oblique-53" transform="translate(0 0.78125)"/>
      <use xlink:href="#DejaVuSans-Oblique-74" transform="translate(63.476562 -15.625)scale(0.7)"/>
     </g>
    </g>
    <g id="line2d_18">
     <path d="M 700.1 94.294687 
L 710.1 94.294687 
L 720.1 94.294687 
" style="fill: none; stroke: #2ca02c; stroke-width: 1.5; stroke-linecap: square"/>
    </g>
    <g id="text_18">
     <!-- Quadratic Covariation of $X_t$ and $S_t$ -->
     <g transform="translate(728.1 97.794687)scale(0.1 -0.1)">
      <use xlink:href="#DejaVuSans-51" transform="translate(0 0.015625)"/>
      <use xlink:href="#DejaVuSans-75" transform="translate(78.710938 0.015625)"/>
      <use xlink:href="#DejaVuSans-61" transform="translate(142.089844 0.015625)"/>
      <use xlink:href="#DejaVuSans-64" transform="translate(203.369141 0.015625)"/>
      <use xlink:href="#DejaVuSans-72" transform="translate(266.845703 0.015625)"/>
      <use xlink:href="#DejaVuSans-61" transform="translate(307.958984 0.015625)"/>
      <use xlink:href="#DejaVuSans-74" transform="translate(369.238281 0.015625)"/>
      <use xlink:href="#DejaVuSans-69" transform="translate(408.447266 0.015625)"/>
      <use xlink:href="#DejaVuSans-63" transform="translate(436.230469 0.015625)"/>
      <use xlink:href="#DejaVuSans-20" transform="translate(491.210938 0.015625)"/>
      <use xlink:href="#DejaVuSans-43" transform="translate(522.998047 0.015625)"/>
      <use xlink:href="#DejaVuSans-6f" transform="translate(592.822266 0.015625)"/>
      <use xlink:href="#DejaVuSans-76" transform="translate(654.003906 0.015625)"/>
      <use xlink:href="#DejaVuSans-61" transform="translate(713.183594 0.015625)"/>
      <use xlink:href="#DejaVuSans-72" transform="translate(774.462891 0.015625)"/>
      <use xlink:href="#DejaVuSans-69" transform="translate(815.576172 0.015625)"/>
      <use xlink:href="#DejaVuSans-61" transform="translate(843.359375 0.015625)"/>
      <use xlink:href="#DejaVuSans-74" transform="translate(904.638672 0.015625)"/>
      <use xlink:href="#DejaVuSans-69" transform="translate(943.847656 0.015625)"/>
      <use xlink:href="#DejaVuSans-6f" transform="translate(971.630859 0.015625)"/>
      <use xlink:href="#DejaVuSans-6e" transform="translate(1032.8125 0.015625)"/>
      <use xlink:href="#DejaVuSans-20" transform="translate(1096.191406 0.015625)"/>
      <use xlink:href="#DejaVuSans-6f" transform="translate(1127.978516 0.015625)"/>
      <use xlink:href="#DejaVuSans-66" transform="translate(1189.160156 0.015625)"/>
      <use xlink:href="#DejaVuSans-20" transform="translate(1224.365234 0.015625)"/>
      <use xlink:href="#DejaVuSans-Oblique-58" transform="translate(1256.152344 0.015625)"/>
      <use xlink:href="#DejaVuSans-Oblique-74" transform="translate(1324.658203 -16.390625)scale(0.7)"/>
      <use xlink:href="#DejaVuSans-20" transform="translate(1354.838867 0.015625)"/>
      <use xlink:href="#DejaVuSans-61" transform="translate(1386.625977 0.015625)"/>
      <use xlink:href="#DejaVuSans-6e" transform="translate(1447.905273 0.015625)"/>
      <use xlink:href="#DejaVuSans-64" transform="translate(1511.28418 0.015625)"/>
      <use xlink:href="#DejaVuSans-20" transform="translate(1574.760742 0.015625)"/>
      <use xlink:href="#DejaVuSans-Oblique-53" transform="translate(1606.547852 0.015625)"/>
      <use xlink:href="#DejaVuSans-Oblique-74" transform="translate(1670.024414 -16.390625)scale(0.7)"/>
     </g>
    </g>
   </g>
  </g>
 </g>
 <defs>
  <clipPath id="pc9913a1802">
   <rect x="126" y="51.84" width="781.2" height="332.64"/>
  </clipPath>
 </defs>
</svg>
