<?xml version="1.0" encoding="utf-8" standalone="no"?>
<!DOCTYPE svg PUBLIC "-//W3C//DTD SVG 1.1//EN"
  "http://www.w3.org/Graphics/SVG/1.1/DTD/svg11.dtd">
<svg xmlns:xlink="http://www.w3.org/1999/xlink" width="1008pt" height="432pt" viewBox="0 0 1008 432" xmlns="http://www.w3.org/2000/svg" version="1.1">
 <metadata>
  <rdf:RDF xmlns:dc="http://purl.org/dc/elements/1.1/" xmlns:cc="http://creativecommons.org/ns#" xmlns:rdf="http://www.w3.org/1999/02/22-rdf-syntax-ns#">
   <cc:Work>
    <dc:type rdf:resource="http://purl.org/dc/dcmitype/StillImage"/>
    <dc:date>2023-12-22T17:15:31.826212</dc:date>
    <dc:format>image/svg+xml</dc:format>
    <dc:creator>
     <cc:Agent>
      <dc:title>Matplotlib v3.5.2, https://matplotlib.org/</dc:title>
     </cc:Agent>
    </dc:creator>
   </cc:Work>
  </rdf:RDF>
 </metadata>
 <defs>
  <style type="text/css">*{stroke-linejoin: round; stroke-linecap: butt}</style>
 </defs>
 <g id="figure_1">
  <g id="patch_1">
   <path d="M 0 432 
L 1008 432 
L 1008 0 
L 0 0 
z
" style="fill: #ffffff"/>
  </g>
  <g id="axes_1">
   <g id="patch_2">
    <path d="M 126 384.48 
L 907.2 384.48 
L 907.2 51.84 
L 126 51.84 
z
" style="fill: #ffffff"/>
   </g>
   <g id="matplotlib.axis_1">
    <g id="xtick_1">
     <g id="line2d_1">
      <defs>
       <path id="md89009d729" d="M 0 0 
L 0 3.5 
" style="stroke: #000000; stroke-width: 0.8"/>
      </defs>
      <g>
       <use xlink:href="#md89009d729" x="161.509091" y="384.48" style="stroke: #000000; stroke-width: 0.8"/>
      </g>
     </g>
     <g id="text_1">
      <!-- 0.0 -->
      <g transform="translate(153.557528 399.078438)scale(0.1 -0.1)">
       <defs>
        <path id="DejaVuSans-30" d="M 2034 4250 
Q 1547 4250 1301 3770 
Q 1056 3291 1056 2328 
Q 1056 1369 1301 889 
Q 1547 409 2034 409 
Q 2525 409 2770 889 
Q 3016 1369 3016 2328 
Q 3016 3291 2770 3770 
Q 2525 4250 2034 4250 
z
M 2034 4750 
Q 2819 4750 3233 4129 
Q 3647 3509 3647 2328 
Q 3647 1150 3233 529 
Q 2819 -91 2034 -91 
Q 1250 -91 836 529 
Q 422 1150 422 2328 
Q 422 3509 836 4129 
Q 1250 4750 2034 4750 
z
" transform="scale(0.015625)"/>
        <path id="DejaVuSans-2e" d="M 684 794 
L 1344 794 
L 1344 0 
L 684 0 
L 684 794 
z
" transform="scale(0.015625)"/>
       </defs>
       <use xlink:href="#DejaVuSans-30"/>
       <use xlink:href="#DejaVuSans-2e" x="63.623047"/>
       <use xlink:href="#DejaVuSans-30" x="95.410156"/>
      </g>
     </g>
    </g>
    <g id="xtick_2">
     <g id="line2d_2">
      <g>
       <use xlink:href="#md89009d729" x="303.545455" y="384.48" style="stroke: #000000; stroke-width: 0.8"/>
      </g>
     </g>
     <g id="text_2">
      <!-- 0.2 -->
      <g transform="translate(295.593892 399.078438)scale(0.1 -0.1)">
       <defs>
        <path id="DejaVuSans-32" d="M 1228 531 
L 3431 531 
L 3431 0 
L 469 0 
L 469 531 
Q 828 903 1448 1529 
Q 2069 2156 2228 2338 
Q 2531 2678 2651 2914 
Q 2772 3150 2772 3378 
Q 2772 3750 2511 3984 
Q 2250 4219 1831 4219 
Q 1534 4219 1204 4116 
Q 875 4013 500 3803 
L 500 4441 
Q 881 4594 1212 4672 
Q 1544 4750 1819 4750 
Q 2544 4750 2975 4387 
Q 3406 4025 3406 3419 
Q 3406 3131 3298 2873 
Q 3191 2616 2906 2266 
Q 2828 2175 2409 1742 
Q 1991 1309 1228 531 
z
" transform="scale(0.015625)"/>
       </defs>
       <use xlink:href="#DejaVuSans-30"/>
       <use xlink:href="#DejaVuSans-2e" x="63.623047"/>
       <use xlink:href="#DejaVuSans-32" x="95.410156"/>
      </g>
     </g>
    </g>
    <g id="xtick_3">
     <g id="line2d_3">
      <g>
       <use xlink:href="#md89009d729" x="445.581818" y="384.48" style="stroke: #000000; stroke-width: 0.8"/>
      </g>
     </g>
     <g id="text_3">
      <!-- 0.4 -->
      <g transform="translate(437.630256 399.078438)scale(0.1 -0.1)">
       <defs>
        <path id="DejaVuSans-34" d="M 2419 4116 
L 825 1625 
L 2419 1625 
L 2419 4116 
z
M 2253 4666 
L 3047 4666 
L 3047 1625 
L 3713 1625 
L 3713 1100 
L 3047 1100 
L 3047 0 
L 2419 0 
L 2419 1100 
L 313 1100 
L 313 1709 
L 2253 4666 
z
" transform="scale(0.015625)"/>
       </defs>
       <use xlink:href="#DejaVuSans-30"/>
       <use xlink:href="#DejaVuSans-2e" x="63.623047"/>
       <use xlink:href="#DejaVuSans-34" x="95.410156"/>
      </g>
     </g>
    </g>
    <g id="xtick_4">
     <g id="line2d_4">
      <g>
       <use xlink:href="#md89009d729" x="587.618182" y="384.48" style="stroke: #000000; stroke-width: 0.8"/>
      </g>
     </g>
     <g id="text_4">
      <!-- 0.6 -->
      <g transform="translate(579.666619 399.078438)scale(0.1 -0.1)">
       <defs>
        <path id="DejaVuSans-36" d="M 2113 2584 
Q 1688 2584 1439 2293 
Q 1191 2003 1191 1497 
Q 1191 994 1439 701 
Q 1688 409 2113 409 
Q 2538 409 2786 701 
Q 3034 994 3034 1497 
Q 3034 2003 2786 2293 
Q 2538 2584 2113 2584 
z
M 3366 4563 
L 3366 3988 
Q 3128 4100 2886 4159 
Q 2644 4219 2406 4219 
Q 1781 4219 1451 3797 
Q 1122 3375 1075 2522 
Q 1259 2794 1537 2939 
Q 1816 3084 2150 3084 
Q 2853 3084 3261 2657 
Q 3669 2231 3669 1497 
Q 3669 778 3244 343 
Q 2819 -91 2113 -91 
Q 1303 -91 875 529 
Q 447 1150 447 2328 
Q 447 3434 972 4092 
Q 1497 4750 2381 4750 
Q 2619 4750 2861 4703 
Q 3103 4656 3366 4563 
z
" transform="scale(0.015625)"/>
       </defs>
       <use xlink:href="#DejaVuSans-30"/>
       <use xlink:href="#DejaVuSans-2e" x="63.623047"/>
       <use xlink:href="#DejaVuSans-36" x="95.410156"/>
      </g>
     </g>
    </g>
    <g id="xtick_5">
     <g id="line2d_5">
      <g>
       <use xlink:href="#md89009d729" x="729.654545" y="384.48" style="stroke: #000000; stroke-width: 0.8"/>
      </g>
     </g>
     <g id="text_5">
      <!-- 0.8 -->
      <g transform="translate(721.702983 399.078438)scale(0.1 -0.1)">
       <defs>
        <path id="DejaVuSans-38" d="M 2034 2216 
Q 1584 2216 1326 1975 
Q 1069 1734 1069 1313 
Q 1069 891 1326 650 
Q 1584 409 2034 409 
Q 2484 409 2743 651 
Q 3003 894 3003 1313 
Q 3003 1734 2745 1975 
Q 2488 2216 2034 2216 
z
M 1403 2484 
Q 997 2584 770 2862 
Q 544 3141 544 3541 
Q 544 4100 942 4425 
Q 1341 4750 2034 4750 
Q 2731 4750 3128 4425 
Q 3525 4100 3525 3541 
Q 3525 3141 3298 2862 
Q 3072 2584 2669 2484 
Q 3125 2378 3379 2068 
Q 3634 1759 3634 1313 
Q 3634 634 3220 271 
Q 2806 -91 2034 -91 
Q 1263 -91 848 271 
Q 434 634 434 1313 
Q 434 1759 690 2068 
Q 947 2378 1403 2484 
z
M 1172 3481 
Q 1172 3119 1398 2916 
Q 1625 2713 2034 2713 
Q 2441 2713 2670 2916 
Q 2900 3119 2900 3481 
Q 2900 3844 2670 4047 
Q 2441 4250 2034 4250 
Q 1625 4250 1398 4047 
Q 1172 3844 1172 3481 
z
" transform="scale(0.015625)"/>
       </defs>
       <use xlink:href="#DejaVuSans-30"/>
       <use xlink:href="#DejaVuSans-2e" x="63.623047"/>
       <use xlink:href="#DejaVuSans-38" x="95.410156"/>
      </g>
     </g>
    </g>
    <g id="xtick_6">
     <g id="line2d_6">
      <g>
       <use xlink:href="#md89009d729" x="871.690909" y="384.48" style="stroke: #000000; stroke-width: 0.8"/>
      </g>
     </g>
     <g id="text_6">
      <!-- 1.0 -->
      <g transform="translate(863.739347 399.078438)scale(0.1 -0.1)">
       <defs>
        <path id="DejaVuSans-31" d="M 794 531 
L 1825 531 
L 1825 4091 
L 703 3866 
L 703 4441 
L 1819 4666 
L 2450 4666 
L 2450 531 
L 3481 531 
L 3481 0 
L 794 0 
L 794 531 
z
" transform="scale(0.015625)"/>
       </defs>
       <use xlink:href="#DejaVuSans-31"/>
       <use xlink:href="#DejaVuSans-2e" x="63.623047"/>
       <use xlink:href="#DejaVuSans-30" x="95.410156"/>
      </g>
     </g>
    </g>
    <g id="text_7">
     <!-- Time -->
     <g transform="translate(504.366406 412.756563)scale(0.1 -0.1)">
      <defs>
       <path id="DejaVuSans-54" d="M -19 4666 
L 3928 4666 
L 3928 4134 
L 2272 4134 
L 2272 0 
L 1638 0 
L 1638 4134 
L -19 4134 
L -19 4666 
z
" transform="scale(0.015625)"/>
       <path id="DejaVuSans-69" d="M 603 3500 
L 1178 3500 
L 1178 0 
L 603 0 
L 603 3500 
z
M 603 4863 
L 1178 4863 
L 1178 4134 
L 603 4134 
L 603 4863 
z
" transform="scale(0.015625)"/>
       <path id="DejaVuSans-6d" d="M 3328 2828 
Q 3544 3216 3844 3400 
Q 4144 3584 4550 3584 
Q 5097 3584 5394 3201 
Q 5691 2819 5691 2113 
L 5691 0 
L 5113 0 
L 5113 2094 
Q 5113 2597 4934 2840 
Q 4756 3084 4391 3084 
Q 3944 3084 3684 2787 
Q 3425 2491 3425 1978 
L 3425 0 
L 2847 0 
L 2847 2094 
Q 2847 2600 2669 2842 
Q 2491 3084 2119 3084 
Q 1678 3084 1418 2786 
Q 1159 2488 1159 1978 
L 1159 0 
L 581 0 
L 581 3500 
L 1159 3500 
L 1159 2956 
Q 1356 3278 1631 3431 
Q 1906 3584 2284 3584 
Q 2666 3584 2933 3390 
Q 3200 3197 3328 2828 
z
" transform="scale(0.015625)"/>
       <path id="DejaVuSans-65" d="M 3597 1894 
L 3597 1613 
L 953 1613 
Q 991 1019 1311 708 
Q 1631 397 2203 397 
Q 2534 397 2845 478 
Q 3156 559 3463 722 
L 3463 178 
Q 3153 47 2828 -22 
Q 2503 -91 2169 -91 
Q 1331 -91 842 396 
Q 353 884 353 1716 
Q 353 2575 817 3079 
Q 1281 3584 2069 3584 
Q 2775 3584 3186 3129 
Q 3597 2675 3597 1894 
z
M 3022 2063 
Q 3016 2534 2758 2815 
Q 2500 3097 2075 3097 
Q 1594 3097 1305 2825 
Q 1016 2553 972 2059 
L 3022 2063 
z
" transform="scale(0.015625)"/>
      </defs>
      <use xlink:href="#DejaVuSans-54"/>
      <use xlink:href="#DejaVuSans-69" x="57.958984"/>
      <use xlink:href="#DejaVuSans-6d" x="85.742188"/>
      <use xlink:href="#DejaVuSans-65" x="183.154297"/>
     </g>
    </g>
   </g>
   <g id="matplotlib.axis_2">
    <g id="ytick_1">
     <g id="line2d_7">
      <defs>
       <path id="m896476376a" d="M 0 0 
L -3.5 0 
" style="stroke: #000000; stroke-width: 0.8"/>
      </defs>
      <g>
       <use xlink:href="#m896476376a" x="126" y="382.206726" style="stroke: #000000; stroke-width: 0.8"/>
      </g>
     </g>
     <g id="text_8">
      <!-- −1.5 -->
      <g transform="translate(94.717187 386.005945)scale(0.1 -0.1)">
       <defs>
        <path id="DejaVuSans-2212" d="M 678 2272 
L 4684 2272 
L 4684 1741 
L 678 1741 
L 678 2272 
z
" transform="scale(0.015625)"/>
        <path id="DejaVuSans-35" d="M 691 4666 
L 3169 4666 
L 3169 4134 
L 1269 4134 
L 1269 2991 
Q 1406 3038 1543 3061 
Q 1681 3084 1819 3084 
Q 2600 3084 3056 2656 
Q 3513 2228 3513 1497 
Q 3513 744 3044 326 
Q 2575 -91 1722 -91 
Q 1428 -91 1123 -41 
Q 819 9 494 109 
L 494 744 
Q 775 591 1075 516 
Q 1375 441 1709 441 
Q 2250 441 2565 725 
Q 2881 1009 2881 1497 
Q 2881 1984 2565 2268 
Q 2250 2553 1709 2553 
Q 1456 2553 1204 2497 
Q 953 2441 691 2322 
L 691 4666 
z
" transform="scale(0.015625)"/>
       </defs>
       <use xlink:href="#DejaVuSans-2212"/>
       <use xlink:href="#DejaVuSans-31" x="83.789062"/>
       <use xlink:href="#DejaVuSans-2e" x="147.412109"/>
       <use xlink:href="#DejaVuSans-35" x="179.199219"/>
      </g>
     </g>
    </g>
    <g id="ytick_2">
     <g id="line2d_8">
      <g>
       <use xlink:href="#m896476376a" x="126" y="317.591166" style="stroke: #000000; stroke-width: 0.8"/>
      </g>
     </g>
     <g id="text_9">
      <!-- −1.0 -->
      <g transform="translate(94.717187 321.390385)scale(0.1 -0.1)">
       <use xlink:href="#DejaVuSans-2212"/>
       <use xlink:href="#DejaVuSans-31" x="83.789062"/>
       <use xlink:href="#DejaVuSans-2e" x="147.412109"/>
       <use xlink:href="#DejaVuSans-30" x="179.199219"/>
      </g>
     </g>
    </g>
    <g id="ytick_3">
     <g id="line2d_9">
      <g>
       <use xlink:href="#m896476376a" x="126" y="252.975606" style="stroke: #000000; stroke-width: 0.8"/>
      </g>
     </g>
     <g id="text_10">
      <!-- −0.5 -->
      <g transform="translate(94.717187 256.774824)scale(0.1 -0.1)">
       <use xlink:href="#DejaVuSans-2212"/>
       <use xlink:href="#DejaVuSans-30" x="83.789062"/>
       <use xlink:href="#DejaVuSans-2e" x="147.412109"/>
       <use xlink:href="#DejaVuSans-35" x="179.199219"/>
      </g>
     </g>
    </g>
    <g id="ytick_4">
     <g id="line2d_10">
      <g>
       <use xlink:href="#m896476376a" x="126" y="188.360046" style="stroke: #000000; stroke-width: 0.8"/>
      </g>
     </g>
     <g id="text_11">
      <!-- 0.0 -->
      <g transform="translate(103.096875 192.159264)scale(0.1 -0.1)">
       <use xlink:href="#DejaVuSans-30"/>
       <use xlink:href="#DejaVuSans-2e" x="63.623047"/>
       <use xlink:href="#DejaVuSans-30" x="95.410156"/>
      </g>
     </g>
    </g>
    <g id="ytick_5">
     <g id="line2d_11">
      <g>
       <use xlink:href="#m896476376a" x="126" y="123.744486" style="stroke: #000000; stroke-width: 0.8"/>
      </g>
     </g>
     <g id="text_12">
      <!-- 0.5 -->
      <g transform="translate(103.096875 127.543704)scale(0.1 -0.1)">
       <use xlink:href="#DejaVuSans-30"/>
       <use xlink:href="#DejaVuSans-2e" x="63.623047"/>
       <use xlink:href="#DejaVuSans-35" x="95.410156"/>
      </g>
     </g>
    </g>
    <g id="ytick_6">
     <g id="line2d_12">
      <g>
       <use xlink:href="#m896476376a" x="126" y="59.128926" style="stroke: #000000; stroke-width: 0.8"/>
      </g>
     </g>
     <g id="text_13">
      <!-- 1.0 -->
      <g transform="translate(103.096875 62.928144)scale(0.1 -0.1)">
       <use xlink:href="#DejaVuSans-31"/>
       <use xlink:href="#DejaVuSans-2e" x="63.623047"/>
       <use xlink:href="#DejaVuSans-30" x="95.410156"/>
      </g>
     </g>
    </g>
    <g id="text_14">
     <!-- Quadratic Covariation -->
     <g transform="translate(88.6375 272.970156)rotate(-90)scale(0.1 -0.1)">
      <defs>
       <path id="DejaVuSans-51" d="M 2522 4238 
Q 1834 4238 1429 3725 
Q 1025 3213 1025 2328 
Q 1025 1447 1429 934 
Q 1834 422 2522 422 
Q 3209 422 3611 934 
Q 4013 1447 4013 2328 
Q 4013 3213 3611 3725 
Q 3209 4238 2522 4238 
z
M 3406 84 
L 4238 -825 
L 3475 -825 
L 2784 -78 
Q 2681 -84 2626 -87 
Q 2572 -91 2522 -91 
Q 1538 -91 948 567 
Q 359 1225 359 2328 
Q 359 3434 948 4092 
Q 1538 4750 2522 4750 
Q 3503 4750 4090 4092 
Q 4678 3434 4678 2328 
Q 4678 1516 4351 937 
Q 4025 359 3406 84 
z
" transform="scale(0.015625)"/>
       <path id="DejaVuSans-75" d="M 544 1381 
L 544 3500 
L 1119 3500 
L 1119 1403 
Q 1119 906 1312 657 
Q 1506 409 1894 409 
Q 2359 409 2629 706 
Q 2900 1003 2900 1516 
L 2900 3500 
L 3475 3500 
L 3475 0 
L 2900 0 
L 2900 538 
Q 2691 219 2414 64 
Q 2138 -91 1772 -91 
Q 1169 -91 856 284 
Q 544 659 544 1381 
z
M 1991 3584 
L 1991 3584 
z
" transform="scale(0.015625)"/>
       <path id="DejaVuSans-61" d="M 2194 1759 
Q 1497 1759 1228 1600 
Q 959 1441 959 1056 
Q 959 750 1161 570 
Q 1363 391 1709 391 
Q 2188 391 2477 730 
Q 2766 1069 2766 1631 
L 2766 1759 
L 2194 1759 
z
M 3341 1997 
L 3341 0 
L 2766 0 
L 2766 531 
Q 2569 213 2275 61 
Q 1981 -91 1556 -91 
Q 1019 -91 701 211 
Q 384 513 384 1019 
Q 384 1609 779 1909 
Q 1175 2209 1959 2209 
L 2766 2209 
L 2766 2266 
Q 2766 2663 2505 2880 
Q 2244 3097 1772 3097 
Q 1472 3097 1187 3025 
Q 903 2953 641 2809 
L 641 3341 
Q 956 3463 1253 3523 
Q 1550 3584 1831 3584 
Q 2591 3584 2966 3190 
Q 3341 2797 3341 1997 
z
" transform="scale(0.015625)"/>
       <path id="DejaVuSans-64" d="M 2906 2969 
L 2906 4863 
L 3481 4863 
L 3481 0 
L 2906 0 
L 2906 525 
Q 2725 213 2448 61 
Q 2172 -91 1784 -91 
Q 1150 -91 751 415 
Q 353 922 353 1747 
Q 353 2572 751 3078 
Q 1150 3584 1784 3584 
Q 2172 3584 2448 3432 
Q 2725 3281 2906 2969 
z
M 947 1747 
Q 947 1113 1208 752 
Q 1469 391 1925 391 
Q 2381 391 2643 752 
Q 2906 1113 2906 1747 
Q 2906 2381 2643 2742 
Q 2381 3103 1925 3103 
Q 1469 3103 1208 2742 
Q 947 2381 947 1747 
z
" transform="scale(0.015625)"/>
       <path id="DejaVuSans-72" d="M 2631 2963 
Q 2534 3019 2420 3045 
Q 2306 3072 2169 3072 
Q 1681 3072 1420 2755 
Q 1159 2438 1159 1844 
L 1159 0 
L 581 0 
L 581 3500 
L 1159 3500 
L 1159 2956 
Q 1341 3275 1631 3429 
Q 1922 3584 2338 3584 
Q 2397 3584 2469 3576 
Q 2541 3569 2628 3553 
L 2631 2963 
z
" transform="scale(0.015625)"/>
       <path id="DejaVuSans-74" d="M 1172 4494 
L 1172 3500 
L 2356 3500 
L 2356 3053 
L 1172 3053 
L 1172 1153 
Q 1172 725 1289 603 
Q 1406 481 1766 481 
L 2356 481 
L 2356 0 
L 1766 0 
Q 1100 0 847 248 
Q 594 497 594 1153 
L 594 3053 
L 172 3053 
L 172 3500 
L 594 3500 
L 594 4494 
L 1172 4494 
z
" transform="scale(0.015625)"/>
       <path id="DejaVuSans-63" d="M 3122 3366 
L 3122 2828 
Q 2878 2963 2633 3030 
Q 2388 3097 2138 3097 
Q 1578 3097 1268 2742 
Q 959 2388 959 1747 
Q 959 1106 1268 751 
Q 1578 397 2138 397 
Q 2388 397 2633 464 
Q 2878 531 3122 666 
L 3122 134 
Q 2881 22 2623 -34 
Q 2366 -91 2075 -91 
Q 1284 -91 818 406 
Q 353 903 353 1747 
Q 353 2603 823 3093 
Q 1294 3584 2113 3584 
Q 2378 3584 2631 3529 
Q 2884 3475 3122 3366 
z
" transform="scale(0.015625)"/>
       <path id="DejaVuSans-20" transform="scale(0.015625)"/>
       <path id="DejaVuSans-43" d="M 4122 4306 
L 4122 3641 
Q 3803 3938 3442 4084 
Q 3081 4231 2675 4231 
Q 1875 4231 1450 3742 
Q 1025 3253 1025 2328 
Q 1025 1406 1450 917 
Q 1875 428 2675 428 
Q 3081 428 3442 575 
Q 3803 722 4122 1019 
L 4122 359 
Q 3791 134 3420 21 
Q 3050 -91 2638 -91 
Q 1578 -91 968 557 
Q 359 1206 359 2328 
Q 359 3453 968 4101 
Q 1578 4750 2638 4750 
Q 3056 4750 3426 4639 
Q 3797 4528 4122 4306 
z
" transform="scale(0.015625)"/>
       <path id="DejaVuSans-6f" d="M 1959 3097 
Q 1497 3097 1228 2736 
Q 959 2375 959 1747 
Q 959 1119 1226 758 
Q 1494 397 1959 397 
Q 2419 397 2687 759 
Q 2956 1122 2956 1747 
Q 2956 2369 2687 2733 
Q 2419 3097 1959 3097 
z
M 1959 3584 
Q 2709 3584 3137 3096 
Q 3566 2609 3566 1747 
Q 3566 888 3137 398 
Q 2709 -91 1959 -91 
Q 1206 -91 779 398 
Q 353 888 353 1747 
Q 353 2609 779 3096 
Q 1206 3584 1959 3584 
z
" transform="scale(0.015625)"/>
       <path id="DejaVuSans-76" d="M 191 3500 
L 800 3500 
L 1894 563 
L 2988 3500 
L 3597 3500 
L 2284 0 
L 1503 0 
L 191 3500 
z
" transform="scale(0.015625)"/>
       <path id="DejaVuSans-6e" d="M 3513 2113 
L 3513 0 
L 2938 0 
L 2938 2094 
Q 2938 2591 2744 2837 
Q 2550 3084 2163 3084 
Q 1697 3084 1428 2787 
Q 1159 2491 1159 1978 
L 1159 0 
L 581 0 
L 581 3500 
L 1159 3500 
L 1159 2956 
Q 1366 3272 1645 3428 
Q 1925 3584 2291 3584 
Q 2894 3584 3203 3211 
Q 3513 2838 3513 2113 
z
" transform="scale(0.015625)"/>
      </defs>
      <use xlink:href="#DejaVuSans-51"/>
      <use xlink:href="#DejaVuSans-75" x="78.710938"/>
      <use xlink:href="#DejaVuSans-61" x="142.089844"/>
      <use xlink:href="#DejaVuSans-64" x="203.369141"/>
      <use xlink:href="#DejaVuSans-72" x="266.845703"/>
      <use xlink:href="#DejaVuSans-61" x="307.958984"/>
      <use xlink:href="#DejaVuSans-74" x="369.238281"/>
      <use xlink:href="#DejaVuSans-69" x="408.447266"/>
      <use xlink:href="#DejaVuSans-63" x="436.230469"/>
      <use xlink:href="#DejaVuSans-20" x="491.210938"/>
      <use xlink:href="#DejaVuSans-43" x="522.998047"/>
      <use xlink:href="#DejaVuSans-6f" x="592.822266"/>
      <use xlink:href="#DejaVuSans-76" x="654.003906"/>
      <use xlink:href="#DejaVuSans-61" x="713.183594"/>
      <use xlink:href="#DejaVuSans-72" x="774.462891"/>
      <use xlink:href="#DejaVuSans-69" x="815.576172"/>
      <use xlink:href="#DejaVuSans-61" x="843.359375"/>
      <use xlink:href="#DejaVuSans-74" x="904.638672"/>
      <use xlink:href="#DejaVuSans-69" x="943.847656"/>
      <use xlink:href="#DejaVuSans-6f" x="971.630859"/>
      <use xlink:href="#DejaVuSans-6e" x="1032.8125"/>
     </g>
    </g>
   </g>
   <g id="line2d_13">
    <path d="M 161.509091 162.513822 
L 162.219273 152.929161 
L 162.929455 149.728904 
L 163.639636 148.526383 
L 164.349818 152.755803 
L 165.06 155.022157 
L 166.480364 161.688095 
L 167.900727 155.225671 
L 168.610909 144.254306 
L 169.321091 143.273872 
L 170.031273 144.843036 
L 170.741455 135.76031 
L 171.451636 134.53309 
L 172.161818 138.187906 
L 172.872 129.362334 
L 174.292364 128.330709 
L 175.002545 128.811791 
L 175.712727 132.453222 
L 176.422909 136.695812 
L 177.133091 129.307145 
L 177.843273 131.257494 
L 178.553455 126.292504 
L 179.263636 126.542486 
L 179.973818 125.578374 
L 180.684 126.234086 
L 181.394182 135.55589 
L 182.104364 133.512949 
L 182.814545 142.756821 
L 184.234909 150.410627 
L 184.945091 149.476684 
L 185.655273 152.582808 
L 186.365455 157.566815 
L 187.785818 163.293585 
L 188.496 162.999026 
L 189.206182 158.707247 
L 189.916364 157.17066 
L 190.626545 157.067568 
L 191.336727 154.823378 
L 192.046909 158.034067 
L 192.757091 159.400297 
L 193.467273 161.337676 
L 194.177455 168.356983 
L 194.887636 173.359115 
L 195.597818 170.132702 
L 196.308 166.065352 
L 197.018182 161.051577 
L 197.728364 161.096211 
L 198.438545 160.688785 
L 199.148727 159.208584 
L 199.858909 150.940157 
L 200.569091 147.749689 
L 201.279273 152.081938 
L 201.989455 153.628033 
L 202.699636 153.747723 
L 203.409818 149.014216 
L 204.12 151.463129 
L 204.830182 149.327242 
L 205.540364 152.800179 
L 206.250545 151.024229 
L 206.960727 150.383735 
L 207.670909 148.678678 
L 208.381091 145.434212 
L 209.091273 145.882218 
L 209.801455 149.555174 
L 210.511636 150.561521 
L 211.221818 143.562543 
L 211.932 143.212067 
L 212.642182 146.765118 
L 213.352364 146.838667 
L 214.062545 144.74603 
L 214.772727 135.405889 
L 216.193091 148.442721 
L 216.903273 153.410061 
L 217.613455 156.083551 
L 218.323636 153.382056 
L 219.033818 153.829766 
L 219.744 150.643641 
L 220.454182 153.069634 
L 221.164364 153.399117 
L 221.874545 154.427215 
L 222.584727 152.983624 
L 223.294909 155.141489 
L 224.005091 158.498865 
L 224.715273 159.319224 
L 225.425455 162.908213 
L 226.135636 169.848876 
L 226.845818 169.53769 
L 227.556 163.058611 
L 228.266182 164.950844 
L 228.976364 165.474995 
L 229.686545 171.324938 
L 230.396727 178.982276 
L 231.106909 185.077122 
L 231.817091 178.3255 
L 232.527273 183.715492 
L 233.947636 189.473923 
L 234.657818 187.895304 
L 235.368 188.31113 
L 236.078182 185.818922 
L 236.788364 186.345683 
L 237.498545 188.755586 
L 238.208727 181.736111 
L 238.918909 182.31888 
L 239.629091 182.624751 
L 240.339273 178.504349 
L 241.049455 183.721456 
L 241.759636 183.668096 
L 242.469818 184.312356 
L 243.18 184.534555 
L 243.890182 191.046875 
L 244.600364 191.596753 
L 245.310545 188.943427 
L 246.020727 194.95141 
L 246.730909 199.422306 
L 247.441091 207.366977 
L 248.151273 211.986587 
L 248.861455 207.164666 
L 249.571636 206.572346 
L 250.281818 202.584001 
L 250.992 204.487871 
L 251.702182 197.267523 
L 252.412364 198.822221 
L 253.122545 194.692292 
L 253.832727 193.91851 
L 254.542909 197.668994 
L 255.253091 199.08453 
L 255.963273 203.616917 
L 256.673455 201.697597 
L 257.383636 195.704022 
L 258.093818 191.922836 
L 258.804 189.914536 
L 259.514182 191.308563 
L 260.224364 193.072141 
L 261.644727 183.395222 
L 262.354909 183.264595 
L 263.065091 181.175208 
L 263.775273 183.975421 
L 264.485455 181.359735 
L 265.195636 185.278775 
L 265.905818 187.769241 
L 266.616 189.293555 
L 267.326182 183.041686 
L 268.036364 182.599223 
L 268.746545 175.340394 
L 269.456727 176.065639 
L 270.166909 175.66523 
L 270.877091 178.155622 
L 271.587273 178.779948 
L 272.297455 187.485711 
L 273.007636 191.081232 
L 273.717818 189.415656 
L 274.428 194.044492 
L 275.138182 191.459241 
L 275.848364 187.83008 
L 276.558545 183.332422 
L 277.268727 180.312807 
L 277.978909 175.42269 
L 278.689091 179.288037 
L 279.399273 175.491484 
L 280.109455 179.474964 
L 281.529818 173.845816 
L 282.24 180.373465 
L 282.950182 182.950419 
L 283.660364 178.543256 
L 284.370545 178.757013 
L 285.080727 176.579907 
L 285.790909 172.605051 
L 286.501091 172.838252 
L 287.211273 170.284258 
L 287.921455 172.566797 
L 288.631636 171.243855 
L 289.341818 170.427528 
L 290.052 178.541687 
L 290.762182 176.029644 
L 291.472364 171.655429 
L 292.182545 174.354694 
L 292.892727 172.715057 
L 293.602909 170.408234 
L 294.313091 172.089165 
L 295.023273 168.305066 
L 295.733455 163.334944 
L 296.443636 172.079025 
L 297.153818 167.881367 
L 297.864 168.696829 
L 298.574182 165.694948 
L 299.284364 167.931712 
L 299.994545 164.076197 
L 300.704727 164.398385 
L 301.414909 169.327338 
L 302.125091 170.843558 
L 302.835273 171.24352 
L 303.545455 172.716399 
L 304.255636 176.597222 
L 304.965818 176.326921 
L 305.676 166.394459 
L 306.386182 162.942366 
L 307.096364 158.600773 
L 307.806545 160.078512 
L 309.226909 156.111947 
L 309.937091 158.883671 
L 310.647273 163.217064 
L 311.357455 170.950061 
L 312.067636 173.212339 
L 312.777818 180.845286 
L 313.488 181.886531 
L 314.198182 183.789392 
L 314.908364 186.793914 
L 315.618545 181.61757 
L 316.328727 187.069682 
L 317.749091 191.590753 
L 318.459273 190.298517 
L 319.169455 193.001202 
L 319.879636 185.312806 
L 320.589818 181.831158 
L 321.3 180.698419 
L 322.010182 181.247922 
L 322.720364 184.37473 
L 323.430545 188.197388 
L 324.850909 187.962749 
L 325.561091 184.096588 
L 327.691636 198.504 
L 328.401818 193.963317 
L 329.112 194.86049 
L 329.822182 194.659211 
L 330.532364 193.311145 
L 331.242545 192.304123 
L 331.952727 198.186165 
L 332.662909 198.047207 
L 333.373091 196.699911 
L 334.083273 198.217137 
L 334.793455 201.691164 
L 335.503636 200.180982 
L 336.213818 201.196393 
L 336.924 199.860259 
L 337.634182 202.0318 
L 338.344364 206.504185 
L 339.054545 208.129536 
L 339.764727 203.07557 
L 340.474909 201.92975 
L 341.185091 201.374052 
L 341.895273 204.819617 
L 343.315636 197.329678 
L 344.025818 191.993923 
L 344.736 190.212943 
L 345.446182 187.983533 
L 346.156364 186.692128 
L 346.866545 186.931838 
L 347.576727 192.334509 
L 348.286909 190.755441 
L 348.997091 189.930676 
L 349.707273 189.653464 
L 350.417455 192.473143 
L 351.127636 185.261163 
L 351.837818 180.178754 
L 352.548 172.132363 
L 353.258182 171.060526 
L 353.968364 177.48622 
L 354.678545 181.6234 
L 355.388727 183.602493 
L 356.098909 191.145021 
L 356.809091 188.644528 
L 358.229455 173.006316 
L 358.939636 175.396614 
L 359.649818 174.306055 
L 360.36 175.323726 
L 361.070182 179.266678 
L 361.780364 179.711639 
L 363.200727 172.659684 
L 363.910909 172.194759 
L 364.621091 166.264952 
L 366.041455 166.467848 
L 366.751636 162.021033 
L 367.461818 162.195805 
L 368.172 161.631059 
L 368.882182 160.236054 
L 369.592364 159.260482 
L 370.302545 159.772448 
L 371.012727 152.880974 
L 371.722909 157.986965 
L 373.143273 148.330008 
L 373.853455 145.689204 
L 374.563636 144.690284 
L 375.273818 147.874444 
L 375.984 149.017642 
L 376.694182 145.799258 
L 377.404364 148.068475 
L 378.114545 146.206225 
L 378.824727 148.683984 
L 379.534909 143.347773 
L 380.245091 145.449654 
L 381.665455 150.9018 
L 382.375636 149.069009 
L 383.085818 153.556447 
L 383.796 159.637668 
L 384.506182 164.559229 
L 385.216364 167.899417 
L 385.926545 167.138502 
L 386.636727 162.548569 
L 387.346909 164.413786 
L 388.057091 169.278043 
L 388.767273 168.869403 
L 389.477455 175.908854 
L 390.187636 176.198746 
L 390.897818 171.61135 
L 391.608 169.257551 
L 392.318182 168.107546 
L 393.028364 168.410302 
L 393.738545 165.399045 
L 394.448727 161.70338 
L 395.158909 153.779572 
L 395.869091 152.741428 
L 396.579273 158.642701 
L 397.289455 155.902115 
L 397.999636 157.887848 
L 398.709818 159.443689 
L 399.42 156.895619 
L 400.130182 149.419484 
L 400.840364 145.588833 
L 401.550545 148.833689 
L 402.260727 147.501644 
L 402.970909 140.828523 
L 403.681091 140.878681 
L 404.391273 139.121429 
L 405.101455 137.028036 
L 405.811636 135.49827 
L 406.521818 135.535964 
L 407.232 137.054929 
L 407.942182 135.795752 
L 408.652364 133.493021 
L 409.362545 132.233452 
L 410.072727 139.840331 
L 410.782909 142.999484 
L 411.493091 142.44934 
L 412.203273 142.372732 
L 412.913455 138.745195 
L 413.623636 132.701386 
L 414.333818 131.87569 
L 415.044 125.767023 
L 415.754182 132.463077 
L 416.464364 129.727671 
L 417.174545 136.55069 
L 417.884727 139.264718 
L 418.594909 140.493212 
L 419.305091 135.850059 
L 420.015273 139.733554 
L 421.435636 135.106076 
L 422.145818 130.800259 
L 422.856 141.401124 
L 423.566182 148.577816 
L 424.276364 149.804525 
L 424.986545 150.647094 
L 425.696727 149.621228 
L 426.406909 152.032058 
L 427.117091 149.824547 
L 427.827273 152.20356 
L 428.537455 161.513207 
L 429.247636 162.339209 
L 429.957818 162.603586 
L 430.668 167.643493 
L 431.378182 167.021185 
L 432.088364 161.72136 
L 432.798545 159.023654 
L 433.508727 165.266398 
L 434.218909 161.853053 
L 435.639273 147.918441 
L 436.349455 148.495376 
L 437.059636 157.177267 
L 437.769818 161.699768 
L 438.48 168.775634 
L 439.190182 169.787836 
L 439.900364 168.30875 
L 440.610545 168.32142 
L 441.320727 168.496265 
L 442.030909 178.381376 
L 442.741091 174.801524 
L 443.451273 176.852464 
L 444.161455 179.967401 
L 444.871636 176.807373 
L 445.581818 180.652029 
L 446.292 178.641054 
L 447.002182 181.603209 
L 447.712364 187.016849 
L 448.422545 188.254768 
L 449.132727 197.58867 
L 449.842909 195.011068 
L 450.553091 196.186304 
L 451.263273 195.699193 
L 451.973455 194.543726 
L 452.683636 195.578327 
L 453.393818 200.731067 
L 454.104 197.994664 
L 454.814182 198.906766 
L 455.524364 198.070694 
L 456.234545 193.421829 
L 456.944727 193.659051 
L 457.654909 195.154019 
L 458.365091 194.63889 
L 459.075273 200.57261 
L 459.785455 199.84727 
L 460.495636 206.927584 
L 461.205818 208.687707 
L 461.916 212.184849 
L 462.626182 213.644453 
L 463.336364 211.652416 
L 464.046545 213.939181 
L 464.756727 215.698399 
L 465.466909 211.486205 
L 466.177091 211.020543 
L 467.597455 202.777729 
L 468.307636 198.948784 
L 469.017818 199.369589 
L 469.728 202.550796 
L 470.438182 202.357055 
L 471.148364 193.390354 
L 471.858545 197.412218 
L 472.568727 198.270495 
L 473.278909 193.521135 
L 473.989091 190.757393 
L 474.699273 191.313109 
L 475.409455 197.037336 
L 476.119636 195.665535 
L 476.829818 199.927539 
L 477.54 192.762018 
L 478.250182 197.502853 
L 479.670545 196.316321 
L 480.380727 192.96574 
L 481.090909 193.579343 
L 481.801091 195.449379 
L 482.511273 204.201389 
L 483.221455 202.261062 
L 483.931636 204.112365 
L 484.641818 210.679899 
L 485.352 212.835276 
L 486.062182 215.937901 
L 486.772364 210.111233 
L 487.482545 213.338793 
L 488.192727 215.285374 
L 488.902909 219.772394 
L 489.613091 214.416176 
L 490.323273 214.649994 
L 491.033455 218.700374 
L 491.743636 212.946242 
L 492.453818 210.125181 
L 493.164 208.318822 
L 494.584364 216.565791 
L 495.294545 213.412336 
L 496.004727 211.379175 
L 496.714909 213.358718 
L 497.425091 213.523672 
L 498.135273 220.663882 
L 498.845455 226.206307 
L 499.555636 226.06135 
L 500.265818 220.243452 
L 500.976 228.622444 
L 501.686182 225.349804 
L 502.396364 226.611924 
L 503.106545 230.868171 
L 503.816727 229.731483 
L 504.526909 222.542695 
L 505.237091 222.68634 
L 505.947273 215.43743 
L 506.657455 213.963408 
L 507.367636 212.016354 
L 508.077818 209.708836 
L 508.788 221.497339 
L 509.498182 222.696445 
L 510.918545 228.573126 
L 511.628727 237.497655 
L 512.338909 237.828047 
L 513.049091 232.650598 
L 513.759273 238.640586 
L 514.469455 238.580034 
L 515.179636 242.085327 
L 515.889818 241.962403 
L 516.6 241.447738 
L 517.310182 252.212096 
L 518.020364 249.224261 
L 518.730545 248.983075 
L 519.440727 243.520982 
L 520.150909 242.084692 
L 520.861091 250.50875 
L 521.571273 244.578194 
L 522.281455 242.395211 
L 523.701818 239.040831 
L 524.412 231.152264 
L 525.122182 229.167028 
L 525.832364 228.568767 
L 527.252727 223.970056 
L 527.962909 226.842712 
L 528.673091 232.711588 
L 529.383273 234.161274 
L 530.093455 237.967901 
L 530.803636 236.580321 
L 531.513818 242.145961 
L 532.224 239.512591 
L 532.934182 245.226295 
L 533.644364 246.5927 
L 534.354545 244.979535 
L 535.064727 247.415534 
L 535.774909 251.563192 
L 536.485091 251.385483 
L 537.195273 249.917376 
L 537.905455 254.575929 
L 538.615636 245.549583 
L 539.325818 244.118619 
L 540.036 239.875489 
L 540.746182 238.802122 
L 541.456364 239.298291 
L 542.166545 233.400953 
L 542.876727 246.203521 
L 543.586909 247.588711 
L 544.297091 247.327085 
L 545.007273 248.663555 
L 545.717455 243.626982 
L 546.427636 241.741475 
L 547.137818 241.172362 
L 547.848 240.766714 
L 548.558182 240.044942 
L 549.268364 231.733113 
L 549.978545 239.000366 
L 550.688727 241.994655 
L 551.398909 243.643721 
L 552.109091 241.6712 
L 552.819273 247.108121 
L 553.529455 248.596233 
L 554.239636 248.947091 
L 554.949818 252.103222 
L 555.66 247.203167 
L 556.370182 251.789156 
L 557.080364 249.316267 
L 557.790545 250.461997 
L 558.500727 250.255818 
L 559.210909 250.390669 
L 559.921091 250.667388 
L 560.631273 254.666943 
L 561.341455 251.937066 
L 562.051636 257.519161 
L 562.761818 248.511443 
L 563.472 246.962407 
L 564.182182 245.684324 
L 564.892364 242.496351 
L 565.602545 246.418343 
L 566.312727 244.824441 
L 567.022909 250.574547 
L 567.733091 253.614794 
L 568.443273 254.739387 
L 569.153455 256.350717 
L 569.863636 253.345485 
L 570.573818 256.716578 
L 571.284 253.977453 
L 571.994182 254.221909 
L 572.704364 255.633624 
L 573.414545 251.807631 
L 574.124727 251.436962 
L 574.834909 251.902716 
L 575.545091 258.81669 
L 576.255273 261.545003 
L 576.965455 258.676218 
L 577.675636 260.746954 
L 578.385818 259.189577 
L 579.096 261.375837 
L 579.806182 262.909382 
L 580.516364 264.025046 
L 581.226545 268.754095 
L 581.936727 269.976313 
L 582.646909 265.343431 
L 583.357091 268.386208 
L 584.067273 272.271935 
L 584.777455 270.165605 
L 585.487636 269.660134 
L 586.197818 269.613232 
L 586.908 265.956284 
L 587.618182 261.009013 
L 588.328364 263.390032 
L 589.038545 269.329212 
L 589.748727 267.462522 
L 590.458909 263.292988 
L 591.169091 265.396752 
L 591.879273 263.374508 
L 592.589455 262.361935 
L 593.299636 268.211412 
L 594.009818 265.049028 
L 594.72 269.072304 
L 595.430182 269.593934 
L 596.140364 262.230187 
L 596.850545 260.166996 
L 597.560727 262.958863 
L 598.270909 268.071575 
L 599.691273 270.743753 
L 600.401455 271.620752 
L 601.111636 272.285808 
L 601.821818 269.07189 
L 602.532 272.305298 
L 603.242182 265.664533 
L 603.952364 266.988311 
L 604.662545 263.730353 
L 605.372727 257.040002 
L 606.082909 255.870242 
L 606.793091 258.561939 
L 607.503273 259.218058 
L 608.213455 255.149908 
L 608.923636 254.879699 
L 609.633818 258.769251 
L 610.344 259.107037 
L 611.054182 269.864735 
L 611.764364 270.769434 
L 612.474545 269.361439 
L 613.184727 266.844507 
L 613.894909 270.566672 
L 614.605091 271.243456 
L 615.315273 278.402558 
L 616.025455 284.032053 
L 616.735636 284.953745 
L 618.156 277.777011 
L 619.576364 275.10188 
L 620.286545 270.452547 
L 620.996727 272.161648 
L 621.706909 277.438301 
L 622.417091 277.356579 
L 623.127273 276.054858 
L 623.837455 273.001232 
L 624.547636 273.813342 
L 625.257818 275.292953 
L 625.968 277.387129 
L 626.678182 272.058077 
L 627.388364 270.813933 
L 628.098545 269.174434 
L 628.808727 267.899208 
L 629.518909 274.791534 
L 630.229091 270.881051 
L 630.939273 274.247042 
L 631.649455 272.733597 
L 632.359636 274.069681 
L 633.78 269.752726 
L 634.490182 274.946579 
L 635.200364 271.416828 
L 635.910545 270.830906 
L 636.620727 273.562705 
L 638.041091 266.331939 
L 638.751273 266.536467 
L 639.461455 270.679215 
L 640.171636 270.794119 
L 640.881818 268.466827 
L 641.592 270.124176 
L 642.302182 268.742787 
L 643.012364 260.929249 
L 643.722545 264.964861 
L 644.432727 268.279485 
L 645.142909 264.982643 
L 645.853091 264.428642 
L 646.563273 264.320803 
L 647.983636 260.134711 
L 648.693818 258.847569 
L 649.404 263.457325 
L 650.114182 266.735004 
L 650.824364 261.905372 
L 651.534545 262.080531 
L 652.244727 261.021417 
L 652.954909 263.205249 
L 653.665091 267.819086 
L 654.375273 265.509845 
L 655.085455 272.712973 
L 655.795636 275.704064 
L 656.505818 275.864744 
L 657.216 275.211028 
L 657.926182 273.987684 
L 658.636364 280.62167 
L 659.346545 280.522322 
L 660.056727 280.617162 
L 660.766909 279.701125 
L 661.477091 271.399266 
L 662.187273 266.046518 
L 662.897455 267.71431 
L 663.607636 267.748705 
L 664.317818 263.080573 
L 665.028 268.837994 
L 666.448364 276.443377 
L 667.158545 274.75556 
L 667.868727 280.986755 
L 668.578909 282.468578 
L 669.289091 286.922287 
L 670.709455 284.518189 
L 671.419636 286.273935 
L 672.129818 282.807915 
L 672.84 286.456642 
L 673.550182 284.658794 
L 674.260364 283.428088 
L 674.970545 284.535339 
L 675.680727 291.412055 
L 676.390909 284.486875 
L 677.101091 286.049085 
L 677.811273 284.042949 
L 678.521455 292.327992 
L 679.231636 291.225867 
L 679.941818 284.657084 
L 680.652 290.681204 
L 682.072364 285.703203 
L 682.782545 285.663364 
L 683.492727 288.297183 
L 684.202909 281.454765 
L 684.913091 281.516874 
L 685.623273 290.260938 
L 686.333455 289.940135 
L 687.753818 298.745378 
L 688.464 299.198982 
L 689.174182 297.149696 
L 689.884364 293.541937 
L 690.594545 295.607473 
L 691.304727 296.132443 
L 692.014909 297.653914 
L 692.725091 307.045737 
L 693.435273 301.402886 
L 694.145455 302.26807 
L 694.855636 295.682183 
L 695.565818 300.104461 
L 696.276 296.491143 
L 696.986182 294.701356 
L 697.696364 299.970385 
L 698.406545 294.484548 
L 699.116727 292.025531 
L 700.537091 292.676967 
L 701.247273 294.906541 
L 701.957455 293.098607 
L 703.377818 288.394411 
L 704.088 283.306631 
L 704.798182 280.450163 
L 705.508364 280.692695 
L 706.218545 276.79678 
L 706.928727 284.320001 
L 708.349091 279.803093 
L 709.059273 279.051188 
L 709.769455 276.900669 
L 710.479636 279.23462 
L 711.189818 278.06597 
L 711.9 271.78788 
L 712.610182 273.013807 
L 713.320364 279.79598 
L 714.030545 276.506101 
L 714.740727 274.172485 
L 715.450909 267.5707 
L 716.161091 266.001316 
L 716.871273 263.496528 
L 717.581455 267.61103 
L 718.291636 266.679617 
L 719.001818 265.559286 
L 719.712 265.399391 
L 720.422182 261.736083 
L 721.132364 261.175838 
L 721.842545 256.304229 
L 722.552727 257.586548 
L 723.262909 261.875044 
L 723.973091 254.242553 
L 724.683273 253.431654 
L 726.103636 257.865083 
L 726.813818 253.889264 
L 727.524 242.994935 
L 728.234182 238.226804 
L 728.944364 241.233888 
L 729.654545 235.099135 
L 730.364727 237.039839 
L 731.074909 244.057935 
L 731.785091 235.662771 
L 732.495273 238.172073 
L 733.205455 231.411096 
L 733.915636 228.248175 
L 734.625818 220.044471 
L 735.336 218.560931 
L 736.046182 218.511561 
L 736.756364 216.134368 
L 737.466545 221.819464 
L 738.176727 222.953632 
L 738.886909 218.000725 
L 739.597091 218.39018 
L 740.307273 217.025513 
L 741.017455 226.608267 
L 741.727636 220.760332 
L 742.437818 221.412026 
L 743.148 218.487363 
L 743.858182 209.212869 
L 744.568364 215.837134 
L 745.278545 218.465228 
L 745.988727 220.187023 
L 746.698909 217.993716 
L 747.409091 224.152651 
L 748.119273 223.60892 
L 748.829455 222.015348 
L 749.539636 229.413946 
L 750.249818 225.073963 
L 750.96 230.007363 
L 751.670182 226.625955 
L 752.380364 228.390731 
L 753.090545 221.464557 
L 753.800727 223.506778 
L 754.510909 222.329211 
L 755.221091 224.657366 
L 755.931273 228.383775 
L 756.641455 228.564507 
L 757.351636 229.802406 
L 758.061818 239.537053 
L 759.482182 238.262923 
L 760.192364 237.183853 
L 760.902545 235.524871 
L 761.612727 235.034662 
L 762.322909 229.621691 
L 763.033091 232.099161 
L 763.743273 238.714676 
L 764.453455 235.228739 
L 765.163636 235.845695 
L 765.873818 237.659457 
L 766.584 232.705168 
L 767.294182 225.605561 
L 768.004364 226.557304 
L 768.714545 226.548044 
L 769.424727 223.809124 
L 770.134909 222.000033 
L 770.845091 225.101704 
L 771.555273 229.736982 
L 772.975636 241.621726 
L 773.685818 244.685866 
L 774.396 239.69214 
L 775.106182 236.638157 
L 775.816364 237.337083 
L 776.526545 235.221307 
L 777.236727 239.933582 
L 777.946909 234.86751 
L 778.657091 227.49215 
L 779.367273 228.578553 
L 780.077455 234.497311 
L 780.787636 230.340541 
L 781.497818 228.233239 
L 782.918182 233.113806 
L 783.628364 232.326467 
L 784.338545 240.324985 
L 785.048727 245.064612 
L 785.758909 254.312289 
L 786.469091 257.333273 
L 787.179273 259.125306 
L 787.889455 260.531483 
L 789.309818 273.899946 
L 790.02 274.658321 
L 790.730182 278.638868 
L 791.440364 281.777285 
L 792.150545 279.88162 
L 792.860727 281.62535 
L 793.570909 277.872894 
L 794.281091 275.898695 
L 794.991273 277.363057 
L 795.701455 269.893361 
L 796.411636 270.864903 
L 797.121818 274.486334 
L 797.832 273.526604 
L 798.542182 274.90518 
L 799.252364 274.491131 
L 799.962545 287.254837 
L 800.672727 289.225032 
L 801.382909 287.502928 
L 802.093091 284.022266 
L 802.803273 283.861044 
L 803.513455 287.002327 
L 804.223636 281.57135 
L 804.933818 271.751144 
L 805.644 270.233441 
L 806.354182 267.306091 
L 807.064364 261.427208 
L 807.774545 261.309472 
L 808.484727 257.663893 
L 809.194909 253.031904 
L 809.905091 250.821954 
L 810.615273 241.815651 
L 811.325455 249.879472 
L 812.035636 246.125421 
L 812.745818 244.136124 
L 813.456 247.727688 
L 814.166182 253.839919 
L 814.876364 249.853324 
L 815.586545 253.315232 
L 816.296727 255.109511 
L 817.006909 262.175412 
L 817.717091 258.33347 
L 818.427273 261.828033 
L 819.137455 252.694101 
L 819.847636 249.011279 
L 820.557818 250.616028 
L 821.268 248.279105 
L 821.978182 250.359726 
L 822.688364 246.711454 
L 823.398545 246.96088 
L 824.108727 248.05078 
L 824.818909 248.45288 
L 825.529091 252.877357 
L 826.239273 253.027563 
L 826.949455 247.262617 
L 827.659636 245.026836 
L 828.369818 243.253991 
L 829.08 244.81251 
L 829.790182 250.621407 
L 830.500364 253.959185 
L 831.210545 250.624387 
L 831.920727 242.89459 
L 832.630909 241.476157 
L 833.341091 247.107943 
L 834.051273 247.474555 
L 834.761455 250.060039 
L 835.471636 247.916926 
L 836.181818 248.548977 
L 836.892 239.317643 
L 837.602182 240.642792 
L 838.312364 239.495146 
L 839.022545 240.109956 
L 839.732727 237.338963 
L 840.442909 237.447422 
L 841.153091 235.819972 
L 841.863273 236.992032 
L 842.573455 234.441732 
L 843.283636 233.724886 
L 843.993818 237.649516 
L 844.704 238.353247 
L 845.414182 241.810095 
L 846.124364 238.350862 
L 846.834545 240.606184 
L 847.544727 237.040266 
L 848.254909 237.693998 
L 848.965091 245.270824 
L 849.675273 246.252068 
L 850.385455 245.862379 
L 851.095636 243.323839 
L 851.805818 242.326062 
L 852.516 247.493392 
L 853.226182 241.522239 
L 853.936364 240.274079 
L 854.646545 242.95152 
L 855.356727 241.291305 
L 856.066909 244.301826 
L 856.777091 245.267455 
L 858.197455 251.286757 
L 858.907636 249.150464 
L 859.617818 253.455626 
L 860.328 258.608962 
L 861.038182 254.892272 
L 861.748364 257.320883 
L 862.458545 253.318572 
L 863.168727 250.166681 
L 863.878909 248.825638 
L 865.299273 260.449707 
L 866.009455 258.480654 
L 866.719636 255.539001 
L 867.429818 253.080971 
L 868.14 246.660162 
L 868.850182 251.899374 
L 869.560364 254.606813 
L 870.270545 251.425737 
L 870.980727 246.298219 
L 871.690909 242.965311 
L 871.690909 242.965311 
" clip-path="url(#pcebd537f2d)" style="fill: none; stroke: #1f77b4; stroke-width: 1.5; stroke-linecap: square"/>
   </g>
   <g id="line2d_14">
    <path d="M 161.509091 162.513822 
L 162.219273 160.660252 
L 162.929455 152.482629 
L 164.349818 157.390306 
L 165.06 162.506245 
L 165.770182 162.713791 
L 166.480364 160.94658 
L 167.190545 156.53912 
L 167.900727 154.202519 
L 168.610909 151.307548 
L 169.321091 146.97641 
L 170.031273 141.543424 
L 170.741455 129.963733 
L 171.451636 131.421774 
L 172.161818 130.671307 
L 172.872 126.638408 
L 173.582182 125.319916 
L 174.292364 123.089101 
L 175.002545 121.353789 
L 175.712727 133.237872 
L 176.422909 139.099067 
L 177.133091 131.798602 
L 177.843273 133.255016 
L 178.553455 132.650405 
L 179.263636 138.397335 
L 179.973818 146.045061 
L 180.684 146.589994 
L 181.394182 154.943031 
L 182.104364 154.684331 
L 182.814545 162.322125 
L 184.234909 171.246102 
L 184.945091 176.781155 
L 185.655273 177.119399 
L 186.365455 181.737608 
L 187.075636 178.01363 
L 187.785818 182.772937 
L 188.496 167.495568 
L 189.206182 165.996942 
L 189.916364 167.345366 
L 190.626545 167.307488 
L 191.336727 168.679025 
L 192.046909 167.27282 
L 192.757091 171.648051 
L 193.467273 173.605065 
L 194.177455 180.325215 
L 194.887636 176.335374 
L 195.597818 176.814375 
L 196.308 175.757082 
L 197.018182 180.058413 
L 197.728364 181.325218 
L 198.438545 175.027519 
L 199.148727 175.657779 
L 199.858909 167.641632 
L 200.569091 161.942254 
L 201.279273 163.283323 
L 201.989455 169.49182 
L 202.699636 170.02054 
L 203.409818 171.296527 
L 204.12 176.669817 
L 204.830182 173.36058 
L 205.540364 173.27862 
L 206.250545 175.148296 
L 206.960727 184.076778 
L 207.670909 175.477567 
L 208.381091 169.855365 
L 209.091273 167.958857 
L 209.801455 168.173333 
L 210.511636 178.976329 
L 211.221818 175.494097 
L 211.932 170.134962 
L 212.642182 175.190403 
L 213.352364 166.360335 
L 214.062545 167.012188 
L 214.772727 162.515433 
L 215.482909 172.978542 
L 216.193091 174.645733 
L 216.903273 181.296694 
L 217.613455 185.040186 
L 218.323636 180.457644 
L 219.033818 179.17657 
L 219.744 175.819825 
L 220.454182 177.727823 
L 221.164364 179.080154 
L 221.874545 182.476927 
L 222.584727 186.761823 
L 223.294909 192.121882 
L 224.005091 195.544345 
L 224.715273 190.846558 
L 226.845818 214.660201 
L 227.556 211.068825 
L 228.266182 218.467161 
L 228.976364 218.994406 
L 229.686545 228.439551 
L 230.396727 232.119637 
L 231.106909 234.306241 
L 231.817091 231.48409 
L 233.237455 253.198252 
L 233.947636 256.01916 
L 234.657818 255.395015 
L 235.368 265.50805 
L 236.078182 267.627152 
L 236.788364 267.806796 
L 237.498545 272.686679 
L 238.208727 260.662779 
L 238.918909 257.438531 
L 239.629091 256.077833 
L 240.339273 245.439458 
L 241.049455 252.146788 
L 241.759636 251.644759 
L 242.469818 255.623708 
L 243.18 254.118903 
L 243.890182 257.841934 
L 244.600364 258.94827 
L 245.310545 256.193145 
L 246.020727 265.640707 
L 246.730909 272.340488 
L 247.441091 285.626433 
L 248.151273 290.583202 
L 248.861455 285.833432 
L 249.571636 288.275032 
L 250.281818 278.834446 
L 250.992 278.011046 
L 251.702182 270.947045 
L 252.412364 269.357954 
L 253.122545 268.583496 
L 253.832727 266.351 
L 254.542909 272.836817 
L 255.253091 272.266304 
L 255.963273 276.437947 
L 256.673455 272.168449 
L 257.383636 258.201291 
L 258.093818 253.604137 
L 258.804 253.068564 
L 259.514182 260.376916 
L 260.224364 261.942573 
L 260.934545 257.381161 
L 261.644727 253.654019 
L 262.354909 250.863849 
L 263.065091 241.291292 
L 263.775273 240.652994 
L 264.485455 237.614152 
L 265.195636 238.610609 
L 265.905818 244.299709 
L 266.616 243.9068 
L 268.036364 238.333037 
L 268.746545 227.052816 
L 270.166909 238.609108 
L 270.877091 235.645929 
L 271.587273 234.089999 
L 272.297455 247.401365 
L 273.007636 243.731655 
L 273.717818 239.068333 
L 274.428 241.46331 
L 275.138182 242.397535 
L 275.848364 240.093992 
L 276.558545 239.577973 
L 277.268727 234.942111 
L 277.978909 228.19952 
L 278.689091 232.737892 
L 279.399273 223.429064 
L 280.109455 221.906346 
L 281.529818 215.321164 
L 282.24 218.737413 
L 282.950182 219.14949 
L 283.660364 211.072394 
L 284.370545 209.579124 
L 285.080727 206.078017 
L 285.790909 200.569398 
L 286.501091 199.055948 
L 287.211273 199.6647 
L 287.921455 211.461751 
L 288.631636 210.099846 
L 290.052 229.744832 
L 290.762182 232.818382 
L 291.472364 229.611142 
L 292.182545 229.098107 
L 292.892727 221.91356 
L 293.602909 218.284618 
L 294.313091 220.68838 
L 295.023273 217.318708 
L 295.733455 212.045039 
L 296.443636 221.131945 
L 297.153818 220.018769 
L 297.864 222.247031 
L 298.574182 222.270473 
L 299.284364 232.067112 
L 300.704727 238.042623 
L 301.414909 244.128791 
L 302.125091 247.270313 
L 302.835273 244.710253 
L 303.545455 248.761062 
L 304.255636 245.487841 
L 304.965818 249.905315 
L 305.676 242.552904 
L 306.386182 243.763903 
L 307.096364 245.451621 
L 307.806545 246.166777 
L 308.516727 244.201143 
L 309.226909 241.759011 
L 309.937091 242.107079 
L 310.647273 247.809626 
L 311.357455 245.556196 
L 312.067636 239.53288 
L 313.488 255.25719 
L 314.198182 259.529507 
L 314.908364 261.461844 
L 315.618545 257.029862 
L 316.328727 262.929726 
L 317.038909 263.488936 
L 317.749091 259.210567 
L 318.459273 252.850173 
L 319.169455 255.436731 
L 319.879636 242.408584 
L 320.589818 244.34228 
L 322.010182 234.432775 
L 322.720364 243.319696 
L 323.430545 247.398366 
L 324.140727 255.777713 
L 325.561091 259.366546 
L 326.981455 280.711264 
L 327.691636 284.046432 
L 328.401818 275.766804 
L 329.112 270.03964 
L 329.822182 267.608017 
L 330.532364 267.460815 
L 331.242545 268.542418 
L 331.952727 269.014306 
L 332.662909 273.244894 
L 333.373091 273.531244 
L 334.083273 268.223096 
L 334.793455 266.144606 
L 335.503636 265.940002 
L 336.213818 267.092392 
L 336.924 265.306106 
L 337.634182 273.861541 
L 338.344364 283.928272 
L 339.054545 284.528621 
L 339.764727 274.084491 
L 340.474909 269.04855 
L 341.185091 271.351081 
L 341.895273 278.0603 
L 342.605455 272.89606 
L 343.315636 274.658215 
L 344.025818 264.661386 
L 345.446182 257.372742 
L 346.156364 252.779477 
L 346.866545 256.349609 
L 347.576727 260.656504 
L 348.286909 259.204447 
L 348.997091 255.116438 
L 349.707273 254.205862 
L 350.417455 256.361312 
L 351.127636 248.53293 
L 351.837818 244.562325 
L 352.548 237.007986 
L 353.258182 234.035878 
L 353.968364 242.638829 
L 354.678545 249.244792 
L 355.388727 250.401493 
L 356.098909 265.621429 
L 356.809091 267.082307 
L 357.519273 254.557469 
L 358.229455 246.544803 
L 358.939636 258.93487 
L 359.649818 254.7956 
L 360.36 249.383857 
L 361.070182 254.510913 
L 361.780364 256.964639 
L 362.490545 248.136968 
L 363.200727 235.999482 
L 363.910909 234.944827 
L 365.331273 245.860527 
L 366.041455 241.999472 
L 367.461818 227.237241 
L 368.172 224.893875 
L 368.882182 221.883328 
L 369.592364 223.446115 
L 370.302545 225.564291 
L 371.012727 215.770206 
L 371.722909 224.625132 
L 372.433091 216.275557 
L 373.143273 213.747215 
L 373.853455 212.63751 
L 374.563636 210.682609 
L 375.273818 216.220389 
L 375.984 217.30533 
L 376.694182 214.117557 
L 377.404364 217.560083 
L 378.114545 214.74046 
L 378.824727 214.314418 
L 379.534909 212.55526 
L 380.245091 210.461562 
L 380.955273 219.584538 
L 381.665455 218.699135 
L 382.375636 216.563449 
L 383.085818 221.934732 
L 383.796 231.139391 
L 384.506182 235.451067 
L 385.926545 237.875516 
L 386.636727 225.497362 
L 387.346909 233.200678 
L 388.057091 242.436081 
L 388.767273 240.438544 
L 389.477455 246.976024 
L 390.187636 246.545979 
L 390.897818 239.095983 
L 391.608 236.618566 
L 393.028364 244.791936 
L 393.738545 248.088889 
L 394.448727 244.026115 
L 395.158909 240.885545 
L 395.869091 242.482132 
L 396.579273 259.767882 
L 397.289455 252.947036 
L 397.999636 262.202519 
L 398.709818 259.087598 
L 399.42 253.166964 
L 400.840364 237.017783 
L 401.550545 247.182916 
L 402.260727 242.292919 
L 402.970909 230.340258 
L 403.681091 226.46185 
L 404.391273 225.627474 
L 405.101455 223.575089 
L 405.811636 223.358123 
L 406.521818 229.819879 
L 407.232 228.565944 
L 407.942182 231.329857 
L 409.362545 226.018123 
L 410.072727 230.760806 
L 410.782909 232.309781 
L 412.203273 236.994509 
L 412.913455 231.442309 
L 413.623636 218.623629 
L 414.333818 219.204244 
L 415.044 216.533278 
L 415.754182 216.844618 
L 416.464364 210.772784 
L 417.174545 223.628101 
L 417.884727 228.289802 
L 418.594909 227.076796 
L 419.305091 221.151175 
L 420.015273 219.801597 
L 420.725455 212.902783 
L 421.435636 201.704188 
L 422.145818 199.898398 
L 423.566182 212.713581 
L 424.276364 208.168367 
L 424.986545 207.680525 
L 425.696727 207.803959 
L 426.406909 210.061297 
L 427.117091 209.999857 
L 427.827273 216.664068 
L 428.537455 227.535663 
L 429.247636 232.919584 
L 429.957818 229.009247 
L 430.668 232.389231 
L 431.378182 228.705718 
L 432.088364 220.914575 
L 432.798545 222.120652 
L 433.508727 225.961088 
L 434.218909 225.237265 
L 434.929091 219.698682 
L 435.639273 203.684506 
L 436.349455 201.692068 
L 437.059636 211.425765 
L 437.769818 216.930237 
L 438.48 225.565728 
L 439.190182 225.730093 
L 439.900364 225.32341 
L 440.610545 224.454213 
L 441.320727 218.203031 
L 442.030909 229.095898 
L 442.741091 215.384147 
L 443.451273 224.337074 
L 444.161455 228.556356 
L 444.871636 223.783054 
L 445.581818 230.996525 
L 446.292 234.597306 
L 447.002182 245.302813 
L 447.712364 252.767635 
L 448.422545 253.051192 
L 449.132727 256.678917 
L 449.842909 258.29728 
L 450.553091 254.26322 
L 451.263273 260.891044 
L 451.973455 255.419854 
L 452.683636 253.087225 
L 453.393818 254.440592 
L 454.104 243.629773 
L 454.814182 249.052391 
L 455.524364 250.856792 
L 456.944727 238.648303 
L 457.654909 234.36937 
L 458.365091 234.721317 
L 459.075273 242.695301 
L 459.785455 245.276956 
L 460.495636 250.612378 
L 461.205818 257.558431 
L 461.916 259.918406 
L 464.046545 247.342471 
L 464.756727 246.238615 
L 465.466909 236.77687 
L 466.177091 241.084288 
L 466.887273 241.927943 
L 467.597455 239.439647 
L 468.307636 236.346841 
L 469.017818 242.120865 
L 469.728 240.781313 
L 470.438182 240.325984 
L 471.148364 228.00286 
L 471.858545 228.915167 
L 472.568727 222.533844 
L 473.278909 224.998551 
L 473.989091 221.872235 
L 474.699273 214.86269 
L 475.409455 214.776933 
L 476.119636 213.183875 
L 476.829818 217.561032 
L 477.54 210.443206 
L 478.250182 214.878543 
L 478.960364 209.042097 
L 479.670545 211.913624 
L 480.380727 212.011891 
L 481.090909 208.958461 
L 481.801091 209.934647 
L 482.511273 213.351403 
L 483.221455 219.918529 
L 483.931636 219.860305 
L 484.641818 226.719612 
L 485.352 223.296943 
L 486.062182 228.824021 
L 486.772364 224.62438 
L 487.482545 230.971678 
L 488.192727 227.374451 
L 488.902909 226.532034 
L 489.613091 221.542956 
L 490.323273 214.395942 
L 491.033455 225.2987 
L 491.743636 216.169114 
L 492.453818 216.669863 
L 493.164 219.095923 
L 493.874182 220.595887 
L 494.584364 226.455318 
L 495.294545 223.722665 
L 496.004727 225.294336 
L 496.714909 225.286105 
L 498.845455 237.144426 
L 499.555636 239.626594 
L 500.265818 232.246175 
L 500.976 237.243538 
L 501.686182 237.731987 
L 502.396364 236.522382 
L 503.106545 244.962388 
L 504.526909 243.450313 
L 505.237091 243.845048 
L 505.947273 238.773427 
L 506.657455 243.870908 
L 508.077818 245.321377 
L 508.788 253.568955 
L 509.498182 249.770606 
L 510.208364 257.158426 
L 510.918545 259.921354 
L 511.628727 271.804687 
L 512.338909 268.65182 
L 513.049091 268.358988 
L 513.759273 268.811804 
L 514.469455 269.500967 
L 515.889818 274.62849 
L 516.6 267.003044 
L 517.310182 278.854712 
L 518.020364 281.058567 
L 518.730545 285.114549 
L 519.440727 282.822255 
L 520.150909 283.728533 
L 520.861091 291.32644 
L 521.571273 289.779092 
L 522.281455 287.782267 
L 522.991636 290.895419 
L 523.701818 288.949877 
L 524.412 278.271716 
L 525.122182 279.266723 
L 525.832364 280.846214 
L 526.542545 281.628705 
L 527.252727 281.166191 
L 527.962909 279.18646 
L 528.673091 287.700046 
L 529.383273 299.064757 
L 530.093455 301.606051 
L 530.803636 294.412755 
L 531.513818 301.510383 
L 532.224 295.098071 
L 532.934182 301.223573 
L 533.644364 300.942285 
L 534.354545 298.939391 
L 535.064727 303.733851 
L 535.774909 294.783623 
L 536.485091 303.7409 
L 537.195273 295.180173 
L 537.905455 303.792351 
L 538.615636 291.582284 
L 539.325818 289.083347 
L 540.036 293.067732 
L 540.746182 286.021587 
L 541.456364 286.038745 
L 542.166545 279.377592 
L 542.876727 285.295543 
L 543.586909 284.458446 
L 544.297091 292.486583 
L 545.007273 289.587489 
L 545.717455 283.944861 
L 546.427636 285.096274 
L 547.137818 292.866151 
L 547.848 293.365771 
L 548.558182 287.853101 
L 549.268364 271.997587 
L 549.978545 280.195367 
L 550.688727 284.867236 
L 551.398909 283.901414 
L 552.109091 282.600291 
L 552.819273 288.184134 
L 553.529455 287.247001 
L 554.239636 287.435475 
L 554.949818 290.881533 
L 555.66 288.447067 
L 556.370182 294.792977 
L 557.080364 288.170421 
L 557.790545 292.12011 
L 558.500727 289.532513 
L 559.210909 292.49446 
L 559.921091 289.173526 
L 560.631273 290.267524 
L 561.341455 290.214906 
L 562.051636 294.942509 
L 562.761818 287.805021 
L 563.472 282.753962 
L 564.182182 284.259286 
L 564.892364 278.644796 
L 565.602545 280.409339 
L 566.312727 279.062439 
L 567.022909 285.149031 
L 567.733091 285.416177 
L 568.443273 290.299388 
L 569.153455 287.119224 
L 569.863636 287.814208 
L 570.573818 292.082233 
L 571.284 285.286997 
L 571.994182 298.794996 
L 572.704364 294.007106 
L 573.414545 284.6312 
L 574.124727 286.966769 
L 574.834909 285.813027 
L 575.545091 291.905966 
L 576.255273 293.722196 
L 576.965455 293.948798 
L 577.675636 301.530089 
L 578.385818 299.454531 
L 579.096 297.744978 
L 579.806182 300.079219 
L 580.516364 298.348842 
L 581.226545 300.474238 
L 581.936727 304.400485 
L 582.646909 300.481511 
L 583.357091 301.953686 
L 584.067273 305.050695 
L 584.777455 303.482126 
L 585.487636 303.668457 
L 586.197818 304.112143 
L 586.908 302.234378 
L 587.618182 301.472713 
L 588.328364 303.122775 
L 589.748727 308.604939 
L 590.458909 299.402515 
L 591.169091 301.567053 
L 591.879273 299.549848 
L 592.589455 295.156019 
L 593.299636 305.764935 
L 594.009818 303.16513 
L 594.72 303.513587 
L 595.430182 306.928146 
L 596.140364 297.644792 
L 596.850545 298.366207 
L 597.560727 304.070788 
L 598.270909 317.26736 
L 599.691273 331.347893 
L 600.401455 334.186316 
L 601.111636 336.379808 
L 601.821818 333.465708 
L 602.532 337.785567 
L 603.242182 337.195178 
L 603.952364 333.083901 
L 604.662545 331.740272 
L 605.372727 319.849492 
L 606.082909 320.482258 
L 606.793091 318.091024 
L 607.503273 320.508846 
L 608.213455 311.782789 
L 608.923636 314.626824 
L 609.633818 314.313914 
L 610.344 317.463462 
L 611.054182 332.45566 
L 611.764364 329.272148 
L 612.474545 328.411322 
L 613.184727 324.428956 
L 613.894909 335.096733 
L 614.605091 338.6315 
L 615.315273 350.362425 
L 616.025455 360.220839 
L 616.735636 351.457169 
L 617.445818 344.075279 
L 618.156 340.535875 
L 618.866182 333.638917 
L 619.576364 333.881015 
L 620.286545 330.085502 
L 620.996727 337.209893 
L 621.706909 346.84134 
L 622.417091 349.649674 
L 623.127273 346.451651 
L 623.837455 346.943264 
L 624.547636 348.415298 
L 625.257818 347.937319 
L 625.968 347.599657 
L 626.678182 345.465309 
L 627.388364 341.466405 
L 628.098545 338.458046 
L 628.808727 339.649549 
L 629.518909 347.789667 
L 630.229091 347.004413 
L 630.939273 343.124081 
L 631.649455 340.65218 
L 632.359636 339.599895 
L 633.069818 334.473482 
L 633.78 332.687667 
L 634.490182 340.270665 
L 635.200364 340.869548 
L 635.910545 347.064733 
L 636.620727 344.520178 
L 637.330909 335.703251 
L 638.041091 334.476991 
L 638.751273 338.386812 
L 639.461455 338.725914 
L 640.171636 335.593877 
L 640.881818 333.151382 
L 641.592 343.204205 
L 642.302182 344.478743 
L 643.012364 332.133443 
L 643.722545 332.25816 
L 644.432727 332.786367 
L 645.142909 329.823033 
L 645.853091 332.341843 
L 646.563273 334.129468 
L 647.273455 331.049169 
L 647.983636 322.082524 
L 648.693818 322.332866 
L 649.404 329.745608 
L 650.114182 334.168854 
L 650.824364 328.838356 
L 651.534545 325.675924 
L 652.244727 323.780108 
L 652.954909 322.318861 
L 653.665091 328.059405 
L 654.375273 332.357504 
L 655.085455 343.322231 
L 655.795636 347.072717 
L 656.505818 349.571928 
L 657.216 350.621076 
L 657.926182 347.978061 
L 658.636364 362.257679 
L 659.346545 361.820418 
L 660.056727 359.854418 
L 660.766909 360.936177 
L 661.477091 345.285002 
L 662.187273 338.518967 
L 662.897455 335.819986 
L 663.607636 344.704089 
L 664.317818 341.85857 
L 665.028 344.892606 
L 665.738182 345.468744 
L 666.448364 348.660559 
L 667.158545 343.591947 
L 667.868727 347.357954 
L 668.578909 352.880042 
L 669.289091 354.052999 
L 669.999273 350.950118 
L 670.709455 344.691958 
L 671.419636 343.129428 
L 672.129818 329.767113 
L 672.84 327.020805 
L 673.550182 325.834783 
L 674.260364 326.272004 
L 675.680727 333.473234 
L 676.390909 326.934386 
L 677.101091 334.049138 
L 677.811273 330.993881 
L 678.521455 335.655247 
L 679.231636 337.192477 
L 679.941818 332.548017 
L 680.652 340.086451 
L 681.362182 341.217345 
L 682.072364 336.367135 
L 682.782545 337.731535 
L 683.492727 338.044181 
L 684.202909 327.487698 
L 684.913091 321.1684 
L 685.623273 331.610205 
L 686.333455 330.541148 
L 687.043636 330.920704 
L 687.753818 332.791872 
L 688.464 332.430971 
L 689.174182 327.037587 
L 689.884364 327.966104 
L 690.594545 330.942464 
L 691.304727 335.032875 
L 692.014909 334.034976 
L 692.725091 340.535081 
L 693.435273 339.913555 
L 694.145455 346.089845 
L 694.855636 345.491751 
L 695.565818 350.264186 
L 696.276 343.273419 
L 696.986182 337.505198 
L 697.696364 342.818805 
L 698.406545 334.77727 
L 699.116727 330.374669 
L 699.826909 334.025511 
L 700.537091 330.868705 
L 701.247273 329.574499 
L 701.957455 324.452112 
L 702.667636 322.15202 
L 703.377818 315.114003 
L 704.088 309.798492 
L 704.798182 311.19776 
L 705.508364 315.138967 
L 706.218545 312.677735 
L 706.928727 322.948275 
L 707.638909 317.479427 
L 708.349091 310.561792 
L 709.059273 301.684744 
L 709.769455 302.270377 
L 710.479636 307.50644 
L 711.189818 299.363485 
L 711.9 295.534332 
L 713.320364 313.693158 
L 714.030545 311.02658 
L 714.740727 311.627702 
L 715.450909 298.523452 
L 716.161091 300.370432 
L 716.871273 290.979667 
L 717.581455 297.664138 
L 718.291636 299.77547 
L 719.001818 297.212423 
L 719.712 296.892366 
L 720.422182 296.188546 
L 721.842545 281.935456 
L 722.552727 284.667142 
L 723.262909 281.853401 
L 723.973091 274.960978 
L 724.683273 281.474625 
L 725.393455 285.534368 
L 726.103636 284.420512 
L 726.813818 287.544594 
L 727.524 273.779279 
L 728.234182 262.664837 
L 728.944364 269.149682 
L 729.654545 265.986045 
L 730.364727 261.683871 
L 731.074909 272.968144 
L 731.785091 260.638831 
L 732.495273 262.425024 
L 733.205455 253.465215 
L 733.915636 252.709076 
L 734.625818 245.029072 
L 735.336 242.368327 
L 736.046182 249.865898 
L 736.756364 246.125818 
L 737.466545 257.155064 
L 738.176727 259.181225 
L 738.886909 253.771877 
L 739.597091 250.785686 
L 740.307273 251.616879 
L 741.017455 255.381856 
L 741.727636 246.532743 
L 742.437818 247.21924 
L 743.148 242.266901 
L 743.858182 234.952888 
L 744.568364 246.949607 
L 745.278545 250.121883 
L 745.988727 257.013912 
L 746.698909 255.42993 
L 747.409091 262.989017 
L 748.119273 261.810163 
L 748.829455 254.220897 
L 749.539636 261.338249 
L 750.249818 260.161752 
L 750.96 265.252333 
L 751.670182 257.110649 
L 752.380364 258.416318 
L 753.090545 246.804472 
L 753.800727 246.885144 
L 754.510909 245.852247 
L 755.221091 251.450184 
L 755.931273 254.899731 
L 756.641455 252.175578 
L 757.351636 262.974289 
L 758.061818 266.229949 
L 758.772 265.863554 
L 759.482182 266.089636 
L 760.192364 264.860683 
L 761.612727 265.082845 
L 762.322909 256.346787 
L 763.033091 259.610348 
L 763.743273 267.143338 
L 764.453455 263.126009 
L 765.163636 260.469833 
L 765.873818 267.944845 
L 766.584 268.974027 
L 767.294182 260.023541 
L 768.004364 265.814265 
L 768.714545 264.435352 
L 769.424727 262.79194 
L 770.134909 259.658963 
L 770.845091 265.292641 
L 771.555273 266.96248 
L 772.265455 275.909925 
L 772.975636 276.620247 
L 773.685818 271.239279 
L 774.396 261.058176 
L 775.106182 255.872775 
L 775.816364 262.463317 
L 776.526545 261.847919 
L 777.236727 270.453582 
L 777.946909 264.265002 
L 778.657091 254.860854 
L 779.367273 260.555752 
L 780.077455 270.616209 
L 780.787636 268.629858 
L 781.497818 271.577701 
L 782.208 268.111782 
L 782.918182 272.07134 
L 783.628364 270.38984 
L 784.338545 277.461358 
L 785.048727 275.710324 
L 785.758909 285.942745 
L 786.469091 290.205075 
L 787.179273 288.903438 
L 787.889455 294.708904 
L 788.599636 299.108499 
L 789.309818 300.127903 
L 790.02 309.194761 
L 790.730182 306.386163 
L 791.440364 313.383435 
L 792.150545 312.667371 
L 792.860727 322.702215 
L 793.570909 320.037149 
L 794.281091 325.067518 
L 794.991273 331.990678 
L 795.701455 331.222574 
L 796.411636 331.605081 
L 797.121818 337.801757 
L 797.832 332.225522 
L 798.542182 337.682689 
L 799.252364 339.043465 
L 799.962545 356.916089 
L 800.672727 357.111345 
L 801.382909 354.590231 
L 802.093091 353.872593 
L 802.803273 357.154503 
L 803.513455 361.945729 
L 805.644 345.899066 
L 806.354182 346.936666 
L 807.064364 347.461167 
L 807.774545 346.091913 
L 808.484727 340.392489 
L 809.194909 330.790263 
L 809.905091 334.239887 
L 810.615273 321.854072 
L 811.325455 324.747755 
L 812.035636 326.206956 
L 812.745818 326.398284 
L 813.456 329.275027 
L 814.166182 338.059716 
L 814.876364 339.328243 
L 815.586545 333.777311 
L 816.296727 333.300157 
L 817.006909 343.536561 
L 817.717091 341.978191 
L 818.427273 343.50079 
L 819.137455 335.396524 
L 819.847636 331.88655 
L 820.557818 336.425976 
L 821.268 329.574704 
L 821.978182 334.801191 
L 822.688364 328.068958 
L 823.398545 332.590502 
L 824.108727 336.203193 
L 824.818909 330.727929 
L 825.529091 343.003056 
L 826.239273 340.637171 
L 826.949455 336.317889 
L 827.659636 332.935193 
L 828.369818 326.868737 
L 829.08 326.308322 
L 829.790182 332.128123 
L 830.500364 339.842403 
L 831.210545 335.321543 
L 831.920727 323.519765 
L 833.341091 335.94727 
L 834.051273 333.811281 
L 834.761455 334.580713 
L 835.471636 339.448083 
L 836.181818 346.975968 
L 836.892 339.123234 
L 837.602182 344.587741 
L 839.022545 348.706267 
L 839.732727 342.547425 
L 840.442909 335.294621 
L 841.153091 332.928643 
L 841.863273 333.003313 
L 843.283636 321.981021 
L 843.993818 326.302084 
L 844.704 328.744087 
L 845.414182 336.15013 
L 846.834545 338.967276 
L 847.544727 337.674289 
L 848.254909 334.857826 
L 849.675273 344.712784 
L 850.385455 348.347379 
L 851.095636 344.240796 
L 851.805818 344.519157 
L 852.516 350.067824 
L 853.226182 347.894094 
L 853.936364 338.970765 
L 855.356727 343.103407 
L 856.066909 343.785088 
L 856.777091 345.075019 
L 857.487273 351.922509 
L 858.197455 354.249104 
L 858.907636 353.704741 
L 859.617818 352.19984 
L 860.328 364.407578 
L 861.038182 366.398019 
L 861.748364 369.36 
L 862.458545 359.699987 
L 863.878909 352.891449 
L 864.589091 361.059717 
L 865.299273 362.724873 
L 866.009455 362.794126 
L 866.719636 356.823557 
L 867.429818 353.14347 
L 868.14 348.031936 
L 868.850182 356.097418 
L 869.560364 353.575347 
L 870.270545 351.847211 
L 870.980727 339.123587 
L 871.690909 332.140568 
L 871.690909 332.140568 
" clip-path="url(#pcebd537f2d)" style="fill: none; stroke: #ff7f0e; stroke-width: 1.5; stroke-linecap: square"/>
   </g>
   <g id="line2d_15">
    <path d="M 162.219273 188.222572 
L 162.929455 188.020063 
L 164.349818 187.970934 
L 165.770182 187.876142 
L 166.480364 187.924104 
L 169.321091 187.480114 
L 170.031273 187.546083 
L 170.741455 186.73223 
L 172.161818 186.7673 
L 172.872 186.491882 
L 175.002545 186.484107 
L 175.712727 186.149241 
L 176.422909 185.956821 
L 177.133091 185.539424 
L 180.684 185.537388 
L 181.394182 184.93486 
L 182.104364 184.93077 
L 182.814545 184.384441 
L 184.234909 184.12049 
L 185.655273 184.152361 
L 186.365455 183.974253 
L 187.075636 184.05272 
L 188.496 183.907276 
L 189.916364 183.87354 
L 193.467273 183.85667 
L 194.177455 183.491659 
L 194.887636 183.646093 
L 199.148727 183.778581 
L 199.858909 183.265694 
L 201.279273 183.08003 
L 202.699636 183.005263 
L 203.409818 183.052001 
L 204.830182 182.895484 
L 207.670909 182.854175 
L 208.381091 182.713024 
L 210.511636 182.629378 
L 211.221818 182.440785 
L 211.932 182.426251 
L 212.642182 182.287258 
L 214.062545 182.302839 
L 214.772727 181.977837 
L 215.482909 181.458295 
L 216.193091 181.372892 
L 216.903273 181.117245 
L 220.454182 180.829867 
L 223.294909 180.757761 
L 224.005091 180.668846 
L 224.715273 180.698668 
L 225.425455 180.471986 
L 226.135636 179.995426 
L 226.845818 180.011748 
L 228.266182 179.723364 
L 228.976364 179.721225 
L 229.686545 179.293669 
L 231.106909 178.972487 
L 231.817091 178.825045 
L 232.527273 178.386753 
L 233.237455 178.132469 
L 235.368 178.03062 
L 236.788364 178.070755 
L 237.498545 177.979754 
L 238.208727 177.32665 
L 239.629091 177.34441 
L 241.049455 176.734439 
L 243.18 176.716983 
L 243.890182 176.529369 
L 245.310545 176.468094 
L 246.020727 176.028875 
L 246.730909 175.797088 
L 247.441091 174.980315 
L 248.861455 174.625901 
L 249.571636 174.637092 
L 250.281818 174.345736 
L 250.992 174.357866 
L 251.702182 173.963189 
L 253.832727 173.94419 
L 254.542909 173.755961 
L 255.253091 173.76221 
L 256.673455 173.552493 
L 257.383636 172.904714 
L 258.093818 172.770205 
L 260.224364 172.66168 
L 261.644727 172.350707 
L 262.354909 172.347887 
L 263.065091 172.193119 
L 264.485455 172.145443 
L 266.616 172.010222 
L 267.326182 171.867022 
L 268.036364 171.858073 
L 268.746545 171.224471 
L 270.166909 171.205777 
L 271.587273 171.270396 
L 272.297455 170.373665 
L 273.007636 170.475765 
L 277.268727 170.157597 
L 277.978909 169.902457 
L 278.689091 169.766713 
L 279.399273 169.493238 
L 280.109455 169.540175 
L 282.950182 169.216256 
L 283.660364 168.940804 
L 285.080727 168.884292 
L 285.790909 168.714859 
L 287.211273 168.729621 
L 287.921455 168.521256 
L 289.341818 168.572775 
L 290.052 167.989975 
L 290.762182 168.049719 
L 291.472364 167.941161 
L 292.892727 167.860722 
L 295.023273 167.666008 
L 295.733455 167.463187 
L 296.443636 166.848346 
L 300.704727 166.705402 
L 301.414909 166.473272 
L 303.545455 166.398169 
L 304.965818 166.505704 
L 305.676 165.940611 
L 308.516727 165.992198 
L 309.937091 165.946158 
L 310.647273 165.75494 
L 312.067636 165.995224 
L 312.777818 165.562379 
L 315.618545 165.209375 
L 316.328727 164.960467 
L 319.169455 164.902148 
L 319.879636 164.127059 
L 321.3 164.135046 
L 322.010182 164.155785 
L 323.430545 163.820115 
L 325.561091 163.880992 
L 326.981455 163.112704 
L 327.691636 162.98084 
L 328.401818 162.689926 
L 330.532364 162.724363 
L 336.924 162.807128 
L 337.634182 162.663366 
L 338.344364 162.31498 
L 339.054545 162.30743 
L 339.764727 161.898981 
L 341.895273 161.68535 
L 342.605455 161.530375 
L 343.315636 161.579625 
L 344.025818 161.166871 
L 350.417455 160.728531 
L 351.127636 160.291654 
L 351.837818 160.135497 
L 352.548 159.665137 
L 353.258182 159.640487 
L 353.968364 159.212727 
L 354.678545 159.001245 
L 355.388727 158.98353 
L 356.098909 158.095224 
L 356.809091 158.123491 
L 357.519273 157.382274 
L 358.229455 156.886852 
L 358.939636 156.657681 
L 361.780364 156.500488 
L 363.200727 155.936167 
L 363.910909 155.932372 
L 364.621091 156.174463 
L 366.041455 156.172649 
L 366.751636 155.911394 
L 370.302545 155.881758 
L 371.012727 155.359471 
L 372.433091 154.678014 
L 373.853455 154.566814 
L 374.563636 154.551703 
L 375.273818 154.415257 
L 376.694182 154.32627 
L 379.534909 154.16072 
L 380.245091 154.194773 
L 380.955273 153.992654 
L 382.375636 153.980103 
L 383.085818 153.79359 
L 383.796 153.360447 
L 384.506182 153.196244 
L 385.926545 153.169634 
L 386.636727 152.729997 
L 387.346909 152.618813 
L 388.057091 152.271193 
L 388.767273 152.264876 
L 389.477455 151.908768 
L 390.187636 151.909733 
L 390.897818 151.645276 
L 392.318182 151.636857 
L 394.448727 151.588011 
L 395.158909 151.395447 
L 395.869091 151.408272 
L 396.579273 150.618927 
L 397.999636 150.332061 
L 398.709818 150.369562 
L 399.42 150.252824 
L 400.130182 149.815137 
L 401.550545 149.305473 
L 402.260727 149.25507 
L 402.970909 148.637869 
L 409.362545 148.557804 
L 410.072727 148.278637 
L 412.913455 148.096322 
L 413.623636 147.496825 
L 414.333818 147.500535 
L 416.464364 147.229627 
L 417.174545 146.550905 
L 419.305091 146.251632 
L 420.015273 146.292187 
L 422.145818 145.909891 
L 422.856 145.39528 
L 423.566182 145.031992 
L 425.696727 145.079297 
L 427.827273 144.913455 
L 428.537455 144.130279 
L 431.378182 143.954312 
L 432.088364 143.634794 
L 432.798545 143.659971 
L 433.508727 143.474452 
L 434.218909 143.455333 
L 434.929091 143.149198 
L 435.639273 142.307591 
L 436.349455 142.316486 
L 437.059636 141.662566 
L 437.769818 141.469934 
L 438.48 140.99711 
L 441.320727 140.999711 
L 442.030909 140.166497 
L 442.741091 139.786666 
L 445.581818 139.211558 
L 446.292 139.26759 
L 447.712364 138.709495 
L 448.422545 138.706779 
L 449.132727 138.444761 
L 452.683636 138.508465 
L 453.393818 138.454503 
L 454.104 138.22559 
L 455.524364 138.198991 
L 456.234545 137.962935 
L 458.365091 138.024202 
L 459.075273 137.658072 
L 459.785455 137.672562 
L 460.495636 137.380245 
L 461.916 137.221776 
L 462.626182 137.268563 
L 463.336364 137.196722 
L 464.756727 137.278511 
L 465.466909 136.970112 
L 467.597455 136.939994 
L 469.017818 136.829557 
L 470.438182 136.861849 
L 471.148364 136.006809 
L 472.568727 136.020798 
L 473.278909 136.111378 
L 474.699273 136.074661 
L 476.119636 136.061549 
L 476.829818 135.917192 
L 477.54 135.522527 
L 478.250182 135.359817 
L 481.090909 135.367707 
L 481.801091 135.353581 
L 482.511273 135.122186 
L 483.931636 135.221621 
L 484.641818 134.873031 
L 485.352 134.930116 
L 488.192727 134.503729 
L 488.902909 134.532979 
L 489.613091 134.326198 
L 490.323273 134.339129 
L 491.743636 133.59091 
L 493.874182 133.584592 
L 495.294545 133.343837 
L 497.425091 133.363894 
L 498.845455 132.972295 
L 499.555636 132.97508 
L 500.976 132.318803 
L 502.396364 132.342986 
L 503.106545 132.065013 
L 505.237091 132.017947 
L 505.947273 131.733466 
L 508.077818 131.815542 
L 508.788 131.063196 
L 509.498182 131.09844 
L 510.208364 130.917359 
L 510.918545 130.859439 
L 511.628727 130.038792 
L 514.469455 130.014455 
L 515.889818 129.941106 
L 516.6 129.910738 
L 517.310182 128.923548 
L 518.730545 128.982072 
L 520.150909 128.895258 
L 520.861091 128.399981 
L 522.281455 128.295241 
L 523.701818 128.309979 
L 524.412 127.65816 
L 527.962909 127.731689 
L 528.673091 127.345055 
L 532.224 126.629135 
L 532.934182 126.358308 
L 534.354545 126.33628 
L 535.064727 126.245905 
L 535.774909 126.533162 
L 537.195273 126.448226 
L 537.905455 126.137773 
L 538.615636 125.284942 
L 539.325818 125.257271 
L 540.036 125.388093 
L 541.456364 125.329503 
L 542.166545 125.025528 
L 542.876727 124.439253 
L 545.007273 124.49446 
L 545.717455 124.274548 
L 548.558182 124.296344 
L 549.268364 123.276556 
L 549.978545 122.815558 
L 550.688727 122.70731 
L 552.109091 122.699775 
L 552.819273 122.464856 
L 554.949818 122.390974 
L 555.66 122.298666 
L 557.080364 121.946746 
L 560.631273 121.877763 
L 561.341455 121.876651 
L 562.051636 121.672444 
L 562.761818 121.174944 
L 566.312727 120.92062 
L 567.022909 120.649799 
L 570.573818 120.545499 
L 571.284 120.40147 
L 572.704364 120.428221 
L 573.414545 120.150639 
L 574.834909 120.161496 
L 575.545091 119.835519 
L 589.748727 119.056878 
L 590.458909 118.75997 
L 592.589455 118.65874 
L 593.299636 118.178541 
L 595.430182 118.090291 
L 596.140364 117.561314 
L 596.850545 117.572832 
L 597.560727 117.449592 
L 598.270909 116.927502 
L 603.242182 116.540628 
L 604.662545 116.548869 
L 605.372727 115.933278 
L 607.503273 115.976536 
L 608.213455 115.701843 
L 610.344 115.708975 
L 611.054182 114.460966 
L 612.474545 114.473874 
L 613.184727 114.396313 
L 613.894909 114.089055 
L 614.605091 114.070544 
L 615.315273 113.420678 
L 616.025455 112.991231 
L 616.735636 113.053735 
L 618.156 112.749369 
L 620.996727 112.447533 
L 621.706909 112.05427 
L 625.968 112.037143 
L 628.098545 111.872466 
L 628.808727 111.884223 
L 629.518909 111.450084 
L 630.229091 111.426322 
L 630.939273 111.527391 
L 633.78 111.394269 
L 634.490182 111.089505 
L 636.620727 111.18774 
L 637.330909 110.929362 
L 642.302182 110.723125 
L 643.012364 109.976706 
L 647.273455 109.847626 
L 647.983636 109.69786 
L 648.693818 109.700353 
L 649.404 109.435936 
L 651.534545 109.128824 
L 652.954909 109.13798 
L 653.665091 108.93303 
L 654.375273 109.009833 
L 655.085455 108.398678 
L 656.505818 108.308764 
L 657.926182 108.289052 
L 658.636364 107.556018 
L 660.766909 107.564792 
L 661.477091 106.559355 
L 662.187273 106.279106 
L 663.607636 106.311573 
L 668.578909 105.653834 
L 671.419636 105.549287 
L 672.129818 105.190905 
L 673.550182 105.251945 
L 674.970545 105.227282 
L 675.680727 105.023119 
L 676.390909 104.672719 
L 677.811273 104.539283 
L 678.521455 104.240442 
L 679.231636 104.253552 
L 680.652 103.66607 
L 681.362182 103.687541 
L 682.782545 103.593215 
L 683.492727 103.586843 
L 684.202909 103.027907 
L 684.913091 103.030944 
L 685.623273 102.324429 
L 688.464 102.249693 
L 689.884364 102.190089 
L 692.014909 102.137649 
L 692.725091 101.665257 
L 694.855636 101.566288 
L 697.696364 100.910979 
L 698.406545 100.569617 
L 699.826909 100.478203 
L 701.957455 100.438176 
L 703.377818 100.27344 
L 704.088 100.06417 
L 705.508364 100.087702 
L 706.218545 100.013504 
L 706.928727 99.415602 
L 710.479636 99.061757 
L 711.189818 98.98812 
L 712.610182 98.721829 
L 713.320364 98.212905 
L 714.740727 98.155876 
L 715.450909 97.486444 
L 716.161091 97.508874 
L 717.581455 97.114038 
L 720.422182 97.086688 
L 721.132364 97.05763 
L 721.842545 96.773004 
L 722.552727 96.745899 
L 723.262909 96.839272 
L 723.973091 96.4322 
L 725.393455 96.405253 
L 726.813818 96.520971 
L 727.524 95.36054 
L 728.234182 94.95046 
L 729.654545 94.649382 
L 730.364727 94.713989 
L 731.074909 94.101179 
L 731.785091 93.300237 
L 732.495273 93.265555 
L 733.205455 92.796805 
L 733.915636 92.778298 
L 734.625818 92.290765 
L 736.756364 92.194286 
L 737.466545 91.709091 
L 738.176727 91.691309 
L 738.886909 91.48399 
L 740.307273 91.501767 
L 741.017455 91.222586 
L 741.727636 90.822148 
L 743.148 90.706609 
L 744.568364 89.566766 
L 746.698909 89.383545 
L 747.409091 89.023291 
L 748.829455 88.924747 
L 749.539636 88.517272 
L 750.249818 88.477761 
L 751.670182 88.070397 
L 752.380364 88.052566 
L 753.090545 87.430227 
L 755.221091 87.318691 
L 758.772 86.872549 
L 761.612727 86.864978 
L 762.322909 86.49906 
L 763.033091 86.436495 
L 763.743273 86.050871 
L 764.453455 85.942506 
L 765.163636 85.955187 
L 765.873818 85.850275 
L 766.584 85.88973 
L 767.294182 85.398015 
L 771.555273 85.081473 
L 772.265455 84.695202 
L 772.975636 84.660543 
L 773.685818 84.788128 
L 774.396 84.394712 
L 775.816364 84.236527 
L 776.526545 84.226452 
L 777.946909 83.670053 
L 778.657091 83.133348 
L 779.367273 83.085473 
L 780.077455 82.624706 
L 780.787636 82.560814 
L 782.918182 82.610103 
L 783.628364 82.599858 
L 784.338545 82.16218 
L 785.048727 82.2264 
L 785.758909 81.494176 
L 786.469091 81.394537 
L 787.889455 81.349417 
L 788.599636 81.119666 
L 790.02 81.014239 
L 790.730182 81.100749 
L 791.440364 80.930818 
L 792.150545 80.920314 
L 793.570909 80.707528 
L 794.281091 80.784375 
L 798.542182 80.385378 
L 799.252364 80.389738 
L 799.962545 78.624521 
L 802.803273 78.572715 
L 804.223636 78.231447 
L 804.933818 77.800255 
L 806.354182 77.764768 
L 807.774545 77.787381 
L 808.484727 77.626602 
L 809.194909 77.282432 
L 809.905091 77.341423 
L 810.615273 76.478238 
L 811.325455 76.297677 
L 812.745818 76.34301 
L 813.456 76.263061 
L 814.166182 75.847572 
L 816.296727 76.04203 
L 817.006909 75.48234 
L 818.427273 75.394838 
L 819.137455 74.822036 
L 824.108727 74.22835 
L 824.818909 74.245386 
L 825.529091 73.825123 
L 826.239273 73.827873 
L 826.949455 73.635192 
L 829.08 73.500205 
L 830.500364 73.039363 
L 831.210545 72.922702 
L 831.920727 72.216794 
L 832.630909 72.285323 
L 833.341091 72.015833 
L 836.181818 72.0504 
L 836.892 71.489457 
L 838.312364 71.45066 
L 839.022545 71.4403 
L 839.732727 71.308241 
L 841.863273 71.283855 
L 843.993818 71.007515 
L 844.704 70.994217 
L 845.414182 70.79611 
L 846.834545 70.811308 
L 848.254909 70.789877 
L 848.965091 70.501961 
L 851.805818 70.396862 
L 852.516 70.174997 
L 854.646545 69.945702 
L 856.777091 69.946814 
L 858.197455 69.740195 
L 859.617818 69.78133 
L 860.328 69.294523 
L 861.038182 69.351768 
L 861.748364 69.296105 
L 862.458545 68.996932 
L 863.878909 68.881594 
L 864.589091 68.490476 
L 867.429818 68.215582 
L 868.850182 67.634631 
L 870.270545 67.644931 
L 870.980727 67.140094 
L 871.690909 66.96 
L 871.690909 66.96 
" clip-path="url(#pcebd537f2d)" style="fill: none; stroke: #2ca02c; stroke-width: 1.5; stroke-linecap: square"/>
   </g>
   <g id="patch_3">
    <path d="M 126 384.48 
L 126 51.84 
" style="fill: none; stroke: #000000; stroke-width: 0.8; stroke-linejoin: miter; stroke-linecap: square"/>
   </g>
   <g id="patch_4">
    <path d="M 907.2 384.48 
L 907.2 51.84 
" style="fill: none; stroke: #000000; stroke-width: 0.8; stroke-linejoin: miter; stroke-linecap: square"/>
   </g>
   <g id="patch_5">
    <path d="M 126 384.48 
L 907.2 384.48 
" style="fill: none; stroke: #000000; stroke-width: 0.8; stroke-linejoin: miter; stroke-linecap: square"/>
   </g>
   <g id="patch_6">
    <path d="M 126 51.84 
L 907.2 51.84 
" style="fill: none; stroke: #000000; stroke-width: 0.8; stroke-linejoin: miter; stroke-linecap: square"/>
   </g>
   <g id="text_15">
    <!-- Quadratic Covariation of $X_t$ and $S_t$ -->
    <g transform="translate(414.54 45.84)scale(0.12 -0.12)">
     <defs>
      <path id="DejaVuSans-66" d="M 2375 4863 
L 2375 4384 
L 1825 4384 
Q 1516 4384 1395 4259 
Q 1275 4134 1275 3809 
L 1275 3500 
L 2222 3500 
L 2222 3053 
L 1275 3053 
L 1275 0 
L 697 0 
L 697 3053 
L 147 3053 
L 147 3500 
L 697 3500 
L 697 3744 
Q 697 4328 969 4595 
Q 1241 4863 1831 4863 
L 2375 4863 
z
" transform="scale(0.015625)"/>
      <path id="DejaVuSans-Oblique-58" d="M 878 4666 
L 1516 4666 
L 2316 2981 
L 3763 4666 
L 4500 4666 
L 2578 2438 
L 3738 0 
L 3103 0 
L 2163 1966 
L 459 0 
L -275 0 
L 1906 2509 
L 878 4666 
z
" transform="scale(0.015625)"/>
      <path id="DejaVuSans-Oblique-74" d="M 2706 3500 
L 2619 3053 
L 1472 3053 
L 1100 1153 
Q 1081 1047 1072 975 
Q 1063 903 1063 863 
Q 1063 663 1183 572 
Q 1303 481 1569 481 
L 2150 481 
L 2053 0 
L 1503 0 
Q 991 0 739 200 
Q 488 400 488 806 
Q 488 878 497 964 
Q 506 1050 525 1153 
L 897 3053 
L 409 3053 
L 500 3500 
L 978 3500 
L 1172 4494 
L 1747 4494 
L 1556 3500 
L 2706 3500 
z
" transform="scale(0.015625)"/>
      <path id="DejaVuSans-Oblique-53" d="M 3859 4513 
L 3738 3897 
Q 3422 4066 3111 4152 
Q 2800 4238 2509 4238 
Q 1944 4238 1609 3991 
Q 1275 3744 1275 3334 
Q 1275 3109 1398 2989 
Q 1522 2869 2034 2731 
L 2413 2638 
Q 3053 2472 3303 2217 
Q 3553 1963 3553 1503 
Q 3553 797 2998 353 
Q 2444 -91 1538 -91 
Q 1166 -91 791 -17 
Q 416 56 38 206 
L 166 856 
Q 513 641 861 531 
Q 1209 422 1556 422 
Q 2147 422 2503 684 
Q 2859 947 2859 1369 
Q 2859 1650 2717 1795 
Q 2575 1941 2106 2059 
L 1728 2156 
Q 1081 2325 845 2545 
Q 609 2766 609 3163 
Q 609 3859 1145 4304 
Q 1681 4750 2541 4750 
Q 2875 4750 3203 4690 
Q 3531 4631 3859 4513 
z
" transform="scale(0.015625)"/>
     </defs>
     <use xlink:href="#DejaVuSans-51" transform="translate(0 0.015625)"/>
     <use xlink:href="#DejaVuSans-75" transform="translate(78.710938 0.015625)"/>
     <use xlink:href="#DejaVuSans-61" transform="translate(142.089844 0.015625)"/>
     <use xlink:href="#DejaVuSans-64" transform="translate(203.369141 0.015625)"/>
     <use xlink:href="#DejaVuSans-72" transform="translate(266.845703 0.015625)"/>
     <use xlink:href="#DejaVuSans-61" transform="translate(307.958984 0.015625)"/>
     <use xlink:href="#DejaVuSans-74" transform="translate(369.238281 0.015625)"/>
     <use xlink:href="#DejaVuSans-69" transform="translate(408.447266 0.015625)"/>
     <use xlink:href="#DejaVuSans-63" transform="translate(436.230469 0.015625)"/>
     <use xlink:href="#DejaVuSans-20" transform="translate(491.210938 0.015625)"/>
     <use xlink:href="#DejaVuSans-43" transform="translate(522.998047 0.015625)"/>
     <use xlink:href="#DejaVuSans-6f" transform="translate(592.822266 0.015625)"/>
     <use xlink:href="#DejaVuSans-76" transform="translate(654.003906 0.015625)"/>
     <use xlink:href="#DejaVuSans-61" transform="translate(713.183594 0.015625)"/>
     <use xlink:href="#DejaVuSans-72" transform="translate(774.462891 0.015625)"/>
     <use xlink:href="#DejaVuSans-69" transform="translate(815.576172 0.015625)"/>
     <use xlink:href="#DejaVuSans-61" transform="translate(843.359375 0.015625)"/>
     <use xlink:href="#DejaVuSans-74" transform="translate(904.638672 0.015625)"/>
     <use xlink:href="#DejaVuSans-69" transform="translate(943.847656 0.015625)"/>
     <use xlink:href="#DejaVuSans-6f" transform="translate(971.630859 0.015625)"/>
     <use xlink:href="#DejaVuSans-6e" transform="translate(1032.8125 0.015625)"/>
     <use xlink:href="#DejaVuSans-20" transform="translate(1096.191406 0.015625)"/>
     <use xlink:href="#DejaVuSans-6f" transform="translate(1127.978516 0.015625)"/>
     <use xlink:href="#DejaVuSans-66" transform="translate(1189.160156 0.015625)"/>
     <use xlink:href="#DejaVuSans-20" transform="translate(1224.365234 0.015625)"/>
     <use xlink:href="#DejaVuSans-Oblique-58" transform="translate(1256.152344 0.015625)"/>
     <use xlink:href="#DejaVuSans-Oblique-74" transform="translate(1324.658203 -16.390625)scale(0.7)"/>
     <use xlink:href="#DejaVuSans-20" transform="translate(1354.838867 0.015625)"/>
     <use xlink:href="#DejaVuSans-61" transform="translate(1386.625977 0.015625)"/>
     <use xlink:href="#DejaVuSans-6e" transform="translate(1447.905273 0.015625)"/>
     <use xlink:href="#DejaVuSans-64" transform="translate(1511.28418 0.015625)"/>
     <use xlink:href="#DejaVuSans-20" transform="translate(1574.760742 0.015625)"/>
     <use xlink:href="#DejaVuSans-Oblique-53" transform="translate(1606.547852 0.015625)"/>
     <use xlink:href="#DejaVuSans-Oblique-74" transform="translate(1670.024414 -16.390625)scale(0.7)"/>
    </g>
   </g>
   <g id="legend_1">
    <g id="patch_7">
     <path d="M 133 103.874375 
L 335.1 103.874375 
Q 337.1 103.874375 337.1 101.874375 
L 337.1 58.84 
Q 337.1 56.84 335.1 56.84 
L 133 56.84 
Q 131 56.84 131 58.84 
L 131 101.874375 
Q 131 103.874375 133 103.874375 
z
" style="fill: #ffffff; opacity: 0.8; stroke: #cccccc; stroke-linejoin: miter"/>
    </g>
    <g id="line2d_16">
     <path d="M 135 64.938437 
L 145 64.938437 
L 155 64.938437 
" style="fill: none; stroke: #1f77b4; stroke-width: 1.5; stroke-linecap: square"/>
    </g>
    <g id="text_16">
     <!-- $X_t$ -->
     <g transform="translate(163 68.438437)scale(0.1 -0.1)">
      <use xlink:href="#DejaVuSans-Oblique-58" transform="translate(0 0.09375)"/>
      <use xlink:href="#DejaVuSans-Oblique-74" transform="translate(68.505859 -16.3125)scale(0.7)"/>
     </g>
    </g>
    <g id="line2d_17">
     <path d="M 135 79.616562 
L 145 79.616562 
L 155 79.616562 
" style="fill: none; stroke: #ff7f0e; stroke-width: 1.5; stroke-linecap: square"/>
    </g>
    <g id="text_17">
     <!-- $S_t$ -->
     <g transform="translate(163 83.116562)scale(0.1 -0.1)">
      <use xlink:href="#DejaVuSans-Oblique-53" transform="translate(0 0.78125)"/>
      <use xlink:href="#DejaVuSans-Oblique-74" transform="translate(63.476562 -15.625)scale(0.7)"/>
     </g>
    </g>
    <g id="line2d_18">
     <path d="M 135 94.294687 
L 145 94.294687 
L 155 94.294687 
" style="fill: none; stroke: #2ca02c; stroke-width: 1.5; stroke-linecap: square"/>
    </g>
    <g id="text_18">
     <!-- Quadratic Covariation of $X_t$ and $S_t$ -->
     <g transform="translate(163 97.794687)scale(0.1 -0.1)">
      <use xlink:href="#DejaVuSans-51" transform="translate(0 0.015625)"/>
      <use xlink:href="#DejaVuSans-75" transform="translate(78.710938 0.015625)"/>
      <use xlink:href="#DejaVuSans-61" transform="translate(142.089844 0.015625)"/>
      <use xlink:href="#DejaVuSans-64" transform="translate(203.369141 0.015625)"/>
      <use xlink:href="#DejaVuSans-72" transform="translate(266.845703 0.015625)"/>
      <use xlink:href="#DejaVuSans-61" transform="translate(307.958984 0.015625)"/>
      <use xlink:href="#DejaVuSans-74" transform="translate(369.238281 0.015625)"/>
      <use xlink:href="#DejaVuSans-69" transform="translate(408.447266 0.015625)"/>
      <use xlink:href="#DejaVuSans-63" transform="translate(436.230469 0.015625)"/>
      <use xlink:href="#DejaVuSans-20" transform="translate(491.210938 0.015625)"/>
      <use xlink:href="#DejaVuSans-43" transform="translate(522.998047 0.015625)"/>
      <use xlink:href="#DejaVuSans-6f" transform="translate(592.822266 0.015625)"/>
      <use xlink:href="#DejaVuSans-76" transform="translate(654.003906 0.015625)"/>
      <use xlink:href="#DejaVuSans-61" transform="translate(713.183594 0.015625)"/>
      <use xlink:href="#DejaVuSans-72" transform="translate(774.462891 0.015625)"/>
      <use xlink:href="#DejaVuSans-69" transform="translate(815.576172 0.015625)"/>
      <use xlink:href="#DejaVuSans-61" transform="translate(843.359375 0.015625)"/>
      <use xlink:href="#DejaVuSans-74" transform="translate(904.638672 0.015625)"/>
      <use xlink:href="#DejaVuSans-69" transform="translate(943.847656 0.015625)"/>
      <use xlink:href="#DejaVuSans-6f" transform="translate(971.630859 0.015625)"/>
      <use xlink:href="#DejaVuSans-6e" transform="translate(1032.8125 0.015625)"/>
      <use xlink:href="#DejaVuSans-20" transform="translate(1096.191406 0.015625)"/>
      <use xlink:href="#DejaVuSans-6f" transform="translate(1127.978516 0.015625)"/>
      <use xlink:href="#DejaVuSans-66" transform="translate(1189.160156 0.015625)"/>
      <use xlink:href="#DejaVuSans-20" transform="translate(1224.365234 0.015625)"/>
      <use xlink:href="#DejaVuSans-Oblique-58" transform="translate(1256.152344 0.015625)"/>
      <use xlink:href="#DejaVuSans-Oblique-74" transform="translate(1324.658203 -16.390625)scale(0.7)"/>
      <use xlink:href="#DejaVuSans-20" transform="translate(1354.838867 0.015625)"/>
      <use xlink:href="#DejaVuSans-61" transform="translate(1386.625977 0.015625)"/>
      <use xlink:href="#DejaVuSans-6e" transform="translate(1447.905273 0.015625)"/>
      <use xlink:href="#DejaVuSans-64" transform="translate(1511.28418 0.015625)"/>
      <use xlink:href="#DejaVuSans-20" transform="translate(1574.760742 0.015625)"/>
      <use xlink:href="#DejaVuSans-Oblique-53" transform="translate(1606.547852 0.015625)"/>
      <use xlink:href="#DejaVuSans-Oblique-74" transform="translate(1670.024414 -16.390625)scale(0.7)"/>
     </g>
    </g>
   </g>
  </g>
 </g>
 <defs>
  <clipPath id="pcebd537f2d">
   <rect x="126" y="51.84" width="781.2" height="332.64"/>
  </clipPath>
 </defs>
</svg>
