<?xml version="1.0" encoding="utf-8" standalone="no"?>
<!DOCTYPE svg PUBLIC "-//W3C//DTD SVG 1.1//EN"
  "http://www.w3.org/Graphics/SVG/1.1/DTD/svg11.dtd">
<svg xmlns:xlink="http://www.w3.org/1999/xlink" width="1008pt" height="432pt" viewBox="0 0 1008 432" xmlns="http://www.w3.org/2000/svg" version="1.1">
 <metadata>
  <rdf:RDF xmlns:dc="http://purl.org/dc/elements/1.1/" xmlns:cc="http://creativecommons.org/ns#" xmlns:rdf="http://www.w3.org/1999/02/22-rdf-syntax-ns#">
   <cc:Work>
    <dc:type rdf:resource="http://purl.org/dc/dcmitype/StillImage"/>
    <dc:date>2023-12-22T17:12:33.250793</dc:date>
    <dc:format>image/svg+xml</dc:format>
    <dc:creator>
     <cc:Agent>
      <dc:title>Matplotlib v3.5.2, https://matplotlib.org/</dc:title>
     </cc:Agent>
    </dc:creator>
   </cc:Work>
  </rdf:RDF>
 </metadata>
 <defs>
  <style type="text/css">*{stroke-linejoin: round; stroke-linecap: butt}</style>
 </defs>
 <g id="figure_1">
  <g id="patch_1">
   <path d="M 0 432 
L 1008 432 
L 1008 0 
L 0 0 
z
" style="fill: #ffffff"/>
  </g>
  <g id="axes_1">
   <g id="patch_2">
    <path d="M 126 384.48 
L 907.2 384.48 
L 907.2 51.84 
L 126 51.84 
z
" style="fill: #ffffff"/>
   </g>
   <g id="matplotlib.axis_1">
    <g id="xtick_1">
     <g id="line2d_1">
      <defs>
       <path id="m22430f4c8f" d="M 0 0 
L 0 3.5 
" style="stroke: #000000; stroke-width: 0.8"/>
      </defs>
      <g>
       <use xlink:href="#m22430f4c8f" x="161.509091" y="384.48" style="stroke: #000000; stroke-width: 0.8"/>
      </g>
     </g>
     <g id="text_1">
      <!-- 0.0 -->
      <g transform="translate(153.557528 399.078438)scale(0.1 -0.1)">
       <defs>
        <path id="DejaVuSans-30" d="M 2034 4250 
Q 1547 4250 1301 3770 
Q 1056 3291 1056 2328 
Q 1056 1369 1301 889 
Q 1547 409 2034 409 
Q 2525 409 2770 889 
Q 3016 1369 3016 2328 
Q 3016 3291 2770 3770 
Q 2525 4250 2034 4250 
z
M 2034 4750 
Q 2819 4750 3233 4129 
Q 3647 3509 3647 2328 
Q 3647 1150 3233 529 
Q 2819 -91 2034 -91 
Q 1250 -91 836 529 
Q 422 1150 422 2328 
Q 422 3509 836 4129 
Q 1250 4750 2034 4750 
z
" transform="scale(0.015625)"/>
        <path id="DejaVuSans-2e" d="M 684 794 
L 1344 794 
L 1344 0 
L 684 0 
L 684 794 
z
" transform="scale(0.015625)"/>
       </defs>
       <use xlink:href="#DejaVuSans-30"/>
       <use xlink:href="#DejaVuSans-2e" x="63.623047"/>
       <use xlink:href="#DejaVuSans-30" x="95.410156"/>
      </g>
     </g>
    </g>
    <g id="xtick_2">
     <g id="line2d_2">
      <g>
       <use xlink:href="#m22430f4c8f" x="303.545455" y="384.48" style="stroke: #000000; stroke-width: 0.8"/>
      </g>
     </g>
     <g id="text_2">
      <!-- 0.2 -->
      <g transform="translate(295.593892 399.078438)scale(0.1 -0.1)">
       <defs>
        <path id="DejaVuSans-32" d="M 1228 531 
L 3431 531 
L 3431 0 
L 469 0 
L 469 531 
Q 828 903 1448 1529 
Q 2069 2156 2228 2338 
Q 2531 2678 2651 2914 
Q 2772 3150 2772 3378 
Q 2772 3750 2511 3984 
Q 2250 4219 1831 4219 
Q 1534 4219 1204 4116 
Q 875 4013 500 3803 
L 500 4441 
Q 881 4594 1212 4672 
Q 1544 4750 1819 4750 
Q 2544 4750 2975 4387 
Q 3406 4025 3406 3419 
Q 3406 3131 3298 2873 
Q 3191 2616 2906 2266 
Q 2828 2175 2409 1742 
Q 1991 1309 1228 531 
z
" transform="scale(0.015625)"/>
       </defs>
       <use xlink:href="#DejaVuSans-30"/>
       <use xlink:href="#DejaVuSans-2e" x="63.623047"/>
       <use xlink:href="#DejaVuSans-32" x="95.410156"/>
      </g>
     </g>
    </g>
    <g id="xtick_3">
     <g id="line2d_3">
      <g>
       <use xlink:href="#m22430f4c8f" x="445.581818" y="384.48" style="stroke: #000000; stroke-width: 0.8"/>
      </g>
     </g>
     <g id="text_3">
      <!-- 0.4 -->
      <g transform="translate(437.630256 399.078438)scale(0.1 -0.1)">
       <defs>
        <path id="DejaVuSans-34" d="M 2419 4116 
L 825 1625 
L 2419 1625 
L 2419 4116 
z
M 2253 4666 
L 3047 4666 
L 3047 1625 
L 3713 1625 
L 3713 1100 
L 3047 1100 
L 3047 0 
L 2419 0 
L 2419 1100 
L 313 1100 
L 313 1709 
L 2253 4666 
z
" transform="scale(0.015625)"/>
       </defs>
       <use xlink:href="#DejaVuSans-30"/>
       <use xlink:href="#DejaVuSans-2e" x="63.623047"/>
       <use xlink:href="#DejaVuSans-34" x="95.410156"/>
      </g>
     </g>
    </g>
    <g id="xtick_4">
     <g id="line2d_4">
      <g>
       <use xlink:href="#m22430f4c8f" x="587.618182" y="384.48" style="stroke: #000000; stroke-width: 0.8"/>
      </g>
     </g>
     <g id="text_4">
      <!-- 0.6 -->
      <g transform="translate(579.666619 399.078438)scale(0.1 -0.1)">
       <defs>
        <path id="DejaVuSans-36" d="M 2113 2584 
Q 1688 2584 1439 2293 
Q 1191 2003 1191 1497 
Q 1191 994 1439 701 
Q 1688 409 2113 409 
Q 2538 409 2786 701 
Q 3034 994 3034 1497 
Q 3034 2003 2786 2293 
Q 2538 2584 2113 2584 
z
M 3366 4563 
L 3366 3988 
Q 3128 4100 2886 4159 
Q 2644 4219 2406 4219 
Q 1781 4219 1451 3797 
Q 1122 3375 1075 2522 
Q 1259 2794 1537 2939 
Q 1816 3084 2150 3084 
Q 2853 3084 3261 2657 
Q 3669 2231 3669 1497 
Q 3669 778 3244 343 
Q 2819 -91 2113 -91 
Q 1303 -91 875 529 
Q 447 1150 447 2328 
Q 447 3434 972 4092 
Q 1497 4750 2381 4750 
Q 2619 4750 2861 4703 
Q 3103 4656 3366 4563 
z
" transform="scale(0.015625)"/>
       </defs>
       <use xlink:href="#DejaVuSans-30"/>
       <use xlink:href="#DejaVuSans-2e" x="63.623047"/>
       <use xlink:href="#DejaVuSans-36" x="95.410156"/>
      </g>
     </g>
    </g>
    <g id="xtick_5">
     <g id="line2d_5">
      <g>
       <use xlink:href="#m22430f4c8f" x="729.654545" y="384.48" style="stroke: #000000; stroke-width: 0.8"/>
      </g>
     </g>
     <g id="text_5">
      <!-- 0.8 -->
      <g transform="translate(721.702983 399.078438)scale(0.1 -0.1)">
       <defs>
        <path id="DejaVuSans-38" d="M 2034 2216 
Q 1584 2216 1326 1975 
Q 1069 1734 1069 1313 
Q 1069 891 1326 650 
Q 1584 409 2034 409 
Q 2484 409 2743 651 
Q 3003 894 3003 1313 
Q 3003 1734 2745 1975 
Q 2488 2216 2034 2216 
z
M 1403 2484 
Q 997 2584 770 2862 
Q 544 3141 544 3541 
Q 544 4100 942 4425 
Q 1341 4750 2034 4750 
Q 2731 4750 3128 4425 
Q 3525 4100 3525 3541 
Q 3525 3141 3298 2862 
Q 3072 2584 2669 2484 
Q 3125 2378 3379 2068 
Q 3634 1759 3634 1313 
Q 3634 634 3220 271 
Q 2806 -91 2034 -91 
Q 1263 -91 848 271 
Q 434 634 434 1313 
Q 434 1759 690 2068 
Q 947 2378 1403 2484 
z
M 1172 3481 
Q 1172 3119 1398 2916 
Q 1625 2713 2034 2713 
Q 2441 2713 2670 2916 
Q 2900 3119 2900 3481 
Q 2900 3844 2670 4047 
Q 2441 4250 2034 4250 
Q 1625 4250 1398 4047 
Q 1172 3844 1172 3481 
z
" transform="scale(0.015625)"/>
       </defs>
       <use xlink:href="#DejaVuSans-30"/>
       <use xlink:href="#DejaVuSans-2e" x="63.623047"/>
       <use xlink:href="#DejaVuSans-38" x="95.410156"/>
      </g>
     </g>
    </g>
    <g id="xtick_6">
     <g id="line2d_6">
      <g>
       <use xlink:href="#m22430f4c8f" x="871.690909" y="384.48" style="stroke: #000000; stroke-width: 0.8"/>
      </g>
     </g>
     <g id="text_6">
      <!-- 1.0 -->
      <g transform="translate(863.739347 399.078438)scale(0.1 -0.1)">
       <defs>
        <path id="DejaVuSans-31" d="M 794 531 
L 1825 531 
L 1825 4091 
L 703 3866 
L 703 4441 
L 1819 4666 
L 2450 4666 
L 2450 531 
L 3481 531 
L 3481 0 
L 794 0 
L 794 531 
z
" transform="scale(0.015625)"/>
       </defs>
       <use xlink:href="#DejaVuSans-31"/>
       <use xlink:href="#DejaVuSans-2e" x="63.623047"/>
       <use xlink:href="#DejaVuSans-30" x="95.410156"/>
      </g>
     </g>
    </g>
    <g id="text_7">
     <!-- Time -->
     <g transform="translate(504.366406 412.756563)scale(0.1 -0.1)">
      <defs>
       <path id="DejaVuSans-54" d="M -19 4666 
L 3928 4666 
L 3928 4134 
L 2272 4134 
L 2272 0 
L 1638 0 
L 1638 4134 
L -19 4134 
L -19 4666 
z
" transform="scale(0.015625)"/>
       <path id="DejaVuSans-69" d="M 603 3500 
L 1178 3500 
L 1178 0 
L 603 0 
L 603 3500 
z
M 603 4863 
L 1178 4863 
L 1178 4134 
L 603 4134 
L 603 4863 
z
" transform="scale(0.015625)"/>
       <path id="DejaVuSans-6d" d="M 3328 2828 
Q 3544 3216 3844 3400 
Q 4144 3584 4550 3584 
Q 5097 3584 5394 3201 
Q 5691 2819 5691 2113 
L 5691 0 
L 5113 0 
L 5113 2094 
Q 5113 2597 4934 2840 
Q 4756 3084 4391 3084 
Q 3944 3084 3684 2787 
Q 3425 2491 3425 1978 
L 3425 0 
L 2847 0 
L 2847 2094 
Q 2847 2600 2669 2842 
Q 2491 3084 2119 3084 
Q 1678 3084 1418 2786 
Q 1159 2488 1159 1978 
L 1159 0 
L 581 0 
L 581 3500 
L 1159 3500 
L 1159 2956 
Q 1356 3278 1631 3431 
Q 1906 3584 2284 3584 
Q 2666 3584 2933 3390 
Q 3200 3197 3328 2828 
z
" transform="scale(0.015625)"/>
       <path id="DejaVuSans-65" d="M 3597 1894 
L 3597 1613 
L 953 1613 
Q 991 1019 1311 708 
Q 1631 397 2203 397 
Q 2534 397 2845 478 
Q 3156 559 3463 722 
L 3463 178 
Q 3153 47 2828 -22 
Q 2503 -91 2169 -91 
Q 1331 -91 842 396 
Q 353 884 353 1716 
Q 353 2575 817 3079 
Q 1281 3584 2069 3584 
Q 2775 3584 3186 3129 
Q 3597 2675 3597 1894 
z
M 3022 2063 
Q 3016 2534 2758 2815 
Q 2500 3097 2075 3097 
Q 1594 3097 1305 2825 
Q 1016 2553 972 2059 
L 3022 2063 
z
" transform="scale(0.015625)"/>
      </defs>
      <use xlink:href="#DejaVuSans-54"/>
      <use xlink:href="#DejaVuSans-69" x="57.958984"/>
      <use xlink:href="#DejaVuSans-6d" x="85.742188"/>
      <use xlink:href="#DejaVuSans-65" x="183.154297"/>
     </g>
    </g>
   </g>
   <g id="matplotlib.axis_2">
    <g id="ytick_1">
     <g id="line2d_7">
      <defs>
       <path id="meca08ab7f9" d="M 0 0 
L -3.5 0 
" style="stroke: #000000; stroke-width: 0.8"/>
      </defs>
      <g>
       <use xlink:href="#meca08ab7f9" x="126" y="369.501542" style="stroke: #000000; stroke-width: 0.8"/>
      </g>
     </g>
     <g id="text_8">
      <!-- 0 -->
      <g transform="translate(112.6375 373.300761)scale(0.1 -0.1)">
       <use xlink:href="#DejaVuSans-30"/>
      </g>
     </g>
    </g>
    <g id="ytick_2">
     <g id="line2d_8">
      <g>
       <use xlink:href="#meca08ab7f9" x="126" y="316.852549" style="stroke: #000000; stroke-width: 0.8"/>
      </g>
     </g>
     <g id="text_9">
      <!-- 1 -->
      <g transform="translate(112.6375 320.651768)scale(0.1 -0.1)">
       <use xlink:href="#DejaVuSans-31"/>
      </g>
     </g>
    </g>
    <g id="ytick_3">
     <g id="line2d_9">
      <g>
       <use xlink:href="#meca08ab7f9" x="126" y="264.203557" style="stroke: #000000; stroke-width: 0.8"/>
      </g>
     </g>
     <g id="text_10">
      <!-- 2 -->
      <g transform="translate(112.6375 268.002775)scale(0.1 -0.1)">
       <use xlink:href="#DejaVuSans-32"/>
      </g>
     </g>
    </g>
    <g id="ytick_4">
     <g id="line2d_10">
      <g>
       <use xlink:href="#meca08ab7f9" x="126" y="211.554564" style="stroke: #000000; stroke-width: 0.8"/>
      </g>
     </g>
     <g id="text_11">
      <!-- 3 -->
      <g transform="translate(112.6375 215.353782)scale(0.1 -0.1)">
       <defs>
        <path id="DejaVuSans-33" d="M 2597 2516 
Q 3050 2419 3304 2112 
Q 3559 1806 3559 1356 
Q 3559 666 3084 287 
Q 2609 -91 1734 -91 
Q 1441 -91 1130 -33 
Q 819 25 488 141 
L 488 750 
Q 750 597 1062 519 
Q 1375 441 1716 441 
Q 2309 441 2620 675 
Q 2931 909 2931 1356 
Q 2931 1769 2642 2001 
Q 2353 2234 1838 2234 
L 1294 2234 
L 1294 2753 
L 1863 2753 
Q 2328 2753 2575 2939 
Q 2822 3125 2822 3475 
Q 2822 3834 2567 4026 
Q 2313 4219 1838 4219 
Q 1578 4219 1281 4162 
Q 984 4106 628 3988 
L 628 4550 
Q 988 4650 1302 4700 
Q 1616 4750 1894 4750 
Q 2613 4750 3031 4423 
Q 3450 4097 3450 3541 
Q 3450 3153 3228 2886 
Q 3006 2619 2597 2516 
z
" transform="scale(0.015625)"/>
       </defs>
       <use xlink:href="#DejaVuSans-33"/>
      </g>
     </g>
    </g>
    <g id="ytick_5">
     <g id="line2d_11">
      <g>
       <use xlink:href="#meca08ab7f9" x="126" y="158.905571" style="stroke: #000000; stroke-width: 0.8"/>
      </g>
     </g>
     <g id="text_12">
      <!-- 4 -->
      <g transform="translate(112.6375 162.704789)scale(0.1 -0.1)">
       <use xlink:href="#DejaVuSans-34"/>
      </g>
     </g>
    </g>
    <g id="ytick_6">
     <g id="line2d_12">
      <g>
       <use xlink:href="#meca08ab7f9" x="126" y="106.256578" style="stroke: #000000; stroke-width: 0.8"/>
      </g>
     </g>
     <g id="text_13">
      <!-- 5 -->
      <g transform="translate(112.6375 110.055796)scale(0.1 -0.1)">
       <defs>
        <path id="DejaVuSans-35" d="M 691 4666 
L 3169 4666 
L 3169 4134 
L 1269 4134 
L 1269 2991 
Q 1406 3038 1543 3061 
Q 1681 3084 1819 3084 
Q 2600 3084 3056 2656 
Q 3513 2228 3513 1497 
Q 3513 744 3044 326 
Q 2575 -91 1722 -91 
Q 1428 -91 1123 -41 
Q 819 9 494 109 
L 494 744 
Q 775 591 1075 516 
Q 1375 441 1709 441 
Q 2250 441 2565 725 
Q 2881 1009 2881 1497 
Q 2881 1984 2565 2268 
Q 2250 2553 1709 2553 
Q 1456 2553 1204 2497 
Q 953 2441 691 2322 
L 691 4666 
z
" transform="scale(0.015625)"/>
       </defs>
       <use xlink:href="#DejaVuSans-35"/>
      </g>
     </g>
    </g>
    <g id="ytick_7">
     <g id="line2d_13">
      <g>
       <use xlink:href="#meca08ab7f9" x="126" y="53.607585" style="stroke: #000000; stroke-width: 0.8"/>
      </g>
     </g>
     <g id="text_14">
      <!-- 6 -->
      <g transform="translate(112.6375 57.406803)scale(0.1 -0.1)">
       <use xlink:href="#DejaVuSans-36"/>
      </g>
     </g>
    </g>
    <g id="text_15">
     <!-- Quadratic Covariation -->
     <g transform="translate(106.557812 272.970156)rotate(-90)scale(0.1 -0.1)">
      <defs>
       <path id="DejaVuSans-51" d="M 2522 4238 
Q 1834 4238 1429 3725 
Q 1025 3213 1025 2328 
Q 1025 1447 1429 934 
Q 1834 422 2522 422 
Q 3209 422 3611 934 
Q 4013 1447 4013 2328 
Q 4013 3213 3611 3725 
Q 3209 4238 2522 4238 
z
M 3406 84 
L 4238 -825 
L 3475 -825 
L 2784 -78 
Q 2681 -84 2626 -87 
Q 2572 -91 2522 -91 
Q 1538 -91 948 567 
Q 359 1225 359 2328 
Q 359 3434 948 4092 
Q 1538 4750 2522 4750 
Q 3503 4750 4090 4092 
Q 4678 3434 4678 2328 
Q 4678 1516 4351 937 
Q 4025 359 3406 84 
z
" transform="scale(0.015625)"/>
       <path id="DejaVuSans-75" d="M 544 1381 
L 544 3500 
L 1119 3500 
L 1119 1403 
Q 1119 906 1312 657 
Q 1506 409 1894 409 
Q 2359 409 2629 706 
Q 2900 1003 2900 1516 
L 2900 3500 
L 3475 3500 
L 3475 0 
L 2900 0 
L 2900 538 
Q 2691 219 2414 64 
Q 2138 -91 1772 -91 
Q 1169 -91 856 284 
Q 544 659 544 1381 
z
M 1991 3584 
L 1991 3584 
z
" transform="scale(0.015625)"/>
       <path id="DejaVuSans-61" d="M 2194 1759 
Q 1497 1759 1228 1600 
Q 959 1441 959 1056 
Q 959 750 1161 570 
Q 1363 391 1709 391 
Q 2188 391 2477 730 
Q 2766 1069 2766 1631 
L 2766 1759 
L 2194 1759 
z
M 3341 1997 
L 3341 0 
L 2766 0 
L 2766 531 
Q 2569 213 2275 61 
Q 1981 -91 1556 -91 
Q 1019 -91 701 211 
Q 384 513 384 1019 
Q 384 1609 779 1909 
Q 1175 2209 1959 2209 
L 2766 2209 
L 2766 2266 
Q 2766 2663 2505 2880 
Q 2244 3097 1772 3097 
Q 1472 3097 1187 3025 
Q 903 2953 641 2809 
L 641 3341 
Q 956 3463 1253 3523 
Q 1550 3584 1831 3584 
Q 2591 3584 2966 3190 
Q 3341 2797 3341 1997 
z
" transform="scale(0.015625)"/>
       <path id="DejaVuSans-64" d="M 2906 2969 
L 2906 4863 
L 3481 4863 
L 3481 0 
L 2906 0 
L 2906 525 
Q 2725 213 2448 61 
Q 2172 -91 1784 -91 
Q 1150 -91 751 415 
Q 353 922 353 1747 
Q 353 2572 751 3078 
Q 1150 3584 1784 3584 
Q 2172 3584 2448 3432 
Q 2725 3281 2906 2969 
z
M 947 1747 
Q 947 1113 1208 752 
Q 1469 391 1925 391 
Q 2381 391 2643 752 
Q 2906 1113 2906 1747 
Q 2906 2381 2643 2742 
Q 2381 3103 1925 3103 
Q 1469 3103 1208 2742 
Q 947 2381 947 1747 
z
" transform="scale(0.015625)"/>
       <path id="DejaVuSans-72" d="M 2631 2963 
Q 2534 3019 2420 3045 
Q 2306 3072 2169 3072 
Q 1681 3072 1420 2755 
Q 1159 2438 1159 1844 
L 1159 0 
L 581 0 
L 581 3500 
L 1159 3500 
L 1159 2956 
Q 1341 3275 1631 3429 
Q 1922 3584 2338 3584 
Q 2397 3584 2469 3576 
Q 2541 3569 2628 3553 
L 2631 2963 
z
" transform="scale(0.015625)"/>
       <path id="DejaVuSans-74" d="M 1172 4494 
L 1172 3500 
L 2356 3500 
L 2356 3053 
L 1172 3053 
L 1172 1153 
Q 1172 725 1289 603 
Q 1406 481 1766 481 
L 2356 481 
L 2356 0 
L 1766 0 
Q 1100 0 847 248 
Q 594 497 594 1153 
L 594 3053 
L 172 3053 
L 172 3500 
L 594 3500 
L 594 4494 
L 1172 4494 
z
" transform="scale(0.015625)"/>
       <path id="DejaVuSans-63" d="M 3122 3366 
L 3122 2828 
Q 2878 2963 2633 3030 
Q 2388 3097 2138 3097 
Q 1578 3097 1268 2742 
Q 959 2388 959 1747 
Q 959 1106 1268 751 
Q 1578 397 2138 397 
Q 2388 397 2633 464 
Q 2878 531 3122 666 
L 3122 134 
Q 2881 22 2623 -34 
Q 2366 -91 2075 -91 
Q 1284 -91 818 406 
Q 353 903 353 1747 
Q 353 2603 823 3093 
Q 1294 3584 2113 3584 
Q 2378 3584 2631 3529 
Q 2884 3475 3122 3366 
z
" transform="scale(0.015625)"/>
       <path id="DejaVuSans-20" transform="scale(0.015625)"/>
       <path id="DejaVuSans-43" d="M 4122 4306 
L 4122 3641 
Q 3803 3938 3442 4084 
Q 3081 4231 2675 4231 
Q 1875 4231 1450 3742 
Q 1025 3253 1025 2328 
Q 1025 1406 1450 917 
Q 1875 428 2675 428 
Q 3081 428 3442 575 
Q 3803 722 4122 1019 
L 4122 359 
Q 3791 134 3420 21 
Q 3050 -91 2638 -91 
Q 1578 -91 968 557 
Q 359 1206 359 2328 
Q 359 3453 968 4101 
Q 1578 4750 2638 4750 
Q 3056 4750 3426 4639 
Q 3797 4528 4122 4306 
z
" transform="scale(0.015625)"/>
       <path id="DejaVuSans-6f" d="M 1959 3097 
Q 1497 3097 1228 2736 
Q 959 2375 959 1747 
Q 959 1119 1226 758 
Q 1494 397 1959 397 
Q 2419 397 2687 759 
Q 2956 1122 2956 1747 
Q 2956 2369 2687 2733 
Q 2419 3097 1959 3097 
z
M 1959 3584 
Q 2709 3584 3137 3096 
Q 3566 2609 3566 1747 
Q 3566 888 3137 398 
Q 2709 -91 1959 -91 
Q 1206 -91 779 398 
Q 353 888 353 1747 
Q 353 2609 779 3096 
Q 1206 3584 1959 3584 
z
" transform="scale(0.015625)"/>
       <path id="DejaVuSans-76" d="M 191 3500 
L 800 3500 
L 1894 563 
L 2988 3500 
L 3597 3500 
L 2284 0 
L 1503 0 
L 191 3500 
z
" transform="scale(0.015625)"/>
       <path id="DejaVuSans-6e" d="M 3513 2113 
L 3513 0 
L 2938 0 
L 2938 2094 
Q 2938 2591 2744 2837 
Q 2550 3084 2163 3084 
Q 1697 3084 1428 2787 
Q 1159 2491 1159 1978 
L 1159 0 
L 581 0 
L 581 3500 
L 1159 3500 
L 1159 2956 
Q 1366 3272 1645 3428 
Q 1925 3584 2291 3584 
Q 2894 3584 3203 3211 
Q 3513 2838 3513 2113 
z
" transform="scale(0.015625)"/>
      </defs>
      <use xlink:href="#DejaVuSans-51"/>
      <use xlink:href="#DejaVuSans-75" x="78.710938"/>
      <use xlink:href="#DejaVuSans-61" x="142.089844"/>
      <use xlink:href="#DejaVuSans-64" x="203.369141"/>
      <use xlink:href="#DejaVuSans-72" x="266.845703"/>
      <use xlink:href="#DejaVuSans-61" x="307.958984"/>
      <use xlink:href="#DejaVuSans-74" x="369.238281"/>
      <use xlink:href="#DejaVuSans-69" x="408.447266"/>
      <use xlink:href="#DejaVuSans-63" x="436.230469"/>
      <use xlink:href="#DejaVuSans-20" x="491.210938"/>
      <use xlink:href="#DejaVuSans-43" x="522.998047"/>
      <use xlink:href="#DejaVuSans-6f" x="592.822266"/>
      <use xlink:href="#DejaVuSans-76" x="654.003906"/>
      <use xlink:href="#DejaVuSans-61" x="713.183594"/>
      <use xlink:href="#DejaVuSans-72" x="774.462891"/>
      <use xlink:href="#DejaVuSans-69" x="815.576172"/>
      <use xlink:href="#DejaVuSans-61" x="843.359375"/>
      <use xlink:href="#DejaVuSans-74" x="904.638672"/>
      <use xlink:href="#DejaVuSans-69" x="943.847656"/>
      <use xlink:href="#DejaVuSans-6f" x="971.630859"/>
      <use xlink:href="#DejaVuSans-6e" x="1032.8125"/>
     </g>
    </g>
   </g>
   <g id="line2d_14">
    <path d="M 161.509091 106.256578 
L 162.219273 103.941186 
L 162.929455 104.615898 
L 163.639636 105.820321 
L 164.349818 105.482813 
L 165.06 106.53883 
L 165.770182 110.054396 
L 166.480364 110.593045 
L 167.190545 111.980981 
L 167.900727 111.940672 
L 169.321091 114.04958 
L 170.031273 110.907449 
L 170.741455 109.421122 
L 171.451636 109.880552 
L 172.161818 108.254088 
L 173.582182 103.331837 
L 174.292364 101.784473 
L 175.002545 101.281879 
L 175.712727 101.197219 
L 176.422909 101.698411 
L 177.133091 100.737255 
L 177.843273 103.737143 
L 178.553455 105.291452 
L 179.973818 106.150254 
L 180.684 106.370881 
L 181.394182 107.151642 
L 182.104364 107.714972 
L 182.814545 106.591139 
L 183.524727 106.420059 
L 184.234909 108.127116 
L 184.945091 109.382978 
L 185.655273 106.990879 
L 186.365455 105.143043 
L 187.075636 102.268918 
L 187.785818 104.569836 
L 188.496 103.742263 
L 189.206182 102.280028 
L 189.916364 103.433621 
L 190.626545 102.409698 
L 191.336727 102.804333 
L 192.046909 103.648396 
L 192.757091 101.764343 
L 193.467273 102.324326 
L 194.177455 100.096769 
L 194.887636 99.85843 
L 195.597818 97.939347 
L 196.308 95.391772 
L 197.018182 96.488475 
L 198.438545 93.512394 
L 199.148727 93.477377 
L 199.858909 93.037062 
L 200.569091 93.32681 
L 201.279273 92.727426 
L 201.989455 93.588995 
L 202.699636 92.962002 
L 203.409818 91.837642 
L 204.12 92.235901 
L 205.540364 97.687672 
L 206.250545 94.660892 
L 206.960727 92.331798 
L 208.381091 96.01496 
L 209.091273 94.495915 
L 209.801455 98.987769 
L 210.511636 99.380907 
L 211.221818 99.337248 
L 211.932 99.157099 
L 213.352364 101.468627 
L 214.062545 104.398508 
L 214.772727 102.089115 
L 215.482909 100.527401 
L 216.193091 103.052839 
L 216.903273 102.45362 
L 218.323636 105.76249 
L 219.033818 105.032208 
L 219.744 106.06205 
L 220.454182 107.805973 
L 221.164364 107.632097 
L 221.874545 111.306189 
L 222.584727 112.140857 
L 224.005091 110.285347 
L 225.425455 107.285342 
L 226.135636 107.423162 
L 226.845818 108.51323 
L 227.556 108.548444 
L 228.266182 108.059238 
L 228.976364 105.081908 
L 229.686545 104.722111 
L 230.396727 104.610208 
L 231.106909 100.886563 
L 231.817091 101.227325 
L 233.237455 98.093515 
L 233.947636 99.325642 
L 235.368 96.707096 
L 236.078182 96.053146 
L 236.788364 98.4577 
L 237.498545 96.680873 
L 238.208727 99.887624 
L 238.918909 100.4126 
L 239.629091 100.119623 
L 240.339273 102.629166 
L 241.049455 107.10147 
L 241.759636 108.150956 
L 242.469818 108.346792 
L 243.18 107.804949 
L 244.600364 105.989068 
L 245.310545 107.198739 
L 246.730909 108.92499 
L 247.441091 108.740451 
L 248.151273 110.426436 
L 248.861455 110.849566 
L 249.571636 114.240337 
L 250.281818 115.296591 
L 250.992 113.491002 
L 251.702182 115.80951 
L 252.412364 117.638303 
L 253.832727 115.798144 
L 254.542909 115.960484 
L 255.253091 114.677556 
L 255.963273 111.515722 
L 256.673455 113.672005 
L 257.383636 115.326809 
L 258.093818 114.74886 
L 259.514182 120.260585 
L 260.224364 117.67953 
L 261.644727 121.710819 
L 262.354909 120.794036 
L 263.065091 121.110678 
L 263.775273 123.676693 
L 264.485455 122.139092 
L 265.195636 122.197037 
L 265.905818 124.912364 
L 266.616 124.442703 
L 267.326182 124.396774 
L 268.036364 125.101145 
L 268.746545 127.591056 
L 269.456727 128.593778 
L 270.166909 127.626721 
L 270.877091 127.183278 
L 271.587273 127.441329 
L 272.297455 126.980606 
L 273.007636 127.018271 
L 273.717818 128.150087 
L 274.428 127.252684 
L 275.138182 128.833152 
L 275.848364 128.51206 
L 276.558545 128.746159 
L 277.268727 128.215255 
L 277.978909 130.585249 
L 278.689091 129.535044 
L 279.399273 127.635986 
L 280.109455 127.222637 
L 280.819636 127.945292 
L 281.529818 128.016315 
L 282.24 128.794039 
L 283.660364 130.775212 
L 284.370545 130.563631 
L 285.080727 128.831721 
L 285.790909 131.74963 
L 286.501091 133.494374 
L 287.211273 133.977193 
L 287.921455 132.776388 
L 288.631636 132.358284 
L 289.341818 131.536674 
L 290.762182 135.177164 
L 291.472364 134.562132 
L 293.602909 135.974348 
L 294.313091 135.078184 
L 295.023273 132.40731 
L 295.733455 130.3125 
L 296.443636 130.873541 
L 297.153818 132.491112 
L 297.864 131.84924 
L 299.284364 130.133728 
L 299.994545 131.160562 
L 300.704727 130.609697 
L 301.414909 133.122253 
L 302.125091 130.464648 
L 302.835273 132.463783 
L 303.545455 131.034202 
L 304.255636 133.804848 
L 305.676 133.088303 
L 306.386182 133.88111 
L 307.096364 135.758506 
L 307.806545 137.041995 
L 308.516727 136.826287 
L 309.226909 136.823497 
L 309.937091 133.30453 
L 310.647273 133.100247 
L 311.357455 136.180876 
L 312.067636 137.489877 
L 312.777818 137.125023 
L 313.488 136.500916 
L 314.198182 137.162739 
L 314.908364 134.821714 
L 315.618545 137.745133 
L 316.328727 137.144722 
L 317.038909 136.130817 
L 317.749091 137.614498 
L 318.459273 134.814618 
L 319.169455 135.581711 
L 319.879636 135.278832 
L 320.589818 131.59873 
L 321.3 131.014592 
L 322.010182 130.054352 
L 322.720364 131.627863 
L 323.430545 130.917426 
L 324.140727 131.303934 
L 324.850909 131.535949 
L 325.561091 132.624517 
L 326.271273 132.12262 
L 326.981455 135.801665 
L 327.691636 136.718968 
L 328.401818 140.297012 
L 329.822182 137.225217 
L 330.532364 136.889743 
L 331.242545 136.911612 
L 331.952727 137.362337 
L 332.662909 138.287396 
L 333.373091 140.740155 
L 334.083273 140.368254 
L 334.793455 143.352459 
L 335.503636 144.103617 
L 336.213818 145.948256 
L 336.924 146.559629 
L 337.634182 149.016333 
L 338.344364 149.505804 
L 339.054545 152.114287 
L 339.764727 153.451741 
L 340.474909 156.90538 
L 341.185091 156.149391 
L 341.895273 158.012923 
L 342.605455 158.10675 
L 343.315636 157.644664 
L 344.025818 157.373264 
L 344.736 157.375167 
L 345.446182 155.788866 
L 346.156364 157.071213 
L 346.866545 154.515779 
L 347.576727 154.126583 
L 348.286909 151.918225 
L 348.997091 151.439456 
L 349.707273 150.240911 
L 350.417455 152.336004 
L 351.127636 153.898496 
L 351.837818 154.9215 
L 352.548 154.180465 
L 353.258182 153.239679 
L 353.968364 151.865304 
L 354.678545 152.187228 
L 355.388727 150.926257 
L 356.098909 148.82595 
L 356.809091 149.498138 
L 357.519273 146.383359 
L 358.229455 146.46338 
L 358.939636 147.761544 
L 359.649818 149.68629 
L 360.36 150.475256 
L 361.070182 151.003318 
L 361.780364 153.841131 
L 362.490545 153.688917 
L 363.200727 157.225513 
L 363.910909 159.208846 
L 364.621091 158.202243 
L 365.331273 155.46879 
L 366.041455 157.580213 
L 366.751636 158.475908 
L 367.461818 158.811904 
L 368.172 158.540691 
L 368.882182 157.031666 
L 369.592364 156.699359 
L 370.302545 158.53479 
L 371.012727 159.955541 
L 371.722909 159.640747 
L 372.433091 155.271894 
L 373.143273 154.032818 
L 373.853455 156.310686 
L 374.563636 158.188026 
L 375.273818 158.435166 
L 375.984 158.22791 
L 376.694182 159.746797 
L 377.404364 160.848103 
L 379.534909 159.263031 
L 380.245091 160.22014 
L 380.955273 160.861112 
L 381.665455 157.796042 
L 382.375636 160.709404 
L 383.085818 159.944174 
L 384.506182 164.650105 
L 385.926545 160.249463 
L 386.636727 161.983839 
L 387.346909 160.199509 
L 388.057091 159.539011 
L 389.477455 160.535045 
L 390.187636 160.420243 
L 390.897818 162.110318 
L 391.608 158.88163 
L 392.318182 158.717442 
L 393.738545 157.635983 
L 394.448727 156.52622 
L 395.158909 155.820597 
L 395.869091 155.311319 
L 396.579273 157.531534 
L 397.289455 156.74172 
L 397.999636 159.53608 
L 398.709818 160.2385 
L 399.42 161.997359 
L 400.130182 158.506716 
L 400.840364 157.640697 
L 401.550545 156.147034 
L 402.260727 156.908642 
L 402.970909 154.552697 
L 403.681091 156.418634 
L 404.391273 156.859393 
L 405.101455 158.597349 
L 405.811636 158.890272 
L 406.521818 157.920827 
L 407.232 159.013896 
L 407.942182 162.816602 
L 408.652364 161.908865 
L 409.362545 163.339922 
L 410.072727 163.208753 
L 410.782909 164.049024 
L 411.493091 161.553495 
L 412.203273 163.519213 
L 412.913455 163.233895 
L 413.623636 163.66654 
L 414.333818 163.814753 
L 415.044 164.687362 
L 415.754182 163.353302 
L 417.174545 165.145992 
L 417.884727 165.390653 
L 418.594909 164.086508 
L 419.305091 165.441638 
L 420.015273 167.194786 
L 420.725455 167.770751 
L 421.435636 163.534615 
L 422.145818 163.272892 
L 422.856 165.03021 
L 423.566182 169.63029 
L 424.276364 170.366347 
L 424.986545 170.180471 
L 425.696727 168.166908 
L 426.406909 168.820882 
L 427.117091 170.161872 
L 427.827273 169.268755 
L 428.537455 169.072455 
L 429.247636 170.659763 
L 429.957818 171.180468 
L 430.668 169.36007 
L 431.378182 170.178499 
L 432.088364 168.826021 
L 432.798545 169.574108 
L 434.218909 172.890623 
L 434.929091 172.823996 
L 435.639273 175.743553 
L 436.349455 174.453759 
L 437.059636 174.365996 
L 438.48 174.931158 
L 439.190182 173.177038 
L 439.900364 173.304088 
L 440.610545 175.565304 
L 441.320727 175.921223 
L 442.030909 174.768171 
L 442.741091 174.46977 
L 443.451273 174.737683 
L 444.161455 171.611915 
L 445.581818 176.525895 
L 446.292 176.0228 
L 447.002182 177.958608 
L 447.712364 178.66146 
L 448.422545 178.961797 
L 449.132727 182.341105 
L 449.842909 183.289513 
L 450.553091 183.129882 
L 451.263273 184.682398 
L 452.683636 184.369104 
L 453.393818 185.162868 
L 454.104 183.84711 
L 454.814182 183.899915 
L 455.524364 183.689355 
L 456.234545 183.669157 
L 456.944727 181.136726 
L 457.654909 175.415796 
L 458.365091 175.305978 
L 459.075273 174.846457 
L 459.785455 178.274853 
L 460.495636 178.129396 
L 461.205818 176.633422 
L 461.916 176.495862 
L 462.626182 177.176496 
L 463.336364 178.684693 
L 464.046545 180.69155 
L 464.756727 178.657587 
L 465.466909 177.856229 
L 466.177091 178.385917 
L 466.887273 177.079755 
L 467.597455 176.379704 
L 468.307636 173.632523 
L 469.017818 175.295796 
L 469.728 173.500338 
L 470.438182 177.340406 
L 471.148364 178.784785 
L 471.858545 175.142453 
L 472.568727 174.227695 
L 473.278909 176.348475 
L 473.989091 176.075393 
L 474.699273 179.155298 
L 475.409455 179.609266 
L 476.119636 181.406422 
L 476.829818 181.254211 
L 477.54 183.4921 
L 478.250182 181.101019 
L 478.960364 179.582486 
L 479.670545 177.318932 
L 480.380727 178.172287 
L 481.090909 181.629471 
L 481.801091 182.745879 
L 482.511273 183.54156 
L 483.221455 186.252125 
L 483.931636 186.309793 
L 484.641818 184.633782 
L 485.352 185.766493 
L 486.062182 187.465902 
L 486.772364 190.041285 
L 487.482545 194.193236 
L 488.192727 193.264212 
L 488.902909 189.962393 
L 489.613091 191.163584 
L 490.323273 189.186512 
L 491.033455 187.681422 
L 491.743636 186.502983 
L 492.453818 189.093918 
L 493.164 189.215758 
L 494.584364 185.426683 
L 495.294545 184.450587 
L 496.004727 184.226472 
L 496.714909 183.218101 
L 497.425091 183.242927 
L 498.135273 184.79724 
L 498.845455 185.668477 
L 499.555636 184.16194 
L 500.265818 183.012944 
L 500.976 182.195539 
L 501.686182 183.130359 
L 502.396364 181.783733 
L 503.106545 183.233948 
L 503.816727 187.433582 
L 504.526909 184.285948 
L 505.237091 186.524632 
L 505.947273 186.420102 
L 506.657455 187.202133 
L 508.788 183.382429 
L 509.498182 184.257179 
L 510.208364 181.705742 
L 510.918545 182.099795 
L 511.628727 179.785857 
L 512.338909 179.533877 
L 513.049091 177.234074 
L 513.759273 177.667314 
L 514.469455 176.334255 
L 515.179636 180.013425 
L 515.889818 178.331362 
L 516.6 180.367566 
L 517.310182 184.822868 
L 518.020364 183.450465 
L 518.730545 183.162256 
L 519.440727 183.209571 
L 520.150909 184.423016 
L 520.861091 186.155909 
L 521.571273 184.520536 
L 522.281455 184.96306 
L 522.991636 184.359019 
L 523.701818 186.623781 
L 524.412 185.273793 
L 525.122182 187.778851 
L 525.832364 185.314936 
L 526.542545 183.851755 
L 527.252727 185.967165 
L 527.962909 186.278855 
L 530.093455 191.027134 
L 530.803636 191.462642 
L 531.513818 191.666931 
L 532.224 193.137013 
L 532.934182 195.822559 
L 533.644364 195.746648 
L 534.354545 195.821532 
L 535.064727 193.070746 
L 535.774909 192.476553 
L 537.905455 199.397201 
L 538.615636 197.816397 
L 539.325818 200.695482 
L 540.036 199.793598 
L 540.746182 200.468443 
L 541.456364 199.895013 
L 542.166545 202.372554 
L 542.876727 199.395575 
L 543.586909 199.447253 
L 544.297091 196.837006 
L 545.007273 197.821559 
L 545.717455 200.026817 
L 546.427636 200.243074 
L 547.137818 198.739013 
L 547.848 198.6651 
L 548.558182 199.491138 
L 549.268364 197.31225 
L 549.978545 199.793248 
L 550.688727 198.190945 
L 551.398909 200.64623 
L 552.819273 198.518869 
L 553.529455 196.237093 
L 554.239636 197.171341 
L 554.949818 198.780747 
L 555.66 198.470863 
L 556.370182 196.371555 
L 557.080364 194.933217 
L 557.790545 195.306815 
L 558.500727 197.405331 
L 559.210909 199.979485 
L 560.631273 199.981554 
L 561.341455 202.007033 
L 562.051636 202.116388 
L 562.761818 201.544041 
L 563.472 202.866327 
L 564.182182 201.69469 
L 564.892364 202.971812 
L 565.602545 201.122454 
L 566.312727 201.937183 
L 567.022909 200.51068 
L 567.733091 201.115789 
L 568.443273 201.472967 
L 569.153455 203.543821 
L 569.863636 204.00482 
L 570.573818 201.826517 
L 571.284 200.89885 
L 571.994182 198.759613 
L 572.704364 201.594926 
L 573.414545 203.944926 
L 574.124727 203.503506 
L 574.834909 201.313065 
L 575.545091 200.803151 
L 576.965455 197.624928 
L 577.675636 201.194318 
L 578.385818 202.206574 
L 579.096 202.59756 
L 579.806182 201.639919 
L 580.516364 201.507015 
L 581.226545 202.54631 
L 581.936727 202.659387 
L 582.646909 199.696225 
L 583.357091 198.403339 
L 584.067273 201.306044 
L 584.777455 201.614839 
L 585.487636 203.292964 
L 586.197818 203.263078 
L 587.618182 202.585598 
L 588.328364 203.444034 
L 589.748727 201.673032 
L 590.458909 200.301388 
L 591.169091 204.291005 
L 591.879273 201.674288 
L 592.589455 204.455185 
L 594.009818 205.385129 
L 594.72 206.676382 
L 595.430182 202.124505 
L 596.140364 203.597875 
L 596.850545 201.890279 
L 597.560727 198.340346 
L 598.270909 200.468642 
L 599.691273 196.333192 
L 600.401455 197.958421 
L 601.821818 198.082353 
L 602.532 195.073143 
L 603.242182 194.959773 
L 603.952364 196.210894 
L 604.662545 197.692583 
L 605.372727 197.185465 
L 606.082909 198.107145 
L 606.793091 196.437986 
L 607.503273 197.134185 
L 608.213455 198.354292 
L 608.923636 197.009435 
L 609.633818 198.279814 
L 610.344 196.80671 
L 611.054182 194.752382 
L 611.764364 195.833529 
L 612.474545 198.252555 
L 613.184727 196.937264 
L 613.894909 199.152985 
L 614.605091 199.189257 
L 615.315273 196.820116 
L 616.025455 197.455483 
L 616.735636 196.05775 
L 617.445818 193.668061 
L 618.156 194.845753 
L 618.866182 195.155453 
L 619.576364 196.873471 
L 620.286545 196.127268 
L 620.996727 196.55317 
L 621.706909 196.076752 
L 622.417091 197.244324 
L 623.127273 199.784686 
L 623.837455 199.723008 
L 624.547636 197.931547 
L 625.257818 199.634905 
L 625.968 200.298234 
L 626.678182 202.97983 
L 627.388364 203.707492 
L 628.098545 204.686882 
L 628.808727 206.701891 
L 629.518909 206.349511 
L 630.229091 208.031544 
L 630.939273 208.58692 
L 631.649455 208.410941 
L 632.359636 207.256309 
L 633.069818 207.216739 
L 633.78 206.55109 
L 634.490182 205.610955 
L 635.200364 205.923519 
L 635.910545 206.051458 
L 636.620727 207.639816 
L 637.330909 208.036811 
L 638.041091 208.008104 
L 640.881818 215.531464 
L 641.592 214.627197 
L 642.302182 215.746102 
L 643.012364 215.965319 
L 643.722545 213.648203 
L 644.432727 212.036973 
L 645.142909 212.323671 
L 645.853091 213.247483 
L 646.563273 211.730483 
L 647.983636 215.159564 
L 648.693818 215.963363 
L 649.404 215.727248 
L 650.114182 214.582908 
L 650.824364 213.923644 
L 651.534545 214.328645 
L 652.244727 216.597052 
L 652.954909 217.47873 
L 653.665091 218.093002 
L 654.375273 218.943211 
L 655.085455 221.694164 
L 655.795636 221.027117 
L 656.505818 222.201942 
L 657.216 222.325845 
L 657.926182 221.765752 
L 658.636364 223.883548 
L 659.346545 227.209016 
L 660.766909 232.982514 
L 661.477091 232.81264 
L 662.187273 233.059467 
L 662.897455 231.380617 
L 663.607636 231.022793 
L 664.317818 229.01891 
L 665.028 230.352766 
L 665.738182 233.368725 
L 666.448364 234.503634 
L 667.158545 234.923708 
L 667.868727 234.898275 
L 668.578909 234.548807 
L 669.289091 233.551628 
L 670.709455 229.631146 
L 671.419636 230.423744 
L 672.129818 231.854696 
L 672.84 232.71334 
L 673.550182 234.755364 
L 674.260364 235.183563 
L 674.970545 235.450382 
L 675.680727 234.502638 
L 676.390909 236.390244 
L 677.101091 233.354279 
L 677.811273 232.721503 
L 678.521455 236.260228 
L 679.231636 234.844205 
L 679.941818 234.371823 
L 680.652 235.653176 
L 681.362182 232.901513 
L 682.072364 232.905355 
L 682.782545 228.635285 
L 683.492727 228.676254 
L 684.202909 230.212469 
L 684.913091 228.010734 
L 686.333455 231.936009 
L 687.043636 235.615907 
L 687.753818 231.345797 
L 688.464 228.427624 
L 689.174182 230.113542 
L 689.884364 231.180257 
L 690.594545 231.632114 
L 691.304727 229.903105 
L 692.014909 229.709615 
L 692.725091 227.915555 
L 693.435273 227.988521 
L 694.145455 230.021647 
L 694.855636 233.058707 
L 695.565818 232.277735 
L 696.276 231.193487 
L 696.986182 229.685644 
L 697.696364 231.976645 
L 698.406545 230.711547 
L 699.116727 231.815579 
L 699.826909 232.096876 
L 700.537091 233.167725 
L 701.247273 233.860514 
L 701.957455 235.691803 
L 702.667636 236.656882 
L 703.377818 235.881121 
L 704.088 234.340068 
L 704.798182 236.51662 
L 705.508364 237.746952 
L 706.218545 237.212952 
L 706.928727 239.930138 
L 707.638909 238.148602 
L 708.349091 237.950517 
L 709.059273 238.41268 
L 709.769455 239.780178 
L 710.479636 240.676395 
L 711.189818 240.631211 
L 711.9 242.780502 
L 712.610182 243.639549 
L 713.320364 240.087293 
L 714.030545 239.431177 
L 714.740727 236.76429 
L 715.450909 238.280612 
L 716.161091 239.188861 
L 716.871273 238.480814 
L 717.581455 237.047099 
L 718.291636 237.295792 
L 719.001818 236.986482 
L 719.712 235.573588 
L 720.422182 235.22506 
L 721.132364 237.19514 
L 721.842545 235.984072 
L 722.552727 236.873934 
L 723.262909 235.636258 
L 723.973091 237.138248 
L 724.683273 240.66858 
L 725.393455 240.201544 
L 726.103636 237.783594 
L 726.813818 235.957501 
L 727.524 236.881348 
L 728.234182 235.663444 
L 728.944364 235.915212 
L 729.654545 235.161914 
L 730.364727 235.119179 
L 731.074909 235.832838 
L 731.785091 235.380802 
L 732.495273 233.959093 
L 733.205455 234.273932 
L 733.915636 231.669031 
L 734.625818 230.658019 
L 735.336 230.89993 
L 736.046182 232.447359 
L 736.756364 233.35297 
L 737.466545 231.889394 
L 738.176727 232.841555 
L 738.886909 232.840481 
L 739.597091 234.468782 
L 740.307273 233.108699 
L 741.017455 231.187823 
L 741.727636 232.625065 
L 742.437818 235.383441 
L 743.148 236.129621 
L 743.858182 233.263297 
L 745.278545 240.209783 
L 745.988727 239.255363 
L 746.698909 238.699223 
L 747.409091 236.073106 
L 748.119273 236.641928 
L 748.829455 237.459436 
L 749.539636 237.475153 
L 750.249818 238.43257 
L 750.96 236.806876 
L 751.670182 238.545258 
L 752.380364 236.708211 
L 753.090545 236.109835 
L 753.800727 234.840179 
L 754.510909 236.452376 
L 755.221091 237.291893 
L 755.931273 240.11239 
L 756.641455 237.425595 
L 757.351636 240.109792 
L 758.061818 242.259772 
L 758.772 242.508979 
L 759.482182 241.219108 
L 760.192364 238.267457 
L 760.902545 243.473867 
L 761.612727 245.299354 
L 762.322909 243.434504 
L 763.033091 240.668676 
L 763.743273 242.413302 
L 764.453455 243.247837 
L 765.163636 243.184325 
L 765.873818 243.912774 
L 766.584 246.738346 
L 767.294182 248.074561 
L 768.004364 248.815993 
L 768.714545 248.160872 
L 769.424727 249.010732 
L 770.134909 248.840816 
L 770.845091 251.448114 
L 771.555273 249.128118 
L 772.265455 249.491642 
L 772.975636 247.695858 
L 773.685818 249.685016 
L 775.106182 248.683742 
L 775.816364 247.398622 
L 777.236727 246.575712 
L 777.946909 248.702612 
L 778.657091 248.707787 
L 779.367273 248.183659 
L 780.077455 254.152349 
L 780.787636 253.516536 
L 781.497818 250.264171 
L 782.208 251.415193 
L 782.918182 251.630674 
L 784.338545 251.705278 
L 785.048727 251.826559 
L 785.758909 254.338137 
L 786.469091 253.028748 
L 787.179273 253.268663 
L 787.889455 254.185805 
L 788.599636 253.851171 
L 789.309818 254.711204 
L 790.02 254.460268 
L 790.730182 256.409825 
L 791.440364 255.990218 
L 792.150545 258.756934 
L 792.860727 257.251353 
L 793.570909 257.892967 
L 794.281091 256.29065 
L 795.701455 253.73393 
L 796.411636 255.350774 
L 797.121818 254.797646 
L 797.832 255.858757 
L 798.542182 254.796336 
L 799.252364 252.072635 
L 799.962545 254.436673 
L 800.672727 252.87126 
L 801.382909 255.575179 
L 802.093091 254.006747 
L 802.803273 255.84738 
L 803.513455 255.286449 
L 804.223636 255.515588 
L 804.933818 252.773821 
L 805.644 257.07693 
L 806.354182 257.462964 
L 807.064364 257.568428 
L 807.774545 256.015515 
L 808.484727 255.15851 
L 809.194909 255.816067 
L 809.905091 258.144741 
L 810.615273 259.488313 
L 811.325455 261.328085 
L 812.035636 262.426882 
L 812.745818 263.25686 
L 813.456 263.347257 
L 814.166182 261.323683 
L 814.876364 264.140948 
L 815.586545 264.002858 
L 816.296727 264.543666 
L 817.006909 267.402749 
L 817.717091 267.205687 
L 818.427273 268.598988 
L 819.137455 270.502678 
L 819.847636 270.370856 
L 821.268 271.270462 
L 821.978182 269.717484 
L 822.688364 269.95069 
L 824.108727 271.609918 
L 824.818909 271.506032 
L 825.529091 271.55201 
L 826.239273 269.536089 
L 826.949455 266.868167 
L 827.659636 268.019493 
L 828.369818 268.559924 
L 829.08 269.875231 
L 829.790182 268.214012 
L 830.500364 267.632697 
L 831.210545 267.749549 
L 831.920727 265.27597 
L 833.341091 264.583019 
L 834.051273 263.115774 
L 834.761455 259.997911 
L 835.471636 262.536686 
L 836.181818 260.616783 
L 836.892 257.088509 
L 837.602182 257.701756 
L 838.312364 257.82288 
L 839.022545 256.763598 
L 840.442909 259.455616 
L 841.153091 259.104175 
L 841.863273 260.430831 
L 842.573455 260.136718 
L 843.993818 260.661619 
L 844.704 259.751802 
L 845.414182 259.978008 
L 846.124364 261.458508 
L 846.834545 259.946706 
L 848.254909 258.846484 
L 848.965091 260.577907 
L 849.675273 259.800657 
L 850.385455 260.721085 
L 851.095636 259.493528 
L 851.805818 259.59179 
L 852.516 259.340729 
L 853.936364 254.232473 
L 854.646545 253.231275 
L 855.356727 252.536356 
L 856.066909 254.522847 
L 856.777091 254.628969 
L 857.487273 250.716586 
L 858.197455 251.789409 
L 858.907636 249.456533 
L 859.617818 250.990754 
L 860.328 251.197982 
L 861.038182 249.594359 
L 861.748364 251.078747 
L 862.458545 248.929289 
L 863.168727 248.956536 
L 863.878909 250.09467 
L 864.589091 247.605395 
L 865.299273 247.564877 
L 866.009455 245.936724 
L 867.429818 244.05371 
L 868.14 244.720435 
L 868.850182 242.095485 
L 869.560364 245.277323 
L 870.270545 244.937589 
L 870.980727 244.986693 
L 871.690909 244.495662 
L 871.690909 244.495662 
" clip-path="url(#p29551e6344)" style="fill: none; stroke: #1f77b4; stroke-width: 1.5; stroke-linecap: square"/>
   </g>
   <g id="line2d_15">
    <path d="M 161.509091 106.256578 
L 162.219273 103.038088 
L 162.929455 106.300351 
L 163.639636 107.464278 
L 164.349818 105.573852 
L 165.06 107.620771 
L 165.770182 110.43314 
L 166.480364 112.013211 
L 167.190545 112.242188 
L 167.900727 110.947401 
L 168.610909 111.613829 
L 169.321091 115.014072 
L 170.031273 111.772655 
L 170.741455 110.402822 
L 171.451636 113.121573 
L 172.161818 109.784764 
L 172.872 108.842727 
L 173.582182 106.565119 
L 174.292364 102.945078 
L 175.002545 100.831893 
L 175.712727 99.435116 
L 177.133091 99.442937 
L 178.553455 102.530904 
L 179.263636 106.323106 
L 179.973818 106.734333 
L 180.684 106.093601 
L 181.394182 105.864812 
L 182.104364 101.43874 
L 182.814545 98.366941 
L 183.524727 96.160045 
L 184.945091 99.059807 
L 185.655273 95.214952 
L 186.365455 92.809916 
L 187.075636 92.038925 
L 187.785818 93.409617 
L 188.496 92.088216 
L 189.206182 92.553278 
L 190.626545 90.746126 
L 191.336727 90.991406 
L 192.046909 90.11156 
L 192.757091 88.714956 
L 193.467273 89.765771 
L 194.177455 86.772082 
L 194.887636 86.676777 
L 195.597818 82.308591 
L 196.308 80.744565 
L 197.018182 81.124477 
L 198.438545 81.181079 
L 199.148727 83.099444 
L 199.858909 83.939237 
L 201.279273 84.962667 
L 201.989455 87.619636 
L 202.699636 86.086558 
L 203.409818 84.931157 
L 204.12 85.808023 
L 204.830182 88.812012 
L 205.540364 90.749333 
L 206.250545 85.840287 
L 206.960727 82.132212 
L 207.670909 84.427366 
L 208.381091 87.733309 
L 209.091273 84.142947 
L 209.801455 89.903698 
L 210.511636 87.072858 
L 211.221818 88.21333 
L 211.932 88.522945 
L 212.642182 89.437481 
L 213.352364 88.634068 
L 214.062545 93.246158 
L 215.482909 90.68457 
L 216.193091 93.130417 
L 216.903273 96.895263 
L 217.613455 95.145009 
L 218.323636 96.619223 
L 219.744 94.382286 
L 220.454182 95.659535 
L 222.584727 102.278026 
L 223.294909 100.637567 
L 224.005091 100.353251 
L 224.715273 101.194641 
L 225.425455 97.648724 
L 226.845818 95.969437 
L 227.556 95.92 
L 228.266182 97.499229 
L 228.976364 91.211556 
L 229.686545 91.071032 
L 230.396727 90.247249 
L 231.106909 87.880669 
L 231.817091 88.846078 
L 232.527273 86.359471 
L 233.237455 85.981546 
L 233.947636 85.782572 
L 234.657818 82.608171 
L 235.368 85.780402 
L 236.788364 89.296175 
L 237.498545 85.571896 
L 238.208727 88.485435 
L 238.918909 87.672414 
L 239.629091 82.750092 
L 240.339273 88.239762 
L 241.049455 90.530254 
L 241.759636 92.157331 
L 242.469818 90.686749 
L 243.18 87.944825 
L 243.890182 88.139885 
L 244.600364 86.255 
L 245.310545 85.169223 
L 246.730909 85.752968 
L 247.441091 86.645416 
L 248.151273 90.329541 
L 248.861455 90.781399 
L 249.571636 95.93824 
L 250.992 93.422668 
L 251.702182 95.553726 
L 252.412364 94.183851 
L 253.122545 94.027101 
L 253.832727 91.114329 
L 254.542909 91.496358 
L 255.253091 89.045343 
L 255.963273 87.124882 
L 256.673455 87.642863 
L 257.383636 89.513182 
L 258.093818 87.498263 
L 258.804 90.851642 
L 259.514182 92.23704 
L 260.224364 89.242185 
L 260.934545 91.460832 
L 261.644727 90.54532 
L 262.354909 92.336237 
L 263.065091 93.091484 
L 263.775273 96.663923 
L 264.485455 93.853102 
L 265.195636 92.608716 
L 265.905818 96.676669 
L 266.616 94.283632 
L 267.326182 94.878723 
L 268.036364 93.039891 
L 269.456727 101.85642 
L 270.166909 100.366505 
L 270.877091 100.203414 
L 271.587273 98.529618 
L 272.297455 94.833938 
L 273.007636 97.827493 
L 273.717818 103.066147 
L 274.428 104.471238 
L 275.138182 107.484753 
L 275.848364 107.709566 
L 276.558545 107.419984 
L 277.268727 107.719412 
L 277.978909 109.975721 
L 278.689091 109.113667 
L 279.399273 104.973282 
L 280.109455 102.343322 
L 280.819636 102.946751 
L 281.529818 101.166836 
L 282.24 101.928322 
L 282.950182 105.26802 
L 283.660364 104.432161 
L 284.370545 102.79391 
L 285.080727 101.834545 
L 285.790909 104.082684 
L 286.501091 107.647234 
L 287.211273 105.318542 
L 287.921455 100.965754 
L 288.631636 99.051553 
L 289.341818 96.471345 
L 290.052 94.562075 
L 290.762182 98.612978 
L 291.472364 98.746154 
L 292.182545 99.108398 
L 292.892727 98.339029 
L 293.602909 99.937813 
L 294.313091 100.390222 
L 295.023273 98.819935 
L 295.733455 95.812807 
L 296.443636 96.751104 
L 297.153818 99.613735 
L 297.864 97.199215 
L 299.284364 90.319128 
L 299.994545 90.823433 
L 300.704727 89.610514 
L 301.414909 89.141087 
L 302.125091 84.223845 
L 302.835273 83.594973 
L 303.545455 81.292032 
L 304.255636 84.17746 
L 304.965818 85.52488 
L 305.676 85.070313 
L 307.096364 91.039599 
L 307.806545 92.034067 
L 308.516727 90.639931 
L 309.226909 90.615893 
L 309.937091 86.859001 
L 310.647273 87.222984 
L 311.357455 87.876998 
L 312.067636 87.675563 
L 312.777818 88.985184 
L 313.488 89.090395 
L 314.198182 91.551225 
L 314.908364 87.262157 
L 315.618545 89.929667 
L 317.038909 88.627893 
L 317.749091 86.98146 
L 318.459273 82.764692 
L 319.169455 81.527585 
L 319.879636 80.033878 
L 320.589818 72.936907 
L 321.3 69.765005 
L 322.010182 67.398138 
L 322.720364 68.581235 
L 323.430545 66.96 
L 324.140727 70.99674 
L 324.850909 72.17058 
L 325.561091 75.868977 
L 326.271273 76.43306 
L 326.981455 77.787552 
L 327.691636 77.238983 
L 328.401818 80.177701 
L 329.112 76.885969 
L 330.532364 76.226918 
L 331.952727 84.703875 
L 332.662909 84.396707 
L 333.373091 83.723856 
L 334.083273 85.71138 
L 334.793455 92.787403 
L 335.503636 92.754168 
L 336.213818 93.344085 
L 336.924 96.714859 
L 337.634182 101.427821 
L 338.344364 100.793288 
L 339.054545 101.595935 
L 339.764727 104.457228 
L 340.474909 109.361615 
L 341.185091 107.726738 
L 341.895273 109.876241 
L 342.605455 110.05574 
L 343.315636 111.887964 
L 344.025818 112.658554 
L 345.446182 115.495373 
L 346.156364 118.233943 
L 346.866545 116.839651 
L 347.576727 116.518225 
L 348.286909 109.805197 
L 348.997091 108.823002 
L 349.707273 107.055539 
L 350.417455 109.141182 
L 351.127636 108.356661 
L 351.837818 111.507541 
L 352.548 111.436168 
L 353.968364 110.593948 
L 354.678545 112.502659 
L 356.098909 108.393561 
L 356.809091 108.476432 
L 357.519273 103.852319 
L 358.229455 105.363305 
L 358.939636 104.087709 
L 359.649818 106.435906 
L 360.36 104.555338 
L 361.070182 103.273465 
L 361.780364 108.419499 
L 362.490545 105.908926 
L 363.200727 110.884294 
L 363.910909 109.787375 
L 364.621091 111.853132 
L 365.331273 110.941969 
L 366.041455 112.760963 
L 366.751636 110.863111 
L 367.461818 107.521302 
L 368.172 111.302139 
L 368.882182 112.598 
L 370.302545 118.455407 
L 371.012727 121.309176 
L 371.722909 120.977757 
L 372.433091 118.688008 
L 373.143273 115.536397 
L 373.853455 114.914859 
L 374.563636 115.01966 
L 375.273818 113.477664 
L 375.984 113.084251 
L 376.694182 117.188297 
L 378.114545 115.257009 
L 378.824727 115.125093 
L 379.534909 114.265396 
L 380.245091 116.542933 
L 380.955273 116.951037 
L 381.665455 112.603311 
L 382.375636 119.175072 
L 383.085818 120.141821 
L 383.796 122.013502 
L 384.506182 125.776756 
L 385.216364 123.503934 
L 385.926545 122.563214 
L 386.636727 125.62992 
L 387.346909 121.784807 
L 388.057091 120.103329 
L 389.477455 117.415044 
L 390.897818 119.813511 
L 391.608 116.640568 
L 392.318182 116.720837 
L 393.028364 115.891144 
L 393.738545 117.39084 
L 395.158909 112.857079 
L 395.869091 113.527119 
L 396.579273 113.776296 
L 397.289455 110.735866 
L 397.999636 116.403834 
L 398.709818 117.067387 
L 399.42 118.252428 
L 400.130182 117.073986 
L 400.840364 117.068352 
L 401.550545 116.861696 
L 402.260727 116.954818 
L 402.970909 113.845898 
L 404.391273 117.411442 
L 405.101455 119.520675 
L 405.811636 119.532317 
L 406.521818 116.310348 
L 407.232 117.192941 
L 407.942182 119.222281 
L 408.652364 117.722268 
L 410.072727 122.274011 
L 410.782909 123.87457 
L 411.493091 121.553473 
L 412.203273 123.890199 
L 412.913455 123.504054 
L 413.623636 124.15951 
L 414.333818 124.332263 
L 415.044 123.432108 
L 415.754182 123.845426 
L 416.464364 125.194668 
L 417.174545 126.875773 
L 417.884727 129.305741 
L 418.594909 127.819619 
L 419.305091 128.579883 
L 420.015273 127.140166 
L 420.725455 131.395927 
L 421.435636 131.144758 
L 422.145818 134.174278 
L 422.856 133.689212 
L 423.566182 138.840356 
L 424.276364 140.266777 
L 424.986545 137.881897 
L 425.696727 137.517539 
L 426.406909 139.182941 
L 427.117091 142.315665 
L 427.827273 141.259146 
L 428.537455 140.921392 
L 429.247636 146.02357 
L 429.957818 144.482535 
L 430.668 142.447867 
L 431.378182 142.659325 
L 432.088364 141.319376 
L 432.798545 140.541177 
L 433.508727 143.425408 
L 434.218909 143.233342 
L 434.929091 141.900004 
L 435.639273 147.768478 
L 436.349455 149.714989 
L 437.059636 151.297392 
L 437.769818 151.012866 
L 438.48 150.007681 
L 439.190182 153.352389 
L 439.900364 151.841373 
L 440.610545 151.663307 
L 441.320727 152.423692 
L 442.030909 151.240045 
L 442.741091 154.130775 
L 443.451273 147.180626 
L 444.161455 145.305439 
L 444.871636 146.949047 
L 445.581818 149.289084 
L 446.292 149.480307 
L 447.712364 156.265844 
L 448.422545 157.170464 
L 449.132727 161.094418 
L 449.842909 161.385415 
L 451.263273 162.62247 
L 451.973455 160.684223 
L 452.683636 162.325231 
L 453.393818 164.444644 
L 454.104 163.121802 
L 454.814182 162.303709 
L 455.524364 163.858821 
L 456.234545 166.438038 
L 457.654909 157.634063 
L 458.365091 157.028235 
L 459.075273 157.561457 
L 459.785455 163.187043 
L 460.495636 162.360939 
L 461.205818 160.226038 
L 461.916 159.986815 
L 462.626182 159.584135 
L 463.336364 161.067738 
L 464.046545 164.298081 
L 464.756727 162.544812 
L 465.466909 163.223841 
L 466.177091 162.464324 
L 466.887273 161.294938 
L 467.597455 161.675598 
L 468.307636 159.251469 
L 469.017818 160.525504 
L 469.728 161.226368 
L 471.148364 164.131644 
L 471.858545 160.343555 
L 472.568727 157.825288 
L 473.278909 159.58383 
L 473.989091 159.107154 
L 474.699273 160.984679 
L 475.409455 160.473763 
L 476.119636 162.971128 
L 476.829818 163.498955 
L 477.54 164.945508 
L 478.250182 160.944974 
L 478.960364 159.276892 
L 479.670545 155.604283 
L 480.380727 155.191714 
L 481.090909 160.061459 
L 481.801091 162.748637 
L 482.511273 166.710048 
L 483.221455 171.326289 
L 483.931636 172.042663 
L 484.641818 170.672897 
L 485.352 168.606409 
L 486.062182 168.43282 
L 486.772364 170.949453 
L 487.482545 176.134749 
L 488.902909 172.211203 
L 489.613091 175.186198 
L 490.323273 171.779444 
L 491.033455 171.026705 
L 491.743636 166.563475 
L 492.453818 167.7683 
L 493.164 171.808745 
L 493.874182 168.557215 
L 494.584364 169.507045 
L 495.294545 167.412115 
L 496.004727 167.399743 
L 496.714909 166.875878 
L 497.425091 165.647575 
L 498.135273 165.431068 
L 498.845455 167.706982 
L 499.555636 165.680859 
L 500.265818 166.58369 
L 502.396364 166.605075 
L 503.106545 166.918312 
L 503.816727 166.648896 
L 504.526909 164.382383 
L 505.237091 165.043388 
L 505.947273 166.204106 
L 506.657455 162.33154 
L 508.077818 161.073109 
L 508.788 162.896479 
L 509.498182 166.433594 
L 510.208364 161.307325 
L 510.918545 164.109009 
L 511.628727 160.935907 
L 512.338909 163.851295 
L 513.049091 161.896218 
L 513.759273 158.065448 
L 514.469455 156.450261 
L 515.179636 159.58355 
L 515.889818 156.161381 
L 516.6 158.27458 
L 517.310182 162.117422 
L 518.020364 161.925579 
L 518.730545 160.882236 
L 519.440727 160.0993 
L 520.150909 161.2851 
L 520.861091 161.032804 
L 521.571273 158.502682 
L 522.281455 155.239508 
L 522.991636 153.72116 
L 523.701818 154.901042 
L 524.412 152.439821 
L 525.122182 154.097743 
L 525.832364 152.282657 
L 526.542545 151.032654 
L 527.252727 153.542736 
L 527.962909 152.261898 
L 528.673091 155.066936 
L 529.383273 155.304718 
L 530.093455 157.908197 
L 530.803636 157.20953 
L 532.224 158.878861 
L 532.934182 165.615005 
L 534.354545 166.162407 
L 535.064727 162.113213 
L 535.774909 162.748581 
L 536.485091 165.699812 
L 537.195273 167.481457 
L 537.905455 169.93524 
L 538.615636 170.935271 
L 539.325818 173.195039 
L 540.036 171.839667 
L 540.746182 174.320127 
L 541.456364 170.889122 
L 542.166545 174.586813 
L 542.876727 171.029946 
L 543.586909 170.428796 
L 544.297091 166.619067 
L 545.007273 167.697008 
L 545.717455 168.070496 
L 546.427636 168.174786 
L 547.848 167.651151 
L 548.558182 168.318737 
L 549.268364 167.242725 
L 549.978545 171.819805 
L 550.688727 173.70528 
L 551.398909 175.274598 
L 552.109091 174.004466 
L 553.529455 170.789525 
L 554.239636 167.857963 
L 554.949818 169.220134 
L 555.66 169.81098 
L 556.370182 166.752185 
L 557.080364 161.538043 
L 557.790545 162.564934 
L 558.500727 162.978498 
L 559.210909 165.967778 
L 559.921091 165.805109 
L 560.631273 165.430289 
L 561.341455 166.85105 
L 562.051636 169.864355 
L 562.761818 169.752126 
L 563.472 167.047896 
L 564.892364 162.973145 
L 565.602545 163.044106 
L 566.312727 163.272295 
L 567.022909 160.361354 
L 567.733091 161.291384 
L 568.443273 161.450074 
L 569.153455 164.721327 
L 569.863636 166.90962 
L 570.573818 166.099833 
L 571.284 164.461407 
L 571.994182 163.905309 
L 572.704364 166.786738 
L 573.414545 167.951204 
L 574.124727 168.830364 
L 574.834909 163.121465 
L 575.545091 164.250551 
L 576.255273 162.601721 
L 576.965455 163.077539 
L 577.675636 162.636363 
L 578.385818 163.652959 
L 579.096 161.89364 
L 579.806182 159.115475 
L 581.226545 164.633478 
L 581.936727 165.571239 
L 582.646909 164.847199 
L 583.357091 164.622697 
L 584.067273 166.397794 
L 584.777455 167.522834 
L 585.487636 172.653455 
L 586.197818 173.11499 
L 586.908 171.43683 
L 587.618182 173.07535 
L 588.328364 173.933925 
L 589.038545 168.605726 
L 589.748727 166.519787 
L 590.458909 165.306244 
L 591.169091 166.31952 
L 591.879273 166.111039 
L 592.589455 168.624915 
L 593.299636 166.353725 
L 594.009818 167.381316 
L 594.72 169.083679 
L 595.430182 163.728062 
L 596.140364 164.725835 
L 596.850545 161.964701 
L 597.560727 155.812985 
L 598.270909 159.059703 
L 598.981091 156.930718 
L 599.691273 156.705433 
L 600.401455 157.404557 
L 601.111636 155.251561 
L 601.821818 156.001768 
L 602.532 154.660697 
L 603.242182 153.568689 
L 604.662545 158.995366 
L 605.372727 157.082504 
L 606.793091 157.151506 
L 607.503273 160.158002 
L 608.213455 159.491823 
L 608.923636 159.664248 
L 609.633818 159.677438 
L 610.344 157.684677 
L 611.054182 154.123027 
L 611.764364 153.721131 
L 612.474545 152.366928 
L 613.184727 154.152868 
L 613.894909 159.264545 
L 614.605091 161.098293 
L 615.315273 159.021429 
L 616.025455 157.682617 
L 616.735636 156.865537 
L 617.445818 153.596631 
L 618.156 160.142553 
L 619.576364 163.613119 
L 620.286545 163.380282 
L 620.996727 161.294017 
L 621.706909 159.641921 
L 622.417091 157.274324 
L 623.127273 157.463282 
L 623.837455 156.640234 
L 624.547636 151.837619 
L 625.257818 153.475233 
L 625.968 150.897228 
L 626.678182 152.672289 
L 627.388364 152.080188 
L 628.808727 154.650049 
L 629.518909 150.816911 
L 630.229091 151.464957 
L 630.939273 146.95973 
L 631.649455 146.92898 
L 633.069818 144.127763 
L 634.490182 143.670398 
L 635.200364 143.859978 
L 636.620727 141.931375 
L 637.330909 141.661722 
L 638.041091 141.662148 
L 638.751273 143.71289 
L 639.461455 146.976366 
L 640.171636 148.601527 
L 640.881818 150.750279 
L 641.592 148.655617 
L 642.302182 149.728729 
L 643.012364 150.531692 
L 643.722545 146.37088 
L 644.432727 146.174732 
L 645.142909 146.148783 
L 645.853091 144.528147 
L 646.563273 144.012498 
L 647.273455 145.778644 
L 647.983636 147.08566 
L 648.693818 149.936013 
L 649.404 150.133228 
L 650.114182 149.764115 
L 650.824364 148.778681 
L 651.534545 151.822185 
L 652.244727 155.489388 
L 652.954909 153.497956 
L 653.665091 154.804638 
L 655.085455 158.829204 
L 655.795636 158.448144 
L 656.505818 157.411326 
L 657.216 158.574446 
L 657.926182 158.578798 
L 658.636364 158.179115 
L 659.346545 161.909935 
L 660.056727 162.552432 
L 660.766909 168.031032 
L 661.477091 166.641108 
L 662.187273 163.916017 
L 662.897455 163.237298 
L 663.607636 161.671859 
L 664.317818 163.085519 
L 665.028 163.375177 
L 665.738182 165.710526 
L 666.448364 167.659192 
L 667.158545 170.482464 
L 667.868727 170.035692 
L 668.578909 167.69446 
L 669.289091 171.310454 
L 669.999273 168.893084 
L 670.709455 167.469939 
L 671.419636 167.643526 
L 672.129818 168.307422 
L 672.84 168.182109 
L 673.550182 170.215433 
L 674.260364 169.060559 
L 674.970545 168.869 
L 675.680727 166.865642 
L 676.390909 170.012986 
L 677.101091 166.536592 
L 677.811273 165.63035 
L 678.521455 169.136095 
L 679.941818 162.508127 
L 680.652 162.516563 
L 681.362182 162.230062 
L 682.072364 162.245759 
L 682.782545 158.036076 
L 683.492727 160.773117 
L 684.202909 160.215502 
L 684.913091 162.189131 
L 685.623273 165.961366 
L 686.333455 165.859196 
L 687.043636 169.946033 
L 687.753818 167.203873 
L 688.464 163.783758 
L 689.174182 165.028525 
L 689.884364 165.611878 
L 690.594545 167.877587 
L 691.304727 164.456977 
L 692.014909 162.399712 
L 692.725091 162.231732 
L 693.435273 161.920509 
L 694.145455 163.57976 
L 694.855636 163.391051 
L 695.565818 161.111463 
L 696.276 162.843954 
L 696.986182 158.483491 
L 697.696364 159.237213 
L 698.406545 158.854961 
L 699.116727 157.333164 
L 699.826909 155.487793 
L 700.537091 157.591924 
L 701.247273 159.174162 
L 701.957455 163.75924 
L 702.667636 164.151066 
L 703.377818 165.304739 
L 704.088 162.928734 
L 704.798182 165.049946 
L 705.508364 166.571604 
L 706.218545 167.149498 
L 706.928727 172.509155 
L 707.638909 170.60204 
L 708.349091 172.822881 
L 709.059273 173.147995 
L 709.769455 175.168285 
L 710.479636 178.280825 
L 711.189818 180.691193 
L 711.9 185.065336 
L 712.610182 184.258073 
L 713.320364 180.190588 
L 714.030545 179.833701 
L 714.740727 177.614054 
L 715.450909 179.525061 
L 716.161091 178.514602 
L 716.871273 176.708878 
L 717.581455 173.137119 
L 718.291636 173.854204 
L 719.001818 170.725545 
L 719.712 171.388588 
L 720.422182 170.558127 
L 721.132364 173.468166 
L 721.842545 171.745694 
L 722.552727 172.728503 
L 723.262909 171.210322 
L 723.973091 171.564735 
L 724.683273 174.23539 
L 725.393455 174.203321 
L 726.813818 167.897825 
L 727.524 169.54621 
L 728.234182 168.203683 
L 728.944364 170.010695 
L 729.654545 171.046083 
L 730.364727 171.177137 
L 731.074909 173.729374 
L 731.785091 175.427389 
L 732.495273 174.896338 
L 733.205455 176.101698 
L 733.915636 172.843477 
L 734.625818 174.003782 
L 735.336 173.569062 
L 736.046182 177.49802 
L 736.756364 180.714816 
L 737.466545 178.425534 
L 738.176727 177.26588 
L 738.886909 178.261061 
L 739.597091 181.126194 
L 740.307273 181.507827 
L 741.017455 179.03176 
L 741.727636 179.059326 
L 742.437818 184.212259 
L 743.148 184.87842 
L 743.858182 184.310673 
L 745.278545 188.695206 
L 745.988727 185.299964 
L 746.698909 184.008194 
L 748.119273 183.28043 
L 748.829455 184.716189 
L 749.539636 182.006716 
L 750.249818 183.332171 
L 750.96 181.724677 
L 751.670182 182.752809 
L 752.380364 182.031357 
L 753.090545 182.057713 
L 753.800727 181.619517 
L 754.510909 180.938602 
L 755.221091 181.119547 
L 755.931273 185.54828 
L 756.641455 181.562815 
L 757.351636 184.75806 
L 758.061818 186.835584 
L 758.772 187.389914 
L 760.192364 182.01148 
L 760.902545 188.642959 
L 761.612727 191.088315 
L 762.322909 186.9045 
L 763.033091 187.825223 
L 763.743273 191.011951 
L 764.453455 195.505761 
L 765.163636 195.581605 
L 765.873818 196.04315 
L 766.584 201.062073 
L 767.294182 202.577005 
L 768.004364 202.910616 
L 768.714545 202.169315 
L 769.424727 202.750812 
L 770.134909 201.997137 
L 770.845091 202.326305 
L 771.555273 200.921758 
L 772.265455 200.328906 
L 772.975636 197.732017 
L 773.685818 202.261663 
L 774.396 200.631242 
L 775.106182 202.277857 
L 775.816364 199.352526 
L 776.526545 200.068191 
L 777.236727 199.326925 
L 777.946909 200.753207 
L 778.657091 200.416717 
L 779.367273 196.917327 
L 780.077455 205.206791 
L 780.787636 205.30501 
L 781.497818 203.174454 
L 782.918182 207.860544 
L 783.628364 205.464527 
L 784.338545 204.150504 
L 785.048727 203.954175 
L 785.758909 205.273172 
L 787.179273 201.200676 
L 787.889455 203.420058 
L 788.599636 199.013961 
L 789.309818 199.292 
L 790.02 198.885161 
L 790.730182 201.851042 
L 791.440364 199.244397 
L 792.150545 203.102585 
L 792.860727 202.921952 
L 793.570909 202.865859 
L 794.281091 202.610342 
L 794.991273 201.450327 
L 795.701455 198.800298 
L 796.411636 201.173988 
L 797.121818 201.219738 
L 797.832 201.754956 
L 798.542182 197.420341 
L 799.252364 194.671544 
L 799.962545 198.847849 
L 800.672727 195.217563 
L 801.382909 197.847598 
L 802.093091 196.566917 
L 802.803273 197.925924 
L 803.513455 199.98098 
L 804.223636 203.294603 
L 804.933818 199.281633 
L 805.644 203.231831 
L 806.354182 201.66369 
L 807.064364 202.505227 
L 807.774545 202.388167 
L 808.484727 203.913485 
L 809.905091 210.486717 
L 810.615273 212.33333 
L 811.325455 218.224492 
L 812.035636 218.876212 
L 812.745818 218.201793 
L 813.456 217.794472 
L 814.166182 219.188025 
L 814.876364 219.996615 
L 815.586545 219.605321 
L 816.296727 219.794297 
L 817.006909 224.24996 
L 817.717091 221.869356 
L 818.427273 224.881647 
L 819.137455 225.836898 
L 819.847636 227.299422 
L 820.557818 229.406518 
L 821.268 229.026902 
L 821.978182 227.98771 
L 822.688364 227.389051 
L 823.398545 227.952766 
L 824.108727 227.338829 
L 824.818909 227.969892 
L 825.529091 225.353448 
L 826.239273 223.891175 
L 826.949455 218.758679 
L 827.659636 217.340542 
L 828.369818 218.114703 
L 829.08 217.490629 
L 830.500364 213.152248 
L 831.210545 215.426018 
L 831.920727 212.842397 
L 832.630909 211.373915 
L 833.341091 210.218974 
L 834.051273 206.499982 
L 834.761455 203.408719 
L 835.471636 204.854583 
L 836.181818 204.25458 
L 837.602182 201.672935 
L 838.312364 202.587298 
L 839.022545 203.854495 
L 839.732727 203.773484 
L 840.442909 208.949629 
L 841.153091 207.773279 
L 841.863273 210.521849 
L 842.573455 209.825434 
L 843.283636 208.61805 
L 843.993818 211.612254 
L 844.704 213.322095 
L 845.414182 213.713131 
L 846.124364 215.929029 
L 846.834545 212.524583 
L 847.544727 211.866463 
L 848.254909 210.158636 
L 848.965091 211.142017 
L 849.675273 210.368322 
L 851.095636 213.325945 
L 851.805818 212.100254 
L 852.516 212.16386 
L 853.226182 210.727791 
L 853.936364 208.245829 
L 854.646545 208.062542 
L 855.356727 208.004937 
L 856.066909 211.800358 
L 856.777091 213.796447 
L 857.487273 207.320639 
L 858.197455 209.242616 
L 858.907636 208.064044 
L 859.617818 211.0803 
L 860.328 212.358037 
L 861.038182 212.612587 
L 861.748364 215.485912 
L 862.458545 215.015541 
L 863.168727 213.312311 
L 863.878909 213.774587 
L 864.589091 210.373296 
L 865.299273 210.743195 
L 866.009455 208.211414 
L 867.429818 209.167276 
L 868.14 207.973278 
L 868.850182 204.953574 
L 869.560364 209.875011 
L 870.270545 210.027748 
L 870.980727 209.400106 
L 871.690909 212.635215 
L 871.690909 212.635215 
" clip-path="url(#p29551e6344)" style="fill: none; stroke: #ff7f0e; stroke-width: 1.5; stroke-linecap: square"/>
   </g>
   <g id="line2d_16">
    <path d="M 162.219273 369.36 
L 169.321091 368.950493 
L 170.031273 368.757043 
L 172.872 368.547689 
L 175.002545 368.314264 
L 177.843273 368.230069 
L 180.684 368.14677 
L 184.234909 368.074555 
L 184.945091 368.042335 
L 186.365455 367.783234 
L 189.206182 367.673388 
L 192.046909 367.690915 
L 195.597818 367.343445 
L 197.018182 367.259852 
L 204.12 367.179291 
L 208.381091 366.276685 
L 209.091273 366.173094 
L 209.801455 365.681604 
L 213.352364 365.700992 
L 214.062545 365.444332 
L 216.903273 365.273991 
L 218.323636 365.284067 
L 221.874545 365.097791 
L 226.845818 364.976215 
L 228.266182 364.990922 
L 228.976364 364.635351 
L 230.396727 364.63264 
L 231.106909 364.465261 
L 233.947636 364.378539 
L 234.657818 364.298665 
L 236.078182 364.397399 
L 237.498545 364.187546 
L 238.208727 364.010088 
L 239.629091 363.990803 
L 241.049455 363.534568 
L 244.600364 363.452211 
L 247.441091 363.470816 
L 248.151273 363.352838 
L 248.861455 363.349207 
L 249.571636 363.017089 
L 250.992 362.999496 
L 251.702182 362.905651 
L 253.122545 362.950714 
L 259.514182 362.361952 
L 260.934545 362.129079 
L 263.065091 362.190313 
L 264.485455 361.934109 
L 265.195636 361.935479 
L 265.905818 361.725678 
L 268.036364 361.729451 
L 268.746545 361.524625 
L 270.166909 361.41183 
L 273.007636 361.384178 
L 273.717818 361.271561 
L 274.428 361.295511 
L 275.848364 361.206419 
L 277.978909 361.109158 
L 278.689091 361.091963 
L 279.399273 360.942618 
L 285.790909 360.698618 
L 286.501091 360.580492 
L 287.211273 360.601847 
L 288.631636 360.487368 
L 292.182545 360.355226 
L 295.023273 360.279006 
L 296.443636 360.149359 
L 298.574182 359.971994 
L 300.704727 359.897632 
L 301.414909 359.920034 
L 302.125091 359.671822 
L 303.545455 359.633169 
L 304.255636 359.481324 
L 306.386182 359.445539 
L 307.806545 359.311303 
L 309.226909 359.30559 
L 309.937091 359.054486 
L 314.198182 359.002028 
L 315.618545 358.663197 
L 317.749091 358.690199 
L 318.459273 358.465951 
L 319.879636 358.475382 
L 320.589818 357.979313 
L 327.691636 357.652726 
L 329.112 357.349371 
L 334.083273 357.354147 
L 334.793455 356.95307 
L 336.924 356.893733 
L 337.634182 356.673817 
L 339.054545 356.639949 
L 339.764727 356.567263 
L 340.474909 356.245548 
L 344.736 356.16567 
L 346.156364 356.139779 
L 347.576727 356.069728 
L 348.286909 355.788151 
L 351.127636 355.67927 
L 352.548 355.617042 
L 355.388727 355.533758 
L 356.809091 355.457008 
L 357.519273 355.18344 
L 361.070182 355.167789 
L 361.780364 354.890414 
L 362.490545 354.883156 
L 363.200727 354.548945 
L 365.331273 354.582456 
L 366.751636 354.541795 
L 370.302545 354.543727 
L 373.853455 354.227449 
L 379.534909 354.113827 
L 380.955273 354.067455 
L 382.375636 353.450691 
L 383.796 353.379046 
L 385.216364 353.117513 
L 386.636727 352.9782 
L 388.057091 352.82679 
L 390.897818 352.813347 
L 391.608 352.618767 
L 396.579273 352.543671 
L 397.289455 352.49806 
L 397.999636 352.197231 
L 402.260727 352.063356 
L 403.681091 351.864866 
L 407.232 351.701698 
L 407.942182 351.555124 
L 411.493091 351.340383 
L 412.913455 351.251046 
L 422.856 351.163283 
L 423.566182 350.713214 
L 428.537455 350.551258 
L 429.247636 350.397433 
L 431.378182 350.339036 
L 434.929091 350.229664 
L 435.639273 349.904238 
L 437.769818 349.955848 
L 444.871636 349.913814 
L 447.002182 349.690227 
L 448.422545 349.63857 
L 449.132727 349.386709 
L 456.234545 349.303125 
L 456.944727 349.099103 
L 457.654909 348.603348 
L 459.075273 348.606739 
L 459.785455 348.240412 
L 463.336364 348.139549 
L 464.756727 347.948683 
L 467.597455 347.94271 
L 469.017818 347.775972 
L 469.728 347.799873 
L 473.278909 347.276885 
L 475.409455 347.168985 
L 480.380727 346.642769 
L 481.090909 346.322998 
L 482.511273 346.206149 
L 483.221455 345.968488 
L 486.062182 345.974161 
L 486.772364 345.851057 
L 487.482545 345.442139 
L 488.902909 345.282127 
L 495.294545 344.781682 
L 503.816727 344.712319 
L 505.237091 344.548709 
L 509.498182 344.558038 
L 510.208364 344.309613 
L 510.918545 344.288643 
L 511.628727 344.149185 
L 513.759273 344.109259 
L 514.469455 344.068363 
L 515.889818 343.740072 
L 516.6 343.658344 
L 517.310182 343.333152 
L 523.701818 343.18478 
L 530.803636 342.659784 
L 532.224 342.631773 
L 532.934182 342.288172 
L 534.354545 342.288174 
L 535.064727 342.076613 
L 535.774909 342.083784 
L 537.905455 341.773281 
L 538.615636 341.803307 
L 540.036 341.656515 
L 541.456364 341.587352 
L 542.876727 341.212228 
L 543.586909 341.212818 
L 544.297091 341.023938 
L 549.268364 340.925513 
L 549.978545 340.709826 
L 550.688727 340.767208 
L 553.529455 340.565417 
L 554.949818 340.575797 
L 555.66 340.579275 
L 557.790545 340.307575 
L 558.500727 340.291091 
L 559.210909 340.144937 
L 568.443273 340.057934 
L 569.863636 339.910104 
L 572.704364 339.669962 
L 574.124727 339.625357 
L 574.834909 339.38784 
L 579.096 339.389183 
L 581.936727 339.29027 
L 594.72 338.553884 
L 595.430182 338.090853 
L 596.850545 337.973377 
L 597.560727 337.558589 
L 598.981091 337.342668 
L 603.242182 337.233176 
L 606.082909 337.073191 
L 610.344 336.997289 
L 611.054182 336.858316 
L 613.184727 336.973406 
L 613.894909 336.758283 
L 616.735636 336.658028 
L 618.156 336.363231 
L 624.547636 336.171427 
L 627.388364 336.068699 
L 633.78 335.961989 
L 638.751273 335.915043 
L 640.171636 335.738069 
L 642.302182 335.599256 
L 643.012364 335.595913 
L 643.722545 335.412793 
L 650.824364 335.258105 
L 651.534545 335.234693 
L 652.244727 335.07669 
L 653.665091 335.094794 
L 657.926182 334.971294 
L 658.636364 334.987371 
L 659.346545 334.751721 
L 660.056727 334.718008 
L 660.766909 334.404699 
L 665.738182 334.293396 
L 668.578909 334.213108 
L 669.289091 334.281595 
L 670.709455 334.137279 
L 675.680727 334.014102 
L 680.652 333.333697 
L 682.072364 333.318722 
L 682.782545 332.977298 
L 686.333455 332.93686 
L 687.753818 332.428807 
L 688.464 332.23924 
L 694.855636 331.98974 
L 699.116727 331.856651 
L 701.247273 331.802894 
L 701.957455 331.643411 
L 704.088 331.583681 
L 705.508364 331.46043 
L 706.218545 331.466291 
L 706.928727 331.189682 
L 708.349091 331.133505 
L 711.189818 331.027261 
L 711.9 330.848696 
L 712.610182 330.861867 
L 713.320364 330.587432 
L 714.740727 330.47055 
L 717.581455 330.311395 
L 721.132364 330.193032 
L 725.393455 329.911636 
L 726.813818 329.656516 
L 731.074909 329.568219 
L 733.205455 329.56125 
L 733.915636 329.400043 
L 735.336 329.424322 
L 737.466545 329.189873 
L 738.886909 329.210866 
L 741.017455 329.041775 
L 741.727636 329.041023 
L 742.437818 328.771051 
L 743.858182 328.7307 
L 745.988727 328.380021 
L 755.221091 328.206247 
L 757.351636 327.602703 
L 760.192364 327.298984 
L 760.902545 326.643203 
L 764.453455 326.281762 
L 765.873818 326.275468 
L 766.584 326.006112 
L 769.424727 325.944355 
L 772.265455 325.867823 
L 775.106182 325.608729 
L 776.526545 325.542857 
L 779.367273 325.444579 
L 780.077455 324.504823 
L 780.787636 324.506009 
L 782.208 324.324022 
L 790.02 324.136844 
L 792.860727 323.798331 
L 795.701455 323.698303 
L 797.121818 323.625888 
L 798.542182 323.527632 
L 802.093091 322.916741 
L 804.933818 322.667722 
L 805.644 322.344864 
L 809.194909 322.337704 
L 811.325455 321.929789 
L 816.296727 321.934844 
L 817.006909 321.692881 
L 826.239273 321.481548 
L 826.949455 321.221465 
L 829.08 321.260121 
L 830.500364 321.166162 
L 831.210545 321.161115 
L 831.920727 321.039731 
L 834.051273 320.919061 
L 835.471636 320.666276 
L 855.356727 319.989854 
L 856.066909 319.84665 
L 856.777091 319.842627 
L 857.487273 319.361405 
L 868.850182 318.718324 
L 869.560364 318.420897 
L 871.690909 318.45264 
L 871.690909 318.45264 
" clip-path="url(#p29551e6344)" style="fill: none; stroke: #2ca02c; stroke-width: 1.5; stroke-linecap: square"/>
   </g>
   <g id="patch_3">
    <path d="M 126 384.48 
L 126 51.84 
" style="fill: none; stroke: #000000; stroke-width: 0.8; stroke-linejoin: miter; stroke-linecap: square"/>
   </g>
   <g id="patch_4">
    <path d="M 907.2 384.48 
L 907.2 51.84 
" style="fill: none; stroke: #000000; stroke-width: 0.8; stroke-linejoin: miter; stroke-linecap: square"/>
   </g>
   <g id="patch_5">
    <path d="M 126 384.48 
L 907.2 384.48 
" style="fill: none; stroke: #000000; stroke-width: 0.8; stroke-linejoin: miter; stroke-linecap: square"/>
   </g>
   <g id="patch_6">
    <path d="M 126 51.84 
L 907.2 51.84 
" style="fill: none; stroke: #000000; stroke-width: 0.8; stroke-linejoin: miter; stroke-linecap: square"/>
   </g>
   <g id="text_16">
    <!-- Quadratic Covariation of $X_t$ and $S_t$ -->
    <g transform="translate(414.54 45.84)scale(0.12 -0.12)">
     <defs>
      <path id="DejaVuSans-66" d="M 2375 4863 
L 2375 4384 
L 1825 4384 
Q 1516 4384 1395 4259 
Q 1275 4134 1275 3809 
L 1275 3500 
L 2222 3500 
L 2222 3053 
L 1275 3053 
L 1275 0 
L 697 0 
L 697 3053 
L 147 3053 
L 147 3500 
L 697 3500 
L 697 3744 
Q 697 4328 969 4595 
Q 1241 4863 1831 4863 
L 2375 4863 
z
" transform="scale(0.015625)"/>
      <path id="DejaVuSans-Oblique-58" d="M 878 4666 
L 1516 4666 
L 2316 2981 
L 3763 4666 
L 4500 4666 
L 2578 2438 
L 3738 0 
L 3103 0 
L 2163 1966 
L 459 0 
L -275 0 
L 1906 2509 
L 878 4666 
z
" transform="scale(0.015625)"/>
      <path id="DejaVuSans-Oblique-74" d="M 2706 3500 
L 2619 3053 
L 1472 3053 
L 1100 1153 
Q 1081 1047 1072 975 
Q 1063 903 1063 863 
Q 1063 663 1183 572 
Q 1303 481 1569 481 
L 2150 481 
L 2053 0 
L 1503 0 
Q 991 0 739 200 
Q 488 400 488 806 
Q 488 878 497 964 
Q 506 1050 525 1153 
L 897 3053 
L 409 3053 
L 500 3500 
L 978 3500 
L 1172 4494 
L 1747 4494 
L 1556 3500 
L 2706 3500 
z
" transform="scale(0.015625)"/>
      <path id="DejaVuSans-Oblique-53" d="M 3859 4513 
L 3738 3897 
Q 3422 4066 3111 4152 
Q 2800 4238 2509 4238 
Q 1944 4238 1609 3991 
Q 1275 3744 1275 3334 
Q 1275 3109 1398 2989 
Q 1522 2869 2034 2731 
L 2413 2638 
Q 3053 2472 3303 2217 
Q 3553 1963 3553 1503 
Q 3553 797 2998 353 
Q 2444 -91 1538 -91 
Q 1166 -91 791 -17 
Q 416 56 38 206 
L 166 856 
Q 513 641 861 531 
Q 1209 422 1556 422 
Q 2147 422 2503 684 
Q 2859 947 2859 1369 
Q 2859 1650 2717 1795 
Q 2575 1941 2106 2059 
L 1728 2156 
Q 1081 2325 845 2545 
Q 609 2766 609 3163 
Q 609 3859 1145 4304 
Q 1681 4750 2541 4750 
Q 2875 4750 3203 4690 
Q 3531 4631 3859 4513 
z
" transform="scale(0.015625)"/>
     </defs>
     <use xlink:href="#DejaVuSans-51" transform="translate(0 0.015625)"/>
     <use xlink:href="#DejaVuSans-75" transform="translate(78.710938 0.015625)"/>
     <use xlink:href="#DejaVuSans-61" transform="translate(142.089844 0.015625)"/>
     <use xlink:href="#DejaVuSans-64" transform="translate(203.369141 0.015625)"/>
     <use xlink:href="#DejaVuSans-72" transform="translate(266.845703 0.015625)"/>
     <use xlink:href="#DejaVuSans-61" transform="translate(307.958984 0.015625)"/>
     <use xlink:href="#DejaVuSans-74" transform="translate(369.238281 0.015625)"/>
     <use xlink:href="#DejaVuSans-69" transform="translate(408.447266 0.015625)"/>
     <use xlink:href="#DejaVuSans-63" transform="translate(436.230469 0.015625)"/>
     <use xlink:href="#DejaVuSans-20" transform="translate(491.210938 0.015625)"/>
     <use xlink:href="#DejaVuSans-43" transform="translate(522.998047 0.015625)"/>
     <use xlink:href="#DejaVuSans-6f" transform="translate(592.822266 0.015625)"/>
     <use xlink:href="#DejaVuSans-76" transform="translate(654.003906 0.015625)"/>
     <use xlink:href="#DejaVuSans-61" transform="translate(713.183594 0.015625)"/>
     <use xlink:href="#DejaVuSans-72" transform="translate(774.462891 0.015625)"/>
     <use xlink:href="#DejaVuSans-69" transform="translate(815.576172 0.015625)"/>
     <use xlink:href="#DejaVuSans-61" transform="translate(843.359375 0.015625)"/>
     <use xlink:href="#DejaVuSans-74" transform="translate(904.638672 0.015625)"/>
     <use xlink:href="#DejaVuSans-69" transform="translate(943.847656 0.015625)"/>
     <use xlink:href="#DejaVuSans-6f" transform="translate(971.630859 0.015625)"/>
     <use xlink:href="#DejaVuSans-6e" transform="translate(1032.8125 0.015625)"/>
     <use xlink:href="#DejaVuSans-20" transform="translate(1096.191406 0.015625)"/>
     <use xlink:href="#DejaVuSans-6f" transform="translate(1127.978516 0.015625)"/>
     <use xlink:href="#DejaVuSans-66" transform="translate(1189.160156 0.015625)"/>
     <use xlink:href="#DejaVuSans-20" transform="translate(1224.365234 0.015625)"/>
     <use xlink:href="#DejaVuSans-Oblique-58" transform="translate(1256.152344 0.015625)"/>
     <use xlink:href="#DejaVuSans-Oblique-74" transform="translate(1324.658203 -16.390625)scale(0.7)"/>
     <use xlink:href="#DejaVuSans-20" transform="translate(1354.838867 0.015625)"/>
     <use xlink:href="#DejaVuSans-61" transform="translate(1386.625977 0.015625)"/>
     <use xlink:href="#DejaVuSans-6e" transform="translate(1447.905273 0.015625)"/>
     <use xlink:href="#DejaVuSans-64" transform="translate(1511.28418 0.015625)"/>
     <use xlink:href="#DejaVuSans-20" transform="translate(1574.760742 0.015625)"/>
     <use xlink:href="#DejaVuSans-Oblique-53" transform="translate(1606.547852 0.015625)"/>
     <use xlink:href="#DejaVuSans-Oblique-74" transform="translate(1670.024414 -16.390625)scale(0.7)"/>
    </g>
   </g>
   <g id="legend_1">
    <g id="patch_7">
     <path d="M 698.1 103.874375 
L 900.2 103.874375 
Q 902.2 103.874375 902.2 101.874375 
L 902.2 58.84 
Q 902.2 56.84 900.2 56.84 
L 698.1 56.84 
Q 696.1 56.84 696.1 58.84 
L 696.1 101.874375 
Q 696.1 103.874375 698.1 103.874375 
z
" style="fill: #ffffff; opacity: 0.8; stroke: #cccccc; stroke-linejoin: miter"/>
    </g>
    <g id="line2d_17">
     <path d="M 700.1 64.938437 
L 710.1 64.938437 
L 720.1 64.938437 
" style="fill: none; stroke: #1f77b4; stroke-width: 1.5; stroke-linecap: square"/>
    </g>
    <g id="text_17">
     <!-- $X_t$ -->
     <g transform="translate(728.1 68.438437)scale(0.1 -0.1)">
      <use xlink:href="#DejaVuSans-Oblique-58" transform="translate(0 0.09375)"/>
      <use xlink:href="#DejaVuSans-Oblique-74" transform="translate(68.505859 -16.3125)scale(0.7)"/>
     </g>
    </g>
    <g id="line2d_18">
     <path d="M 700.1 79.616562 
L 710.1 79.616562 
L 720.1 79.616562 
" style="fill: none; stroke: #ff7f0e; stroke-width: 1.5; stroke-linecap: square"/>
    </g>
    <g id="text_18">
     <!-- $S_t$ -->
     <g transform="translate(728.1 83.116562)scale(0.1 -0.1)">
      <use xlink:href="#DejaVuSans-Oblique-53" transform="translate(0 0.78125)"/>
      <use xlink:href="#DejaVuSans-Oblique-74" transform="translate(63.476562 -15.625)scale(0.7)"/>
     </g>
    </g>
    <g id="line2d_19">
     <path d="M 700.1 94.294687 
L 710.1 94.294687 
L 720.1 94.294687 
" style="fill: none; stroke: #2ca02c; stroke-width: 1.5; stroke-linecap: square"/>
    </g>
    <g id="text_19">
     <!-- Quadratic Covariation of $X_t$ and $S_t$ -->
     <g transform="translate(728.1 97.794687)scale(0.1 -0.1)">
      <use xlink:href="#DejaVuSans-51" transform="translate(0 0.015625)"/>
      <use xlink:href="#DejaVuSans-75" transform="translate(78.710938 0.015625)"/>
      <use xlink:href="#DejaVuSans-61" transform="translate(142.089844 0.015625)"/>
      <use xlink:href="#DejaVuSans-64" transform="translate(203.369141 0.015625)"/>
      <use xlink:href="#DejaVuSans-72" transform="translate(266.845703 0.015625)"/>
      <use xlink:href="#DejaVuSans-61" transform="translate(307.958984 0.015625)"/>
      <use xlink:href="#DejaVuSans-74" transform="translate(369.238281 0.015625)"/>
      <use xlink:href="#DejaVuSans-69" transform="translate(408.447266 0.015625)"/>
      <use xlink:href="#DejaVuSans-63" transform="translate(436.230469 0.015625)"/>
      <use xlink:href="#DejaVuSans-20" transform="translate(491.210938 0.015625)"/>
      <use xlink:href="#DejaVuSans-43" transform="translate(522.998047 0.015625)"/>
      <use xlink:href="#DejaVuSans-6f" transform="translate(592.822266 0.015625)"/>
      <use xlink:href="#DejaVuSans-76" transform="translate(654.003906 0.015625)"/>
      <use xlink:href="#DejaVuSans-61" transform="translate(713.183594 0.015625)"/>
      <use xlink:href="#DejaVuSans-72" transform="translate(774.462891 0.015625)"/>
      <use xlink:href="#DejaVuSans-69" transform="translate(815.576172 0.015625)"/>
      <use xlink:href="#DejaVuSans-61" transform="translate(843.359375 0.015625)"/>
      <use xlink:href="#DejaVuSans-74" transform="translate(904.638672 0.015625)"/>
      <use xlink:href="#DejaVuSans-69" transform="translate(943.847656 0.015625)"/>
      <use xlink:href="#DejaVuSans-6f" transform="translate(971.630859 0.015625)"/>
      <use xlink:href="#DejaVuSans-6e" transform="translate(1032.8125 0.015625)"/>
      <use xlink:href="#DejaVuSans-20" transform="translate(1096.191406 0.015625)"/>
      <use xlink:href="#DejaVuSans-6f" transform="translate(1127.978516 0.015625)"/>
      <use xlink:href="#DejaVuSans-66" transform="translate(1189.160156 0.015625)"/>
      <use xlink:href="#DejaVuSans-20" transform="translate(1224.365234 0.015625)"/>
      <use xlink:href="#DejaVuSans-Oblique-58" transform="translate(1256.152344 0.015625)"/>
      <use xlink:href="#DejaVuSans-Oblique-74" transform="translate(1324.658203 -16.390625)scale(0.7)"/>
      <use xlink:href="#DejaVuSans-20" transform="translate(1354.838867 0.015625)"/>
      <use xlink:href="#DejaVuSans-61" transform="translate(1386.625977 0.015625)"/>
      <use xlink:href="#DejaVuSans-6e" transform="translate(1447.905273 0.015625)"/>
      <use xlink:href="#DejaVuSans-64" transform="translate(1511.28418 0.015625)"/>
      <use xlink:href="#DejaVuSans-20" transform="translate(1574.760742 0.015625)"/>
      <use xlink:href="#DejaVuSans-Oblique-53" transform="translate(1606.547852 0.015625)"/>
      <use xlink:href="#DejaVuSans-Oblique-74" transform="translate(1670.024414 -16.390625)scale(0.7)"/>
     </g>
    </g>
   </g>
  </g>
 </g>
 <defs>
  <clipPath id="p29551e6344">
   <rect x="126" y="51.84" width="781.2" height="332.64"/>
  </clipPath>
 </defs>
</svg>
