<?xml version="1.0" encoding="utf-8" standalone="no"?>
<!DOCTYPE svg PUBLIC "-//W3C//DTD SVG 1.1//EN"
  "http://www.w3.org/Graphics/SVG/1.1/DTD/svg11.dtd">
<svg xmlns:xlink="http://www.w3.org/1999/xlink" width="1008pt" height="432pt" viewBox="0 0 1008 432" xmlns="http://www.w3.org/2000/svg" version="1.1">
 <metadata>
  <rdf:RDF xmlns:dc="http://purl.org/dc/elements/1.1/" xmlns:cc="http://creativecommons.org/ns#" xmlns:rdf="http://www.w3.org/1999/02/22-rdf-syntax-ns#">
   <cc:Work>
    <dc:type rdf:resource="http://purl.org/dc/dcmitype/StillImage"/>
    <dc:date>2023-12-22T17:15:26.919376</dc:date>
    <dc:format>image/svg+xml</dc:format>
    <dc:creator>
     <cc:Agent>
      <dc:title>Matplotlib v3.5.2, https://matplotlib.org/</dc:title>
     </cc:Agent>
    </dc:creator>
   </cc:Work>
  </rdf:RDF>
 </metadata>
 <defs>
  <style type="text/css">*{stroke-linejoin: round; stroke-linecap: butt}</style>
 </defs>
 <g id="figure_1">
  <g id="patch_1">
   <path d="M 0 432 
L 1008 432 
L 1008 0 
L 0 0 
z
" style="fill: #ffffff"/>
  </g>
  <g id="axes_1">
   <g id="patch_2">
    <path d="M 126 384.48 
L 907.2 384.48 
L 907.2 51.84 
L 126 51.84 
z
" style="fill: #ffffff"/>
   </g>
   <g id="matplotlib.axis_1">
    <g id="xtick_1">
     <g id="line2d_1">
      <defs>
       <path id="m09b873a7e0" d="M 0 0 
L 0 3.5 
" style="stroke: #000000; stroke-width: 0.8"/>
      </defs>
      <g>
       <use xlink:href="#m09b873a7e0" x="161.509091" y="384.48" style="stroke: #000000; stroke-width: 0.8"/>
      </g>
     </g>
     <g id="text_1">
      <!-- 0.0 -->
      <g transform="translate(153.557528 399.078438)scale(0.1 -0.1)">
       <defs>
        <path id="DejaVuSans-30" d="M 2034 4250 
Q 1547 4250 1301 3770 
Q 1056 3291 1056 2328 
Q 1056 1369 1301 889 
Q 1547 409 2034 409 
Q 2525 409 2770 889 
Q 3016 1369 3016 2328 
Q 3016 3291 2770 3770 
Q 2525 4250 2034 4250 
z
M 2034 4750 
Q 2819 4750 3233 4129 
Q 3647 3509 3647 2328 
Q 3647 1150 3233 529 
Q 2819 -91 2034 -91 
Q 1250 -91 836 529 
Q 422 1150 422 2328 
Q 422 3509 836 4129 
Q 1250 4750 2034 4750 
z
" transform="scale(0.015625)"/>
        <path id="DejaVuSans-2e" d="M 684 794 
L 1344 794 
L 1344 0 
L 684 0 
L 684 794 
z
" transform="scale(0.015625)"/>
       </defs>
       <use xlink:href="#DejaVuSans-30"/>
       <use xlink:href="#DejaVuSans-2e" x="63.623047"/>
       <use xlink:href="#DejaVuSans-30" x="95.410156"/>
      </g>
     </g>
    </g>
    <g id="xtick_2">
     <g id="line2d_2">
      <g>
       <use xlink:href="#m09b873a7e0" x="303.545455" y="384.48" style="stroke: #000000; stroke-width: 0.8"/>
      </g>
     </g>
     <g id="text_2">
      <!-- 0.2 -->
      <g transform="translate(295.593892 399.078438)scale(0.1 -0.1)">
       <defs>
        <path id="DejaVuSans-32" d="M 1228 531 
L 3431 531 
L 3431 0 
L 469 0 
L 469 531 
Q 828 903 1448 1529 
Q 2069 2156 2228 2338 
Q 2531 2678 2651 2914 
Q 2772 3150 2772 3378 
Q 2772 3750 2511 3984 
Q 2250 4219 1831 4219 
Q 1534 4219 1204 4116 
Q 875 4013 500 3803 
L 500 4441 
Q 881 4594 1212 4672 
Q 1544 4750 1819 4750 
Q 2544 4750 2975 4387 
Q 3406 4025 3406 3419 
Q 3406 3131 3298 2873 
Q 3191 2616 2906 2266 
Q 2828 2175 2409 1742 
Q 1991 1309 1228 531 
z
" transform="scale(0.015625)"/>
       </defs>
       <use xlink:href="#DejaVuSans-30"/>
       <use xlink:href="#DejaVuSans-2e" x="63.623047"/>
       <use xlink:href="#DejaVuSans-32" x="95.410156"/>
      </g>
     </g>
    </g>
    <g id="xtick_3">
     <g id="line2d_3">
      <g>
       <use xlink:href="#m09b873a7e0" x="445.581818" y="384.48" style="stroke: #000000; stroke-width: 0.8"/>
      </g>
     </g>
     <g id="text_3">
      <!-- 0.4 -->
      <g transform="translate(437.630256 399.078438)scale(0.1 -0.1)">
       <defs>
        <path id="DejaVuSans-34" d="M 2419 4116 
L 825 1625 
L 2419 1625 
L 2419 4116 
z
M 2253 4666 
L 3047 4666 
L 3047 1625 
L 3713 1625 
L 3713 1100 
L 3047 1100 
L 3047 0 
L 2419 0 
L 2419 1100 
L 313 1100 
L 313 1709 
L 2253 4666 
z
" transform="scale(0.015625)"/>
       </defs>
       <use xlink:href="#DejaVuSans-30"/>
       <use xlink:href="#DejaVuSans-2e" x="63.623047"/>
       <use xlink:href="#DejaVuSans-34" x="95.410156"/>
      </g>
     </g>
    </g>
    <g id="xtick_4">
     <g id="line2d_4">
      <g>
       <use xlink:href="#m09b873a7e0" x="587.618182" y="384.48" style="stroke: #000000; stroke-width: 0.8"/>
      </g>
     </g>
     <g id="text_4">
      <!-- 0.6 -->
      <g transform="translate(579.666619 399.078438)scale(0.1 -0.1)">
       <defs>
        <path id="DejaVuSans-36" d="M 2113 2584 
Q 1688 2584 1439 2293 
Q 1191 2003 1191 1497 
Q 1191 994 1439 701 
Q 1688 409 2113 409 
Q 2538 409 2786 701 
Q 3034 994 3034 1497 
Q 3034 2003 2786 2293 
Q 2538 2584 2113 2584 
z
M 3366 4563 
L 3366 3988 
Q 3128 4100 2886 4159 
Q 2644 4219 2406 4219 
Q 1781 4219 1451 3797 
Q 1122 3375 1075 2522 
Q 1259 2794 1537 2939 
Q 1816 3084 2150 3084 
Q 2853 3084 3261 2657 
Q 3669 2231 3669 1497 
Q 3669 778 3244 343 
Q 2819 -91 2113 -91 
Q 1303 -91 875 529 
Q 447 1150 447 2328 
Q 447 3434 972 4092 
Q 1497 4750 2381 4750 
Q 2619 4750 2861 4703 
Q 3103 4656 3366 4563 
z
" transform="scale(0.015625)"/>
       </defs>
       <use xlink:href="#DejaVuSans-30"/>
       <use xlink:href="#DejaVuSans-2e" x="63.623047"/>
       <use xlink:href="#DejaVuSans-36" x="95.410156"/>
      </g>
     </g>
    </g>
    <g id="xtick_5">
     <g id="line2d_5">
      <g>
       <use xlink:href="#m09b873a7e0" x="729.654545" y="384.48" style="stroke: #000000; stroke-width: 0.8"/>
      </g>
     </g>
     <g id="text_5">
      <!-- 0.8 -->
      <g transform="translate(721.702983 399.078438)scale(0.1 -0.1)">
       <defs>
        <path id="DejaVuSans-38" d="M 2034 2216 
Q 1584 2216 1326 1975 
Q 1069 1734 1069 1313 
Q 1069 891 1326 650 
Q 1584 409 2034 409 
Q 2484 409 2743 651 
Q 3003 894 3003 1313 
Q 3003 1734 2745 1975 
Q 2488 2216 2034 2216 
z
M 1403 2484 
Q 997 2584 770 2862 
Q 544 3141 544 3541 
Q 544 4100 942 4425 
Q 1341 4750 2034 4750 
Q 2731 4750 3128 4425 
Q 3525 4100 3525 3541 
Q 3525 3141 3298 2862 
Q 3072 2584 2669 2484 
Q 3125 2378 3379 2068 
Q 3634 1759 3634 1313 
Q 3634 634 3220 271 
Q 2806 -91 2034 -91 
Q 1263 -91 848 271 
Q 434 634 434 1313 
Q 434 1759 690 2068 
Q 947 2378 1403 2484 
z
M 1172 3481 
Q 1172 3119 1398 2916 
Q 1625 2713 2034 2713 
Q 2441 2713 2670 2916 
Q 2900 3119 2900 3481 
Q 2900 3844 2670 4047 
Q 2441 4250 2034 4250 
Q 1625 4250 1398 4047 
Q 1172 3844 1172 3481 
z
" transform="scale(0.015625)"/>
       </defs>
       <use xlink:href="#DejaVuSans-30"/>
       <use xlink:href="#DejaVuSans-2e" x="63.623047"/>
       <use xlink:href="#DejaVuSans-38" x="95.410156"/>
      </g>
     </g>
    </g>
    <g id="xtick_6">
     <g id="line2d_6">
      <g>
       <use xlink:href="#m09b873a7e0" x="871.690909" y="384.48" style="stroke: #000000; stroke-width: 0.8"/>
      </g>
     </g>
     <g id="text_6">
      <!-- 1.0 -->
      <g transform="translate(863.739347 399.078438)scale(0.1 -0.1)">
       <defs>
        <path id="DejaVuSans-31" d="M 794 531 
L 1825 531 
L 1825 4091 
L 703 3866 
L 703 4441 
L 1819 4666 
L 2450 4666 
L 2450 531 
L 3481 531 
L 3481 0 
L 794 0 
L 794 531 
z
" transform="scale(0.015625)"/>
       </defs>
       <use xlink:href="#DejaVuSans-31"/>
       <use xlink:href="#DejaVuSans-2e" x="63.623047"/>
       <use xlink:href="#DejaVuSans-30" x="95.410156"/>
      </g>
     </g>
    </g>
    <g id="text_7">
     <!-- Time -->
     <g transform="translate(504.366406 412.756563)scale(0.1 -0.1)">
      <defs>
       <path id="DejaVuSans-54" d="M -19 4666 
L 3928 4666 
L 3928 4134 
L 2272 4134 
L 2272 0 
L 1638 0 
L 1638 4134 
L -19 4134 
L -19 4666 
z
" transform="scale(0.015625)"/>
       <path id="DejaVuSans-69" d="M 603 3500 
L 1178 3500 
L 1178 0 
L 603 0 
L 603 3500 
z
M 603 4863 
L 1178 4863 
L 1178 4134 
L 603 4134 
L 603 4863 
z
" transform="scale(0.015625)"/>
       <path id="DejaVuSans-6d" d="M 3328 2828 
Q 3544 3216 3844 3400 
Q 4144 3584 4550 3584 
Q 5097 3584 5394 3201 
Q 5691 2819 5691 2113 
L 5691 0 
L 5113 0 
L 5113 2094 
Q 5113 2597 4934 2840 
Q 4756 3084 4391 3084 
Q 3944 3084 3684 2787 
Q 3425 2491 3425 1978 
L 3425 0 
L 2847 0 
L 2847 2094 
Q 2847 2600 2669 2842 
Q 2491 3084 2119 3084 
Q 1678 3084 1418 2786 
Q 1159 2488 1159 1978 
L 1159 0 
L 581 0 
L 581 3500 
L 1159 3500 
L 1159 2956 
Q 1356 3278 1631 3431 
Q 1906 3584 2284 3584 
Q 2666 3584 2933 3390 
Q 3200 3197 3328 2828 
z
" transform="scale(0.015625)"/>
       <path id="DejaVuSans-65" d="M 3597 1894 
L 3597 1613 
L 953 1613 
Q 991 1019 1311 708 
Q 1631 397 2203 397 
Q 2534 397 2845 478 
Q 3156 559 3463 722 
L 3463 178 
Q 3153 47 2828 -22 
Q 2503 -91 2169 -91 
Q 1331 -91 842 396 
Q 353 884 353 1716 
Q 353 2575 817 3079 
Q 1281 3584 2069 3584 
Q 2775 3584 3186 3129 
Q 3597 2675 3597 1894 
z
M 3022 2063 
Q 3016 2534 2758 2815 
Q 2500 3097 2075 3097 
Q 1594 3097 1305 2825 
Q 1016 2553 972 2059 
L 3022 2063 
z
" transform="scale(0.015625)"/>
      </defs>
      <use xlink:href="#DejaVuSans-54"/>
      <use xlink:href="#DejaVuSans-69" x="57.958984"/>
      <use xlink:href="#DejaVuSans-6d" x="85.742188"/>
      <use xlink:href="#DejaVuSans-65" x="183.154297"/>
     </g>
    </g>
   </g>
   <g id="matplotlib.axis_2">
    <g id="ytick_1">
     <g id="line2d_7">
      <defs>
       <path id="mf7d9b0cb1d" d="M 0 0 
L -3.5 0 
" style="stroke: #000000; stroke-width: 0.8"/>
      </defs>
      <g>
       <use xlink:href="#mf7d9b0cb1d" x="126" y="334.993684" style="stroke: #000000; stroke-width: 0.8"/>
      </g>
     </g>
     <g id="text_8">
      <!-- −1.0 -->
      <g transform="translate(94.717187 338.792902)scale(0.1 -0.1)">
       <defs>
        <path id="DejaVuSans-2212" d="M 678 2272 
L 4684 2272 
L 4684 1741 
L 678 1741 
L 678 2272 
z
" transform="scale(0.015625)"/>
       </defs>
       <use xlink:href="#DejaVuSans-2212"/>
       <use xlink:href="#DejaVuSans-31" x="83.789062"/>
       <use xlink:href="#DejaVuSans-2e" x="147.412109"/>
       <use xlink:href="#DejaVuSans-30" x="179.199219"/>
      </g>
     </g>
    </g>
    <g id="ytick_2">
     <g id="line2d_8">
      <g>
       <use xlink:href="#mf7d9b0cb1d" x="126" y="282.331193" style="stroke: #000000; stroke-width: 0.8"/>
      </g>
     </g>
     <g id="text_9">
      <!-- −0.5 -->
      <g transform="translate(94.717187 286.130411)scale(0.1 -0.1)">
       <defs>
        <path id="DejaVuSans-35" d="M 691 4666 
L 3169 4666 
L 3169 4134 
L 1269 4134 
L 1269 2991 
Q 1406 3038 1543 3061 
Q 1681 3084 1819 3084 
Q 2600 3084 3056 2656 
Q 3513 2228 3513 1497 
Q 3513 744 3044 326 
Q 2575 -91 1722 -91 
Q 1428 -91 1123 -41 
Q 819 9 494 109 
L 494 744 
Q 775 591 1075 516 
Q 1375 441 1709 441 
Q 2250 441 2565 725 
Q 2881 1009 2881 1497 
Q 2881 1984 2565 2268 
Q 2250 2553 1709 2553 
Q 1456 2553 1204 2497 
Q 953 2441 691 2322 
L 691 4666 
z
" transform="scale(0.015625)"/>
       </defs>
       <use xlink:href="#DejaVuSans-2212"/>
       <use xlink:href="#DejaVuSans-30" x="83.789062"/>
       <use xlink:href="#DejaVuSans-2e" x="147.412109"/>
       <use xlink:href="#DejaVuSans-35" x="179.199219"/>
      </g>
     </g>
    </g>
    <g id="ytick_3">
     <g id="line2d_9">
      <g>
       <use xlink:href="#mf7d9b0cb1d" x="126" y="229.668702" style="stroke: #000000; stroke-width: 0.8"/>
      </g>
     </g>
     <g id="text_10">
      <!-- 0.0 -->
      <g transform="translate(103.096875 233.46792)scale(0.1 -0.1)">
       <use xlink:href="#DejaVuSans-30"/>
       <use xlink:href="#DejaVuSans-2e" x="63.623047"/>
       <use xlink:href="#DejaVuSans-30" x="95.410156"/>
      </g>
     </g>
    </g>
    <g id="ytick_4">
     <g id="line2d_10">
      <g>
       <use xlink:href="#mf7d9b0cb1d" x="126" y="177.006211" style="stroke: #000000; stroke-width: 0.8"/>
      </g>
     </g>
     <g id="text_11">
      <!-- 0.5 -->
      <g transform="translate(103.096875 180.805429)scale(0.1 -0.1)">
       <use xlink:href="#DejaVuSans-30"/>
       <use xlink:href="#DejaVuSans-2e" x="63.623047"/>
       <use xlink:href="#DejaVuSans-35" x="95.410156"/>
      </g>
     </g>
    </g>
    <g id="ytick_5">
     <g id="line2d_11">
      <g>
       <use xlink:href="#mf7d9b0cb1d" x="126" y="124.34372" style="stroke: #000000; stroke-width: 0.8"/>
      </g>
     </g>
     <g id="text_12">
      <!-- 1.0 -->
      <g transform="translate(103.096875 128.142939)scale(0.1 -0.1)">
       <use xlink:href="#DejaVuSans-31"/>
       <use xlink:href="#DejaVuSans-2e" x="63.623047"/>
       <use xlink:href="#DejaVuSans-30" x="95.410156"/>
      </g>
     </g>
    </g>
    <g id="ytick_6">
     <g id="line2d_12">
      <g>
       <use xlink:href="#mf7d9b0cb1d" x="126" y="71.681229" style="stroke: #000000; stroke-width: 0.8"/>
      </g>
     </g>
     <g id="text_13">
      <!-- 1.5 -->
      <g transform="translate(103.096875 75.480448)scale(0.1 -0.1)">
       <use xlink:href="#DejaVuSans-31"/>
       <use xlink:href="#DejaVuSans-2e" x="63.623047"/>
       <use xlink:href="#DejaVuSans-35" x="95.410156"/>
      </g>
     </g>
    </g>
    <g id="text_14">
     <!-- Quadratic Covariation -->
     <g transform="translate(88.6375 272.970156)rotate(-90)scale(0.1 -0.1)">
      <defs>
       <path id="DejaVuSans-51" d="M 2522 4238 
Q 1834 4238 1429 3725 
Q 1025 3213 1025 2328 
Q 1025 1447 1429 934 
Q 1834 422 2522 422 
Q 3209 422 3611 934 
Q 4013 1447 4013 2328 
Q 4013 3213 3611 3725 
Q 3209 4238 2522 4238 
z
M 3406 84 
L 4238 -825 
L 3475 -825 
L 2784 -78 
Q 2681 -84 2626 -87 
Q 2572 -91 2522 -91 
Q 1538 -91 948 567 
Q 359 1225 359 2328 
Q 359 3434 948 4092 
Q 1538 4750 2522 4750 
Q 3503 4750 4090 4092 
Q 4678 3434 4678 2328 
Q 4678 1516 4351 937 
Q 4025 359 3406 84 
z
" transform="scale(0.015625)"/>
       <path id="DejaVuSans-75" d="M 544 1381 
L 544 3500 
L 1119 3500 
L 1119 1403 
Q 1119 906 1312 657 
Q 1506 409 1894 409 
Q 2359 409 2629 706 
Q 2900 1003 2900 1516 
L 2900 3500 
L 3475 3500 
L 3475 0 
L 2900 0 
L 2900 538 
Q 2691 219 2414 64 
Q 2138 -91 1772 -91 
Q 1169 -91 856 284 
Q 544 659 544 1381 
z
M 1991 3584 
L 1991 3584 
z
" transform="scale(0.015625)"/>
       <path id="DejaVuSans-61" d="M 2194 1759 
Q 1497 1759 1228 1600 
Q 959 1441 959 1056 
Q 959 750 1161 570 
Q 1363 391 1709 391 
Q 2188 391 2477 730 
Q 2766 1069 2766 1631 
L 2766 1759 
L 2194 1759 
z
M 3341 1997 
L 3341 0 
L 2766 0 
L 2766 531 
Q 2569 213 2275 61 
Q 1981 -91 1556 -91 
Q 1019 -91 701 211 
Q 384 513 384 1019 
Q 384 1609 779 1909 
Q 1175 2209 1959 2209 
L 2766 2209 
L 2766 2266 
Q 2766 2663 2505 2880 
Q 2244 3097 1772 3097 
Q 1472 3097 1187 3025 
Q 903 2953 641 2809 
L 641 3341 
Q 956 3463 1253 3523 
Q 1550 3584 1831 3584 
Q 2591 3584 2966 3190 
Q 3341 2797 3341 1997 
z
" transform="scale(0.015625)"/>
       <path id="DejaVuSans-64" d="M 2906 2969 
L 2906 4863 
L 3481 4863 
L 3481 0 
L 2906 0 
L 2906 525 
Q 2725 213 2448 61 
Q 2172 -91 1784 -91 
Q 1150 -91 751 415 
Q 353 922 353 1747 
Q 353 2572 751 3078 
Q 1150 3584 1784 3584 
Q 2172 3584 2448 3432 
Q 2725 3281 2906 2969 
z
M 947 1747 
Q 947 1113 1208 752 
Q 1469 391 1925 391 
Q 2381 391 2643 752 
Q 2906 1113 2906 1747 
Q 2906 2381 2643 2742 
Q 2381 3103 1925 3103 
Q 1469 3103 1208 2742 
Q 947 2381 947 1747 
z
" transform="scale(0.015625)"/>
       <path id="DejaVuSans-72" d="M 2631 2963 
Q 2534 3019 2420 3045 
Q 2306 3072 2169 3072 
Q 1681 3072 1420 2755 
Q 1159 2438 1159 1844 
L 1159 0 
L 581 0 
L 581 3500 
L 1159 3500 
L 1159 2956 
Q 1341 3275 1631 3429 
Q 1922 3584 2338 3584 
Q 2397 3584 2469 3576 
Q 2541 3569 2628 3553 
L 2631 2963 
z
" transform="scale(0.015625)"/>
       <path id="DejaVuSans-74" d="M 1172 4494 
L 1172 3500 
L 2356 3500 
L 2356 3053 
L 1172 3053 
L 1172 1153 
Q 1172 725 1289 603 
Q 1406 481 1766 481 
L 2356 481 
L 2356 0 
L 1766 0 
Q 1100 0 847 248 
Q 594 497 594 1153 
L 594 3053 
L 172 3053 
L 172 3500 
L 594 3500 
L 594 4494 
L 1172 4494 
z
" transform="scale(0.015625)"/>
       <path id="DejaVuSans-63" d="M 3122 3366 
L 3122 2828 
Q 2878 2963 2633 3030 
Q 2388 3097 2138 3097 
Q 1578 3097 1268 2742 
Q 959 2388 959 1747 
Q 959 1106 1268 751 
Q 1578 397 2138 397 
Q 2388 397 2633 464 
Q 2878 531 3122 666 
L 3122 134 
Q 2881 22 2623 -34 
Q 2366 -91 2075 -91 
Q 1284 -91 818 406 
Q 353 903 353 1747 
Q 353 2603 823 3093 
Q 1294 3584 2113 3584 
Q 2378 3584 2631 3529 
Q 2884 3475 3122 3366 
z
" transform="scale(0.015625)"/>
       <path id="DejaVuSans-20" transform="scale(0.015625)"/>
       <path id="DejaVuSans-43" d="M 4122 4306 
L 4122 3641 
Q 3803 3938 3442 4084 
Q 3081 4231 2675 4231 
Q 1875 4231 1450 3742 
Q 1025 3253 1025 2328 
Q 1025 1406 1450 917 
Q 1875 428 2675 428 
Q 3081 428 3442 575 
Q 3803 722 4122 1019 
L 4122 359 
Q 3791 134 3420 21 
Q 3050 -91 2638 -91 
Q 1578 -91 968 557 
Q 359 1206 359 2328 
Q 359 3453 968 4101 
Q 1578 4750 2638 4750 
Q 3056 4750 3426 4639 
Q 3797 4528 4122 4306 
z
" transform="scale(0.015625)"/>
       <path id="DejaVuSans-6f" d="M 1959 3097 
Q 1497 3097 1228 2736 
Q 959 2375 959 1747 
Q 959 1119 1226 758 
Q 1494 397 1959 397 
Q 2419 397 2687 759 
Q 2956 1122 2956 1747 
Q 2956 2369 2687 2733 
Q 2419 3097 1959 3097 
z
M 1959 3584 
Q 2709 3584 3137 3096 
Q 3566 2609 3566 1747 
Q 3566 888 3137 398 
Q 2709 -91 1959 -91 
Q 1206 -91 779 398 
Q 353 888 353 1747 
Q 353 2609 779 3096 
Q 1206 3584 1959 3584 
z
" transform="scale(0.015625)"/>
       <path id="DejaVuSans-76" d="M 191 3500 
L 800 3500 
L 1894 563 
L 2988 3500 
L 3597 3500 
L 2284 0 
L 1503 0 
L 191 3500 
z
" transform="scale(0.015625)"/>
       <path id="DejaVuSans-6e" d="M 3513 2113 
L 3513 0 
L 2938 0 
L 2938 2094 
Q 2938 2591 2744 2837 
Q 2550 3084 2163 3084 
Q 1697 3084 1428 2787 
Q 1159 2491 1159 1978 
L 1159 0 
L 581 0 
L 581 3500 
L 1159 3500 
L 1159 2956 
Q 1366 3272 1645 3428 
Q 1925 3584 2291 3584 
Q 2894 3584 3203 3211 
Q 3513 2838 3513 2113 
z
" transform="scale(0.015625)"/>
      </defs>
      <use xlink:href="#DejaVuSans-51"/>
      <use xlink:href="#DejaVuSans-75" x="78.710938"/>
      <use xlink:href="#DejaVuSans-61" x="142.089844"/>
      <use xlink:href="#DejaVuSans-64" x="203.369141"/>
      <use xlink:href="#DejaVuSans-72" x="266.845703"/>
      <use xlink:href="#DejaVuSans-61" x="307.958984"/>
      <use xlink:href="#DejaVuSans-74" x="369.238281"/>
      <use xlink:href="#DejaVuSans-69" x="408.447266"/>
      <use xlink:href="#DejaVuSans-63" x="436.230469"/>
      <use xlink:href="#DejaVuSans-20" x="491.210938"/>
      <use xlink:href="#DejaVuSans-43" x="522.998047"/>
      <use xlink:href="#DejaVuSans-6f" x="592.822266"/>
      <use xlink:href="#DejaVuSans-76" x="654.003906"/>
      <use xlink:href="#DejaVuSans-61" x="713.183594"/>
      <use xlink:href="#DejaVuSans-72" x="774.462891"/>
      <use xlink:href="#DejaVuSans-69" x="815.576172"/>
      <use xlink:href="#DejaVuSans-61" x="843.359375"/>
      <use xlink:href="#DejaVuSans-74" x="904.638672"/>
      <use xlink:href="#DejaVuSans-69" x="943.847656"/>
      <use xlink:href="#DejaVuSans-6f" x="971.630859"/>
      <use xlink:href="#DejaVuSans-6e" x="1032.8125"/>
     </g>
    </g>
   </g>
   <g id="line2d_13">
    <path d="M 161.509091 219.136203 
L 162.219273 219.11133 
L 162.929455 221.585063 
L 163.639636 222.26338 
L 164.349818 223.968919 
L 165.06 222.172298 
L 165.770182 216.062672 
L 166.480364 221.229334 
L 167.190545 225.225911 
L 167.900727 223.297914 
L 168.610909 217.413541 
L 169.321091 221.079044 
L 170.031273 217.998546 
L 170.741455 216.156659 
L 171.451636 219.830361 
L 172.161818 218.258931 
L 172.872 224.184206 
L 173.582182 222.07982 
L 174.292364 221.892688 
L 175.002545 223.372531 
L 175.712727 219.982096 
L 176.422909 218.567252 
L 177.133091 219.220607 
L 177.843273 224.779392 
L 178.553455 221.329992 
L 179.263636 221.05477 
L 179.973818 225.827455 
L 180.684 221.970965 
L 181.394182 222.933077 
L 182.104364 221.91669 
L 182.814545 219.307434 
L 183.524727 225.282205 
L 184.234909 224.59038 
L 184.945091 227.847914 
L 185.655273 227.289603 
L 186.365455 225.886395 
L 187.075636 221.229841 
L 187.785818 224.553494 
L 188.496 228.946294 
L 189.206182 229.273445 
L 189.916364 231.378475 
L 190.626545 230.214257 
L 191.336727 227.177427 
L 192.046909 222.497948 
L 192.757091 222.490162 
L 194.177455 215.872986 
L 194.887636 219.005722 
L 195.597818 218.548277 
L 196.308 223.889137 
L 197.018182 222.842716 
L 197.728364 218.43791 
L 198.438545 215.34195 
L 199.148727 215.825073 
L 199.858909 214.846146 
L 200.569091 212.880137 
L 201.279273 208.736231 
L 201.989455 210.816675 
L 202.699636 213.61147 
L 203.409818 214.931917 
L 204.12 221.767699 
L 204.830182 217.070637 
L 205.540364 213.523444 
L 206.250545 219.177221 
L 206.960727 215.995695 
L 207.670909 219.92466 
L 208.381091 217.754491 
L 209.801455 219.434326 
L 210.511636 223.365035 
L 211.221818 222.943762 
L 211.932 219.418201 
L 212.642182 219.982144 
L 213.352364 224.945008 
L 214.062545 221.632563 
L 214.772727 222.473034 
L 215.482909 223.893253 
L 216.903273 216.449538 
L 217.613455 217.051289 
L 218.323636 222.657065 
L 219.033818 222.895528 
L 219.744 226.16167 
L 220.454182 225.322399 
L 221.164364 221.667352 
L 221.874545 226.675816 
L 222.584727 229.717719 
L 223.294909 236.717765 
L 224.715273 229.464645 
L 225.425455 226.681199 
L 227.556 241.408406 
L 228.266182 242.346977 
L 228.976364 243.87657 
L 229.686545 241.770846 
L 230.396727 241.19554 
L 231.106909 239.966527 
L 231.817091 232.540453 
L 232.527273 235.461797 
L 233.237455 235.932296 
L 233.947636 242.908784 
L 234.657818 243.574579 
L 235.368 240.106033 
L 236.078182 240.199552 
L 236.788364 230.871965 
L 237.498545 228.44311 
L 238.208727 225.5599 
L 238.918909 224.026765 
L 239.629091 224.596243 
L 240.339273 229.251701 
L 241.049455 231.86698 
L 242.469818 235.696544 
L 243.18 239.185923 
L 243.890182 236.739107 
L 244.600364 236.019745 
L 245.310545 236.173823 
L 246.020727 241.741482 
L 246.730909 245.733766 
L 247.441091 244.977334 
L 248.151273 243.552114 
L 248.861455 239.985545 
L 249.571636 246.82483 
L 250.281818 246.94033 
L 250.992 244.089424 
L 251.702182 243.26575 
L 252.412364 244.777724 
L 253.122545 244.913815 
L 253.832727 241.194211 
L 254.542909 242.927022 
L 255.253091 239.863753 
L 255.963273 239.678066 
L 256.673455 237.999755 
L 257.383636 239.04365 
L 258.093818 244.870826 
L 258.804 247.100615 
L 259.514182 244.841293 
L 260.224364 252.671353 
L 261.644727 253.166186 
L 262.354909 251.153682 
L 263.065091 252.586764 
L 263.775273 252.890736 
L 264.485455 256.253079 
L 265.195636 251.552214 
L 266.616 259.532712 
L 267.326182 254.77945 
L 268.036364 252.119331 
L 268.746545 257.041406 
L 269.456727 248.634832 
L 270.877091 247.800968 
L 271.587273 249.238068 
L 272.297455 246.989627 
L 273.007636 247.428427 
L 273.717818 250.327007 
L 274.428 250.961234 
L 275.138182 245.180063 
L 275.848364 243.354957 
L 276.558545 235.780903 
L 277.268727 233.100213 
L 277.978909 231.178174 
L 278.689091 231.308293 
L 279.399273 230.049926 
L 280.109455 231.501402 
L 280.819636 230.845511 
L 281.529818 232.053414 
L 282.24 227.469519 
L 282.950182 228.245391 
L 283.660364 228.06869 
L 284.370545 228.711167 
L 285.080727 225.703668 
L 286.501091 227.753955 
L 287.211273 230.230978 
L 287.921455 232.20877 
L 288.631636 236.531671 
L 289.341818 237.674441 
L 290.052 237.21935 
L 290.762182 237.867272 
L 291.472364 241.698398 
L 292.182545 244.854169 
L 292.892727 244.919699 
L 293.602909 243.697754 
L 294.313091 240.130411 
L 295.023273 234.801667 
L 296.443636 229.245066 
L 297.153818 229.084662 
L 297.864 230.720459 
L 298.574182 238.004297 
L 299.284364 242.254987 
L 299.994545 241.898618 
L 300.704727 240.735957 
L 301.414909 240.049919 
L 302.125091 242.760749 
L 302.835273 248.684921 
L 303.545455 247.566874 
L 304.255636 250.550502 
L 304.965818 251.712588 
L 305.676 256.115744 
L 306.386182 253.588871 
L 307.096364 247.850117 
L 307.806545 249.388082 
L 308.516727 247.852358 
L 309.226909 243.722731 
L 309.937091 238.461533 
L 311.357455 231.467595 
L 312.067636 234.855982 
L 312.777818 227.985044 
L 313.488 229.02557 
L 314.908364 220.878168 
L 315.618545 222.458692 
L 316.328727 222.690469 
L 317.038909 225.808281 
L 317.749091 223.181751 
L 318.459273 227.118236 
L 319.169455 237.387271 
L 319.879636 237.651478 
L 320.589818 236.408703 
L 321.3 232.375152 
L 322.010182 231.373533 
L 322.720364 232.620769 
L 323.430545 231.144825 
L 324.140727 232.613286 
L 324.850909 234.657048 
L 325.561091 230.335482 
L 326.271273 233.541312 
L 326.981455 228.829868 
L 327.691636 230.752721 
L 328.401818 226.073153 
L 329.112 234.306622 
L 329.822182 238.644263 
L 330.532364 239.962612 
L 331.242545 236.801498 
L 333.373091 251.860845 
L 334.083273 251.999171 
L 334.793455 248.127232 
L 335.503636 245.528738 
L 336.213818 246.023074 
L 336.924 249.932012 
L 337.634182 249.834064 
L 338.344364 257.640192 
L 339.054545 256.591749 
L 339.764727 248.043625 
L 340.474909 246.204554 
L 341.185091 248.207539 
L 341.895273 253.934545 
L 342.605455 252.434752 
L 343.315636 252.690452 
L 344.025818 249.8026 
L 344.736 248.014932 
L 345.446182 249.855978 
L 346.156364 245.888622 
L 346.866545 247.015214 
L 347.576727 244.933954 
L 348.286909 247.154714 
L 348.997091 248.122005 
L 349.707273 247.073345 
L 350.417455 252.309251 
L 351.127636 255.336876 
L 351.837818 262.686537 
L 352.548 260.201232 
L 353.258182 267.417735 
L 353.968364 264.29141 
L 354.678545 263.775896 
L 355.388727 264.96595 
L 356.098909 259.039368 
L 357.519273 264.258746 
L 358.229455 264.471512 
L 358.939636 265.559754 
L 359.649818 262.93591 
L 360.36 256.632407 
L 361.070182 257.644665 
L 361.780364 260.767261 
L 362.490545 257.902675 
L 363.200727 260.245368 
L 363.910909 254.779872 
L 364.621091 250.25433 
L 365.331273 248.315344 
L 366.041455 252.634128 
L 366.751636 253.417428 
L 367.461818 245.524126 
L 368.172 247.733799 
L 368.882182 249.078278 
L 369.592364 252.11569 
L 370.302545 248.807403 
L 371.012727 240.973555 
L 371.722909 240.240573 
L 372.433091 248.32892 
L 373.143273 245.354381 
L 373.853455 246.110027 
L 374.563636 245.364473 
L 375.273818 244.21145 
L 375.984 245.452518 
L 378.114545 240.347785 
L 378.824727 243.362556 
L 379.534909 241.442487 
L 380.245091 245.683917 
L 380.955273 246.012297 
L 381.665455 247.648855 
L 382.375636 241.030712 
L 383.085818 242.096955 
L 383.796 240.053459 
L 384.506182 240.166617 
L 385.216364 243.362844 
L 385.926545 244.84428 
L 386.636727 247.970576 
L 387.346909 247.107279 
L 388.057091 250.460587 
L 388.767273 247.290293 
L 389.477455 246.420482 
L 390.187636 244.751176 
L 390.897818 243.893842 
L 391.608 238.541482 
L 392.318182 240.354751 
L 393.028364 237.727592 
L 393.738545 240.728303 
L 394.448727 236.257413 
L 395.158909 236.251101 
L 395.869091 237.78074 
L 396.579273 233.803482 
L 397.289455 235.157041 
L 397.999636 237.188694 
L 398.709818 235.611353 
L 399.42 239.958748 
L 400.130182 238.247593 
L 400.840364 242.187654 
L 401.550545 236.692808 
L 402.260727 243.089383 
L 402.970909 243.353723 
L 403.681091 241.027414 
L 404.391273 242.315025 
L 405.101455 240.532658 
L 406.521818 238.634671 
L 407.232 242.235543 
L 407.942182 237.991168 
L 408.652364 241.463267 
L 409.362545 236.107341 
L 410.072727 235.024347 
L 410.782909 238.712118 
L 411.493091 240.986316 
L 412.203273 247.504582 
L 412.913455 242.963787 
L 413.623636 242.024176 
L 414.333818 245.666575 
L 415.754182 244.749306 
L 416.464364 245.174706 
L 417.174545 244.595822 
L 417.884727 249.004168 
L 419.305091 250.904305 
L 420.015273 247.966909 
L 420.725455 251.012564 
L 421.435636 254.88111 
L 422.145818 253.417786 
L 422.856 248.028758 
L 423.566182 248.409299 
L 424.276364 257.053061 
L 424.986545 256.15439 
L 425.696727 252.882102 
L 426.406909 252.145244 
L 427.117091 259.403511 
L 427.827273 256.754221 
L 428.537455 259.019423 
L 429.247636 260.523578 
L 429.957818 258.893075 
L 430.668 263.464481 
L 431.378182 261.012722 
L 432.088364 260.388567 
L 432.798545 263.409092 
L 433.508727 257.668665 
L 434.218909 258.970973 
L 434.929091 258.929621 
L 435.639273 259.329954 
L 436.349455 254.798721 
L 437.059636 255.646556 
L 437.769818 252.970648 
L 438.48 254.486749 
L 439.190182 249.996265 
L 439.900364 250.928961 
L 440.610545 249.760499 
L 441.320727 250.649473 
L 442.030909 255.61645 
L 442.741091 255.21245 
L 443.451273 257.468238 
L 444.161455 260.35305 
L 444.871636 265.609637 
L 445.581818 260.037694 
L 446.292 262.01227 
L 447.002182 258.75408 
L 447.712364 257.315724 
L 448.422545 254.086359 
L 449.132727 249.600985 
L 449.842909 249.374396 
L 450.553091 251.28355 
L 451.263273 249.480892 
L 451.973455 252.184843 
L 452.683636 250.179461 
L 453.393818 246.242672 
L 454.104 243.269499 
L 454.814182 248.391617 
L 455.524364 250.872825 
L 456.234545 248.837592 
L 456.944727 246.310616 
L 457.654909 249.672604 
L 458.365091 251.695753 
L 459.075273 249.784216 
L 459.785455 248.489667 
L 460.495636 248.445374 
L 461.205818 253.927207 
L 461.916 257.239419 
L 462.626182 255.110574 
L 463.336364 258.402492 
L 464.046545 260.557425 
L 464.756727 253.951322 
L 465.466909 253.549131 
L 466.177091 251.429255 
L 466.887273 254.203748 
L 467.597455 259.099316 
L 468.307636 252.40617 
L 469.017818 251.75981 
L 469.728 255.964965 
L 470.438182 251.07889 
L 471.148364 254.037007 
L 471.858545 252.902063 
L 472.568727 253.963515 
L 473.278909 250.493192 
L 473.989091 252.373434 
L 474.699273 253.157077 
L 475.409455 254.154347 
L 476.119636 250.31631 
L 476.829818 250.854034 
L 477.54 253.192036 
L 478.250182 254.027013 
L 478.960364 258.304369 
L 479.670545 257.329702 
L 480.380727 257.899226 
L 481.090909 257.166246 
L 481.801091 259.355414 
L 482.511273 255.514786 
L 483.221455 259.912874 
L 483.931636 259.458348 
L 484.641818 256.751076 
L 485.352 255.237652 
L 486.062182 252.816224 
L 486.772364 251.602973 
L 487.482545 245.851391 
L 488.192727 246.560698 
L 488.902909 242.534728 
L 489.613091 240.216783 
L 490.323273 244.589557 
L 491.033455 240.383005 
L 491.743636 237.885052 
L 492.453818 241.269152 
L 493.164 238.405795 
L 493.874182 237.935761 
L 494.584364 240.784142 
L 495.294545 245.842787 
L 496.004727 243.81933 
L 496.714909 245.079302 
L 497.425091 243.068214 
L 498.135273 240.570381 
L 498.845455 235.508344 
L 499.555636 234.067511 
L 500.265818 232.232613 
L 500.976 232.971393 
L 501.686182 233.956693 
L 502.396364 231.443848 
L 503.106545 234.387013 
L 504.526909 236.770466 
L 505.237091 234.924044 
L 505.947273 237.593536 
L 506.657455 235.924646 
L 507.367636 237.253493 
L 508.077818 241.035097 
L 508.788 243.889065 
L 509.498182 241.220356 
L 510.208364 241.407967 
L 510.918545 242.976503 
L 511.628727 247.94639 
L 512.338909 245.401646 
L 513.049091 245.379834 
L 513.759273 243.542451 
L 514.469455 238.719703 
L 515.179636 232.798331 
L 515.889818 231.807987 
L 516.6 234.758127 
L 517.310182 229.893954 
L 518.020364 223.933825 
L 518.730545 221.974378 
L 519.440727 219.514582 
L 520.150909 219.736364 
L 520.861091 218.514281 
L 521.571273 214.791559 
L 522.281455 217.032986 
L 522.991636 218.569978 
L 523.701818 210.557509 
L 524.412 215.122567 
L 525.122182 214.978746 
L 525.832364 217.843466 
L 526.542545 216.532559 
L 527.252727 218.25396 
L 527.962909 217.256285 
L 528.673091 216.541139 
L 529.383273 219.160902 
L 530.093455 219.553911 
L 530.803636 217.760661 
L 531.513818 217.238984 
L 532.224 216.455879 
L 532.934182 215.414378 
L 533.644364 219.723219 
L 534.354545 221.698508 
L 535.064727 224.442268 
L 535.774909 218.368949 
L 536.485091 218.211225 
L 537.195273 219.704875 
L 537.905455 217.513785 
L 538.615636 212.755147 
L 539.325818 216.548611 
L 540.036 213.514936 
L 540.746182 214.283192 
L 541.456364 213.990841 
L 542.166545 210.999468 
L 542.876727 216.902229 
L 543.586909 217.045119 
L 544.297091 212.041595 
L 545.007273 215.08968 
L 545.717455 212.585619 
L 546.427636 208.008894 
L 547.137818 207.871491 
L 547.848 209.23209 
L 548.558182 209.193594 
L 549.268364 214.044512 
L 549.978545 209.776288 
L 550.688727 215.825239 
L 551.398909 216.833199 
L 552.109091 218.644404 
L 552.819273 215.180243 
L 553.529455 215.620591 
L 554.239636 206.644123 
L 554.949818 205.87458 
L 555.66 207.384455 
L 556.370182 206.757284 
L 557.080364 203.104312 
L 559.210909 199.196523 
L 559.921091 199.024195 
L 560.631273 197.347217 
L 561.341455 195.982656 
L 562.051636 188.938053 
L 562.761818 184.162323 
L 563.472 185.330737 
L 564.182182 182.100528 
L 564.892364 183.533955 
L 565.602545 183.950822 
L 566.312727 188.59487 
L 567.022909 189.85112 
L 567.733091 188.899603 
L 568.443273 188.325704 
L 569.863636 191.484578 
L 570.573818 190.596873 
L 571.284 187.539783 
L 571.994182 181.857506 
L 572.704364 186.129078 
L 573.414545 184.556589 
L 574.124727 185.883288 
L 574.834909 182.42742 
L 576.255273 180.541039 
L 576.965455 178.969013 
L 577.675636 182.101399 
L 578.385818 181.57665 
L 579.096 178.41536 
L 579.806182 183.46634 
L 580.516364 179.229108 
L 581.936727 185.542841 
L 582.646909 180.791634 
L 583.357091 181.226779 
L 584.067273 183.299266 
L 584.777455 183.783208 
L 585.487636 181.899846 
L 586.197818 180.880959 
L 586.908 181.651818 
L 587.618182 177.584037 
L 588.328364 179.770794 
L 589.038545 181.005018 
L 589.748727 185.89045 
L 590.458909 182.456756 
L 591.169091 187.395192 
L 591.879273 183.597937 
L 592.589455 184.534378 
L 593.299636 185.15718 
L 594.009818 186.990994 
L 594.72 182.499263 
L 595.430182 183.283737 
L 596.140364 185.641376 
L 597.560727 179.116214 
L 598.270909 177.154894 
L 598.981091 181.095629 
L 599.691273 181.072388 
L 600.401455 175.476833 
L 601.111636 177.852796 
L 601.821818 175.925487 
L 602.532 178.958514 
L 603.242182 182.934407 
L 603.952364 180.923142 
L 604.662545 185.161692 
L 605.372727 190.552701 
L 606.082909 184.05914 
L 606.793091 180.862387 
L 607.503273 174.674342 
L 608.213455 173.452621 
L 608.923636 173.833987 
L 609.633818 172.243393 
L 610.344 171.585901 
L 611.054182 172.970336 
L 612.474545 178.758217 
L 613.184727 179.124092 
L 613.894909 183.864901 
L 614.605091 181.002704 
L 615.315273 180.474029 
L 616.025455 180.171192 
L 617.445818 173.58215 
L 618.156 177.356826 
L 619.576364 182.364496 
L 620.286545 183.680722 
L 620.996727 181.466796 
L 621.706909 180.621731 
L 622.417091 181.745742 
L 623.127273 186.518565 
L 623.837455 184.446628 
L 625.257818 185.841847 
L 625.968 192.81818 
L 626.678182 193.318499 
L 627.388364 191.245012 
L 628.098545 194.875497 
L 628.808727 191.184739 
L 629.518909 189.359582 
L 630.229091 192.452833 
L 630.939273 191.883664 
L 631.649455 195.697444 
L 632.359636 195.436671 
L 633.069818 190.056665 
L 633.78 187.635468 
L 634.490182 193.108914 
L 635.200364 196.167073 
L 635.910545 191.549801 
L 636.620727 191.360877 
L 638.041091 184.855153 
L 638.751273 184.877221 
L 639.461455 181.594498 
L 640.171636 187.471592 
L 640.881818 187.404458 
L 641.592 180.222434 
L 642.302182 178.872491 
L 643.012364 173.639157 
L 643.722545 172.735889 
L 644.432727 163.491383 
L 645.142909 159.594852 
L 646.563273 164.715556 
L 647.273455 162.800807 
L 647.983636 163.895941 
L 648.693818 159.811612 
L 649.404 159.470782 
L 650.114182 160.879862 
L 650.824364 161.353329 
L 651.534545 160.971056 
L 652.244727 159.848515 
L 652.954909 161.903895 
L 653.665091 162.913184 
L 654.375273 164.848037 
L 655.085455 164.033717 
L 655.795636 161.339834 
L 656.505818 162.600901 
L 657.216 165.830951 
L 657.926182 165.069232 
L 658.636364 160.276383 
L 659.346545 159.114727 
L 660.056727 156.781315 
L 660.766909 150.164913 
L 661.477091 150.052767 
L 662.187273 155.762126 
L 662.897455 155.519538 
L 663.607636 150.42107 
L 664.317818 151.335191 
L 665.028 145.571701 
L 665.738182 142.421274 
L 666.448364 141.241902 
L 667.158545 145.293046 
L 667.868727 138.81914 
L 669.289091 135.824811 
L 669.999273 138.061634 
L 670.709455 144.465399 
L 671.419636 146.22362 
L 672.129818 145.824204 
L 672.84 146.06318 
L 673.550182 147.400785 
L 674.260364 147.00706 
L 674.970545 146.995874 
L 675.680727 138.908074 
L 676.390909 140.010653 
L 677.101091 135.179509 
L 677.811273 134.150316 
L 678.521455 136.650839 
L 679.231636 135.359694 
L 679.941818 131.648276 
L 680.652 134.867058 
L 681.362182 133.257269 
L 682.072364 129.032296 
L 682.782545 131.012034 
L 683.492727 125.925771 
L 684.202909 122.550961 
L 684.913091 120.484483 
L 685.623273 123.978267 
L 686.333455 124.537579 
L 687.043636 122.458224 
L 687.753818 122.635381 
L 688.464 123.355714 
L 689.174182 124.341704 
L 689.884364 123.511594 
L 690.594545 126.780898 
L 692.014909 117.477445 
L 692.725091 116.443168 
L 694.855636 110.829615 
L 695.565818 109.664181 
L 696.276 109.938683 
L 697.696364 104.784342 
L 698.406545 99.923785 
L 699.116727 99.436528 
L 700.537091 94.074678 
L 701.247273 97.354083 
L 701.957455 95.828931 
L 702.667636 91.773847 
L 703.377818 97.823486 
L 704.088 97.344773 
L 704.798182 101.496244 
L 705.508364 102.83193 
L 706.218545 99.583717 
L 706.928727 100.512828 
L 707.638909 99.260062 
L 709.059273 92.669266 
L 709.769455 93.32909 
L 710.479636 95.043692 
L 711.189818 94.399454 
L 711.9 93.9658 
L 712.610182 91.847405 
L 713.320364 90.909597 
L 714.030545 92.216282 
L 714.740727 94.623042 
L 715.450909 90.911769 
L 716.161091 88.991225 
L 716.871273 92.905003 
L 717.581455 92.702363 
L 718.291636 89.110004 
L 719.001818 90.248088 
L 719.712 88.994473 
L 720.422182 87.410768 
L 721.132364 96.280895 
L 721.842545 92.872385 
L 722.552727 86.507017 
L 723.973091 86.354714 
L 724.683273 82.16483 
L 725.393455 82.682489 
L 726.103636 81.51742 
L 726.813818 81.686248 
L 727.524 80.860234 
L 728.234182 80.797795 
L 728.944364 83.397044 
L 729.654545 78.399098 
L 731.074909 86.873702 
L 731.785091 86.635335 
L 732.495273 87.746441 
L 733.915636 95.214333 
L 734.625818 96.0044 
L 735.336 96.573064 
L 736.046182 93.039515 
L 736.756364 91.044323 
L 737.466545 91.622361 
L 738.176727 89.694726 
L 738.886909 89.130278 
L 740.307273 84.259071 
L 741.017455 79.541028 
L 741.727636 80.058093 
L 742.437818 82.398761 
L 743.148 84.146262 
L 743.858182 82.278397 
L 744.568364 76.69891 
L 745.278545 74.938899 
L 745.988727 74.440481 
L 747.409091 67.378518 
L 748.119273 72.410928 
L 748.829455 76.371118 
L 749.539636 76.288227 
L 750.249818 77.997287 
L 750.96 76.462379 
L 751.670182 70.357943 
L 752.380364 76.394779 
L 753.090545 75.923407 
L 753.800727 70.304359 
L 754.510909 78.930633 
L 755.221091 75.833074 
L 755.931273 78.663004 
L 756.641455 74.773669 
L 757.351636 81.704348 
L 758.061818 80.20619 
L 758.772 80.289461 
L 759.482182 79.655728 
L 760.192364 76.283446 
L 760.902545 81.273584 
L 761.612727 84.287518 
L 762.322909 90.211641 
L 763.033091 86.996322 
L 763.743273 88.31333 
L 764.453455 88.181035 
L 765.163636 86.114763 
L 765.873818 83.462151 
L 766.584 82.152539 
L 767.294182 88.627198 
L 768.004364 91.17357 
L 768.714545 92.945836 
L 769.424727 92.291261 
L 770.134909 92.409332 
L 770.845091 91.16104 
L 771.555273 96.74453 
L 772.265455 99.827126 
L 774.396 100.262117 
L 775.816364 97.421395 
L 776.526545 100.23904 
L 777.236727 99.486433 
L 777.946909 97.716095 
L 778.657091 96.512973 
L 779.367273 96.463311 
L 780.077455 96.217175 
L 780.787636 94.25749 
L 781.497818 95.643764 
L 782.208 95.896147 
L 782.918182 105.202154 
L 783.628364 103.481042 
L 784.338545 104.535786 
L 785.048727 106.860331 
L 785.758909 105.909285 
L 786.469091 110.346807 
L 787.179273 107.875444 
L 787.889455 107.168341 
L 789.309818 109.789775 
L 790.02 106.851058 
L 790.730182 106.566247 
L 791.440364 107.875509 
L 792.150545 105.566278 
L 792.860727 107.200877 
L 793.570909 108.416259 
L 794.281091 106.882421 
L 794.991273 105.916852 
L 796.411636 116.150989 
L 797.121818 114.750711 
L 797.832 108.903447 
L 798.542182 105.555949 
L 799.252364 107.636361 
L 799.962545 103.954108 
L 800.672727 104.089938 
L 801.382909 105.248511 
L 802.093091 107.545044 
L 802.803273 103.970989 
L 803.513455 99.616701 
L 804.223636 101.92991 
L 804.933818 97.991737 
L 805.644 98.094142 
L 806.354182 103.201525 
L 807.064364 105.880205 
L 807.774545 109.036993 
L 808.484727 104.617278 
L 809.194909 103.910074 
L 809.905091 97.080123 
L 810.615273 93.525511 
L 811.325455 87.918098 
L 812.035636 88.50615 
L 812.745818 94.626016 
L 813.456 98.416989 
L 814.166182 98.186328 
L 814.876364 99.235824 
L 815.586545 100.902506 
L 816.296727 101.846228 
L 817.006909 100.936534 
L 818.427273 104.382612 
L 819.137455 108.022697 
L 819.847636 102.5014 
L 820.557818 98.242084 
L 821.268 100.986484 
L 821.978182 99.989779 
L 822.688364 105.096354 
L 823.398545 99.07819 
L 824.108727 101.61304 
L 824.818909 102.998162 
L 825.529091 99.781253 
L 826.239273 100.262799 
L 826.949455 98.21014 
L 827.659636 91.30043 
L 828.369818 92.80232 
L 829.08 89.152381 
L 829.790182 81.229649 
L 830.500364 82.951822 
L 831.210545 79.415787 
L 831.920727 81.062727 
L 832.630909 79.612683 
L 833.341091 77.460224 
L 834.051273 86.852705 
L 834.761455 86.825019 
L 835.471636 86.138361 
L 836.181818 88.221874 
L 836.892 87.999118 
L 837.602182 87.571243 
L 838.312364 83.695782 
L 839.022545 82.492161 
L 839.732727 79.558071 
L 840.442909 71.634609 
L 841.153091 68.782569 
L 841.863273 66.96 
L 842.573455 68.323634 
L 843.283636 70.758 
L 843.993818 70.38554 
L 844.704 71.546384 
L 845.414182 76.449639 
L 846.124364 78.368227 
L 846.834545 76.267571 
L 848.254909 72.875069 
L 848.965091 68.240789 
L 849.675273 67.218237 
L 850.385455 69.719627 
L 851.095636 68.364314 
L 851.805818 69.990821 
L 852.516 72.193907 
L 853.226182 71.240357 
L 853.936364 68.695991 
L 854.646545 72.783165 
L 855.356727 73.29954 
L 856.066909 78.182782 
L 856.777091 87.523 
L 857.487273 87.822025 
L 858.197455 89.632891 
L 858.907636 90.441017 
L 859.617818 85.873602 
L 860.328 85.971617 
L 861.038182 88.908136 
L 861.748364 86.548068 
L 862.458545 95.508278 
L 863.168727 93.493763 
L 863.878909 92.995577 
L 864.589091 92.144277 
L 865.299273 90.199419 
L 866.009455 87.004429 
L 866.719636 88.166873 
L 867.429818 88.692615 
L 868.14 88.447555 
L 868.850182 89.851207 
L 869.560364 88.589553 
L 870.270545 91.356273 
L 870.980727 90.703072 
L 871.690909 88.8531 
L 871.690909 88.8531 
" clip-path="url(#pd613689eed)" style="fill: none; stroke: #1f77b4; stroke-width: 1.5; stroke-linecap: square"/>
   </g>
   <g id="line2d_14">
    <path d="M 161.509091 219.136203 
L 162.219273 223.480751 
L 162.929455 222.88481 
L 163.639636 221.288113 
L 164.349818 225.94339 
L 165.06 228.797126 
L 165.770182 222.097367 
L 166.480364 230.36057 
L 167.190545 228.818616 
L 167.900727 230.895973 
L 168.610909 220.364186 
L 169.321091 222.513159 
L 170.031273 219.322655 
L 170.741455 217.992428 
L 171.451636 215.538565 
L 172.161818 209.525553 
L 172.872 222.139144 
L 173.582182 223.592092 
L 174.292364 228.888469 
L 175.002545 230.14665 
L 175.712727 231.946121 
L 176.422909 229.793413 
L 177.133091 231.233511 
L 177.843273 235.97781 
L 178.553455 228.935489 
L 179.263636 235.97494 
L 179.973818 245.125007 
L 180.684 239.486994 
L 181.394182 238.571619 
L 182.104364 243.384024 
L 182.814545 243.054173 
L 183.524727 244.181889 
L 184.234909 242.973022 
L 184.945091 245.095122 
L 185.655273 239.85004 
L 186.365455 238.824948 
L 187.075636 235.445607 
L 188.496 233.592543 
L 189.206182 235.499456 
L 189.916364 233.228686 
L 190.626545 232.65072 
L 191.336727 227.685485 
L 192.046909 225.131102 
L 192.757091 223.233238 
L 193.467273 217.117939 
L 194.177455 209.04529 
L 194.887636 212.799195 
L 195.597818 213.250841 
L 196.308 219.071047 
L 197.018182 217.224768 
L 197.728364 210.222113 
L 198.438545 210.333436 
L 199.148727 207.878587 
L 199.858909 206.847202 
L 201.279273 208.831511 
L 201.989455 209.103413 
L 202.699636 207.847731 
L 203.409818 210.18254 
L 204.12 214.52003 
L 204.830182 209.898668 
L 205.540364 206.911576 
L 206.250545 207.004652 
L 206.960727 212.332501 
L 207.670909 218.737343 
L 208.381091 212.338897 
L 209.091273 215.581368 
L 209.801455 215.969627 
L 210.511636 221.443586 
L 211.221818 220.530976 
L 211.932 218.488374 
L 212.642182 218.266198 
L 213.352364 222.627592 
L 214.062545 214.317534 
L 214.772727 212.873494 
L 216.193091 206.346209 
L 216.903273 201.361044 
L 217.613455 201.066924 
L 218.323636 210.141283 
L 219.033818 211.011551 
L 219.744 214.499693 
L 220.454182 212.907445 
L 221.164364 214.817532 
L 221.874545 221.947926 
L 222.584727 224.638958 
L 223.294909 236.268568 
L 224.005091 234.483791 
L 224.715273 228.991325 
L 225.425455 231.158532 
L 226.135636 230.492665 
L 226.845818 242.662509 
L 227.556 249.591602 
L 228.266182 246.433893 
L 228.976364 250.154399 
L 229.686545 251.00133 
L 230.396727 246.407558 
L 231.106909 245.736802 
L 231.817091 237.31054 
L 232.527273 241.584776 
L 233.237455 242.999276 
L 233.947636 252.288408 
L 234.657818 248.113141 
L 235.368 239.635134 
L 236.078182 241.366396 
L 236.788364 230.98304 
L 237.498545 229.037989 
L 238.208727 223.41176 
L 238.918909 226.105352 
L 239.629091 227.542308 
L 240.339273 234.304295 
L 241.049455 239.910079 
L 241.759636 240.004965 
L 243.18 252.056548 
L 243.890182 251.556794 
L 244.600364 256.985996 
L 245.310545 257.068292 
L 246.020727 265.35885 
L 246.730909 268.99497 
L 247.441091 265.6445 
L 248.151273 263.757005 
L 248.861455 258.322089 
L 249.571636 265.641074 
L 250.281818 269.832138 
L 250.992 263.880349 
L 251.702182 266.536215 
L 252.412364 270.157146 
L 253.122545 271.629916 
L 253.832727 271.717401 
L 254.542909 277.771534 
L 255.253091 275.86381 
L 255.963273 278.626531 
L 256.673455 283.284768 
L 257.383636 283.52965 
L 258.093818 294.335366 
L 258.804 295.866486 
L 259.514182 299.039409 
L 260.224364 305.807839 
L 260.934545 304.452777 
L 261.644727 306.684234 
L 262.354909 296.476034 
L 263.775273 304.736399 
L 264.485455 308.639883 
L 265.195636 303.456011 
L 265.905818 308.376707 
L 266.616 321.47178 
L 267.326182 314.539416 
L 268.036364 306.35988 
L 268.746545 305.353122 
L 269.456727 297.000507 
L 270.877091 302.254927 
L 271.587273 302.382355 
L 272.297455 303.111774 
L 273.007636 301.829178 
L 273.717818 308.689625 
L 274.428 307.604396 
L 275.138182 301.841684 
L 275.848364 300.464485 
L 276.558545 289.858086 
L 277.268727 287.470353 
L 277.978909 280.502826 
L 278.689091 283.399051 
L 279.399273 285.167689 
L 280.109455 283.559027 
L 280.819636 287.238113 
L 281.529818 280.291864 
L 282.24 278.471785 
L 282.950182 277.455518 
L 283.660364 286.149598 
L 284.370545 285.102327 
L 285.080727 280.059797 
L 285.790909 283.655511 
L 286.501091 280.188932 
L 287.211273 281.353717 
L 287.921455 286.177027 
L 288.631636 296.030019 
L 290.052 307.561579 
L 290.762182 310.236165 
L 291.472364 313.971764 
L 292.182545 319.196396 
L 292.892727 316.619769 
L 293.602909 317.00303 
L 294.313091 313.674843 
L 295.023273 307.483295 
L 296.443636 303.449995 
L 297.153818 308.749643 
L 297.864 318.404439 
L 298.574182 330.637157 
L 299.284364 331.906417 
L 299.994545 333.522562 
L 300.704727 337.07814 
L 301.414909 341.245639 
L 302.125091 339.98084 
L 302.835273 348.557495 
L 303.545455 340.045792 
L 304.255636 345.876711 
L 304.965818 347.586117 
L 305.676 355.649748 
L 306.386182 354.070291 
L 307.096364 351.692989 
L 307.806545 363.941376 
L 308.516727 361.477114 
L 309.226909 352.071197 
L 309.937091 350.600195 
L 310.647273 342.074201 
L 311.357455 339.71565 
L 312.067636 346.003805 
L 312.777818 338.802754 
L 313.488 338.577867 
L 314.198182 334.71373 
L 314.908364 333.471239 
L 315.618545 337.553816 
L 316.328727 335.750948 
L 317.038909 336.495939 
L 317.749091 338.810367 
L 318.459273 339.465591 
L 319.169455 351.847211 
L 319.879636 357.913532 
L 320.589818 352.668232 
L 321.3 351.24516 
L 322.010182 353.631758 
L 322.720364 350.584318 
L 323.430545 350.913404 
L 324.140727 350.775017 
L 324.850909 346.243088 
L 325.561091 338.390732 
L 326.271273 340.660195 
L 326.981455 336.55623 
L 327.691636 337.52646 
L 328.401818 325.540527 
L 329.112 336.921257 
L 330.532364 349.803053 
L 331.242545 350.565999 
L 331.952727 354.236638 
L 332.662909 360.674339 
L 333.373091 363.51329 
L 334.083273 363.922406 
L 334.793455 355.509548 
L 335.503636 355.0918 
L 336.213818 351.912025 
L 337.634182 360.705547 
L 338.344364 366.492924 
L 339.054545 365.814497 
L 339.764727 357.932702 
L 340.474909 357.946334 
L 341.185091 353.674257 
L 341.895273 359.108383 
L 342.605455 357.854272 
L 343.315636 357.670882 
L 344.025818 349.383108 
L 344.736 345.98547 
L 345.446182 349.280269 
L 346.156364 343.299933 
L 346.866545 346.34869 
L 347.576727 338.967011 
L 348.997091 343.211094 
L 349.707273 341.151383 
L 350.417455 341.09157 
L 351.127636 339.649748 
L 351.837818 352.145748 
L 352.548 346.865785 
L 353.258182 354.026609 
L 353.968364 354.659504 
L 354.678545 357.822099 
L 355.388727 362.647841 
L 356.098909 359.594446 
L 356.809091 362.518522 
L 357.519273 361.727055 
L 358.229455 363.548512 
L 358.939636 364.197815 
L 359.649818 362.058839 
L 360.36 352.685429 
L 361.070182 354.084939 
L 361.780364 358.250152 
L 362.490545 349.651106 
L 363.200727 354.878736 
L 363.910909 349.95314 
L 364.621091 349.129639 
L 365.331273 345.980835 
L 366.751636 358.514036 
L 367.461818 347.171547 
L 368.172 354.102683 
L 368.882182 351.311186 
L 369.592364 354.799353 
L 370.302545 353.315148 
L 371.012727 350.508198 
L 371.722909 348.746268 
L 372.433091 353.862225 
L 373.143273 348.028982 
L 373.853455 343.95812 
L 374.563636 344.04122 
L 375.273818 341.716349 
L 375.984 341.157486 
L 376.694182 337.422533 
L 377.404364 338.623208 
L 378.114545 342.924016 
L 379.534909 346.213793 
L 380.245091 353.896997 
L 380.955273 349.904397 
L 382.375636 343.206415 
L 383.085818 345.394617 
L 383.796 346.808523 
L 384.506182 345.362759 
L 385.216364 351.417332 
L 385.926545 348.474884 
L 386.636727 346.244024 
L 388.057091 358.611181 
L 388.767273 352.334313 
L 389.477455 351.677953 
L 391.608 333.741901 
L 392.318182 335.342631 
L 393.028364 334.256869 
L 393.738545 335.89323 
L 394.448727 331.356809 
L 395.158909 330.70932 
L 395.869091 333.556179 
L 396.579273 329.19715 
L 397.999636 340.075497 
L 398.709818 340.988015 
L 399.42 346.226632 
L 400.130182 339.446572 
L 400.840364 342.580856 
L 401.550545 331.250761 
L 402.260727 335.889772 
L 402.970909 334.667339 
L 403.681091 335.092268 
L 404.391273 335.926509 
L 405.101455 333.608481 
L 406.521818 330.57752 
L 407.232 337.370436 
L 407.942182 331.308851 
L 408.652364 334.058125 
L 409.362545 330.492267 
L 410.072727 326.143583 
L 410.782909 330.584039 
L 411.493091 337.965678 
L 412.203273 342.426834 
L 413.623636 331.300178 
L 414.333818 333.953359 
L 415.044 329.948869 
L 415.754182 327.379874 
L 416.464364 327.689096 
L 417.174545 325.635635 
L 417.884727 329.511681 
L 418.594909 328.086283 
L 419.305091 330.916434 
L 420.015273 329.623053 
L 420.725455 329.720592 
L 421.435636 337.76995 
L 422.145818 336.011489 
L 422.856 328.421782 
L 423.566182 331.936682 
L 424.276364 342.245162 
L 424.986545 347.15756 
L 425.696727 347.610954 
L 426.406909 347.522704 
L 427.117091 359.971547 
L 427.827273 358.340728 
L 428.537455 363.31185 
L 429.247636 360.993852 
L 429.957818 352.338573 
L 430.668 358.206959 
L 431.378182 359.902789 
L 432.088364 358.155843 
L 432.798545 356.813267 
L 433.508727 348.354322 
L 434.218909 348.893043 
L 434.929091 348.730693 
L 435.639273 352.019872 
L 436.349455 342.801454 
L 437.059636 350.679473 
L 437.769818 340.903804 
L 438.48 341.398921 
L 439.190182 338.592132 
L 439.900364 338.962616 
L 440.610545 338.819818 
L 441.320727 340.787247 
L 442.030909 349.347919 
L 442.741091 346.771931 
L 443.451273 353.106571 
L 444.161455 352.641974 
L 444.871636 349.963189 
L 445.581818 348.507087 
L 446.292 349.629936 
L 447.002182 345.221122 
L 447.712364 350.807391 
L 448.422545 350.840368 
L 449.132727 342.359039 
L 449.842909 340.293598 
L 450.553091 346.144871 
L 451.263273 346.780999 
L 451.973455 348.428396 
L 452.683636 344.761322 
L 453.393818 342.257536 
L 454.104 341.176297 
L 454.814182 345.045832 
L 455.524364 350.518572 
L 456.234545 346.720137 
L 456.944727 339.914297 
L 457.654909 343.671601 
L 458.365091 343.514704 
L 459.785455 342.637738 
L 460.495636 345.445636 
L 461.205818 350.039096 
L 461.916 360.301934 
L 462.626182 351.893601 
L 463.336364 352.705585 
L 464.046545 360.094714 
L 464.756727 357.670283 
L 465.466909 362.113182 
L 466.177091 360.40727 
L 466.887273 368.090912 
L 467.597455 368.891341 
L 468.307636 364.493384 
L 469.017818 369.32517 
L 469.728 369.36 
L 470.438182 360.111728 
L 471.148364 358.504257 
L 471.858545 358.154212 
L 472.568727 356.724577 
L 473.278909 347.60971 
L 473.989091 348.85294 
L 474.699273 348.696335 
L 475.409455 347.988651 
L 476.119636 341.463999 
L 476.829818 339.982158 
L 477.54 341.864695 
L 478.250182 344.543508 
L 478.960364 348.172787 
L 479.670545 347.900287 
L 480.380727 354.209801 
L 481.090909 355.806188 
L 481.801091 360.924859 
L 482.511273 361.793523 
L 483.221455 367.502921 
L 483.931636 368.707784 
L 484.641818 363.434165 
L 485.352 361.966974 
L 486.062182 358.407442 
L 486.772364 357.959338 
L 487.482545 352.727158 
L 488.192727 355.870912 
L 488.902909 355.774458 
L 489.613091 353.337882 
L 490.323273 358.067556 
L 491.033455 351.653393 
L 492.453818 353.734527 
L 493.164 352.169266 
L 493.874182 352.044207 
L 494.584364 356.571392 
L 495.294545 365.833097 
L 496.004727 360.817555 
L 496.714909 358.409161 
L 497.425091 357.845506 
L 498.135273 357.837266 
L 498.845455 351.429975 
L 499.555636 349.234754 
L 500.265818 348.68698 
L 500.976 346.264562 
L 501.686182 347.965774 
L 502.396364 345.109259 
L 503.106545 352.421918 
L 503.816727 352.543064 
L 504.526909 352.038432 
L 505.237091 349.369794 
L 505.947273 351.67979 
L 506.657455 348.818576 
L 507.367636 353.871014 
L 508.077818 354.506396 
L 508.788 351.931099 
L 509.498182 352.507035 
L 510.208364 348.07955 
L 510.918545 357.352437 
L 511.628727 359.271739 
L 512.338909 356.802693 
L 513.049091 352.444326 
L 513.759273 356.198442 
L 514.469455 353.729826 
L 515.179636 346.143277 
L 515.889818 344.420368 
L 516.6 347.886603 
L 517.310182 344.057517 
L 518.020364 339.314315 
L 518.730545 337.733452 
L 519.440727 335.143018 
L 520.150909 338.618032 
L 520.861091 340.494989 
L 521.571273 337.249273 
L 522.281455 342.119667 
L 522.991636 345.035154 
L 523.701818 339.137749 
L 524.412 348.13336 
L 525.122182 350.482473 
L 525.832364 355.021369 
L 526.542545 354.931582 
L 527.252727 354.430493 
L 527.962909 355.02998 
L 528.673091 355.321521 
L 529.383273 355.030909 
L 530.093455 356.702524 
L 530.803636 353.809675 
L 532.224 339.529377 
L 533.644364 344.250698 
L 535.064727 346.499337 
L 535.774909 337.016887 
L 536.485091 338.573946 
L 537.195273 339.031694 
L 537.905455 338.32996 
L 538.615636 333.118536 
L 539.325818 334.073744 
L 541.456364 324.234368 
L 542.166545 321.855568 
L 542.876727 326.198337 
L 543.586909 327.63168 
L 544.297091 322.341416 
L 545.007273 328.777782 
L 545.717455 323.547253 
L 546.427636 312.816596 
L 547.137818 309.178526 
L 547.848 312.192355 
L 548.558182 308.406152 
L 549.268364 308.933291 
L 549.978545 305.712705 
L 550.688727 310.230437 
L 551.398909 312.434505 
L 552.109091 310.891669 
L 552.819273 304.028713 
L 553.529455 303.747176 
L 554.239636 293.85934 
L 556.370182 306.090073 
L 557.080364 306.177076 
L 557.790545 304.228316 
L 558.500727 304.399986 
L 559.210909 303.810159 
L 559.921091 304.71368 
L 560.631273 309.409609 
L 562.051636 298.046736 
L 562.761818 294.819029 
L 563.472 300.613776 
L 564.182182 299.978919 
L 565.602545 298.294466 
L 567.022909 305.083669 
L 567.733091 306.753759 
L 568.443273 302.896014 
L 569.153455 306.359609 
L 569.863636 306.568617 
L 570.573818 310.308759 
L 571.284 308.690364 
L 571.994182 306.137421 
L 572.704364 309.691216 
L 574.124727 307.347202 
L 574.834909 300.329634 
L 576.255273 297.026252 
L 576.965455 289.010228 
L 577.675636 292.307851 
L 578.385818 294.56859 
L 579.096 290.14611 
L 579.806182 290.971518 
L 580.516364 285.076703 
L 581.226545 285.872025 
L 581.936727 290.009722 
L 582.646909 281.11926 
L 583.357091 281.643504 
L 584.067273 280.249624 
L 584.777455 280.348116 
L 585.487636 283.513441 
L 586.197818 282.108092 
L 586.908 284.938118 
L 587.618182 279.926525 
L 588.328364 283.874989 
L 589.038545 279.432134 
L 589.748727 287.473291 
L 590.458909 288.176883 
L 591.169091 293.562361 
L 591.879273 284.276625 
L 592.589455 282.939923 
L 593.299636 285.168028 
L 594.009818 294.349182 
L 594.72 290.02255 
L 595.430182 291.004633 
L 596.140364 301.060232 
L 596.850545 300.229846 
L 597.560727 298.394561 
L 598.270909 299.411844 
L 598.981091 305.434173 
L 599.691273 302.406392 
L 600.401455 296.431608 
L 601.111636 296.11467 
L 601.821818 290.326758 
L 602.532 290.605518 
L 603.952364 288.88879 
L 604.662545 289.072967 
L 605.372727 303.27861 
L 606.082909 299.806367 
L 606.793091 297.345672 
L 607.503273 291.784652 
L 608.213455 293.931448 
L 608.923636 289.480951 
L 609.633818 290.707437 
L 610.344 288.508777 
L 611.054182 287.542866 
L 611.764364 284.681794 
L 612.474545 286.991756 
L 613.184727 286.065841 
L 613.894909 287.071158 
L 614.605091 288.874422 
L 615.315273 284.21557 
L 616.025455 287.049923 
L 616.735636 287.332083 
L 617.445818 280.956123 
L 618.156 281.280061 
L 618.866182 279.148206 
L 619.576364 282.634638 
L 620.286545 281.788463 
L 622.417091 273.341672 
L 623.127273 282.188742 
L 623.837455 280.829338 
L 624.547636 278.829479 
L 625.257818 278.390973 
L 625.968 284.391865 
L 626.678182 283.231413 
L 627.388364 288.232924 
L 628.098545 298.053895 
L 629.518909 293.144173 
L 630.229091 289.676656 
L 630.939273 292.963874 
L 631.649455 294.585044 
L 632.359636 295.371159 
L 633.069818 292.686495 
L 633.78 296.658645 
L 634.490182 297.782181 
L 635.200364 303.621941 
L 635.910545 297.20482 
L 636.620727 295.777885 
L 637.330909 291.727844 
L 638.041091 293.321557 
L 638.751273 292.713597 
L 639.461455 289.107332 
L 640.171636 298.848721 
L 640.881818 301.433694 
L 641.592 294.032256 
L 642.302182 291.72533 
L 643.012364 284.420568 
L 643.722545 280.141503 
L 644.432727 268.865035 
L 645.142909 261.62346 
L 645.853091 268.52281 
L 646.563273 268.137391 
L 647.273455 263.449507 
L 647.983636 260.084179 
L 648.693818 255.835181 
L 649.404 246.397165 
L 650.114182 244.914416 
L 650.824364 251.879501 
L 651.534545 250.337485 
L 652.244727 242.514807 
L 652.954909 250.67701 
L 654.375273 255.825914 
L 655.085455 250.63623 
L 655.795636 251.087881 
L 656.505818 252.236781 
L 657.216 254.335456 
L 657.926182 254.642415 
L 658.636364 247.443679 
L 659.346545 246.565754 
L 660.056727 239.440088 
L 660.766909 230.115538 
L 661.477091 235.627553 
L 662.187273 247.914218 
L 662.897455 245.101832 
L 663.607636 238.550936 
L 664.317818 241.940167 
L 665.028 235.847587 
L 665.738182 233.097711 
L 666.448364 236.254441 
L 667.158545 241.580856 
L 667.868727 235.761953 
L 669.289091 235.097194 
L 670.709455 250.967766 
L 671.419636 249.744572 
L 672.129818 247.717684 
L 672.84 252.589343 
L 673.550182 255.074693 
L 674.260364 254.352011 
L 674.970545 260.820607 
L 675.680727 251.879845 
L 676.390909 248.606873 
L 677.101091 242.031995 
L 677.811273 243.806891 
L 678.521455 246.482146 
L 679.231636 244.866771 
L 679.941818 234.790492 
L 680.652 238.158042 
L 681.362182 235.646057 
L 682.072364 229.690086 
L 682.782545 225.800037 
L 683.492727 219.74339 
L 684.202909 215.181001 
L 684.913091 215.65855 
L 685.623273 215.390996 
L 686.333455 214.150687 
L 687.043636 210.503446 
L 687.753818 215.428778 
L 688.464 219.052356 
L 689.174182 219.877656 
L 689.884364 221.557771 
L 690.594545 223.927956 
L 691.304727 223.521622 
L 692.014909 216.208236 
L 692.725091 212.74256 
L 693.435273 205.775231 
L 694.145455 205.293504 
L 694.855636 202.423908 
L 695.565818 205.032391 
L 696.276 198.432886 
L 696.986182 198.703869 
L 697.696364 196.917555 
L 698.406545 192.320204 
L 699.116727 190.640883 
L 699.826909 189.434117 
L 700.537091 185.896399 
L 701.247273 190.002357 
L 701.957455 187.392659 
L 702.667636 175.635644 
L 703.377818 175.773354 
L 704.088 175.440366 
L 704.798182 176.017423 
L 705.508364 169.006119 
L 706.218545 166.392095 
L 706.928727 166.224395 
L 707.638909 159.223115 
L 708.349091 154.15166 
L 709.059273 152.334893 
L 709.769455 153.734475 
L 710.479636 153.884581 
L 711.189818 160.05241 
L 711.9 158.530466 
L 712.610182 159.061497 
L 713.320364 162.6434 
L 714.030545 160.134441 
L 714.740727 163.935637 
L 715.450909 158.537152 
L 716.161091 161.247898 
L 716.871273 167.146889 
L 717.581455 165.213682 
L 718.291636 165.232122 
L 719.001818 160.181495 
L 719.712 165.56158 
L 720.422182 165.336042 
L 721.132364 172.965613 
L 722.552727 160.921002 
L 723.262909 154.970652 
L 723.973091 153.508452 
L 724.683273 156.72911 
L 725.393455 151.714127 
L 726.103636 155.061489 
L 727.524 140.667337 
L 728.234182 146.347853 
L 728.944364 141.87899 
L 729.654545 140.613617 
L 731.074909 161.926695 
L 731.785091 161.399285 
L 732.495273 160.700754 
L 733.205455 161.603794 
L 733.915636 163.43845 
L 734.625818 162.806095 
L 735.336 166.780582 
L 736.046182 167.074195 
L 736.756364 168.217862 
L 737.466545 169.090147 
L 738.176727 165.531134 
L 738.886909 171.707723 
L 739.597091 168.312849 
L 740.307273 165.952329 
L 741.017455 159.187585 
L 741.727636 158.631758 
L 742.437818 156.3999 
L 743.148 159.15025 
L 743.858182 160.871576 
L 744.568364 156.588894 
L 745.278545 151.123458 
L 745.988727 157.745654 
L 746.698909 153.451417 
L 747.409091 156.320671 
L 748.119273 160.035857 
L 748.829455 168.211325 
L 749.539636 171.157577 
L 750.249818 169.91151 
L 750.96 170.265697 
L 751.670182 164.07672 
L 752.380364 175.890878 
L 753.090545 175.581147 
L 753.800727 168.578829 
L 754.510909 173.570936 
L 755.221091 168.265171 
L 755.931273 171.467168 
L 756.641455 171.153426 
L 757.351636 172.076495 
L 758.061818 173.712393 
L 758.772 169.92261 
L 759.482182 166.8061 
L 760.192364 167.487839 
L 761.612727 171.998106 
L 762.322909 169.888209 
L 763.033091 160.523908 
L 764.453455 158.162352 
L 765.163636 152.237822 
L 765.873818 149.808032 
L 766.584 150.712814 
L 768.004364 156.16347 
L 768.714545 157.616552 
L 770.134909 155.453763 
L 770.845091 155.418001 
L 771.555273 160.670913 
L 772.265455 163.030479 
L 772.975636 163.845895 
L 773.685818 166.381976 
L 774.396 160.070802 
L 775.106182 162.050226 
L 775.816364 157.643262 
L 776.526545 162.152599 
L 777.236727 163.552592 
L 777.946909 161.160367 
L 778.657091 161.237321 
L 779.367273 158.94405 
L 780.077455 157.624688 
L 780.787636 157.978384 
L 781.497818 152.304042 
L 782.208 150.670621 
L 782.918182 160.413453 
L 783.628364 159.828818 
L 784.338545 158.352785 
L 785.048727 163.902013 
L 785.758909 167.073744 
L 786.469091 172.012736 
L 787.889455 166.273529 
L 788.599636 169.032493 
L 789.309818 172.584887 
L 790.02 168.092047 
L 790.730182 169.3997 
L 791.440364 175.309279 
L 792.150545 172.583571 
L 792.860727 175.19533 
L 793.570909 175.039439 
L 794.281091 171.841155 
L 794.991273 170.859851 
L 795.701455 174.555939 
L 796.411636 182.984061 
L 797.832 172.327681 
L 798.542182 162.484638 
L 799.252364 163.679798 
L 799.962545 159.742554 
L 800.672727 153.584759 
L 801.382909 150.599595 
L 802.093091 155.939693 
L 802.803273 152.676955 
L 803.513455 150.756218 
L 804.223636 152.948143 
L 804.933818 146.259236 
L 805.644 145.001475 
L 806.354182 154.763864 
L 807.064364 153.448715 
L 807.774545 145.088732 
L 808.484727 143.929327 
L 809.194909 146.343181 
L 809.905091 145.38544 
L 810.615273 140.307742 
L 811.325455 132.318504 
L 812.035636 133.163131 
L 812.745818 140.157213 
L 813.456 148.80196 
L 814.166182 148.422252 
L 814.876364 151.92485 
L 815.586545 152.919839 
L 816.296727 159.800905 
L 817.006909 159.552568 
L 817.717091 164.003532 
L 818.427273 164.605574 
L 819.137455 171.115854 
L 820.557818 157.318987 
L 821.268 156.650048 
L 822.688364 162.717824 
L 823.398545 153.565567 
L 824.108727 160.360494 
L 824.818909 159.094161 
L 825.529091 160.093245 
L 826.239273 159.109161 
L 826.949455 159.16347 
L 827.659636 144.836987 
L 829.08 140.178121 
L 829.790182 133.738699 
L 830.500364 133.072565 
L 831.210545 127.146369 
L 831.920727 127.499184 
L 832.630909 127.074873 
L 833.341091 127.589227 
L 834.051273 132.06754 
L 834.761455 128.035834 
L 835.471636 124.952461 
L 836.181818 124.716768 
L 836.892 130.942337 
L 837.602182 133.418378 
L 838.312364 126.172758 
L 839.022545 121.03063 
L 839.732727 113.856892 
L 840.442909 104.685183 
L 841.153091 104.559167 
L 841.863273 96.852812 
L 842.573455 97.887742 
L 843.283636 98.02432 
L 843.993818 96.107953 
L 844.704 94.749884 
L 845.414182 100.049851 
L 846.124364 109.203871 
L 846.834545 107.56873 
L 847.544727 106.884505 
L 848.254909 100.430662 
L 848.965091 95.805023 
L 849.675273 96.564676 
L 850.385455 96.94419 
L 851.095636 92.608537 
L 851.805818 90.066109 
L 852.516 93.309134 
L 853.226182 95.498871 
L 853.936364 89.554804 
L 854.646545 92.286526 
L 855.356727 88.97308 
L 856.066909 96.720777 
L 856.777091 111.534785 
L 857.487273 111.483137 
L 858.197455 112.944528 
L 858.907636 111.502522 
L 859.617818 106.107515 
L 860.328 96.15247 
L 861.038182 91.104241 
L 861.748364 92.233883 
L 862.458545 98.170223 
L 863.168727 97.116009 
L 863.878909 99.084197 
L 864.589091 99.015178 
L 865.299273 96.352364 
L 866.009455 91.311174 
L 866.719636 90.384812 
L 868.850182 106.17117 
L 869.560364 99.781621 
L 870.270545 111.379156 
L 870.980727 108.979026 
L 871.690909 110.913326 
L 871.690909 110.913326 
" clip-path="url(#pd613689eed)" style="fill: none; stroke: #ff7f0e; stroke-width: 1.5; stroke-linecap: square"/>
   </g>
   <g id="line2d_15">
    <path d="M 162.219273 229.669728 
L 165.06 229.667303 
L 166.480364 228.87332 
L 167.900727 228.969856 
L 168.610909 228.381459 
L 170.741455 228.190094 
L 171.451636 228.275684 
L 172.161818 228.185971 
L 172.872 227.476367 
L 176.422909 227.526137 
L 177.133091 227.517204 
L 178.553455 227.036175 
L 179.263636 227.05457 
L 179.973818 226.639945 
L 180.684 226.433508 
L 184.234909 226.408226 
L 187.785818 226.181347 
L 190.626545 226.252557 
L 192.046909 225.995906 
L 192.757091 225.995766 
L 194.887636 225.438497 
L 195.597818 225.440459 
L 196.308 225.145326 
L 197.018182 225.126983 
L 197.728364 224.834124 
L 203.409818 224.894409 
L 204.830182 224.406805 
L 206.250545 224.301208 
L 206.960727 224.462145 
L 208.381091 224.091386 
L 209.801455 224.060196 
L 210.511636 223.855908 
L 212.642182 223.785075 
L 214.062545 223.318219 
L 216.193091 223.248421 
L 216.903273 223.077235 
L 217.613455 223.078916 
L 218.323636 222.595946 
L 219.744 222.485808 
L 221.164364 222.539405 
L 221.874545 222.200337 
L 222.584727 222.122617 
L 223.294909 221.349697 
L 224.005091 221.286717 
L 224.715273 221.102296 
L 226.135636 221.192311 
L 226.845818 220.516934 
L 227.556 220.273317 
L 229.686545 220.264357 
L 231.106909 220.231438 
L 231.817091 219.637334 
L 233.237455 219.512463 
L 233.947636 218.897172 
L 234.657818 218.923565 
L 235.368 218.644369 
L 236.078182 218.642831 
L 236.788364 217.723281 
L 239.629091 217.555851 
L 240.339273 217.256965 
L 241.049455 217.11777 
L 242.469818 217.007953 
L 243.18 216.807841 
L 245.310545 216.833192 
L 246.020727 216.394938 
L 246.730909 216.257113 
L 248.151273 216.20751 
L 248.861455 216.02347 
L 249.571636 215.548211 
L 250.281818 215.543615 
L 250.992 215.382514 
L 253.122545 215.349401 
L 254.542909 215.252888 
L 255.963273 215.202274 
L 257.383636 215.274074 
L 258.093818 214.676241 
L 259.514182 214.711888 
L 260.224364 214.20871 
L 261.644727 214.206434 
L 262.354909 214.011381 
L 264.485455 213.815073 
L 265.905818 213.397244 
L 266.616 212.901246 
L 268.036364 212.381807 
L 268.746545 212.428855 
L 269.456727 211.762186 
L 273.007636 211.80207 
L 273.717818 211.613268 
L 274.428 211.619803 
L 275.138182 211.303494 
L 275.848364 211.279629 
L 276.558545 210.51691 
L 279.399273 210.346543 
L 284.370545 210.420532 
L 285.790909 210.238605 
L 287.211273 210.242114 
L 287.921455 210.151542 
L 288.631636 209.747141 
L 290.052 209.702283 
L 290.762182 209.685829 
L 292.182545 209.393408 
L 293.602909 209.399457 
L 294.313091 209.286732 
L 295.023273 208.973481 
L 297.864 208.725542 
L 298.574182 207.879578 
L 299.994545 207.833822 
L 302.125091 207.932769 
L 302.835273 207.450361 
L 304.965818 207.17597 
L 305.676 206.838867 
L 307.096364 206.671444 
L 307.806545 206.492592 
L 308.516727 206.456661 
L 309.226909 206.087869 
L 309.937091 206.01439 
L 310.647273 205.716842 
L 311.357455 205.642537 
L 312.067636 205.440242 
L 312.777818 204.970477 
L 313.488 204.972699 
L 314.198182 204.81243 
L 317.038909 204.688501 
L 318.459273 204.721728 
L 319.169455 203.514538 
L 324.140727 203.448255 
L 324.850909 203.536194 
L 325.561091 203.214006 
L 326.271273 203.144929 
L 326.981455 202.961349 
L 327.691636 202.943636 
L 328.401818 202.411103 
L 329.112 201.521448 
L 329.822182 201.240358 
L 331.952727 201.017959 
L 332.662909 200.696031 
L 333.373091 200.563171 
L 334.083273 200.562634 
L 334.793455 200.253362 
L 336.213818 200.25798 
L 336.924 200.089232 
L 337.634182 200.093181 
L 338.344364 199.664251 
L 339.054545 199.657498 
L 339.764727 199.017815 
L 341.185091 199.099296 
L 341.895273 198.803818 
L 343.315636 198.786405 
L 344.025818 198.559167 
L 345.446182 198.443907 
L 346.156364 198.218641 
L 346.866545 198.18603 
L 348.286909 197.996399 
L 351.127636 198.000397 
L 351.837818 197.128416 
L 352.548 197.003828 
L 353.258182 196.513193 
L 355.388727 196.492933 
L 356.809091 196.246758 
L 358.939636 196.255464 
L 359.649818 196.202178 
L 360.36 195.641197 
L 361.780364 195.504259 
L 362.490545 195.270386 
L 363.200727 195.15411 
L 363.910909 194.898513 
L 365.331273 194.805161 
L 366.041455 194.551446 
L 366.751636 194.504253 
L 367.461818 193.65422 
L 368.172 193.508808 
L 368.882182 193.544442 
L 371.722909 193.176192 
L 372.433091 192.783316 
L 373.143273 192.618576 
L 375.984 192.629505 
L 377.404364 192.588469 
L 378.114545 192.665843 
L 379.534909 192.641686 
L 380.245091 192.332284 
L 381.665455 192.39333 
L 382.375636 192.16899 
L 386.636727 192.099693 
L 387.346909 192.147347 
L 388.767273 191.749773 
L 390.187636 191.647129 
L 390.897818 191.59345 
L 391.608 191.328833 
L 393.738545 191.227573 
L 394.448727 191.035008 
L 395.869091 190.993625 
L 397.289455 190.76423 
L 397.999636 190.651641 
L 398.709818 190.665307 
L 400.130182 190.338926 
L 400.840364 190.221677 
L 401.550545 189.630581 
L 402.260727 189.348846 
L 406.521818 189.284537 
L 407.942182 188.808031 
L 410.782909 188.33588 
L 411.493091 188.176495 
L 412.913455 187.645316 
L 420.015273 187.255766 
L 420.725455 187.252945 
L 421.435636 186.957295 
L 422.145818 186.932864 
L 422.856 186.544532 
L 423.566182 186.531832 
L 424.276364 185.685841 
L 426.406909 185.741224 
L 427.117091 184.883336 
L 429.957818 184.634516 
L 430.668 184.379811 
L 432.798545 184.447437 
L 433.508727 183.986407 
L 435.639273 183.967181 
L 436.349455 183.570591 
L 437.059636 183.507175 
L 437.769818 183.258813 
L 438.48 183.251686 
L 439.190182 183.132019 
L 441.320727 183.110549 
L 442.030909 182.706839 
L 442.741091 182.696959 
L 443.451273 182.561287 
L 444.161455 182.574012 
L 444.871636 182.707706 
L 447.002182 182.473239 
L 448.422545 182.550538 
L 449.132727 182.189352 
L 451.263273 182.089734 
L 454.104 181.853513 
L 455.524364 181.536407 
L 456.944727 181.299721 
L 457.654909 181.179787 
L 460.495636 181.170919 
L 462.626182 180.439153 
L 463.336364 180.413774 
L 464.756727 180.110531 
L 466.177091 180.093161 
L 466.887273 179.890757 
L 467.597455 179.853553 
L 468.307636 179.574073 
L 469.728 179.602335 
L 470.438182 179.173303 
L 472.568727 179.229085 
L 473.278909 178.928762 
L 475.409455 178.914434 
L 476.119636 178.676676 
L 478.250182 178.621217 
L 478.960364 178.473828 
L 481.090909 178.448298 
L 481.801091 178.341907 
L 482.511273 178.373583 
L 483.221455 178.135174 
L 483.931636 178.140373 
L 484.641818 178.00482 
L 486.772364 177.896742 
L 487.482545 177.611024 
L 489.613091 177.532542 
L 491.033455 177.080007 
L 492.453818 177.071507 
L 494.584364 176.905964 
L 495.294545 176.461134 
L 496.004727 176.364778 
L 498.135273 176.382631 
L 498.845455 176.074689 
L 502.396364 175.968042 
L 503.106545 175.7637 
L 505.947273 175.663303 
L 508.077818 175.53141 
L 509.498182 175.615785 
L 510.208364 175.623671 
L 511.628727 175.395012 
L 513.049091 175.334455 
L 513.759273 175.399945 
L 514.469455 175.286909 
L 515.179636 174.860393 
L 516.6 174.747104 
L 518.730545 174.272449 
L 520.150909 174.204634 
L 520.861091 174.226412 
L 522.991636 173.9655 
L 524.412 173.126968 
L 525.122182 173.130176 
L 525.832364 173.006723 
L 531.513818 172.938389 
L 535.064727 172.764337 
L 535.774909 172.217553 
L 537.905455 172.198795 
L 538.615636 171.96334 
L 542.166545 171.777534 
L 542.876727 171.534151 
L 543.586909 171.532206 
L 545.007273 171.094622 
L 545.717455 170.970268 
L 546.427636 170.503985 
L 549.268364 170.434644 
L 549.978545 170.304132 
L 550.688727 170.044672 
L 552.109091 170.050111 
L 552.819273 169.824387 
L 553.529455 169.825564 
L 554.239636 168.982859 
L 555.66 168.944736 
L 559.210909 168.93583 
L 561.341455 168.936319 
L 562.051636 168.56742 
L 563.472 168.356783 
L 571.284 168.09197 
L 572.704364 167.810111 
L 574.124727 167.807817 
L 574.834909 167.57756 
L 576.965455 167.428246 
L 579.096 167.208698 
L 579.806182 167.169115 
L 580.516364 166.931966 
L 581.936727 166.78047 
L 582.646909 166.379422 
L 586.908 166.426524 
L 588.328364 166.150992 
L 589.038545 166.203055 
L 589.748727 165.830071 
L 590.458909 165.853008 
L 591.879273 165.26572 
L 593.299636 165.264429 
L 594.72 164.920061 
L 595.430182 164.912746 
L 596.140364 164.687657 
L 598.270909 164.623531 
L 598.981091 164.398205 
L 599.691273 164.397537 
L 600.401455 164.080118 
L 601.111636 164.087267 
L 602.532 163.973329 
L 604.662545 163.986029 
L 605.372727 163.258919 
L 606.082909 163.044847 
L 606.793091 162.970161 
L 607.503273 162.643441 
L 612.474545 162.717847 
L 616.735636 162.718295 
L 617.445818 162.516334 
L 622.417091 162.441445 
L 623.127273 162.040538 
L 625.257818 162.031133 
L 625.968 161.633656 
L 627.388364 161.737631 
L 628.098545 161.399108 
L 629.518909 161.270546 
L 630.939273 161.390146 
L 633.069818 161.196257 
L 633.78 161.287569 
L 635.200364 161.059621 
L 635.910545 160.778305 
L 636.620727 160.775746 
L 637.330909 160.659459 
L 638.751273 160.712267 
L 639.461455 160.599869 
L 640.171636 160.056303 
L 640.881818 160.057951 
L 641.592 159.553253 
L 642.302182 159.523685 
L 643.012364 159.16073 
L 643.722545 159.124032 
L 644.432727 158.134283 
L 645.853091 157.70783 
L 647.983636 157.66748 
L 648.693818 157.502711 
L 653.665091 157.187329 
L 657.216 157.034199 
L 657.926182 157.036419 
L 658.636364 156.708838 
L 659.346545 156.699155 
L 660.056727 156.54129 
L 660.766909 155.955532 
L 661.477091 155.961401 
L 662.187273 155.295377 
L 662.897455 155.288899 
L 663.607636 154.97179 
L 664.317818 154.942374 
L 665.028 154.608982 
L 665.738182 154.526729 
L 666.448364 154.562077 
L 667.158545 154.357205 
L 667.868727 153.999541 
L 669.289091 153.990229 
L 669.999273 153.81373 
L 670.709455 153.354094 
L 672.84 153.355773 
L 674.970545 153.322195 
L 675.680727 152.635643 
L 676.390909 152.669905 
L 677.101091 152.368323 
L 678.521455 152.322153 
L 679.231636 152.302351 
L 679.941818 151.947285 
L 683.492727 151.347699 
L 684.202909 151.201511 
L 687.753818 151.146053 
L 691.304727 151.035568 
L 692.014909 150.707196 
L 697.696364 150.49434 
L 698.406545 150.282181 
L 700.537091 150.15631 
L 701.957455 149.990677 
L 702.667636 149.538024 
L 707.638909 149.432358 
L 709.059273 149.22293 
L 712.610182 149.253859 
L 714.030545 149.316879 
L 718.291636 148.866933 
L 720.422182 148.982151 
L 721.132364 148.339614 
L 721.842545 148.133355 
L 722.552727 147.79062 
L 723.973091 147.786467 
L 725.393455 147.939235 
L 726.813818 147.988438 
L 728.234182 147.938491 
L 728.944364 148.048775 
L 729.654545 147.98873 
L 731.074909 147.132641 
L 737.466545 147.05366 
L 740.307273 146.889446 
L 741.017455 146.586418 
L 743.858182 146.62364 
L 744.568364 146.396769 
L 745.278545 146.30544 
L 745.988727 146.336778 
L 746.698909 146.195194 
L 747.409091 146.292974 
L 748.119273 146.115463 
L 748.829455 145.808068 
L 750.96 145.835767 
L 751.670182 145.477066 
L 752.380364 144.799923 
L 753.090545 144.798536 
L 754.510909 144.016104 
L 755.931273 143.774031 
L 760.902545 143.624496 
L 761.612727 143.559786 
L 762.322909 143.67846 
L 763.033091 143.39259 
L 764.453455 143.404664 
L 765.873818 143.227242 
L 766.584 143.238492 
L 768.004364 143.004829 
L 770.845091 142.973901 
L 771.555273 142.695433 
L 772.975636 142.625385 
L 775.816364 142.592025 
L 776.526545 142.471392 
L 782.208 142.52308 
L 782.918182 141.662251 
L 785.758909 141.573646 
L 786.469091 141.365557 
L 790.02 141.074244 
L 791.440364 141.00432 
L 794.281091 140.859248 
L 794.991273 140.850252 
L 795.701455 140.674305 
L 796.411636 140.256577 
L 797.121818 140.188257 
L 798.542182 139.569105 
L 799.252364 139.545497 
L 799.962545 139.407848 
L 802.093091 139.332189 
L 805.644 138.845046 
L 806.354182 138.371652 
L 807.064364 138.4051 
L 807.774545 138.655664 
L 810.615273 138.389747 
L 811.325455 137.964407 
L 812.035636 137.959691 
L 813.456 137.242151 
L 816.296727 137.129019 
L 818.427273 137.046746 
L 819.847636 136.485788 
L 820.557818 136.187017 
L 821.978182 136.234808 
L 822.688364 136.096171 
L 823.398545 135.57322 
L 824.108727 135.409687 
L 826.949455 135.462413 
L 827.659636 134.522543 
L 828.369818 134.553281 
L 829.08 134.466534 
L 829.790182 133.982149 
L 830.500364 133.993041 
L 831.210545 133.794083 
L 833.341091 133.793236 
L 834.051273 133.393877 
L 837.602182 133.400604 
L 838.312364 133.133999 
L 839.022545 133.075236 
L 839.732727 132.875394 
L 840.442909 132.185418 
L 841.153091 132.182006 
L 841.863273 132.048653 
L 844.704 132.040289 
L 846.124364 131.626808 
L 848.254909 131.473248 
L 848.965091 131.269721 
L 851.805818 131.251554 
L 855.356727 130.970191 
L 856.066909 130.61098 
L 856.777091 129.297274 
L 858.907636 129.283359 
L 859.617818 129.049404 
L 860.328 129.058669 
L 861.038182 129.199416 
L 861.748364 129.224728 
L 862.458545 128.719712 
L 865.299273 128.65913 
L 866.009455 128.506208 
L 868.14 128.502532 
L 869.560364 128.3494 
L 870.270545 128.044751 
L 871.690909 128.063841 
L 871.690909 128.063841 
" clip-path="url(#pd613689eed)" style="fill: none; stroke: #2ca02c; stroke-width: 1.5; stroke-linecap: square"/>
   </g>
   <g id="patch_3">
    <path d="M 126 384.48 
L 126 51.84 
" style="fill: none; stroke: #000000; stroke-width: 0.8; stroke-linejoin: miter; stroke-linecap: square"/>
   </g>
   <g id="patch_4">
    <path d="M 907.2 384.48 
L 907.2 51.84 
" style="fill: none; stroke: #000000; stroke-width: 0.8; stroke-linejoin: miter; stroke-linecap: square"/>
   </g>
   <g id="patch_5">
    <path d="M 126 384.48 
L 907.2 384.48 
" style="fill: none; stroke: #000000; stroke-width: 0.8; stroke-linejoin: miter; stroke-linecap: square"/>
   </g>
   <g id="patch_6">
    <path d="M 126 51.84 
L 907.2 51.84 
" style="fill: none; stroke: #000000; stroke-width: 0.8; stroke-linejoin: miter; stroke-linecap: square"/>
   </g>
   <g id="text_15">
    <!-- Quadratic Covariation of $X_t$ and $S_t$ -->
    <g transform="translate(414.54 45.84)scale(0.12 -0.12)">
     <defs>
      <path id="DejaVuSans-66" d="M 2375 4863 
L 2375 4384 
L 1825 4384 
Q 1516 4384 1395 4259 
Q 1275 4134 1275 3809 
L 1275 3500 
L 2222 3500 
L 2222 3053 
L 1275 3053 
L 1275 0 
L 697 0 
L 697 3053 
L 147 3053 
L 147 3500 
L 697 3500 
L 697 3744 
Q 697 4328 969 4595 
Q 1241 4863 1831 4863 
L 2375 4863 
z
" transform="scale(0.015625)"/>
      <path id="DejaVuSans-Oblique-58" d="M 878 4666 
L 1516 4666 
L 2316 2981 
L 3763 4666 
L 4500 4666 
L 2578 2438 
L 3738 0 
L 3103 0 
L 2163 1966 
L 459 0 
L -275 0 
L 1906 2509 
L 878 4666 
z
" transform="scale(0.015625)"/>
      <path id="DejaVuSans-Oblique-74" d="M 2706 3500 
L 2619 3053 
L 1472 3053 
L 1100 1153 
Q 1081 1047 1072 975 
Q 1063 903 1063 863 
Q 1063 663 1183 572 
Q 1303 481 1569 481 
L 2150 481 
L 2053 0 
L 1503 0 
Q 991 0 739 200 
Q 488 400 488 806 
Q 488 878 497 964 
Q 506 1050 525 1153 
L 897 3053 
L 409 3053 
L 500 3500 
L 978 3500 
L 1172 4494 
L 1747 4494 
L 1556 3500 
L 2706 3500 
z
" transform="scale(0.015625)"/>
      <path id="DejaVuSans-Oblique-53" d="M 3859 4513 
L 3738 3897 
Q 3422 4066 3111 4152 
Q 2800 4238 2509 4238 
Q 1944 4238 1609 3991 
Q 1275 3744 1275 3334 
Q 1275 3109 1398 2989 
Q 1522 2869 2034 2731 
L 2413 2638 
Q 3053 2472 3303 2217 
Q 3553 1963 3553 1503 
Q 3553 797 2998 353 
Q 2444 -91 1538 -91 
Q 1166 -91 791 -17 
Q 416 56 38 206 
L 166 856 
Q 513 641 861 531 
Q 1209 422 1556 422 
Q 2147 422 2503 684 
Q 2859 947 2859 1369 
Q 2859 1650 2717 1795 
Q 2575 1941 2106 2059 
L 1728 2156 
Q 1081 2325 845 2545 
Q 609 2766 609 3163 
Q 609 3859 1145 4304 
Q 1681 4750 2541 4750 
Q 2875 4750 3203 4690 
Q 3531 4631 3859 4513 
z
" transform="scale(0.015625)"/>
     </defs>
     <use xlink:href="#DejaVuSans-51" transform="translate(0 0.015625)"/>
     <use xlink:href="#DejaVuSans-75" transform="translate(78.710938 0.015625)"/>
     <use xlink:href="#DejaVuSans-61" transform="translate(142.089844 0.015625)"/>
     <use xlink:href="#DejaVuSans-64" transform="translate(203.369141 0.015625)"/>
     <use xlink:href="#DejaVuSans-72" transform="translate(266.845703 0.015625)"/>
     <use xlink:href="#DejaVuSans-61" transform="translate(307.958984 0.015625)"/>
     <use xlink:href="#DejaVuSans-74" transform="translate(369.238281 0.015625)"/>
     <use xlink:href="#DejaVuSans-69" transform="translate(408.447266 0.015625)"/>
     <use xlink:href="#DejaVuSans-63" transform="translate(436.230469 0.015625)"/>
     <use xlink:href="#DejaVuSans-20" transform="translate(491.210938 0.015625)"/>
     <use xlink:href="#DejaVuSans-43" transform="translate(522.998047 0.015625)"/>
     <use xlink:href="#DejaVuSans-6f" transform="translate(592.822266 0.015625)"/>
     <use xlink:href="#DejaVuSans-76" transform="translate(654.003906 0.015625)"/>
     <use xlink:href="#DejaVuSans-61" transform="translate(713.183594 0.015625)"/>
     <use xlink:href="#DejaVuSans-72" transform="translate(774.462891 0.015625)"/>
     <use xlink:href="#DejaVuSans-69" transform="translate(815.576172 0.015625)"/>
     <use xlink:href="#DejaVuSans-61" transform="translate(843.359375 0.015625)"/>
     <use xlink:href="#DejaVuSans-74" transform="translate(904.638672 0.015625)"/>
     <use xlink:href="#DejaVuSans-69" transform="translate(943.847656 0.015625)"/>
     <use xlink:href="#DejaVuSans-6f" transform="translate(971.630859 0.015625)"/>
     <use xlink:href="#DejaVuSans-6e" transform="translate(1032.8125 0.015625)"/>
     <use xlink:href="#DejaVuSans-20" transform="translate(1096.191406 0.015625)"/>
     <use xlink:href="#DejaVuSans-6f" transform="translate(1127.978516 0.015625)"/>
     <use xlink:href="#DejaVuSans-66" transform="translate(1189.160156 0.015625)"/>
     <use xlink:href="#DejaVuSans-20" transform="translate(1224.365234 0.015625)"/>
     <use xlink:href="#DejaVuSans-Oblique-58" transform="translate(1256.152344 0.015625)"/>
     <use xlink:href="#DejaVuSans-Oblique-74" transform="translate(1324.658203 -16.390625)scale(0.7)"/>
     <use xlink:href="#DejaVuSans-20" transform="translate(1354.838867 0.015625)"/>
     <use xlink:href="#DejaVuSans-61" transform="translate(1386.625977 0.015625)"/>
     <use xlink:href="#DejaVuSans-6e" transform="translate(1447.905273 0.015625)"/>
     <use xlink:href="#DejaVuSans-64" transform="translate(1511.28418 0.015625)"/>
     <use xlink:href="#DejaVuSans-20" transform="translate(1574.760742 0.015625)"/>
     <use xlink:href="#DejaVuSans-Oblique-53" transform="translate(1606.547852 0.015625)"/>
     <use xlink:href="#DejaVuSans-Oblique-74" transform="translate(1670.024414 -16.390625)scale(0.7)"/>
    </g>
   </g>
   <g id="legend_1">
    <g id="patch_7">
     <path d="M 133 103.874375 
L 335.1 103.874375 
Q 337.1 103.874375 337.1 101.874375 
L 337.1 58.84 
Q 337.1 56.84 335.1 56.84 
L 133 56.84 
Q 131 56.84 131 58.84 
L 131 101.874375 
Q 131 103.874375 133 103.874375 
z
" style="fill: #ffffff; opacity: 0.8; stroke: #cccccc; stroke-linejoin: miter"/>
    </g>
    <g id="line2d_16">
     <path d="M 135 64.938437 
L 145 64.938437 
L 155 64.938437 
" style="fill: none; stroke: #1f77b4; stroke-width: 1.5; stroke-linecap: square"/>
    </g>
    <g id="text_16">
     <!-- $X_t$ -->
     <g transform="translate(163 68.438437)scale(0.1 -0.1)">
      <use xlink:href="#DejaVuSans-Oblique-58" transform="translate(0 0.09375)"/>
      <use xlink:href="#DejaVuSans-Oblique-74" transform="translate(68.505859 -16.3125)scale(0.7)"/>
     </g>
    </g>
    <g id="line2d_17">
     <path d="M 135 79.616562 
L 145 79.616562 
L 155 79.616562 
" style="fill: none; stroke: #ff7f0e; stroke-width: 1.5; stroke-linecap: square"/>
    </g>
    <g id="text_17">
     <!-- $S_t$ -->
     <g transform="translate(163 83.116562)scale(0.1 -0.1)">
      <use xlink:href="#DejaVuSans-Oblique-53" transform="translate(0 0.78125)"/>
      <use xlink:href="#DejaVuSans-Oblique-74" transform="translate(63.476562 -15.625)scale(0.7)"/>
     </g>
    </g>
    <g id="line2d_18">
     <path d="M 135 94.294687 
L 145 94.294687 
L 155 94.294687 
" style="fill: none; stroke: #2ca02c; stroke-width: 1.5; stroke-linecap: square"/>
    </g>
    <g id="text_18">
     <!-- Quadratic Covariation of $X_t$ and $S_t$ -->
     <g transform="translate(163 97.794687)scale(0.1 -0.1)">
      <use xlink:href="#DejaVuSans-51" transform="translate(0 0.015625)"/>
      <use xlink:href="#DejaVuSans-75" transform="translate(78.710938 0.015625)"/>
      <use xlink:href="#DejaVuSans-61" transform="translate(142.089844 0.015625)"/>
      <use xlink:href="#DejaVuSans-64" transform="translate(203.369141 0.015625)"/>
      <use xlink:href="#DejaVuSans-72" transform="translate(266.845703 0.015625)"/>
      <use xlink:href="#DejaVuSans-61" transform="translate(307.958984 0.015625)"/>
      <use xlink:href="#DejaVuSans-74" transform="translate(369.238281 0.015625)"/>
      <use xlink:href="#DejaVuSans-69" transform="translate(408.447266 0.015625)"/>
      <use xlink:href="#DejaVuSans-63" transform="translate(436.230469 0.015625)"/>
      <use xlink:href="#DejaVuSans-20" transform="translate(491.210938 0.015625)"/>
      <use xlink:href="#DejaVuSans-43" transform="translate(522.998047 0.015625)"/>
      <use xlink:href="#DejaVuSans-6f" transform="translate(592.822266 0.015625)"/>
      <use xlink:href="#DejaVuSans-76" transform="translate(654.003906 0.015625)"/>
      <use xlink:href="#DejaVuSans-61" transform="translate(713.183594 0.015625)"/>
      <use xlink:href="#DejaVuSans-72" transform="translate(774.462891 0.015625)"/>
      <use xlink:href="#DejaVuSans-69" transform="translate(815.576172 0.015625)"/>
      <use xlink:href="#DejaVuSans-61" transform="translate(843.359375 0.015625)"/>
      <use xlink:href="#DejaVuSans-74" transform="translate(904.638672 0.015625)"/>
      <use xlink:href="#DejaVuSans-69" transform="translate(943.847656 0.015625)"/>
      <use xlink:href="#DejaVuSans-6f" transform="translate(971.630859 0.015625)"/>
      <use xlink:href="#DejaVuSans-6e" transform="translate(1032.8125 0.015625)"/>
      <use xlink:href="#DejaVuSans-20" transform="translate(1096.191406 0.015625)"/>
      <use xlink:href="#DejaVuSans-6f" transform="translate(1127.978516 0.015625)"/>
      <use xlink:href="#DejaVuSans-66" transform="translate(1189.160156 0.015625)"/>
      <use xlink:href="#DejaVuSans-20" transform="translate(1224.365234 0.015625)"/>
      <use xlink:href="#DejaVuSans-Oblique-58" transform="translate(1256.152344 0.015625)"/>
      <use xlink:href="#DejaVuSans-Oblique-74" transform="translate(1324.658203 -16.390625)scale(0.7)"/>
      <use xlink:href="#DejaVuSans-20" transform="translate(1354.838867 0.015625)"/>
      <use xlink:href="#DejaVuSans-61" transform="translate(1386.625977 0.015625)"/>
      <use xlink:href="#DejaVuSans-6e" transform="translate(1447.905273 0.015625)"/>
      <use xlink:href="#DejaVuSans-64" transform="translate(1511.28418 0.015625)"/>
      <use xlink:href="#DejaVuSans-20" transform="translate(1574.760742 0.015625)"/>
      <use xlink:href="#DejaVuSans-Oblique-53" transform="translate(1606.547852 0.015625)"/>
      <use xlink:href="#DejaVuSans-Oblique-74" transform="translate(1670.024414 -16.390625)scale(0.7)"/>
     </g>
    </g>
   </g>
  </g>
 </g>
 <defs>
  <clipPath id="pd613689eed">
   <rect x="126" y="51.84" width="781.2" height="332.64"/>
  </clipPath>
 </defs>
</svg>
