<?xml version="1.0" encoding="utf-8" standalone="no"?>
<!DOCTYPE svg PUBLIC "-//W3C//DTD SVG 1.1//EN"
  "http://www.w3.org/Graphics/SVG/1.1/DTD/svg11.dtd">
<svg xmlns:xlink="http://www.w3.org/1999/xlink" width="1008pt" height="432pt" viewBox="0 0 1008 432" xmlns="http://www.w3.org/2000/svg" version="1.1">
 <metadata>
  <rdf:RDF xmlns:dc="http://purl.org/dc/elements/1.1/" xmlns:cc="http://creativecommons.org/ns#" xmlns:rdf="http://www.w3.org/1999/02/22-rdf-syntax-ns#">
   <cc:Work>
    <dc:type rdf:resource="http://purl.org/dc/dcmitype/StillImage"/>
    <dc:date>2023-12-22T17:15:38.192219</dc:date>
    <dc:format>image/svg+xml</dc:format>
    <dc:creator>
     <cc:Agent>
      <dc:title>Matplotlib v3.5.2, https://matplotlib.org/</dc:title>
     </cc:Agent>
    </dc:creator>
   </cc:Work>
  </rdf:RDF>
 </metadata>
 <defs>
  <style type="text/css">*{stroke-linejoin: round; stroke-linecap: butt}</style>
 </defs>
 <g id="figure_1">
  <g id="patch_1">
   <path d="M 0 432 
L 1008 432 
L 1008 0 
L 0 0 
z
" style="fill: #ffffff"/>
  </g>
  <g id="axes_1">
   <g id="patch_2">
    <path d="M 126 384.48 
L 907.2 384.48 
L 907.2 51.84 
L 126 51.84 
z
" style="fill: #ffffff"/>
   </g>
   <g id="matplotlib.axis_1">
    <g id="xtick_1">
     <g id="line2d_1">
      <defs>
       <path id="m8ad6aa757b" d="M 0 0 
L 0 3.5 
" style="stroke: #000000; stroke-width: 0.8"/>
      </defs>
      <g>
       <use xlink:href="#m8ad6aa757b" x="161.509091" y="384.48" style="stroke: #000000; stroke-width: 0.8"/>
      </g>
     </g>
     <g id="text_1">
      <!-- 0.0 -->
      <g transform="translate(153.557528 399.078438)scale(0.1 -0.1)">
       <defs>
        <path id="DejaVuSans-30" d="M 2034 4250 
Q 1547 4250 1301 3770 
Q 1056 3291 1056 2328 
Q 1056 1369 1301 889 
Q 1547 409 2034 409 
Q 2525 409 2770 889 
Q 3016 1369 3016 2328 
Q 3016 3291 2770 3770 
Q 2525 4250 2034 4250 
z
M 2034 4750 
Q 2819 4750 3233 4129 
Q 3647 3509 3647 2328 
Q 3647 1150 3233 529 
Q 2819 -91 2034 -91 
Q 1250 -91 836 529 
Q 422 1150 422 2328 
Q 422 3509 836 4129 
Q 1250 4750 2034 4750 
z
" transform="scale(0.015625)"/>
        <path id="DejaVuSans-2e" d="M 684 794 
L 1344 794 
L 1344 0 
L 684 0 
L 684 794 
z
" transform="scale(0.015625)"/>
       </defs>
       <use xlink:href="#DejaVuSans-30"/>
       <use xlink:href="#DejaVuSans-2e" x="63.623047"/>
       <use xlink:href="#DejaVuSans-30" x="95.410156"/>
      </g>
     </g>
    </g>
    <g id="xtick_2">
     <g id="line2d_2">
      <g>
       <use xlink:href="#m8ad6aa757b" x="303.545455" y="384.48" style="stroke: #000000; stroke-width: 0.8"/>
      </g>
     </g>
     <g id="text_2">
      <!-- 0.2 -->
      <g transform="translate(295.593892 399.078438)scale(0.1 -0.1)">
       <defs>
        <path id="DejaVuSans-32" d="M 1228 531 
L 3431 531 
L 3431 0 
L 469 0 
L 469 531 
Q 828 903 1448 1529 
Q 2069 2156 2228 2338 
Q 2531 2678 2651 2914 
Q 2772 3150 2772 3378 
Q 2772 3750 2511 3984 
Q 2250 4219 1831 4219 
Q 1534 4219 1204 4116 
Q 875 4013 500 3803 
L 500 4441 
Q 881 4594 1212 4672 
Q 1544 4750 1819 4750 
Q 2544 4750 2975 4387 
Q 3406 4025 3406 3419 
Q 3406 3131 3298 2873 
Q 3191 2616 2906 2266 
Q 2828 2175 2409 1742 
Q 1991 1309 1228 531 
z
" transform="scale(0.015625)"/>
       </defs>
       <use xlink:href="#DejaVuSans-30"/>
       <use xlink:href="#DejaVuSans-2e" x="63.623047"/>
       <use xlink:href="#DejaVuSans-32" x="95.410156"/>
      </g>
     </g>
    </g>
    <g id="xtick_3">
     <g id="line2d_3">
      <g>
       <use xlink:href="#m8ad6aa757b" x="445.581818" y="384.48" style="stroke: #000000; stroke-width: 0.8"/>
      </g>
     </g>
     <g id="text_3">
      <!-- 0.4 -->
      <g transform="translate(437.630256 399.078438)scale(0.1 -0.1)">
       <defs>
        <path id="DejaVuSans-34" d="M 2419 4116 
L 825 1625 
L 2419 1625 
L 2419 4116 
z
M 2253 4666 
L 3047 4666 
L 3047 1625 
L 3713 1625 
L 3713 1100 
L 3047 1100 
L 3047 0 
L 2419 0 
L 2419 1100 
L 313 1100 
L 313 1709 
L 2253 4666 
z
" transform="scale(0.015625)"/>
       </defs>
       <use xlink:href="#DejaVuSans-30"/>
       <use xlink:href="#DejaVuSans-2e" x="63.623047"/>
       <use xlink:href="#DejaVuSans-34" x="95.410156"/>
      </g>
     </g>
    </g>
    <g id="xtick_4">
     <g id="line2d_4">
      <g>
       <use xlink:href="#m8ad6aa757b" x="587.618182" y="384.48" style="stroke: #000000; stroke-width: 0.8"/>
      </g>
     </g>
     <g id="text_4">
      <!-- 0.6 -->
      <g transform="translate(579.666619 399.078438)scale(0.1 -0.1)">
       <defs>
        <path id="DejaVuSans-36" d="M 2113 2584 
Q 1688 2584 1439 2293 
Q 1191 2003 1191 1497 
Q 1191 994 1439 701 
Q 1688 409 2113 409 
Q 2538 409 2786 701 
Q 3034 994 3034 1497 
Q 3034 2003 2786 2293 
Q 2538 2584 2113 2584 
z
M 3366 4563 
L 3366 3988 
Q 3128 4100 2886 4159 
Q 2644 4219 2406 4219 
Q 1781 4219 1451 3797 
Q 1122 3375 1075 2522 
Q 1259 2794 1537 2939 
Q 1816 3084 2150 3084 
Q 2853 3084 3261 2657 
Q 3669 2231 3669 1497 
Q 3669 778 3244 343 
Q 2819 -91 2113 -91 
Q 1303 -91 875 529 
Q 447 1150 447 2328 
Q 447 3434 972 4092 
Q 1497 4750 2381 4750 
Q 2619 4750 2861 4703 
Q 3103 4656 3366 4563 
z
" transform="scale(0.015625)"/>
       </defs>
       <use xlink:href="#DejaVuSans-30"/>
       <use xlink:href="#DejaVuSans-2e" x="63.623047"/>
       <use xlink:href="#DejaVuSans-36" x="95.410156"/>
      </g>
     </g>
    </g>
    <g id="xtick_5">
     <g id="line2d_5">
      <g>
       <use xlink:href="#m8ad6aa757b" x="729.654545" y="384.48" style="stroke: #000000; stroke-width: 0.8"/>
      </g>
     </g>
     <g id="text_5">
      <!-- 0.8 -->
      <g transform="translate(721.702983 399.078438)scale(0.1 -0.1)">
       <defs>
        <path id="DejaVuSans-38" d="M 2034 2216 
Q 1584 2216 1326 1975 
Q 1069 1734 1069 1313 
Q 1069 891 1326 650 
Q 1584 409 2034 409 
Q 2484 409 2743 651 
Q 3003 894 3003 1313 
Q 3003 1734 2745 1975 
Q 2488 2216 2034 2216 
z
M 1403 2484 
Q 997 2584 770 2862 
Q 544 3141 544 3541 
Q 544 4100 942 4425 
Q 1341 4750 2034 4750 
Q 2731 4750 3128 4425 
Q 3525 4100 3525 3541 
Q 3525 3141 3298 2862 
Q 3072 2584 2669 2484 
Q 3125 2378 3379 2068 
Q 3634 1759 3634 1313 
Q 3634 634 3220 271 
Q 2806 -91 2034 -91 
Q 1263 -91 848 271 
Q 434 634 434 1313 
Q 434 1759 690 2068 
Q 947 2378 1403 2484 
z
M 1172 3481 
Q 1172 3119 1398 2916 
Q 1625 2713 2034 2713 
Q 2441 2713 2670 2916 
Q 2900 3119 2900 3481 
Q 2900 3844 2670 4047 
Q 2441 4250 2034 4250 
Q 1625 4250 1398 4047 
Q 1172 3844 1172 3481 
z
" transform="scale(0.015625)"/>
       </defs>
       <use xlink:href="#DejaVuSans-30"/>
       <use xlink:href="#DejaVuSans-2e" x="63.623047"/>
       <use xlink:href="#DejaVuSans-38" x="95.410156"/>
      </g>
     </g>
    </g>
    <g id="xtick_6">
     <g id="line2d_6">
      <g>
       <use xlink:href="#m8ad6aa757b" x="871.690909" y="384.48" style="stroke: #000000; stroke-width: 0.8"/>
      </g>
     </g>
     <g id="text_6">
      <!-- 1.0 -->
      <g transform="translate(863.739347 399.078438)scale(0.1 -0.1)">
       <defs>
        <path id="DejaVuSans-31" d="M 794 531 
L 1825 531 
L 1825 4091 
L 703 3866 
L 703 4441 
L 1819 4666 
L 2450 4666 
L 2450 531 
L 3481 531 
L 3481 0 
L 794 0 
L 794 531 
z
" transform="scale(0.015625)"/>
       </defs>
       <use xlink:href="#DejaVuSans-31"/>
       <use xlink:href="#DejaVuSans-2e" x="63.623047"/>
       <use xlink:href="#DejaVuSans-30" x="95.410156"/>
      </g>
     </g>
    </g>
    <g id="text_7">
     <!-- Time -->
     <g transform="translate(504.366406 412.756563)scale(0.1 -0.1)">
      <defs>
       <path id="DejaVuSans-54" d="M -19 4666 
L 3928 4666 
L 3928 4134 
L 2272 4134 
L 2272 0 
L 1638 0 
L 1638 4134 
L -19 4134 
L -19 4666 
z
" transform="scale(0.015625)"/>
       <path id="DejaVuSans-69" d="M 603 3500 
L 1178 3500 
L 1178 0 
L 603 0 
L 603 3500 
z
M 603 4863 
L 1178 4863 
L 1178 4134 
L 603 4134 
L 603 4863 
z
" transform="scale(0.015625)"/>
       <path id="DejaVuSans-6d" d="M 3328 2828 
Q 3544 3216 3844 3400 
Q 4144 3584 4550 3584 
Q 5097 3584 5394 3201 
Q 5691 2819 5691 2113 
L 5691 0 
L 5113 0 
L 5113 2094 
Q 5113 2597 4934 2840 
Q 4756 3084 4391 3084 
Q 3944 3084 3684 2787 
Q 3425 2491 3425 1978 
L 3425 0 
L 2847 0 
L 2847 2094 
Q 2847 2600 2669 2842 
Q 2491 3084 2119 3084 
Q 1678 3084 1418 2786 
Q 1159 2488 1159 1978 
L 1159 0 
L 581 0 
L 581 3500 
L 1159 3500 
L 1159 2956 
Q 1356 3278 1631 3431 
Q 1906 3584 2284 3584 
Q 2666 3584 2933 3390 
Q 3200 3197 3328 2828 
z
" transform="scale(0.015625)"/>
       <path id="DejaVuSans-65" d="M 3597 1894 
L 3597 1613 
L 953 1613 
Q 991 1019 1311 708 
Q 1631 397 2203 397 
Q 2534 397 2845 478 
Q 3156 559 3463 722 
L 3463 178 
Q 3153 47 2828 -22 
Q 2503 -91 2169 -91 
Q 1331 -91 842 396 
Q 353 884 353 1716 
Q 353 2575 817 3079 
Q 1281 3584 2069 3584 
Q 2775 3584 3186 3129 
Q 3597 2675 3597 1894 
z
M 3022 2063 
Q 3016 2534 2758 2815 
Q 2500 3097 2075 3097 
Q 1594 3097 1305 2825 
Q 1016 2553 972 2059 
L 3022 2063 
z
" transform="scale(0.015625)"/>
      </defs>
      <use xlink:href="#DejaVuSans-54"/>
      <use xlink:href="#DejaVuSans-69" x="57.958984"/>
      <use xlink:href="#DejaVuSans-6d" x="85.742188"/>
      <use xlink:href="#DejaVuSans-65" x="183.154297"/>
     </g>
    </g>
   </g>
   <g id="matplotlib.axis_2">
    <g id="ytick_1">
     <g id="line2d_7">
      <defs>
       <path id="m2dc7c6aee4" d="M 0 0 
L -3.5 0 
" style="stroke: #000000; stroke-width: 0.8"/>
      </defs>
      <g>
       <use xlink:href="#m2dc7c6aee4" x="126" y="339.7172" style="stroke: #000000; stroke-width: 0.8"/>
      </g>
     </g>
     <g id="text_8">
      <!-- −1.5 -->
      <g transform="translate(94.717187 343.516419)scale(0.1 -0.1)">
       <defs>
        <path id="DejaVuSans-2212" d="M 678 2272 
L 4684 2272 
L 4684 1741 
L 678 1741 
L 678 2272 
z
" transform="scale(0.015625)"/>
        <path id="DejaVuSans-35" d="M 691 4666 
L 3169 4666 
L 3169 4134 
L 1269 4134 
L 1269 2991 
Q 1406 3038 1543 3061 
Q 1681 3084 1819 3084 
Q 2600 3084 3056 2656 
Q 3513 2228 3513 1497 
Q 3513 744 3044 326 
Q 2575 -91 1722 -91 
Q 1428 -91 1123 -41 
Q 819 9 494 109 
L 494 744 
Q 775 591 1075 516 
Q 1375 441 1709 441 
Q 2250 441 2565 725 
Q 2881 1009 2881 1497 
Q 2881 1984 2565 2268 
Q 2250 2553 1709 2553 
Q 1456 2553 1204 2497 
Q 953 2441 691 2322 
L 691 4666 
z
" transform="scale(0.015625)"/>
       </defs>
       <use xlink:href="#DejaVuSans-2212"/>
       <use xlink:href="#DejaVuSans-31" x="83.789062"/>
       <use xlink:href="#DejaVuSans-2e" x="147.412109"/>
       <use xlink:href="#DejaVuSans-35" x="179.199219"/>
      </g>
     </g>
    </g>
    <g id="ytick_2">
     <g id="line2d_8">
      <g>
       <use xlink:href="#m2dc7c6aee4" x="126" y="283.709415" style="stroke: #000000; stroke-width: 0.8"/>
      </g>
     </g>
     <g id="text_9">
      <!-- −1.0 -->
      <g transform="translate(94.717187 287.508633)scale(0.1 -0.1)">
       <use xlink:href="#DejaVuSans-2212"/>
       <use xlink:href="#DejaVuSans-31" x="83.789062"/>
       <use xlink:href="#DejaVuSans-2e" x="147.412109"/>
       <use xlink:href="#DejaVuSans-30" x="179.199219"/>
      </g>
     </g>
    </g>
    <g id="ytick_3">
     <g id="line2d_9">
      <g>
       <use xlink:href="#m2dc7c6aee4" x="126" y="227.701629" style="stroke: #000000; stroke-width: 0.8"/>
      </g>
     </g>
     <g id="text_10">
      <!-- −0.5 -->
      <g transform="translate(94.717187 231.500848)scale(0.1 -0.1)">
       <use xlink:href="#DejaVuSans-2212"/>
       <use xlink:href="#DejaVuSans-30" x="83.789062"/>
       <use xlink:href="#DejaVuSans-2e" x="147.412109"/>
       <use xlink:href="#DejaVuSans-35" x="179.199219"/>
      </g>
     </g>
    </g>
    <g id="ytick_4">
     <g id="line2d_10">
      <g>
       <use xlink:href="#m2dc7c6aee4" x="126" y="171.693843" style="stroke: #000000; stroke-width: 0.8"/>
      </g>
     </g>
     <g id="text_11">
      <!-- 0.0 -->
      <g transform="translate(103.096875 175.493062)scale(0.1 -0.1)">
       <use xlink:href="#DejaVuSans-30"/>
       <use xlink:href="#DejaVuSans-2e" x="63.623047"/>
       <use xlink:href="#DejaVuSans-30" x="95.410156"/>
      </g>
     </g>
    </g>
    <g id="ytick_5">
     <g id="line2d_11">
      <g>
       <use xlink:href="#m2dc7c6aee4" x="126" y="115.686057" style="stroke: #000000; stroke-width: 0.8"/>
      </g>
     </g>
     <g id="text_12">
      <!-- 0.5 -->
      <g transform="translate(103.096875 119.485276)scale(0.1 -0.1)">
       <use xlink:href="#DejaVuSans-30"/>
       <use xlink:href="#DejaVuSans-2e" x="63.623047"/>
       <use xlink:href="#DejaVuSans-35" x="95.410156"/>
      </g>
     </g>
    </g>
    <g id="ytick_6">
     <g id="line2d_12">
      <g>
       <use xlink:href="#m2dc7c6aee4" x="126" y="59.678272" style="stroke: #000000; stroke-width: 0.8"/>
      </g>
     </g>
     <g id="text_13">
      <!-- 1.0 -->
      <g transform="translate(103.096875 63.47749)scale(0.1 -0.1)">
       <use xlink:href="#DejaVuSans-31"/>
       <use xlink:href="#DejaVuSans-2e" x="63.623047"/>
       <use xlink:href="#DejaVuSans-30" x="95.410156"/>
      </g>
     </g>
    </g>
    <g id="text_14">
     <!-- Quadratic Covariation -->
     <g transform="translate(88.6375 272.970156)rotate(-90)scale(0.1 -0.1)">
      <defs>
       <path id="DejaVuSans-51" d="M 2522 4238 
Q 1834 4238 1429 3725 
Q 1025 3213 1025 2328 
Q 1025 1447 1429 934 
Q 1834 422 2522 422 
Q 3209 422 3611 934 
Q 4013 1447 4013 2328 
Q 4013 3213 3611 3725 
Q 3209 4238 2522 4238 
z
M 3406 84 
L 4238 -825 
L 3475 -825 
L 2784 -78 
Q 2681 -84 2626 -87 
Q 2572 -91 2522 -91 
Q 1538 -91 948 567 
Q 359 1225 359 2328 
Q 359 3434 948 4092 
Q 1538 4750 2522 4750 
Q 3503 4750 4090 4092 
Q 4678 3434 4678 2328 
Q 4678 1516 4351 937 
Q 4025 359 3406 84 
z
" transform="scale(0.015625)"/>
       <path id="DejaVuSans-75" d="M 544 1381 
L 544 3500 
L 1119 3500 
L 1119 1403 
Q 1119 906 1312 657 
Q 1506 409 1894 409 
Q 2359 409 2629 706 
Q 2900 1003 2900 1516 
L 2900 3500 
L 3475 3500 
L 3475 0 
L 2900 0 
L 2900 538 
Q 2691 219 2414 64 
Q 2138 -91 1772 -91 
Q 1169 -91 856 284 
Q 544 659 544 1381 
z
M 1991 3584 
L 1991 3584 
z
" transform="scale(0.015625)"/>
       <path id="DejaVuSans-61" d="M 2194 1759 
Q 1497 1759 1228 1600 
Q 959 1441 959 1056 
Q 959 750 1161 570 
Q 1363 391 1709 391 
Q 2188 391 2477 730 
Q 2766 1069 2766 1631 
L 2766 1759 
L 2194 1759 
z
M 3341 1997 
L 3341 0 
L 2766 0 
L 2766 531 
Q 2569 213 2275 61 
Q 1981 -91 1556 -91 
Q 1019 -91 701 211 
Q 384 513 384 1019 
Q 384 1609 779 1909 
Q 1175 2209 1959 2209 
L 2766 2209 
L 2766 2266 
Q 2766 2663 2505 2880 
Q 2244 3097 1772 3097 
Q 1472 3097 1187 3025 
Q 903 2953 641 2809 
L 641 3341 
Q 956 3463 1253 3523 
Q 1550 3584 1831 3584 
Q 2591 3584 2966 3190 
Q 3341 2797 3341 1997 
z
" transform="scale(0.015625)"/>
       <path id="DejaVuSans-64" d="M 2906 2969 
L 2906 4863 
L 3481 4863 
L 3481 0 
L 2906 0 
L 2906 525 
Q 2725 213 2448 61 
Q 2172 -91 1784 -91 
Q 1150 -91 751 415 
Q 353 922 353 1747 
Q 353 2572 751 3078 
Q 1150 3584 1784 3584 
Q 2172 3584 2448 3432 
Q 2725 3281 2906 2969 
z
M 947 1747 
Q 947 1113 1208 752 
Q 1469 391 1925 391 
Q 2381 391 2643 752 
Q 2906 1113 2906 1747 
Q 2906 2381 2643 2742 
Q 2381 3103 1925 3103 
Q 1469 3103 1208 2742 
Q 947 2381 947 1747 
z
" transform="scale(0.015625)"/>
       <path id="DejaVuSans-72" d="M 2631 2963 
Q 2534 3019 2420 3045 
Q 2306 3072 2169 3072 
Q 1681 3072 1420 2755 
Q 1159 2438 1159 1844 
L 1159 0 
L 581 0 
L 581 3500 
L 1159 3500 
L 1159 2956 
Q 1341 3275 1631 3429 
Q 1922 3584 2338 3584 
Q 2397 3584 2469 3576 
Q 2541 3569 2628 3553 
L 2631 2963 
z
" transform="scale(0.015625)"/>
       <path id="DejaVuSans-74" d="M 1172 4494 
L 1172 3500 
L 2356 3500 
L 2356 3053 
L 1172 3053 
L 1172 1153 
Q 1172 725 1289 603 
Q 1406 481 1766 481 
L 2356 481 
L 2356 0 
L 1766 0 
Q 1100 0 847 248 
Q 594 497 594 1153 
L 594 3053 
L 172 3053 
L 172 3500 
L 594 3500 
L 594 4494 
L 1172 4494 
z
" transform="scale(0.015625)"/>
       <path id="DejaVuSans-63" d="M 3122 3366 
L 3122 2828 
Q 2878 2963 2633 3030 
Q 2388 3097 2138 3097 
Q 1578 3097 1268 2742 
Q 959 2388 959 1747 
Q 959 1106 1268 751 
Q 1578 397 2138 397 
Q 2388 397 2633 464 
Q 2878 531 3122 666 
L 3122 134 
Q 2881 22 2623 -34 
Q 2366 -91 2075 -91 
Q 1284 -91 818 406 
Q 353 903 353 1747 
Q 353 2603 823 3093 
Q 1294 3584 2113 3584 
Q 2378 3584 2631 3529 
Q 2884 3475 3122 3366 
z
" transform="scale(0.015625)"/>
       <path id="DejaVuSans-20" transform="scale(0.015625)"/>
       <path id="DejaVuSans-43" d="M 4122 4306 
L 4122 3641 
Q 3803 3938 3442 4084 
Q 3081 4231 2675 4231 
Q 1875 4231 1450 3742 
Q 1025 3253 1025 2328 
Q 1025 1406 1450 917 
Q 1875 428 2675 428 
Q 3081 428 3442 575 
Q 3803 722 4122 1019 
L 4122 359 
Q 3791 134 3420 21 
Q 3050 -91 2638 -91 
Q 1578 -91 968 557 
Q 359 1206 359 2328 
Q 359 3453 968 4101 
Q 1578 4750 2638 4750 
Q 3056 4750 3426 4639 
Q 3797 4528 4122 4306 
z
" transform="scale(0.015625)"/>
       <path id="DejaVuSans-6f" d="M 1959 3097 
Q 1497 3097 1228 2736 
Q 959 2375 959 1747 
Q 959 1119 1226 758 
Q 1494 397 1959 397 
Q 2419 397 2687 759 
Q 2956 1122 2956 1747 
Q 2956 2369 2687 2733 
Q 2419 3097 1959 3097 
z
M 1959 3584 
Q 2709 3584 3137 3096 
Q 3566 2609 3566 1747 
Q 3566 888 3137 398 
Q 2709 -91 1959 -91 
Q 1206 -91 779 398 
Q 353 888 353 1747 
Q 353 2609 779 3096 
Q 1206 3584 1959 3584 
z
" transform="scale(0.015625)"/>
       <path id="DejaVuSans-76" d="M 191 3500 
L 800 3500 
L 1894 563 
L 2988 3500 
L 3597 3500 
L 2284 0 
L 1503 0 
L 191 3500 
z
" transform="scale(0.015625)"/>
       <path id="DejaVuSans-6e" d="M 3513 2113 
L 3513 0 
L 2938 0 
L 2938 2094 
Q 2938 2591 2744 2837 
Q 2550 3084 2163 3084 
Q 1697 3084 1428 2787 
Q 1159 2491 1159 1978 
L 1159 0 
L 581 0 
L 581 3500 
L 1159 3500 
L 1159 2956 
Q 1366 3272 1645 3428 
Q 1925 3584 2291 3584 
Q 2894 3584 3203 3211 
Q 3513 2838 3513 2113 
z
" transform="scale(0.015625)"/>
      </defs>
      <use xlink:href="#DejaVuSans-51"/>
      <use xlink:href="#DejaVuSans-75" x="78.710938"/>
      <use xlink:href="#DejaVuSans-61" x="142.089844"/>
      <use xlink:href="#DejaVuSans-64" x="203.369141"/>
      <use xlink:href="#DejaVuSans-72" x="266.845703"/>
      <use xlink:href="#DejaVuSans-61" x="307.958984"/>
      <use xlink:href="#DejaVuSans-74" x="369.238281"/>
      <use xlink:href="#DejaVuSans-69" x="408.447266"/>
      <use xlink:href="#DejaVuSans-63" x="436.230469"/>
      <use xlink:href="#DejaVuSans-20" x="491.210938"/>
      <use xlink:href="#DejaVuSans-43" x="522.998047"/>
      <use xlink:href="#DejaVuSans-6f" x="592.822266"/>
      <use xlink:href="#DejaVuSans-76" x="654.003906"/>
      <use xlink:href="#DejaVuSans-61" x="713.183594"/>
      <use xlink:href="#DejaVuSans-72" x="774.462891"/>
      <use xlink:href="#DejaVuSans-69" x="815.576172"/>
      <use xlink:href="#DejaVuSans-61" x="843.359375"/>
      <use xlink:href="#DejaVuSans-74" x="904.638672"/>
      <use xlink:href="#DejaVuSans-69" x="943.847656"/>
      <use xlink:href="#DejaVuSans-6f" x="971.630859"/>
      <use xlink:href="#DejaVuSans-6e" x="1032.8125"/>
     </g>
    </g>
   </g>
   <g id="line2d_13">
    <path d="M 161.509091 115.686057 
L 162.219273 116.569738 
L 162.929455 111.413495 
L 163.639636 110.791735 
L 164.349818 107.454941 
L 165.06 113.129975 
L 165.770182 114.839915 
L 166.480364 114.242484 
L 167.900727 121.164008 
L 168.610909 122.99991 
L 170.031273 109.777862 
L 170.741455 110.148752 
L 171.451636 108.046797 
L 172.161818 111.175037 
L 173.582182 106.626418 
L 174.292364 113.592327 
L 175.002545 115.140624 
L 175.712727 112.592183 
L 176.422909 118.41574 
L 177.133091 126.356257 
L 177.843273 129.608098 
L 179.263636 131.139262 
L 179.973818 127.889524 
L 180.684 125.721479 
L 181.394182 122.83816 
L 182.104364 122.831292 
L 182.814545 121.668594 
L 183.524727 119.384902 
L 184.234909 119.29112 
L 185.655273 124.502922 
L 186.365455 126.042231 
L 187.075636 132.728781 
L 187.785818 130.949395 
L 188.496 133.714607 
L 189.206182 132.431898 
L 189.916364 128.30615 
L 190.626545 126.366488 
L 191.336727 127.54072 
L 192.046909 119.506043 
L 192.757091 119.678272 
L 193.467273 117.551795 
L 194.177455 111.459899 
L 194.887636 108.912369 
L 195.597818 103.896274 
L 196.308 105.285996 
L 197.018182 100.561348 
L 197.728364 102.65804 
L 198.438545 109.395718 
L 199.148727 110.478287 
L 199.858909 106.747073 
L 200.569091 116.031406 
L 201.279273 114.273416 
L 201.989455 107.445264 
L 202.699636 107.928196 
L 203.409818 102.959223 
L 204.12 109.005436 
L 204.830182 109.446616 
L 205.540364 108.151156 
L 206.250545 105.298348 
L 206.960727 99.468345 
L 207.670909 95.113978 
L 208.381091 95.829527 
L 209.091273 95.659713 
L 209.801455 95.086655 
L 211.932 106.028792 
L 212.642182 102.61732 
L 213.352364 104.251769 
L 214.062545 108.656284 
L 214.772727 105.441747 
L 215.482909 103.478264 
L 216.193091 109.879159 
L 216.903273 112.953023 
L 217.613455 115.001276 
L 218.323636 115.035528 
L 219.744 110.633851 
L 220.454182 112.491432 
L 221.874545 116.962231 
L 222.584727 120.303528 
L 223.294909 124.60159 
L 224.005091 126.369863 
L 224.715273 123.487857 
L 225.425455 131.018755 
L 226.135636 132.55047 
L 226.845818 133.049464 
L 227.556 130.210064 
L 228.266182 129.284522 
L 228.976364 132.469634 
L 229.686545 130.549637 
L 230.396727 129.711607 
L 231.106909 130.325766 
L 231.817091 136.535616 
L 232.527273 134.842988 
L 233.237455 130.544356 
L 233.947636 134.198798 
L 234.657818 136.388508 
L 235.368 133.189842 
L 236.078182 127.811852 
L 237.498545 134.849283 
L 238.208727 127.894291 
L 238.918909 125.883388 
L 239.629091 126.167643 
L 240.339273 123.862842 
L 241.049455 123.571896 
L 241.759636 124.783867 
L 242.469818 122.329711 
L 243.18 122.027111 
L 243.890182 124.978455 
L 244.600364 125.735628 
L 245.310545 127.247991 
L 246.020727 125.358266 
L 246.730909 124.147542 
L 247.441091 128.58674 
L 248.151273 135.822706 
L 248.861455 136.001672 
L 249.571636 130.0876 
L 250.281818 132.498384 
L 250.992 128.803442 
L 251.702182 128.605573 
L 253.122545 123.606265 
L 253.832727 122.608292 
L 254.542909 123.983597 
L 255.253091 127.668338 
L 255.963273 124.918412 
L 256.673455 125.534369 
L 257.383636 116.712145 
L 258.093818 112.48568 
L 258.804 112.279163 
L 259.514182 113.843124 
L 260.224364 113.45237 
L 260.934545 110.876603 
L 261.644727 111.275999 
L 262.354909 115.09972 
L 263.065091 110.44507 
L 263.775273 111.147029 
L 264.485455 116.226627 
L 265.195636 117.681328 
L 265.905818 120.477096 
L 266.616 118.959707 
L 267.326182 116.671962 
L 268.036364 121.670303 
L 268.746545 119.92489 
L 270.166909 114.018576 
L 270.877091 107.173916 
L 271.587273 108.799552 
L 272.297455 107.519365 
L 273.007636 106.945404 
L 273.717818 109.925961 
L 274.428 105.80276 
L 275.138182 110.987452 
L 276.558545 107.601423 
L 277.268727 109.393901 
L 277.978909 108.004827 
L 278.689091 107.417832 
L 279.399273 101.608475 
L 280.109455 97.14453 
L 280.819636 99.457906 
L 281.529818 100.37155 
L 282.24 95.856669 
L 282.950182 96.112144 
L 283.660364 94.538935 
L 284.370545 95.673808 
L 285.080727 95.397687 
L 285.790909 99.684273 
L 286.501091 97.232876 
L 287.211273 95.463143 
L 287.921455 95.610892 
L 288.631636 101.314089 
L 289.341818 99.10241 
L 290.052 97.859415 
L 291.472364 100.626034 
L 292.182545 104.934801 
L 292.892727 105.397297 
L 293.602909 102.440483 
L 294.313091 104.460928 
L 295.023273 102.320161 
L 295.733455 100.870503 
L 296.443636 95.658609 
L 297.153818 94.938355 
L 297.864 97.453677 
L 298.574182 95.308226 
L 299.284364 95.496366 
L 299.994545 94.918546 
L 300.704727 90.339075 
L 301.414909 90.663306 
L 302.125091 88.279363 
L 302.835273 90.621114 
L 303.545455 90.673669 
L 304.255636 90.42061 
L 304.965818 90.036133 
L 305.676 88.300329 
L 306.386182 94.934375 
L 307.096364 103.863408 
L 307.806545 102.236331 
L 308.516727 104.427022 
L 309.226909 102.726707 
L 309.937091 103.857543 
L 310.647273 102.446751 
L 311.357455 100.719425 
L 312.067636 92.465889 
L 312.777818 101.083518 
L 313.488 99.157801 
L 314.198182 95.442733 
L 314.908364 89.252474 
L 315.618545 91.705929 
L 316.328727 93.62741 
L 317.038909 92.287396 
L 317.749091 97.635947 
L 318.459273 97.994149 
L 319.169455 96.005142 
L 319.879636 101.678425 
L 320.589818 101.105933 
L 321.3 99.544128 
L 322.010182 95.406801 
L 322.720364 94.342402 
L 323.430545 94.815732 
L 324.140727 97.292157 
L 325.561091 104.246122 
L 326.271273 100.369388 
L 327.691636 97.5641 
L 328.401818 94.003044 
L 329.112 96.164192 
L 329.822182 91.650765 
L 330.532364 89.368333 
L 331.242545 87.842751 
L 331.952727 87.17894 
L 332.662909 83.304102 
L 333.373091 84.018548 
L 334.083273 76.807758 
L 334.793455 79.466228 
L 335.503636 83.01911 
L 336.924 79.976848 
L 337.634182 77.147477 
L 338.344364 85.648465 
L 339.054545 89.354082 
L 339.764727 84.734301 
L 340.474909 93.926558 
L 341.185091 94.339925 
L 341.895273 98.202139 
L 342.605455 94.825476 
L 343.315636 87.76282 
L 344.025818 91.669111 
L 344.736 96.546496 
L 345.446182 97.827226 
L 346.156364 99.720223 
L 346.866545 94.798016 
L 347.576727 97.564768 
L 348.286909 98.913898 
L 348.997091 95.840249 
L 349.707273 97.488722 
L 350.417455 92.228229 
L 351.127636 89.373132 
L 351.837818 84.978312 
L 352.548 83.842425 
L 353.258182 88.311634 
L 353.968364 89.075648 
L 356.098909 102.552037 
L 356.809091 96.723682 
L 357.519273 93.077813 
L 358.229455 93.126149 
L 358.939636 97.837404 
L 359.649818 98.062623 
L 360.36 97.373335 
L 361.070182 100.147071 
L 361.780364 96.098036 
L 362.490545 95.405674 
L 363.200727 97.977897 
L 363.910909 101.239114 
L 364.621091 101.554989 
L 365.331273 100.554304 
L 366.041455 100.01734 
L 366.751636 97.85875 
L 367.461818 96.693327 
L 368.172 96.020987 
L 368.882182 90.538906 
L 369.592364 90.925848 
L 370.302545 90.581844 
L 371.012727 93.275758 
L 371.722909 95.523509 
L 372.433091 93.915716 
L 373.143273 91.043323 
L 373.853455 88.839599 
L 374.563636 92.690179 
L 375.273818 100.604996 
L 375.984 103.371455 
L 376.694182 98.943691 
L 377.404364 102.929112 
L 378.114545 96.877545 
L 378.824727 96.106941 
L 379.534909 99.279761 
L 380.245091 101.793211 
L 380.955273 103.782589 
L 381.665455 107.628954 
L 382.375636 116.178306 
L 383.085818 111.205058 
L 383.796 109.32289 
L 384.506182 102.080988 
L 385.216364 96.615033 
L 385.926545 96.61682 
L 386.636727 98.609874 
L 387.346909 103.279636 
L 388.057091 101.127981 
L 388.767273 97.335684 
L 389.477455 100.474518 
L 390.897818 101.337216 
L 391.608 102.640718 
L 392.318182 96.906976 
L 393.028364 102.701088 
L 393.738545 101.991762 
L 394.448727 101.718666 
L 395.158909 103.124441 
L 395.869091 101.607743 
L 396.579273 105.544628 
L 397.289455 106.148571 
L 397.999636 104.513966 
L 398.709818 103.772745 
L 399.42 104.97904 
L 400.130182 107.337616 
L 400.840364 110.249542 
L 401.550545 109.276313 
L 402.260727 107.77742 
L 402.970909 104.052813 
L 403.681091 105.932407 
L 404.391273 107.122868 
L 405.101455 105.283621 
L 405.811636 107.36276 
L 407.942182 110.419142 
L 408.652364 109.791402 
L 409.362545 105.369106 
L 410.072727 103.057844 
L 410.782909 102.493019 
L 411.493091 105.08606 
L 412.203273 108.805006 
L 412.913455 108.943907 
L 413.623636 108.148549 
L 414.333818 102.037551 
L 415.044 105.680956 
L 416.464364 110.296384 
L 417.174545 105.183901 
L 417.884727 105.501534 
L 418.594909 103.231131 
L 419.305091 111.70914 
L 420.015273 114.820363 
L 420.725455 111.382635 
L 421.435636 110.572671 
L 422.856 117.618431 
L 423.566182 120.328613 
L 424.276364 121.216044 
L 424.986545 117.802277 
L 425.696727 118.021147 
L 426.406909 117.594888 
L 427.117091 118.598792 
L 427.827273 121.581867 
L 428.537455 118.899198 
L 429.247636 117.20126 
L 429.957818 116.486727 
L 430.668 119.904517 
L 431.378182 118.962814 
L 432.088364 123.187235 
L 433.508727 121.349031 
L 434.218909 121.241707 
L 434.929091 121.453664 
L 435.639273 123.412572 
L 436.349455 120.92397 
L 437.059636 121.005733 
L 437.769818 126.16659 
L 438.48 123.87067 
L 439.190182 123.561901 
L 439.900364 131.318891 
L 440.610545 131.691891 
L 441.320727 134.26568 
L 442.030909 131.729826 
L 442.741091 139.923415 
L 443.451273 140.132052 
L 444.161455 139.406267 
L 445.581818 127.749106 
L 446.292 129.252732 
L 447.712364 123.221887 
L 448.422545 125.846235 
L 449.132727 126.940347 
L 449.842909 129.814763 
L 450.553091 128.710791 
L 451.263273 122.572841 
L 451.973455 120.955082 
L 452.683636 119.629293 
L 453.393818 126.130002 
L 454.104 124.314186 
L 454.814182 118.732692 
L 455.524364 118.102774 
L 456.234545 114.908557 
L 456.944727 107.147599 
L 457.654909 108.286539 
L 458.365091 106.835709 
L 459.075273 113.750375 
L 459.785455 116.073806 
L 461.205818 117.143337 
L 461.916 113.89974 
L 462.626182 121.551443 
L 463.336364 119.563504 
L 464.046545 122.693543 
L 464.756727 123.140433 
L 465.466909 119.399695 
L 466.177091 122.479091 
L 466.887273 123.55386 
L 467.597455 119.426877 
L 468.307636 124.417392 
L 469.017818 120.692054 
L 470.438182 125.181929 
L 471.148364 125.854586 
L 471.858545 127.721406 
L 472.568727 128.530854 
L 473.278909 124.376034 
L 473.989091 130.12898 
L 474.699273 126.835558 
L 475.409455 128.879132 
L 476.829818 139.738212 
L 477.54 139.475621 
L 478.250182 139.075708 
L 478.960364 140.957482 
L 479.670545 139.043921 
L 480.380727 136.157459 
L 481.090909 139.845313 
L 481.801091 138.62741 
L 482.511273 140.834306 
L 483.221455 141.031186 
L 483.931636 144.513654 
L 484.641818 141.931779 
L 485.352 143.920666 
L 486.062182 147.754259 
L 486.772364 145.964724 
L 487.482545 150.839183 
L 488.192727 150.200649 
L 488.902909 147.660654 
L 489.613091 151.348395 
L 490.323273 150.595283 
L 491.033455 153.779571 
L 491.743636 147.876588 
L 492.453818 145.765612 
L 493.164 151.896806 
L 493.874182 151.541583 
L 494.584364 152.663422 
L 496.004727 162.844142 
L 496.714909 163.025701 
L 497.425091 159.517567 
L 498.135273 157.682909 
L 498.845455 159.653653 
L 499.555636 158.679266 
L 500.265818 160.33665 
L 500.976 160.045584 
L 501.686182 158.372607 
L 502.396364 156.358182 
L 503.106545 153.717414 
L 503.816727 147.771083 
L 504.526909 150.698988 
L 505.237091 151.973075 
L 505.947273 155.129532 
L 506.657455 151.294985 
L 508.077818 155.655687 
L 508.788 159.724219 
L 509.498182 153.869832 
L 510.208364 153.027492 
L 510.918545 151.584589 
L 511.628727 149.014322 
L 512.338909 150.287086 
L 513.049091 154.101626 
L 513.759273 149.990396 
L 514.469455 154.211321 
L 515.179636 150.853774 
L 515.889818 156.857821 
L 516.6 157.194694 
L 517.310182 155.22678 
L 518.020364 154.028803 
L 518.730545 160.18854 
L 519.440727 158.971094 
L 520.150909 160.270688 
L 520.861091 160.92635 
L 521.571273 166.629875 
L 522.281455 167.383229 
L 522.991636 168.961669 
L 523.701818 165.478945 
L 524.412 166.918455 
L 525.122182 165.628266 
L 525.832364 168.557323 
L 527.252727 151.182489 
L 527.962909 158.048834 
L 528.673091 157.693343 
L 530.093455 167.803493 
L 530.803636 167.656131 
L 531.513818 172.036369 
L 532.224 169.920652 
L 532.934182 169.213517 
L 533.644364 171.439949 
L 534.354545 166.800217 
L 535.064727 163.762397 
L 535.774909 163.791144 
L 536.485091 159.739234 
L 537.195273 157.262738 
L 537.905455 152.013701 
L 538.615636 151.310414 
L 539.325818 149.560626 
L 540.036 146.728752 
L 540.746182 146.000926 
L 541.456364 139.991368 
L 542.876727 141.41442 
L 543.586909 141.861489 
L 544.297091 143.306839 
L 545.007273 133.62231 
L 546.427636 140.49208 
L 547.137818 139.219178 
L 547.848 138.343655 
L 548.558182 135.918977 
L 549.268364 131.066125 
L 549.978545 133.027303 
L 550.688727 130.727958 
L 551.398909 132.530252 
L 552.109091 130.746431 
L 552.819273 132.322113 
L 553.529455 131.463827 
L 554.239636 130.904869 
L 554.949818 133.96335 
L 555.66 133.421648 
L 556.370182 132.443903 
L 557.080364 136.844984 
L 557.790545 132.750498 
L 558.500727 130.014904 
L 559.210909 130.758985 
L 559.921091 133.099543 
L 560.631273 139.105302 
L 561.341455 137.685477 
L 562.051636 138.851348 
L 562.761818 148.567142 
L 563.472 151.902586 
L 564.182182 149.009162 
L 564.892364 147.886276 
L 565.602545 148.511231 
L 566.312727 149.506236 
L 567.022909 154.794725 
L 567.733091 152.914116 
L 568.443273 158.749666 
L 569.153455 155.186143 
L 569.863636 160.211847 
L 570.573818 157.244676 
L 571.284 159.881999 
L 572.704364 160.195909 
L 573.414545 156.355359 
L 574.124727 159.190859 
L 574.834909 156.188461 
L 575.545091 151.497163 
L 576.255273 152.226255 
L 576.965455 158.003921 
L 577.675636 154.383392 
L 578.385818 158.71855 
L 579.096 165.444205 
L 579.806182 168.91734 
L 580.516364 173.426278 
L 581.226545 173.135104 
L 581.936727 167.963769 
L 582.646909 168.461222 
L 583.357091 172.410252 
L 584.067273 168.670094 
L 584.777455 165.733801 
L 585.487636 170.172366 
L 586.197818 171.032991 
L 586.908 164.691355 
L 587.618182 169.69088 
L 588.328364 170.407769 
L 589.038545 170.584088 
L 590.458909 167.891394 
L 591.169091 162.216414 
L 591.879273 162.149095 
L 592.589455 158.238773 
L 593.299636 163.223365 
L 594.009818 171.661192 
L 594.72 168.335792 
L 595.430182 165.898757 
L 596.850545 170.070526 
L 597.560727 167.565333 
L 598.270909 170.786888 
L 598.981091 168.836192 
L 599.691273 169.503779 
L 600.401455 169.499464 
L 601.111636 170.709761 
L 601.821818 175.531665 
L 602.532 181.12514 
L 603.242182 180.065326 
L 603.952364 179.539004 
L 604.662545 181.285268 
L 605.372727 180.634009 
L 606.082909 185.335303 
L 606.793091 187.766153 
L 607.503273 195.25881 
L 608.213455 193.811296 
L 608.923636 184.075992 
L 609.633818 184.184307 
L 610.344 174.908236 
L 611.054182 169.540253 
L 611.764364 170.343977 
L 612.474545 162.639155 
L 613.184727 163.305675 
L 613.894909 165.871321 
L 614.605091 169.300205 
L 615.315273 176.948338 
L 616.025455 177.423156 
L 616.735636 175.160488 
L 617.445818 170.140951 
L 618.156 168.111267 
L 618.866182 170.646331 
L 619.576364 170.301263 
L 620.286545 168.626073 
L 620.996727 174.254034 
L 621.706909 172.484141 
L 622.417091 175.448935 
L 623.127273 175.385847 
L 623.837455 174.973231 
L 624.547636 179.898462 
L 625.257818 171.386163 
L 625.968 172.957605 
L 626.678182 168.787537 
L 627.388364 169.71027 
L 628.098545 170.172117 
L 628.808727 170.76738 
L 629.518909 173.487232 
L 630.229091 175.70986 
L 630.939273 180.064637 
L 631.649455 181.319817 
L 632.359636 185.193733 
L 633.069818 184.375592 
L 633.78 189.845338 
L 634.490182 188.748361 
L 635.200364 189.182425 
L 635.910545 188.435113 
L 636.620727 185.011367 
L 637.330909 186.471912 
L 638.041091 185.705637 
L 638.751273 186.211407 
L 639.461455 187.299195 
L 640.881818 196.308141 
L 641.592 192.381623 
L 643.012364 192.684622 
L 643.722545 189.02437 
L 644.432727 191.029963 
L 645.142909 196.502255 
L 645.853091 197.783929 
L 646.563273 197.319699 
L 647.273455 195.281333 
L 647.983636 198.165527 
L 648.693818 201.800258 
L 649.404 206.218302 
L 650.114182 214.551657 
L 650.824364 216.709498 
L 651.534545 218.017219 
L 652.244727 220.029029 
L 652.954909 217.942466 
L 653.665091 220.939655 
L 654.375273 220.008067 
L 655.085455 219.660395 
L 655.795636 218.71315 
L 656.505818 217.059022 
L 657.216 223.330846 
L 657.926182 227.565877 
L 658.636364 230.416665 
L 660.056727 240.138944 
L 660.766909 243.352639 
L 661.477091 235.682524 
L 662.187273 236.382141 
L 662.897455 230.393349 
L 663.607636 230.704915 
L 664.317818 231.760705 
L 665.028 230.799294 
L 665.738182 230.529065 
L 666.448364 226.264055 
L 667.158545 219.487533 
L 667.868727 221.972811 
L 668.578909 216.103337 
L 669.289091 216.394555 
L 669.999273 217.04427 
L 670.709455 216.917433 
L 672.129818 224.20099 
L 672.84 226.345011 
L 673.550182 225.939568 
L 674.260364 219.452713 
L 674.970545 222.66437 
L 675.680727 228.453069 
L 676.390909 233.300058 
L 677.101091 232.182717 
L 677.811273 232.669743 
L 678.521455 226.466065 
L 679.231636 223.437002 
L 679.941818 224.470096 
L 680.652 218.009489 
L 681.362182 214.630784 
L 682.072364 220.221198 
L 682.782545 216.037108 
L 683.492727 215.740467 
L 684.202909 219.303086 
L 684.913091 223.782659 
L 685.623273 225.413795 
L 686.333455 223.560629 
L 687.043636 223.021585 
L 687.753818 220.81317 
L 688.464 221.019512 
L 689.174182 225.138247 
L 689.884364 222.575365 
L 690.594545 216.913897 
L 691.304727 218.986206 
L 692.014909 216.497384 
L 692.725091 208.013006 
L 693.435273 209.599869 
L 694.145455 208.258287 
L 694.855636 210.992188 
L 695.565818 208.931854 
L 696.276 206.045772 
L 696.986182 204.009231 
L 697.696364 207.432396 
L 698.406545 205.597062 
L 699.116727 203.216577 
L 699.826909 199.247597 
L 700.537091 203.327708 
L 701.247273 203.925671 
L 701.957455 202.944694 
L 702.667636 200.13653 
L 703.377818 199.570493 
L 704.088 197.090213 
L 704.798182 201.439797 
L 705.508364 197.992811 
L 706.218545 205.702164 
L 706.928727 206.405159 
L 707.638909 206.311358 
L 709.059273 195.735062 
L 709.769455 202.757288 
L 710.479636 201.717498 
L 711.189818 201.223481 
L 711.9 206.654446 
L 712.610182 206.801246 
L 713.320364 209.800468 
L 714.030545 217.699189 
L 714.740727 215.887274 
L 715.450909 210.096699 
L 716.161091 215.559286 
L 716.871273 209.058665 
L 717.581455 209.511849 
L 718.291636 213.55845 
L 719.001818 212.328005 
L 719.712 209.482533 
L 720.422182 211.310838 
L 721.132364 210.572352 
L 721.842545 212.78014 
L 722.552727 217.105981 
L 723.262909 218.292714 
L 723.973091 217.598193 
L 724.683273 219.901224 
L 725.393455 222.971835 
L 726.103636 219.850859 
L 726.813818 218.181075 
L 727.524 215.871868 
L 728.234182 219.586928 
L 728.944364 222.362353 
L 729.654545 227.416908 
L 730.364727 227.182498 
L 731.074909 223.159736 
L 731.785091 220.938057 
L 732.495273 221.132422 
L 733.205455 224.558972 
L 733.915636 224.357744 
L 734.625818 220.566686 
L 735.336 219.132542 
L 736.046182 220.441132 
L 736.756364 220.290099 
L 737.466545 218.94334 
L 738.176727 215.69664 
L 738.886909 217.906092 
L 739.597091 214.077618 
L 740.307273 204.129023 
L 741.017455 207.471722 
L 741.727636 206.092386 
L 742.437818 207.385311 
L 743.148 210.719632 
L 743.858182 205.001246 
L 744.568364 206.083955 
L 745.278545 196.790194 
L 745.988727 198.646268 
L 746.698909 199.889838 
L 747.409091 203.344818 
L 748.119273 204.768544 
L 748.829455 212.912919 
L 749.539636 215.559853 
L 750.249818 221.278374 
L 751.670182 209.716278 
L 752.380364 208.660071 
L 753.090545 208.317892 
L 753.800727 204.054892 
L 754.510909 209.559165 
L 755.221091 206.257435 
L 755.931273 200.145215 
L 756.641455 203.946769 
L 757.351636 205.662857 
L 758.061818 204.54676 
L 758.772 198.874815 
L 759.482182 197.766501 
L 760.902545 196.390631 
L 761.612727 194.264288 
L 762.322909 189.948609 
L 763.033091 186.857918 
L 763.743273 186.511593 
L 765.163636 197.963232 
L 765.873818 201.362259 
L 766.584 204.217068 
L 767.294182 204.943399 
L 768.004364 201.378583 
L 768.714545 200.444244 
L 769.424727 202.255058 
L 770.134909 196.422606 
L 770.845091 194.759783 
L 771.555273 192.033942 
L 772.265455 196.392523 
L 772.975636 201.587791 
L 773.685818 204.931007 
L 775.106182 197.791942 
L 775.816364 197.168879 
L 776.526545 203.932706 
L 777.236727 203.166786 
L 777.946909 204.550302 
L 778.657091 201.650556 
L 780.077455 202.169864 
L 780.787636 205.923921 
L 781.497818 206.558108 
L 782.208 204.748484 
L 782.918182 195.815364 
L 783.628364 191.846262 
L 784.338545 194.481997 
L 785.048727 189.606044 
L 785.758909 186.738509 
L 786.469091 187.135711 
L 787.179273 185.059207 
L 787.889455 181.311526 
L 788.599636 182.796393 
L 789.309818 180.33818 
L 790.02 179.973381 
L 790.730182 182.856276 
L 791.440364 181.549799 
L 792.150545 176.12937 
L 792.860727 173.46519 
L 793.570909 172.106087 
L 794.281091 173.326938 
L 794.991273 166.479718 
L 795.701455 165.584958 
L 796.411636 167.117063 
L 797.121818 173.3617 
L 797.832 171.743933 
L 798.542182 172.791595 
L 799.252364 171.867655 
L 799.962545 175.193778 
L 800.672727 176.403485 
L 801.382909 173.335524 
L 802.803273 172.174424 
L 803.513455 168.443464 
L 804.223636 168.982082 
L 804.933818 168.534465 
L 806.354182 163.655598 
L 807.064364 167.360494 
L 807.774545 165.67092 
L 808.484727 169.859369 
L 809.194909 172.359718 
L 809.905091 175.640345 
L 810.615273 174.808892 
L 811.325455 171.678409 
L 812.035636 165.321461 
L 812.745818 162.235068 
L 813.456 158.540127 
L 814.166182 158.779069 
L 814.876364 160.7197 
L 815.586545 168.033875 
L 816.296727 168.242897 
L 817.006909 168.26253 
L 817.717091 174.283439 
L 818.427273 175.977228 
L 819.137455 176.985458 
L 819.847636 180.053308 
L 820.557818 175.05472 
L 821.268 176.032101 
L 821.978182 173.665608 
L 822.688364 173.066468 
L 823.398545 171.39537 
L 824.818909 173.881666 
L 825.529091 172.552175 
L 826.239273 173.022104 
L 826.949455 168.690193 
L 827.659636 161.583295 
L 828.369818 165.059458 
L 829.08 165.61694 
L 829.790182 162.209759 
L 830.500364 161.166513 
L 831.210545 167.623014 
L 831.920727 168.392337 
L 832.630909 172.696734 
L 833.341091 168.369143 
L 834.051273 171.51574 
L 834.761455 168.004822 
L 835.471636 169.305251 
L 836.181818 169.545875 
L 836.892 172.36463 
L 837.602182 173.474173 
L 838.312364 169.855237 
L 839.022545 169.483948 
L 840.442909 169.67071 
L 841.153091 172.186655 
L 841.863273 169.006023 
L 842.573455 163.823652 
L 843.283636 164.85552 
L 843.993818 164.000606 
L 844.704 163.479344 
L 845.414182 164.662085 
L 846.124364 172.052632 
L 846.834545 167.889964 
L 847.544727 165.005726 
L 848.254909 164.676658 
L 848.965091 161.625044 
L 849.675273 166.140631 
L 850.385455 167.377314 
L 851.095636 164.416449 
L 851.805818 162.60134 
L 853.226182 157.274855 
L 853.936364 164.067446 
L 854.646545 168.698411 
L 855.356727 161.50776 
L 856.066909 163.526808 
L 856.777091 162.042192 
L 857.487273 162.786388 
L 858.197455 156.618762 
L 859.617818 159.920709 
L 860.328 157.670343 
L 861.038182 168.309365 
L 861.748364 169.844438 
L 863.168727 171.96066 
L 863.878909 173.660769 
L 864.589091 171.891118 
L 865.299273 172.852721 
L 866.009455 166.468125 
L 866.719636 163.945676 
L 867.429818 164.117192 
L 868.14 159.335996 
L 868.850182 155.974509 
L 869.560364 156.800164 
L 870.270545 153.095035 
L 870.980727 153.78641 
L 871.690909 152.158074 
L 871.690909 152.158074 
" clip-path="url(#p62ea8d56fb)" style="fill: none; stroke: #1f77b4; stroke-width: 1.5; stroke-linecap: square"/>
   </g>
   <g id="line2d_14">
    <path d="M 161.509091 115.686057 
L 162.219273 118.13778 
L 162.929455 113.49413 
L 163.639636 117.810187 
L 164.349818 110.554331 
L 165.06 117.431489 
L 165.770182 115.748896 
L 166.480364 121.406425 
L 167.190545 122.870352 
L 168.610909 130.640512 
L 169.321091 123.715724 
L 170.031273 124.692804 
L 170.741455 120.950363 
L 171.451636 120.368487 
L 172.161818 118.005885 
L 172.872 118.06463 
L 173.582182 112.753192 
L 174.292364 118.723521 
L 175.002545 119.567588 
L 175.712727 108.217313 
L 176.422909 117.911173 
L 177.133091 120.235633 
L 177.843273 124.573535 
L 178.553455 126.001024 
L 179.263636 126.41831 
L 179.973818 123.659793 
L 180.684 125.178994 
L 181.394182 123.649838 
L 182.104364 125.635034 
L 182.814545 124.504236 
L 183.524727 126.510673 
L 184.234909 126.445838 
L 184.945091 127.129873 
L 185.655273 127.402083 
L 186.365455 130.67632 
L 187.075636 140.377905 
L 187.785818 138.979629 
L 188.496 141.559949 
L 189.206182 140.450484 
L 189.916364 134.690178 
L 190.626545 139.789256 
L 191.336727 140.466519 
L 192.046909 129.824178 
L 192.757091 132.120318 
L 193.467273 130.589648 
L 194.177455 128.546698 
L 195.597818 114.886881 
L 196.308 114.721598 
L 197.018182 110.973909 
L 197.728364 113.043237 
L 198.438545 118.819275 
L 199.148727 120.921664 
L 199.858909 116.475416 
L 200.569091 128.561758 
L 201.279273 124.599817 
L 201.989455 117.870068 
L 202.699636 119.53488 
L 203.409818 111.355562 
L 204.12 114.702043 
L 204.830182 119.79408 
L 205.540364 116.099321 
L 206.250545 114.85295 
L 206.960727 108.199924 
L 207.670909 103.895224 
L 208.381091 102.191668 
L 209.091273 102.891942 
L 209.801455 102.072941 
L 210.511636 104.397312 
L 211.221818 109.384096 
L 211.932 119.692801 
L 212.642182 114.516172 
L 213.352364 117.496308 
L 214.062545 126.14432 
L 214.772727 118.216048 
L 216.193091 128.089078 
L 216.903273 130.431807 
L 217.613455 141.849248 
L 218.323636 140.580595 
L 219.033818 140.99627 
L 219.744 141.76177 
L 220.454182 144.55799 
L 221.164364 140.605773 
L 221.874545 147.27573 
L 222.584727 150.385843 
L 223.294909 150.177245 
L 224.005091 156.864606 
L 224.715273 156.017217 
L 225.425455 165.951199 
L 226.135636 163.160337 
L 226.845818 165.841858 
L 227.556 163.076861 
L 228.266182 162.79148 
L 228.976364 161.686645 
L 229.686545 155.761766 
L 230.396727 154.980386 
L 231.106909 154.961786 
L 231.817091 161.238389 
L 232.527273 154.923204 
L 233.237455 151.576596 
L 233.947636 157.70908 
L 234.657818 161.231963 
L 235.368 161.503341 
L 236.078182 153.443879 
L 236.788364 168.212857 
L 237.498545 168.32263 
L 238.208727 160.001711 
L 238.918909 155.061734 
L 239.629091 155.187444 
L 240.339273 151.356548 
L 241.049455 153.968421 
L 241.759636 154.775618 
L 242.469818 151.892267 
L 243.18 150.163063 
L 243.890182 157.17635 
L 244.600364 162.420028 
L 245.310545 162.34699 
L 246.020727 166.118009 
L 246.730909 164.692013 
L 248.151273 178.025149 
L 248.861455 171.900605 
L 249.571636 161.552113 
L 250.281818 164.995766 
L 250.992 165.217705 
L 251.702182 170.380114 
L 252.412364 170.182663 
L 253.122545 166.435203 
L 254.542909 166.857944 
L 255.963273 176.006817 
L 256.673455 175.749833 
L 257.383636 161.776445 
L 258.093818 162.365291 
L 258.804 161.118198 
L 259.514182 163.189658 
L 260.224364 164.536141 
L 260.934545 160.206904 
L 261.644727 158.005682 
L 262.354909 162.782396 
L 263.065091 153.957983 
L 263.775273 158.391841 
L 264.485455 161.490235 
L 265.195636 162.800763 
L 265.905818 169.81897 
L 266.616 166.797212 
L 267.326182 169.226899 
L 268.036364 178.041905 
L 268.746545 176.712779 
L 269.456727 173.332865 
L 270.166909 167.589874 
L 270.877091 157.027051 
L 271.587273 163.434309 
L 272.297455 158.965432 
L 273.007636 163.88662 
L 273.717818 170.720918 
L 274.428 165.067822 
L 275.138182 169.843303 
L 275.848364 172.481326 
L 276.558545 169.189727 
L 277.268727 175.32773 
L 277.978909 175.120734 
L 278.689091 175.239407 
L 279.399273 171.286489 
L 280.109455 170.981345 
L 280.819636 171.177879 
L 281.529818 175.526153 
L 282.24 165.841494 
L 282.950182 169.732695 
L 283.660364 163.31166 
L 284.370545 160.525277 
L 285.080727 164.439415 
L 285.790909 170.53428 
L 286.501091 168.333745 
L 287.211273 160.340794 
L 287.921455 165.106979 
L 288.631636 173.944021 
L 289.341818 173.941301 
L 290.052 178.11639 
L 290.762182 174.337341 
L 291.472364 176.702562 
L 292.182545 179.898735 
L 292.892727 185.111181 
L 293.602909 183.618326 
L 294.313091 187.61627 
L 295.023273 187.145728 
L 295.733455 188.42039 
L 297.153818 177.126517 
L 297.864 183.392166 
L 298.574182 185.387321 
L 299.284364 184.440907 
L 299.994545 180.487461 
L 300.704727 174.390459 
L 301.414909 173.819184 
L 302.125091 171.9448 
L 302.835273 174.491783 
L 303.545455 175.958057 
L 304.255636 178.027188 
L 304.965818 176.428553 
L 305.676 168.702757 
L 306.386182 172.009848 
L 307.096364 184.493989 
L 307.806545 181.384074 
L 308.516727 184.698339 
L 309.226909 186.27993 
L 309.937091 186.948785 
L 310.647273 189.753727 
L 311.357455 187.081427 
L 312.067636 187.620314 
L 312.777818 194.85079 
L 313.488 195.497988 
L 314.198182 198.351325 
L 314.908364 192.015606 
L 315.618545 197.59201 
L 316.328727 197.298705 
L 317.038909 196.644346 
L 317.749091 206.673658 
L 318.459273 208.841695 
L 319.169455 208.558745 
L 320.589818 206.844987 
L 321.3 210.760833 
L 322.720364 209.425105 
L 323.430545 215.576403 
L 324.140727 216.549716 
L 325.561091 226.147757 
L 326.271273 218.162927 
L 326.981455 216.068413 
L 327.691636 209.155892 
L 328.401818 203.440001 
L 329.112 205.557605 
L 329.822182 205.740142 
L 330.532364 208.28189 
L 331.242545 205.303704 
L 331.952727 201.482662 
L 332.662909 203.362752 
L 333.373091 208.014208 
L 334.083273 204.347264 
L 334.793455 207.56523 
L 335.503636 207.937523 
L 336.213818 207.886736 
L 336.924 205.203906 
L 337.634182 201.168789 
L 339.054545 215.617047 
L 339.764727 207.846356 
L 340.474909 216.479551 
L 341.185091 215.101774 
L 341.895273 217.767523 
L 342.605455 216.141154 
L 343.315636 206.035144 
L 344.025818 206.90262 
L 344.736 211.218921 
L 345.446182 211.13146 
L 346.156364 215.108136 
L 346.866545 211.464208 
L 347.576727 220.687798 
L 348.286909 223.788727 
L 348.997091 219.416539 
L 349.707273 216.255979 
L 350.417455 208.615233 
L 351.127636 206.411851 
L 351.837818 205.442261 
L 352.548 201.161435 
L 353.258182 200.4739 
L 353.968364 199.540072 
L 354.678545 210.235516 
L 356.098909 221.863054 
L 356.809091 212.909709 
L 357.519273 209.140185 
L 358.229455 207.182872 
L 358.939636 211.6713 
L 359.649818 211.532776 
L 360.36 208.315508 
L 361.070182 210.465182 
L 361.780364 206.878832 
L 362.490545 204.238527 
L 363.200727 208.137641 
L 363.910909 207.401327 
L 364.621091 214.186123 
L 366.041455 213.412075 
L 366.751636 213.757109 
L 367.461818 208.915852 
L 368.172 210.398111 
L 368.882182 203.235314 
L 369.592364 203.066574 
L 370.302545 199.26575 
L 371.012727 198.003551 
L 371.722909 204.341398 
L 372.433091 204.162529 
L 373.143273 199.34233 
L 373.853455 198.69138 
L 374.563636 208.793762 
L 375.273818 215.383228 
L 375.984 214.945442 
L 376.694182 204.587494 
L 377.404364 206.828715 
L 378.114545 204.483891 
L 378.824727 197.144637 
L 380.245091 205.966698 
L 380.955273 205.197925 
L 381.665455 206.946253 
L 382.375636 209.0088 
L 383.085818 200.060671 
L 383.796 202.233747 
L 384.506182 196.989571 
L 385.216364 192.870904 
L 385.926545 197.002166 
L 386.636727 205.746921 
L 387.346909 210.484353 
L 388.057091 214.144572 
L 388.767273 211.90789 
L 389.477455 213.868331 
L 390.187636 211.009126 
L 390.897818 215.818333 
L 391.608 221.874482 
L 392.318182 216.360913 
L 393.028364 223.65228 
L 393.738545 224.169781 
L 394.448727 220.739292 
L 395.158909 222.214324 
L 395.869091 213.319293 
L 396.579273 218.712368 
L 397.289455 222.56999 
L 397.999636 221.673552 
L 398.709818 211.414752 
L 399.42 212.728942 
L 400.130182 211.33244 
L 400.840364 216.690519 
L 401.550545 214.932678 
L 402.260727 214.090062 
L 402.970909 203.429609 
L 404.391273 207.767044 
L 405.101455 212.186712 
L 405.811636 204.83438 
L 406.521818 205.721571 
L 407.232 209.656859 
L 407.942182 212.643642 
L 408.652364 208.199886 
L 409.362545 211.285727 
L 410.072727 206.984851 
L 411.493091 202.295804 
L 412.203273 203.321315 
L 412.913455 203.586278 
L 413.623636 208.580544 
L 414.333818 201.203307 
L 415.044 208.900733 
L 415.754182 211.770126 
L 416.464364 218.173364 
L 417.174545 212.308573 
L 417.884727 212.078676 
L 418.594909 212.948711 
L 419.305091 215.889611 
L 420.015273 217.83107 
L 420.725455 214.981967 
L 421.435636 213.868599 
L 422.145818 215.963841 
L 423.566182 219.10602 
L 424.276364 218.03645 
L 424.986545 218.540544 
L 425.696727 213.58396 
L 426.406909 214.343839 
L 427.117091 215.531528 
L 427.827273 222.05681 
L 428.537455 220.38298 
L 429.247636 224.389177 
L 429.957818 222.281282 
L 430.668 222.167953 
L 431.378182 218.52936 
L 432.088364 217.587866 
L 432.798545 218.407621 
L 433.508727 218.510952 
L 434.218909 219.903179 
L 434.929091 220.50542 
L 435.639273 220.560639 
L 436.349455 220.215266 
L 437.059636 215.190974 
L 437.769818 223.258213 
L 438.48 226.42979 
L 439.190182 227.293652 
L 439.900364 236.234584 
L 440.610545 236.60646 
L 441.320727 239.210182 
L 442.030909 237.784005 
L 442.741091 249.311966 
L 443.451273 248.628611 
L 444.161455 244.338741 
L 444.871636 239.178926 
L 445.581818 238.004816 
L 446.292 237.769762 
L 447.002182 233.955843 
L 447.712364 230.876249 
L 448.422545 231.175402 
L 449.132727 233.467455 
L 449.842909 242.56613 
L 451.263273 232.707321 
L 451.973455 238.538272 
L 452.683636 231.158299 
L 453.393818 233.506285 
L 454.104 227.192825 
L 454.814182 227.524294 
L 455.524364 223.673054 
L 456.234545 217.715671 
L 456.944727 210.436224 
L 457.654909 212.373733 
L 458.365091 212.813952 
L 459.075273 219.893281 
L 459.785455 220.20246 
L 460.495636 220.233125 
L 461.205818 217.818507 
L 461.916 213.664922 
L 462.626182 221.764859 
L 463.336364 220.961207 
L 464.046545 219.609618 
L 464.756727 212.29093 
L 465.466909 208.213208 
L 466.177091 204.885794 
L 466.887273 205.220047 
L 467.597455 199.987419 
L 468.307636 208.49854 
L 469.017818 197.241124 
L 469.728 202.367519 
L 470.438182 199.524889 
L 471.148364 197.721831 
L 471.858545 201.713583 
L 473.278909 197.656848 
L 474.699273 199.822125 
L 475.409455 211.156277 
L 476.119636 216.289289 
L 477.54 220.15114 
L 478.960364 231.285544 
L 479.670545 225.042039 
L 480.380727 222.614515 
L 481.090909 225.160392 
L 481.801091 230.239787 
L 482.511273 225.202493 
L 483.221455 226.629968 
L 483.931636 225.500587 
L 484.641818 221.753602 
L 485.352 220.687935 
L 486.062182 227.760138 
L 486.772364 215.616227 
L 487.482545 218.020311 
L 488.192727 212.615047 
L 488.902909 209.610114 
L 489.613091 215.054476 
L 490.323273 211.003997 
L 491.033455 208.125511 
L 491.743636 202.404176 
L 492.453818 199.627808 
L 493.164 206.008284 
L 493.874182 203.250481 
L 494.584364 207.070284 
L 495.294545 206.670006 
L 496.004727 212.302368 
L 496.714909 206.709956 
L 497.425091 194.156573 
L 498.135273 194.40572 
L 498.845455 197.394737 
L 499.555636 197.326422 
L 500.265818 203.066114 
L 500.976 202.634142 
L 501.686182 204.779079 
L 502.396364 208.39447 
L 503.106545 207.014793 
L 503.816727 200.461132 
L 504.526909 195.974593 
L 505.237091 195.568889 
L 505.947273 203.863283 
L 506.657455 196.839069 
L 507.367636 203.634385 
L 508.077818 205.952047 
L 508.788 210.62687 
L 509.498182 204.296883 
L 510.208364 207.657226 
L 510.918545 207.326198 
L 512.338909 209.139412 
L 513.049091 216.052285 
L 513.759273 213.335803 
L 514.469455 217.706557 
L 515.179636 214.424421 
L 515.889818 223.870601 
L 516.6 223.031765 
L 517.310182 223.848554 
L 518.020364 223.363878 
L 518.730545 228.513701 
L 519.440727 228.018414 
L 520.150909 230.50855 
L 520.861091 230.003694 
L 521.571273 233.579741 
L 522.281455 233.73038 
L 523.701818 239.099316 
L 524.412 245.823385 
L 525.122182 244.070054 
L 525.832364 247.157576 
L 526.542545 238.412517 
L 527.252727 224.258763 
L 528.673091 228.872133 
L 529.383273 227.287227 
L 530.093455 235.928081 
L 530.803636 237.024914 
L 531.513818 241.093024 
L 532.224 239.526192 
L 532.934182 245.357193 
L 533.644364 245.04489 
L 534.354545 239.16786 
L 535.064727 235.406031 
L 536.485091 221.438101 
L 537.195273 219.727054 
L 537.905455 214.725899 
L 538.615636 212.64334 
L 539.325818 214.612649 
L 540.036 213.429765 
L 540.746182 213.962946 
L 541.456364 204.290653 
L 542.166545 202.024337 
L 542.876727 197.579535 
L 543.586909 195.493101 
L 544.297091 197.554827 
L 545.007273 180.853057 
L 545.717455 185.930294 
L 546.427636 188.607496 
L 547.137818 189.544385 
L 547.848 189.162193 
L 548.558182 183.54541 
L 549.268364 180.365968 
L 549.978545 189.194866 
L 550.688727 183.887185 
L 551.398909 182.929007 
L 552.109091 185.237698 
L 552.819273 186.570464 
L 553.529455 187.284886 
L 554.239636 190.182073 
L 554.949818 186.19168 
L 555.66 185.74801 
L 556.370182 182.029327 
L 557.080364 187.074777 
L 557.790545 180.811346 
L 558.500727 171.341097 
L 559.210909 170.255092 
L 560.631273 170.598316 
L 561.341455 163.713267 
L 562.051636 161.396435 
L 562.761818 174.991765 
L 563.472 180.535536 
L 564.182182 180.178604 
L 564.892364 181.925611 
L 565.602545 179.144001 
L 566.312727 178.171907 
L 567.022909 182.846412 
L 567.733091 182.25901 
L 568.443273 180.145583 
L 569.153455 176.130824 
L 569.863636 179.514223 
L 570.573818 175.387847 
L 571.284 179.056947 
L 571.994182 177.028679 
L 572.704364 179.299286 
L 573.414545 177.478675 
L 574.124727 185.146013 
L 575.545091 171.622846 
L 576.255273 173.098102 
L 576.965455 172.678701 
L 577.675636 172.590046 
L 578.385818 180.461689 
L 579.096 186.930954 
L 579.806182 184.968838 
L 580.516364 186.883082 
L 581.226545 194.230999 
L 581.936727 187.788963 
L 582.646909 188.210583 
L 583.357091 188.373265 
L 584.067273 191.93943 
L 584.777455 186.562286 
L 585.487636 191.146938 
L 586.197818 190.744492 
L 586.908 184.254956 
L 587.618182 192.683862 
L 588.328364 194.731094 
L 589.038545 194.119665 
L 589.748727 194.231737 
L 590.458909 184.931899 
L 591.169091 179.924208 
L 591.879273 179.758947 
L 592.589455 172.31717 
L 593.299636 181.344982 
L 594.009818 184.427996 
L 594.72 183.026265 
L 595.430182 176.354065 
L 596.140364 176.668839 
L 596.850545 172.415456 
L 597.560727 171.46192 
L 598.270909 175.032998 
L 598.981091 175.493002 
L 599.691273 176.215723 
L 600.401455 173.575979 
L 601.111636 179.235071 
L 601.821818 183.665321 
L 602.532 194.940421 
L 603.242182 188.739676 
L 603.952364 184.402893 
L 604.662545 189.109208 
L 605.372727 194.881639 
L 606.082909 190.919812 
L 606.793091 198.203822 
L 607.503273 203.395506 
L 608.213455 204.572529 
L 608.923636 198.310453 
L 609.633818 197.890539 
L 610.344 193.212603 
L 611.054182 197.630892 
L 611.764364 193.04464 
L 612.474545 183.11926 
L 613.184727 182.851241 
L 613.894909 190.255859 
L 614.605091 195.592485 
L 615.315273 203.50314 
L 616.025455 208.427222 
L 616.735636 208.316627 
L 617.445818 200.493414 
L 618.156 196.896797 
L 618.866182 197.060913 
L 619.576364 200.243717 
L 620.286545 199.504514 
L 620.996727 202.534277 
L 621.706909 201.174667 
L 622.417091 205.075644 
L 623.127273 205.819671 
L 623.837455 205.394489 
L 624.547636 202.543244 
L 625.257818 197.34376 
L 625.968 198.549932 
L 626.678182 197.710415 
L 627.388364 199.822794 
L 628.098545 200.135581 
L 628.808727 197.942739 
L 629.518909 194.965289 
L 630.229091 195.931254 
L 630.939273 204.080567 
L 631.649455 201.911341 
L 632.359636 204.321947 
L 633.069818 208.814282 
L 633.78 215.484359 
L 634.490182 212.948365 
L 635.200364 215.449766 
L 635.910545 216.7146 
L 636.620727 212.589746 
L 637.330909 210.395322 
L 638.041091 205.921857 
L 638.751273 206.248107 
L 639.461455 206.928052 
L 640.171636 218.600981 
L 640.881818 225.790651 
L 641.592 222.704023 
L 642.302182 215.896017 
L 643.012364 213.723275 
L 643.722545 213.48165 
L 644.432727 205.405285 
L 645.142909 213.298455 
L 645.853091 216.623284 
L 646.563273 217.723776 
L 647.273455 217.320607 
L 647.983636 224.590596 
L 648.693818 234.523618 
L 649.404 233.380477 
L 650.114182 240.365267 
L 650.824364 239.233822 
L 651.534545 243.471809 
L 652.244727 246.151449 
L 652.954909 244.101211 
L 653.665091 246.096734 
L 654.375273 246.813753 
L 655.795636 256.806459 
L 656.505818 261.619099 
L 657.216 267.598617 
L 657.926182 271.598648 
L 658.636364 271.960196 
L 659.346545 272.639734 
L 660.056727 277.319053 
L 660.766909 285.547436 
L 661.477091 281.140832 
L 662.187273 280.633836 
L 663.607636 271.022059 
L 664.317818 269.291661 
L 665.028 270.476737 
L 665.738182 265.249054 
L 666.448364 267.63536 
L 667.158545 264.196059 
L 667.868727 273.032134 
L 668.578909 264.67513 
L 669.289091 260.695754 
L 669.999273 263.315473 
L 670.709455 267.631641 
L 671.419636 270.280079 
L 672.129818 271.970041 
L 672.84 272.949037 
L 673.550182 273.467884 
L 674.260364 270.961666 
L 674.970545 274.627103 
L 675.680727 276.886647 
L 676.390909 281.496149 
L 677.101091 273.243452 
L 677.811273 278.234995 
L 678.521455 273.615077 
L 679.231636 273.389867 
L 679.941818 273.584659 
L 680.652 270.021382 
L 681.362182 268.656523 
L 682.072364 268.778253 
L 682.782545 264.314736 
L 684.202909 281.092211 
L 684.913091 292.875127 
L 685.623273 292.980572 
L 686.333455 298.351284 
L 687.043636 295.628199 
L 688.464 294.389619 
L 689.174182 299.925445 
L 689.884364 293.086583 
L 690.594545 290.780969 
L 691.304727 293.969909 
L 692.014909 289.333089 
L 692.725091 280.56038 
L 693.435273 294.205765 
L 694.145455 293.187232 
L 694.855636 295.579842 
L 695.565818 289.56616 
L 696.276 285.540154 
L 696.986182 282.221535 
L 697.696364 285.02672 
L 698.406545 284.537343 
L 699.116727 282.337825 
L 699.826909 271.554063 
L 700.537091 276.21577 
L 701.247273 276.7364 
L 701.957455 276.567086 
L 702.667636 273.553186 
L 703.377818 273.7632 
L 704.798182 280.323723 
L 705.508364 277.350224 
L 706.218545 287.657116 
L 708.349091 281.280521 
L 709.059273 281.55415 
L 709.769455 292.437835 
L 710.479636 290.933203 
L 711.9 294.80155 
L 712.610182 289.893323 
L 713.320364 288.062043 
L 714.030545 295.502906 
L 714.740727 289.974159 
L 715.450909 286.781229 
L 716.161091 291.291691 
L 716.871273 291.988426 
L 717.581455 293.670655 
L 718.291636 299.684473 
L 719.001818 298.512024 
L 719.712 290.255272 
L 720.422182 294.29641 
L 721.132364 296.111863 
L 721.842545 307.818953 
L 722.552727 309.919186 
L 723.262909 313.618995 
L 723.973091 316.565967 
L 725.393455 339.041282 
L 726.103636 337.710422 
L 726.813818 334.12947 
L 728.944364 340.699172 
L 729.654545 345.982085 
L 730.364727 342.368576 
L 731.074909 339.479349 
L 731.785091 340.458117 
L 732.495273 340.27278 
L 733.205455 345.202604 
L 733.915636 351.452574 
L 734.625818 342.898906 
L 735.336 339.129706 
L 736.046182 342.533568 
L 736.756364 344.690764 
L 737.466545 344.948198 
L 738.886909 340.101018 
L 740.307273 326.840873 
L 741.017455 325.893646 
L 741.727636 327.87863 
L 742.437818 325.307521 
L 743.148 331.619196 
L 745.278545 310.533887 
L 745.988727 317.19589 
L 746.698909 315.333893 
L 747.409091 320.945447 
L 748.119273 322.130394 
L 748.829455 329.475552 
L 749.539636 329.989374 
L 750.249818 339.370135 
L 750.96 329.013235 
L 751.670182 325.215158 
L 752.380364 323.036693 
L 753.090545 323.418843 
L 753.800727 318.445766 
L 754.510909 322.866375 
L 755.931273 309.698634 
L 756.641455 316.699564 
L 757.351636 322.339619 
L 758.061818 322.970566 
L 758.772 318.547414 
L 759.482182 316.676088 
L 760.192364 316.196626 
L 760.902545 317.615424 
L 761.612727 316.067694 
L 762.322909 318.7439 
L 763.033091 318.617219 
L 763.743273 316.029123 
L 764.453455 318.219153 
L 765.163636 325.825644 
L 765.873818 327.255546 
L 766.584 334.785118 
L 767.294182 333.07258 
L 768.004364 331.663753 
L 768.714545 332.254313 
L 769.424727 335.103497 
L 770.134909 328.974329 
L 771.555273 312.993838 
L 772.265455 312.062445 
L 772.975636 322.162975 
L 773.685818 327.979276 
L 774.396 325.892468 
L 775.106182 326.833224 
L 775.816364 331.453799 
L 776.526545 338.133912 
L 777.236727 339.049325 
L 777.946909 336.298362 
L 778.657091 326.077944 
L 779.367273 328.099808 
L 780.077455 328.995775 
L 780.787636 334.32983 
L 781.497818 336.476454 
L 782.208 332.380031 
L 782.918182 327.312527 
L 783.628364 323.327821 
L 784.338545 322.431967 
L 785.048727 315.703534 
L 785.758909 310.847368 
L 786.469091 306.999478 
L 787.179273 303.871735 
L 787.889455 299.259167 
L 789.309818 302.833127 
L 790.02 302.266869 
L 790.730182 306.811122 
L 791.440364 304.76067 
L 792.150545 297.577664 
L 792.860727 294.225711 
L 793.570909 296.932939 
L 794.281091 301.251229 
L 794.991273 288.597424 
L 796.411636 296.74275 
L 797.121818 303.717168 
L 797.832 300.718635 
L 798.542182 302.728529 
L 799.252364 301.178673 
L 799.962545 306.154503 
L 800.672727 306.755893 
L 801.382909 306.372422 
L 802.093091 306.721959 
L 802.803273 310.58078 
L 803.513455 302.012393 
L 804.223636 304.571249 
L 804.933818 301.967843 
L 805.644 304.363023 
L 806.354182 302.380165 
L 807.064364 306.144178 
L 807.774545 307.874015 
L 808.484727 311.732858 
L 809.194909 319.95191 
L 809.905091 325.748094 
L 810.615273 325.851148 
L 811.325455 318.286738 
L 812.035636 319.977385 
L 812.745818 316.469694 
L 813.456 316.734026 
L 814.166182 314.141896 
L 814.876364 312.011087 
L 815.586545 324.674779 
L 816.296727 316.476377 
L 817.006909 313.272254 
L 817.717091 320.499105 
L 818.427273 320.080527 
L 819.137455 323.161112 
L 819.847636 328.657762 
L 820.557818 324.907625 
L 821.268 326.668955 
L 821.978182 321.228006 
L 822.688364 318.306689 
L 824.108727 310.084845 
L 824.818909 318.994052 
L 825.529091 320.520413 
L 826.239273 325.411119 
L 826.949455 323.555462 
L 827.659636 317.758279 
L 829.08 323.703142 
L 829.790182 321.762174 
L 830.500364 319.198882 
L 831.920727 334.421839 
L 832.630909 339.925379 
L 833.341091 340.747877 
L 834.051273 343.802238 
L 834.761455 342.189932 
L 836.181818 343.862446 
L 836.892 342.23689 
L 837.602182 342.617159 
L 838.312364 339.413997 
L 839.022545 338.716091 
L 839.732727 344.179792 
L 841.153091 350.585327 
L 841.863273 340.401727 
L 842.573455 327.800444 
L 843.283636 331.703443 
L 843.993818 332.056504 
L 844.704 332.853982 
L 845.414182 339.615747 
L 846.124364 349.453847 
L 846.834545 347.697365 
L 847.544727 343.957719 
L 848.254909 343.804753 
L 848.965091 342.275146 
L 849.675273 346.187297 
L 850.385455 349.270717 
L 851.095636 348.360296 
L 851.805818 349.222838 
L 852.516 348.813007 
L 853.226182 343.639547 
L 853.936364 345.727556 
L 854.646545 349.040811 
L 855.356727 339.199393 
L 856.066909 346.14881 
L 856.777091 342.606139 
L 857.487273 346.898299 
L 858.197455 344.650252 
L 858.907636 349.026395 
L 859.617818 354.925306 
L 860.328 352.894426 
L 861.038182 364.026156 
L 861.748364 365.584178 
L 862.458545 368.920891 
L 863.168727 369.36 
L 863.878909 366.482203 
L 864.589091 362.386949 
L 865.299273 366.530201 
L 866.009455 358.818656 
L 866.719636 358.22433 
L 867.429818 353.568136 
L 868.14 351.342673 
L 868.850182 350.578346 
L 869.560364 349.160795 
L 870.270545 348.627171 
L 870.980727 349.672045 
L 871.690909 349.912899 
L 871.690909 349.912899 
" clip-path="url(#p62ea8d56fb)" style="fill: none; stroke: #ff7f0e; stroke-width: 1.5; stroke-linecap: square"/>
   </g>
   <g id="line2d_15">
    <path d="M 162.219273 171.674502 
L 162.929455 171.460748 
L 163.639636 171.484705 
L 164.349818 171.268562 
L 165.06 170.920146 
L 167.190545 170.928971 
L 168.610909 170.750185 
L 169.321091 170.353579 
L 170.741455 170.425342 
L 173.582182 170.379056 
L 174.292364 170.00778 
L 175.002545 169.996113 
L 175.712727 169.737885 
L 176.422909 169.233913 
L 177.843273 168.943207 
L 186.365455 168.802679 
L 187.075636 168.223562 
L 189.206182 168.124947 
L 189.916364 167.912784 
L 191.336727 167.99398 
L 192.046909 167.230624 
L 193.467273 167.198036 
L 194.887636 166.924519 
L 195.597818 166.632618 
L 196.308 166.634669 
L 197.018182 166.476597 
L 197.728364 166.437863 
L 198.438545 166.090438 
L 199.148727 166.070119 
L 199.858909 165.922016 
L 200.569091 164.920248 
L 201.279273 164.858068 
L 201.989455 164.447842 
L 202.699636 164.440664 
L 203.409818 164.077833 
L 204.12 163.897201 
L 206.250545 163.802673 
L 206.960727 163.456408 
L 207.670909 163.289071 
L 210.511636 163.222108 
L 211.221818 163.083551 
L 211.932 162.694357 
L 212.642182 162.536701 
L 213.352364 162.493217 
L 214.772727 161.925653 
L 215.482909 162.005897 
L 216.193091 161.703316 
L 216.903273 161.639028 
L 217.613455 161.430256 
L 221.874545 161.348249 
L 224.005091 161.157916 
L 224.715273 161.136114 
L 225.425455 160.468244 
L 226.845818 160.494461 
L 228.266182 160.422015 
L 228.976364 160.453431 
L 230.396727 160.34603 
L 231.106909 160.346132 
L 231.817091 159.998174 
L 233.237455 159.77432 
L 233.947636 159.574251 
L 235.368 159.513134 
L 236.788364 158.644009 
L 237.498545 158.640697 
L 238.208727 158.124055 
L 240.339273 157.95623 
L 243.18 157.886438 
L 243.890182 157.701654 
L 245.310545 157.667196 
L 246.730909 157.7154 
L 247.441091 157.443001 
L 248.151273 157.025725 
L 248.861455 157.03551 
L 249.571636 156.489142 
L 250.992 156.422349 
L 253.122545 156.34448 
L 254.542909 156.342875 
L 255.253091 156.196413 
L 255.963273 156.311709 
L 256.673455 156.313122 
L 257.383636 155.212593 
L 260.224364 155.208287 
L 262.354909 154.95353 
L 263.065091 154.586844 
L 263.775273 154.559059 
L 264.485455 154.418555 
L 265.195636 154.401536 
L 265.905818 154.22637 
L 267.326182 154.235059 
L 268.036364 153.841717 
L 269.456727 153.732101 
L 270.166909 153.580352 
L 270.877091 152.934915 
L 272.297455 152.790856 
L 273.007636 152.816072 
L 275.138182 152.205101 
L 276.558545 152.192114 
L 277.978909 152.091326 
L 278.689091 152.091948 
L 279.399273 151.886942 
L 281.529818 151.835256 
L 282.24 151.444908 
L 285.080727 151.383731 
L 285.790909 151.150494 
L 287.921455 150.969769 
L 288.631636 150.519837 
L 292.892727 150.434071 
L 295.733455 150.330056 
L 296.443636 150.058979 
L 299.994545 149.902535 
L 300.704727 149.653274 
L 304.965818 149.56029 
L 306.386182 149.24471 
L 307.096364 148.249569 
L 309.937091 148.156834 
L 312.067636 148.19066 
L 312.777818 147.634402 
L 314.198182 147.740161 
L 314.908364 147.390033 
L 315.618545 147.267894 
L 317.038909 147.265097 
L 317.749091 146.786215 
L 320.589818 146.815933 
L 322.010182 146.843635 
L 324.140727 146.790351 
L 328.401818 145.922749 
L 329.822182 145.889249 
L 331.242545 145.900478 
L 333.373091 145.913203 
L 334.083273 145.677151 
L 335.503636 145.58897 
L 336.924 145.553663 
L 337.634182 145.451741 
L 338.344364 144.872873 
L 339.764727 144.326756 
L 340.474909 143.618296 
L 341.895273 143.531467 
L 342.605455 143.482441 
L 343.315636 142.84525 
L 344.025818 142.814999 
L 344.736 142.627059 
L 346.156364 142.560855 
L 348.997091 142.015595 
L 349.707273 142.062107 
L 350.417455 141.703281 
L 352.548 141.56567 
L 353.968364 141.599471 
L 354.678545 141.147671 
L 357.519273 140.104782 
L 358.229455 140.105627 
L 358.939636 139.916848 
L 361.070182 139.844099 
L 361.780364 139.714463 
L 368.172 139.570757 
L 368.882182 139.220207 
L 371.722909 139.112295 
L 372.433091 139.109727 
L 373.853455 138.973318 
L 375.273818 138.160444 
L 375.984 138.171256 
L 376.694182 137.761826 
L 382.375636 137.078413 
L 383.085818 136.681135 
L 383.796 136.717649 
L 384.506182 136.378609 
L 385.216364 136.177633 
L 385.926545 136.177567 
L 387.346909 135.824478 
L 388.057091 135.894785 
L 390.187636 135.776092 
L 391.608 135.688702 
L 393.028364 135.029326 
L 395.158909 135.005728 
L 397.289455 134.674946 
L 400.130182 134.609233 
L 400.840364 134.469945 
L 402.260727 134.443398 
L 402.970909 134.088929 
L 404.391273 134.029101 
L 406.521818 134.230041 
L 408.652364 134.141332 
L 409.362545 134.263159 
L 410.782909 134.16314 
L 412.203273 134.185868 
L 413.623636 134.221001 
L 414.333818 133.818536 
L 415.044 133.568171 
L 416.464364 133.374569 
L 417.174545 133.106895 
L 418.594909 133.125181 
L 419.305091 132.902596 
L 424.276364 132.607208 
L 427.117091 132.624502 
L 427.827273 132.450728 
L 429.247636 132.471368 
L 434.929091 132.474136 
L 437.059636 132.469165 
L 437.769818 132.097486 
L 439.190182 132.164873 
L 439.900364 131.545721 
L 442.030909 131.45237 
L 442.741091 130.609136 
L 444.161455 130.582613 
L 444.871636 130.326397 
L 450.553091 129.765746 
L 451.263273 129.516016 
L 451.973455 129.600229 
L 456.234545 129.099254 
L 456.944727 128.5949 
L 458.365091 128.580902 
L 459.075273 128.143898 
L 461.916 128.029469 
L 462.626182 127.476168 
L 467.597455 127.288177 
L 469.017818 126.534598 
L 469.728 126.42456 
L 471.148364 126.48831 
L 473.989091 126.308752 
L 474.699273 126.341743 
L 476.829818 125.792141 
L 478.960364 125.71909 
L 481.090909 125.466062 
L 483.931636 125.653134 
L 486.062182 125.343653 
L 487.482545 125.045028 
L 488.902909 124.946078 
L 489.613091 124.766841 
L 491.033455 124.821435 
L 491.743636 124.519933 
L 492.453818 124.467612 
L 493.164 124.118375 
L 495.294545 124.088404 
L 496.004727 123.816135 
L 496.714909 123.8252 
L 497.425091 123.432049 
L 499.555636 123.382949 
L 500.976 123.296902 
L 503.106545 123.361428 
L 503.816727 123.013528 
L 504.526909 123.130799 
L 505.237091 123.135413 
L 507.367636 122.530092 
L 508.077818 122.484595 
L 508.788 122.3148 
L 509.498182 121.983969 
L 512.338909 122.017279 
L 513.049091 121.78187 
L 515.179636 121.419093 
L 515.889818 120.912777 
L 518.020364 120.924466 
L 518.730545 120.641277 
L 520.861091 120.609959 
L 521.571273 120.427876 
L 525.122182 120.35915 
L 525.832364 120.278416 
L 526.542545 119.613155 
L 527.252727 118.494468 
L 527.962909 118.344156 
L 529.383273 118.425152 
L 530.093455 118.049452 
L 530.803636 118.050895 
L 531.513818 117.891816 
L 533.644364 117.90524 
L 534.354545 117.661811 
L 537.195273 117.273806 
L 537.905455 117.039452 
L 540.746182 117.030699 
L 541.456364 116.511787 
L 544.297091 116.536664 
L 545.007273 115.092679 
L 546.427636 114.856659 
L 547.848 114.864319 
L 551.398909 114.356884 
L 555.66 114.501641 
L 556.370182 114.469182 
L 558.500727 113.810723 
L 560.631273 113.80572 
L 562.051636 113.742564 
L 562.761818 112.563358 
L 563.472 112.398284 
L 566.312727 112.430731 
L 567.022909 112.210037 
L 567.733091 112.200176 
L 568.443273 112.310276 
L 571.284 111.835067 
L 573.414545 111.773567 
L 576.255273 111.106719 
L 577.675636 111.125485 
L 579.096 110.432413 
L 579.806182 110.49325 
L 581.226545 110.435297 
L 581.936727 110.137892 
L 583.357091 110.130285 
L 584.067273 110.249358 
L 586.197818 109.929833 
L 587.618182 109.186232 
L 590.458909 109.060076 
L 591.169091 108.806374 
L 591.879273 108.806275 
L 592.589455 108.546491 
L 593.299636 108.144762 
L 594.009818 107.912527 
L 599.691273 107.674334 
L 601.111636 107.613087 
L 601.821818 107.422379 
L 602.532 106.85936 
L 604.662545 106.706946 
L 605.372727 106.740507 
L 606.082909 106.906785 
L 606.793091 106.748715 
L 607.503273 106.401446 
L 608.213455 106.416656 
L 608.923636 105.872417 
L 609.633818 105.872823 
L 610.344 105.485441 
L 611.054182 105.697173 
L 611.764364 105.73008 
L 612.474545 105.047378 
L 613.184727 105.048972 
L 614.605091 104.716016 
L 615.315273 104.175897 
L 616.735636 104.152791 
L 617.445818 103.802224 
L 618.866182 103.73334 
L 620.286545 103.73209 
L 620.996727 103.579867 
L 624.547636 103.579354 
L 625.257818 103.184235 
L 628.808727 103.129023 
L 630.229091 103.182152 
L 630.939273 102.865335 
L 633.069818 102.839085 
L 633.78 102.513384 
L 639.461455 102.351153 
L 640.171636 101.886397 
L 640.881818 101.594417 
L 641.592 101.486221 
L 644.432727 101.636354 
L 645.142909 101.250749 
L 647.983636 101.022742 
L 648.693818 100.700431 
L 649.404 100.745518 
L 650.114182 100.225887 
L 651.534545 100.198207 
L 654.375273 100.064459 
L 656.505818 100.195156 
L 657.216 99.860359 
L 657.926182 99.709127 
L 659.346545 99.671752 
L 662.897455 98.657694 
L 666.448364 98.775252 
L 667.868727 98.371142 
L 668.578909 97.933246 
L 670.709455 97.933283 
L 672.84 97.773388 
L 673.550182 97.775266 
L 677.101091 97.126493 
L 677.811273 97.104791 
L 678.521455 96.848929 
L 679.941818 96.841043 
L 680.652 96.635527 
L 683.492727 96.445154 
L 684.202909 96.194918 
L 684.913091 95.723712 
L 688.464 95.785661 
L 689.884364 95.425642 
L 692.014909 95.147092 
L 692.725091 94.482622 
L 693.435273 94.289316 
L 694.855636 94.218722 
L 697.696364 93.858319 
L 699.116727 93.803558 
L 699.826909 93.421464 
L 700.537091 93.251663 
L 704.088 93.241635 
L 705.508364 93.015915 
L 706.218545 92.306554 
L 707.638909 92.318119 
L 709.059273 92.243785 
L 709.769455 91.56149 
L 713.320364 91.512466 
L 714.030545 90.987777 
L 715.450909 90.73329 
L 716.161091 90.513331 
L 717.581455 90.546959 
L 718.291636 90.329708 
L 719.001818 90.316829 
L 719.712 90.107087 
L 723.973091 89.720322 
L 725.393455 89.184392 
L 728.944364 89.00837 
L 729.654545 88.769986 
L 732.495273 88.678399 
L 733.205455 88.527596 
L 733.915636 88.538823 
L 734.625818 88.249333 
L 738.176727 88.1001 
L 738.886909 88.149967 
L 739.597091 87.913995 
L 740.307273 87.349496 
L 742.437818 87.431882 
L 743.148 87.244005 
L 743.858182 86.89039 
L 744.568364 86.950525 
L 745.278545 86.292004 
L 745.988727 86.181616 
L 746.698909 86.202287 
L 747.409091 86.029206 
L 748.119273 86.014145 
L 748.829455 85.480097 
L 749.539636 85.467955 
L 750.96 84.448333 
L 751.670182 84.254594 
L 753.090545 84.235221 
L 755.221091 83.621974 
L 756.641455 83.048634 
L 760.192364 82.723212 
L 764.453455 82.67622 
L 765.163636 82.309499 
L 765.873818 82.26611 
L 766.584 82.074212 
L 768.714545 82.045408 
L 769.424727 81.999349 
L 770.134909 81.680214 
L 772.265455 81.400769 
L 772.975636 80.932308 
L 774.396 80.695098 
L 775.816364 80.752078 
L 776.526545 80.348713 
L 777.946909 80.38895 
L 778.657091 80.124374 
L 780.077455 80.117791 
L 780.787636 79.939027 
L 782.208 79.860695 
L 782.918182 79.456567 
L 783.628364 79.315375 
L 784.338545 79.336455 
L 785.048727 79.043571 
L 785.758909 78.919256 
L 787.179273 78.874919 
L 787.889455 78.720598 
L 791.440364 78.587789 
L 792.150545 78.240204 
L 792.860727 78.160481 
L 794.281091 78.146264 
L 794.991273 77.372769 
L 796.411636 77.352667 
L 797.121818 76.963858 
L 802.093091 76.726177 
L 802.803273 76.744608 
L 803.513455 76.459216 
L 807.774545 76.349951 
L 811.325455 75.641811 
L 812.035636 75.737756 
L 813.456 75.649827 
L 814.876364 75.692271 
L 815.586545 74.865382 
L 817.006909 74.881242 
L 817.717091 74.492794 
L 819.137455 74.471396 
L 820.557818 74.153509 
L 822.688364 74.007567 
L 824.818909 73.895215 
L 826.239273 73.892813 
L 826.949455 73.82105 
L 827.659636 73.453245 
L 829.08 73.33978 
L 830.500364 73.256869 
L 831.210545 72.814395 
L 831.920727 72.762566 
L 832.630909 72.551083 
L 833.341091 72.582859 
L 835.471636 72.437367 
L 840.442909 72.360062 
L 841.153091 72.292482 
L 841.863273 72.003323 
L 842.573455 71.420328 
L 845.414182 71.319384 
L 846.124364 70.670287 
L 851.095636 70.25079 
L 852.516 70.255747 
L 854.646545 69.860007 
L 855.356727 69.228254 
L 856.777091 69.056039 
L 858.197455 68.903745 
L 860.328 68.711004 
L 861.038182 67.653734 
L 865.299273 67.53737 
L 866.009455 67.097832 
L 871.690909 66.963501 
L 871.690909 66.963501 
" clip-path="url(#p62ea8d56fb)" style="fill: none; stroke: #2ca02c; stroke-width: 1.5; stroke-linecap: square"/>
   </g>
   <g id="patch_3">
    <path d="M 126 384.48 
L 126 51.84 
" style="fill: none; stroke: #000000; stroke-width: 0.8; stroke-linejoin: miter; stroke-linecap: square"/>
   </g>
   <g id="patch_4">
    <path d="M 907.2 384.48 
L 907.2 51.84 
" style="fill: none; stroke: #000000; stroke-width: 0.8; stroke-linejoin: miter; stroke-linecap: square"/>
   </g>
   <g id="patch_5">
    <path d="M 126 384.48 
L 907.2 384.48 
" style="fill: none; stroke: #000000; stroke-width: 0.8; stroke-linejoin: miter; stroke-linecap: square"/>
   </g>
   <g id="patch_6">
    <path d="M 126 51.84 
L 907.2 51.84 
" style="fill: none; stroke: #000000; stroke-width: 0.8; stroke-linejoin: miter; stroke-linecap: square"/>
   </g>
   <g id="text_15">
    <!-- Quadratic Covariation of $X_t$ and $S_t$ -->
    <g transform="translate(414.54 45.84)scale(0.12 -0.12)">
     <defs>
      <path id="DejaVuSans-66" d="M 2375 4863 
L 2375 4384 
L 1825 4384 
Q 1516 4384 1395 4259 
Q 1275 4134 1275 3809 
L 1275 3500 
L 2222 3500 
L 2222 3053 
L 1275 3053 
L 1275 0 
L 697 0 
L 697 3053 
L 147 3053 
L 147 3500 
L 697 3500 
L 697 3744 
Q 697 4328 969 4595 
Q 1241 4863 1831 4863 
L 2375 4863 
z
" transform="scale(0.015625)"/>
      <path id="DejaVuSans-Oblique-58" d="M 878 4666 
L 1516 4666 
L 2316 2981 
L 3763 4666 
L 4500 4666 
L 2578 2438 
L 3738 0 
L 3103 0 
L 2163 1966 
L 459 0 
L -275 0 
L 1906 2509 
L 878 4666 
z
" transform="scale(0.015625)"/>
      <path id="DejaVuSans-Oblique-74" d="M 2706 3500 
L 2619 3053 
L 1472 3053 
L 1100 1153 
Q 1081 1047 1072 975 
Q 1063 903 1063 863 
Q 1063 663 1183 572 
Q 1303 481 1569 481 
L 2150 481 
L 2053 0 
L 1503 0 
Q 991 0 739 200 
Q 488 400 488 806 
Q 488 878 497 964 
Q 506 1050 525 1153 
L 897 3053 
L 409 3053 
L 500 3500 
L 978 3500 
L 1172 4494 
L 1747 4494 
L 1556 3500 
L 2706 3500 
z
" transform="scale(0.015625)"/>
      <path id="DejaVuSans-Oblique-53" d="M 3859 4513 
L 3738 3897 
Q 3422 4066 3111 4152 
Q 2800 4238 2509 4238 
Q 1944 4238 1609 3991 
Q 1275 3744 1275 3334 
Q 1275 3109 1398 2989 
Q 1522 2869 2034 2731 
L 2413 2638 
Q 3053 2472 3303 2217 
Q 3553 1963 3553 1503 
Q 3553 797 2998 353 
Q 2444 -91 1538 -91 
Q 1166 -91 791 -17 
Q 416 56 38 206 
L 166 856 
Q 513 641 861 531 
Q 1209 422 1556 422 
Q 2147 422 2503 684 
Q 2859 947 2859 1369 
Q 2859 1650 2717 1795 
Q 2575 1941 2106 2059 
L 1728 2156 
Q 1081 2325 845 2545 
Q 609 2766 609 3163 
Q 609 3859 1145 4304 
Q 1681 4750 2541 4750 
Q 2875 4750 3203 4690 
Q 3531 4631 3859 4513 
z
" transform="scale(0.015625)"/>
     </defs>
     <use xlink:href="#DejaVuSans-51" transform="translate(0 0.015625)"/>
     <use xlink:href="#DejaVuSans-75" transform="translate(78.710938 0.015625)"/>
     <use xlink:href="#DejaVuSans-61" transform="translate(142.089844 0.015625)"/>
     <use xlink:href="#DejaVuSans-64" transform="translate(203.369141 0.015625)"/>
     <use xlink:href="#DejaVuSans-72" transform="translate(266.845703 0.015625)"/>
     <use xlink:href="#DejaVuSans-61" transform="translate(307.958984 0.015625)"/>
     <use xlink:href="#DejaVuSans-74" transform="translate(369.238281 0.015625)"/>
     <use xlink:href="#DejaVuSans-69" transform="translate(408.447266 0.015625)"/>
     <use xlink:href="#DejaVuSans-63" transform="translate(436.230469 0.015625)"/>
     <use xlink:href="#DejaVuSans-20" transform="translate(491.210938 0.015625)"/>
     <use xlink:href="#DejaVuSans-43" transform="translate(522.998047 0.015625)"/>
     <use xlink:href="#DejaVuSans-6f" transform="translate(592.822266 0.015625)"/>
     <use xlink:href="#DejaVuSans-76" transform="translate(654.003906 0.015625)"/>
     <use xlink:href="#DejaVuSans-61" transform="translate(713.183594 0.015625)"/>
     <use xlink:href="#DejaVuSans-72" transform="translate(774.462891 0.015625)"/>
     <use xlink:href="#DejaVuSans-69" transform="translate(815.576172 0.015625)"/>
     <use xlink:href="#DejaVuSans-61" transform="translate(843.359375 0.015625)"/>
     <use xlink:href="#DejaVuSans-74" transform="translate(904.638672 0.015625)"/>
     <use xlink:href="#DejaVuSans-69" transform="translate(943.847656 0.015625)"/>
     <use xlink:href="#DejaVuSans-6f" transform="translate(971.630859 0.015625)"/>
     <use xlink:href="#DejaVuSans-6e" transform="translate(1032.8125 0.015625)"/>
     <use xlink:href="#DejaVuSans-20" transform="translate(1096.191406 0.015625)"/>
     <use xlink:href="#DejaVuSans-6f" transform="translate(1127.978516 0.015625)"/>
     <use xlink:href="#DejaVuSans-66" transform="translate(1189.160156 0.015625)"/>
     <use xlink:href="#DejaVuSans-20" transform="translate(1224.365234 0.015625)"/>
     <use xlink:href="#DejaVuSans-Oblique-58" transform="translate(1256.152344 0.015625)"/>
     <use xlink:href="#DejaVuSans-Oblique-74" transform="translate(1324.658203 -16.390625)scale(0.7)"/>
     <use xlink:href="#DejaVuSans-20" transform="translate(1354.838867 0.015625)"/>
     <use xlink:href="#DejaVuSans-61" transform="translate(1386.625977 0.015625)"/>
     <use xlink:href="#DejaVuSans-6e" transform="translate(1447.905273 0.015625)"/>
     <use xlink:href="#DejaVuSans-64" transform="translate(1511.28418 0.015625)"/>
     <use xlink:href="#DejaVuSans-20" transform="translate(1574.760742 0.015625)"/>
     <use xlink:href="#DejaVuSans-Oblique-53" transform="translate(1606.547852 0.015625)"/>
     <use xlink:href="#DejaVuSans-Oblique-74" transform="translate(1670.024414 -16.390625)scale(0.7)"/>
    </g>
   </g>
   <g id="legend_1">
    <g id="patch_7">
     <path d="M 133 379.48 
L 335.1 379.48 
Q 337.1 379.48 337.1 377.48 
L 337.1 334.445625 
Q 337.1 332.445625 335.1 332.445625 
L 133 332.445625 
Q 131 332.445625 131 334.445625 
L 131 377.48 
Q 131 379.48 133 379.48 
z
" style="fill: #ffffff; opacity: 0.8; stroke: #cccccc; stroke-linejoin: miter"/>
    </g>
    <g id="line2d_16">
     <path d="M 135 340.544062 
L 145 340.544062 
L 155 340.544062 
" style="fill: none; stroke: #1f77b4; stroke-width: 1.5; stroke-linecap: square"/>
    </g>
    <g id="text_16">
     <!-- $X_t$ -->
     <g transform="translate(163 344.044062)scale(0.1 -0.1)">
      <use xlink:href="#DejaVuSans-Oblique-58" transform="translate(0 0.09375)"/>
      <use xlink:href="#DejaVuSans-Oblique-74" transform="translate(68.505859 -16.3125)scale(0.7)"/>
     </g>
    </g>
    <g id="line2d_17">
     <path d="M 135 355.222188 
L 145 355.222188 
L 155 355.222188 
" style="fill: none; stroke: #ff7f0e; stroke-width: 1.5; stroke-linecap: square"/>
    </g>
    <g id="text_17">
     <!-- $S_t$ -->
     <g transform="translate(163 358.722188)scale(0.1 -0.1)">
      <use xlink:href="#DejaVuSans-Oblique-53" transform="translate(0 0.78125)"/>
      <use xlink:href="#DejaVuSans-Oblique-74" transform="translate(63.476562 -15.625)scale(0.7)"/>
     </g>
    </g>
    <g id="line2d_18">
     <path d="M 135 369.900312 
L 145 369.900312 
L 155 369.900312 
" style="fill: none; stroke: #2ca02c; stroke-width: 1.5; stroke-linecap: square"/>
    </g>
    <g id="text_18">
     <!-- Quadratic Covariation of $X_t$ and $S_t$ -->
     <g transform="translate(163 373.400312)scale(0.1 -0.1)">
      <use xlink:href="#DejaVuSans-51" transform="translate(0 0.015625)"/>
      <use xlink:href="#DejaVuSans-75" transform="translate(78.710938 0.015625)"/>
      <use xlink:href="#DejaVuSans-61" transform="translate(142.089844 0.015625)"/>
      <use xlink:href="#DejaVuSans-64" transform="translate(203.369141 0.015625)"/>
      <use xlink:href="#DejaVuSans-72" transform="translate(266.845703 0.015625)"/>
      <use xlink:href="#DejaVuSans-61" transform="translate(307.958984 0.015625)"/>
      <use xlink:href="#DejaVuSans-74" transform="translate(369.238281 0.015625)"/>
      <use xlink:href="#DejaVuSans-69" transform="translate(408.447266 0.015625)"/>
      <use xlink:href="#DejaVuSans-63" transform="translate(436.230469 0.015625)"/>
      <use xlink:href="#DejaVuSans-20" transform="translate(491.210938 0.015625)"/>
      <use xlink:href="#DejaVuSans-43" transform="translate(522.998047 0.015625)"/>
      <use xlink:href="#DejaVuSans-6f" transform="translate(592.822266 0.015625)"/>
      <use xlink:href="#DejaVuSans-76" transform="translate(654.003906 0.015625)"/>
      <use xlink:href="#DejaVuSans-61" transform="translate(713.183594 0.015625)"/>
      <use xlink:href="#DejaVuSans-72" transform="translate(774.462891 0.015625)"/>
      <use xlink:href="#DejaVuSans-69" transform="translate(815.576172 0.015625)"/>
      <use xlink:href="#DejaVuSans-61" transform="translate(843.359375 0.015625)"/>
      <use xlink:href="#DejaVuSans-74" transform="translate(904.638672 0.015625)"/>
      <use xlink:href="#DejaVuSans-69" transform="translate(943.847656 0.015625)"/>
      <use xlink:href="#DejaVuSans-6f" transform="translate(971.630859 0.015625)"/>
      <use xlink:href="#DejaVuSans-6e" transform="translate(1032.8125 0.015625)"/>
      <use xlink:href="#DejaVuSans-20" transform="translate(1096.191406 0.015625)"/>
      <use xlink:href="#DejaVuSans-6f" transform="translate(1127.978516 0.015625)"/>
      <use xlink:href="#DejaVuSans-66" transform="translate(1189.160156 0.015625)"/>
      <use xlink:href="#DejaVuSans-20" transform="translate(1224.365234 0.015625)"/>
      <use xlink:href="#DejaVuSans-Oblique-58" transform="translate(1256.152344 0.015625)"/>
      <use xlink:href="#DejaVuSans-Oblique-74" transform="translate(1324.658203 -16.390625)scale(0.7)"/>
      <use xlink:href="#DejaVuSans-20" transform="translate(1354.838867 0.015625)"/>
      <use xlink:href="#DejaVuSans-61" transform="translate(1386.625977 0.015625)"/>
      <use xlink:href="#DejaVuSans-6e" transform="translate(1447.905273 0.015625)"/>
      <use xlink:href="#DejaVuSans-64" transform="translate(1511.28418 0.015625)"/>
      <use xlink:href="#DejaVuSans-20" transform="translate(1574.760742 0.015625)"/>
      <use xlink:href="#DejaVuSans-Oblique-53" transform="translate(1606.547852 0.015625)"/>
      <use xlink:href="#DejaVuSans-Oblique-74" transform="translate(1670.024414 -16.390625)scale(0.7)"/>
     </g>
    </g>
   </g>
  </g>
 </g>
 <defs>
  <clipPath id="p62ea8d56fb">
   <rect x="126" y="51.84" width="781.2" height="332.64"/>
  </clipPath>
 </defs>
</svg>
