<?xml version="1.0" encoding="utf-8" standalone="no"?>
<!DOCTYPE svg PUBLIC "-//W3C//DTD SVG 1.1//EN"
  "http://www.w3.org/Graphics/SVG/1.1/DTD/svg11.dtd">
<svg xmlns:xlink="http://www.w3.org/1999/xlink" width="1008pt" height="432pt" viewBox="0 0 1008 432" xmlns="http://www.w3.org/2000/svg" version="1.1">
 <metadata>
  <rdf:RDF xmlns:dc="http://purl.org/dc/elements/1.1/" xmlns:cc="http://creativecommons.org/ns#" xmlns:rdf="http://www.w3.org/1999/02/22-rdf-syntax-ns#">
   <cc:Work>
    <dc:type rdf:resource="http://purl.org/dc/dcmitype/StillImage"/>
    <dc:date>2023-12-22T17:12:23.758165</dc:date>
    <dc:format>image/svg+xml</dc:format>
    <dc:creator>
     <cc:Agent>
      <dc:title>Matplotlib v3.5.2, https://matplotlib.org/</dc:title>
     </cc:Agent>
    </dc:creator>
   </cc:Work>
  </rdf:RDF>
 </metadata>
 <defs>
  <style type="text/css">*{stroke-linejoin: round; stroke-linecap: butt}</style>
 </defs>
 <g id="figure_1">
  <g id="patch_1">
   <path d="M 0 432 
L 1008 432 
L 1008 0 
L 0 0 
z
" style="fill: #ffffff"/>
  </g>
  <g id="axes_1">
   <g id="patch_2">
    <path d="M 126 384.48 
L 907.2 384.48 
L 907.2 51.84 
L 126 51.84 
z
" style="fill: #ffffff"/>
   </g>
   <g id="matplotlib.axis_1">
    <g id="xtick_1">
     <g id="line2d_1">
      <defs>
       <path id="mc32b98f6ab" d="M 0 0 
L 0 3.5 
" style="stroke: #000000; stroke-width: 0.8"/>
      </defs>
      <g>
       <use xlink:href="#mc32b98f6ab" x="161.509091" y="384.48" style="stroke: #000000; stroke-width: 0.8"/>
      </g>
     </g>
     <g id="text_1">
      <!-- 0.0 -->
      <g transform="translate(153.557528 399.078438)scale(0.1 -0.1)">
       <defs>
        <path id="DejaVuSans-30" d="M 2034 4250 
Q 1547 4250 1301 3770 
Q 1056 3291 1056 2328 
Q 1056 1369 1301 889 
Q 1547 409 2034 409 
Q 2525 409 2770 889 
Q 3016 1369 3016 2328 
Q 3016 3291 2770 3770 
Q 2525 4250 2034 4250 
z
M 2034 4750 
Q 2819 4750 3233 4129 
Q 3647 3509 3647 2328 
Q 3647 1150 3233 529 
Q 2819 -91 2034 -91 
Q 1250 -91 836 529 
Q 422 1150 422 2328 
Q 422 3509 836 4129 
Q 1250 4750 2034 4750 
z
" transform="scale(0.015625)"/>
        <path id="DejaVuSans-2e" d="M 684 794 
L 1344 794 
L 1344 0 
L 684 0 
L 684 794 
z
" transform="scale(0.015625)"/>
       </defs>
       <use xlink:href="#DejaVuSans-30"/>
       <use xlink:href="#DejaVuSans-2e" x="63.623047"/>
       <use xlink:href="#DejaVuSans-30" x="95.410156"/>
      </g>
     </g>
    </g>
    <g id="xtick_2">
     <g id="line2d_2">
      <g>
       <use xlink:href="#mc32b98f6ab" x="303.545455" y="384.48" style="stroke: #000000; stroke-width: 0.8"/>
      </g>
     </g>
     <g id="text_2">
      <!-- 0.2 -->
      <g transform="translate(295.593892 399.078438)scale(0.1 -0.1)">
       <defs>
        <path id="DejaVuSans-32" d="M 1228 531 
L 3431 531 
L 3431 0 
L 469 0 
L 469 531 
Q 828 903 1448 1529 
Q 2069 2156 2228 2338 
Q 2531 2678 2651 2914 
Q 2772 3150 2772 3378 
Q 2772 3750 2511 3984 
Q 2250 4219 1831 4219 
Q 1534 4219 1204 4116 
Q 875 4013 500 3803 
L 500 4441 
Q 881 4594 1212 4672 
Q 1544 4750 1819 4750 
Q 2544 4750 2975 4387 
Q 3406 4025 3406 3419 
Q 3406 3131 3298 2873 
Q 3191 2616 2906 2266 
Q 2828 2175 2409 1742 
Q 1991 1309 1228 531 
z
" transform="scale(0.015625)"/>
       </defs>
       <use xlink:href="#DejaVuSans-30"/>
       <use xlink:href="#DejaVuSans-2e" x="63.623047"/>
       <use xlink:href="#DejaVuSans-32" x="95.410156"/>
      </g>
     </g>
    </g>
    <g id="xtick_3">
     <g id="line2d_3">
      <g>
       <use xlink:href="#mc32b98f6ab" x="445.581818" y="384.48" style="stroke: #000000; stroke-width: 0.8"/>
      </g>
     </g>
     <g id="text_3">
      <!-- 0.4 -->
      <g transform="translate(437.630256 399.078438)scale(0.1 -0.1)">
       <defs>
        <path id="DejaVuSans-34" d="M 2419 4116 
L 825 1625 
L 2419 1625 
L 2419 4116 
z
M 2253 4666 
L 3047 4666 
L 3047 1625 
L 3713 1625 
L 3713 1100 
L 3047 1100 
L 3047 0 
L 2419 0 
L 2419 1100 
L 313 1100 
L 313 1709 
L 2253 4666 
z
" transform="scale(0.015625)"/>
       </defs>
       <use xlink:href="#DejaVuSans-30"/>
       <use xlink:href="#DejaVuSans-2e" x="63.623047"/>
       <use xlink:href="#DejaVuSans-34" x="95.410156"/>
      </g>
     </g>
    </g>
    <g id="xtick_4">
     <g id="line2d_4">
      <g>
       <use xlink:href="#mc32b98f6ab" x="587.618182" y="384.48" style="stroke: #000000; stroke-width: 0.8"/>
      </g>
     </g>
     <g id="text_4">
      <!-- 0.6 -->
      <g transform="translate(579.666619 399.078438)scale(0.1 -0.1)">
       <defs>
        <path id="DejaVuSans-36" d="M 2113 2584 
Q 1688 2584 1439 2293 
Q 1191 2003 1191 1497 
Q 1191 994 1439 701 
Q 1688 409 2113 409 
Q 2538 409 2786 701 
Q 3034 994 3034 1497 
Q 3034 2003 2786 2293 
Q 2538 2584 2113 2584 
z
M 3366 4563 
L 3366 3988 
Q 3128 4100 2886 4159 
Q 2644 4219 2406 4219 
Q 1781 4219 1451 3797 
Q 1122 3375 1075 2522 
Q 1259 2794 1537 2939 
Q 1816 3084 2150 3084 
Q 2853 3084 3261 2657 
Q 3669 2231 3669 1497 
Q 3669 778 3244 343 
Q 2819 -91 2113 -91 
Q 1303 -91 875 529 
Q 447 1150 447 2328 
Q 447 3434 972 4092 
Q 1497 4750 2381 4750 
Q 2619 4750 2861 4703 
Q 3103 4656 3366 4563 
z
" transform="scale(0.015625)"/>
       </defs>
       <use xlink:href="#DejaVuSans-30"/>
       <use xlink:href="#DejaVuSans-2e" x="63.623047"/>
       <use xlink:href="#DejaVuSans-36" x="95.410156"/>
      </g>
     </g>
    </g>
    <g id="xtick_5">
     <g id="line2d_5">
      <g>
       <use xlink:href="#mc32b98f6ab" x="729.654545" y="384.48" style="stroke: #000000; stroke-width: 0.8"/>
      </g>
     </g>
     <g id="text_5">
      <!-- 0.8 -->
      <g transform="translate(721.702983 399.078438)scale(0.1 -0.1)">
       <defs>
        <path id="DejaVuSans-38" d="M 2034 2216 
Q 1584 2216 1326 1975 
Q 1069 1734 1069 1313 
Q 1069 891 1326 650 
Q 1584 409 2034 409 
Q 2484 409 2743 651 
Q 3003 894 3003 1313 
Q 3003 1734 2745 1975 
Q 2488 2216 2034 2216 
z
M 1403 2484 
Q 997 2584 770 2862 
Q 544 3141 544 3541 
Q 544 4100 942 4425 
Q 1341 4750 2034 4750 
Q 2731 4750 3128 4425 
Q 3525 4100 3525 3541 
Q 3525 3141 3298 2862 
Q 3072 2584 2669 2484 
Q 3125 2378 3379 2068 
Q 3634 1759 3634 1313 
Q 3634 634 3220 271 
Q 2806 -91 2034 -91 
Q 1263 -91 848 271 
Q 434 634 434 1313 
Q 434 1759 690 2068 
Q 947 2378 1403 2484 
z
M 1172 3481 
Q 1172 3119 1398 2916 
Q 1625 2713 2034 2713 
Q 2441 2713 2670 2916 
Q 2900 3119 2900 3481 
Q 2900 3844 2670 4047 
Q 2441 4250 2034 4250 
Q 1625 4250 1398 4047 
Q 1172 3844 1172 3481 
z
" transform="scale(0.015625)"/>
       </defs>
       <use xlink:href="#DejaVuSans-30"/>
       <use xlink:href="#DejaVuSans-2e" x="63.623047"/>
       <use xlink:href="#DejaVuSans-38" x="95.410156"/>
      </g>
     </g>
    </g>
    <g id="xtick_6">
     <g id="line2d_6">
      <g>
       <use xlink:href="#mc32b98f6ab" x="871.690909" y="384.48" style="stroke: #000000; stroke-width: 0.8"/>
      </g>
     </g>
     <g id="text_6">
      <!-- 1.0 -->
      <g transform="translate(863.739347 399.078438)scale(0.1 -0.1)">
       <defs>
        <path id="DejaVuSans-31" d="M 794 531 
L 1825 531 
L 1825 4091 
L 703 3866 
L 703 4441 
L 1819 4666 
L 2450 4666 
L 2450 531 
L 3481 531 
L 3481 0 
L 794 0 
L 794 531 
z
" transform="scale(0.015625)"/>
       </defs>
       <use xlink:href="#DejaVuSans-31"/>
       <use xlink:href="#DejaVuSans-2e" x="63.623047"/>
       <use xlink:href="#DejaVuSans-30" x="95.410156"/>
      </g>
     </g>
    </g>
    <g id="text_7">
     <!-- Time -->
     <g transform="translate(504.366406 412.756563)scale(0.1 -0.1)">
      <defs>
       <path id="DejaVuSans-54" d="M -19 4666 
L 3928 4666 
L 3928 4134 
L 2272 4134 
L 2272 0 
L 1638 0 
L 1638 4134 
L -19 4134 
L -19 4666 
z
" transform="scale(0.015625)"/>
       <path id="DejaVuSans-69" d="M 603 3500 
L 1178 3500 
L 1178 0 
L 603 0 
L 603 3500 
z
M 603 4863 
L 1178 4863 
L 1178 4134 
L 603 4134 
L 603 4863 
z
" transform="scale(0.015625)"/>
       <path id="DejaVuSans-6d" d="M 3328 2828 
Q 3544 3216 3844 3400 
Q 4144 3584 4550 3584 
Q 5097 3584 5394 3201 
Q 5691 2819 5691 2113 
L 5691 0 
L 5113 0 
L 5113 2094 
Q 5113 2597 4934 2840 
Q 4756 3084 4391 3084 
Q 3944 3084 3684 2787 
Q 3425 2491 3425 1978 
L 3425 0 
L 2847 0 
L 2847 2094 
Q 2847 2600 2669 2842 
Q 2491 3084 2119 3084 
Q 1678 3084 1418 2786 
Q 1159 2488 1159 1978 
L 1159 0 
L 581 0 
L 581 3500 
L 1159 3500 
L 1159 2956 
Q 1356 3278 1631 3431 
Q 1906 3584 2284 3584 
Q 2666 3584 2933 3390 
Q 3200 3197 3328 2828 
z
" transform="scale(0.015625)"/>
       <path id="DejaVuSans-65" d="M 3597 1894 
L 3597 1613 
L 953 1613 
Q 991 1019 1311 708 
Q 1631 397 2203 397 
Q 2534 397 2845 478 
Q 3156 559 3463 722 
L 3463 178 
Q 3153 47 2828 -22 
Q 2503 -91 2169 -91 
Q 1331 -91 842 396 
Q 353 884 353 1716 
Q 353 2575 817 3079 
Q 1281 3584 2069 3584 
Q 2775 3584 3186 3129 
Q 3597 2675 3597 1894 
z
M 3022 2063 
Q 3016 2534 2758 2815 
Q 2500 3097 2075 3097 
Q 1594 3097 1305 2825 
Q 1016 2553 972 2059 
L 3022 2063 
z
" transform="scale(0.015625)"/>
      </defs>
      <use xlink:href="#DejaVuSans-54"/>
      <use xlink:href="#DejaVuSans-69" x="57.958984"/>
      <use xlink:href="#DejaVuSans-6d" x="85.742188"/>
      <use xlink:href="#DejaVuSans-65" x="183.154297"/>
     </g>
    </g>
   </g>
   <g id="matplotlib.axis_2">
    <g id="ytick_1">
     <g id="line2d_7">
      <defs>
       <path id="m3a1b5c3931" d="M 0 0 
L -3.5 0 
" style="stroke: #000000; stroke-width: 0.8"/>
      </defs>
      <g>
       <use xlink:href="#m3a1b5c3931" x="126" y="356.83192" style="stroke: #000000; stroke-width: 0.8"/>
      </g>
     </g>
     <g id="text_8">
      <!-- −0.5 -->
      <g transform="translate(94.717187 360.631138)scale(0.1 -0.1)">
       <defs>
        <path id="DejaVuSans-2212" d="M 678 2272 
L 4684 2272 
L 4684 1741 
L 678 1741 
L 678 2272 
z
" transform="scale(0.015625)"/>
        <path id="DejaVuSans-35" d="M 691 4666 
L 3169 4666 
L 3169 4134 
L 1269 4134 
L 1269 2991 
Q 1406 3038 1543 3061 
Q 1681 3084 1819 3084 
Q 2600 3084 3056 2656 
Q 3513 2228 3513 1497 
Q 3513 744 3044 326 
Q 2575 -91 1722 -91 
Q 1428 -91 1123 -41 
Q 819 9 494 109 
L 494 744 
Q 775 591 1075 516 
Q 1375 441 1709 441 
Q 2250 441 2565 725 
Q 2881 1009 2881 1497 
Q 2881 1984 2565 2268 
Q 2250 2553 1709 2553 
Q 1456 2553 1204 2497 
Q 953 2441 691 2322 
L 691 4666 
z
" transform="scale(0.015625)"/>
       </defs>
       <use xlink:href="#DejaVuSans-2212"/>
       <use xlink:href="#DejaVuSans-30" x="83.789062"/>
       <use xlink:href="#DejaVuSans-2e" x="147.412109"/>
       <use xlink:href="#DejaVuSans-35" x="179.199219"/>
      </g>
     </g>
    </g>
    <g id="ytick_2">
     <g id="line2d_8">
      <g>
       <use xlink:href="#m3a1b5c3931" x="126" y="291.130586" style="stroke: #000000; stroke-width: 0.8"/>
      </g>
     </g>
     <g id="text_9">
      <!-- 0.0 -->
      <g transform="translate(103.096875 294.929804)scale(0.1 -0.1)">
       <use xlink:href="#DejaVuSans-30"/>
       <use xlink:href="#DejaVuSans-2e" x="63.623047"/>
       <use xlink:href="#DejaVuSans-30" x="95.410156"/>
      </g>
     </g>
    </g>
    <g id="ytick_3">
     <g id="line2d_9">
      <g>
       <use xlink:href="#m3a1b5c3931" x="126" y="225.429251" style="stroke: #000000; stroke-width: 0.8"/>
      </g>
     </g>
     <g id="text_10">
      <!-- 0.5 -->
      <g transform="translate(103.096875 229.22847)scale(0.1 -0.1)">
       <use xlink:href="#DejaVuSans-30"/>
       <use xlink:href="#DejaVuSans-2e" x="63.623047"/>
       <use xlink:href="#DejaVuSans-35" x="95.410156"/>
      </g>
     </g>
    </g>
    <g id="ytick_4">
     <g id="line2d_10">
      <g>
       <use xlink:href="#m3a1b5c3931" x="126" y="159.727917" style="stroke: #000000; stroke-width: 0.8"/>
      </g>
     </g>
     <g id="text_11">
      <!-- 1.0 -->
      <g transform="translate(103.096875 163.527136)scale(0.1 -0.1)">
       <use xlink:href="#DejaVuSans-31"/>
       <use xlink:href="#DejaVuSans-2e" x="63.623047"/>
       <use xlink:href="#DejaVuSans-30" x="95.410156"/>
      </g>
     </g>
    </g>
    <g id="ytick_5">
     <g id="line2d_11">
      <g>
       <use xlink:href="#m3a1b5c3931" x="126" y="94.026583" style="stroke: #000000; stroke-width: 0.8"/>
      </g>
     </g>
     <g id="text_12">
      <!-- 1.5 -->
      <g transform="translate(103.096875 97.825802)scale(0.1 -0.1)">
       <use xlink:href="#DejaVuSans-31"/>
       <use xlink:href="#DejaVuSans-2e" x="63.623047"/>
       <use xlink:href="#DejaVuSans-35" x="95.410156"/>
      </g>
     </g>
    </g>
    <g id="text_13">
     <!-- Quadratic Covariation -->
     <g transform="translate(88.6375 272.970156)rotate(-90)scale(0.1 -0.1)">
      <defs>
       <path id="DejaVuSans-51" d="M 2522 4238 
Q 1834 4238 1429 3725 
Q 1025 3213 1025 2328 
Q 1025 1447 1429 934 
Q 1834 422 2522 422 
Q 3209 422 3611 934 
Q 4013 1447 4013 2328 
Q 4013 3213 3611 3725 
Q 3209 4238 2522 4238 
z
M 3406 84 
L 4238 -825 
L 3475 -825 
L 2784 -78 
Q 2681 -84 2626 -87 
Q 2572 -91 2522 -91 
Q 1538 -91 948 567 
Q 359 1225 359 2328 
Q 359 3434 948 4092 
Q 1538 4750 2522 4750 
Q 3503 4750 4090 4092 
Q 4678 3434 4678 2328 
Q 4678 1516 4351 937 
Q 4025 359 3406 84 
z
" transform="scale(0.015625)"/>
       <path id="DejaVuSans-75" d="M 544 1381 
L 544 3500 
L 1119 3500 
L 1119 1403 
Q 1119 906 1312 657 
Q 1506 409 1894 409 
Q 2359 409 2629 706 
Q 2900 1003 2900 1516 
L 2900 3500 
L 3475 3500 
L 3475 0 
L 2900 0 
L 2900 538 
Q 2691 219 2414 64 
Q 2138 -91 1772 -91 
Q 1169 -91 856 284 
Q 544 659 544 1381 
z
M 1991 3584 
L 1991 3584 
z
" transform="scale(0.015625)"/>
       <path id="DejaVuSans-61" d="M 2194 1759 
Q 1497 1759 1228 1600 
Q 959 1441 959 1056 
Q 959 750 1161 570 
Q 1363 391 1709 391 
Q 2188 391 2477 730 
Q 2766 1069 2766 1631 
L 2766 1759 
L 2194 1759 
z
M 3341 1997 
L 3341 0 
L 2766 0 
L 2766 531 
Q 2569 213 2275 61 
Q 1981 -91 1556 -91 
Q 1019 -91 701 211 
Q 384 513 384 1019 
Q 384 1609 779 1909 
Q 1175 2209 1959 2209 
L 2766 2209 
L 2766 2266 
Q 2766 2663 2505 2880 
Q 2244 3097 1772 3097 
Q 1472 3097 1187 3025 
Q 903 2953 641 2809 
L 641 3341 
Q 956 3463 1253 3523 
Q 1550 3584 1831 3584 
Q 2591 3584 2966 3190 
Q 3341 2797 3341 1997 
z
" transform="scale(0.015625)"/>
       <path id="DejaVuSans-64" d="M 2906 2969 
L 2906 4863 
L 3481 4863 
L 3481 0 
L 2906 0 
L 2906 525 
Q 2725 213 2448 61 
Q 2172 -91 1784 -91 
Q 1150 -91 751 415 
Q 353 922 353 1747 
Q 353 2572 751 3078 
Q 1150 3584 1784 3584 
Q 2172 3584 2448 3432 
Q 2725 3281 2906 2969 
z
M 947 1747 
Q 947 1113 1208 752 
Q 1469 391 1925 391 
Q 2381 391 2643 752 
Q 2906 1113 2906 1747 
Q 2906 2381 2643 2742 
Q 2381 3103 1925 3103 
Q 1469 3103 1208 2742 
Q 947 2381 947 1747 
z
" transform="scale(0.015625)"/>
       <path id="DejaVuSans-72" d="M 2631 2963 
Q 2534 3019 2420 3045 
Q 2306 3072 2169 3072 
Q 1681 3072 1420 2755 
Q 1159 2438 1159 1844 
L 1159 0 
L 581 0 
L 581 3500 
L 1159 3500 
L 1159 2956 
Q 1341 3275 1631 3429 
Q 1922 3584 2338 3584 
Q 2397 3584 2469 3576 
Q 2541 3569 2628 3553 
L 2631 2963 
z
" transform="scale(0.015625)"/>
       <path id="DejaVuSans-74" d="M 1172 4494 
L 1172 3500 
L 2356 3500 
L 2356 3053 
L 1172 3053 
L 1172 1153 
Q 1172 725 1289 603 
Q 1406 481 1766 481 
L 2356 481 
L 2356 0 
L 1766 0 
Q 1100 0 847 248 
Q 594 497 594 1153 
L 594 3053 
L 172 3053 
L 172 3500 
L 594 3500 
L 594 4494 
L 1172 4494 
z
" transform="scale(0.015625)"/>
       <path id="DejaVuSans-63" d="M 3122 3366 
L 3122 2828 
Q 2878 2963 2633 3030 
Q 2388 3097 2138 3097 
Q 1578 3097 1268 2742 
Q 959 2388 959 1747 
Q 959 1106 1268 751 
Q 1578 397 2138 397 
Q 2388 397 2633 464 
Q 2878 531 3122 666 
L 3122 134 
Q 2881 22 2623 -34 
Q 2366 -91 2075 -91 
Q 1284 -91 818 406 
Q 353 903 353 1747 
Q 353 2603 823 3093 
Q 1294 3584 2113 3584 
Q 2378 3584 2631 3529 
Q 2884 3475 3122 3366 
z
" transform="scale(0.015625)"/>
       <path id="DejaVuSans-20" transform="scale(0.015625)"/>
       <path id="DejaVuSans-43" d="M 4122 4306 
L 4122 3641 
Q 3803 3938 3442 4084 
Q 3081 4231 2675 4231 
Q 1875 4231 1450 3742 
Q 1025 3253 1025 2328 
Q 1025 1406 1450 917 
Q 1875 428 2675 428 
Q 3081 428 3442 575 
Q 3803 722 4122 1019 
L 4122 359 
Q 3791 134 3420 21 
Q 3050 -91 2638 -91 
Q 1578 -91 968 557 
Q 359 1206 359 2328 
Q 359 3453 968 4101 
Q 1578 4750 2638 4750 
Q 3056 4750 3426 4639 
Q 3797 4528 4122 4306 
z
" transform="scale(0.015625)"/>
       <path id="DejaVuSans-6f" d="M 1959 3097 
Q 1497 3097 1228 2736 
Q 959 2375 959 1747 
Q 959 1119 1226 758 
Q 1494 397 1959 397 
Q 2419 397 2687 759 
Q 2956 1122 2956 1747 
Q 2956 2369 2687 2733 
Q 2419 3097 1959 3097 
z
M 1959 3584 
Q 2709 3584 3137 3096 
Q 3566 2609 3566 1747 
Q 3566 888 3137 398 
Q 2709 -91 1959 -91 
Q 1206 -91 779 398 
Q 353 888 353 1747 
Q 353 2609 779 3096 
Q 1206 3584 1959 3584 
z
" transform="scale(0.015625)"/>
       <path id="DejaVuSans-76" d="M 191 3500 
L 800 3500 
L 1894 563 
L 2988 3500 
L 3597 3500 
L 2284 0 
L 1503 0 
L 191 3500 
z
" transform="scale(0.015625)"/>
       <path id="DejaVuSans-6e" d="M 3513 2113 
L 3513 0 
L 2938 0 
L 2938 2094 
Q 2938 2591 2744 2837 
Q 2550 3084 2163 3084 
Q 1697 3084 1428 2787 
Q 1159 2491 1159 1978 
L 1159 0 
L 581 0 
L 581 3500 
L 1159 3500 
L 1159 2956 
Q 1366 3272 1645 3428 
Q 1925 3584 2291 3584 
Q 2894 3584 3203 3211 
Q 3513 2838 3513 2113 
z
" transform="scale(0.015625)"/>
      </defs>
      <use xlink:href="#DejaVuSans-51"/>
      <use xlink:href="#DejaVuSans-75" x="78.710938"/>
      <use xlink:href="#DejaVuSans-61" x="142.089844"/>
      <use xlink:href="#DejaVuSans-64" x="203.369141"/>
      <use xlink:href="#DejaVuSans-72" x="266.845703"/>
      <use xlink:href="#DejaVuSans-61" x="307.958984"/>
      <use xlink:href="#DejaVuSans-74" x="369.238281"/>
      <use xlink:href="#DejaVuSans-69" x="408.447266"/>
      <use xlink:href="#DejaVuSans-63" x="436.230469"/>
      <use xlink:href="#DejaVuSans-20" x="491.210938"/>
      <use xlink:href="#DejaVuSans-43" x="522.998047"/>
      <use xlink:href="#DejaVuSans-6f" x="592.822266"/>
      <use xlink:href="#DejaVuSans-76" x="654.003906"/>
      <use xlink:href="#DejaVuSans-61" x="713.183594"/>
      <use xlink:href="#DejaVuSans-72" x="774.462891"/>
      <use xlink:href="#DejaVuSans-69" x="815.576172"/>
      <use xlink:href="#DejaVuSans-61" x="843.359375"/>
      <use xlink:href="#DejaVuSans-74" x="904.638672"/>
      <use xlink:href="#DejaVuSans-69" x="943.847656"/>
      <use xlink:href="#DejaVuSans-6f" x="971.630859"/>
      <use xlink:href="#DejaVuSans-6e" x="1032.8125"/>
     </g>
    </g>
   </g>
   <g id="line2d_12">
    <path d="M 161.509091 159.727917 
L 162.219273 157.318997 
L 162.929455 165.393682 
L 163.639636 155.956588 
L 164.349818 157.031931 
L 165.06 153.983509 
L 165.770182 157.24734 
L 166.480364 161.222713 
L 167.190545 162.463144 
L 167.900727 162.68525 
L 168.610909 169.025815 
L 169.321091 168.275303 
L 170.031273 169.031329 
L 170.741455 172.205157 
L 171.451636 171.162986 
L 172.161818 176.998323 
L 172.872 169.154353 
L 173.582182 171.527549 
L 174.292364 176.999782 
L 175.002545 177.01298 
L 175.712727 181.714073 
L 176.422909 181.320586 
L 177.133091 182.759144 
L 177.843273 185.126964 
L 178.553455 195.514545 
L 179.263636 191.26472 
L 179.973818 186.253251 
L 180.684 192.480091 
L 182.104364 181.52609 
L 182.814545 182.718048 
L 184.234909 175.884824 
L 184.945091 172.725453 
L 186.365455 170.112411 
L 187.075636 174.391856 
L 187.785818 167.174721 
L 188.496 167.757614 
L 189.206182 173.361588 
L 189.916364 171.466297 
L 190.626545 171.784984 
L 191.336727 172.795196 
L 192.046909 170.851039 
L 192.757091 165.350896 
L 193.467273 167.913829 
L 194.177455 167.766442 
L 194.887636 175.334947 
L 195.597818 173.950482 
L 197.018182 172.185802 
L 197.728364 171.75761 
L 198.438545 174.892814 
L 199.858909 162.863266 
L 200.569091 166.091852 
L 201.279273 163.341014 
L 201.989455 168.829909 
L 202.699636 168.439416 
L 203.409818 177.281878 
L 204.12 166.858889 
L 204.830182 170.550793 
L 205.540364 175.368244 
L 206.250545 175.067183 
L 206.960727 177.281436 
L 207.670909 180.519782 
L 208.381091 177.994628 
L 209.091273 176.255809 
L 209.801455 176.077512 
L 210.511636 175.692946 
L 211.221818 173.501786 
L 211.932 174.489569 
L 212.642182 180.34275 
L 213.352364 175.342782 
L 214.062545 177.050796 
L 214.772727 179.880943 
L 215.482909 170.911919 
L 216.193091 170.651532 
L 216.903273 167.43437 
L 217.613455 162.846334 
L 218.323636 159.12966 
L 219.033818 165.66048 
L 219.744 160.590519 
L 220.454182 152.991903 
L 221.164364 149.849389 
L 221.874545 149.115881 
L 222.584727 150.333156 
L 223.294909 147.98451 
L 224.005091 152.191619 
L 224.715273 152.321276 
L 225.425455 159.259231 
L 226.135636 168.225747 
L 226.845818 161.125945 
L 227.556 158.733125 
L 228.266182 161.234866 
L 228.976364 165.199364 
L 229.686545 163.197691 
L 230.396727 162.041614 
L 231.817091 155.481677 
L 232.527273 151.780814 
L 233.237455 152.93083 
L 233.947636 151.766544 
L 234.657818 158.018818 
L 235.368 168.000959 
L 236.078182 166.389953 
L 236.788364 164.273407 
L 237.498545 170.204579 
L 238.208727 164.638291 
L 238.918909 170.26606 
L 239.629091 167.254213 
L 240.339273 172.101042 
L 241.049455 170.378627 
L 241.759636 172.193613 
L 242.469818 172.447567 
L 243.18 174.842149 
L 243.890182 172.973821 
L 244.600364 175.587432 
L 245.310545 175.093936 
L 246.020727 168.362695 
L 246.730909 170.023382 
L 247.441091 173.896372 
L 248.151273 171.848227 
L 248.861455 173.44574 
L 250.281818 173.042401 
L 250.992 178.233603 
L 251.702182 172.520852 
L 252.412364 173.002297 
L 253.122545 173.047235 
L 253.832727 163.790131 
L 254.542909 172.047141 
L 255.253091 175.875257 
L 255.963273 174.736559 
L 256.673455 179.278331 
L 258.093818 185.76458 
L 258.804 185.011655 
L 259.514182 173.627356 
L 260.224364 176.337757 
L 260.934545 175.789523 
L 261.644727 169.546236 
L 262.354909 171.167668 
L 263.065091 166.337084 
L 263.775273 164.399257 
L 264.485455 160.554736 
L 265.195636 169.861667 
L 265.905818 164.415985 
L 266.616 161.942222 
L 267.326182 163.265615 
L 268.036364 163.730325 
L 268.746545 168.075574 
L 270.166909 161.00666 
L 270.877091 167.849056 
L 271.587273 165.357681 
L 272.297455 164.048161 
L 273.007636 168.170839 
L 273.717818 161.901228 
L 274.428 159.177632 
L 275.138182 161.445504 
L 275.848364 160.94054 
L 276.558545 162.611595 
L 277.268727 157.039664 
L 277.978909 162.215852 
L 278.689091 159.844956 
L 279.399273 163.49478 
L 280.109455 159.170934 
L 280.819636 158.692492 
L 281.529818 152.567535 
L 282.950182 162.305315 
L 283.660364 161.068475 
L 284.370545 162.189273 
L 285.080727 165.441578 
L 285.790909 169.544673 
L 286.501091 168.992464 
L 287.211273 164.450497 
L 287.921455 161.714981 
L 288.631636 164.813238 
L 289.341818 175.469252 
L 290.052 178.610102 
L 290.762182 177.591754 
L 291.472364 180.958476 
L 292.892727 186.011212 
L 293.602909 185.823541 
L 294.313091 188.203976 
L 295.023273 185.953443 
L 295.733455 186.603898 
L 296.443636 188.054918 
L 297.153818 190.435235 
L 297.864 196.501108 
L 298.574182 197.000865 
L 299.284364 192.963241 
L 299.994545 198.26643 
L 300.704727 198.664559 
L 301.414909 197.2676 
L 302.125091 200.508135 
L 302.835273 207.833327 
L 303.545455 205.932146 
L 304.255636 203.617354 
L 304.965818 201.934468 
L 305.676 207.714118 
L 306.386182 206.062793 
L 307.096364 209.348683 
L 307.806545 208.360369 
L 308.516727 210.523495 
L 309.226909 210.648132 
L 309.937091 211.37177 
L 310.647273 211.545686 
L 311.357455 213.687042 
L 312.067636 213.926249 
L 312.777818 213.195029 
L 313.488 212.217232 
L 314.198182 213.887169 
L 314.908364 212.614715 
L 315.618545 217.462544 
L 316.328727 218.88917 
L 317.749091 222.660358 
L 318.459273 221.648177 
L 319.169455 211.783409 
L 319.879636 220.715046 
L 320.589818 219.103835 
L 322.010182 222.733611 
L 322.720364 227.973767 
L 323.430545 234.062937 
L 324.140727 232.847391 
L 324.850909 232.069494 
L 325.561091 229.904268 
L 326.271273 229.424332 
L 326.981455 223.708264 
L 327.691636 224.4277 
L 328.401818 228.050567 
L 329.112 225.868595 
L 329.822182 232.422951 
L 330.532364 229.750926 
L 331.242545 234.716808 
L 331.952727 234.576624 
L 332.662909 237.619104 
L 333.373091 234.713371 
L 334.083273 230.24976 
L 334.793455 230.966179 
L 335.503636 228.011292 
L 336.213818 222.903915 
L 336.924 220.553924 
L 337.634182 213.426803 
L 338.344364 213.112639 
L 339.054545 214.970753 
L 340.474909 219.85238 
L 341.185091 224.146977 
L 341.895273 225.646866 
L 342.605455 223.87416 
L 343.315636 219.467321 
L 344.025818 220.792884 
L 344.736 226.483589 
L 345.446182 227.294509 
L 346.156364 236.698308 
L 346.866545 233.320499 
L 347.576727 235.047787 
L 348.286909 233.062007 
L 348.997091 234.498149 
L 349.707273 236.970518 
L 350.417455 231.317161 
L 351.127636 228.198213 
L 352.548 228.310836 
L 353.258182 230.574596 
L 353.968364 227.997213 
L 354.678545 231.03973 
L 355.388727 235.107178 
L 356.098909 234.54156 
L 356.809091 230.09231 
L 357.519273 235.601448 
L 358.229455 238.358829 
L 358.939636 238.752288 
L 359.649818 245.537657 
L 360.36 249.248177 
L 361.070182 250.405739 
L 361.780364 248.61939 
L 362.490545 247.470488 
L 363.200727 248.89733 
L 363.910909 253.594496 
L 364.621091 252.327953 
L 366.041455 260.023078 
L 366.751636 260.717362 
L 367.461818 258.008796 
L 368.172 257.051374 
L 368.882182 251.787934 
L 369.592364 244.51306 
L 370.302545 245.974475 
L 371.012727 241.789615 
L 371.722909 234.037917 
L 372.433091 235.269622 
L 373.143273 234.800593 
L 373.853455 228.924717 
L 374.563636 232.485351 
L 375.273818 231.166353 
L 375.984 234.06072 
L 376.694182 231.584724 
L 377.404364 230.678372 
L 378.114545 223.08275 
L 378.824727 226.979157 
L 379.534909 222.434488 
L 380.245091 227.255702 
L 380.955273 220.409708 
L 381.665455 220.8832 
L 382.375636 219.580914 
L 383.085818 215.297523 
L 383.796 216.218755 
L 384.506182 209.093731 
L 385.216364 211.093447 
L 386.636727 200.444266 
L 387.346909 192.897331 
L 388.057091 192.452551 
L 388.767273 193.654665 
L 389.477455 187.668898 
L 390.187636 190.825771 
L 390.897818 188.360547 
L 391.608 190.457093 
L 392.318182 197.298153 
L 393.028364 198.30302 
L 393.738545 193.099501 
L 394.448727 198.775924 
L 395.158909 196.397279 
L 395.869091 202.4981 
L 396.579273 204.524844 
L 397.289455 202.525011 
L 397.999636 203.958574 
L 398.709818 209.900639 
L 399.42 208.751856 
L 400.130182 208.969202 
L 400.840364 204.535764 
L 401.550545 206.205544 
L 402.260727 200.230211 
L 402.970909 203.612066 
L 403.681091 201.717017 
L 404.391273 197.194241 
L 405.101455 190.7574 
L 405.811636 187.111388 
L 406.521818 184.856371 
L 407.232 186.868698 
L 407.942182 187.637328 
L 408.652364 185.621371 
L 410.072727 178.278906 
L 410.782909 185.727636 
L 411.493091 177.848431 
L 412.203273 173.073525 
L 412.913455 174.250876 
L 413.623636 170.423871 
L 414.333818 175.290924 
L 415.044 172.911446 
L 415.754182 175.590411 
L 416.464364 171.647505 
L 417.174545 163.654892 
L 417.884727 167.592905 
L 418.594909 163.394249 
L 419.305091 164.468035 
L 420.015273 168.874997 
L 420.725455 166.676668 
L 421.435636 168.816747 
L 422.145818 159.817313 
L 422.856 153.72278 
L 423.566182 150.261804 
L 424.276364 151.547154 
L 424.986545 162.082714 
L 425.696727 165.224878 
L 426.406909 171.414969 
L 427.117091 173.100151 
L 427.827273 170.849651 
L 428.537455 164.094308 
L 429.247636 167.531348 
L 430.668 171.563315 
L 431.378182 170.819861 
L 432.088364 175.003698 
L 432.798545 169.373573 
L 433.508727 170.848858 
L 434.218909 170.128672 
L 434.929091 174.564221 
L 435.639273 178.094473 
L 436.349455 175.661147 
L 437.059636 172.074719 
L 437.769818 170.123409 
L 438.48 173.270304 
L 439.900364 177.460877 
L 440.610545 185.32309 
L 441.320727 187.909536 
L 442.030909 190.971869 
L 442.741091 192.637103 
L 443.451273 195.463025 
L 444.161455 199.807696 
L 444.871636 199.411284 
L 445.581818 203.508022 
L 446.292 202.233413 
L 447.002182 199.013599 
L 447.712364 193.186713 
L 448.422545 195.256914 
L 449.132727 203.366827 
L 449.842909 198.932018 
L 450.553091 191.396421 
L 451.263273 194.133255 
L 452.683636 206.999159 
L 453.393818 207.753039 
L 454.104 205.154247 
L 454.814182 199.125789 
L 455.524364 197.869442 
L 456.234545 196.091591 
L 456.944727 199.028365 
L 457.654909 206.054869 
L 459.075273 207.355815 
L 459.785455 204.409804 
L 460.495636 202.34561 
L 461.205818 201.034508 
L 461.916 195.355399 
L 462.626182 196.480958 
L 463.336364 197.26467 
L 464.046545 190.422668 
L 464.756727 190.157885 
L 466.177091 197.975496 
L 466.887273 197.449398 
L 467.597455 194.419134 
L 468.307636 194.28525 
L 469.017818 194.960788 
L 469.728 195.457347 
L 470.438182 193.526583 
L 471.858545 202.200985 
L 473.278909 214.174504 
L 473.989091 216.509096 
L 474.699273 219.570694 
L 475.409455 218.846503 
L 476.119636 218.497566 
L 476.829818 219.200714 
L 477.54 217.42182 
L 478.250182 216.417264 
L 478.960364 212.82989 
L 479.670545 217.799558 
L 480.380727 215.739016 
L 481.090909 217.072421 
L 481.801091 216.083345 
L 482.511273 217.14511 
L 483.221455 208.36724 
L 483.931636 210.020718 
L 484.641818 214.986549 
L 485.352 211.315058 
L 486.062182 209.460277 
L 486.772364 212.008655 
L 487.482545 212.1043 
L 488.192727 212.345114 
L 488.902909 214.292154 
L 489.613091 212.154976 
L 490.323273 215.051707 
L 491.033455 211.730389 
L 491.743636 201.941884 
L 492.453818 202.080153 
L 493.164 207.740563 
L 493.874182 207.444503 
L 494.584364 203.593377 
L 495.294545 198.508719 
L 496.004727 203.31547 
L 496.714909 199.138256 
L 497.425091 202.533656 
L 498.135273 208.340953 
L 498.845455 207.352686 
L 499.555636 207.159851 
L 500.265818 214.567756 
L 500.976 217.035229 
L 501.686182 220.582798 
L 502.396364 216.611197 
L 503.106545 221.885475 
L 503.816727 222.506329 
L 504.526909 229.46944 
L 505.237091 234.330697 
L 505.947273 240.858713 
L 506.657455 236.959875 
L 507.367636 239.349609 
L 508.077818 234.33768 
L 508.788 230.443995 
L 509.498182 233.789147 
L 510.918545 242.048585 
L 511.628727 244.330182 
L 512.338909 251.540769 
L 513.049091 250.777888 
L 513.759273 260.971365 
L 514.469455 263.309482 
L 515.179636 264.898259 
L 515.889818 259.795568 
L 516.6 258.713656 
L 517.310182 257.097656 
L 518.020364 256.742024 
L 518.730545 253.539311 
L 519.440727 254.795762 
L 520.861091 256.139476 
L 521.571273 255.532804 
L 522.281455 252.292218 
L 522.991636 243.632071 
L 523.701818 237.570906 
L 525.122182 228.336637 
L 525.832364 219.540708 
L 526.542545 213.501064 
L 527.252727 212.854785 
L 527.962909 212.00819 
L 528.673091 212.106092 
L 529.383273 219.146773 
L 530.093455 209.871238 
L 530.803636 210.735781 
L 531.513818 216.662379 
L 532.224 213.731476 
L 532.934182 219.097647 
L 533.644364 214.378741 
L 534.354545 214.589922 
L 535.064727 218.233767 
L 536.485091 212.11827 
L 537.195273 219.99796 
L 537.905455 219.431388 
L 539.325818 222.385919 
L 540.036 221.504876 
L 540.746182 220.185546 
L 541.456364 219.574069 
L 542.166545 223.966943 
L 542.876727 222.722634 
L 543.586909 223.067184 
L 544.297091 220.811061 
L 545.007273 216.383389 
L 545.717455 220.227477 
L 546.427636 216.217317 
L 547.137818 216.820643 
L 547.848 216.352451 
L 548.558182 214.482351 
L 549.268364 220.170547 
L 549.978545 224.728888 
L 550.688727 227.687022 
L 551.398909 230.111098 
L 552.109091 228.1105 
L 552.819273 229.979628 
L 553.529455 227.361238 
L 554.239636 227.998717 
L 554.949818 229.962936 
L 555.66 237.924884 
L 556.370182 243.003753 
L 557.080364 241.496783 
L 557.790545 246.182353 
L 558.500727 245.404999 
L 559.210909 252.3418 
L 559.921091 251.156469 
L 560.631273 238.481251 
L 561.341455 239.047429 
L 562.051636 237.932283 
L 562.761818 246.380684 
L 563.472 240.412028 
L 564.182182 238.957308 
L 564.892364 240.687575 
L 565.602545 241.042291 
L 566.312727 245.425916 
L 567.022909 238.264077 
L 567.733091 238.060051 
L 568.443273 237.342861 
L 569.153455 235.074889 
L 569.863636 234.596826 
L 570.573818 232.920283 
L 571.284 229.585849 
L 571.994182 230.857188 
L 572.704364 219.042519 
L 573.414545 219.256734 
L 574.124727 215.238591 
L 574.834909 213.144148 
L 575.545091 214.954527 
L 576.965455 219.262682 
L 577.675636 219.501507 
L 578.385818 214.327838 
L 579.096 212.906781 
L 579.806182 215.05001 
L 580.516364 224.04367 
L 581.226545 223.14051 
L 581.936727 228.111414 
L 582.646909 229.390741 
L 583.357091 229.811343 
L 584.067273 228.462705 
L 584.777455 220.287831 
L 585.487636 225.954976 
L 586.197818 227.986276 
L 587.618182 228.730201 
L 588.328364 227.91785 
L 589.038545 227.729586 
L 589.748727 222.332066 
L 590.458909 224.251114 
L 591.169091 220.846845 
L 591.879273 219.361037 
L 592.589455 219.824618 
L 593.299636 217.696345 
L 594.72 223.84017 
L 595.430182 225.748558 
L 596.140364 226.194846 
L 596.850545 225.509796 
L 597.560727 226.551401 
L 598.270909 223.744403 
L 598.981091 226.543828 
L 599.691273 227.312892 
L 601.111636 236.038684 
L 601.821818 236.896755 
L 602.532 230.596205 
L 603.242182 233.367655 
L 603.952364 230.997242 
L 604.662545 231.150094 
L 605.372727 227.850713 
L 606.082909 223.642151 
L 606.793091 215.895655 
L 607.503273 214.518045 
L 608.213455 214.708149 
L 608.923636 212.32007 
L 609.633818 208.267805 
L 610.344 202.444665 
L 611.054182 203.498879 
L 611.764364 200.317755 
L 612.474545 196.185037 
L 613.184727 193.127652 
L 613.894909 191.898871 
L 614.605091 195.361583 
L 615.315273 203.708894 
L 616.025455 199.222059 
L 616.735636 204.097894 
L 617.445818 201.847524 
L 618.156 195.721692 
L 618.866182 197.228991 
L 619.576364 203.901953 
L 620.286545 206.613905 
L 620.996727 206.784554 
L 621.706909 208.734487 
L 622.417091 204.610579 
L 623.127273 199.392346 
L 623.837455 199.767102 
L 624.547636 200.842466 
L 625.257818 199.91088 
L 625.968 200.622536 
L 626.678182 203.313731 
L 627.388364 199.440899 
L 628.098545 199.861335 
L 628.808727 197.734693 
L 629.518909 200.838111 
L 630.229091 198.783955 
L 630.939273 198.159048 
L 631.649455 198.922974 
L 632.359636 194.355285 
L 633.78 182.054536 
L 634.490182 183.24581 
L 635.200364 183.382951 
L 635.910545 184.43043 
L 636.620727 181.372038 
L 637.330909 191.1104 
L 638.041091 188.727627 
L 638.751273 185.232344 
L 639.461455 182.844731 
L 640.881818 187.150401 
L 641.592 187.749474 
L 642.302182 184.470663 
L 643.012364 184.592 
L 644.432727 195.390618 
L 645.142909 202.338522 
L 645.853091 197.702443 
L 646.563273 192.134531 
L 647.273455 196.887953 
L 647.983636 196.424124 
L 648.693818 197.184544 
L 650.114182 190.483753 
L 650.824364 195.937057 
L 651.534545 199.387252 
L 652.244727 194.638153 
L 652.954909 194.39235 
L 653.665091 190.395358 
L 654.375273 188.757983 
L 655.085455 183.053076 
L 655.795636 188.910678 
L 656.505818 197.230283 
L 657.216 197.50037 
L 658.636364 191.951849 
L 659.346545 190.75584 
L 660.056727 188.763524 
L 661.477091 201.892451 
L 662.187273 204.434208 
L 663.607636 210.018672 
L 664.317818 214.912223 
L 665.028 210.933385 
L 665.738182 215.470278 
L 666.448364 207.129548 
L 667.158545 205.696493 
L 667.868727 196.766693 
L 668.578909 194.689969 
L 669.289091 196.539894 
L 669.999273 194.000131 
L 670.709455 200.281083 
L 671.419636 199.333958 
L 672.129818 193.657306 
L 672.84 194.471703 
L 673.550182 194.678018 
L 674.260364 196.041636 
L 674.970545 198.979502 
L 676.390909 200.975139 
L 677.101091 198.918063 
L 677.811273 203.031332 
L 678.521455 200.405637 
L 679.231636 198.991737 
L 679.941818 201.310628 
L 680.652 202.533384 
L 681.362182 198.989445 
L 682.072364 205.041722 
L 682.782545 212.363001 
L 684.202909 219.223549 
L 684.913091 216.222929 
L 685.623273 212.703857 
L 686.333455 203.478422 
L 687.043636 198.892956 
L 687.753818 200.053042 
L 688.464 206.416172 
L 689.174182 206.2737 
L 689.884364 209.392845 
L 690.594545 211.651385 
L 691.304727 213.524093 
L 692.014909 216.54558 
L 692.725091 215.466298 
L 693.435273 206.736056 
L 694.145455 204.992427 
L 694.855636 200.35585 
L 695.565818 200.983892 
L 696.276 200.902131 
L 696.986182 198.149106 
L 697.696364 202.723115 
L 698.406545 197.638093 
L 699.116727 186.124146 
L 699.826909 187.380685 
L 700.537091 186.731604 
L 701.247273 178.126906 
L 701.957455 176.03036 
L 702.667636 174.788079 
L 703.377818 183.585548 
L 704.088 167.474807 
L 704.798182 164.918703 
L 706.218545 154.211734 
L 706.928727 159.753936 
L 707.638909 164.185018 
L 708.349091 162.836389 
L 709.059273 147.499348 
L 709.769455 147.135827 
L 710.479636 145.557179 
L 711.189818 140.997027 
L 711.9 140.814625 
L 712.610182 136.690642 
L 713.320364 134.99943 
L 714.030545 137.351788 
L 714.740727 137.842373 
L 715.450909 141.637707 
L 716.161091 133.042604 
L 716.871273 127.807854 
L 717.581455 124.003668 
L 718.291636 117.786047 
L 719.001818 121.039139 
L 719.712 118.449867 
L 720.422182 119.173124 
L 721.132364 124.43735 
L 721.842545 124.063128 
L 722.552727 120.464926 
L 723.262909 122.994856 
L 723.973091 120.201384 
L 724.683273 119.007733 
L 725.393455 118.985482 
L 726.103636 118.137866 
L 726.813818 121.048421 
L 727.524 118.679688 
L 728.234182 116.797794 
L 728.944364 123.319483 
L 729.654545 123.15479 
L 731.074909 105.507101 
L 731.785091 99.915291 
L 732.495273 105.784855 
L 733.205455 103.7027 
L 733.915636 100.623299 
L 734.625818 103.734047 
L 735.336 107.887327 
L 736.046182 103.86409 
L 736.756364 108.745261 
L 737.466545 110.19371 
L 738.176727 110.902307 
L 738.886909 114.325937 
L 739.597091 115.938595 
L 740.307273 121.801012 
L 741.017455 129.928499 
L 741.727636 132.605423 
L 742.437818 139.80608 
L 743.148 134.777987 
L 743.858182 131.600457 
L 744.568364 130.636922 
L 745.278545 129.273986 
L 745.988727 129.827749 
L 746.698909 128.506407 
L 747.409091 135.250797 
L 748.119273 125.486927 
L 748.829455 121.902254 
L 749.539636 127.815992 
L 750.249818 124.031729 
L 750.96 127.269496 
L 751.670182 129.802899 
L 752.380364 127.050835 
L 753.090545 127.673477 
L 754.510909 121.122718 
L 755.221091 115.769671 
L 755.931273 120.642027 
L 756.641455 126.966237 
L 757.351636 126.918795 
L 758.061818 123.956504 
L 758.772 129.667545 
L 759.482182 123.758736 
L 760.192364 115.830746 
L 760.902545 116.077714 
L 761.612727 117.715823 
L 762.322909 111.667083 
L 763.033091 110.664896 
L 763.743273 106.299383 
L 764.453455 107.317832 
L 765.163636 104.592982 
L 766.584 119.629577 
L 767.294182 120.543343 
L 768.004364 110.056603 
L 768.714545 115.863893 
L 769.424727 119.83468 
L 770.134909 118.362256 
L 770.845091 128.759886 
L 771.555273 128.994065 
L 772.265455 120.45657 
L 772.975636 118.695582 
L 773.685818 116.448942 
L 774.396 110.732004 
L 775.106182 114.721409 
L 775.816364 109.896528 
L 776.526545 107.926749 
L 777.946909 96.853557 
L 778.657091 92.686508 
L 779.367273 94.143547 
L 780.077455 93.808753 
L 780.787636 100.560272 
L 781.497818 100.207252 
L 782.208 91.94347 
L 782.918182 91.141669 
L 783.628364 92.012931 
L 784.338545 93.700508 
L 785.048727 89.411655 
L 785.758909 90.563174 
L 786.469091 86.642373 
L 787.179273 88.507585 
L 787.889455 78.37365 
L 788.599636 82.079539 
L 789.309818 80.55909 
L 790.02 82.441886 
L 791.440364 84.137275 
L 792.150545 85.156012 
L 792.860727 80.985532 
L 793.570909 83.64552 
L 794.281091 81.529548 
L 794.991273 75.556868 
L 795.701455 78.049886 
L 796.411636 79.207724 
L 797.121818 78.02645 
L 797.832 78.347097 
L 798.542182 80.987729 
L 799.252364 77.86226 
L 799.962545 76.408589 
L 800.672727 70.368776 
L 801.382909 70.319001 
L 802.093091 69.240446 
L 802.803273 71.74673 
L 803.513455 74.690166 
L 804.223636 72.844814 
L 804.933818 66.96 
L 805.644 71.509302 
L 806.354182 72.931838 
L 807.064364 74.025788 
L 807.774545 72.075754 
L 808.484727 68.871295 
L 809.194909 74.98141 
L 809.905091 79.890995 
L 810.615273 86.994863 
L 811.325455 86.77904 
L 812.035636 86.323182 
L 812.745818 89.089471 
L 813.456 83.897846 
L 814.166182 81.803695 
L 814.876364 82.047198 
L 815.586545 84.506962 
L 816.296727 80.884457 
L 817.006909 84.665539 
L 817.717091 83.837628 
L 818.427273 83.400276 
L 819.137455 80.687181 
L 819.847636 79.043191 
L 820.557818 84.101333 
L 821.268 90.083043 
L 821.978182 88.525214 
L 822.688364 93.845475 
L 823.398545 88.636198 
L 824.108727 87.36459 
L 824.818909 92.667879 
L 825.529091 92.602113 
L 826.239273 87.654384 
L 826.949455 93.269156 
L 827.659636 88.931635 
L 828.369818 88.926633 
L 829.08 96.601603 
L 829.790182 100.608668 
L 830.500364 96.846917 
L 831.210545 94.09305 
L 831.920727 101.256839 
L 833.341091 108.717233 
L 834.051273 95.776124 
L 834.761455 89.887187 
L 836.181818 88.923444 
L 836.892 94.968592 
L 837.602182 97.725434 
L 839.022545 86.256641 
L 839.732727 85.812588 
L 840.442909 85.548041 
L 841.153091 87.28791 
L 841.863273 83.838044 
L 842.573455 86.296279 
L 843.283636 84.056289 
L 843.993818 89.931997 
L 844.704 88.978427 
L 845.414182 91.513057 
L 846.124364 94.964089 
L 846.834545 103.81251 
L 848.254909 107.54227 
L 848.965091 109.038417 
L 849.675273 104.585536 
L 850.385455 107.543528 
L 851.805818 105.040941 
L 852.516 103.327617 
L 853.226182 98.16899 
L 853.936364 106.057708 
L 854.646545 110.093899 
L 855.356727 107.969873 
L 856.066909 104.737711 
L 856.777091 104.420278 
L 857.487273 105.101988 
L 858.197455 107.003533 
L 858.907636 106.274332 
L 859.617818 102.024977 
L 860.328 94.932269 
L 861.038182 89.300598 
L 861.748364 85.885192 
L 862.458545 85.539816 
L 863.878909 92.944817 
L 864.589091 88.642454 
L 865.299273 91.515412 
L 866.009455 83.429217 
L 866.719636 79.879632 
L 867.429818 77.268202 
L 868.14 73.496623 
L 868.850182 72.675439 
L 869.560364 72.177294 
L 870.270545 73.251298 
L 870.980727 71.34858 
L 871.690909 67.559799 
L 871.690909 67.559799 
" clip-path="url(#p315b2dbb50)" style="fill: none; stroke: #1f77b4; stroke-width: 1.5; stroke-linecap: square"/>
   </g>
   <g id="line2d_13">
    <path d="M 161.509091 159.727917 
L 162.219273 159.130711 
L 162.929455 171.115533 
L 163.639636 154.006771 
L 164.349818 150.423376 
L 165.06 148.660736 
L 165.770182 154.548746 
L 166.480364 162.77098 
L 167.190545 163.962007 
L 167.900727 160.397661 
L 168.610909 165.310519 
L 169.321091 167.482445 
L 170.031273 170.20422 
L 170.741455 170.32839 
L 171.451636 165.925729 
L 172.161818 181.113954 
L 172.872 176.824979 
L 173.582182 179.866219 
L 174.292364 192.150985 
L 175.002545 187.431493 
L 175.712727 185.80612 
L 176.422909 185.711276 
L 177.133091 187.509419 
L 177.843273 194.538419 
L 178.553455 203.576627 
L 179.263636 203.333971 
L 179.973818 199.227431 
L 180.684 210.580514 
L 181.394182 199.892724 
L 182.104364 197.249998 
L 182.814545 197.494981 
L 183.524727 188.063295 
L 184.234909 185.404623 
L 184.945091 183.240022 
L 185.655273 186.301545 
L 186.365455 188.808961 
L 187.075636 190.605755 
L 187.785818 177.893865 
L 188.496 178.523686 
L 189.206182 186.705563 
L 189.916364 183.307936 
L 190.626545 181.274168 
L 191.336727 180.00675 
L 192.046909 180.689772 
L 192.757091 172.69608 
L 193.467273 168.607005 
L 194.177455 160.177304 
L 194.887636 167.750887 
L 195.597818 165.970362 
L 196.308 162.598033 
L 197.018182 162.312542 
L 197.728364 164.960163 
L 198.438545 173.342962 
L 199.148727 166.141256 
L 199.858909 157.510068 
L 200.569091 153.265637 
L 201.279273 150.104899 
L 201.989455 157.998885 
L 202.699636 167.341116 
L 203.409818 178.547234 
L 204.12 166.397734 
L 204.830182 162.005249 
L 205.540364 167.372935 
L 206.250545 160.128543 
L 206.960727 169.25444 
L 207.670909 173.841795 
L 208.381091 166.891037 
L 209.091273 166.008557 
L 209.801455 164.788371 
L 210.511636 158.626052 
L 211.221818 155.703841 
L 211.932 161.898788 
L 212.642182 165.271133 
L 213.352364 156.011633 
L 214.062545 159.193957 
L 214.772727 159.227727 
L 215.482909 145.958955 
L 216.193091 140.747674 
L 216.903273 143.441166 
L 217.613455 141.059036 
L 218.323636 143.083769 
L 219.033818 144.599243 
L 219.744 137.771725 
L 220.454182 129.417481 
L 221.164364 130.196717 
L 221.874545 130.672698 
L 222.584727 138.247417 
L 223.294909 138.535252 
L 224.005091 137.565683 
L 224.715273 137.895767 
L 225.425455 144.510883 
L 226.135636 160.08006 
L 226.845818 153.752872 
L 227.556 156.215166 
L 228.266182 150.854876 
L 228.976364 155.847327 
L 229.686545 148.677348 
L 230.396727 155.739202 
L 231.817091 144.464261 
L 232.527273 141.500784 
L 233.237455 141.939448 
L 233.947636 137.687702 
L 234.657818 146.368693 
L 235.368 163.229718 
L 236.078182 166.396651 
L 236.788364 161.433447 
L 237.498545 166.26849 
L 238.208727 157.913643 
L 238.918909 164.693419 
L 239.629091 165.652424 
L 240.339273 175.289863 
L 241.049455 174.042831 
L 241.759636 181.129394 
L 242.469818 177.072097 
L 243.18 175.142759 
L 243.890182 175.242434 
L 244.600364 178.252537 
L 245.310545 179.521088 
L 246.020727 174.22617 
L 246.730909 174.974196 
L 247.441091 180.612712 
L 248.151273 180.487081 
L 248.861455 185.906429 
L 249.571636 187.054863 
L 250.281818 189.664025 
L 250.992 196.553779 
L 251.702182 194.383857 
L 252.412364 195.479718 
L 253.122545 194.790681 
L 253.832727 192.571522 
L 254.542909 204.776193 
L 255.253091 214.509431 
L 255.963273 215.695159 
L 256.673455 221.620226 
L 257.383636 235.028734 
L 258.093818 240.875748 
L 258.804 242.457427 
L 259.514182 233.693752 
L 260.224364 234.002024 
L 260.934545 233.938024 
L 261.644727 225.785752 
L 262.354909 231.491922 
L 263.775273 220.615531 
L 264.485455 218.209935 
L 265.195636 222.367143 
L 265.905818 213.329045 
L 266.616 211.985332 
L 267.326182 221.069991 
L 268.036364 220.587859 
L 268.746545 222.790631 
L 269.456727 214.241431 
L 270.166909 215.579838 
L 270.877091 219.378211 
L 271.587273 225.665148 
L 272.297455 219.226212 
L 273.007636 221.233836 
L 273.717818 212.166649 
L 274.428 213.402208 
L 275.138182 215.247232 
L 275.848364 211.817711 
L 276.558545 211.049553 
L 277.268727 204.867367 
L 277.978909 214.492512 
L 278.689091 215.573265 
L 280.109455 219.693427 
L 280.819636 219.244427 
L 281.529818 216.015235 
L 282.950182 219.541679 
L 283.660364 217.384345 
L 284.370545 219.990879 
L 285.080727 218.83635 
L 285.790909 223.997109 
L 286.501091 222.950238 
L 287.211273 223.422946 
L 287.921455 226.112678 
L 288.631636 232.71212 
L 289.341818 241.587798 
L 290.052 246.353963 
L 290.762182 249.613849 
L 291.472364 248.805238 
L 292.182545 254.730278 
L 292.892727 257.489959 
L 293.602909 256.041957 
L 294.313091 260.39747 
L 295.023273 257.659657 
L 295.733455 258.732672 
L 296.443636 259.281316 
L 297.153818 265.53856 
L 297.864 259.803853 
L 298.574182 264.108072 
L 299.284364 264.569644 
L 299.994545 262.174431 
L 300.704727 257.48686 
L 301.414909 260.597123 
L 302.125091 271.056444 
L 302.835273 271.555329 
L 303.545455 267.490352 
L 304.255636 266.054245 
L 304.965818 271.12688 
L 305.676 272.737097 
L 306.386182 273.403226 
L 307.096364 277.919412 
L 307.806545 276.26784 
L 308.516727 280.783243 
L 309.226909 274.900567 
L 309.937091 277.016947 
L 310.647273 278.073426 
L 311.357455 280.02131 
L 312.067636 282.415969 
L 312.777818 285.949623 
L 313.488 276.809496 
L 314.198182 277.544842 
L 314.908364 276.344498 
L 315.618545 279.707421 
L 316.328727 279.864754 
L 317.038909 282.108872 
L 317.749091 280.429513 
L 318.459273 286.582496 
L 319.169455 278.3718 
L 319.879636 293.131219 
L 321.3 302.759114 
L 322.720364 293.356397 
L 323.430545 296.876061 
L 324.140727 293.004936 
L 324.850909 292.080772 
L 325.561091 286.253718 
L 326.271273 285.217343 
L 326.981455 280.595296 
L 327.691636 285.588997 
L 328.401818 287.806716 
L 329.112 283.933952 
L 329.822182 289.318318 
L 330.532364 286.849409 
L 331.242545 294.323579 
L 331.952727 294.626894 
L 333.373091 284.240172 
L 334.083273 273.106493 
L 334.793455 276.120832 
L 335.503636 272.154443 
L 336.213818 265.437056 
L 336.924 263.360353 
L 337.634182 256.714522 
L 338.344364 265.44723 
L 339.054545 270.645455 
L 339.764727 273.997528 
L 340.474909 275.071253 
L 341.185091 272.621077 
L 341.895273 280.21698 
L 342.605455 279.472971 
L 343.315636 275.989569 
L 344.025818 285.579225 
L 344.736 284.794623 
L 345.446182 294.961898 
L 346.156364 301.942072 
L 346.866545 295.652282 
L 347.576727 300.817826 
L 348.286909 299.740092 
L 348.997091 306.141759 
L 349.707273 300.146798 
L 350.417455 298.267279 
L 351.127636 295.273475 
L 351.837818 300.052329 
L 352.548 295.937521 
L 353.258182 293.651311 
L 353.968364 295.054311 
L 354.678545 295.562075 
L 355.388727 300.927314 
L 356.098909 303.046349 
L 356.809091 298.344291 
L 357.519273 314.062168 
L 358.229455 320.226605 
L 358.939636 312.175001 
L 359.649818 318.107849 
L 360.36 328.831414 
L 361.070182 321.564032 
L 361.780364 316.677731 
L 362.490545 318.191043 
L 363.200727 328.38498 
L 363.910909 329.649152 
L 364.621091 333.779076 
L 365.331273 340.469391 
L 366.041455 343.514153 
L 366.751636 340.901825 
L 367.461818 333.053024 
L 368.172 334.865725 
L 368.882182 333.286261 
L 369.592364 321.114017 
L 370.302545 319.701533 
L 371.012727 311.605706 
L 371.722909 296.916853 
L 372.433091 291.48313 
L 373.143273 288.61016 
L 373.853455 278.365488 
L 374.563636 277.695329 
L 375.273818 272.512467 
L 375.984 274.979617 
L 376.694182 272.318162 
L 377.404364 272.286097 
L 378.114545 265.786979 
L 378.824727 271.775725 
L 379.534909 270.470547 
L 380.245091 275.819221 
L 380.955273 265.300089 
L 381.665455 268.626059 
L 382.375636 265.042285 
L 383.085818 262.452365 
L 383.796 265.005862 
L 384.506182 263.045889 
L 385.216364 271.44685 
L 385.926545 269.292624 
L 386.636727 266.66307 
L 387.346909 259.90623 
L 388.057091 261.625688 
L 388.767273 262.03274 
L 389.477455 256.674688 
L 390.187636 256.117701 
L 390.897818 254.963798 
L 391.608 255.160769 
L 392.318182 255.617164 
L 393.028364 263.267546 
L 393.738545 257.319178 
L 394.448727 255.645202 
L 395.158909 256.38166 
L 395.869091 264.032427 
L 396.579273 260.357836 
L 397.289455 256.066724 
L 397.999636 264.312696 
L 398.709818 267.949954 
L 399.42 276.563122 
L 400.130182 280.537373 
L 400.840364 270.297412 
L 401.550545 272.284714 
L 402.260727 263.094692 
L 402.970909 267.899887 
L 403.681091 264.215124 
L 404.391273 259.01657 
L 405.101455 250.23862 
L 405.811636 250.85462 
L 406.521818 254.751261 
L 407.232 259.366697 
L 407.942182 258.774775 
L 408.652364 254.351034 
L 409.362545 243.336568 
L 410.072727 234.429387 
L 410.782909 238.419335 
L 411.493091 237.838432 
L 412.203273 230.697844 
L 412.913455 233.786999 
L 413.623636 228.174543 
L 414.333818 230.14411 
L 415.044 222.18699 
L 416.464364 213.441564 
L 417.174545 203.374064 
L 417.884727 207.4014 
L 418.594909 198.501825 
L 419.305091 197.028774 
L 420.015273 196.580353 
L 420.725455 191.452735 
L 421.435636 190.989613 
L 422.145818 188.09583 
L 422.856 178.930542 
L 423.566182 177.081532 
L 424.276364 176.612861 
L 424.986545 187.089629 
L 425.696727 192.58032 
L 426.406909 204.788734 
L 427.827273 196.472437 
L 428.537455 181.079374 
L 429.247636 185.571242 
L 429.957818 189.35085 
L 430.668 187.414377 
L 431.378182 187.977815 
L 432.088364 190.302154 
L 432.798545 183.249767 
L 433.508727 190.263704 
L 434.218909 195.764542 
L 434.929091 197.746279 
L 435.639273 205.863004 
L 436.349455 205.86605 
L 437.059636 209.421732 
L 437.769818 209.242685 
L 438.48 211.556641 
L 439.190182 214.543775 
L 439.900364 218.092102 
L 440.610545 223.670831 
L 441.320727 218.616047 
L 442.030909 226.970754 
L 442.741091 225.471308 
L 443.451273 232.532617 
L 444.161455 242.819543 
L 444.871636 242.832779 
L 445.581818 243.091476 
L 446.292 241.714504 
L 447.712364 225.564943 
L 448.422545 229.699176 
L 449.132727 238.827194 
L 449.842909 233.637528 
L 450.553091 224.196572 
L 451.263273 225.118166 
L 451.973455 233.293556 
L 452.683636 240.173046 
L 453.393818 240.071235 
L 454.104 232.335646 
L 454.814182 225.959178 
L 455.524364 224.699534 
L 456.234545 224.065665 
L 456.944727 226.253369 
L 457.654909 230.801134 
L 459.075273 246.428246 
L 459.785455 240.872513 
L 460.495636 236.605035 
L 461.205818 235.292412 
L 461.916 227.542604 
L 463.336364 220.675517 
L 464.046545 226.069547 
L 464.756727 226.551309 
L 465.466909 238.638203 
L 466.177091 248.28469 
L 466.887273 246.711577 
L 467.597455 240.867319 
L 468.307636 242.137841 
L 469.017818 238.556146 
L 469.728 240.951255 
L 470.438182 241.052158 
L 471.148364 244.167173 
L 471.858545 249.998196 
L 472.568727 259.049452 
L 473.278909 265.353537 
L 473.989091 269.929292 
L 474.699273 275.941758 
L 475.409455 276.751318 
L 476.119636 278.023603 
L 476.829818 281.031941 
L 477.54 281.783731 
L 478.250182 277.715588 
L 478.960364 268.635841 
L 479.670545 277.640432 
L 480.380727 275.079071 
L 481.090909 266.435185 
L 481.801091 264.773822 
L 482.511273 266.492123 
L 483.221455 252.432725 
L 483.931636 258.058527 
L 484.641818 254.882431 
L 486.062182 252.882771 
L 486.772364 252.938504 
L 487.482545 261.698462 
L 488.192727 256.477298 
L 488.902909 265.052631 
L 489.613091 262.416802 
L 490.323273 257.314384 
L 491.743636 244.866857 
L 492.453818 241.947897 
L 493.164 253.674311 
L 493.874182 258.348036 
L 494.584364 253.627384 
L 495.294545 253.286456 
L 496.004727 267.159386 
L 496.714909 264.741389 
L 497.425091 268.203426 
L 498.135273 274.56469 
L 499.555636 275.684277 
L 500.265818 277.730837 
L 500.976 282.020774 
L 501.686182 283.801347 
L 502.396364 282.329856 
L 503.106545 288.863375 
L 503.816727 296.578044 
L 504.526909 309.747005 
L 505.237091 314.580208 
L 505.947273 324.640815 
L 506.657455 322.149401 
L 507.367636 322.705783 
L 508.077818 318.860608 
L 508.788 310.276692 
L 509.498182 312.992209 
L 510.208364 319.225418 
L 510.918545 321.625941 
L 511.628727 316.149011 
L 512.338909 315.331765 
L 513.049091 315.223617 
L 514.469455 324.149539 
L 515.179636 332.905803 
L 515.889818 329.633888 
L 516.6 331.780113 
L 517.310182 331.716201 
L 518.020364 335.094011 
L 518.730545 334.844907 
L 519.440727 336.566383 
L 520.150909 342.686888 
L 520.861091 342.56191 
L 521.571273 343.398667 
L 522.281455 342.960717 
L 522.991636 339.467861 
L 523.701818 334.4536 
L 524.412 325.741526 
L 525.122182 322.455141 
L 525.832364 312.144404 
L 526.542545 307.011297 
L 527.252727 305.334517 
L 527.962909 310.333703 
L 528.673091 307.372689 
L 529.383273 307.710821 
L 530.093455 290.057295 
L 530.803636 294.808426 
L 531.513818 296.931939 
L 532.224 294.049676 
L 532.934182 297.254075 
L 533.644364 289.885339 
L 534.354545 287.251461 
L 535.064727 289.33382 
L 535.774909 289.063493 
L 536.485091 280.941579 
L 537.195273 289.468535 
L 537.905455 293.65733 
L 538.615636 293.708547 
L 539.325818 292.814708 
L 540.036 282.968028 
L 540.746182 281.457944 
L 541.456364 278.857885 
L 542.166545 284.334283 
L 542.876727 280.594191 
L 543.586909 286.374853 
L 544.297091 285.028195 
L 545.007273 273.586458 
L 545.717455 283.632763 
L 547.137818 290.279184 
L 547.848 299.54106 
L 548.558182 296.683334 
L 549.268364 299.787896 
L 549.978545 306.704449 
L 550.688727 310.368881 
L 551.398909 320.866697 
L 552.109091 322.576955 
L 553.529455 316.326568 
L 554.239636 316.517278 
L 554.949818 316.438923 
L 555.66 328.003759 
L 556.370182 334.706944 
L 557.080364 331.324663 
L 557.790545 340.158814 
L 558.500727 344.010312 
L 559.210909 353.850127 
L 559.921091 346.485197 
L 560.631273 329.521109 
L 561.341455 334.010072 
L 562.051636 331.991426 
L 562.761818 335.654413 
L 564.182182 327.176743 
L 564.892364 338.391741 
L 565.602545 338.754404 
L 566.312727 343.777248 
L 567.022909 331.537619 
L 567.733091 326.723544 
L 568.443273 329.209321 
L 569.153455 327.380945 
L 569.863636 326.992628 
L 570.573818 330.923812 
L 571.284 326.021071 
L 571.994182 327.511177 
L 572.704364 315.983711 
L 573.414545 308.716013 
L 574.124727 306.710039 
L 574.834909 307.921308 
L 575.545091 304.765179 
L 576.255273 300.723191 
L 576.965455 307.172194 
L 577.675636 310.50448 
L 578.385818 306.511046 
L 579.096 301.134758 
L 579.806182 301.051868 
L 580.516364 308.460045 
L 581.226545 303.94335 
L 581.936727 313.020285 
L 582.646909 313.137996 
L 583.357091 311.287665 
L 584.067273 317.347104 
L 584.777455 305.380081 
L 585.487636 316.197848 
L 586.197818 318.299846 
L 586.908 320.831244 
L 587.618182 325.36225 
L 588.328364 327.557149 
L 589.038545 323.486173 
L 589.748727 324.483478 
L 590.458909 329.556533 
L 591.169091 326.683107 
L 591.879273 329.547913 
L 592.589455 337.105958 
L 593.299636 329.975069 
L 594.009818 328.385721 
L 594.72 328.956904 
L 596.140364 334.322637 
L 596.850545 331.547751 
L 597.560727 329.668758 
L 598.270909 323.312864 
L 598.981091 327.538377 
L 599.691273 324.333202 
L 600.401455 327.439372 
L 601.111636 329.720082 
L 601.821818 336.4085 
L 602.532 329.399418 
L 603.242182 334.776215 
L 603.952364 329.028711 
L 605.372727 337.619813 
L 606.082909 331.90097 
L 606.793091 329.742036 
L 607.503273 329.885727 
L 608.213455 323.576655 
L 608.923636 319.726107 
L 609.633818 309.584485 
L 611.054182 293.327557 
L 611.764364 292.373991 
L 612.474545 290.564913 
L 613.894909 284.245423 
L 614.605091 289.185995 
L 615.315273 300.468658 
L 616.025455 297.809254 
L 616.735636 304.236808 
L 617.445818 305.388137 
L 618.156 302.72025 
L 619.576364 313.544822 
L 620.286545 310.172056 
L 620.996727 310.387174 
L 621.706909 311.655259 
L 623.127273 300.803111 
L 623.837455 301.938653 
L 624.547636 301.505788 
L 625.968 314.913213 
L 626.678182 326.364084 
L 627.388364 325.324211 
L 628.098545 329.368808 
L 628.808727 322.789737 
L 629.518909 321.927912 
L 630.229091 325.66457 
L 630.939273 328.212735 
L 631.649455 322.856312 
L 632.359636 323.579216 
L 633.069818 316.512083 
L 634.490182 305.422278 
L 635.910545 299.030292 
L 636.620727 298.150902 
L 637.330909 312.027507 
L 638.041091 319.504629 
L 638.751273 313.285164 
L 639.461455 313.17832 
L 640.881818 322.463198 
L 641.592 325.983335 
L 642.302182 319.527642 
L 643.722545 324.421557 
L 645.142909 349.379186 
L 646.563273 337.950432 
L 647.273455 344.811527 
L 647.983636 343.770896 
L 648.693818 344.250901 
L 649.404 338.129699 
L 650.114182 335.461592 
L 650.824364 341.287917 
L 651.534545 344.189728 
L 652.244727 336.07018 
L 652.954909 339.648074 
L 653.665091 329.908128 
L 654.375273 329.900783 
L 655.085455 324.616358 
L 655.795636 330.026871 
L 656.505818 334.004588 
L 657.216 331.623392 
L 657.926182 333.508544 
L 658.636364 329.193579 
L 659.346545 328.824115 
L 660.056727 325.064703 
L 660.766909 335.959449 
L 661.477091 335.184641 
L 662.187273 335.350233 
L 662.897455 345.145292 
L 663.607636 342.899525 
L 664.317818 346.701955 
L 665.028 345.031896 
L 665.738182 345.911552 
L 666.448364 334.916553 
L 667.158545 341.348583 
L 667.868727 334.29957 
L 668.578909 333.495263 
L 669.289091 339.308285 
L 669.999273 335.675336 
L 670.709455 337.50804 
L 671.419636 324.953856 
L 672.129818 318.170233 
L 672.84 320.070219 
L 673.550182 324.426994 
L 674.260364 320.610099 
L 674.970545 322.826516 
L 675.680727 321.166632 
L 676.390909 321.52092 
L 677.101091 316.952107 
L 677.811273 324.949477 
L 678.521455 323.059023 
L 679.231636 318.202374 
L 679.941818 324.409808 
L 680.652 333.345945 
L 681.362182 329.562631 
L 682.072364 336.596295 
L 682.782545 341.917622 
L 683.492727 339.600717 
L 684.202909 341.717028 
L 684.913091 340.728751 
L 685.623273 344.998344 
L 686.333455 336.601718 
L 687.753818 348.393654 
L 688.464 358.845237 
L 689.174182 361.083214 
L 689.884364 365.081997 
L 690.594545 366.928213 
L 691.304727 369.36 
L 692.014909 367.620135 
L 692.725091 364.081852 
L 693.435273 361.826358 
L 694.145455 358.588802 
L 694.855636 360.283249 
L 695.565818 361.597479 
L 696.986182 348.907121 
L 697.696364 357.243453 
L 698.406545 347.507372 
L 699.116727 332.826311 
L 699.826909 331.3199 
L 700.537091 341.543856 
L 701.247273 336.310144 
L 701.957455 335.853076 
L 702.667636 339.652846 
L 703.377818 346.250111 
L 704.088 332.483038 
L 704.798182 328.557573 
L 705.508364 323.163721 
L 706.218545 313.652325 
L 707.638909 328.249779 
L 708.349091 332.334512 
L 709.059273 325.334024 
L 709.769455 325.321836 
L 710.479636 326.024317 
L 711.189818 320.269591 
L 711.9 318.189151 
L 712.610182 313.836234 
L 713.320364 311.78314 
L 714.030545 310.971359 
L 714.740727 305.832595 
L 715.450909 312.333628 
L 716.161091 301.671401 
L 716.871273 297.660752 
L 717.581455 298.44206 
L 718.291636 290.37582 
L 719.001818 289.18981 
L 719.712 288.79394 
L 720.422182 291.490542 
L 721.132364 302.658884 
L 721.842545 295.266772 
L 722.552727 294.945675 
L 723.262909 301.912292 
L 723.973091 296.691749 
L 724.683273 296.666504 
L 725.393455 296.187073 
L 726.103636 289.465857 
L 726.813818 287.92703 
L 727.524 281.742125 
L 728.234182 280.057488 
L 728.944364 286.308457 
L 729.654545 287.567591 
L 731.074909 265.469136 
L 731.785091 263.588277 
L 732.495273 272.043182 
L 733.205455 267.681221 
L 733.915636 252.307968 
L 734.625818 255.320904 
L 735.336 263.856529 
L 736.046182 266.692172 
L 736.756364 277.302108 
L 737.466545 269.81277 
L 738.176727 271.589831 
L 738.886909 276.512514 
L 739.597091 277.089007 
L 741.017455 290.621514 
L 741.727636 293.632754 
L 742.437818 299.242468 
L 743.148 287.530937 
L 743.858182 278.678678 
L 744.568364 279.703366 
L 745.278545 283.5658 
L 745.988727 277.737574 
L 746.698909 267.822976 
L 747.409091 272.804807 
L 748.119273 267.87552 
L 748.829455 260.883662 
L 749.539636 257.389967 
L 750.249818 261.834167 
L 750.96 263.626491 
L 751.670182 267.064726 
L 752.380364 261.955765 
L 753.090545 266.789597 
L 753.800727 266.162627 
L 754.510909 260.030167 
L 755.221091 249.956336 
L 756.641455 278.027588 
L 757.351636 274.095844 
L 758.061818 273.747324 
L 758.772 271.74193 
L 759.482182 263.28615 
L 760.902545 250.644812 
L 761.612727 255.097507 
L 762.322909 244.977749 
L 763.743273 235.011441 
L 764.453455 232.390388 
L 765.163636 225.478799 
L 765.873818 234.17442 
L 766.584 244.68878 
L 767.294182 245.269759 
L 768.004364 222.014059 
L 768.714545 226.574311 
L 769.424727 229.701859 
L 770.134909 234.229425 
L 770.845091 248.098201 
L 771.555273 256.46538 
L 772.265455 248.200942 
L 772.975636 248.688684 
L 774.396 232.384142 
L 775.106182 235.801665 
L 775.816364 222.826469 
L 776.526545 212.663213 
L 777.236727 212.037656 
L 777.946909 208.735583 
L 778.657091 196.15945 
L 779.367273 206.236381 
L 780.077455 200.384508 
L 780.787636 200.302508 
L 781.497818 201.930169 
L 782.208 191.980352 
L 783.628364 194.205625 
L 784.338545 205.349958 
L 785.048727 199.053639 
L 785.758909 199.931587 
L 786.469091 193.522059 
L 787.179273 192.53821 
L 787.889455 187.079292 
L 788.599636 196.443314 
L 789.309818 190.517549 
L 790.02 196.652108 
L 790.730182 204.48125 
L 791.440364 200.635603 
L 792.150545 204.48098 
L 792.860727 198.723092 
L 793.570909 204.247049 
L 794.281091 204.181145 
L 794.991273 203.011118 
L 795.701455 202.478057 
L 796.411636 207.211997 
L 797.121818 206.738352 
L 797.832 207.791846 
L 798.542182 213.201255 
L 799.252364 207.282754 
L 799.962545 209.728873 
L 800.672727 201.415011 
L 801.382909 197.125453 
L 802.093091 193.668227 
L 802.803273 191.283853 
L 803.513455 198.3928 
L 804.223636 190.693841 
L 804.933818 193.611543 
L 805.644 197.065406 
L 806.354182 203.738142 
L 807.064364 197.662893 
L 807.774545 196.926056 
L 808.484727 187.022383 
L 809.194909 184.319547 
L 809.905091 182.998715 
L 810.615273 181.305572 
L 811.325455 189.688685 
L 812.035636 195.733022 
L 812.745818 195.314292 
L 813.456 187.389132 
L 814.166182 181.189739 
L 814.876364 178.339375 
L 815.586545 184.920165 
L 816.296727 178.982404 
L 817.006909 171.308239 
L 817.717091 178.042041 
L 818.427273 188.621946 
L 819.137455 182.517238 
L 819.847636 182.897615 
L 820.557818 187.097849 
L 821.268 188.827634 
L 821.978182 184.018587 
L 822.688364 191.640574 
L 823.398545 190.017967 
L 824.108727 183.541254 
L 824.818909 182.864161 
L 825.529091 187.816267 
L 826.239273 177.937188 
L 826.949455 180.310474 
L 827.659636 181.411015 
L 828.369818 182.834666 
L 829.08 192.922039 
L 829.790182 196.843175 
L 830.500364 198.389378 
L 831.210545 197.565347 
L 831.920727 209.314018 
L 832.630909 215.089892 
L 833.341091 217.451326 
L 834.051273 205.550466 
L 835.471636 198.454408 
L 836.181818 197.477968 
L 836.892 202.231525 
L 837.602182 199.825587 
L 838.312364 202.138518 
L 839.022545 196.093217 
L 839.732727 192.805083 
L 840.442909 190.400647 
L 841.153091 193.487132 
L 841.863273 183.747245 
L 842.573455 192.346931 
L 843.283636 189.343594 
L 843.993818 197.358322 
L 844.704 191.536093 
L 846.124364 204.357981 
L 846.834545 208.883308 
L 847.544727 208.694891 
L 848.254909 214.990456 
L 848.965091 218.052864 
L 849.675273 213.468325 
L 850.385455 216.379889 
L 851.095636 224.237717 
L 851.805818 226.746898 
L 852.516 230.997031 
L 853.226182 226.086428 
L 853.936364 231.962458 
L 854.646545 239.979382 
L 855.356727 240.755661 
L 856.066909 228.162136 
L 856.777091 234.610397 
L 857.487273 229.527884 
L 858.197455 231.797702 
L 858.907636 235.737978 
L 859.617818 227.029972 
L 860.328 223.496633 
L 861.038182 221.24864 
L 861.748364 212.845411 
L 862.458545 213.193945 
L 863.168727 216.753793 
L 863.878909 217.668978 
L 864.589091 215.754457 
L 865.299273 220.904354 
L 866.009455 212.810871 
L 866.719636 206.469126 
L 867.429818 204.537697 
L 868.14 205.978103 
L 868.850182 213.585767 
L 869.560364 204.370328 
L 870.270545 206.889916 
L 870.980727 206.312476 
L 871.690909 199.288462 
L 871.690909 199.288462 
" clip-path="url(#p315b2dbb50)" style="fill: none; stroke: #ff7f0e; stroke-width: 1.5; stroke-linecap: square"/>
   </g>
   <g id="line2d_14">
    <path d="M 162.219273 291.119637 
L 162.929455 290.383171 
L 163.639636 289.154452 
L 165.06 289.142885 
L 167.190545 288.736643 
L 167.900727 288.742668 
L 168.610909 288.505608 
L 171.451636 288.464436 
L 172.161818 287.789956 
L 172.872 287.53393 
L 173.582182 287.479003 
L 174.292364 286.967407 
L 177.843273 286.879402 
L 178.553455 286.164918 
L 179.263636 286.15707 
L 179.973818 286.000453 
L 181.394182 284.982616 
L 184.945091 284.49808 
L 187.075636 284.495017 
L 187.785818 283.796831 
L 188.496 283.794037 
L 189.206182 283.445102 
L 190.626545 283.401029 
L 192.046909 283.420878 
L 192.757091 283.086285 
L 194.177455 283.156585 
L 194.887636 282.720363 
L 197.728364 282.686384 
L 198.438545 282.486374 
L 199.858909 281.76125 
L 200.569091 281.865537 
L 201.279273 281.799369 
L 201.989455 281.469624 
L 202.699636 281.497387 
L 203.409818 280.743295 
L 204.12 279.779585 
L 204.830182 279.902997 
L 205.540364 279.706208 
L 206.250545 279.68961 
L 208.381091 279.289205 
L 211.932 279.16254 
L 212.642182 279.012323 
L 213.352364 278.659992 
L 214.772727 278.6179 
L 215.482909 277.712226 
L 219.033818 277.66662 
L 219.744 277.403191 
L 220.454182 276.92009 
L 222.584727 276.871213 
L 224.715273 276.907074 
L 225.425455 276.557802 
L 226.135636 275.495409 
L 226.845818 275.153545 
L 228.266182 275.300436 
L 229.686545 275.04059 
L 230.396727 275.10272 
L 232.527273 274.737215 
L 233.947636 274.695704 
L 234.657818 274.282653 
L 235.368 273.001788 
L 236.078182 273.040615 
L 236.788364 272.960671 
L 237.498545 272.74243 
L 238.918909 272.098147 
L 239.629091 272.120128 
L 240.339273 271.764648 
L 245.310545 271.63973 
L 246.020727 271.368492 
L 246.730909 271.359038 
L 247.441091 271.192847 
L 250.281818 271.130981 
L 250.992 270.858794 
L 252.412364 270.760441 
L 253.122545 270.760677 
L 253.832727 270.604341 
L 254.542909 269.83743 
L 255.253091 269.553875 
L 255.963273 269.56415 
L 258.093818 268.894015 
L 258.804 268.903078 
L 259.514182 268.143822 
L 260.934545 268.137196 
L 261.644727 267.74986 
L 262.354909 267.67945 
L 263.065091 267.474707 
L 264.485455 267.326062 
L 265.905818 266.657054 
L 268.746545 266.469127 
L 269.456727 266.229341 
L 270.166909 266.263802 
L 270.877091 266.066013 
L 271.587273 266.185213 
L 273.007636 266.058056 
L 273.717818 265.625434 
L 275.848364 265.606021 
L 276.558545 265.61579 
L 277.978909 264.974492 
L 280.819636 265.007804 
L 282.24 264.793739 
L 284.370545 264.684187 
L 285.080727 264.712762 
L 285.790909 264.551616 
L 288.631636 264.463946 
L 289.341818 263.744179 
L 290.052 263.630255 
L 291.472364 263.676237 
L 292.892727 263.50446 
L 294.313091 263.423489 
L 297.153818 263.251881 
L 297.864 263.516609 
L 299.284364 263.514422 
L 300.704727 263.625291 
L 301.414909 263.658356 
L 302.125091 263.400418 
L 317.749091 262.843057 
L 318.459273 262.890453 
L 319.169455 262.274053 
L 319.879636 261.270833 
L 320.589818 261.333801 
L 321.3 261.271392 
L 322.010182 261.337259 
L 322.720364 261.520937 
L 323.430545 261.357836 
L 326.271273 261.216753 
L 326.981455 261.015692 
L 329.112 260.862899 
L 329.822182 260.594327 
L 330.532364 260.544123 
L 331.242545 260.261664 
L 331.952727 260.261988 
L 332.662909 260.377829 
L 333.373091 260.25878 
L 334.083273 259.88058 
L 335.503636 259.774953 
L 336.213818 259.51386 
L 336.924 259.476721 
L 337.634182 259.116259 
L 339.054545 259.063632 
L 340.474909 258.979427 
L 341.185091 259.059505 
L 344.025818 258.749204 
L 345.446182 258.720438 
L 346.156364 258.220904 
L 347.576727 257.991318 
L 356.098909 257.765532 
L 356.809091 257.606321 
L 357.519273 256.94734 
L 358.229455 256.817984 
L 358.939636 256.842093 
L 360.36 256.232923 
L 361.070182 256.296943 
L 363.910909 256.087867 
L 364.621091 256.127674 
L 366.041455 255.839774 
L 366.751636 255.853577 
L 367.461818 255.691792 
L 368.882182 255.641733 
L 369.592364 254.967838 
L 370.302545 254.983548 
L 371.012727 254.725715 
L 371.722909 253.859191 
L 373.143273 253.899869 
L 373.853455 253.441763 
L 375.273818 253.407897 
L 377.404364 253.303184 
L 378.114545 252.927508 
L 378.824727 252.749927 
L 379.534909 252.704786 
L 380.245091 252.508541 
L 380.955273 251.960501 
L 383.796 251.810673 
L 386.636727 251.382771 
L 387.346909 250.994701 
L 388.767273 250.996797 
L 389.477455 250.752723 
L 392.318182 250.717552 
L 393.028364 250.659048 
L 393.738545 250.423494 
L 395.158909 250.509139 
L 395.869091 250.153926 
L 396.579273 250.210602 
L 397.999636 250.055334 
L 398.709818 249.890856 
L 400.130182 249.959583 
L 400.840364 249.614094 
L 401.550545 249.58884 
L 402.260727 249.170938 
L 404.391273 248.815198 
L 405.101455 248.385205 
L 407.942182 248.401948 
L 408.652364 248.33408 
L 410.072727 247.777421 
L 410.782909 247.551246 
L 411.493091 247.516413 
L 412.203273 247.256939 
L 412.913455 247.22926 
L 415.044 246.848761 
L 415.754182 246.935899 
L 416.464364 246.801731 
L 417.174545 246.189372 
L 417.884727 246.068676 
L 418.594909 245.784312 
L 421.435636 245.733147 
L 422.145818 245.534959 
L 422.856 245.109868 
L 424.276364 245.065752 
L 424.986545 244.225749 
L 425.696727 244.094453 
L 426.406909 243.519341 
L 427.117091 243.571326 
L 427.827273 243.498319 
L 428.537455 242.706969 
L 429.957818 242.53362 
L 431.378182 242.567608 
L 432.088364 242.493601 
L 432.798545 242.191432 
L 434.218909 242.142834 
L 434.929091 242.07594 
L 435.639273 241.857876 
L 439.900364 241.792497 
L 440.610545 241.458705 
L 441.320727 241.558201 
L 442.030909 241.363495 
L 442.741091 241.382497 
L 443.451273 241.230637 
L 444.161455 240.890513 
L 446.292 240.86913 
L 447.002182 240.668776 
L 447.712364 240.315225 
L 448.422545 240.250091 
L 449.132727 239.686728 
L 449.842909 239.511578 
L 450.553091 238.970164 
L 451.263273 238.950969 
L 452.683636 238.218223 
L 453.393818 238.218808 
L 454.104 238.065818 
L 454.814182 237.77328 
L 456.944727 237.703767 
L 457.654909 237.460584 
L 459.785455 237.258683 
L 461.205818 237.178548 
L 461.916 236.843608 
L 463.336364 236.89418 
L 464.046545 237.175041 
L 464.756727 237.176012 
L 466.177091 236.529027 
L 466.887273 236.522729 
L 467.597455 236.387955 
L 471.148364 236.304004 
L 471.858545 236.098949 
L 473.278909 235.408387 
L 476.119636 235.194845 
L 478.250182 235.157824 
L 480.380727 234.529221 
L 481.801091 234.60443 
L 482.511273 234.590545 
L 483.221455 233.651359 
L 483.931636 233.580568 
L 484.641818 233.700596 
L 487.482545 233.649737 
L 488.192727 233.659306 
L 489.613091 233.489372 
L 490.323273 233.601853 
L 491.033455 233.443274 
L 491.743636 232.983386 
L 492.453818 232.986458 
L 493.164 232.481321 
L 493.874182 232.491851 
L 494.584364 232.353499 
L 495.294545 232.340307 
L 496.004727 231.832831 
L 497.425091 231.666506 
L 498.135273 231.385372 
L 499.555636 231.390462 
L 501.686182 231.146458 
L 502.396364 231.101983 
L 503.106545 230.839739 
L 503.816727 230.803288 
L 504.526909 230.105457 
L 505.237091 229.926652 
L 505.947273 229.426846 
L 508.077818 229.196143 
L 508.788 228.941787 
L 509.498182 228.872657 
L 510.918545 228.603812 
L 512.338909 228.743756 
L 513.049091 228.743128 
L 513.759273 228.393005 
L 517.310182 228.098448 
L 521.571273 228.059015 
L 522.281455 228.048215 
L 525.122182 227.162027 
L 525.832364 226.471839 
L 526.542545 226.235907 
L 529.383273 226.243957 
L 530.093455 224.997819 
L 532.224 224.806496 
L 532.934182 224.675636 
L 533.644364 224.411011 
L 535.774909 224.351499 
L 536.485091 224.15378 
L 537.195273 223.642452 
L 540.036 223.604764 
L 541.456364 223.577503 
L 542.166545 223.394424 
L 544.297091 223.320728 
L 545.717455 222.641296 
L 546.427636 222.745518 
L 549.268364 222.58862 
L 549.978545 222.348686 
L 552.109091 222.09857 
L 553.529455 222.081572 
L 554.949818 222.081818 
L 555.66 221.381082 
L 556.370182 221.121996 
L 557.080364 221.083206 
L 557.790545 220.768197 
L 558.500727 220.790982 
L 559.210909 220.271534 
L 559.921091 220.205098 
L 560.631273 218.568727 
L 562.051636 218.532254 
L 563.472 218.111833 
L 565.602545 217.914393 
L 566.312727 217.746829 
L 567.022909 217.079733 
L 571.994182 216.964185 
L 572.704364 215.927728 
L 577.675636 215.90499 
L 579.096 215.689616 
L 579.806182 215.690968 
L 580.516364 215.183926 
L 581.226545 215.152882 
L 581.936727 214.809505 
L 584.067273 214.876472 
L 584.777455 214.131975 
L 585.487636 213.665426 
L 588.328364 213.626554 
L 592.589455 213.518885 
L 593.299636 213.403389 
L 594.72 213.429063 
L 596.850545 213.365231 
L 597.560727 213.380126 
L 598.981091 213.154331 
L 599.691273 213.17309 
L 601.821818 212.948709 
L 602.532 212.612634 
L 603.952364 212.39555 
L 604.662545 212.390895 
L 605.372727 212.50614 
L 606.793091 212.195702 
L 608.923636 212.136357 
L 610.344 211.445807 
L 611.764364 211.484752 
L 614.605091 211.195902 
L 615.315273 210.479174 
L 616.025455 210.388367 
L 616.735636 210.149866 
L 617.445818 210.169583 
L 620.286545 209.774431 
L 621.706909 209.755334 
L 623.837455 209.365315 
L 625.968 209.375207 
L 626.678182 209.140687 
L 630.229091 209.069388 
L 632.359636 209.137776 
L 633.78 208.544244 
L 635.910545 208.623074 
L 636.620727 208.602606 
L 637.330909 207.574199 
L 638.041091 207.709784 
L 638.751273 207.544348 
L 640.171636 207.464344 
L 643.722545 207.117883 
L 645.142909 205.92451 
L 646.563273 205.477946 
L 647.273455 205.229749 
L 648.693818 205.223298 
L 653.665091 204.097897 
L 654.375273 204.097806 
L 656.505818 203.375348 
L 659.346545 203.323965 
L 660.056727 203.266965 
L 660.766909 202.703741 
L 662.187273 202.737896 
L 662.897455 202.51387 
L 663.607636 202.557949 
L 665.028 202.365774 
L 665.738182 202.335403 
L 666.448364 201.6375 
L 667.158545 201.707646 
L 667.868727 201.228613 
L 669.289091 201.134064 
L 671.419636 200.885756 
L 672.129818 200.5927 
L 677.101091 200.501547 
L 677.811273 200.251207 
L 679.941818 200.05163 
L 681.362182 199.86644 
L 682.782545 199.245991 
L 683.492727 199.310417 
L 684.913091 199.236205 
L 685.623273 199.350548 
L 686.333455 198.761043 
L 687.043636 198.976955 
L 687.753818 198.927474 
L 688.464 198.42136 
L 689.884364 198.328866 
L 696.986182 197.991966 
L 698.406545 197.325019 
L 699.116727 196.038614 
L 700.537091 196.103522 
L 701.247273 195.7608 
L 702.667636 195.789431 
L 703.377818 195.347741 
L 704.088 193.659817 
L 704.798182 193.583457 
L 705.508364 193.363854 
L 706.928727 192.677656 
L 707.638909 192.424011 
L 708.349091 192.465934 
L 709.059273 191.648852 
L 710.479636 191.657257 
L 711.189818 191.457547 
L 711.9 191.45466 
L 713.320364 191.291622 
L 714.740727 191.32534 
L 715.450909 191.137569 
L 716.161091 190.440148 
L 716.871273 190.280374 
L 717.581455 190.302993 
L 718.291636 189.921321 
L 720.422182 189.928039 
L 721.132364 189.480615 
L 723.262909 189.316641 
L 724.683273 189.205429 
L 726.813818 189.196077 
L 729.654545 188.751792 
L 731.074909 187.267682 
L 731.785091 187.187643 
L 732.495273 186.809974 
L 733.205455 186.740856 
L 733.915636 186.380587 
L 734.625818 186.30926 
L 735.336 186.039472 
L 736.046182 186.126293 
L 736.756364 185.732169 
L 738.176727 185.805141 
L 738.886909 185.676883 
L 739.597091 185.669808 
L 741.017455 184.952693 
L 741.727636 184.891348 
L 742.437818 184.583945 
L 743.148 184.135806 
L 743.858182 183.921744 
L 746.698909 183.894183 
L 748.829455 183.081476 
L 750.249818 183.366697 
L 753.800727 183.109726 
L 754.510909 182.96652 
L 755.931273 182.04805 
L 756.641455 181.356507 
L 758.772 181.434389 
L 760.192364 180.681056 
L 761.612727 180.637684 
L 762.322909 180.17185 
L 763.033091 180.134924 
L 763.743273 179.96467 
L 764.453455 179.984985 
L 765.163636 179.841661 
L 765.873818 179.361996 
L 766.584 178.738813 
L 767.294182 178.734773 
L 768.004364 176.878825 
L 769.424727 176.582777 
L 770.134909 176.63351 
L 770.845091 175.536102 
L 771.555273 175.52119 
L 772.265455 174.984233 
L 772.975636 174.990769 
L 773.685818 174.861433 
L 774.396 174.481188 
L 775.106182 174.377431 
L 775.816364 173.901004 
L 776.526545 173.748653 
L 777.236727 173.723112 
L 777.946909 173.579668 
L 778.657091 173.180853 
L 780.077455 173.054206 
L 781.497818 173.062792 
L 782.208 172.437058 
L 783.628364 172.437659 
L 786.469091 171.890088 
L 787.179273 171.904053 
L 787.889455 171.483055 
L 788.599636 171.218965 
L 791.440364 171.043752 
L 792.150545 171.013939 
L 793.570909 170.719373 
L 797.832 170.626702 
L 799.962545 170.404283 
L 800.672727 170.022143 
L 802.803273 170.037619 
L 804.223636 169.770258 
L 804.933818 169.900926 
L 806.354182 169.709112 
L 807.774545 169.748755 
L 808.484727 169.507238 
L 810.615273 169.773802 
L 812.745818 169.817355 
L 813.456 169.504238 
L 816.296727 169.123841 
L 817.006909 169.344663 
L 818.427273 169.422303 
L 819.137455 169.296258 
L 819.847636 169.301017 
L 821.268 169.060593 
L 821.978182 169.00358 
L 822.688364 168.694979 
L 824.818909 168.595303 
L 825.529091 168.597782 
L 826.239273 168.225803 
L 826.949455 168.124394 
L 828.369818 168.160776 
L 829.08 167.571593 
L 829.790182 167.452019 
L 831.210545 167.479014 
L 831.920727 166.838502 
L 833.341091 166.606648 
L 834.051273 165.434599 
L 834.761455 165.281695 
L 836.181818 165.265469 
L 836.892 165.046782 
L 838.312364 165.197956 
L 839.022545 164.933514 
L 841.153091 164.876694 
L 842.573455 164.460102 
L 843.283636 164.408905 
L 843.993818 164.050524 
L 845.414182 163.889973 
L 846.124364 163.714303 
L 846.834545 163.409576 
L 848.254909 163.328038 
L 848.965091 163.293169 
L 850.385455 163.07227 
L 852.516 163.22265 
L 853.226182 163.029869 
L 854.646545 162.430854 
L 855.356727 162.443402 
L 856.066909 162.133634 
L 858.907636 162.164598 
L 860.328 161.692277 
L 861.038182 161.595932 
L 861.748364 161.377516 
L 863.168727 161.280255 
L 864.589091 161.191236 
L 865.299273 161.07864 
L 866.009455 160.580587 
L 866.719636 160.409278 
L 868.14 160.412237 
L 869.560364 160.424844 
L 870.980727 160.395889 
L 871.690909 160.193363 
L 871.690909 160.193363 
" clip-path="url(#p315b2dbb50)" style="fill: none; stroke: #2ca02c; stroke-width: 1.5; stroke-linecap: square"/>
   </g>
   <g id="patch_3">
    <path d="M 126 384.48 
L 126 51.84 
" style="fill: none; stroke: #000000; stroke-width: 0.8; stroke-linejoin: miter; stroke-linecap: square"/>
   </g>
   <g id="patch_4">
    <path d="M 907.2 384.48 
L 907.2 51.84 
" style="fill: none; stroke: #000000; stroke-width: 0.8; stroke-linejoin: miter; stroke-linecap: square"/>
   </g>
   <g id="patch_5">
    <path d="M 126 384.48 
L 907.2 384.48 
" style="fill: none; stroke: #000000; stroke-width: 0.8; stroke-linejoin: miter; stroke-linecap: square"/>
   </g>
   <g id="patch_6">
    <path d="M 126 51.84 
L 907.2 51.84 
" style="fill: none; stroke: #000000; stroke-width: 0.8; stroke-linejoin: miter; stroke-linecap: square"/>
   </g>
   <g id="text_14">
    <!-- Quadratic Covariation of $X_t$ and $S_t$ -->
    <g transform="translate(414.54 45.84)scale(0.12 -0.12)">
     <defs>
      <path id="DejaVuSans-66" d="M 2375 4863 
L 2375 4384 
L 1825 4384 
Q 1516 4384 1395 4259 
Q 1275 4134 1275 3809 
L 1275 3500 
L 2222 3500 
L 2222 3053 
L 1275 3053 
L 1275 0 
L 697 0 
L 697 3053 
L 147 3053 
L 147 3500 
L 697 3500 
L 697 3744 
Q 697 4328 969 4595 
Q 1241 4863 1831 4863 
L 2375 4863 
z
" transform="scale(0.015625)"/>
      <path id="DejaVuSans-Oblique-58" d="M 878 4666 
L 1516 4666 
L 2316 2981 
L 3763 4666 
L 4500 4666 
L 2578 2438 
L 3738 0 
L 3103 0 
L 2163 1966 
L 459 0 
L -275 0 
L 1906 2509 
L 878 4666 
z
" transform="scale(0.015625)"/>
      <path id="DejaVuSans-Oblique-74" d="M 2706 3500 
L 2619 3053 
L 1472 3053 
L 1100 1153 
Q 1081 1047 1072 975 
Q 1063 903 1063 863 
Q 1063 663 1183 572 
Q 1303 481 1569 481 
L 2150 481 
L 2053 0 
L 1503 0 
Q 991 0 739 200 
Q 488 400 488 806 
Q 488 878 497 964 
Q 506 1050 525 1153 
L 897 3053 
L 409 3053 
L 500 3500 
L 978 3500 
L 1172 4494 
L 1747 4494 
L 1556 3500 
L 2706 3500 
z
" transform="scale(0.015625)"/>
      <path id="DejaVuSans-Oblique-53" d="M 3859 4513 
L 3738 3897 
Q 3422 4066 3111 4152 
Q 2800 4238 2509 4238 
Q 1944 4238 1609 3991 
Q 1275 3744 1275 3334 
Q 1275 3109 1398 2989 
Q 1522 2869 2034 2731 
L 2413 2638 
Q 3053 2472 3303 2217 
Q 3553 1963 3553 1503 
Q 3553 797 2998 353 
Q 2444 -91 1538 -91 
Q 1166 -91 791 -17 
Q 416 56 38 206 
L 166 856 
Q 513 641 861 531 
Q 1209 422 1556 422 
Q 2147 422 2503 684 
Q 2859 947 2859 1369 
Q 2859 1650 2717 1795 
Q 2575 1941 2106 2059 
L 1728 2156 
Q 1081 2325 845 2545 
Q 609 2766 609 3163 
Q 609 3859 1145 4304 
Q 1681 4750 2541 4750 
Q 2875 4750 3203 4690 
Q 3531 4631 3859 4513 
z
" transform="scale(0.015625)"/>
     </defs>
     <use xlink:href="#DejaVuSans-51" transform="translate(0 0.015625)"/>
     <use xlink:href="#DejaVuSans-75" transform="translate(78.710938 0.015625)"/>
     <use xlink:href="#DejaVuSans-61" transform="translate(142.089844 0.015625)"/>
     <use xlink:href="#DejaVuSans-64" transform="translate(203.369141 0.015625)"/>
     <use xlink:href="#DejaVuSans-72" transform="translate(266.845703 0.015625)"/>
     <use xlink:href="#DejaVuSans-61" transform="translate(307.958984 0.015625)"/>
     <use xlink:href="#DejaVuSans-74" transform="translate(369.238281 0.015625)"/>
     <use xlink:href="#DejaVuSans-69" transform="translate(408.447266 0.015625)"/>
     <use xlink:href="#DejaVuSans-63" transform="translate(436.230469 0.015625)"/>
     <use xlink:href="#DejaVuSans-20" transform="translate(491.210938 0.015625)"/>
     <use xlink:href="#DejaVuSans-43" transform="translate(522.998047 0.015625)"/>
     <use xlink:href="#DejaVuSans-6f" transform="translate(592.822266 0.015625)"/>
     <use xlink:href="#DejaVuSans-76" transform="translate(654.003906 0.015625)"/>
     <use xlink:href="#DejaVuSans-61" transform="translate(713.183594 0.015625)"/>
     <use xlink:href="#DejaVuSans-72" transform="translate(774.462891 0.015625)"/>
     <use xlink:href="#DejaVuSans-69" transform="translate(815.576172 0.015625)"/>
     <use xlink:href="#DejaVuSans-61" transform="translate(843.359375 0.015625)"/>
     <use xlink:href="#DejaVuSans-74" transform="translate(904.638672 0.015625)"/>
     <use xlink:href="#DejaVuSans-69" transform="translate(943.847656 0.015625)"/>
     <use xlink:href="#DejaVuSans-6f" transform="translate(971.630859 0.015625)"/>
     <use xlink:href="#DejaVuSans-6e" transform="translate(1032.8125 0.015625)"/>
     <use xlink:href="#DejaVuSans-20" transform="translate(1096.191406 0.015625)"/>
     <use xlink:href="#DejaVuSans-6f" transform="translate(1127.978516 0.015625)"/>
     <use xlink:href="#DejaVuSans-66" transform="translate(1189.160156 0.015625)"/>
     <use xlink:href="#DejaVuSans-20" transform="translate(1224.365234 0.015625)"/>
     <use xlink:href="#DejaVuSans-Oblique-58" transform="translate(1256.152344 0.015625)"/>
     <use xlink:href="#DejaVuSans-Oblique-74" transform="translate(1324.658203 -16.390625)scale(0.7)"/>
     <use xlink:href="#DejaVuSans-20" transform="translate(1354.838867 0.015625)"/>
     <use xlink:href="#DejaVuSans-61" transform="translate(1386.625977 0.015625)"/>
     <use xlink:href="#DejaVuSans-6e" transform="translate(1447.905273 0.015625)"/>
     <use xlink:href="#DejaVuSans-64" transform="translate(1511.28418 0.015625)"/>
     <use xlink:href="#DejaVuSans-20" transform="translate(1574.760742 0.015625)"/>
     <use xlink:href="#DejaVuSans-Oblique-53" transform="translate(1606.547852 0.015625)"/>
     <use xlink:href="#DejaVuSans-Oblique-74" transform="translate(1670.024414 -16.390625)scale(0.7)"/>
    </g>
   </g>
   <g id="legend_1">
    <g id="patch_7">
     <path d="M 133 103.874375 
L 335.1 103.874375 
Q 337.1 103.874375 337.1 101.874375 
L 337.1 58.84 
Q 337.1 56.84 335.1 56.84 
L 133 56.84 
Q 131 56.84 131 58.84 
L 131 101.874375 
Q 131 103.874375 133 103.874375 
z
" style="fill: #ffffff; opacity: 0.8; stroke: #cccccc; stroke-linejoin: miter"/>
    </g>
    <g id="line2d_15">
     <path d="M 135 64.938437 
L 145 64.938437 
L 155 64.938437 
" style="fill: none; stroke: #1f77b4; stroke-width: 1.5; stroke-linecap: square"/>
    </g>
    <g id="text_15">
     <!-- $X_t$ -->
     <g transform="translate(163 68.438437)scale(0.1 -0.1)">
      <use xlink:href="#DejaVuSans-Oblique-58" transform="translate(0 0.09375)"/>
      <use xlink:href="#DejaVuSans-Oblique-74" transform="translate(68.505859 -16.3125)scale(0.7)"/>
     </g>
    </g>
    <g id="line2d_16">
     <path d="M 135 79.616562 
L 145 79.616562 
L 155 79.616562 
" style="fill: none; stroke: #ff7f0e; stroke-width: 1.5; stroke-linecap: square"/>
    </g>
    <g id="text_16">
     <!-- $S_t$ -->
     <g transform="translate(163 83.116562)scale(0.1 -0.1)">
      <use xlink:href="#DejaVuSans-Oblique-53" transform="translate(0 0.78125)"/>
      <use xlink:href="#DejaVuSans-Oblique-74" transform="translate(63.476562 -15.625)scale(0.7)"/>
     </g>
    </g>
    <g id="line2d_17">
     <path d="M 135 94.294687 
L 145 94.294687 
L 155 94.294687 
" style="fill: none; stroke: #2ca02c; stroke-width: 1.5; stroke-linecap: square"/>
    </g>
    <g id="text_17">
     <!-- Quadratic Covariation of $X_t$ and $S_t$ -->
     <g transform="translate(163 97.794687)scale(0.1 -0.1)">
      <use xlink:href="#DejaVuSans-51" transform="translate(0 0.015625)"/>
      <use xlink:href="#DejaVuSans-75" transform="translate(78.710938 0.015625)"/>
      <use xlink:href="#DejaVuSans-61" transform="translate(142.089844 0.015625)"/>
      <use xlink:href="#DejaVuSans-64" transform="translate(203.369141 0.015625)"/>
      <use xlink:href="#DejaVuSans-72" transform="translate(266.845703 0.015625)"/>
      <use xlink:href="#DejaVuSans-61" transform="translate(307.958984 0.015625)"/>
      <use xlink:href="#DejaVuSans-74" transform="translate(369.238281 0.015625)"/>
      <use xlink:href="#DejaVuSans-69" transform="translate(408.447266 0.015625)"/>
      <use xlink:href="#DejaVuSans-63" transform="translate(436.230469 0.015625)"/>
      <use xlink:href="#DejaVuSans-20" transform="translate(491.210938 0.015625)"/>
      <use xlink:href="#DejaVuSans-43" transform="translate(522.998047 0.015625)"/>
      <use xlink:href="#DejaVuSans-6f" transform="translate(592.822266 0.015625)"/>
      <use xlink:href="#DejaVuSans-76" transform="translate(654.003906 0.015625)"/>
      <use xlink:href="#DejaVuSans-61" transform="translate(713.183594 0.015625)"/>
      <use xlink:href="#DejaVuSans-72" transform="translate(774.462891 0.015625)"/>
      <use xlink:href="#DejaVuSans-69" transform="translate(815.576172 0.015625)"/>
      <use xlink:href="#DejaVuSans-61" transform="translate(843.359375 0.015625)"/>
      <use xlink:href="#DejaVuSans-74" transform="translate(904.638672 0.015625)"/>
      <use xlink:href="#DejaVuSans-69" transform="translate(943.847656 0.015625)"/>
      <use xlink:href="#DejaVuSans-6f" transform="translate(971.630859 0.015625)"/>
      <use xlink:href="#DejaVuSans-6e" transform="translate(1032.8125 0.015625)"/>
      <use xlink:href="#DejaVuSans-20" transform="translate(1096.191406 0.015625)"/>
      <use xlink:href="#DejaVuSans-6f" transform="translate(1127.978516 0.015625)"/>
      <use xlink:href="#DejaVuSans-66" transform="translate(1189.160156 0.015625)"/>
      <use xlink:href="#DejaVuSans-20" transform="translate(1224.365234 0.015625)"/>
      <use xlink:href="#DejaVuSans-Oblique-58" transform="translate(1256.152344 0.015625)"/>
      <use xlink:href="#DejaVuSans-Oblique-74" transform="translate(1324.658203 -16.390625)scale(0.7)"/>
      <use xlink:href="#DejaVuSans-20" transform="translate(1354.838867 0.015625)"/>
      <use xlink:href="#DejaVuSans-61" transform="translate(1386.625977 0.015625)"/>
      <use xlink:href="#DejaVuSans-6e" transform="translate(1447.905273 0.015625)"/>
      <use xlink:href="#DejaVuSans-64" transform="translate(1511.28418 0.015625)"/>
      <use xlink:href="#DejaVuSans-20" transform="translate(1574.760742 0.015625)"/>
      <use xlink:href="#DejaVuSans-Oblique-53" transform="translate(1606.547852 0.015625)"/>
      <use xlink:href="#DejaVuSans-Oblique-74" transform="translate(1670.024414 -16.390625)scale(0.7)"/>
     </g>
    </g>
   </g>
  </g>
 </g>
 <defs>
  <clipPath id="p315b2dbb50">
   <rect x="126" y="51.84" width="781.2" height="332.64"/>
  </clipPath>
 </defs>
</svg>
