<?xml version="1.0" encoding="utf-8" standalone="no"?>
<!DOCTYPE svg PUBLIC "-//W3C//DTD SVG 1.1//EN"
  "http://www.w3.org/Graphics/SVG/1.1/DTD/svg11.dtd">
<svg xmlns:xlink="http://www.w3.org/1999/xlink" width="1008pt" height="432pt" viewBox="0 0 1008 432" xmlns="http://www.w3.org/2000/svg" version="1.1">
 <metadata>
  <rdf:RDF xmlns:dc="http://purl.org/dc/elements/1.1/" xmlns:cc="http://creativecommons.org/ns#" xmlns:rdf="http://www.w3.org/1999/02/22-rdf-syntax-ns#">
   <cc:Work>
    <dc:type rdf:resource="http://purl.org/dc/dcmitype/StillImage"/>
    <dc:date>2023-12-22T17:12:39.173093</dc:date>
    <dc:format>image/svg+xml</dc:format>
    <dc:creator>
     <cc:Agent>
      <dc:title>Matplotlib v3.5.2, https://matplotlib.org/</dc:title>
     </cc:Agent>
    </dc:creator>
   </cc:Work>
  </rdf:RDF>
 </metadata>
 <defs>
  <style type="text/css">*{stroke-linejoin: round; stroke-linecap: butt}</style>
 </defs>
 <g id="figure_1">
  <g id="patch_1">
   <path d="M 0 432 
L 1008 432 
L 1008 0 
L 0 0 
z
" style="fill: #ffffff"/>
  </g>
  <g id="axes_1">
   <g id="patch_2">
    <path d="M 126 384.48 
L 907.2 384.48 
L 907.2 51.84 
L 126 51.84 
z
" style="fill: #ffffff"/>
   </g>
   <g id="matplotlib.axis_1">
    <g id="xtick_1">
     <g id="line2d_1">
      <defs>
       <path id="mdc329409fb" d="M 0 0 
L 0 3.5 
" style="stroke: #000000; stroke-width: 0.8"/>
      </defs>
      <g>
       <use xlink:href="#mdc329409fb" x="161.509091" y="384.48" style="stroke: #000000; stroke-width: 0.8"/>
      </g>
     </g>
     <g id="text_1">
      <!-- 0.0 -->
      <g transform="translate(153.557528 399.078438)scale(0.1 -0.1)">
       <defs>
        <path id="DejaVuSans-30" d="M 2034 4250 
Q 1547 4250 1301 3770 
Q 1056 3291 1056 2328 
Q 1056 1369 1301 889 
Q 1547 409 2034 409 
Q 2525 409 2770 889 
Q 3016 1369 3016 2328 
Q 3016 3291 2770 3770 
Q 2525 4250 2034 4250 
z
M 2034 4750 
Q 2819 4750 3233 4129 
Q 3647 3509 3647 2328 
Q 3647 1150 3233 529 
Q 2819 -91 2034 -91 
Q 1250 -91 836 529 
Q 422 1150 422 2328 
Q 422 3509 836 4129 
Q 1250 4750 2034 4750 
z
" transform="scale(0.015625)"/>
        <path id="DejaVuSans-2e" d="M 684 794 
L 1344 794 
L 1344 0 
L 684 0 
L 684 794 
z
" transform="scale(0.015625)"/>
       </defs>
       <use xlink:href="#DejaVuSans-30"/>
       <use xlink:href="#DejaVuSans-2e" x="63.623047"/>
       <use xlink:href="#DejaVuSans-30" x="95.410156"/>
      </g>
     </g>
    </g>
    <g id="xtick_2">
     <g id="line2d_2">
      <g>
       <use xlink:href="#mdc329409fb" x="303.545455" y="384.48" style="stroke: #000000; stroke-width: 0.8"/>
      </g>
     </g>
     <g id="text_2">
      <!-- 0.2 -->
      <g transform="translate(295.593892 399.078438)scale(0.1 -0.1)">
       <defs>
        <path id="DejaVuSans-32" d="M 1228 531 
L 3431 531 
L 3431 0 
L 469 0 
L 469 531 
Q 828 903 1448 1529 
Q 2069 2156 2228 2338 
Q 2531 2678 2651 2914 
Q 2772 3150 2772 3378 
Q 2772 3750 2511 3984 
Q 2250 4219 1831 4219 
Q 1534 4219 1204 4116 
Q 875 4013 500 3803 
L 500 4441 
Q 881 4594 1212 4672 
Q 1544 4750 1819 4750 
Q 2544 4750 2975 4387 
Q 3406 4025 3406 3419 
Q 3406 3131 3298 2873 
Q 3191 2616 2906 2266 
Q 2828 2175 2409 1742 
Q 1991 1309 1228 531 
z
" transform="scale(0.015625)"/>
       </defs>
       <use xlink:href="#DejaVuSans-30"/>
       <use xlink:href="#DejaVuSans-2e" x="63.623047"/>
       <use xlink:href="#DejaVuSans-32" x="95.410156"/>
      </g>
     </g>
    </g>
    <g id="xtick_3">
     <g id="line2d_3">
      <g>
       <use xlink:href="#mdc329409fb" x="445.581818" y="384.48" style="stroke: #000000; stroke-width: 0.8"/>
      </g>
     </g>
     <g id="text_3">
      <!-- 0.4 -->
      <g transform="translate(437.630256 399.078438)scale(0.1 -0.1)">
       <defs>
        <path id="DejaVuSans-34" d="M 2419 4116 
L 825 1625 
L 2419 1625 
L 2419 4116 
z
M 2253 4666 
L 3047 4666 
L 3047 1625 
L 3713 1625 
L 3713 1100 
L 3047 1100 
L 3047 0 
L 2419 0 
L 2419 1100 
L 313 1100 
L 313 1709 
L 2253 4666 
z
" transform="scale(0.015625)"/>
       </defs>
       <use xlink:href="#DejaVuSans-30"/>
       <use xlink:href="#DejaVuSans-2e" x="63.623047"/>
       <use xlink:href="#DejaVuSans-34" x="95.410156"/>
      </g>
     </g>
    </g>
    <g id="xtick_4">
     <g id="line2d_4">
      <g>
       <use xlink:href="#mdc329409fb" x="587.618182" y="384.48" style="stroke: #000000; stroke-width: 0.8"/>
      </g>
     </g>
     <g id="text_4">
      <!-- 0.6 -->
      <g transform="translate(579.666619 399.078438)scale(0.1 -0.1)">
       <defs>
        <path id="DejaVuSans-36" d="M 2113 2584 
Q 1688 2584 1439 2293 
Q 1191 2003 1191 1497 
Q 1191 994 1439 701 
Q 1688 409 2113 409 
Q 2538 409 2786 701 
Q 3034 994 3034 1497 
Q 3034 2003 2786 2293 
Q 2538 2584 2113 2584 
z
M 3366 4563 
L 3366 3988 
Q 3128 4100 2886 4159 
Q 2644 4219 2406 4219 
Q 1781 4219 1451 3797 
Q 1122 3375 1075 2522 
Q 1259 2794 1537 2939 
Q 1816 3084 2150 3084 
Q 2853 3084 3261 2657 
Q 3669 2231 3669 1497 
Q 3669 778 3244 343 
Q 2819 -91 2113 -91 
Q 1303 -91 875 529 
Q 447 1150 447 2328 
Q 447 3434 972 4092 
Q 1497 4750 2381 4750 
Q 2619 4750 2861 4703 
Q 3103 4656 3366 4563 
z
" transform="scale(0.015625)"/>
       </defs>
       <use xlink:href="#DejaVuSans-30"/>
       <use xlink:href="#DejaVuSans-2e" x="63.623047"/>
       <use xlink:href="#DejaVuSans-36" x="95.410156"/>
      </g>
     </g>
    </g>
    <g id="xtick_5">
     <g id="line2d_5">
      <g>
       <use xlink:href="#mdc329409fb" x="729.654545" y="384.48" style="stroke: #000000; stroke-width: 0.8"/>
      </g>
     </g>
     <g id="text_5">
      <!-- 0.8 -->
      <g transform="translate(721.702983 399.078438)scale(0.1 -0.1)">
       <defs>
        <path id="DejaVuSans-38" d="M 2034 2216 
Q 1584 2216 1326 1975 
Q 1069 1734 1069 1313 
Q 1069 891 1326 650 
Q 1584 409 2034 409 
Q 2484 409 2743 651 
Q 3003 894 3003 1313 
Q 3003 1734 2745 1975 
Q 2488 2216 2034 2216 
z
M 1403 2484 
Q 997 2584 770 2862 
Q 544 3141 544 3541 
Q 544 4100 942 4425 
Q 1341 4750 2034 4750 
Q 2731 4750 3128 4425 
Q 3525 4100 3525 3541 
Q 3525 3141 3298 2862 
Q 3072 2584 2669 2484 
Q 3125 2378 3379 2068 
Q 3634 1759 3634 1313 
Q 3634 634 3220 271 
Q 2806 -91 2034 -91 
Q 1263 -91 848 271 
Q 434 634 434 1313 
Q 434 1759 690 2068 
Q 947 2378 1403 2484 
z
M 1172 3481 
Q 1172 3119 1398 2916 
Q 1625 2713 2034 2713 
Q 2441 2713 2670 2916 
Q 2900 3119 2900 3481 
Q 2900 3844 2670 4047 
Q 2441 4250 2034 4250 
Q 1625 4250 1398 4047 
Q 1172 3844 1172 3481 
z
" transform="scale(0.015625)"/>
       </defs>
       <use xlink:href="#DejaVuSans-30"/>
       <use xlink:href="#DejaVuSans-2e" x="63.623047"/>
       <use xlink:href="#DejaVuSans-38" x="95.410156"/>
      </g>
     </g>
    </g>
    <g id="xtick_6">
     <g id="line2d_6">
      <g>
       <use xlink:href="#mdc329409fb" x="871.690909" y="384.48" style="stroke: #000000; stroke-width: 0.8"/>
      </g>
     </g>
     <g id="text_6">
      <!-- 1.0 -->
      <g transform="translate(863.739347 399.078438)scale(0.1 -0.1)">
       <defs>
        <path id="DejaVuSans-31" d="M 794 531 
L 1825 531 
L 1825 4091 
L 703 3866 
L 703 4441 
L 1819 4666 
L 2450 4666 
L 2450 531 
L 3481 531 
L 3481 0 
L 794 0 
L 794 531 
z
" transform="scale(0.015625)"/>
       </defs>
       <use xlink:href="#DejaVuSans-31"/>
       <use xlink:href="#DejaVuSans-2e" x="63.623047"/>
       <use xlink:href="#DejaVuSans-30" x="95.410156"/>
      </g>
     </g>
    </g>
    <g id="text_7">
     <!-- Time -->
     <g transform="translate(504.366406 412.756563)scale(0.1 -0.1)">
      <defs>
       <path id="DejaVuSans-54" d="M -19 4666 
L 3928 4666 
L 3928 4134 
L 2272 4134 
L 2272 0 
L 1638 0 
L 1638 4134 
L -19 4134 
L -19 4666 
z
" transform="scale(0.015625)"/>
       <path id="DejaVuSans-69" d="M 603 3500 
L 1178 3500 
L 1178 0 
L 603 0 
L 603 3500 
z
M 603 4863 
L 1178 4863 
L 1178 4134 
L 603 4134 
L 603 4863 
z
" transform="scale(0.015625)"/>
       <path id="DejaVuSans-6d" d="M 3328 2828 
Q 3544 3216 3844 3400 
Q 4144 3584 4550 3584 
Q 5097 3584 5394 3201 
Q 5691 2819 5691 2113 
L 5691 0 
L 5113 0 
L 5113 2094 
Q 5113 2597 4934 2840 
Q 4756 3084 4391 3084 
Q 3944 3084 3684 2787 
Q 3425 2491 3425 1978 
L 3425 0 
L 2847 0 
L 2847 2094 
Q 2847 2600 2669 2842 
Q 2491 3084 2119 3084 
Q 1678 3084 1418 2786 
Q 1159 2488 1159 1978 
L 1159 0 
L 581 0 
L 581 3500 
L 1159 3500 
L 1159 2956 
Q 1356 3278 1631 3431 
Q 1906 3584 2284 3584 
Q 2666 3584 2933 3390 
Q 3200 3197 3328 2828 
z
" transform="scale(0.015625)"/>
       <path id="DejaVuSans-65" d="M 3597 1894 
L 3597 1613 
L 953 1613 
Q 991 1019 1311 708 
Q 1631 397 2203 397 
Q 2534 397 2845 478 
Q 3156 559 3463 722 
L 3463 178 
Q 3153 47 2828 -22 
Q 2503 -91 2169 -91 
Q 1331 -91 842 396 
Q 353 884 353 1716 
Q 353 2575 817 3079 
Q 1281 3584 2069 3584 
Q 2775 3584 3186 3129 
Q 3597 2675 3597 1894 
z
M 3022 2063 
Q 3016 2534 2758 2815 
Q 2500 3097 2075 3097 
Q 1594 3097 1305 2825 
Q 1016 2553 972 2059 
L 3022 2063 
z
" transform="scale(0.015625)"/>
      </defs>
      <use xlink:href="#DejaVuSans-54"/>
      <use xlink:href="#DejaVuSans-69" x="57.958984"/>
      <use xlink:href="#DejaVuSans-6d" x="85.742188"/>
      <use xlink:href="#DejaVuSans-65" x="183.154297"/>
     </g>
    </g>
   </g>
   <g id="matplotlib.axis_2">
    <g id="ytick_1">
     <g id="line2d_7">
      <defs>
       <path id="m14fccabde5" d="M 0 0 
L -3.5 0 
" style="stroke: #000000; stroke-width: 0.8"/>
      </defs>
      <g>
       <use xlink:href="#m14fccabde5" x="126" y="369.352423" style="stroke: #000000; stroke-width: 0.8"/>
      </g>
     </g>
     <g id="text_8">
      <!-- 0 -->
      <g transform="translate(112.6375 373.151642)scale(0.1 -0.1)">
       <use xlink:href="#DejaVuSans-30"/>
      </g>
     </g>
    </g>
    <g id="ytick_2">
     <g id="line2d_8">
      <g>
       <use xlink:href="#m14fccabde5" x="126" y="311.588286" style="stroke: #000000; stroke-width: 0.8"/>
      </g>
     </g>
     <g id="text_9">
      <!-- 2 -->
      <g transform="translate(112.6375 315.387505)scale(0.1 -0.1)">
       <use xlink:href="#DejaVuSans-32"/>
      </g>
     </g>
    </g>
    <g id="ytick_3">
     <g id="line2d_9">
      <g>
       <use xlink:href="#m14fccabde5" x="126" y="253.824149" style="stroke: #000000; stroke-width: 0.8"/>
      </g>
     </g>
     <g id="text_10">
      <!-- 4 -->
      <g transform="translate(112.6375 257.623368)scale(0.1 -0.1)">
       <use xlink:href="#DejaVuSans-34"/>
      </g>
     </g>
    </g>
    <g id="ytick_4">
     <g id="line2d_10">
      <g>
       <use xlink:href="#m14fccabde5" x="126" y="196.060012" style="stroke: #000000; stroke-width: 0.8"/>
      </g>
     </g>
     <g id="text_11">
      <!-- 6 -->
      <g transform="translate(112.6375 199.859231)scale(0.1 -0.1)">
       <use xlink:href="#DejaVuSans-36"/>
      </g>
     </g>
    </g>
    <g id="ytick_5">
     <g id="line2d_11">
      <g>
       <use xlink:href="#m14fccabde5" x="126" y="138.295875" style="stroke: #000000; stroke-width: 0.8"/>
      </g>
     </g>
     <g id="text_12">
      <!-- 8 -->
      <g transform="translate(112.6375 142.095094)scale(0.1 -0.1)">
       <use xlink:href="#DejaVuSans-38"/>
      </g>
     </g>
    </g>
    <g id="ytick_6">
     <g id="line2d_12">
      <g>
       <use xlink:href="#m14fccabde5" x="126" y="80.531739" style="stroke: #000000; stroke-width: 0.8"/>
      </g>
     </g>
     <g id="text_13">
      <!-- 10 -->
      <g transform="translate(106.275 84.330957)scale(0.1 -0.1)">
       <use xlink:href="#DejaVuSans-31"/>
       <use xlink:href="#DejaVuSans-30" x="63.623047"/>
      </g>
     </g>
    </g>
    <g id="text_14">
     <!-- Quadratic Covariation -->
     <g transform="translate(100.195312 272.970156)rotate(-90)scale(0.1 -0.1)">
      <defs>
       <path id="DejaVuSans-51" d="M 2522 4238 
Q 1834 4238 1429 3725 
Q 1025 3213 1025 2328 
Q 1025 1447 1429 934 
Q 1834 422 2522 422 
Q 3209 422 3611 934 
Q 4013 1447 4013 2328 
Q 4013 3213 3611 3725 
Q 3209 4238 2522 4238 
z
M 3406 84 
L 4238 -825 
L 3475 -825 
L 2784 -78 
Q 2681 -84 2626 -87 
Q 2572 -91 2522 -91 
Q 1538 -91 948 567 
Q 359 1225 359 2328 
Q 359 3434 948 4092 
Q 1538 4750 2522 4750 
Q 3503 4750 4090 4092 
Q 4678 3434 4678 2328 
Q 4678 1516 4351 937 
Q 4025 359 3406 84 
z
" transform="scale(0.015625)"/>
       <path id="DejaVuSans-75" d="M 544 1381 
L 544 3500 
L 1119 3500 
L 1119 1403 
Q 1119 906 1312 657 
Q 1506 409 1894 409 
Q 2359 409 2629 706 
Q 2900 1003 2900 1516 
L 2900 3500 
L 3475 3500 
L 3475 0 
L 2900 0 
L 2900 538 
Q 2691 219 2414 64 
Q 2138 -91 1772 -91 
Q 1169 -91 856 284 
Q 544 659 544 1381 
z
M 1991 3584 
L 1991 3584 
z
" transform="scale(0.015625)"/>
       <path id="DejaVuSans-61" d="M 2194 1759 
Q 1497 1759 1228 1600 
Q 959 1441 959 1056 
Q 959 750 1161 570 
Q 1363 391 1709 391 
Q 2188 391 2477 730 
Q 2766 1069 2766 1631 
L 2766 1759 
L 2194 1759 
z
M 3341 1997 
L 3341 0 
L 2766 0 
L 2766 531 
Q 2569 213 2275 61 
Q 1981 -91 1556 -91 
Q 1019 -91 701 211 
Q 384 513 384 1019 
Q 384 1609 779 1909 
Q 1175 2209 1959 2209 
L 2766 2209 
L 2766 2266 
Q 2766 2663 2505 2880 
Q 2244 3097 1772 3097 
Q 1472 3097 1187 3025 
Q 903 2953 641 2809 
L 641 3341 
Q 956 3463 1253 3523 
Q 1550 3584 1831 3584 
Q 2591 3584 2966 3190 
Q 3341 2797 3341 1997 
z
" transform="scale(0.015625)"/>
       <path id="DejaVuSans-64" d="M 2906 2969 
L 2906 4863 
L 3481 4863 
L 3481 0 
L 2906 0 
L 2906 525 
Q 2725 213 2448 61 
Q 2172 -91 1784 -91 
Q 1150 -91 751 415 
Q 353 922 353 1747 
Q 353 2572 751 3078 
Q 1150 3584 1784 3584 
Q 2172 3584 2448 3432 
Q 2725 3281 2906 2969 
z
M 947 1747 
Q 947 1113 1208 752 
Q 1469 391 1925 391 
Q 2381 391 2643 752 
Q 2906 1113 2906 1747 
Q 2906 2381 2643 2742 
Q 2381 3103 1925 3103 
Q 1469 3103 1208 2742 
Q 947 2381 947 1747 
z
" transform="scale(0.015625)"/>
       <path id="DejaVuSans-72" d="M 2631 2963 
Q 2534 3019 2420 3045 
Q 2306 3072 2169 3072 
Q 1681 3072 1420 2755 
Q 1159 2438 1159 1844 
L 1159 0 
L 581 0 
L 581 3500 
L 1159 3500 
L 1159 2956 
Q 1341 3275 1631 3429 
Q 1922 3584 2338 3584 
Q 2397 3584 2469 3576 
Q 2541 3569 2628 3553 
L 2631 2963 
z
" transform="scale(0.015625)"/>
       <path id="DejaVuSans-74" d="M 1172 4494 
L 1172 3500 
L 2356 3500 
L 2356 3053 
L 1172 3053 
L 1172 1153 
Q 1172 725 1289 603 
Q 1406 481 1766 481 
L 2356 481 
L 2356 0 
L 1766 0 
Q 1100 0 847 248 
Q 594 497 594 1153 
L 594 3053 
L 172 3053 
L 172 3500 
L 594 3500 
L 594 4494 
L 1172 4494 
z
" transform="scale(0.015625)"/>
       <path id="DejaVuSans-63" d="M 3122 3366 
L 3122 2828 
Q 2878 2963 2633 3030 
Q 2388 3097 2138 3097 
Q 1578 3097 1268 2742 
Q 959 2388 959 1747 
Q 959 1106 1268 751 
Q 1578 397 2138 397 
Q 2388 397 2633 464 
Q 2878 531 3122 666 
L 3122 134 
Q 2881 22 2623 -34 
Q 2366 -91 2075 -91 
Q 1284 -91 818 406 
Q 353 903 353 1747 
Q 353 2603 823 3093 
Q 1294 3584 2113 3584 
Q 2378 3584 2631 3529 
Q 2884 3475 3122 3366 
z
" transform="scale(0.015625)"/>
       <path id="DejaVuSans-20" transform="scale(0.015625)"/>
       <path id="DejaVuSans-43" d="M 4122 4306 
L 4122 3641 
Q 3803 3938 3442 4084 
Q 3081 4231 2675 4231 
Q 1875 4231 1450 3742 
Q 1025 3253 1025 2328 
Q 1025 1406 1450 917 
Q 1875 428 2675 428 
Q 3081 428 3442 575 
Q 3803 722 4122 1019 
L 4122 359 
Q 3791 134 3420 21 
Q 3050 -91 2638 -91 
Q 1578 -91 968 557 
Q 359 1206 359 2328 
Q 359 3453 968 4101 
Q 1578 4750 2638 4750 
Q 3056 4750 3426 4639 
Q 3797 4528 4122 4306 
z
" transform="scale(0.015625)"/>
       <path id="DejaVuSans-6f" d="M 1959 3097 
Q 1497 3097 1228 2736 
Q 959 2375 959 1747 
Q 959 1119 1226 758 
Q 1494 397 1959 397 
Q 2419 397 2687 759 
Q 2956 1122 2956 1747 
Q 2956 2369 2687 2733 
Q 2419 3097 1959 3097 
z
M 1959 3584 
Q 2709 3584 3137 3096 
Q 3566 2609 3566 1747 
Q 3566 888 3137 398 
Q 2709 -91 1959 -91 
Q 1206 -91 779 398 
Q 353 888 353 1747 
Q 353 2609 779 3096 
Q 1206 3584 1959 3584 
z
" transform="scale(0.015625)"/>
       <path id="DejaVuSans-76" d="M 191 3500 
L 800 3500 
L 1894 563 
L 2988 3500 
L 3597 3500 
L 2284 0 
L 1503 0 
L 191 3500 
z
" transform="scale(0.015625)"/>
       <path id="DejaVuSans-6e" d="M 3513 2113 
L 3513 0 
L 2938 0 
L 2938 2094 
Q 2938 2591 2744 2837 
Q 2550 3084 2163 3084 
Q 1697 3084 1428 2787 
Q 1159 2491 1159 1978 
L 1159 0 
L 581 0 
L 581 3500 
L 1159 3500 
L 1159 2956 
Q 1366 3272 1645 3428 
Q 1925 3584 2291 3584 
Q 2894 3584 3203 3211 
Q 3513 2838 3513 2113 
z
" transform="scale(0.015625)"/>
      </defs>
      <use xlink:href="#DejaVuSans-51"/>
      <use xlink:href="#DejaVuSans-75" x="78.710938"/>
      <use xlink:href="#DejaVuSans-61" x="142.089844"/>
      <use xlink:href="#DejaVuSans-64" x="203.369141"/>
      <use xlink:href="#DejaVuSans-72" x="266.845703"/>
      <use xlink:href="#DejaVuSans-61" x="307.958984"/>
      <use xlink:href="#DejaVuSans-74" x="369.238281"/>
      <use xlink:href="#DejaVuSans-69" x="408.447266"/>
      <use xlink:href="#DejaVuSans-63" x="436.230469"/>
      <use xlink:href="#DejaVuSans-20" x="491.210938"/>
      <use xlink:href="#DejaVuSans-43" x="522.998047"/>
      <use xlink:href="#DejaVuSans-6f" x="592.822266"/>
      <use xlink:href="#DejaVuSans-76" x="654.003906"/>
      <use xlink:href="#DejaVuSans-61" x="713.183594"/>
      <use xlink:href="#DejaVuSans-72" x="774.462891"/>
      <use xlink:href="#DejaVuSans-69" x="815.576172"/>
      <use xlink:href="#DejaVuSans-61" x="843.359375"/>
      <use xlink:href="#DejaVuSans-74" x="904.638672"/>
      <use xlink:href="#DejaVuSans-69" x="943.847656"/>
      <use xlink:href="#DejaVuSans-6f" x="971.630859"/>
      <use xlink:href="#DejaVuSans-6e" x="1032.8125"/>
     </g>
    </g>
   </g>
   <g id="line2d_13">
    <path d="M 161.509091 80.531739 
L 162.219273 80.051157 
L 162.929455 79.918654 
L 163.639636 79.628778 
L 164.349818 78.252423 
L 165.06 77.836169 
L 165.770182 77.695531 
L 166.480364 78.613886 
L 167.190545 79.206137 
L 167.900727 78.272668 
L 168.610909 78.385877 
L 169.321091 78.664333 
L 170.031273 79.271904 
L 170.741455 80.576135 
L 171.451636 81.066293 
L 172.161818 79.70733 
L 172.872 80.081401 
L 173.582182 81.191245 
L 174.292364 80.272372 
L 175.002545 81.549592 
L 175.712727 81.615 
L 176.422909 82.307686 
L 177.133091 83.790966 
L 177.843273 84.801835 
L 179.263636 84.98753 
L 179.973818 84.330237 
L 180.684 84.337411 
L 181.394182 84.830733 
L 182.104364 84.840259 
L 182.814545 84.535269 
L 183.524727 85.58644 
L 184.234909 85.330658 
L 184.945091 87.276536 
L 185.655273 86.99824 
L 186.365455 86.980603 
L 187.075636 86.094938 
L 188.496 88.941381 
L 189.206182 87.286252 
L 189.916364 88.516038 
L 190.626545 89.255219 
L 191.336727 88.688701 
L 192.046909 89.416278 
L 192.757091 89.09501 
L 193.467273 89.926516 
L 194.887636 90.899281 
L 197.018182 93.956752 
L 197.728364 96.120837 
L 198.438545 96.988458 
L 199.148727 96.978994 
L 199.858909 97.320838 
L 200.569091 97.15962 
L 201.279273 97.179645 
L 201.989455 98.30415 
L 202.699636 97.28788 
L 203.409818 96.911609 
L 204.12 96.964378 
L 205.540364 98.580376 
L 206.960727 97.519495 
L 207.670909 97.95319 
L 208.381091 97.576212 
L 209.091273 96.517687 
L 209.801455 97.179898 
L 210.511636 97.411028 
L 211.221818 96.77811 
L 211.932 97.554292 
L 212.642182 97.608047 
L 213.352364 98.725603 
L 214.062545 99.116571 
L 215.482909 100.973252 
L 216.193091 100.358635 
L 216.903273 101.059036 
L 217.613455 101.154898 
L 218.323636 101.528231 
L 219.033818 102.306945 
L 219.744 104.107549 
L 220.454182 105.053572 
L 221.164364 106.494754 
L 222.584727 107.494242 
L 223.294909 107.084828 
L 224.005091 107.608328 
L 224.715273 107.174442 
L 225.425455 107.958634 
L 226.135636 109.443408 
L 226.845818 110.205138 
L 227.556 110.069541 
L 228.266182 109.752663 
L 228.976364 110.227738 
L 230.396727 110.495025 
L 231.106909 109.585097 
L 231.817091 109.658949 
L 232.527273 109.977069 
L 233.947636 109.805806 
L 235.368 109.984485 
L 236.078182 111.139049 
L 236.788364 111.765225 
L 237.498545 113.038402 
L 238.208727 111.963046 
L 238.918909 111.189894 
L 239.629091 112.241703 
L 240.339273 113.707457 
L 241.049455 116.790689 
L 241.759636 118.317961 
L 242.469818 118.125557 
L 243.890182 117.367175 
L 244.600364 116.526099 
L 245.310545 114.753872 
L 246.020727 113.41954 
L 246.730909 112.387909 
L 247.441091 112.316656 
L 248.151273 114.3926 
L 249.571636 116.9509 
L 250.281818 115.918171 
L 250.992 116.577935 
L 251.702182 118.425994 
L 252.412364 117.782614 
L 253.122545 118.186041 
L 254.542909 120.514295 
L 255.253091 120.462962 
L 255.963273 121.051297 
L 257.383636 118.776405 
L 258.093818 119.390016 
L 258.804 121.001938 
L 259.514182 121.367538 
L 260.224364 121.328892 
L 260.934545 121.024936 
L 261.644727 121.023777 
L 262.354909 123.455306 
L 263.065091 124.9109 
L 263.775273 125.531177 
L 264.485455 125.022044 
L 265.195636 125.80879 
L 266.616 125.377002 
L 267.326182 125.415317 
L 268.036364 125.261822 
L 268.746545 128.207473 
L 269.456727 128.424573 
L 270.166909 129.834427 
L 270.877091 130.326758 
L 271.587273 132.258413 
L 273.007636 132.127504 
L 273.717818 132.396164 
L 274.428 131.492172 
L 275.138182 133.056838 
L 275.848364 133.301505 
L 276.558545 132.713443 
L 277.268727 133.240216 
L 277.978909 133.194801 
L 278.689091 133.745144 
L 279.399273 133.578277 
L 280.109455 133.13562 
L 280.819636 134.360534 
L 281.529818 133.300108 
L 282.24 133.544971 
L 282.950182 134.603523 
L 283.660364 133.91763 
L 284.370545 134.422356 
L 285.790909 133.827025 
L 286.501091 134.833938 
L 287.211273 135.150548 
L 287.921455 134.739734 
L 288.631636 135.58892 
L 289.341818 134.482445 
L 290.052 134.690457 
L 290.762182 133.969925 
L 291.472364 133.691256 
L 292.182545 134.004778 
L 292.892727 133.723741 
L 293.602909 134.347899 
L 294.313091 133.762892 
L 295.023273 134.595545 
L 295.733455 136.416497 
L 296.443636 136.078638 
L 297.153818 135.20348 
L 297.864 134.960752 
L 298.574182 135.221713 
L 299.284364 134.166138 
L 299.994545 134.410131 
L 300.704727 133.273143 
L 301.414909 134.234595 
L 302.125091 135.488059 
L 302.835273 135.694969 
L 303.545455 136.618293 
L 304.255636 136.601223 
L 304.965818 137.261998 
L 305.676 137.475034 
L 306.386182 137.159648 
L 307.096364 137.310155 
L 307.806545 136.3441 
L 308.516727 136.01521 
L 309.226909 136.531806 
L 310.647273 135.642235 
L 311.357455 134.592941 
L 312.067636 135.778271 
L 312.777818 136.575654 
L 313.488 134.93086 
L 314.198182 135.746095 
L 314.908364 136.36031 
L 315.618545 136.596224 
L 316.328727 134.994557 
L 317.038909 134.252747 
L 317.749091 135.158662 
L 318.459273 135.256032 
L 319.169455 136.399686 
L 319.879636 136.7728 
L 320.589818 136.490218 
L 321.3 135.851664 
L 322.010182 135.82274 
L 322.720364 135.940686 
L 323.430545 136.973984 
L 324.140727 135.71823 
L 324.850909 136.213983 
L 325.561091 136.083039 
L 326.271273 136.26679 
L 326.981455 136.316314 
L 327.691636 136.491391 
L 328.401818 135.49792 
L 329.112 136.325472 
L 329.822182 136.131227 
L 330.532364 136.501121 
L 331.242545 137.250841 
L 331.952727 136.986615 
L 332.662909 138.069579 
L 333.373091 138.490202 
L 334.083273 138.048091 
L 334.793455 139.807835 
L 336.213818 142.59374 
L 336.924 143.154273 
L 337.634182 144.92321 
L 339.054545 144.848596 
L 339.764727 146.927121 
L 340.474909 146.693778 
L 341.185091 147.98167 
L 341.895273 147.980033 
L 342.605455 147.774222 
L 343.315636 146.896376 
L 344.025818 146.669774 
L 344.736 146.308718 
L 345.446182 147.179247 
L 346.156364 146.42948 
L 346.866545 146.47365 
L 347.576727 146.240949 
L 348.286909 146.62827 
L 348.997091 145.63361 
L 349.707273 145.641974 
L 351.127636 144.215678 
L 351.837818 145.293382 
L 352.548 145.814064 
L 353.258182 145.794797 
L 353.968364 144.747326 
L 354.678545 144.653704 
L 355.388727 145.601062 
L 356.098909 146.002515 
L 357.519273 147.465116 
L 358.229455 148.465072 
L 358.939636 148.298825 
L 360.36 146.470751 
L 361.070182 147.949287 
L 361.780364 148.572775 
L 362.490545 149.043771 
L 363.200727 149.156379 
L 364.621091 146.149796 
L 365.331273 146.785846 
L 366.041455 146.106535 
L 366.751636 146.981574 
L 367.461818 147.425344 
L 368.172 148.779299 
L 368.882182 149.687119 
L 369.592364 147.598261 
L 371.012727 144.98325 
L 371.722909 144.853852 
L 372.433091 145.209366 
L 373.143273 146.665765 
L 374.563636 148.319337 
L 375.273818 147.267303 
L 375.984 146.498492 
L 376.694182 148.470893 
L 377.404364 149.868789 
L 378.114545 150.696276 
L 378.824727 152.16936 
L 379.534909 152.331862 
L 380.955273 153.904202 
L 381.665455 155.052255 
L 382.375636 154.114264 
L 383.085818 155.258138 
L 383.796 154.489922 
L 384.506182 154.907265 
L 385.216364 154.328376 
L 385.926545 154.355862 
L 386.636727 153.546643 
L 387.346909 153.444065 
L 388.057091 153.205507 
L 388.767273 152.706153 
L 389.477455 153.643193 
L 390.187636 153.440535 
L 390.897818 153.740928 
L 391.608 153.789944 
L 393.028364 154.236614 
L 393.738545 153.446094 
L 394.448727 153.499256 
L 395.158909 151.062182 
L 395.869091 152.243023 
L 396.579273 151.438076 
L 397.289455 150.882651 
L 397.999636 150.889995 
L 398.709818 149.676069 
L 399.42 150.461936 
L 400.130182 149.518944 
L 400.840364 151.784771 
L 401.550545 152.260136 
L 402.260727 152.280133 
L 402.970909 151.205215 
L 403.681091 151.997403 
L 404.391273 152.403086 
L 405.101455 153.389448 
L 405.811636 153.51743 
L 406.521818 155.56373 
L 407.232 157.050328 
L 407.942182 158.833646 
L 408.652364 160.003394 
L 409.362545 160.047412 
L 410.072727 160.331483 
L 410.782909 161.803995 
L 411.493091 162.700967 
L 412.203273 163.029366 
L 412.913455 166.400485 
L 413.623636 166.168876 
L 415.044 167.912722 
L 415.754182 170.193934 
L 416.464364 170.968998 
L 417.174545 169.982021 
L 417.884727 171.714574 
L 418.594909 172.499777 
L 419.305091 171.927403 
L 420.015273 173.140567 
L 420.725455 172.718717 
L 421.435636 171.730689 
L 422.145818 171.007442 
L 422.856 172.278665 
L 423.566182 172.597231 
L 424.276364 173.694145 
L 424.986545 172.096259 
L 425.696727 171.333367 
L 426.406909 172.894434 
L 427.117091 173.590096 
L 427.827273 174.506969 
L 428.537455 173.512961 
L 429.247636 173.255961 
L 429.957818 172.275244 
L 430.668 172.224899 
L 431.378182 172.948494 
L 432.088364 174.900183 
L 432.798545 176.323873 
L 433.508727 176.931823 
L 436.349455 178.270633 
L 437.059636 176.985668 
L 437.769818 176.288134 
L 438.48 177.446595 
L 439.190182 177.912371 
L 439.900364 177.792231 
L 440.610545 178.891107 
L 441.320727 178.732346 
L 442.741091 179.397278 
L 443.451273 178.606948 
L 444.161455 177.379555 
L 444.871636 176.721164 
L 445.581818 176.545214 
L 446.292 175.29409 
L 447.002182 173.681035 
L 447.712364 173.804621 
L 448.422545 175.177112 
L 449.132727 175.735458 
L 449.842909 176.484026 
L 450.553091 176.868165 
L 451.263273 175.6918 
L 451.973455 175.773032 
L 452.683636 175.598331 
L 453.393818 174.567947 
L 454.104 175.327604 
L 454.814182 174.288295 
L 455.524364 175.234493 
L 456.234545 176.381898 
L 456.944727 177.821305 
L 457.654909 176.759949 
L 458.365091 178.222461 
L 459.075273 177.619293 
L 459.785455 177.598074 
L 460.495636 178.46683 
L 461.205818 179.134687 
L 462.626182 181.332813 
L 463.336364 180.142943 
L 464.046545 179.784838 
L 464.756727 180.047347 
L 465.466909 181.973709 
L 466.177091 181.929025 
L 466.887273 183.15041 
L 467.597455 183.988808 
L 468.307636 183.069139 
L 469.017818 183.827224 
L 469.728 185.513867 
L 470.438182 185.09664 
L 471.148364 186.135003 
L 471.858545 186.842891 
L 473.278909 185.19302 
L 474.699273 185.782929 
L 475.409455 185.074666 
L 476.119636 183.752718 
L 476.829818 183.124832 
L 477.54 185.034697 
L 478.250182 184.22579 
L 478.960364 184.989455 
L 479.670545 184.762742 
L 480.380727 183.933688 
L 481.090909 183.649159 
L 481.801091 181.667033 
L 482.511273 180.803138 
L 483.221455 182.487971 
L 483.931636 182.244651 
L 484.641818 180.272289 
L 485.352 179.792681 
L 486.062182 179.89132 
L 487.482545 180.429224 
L 488.192727 179.753996 
L 488.902909 179.976068 
L 489.613091 178.513171 
L 490.323273 176.653735 
L 491.033455 178.080114 
L 491.743636 178.160423 
L 492.453818 177.790706 
L 493.164 178.168567 
L 493.874182 179.350528 
L 494.584364 179.749014 
L 495.294545 179.107381 
L 496.004727 179.317425 
L 497.425091 179.269141 
L 498.135273 180.785231 
L 498.845455 181.245532 
L 499.555636 179.560695 
L 500.976 180.695642 
L 501.686182 181.230193 
L 502.396364 180.877971 
L 503.106545 181.09282 
L 503.816727 181.68702 
L 504.526909 183.174037 
L 505.237091 183.683394 
L 505.947273 183.291023 
L 506.657455 183.09459 
L 507.367636 184.974616 
L 508.077818 185.913745 
L 508.788 187.21237 
L 509.498182 187.438968 
L 510.208364 187.005393 
L 510.918545 187.391949 
L 512.338909 186.49385 
L 513.049091 187.267237 
L 513.759273 187.442648 
L 514.469455 187.777424 
L 515.179636 188.713709 
L 515.889818 189.3191 
L 516.6 190.925225 
L 517.310182 190.264607 
L 518.020364 190.496668 
L 518.730545 191.498768 
L 519.440727 193.476608 
L 520.150909 194.735449 
L 520.861091 195.236256 
L 521.571273 196.112401 
L 522.281455 195.63687 
L 522.991636 195.347937 
L 523.701818 194.422361 
L 524.412 192.742793 
L 525.122182 194.158222 
L 525.832364 193.741592 
L 526.542545 194.468094 
L 527.252727 194.521161 
L 527.962909 196.345149 
L 528.673091 196.8594 
L 529.383273 195.51874 
L 530.803636 195.067348 
L 531.513818 194.555255 
L 532.934182 195.061316 
L 533.644364 195.137493 
L 534.354545 196.150201 
L 535.064727 195.239909 
L 536.485091 196.88106 
L 537.195273 196.481472 
L 538.615636 198.82597 
L 539.325818 201.116166 
L 540.036 199.552609 
L 540.746182 199.132368 
L 541.456364 200.340342 
L 542.166545 199.520762 
L 542.876727 200.175336 
L 543.586909 199.329232 
L 544.297091 201.061695 
L 545.717455 198.376336 
L 546.427636 197.766007 
L 547.137818 197.341523 
L 547.848 195.603063 
L 548.558182 195.791961 
L 549.268364 195.542737 
L 549.978545 195.763314 
L 550.688727 195.719774 
L 551.398909 196.569032 
L 552.109091 196.809789 
L 552.819273 196.832191 
L 554.239636 197.685424 
L 554.949818 197.425601 
L 555.66 199.277576 
L 556.370182 200.542855 
L 557.080364 200.608254 
L 557.790545 199.438832 
L 559.210909 199.255667 
L 559.921091 199.860225 
L 560.631273 200.635056 
L 561.341455 199.820225 
L 562.051636 201.046164 
L 562.761818 203.000797 
L 563.472 203.043851 
L 564.182182 204.909966 
L 565.602545 204.77608 
L 566.312727 204.033105 
L 567.022909 202.500371 
L 567.733091 202.962613 
L 568.443273 203.0685 
L 569.153455 203.452797 
L 569.863636 203.553843 
L 570.573818 202.618665 
L 571.284 201.378775 
L 571.994182 202.013022 
L 572.704364 201.726911 
L 573.414545 202.164102 
L 574.124727 203.995353 
L 574.834909 202.959978 
L 575.545091 203.823308 
L 576.255273 203.302867 
L 576.965455 203.810431 
L 577.675636 205.224814 
L 578.385818 206.169433 
L 579.096 206.369402 
L 579.806182 208.385758 
L 580.516364 208.261227 
L 581.226545 208.320727 
L 581.936727 209.345059 
L 582.646909 209.161841 
L 583.357091 209.169588 
L 584.067273 210.040037 
L 584.777455 208.457657 
L 585.487636 208.22892 
L 586.197818 209.096529 
L 586.908 208.133472 
L 587.618182 207.428672 
L 588.328364 207.311936 
L 589.038545 207.035688 
L 589.748727 206.914076 
L 590.458909 206.556643 
L 591.169091 207.786037 
L 591.879273 208.189327 
L 592.589455 207.799088 
L 593.299636 209.604326 
L 594.009818 210.112054 
L 594.72 209.920585 
L 595.430182 208.987913 
L 596.140364 209.122492 
L 596.850545 208.128472 
L 598.270909 210.096924 
L 598.981091 210.526482 
L 599.691273 209.863008 
L 601.111636 211.170487 
L 601.821818 211.603637 
L 602.532 212.359543 
L 603.242182 212.760977 
L 603.952364 212.141558 
L 604.662545 211.078155 
L 605.372727 212.679667 
L 606.082909 213.363287 
L 608.213455 214.730839 
L 608.923636 216.957504 
L 609.633818 216.812054 
L 610.344 216.794244 
L 611.054182 216.538032 
L 611.764364 215.375396 
L 612.474545 214.459508 
L 613.184727 213.742194 
L 613.894909 213.802246 
L 614.605091 213.663464 
L 615.315273 212.860274 
L 616.025455 212.936006 
L 616.735636 212.5275 
L 618.156 213.9856 
L 618.866182 213.734833 
L 619.576364 213.242699 
L 620.286545 214.206153 
L 620.996727 216.084426 
L 621.706909 217.259505 
L 622.417091 217.636771 
L 623.127273 216.167663 
L 623.837455 217.393327 
L 624.547636 215.917207 
L 625.257818 216.731436 
L 625.968 216.720494 
L 626.678182 218.300961 
L 627.388364 219.048101 
L 628.098545 219.593116 
L 628.808727 218.147168 
L 629.518909 218.854299 
L 630.229091 218.317038 
L 630.939273 217.354941 
L 631.649455 217.767868 
L 633.069818 220.078212 
L 633.78 219.648229 
L 634.490182 221.384984 
L 635.200364 222.037906 
L 635.910545 220.223171 
L 636.620727 220.964516 
L 637.330909 222.665412 
L 638.041091 223.02584 
L 638.751273 223.217133 
L 639.461455 222.919091 
L 640.171636 223.776807 
L 640.881818 224.047493 
L 641.592 223.66772 
L 642.302182 223.520279 
L 643.012364 221.927927 
L 643.722545 221.657735 
L 644.432727 221.1876 
L 645.142909 221.126538 
L 645.853091 219.993178 
L 646.563273 220.178376 
L 648.693818 224.459192 
L 649.404 225.560664 
L 650.114182 225.448619 
L 650.824364 226.435437 
L 651.534545 225.642827 
L 652.244727 226.287576 
L 652.954909 227.305313 
L 653.665091 227.360571 
L 654.375273 227.029682 
L 655.085455 227.919653 
L 655.795636 226.998523 
L 656.505818 227.790943 
L 657.216 226.672766 
L 657.926182 227.331011 
L 658.636364 225.906066 
L 659.346545 225.92797 
L 660.056727 227.245803 
L 660.766909 227.937066 
L 661.477091 228.437428 
L 662.187273 229.554098 
L 662.897455 227.026218 
L 664.317818 226.792822 
L 665.028 227.426676 
L 666.448364 227.012066 
L 667.158545 227.615552 
L 667.868727 226.777123 
L 668.578909 226.37488 
L 669.289091 225.173884 
L 669.999273 224.612303 
L 670.709455 225.009837 
L 672.129818 225.222229 
L 672.84 223.816104 
L 673.550182 223.598062 
L 674.260364 223.161079 
L 674.970545 222.538992 
L 675.680727 222.207163 
L 676.390909 223.48232 
L 677.101091 222.749337 
L 677.811273 223.195814 
L 678.521455 223.380765 
L 679.231636 223.877547 
L 679.941818 223.377942 
L 680.652 225.238928 
L 681.362182 224.937541 
L 682.072364 224.500613 
L 682.782545 225.824581 
L 683.492727 225.232007 
L 684.202909 224.06252 
L 685.623273 224.906609 
L 686.333455 224.594442 
L 687.043636 225.896872 
L 687.753818 225.937309 
L 688.464 225.04323 
L 689.174182 224.737253 
L 689.884364 225.029372 
L 690.594545 224.901194 
L 691.304727 225.624534 
L 692.014909 226.550842 
L 692.725091 225.626974 
L 693.435273 226.513029 
L 694.145455 225.406525 
L 694.855636 225.807353 
L 695.565818 225.230363 
L 696.276 224.229509 
L 697.696364 226.924553 
L 698.406545 227.122844 
L 699.116727 225.660112 
L 699.826909 225.255923 
L 700.537091 225.300024 
L 701.247273 224.296287 
L 701.957455 224.008418 
L 702.667636 222.467143 
L 703.377818 223.44351 
L 704.088 223.690815 
L 704.798182 224.958854 
L 705.508364 225.187471 
L 706.218545 223.820646 
L 706.928727 224.209248 
L 707.638909 225.29298 
L 708.349091 225.286245 
L 710.479636 226.994618 
L 711.189818 225.699961 
L 711.9 225.13536 
L 712.610182 223.996912 
L 713.320364 224.250242 
L 714.030545 222.736969 
L 715.450909 223.511253 
L 716.161091 223.492356 
L 716.871273 222.480222 
L 717.581455 222.359778 
L 718.291636 221.401879 
L 719.712 223.358236 
L 720.422182 223.084074 
L 721.132364 223.772529 
L 721.842545 225.113932 
L 722.552727 224.469435 
L 723.262909 226.201642 
L 723.973091 225.629791 
L 724.683273 227.103915 
L 725.393455 226.155887 
L 726.103636 224.876965 
L 726.813818 225.504903 
L 727.524 224.61435 
L 728.234182 226.615703 
L 728.944364 225.338424 
L 730.364727 229.214542 
L 731.785091 229.545788 
L 732.495273 230.972042 
L 733.205455 230.958978 
L 733.915636 230.244906 
L 734.625818 230.864234 
L 736.046182 231.456079 
L 736.756364 232.122323 
L 737.466545 231.406678 
L 738.176727 232.247929 
L 738.886909 231.504008 
L 740.307273 231.896976 
L 741.017455 231.822276 
L 741.727636 231.442739 
L 742.437818 231.631476 
L 743.148 232.305771 
L 743.858182 231.71334 
L 744.568364 231.877642 
L 745.278545 232.558871 
L 745.988727 232.920049 
L 746.698909 231.47306 
L 747.409091 232.553064 
L 748.119273 232.042837 
L 748.829455 232.150929 
L 749.539636 234.283401 
L 750.249818 234.461927 
L 750.96 235.000444 
L 751.670182 234.307412 
L 752.380364 234.054843 
L 753.800727 233.888251 
L 754.510909 234.761366 
L 755.221091 235.390861 
L 755.931273 234.556699 
L 756.641455 234.712651 
L 757.351636 236.473825 
L 758.061818 237.352939 
L 759.482182 235.231477 
L 760.192364 236.463207 
L 760.902545 236.742074 
L 761.612727 235.621365 
L 762.322909 235.059979 
L 763.033091 235.444874 
L 763.743273 236.097994 
L 764.453455 234.418442 
L 765.163636 234.819547 
L 765.873818 234.279461 
L 766.584 234.647563 
L 767.294182 234.379004 
L 768.004364 234.447593 
L 768.714545 234.942654 
L 769.424727 235.056829 
L 770.845091 232.260968 
L 771.555273 232.711913 
L 772.265455 233.527817 
L 772.975636 233.587877 
L 773.685818 233.998822 
L 774.396 234.955518 
L 775.106182 234.244404 
L 775.816364 234.16934 
L 776.526545 234.884709 
L 777.236727 235.328451 
L 777.946909 236.749914 
L 778.657091 237.581331 
L 779.367273 237.999716 
L 780.077455 238.582065 
L 780.787636 237.797991 
L 781.497818 237.335799 
L 782.208 236.108355 
L 782.918182 235.558447 
L 783.628364 234.760086 
L 784.338545 235.495475 
L 785.048727 235.213101 
L 786.469091 235.013588 
L 787.179273 234.695003 
L 787.889455 236.109873 
L 788.599636 236.956137 
L 789.309818 238.361415 
L 790.02 238.909428 
L 790.730182 239.083745 
L 791.440364 239.464775 
L 792.150545 239.175314 
L 792.860727 240.964055 
L 793.570909 240.427552 
L 794.281091 242.51261 
L 794.991273 242.48133 
L 795.701455 242.695374 
L 796.411636 241.916669 
L 797.121818 243.305103 
L 797.832 243.674049 
L 798.542182 243.076283 
L 799.252364 243.046432 
L 799.962545 242.637718 
L 800.672727 244.157501 
L 801.382909 244.711915 
L 802.093091 244.897155 
L 802.803273 244.745476 
L 803.513455 243.871317 
L 804.223636 244.397395 
L 804.933818 245.080077 
L 805.644 246.085256 
L 806.354182 245.484549 
L 807.064364 246.498374 
L 807.774545 248.175935 
L 809.194909 248.168352 
L 809.905091 249.316735 
L 810.615273 248.473048 
L 811.325455 249.749263 
L 812.035636 250.078217 
L 812.745818 251.098992 
L 813.456 251.609278 
L 814.166182 253.08635 
L 814.876364 254.020778 
L 815.586545 252.800078 
L 816.296727 254.264334 
L 817.006909 256.235887 
L 817.717091 256.695159 
L 818.427273 256.848256 
L 819.137455 257.737017 
L 820.557818 257.451244 
L 821.268 259.848482 
L 821.978182 260.080106 
L 822.688364 259.135691 
L 824.108727 259.835055 
L 824.818909 260.484349 
L 825.529091 260.064626 
L 826.239273 259.306578 
L 826.949455 259.194052 
L 827.659636 259.938478 
L 828.369818 260.095464 
L 829.08 259.651312 
L 829.790182 258.331416 
L 830.500364 259.952415 
L 831.210545 261.073333 
L 831.920727 260.77465 
L 832.630909 261.999331 
L 833.341091 262.166777 
L 834.051273 261.576221 
L 834.761455 261.717373 
L 835.471636 262.912023 
L 836.181818 263.449409 
L 836.892 262.412688 
L 837.602182 263.599448 
L 838.312364 262.897877 
L 839.022545 263.919206 
L 839.732727 263.936329 
L 840.442909 264.783715 
L 841.153091 264.926406 
L 841.863273 264.669358 
L 842.573455 266.851321 
L 843.283636 266.625891 
L 843.993818 267.071572 
L 844.704 265.732552 
L 845.414182 267.215012 
L 846.124364 266.971697 
L 846.834545 265.992008 
L 847.544727 266.932914 
L 848.965091 265.123102 
L 849.675273 263.171812 
L 851.095636 261.783317 
L 852.516 260.98307 
L 853.226182 261.096887 
L 853.936364 261.001094 
L 854.646545 261.690142 
L 855.356727 260.689961 
L 856.066909 260.721147 
L 856.777091 260.301282 
L 857.487273 261.518736 
L 858.197455 261.577038 
L 858.907636 261.364305 
L 859.617818 261.883655 
L 861.038182 261.552194 
L 861.748364 261.739874 
L 862.458545 260.888472 
L 863.168727 261.355064 
L 863.878909 261.458578 
L 864.589091 261.051842 
L 865.299273 261.036054 
L 866.009455 259.724406 
L 866.719636 261.323508 
L 867.429818 260.963657 
L 868.14 262.025078 
L 869.560364 260.530668 
L 870.270545 260.872433 
L 870.980727 261.568482 
L 871.690909 260.462744 
L 871.690909 260.462744 
" clip-path="url(#pb22da03bd3)" style="fill: none; stroke: #1f77b4; stroke-width: 1.5; stroke-linecap: square"/>
   </g>
   <g id="line2d_14">
    <path d="M 161.509091 80.531739 
L 162.219273 80.987103 
L 162.929455 80.259036 
L 163.639636 80.134559 
L 165.06 77.824635 
L 165.770182 78.279496 
L 166.480364 79.659484 
L 167.190545 79.500701 
L 167.900727 79.481246 
L 168.610909 77.892871 
L 169.321091 79.117331 
L 170.031273 79.94453 
L 170.741455 81.174993 
L 171.451636 79.72575 
L 172.161818 78.979959 
L 172.872 80.001538 
L 173.582182 81.432983 
L 174.292364 80.249404 
L 175.002545 79.328059 
L 175.712727 79.094272 
L 176.422909 79.612172 
L 177.843273 81.713715 
L 178.553455 81.876896 
L 179.263636 81.433584 
L 179.973818 78.630243 
L 180.684 79.094648 
L 181.394182 79.216312 
L 182.104364 78.53629 
L 182.814545 76.943186 
L 183.524727 78.346484 
L 184.234909 75.977439 
L 184.945091 77.220161 
L 185.655273 77.350198 
L 186.365455 75.852927 
L 187.075636 75.562595 
L 187.785818 76.395211 
L 188.496 79.537109 
L 189.206182 77.033228 
L 189.916364 78.531685 
L 190.626545 79.259692 
L 191.336727 78.043194 
L 192.046909 78.304517 
L 192.757091 78.139579 
L 193.467273 78.938598 
L 194.177455 80.035559 
L 194.887636 79.654124 
L 195.597818 80.587441 
L 196.308 82.131909 
L 197.018182 82.753978 
L 197.728364 84.399825 
L 198.438545 85.760694 
L 199.148727 85.893142 
L 199.858909 86.356247 
L 201.279273 83.972042 
L 201.989455 86.755675 
L 204.12 85.622644 
L 204.830182 86.875116 
L 205.540364 86.965431 
L 206.250545 86.827026 
L 206.960727 86.431808 
L 207.670909 87.264933 
L 208.381091 87.121824 
L 209.091273 86.164416 
L 209.801455 86.320349 
L 210.511636 86.139132 
L 211.221818 85.243191 
L 211.932 84.878924 
L 212.642182 84.65165 
L 214.062545 84.436144 
L 214.772727 85.774068 
L 215.482909 85.57617 
L 216.193091 84.549529 
L 216.903273 83.101684 
L 217.613455 84.156764 
L 218.323636 83.482285 
L 219.033818 84.752699 
L 219.744 85.022227 
L 220.454182 85.774486 
L 221.164364 86.07971 
L 221.874545 87.057541 
L 222.584727 85.91388 
L 223.294909 84.104671 
L 224.005091 85.715075 
L 224.715273 86.52156 
L 225.425455 86.467325 
L 226.845818 88.284845 
L 227.556 87.576211 
L 228.266182 88.012623 
L 228.976364 89.189951 
L 229.686545 88.49688 
L 231.106909 89.52794 
L 231.817091 90.284627 
L 233.237455 89.281019 
L 233.947636 89.367673 
L 234.657818 88.911952 
L 235.368 87.522817 
L 236.078182 88.319271 
L 236.788364 87.676445 
L 237.498545 88.710433 
L 238.208727 87.674583 
L 238.918909 87.388573 
L 239.629091 88.457476 
L 240.339273 91.531944 
L 241.049455 93.246848 
L 241.759636 94.523737 
L 242.469818 93.544604 
L 243.18 94.360243 
L 246.730909 84.750057 
L 247.441091 83.333324 
L 248.861455 86.768108 
L 249.571636 88.294625 
L 250.281818 87.219314 
L 250.992 88.553231 
L 251.702182 90.403527 
L 252.412364 88.515876 
L 253.122545 89.67319 
L 253.832727 89.968699 
L 254.542909 92.638541 
L 255.253091 93.089977 
L 255.963273 93.942471 
L 257.383636 90.44629 
L 258.093818 91.048043 
L 258.804 90.58493 
L 259.514182 88.669231 
L 260.224364 88.8005 
L 260.934545 86.520429 
L 262.354909 88.437151 
L 263.065091 89.633956 
L 263.775273 89.975645 
L 264.485455 87.318617 
L 265.195636 88.268587 
L 266.616 88.256059 
L 268.036364 87.552662 
L 268.746545 88.791767 
L 269.456727 89.047333 
L 270.166909 89.521485 
L 270.877091 88.95394 
L 271.587273 90.257975 
L 272.297455 90.236434 
L 273.007636 88.673584 
L 273.717818 88.873244 
L 274.428 88.879961 
L 275.138182 91.338832 
L 275.848364 92.14784 
L 276.558545 90.771657 
L 277.268727 89.008677 
L 277.978909 88.679205 
L 278.689091 90.212512 
L 279.399273 90.491435 
L 280.109455 90.595705 
L 280.819636 91.316049 
L 281.529818 89.008365 
L 282.24 89.746599 
L 282.950182 90.830309 
L 283.660364 90.38568 
L 284.370545 90.755198 
L 285.080727 89.268226 
L 285.790909 88.158466 
L 286.501091 90.434264 
L 287.211273 91.018354 
L 287.921455 89.698276 
L 288.631636 90.418712 
L 289.341818 89.289676 
L 290.052 89.588641 
L 290.762182 88.172132 
L 291.472364 87.457873 
L 292.182545 88.901177 
L 292.892727 88.084747 
L 293.602909 88.534053 
L 294.313091 88.11784 
L 295.023273 88.238912 
L 295.733455 87.700265 
L 296.443636 86.696727 
L 297.153818 84.29996 
L 297.864 83.804272 
L 298.574182 84.93645 
L 299.284364 83.25073 
L 299.994545 83.598716 
L 300.704727 82.854941 
L 301.414909 84.003047 
L 302.125091 85.423254 
L 302.835273 84.522368 
L 303.545455 83.818498 
L 304.255636 82.463904 
L 304.965818 83.674539 
L 305.676 82.701851 
L 306.386182 82.969658 
L 307.096364 81.781215 
L 307.806545 78.01102 
L 308.516727 76.956084 
L 309.226909 77.491624 
L 309.937091 77.014351 
L 310.647273 77.213519 
L 311.357455 76.026503 
L 312.067636 76.987907 
L 312.777818 77.63799 
L 313.488 75.388775 
L 314.198182 76.104713 
L 314.908364 75.831628 
L 315.618545 75.318416 
L 316.328727 73.404079 
L 317.038909 73.253861 
L 317.749091 74.8913 
L 318.459273 73.397908 
L 319.169455 73.985307 
L 319.879636 75.66154 
L 320.589818 74.915627 
L 321.3 75.799541 
L 322.010182 74.718451 
L 322.720364 75.077885 
L 323.430545 77.560556 
L 324.140727 77.029793 
L 324.850909 76.24143 
L 325.561091 76.806484 
L 326.271273 74.583419 
L 326.981455 75.864036 
L 327.691636 76.373686 
L 329.112 77.072595 
L 330.532364 74.950928 
L 331.242545 74.909277 
L 331.952727 76.315396 
L 332.662909 75.951698 
L 333.373091 76.018986 
L 334.083273 75.585616 
L 334.793455 77.252042 
L 335.503636 80.204111 
L 336.213818 80.765275 
L 336.924 80.427437 
L 337.634182 82.693284 
L 338.344364 82.682051 
L 339.054545 83.861137 
L 339.764727 86.006873 
L 340.474909 85.246181 
L 341.895273 87.548107 
L 342.605455 86.516044 
L 343.315636 85.935659 
L 344.025818 84.632633 
L 344.736 85.0842 
L 345.446182 84.551721 
L 346.156364 83.206852 
L 346.866545 84.005287 
L 347.576727 83.376368 
L 348.286909 83.498408 
L 348.997091 81.912637 
L 350.417455 81.049837 
L 351.127636 79.749074 
L 351.837818 78.893641 
L 352.548 78.76881 
L 353.258182 78.379889 
L 353.968364 76.003707 
L 354.678545 74.683853 
L 355.388727 75.921915 
L 356.098909 76.480114 
L 356.809091 76.079612 
L 357.519273 76.542819 
L 358.229455 76.329233 
L 359.649818 76.282174 
L 360.36 75.790576 
L 361.070182 76.913245 
L 361.780364 77.646428 
L 362.490545 78.113753 
L 363.200727 77.864947 
L 363.910909 78.51324 
L 364.621091 76.702465 
L 365.331273 76.056563 
L 366.041455 74.493761 
L 366.751636 76.314533 
L 367.461818 77.685452 
L 368.172 77.704576 
L 368.882182 75.76551 
L 369.592364 72.756841 
L 370.302545 71.861894 
L 371.012727 70.636124 
L 371.722909 70.320484 
L 372.433091 70.253555 
L 373.143273 71.345871 
L 374.563636 72.697118 
L 375.273818 72.90584 
L 375.984 70.697532 
L 376.694182 73.505601 
L 377.404364 73.591752 
L 378.114545 73.518508 
L 378.824727 73.773608 
L 379.534909 74.705935 
L 380.955273 75.453264 
L 381.665455 77.245526 
L 382.375636 78.040128 
L 383.085818 79.196445 
L 383.796 77.254247 
L 384.506182 77.603347 
L 385.216364 76.793229 
L 385.926545 74.664668 
L 386.636727 72.962123 
L 387.346909 75.665596 
L 388.057091 75.420113 
L 388.767273 75.664598 
L 389.477455 74.856153 
L 390.187636 75.500319 
L 390.897818 75.496791 
L 391.608 75.315363 
L 392.318182 75.538146 
L 393.028364 74.543066 
L 393.738545 73.067732 
L 394.448727 73.568572 
L 395.158909 70.057007 
L 395.869091 71.356894 
L 396.579273 70.414653 
L 397.289455 69.280727 
L 397.999636 69.140822 
L 398.709818 68.394133 
L 399.42 69.815137 
L 400.130182 67.788434 
L 400.840364 68.669765 
L 401.550545 69.054157 
L 402.260727 69.172889 
L 402.970909 66.96 
L 403.681091 70.020658 
L 404.391273 70.795116 
L 405.101455 70.791841 
L 405.811636 69.941829 
L 406.521818 72.300926 
L 407.942182 74.264552 
L 408.652364 75.62263 
L 409.362545 76.152088 
L 410.072727 76.863049 
L 410.782909 78.218313 
L 411.493091 78.337998 
L 412.203273 78.166208 
L 412.913455 82.708917 
L 413.623636 83.554341 
L 414.333818 83.73603 
L 415.044 85.739645 
L 415.754182 88.36509 
L 416.464364 89.792958 
L 417.174545 88.431958 
L 417.884727 91.033522 
L 418.594909 90.500986 
L 419.305091 89.537391 
L 420.015273 92.244327 
L 420.725455 93.004237 
L 421.435636 91.997302 
L 422.145818 89.203931 
L 422.856 89.7945 
L 424.276364 90.582252 
L 424.986545 88.277498 
L 425.696727 87.318271 
L 426.406909 87.829315 
L 427.117091 87.118666 
L 427.827273 88.16273 
L 428.537455 87.559185 
L 429.247636 87.313016 
L 430.668 89.187663 
L 431.378182 89.962026 
L 432.088364 91.616106 
L 432.798545 92.661611 
L 433.508727 93.20964 
L 434.929091 91.585678 
L 435.639273 92.288272 
L 437.059636 92.780431 
L 437.769818 91.659626 
L 438.48 92.616797 
L 439.190182 92.808962 
L 439.900364 91.860732 
L 440.610545 94.106381 
L 441.320727 92.224268 
L 442.741091 93.321647 
L 444.871636 89.803329 
L 445.581818 89.33866 
L 446.292 87.879827 
L 447.002182 84.611657 
L 447.712364 86.103617 
L 448.422545 90.132167 
L 449.132727 89.676464 
L 449.842909 91.141388 
L 450.553091 89.575517 
L 451.263273 88.700557 
L 451.973455 91.671118 
L 452.683636 91.559126 
L 453.393818 90.169429 
L 454.104 91.477615 
L 454.814182 91.842626 
L 455.524364 92.334972 
L 456.234545 93.314011 
L 456.944727 95.473627 
L 457.654909 94.314263 
L 458.365091 97.120438 
L 459.075273 97.493749 
L 459.785455 96.598966 
L 460.495636 97.828601 
L 461.205818 98.120951 
L 461.916 99.047977 
L 462.626182 98.207287 
L 463.336364 95.637361 
L 464.046545 95.447379 
L 464.756727 95.507284 
L 465.466909 96.78136 
L 466.177091 96.780599 
L 466.887273 99.002175 
L 467.597455 98.187052 
L 468.307636 98.760726 
L 469.728 102.502369 
L 470.438182 102.496844 
L 471.858545 107.254426 
L 472.568727 105.99041 
L 473.278909 105.076588 
L 473.989091 104.916366 
L 474.699273 103.565765 
L 475.409455 101.652554 
L 476.119636 98.698606 
L 476.829818 97.43335 
L 477.54 98.814263 
L 478.250182 97.516146 
L 478.960364 99.191927 
L 479.670545 99.898536 
L 480.380727 97.54424 
L 481.090909 97.521273 
L 481.801091 94.226866 
L 482.511273 92.877433 
L 483.221455 95.193849 
L 483.931636 93.344896 
L 484.641818 90.729424 
L 485.352 90.36899 
L 486.062182 89.24857 
L 486.772364 88.90189 
L 487.482545 89.078257 
L 488.192727 88.703284 
L 488.902909 90.565706 
L 489.613091 89.310441 
L 490.323273 87.457032 
L 491.033455 89.091042 
L 491.743636 87.99004 
L 492.453818 86.017464 
L 493.164 86.976037 
L 493.874182 88.411584 
L 494.584364 88.684747 
L 495.294545 88.076782 
L 496.004727 87.637388 
L 496.714909 87.84463 
L 497.425091 87.033985 
L 498.135273 88.828761 
L 498.845455 88.342148 
L 499.555636 85.042471 
L 500.976 86.48732 
L 501.686182 86.541582 
L 502.396364 86.743359 
L 503.106545 88.454313 
L 503.816727 87.440856 
L 504.526909 87.012747 
L 505.237091 88.123374 
L 505.947273 88.064411 
L 506.657455 88.298326 
L 507.367636 88.232004 
L 508.077818 87.816622 
L 509.498182 89.590312 
L 510.208364 87.797916 
L 510.918545 88.93789 
L 511.628727 89.19086 
L 512.338909 89.773794 
L 513.049091 90.765246 
L 513.759273 89.490722 
L 514.469455 90.460939 
L 515.179636 91.163016 
L 515.889818 91.482346 
L 516.6 92.802786 
L 517.310182 92.632689 
L 518.020364 92.588543 
L 518.730545 92.040138 
L 519.440727 92.487297 
L 520.150909 91.497262 
L 520.861091 92.636826 
L 521.571273 91.932861 
L 522.281455 90.647959 
L 522.991636 89.877871 
L 523.701818 89.806364 
L 524.412 87.364636 
L 525.122182 89.376766 
L 525.832364 89.384467 
L 526.542545 89.606989 
L 527.252727 90.361377 
L 527.962909 92.922913 
L 528.673091 94.256444 
L 529.383273 92.747986 
L 530.093455 93.623643 
L 530.803636 92.799613 
L 531.513818 91.603762 
L 532.224 92.412803 
L 532.934182 90.870829 
L 533.644364 91.490876 
L 534.354545 93.111328 
L 535.064727 91.298051 
L 535.774909 92.712535 
L 536.485091 92.980358 
L 537.195273 92.225932 
L 539.325818 96.70154 
L 540.036 95.372934 
L 540.746182 92.843288 
L 541.456364 94.706427 
L 542.166545 94.001052 
L 542.876727 94.246204 
L 543.586909 92.509994 
L 544.297091 94.102372 
L 545.007273 91.123228 
L 545.717455 88.841692 
L 547.848 85.679539 
L 548.558182 86.274667 
L 549.268364 85.702259 
L 549.978545 87.413929 
L 550.688727 88.368126 
L 551.398909 87.949873 
L 552.109091 86.227236 
L 552.819273 85.946931 
L 553.529455 86.069263 
L 554.239636 85.178341 
L 554.949818 83.280292 
L 555.66 86.755512 
L 556.370182 87.593947 
L 557.080364 87.477252 
L 557.790545 86.905626 
L 558.500727 85.382515 
L 559.210909 85.181291 
L 559.921091 85.971976 
L 560.631273 86.291479 
L 561.341455 84.545426 
L 562.051636 85.901999 
L 562.761818 86.378536 
L 563.472 86.581513 
L 564.182182 88.16669 
L 564.892364 88.853381 
L 565.602545 89.12805 
L 566.312727 87.823467 
L 567.022909 86.764747 
L 567.733091 87.371066 
L 568.443273 88.706244 
L 569.153455 87.857059 
L 569.863636 86.389442 
L 570.573818 86.198558 
L 571.284 83.731849 
L 571.994182 85.020366 
L 572.704364 84.913991 
L 573.414545 84.271119 
L 574.124727 85.989457 
L 574.834909 83.429006 
L 575.545091 86.565965 
L 576.255273 85.518901 
L 576.965455 84.900395 
L 577.675636 84.850473 
L 578.385818 85.40982 
L 579.096 84.803124 
L 579.806182 87.917064 
L 580.516364 89.074743 
L 581.226545 88.693682 
L 581.936727 91.116672 
L 582.646909 91.857005 
L 583.357091 91.332693 
L 584.067273 91.147282 
L 585.487636 90.075612 
L 586.197818 92.219743 
L 587.618182 89.313312 
L 588.328364 89.141115 
L 589.038545 90.242348 
L 589.748727 90.657539 
L 590.458909 90.616212 
L 591.169091 93.004149 
L 591.879273 94.135158 
L 592.589455 92.450131 
L 593.299636 93.381395 
L 594.009818 93.052394 
L 594.72 94.218963 
L 595.430182 94.549802 
L 596.140364 95.944503 
L 596.850545 95.578178 
L 597.560727 97.195345 
L 598.270909 99.344204 
L 598.981091 100.256226 
L 599.691273 99.630997 
L 600.401455 99.955786 
L 601.111636 100.599843 
L 601.821818 100.884394 
L 602.532 101.561144 
L 603.242182 103.176033 
L 604.662545 103.20201 
L 605.372727 104.664692 
L 606.082909 105.738885 
L 606.793091 105.453018 
L 607.503273 103.361342 
L 608.213455 102.16665 
L 608.923636 104.318275 
L 609.633818 103.158416 
L 610.344 104.328178 
L 611.054182 104.246322 
L 611.764364 103.825679 
L 613.184727 102.219077 
L 613.894909 102.558137 
L 614.605091 102.657936 
L 615.315273 100.521505 
L 616.025455 99.288762 
L 616.735636 97.481263 
L 617.445818 97.248968 
L 618.156 98.388787 
L 618.866182 98.09052 
L 619.576364 97.530033 
L 620.286545 99.779216 
L 620.996727 101.139354 
L 621.706909 103.103995 
L 622.417091 103.515835 
L 623.127273 100.939721 
L 623.837455 103.74816 
L 624.547636 101.086675 
L 625.257818 102.649162 
L 625.968 100.674421 
L 626.678182 101.449066 
L 627.388364 101.250624 
L 628.098545 102.14603 
L 628.808727 101.313147 
L 629.518909 103.100013 
L 630.229091 101.176962 
L 631.649455 101.727392 
L 632.359636 102.322059 
L 633.069818 104.444136 
L 633.78 103.44464 
L 634.490182 103.820015 
L 635.200364 106.976134 
L 635.910545 105.103698 
L 636.620727 105.792406 
L 637.330909 106.999648 
L 639.461455 108.275075 
L 640.171636 109.099532 
L 640.881818 107.984605 
L 641.592 108.581672 
L 642.302182 107.851911 
L 643.012364 107.348109 
L 643.722545 105.006961 
L 644.432727 106.455363 
L 645.142909 105.882366 
L 645.853091 103.482286 
L 646.563273 106.756211 
L 647.273455 107.706731 
L 647.983636 110.75894 
L 648.693818 112.841219 
L 650.114182 112.508334 
L 650.824364 114.559809 
L 651.534545 114.126574 
L 652.244727 115.096911 
L 652.954909 115.816817 
L 653.665091 117.750143 
L 654.375273 118.098403 
L 655.085455 118.855562 
L 655.795636 117.408205 
L 656.505818 117.252827 
L 657.216 116.826596 
L 657.926182 118.4124 
L 658.636364 117.585334 
L 659.346545 117.268565 
L 660.056727 118.16439 
L 660.766909 117.852065 
L 661.477091 119.513422 
L 662.187273 120.283633 
L 662.897455 116.94527 
L 663.607636 115.370151 
L 664.317818 116.412177 
L 665.028 116.729775 
L 665.738182 114.607003 
L 666.448364 114.414188 
L 667.158545 116.246692 
L 667.868727 116.058981 
L 668.578909 117.242518 
L 669.289091 115.179553 
L 669.999273 115.739514 
L 670.709455 117.629023 
L 671.419636 115.981822 
L 672.84 114.58665 
L 673.550182 115.709327 
L 674.260364 115.33913 
L 674.970545 115.395657 
L 675.680727 113.800221 
L 676.390909 117.228761 
L 677.101091 116.049648 
L 677.811273 115.84444 
L 678.521455 114.164153 
L 679.231636 114.161988 
L 679.941818 114.604677 
L 680.652 116.68505 
L 681.362182 114.835465 
L 682.072364 114.640538 
L 682.782545 116.095935 
L 683.492727 115.342291 
L 684.202909 113.175194 
L 684.913091 112.480887 
L 685.623273 112.875041 
L 686.333455 112.018129 
L 687.043636 113.836363 
L 687.753818 113.466228 
L 688.464 113.36386 
L 689.174182 112.326644 
L 689.884364 113.712855 
L 691.304727 117.165455 
L 692.014909 119.631316 
L 692.725091 118.355929 
L 693.435273 120.52835 
L 694.145455 117.261042 
L 694.855636 119.182248 
L 695.565818 120.0036 
L 696.276 119.054562 
L 696.986182 119.18431 
L 697.696364 120.773835 
L 698.406545 120.810192 
L 699.116727 117.631072 
L 699.826909 116.091198 
L 700.537091 116.272796 
L 701.247273 115.85702 
L 701.957455 114.913061 
L 702.667636 115.32413 
L 703.377818 116.842625 
L 704.088 117.341276 
L 704.798182 119.38913 
L 705.508364 120.564694 
L 706.218545 119.259723 
L 706.928727 118.890305 
L 707.638909 120.210558 
L 708.349091 120.047595 
L 709.059273 120.907055 
L 709.769455 122.418338 
L 710.479636 123.168102 
L 711.189818 121.077953 
L 711.9 121.791091 
L 712.610182 120.819747 
L 713.320364 122.713627 
L 714.030545 123.421324 
L 714.740727 122.14256 
L 715.450909 122.609549 
L 716.161091 123.266047 
L 716.871273 120.534005 
L 717.581455 122.095062 
L 718.291636 121.542742 
L 719.001818 122.420622 
L 720.422182 122.266649 
L 721.132364 122.456579 
L 721.842545 124.149809 
L 722.552727 122.550637 
L 723.262909 122.992436 
L 723.973091 122.854698 
L 724.683273 123.793401 
L 725.393455 121.356111 
L 726.103636 120.119444 
L 726.813818 121.555986 
L 727.524 121.338364 
L 728.234182 123.846804 
L 728.944364 123.199833 
L 730.364727 126.41105 
L 731.074909 125.492022 
L 731.785091 127.19136 
L 732.495273 128.397591 
L 733.205455 128.592072 
L 733.915636 128.378499 
L 734.625818 129.189341 
L 735.336 128.684121 
L 736.046182 127.993907 
L 736.756364 129.222704 
L 737.466545 128.603995 
L 738.176727 130.115582 
L 739.597091 129.051098 
L 740.307273 128.951777 
L 741.017455 129.581587 
L 741.727636 129.677952 
L 742.437818 129.076862 
L 743.148 131.72672 
L 743.858182 131.680607 
L 744.568364 132.495213 
L 745.278545 132.664763 
L 745.988727 132.606922 
L 746.698909 131.330979 
L 747.409091 131.631283 
L 748.119273 131.471435 
L 748.829455 131.751097 
L 749.539636 135.321619 
L 750.249818 134.248012 
L 750.96 134.073221 
L 751.670182 133.238082 
L 752.380364 131.889995 
L 753.090545 131.628136 
L 753.800727 130.25568 
L 754.510909 133.722091 
L 755.221091 135.493075 
L 755.931273 135.584352 
L 756.641455 136.711371 
L 757.351636 138.890377 
L 758.061818 138.598347 
L 758.772 137.677233 
L 759.482182 136.056414 
L 760.192364 137.249659 
L 760.902545 137.241618 
L 761.612727 136.932811 
L 762.322909 135.086866 
L 763.033091 136.262553 
L 763.743273 136.67351 
L 764.453455 134.027049 
L 765.873818 133.991447 
L 766.584 134.849151 
L 767.294182 134.850915 
L 768.004364 134.206 
L 768.714545 134.210566 
L 769.424727 134.375485 
L 770.134909 132.768536 
L 770.845091 132.411828 
L 771.555273 131.396882 
L 772.265455 132.981863 
L 772.975636 132.667585 
L 773.685818 133.633286 
L 774.396 135.972836 
L 775.106182 134.986664 
L 775.816364 135.655032 
L 776.526545 135.325465 
L 777.236727 135.798376 
L 779.367273 141.690992 
L 780.077455 142.018421 
L 780.787636 139.789106 
L 781.497818 139.231034 
L 782.208 138.52414 
L 782.918182 138.396829 
L 783.628364 139.099695 
L 784.338545 140.679715 
L 785.048727 140.228399 
L 786.469091 138.902225 
L 787.179273 137.366336 
L 787.889455 138.715529 
L 788.599636 142.117926 
L 790.02 143.40946 
L 790.730182 143.585291 
L 791.440364 142.751945 
L 792.150545 141.384817 
L 792.860727 142.176248 
L 793.570909 140.23625 
L 794.281091 141.771673 
L 794.991273 142.614319 
L 795.701455 142.754513 
L 797.121818 141.077591 
L 797.832 142.10592 
L 798.542182 140.187928 
L 799.252364 141.739865 
L 799.962545 141.152198 
L 800.672727 142.712362 
L 801.382909 143.297966 
L 802.093091 142.995748 
L 802.803273 143.684984 
L 803.513455 143.401379 
L 804.933818 144.691889 
L 805.644 147.230633 
L 806.354182 147.281183 
L 807.064364 148.703602 
L 807.774545 150.519343 
L 808.484727 151.772205 
L 809.194909 150.322641 
L 809.905091 149.648699 
L 810.615273 148.411676 
L 811.325455 150.187009 
L 812.035636 149.451794 
L 812.745818 150.456691 
L 813.456 152.406825 
L 814.166182 155.215777 
L 814.876364 156.015167 
L 815.586545 155.380551 
L 816.296727 157.202331 
L 817.006909 158.345794 
L 817.717091 158.718063 
L 818.427273 158.25624 
L 819.137455 157.578291 
L 819.847636 157.479913 
L 820.557818 157.156353 
L 821.268 158.815792 
L 821.978182 158.773227 
L 822.688364 158.135274 
L 823.398545 158.793607 
L 824.108727 160.096318 
L 824.818909 160.681473 
L 825.529091 160.49894 
L 826.239273 160.823396 
L 827.659636 163.269335 
L 828.369818 163.790149 
L 829.08 161.767783 
L 829.790182 160.958257 
L 830.500364 161.441598 
L 831.210545 162.778914 
L 831.920727 163.063342 
L 832.630909 164.351513 
L 833.341091 163.570832 
L 834.051273 162.6135 
L 834.761455 162.349448 
L 836.181818 164.089208 
L 836.892 163.21934 
L 837.602182 164.012398 
L 838.312364 161.572157 
L 839.022545 164.20631 
L 840.442909 167.548557 
L 841.153091 167.668518 
L 841.863273 167.350488 
L 842.573455 169.141367 
L 843.283636 168.388028 
L 843.993818 169.653266 
L 844.704 167.52775 
L 845.414182 168.706713 
L 846.124364 168.868485 
L 846.834545 167.422106 
L 847.544727 168.470659 
L 848.254909 169.011031 
L 848.965091 168.957052 
L 849.675273 166.102267 
L 850.385455 166.642747 
L 851.095636 165.10839 
L 851.805818 165.226097 
L 852.516 165.485312 
L 853.226182 165.60547 
L 853.936364 165.54218 
L 854.646545 165.636566 
L 855.356727 166.591206 
L 856.066909 168.457929 
L 856.777091 167.252356 
L 857.487273 167.864384 
L 858.197455 169.742218 
L 858.907636 167.832396 
L 859.617818 167.448411 
L 860.328 167.210985 
L 861.038182 167.529162 
L 861.748364 167.01607 
L 863.168727 169.777603 
L 863.878909 170.117755 
L 864.589091 168.142104 
L 865.299273 166.660168 
L 866.009455 163.91881 
L 867.429818 165.762859 
L 868.14 166.938643 
L 868.850182 167.459037 
L 869.560364 167.138845 
L 870.270545 168.369262 
L 870.980727 170.484919 
L 871.690909 168.903809 
L 871.690909 168.903809 
" clip-path="url(#pb22da03bd3)" style="fill: none; stroke: #ff7f0e; stroke-width: 1.5; stroke-linecap: square"/>
   </g>
   <g id="line2d_15">
    <path d="M 162.219273 369.36 
L 170.031273 369.223298 
L 172.161818 369.157238 
L 184.234909 368.836823 
L 185.655273 368.75435 
L 187.785818 368.704198 
L 189.916364 368.339465 
L 197.018182 368.137976 
L 198.438545 367.973775 
L 201.279273 367.962756 
L 202.699636 367.839769 
L 220.454182 367.638475 
L 231.106909 367.513086 
L 238.918909 367.411103 
L 239.629091 367.372177 
L 241.759636 366.965557 
L 244.600364 366.875792 
L 249.571636 366.348485 
L 260.934545 365.842663 
L 262.354909 365.758814 
L 265.195636 365.618445 
L 268.036364 365.617196 
L 268.746545 365.490821 
L 274.428 365.380311 
L 275.138182 365.247103 
L 282.24 365.096321 
L 285.080727 365.023219 
L 288.631636 364.886856 
L 291.472364 364.79922 
L 312.777818 364.260691 
L 314.198182 364.112393 
L 315.618545 364.122393 
L 317.038909 364.012374 
L 319.169455 363.94279 
L 325.561091 363.835025 
L 332.662909 363.879836 
L 334.793455 363.77069 
L 335.503636 363.624925 
L 339.054545 363.468414 
L 339.764727 363.313994 
L 350.417455 363.132461 
L 352.548 363.136217 
L 354.678545 363.045502 
L 356.809091 363.007357 
L 368.882182 362.815062 
L 369.592364 362.597464 
L 374.563636 362.406732 
L 375.984 362.355552 
L 376.694182 362.163784 
L 383.085818 362.031583 
L 385.216364 361.958642 
L 394.448727 361.922752 
L 395.158909 361.626446 
L 397.999636 361.525269 
L 402.970909 361.231141 
L 404.391273 361.136314 
L 405.811636 361.140192 
L 406.521818 360.97305 
L 411.493091 360.726383 
L 412.203273 360.728336 
L 412.913455 360.19811 
L 415.044 360.136382 
L 415.754182 359.929015 
L 417.174545 359.844188 
L 417.884727 359.688128 
L 419.305091 359.683509 
L 420.015273 359.569807 
L 421.435636 359.54646 
L 423.566182 359.446622 
L 424.986545 359.302605 
L 429.247636 359.210656 
L 431.378182 359.227666 
L 432.798545 359.064356 
L 445.581818 358.786553 
L 446.292 358.723359 
L 447.002182 358.540832 
L 447.712364 358.534448 
L 448.422545 358.343009 
L 452.683636 358.290008 
L 455.524364 358.203027 
L 457.654909 358.013899 
L 458.365091 357.871802 
L 462.626182 357.833177 
L 464.046545 357.724947 
L 466.177091 357.639424 
L 466.887273 357.545476 
L 469.017818 357.53771 
L 470.438182 357.429692 
L 472.568727 357.249327 
L 476.829818 357.03212 
L 478.960364 356.86014 
L 481.090909 356.797881 
L 481.801091 356.571791 
L 483.931636 356.380724 
L 484.641818 356.202113 
L 489.613091 356.115164 
L 491.033455 355.915143 
L 493.874182 355.821665 
L 498.845455 355.719496 
L 499.555636 355.527009 
L 506.657455 355.511462 
L 512.338909 355.456078 
L 518.020364 355.319606 
L 522.281455 355.331604 
L 523.701818 355.321608 
L 525.122182 355.081007 
L 527.252727 355.074134 
L 527.962909 354.912366 
L 538.615636 354.51125 
L 540.036 354.313637 
L 544.297091 354.026953 
L 545.717455 353.780345 
L 552.109091 353.680161 
L 554.949818 353.672448 
L 555.66 353.44961 
L 558.500727 353.386528 
L 561.341455 353.311328 
L 564.892364 353.119335 
L 570.573818 353.026293 
L 571.994182 352.892103 
L 574.124727 352.79183 
L 576.255273 352.587406 
L 579.096 352.586627 
L 579.806182 352.369232 
L 584.067273 352.2995 
L 596.140364 351.949356 
L 604.662545 351.715262 
L 606.082909 351.608731 
L 608.213455 351.663649 
L 608.923636 351.497769 
L 619.576364 351.309819 
L 627.388364 350.59273 
L 633.78 350.332414 
L 635.200364 350.238493 
L 636.620727 350.103165 
L 638.041091 350.026703 
L 646.563273 349.873549 
L 647.273455 349.826201 
L 648.693818 349.564825 
L 651.534545 349.49091 
L 662.187273 349.193776 
L 662.897455 348.901588 
L 675.680727 348.710045 
L 676.390909 348.558673 
L 679.231636 348.542719 
L 679.941818 348.550376 
L 680.652 348.41633 
L 692.014909 347.996647 
L 707.638909 347.194526 
L 710.479636 347.13068 
L 711.9 347.050929 
L 714.030545 347.033109 
L 716.161091 347.04569 
L 717.581455 346.956459 
L 724.683273 346.713236 
L 726.813818 346.547241 
L 727.524 346.540531 
L 728.234182 346.366712 
L 729.654545 346.231253 
L 730.364727 346.12348 
L 733.915636 346.052576 
L 741.727636 345.954022 
L 745.988727 345.887229 
L 747.409091 345.812075 
L 748.829455 345.808204 
L 749.539636 345.544579 
L 753.800727 345.517303 
L 755.221091 345.373913 
L 756.641455 345.370464 
L 757.351636 345.237592 
L 759.482182 345.155335 
L 762.322909 345.056662 
L 763.743273 345.031701 
L 764.453455 344.877804 
L 771.555273 344.78558 
L 775.816364 344.627679 
L 777.236727 344.628576 
L 778.657091 344.479572 
L 784.338545 344.319036 
L 787.889455 344.227026 
L 789.309818 344.095343 
L 793.570909 343.994492 
L 794.991273 343.884559 
L 799.962545 343.835502 
L 801.382909 343.742165 
L 804.933818 343.711839 
L 806.354182 343.624535 
L 809.194909 343.470923 
L 810.615273 343.461584 
L 812.035636 343.391511 
L 815.586545 343.125202 
L 817.717091 342.948867 
L 820.557818 342.970468 
L 821.268 342.832733 
L 828.369818 342.755131 
L 848.965091 341.839032 
L 849.675273 341.646161 
L 853.936364 341.632337 
L 865.299273 341.60478 
L 866.719636 341.428497 
L 870.270545 341.388263 
L 871.690909 341.276745 
L 871.690909 341.276745 
" clip-path="url(#pb22da03bd3)" style="fill: none; stroke: #2ca02c; stroke-width: 1.5; stroke-linecap: square"/>
   </g>
   <g id="patch_3">
    <path d="M 126 384.48 
L 126 51.84 
" style="fill: none; stroke: #000000; stroke-width: 0.8; stroke-linejoin: miter; stroke-linecap: square"/>
   </g>
   <g id="patch_4">
    <path d="M 907.2 384.48 
L 907.2 51.84 
" style="fill: none; stroke: #000000; stroke-width: 0.8; stroke-linejoin: miter; stroke-linecap: square"/>
   </g>
   <g id="patch_5">
    <path d="M 126 384.48 
L 907.2 384.48 
" style="fill: none; stroke: #000000; stroke-width: 0.8; stroke-linejoin: miter; stroke-linecap: square"/>
   </g>
   <g id="patch_6">
    <path d="M 126 51.84 
L 907.2 51.84 
" style="fill: none; stroke: #000000; stroke-width: 0.8; stroke-linejoin: miter; stroke-linecap: square"/>
   </g>
   <g id="text_15">
    <!-- Quadratic Covariation of $X_t$ and $S_t$ -->
    <g transform="translate(414.54 45.84)scale(0.12 -0.12)">
     <defs>
      <path id="DejaVuSans-66" d="M 2375 4863 
L 2375 4384 
L 1825 4384 
Q 1516 4384 1395 4259 
Q 1275 4134 1275 3809 
L 1275 3500 
L 2222 3500 
L 2222 3053 
L 1275 3053 
L 1275 0 
L 697 0 
L 697 3053 
L 147 3053 
L 147 3500 
L 697 3500 
L 697 3744 
Q 697 4328 969 4595 
Q 1241 4863 1831 4863 
L 2375 4863 
z
" transform="scale(0.015625)"/>
      <path id="DejaVuSans-Oblique-58" d="M 878 4666 
L 1516 4666 
L 2316 2981 
L 3763 4666 
L 4500 4666 
L 2578 2438 
L 3738 0 
L 3103 0 
L 2163 1966 
L 459 0 
L -275 0 
L 1906 2509 
L 878 4666 
z
" transform="scale(0.015625)"/>
      <path id="DejaVuSans-Oblique-74" d="M 2706 3500 
L 2619 3053 
L 1472 3053 
L 1100 1153 
Q 1081 1047 1072 975 
Q 1063 903 1063 863 
Q 1063 663 1183 572 
Q 1303 481 1569 481 
L 2150 481 
L 2053 0 
L 1503 0 
Q 991 0 739 200 
Q 488 400 488 806 
Q 488 878 497 964 
Q 506 1050 525 1153 
L 897 3053 
L 409 3053 
L 500 3500 
L 978 3500 
L 1172 4494 
L 1747 4494 
L 1556 3500 
L 2706 3500 
z
" transform="scale(0.015625)"/>
      <path id="DejaVuSans-Oblique-53" d="M 3859 4513 
L 3738 3897 
Q 3422 4066 3111 4152 
Q 2800 4238 2509 4238 
Q 1944 4238 1609 3991 
Q 1275 3744 1275 3334 
Q 1275 3109 1398 2989 
Q 1522 2869 2034 2731 
L 2413 2638 
Q 3053 2472 3303 2217 
Q 3553 1963 3553 1503 
Q 3553 797 2998 353 
Q 2444 -91 1538 -91 
Q 1166 -91 791 -17 
Q 416 56 38 206 
L 166 856 
Q 513 641 861 531 
Q 1209 422 1556 422 
Q 2147 422 2503 684 
Q 2859 947 2859 1369 
Q 2859 1650 2717 1795 
Q 2575 1941 2106 2059 
L 1728 2156 
Q 1081 2325 845 2545 
Q 609 2766 609 3163 
Q 609 3859 1145 4304 
Q 1681 4750 2541 4750 
Q 2875 4750 3203 4690 
Q 3531 4631 3859 4513 
z
" transform="scale(0.015625)"/>
     </defs>
     <use xlink:href="#DejaVuSans-51" transform="translate(0 0.015625)"/>
     <use xlink:href="#DejaVuSans-75" transform="translate(78.710938 0.015625)"/>
     <use xlink:href="#DejaVuSans-61" transform="translate(142.089844 0.015625)"/>
     <use xlink:href="#DejaVuSans-64" transform="translate(203.369141 0.015625)"/>
     <use xlink:href="#DejaVuSans-72" transform="translate(266.845703 0.015625)"/>
     <use xlink:href="#DejaVuSans-61" transform="translate(307.958984 0.015625)"/>
     <use xlink:href="#DejaVuSans-74" transform="translate(369.238281 0.015625)"/>
     <use xlink:href="#DejaVuSans-69" transform="translate(408.447266 0.015625)"/>
     <use xlink:href="#DejaVuSans-63" transform="translate(436.230469 0.015625)"/>
     <use xlink:href="#DejaVuSans-20" transform="translate(491.210938 0.015625)"/>
     <use xlink:href="#DejaVuSans-43" transform="translate(522.998047 0.015625)"/>
     <use xlink:href="#DejaVuSans-6f" transform="translate(592.822266 0.015625)"/>
     <use xlink:href="#DejaVuSans-76" transform="translate(654.003906 0.015625)"/>
     <use xlink:href="#DejaVuSans-61" transform="translate(713.183594 0.015625)"/>
     <use xlink:href="#DejaVuSans-72" transform="translate(774.462891 0.015625)"/>
     <use xlink:href="#DejaVuSans-69" transform="translate(815.576172 0.015625)"/>
     <use xlink:href="#DejaVuSans-61" transform="translate(843.359375 0.015625)"/>
     <use xlink:href="#DejaVuSans-74" transform="translate(904.638672 0.015625)"/>
     <use xlink:href="#DejaVuSans-69" transform="translate(943.847656 0.015625)"/>
     <use xlink:href="#DejaVuSans-6f" transform="translate(971.630859 0.015625)"/>
     <use xlink:href="#DejaVuSans-6e" transform="translate(1032.8125 0.015625)"/>
     <use xlink:href="#DejaVuSans-20" transform="translate(1096.191406 0.015625)"/>
     <use xlink:href="#DejaVuSans-6f" transform="translate(1127.978516 0.015625)"/>
     <use xlink:href="#DejaVuSans-66" transform="translate(1189.160156 0.015625)"/>
     <use xlink:href="#DejaVuSans-20" transform="translate(1224.365234 0.015625)"/>
     <use xlink:href="#DejaVuSans-Oblique-58" transform="translate(1256.152344 0.015625)"/>
     <use xlink:href="#DejaVuSans-Oblique-74" transform="translate(1324.658203 -16.390625)scale(0.7)"/>
     <use xlink:href="#DejaVuSans-20" transform="translate(1354.838867 0.015625)"/>
     <use xlink:href="#DejaVuSans-61" transform="translate(1386.625977 0.015625)"/>
     <use xlink:href="#DejaVuSans-6e" transform="translate(1447.905273 0.015625)"/>
     <use xlink:href="#DejaVuSans-64" transform="translate(1511.28418 0.015625)"/>
     <use xlink:href="#DejaVuSans-20" transform="translate(1574.760742 0.015625)"/>
     <use xlink:href="#DejaVuSans-Oblique-53" transform="translate(1606.547852 0.015625)"/>
     <use xlink:href="#DejaVuSans-Oblique-74" transform="translate(1670.024414 -16.390625)scale(0.7)"/>
    </g>
   </g>
   <g id="legend_1">
    <g id="patch_7">
     <path d="M 698.1 103.874375 
L 900.2 103.874375 
Q 902.2 103.874375 902.2 101.874375 
L 902.2 58.84 
Q 902.2 56.84 900.2 56.84 
L 698.1 56.84 
Q 696.1 56.84 696.1 58.84 
L 696.1 101.874375 
Q 696.1 103.874375 698.1 103.874375 
z
" style="fill: #ffffff; opacity: 0.8; stroke: #cccccc; stroke-linejoin: miter"/>
    </g>
    <g id="line2d_16">
     <path d="M 700.1 64.938437 
L 710.1 64.938437 
L 720.1 64.938437 
" style="fill: none; stroke: #1f77b4; stroke-width: 1.5; stroke-linecap: square"/>
    </g>
    <g id="text_16">
     <!-- $X_t$ -->
     <g transform="translate(728.1 68.438437)scale(0.1 -0.1)">
      <use xlink:href="#DejaVuSans-Oblique-58" transform="translate(0 0.09375)"/>
      <use xlink:href="#DejaVuSans-Oblique-74" transform="translate(68.505859 -16.3125)scale(0.7)"/>
     </g>
    </g>
    <g id="line2d_17">
     <path d="M 700.1 79.616562 
L 710.1 79.616562 
L 720.1 79.616562 
" style="fill: none; stroke: #ff7f0e; stroke-width: 1.5; stroke-linecap: square"/>
    </g>
    <g id="text_17">
     <!-- $S_t$ -->
     <g transform="translate(728.1 83.116562)scale(0.1 -0.1)">
      <use xlink:href="#DejaVuSans-Oblique-53" transform="translate(0 0.78125)"/>
      <use xlink:href="#DejaVuSans-Oblique-74" transform="translate(63.476562 -15.625)scale(0.7)"/>
     </g>
    </g>
    <g id="line2d_18">
     <path d="M 700.1 94.294687 
L 710.1 94.294687 
L 720.1 94.294687 
" style="fill: none; stroke: #2ca02c; stroke-width: 1.5; stroke-linecap: square"/>
    </g>
    <g id="text_18">
     <!-- Quadratic Covariation of $X_t$ and $S_t$ -->
     <g transform="translate(728.1 97.794687)scale(0.1 -0.1)">
      <use xlink:href="#DejaVuSans-51" transform="translate(0 0.015625)"/>
      <use xlink:href="#DejaVuSans-75" transform="translate(78.710938 0.015625)"/>
      <use xlink:href="#DejaVuSans-61" transform="translate(142.089844 0.015625)"/>
      <use xlink:href="#DejaVuSans-64" transform="translate(203.369141 0.015625)"/>
      <use xlink:href="#DejaVuSans-72" transform="translate(266.845703 0.015625)"/>
      <use xlink:href="#DejaVuSans-61" transform="translate(307.958984 0.015625)"/>
      <use xlink:href="#DejaVuSans-74" transform="translate(369.238281 0.015625)"/>
      <use xlink:href="#DejaVuSans-69" transform="translate(408.447266 0.015625)"/>
      <use xlink:href="#DejaVuSans-63" transform="translate(436.230469 0.015625)"/>
      <use xlink:href="#DejaVuSans-20" transform="translate(491.210938 0.015625)"/>
      <use xlink:href="#DejaVuSans-43" transform="translate(522.998047 0.015625)"/>
      <use xlink:href="#DejaVuSans-6f" transform="translate(592.822266 0.015625)"/>
      <use xlink:href="#DejaVuSans-76" transform="translate(654.003906 0.015625)"/>
      <use xlink:href="#DejaVuSans-61" transform="translate(713.183594 0.015625)"/>
      <use xlink:href="#DejaVuSans-72" transform="translate(774.462891 0.015625)"/>
      <use xlink:href="#DejaVuSans-69" transform="translate(815.576172 0.015625)"/>
      <use xlink:href="#DejaVuSans-61" transform="translate(843.359375 0.015625)"/>
      <use xlink:href="#DejaVuSans-74" transform="translate(904.638672 0.015625)"/>
      <use xlink:href="#DejaVuSans-69" transform="translate(943.847656 0.015625)"/>
      <use xlink:href="#DejaVuSans-6f" transform="translate(971.630859 0.015625)"/>
      <use xlink:href="#DejaVuSans-6e" transform="translate(1032.8125 0.015625)"/>
      <use xlink:href="#DejaVuSans-20" transform="translate(1096.191406 0.015625)"/>
      <use xlink:href="#DejaVuSans-6f" transform="translate(1127.978516 0.015625)"/>
      <use xlink:href="#DejaVuSans-66" transform="translate(1189.160156 0.015625)"/>
      <use xlink:href="#DejaVuSans-20" transform="translate(1224.365234 0.015625)"/>
      <use xlink:href="#DejaVuSans-Oblique-58" transform="translate(1256.152344 0.015625)"/>
      <use xlink:href="#DejaVuSans-Oblique-74" transform="translate(1324.658203 -16.390625)scale(0.7)"/>
      <use xlink:href="#DejaVuSans-20" transform="translate(1354.838867 0.015625)"/>
      <use xlink:href="#DejaVuSans-61" transform="translate(1386.625977 0.015625)"/>
      <use xlink:href="#DejaVuSans-6e" transform="translate(1447.905273 0.015625)"/>
      <use xlink:href="#DejaVuSans-64" transform="translate(1511.28418 0.015625)"/>
      <use xlink:href="#DejaVuSans-20" transform="translate(1574.760742 0.015625)"/>
      <use xlink:href="#DejaVuSans-Oblique-53" transform="translate(1606.547852 0.015625)"/>
      <use xlink:href="#DejaVuSans-Oblique-74" transform="translate(1670.024414 -16.390625)scale(0.7)"/>
     </g>
    </g>
   </g>
  </g>
 </g>
 <defs>
  <clipPath id="pb22da03bd3">
   <rect x="126" y="51.84" width="781.2" height="332.64"/>
  </clipPath>
 </defs>
</svg>
