<svg id="SvgjsSvg1001" width="817.3359375" height="294.9765625" xmlns="http://www.w3.org/2000/svg" version="1.1" xmlns:xlink="http://www.w3.org/1999/xlink" xmlns:svgjs="http://svgjs.com/svgjs"><defs id="SvgjsDefs1002"><pattern id="SvgjsPattern1012" x="0" y="0" width="73" height="35" patternUnits="userSpaceOnUse"><image id="SvgjsImage1013" xlink:href="https://cdn.processon.com/6436da5d08de7d7a2ed454b2?e=1681320045&amp;token=trhI0BY8QfVrIGn9nENop6JAc6l5nZuxhjQ62UfM:wVye-c7jeC-Kdi453HUUSkoBzWo=" width="210" height="258" preserveAspectRatio="none" crossOrigin="anonymous" x="0" y="-153"></image></pattern><pattern id="SvgjsPattern1024" x="0" y="0" width="210" height="51" patternUnits="userSpaceOnUse"><image id="SvgjsImage1025" xlink:href="https://cdn.processon.com/6436da5d08de7d7a2ed454b2?e=1681320045&amp;token=trhI0BY8QfVrIGn9nENop6JAc6l5nZuxhjQ62UfM:wVye-c7jeC-Kdi453HUUSkoBzWo=" width="210" height="258" preserveAspectRatio="none" crossOrigin="anonymous" x="0" y="-102"></image></pattern><pattern id="SvgjsPattern1030" x="0" y="0" width="210" height="51" patternUnits="userSpaceOnUse"><image id="SvgjsImage1031" xlink:href="https://cdn.processon.com/6436da5d08de7d7a2ed454b2?e=1681320045&amp;token=trhI0BY8QfVrIGn9nENop6JAc6l5nZuxhjQ62UfM:wVye-c7jeC-Kdi453HUUSkoBzWo=" width="210" height="258" preserveAspectRatio="none" crossOrigin="anonymous" x="0" y="-51"></image></pattern><pattern id="SvgjsPattern1036" x="0" y="0" width="210" height="51" patternUnits="userSpaceOnUse"><image id="SvgjsImage1037" xlink:href="https://cdn.processon.com/6436da5d08de7d7a2ed454b2?e=1681320045&amp;token=trhI0BY8QfVrIGn9nENop6JAc6l5nZuxhjQ62UfM:wVye-c7jeC-Kdi453HUUSkoBzWo=" width="210" height="258" preserveAspectRatio="none" crossOrigin="anonymous" x="0" y="0"></image></pattern><pattern id="SvgjsPattern1048" x="0" y="0" width="73" height="35" patternUnits="userSpaceOnUse"><image id="SvgjsImage1049" xlink:href="https://cdn.processon.com/6436da5d08de7d7a2ed454b2?e=1681320045&amp;token=trhI0BY8QfVrIGn9nENop6JAc6l5nZuxhjQ62UfM:wVye-c7jeC-Kdi453HUUSkoBzWo=" width="210" height="258" preserveAspectRatio="none" crossOrigin="anonymous" x="0" y="-188"></image></pattern><pattern id="SvgjsPattern1054" x="0" y="0" width="73" height="35" patternUnits="userSpaceOnUse"><image id="SvgjsImage1055" xlink:href="https://cdn.processon.com/6436da5d08de7d7a2ed454b2?e=1681320045&amp;token=trhI0BY8QfVrIGn9nENop6JAc6l5nZuxhjQ62UfM:wVye-c7jeC-Kdi453HUUSkoBzWo=" width="210" height="258" preserveAspectRatio="none" crossOrigin="anonymous" x="0" y="-223"></image></pattern></defs><g id="SvgjsG1008" transform="translate(233.67013549804688,127.9765625)"><path id="SvgjsPath1009" d="M 0 0L 72.98611450195312 0L 72.98611450195312 37.96875762939453L 0 37.96875762939453Z" stroke="none" fill="none"></path><g id="SvgjsG1010"><rect id="SvgjsRect1011" width="73" height="35" transform="translate(0,1.4843788146972656)" fill="url(#SvgjsPattern1012)"></rect></g></g><g id="SvgjsG1014" transform="translate(130.67013549804688,25.00780487060547)"><path id="SvgjsPath1015" d="M 0 0L 556 0L 556 101L 0 101Z" stroke="rgba(255,255,255,1)" stroke-width="5" fill-opacity="1" fill="#2b6772"></path><g id="SvgjsG1016"><text id="SvgjsText1017" font-family="&quot;Times New Roman&quot;" text-anchor="middle" font-size="35px" width="536px" fill="#ffffff" font-weight="700" align="middle" lineHeight="125%" anchor="middle" family="&quot;Times New Roman&quot;" size="35px" weight="700" font-style="" opacity="1" y="20.125" transform="rotate(0)"><tspan id="SvgjsTspan1018" dy="43" x="278"><tspan id="SvgjsTspan1019" style="text-decoration:;">target</tspan></tspan></text></g></g><g id="SvgjsG1020" transform="translate(25.003468831380246,196.9765625)"><path id="SvgjsPath1021" d="M 0 0L 230 0L 230 73L 0 73Z" stroke="rgba(255,255,255,1)" stroke-width="5" fill-opacity="1" fill="#fe934b"></path><g id="SvgjsG1022"><rect id="SvgjsRect1023" width="210" height="51" transform="translate(10,11)" fill="url(#SvgjsPattern1024)"></rect></g></g><g id="SvgjsG1026" transform="translate(293.6701354980469,196.9765625)"><path id="SvgjsPath1027" d="M 0 0L 230 0L 230 73L 0 73Z" stroke="rgba(255,255,255,1)" stroke-width="5" fill-opacity="1" fill="#fe934b"></path><g id="SvgjsG1028"><rect id="SvgjsRect1029" width="210" height="51" transform="translate(10,11)" fill="url(#SvgjsPattern1030)"></rect></g></g><g id="SvgjsG1032" transform="translate(562.3368021647135,196.9765625)"><path id="SvgjsPath1033" d="M 0 0L 230 0L 230 73L 0 73Z" stroke="rgba(255,255,255,1)" stroke-width="5" fill-opacity="1" fill="#fe934b"></path><g id="SvgjsG1034"><rect id="SvgjsRect1035" width="210" height="51" transform="translate(10,11)" fill="url(#SvgjsPattern1036)"></rect></g></g><g id="SvgjsG1038"><path id="SvgjsPath1039" d="M408.6701354980469 128.50780487060547L408.6701354980469 161.49218368530273L140.00346883138025 161.49218368530273L140.00346883138025 194.4765625" stroke="#fe934b" stroke-width="5" fill="none"></path></g><g id="SvgjsG1040"><path id="SvgjsPath1041" d="M408.6701354980469 128.50780487060547L408.6701354980469 161.49218368530273L408.6701354980469 161.49218368530273L408.6701354980469 194.4765625" stroke="#fe934b" stroke-width="5" fill="none"></path></g><g id="SvgjsG1042"><path id="SvgjsPath1043" d="M408.6701354980469 128.50780487060547L408.6701354980469 161.49218368530273L677.3368021647135 161.49218368530273L677.3368021647135 194.4765625" stroke="#fe934b" stroke-width="5" fill="none"></path></g><g id="SvgjsG1044" transform="translate(393.00346883138025,123.9765625)"><path id="SvgjsPath1045" d="M 0 0L 72.98611450195312 0L 72.98611450195312 37.96875762939453L 0 37.96875762939453Z" stroke="none" fill="none"></path><g id="SvgjsG1046"><rect id="SvgjsRect1047" width="73" height="35" transform="translate(0,1.4843788146972656)" fill="url(#SvgjsPattern1048)"></rect></g></g><g id="SvgjsG1050" transform="translate(518.0034688313802,127.9765625)"><path id="SvgjsPath1051" d="M 0 0L 72.98611450195312 0L 72.98611450195312 37.96875762939453L 0 37.96875762939453Z" stroke="none" fill="none"></path><g id="SvgjsG1052"><rect id="SvgjsRect1053" width="73" height="35" transform="translate(0,1.4843788146972656)" fill="url(#SvgjsPattern1054)"></rect></g></g></svg>